M48
; DRILL file {KiCad 8.0.6} date 2025-06-02T13:03:05-0400
; FORMAT={-:-/ absolute / inch / decimal}
; #@! TF.CreationDate,2025-06-02T13:03:05-04:00
; #@! TF.GenerationSoftware,Kicad,Pcbnew,8.0.6
; #@! TF.FileFunction,Plated,1,8,PTH
FMAT,2
INCH
; #@! TA.AperFunction,Plated,PTH,ViaDrill
T1C0.0118
; #@! TA.AperFunction,Plated,PTH,ViaDrill
T2C0.0197
; #@! TA.AperFunction,Plated,PTH,ComponentDrill
T3C0.0409
; #@! TA.AperFunction,Plated,PTH,ComponentDrill
T4C0.0429
; #@! TA.AperFunction,Plated,PTH,ComponentDrill
T5C0.0433
; #@! TA.AperFunction,Plated,PTH,ComponentDrill
T6C0.0551
; #@! TA.AperFunction,Plated,PTH,ComponentDrill
T7C0.0590
; #@! TA.AperFunction,Plated,PTH,ComponentDrill
T8C0.0630
; #@! TA.AperFunction,Plated,PTH,ComponentDrill
T9C0.0650
; #@! TA.AperFunction,Plated,PTH,ComponentDrill
T10C0.0670
; #@! TA.AperFunction,Plated,PTH,ComponentDrill
T11C0.0945
; #@! TA.AperFunction,Plated,PTH,ComponentDrill
T12C0.1260
%
G90
G05
T1
X1.9685Y-4.626
X1.9685Y-4.8228
X1.9685Y-5.0197
X1.9685Y-5.2165
X2.1654Y-4.626
X2.1654Y-4.8228
X2.1654Y-5.0197
X2.1654Y-5.4134
X2.3622Y-0.9843
X2.3622Y-1.1811
X2.3622Y-2.6575
X2.3622Y-4.626
X2.3622Y-4.8228
X2.3622Y-5.0197
X2.3622Y-5.2165
X2.3622Y-5.4134
X2.439Y-1.8811
X2.439Y-2.0449
X2.5055Y-3.8943
X2.5055Y-3.9337
X2.5055Y-3.973
X2.5449Y-3.8943
X2.5449Y-3.9337
X2.5449Y-3.973
X2.5591Y-0.9843
X2.5591Y-1.1811
X2.5591Y-1.378
X2.5591Y-1.5748
X2.5591Y-2.2638
X2.5591Y-2.4606
X2.5591Y-2.6575
X2.5591Y-2.8543
X2.5591Y-3.0512
X2.5591Y-3.248
X2.5591Y-3.4449
X2.5591Y-3.6417
X2.5591Y-4.2323
X2.5591Y-4.4291
X2.5591Y-4.626
X2.5591Y-4.8228
X2.5591Y-5.0197
X2.5591Y-5.2165
X2.5591Y-5.4134
X2.5843Y-3.8943
X2.5843Y-3.9337
X2.5843Y-3.973
X2.6472Y-2.039
X2.7559Y-0.9843
X2.7559Y-1.1811
X2.7559Y-1.378
X2.7559Y-1.5748
X2.7559Y-2.4606
X2.7559Y-2.6575
X2.7559Y-2.8543
X2.7559Y-3.0512
X2.7559Y-3.248
X2.7559Y-3.4449
X2.7559Y-3.6417
X2.7559Y-4.626
X2.7559Y-4.8228
X2.7559Y-5.0197
X2.7559Y-5.2165
X2.7559Y-5.4134
X2.7819Y-2.0398
X2.9528Y-0.9843
X2.9528Y-1.1811
X2.9528Y-1.378
X2.9528Y-1.5748
X2.9528Y-2.2638
X2.9528Y-2.4606
X2.9528Y-2.6575
X2.9528Y-2.8543
X2.9528Y-3.0512
X2.9528Y-3.248
X2.9528Y-3.4449
X2.9528Y-3.6417
X2.9528Y-4.4291
X2.9528Y-4.626
X2.9528Y-4.8228
X2.9528Y-5.0197
X2.9528Y-5.2165
X2.9528Y-5.4134
X3.0732Y-2.1071
X3.1496Y-0.9843
X3.1496Y-1.1811
X3.1496Y-1.378
X3.1496Y-1.5748
X3.1496Y-2.2638
X3.1496Y-2.4606
X3.1496Y-2.6575
X3.1496Y-2.8543
X3.1496Y-3.0512
X3.1496Y-3.248
X3.1496Y-3.6417
X3.1496Y-4.2323
X3.1496Y-4.4291
X3.1496Y-4.626
X3.1496Y-4.8228
X3.1496Y-5.0197
X3.1496Y-5.2165
X3.1496Y-5.4134
X3.3465Y-0.9843
X3.3465Y-1.1811
X3.3465Y-1.378
X3.3465Y-1.5748
X3.3465Y-2.4606
X3.3465Y-2.6575
X3.3465Y-2.8543
X3.3465Y-3.0512
X3.3465Y-3.248
X3.3465Y-3.4449
X3.3465Y-3.6417
X3.3465Y-4.2323
X3.3465Y-4.4291
X3.3465Y-4.626
X3.3465Y-4.8228
X3.3465Y-5.0197
X3.3465Y-5.2165
X3.3465Y-5.4134
X3.3829Y-1.6673
X3.5433Y-0.9843
X3.5433Y-1.1811
X3.5433Y-1.378
X3.5433Y-1.5748
X3.5433Y-2.1654
X3.5433Y-2.4606
X3.5433Y-2.6575
X3.5433Y-2.8543
X3.5433Y-3.0512
X3.5433Y-3.248
X3.5433Y-3.4449
X3.5433Y-4.4291
X3.5433Y-4.626
X3.5433Y-4.8228
X3.5433Y-5.0197
X3.5433Y-5.2165
X3.5433Y-5.4134
X3.5547Y-2.0287
X3.6346Y-1.5517
X3.7254Y-1.9594
X3.7402Y-0.9843
X3.7402Y-1.1811
X3.7402Y-2.1654
X3.7402Y-2.4606
X3.7402Y-2.6575
X3.7402Y-2.8543
X3.7402Y-3.0512
X3.7402Y-3.248
X3.7402Y-3.4449
X3.7402Y-4.4291
X3.7402Y-4.626
X3.7402Y-4.8228
X3.7402Y-5.0197
X3.7402Y-5.2165
X3.7402Y-5.4134
X3.937Y-0.9843
X3.937Y-1.1811
X3.937Y-1.5748
X3.937Y-1.9685
X3.937Y-2.1654
X3.937Y-2.4606
X3.937Y-2.6575
X3.937Y-2.8543
X3.937Y-3.0512
X3.937Y-3.248
X3.937Y-3.4449
X3.937Y-4.4291
X3.937Y-4.626
X3.937Y-4.8228
X3.937Y-5.0197
X3.937Y-5.2165
X3.937Y-5.4134
X3.9614Y-1.4269
X4.1339Y-1.378
X4.1339Y-1.5748
X4.1339Y-1.9685
X4.1339Y-2.1654
X4.1339Y-2.4606
X4.1339Y-2.6575
X4.1339Y-2.8543
X4.1339Y-3.0512
X4.1339Y-3.248
X4.1339Y-3.4449
X4.1339Y-3.6417
X4.1339Y-3.8386
X4.1339Y-4.0354
X4.1339Y-4.2323
X4.1339Y-4.4291
X4.1339Y-4.626
X4.1339Y-4.8228
X4.1339Y-5.0197
X4.1339Y-5.2165
X4.1339Y-5.4134
X4.3307Y-1.378
X4.3307Y-1.5748
X4.3307Y-1.9685
X4.3307Y-2.1654
X4.3307Y-2.4606
X4.3307Y-2.6575
X4.3307Y-2.8543
X4.3307Y-3.0512
X4.3307Y-3.248
X4.3307Y-3.4449
X4.3307Y-4.626
X4.3307Y-4.8228
X4.3307Y-5.0197
X4.3307Y-5.2165
X4.3307Y-5.4134
X4.5276Y-1.378
X4.5276Y-1.5748
X4.5276Y-1.9685
X4.5276Y-2.1654
X4.5276Y-2.4606
X4.5276Y-2.6575
X4.5276Y-2.8543
X4.5276Y-3.0512
X4.5276Y-3.248
X4.5276Y-3.4449
X4.5276Y-4.626
X4.5276Y-4.8228
X4.5276Y-5.0197
X4.5276Y-5.2165
X4.5276Y-5.4134
X4.7244Y-0.9843
X4.7244Y-1.1811
X4.7244Y-1.378
X4.7244Y-1.5748
X4.7244Y-2.6575
X4.7244Y-2.8543
X4.7244Y-3.0512
X4.7244Y-3.248
X4.7244Y-3.4449
X4.7244Y-4.626
X4.7244Y-4.8228
X4.7244Y-5.0197
X4.7244Y-5.2165
X4.7244Y-5.4134
X4.8459Y-2.1211
X4.8628Y-2.8325
X4.8628Y-4.6368
X4.9213Y-0.9843
X4.9213Y-1.1811
X4.9213Y-1.378
X4.9213Y-1.5748
X4.9213Y-4.8228
X4.9213Y-5.0197
X4.9213Y-5.2165
X4.9213Y-5.4134
X4.9258Y-2.912
X4.9258Y-3.6396
X5.0963Y-2.2053
X5.0988Y-3.2382
X5.1181Y-0.9843
X5.1181Y-1.1811
X5.1181Y-1.378
X5.1181Y-1.5748
X5.1181Y-4.8228
X5.1181Y-5.0197
X5.1181Y-5.2165
X5.1181Y-5.4134
X5.236Y-2.2644
X5.3006Y-1.9778
X5.315Y-0.9843
X5.315Y-1.1811
X5.315Y-1.378
X5.315Y-2.3622
X5.315Y-2.6575
X5.315Y-5.2165
X5.315Y-5.4134
X5.5118Y-0.9843
X5.5118Y-1.1811
X5.5118Y-1.378
X5.5118Y-1.9685
X5.5118Y-2.3622
X5.5118Y-2.6575
X5.5118Y-5.2165
X5.5118Y-5.4134
X5.7087Y-0.9843
X5.7087Y-1.1811
X5.7087Y-1.378
X5.7087Y-1.9685
X5.7087Y-2.1654
X5.7087Y-2.3622
X5.7087Y-2.6575
X5.7087Y-5.2165
X5.7087Y-5.4134
X5.9055Y-0.9843
X5.9055Y-1.1811
X5.9055Y-1.378
X5.9055Y-1.9685
X5.9055Y-2.1654
X5.9055Y-2.3622
X5.9055Y-2.6575
X5.9055Y-5.2165
X5.9055Y-5.4134
X6.1024Y-0.9843
X6.1024Y-1.1811
X6.1024Y-1.378
X6.1024Y-1.9685
X6.1024Y-2.1654
X6.1024Y-2.3622
X6.1024Y-2.6575
X6.1024Y-5.2165
X6.1024Y-5.4134
X6.2992Y-0.9843
X6.2992Y-1.1811
X6.2992Y-1.378
X6.2992Y-1.9685
X6.2992Y-2.1654
X6.2992Y-2.3622
X6.2992Y-2.6575
X6.2992Y-5.2165
X6.2992Y-5.4134
X6.4961Y-0.9843
X6.4961Y-1.1811
X6.4961Y-1.378
X6.4961Y-1.5748
X6.4961Y-2.6575
X6.4961Y-5.2165
X6.4961Y-5.4134
X6.5031Y-1.8266
X6.5772Y-1.8811
X6.6433Y-1.772
X6.6929Y-0.9843
X6.6929Y-1.1811
X6.6929Y-1.378
X6.6929Y-1.5748
X6.6929Y-2.1654
X6.6929Y-2.6575
X6.6929Y-5.2165
X6.6929Y-5.4134
X6.8898Y-0.9843
X6.8898Y-1.1811
X6.8898Y-1.378
X6.8898Y-1.9685
X6.8898Y-2.1654
X6.8898Y-2.6575
X6.8898Y-5.2165
X6.8898Y-5.4134
X6.8941Y-1.6169
X6.9043Y-1.8969
X7.0362Y-1.822
X7.0866Y-0.9843
X7.0866Y-1.1811
X7.0866Y-1.378
X7.0866Y-1.5748
X7.0866Y-1.9685
X7.0866Y-2.1654
X7.0866Y-2.6575
X7.0866Y-5.2165
X7.0866Y-5.4134
X7.1134Y-1.6724
X7.1622Y-2.2268
X7.2035Y-1.9524
X7.2835Y-0.9843
X7.2835Y-1.1811
X7.2835Y-1.378
X7.2835Y-1.5748
X7.2835Y-2.1654
X7.2835Y-2.6575
X7.2835Y-5.2165
X7.2835Y-5.4134
X7.2965Y-2.2728
X7.3252Y-1.722
X7.4803Y-0.9843
X7.4803Y-1.1811
X7.4803Y-1.5748
X7.4803Y-1.7717
X7.4803Y-1.9685
X7.4803Y-2.3622
X7.4803Y-2.6575
X7.4803Y-3.4449
X7.4803Y-3.8386
X7.4803Y-4.0354
X7.4803Y-4.4291
X7.4803Y-5.2165
X7.4803Y-5.4134
X7.5063Y-1.4035
X7.5413Y-2.2157
X7.6772Y-0.9843
X7.6772Y-1.1811
X7.6772Y-1.5748
X7.6772Y-1.7717
X7.6772Y-1.9685
X7.6772Y-2.3622
X7.6772Y-4.4291
X7.6772Y-5.2165
X7.6772Y-5.4134
X7.7063Y-4.5161
X7.7063Y-4.7283
X7.874Y-0.9843
X7.874Y-2.3622
X7.874Y-2.5591
X7.874Y-2.7559
X7.874Y-2.9528
X7.874Y-3.6417
X7.874Y-3.8386
X7.874Y-4.0354
X7.874Y-4.2323
X7.874Y-4.4291
X7.874Y-4.626
X7.874Y-4.8228
X7.874Y-5.0197
X7.874Y-5.2165
X7.874Y-5.4134
X8.0274Y-3.1774
X8.0274Y-3.3858
X8.0709Y-0.9843
X8.0709Y-2.3622
X8.0709Y-2.5591
X8.0709Y-2.7559
X8.0709Y-2.9528
X8.0709Y-3.8386
X8.0709Y-4.0354
X8.0709Y-4.2323
X8.0709Y-4.4291
X8.0709Y-4.626
X8.0709Y-4.8228
X8.0709Y-5.0197
X8.0709Y-5.2165
X8.0709Y-5.4134
X8.1109Y-3.1776
X8.111Y-1.6169
X8.2087Y-2.2728
X8.2655Y-3.5653
X8.2677Y-0.9843
X8.2677Y-1.1811
X8.2677Y-1.378
X8.2677Y-2.3622
X8.2677Y-2.5591
X8.2677Y-2.7559
X8.2677Y-2.9528
X8.2677Y-4.0354
X8.2677Y-4.4291
X8.2677Y-4.626
X8.2677Y-4.8228
X8.2677Y-5.0197
X8.2677Y-5.2165
X8.2677Y-5.4134
X8.3462Y-3.6247
X8.4646Y-0.9843
X8.4646Y-1.1811
X8.4646Y-1.378
X8.4646Y-1.5748
X8.4646Y-1.7717
X8.4646Y-1.9685
X8.4646Y-2.1654
X8.4646Y-2.3622
X8.4646Y-2.5591
X8.4646Y-2.7559
X8.4646Y-2.9528
X8.4646Y-3.1496
X8.4646Y-3.3465
X8.4646Y-3.8386
X8.4646Y-4.0354
X8.4646Y-4.2323
X8.4646Y-4.4291
X8.4646Y-4.626
X8.4646Y-4.8228
X8.4646Y-5.0197
X8.4646Y-5.2165
X8.4646Y-5.4134
X8.6614Y-0.9843
X8.6614Y-1.1811
X8.6614Y-1.378
X8.6614Y-1.5748
X8.6614Y-1.7717
X8.6614Y-1.9685
X8.6614Y-2.1654
X8.6614Y-2.3622
X8.6614Y-2.5591
X8.6614Y-2.7559
X8.6614Y-2.9528
X8.6614Y-3.1496
X8.6614Y-3.3465
X8.6614Y-3.8386
X8.6614Y-4.0354
X8.6614Y-4.2323
X8.6614Y-4.4291
X8.6614Y-4.626
X8.6614Y-4.8228
X8.6614Y-5.0197
X8.6614Y-5.2165
X8.6614Y-5.4134
X8.7543Y-1.7236
X8.8583Y-0.9843
X8.8583Y-1.1811
X8.8583Y-1.378
X8.8583Y-1.5748
X8.8583Y-1.7717
X8.8583Y-1.9685
X8.8583Y-2.1654
X8.8583Y-2.3622
X8.8583Y-2.5591
X8.8583Y-2.7559
X8.8583Y-2.9528
X8.8583Y-3.1496
X8.8583Y-3.3465
X8.8583Y-3.8386
X8.8583Y-4.0354
X8.8583Y-4.4291
X8.8583Y-4.626
X8.8583Y-4.8228
X8.8583Y-5.0197
X8.8583Y-5.2165
X8.8583Y-5.4134
X8.8776Y-3.4461
X9.0551Y-1.378
X9.0551Y-1.5748
X9.0551Y-1.7717
X9.0551Y-1.9685
X9.0551Y-2.1654
X9.0551Y-2.3622
X9.0551Y-2.5591
X9.0551Y-2.7559
X9.0551Y-2.9528
X9.0551Y-3.1496
X9.0551Y-3.3465
X9.0551Y-4.4291
X9.0551Y-4.626
X9.0551Y-4.8228
X9.0551Y-5.0197
X9.0551Y-5.4134
X9.252Y-1.378
X9.252Y-1.5748
X9.252Y-1.7717
X9.252Y-1.9685
X9.252Y-2.1654
X9.252Y-2.3622
X9.252Y-2.5591
X9.252Y-2.7559
X9.252Y-2.9528
X9.252Y-3.1496
X9.252Y-3.3465
X9.252Y-4.2323
X9.252Y-4.4291
X9.252Y-4.626
X9.252Y-4.8228
X9.252Y-5.0197
X9.252Y-5.2165
T2
X5.7323Y-2.9528
X5.7323Y-3.1496
X5.7323Y-3.3465
X5.7323Y-3.5433
X5.7323Y-3.7402
X5.7323Y-3.937
X5.7323Y-4.1339
X5.7323Y-4.3307
X5.7323Y-4.5276
X5.7323Y-4.7244
X5.7323Y-4.9213
X5.9291Y-2.9528
X5.9291Y-3.1496
X5.9291Y-3.3465
X5.9291Y-3.5433
X5.9291Y-3.7402
X5.9291Y-3.937
X5.9291Y-4.1339
X5.9291Y-4.3307
X5.9291Y-4.5276
X5.9291Y-4.7244
X5.9291Y-4.9213
X6.126Y-2.9528
X6.126Y-3.1496
X6.126Y-3.3465
X6.126Y-3.5433
X6.126Y-3.7402
X6.126Y-3.937
X6.126Y-4.1339
X6.126Y-4.3307
X6.126Y-4.5276
X6.126Y-4.7244
X6.126Y-4.9213
X6.3228Y-2.9528
X6.3228Y-3.1496
X6.3228Y-3.3465
X6.3228Y-3.5433
X6.3228Y-3.7402
X6.3228Y-3.937
X6.3228Y-4.1339
X6.3228Y-4.3307
X6.3228Y-4.5276
X6.3228Y-4.7244
X6.3228Y-4.9213
X6.5197Y-2.9528
X6.5197Y-3.1496
X6.5197Y-3.3465
X6.5197Y-3.5433
X6.5197Y-3.7402
X6.5197Y-3.937
X6.5197Y-4.1339
X6.5197Y-4.3307
X6.5197Y-4.5276
X6.5197Y-4.7244
X6.5197Y-4.9213
X6.7165Y-2.9528
X6.7165Y-3.1496
X6.7165Y-3.3465
X6.7165Y-3.5433
X6.7165Y-3.7402
X6.7165Y-3.937
X6.7165Y-4.1339
X6.7165Y-4.3307
X6.7165Y-4.5276
X6.7165Y-4.7244
X6.7165Y-4.9213
X6.9134Y-2.9528
X6.9134Y-3.1496
X6.9134Y-3.3465
X6.9134Y-3.5433
X6.9134Y-3.7402
X6.9134Y-3.937
X6.9134Y-4.1339
X6.9134Y-4.3307
X6.9134Y-4.5276
X6.9134Y-4.7244
X6.9134Y-4.9213
X7.1102Y-2.9528
X7.1102Y-3.1496
X7.1102Y-3.3465
X7.1102Y-3.5433
X7.1102Y-3.7402
X7.1102Y-3.937
X7.1102Y-4.1339
X7.1102Y-4.3307
X7.1102Y-4.5276
X7.1102Y-4.7244
X7.1102Y-4.9213
T3
X2.1906Y-3.6959
X2.1906Y-3.8049
X2.1906Y-3.914
X2.1906Y-4.023
X2.3024Y-3.6413
X2.3024Y-3.7504
X2.3024Y-3.8594
X2.3024Y-3.9685
X2.3024Y-4.0776
T4
X2.1874Y-1.8266
X2.1874Y-1.9356
X2.1874Y-2.0447
X2.1874Y-2.1537
X2.2992Y-1.772
X2.2992Y-1.8811
X2.2992Y-1.9902
X2.2992Y-2.0992
X2.2992Y-2.2083
T5
X3.2618Y-2.1587
X3.2618Y-2.2587
X3.2618Y-2.3587
T6
X4.1319Y-1.2012
X4.2819Y-1.2012
X4.4319Y-1.2012
X5.5075Y-3.2384
X5.5075Y-3.6384
X5.5075Y-4.2384
X5.5075Y-4.6384
X7.4071Y-3.6384
X7.4071Y-3.9384
X7.4071Y-4.2384
T7
X9.1798Y-3.9384
T8
X2.7299Y-4.4823
X3.1236Y-3.4728
X4.6874Y-2.1217
X5.478Y-2.1209
X8.2677Y-4.2913
X8.8583Y-4.2913
T9
X7.961Y-1.9996
X7.9626Y-1.4039
T10
X9.0798Y-3.8384
X9.0798Y-4.0384
X9.2798Y-3.8384
X9.2798Y-4.0384
T11
X7.4071Y-3.2384
X7.4071Y-4.6384
T12
X2.1654Y-1.1417
X2.1654Y-2.9134
X2.1654Y-5.2362
X2.2433Y-1.498
X2.2433Y-2.4823
X2.2465Y-3.3673
X2.2465Y-4.3516
X9.0551Y-1.1417
X9.0551Y-5.2362
M30
