%TF.GenerationSoftware,KiCad,Pcbnew,8.0.6*%
%TF.CreationDate,2025-05-19T10:35:06-04:00*%
%TF.ProjectId,CAEN_NEVIS_DAQ_12V,4341454e-5f4e-4455-9649-535f4441515f,rev?*%
%TF.SameCoordinates,Original*%
%TF.FileFunction,Copper,L5,Inr*%
%TF.FilePolarity,Positive*%
%FSLAX46Y46*%
G04 Gerber Fmt 4.6, Leading zero omitted, Abs format (unit mm)*
G04 Created by KiCad (PCBNEW 8.0.6) date 2025-05-19 10:35:06*
%MOMM*%
%LPD*%
G01*
G04 APERTURE LIST*
%TA.AperFunction,ComponentPad*%
%ADD10C,1.560000*%
%TD*%
%TA.AperFunction,ComponentPad*%
%ADD11C,4.216000*%
%TD*%
%TA.AperFunction,ComponentPad*%
%ADD12C,6.400000*%
%TD*%
%TA.AperFunction,ComponentPad*%
%ADD13C,1.650000*%
%TD*%
%TA.AperFunction,ComponentPad*%
%ADD14C,2.006600*%
%TD*%
%TA.AperFunction,ComponentPad*%
%ADD15C,2.209800*%
%TD*%
%TA.AperFunction,ComponentPad*%
%ADD16R,2.000000X2.000000*%
%TD*%
%TA.AperFunction,ComponentPad*%
%ADD17C,2.000000*%
%TD*%
%TA.AperFunction,ComponentPad*%
%ADD18C,1.635000*%
%TD*%
%TA.AperFunction,ComponentPad*%
%ADD19C,2.100000*%
%TD*%
%TA.AperFunction,ViaPad*%
%ADD20C,0.600000*%
%TD*%
G04 APERTURE END LIST*
D10*
%TO.N,/V_SEC_RTN*%
%TO.C,J1*%
X82920000Y-96870000D03*
X82920000Y-99640000D03*
%TO.N,unconnected-(J1-Pad3)*%
X82920000Y-102410000D03*
%TO.N,/V_SEC_RTN*%
X82920000Y-105180000D03*
X82920000Y-107950000D03*
%TO.N,/V_SEC_IN*%
X80080000Y-98255000D03*
X80080000Y-101025000D03*
X80080000Y-103795000D03*
X80080000Y-106565000D03*
D11*
%TO.N,GNDPWR*%
X81500000Y-89910000D03*
X81500000Y-114910000D03*
%TD*%
D12*
%TO.N,GNDPWR*%
%TO.C,H4*%
X207000000Y-123000000D03*
%TD*%
D13*
%TO.N,Net-(J10-Pad1)*%
%TO.C,J10*%
X166190000Y-80240000D03*
%TO.N,Net-(U1-REMOTE)*%
X168730000Y-80240000D03*
%TO.N,Net-(J10-Pad3)*%
X171270000Y-80240000D03*
%TD*%
D14*
%TO.N,/P12V_OUT_*%
%TO.C,J4*%
X209360000Y-98310000D03*
D15*
%TO.N,/P12V_RTN*%
X211900000Y-95770000D03*
X206820000Y-95770000D03*
X206820000Y-100850000D03*
X211900000Y-100850000D03*
%TD*%
D12*
%TO.N,GNDPWR*%
%TO.C,H3*%
X79000000Y-123000000D03*
%TD*%
D16*
%TO.N,/Main_DCDC_Converter/V_SEC*%
%TO.C,U1*%
X154980000Y-100150000D03*
D17*
%TO.N,Net-(U1--VIN)*%
X154980000Y-95050000D03*
%TO.N,/P12V_OUT*%
X175280000Y-107850000D03*
%TO.N,/Main_DCDC_Converter/TRIM*%
X175280000Y-97650000D03*
%TO.N,/P12V_RTN*%
X175280000Y-87450000D03*
%TO.N,Net-(U1-REMOTE)*%
X154980000Y-87450000D03*
%TD*%
D12*
%TO.N,GNDPWR*%
%TO.C,H1*%
X79000000Y-44000000D03*
%TD*%
%TO.N,GNDPWR*%
%TO.C,H2*%
X207000000Y-44000000D03*
%TD*%
D18*
%TO.N,/TEMP_MON*%
%TO.C,J2*%
X82920000Y-69540000D03*
%TO.N,/V_TELEM_RTN*%
X82920000Y-66770000D03*
%TO.N,/P12V_I_MON*%
X82920000Y-64000000D03*
%TO.N,/V_TELEM_RTN*%
X82920000Y-61230000D03*
%TO.N,/ENABLE-*%
X82920000Y-58460000D03*
%TO.N,/V_TELEM_RTN*%
X80080000Y-68155000D03*
%TO.N,/P12V_V_MON*%
X80080000Y-65385000D03*
%TO.N,/V_TELEM_RTN*%
X80080000Y-62615000D03*
%TO.N,/ENABLE+*%
X80080000Y-59845000D03*
D11*
%TO.N,GNDPWR*%
X81500000Y-51500000D03*
X81500000Y-76500000D03*
%TD*%
D19*
%TO.N,/V_TELEM_IN*%
%TO.C,J3*%
X149890000Y-47150000D03*
%TO.N,/V_TELEM_RTN*%
X146080000Y-47150000D03*
%TO.N,/V_TELEM_IN*%
X142270000Y-47150000D03*
%TD*%
D20*
%TO.N,/Main_DCDC_Converter/V_SEC*%
X149990000Y-83870000D03*
X151120000Y-81490000D03*
%TO.N,/P12V_OUT*%
X183520000Y-102310000D03*
%TO.N,/P12V_RTN*%
X183540000Y-93140000D03*
%TO.N,/V_SEC_RTN*%
X195000000Y-105000000D03*
X125000000Y-105000000D03*
X112500000Y-122500000D03*
X145000000Y-112500000D03*
X197500000Y-102500000D03*
X200000000Y-90000000D03*
X95000000Y-87500000D03*
X135000000Y-120000000D03*
X202500000Y-117500000D03*
X97500000Y-102500000D03*
X102500000Y-120000000D03*
X165000000Y-120000000D03*
X97500000Y-90000000D03*
X137500000Y-115000000D03*
X167500000Y-125000000D03*
X132500000Y-80000000D03*
X180000000Y-75000000D03*
X97500000Y-95000000D03*
X197500000Y-112500000D03*
X95000000Y-115000000D03*
X180000000Y-90000000D03*
X170000000Y-117500000D03*
X100000000Y-102500000D03*
X177500000Y-115000000D03*
X117500000Y-110000000D03*
X197500000Y-107500000D03*
X95000000Y-105000000D03*
X172500000Y-77500000D03*
X142500000Y-115000000D03*
X90000000Y-122500000D03*
X207500000Y-117500000D03*
X135000000Y-80000000D03*
X95000000Y-125000000D03*
X200000000Y-112500000D03*
X112500000Y-110000000D03*
X200000000Y-87500000D03*
X95000000Y-102500000D03*
X87500000Y-97500000D03*
X132500000Y-82500000D03*
X130000000Y-107500000D03*
X135000000Y-117500000D03*
X200000000Y-120000000D03*
X98527500Y-105000000D03*
X160000000Y-122500000D03*
X90000000Y-105000000D03*
X110000000Y-90000000D03*
X182500000Y-87500000D03*
X118830000Y-86880000D03*
X127500000Y-105000000D03*
X105000000Y-125000000D03*
X147500000Y-117500000D03*
X170000000Y-120000000D03*
X155000000Y-122500000D03*
X182500000Y-112500000D03*
X97500000Y-117500000D03*
X87500000Y-102500000D03*
X185000000Y-115000000D03*
X180000000Y-110000000D03*
X202500000Y-110000000D03*
X117500000Y-122500000D03*
X142500000Y-85000000D03*
X87500000Y-112500000D03*
X207500000Y-115000000D03*
X190000000Y-110000000D03*
X180000000Y-80000000D03*
X205000000Y-107500000D03*
X202500000Y-125000000D03*
X120000000Y-112500000D03*
X200000000Y-95000000D03*
X212500000Y-107500000D03*
X192500000Y-115000000D03*
X185000000Y-105000000D03*
X92500000Y-105000000D03*
X185000000Y-90000000D03*
X90000000Y-125000000D03*
X165000000Y-115000000D03*
X107500000Y-87500000D03*
X112500000Y-107500000D03*
X175000000Y-112500000D03*
X197500000Y-125000000D03*
X170000000Y-75000000D03*
X170000000Y-115000000D03*
X175000000Y-117500000D03*
X115000000Y-112500000D03*
X165000000Y-77500000D03*
X95000000Y-110000000D03*
X212500000Y-110000000D03*
X177500000Y-77500000D03*
X120000000Y-107500000D03*
X140000000Y-115000000D03*
X160000000Y-112500000D03*
X195000000Y-92500000D03*
X202500000Y-112500000D03*
X107500000Y-102500000D03*
X210000000Y-105000000D03*
X190000000Y-120000000D03*
X107500000Y-95000000D03*
X147500000Y-110000000D03*
X140000000Y-122500000D03*
X127500000Y-125000000D03*
X115000000Y-122500000D03*
X190000000Y-125000000D03*
X87500000Y-110000000D03*
X210000000Y-110000000D03*
X147500000Y-125000000D03*
X137500000Y-120000000D03*
X112500000Y-125000000D03*
X103950000Y-91210000D03*
X135000000Y-82500000D03*
X112500000Y-112500000D03*
X105000000Y-92500000D03*
X195000000Y-90000000D03*
X195000000Y-102500000D03*
X102500000Y-125000000D03*
X132500000Y-122500000D03*
X90000000Y-90000000D03*
X145000000Y-77500000D03*
X95000000Y-120000000D03*
X145000000Y-120000000D03*
X85000000Y-120000000D03*
X132500000Y-117500000D03*
X105000000Y-112500000D03*
X150000000Y-77500000D03*
X140000000Y-80000000D03*
X92500000Y-117500000D03*
X110000000Y-120000000D03*
X142500000Y-112500000D03*
X180000000Y-92500000D03*
X150000000Y-125000000D03*
X180000000Y-77500000D03*
X107500000Y-122500000D03*
X107500000Y-110000000D03*
X190000000Y-107500000D03*
X137500000Y-122500000D03*
X200000000Y-117500000D03*
X142500000Y-117500000D03*
X192500000Y-95000000D03*
X197500000Y-117500000D03*
X117500000Y-117500000D03*
X155000000Y-115000000D03*
X145000000Y-75000000D03*
X207500000Y-105000000D03*
X150000000Y-75000000D03*
X92500000Y-102500000D03*
X152500000Y-125000000D03*
X152500000Y-120000000D03*
X182500000Y-110000000D03*
X140000000Y-85000000D03*
X115000000Y-115000000D03*
X172500000Y-122500000D03*
X95000000Y-112500000D03*
X145000000Y-85000000D03*
X120000000Y-105000000D03*
X102500000Y-102500000D03*
X100000000Y-90000000D03*
X87500000Y-115000000D03*
X177500000Y-125000000D03*
X103950000Y-89710000D03*
X135000000Y-112500000D03*
X192500000Y-87500000D03*
X172500000Y-115000000D03*
X95000000Y-90000000D03*
X192500000Y-120000000D03*
X102200000Y-88210000D03*
X192500000Y-122500000D03*
X175000000Y-122500000D03*
X195000000Y-125000000D03*
X100027500Y-106500000D03*
X147500000Y-122500000D03*
X190000000Y-115000000D03*
X87500000Y-90000000D03*
X105000000Y-110000000D03*
X147500000Y-82500000D03*
X145000000Y-110000000D03*
X100000000Y-112500000D03*
X115000000Y-105000000D03*
X142500000Y-125000000D03*
X105000000Y-117500000D03*
X122500000Y-107500000D03*
X142500000Y-122500000D03*
X197500000Y-90000000D03*
X122500000Y-110000000D03*
X187500000Y-105000000D03*
X145000000Y-125000000D03*
X162500000Y-75000000D03*
X117500000Y-105000000D03*
X210000000Y-112500000D03*
X205000000Y-105000000D03*
X182500000Y-122500000D03*
X185000000Y-112500000D03*
X95000000Y-117500000D03*
X210000000Y-115000000D03*
X170000000Y-77500000D03*
X147500000Y-112500000D03*
X150000000Y-120000000D03*
X202500000Y-102500000D03*
X165000000Y-117500000D03*
X87500000Y-105000000D03*
X142500000Y-75000000D03*
X117500000Y-125000000D03*
X101527500Y-105000000D03*
X110000000Y-110000000D03*
X147500000Y-120000000D03*
X92500000Y-107500000D03*
X187500000Y-120000000D03*
X212500000Y-105000000D03*
X110000000Y-87500000D03*
X180000000Y-102500000D03*
X170000000Y-122500000D03*
X102500000Y-110000000D03*
X187500000Y-125000000D03*
X92500000Y-92500000D03*
X187500000Y-117500000D03*
X135000000Y-122500000D03*
X105000000Y-95000000D03*
X180000000Y-117500000D03*
X125000000Y-110000000D03*
X100000000Y-120000000D03*
X115000000Y-107500000D03*
X175000000Y-120000000D03*
X90000000Y-92500000D03*
X130000000Y-77500000D03*
X85000000Y-122500000D03*
X202500000Y-92500000D03*
X167500000Y-112500000D03*
X177500000Y-75000000D03*
X182500000Y-117500000D03*
X97500000Y-125000000D03*
X95000000Y-92500000D03*
X112500000Y-115000000D03*
X182500000Y-115000000D03*
X192500000Y-117500000D03*
X140000000Y-112500000D03*
X90000000Y-120000000D03*
X197500000Y-87500000D03*
X130000000Y-87500000D03*
X137500000Y-125000000D03*
X192500000Y-90000000D03*
X192500000Y-107500000D03*
X160000000Y-120000000D03*
X140000000Y-125000000D03*
X160000000Y-80000000D03*
X87500000Y-122500000D03*
X87500000Y-117500000D03*
X92500000Y-97500000D03*
X140000000Y-117500000D03*
X147500000Y-85000000D03*
X192500000Y-105000000D03*
X102200000Y-89710000D03*
X155000000Y-120000000D03*
X202500000Y-120000000D03*
X100000000Y-110000000D03*
X87500000Y-92500000D03*
X167500000Y-75000000D03*
X187500000Y-110000000D03*
X105000000Y-120000000D03*
X127500000Y-110000000D03*
X152500000Y-115000000D03*
X172500000Y-125000000D03*
X132500000Y-110000000D03*
X97500000Y-110000000D03*
X175000000Y-115000000D03*
X100000000Y-125000000D03*
X212500000Y-90000000D03*
X92500000Y-112500000D03*
X92500000Y-100000000D03*
X200000000Y-110000000D03*
X140000000Y-120000000D03*
X97500000Y-87500000D03*
X152500000Y-122500000D03*
X115000000Y-110000000D03*
X177500000Y-117500000D03*
X87500000Y-87500000D03*
X87500000Y-120000000D03*
X122500000Y-125000000D03*
X122500000Y-105000000D03*
X112500000Y-90000000D03*
X167500000Y-77500000D03*
X185000000Y-110000000D03*
X180000000Y-112500000D03*
X125000000Y-112500000D03*
X170000000Y-112500000D03*
X160000000Y-125000000D03*
X157500000Y-117500000D03*
X155000000Y-75000000D03*
X192500000Y-125000000D03*
X175000000Y-75000000D03*
X185000000Y-107500000D03*
X172500000Y-117500000D03*
X160000000Y-75000000D03*
X90000000Y-102500000D03*
X127500000Y-112500000D03*
X210000000Y-107500000D03*
X130000000Y-112500000D03*
X162500000Y-125000000D03*
X157500000Y-75000000D03*
X155000000Y-117500000D03*
X200000000Y-107500000D03*
X100000000Y-117500000D03*
X165000000Y-112500000D03*
X182500000Y-125000000D03*
X122500000Y-112500000D03*
X102500000Y-122500000D03*
X142500000Y-77500000D03*
X137500000Y-117500000D03*
X125000000Y-87500000D03*
X90000000Y-117500000D03*
X205000000Y-112500000D03*
X101527500Y-106500000D03*
X170000000Y-82500000D03*
X140000000Y-77500000D03*
X165000000Y-75000000D03*
X172500000Y-75000000D03*
X110000000Y-95000000D03*
X190000000Y-122500000D03*
X92500000Y-110000000D03*
X152500000Y-75000000D03*
X202500000Y-115000000D03*
X202500000Y-90000000D03*
X92500000Y-125000000D03*
X115000000Y-87500000D03*
X157500000Y-125000000D03*
X159260000Y-82110000D03*
X160000000Y-115000000D03*
X98527500Y-106500000D03*
X167500000Y-122500000D03*
X207500000Y-112500000D03*
X107500000Y-120000000D03*
X180000000Y-120000000D03*
X132500000Y-115000000D03*
X130000000Y-125000000D03*
X127500000Y-107500000D03*
X122500000Y-87500000D03*
X185000000Y-117500000D03*
X100027500Y-105000000D03*
X202500000Y-87500000D03*
X135000000Y-110000000D03*
X190000000Y-90000000D03*
X187500000Y-112500000D03*
X117500000Y-115000000D03*
X180000000Y-115000000D03*
X165000000Y-122500000D03*
X87500000Y-100000000D03*
X155000000Y-112500000D03*
X100000000Y-95000000D03*
X190000000Y-105000000D03*
X145000000Y-117500000D03*
X105000000Y-115000000D03*
X125000000Y-107500000D03*
X192500000Y-112500000D03*
X195000000Y-112500000D03*
X177500000Y-120000000D03*
X197500000Y-105000000D03*
X175000000Y-125000000D03*
X142500000Y-120000000D03*
X92500000Y-87500000D03*
X130000000Y-105000000D03*
X97500000Y-122500000D03*
X172500000Y-112500000D03*
X117500000Y-120000000D03*
X150000000Y-112500000D03*
X212500000Y-117500000D03*
X97500000Y-112500000D03*
X155000000Y-125000000D03*
X132500000Y-120000000D03*
X152500000Y-112500000D03*
X135000000Y-75000000D03*
X195000000Y-115000000D03*
X157500000Y-122500000D03*
X132500000Y-125000000D03*
X100000000Y-87500000D03*
X110000000Y-112500000D03*
X180000000Y-122500000D03*
X95000000Y-107500000D03*
X110000000Y-122500000D03*
X102500000Y-117500000D03*
X190000000Y-87500000D03*
X157500000Y-112500000D03*
X195000000Y-87500000D03*
X110000000Y-117500000D03*
X172500000Y-120000000D03*
X112500000Y-117500000D03*
X115000000Y-120000000D03*
X170000000Y-125000000D03*
X185000000Y-122500000D03*
X102500000Y-112500000D03*
X200000000Y-102500000D03*
X197500000Y-120000000D03*
X145000000Y-80000000D03*
X187500000Y-90000000D03*
X102500000Y-115000000D03*
X172500000Y-82500000D03*
X103950000Y-88210000D03*
X100000000Y-115000000D03*
X140000000Y-110000000D03*
X190000000Y-112500000D03*
X180000000Y-105000000D03*
X87500000Y-107500000D03*
X130000000Y-110000000D03*
X200000000Y-115000000D03*
X97500000Y-120000000D03*
X107500000Y-92500000D03*
X117500000Y-112500000D03*
X137500000Y-110000000D03*
X205000000Y-110000000D03*
X112500000Y-105000000D03*
X200000000Y-125000000D03*
X107500000Y-112500000D03*
X100000000Y-122500000D03*
X117500000Y-107500000D03*
X162500000Y-112500000D03*
X160000000Y-117500000D03*
X135000000Y-115000000D03*
X95000000Y-122500000D03*
X205000000Y-117500000D03*
X195000000Y-107500000D03*
X102500000Y-92500000D03*
X190000000Y-117500000D03*
X212500000Y-112500000D03*
X145000000Y-122500000D03*
X210000000Y-117500000D03*
X175000000Y-77500000D03*
X197500000Y-110000000D03*
X146670000Y-79410000D03*
X127500000Y-87500000D03*
X102200000Y-91210000D03*
X212500000Y-87500000D03*
X97500000Y-92500000D03*
X110000000Y-125000000D03*
X92500000Y-120000000D03*
X187500000Y-115000000D03*
X92500000Y-95000000D03*
X145000000Y-115000000D03*
X202500000Y-107500000D03*
X200000000Y-122500000D03*
X202500000Y-95000000D03*
X90000000Y-107500000D03*
X116930000Y-86880000D03*
X197500000Y-92500000D03*
X162500000Y-117500000D03*
X112500000Y-102500000D03*
X105000000Y-102500000D03*
X207500000Y-110000000D03*
X150000000Y-110000000D03*
X90000000Y-112500000D03*
X137500000Y-82500000D03*
X142500000Y-110000000D03*
X177500000Y-122500000D03*
X162500000Y-77500000D03*
X112500000Y-87500000D03*
X157500000Y-115000000D03*
X212500000Y-115000000D03*
X137500000Y-80000000D03*
X205000000Y-115000000D03*
X137500000Y-112500000D03*
X130000000Y-82500000D03*
X132500000Y-112500000D03*
X92500000Y-90000000D03*
X212500000Y-92500000D03*
X130000000Y-75000000D03*
X180000000Y-82500000D03*
X107500000Y-125000000D03*
X90000000Y-95000000D03*
X90000000Y-115000000D03*
X112500000Y-92500000D03*
X195000000Y-120000000D03*
X182500000Y-120000000D03*
X150000000Y-115000000D03*
X162500000Y-120000000D03*
X185000000Y-120000000D03*
X135000000Y-125000000D03*
X202500000Y-122500000D03*
X107500000Y-117500000D03*
X97500000Y-115000000D03*
X197500000Y-115000000D03*
X130000000Y-80000000D03*
X115000000Y-125000000D03*
X100000000Y-92500000D03*
X120000000Y-110000000D03*
X142500000Y-80000000D03*
X115000000Y-117500000D03*
X162500000Y-122500000D03*
X125000000Y-125000000D03*
X90000000Y-87500000D03*
X120000000Y-125000000D03*
X207500000Y-107500000D03*
X187500000Y-87500000D03*
X180000000Y-125000000D03*
X145000000Y-82500000D03*
X110000000Y-115000000D03*
X180000000Y-100000000D03*
X167500000Y-120000000D03*
X132500000Y-75000000D03*
X192500000Y-102500000D03*
X165000000Y-125000000D03*
X140000000Y-82500000D03*
X195000000Y-110000000D03*
X92500000Y-122500000D03*
X92500000Y-115000000D03*
X90000000Y-100000000D03*
X112500000Y-120000000D03*
X137500000Y-75000000D03*
X150000000Y-122500000D03*
X187500000Y-122500000D03*
X187500000Y-107500000D03*
X135000000Y-77500000D03*
X90000000Y-110000000D03*
X162500000Y-115000000D03*
X185000000Y-87500000D03*
X197500000Y-122500000D03*
X107500000Y-115000000D03*
X195000000Y-117500000D03*
X137500000Y-77500000D03*
X102500000Y-95000000D03*
X105000000Y-122500000D03*
X178380000Y-80220000D03*
X167500000Y-117500000D03*
X167500000Y-115000000D03*
X87500000Y-125000000D03*
X185000000Y-125000000D03*
X202500000Y-105000000D03*
X140000000Y-75000000D03*
X150000000Y-117500000D03*
X147500000Y-115000000D03*
X157500000Y-120000000D03*
X177500000Y-112500000D03*
X132500000Y-77500000D03*
X200000000Y-105000000D03*
X85000000Y-125000000D03*
X152500000Y-117500000D03*
X142500000Y-82500000D03*
X192500000Y-110000000D03*
X95000000Y-95000000D03*
X195000000Y-122500000D03*
%TO.N,GNDPWR*%
X175355000Y-83250000D03*
%TO.N,/V_TELEM_RTN*%
X116930000Y-82030000D03*
X115000000Y-77500000D03*
X160000000Y-65000000D03*
X145000000Y-52500000D03*
X180000000Y-52500000D03*
X87500000Y-52500000D03*
X95000000Y-82500000D03*
X92500000Y-80000000D03*
X87500000Y-45000000D03*
X212500000Y-82500000D03*
X202500000Y-50000000D03*
X137500000Y-55000000D03*
X192500000Y-50000000D03*
X175000000Y-50000000D03*
X90000000Y-42500000D03*
X155000000Y-45000000D03*
X157500000Y-55000000D03*
X112500000Y-42500000D03*
X132500000Y-47500000D03*
X105000000Y-62500000D03*
X190000000Y-50000000D03*
X187500000Y-50000000D03*
X125000000Y-45000000D03*
X207500000Y-52500000D03*
X130000000Y-60000000D03*
X120000000Y-52500000D03*
X122500000Y-75000000D03*
X95000000Y-75000000D03*
X180000000Y-55000000D03*
X110000000Y-67500000D03*
X202500000Y-42500000D03*
X162500000Y-47500000D03*
X212500000Y-47500000D03*
X202471400Y-55012500D03*
X137500000Y-62500000D03*
X185000000Y-50000000D03*
X137500000Y-65000000D03*
X167500000Y-47500000D03*
X100000000Y-50000000D03*
X135000000Y-47500000D03*
X105000000Y-82500000D03*
X207500000Y-60000000D03*
X200000000Y-77500000D03*
X147500000Y-52500000D03*
X155000000Y-47500000D03*
X165906200Y-63115000D03*
X122500000Y-82500000D03*
X195000000Y-52500000D03*
X118840000Y-82040000D03*
X100000000Y-67500000D03*
X167500000Y-42500000D03*
X125000000Y-52500000D03*
X157500000Y-52500000D03*
X117500000Y-65000000D03*
X212500000Y-67500000D03*
X175000000Y-52500000D03*
X210000000Y-65000000D03*
X120000000Y-67500000D03*
X205000000Y-50000000D03*
X197500000Y-42500000D03*
X160000000Y-42500000D03*
X197500000Y-47500000D03*
X100000000Y-62500000D03*
X127500000Y-55000000D03*
X97500000Y-75000000D03*
X140000000Y-67500000D03*
X205000000Y-65000000D03*
X102500000Y-77500000D03*
X166926200Y-55545000D03*
X90000000Y-75000000D03*
X87500000Y-67500000D03*
X117500000Y-50000000D03*
X90000000Y-80000000D03*
X200420000Y-81240000D03*
X191450000Y-75370000D03*
X212500000Y-77500000D03*
X137500000Y-50000000D03*
X95000000Y-67500000D03*
X160000000Y-60000000D03*
X200000000Y-75000000D03*
X187500000Y-60000000D03*
X170000000Y-45000000D03*
X197500000Y-77500000D03*
X80000000Y-82500000D03*
X115000000Y-65000000D03*
X162500000Y-42500000D03*
X210000000Y-62500000D03*
X205000000Y-67500000D03*
X192500000Y-47500000D03*
X187500000Y-62500000D03*
X117500000Y-80000000D03*
X110000000Y-75000000D03*
X190000000Y-52500000D03*
X205000000Y-55000000D03*
X192500000Y-72500000D03*
X155000000Y-62500000D03*
X110000000Y-45000000D03*
X178210000Y-58800000D03*
X155000000Y-52500000D03*
X102500000Y-82500000D03*
X182500000Y-42500000D03*
X182500000Y-45000000D03*
X177500000Y-47500000D03*
X97500000Y-60000000D03*
X157500000Y-60000000D03*
X122500000Y-55000000D03*
X207500000Y-57500000D03*
X127500000Y-45000000D03*
X210000000Y-52500000D03*
X190000000Y-57500000D03*
X212500000Y-65000000D03*
X135000000Y-45000000D03*
X120000000Y-45000000D03*
X145000000Y-55000000D03*
X205000000Y-60000000D03*
X135000000Y-50000000D03*
X112500000Y-50000000D03*
X120000000Y-50000000D03*
X135000000Y-67500000D03*
X95000000Y-57500000D03*
X162500000Y-62500000D03*
X167500000Y-45000000D03*
X182500000Y-52500000D03*
X120000000Y-47500000D03*
X197500000Y-50000000D03*
X97500000Y-47500000D03*
X115000000Y-45000000D03*
X200000000Y-42500000D03*
X185000000Y-60000000D03*
X210000000Y-67500000D03*
X190000000Y-47500000D03*
X125000000Y-55000000D03*
X165000000Y-47500000D03*
X112500000Y-77500000D03*
X165000000Y-45000000D03*
X95000000Y-55000000D03*
X110000000Y-82500000D03*
X172500000Y-50000000D03*
X190000000Y-72500000D03*
X182500000Y-50000000D03*
X187500000Y-65000000D03*
X92500000Y-67500000D03*
X85000000Y-42500000D03*
X95000000Y-52500000D03*
X85000000Y-82500000D03*
X160000000Y-62500000D03*
X90000000Y-55000000D03*
X102500000Y-80000000D03*
X175000000Y-45000000D03*
X142500000Y-52500000D03*
X112500000Y-45000000D03*
X207500000Y-65000000D03*
X100000000Y-60000000D03*
X152500000Y-55000000D03*
X130000000Y-45000000D03*
X175000000Y-42500000D03*
X105000000Y-45000000D03*
X97500000Y-50000000D03*
X97500000Y-77500000D03*
X140000000Y-52500000D03*
X212500000Y-72500000D03*
X107500000Y-75000000D03*
X182500000Y-57500000D03*
X82500000Y-82500000D03*
X135000000Y-42500000D03*
X181490000Y-66370000D03*
X115000000Y-75000000D03*
X180000000Y-47500000D03*
X125000000Y-47500000D03*
X100000000Y-42500000D03*
X87500000Y-50000000D03*
X120000000Y-55000000D03*
X115000000Y-50000000D03*
X130000000Y-67500000D03*
X92500000Y-47500000D03*
X165000000Y-50000000D03*
X125000000Y-77500000D03*
X100000000Y-52500000D03*
X192500000Y-77500000D03*
X200000000Y-45000000D03*
X190000000Y-55000000D03*
X160000000Y-55000000D03*
X190750000Y-82800000D03*
X195000000Y-45000000D03*
X132500000Y-62500000D03*
X95000000Y-62500000D03*
X205000000Y-57500000D03*
X100000000Y-45000000D03*
X87500000Y-80000000D03*
X212500000Y-75000000D03*
X165000000Y-42500000D03*
X157500000Y-67500000D03*
X157500000Y-65000000D03*
X180000000Y-45000000D03*
X130000000Y-42500000D03*
X202500000Y-47500000D03*
X185000000Y-47500000D03*
X112500000Y-75000000D03*
X97500000Y-82500000D03*
X155000000Y-50000000D03*
X195000000Y-42500000D03*
X102500000Y-45000000D03*
X130000000Y-50000000D03*
X122500000Y-67500000D03*
X97500000Y-55000000D03*
X205000000Y-52500000D03*
X212500000Y-45000000D03*
X182500000Y-55000000D03*
X92500000Y-52500000D03*
X142500000Y-65000000D03*
X117500000Y-67500000D03*
X202500000Y-57500000D03*
X185000000Y-45000000D03*
X170000000Y-47500000D03*
X75000000Y-82500000D03*
X172500000Y-52500000D03*
X117500000Y-60000000D03*
X110000000Y-62500000D03*
X135000000Y-52500000D03*
X195000000Y-72500000D03*
X90000000Y-45000000D03*
X117500000Y-75000000D03*
X100000000Y-75000000D03*
X92500000Y-42500000D03*
X160000000Y-52500000D03*
X122500000Y-65000000D03*
X187500000Y-45000000D03*
X111068500Y-55000000D03*
X140000000Y-62500000D03*
X122500000Y-45000000D03*
X127500000Y-65000000D03*
X122500000Y-42500000D03*
X207500000Y-62500000D03*
X155000000Y-42500000D03*
X167500000Y-52500000D03*
X212500000Y-52500000D03*
X197500000Y-75000000D03*
X100000000Y-80000000D03*
X177500000Y-45000000D03*
X125000000Y-80000000D03*
X97500000Y-67500000D03*
X157500000Y-47500000D03*
X100000000Y-77500000D03*
X112500000Y-67500000D03*
X110000000Y-80000000D03*
X177500000Y-55000000D03*
X197500000Y-45000000D03*
X107500000Y-62500000D03*
X102500000Y-67500000D03*
X87500000Y-47500000D03*
X210000000Y-50000000D03*
X170000000Y-52500000D03*
X117500000Y-47500000D03*
X187500000Y-55000000D03*
X132500000Y-65000000D03*
X170000000Y-50000000D03*
X165000000Y-52500000D03*
X195000000Y-47500000D03*
X100000000Y-82500000D03*
X77500000Y-82500000D03*
X122500000Y-60000000D03*
X110000000Y-77500000D03*
X92500000Y-55000000D03*
X100000000Y-47500000D03*
X115000000Y-42500000D03*
X210000000Y-55000000D03*
X127500000Y-52500000D03*
X95000000Y-50000000D03*
X212500000Y-57500000D03*
X167500000Y-50000000D03*
X125000000Y-75000000D03*
X172500000Y-45000000D03*
X135000000Y-55000000D03*
X135000000Y-65000000D03*
X132500000Y-52500000D03*
X95000000Y-42500000D03*
X107500000Y-82500000D03*
X95000000Y-45000000D03*
X87500000Y-55000000D03*
X193731400Y-67562500D03*
X192500000Y-45000000D03*
X117500000Y-45000000D03*
X122500000Y-80000000D03*
X125000000Y-67500000D03*
X127500000Y-50000000D03*
X155000000Y-55000000D03*
X155000000Y-65000000D03*
X115000000Y-47500000D03*
X212500000Y-55000000D03*
X170000000Y-55000000D03*
X144620000Y-62840000D03*
X107500000Y-80000000D03*
X115000000Y-55000000D03*
X160000000Y-47500000D03*
X212500000Y-60000000D03*
X105000000Y-67500000D03*
X105000000Y-77500000D03*
X117500000Y-55000000D03*
X162500000Y-50000000D03*
X212500000Y-50000000D03*
X109220000Y-59540000D03*
X102500000Y-42500000D03*
X125000000Y-82500000D03*
X87500000Y-75000000D03*
X207500000Y-67500000D03*
X107500000Y-67500000D03*
X122500000Y-47500000D03*
X95000000Y-80000000D03*
X162500000Y-52500000D03*
X185000000Y-57500000D03*
X212500000Y-70000000D03*
X200000000Y-50000000D03*
X115000000Y-82500000D03*
X137500000Y-52500000D03*
X125000000Y-50000000D03*
X97500000Y-42500000D03*
X172500000Y-42500000D03*
X192500000Y-55000000D03*
X115000000Y-60000000D03*
X120000000Y-75000000D03*
X152500000Y-62500000D03*
X102500000Y-75000000D03*
X195000000Y-75000000D03*
X187500000Y-70000000D03*
X92500000Y-50000000D03*
X202500000Y-65000000D03*
X177500000Y-50000000D03*
X95000000Y-77500000D03*
X180000000Y-42500000D03*
X90000000Y-52500000D03*
X175000000Y-55000000D03*
X192500000Y-52500000D03*
X157500000Y-45000000D03*
X125000000Y-65000000D03*
X90000000Y-82500000D03*
X117500000Y-42500000D03*
X130000000Y-55000000D03*
X115000000Y-80000000D03*
X132500000Y-45000000D03*
X170000000Y-42500000D03*
X192500000Y-57500000D03*
X92500000Y-77500000D03*
X212500000Y-80000000D03*
X125000000Y-42500000D03*
X192500000Y-42500000D03*
X187500000Y-42500000D03*
X187500000Y-47500000D03*
X190671400Y-59752500D03*
X127500000Y-42500000D03*
X90000000Y-77500000D03*
X105000000Y-80000000D03*
X97500000Y-80000000D03*
X162500000Y-55000000D03*
X187500000Y-52500000D03*
X157500000Y-42500000D03*
X132500000Y-42500000D03*
X95000000Y-60000000D03*
X132500000Y-55000000D03*
X90550000Y-56500000D03*
X162500000Y-45000000D03*
X150000000Y-55000000D03*
X162500000Y-65000000D03*
X155000000Y-60000000D03*
X163210000Y-67340000D03*
X190000000Y-45000000D03*
X200000000Y-72500000D03*
X190000000Y-42500000D03*
X102500000Y-62500000D03*
X190000000Y-65000000D03*
X107500000Y-45000000D03*
X130000000Y-52500000D03*
X212500000Y-62500000D03*
X120000000Y-42500000D03*
X195000000Y-77500000D03*
X185000000Y-52500000D03*
X172500000Y-47500000D03*
X177500000Y-52500000D03*
X157500000Y-62500000D03*
X97500000Y-62500000D03*
X207500000Y-55000000D03*
X127500000Y-67500000D03*
X195000000Y-55000000D03*
X180000000Y-57500000D03*
X177500000Y-42500000D03*
X137500000Y-42500000D03*
X120000000Y-60000000D03*
X130000000Y-65000000D03*
X137500000Y-45000000D03*
X185000000Y-55000000D03*
X157500000Y-50000000D03*
X85000000Y-45000000D03*
X155000000Y-67500000D03*
X142500000Y-55000000D03*
X182500000Y-60000000D03*
X202500000Y-67500000D03*
X92500000Y-82500000D03*
X187500000Y-57500000D03*
X97500000Y-52500000D03*
X132500000Y-67500000D03*
X160000000Y-45000000D03*
X122500000Y-52500000D03*
X210000000Y-57500000D03*
X175510000Y-69570000D03*
X105000000Y-75000000D03*
X152500000Y-52500000D03*
X207500000Y-50000000D03*
X210000000Y-60000000D03*
X150000000Y-52500000D03*
X160000000Y-50000000D03*
X97500000Y-45000000D03*
X92500000Y-75000000D03*
X107500000Y-77500000D03*
X190000000Y-70000000D03*
X107500000Y-42500000D03*
X200000000Y-47500000D03*
X140000000Y-65000000D03*
X115000000Y-52500000D03*
X132500000Y-50000000D03*
X202500000Y-62500000D03*
X172500000Y-55000000D03*
X137500000Y-67500000D03*
X130000000Y-47500000D03*
X202500000Y-60000000D03*
X197500000Y-72500000D03*
X195000000Y-50000000D03*
X105000000Y-42500000D03*
X90000000Y-50000000D03*
X117500000Y-77500000D03*
X92500000Y-45000000D03*
X120000000Y-80000000D03*
X185000000Y-42500000D03*
X127500000Y-47500000D03*
X140000000Y-55000000D03*
X180000000Y-50000000D03*
X112500000Y-82500000D03*
X120000000Y-77500000D03*
X137500000Y-47500000D03*
X108598500Y-46660000D03*
X112500000Y-47500000D03*
X182500000Y-47500000D03*
X195000000Y-57500000D03*
X90000000Y-47500000D03*
X100000000Y-55000000D03*
X122500000Y-77500000D03*
X87500000Y-77500000D03*
X120000000Y-65000000D03*
X202500000Y-45000000D03*
X147500000Y-55000000D03*
X115000000Y-67500000D03*
X127500000Y-60000000D03*
X85000000Y-47500000D03*
X135000000Y-62500000D03*
X205000000Y-62500000D03*
X87500000Y-42500000D03*
X112500000Y-80000000D03*
X90000000Y-67500000D03*
X100000000Y-57500000D03*
X87500000Y-82500000D03*
X175000000Y-47500000D03*
X95000000Y-47500000D03*
X117500000Y-52500000D03*
X160000000Y-67500000D03*
X122500000Y-50000000D03*
X125000000Y-60000000D03*
X97500000Y-57500000D03*
X152500000Y-60000000D03*
X110000000Y-42500000D03*
%TO.N,/V_TELEM_IN*%
X151230000Y-63170000D03*
X207910000Y-71880000D03*
X102248500Y-47230000D03*
X200141400Y-66290000D03*
X181640000Y-68960000D03*
%TO.N,/Enable_Block/3p3V*%
X104588500Y-57910000D03*
%TO.N,/Telemetry_Schematic/3p3V*%
X197830000Y-56502500D03*
X190750000Y-79680000D03*
X175120000Y-58810000D03*
%TO.N,Net-(U6B-B_OUT)*%
X176230000Y-59830000D03*
X176230000Y-66850000D03*
%TO.N,/P12V_OUT_*%
X210000000Y-69810000D03*
X167590000Y-67330000D03*
%TO.N,Net-(J10-Pad1)*%
X157290000Y-77300000D03*
%TO.N,Net-(U1-REMOTE)*%
X168720000Y-83110000D03*
%TO.N,/P12V_I_MON*%
X150790000Y-72060000D03*
X85630000Y-64000000D03*
X144320000Y-72060000D03*
X85630000Y-72070000D03*
%TO.N,/P12V_V_MON*%
X112370000Y-65340000D03*
X112370000Y-57300000D03*
%TO.N,/Telemetry_Schematic/TEMP*%
X184354579Y-63542511D03*
%TO.N,/TEMP_MON*%
X150820000Y-69550000D03*
X144340000Y-69560000D03*
%TO.N,Net-(LED1-Pad2)*%
X206100000Y-75910000D03*
%TO.N,Net-(LED1-Pad1)*%
X206100000Y-80200000D03*
%TD*%
%TA.AperFunction,Conductor*%
%TO.N,/V_TELEM_RTN*%
G36*
X209002702Y-39500617D02*
G01*
X209386771Y-39517386D01*
X209397506Y-39518326D01*
X209775971Y-39568152D01*
X209786597Y-39570025D01*
X210159284Y-39652648D01*
X210169710Y-39655442D01*
X210533765Y-39770227D01*
X210543911Y-39773920D01*
X210896578Y-39920000D01*
X210906369Y-39924566D01*
X211244942Y-40100816D01*
X211254309Y-40106223D01*
X211549722Y-40294422D01*
X211576244Y-40311318D01*
X211585105Y-40317523D01*
X211887930Y-40549889D01*
X211896217Y-40556843D01*
X212177635Y-40814715D01*
X212185284Y-40822364D01*
X212443156Y-41103782D01*
X212450110Y-41112069D01*
X212682476Y-41414894D01*
X212688681Y-41423755D01*
X212893775Y-41745689D01*
X212899183Y-41755057D01*
X213075430Y-42093623D01*
X213080002Y-42103427D01*
X213226075Y-42456078D01*
X213229775Y-42466244D01*
X213344554Y-42830278D01*
X213347354Y-42840727D01*
X213429971Y-43213389D01*
X213431849Y-43224042D01*
X213481671Y-43602473D01*
X213482614Y-43613249D01*
X213499382Y-43997297D01*
X213499500Y-44002706D01*
X213499500Y-84876000D01*
X213479815Y-84943039D01*
X213427011Y-84988794D01*
X213375500Y-85000000D01*
X182124000Y-85000000D01*
X182056961Y-84980315D01*
X182011206Y-84927511D01*
X182000000Y-84876000D01*
X182000000Y-79679996D01*
X189944435Y-79679996D01*
X189944435Y-79680003D01*
X189964630Y-79859249D01*
X189964631Y-79859254D01*
X190024211Y-80029523D01*
X190090983Y-80135789D01*
X190120184Y-80182262D01*
X190247738Y-80309816D01*
X190400478Y-80405789D01*
X190570745Y-80465368D01*
X190570750Y-80465369D01*
X190749996Y-80485565D01*
X190750000Y-80485565D01*
X190750004Y-80485565D01*
X190929249Y-80465369D01*
X190929252Y-80465368D01*
X190929255Y-80465368D01*
X191099522Y-80405789D01*
X191252262Y-80309816D01*
X191362082Y-80199996D01*
X205294435Y-80199996D01*
X205294435Y-80200003D01*
X205314630Y-80379249D01*
X205314631Y-80379254D01*
X205374211Y-80549523D01*
X205465671Y-80695079D01*
X205470184Y-80702262D01*
X205597738Y-80829816D01*
X205750478Y-80925789D01*
X205807635Y-80945789D01*
X205920745Y-80985368D01*
X205920750Y-80985369D01*
X206099996Y-81005565D01*
X206100000Y-81005565D01*
X206100004Y-81005565D01*
X206279249Y-80985369D01*
X206279252Y-80985368D01*
X206279255Y-80985368D01*
X206449522Y-80925789D01*
X206602262Y-80829816D01*
X206729816Y-80702262D01*
X206825789Y-80549522D01*
X206885368Y-80379255D01*
X206903312Y-80220000D01*
X206905565Y-80200003D01*
X206905565Y-80199996D01*
X206885369Y-80020750D01*
X206885368Y-80020745D01*
X206825788Y-79850476D01*
X206729815Y-79697737D01*
X206602262Y-79570184D01*
X206449523Y-79474211D01*
X206279254Y-79414631D01*
X206279249Y-79414630D01*
X206100004Y-79394435D01*
X206099996Y-79394435D01*
X205920750Y-79414630D01*
X205920745Y-79414631D01*
X205750476Y-79474211D01*
X205597737Y-79570184D01*
X205470184Y-79697737D01*
X205374211Y-79850476D01*
X205314631Y-80020745D01*
X205314630Y-80020750D01*
X205294435Y-80199996D01*
X191362082Y-80199996D01*
X191379816Y-80182262D01*
X191475789Y-80029522D01*
X191535368Y-79859255D01*
X191539707Y-79820745D01*
X191555565Y-79680003D01*
X191555565Y-79679996D01*
X191535369Y-79500750D01*
X191535368Y-79500745D01*
X191503615Y-79410000D01*
X191475789Y-79330478D01*
X191379816Y-79177738D01*
X191252262Y-79050184D01*
X191155971Y-78989680D01*
X191099523Y-78954211D01*
X190929254Y-78894631D01*
X190929249Y-78894630D01*
X190750004Y-78874435D01*
X190749996Y-78874435D01*
X190570750Y-78894630D01*
X190570745Y-78894631D01*
X190400476Y-78954211D01*
X190247737Y-79050184D01*
X190120184Y-79177737D01*
X190024211Y-79330476D01*
X189964631Y-79500745D01*
X189964630Y-79500750D01*
X189944435Y-79679996D01*
X182000000Y-79679996D01*
X182000000Y-75909996D01*
X205294435Y-75909996D01*
X205294435Y-75910003D01*
X205314630Y-76089249D01*
X205314631Y-76089254D01*
X205374211Y-76259523D01*
X205470184Y-76412262D01*
X205597738Y-76539816D01*
X205750478Y-76635789D01*
X205918079Y-76694435D01*
X205920745Y-76695368D01*
X205920750Y-76695369D01*
X206099996Y-76715565D01*
X206100000Y-76715565D01*
X206100004Y-76715565D01*
X206279249Y-76695369D01*
X206279252Y-76695368D01*
X206279255Y-76695368D01*
X206449522Y-76635789D01*
X206602262Y-76539816D01*
X206729816Y-76412262D01*
X206825789Y-76259522D01*
X206885368Y-76089255D01*
X206905565Y-75910000D01*
X206893798Y-75805565D01*
X206885369Y-75730750D01*
X206885368Y-75730745D01*
X206850051Y-75629816D01*
X206825789Y-75560478D01*
X206729816Y-75407738D01*
X206602262Y-75280184D01*
X206449523Y-75184211D01*
X206279254Y-75124631D01*
X206279249Y-75124630D01*
X206100004Y-75104435D01*
X206099996Y-75104435D01*
X205920750Y-75124630D01*
X205920745Y-75124631D01*
X205750476Y-75184211D01*
X205597737Y-75280184D01*
X205470184Y-75407737D01*
X205374211Y-75560476D01*
X205314631Y-75730745D01*
X205314630Y-75730750D01*
X205294435Y-75909996D01*
X182000000Y-75909996D01*
X182000000Y-73000000D01*
X151229021Y-73000000D01*
X151161982Y-72980315D01*
X151116227Y-72927511D01*
X151106283Y-72858353D01*
X151135308Y-72794797D01*
X151163049Y-72771006D01*
X151164181Y-72770294D01*
X151292262Y-72689816D01*
X151419816Y-72562262D01*
X151515789Y-72409522D01*
X151575368Y-72239255D01*
X151594438Y-72070003D01*
X151595565Y-72060003D01*
X151595565Y-72059996D01*
X151575369Y-71880750D01*
X151575368Y-71880745D01*
X151575106Y-71879996D01*
X207104435Y-71879996D01*
X207104435Y-71880003D01*
X207124630Y-72059249D01*
X207124631Y-72059254D01*
X207184211Y-72229523D01*
X207196606Y-72249249D01*
X207280184Y-72382262D01*
X207407738Y-72509816D01*
X207560478Y-72605789D01*
X207730745Y-72665368D01*
X207730750Y-72665369D01*
X207909996Y-72685565D01*
X207910000Y-72685565D01*
X207910004Y-72685565D01*
X208089249Y-72665369D01*
X208089252Y-72665368D01*
X208089255Y-72665368D01*
X208259522Y-72605789D01*
X208412262Y-72509816D01*
X208539816Y-72382262D01*
X208635789Y-72229522D01*
X208695368Y-72059255D01*
X208714354Y-71890750D01*
X208715565Y-71880003D01*
X208715565Y-71879996D01*
X208695369Y-71700750D01*
X208695368Y-71700745D01*
X208648826Y-71567737D01*
X208635789Y-71530478D01*
X208539816Y-71377738D01*
X208412262Y-71250184D01*
X208259523Y-71154211D01*
X208089254Y-71094631D01*
X208089249Y-71094630D01*
X207910004Y-71074435D01*
X207909996Y-71074435D01*
X207730750Y-71094630D01*
X207730745Y-71094631D01*
X207560476Y-71154211D01*
X207407737Y-71250184D01*
X207280184Y-71377737D01*
X207184211Y-71530476D01*
X207124631Y-71700745D01*
X207124630Y-71700750D01*
X207104435Y-71879996D01*
X151575106Y-71879996D01*
X151515788Y-71710476D01*
X151426099Y-71567738D01*
X151419816Y-71557738D01*
X151292262Y-71430184D01*
X151208795Y-71377738D01*
X151139523Y-71334211D01*
X150969254Y-71274631D01*
X150969249Y-71274630D01*
X150790004Y-71254435D01*
X150789996Y-71254435D01*
X150610750Y-71274630D01*
X150610745Y-71274631D01*
X150440476Y-71334211D01*
X150287737Y-71430184D01*
X150160184Y-71557737D01*
X150064211Y-71710476D01*
X150004631Y-71880745D01*
X150004630Y-71880750D01*
X149984435Y-72059996D01*
X149984435Y-72060003D01*
X150004630Y-72239249D01*
X150004631Y-72239254D01*
X150064211Y-72409523D01*
X150127229Y-72509815D01*
X150160184Y-72562262D01*
X150287738Y-72689816D01*
X150303653Y-72699816D01*
X150416951Y-72771006D01*
X150463242Y-72823341D01*
X150473890Y-72892394D01*
X150445515Y-72956243D01*
X150387125Y-72994615D01*
X150350979Y-73000000D01*
X144759021Y-73000000D01*
X144691982Y-72980315D01*
X144646227Y-72927511D01*
X144636283Y-72858353D01*
X144665308Y-72794797D01*
X144693049Y-72771006D01*
X144694181Y-72770294D01*
X144822262Y-72689816D01*
X144949816Y-72562262D01*
X145045789Y-72409522D01*
X145105368Y-72239255D01*
X145124438Y-72070003D01*
X145125565Y-72060003D01*
X145125565Y-72059996D01*
X145105369Y-71880750D01*
X145105368Y-71880745D01*
X145045788Y-71710476D01*
X144956099Y-71567738D01*
X144949816Y-71557738D01*
X144822262Y-71430184D01*
X144738795Y-71377738D01*
X144669523Y-71334211D01*
X144499254Y-71274631D01*
X144499249Y-71274630D01*
X144320004Y-71254435D01*
X144319996Y-71254435D01*
X144140750Y-71274630D01*
X144140745Y-71274631D01*
X143970476Y-71334211D01*
X143817737Y-71430184D01*
X143690184Y-71557737D01*
X143594211Y-71710476D01*
X143534631Y-71880745D01*
X143534630Y-71880750D01*
X143514435Y-72059996D01*
X143514435Y-72060003D01*
X143534630Y-72239249D01*
X143534631Y-72239254D01*
X143594211Y-72409523D01*
X143657229Y-72509815D01*
X143690184Y-72562262D01*
X143817738Y-72689816D01*
X143833653Y-72699816D01*
X143946951Y-72771006D01*
X143993242Y-72823341D01*
X144003890Y-72892394D01*
X143975515Y-72956243D01*
X143917125Y-72994615D01*
X143880979Y-73000000D01*
X128000000Y-73000000D01*
X128000000Y-83876000D01*
X127980315Y-83943039D01*
X127927511Y-83988794D01*
X127876000Y-84000000D01*
X72624500Y-84000000D01*
X72557461Y-83980315D01*
X72511706Y-83927511D01*
X72500500Y-83876000D01*
X72500500Y-76500000D01*
X78886732Y-76500000D01*
X78905785Y-76814989D01*
X78905785Y-76814994D01*
X78905786Y-76814995D01*
X78962669Y-77125396D01*
X78962670Y-77125400D01*
X78962671Y-77125404D01*
X79056545Y-77426659D01*
X79056549Y-77426670D01*
X79056550Y-77426673D01*
X79056552Y-77426678D01*
X79089552Y-77500000D01*
X79186066Y-77714446D01*
X79349326Y-77984510D01*
X79543943Y-78232920D01*
X79767079Y-78456056D01*
X80015489Y-78650673D01*
X80015492Y-78650675D01*
X80015495Y-78650677D01*
X80285554Y-78813934D01*
X80573322Y-78943448D01*
X80573332Y-78943451D01*
X80573340Y-78943454D01*
X80721686Y-78989680D01*
X80874604Y-79037331D01*
X81185005Y-79094214D01*
X81500000Y-79113268D01*
X81814995Y-79094214D01*
X82125396Y-79037331D01*
X82426678Y-78943448D01*
X82714446Y-78813934D01*
X82984505Y-78650677D01*
X83232917Y-78456059D01*
X83456059Y-78232917D01*
X83650677Y-77984505D01*
X83813934Y-77714446D01*
X83943448Y-77426678D01*
X84037331Y-77125396D01*
X84094214Y-76814995D01*
X84113268Y-76500000D01*
X84094214Y-76185005D01*
X84037331Y-75874604D01*
X83943448Y-75573322D01*
X83813934Y-75285554D01*
X83650677Y-75015495D01*
X83650675Y-75015492D01*
X83650673Y-75015489D01*
X83456056Y-74767079D01*
X83232920Y-74543943D01*
X82984510Y-74349326D01*
X82714446Y-74186066D01*
X82426678Y-74056552D01*
X82426673Y-74056550D01*
X82426670Y-74056549D01*
X82426659Y-74056545D01*
X82125404Y-73962671D01*
X82125400Y-73962670D01*
X82125396Y-73962669D01*
X81814995Y-73905786D01*
X81814994Y-73905785D01*
X81814989Y-73905785D01*
X81500000Y-73886732D01*
X81185010Y-73905785D01*
X81185005Y-73905786D01*
X80874604Y-73962669D01*
X80874601Y-73962669D01*
X80874595Y-73962671D01*
X80573340Y-74056545D01*
X80573329Y-74056549D01*
X80285553Y-74186066D01*
X80015489Y-74349326D01*
X79767079Y-74543943D01*
X79543943Y-74767079D01*
X79349326Y-75015489D01*
X79186066Y-75285553D01*
X79056549Y-75573329D01*
X79056545Y-75573340D01*
X78962671Y-75874595D01*
X78962669Y-75874601D01*
X78962669Y-75874604D01*
X78956182Y-75910003D01*
X78905785Y-76185010D01*
X78886732Y-76500000D01*
X72500500Y-76500000D01*
X72500500Y-72069996D01*
X84824435Y-72069996D01*
X84824435Y-72070003D01*
X84844630Y-72249249D01*
X84844631Y-72249254D01*
X84904211Y-72419523D01*
X84993901Y-72562262D01*
X85000184Y-72572262D01*
X85127738Y-72699816D01*
X85280478Y-72795789D01*
X85422167Y-72845368D01*
X85450745Y-72855368D01*
X85450750Y-72855369D01*
X85629996Y-72875565D01*
X85630000Y-72875565D01*
X85630004Y-72875565D01*
X85809249Y-72855369D01*
X85809252Y-72855368D01*
X85809255Y-72855368D01*
X85979522Y-72795789D01*
X86132262Y-72699816D01*
X86259816Y-72572262D01*
X86355789Y-72419522D01*
X86415368Y-72249255D01*
X86416495Y-72239254D01*
X86435565Y-72070003D01*
X86435565Y-72069996D01*
X86415369Y-71890750D01*
X86415368Y-71890745D01*
X86355788Y-71720476D01*
X86259815Y-71567737D01*
X86132262Y-71440184D01*
X85979523Y-71344211D01*
X85809254Y-71284631D01*
X85809249Y-71284630D01*
X85630004Y-71264435D01*
X85629996Y-71264435D01*
X85450750Y-71284630D01*
X85450745Y-71284631D01*
X85280476Y-71344211D01*
X85127737Y-71440184D01*
X85000184Y-71567737D01*
X84904211Y-71720476D01*
X84844631Y-71890745D01*
X84844630Y-71890750D01*
X84824435Y-72069996D01*
X72500500Y-72069996D01*
X72500500Y-69539998D01*
X81596965Y-69539998D01*
X81596965Y-69540001D01*
X81617064Y-69769737D01*
X81617066Y-69769748D01*
X81676751Y-69992497D01*
X81676753Y-69992501D01*
X81676754Y-69992505D01*
X81764098Y-70179815D01*
X81774218Y-70201518D01*
X81774220Y-70201522D01*
X81906496Y-70390432D01*
X82069567Y-70553503D01*
X82258477Y-70685779D01*
X82258479Y-70685780D01*
X82258482Y-70685782D01*
X82467495Y-70783246D01*
X82690257Y-70842935D01*
X82854359Y-70857292D01*
X82919998Y-70863035D01*
X82920000Y-70863035D01*
X82920002Y-70863035D01*
X82977435Y-70858010D01*
X83149743Y-70842935D01*
X83372505Y-70783246D01*
X83581518Y-70685782D01*
X83770431Y-70553504D01*
X83933504Y-70390431D01*
X84065782Y-70201518D01*
X84163246Y-69992505D01*
X84222935Y-69769743D01*
X84241285Y-69559996D01*
X143534435Y-69559996D01*
X143534435Y-69560003D01*
X143554630Y-69739249D01*
X143554631Y-69739254D01*
X143614211Y-69909523D01*
X143666353Y-69992506D01*
X143710184Y-70062262D01*
X143837738Y-70189816D01*
X143856362Y-70201518D01*
X143974561Y-70275788D01*
X143990478Y-70285789D01*
X144160745Y-70345368D01*
X144160750Y-70345369D01*
X144339996Y-70365565D01*
X144340000Y-70365565D01*
X144340004Y-70365565D01*
X144519249Y-70345369D01*
X144519252Y-70345368D01*
X144519255Y-70345368D01*
X144689522Y-70285789D01*
X144842262Y-70189816D01*
X144969816Y-70062262D01*
X145065789Y-69909522D01*
X145125368Y-69739255D01*
X145126495Y-69729254D01*
X145145565Y-69560003D01*
X145145565Y-69559996D01*
X145144438Y-69549996D01*
X150014435Y-69549996D01*
X150014435Y-69550003D01*
X150034630Y-69729249D01*
X150034631Y-69729254D01*
X150094211Y-69899523D01*
X150150590Y-69989249D01*
X150190184Y-70052262D01*
X150317738Y-70179816D01*
X150470478Y-70275789D01*
X150574712Y-70312262D01*
X150640745Y-70335368D01*
X150640750Y-70335369D01*
X150819996Y-70355565D01*
X150820000Y-70355565D01*
X150820004Y-70355565D01*
X150999249Y-70335369D01*
X150999252Y-70335368D01*
X150999255Y-70335368D01*
X151169522Y-70275789D01*
X151322262Y-70179816D01*
X151449816Y-70052262D01*
X151545789Y-69899522D01*
X151577116Y-69809996D01*
X209194435Y-69809996D01*
X209194435Y-69810003D01*
X209214630Y-69989249D01*
X209214631Y-69989254D01*
X209274211Y-70159523D01*
X209300601Y-70201522D01*
X209370184Y-70312262D01*
X209497738Y-70439816D01*
X209650478Y-70535789D01*
X209701102Y-70553503D01*
X209820745Y-70595368D01*
X209820750Y-70595369D01*
X209999996Y-70615565D01*
X210000000Y-70615565D01*
X210000004Y-70615565D01*
X210179249Y-70595369D01*
X210179252Y-70595368D01*
X210179255Y-70595368D01*
X210349522Y-70535789D01*
X210502262Y-70439816D01*
X210629816Y-70312262D01*
X210725789Y-70159522D01*
X210785368Y-69989255D01*
X210794352Y-69909522D01*
X210805565Y-69810003D01*
X210805565Y-69809996D01*
X210785369Y-69630750D01*
X210785368Y-69630745D01*
X210725788Y-69460476D01*
X210686582Y-69398080D01*
X210629816Y-69307738D01*
X210502262Y-69180184D01*
X210437124Y-69139255D01*
X210349523Y-69084211D01*
X210179254Y-69024631D01*
X210179249Y-69024630D01*
X210000004Y-69004435D01*
X209999996Y-69004435D01*
X209820750Y-69024630D01*
X209820745Y-69024631D01*
X209650476Y-69084211D01*
X209497737Y-69180184D01*
X209370184Y-69307737D01*
X209274211Y-69460476D01*
X209214631Y-69630745D01*
X209214630Y-69630750D01*
X209194435Y-69809996D01*
X151577116Y-69809996D01*
X151605368Y-69729255D01*
X151605369Y-69729249D01*
X151625565Y-69550003D01*
X151625565Y-69549996D01*
X151605369Y-69370750D01*
X151605368Y-69370745D01*
X151583321Y-69307738D01*
X151545789Y-69200478D01*
X151533037Y-69180184D01*
X151474796Y-69087493D01*
X151449816Y-69047738D01*
X151362074Y-68959996D01*
X180834435Y-68959996D01*
X180834435Y-68960003D01*
X180854630Y-69139249D01*
X180854631Y-69139254D01*
X180914211Y-69309523D01*
X181009062Y-69460476D01*
X181010184Y-69462262D01*
X181137738Y-69589816D01*
X181290478Y-69685789D01*
X181414680Y-69729249D01*
X181460745Y-69745368D01*
X181460750Y-69745369D01*
X181639996Y-69765565D01*
X181640000Y-69765565D01*
X181640004Y-69765565D01*
X181819249Y-69745369D01*
X181819252Y-69745368D01*
X181819255Y-69745368D01*
X181989522Y-69685789D01*
X182142262Y-69589816D01*
X182269816Y-69462262D01*
X182365789Y-69309522D01*
X182425368Y-69139255D01*
X182434553Y-69057737D01*
X182445565Y-68960003D01*
X182445565Y-68959996D01*
X182425369Y-68780750D01*
X182425368Y-68780745D01*
X182365788Y-68610476D01*
X182313020Y-68526497D01*
X182269816Y-68457738D01*
X182142262Y-68330184D01*
X182089054Y-68296751D01*
X181989523Y-68234211D01*
X181819254Y-68174631D01*
X181819249Y-68174630D01*
X181640004Y-68154435D01*
X181639996Y-68154435D01*
X181460750Y-68174630D01*
X181460745Y-68174631D01*
X181290476Y-68234211D01*
X181137737Y-68330184D01*
X181010184Y-68457737D01*
X180914211Y-68610476D01*
X180854631Y-68780745D01*
X180854630Y-68780750D01*
X180834435Y-68959996D01*
X151362074Y-68959996D01*
X151322262Y-68920184D01*
X151255897Y-68878484D01*
X151169523Y-68824211D01*
X150999254Y-68764631D01*
X150999249Y-68764630D01*
X150820004Y-68744435D01*
X150819996Y-68744435D01*
X150640750Y-68764630D01*
X150640745Y-68764631D01*
X150470476Y-68824211D01*
X150317737Y-68920184D01*
X150190184Y-69047737D01*
X150094211Y-69200476D01*
X150034631Y-69370745D01*
X150034630Y-69370750D01*
X150014435Y-69549996D01*
X145144438Y-69549996D01*
X145125369Y-69380750D01*
X145125368Y-69380745D01*
X145065788Y-69210476D01*
X144988518Y-69087502D01*
X144969816Y-69057738D01*
X144842262Y-68930184D01*
X144826347Y-68920184D01*
X144689523Y-68834211D01*
X144519254Y-68774631D01*
X144519249Y-68774630D01*
X144340004Y-68754435D01*
X144339996Y-68754435D01*
X144160750Y-68774630D01*
X144160745Y-68774631D01*
X143990476Y-68834211D01*
X143837737Y-68930184D01*
X143710184Y-69057737D01*
X143614211Y-69210476D01*
X143554631Y-69380745D01*
X143554630Y-69380750D01*
X143534435Y-69559996D01*
X84241285Y-69559996D01*
X84242160Y-69550000D01*
X84243035Y-69540001D01*
X84243035Y-69539998D01*
X84236078Y-69460478D01*
X84222935Y-69310257D01*
X84163246Y-69087495D01*
X84065782Y-68878483D01*
X83933504Y-68689569D01*
X83933502Y-68689566D01*
X83770432Y-68526496D01*
X83581522Y-68394220D01*
X83581518Y-68394218D01*
X83581516Y-68394217D01*
X83372505Y-68296754D01*
X83372501Y-68296753D01*
X83372497Y-68296751D01*
X83149748Y-68237066D01*
X83149744Y-68237065D01*
X83149743Y-68237065D01*
X83149742Y-68237064D01*
X83149737Y-68237064D01*
X82920002Y-68216965D01*
X82919998Y-68216965D01*
X82690262Y-68237064D01*
X82690251Y-68237066D01*
X82467502Y-68296751D01*
X82467493Y-68296755D01*
X82258484Y-68394217D01*
X82258482Y-68394218D01*
X82069566Y-68526497D01*
X81906497Y-68689566D01*
X81774218Y-68878482D01*
X81774217Y-68878484D01*
X81676755Y-69087493D01*
X81676751Y-69087502D01*
X81617066Y-69310251D01*
X81617064Y-69310262D01*
X81596965Y-69539998D01*
X72500500Y-69539998D01*
X72500500Y-67329996D01*
X166784435Y-67329996D01*
X166784435Y-67330003D01*
X166804630Y-67509249D01*
X166804631Y-67509254D01*
X166864211Y-67679523D01*
X166960184Y-67832262D01*
X167087738Y-67959816D01*
X167240478Y-68055789D01*
X167410745Y-68115368D01*
X167410750Y-68115369D01*
X167589996Y-68135565D01*
X167590000Y-68135565D01*
X167590004Y-68135565D01*
X167769249Y-68115369D01*
X167769252Y-68115368D01*
X167769255Y-68115368D01*
X167939522Y-68055789D01*
X168092262Y-67959816D01*
X168219816Y-67832262D01*
X168315789Y-67679522D01*
X168375368Y-67509255D01*
X168395565Y-67330000D01*
X168375368Y-67150745D01*
X168315789Y-66980478D01*
X168233802Y-66849996D01*
X175424435Y-66849996D01*
X175424435Y-66850003D01*
X175444630Y-67029249D01*
X175444631Y-67029254D01*
X175504211Y-67199523D01*
X175586193Y-67329996D01*
X175600184Y-67352262D01*
X175727738Y-67479816D01*
X175880478Y-67575789D01*
X176050745Y-67635368D01*
X176050750Y-67635369D01*
X176229996Y-67655565D01*
X176230000Y-67655565D01*
X176230004Y-67655565D01*
X176409249Y-67635369D01*
X176409252Y-67635368D01*
X176409255Y-67635368D01*
X176579522Y-67575789D01*
X176732262Y-67479816D01*
X176859816Y-67352262D01*
X176955789Y-67199522D01*
X177015368Y-67029255D01*
X177015369Y-67029249D01*
X177035565Y-66850003D01*
X177035565Y-66849996D01*
X177015369Y-66670750D01*
X177015368Y-66670745D01*
X176955788Y-66500476D01*
X176859815Y-66347737D01*
X176802074Y-66289996D01*
X199335835Y-66289996D01*
X199335835Y-66290003D01*
X199356030Y-66469249D01*
X199356031Y-66469254D01*
X199415611Y-66639523D01*
X199511584Y-66792262D01*
X199639138Y-66919816D01*
X199791878Y-67015789D01*
X199830359Y-67029254D01*
X199962145Y-67075368D01*
X199962150Y-67075369D01*
X200141396Y-67095565D01*
X200141400Y-67095565D01*
X200141404Y-67095565D01*
X200320649Y-67075369D01*
X200320652Y-67075368D01*
X200320655Y-67075368D01*
X200490922Y-67015789D01*
X200643662Y-66919816D01*
X200771216Y-66792262D01*
X200867189Y-66639522D01*
X200926768Y-66469255D01*
X200946965Y-66290000D01*
X200930691Y-66145565D01*
X200926769Y-66110750D01*
X200926768Y-66110745D01*
X200867188Y-65940476D01*
X200771215Y-65787737D01*
X200643662Y-65660184D01*
X200490923Y-65564211D01*
X200320654Y-65504631D01*
X200320649Y-65504630D01*
X200141404Y-65484435D01*
X200141396Y-65484435D01*
X199962150Y-65504630D01*
X199962145Y-65504631D01*
X199791876Y-65564211D01*
X199639137Y-65660184D01*
X199511584Y-65787737D01*
X199415611Y-65940476D01*
X199356031Y-66110745D01*
X199356030Y-66110750D01*
X199335835Y-66289996D01*
X176802074Y-66289996D01*
X176732262Y-66220184D01*
X176579523Y-66124211D01*
X176409254Y-66064631D01*
X176409249Y-66064630D01*
X176230004Y-66044435D01*
X176229996Y-66044435D01*
X176050750Y-66064630D01*
X176050745Y-66064631D01*
X175880476Y-66124211D01*
X175727737Y-66220184D01*
X175600184Y-66347737D01*
X175504211Y-66500476D01*
X175444631Y-66670745D01*
X175444630Y-66670750D01*
X175424435Y-66849996D01*
X168233802Y-66849996D01*
X168219816Y-66827738D01*
X168092262Y-66700184D01*
X167995721Y-66639523D01*
X167939523Y-66604211D01*
X167769254Y-66544631D01*
X167769249Y-66544630D01*
X167590004Y-66524435D01*
X167589996Y-66524435D01*
X167410750Y-66544630D01*
X167410745Y-66544631D01*
X167240476Y-66604211D01*
X167087737Y-66700184D01*
X166960184Y-66827737D01*
X166864211Y-66980476D01*
X166804631Y-67150745D01*
X166804630Y-67150750D01*
X166784435Y-67329996D01*
X72500500Y-67329996D01*
X72500500Y-65384998D01*
X78756965Y-65384998D01*
X78756965Y-65385001D01*
X78777064Y-65614737D01*
X78777066Y-65614748D01*
X78836751Y-65837497D01*
X78836753Y-65837501D01*
X78836754Y-65837505D01*
X78933247Y-66044435D01*
X78934218Y-66046518D01*
X78934220Y-66046522D01*
X79066496Y-66235432D01*
X79229567Y-66398503D01*
X79418477Y-66530779D01*
X79418479Y-66530780D01*
X79418482Y-66530782D01*
X79627495Y-66628246D01*
X79627501Y-66628247D01*
X79627502Y-66628248D01*
X79669581Y-66639523D01*
X79850257Y-66687935D01*
X80014359Y-66702292D01*
X80079998Y-66708035D01*
X80080000Y-66708035D01*
X80080002Y-66708035D01*
X80137435Y-66703010D01*
X80309743Y-66687935D01*
X80532505Y-66628246D01*
X80741518Y-66530782D01*
X80930431Y-66398504D01*
X81093504Y-66235431D01*
X81225782Y-66046518D01*
X81323246Y-65837505D01*
X81382935Y-65614743D01*
X81403035Y-65385000D01*
X81399098Y-65339996D01*
X111564435Y-65339996D01*
X111564435Y-65340003D01*
X111584630Y-65519249D01*
X111584631Y-65519254D01*
X111644211Y-65689523D01*
X111705924Y-65787738D01*
X111740184Y-65842262D01*
X111867738Y-65969816D01*
X111958080Y-66026582D01*
X112018636Y-66064632D01*
X112020478Y-66065789D01*
X112190745Y-66125368D01*
X112190750Y-66125369D01*
X112369996Y-66145565D01*
X112370000Y-66145565D01*
X112370004Y-66145565D01*
X112549249Y-66125369D01*
X112549252Y-66125368D01*
X112549255Y-66125368D01*
X112719522Y-66065789D01*
X112872262Y-65969816D01*
X112999816Y-65842262D01*
X113095789Y-65689522D01*
X113155368Y-65519255D01*
X113157016Y-65504630D01*
X113175565Y-65340003D01*
X113175565Y-65339996D01*
X113155369Y-65160750D01*
X113155368Y-65160745D01*
X113095788Y-64990476D01*
X113007792Y-64850432D01*
X112999816Y-64837738D01*
X112872262Y-64710184D01*
X112794811Y-64661518D01*
X112719523Y-64614211D01*
X112549254Y-64554631D01*
X112549249Y-64554630D01*
X112370004Y-64534435D01*
X112369996Y-64534435D01*
X112190750Y-64554630D01*
X112190745Y-64554631D01*
X112020476Y-64614211D01*
X111867737Y-64710184D01*
X111740184Y-64837737D01*
X111644211Y-64990476D01*
X111584631Y-65160745D01*
X111584630Y-65160750D01*
X111564435Y-65339996D01*
X81399098Y-65339996D01*
X81382935Y-65155257D01*
X81323246Y-64932495D01*
X81225782Y-64723483D01*
X81107552Y-64554632D01*
X81093502Y-64534566D01*
X80930432Y-64371496D01*
X80741522Y-64239220D01*
X80741518Y-64239218D01*
X80612924Y-64179254D01*
X80532505Y-64141754D01*
X80532501Y-64141753D01*
X80532497Y-64141751D01*
X80309748Y-64082066D01*
X80309744Y-64082065D01*
X80309743Y-64082065D01*
X80309742Y-64082064D01*
X80309737Y-64082064D01*
X80080002Y-64061965D01*
X80079998Y-64061965D01*
X79850262Y-64082064D01*
X79850251Y-64082066D01*
X79627502Y-64141751D01*
X79627493Y-64141755D01*
X79418484Y-64239217D01*
X79418482Y-64239218D01*
X79229566Y-64371497D01*
X79066497Y-64534566D01*
X78934218Y-64723482D01*
X78934217Y-64723484D01*
X78836755Y-64932493D01*
X78836751Y-64932502D01*
X78777066Y-65155251D01*
X78777064Y-65155262D01*
X78756965Y-65384998D01*
X72500500Y-65384998D01*
X72500500Y-63999998D01*
X81596965Y-63999998D01*
X81596965Y-64000001D01*
X81617064Y-64229737D01*
X81617066Y-64229748D01*
X81676751Y-64452497D01*
X81676753Y-64452501D01*
X81676754Y-64452505D01*
X81759435Y-64629815D01*
X81774218Y-64661518D01*
X81774220Y-64661522D01*
X81906496Y-64850432D01*
X82069567Y-65013503D01*
X82258477Y-65145779D01*
X82258479Y-65145780D01*
X82258482Y-65145782D01*
X82467495Y-65243246D01*
X82690257Y-65302935D01*
X82854359Y-65317292D01*
X82919998Y-65323035D01*
X82920000Y-65323035D01*
X82920002Y-65323035D01*
X82977435Y-65318010D01*
X83149743Y-65302935D01*
X83372505Y-65243246D01*
X83581518Y-65145782D01*
X83770431Y-65013504D01*
X83933504Y-64850431D01*
X84065782Y-64661518D01*
X84163246Y-64452505D01*
X84222935Y-64229743D01*
X84243035Y-64000000D01*
X84243035Y-63999996D01*
X84824435Y-63999996D01*
X84824435Y-64000003D01*
X84844630Y-64179249D01*
X84844631Y-64179254D01*
X84904211Y-64349523D01*
X84968920Y-64452506D01*
X85000184Y-64502262D01*
X85127738Y-64629816D01*
X85178198Y-64661522D01*
X85276809Y-64723484D01*
X85280478Y-64725789D01*
X85450745Y-64785368D01*
X85450750Y-64785369D01*
X85629996Y-64805565D01*
X85630000Y-64805565D01*
X85630004Y-64805565D01*
X85809249Y-64785369D01*
X85809252Y-64785368D01*
X85809255Y-64785368D01*
X85979522Y-64725789D01*
X86132262Y-64629816D01*
X86259816Y-64502262D01*
X86355789Y-64349522D01*
X86415368Y-64179255D01*
X86416149Y-64172326D01*
X86435565Y-64000003D01*
X86435565Y-63999996D01*
X86415369Y-63820750D01*
X86415368Y-63820745D01*
X86380733Y-63721765D01*
X86355789Y-63650478D01*
X86259816Y-63497738D01*
X86132262Y-63370184D01*
X86081812Y-63338484D01*
X85979523Y-63274211D01*
X85809254Y-63214631D01*
X85809249Y-63214630D01*
X85630004Y-63194435D01*
X85629996Y-63194435D01*
X85450750Y-63214630D01*
X85450745Y-63214631D01*
X85280476Y-63274211D01*
X85127737Y-63370184D01*
X85000184Y-63497737D01*
X84904211Y-63650476D01*
X84844631Y-63820745D01*
X84844630Y-63820750D01*
X84824435Y-63999996D01*
X84243035Y-63999996D01*
X84222935Y-63770257D01*
X84163246Y-63547495D01*
X84065782Y-63338483D01*
X83947807Y-63169996D01*
X150424435Y-63169996D01*
X150424435Y-63170003D01*
X150444630Y-63349249D01*
X150444631Y-63349254D01*
X150504211Y-63519523D01*
X150521792Y-63547502D01*
X150600184Y-63672262D01*
X150727738Y-63799816D01*
X150880478Y-63895789D01*
X151050745Y-63955368D01*
X151050750Y-63955369D01*
X151229996Y-63975565D01*
X151230000Y-63975565D01*
X151230004Y-63975565D01*
X151409249Y-63955369D01*
X151409252Y-63955368D01*
X151409255Y-63955368D01*
X151579522Y-63895789D01*
X151732262Y-63799816D01*
X151859816Y-63672262D01*
X151941347Y-63542507D01*
X183549014Y-63542507D01*
X183549014Y-63542514D01*
X183569209Y-63721760D01*
X183569210Y-63721765D01*
X183628790Y-63892034D01*
X183696628Y-63999996D01*
X183724763Y-64044773D01*
X183852317Y-64172327D01*
X184005057Y-64268300D01*
X184175324Y-64327879D01*
X184175329Y-64327880D01*
X184354575Y-64348076D01*
X184354579Y-64348076D01*
X184354583Y-64348076D01*
X184533828Y-64327880D01*
X184533831Y-64327879D01*
X184533834Y-64327879D01*
X184704101Y-64268300D01*
X184856841Y-64172327D01*
X184984395Y-64044773D01*
X185080368Y-63892033D01*
X185139947Y-63721766D01*
X185147979Y-63650478D01*
X185160144Y-63542514D01*
X185160144Y-63542507D01*
X185139948Y-63363261D01*
X185139947Y-63363256D01*
X185087941Y-63214631D01*
X185080368Y-63192989D01*
X185053083Y-63149566D01*
X184984394Y-63040248D01*
X184856841Y-62912695D01*
X184704102Y-62816722D01*
X184533833Y-62757142D01*
X184533828Y-62757141D01*
X184354583Y-62736946D01*
X184354575Y-62736946D01*
X184175329Y-62757141D01*
X184175324Y-62757142D01*
X184005055Y-62816722D01*
X183852316Y-62912695D01*
X183724763Y-63040248D01*
X183628790Y-63192987D01*
X183569210Y-63363256D01*
X183569209Y-63363261D01*
X183549014Y-63542507D01*
X151941347Y-63542507D01*
X151955789Y-63519522D01*
X152015368Y-63349255D01*
X152016582Y-63338482D01*
X152035565Y-63170003D01*
X152035565Y-63169996D01*
X152015369Y-62990750D01*
X152015368Y-62990745D01*
X151955788Y-62820476D01*
X151878243Y-62697064D01*
X151859816Y-62667738D01*
X151732262Y-62540184D01*
X151579523Y-62444211D01*
X151409254Y-62384631D01*
X151409249Y-62384630D01*
X151230004Y-62364435D01*
X151229996Y-62364435D01*
X151050750Y-62384630D01*
X151050745Y-62384631D01*
X150880476Y-62444211D01*
X150727737Y-62540184D01*
X150600184Y-62667737D01*
X150504211Y-62820476D01*
X150444631Y-62990745D01*
X150444630Y-62990750D01*
X150424435Y-63169996D01*
X83947807Y-63169996D01*
X83933504Y-63149569D01*
X83933502Y-63149566D01*
X83770432Y-62986496D01*
X83581522Y-62854220D01*
X83581518Y-62854218D01*
X83509162Y-62820478D01*
X83372505Y-62756754D01*
X83372501Y-62756753D01*
X83372497Y-62756751D01*
X83149748Y-62697066D01*
X83149744Y-62697065D01*
X83149743Y-62697065D01*
X83149742Y-62697064D01*
X83149737Y-62697064D01*
X82920002Y-62676965D01*
X82919998Y-62676965D01*
X82690262Y-62697064D01*
X82690251Y-62697066D01*
X82467502Y-62756751D01*
X82467493Y-62756755D01*
X82258484Y-62854217D01*
X82258482Y-62854218D01*
X82069566Y-62986497D01*
X81906497Y-63149566D01*
X81774218Y-63338482D01*
X81774217Y-63338484D01*
X81676755Y-63547493D01*
X81676751Y-63547502D01*
X81617066Y-63770251D01*
X81617064Y-63770262D01*
X81596965Y-63999998D01*
X72500500Y-63999998D01*
X72500500Y-59844998D01*
X78756965Y-59844998D01*
X78756965Y-59845001D01*
X78777064Y-60074737D01*
X78777066Y-60074748D01*
X78836751Y-60297497D01*
X78836753Y-60297501D01*
X78836754Y-60297505D01*
X78912440Y-60459815D01*
X78934218Y-60506518D01*
X78934220Y-60506522D01*
X79066496Y-60695432D01*
X79229567Y-60858503D01*
X79418477Y-60990779D01*
X79418479Y-60990780D01*
X79418482Y-60990782D01*
X79627495Y-61088246D01*
X79850257Y-61147935D01*
X80014359Y-61162292D01*
X80079998Y-61168035D01*
X80080000Y-61168035D01*
X80080002Y-61168035D01*
X80137435Y-61163010D01*
X80309743Y-61147935D01*
X80532505Y-61088246D01*
X80741518Y-60990782D01*
X80930431Y-60858504D01*
X81093504Y-60695431D01*
X81225782Y-60506518D01*
X81323246Y-60297505D01*
X81382935Y-60074743D01*
X81403035Y-59845000D01*
X81382935Y-59615257D01*
X81323246Y-59392495D01*
X81225782Y-59183483D01*
X81093504Y-58994569D01*
X81093502Y-58994566D01*
X80930432Y-58831496D01*
X80741522Y-58699220D01*
X80741518Y-58699218D01*
X80721186Y-58689737D01*
X80532505Y-58601754D01*
X80532501Y-58601753D01*
X80532497Y-58601751D01*
X80309748Y-58542066D01*
X80309744Y-58542065D01*
X80309743Y-58542065D01*
X80309742Y-58542064D01*
X80309737Y-58542064D01*
X80080002Y-58521965D01*
X80079998Y-58521965D01*
X79850262Y-58542064D01*
X79850251Y-58542066D01*
X79627502Y-58601751D01*
X79627493Y-58601755D01*
X79418484Y-58699217D01*
X79418482Y-58699218D01*
X79229566Y-58831497D01*
X79066497Y-58994566D01*
X78934218Y-59183482D01*
X78934217Y-59183484D01*
X78836755Y-59392493D01*
X78836751Y-59392502D01*
X78777066Y-59615251D01*
X78777064Y-59615262D01*
X78756965Y-59844998D01*
X72500500Y-59844998D01*
X72500500Y-58459998D01*
X81596965Y-58459998D01*
X81596965Y-58460001D01*
X81617064Y-58689737D01*
X81617066Y-58689748D01*
X81676751Y-58912497D01*
X81676753Y-58912501D01*
X81676754Y-58912505D01*
X81712543Y-58989254D01*
X81774218Y-59121518D01*
X81774220Y-59121522D01*
X81906496Y-59310432D01*
X82069567Y-59473503D01*
X82258477Y-59605779D01*
X82258479Y-59605780D01*
X82258482Y-59605782D01*
X82467495Y-59703246D01*
X82690257Y-59762935D01*
X82854359Y-59777292D01*
X82919998Y-59783035D01*
X82920000Y-59783035D01*
X82920002Y-59783035D01*
X82977435Y-59778010D01*
X83149743Y-59762935D01*
X83372505Y-59703246D01*
X83581518Y-59605782D01*
X83770431Y-59473504D01*
X83933504Y-59310431D01*
X84065782Y-59121518D01*
X84163246Y-58912505D01*
X84190713Y-58809996D01*
X174314435Y-58809996D01*
X174314435Y-58810003D01*
X174334630Y-58989249D01*
X174334631Y-58989254D01*
X174394211Y-59159523D01*
X174489034Y-59310432D01*
X174490184Y-59312262D01*
X174617738Y-59439816D01*
X174770478Y-59535789D01*
X174940745Y-59595368D01*
X174940750Y-59595369D01*
X175119996Y-59615565D01*
X175120000Y-59615565D01*
X175120003Y-59615565D01*
X175298307Y-59595475D01*
X175367129Y-59607529D01*
X175418509Y-59654879D01*
X175436133Y-59722489D01*
X175435411Y-59732578D01*
X175424435Y-59829996D01*
X175424435Y-59830003D01*
X175444630Y-60009249D01*
X175444631Y-60009254D01*
X175504211Y-60179523D01*
X175578340Y-60297497D01*
X175600184Y-60332262D01*
X175727738Y-60459816D01*
X175880478Y-60555789D01*
X176050745Y-60615368D01*
X176050750Y-60615369D01*
X176229996Y-60635565D01*
X176230000Y-60635565D01*
X176230004Y-60635565D01*
X176409249Y-60615369D01*
X176409252Y-60615368D01*
X176409255Y-60615368D01*
X176579522Y-60555789D01*
X176732262Y-60459816D01*
X176859816Y-60332262D01*
X176955789Y-60179522D01*
X177015368Y-60009255D01*
X177035565Y-59830000D01*
X177030273Y-59783035D01*
X177015369Y-59650750D01*
X177015368Y-59650745D01*
X176955788Y-59480476D01*
X176900510Y-59392502D01*
X176859816Y-59327738D01*
X176732262Y-59200184D01*
X176705681Y-59183482D01*
X176579523Y-59104211D01*
X176409254Y-59044631D01*
X176409249Y-59044630D01*
X176230004Y-59024435D01*
X176229996Y-59024435D01*
X176051691Y-59044524D01*
X175982869Y-59032469D01*
X175931490Y-58985120D01*
X175913866Y-58917509D01*
X175914587Y-58907432D01*
X175925565Y-58810000D01*
X175913083Y-58699220D01*
X175905369Y-58630750D01*
X175905368Y-58630745D01*
X175874338Y-58542066D01*
X175845789Y-58460478D01*
X175845489Y-58460001D01*
X175749815Y-58307737D01*
X175622262Y-58180184D01*
X175469523Y-58084211D01*
X175299254Y-58024631D01*
X175299249Y-58024630D01*
X175120004Y-58004435D01*
X175119996Y-58004435D01*
X174940750Y-58024630D01*
X174940745Y-58024631D01*
X174770476Y-58084211D01*
X174617737Y-58180184D01*
X174490184Y-58307737D01*
X174394211Y-58460476D01*
X174334631Y-58630745D01*
X174334630Y-58630750D01*
X174314435Y-58809996D01*
X84190713Y-58809996D01*
X84222935Y-58689743D01*
X84243035Y-58460000D01*
X84222935Y-58230257D01*
X84163246Y-58007495D01*
X84117781Y-57909996D01*
X103782935Y-57909996D01*
X103782935Y-57910003D01*
X103803130Y-58089249D01*
X103803131Y-58089254D01*
X103862711Y-58259523D01*
X103893007Y-58307738D01*
X103958684Y-58412262D01*
X104086238Y-58539816D01*
X104089819Y-58542066D01*
X104230950Y-58630745D01*
X104238978Y-58635789D01*
X104393153Y-58689737D01*
X104409245Y-58695368D01*
X104409250Y-58695369D01*
X104588496Y-58715565D01*
X104588500Y-58715565D01*
X104588504Y-58715565D01*
X104767749Y-58695369D01*
X104767752Y-58695368D01*
X104767755Y-58695368D01*
X104938022Y-58635789D01*
X105090762Y-58539816D01*
X105218316Y-58412262D01*
X105314289Y-58259522D01*
X105373868Y-58089255D01*
X105374306Y-58085368D01*
X105394065Y-57910003D01*
X105394065Y-57909996D01*
X105373869Y-57730750D01*
X105373868Y-57730745D01*
X105345447Y-57649522D01*
X105314289Y-57560478D01*
X105218316Y-57407738D01*
X105110574Y-57299996D01*
X111564435Y-57299996D01*
X111564435Y-57300003D01*
X111584630Y-57479249D01*
X111584631Y-57479254D01*
X111644211Y-57649523D01*
X111695247Y-57730745D01*
X111740184Y-57802262D01*
X111867738Y-57929816D01*
X111958080Y-57986582D01*
X112018636Y-58024632D01*
X112020478Y-58025789D01*
X112190745Y-58085368D01*
X112190750Y-58085369D01*
X112369996Y-58105565D01*
X112370000Y-58105565D01*
X112370004Y-58105565D01*
X112549249Y-58085369D01*
X112549252Y-58085368D01*
X112549255Y-58085368D01*
X112719522Y-58025789D01*
X112872262Y-57929816D01*
X112999816Y-57802262D01*
X113095789Y-57649522D01*
X113155368Y-57479255D01*
X113173963Y-57314217D01*
X113175565Y-57300003D01*
X113175565Y-57299996D01*
X113155369Y-57120750D01*
X113155368Y-57120745D01*
X113095788Y-56950476D01*
X113056582Y-56888080D01*
X112999816Y-56797738D01*
X112872262Y-56670184D01*
X112719523Y-56574211D01*
X112549254Y-56514631D01*
X112549249Y-56514630D01*
X112441551Y-56502496D01*
X197024435Y-56502496D01*
X197024435Y-56502503D01*
X197044630Y-56681749D01*
X197044631Y-56681754D01*
X197104211Y-56852023D01*
X197166074Y-56950476D01*
X197200184Y-57004762D01*
X197327738Y-57132316D01*
X197410328Y-57184211D01*
X197462121Y-57216755D01*
X197480478Y-57228289D01*
X197650745Y-57287868D01*
X197650750Y-57287869D01*
X197829996Y-57308065D01*
X197830000Y-57308065D01*
X197830004Y-57308065D01*
X198009249Y-57287869D01*
X198009252Y-57287868D01*
X198009255Y-57287868D01*
X198179522Y-57228289D01*
X198332262Y-57132316D01*
X198459816Y-57004762D01*
X198555789Y-56852022D01*
X198615368Y-56681755D01*
X198616672Y-56670184D01*
X198635565Y-56502503D01*
X198635565Y-56502496D01*
X198615369Y-56323250D01*
X198615368Y-56323245D01*
X198555788Y-56152976D01*
X198459815Y-56000237D01*
X198332262Y-55872684D01*
X198179523Y-55776711D01*
X198009254Y-55717131D01*
X198009249Y-55717130D01*
X197830004Y-55696935D01*
X197829996Y-55696935D01*
X197650750Y-55717130D01*
X197650745Y-55717131D01*
X197480476Y-55776711D01*
X197327737Y-55872684D01*
X197200184Y-56000237D01*
X197104211Y-56152976D01*
X197044631Y-56323245D01*
X197044630Y-56323250D01*
X197024435Y-56502496D01*
X112441551Y-56502496D01*
X112370004Y-56494435D01*
X112369996Y-56494435D01*
X112190750Y-56514630D01*
X112190745Y-56514631D01*
X112020476Y-56574211D01*
X111867737Y-56670184D01*
X111740184Y-56797737D01*
X111644211Y-56950476D01*
X111584631Y-57120745D01*
X111584630Y-57120750D01*
X111564435Y-57299996D01*
X105110574Y-57299996D01*
X105090762Y-57280184D01*
X105008172Y-57228289D01*
X104938023Y-57184211D01*
X104767754Y-57124631D01*
X104767749Y-57124630D01*
X104588504Y-57104435D01*
X104588496Y-57104435D01*
X104409250Y-57124630D01*
X104409245Y-57124631D01*
X104238976Y-57184211D01*
X104086237Y-57280184D01*
X103958684Y-57407737D01*
X103862711Y-57560476D01*
X103803131Y-57730745D01*
X103803130Y-57730750D01*
X103782935Y-57909996D01*
X84117781Y-57909996D01*
X84065782Y-57798483D01*
X83933504Y-57609569D01*
X83933502Y-57609566D01*
X83770432Y-57446496D01*
X83581522Y-57314220D01*
X83581518Y-57314218D01*
X83525010Y-57287868D01*
X83372505Y-57216754D01*
X83372501Y-57216753D01*
X83372497Y-57216751D01*
X83149748Y-57157066D01*
X83149744Y-57157065D01*
X83149743Y-57157065D01*
X83149742Y-57157064D01*
X83149737Y-57157064D01*
X82920002Y-57136965D01*
X82919998Y-57136965D01*
X82690262Y-57157064D01*
X82690251Y-57157066D01*
X82467502Y-57216751D01*
X82467493Y-57216755D01*
X82258484Y-57314217D01*
X82258482Y-57314218D01*
X82069566Y-57446497D01*
X81906497Y-57609566D01*
X81774218Y-57798482D01*
X81774217Y-57798484D01*
X81676755Y-58007493D01*
X81676751Y-58007502D01*
X81617066Y-58230251D01*
X81617064Y-58230262D01*
X81596965Y-58459998D01*
X72500500Y-58459998D01*
X72500500Y-51500000D01*
X78886732Y-51500000D01*
X78905785Y-51814989D01*
X78905785Y-51814994D01*
X78905786Y-51814995D01*
X78962669Y-52125396D01*
X78962670Y-52125400D01*
X78962671Y-52125404D01*
X79056545Y-52426659D01*
X79056549Y-52426670D01*
X79056550Y-52426673D01*
X79056552Y-52426678D01*
X79186066Y-52714446D01*
X79349326Y-52984510D01*
X79543943Y-53232920D01*
X79767079Y-53456056D01*
X80015489Y-53650673D01*
X80015492Y-53650675D01*
X80015495Y-53650677D01*
X80285554Y-53813934D01*
X80573322Y-53943448D01*
X80573332Y-53943451D01*
X80573340Y-53943454D01*
X80774176Y-54006036D01*
X80874604Y-54037331D01*
X81185005Y-54094214D01*
X81500000Y-54113268D01*
X81814995Y-54094214D01*
X82125396Y-54037331D01*
X82426678Y-53943448D01*
X82714446Y-53813934D01*
X82984505Y-53650677D01*
X83232917Y-53456059D01*
X83456059Y-53232917D01*
X83650677Y-52984505D01*
X83813934Y-52714446D01*
X83943448Y-52426678D01*
X84037331Y-52125396D01*
X84094214Y-51814995D01*
X84113268Y-51500000D01*
X84094214Y-51185005D01*
X84037331Y-50874604D01*
X83943448Y-50573322D01*
X83813934Y-50285554D01*
X83650677Y-50015495D01*
X83650675Y-50015492D01*
X83650673Y-50015489D01*
X83456056Y-49767079D01*
X83232920Y-49543943D01*
X82984510Y-49349326D01*
X82714446Y-49186066D01*
X82426678Y-49056552D01*
X82426673Y-49056550D01*
X82426670Y-49056549D01*
X82426659Y-49056545D01*
X82125404Y-48962671D01*
X82125400Y-48962670D01*
X82125396Y-48962669D01*
X81814995Y-48905786D01*
X81814994Y-48905785D01*
X81814989Y-48905785D01*
X81500000Y-48886732D01*
X81185010Y-48905785D01*
X81185005Y-48905786D01*
X80874604Y-48962669D01*
X80874601Y-48962669D01*
X80874595Y-48962671D01*
X80573340Y-49056545D01*
X80573329Y-49056549D01*
X80285553Y-49186066D01*
X80015489Y-49349326D01*
X79767079Y-49543943D01*
X79543943Y-49767079D01*
X79349326Y-50015489D01*
X79186066Y-50285553D01*
X79056549Y-50573329D01*
X79056545Y-50573340D01*
X78962671Y-50874595D01*
X78905785Y-51185010D01*
X78886732Y-51500000D01*
X72500500Y-51500000D01*
X72500500Y-44002706D01*
X72500559Y-43999999D01*
X75294422Y-43999999D01*
X75294422Y-44000000D01*
X75314722Y-44387339D01*
X75375397Y-44770427D01*
X75375397Y-44770429D01*
X75475788Y-45145094D01*
X75614787Y-45507197D01*
X75790877Y-45852793D01*
X76002122Y-46178082D01*
X76201615Y-46424435D01*
X76246219Y-46479516D01*
X76520484Y-46753781D01*
X76520488Y-46753784D01*
X76821917Y-46997877D01*
X77056166Y-47150000D01*
X77147211Y-47209125D01*
X77492806Y-47385214D01*
X77854913Y-47524214D01*
X78229567Y-47624602D01*
X78612662Y-47685278D01*
X78978576Y-47704455D01*
X78999999Y-47705578D01*
X79000000Y-47705578D01*
X79000001Y-47705578D01*
X79020301Y-47704514D01*
X79387338Y-47685278D01*
X79770433Y-47624602D01*
X80145087Y-47524214D01*
X80507194Y-47385214D01*
X80811827Y-47229996D01*
X101442935Y-47229996D01*
X101442935Y-47230003D01*
X101463130Y-47409249D01*
X101463131Y-47409254D01*
X101522711Y-47579523D01*
X101554813Y-47630612D01*
X101618684Y-47732262D01*
X101746238Y-47859816D01*
X101898978Y-47955789D01*
X102069245Y-48015368D01*
X102069250Y-48015369D01*
X102248496Y-48035565D01*
X102248500Y-48035565D01*
X102248504Y-48035565D01*
X102427749Y-48015369D01*
X102427752Y-48015368D01*
X102427755Y-48015368D01*
X102598022Y-47955789D01*
X102750762Y-47859816D01*
X102878316Y-47732262D01*
X102974289Y-47579522D01*
X103033868Y-47409255D01*
X103033869Y-47409249D01*
X103054065Y-47230003D01*
X103054065Y-47229996D01*
X103045052Y-47150000D01*
X140714706Y-47150000D01*
X140733853Y-47393297D01*
X140733853Y-47393300D01*
X140733854Y-47393302D01*
X140778562Y-47579523D01*
X140790830Y-47630619D01*
X140884222Y-47856089D01*
X141011737Y-48064173D01*
X141011738Y-48064176D01*
X141011741Y-48064179D01*
X141170241Y-48249759D01*
X141313897Y-48372453D01*
X141355823Y-48408261D01*
X141355826Y-48408262D01*
X141563910Y-48535777D01*
X141789381Y-48629169D01*
X141789378Y-48629169D01*
X141789384Y-48629170D01*
X141789388Y-48629172D01*
X142026698Y-48686146D01*
X142270000Y-48705294D01*
X142513302Y-48686146D01*
X142750612Y-48629172D01*
X142976089Y-48535777D01*
X143184179Y-48408259D01*
X143369759Y-48249759D01*
X143528259Y-48064179D01*
X143655777Y-47856089D01*
X143749172Y-47630612D01*
X143806146Y-47393302D01*
X143825294Y-47150000D01*
X148334706Y-47150000D01*
X148353853Y-47393297D01*
X148353853Y-47393300D01*
X148353854Y-47393302D01*
X148398562Y-47579523D01*
X148410830Y-47630619D01*
X148504222Y-47856089D01*
X148631737Y-48064173D01*
X148631738Y-48064176D01*
X148631741Y-48064179D01*
X148790241Y-48249759D01*
X148933897Y-48372453D01*
X148975823Y-48408261D01*
X148975826Y-48408262D01*
X149183910Y-48535777D01*
X149409381Y-48629169D01*
X149409378Y-48629169D01*
X149409384Y-48629170D01*
X149409388Y-48629172D01*
X149646698Y-48686146D01*
X149890000Y-48705294D01*
X150133302Y-48686146D01*
X150370612Y-48629172D01*
X150596089Y-48535777D01*
X150804179Y-48408259D01*
X150989759Y-48249759D01*
X151148259Y-48064179D01*
X151275777Y-47856089D01*
X151369172Y-47630612D01*
X151426146Y-47393302D01*
X151445294Y-47150000D01*
X151426146Y-46906698D01*
X151369172Y-46669388D01*
X151300754Y-46504211D01*
X151275777Y-46443910D01*
X151148262Y-46235826D01*
X151148261Y-46235823D01*
X151098945Y-46178082D01*
X150989759Y-46050241D01*
X150867063Y-45945449D01*
X150804176Y-45891738D01*
X150804173Y-45891737D01*
X150596089Y-45764222D01*
X150370618Y-45670830D01*
X150370621Y-45670830D01*
X150264992Y-45645470D01*
X150133302Y-45613854D01*
X150133300Y-45613853D01*
X150133297Y-45613853D01*
X149890000Y-45594706D01*
X149646702Y-45613853D01*
X149409380Y-45670830D01*
X149183910Y-45764222D01*
X148975826Y-45891737D01*
X148975823Y-45891738D01*
X148790241Y-46050241D01*
X148631738Y-46235823D01*
X148631737Y-46235826D01*
X148504222Y-46443910D01*
X148410830Y-46669380D01*
X148353853Y-46906702D01*
X148334706Y-47150000D01*
X143825294Y-47150000D01*
X143806146Y-46906698D01*
X143749172Y-46669388D01*
X143680754Y-46504211D01*
X143655777Y-46443910D01*
X143528262Y-46235826D01*
X143528261Y-46235823D01*
X143478945Y-46178082D01*
X143369759Y-46050241D01*
X143247063Y-45945449D01*
X143184176Y-45891738D01*
X143184173Y-45891737D01*
X142976089Y-45764222D01*
X142750618Y-45670830D01*
X142750621Y-45670830D01*
X142644992Y-45645470D01*
X142513302Y-45613854D01*
X142513300Y-45613853D01*
X142513297Y-45613853D01*
X142270000Y-45594706D01*
X142026702Y-45613853D01*
X141789380Y-45670830D01*
X141563910Y-45764222D01*
X141355826Y-45891737D01*
X141355823Y-45891738D01*
X141170241Y-46050241D01*
X141011738Y-46235823D01*
X141011737Y-46235826D01*
X140884222Y-46443910D01*
X140790830Y-46669380D01*
X140733853Y-46906702D01*
X140714706Y-47150000D01*
X103045052Y-47150000D01*
X103033869Y-47050750D01*
X103033868Y-47050745D01*
X102974288Y-46880476D01*
X102878315Y-46727737D01*
X102750762Y-46600184D01*
X102598023Y-46504211D01*
X102427754Y-46444631D01*
X102427749Y-46444630D01*
X102248504Y-46424435D01*
X102248496Y-46424435D01*
X102069250Y-46444630D01*
X102069245Y-46444631D01*
X101898976Y-46504211D01*
X101746237Y-46600184D01*
X101618684Y-46727737D01*
X101522711Y-46880476D01*
X101463131Y-47050745D01*
X101463130Y-47050750D01*
X101442935Y-47229996D01*
X80811827Y-47229996D01*
X80852789Y-47209125D01*
X81178084Y-46997876D01*
X81479516Y-46753781D01*
X81753781Y-46479516D01*
X81997876Y-46178084D01*
X82209125Y-45852789D01*
X82385214Y-45507194D01*
X82524214Y-45145087D01*
X82624602Y-44770433D01*
X82685278Y-44387338D01*
X82705578Y-44000000D01*
X82705578Y-43999999D01*
X203294422Y-43999999D01*
X203294422Y-44000000D01*
X203314722Y-44387339D01*
X203375397Y-44770427D01*
X203375397Y-44770429D01*
X203475788Y-45145094D01*
X203614787Y-45507197D01*
X203790877Y-45852793D01*
X204002122Y-46178082D01*
X204201615Y-46424435D01*
X204246219Y-46479516D01*
X204520484Y-46753781D01*
X204520488Y-46753784D01*
X204821917Y-46997877D01*
X205056166Y-47150000D01*
X205147211Y-47209125D01*
X205492806Y-47385214D01*
X205854913Y-47524214D01*
X206229567Y-47624602D01*
X206612662Y-47685278D01*
X206978576Y-47704455D01*
X206999999Y-47705578D01*
X207000000Y-47705578D01*
X207000001Y-47705578D01*
X207020301Y-47704514D01*
X207387338Y-47685278D01*
X207770433Y-47624602D01*
X208145087Y-47524214D01*
X208507194Y-47385214D01*
X208852789Y-47209125D01*
X209178084Y-46997876D01*
X209479516Y-46753781D01*
X209753781Y-46479516D01*
X209997876Y-46178084D01*
X210209125Y-45852789D01*
X210385214Y-45507194D01*
X210524214Y-45145087D01*
X210624602Y-44770433D01*
X210685278Y-44387338D01*
X210705578Y-44000000D01*
X210685278Y-43612662D01*
X210624602Y-43229567D01*
X210524214Y-42854913D01*
X210518768Y-42840727D01*
X210385212Y-42492802D01*
X210209122Y-42147206D01*
X209997877Y-41821917D01*
X209753784Y-41520488D01*
X209753781Y-41520484D01*
X209479516Y-41246219D01*
X209313855Y-41112069D01*
X209178082Y-41002122D01*
X208852793Y-40790877D01*
X208507197Y-40614787D01*
X208145094Y-40475788D01*
X208145087Y-40475786D01*
X207770433Y-40375398D01*
X207770429Y-40375397D01*
X207770428Y-40375397D01*
X207387339Y-40314722D01*
X207000001Y-40294422D01*
X206999999Y-40294422D01*
X206612660Y-40314722D01*
X206229572Y-40375397D01*
X206229570Y-40375397D01*
X205854905Y-40475788D01*
X205492802Y-40614787D01*
X205147206Y-40790877D01*
X204821917Y-41002122D01*
X204520488Y-41246215D01*
X204520480Y-41246222D01*
X204246222Y-41520480D01*
X204246215Y-41520488D01*
X204002122Y-41821917D01*
X203790877Y-42147206D01*
X203614787Y-42492802D01*
X203475788Y-42854905D01*
X203375397Y-43229570D01*
X203375397Y-43229572D01*
X203314722Y-43612660D01*
X203294422Y-43999999D01*
X82705578Y-43999999D01*
X82685278Y-43612662D01*
X82624602Y-43229567D01*
X82524214Y-42854913D01*
X82518768Y-42840727D01*
X82385212Y-42492802D01*
X82209122Y-42147206D01*
X81997877Y-41821917D01*
X81753784Y-41520488D01*
X81753781Y-41520484D01*
X81479516Y-41246219D01*
X81313855Y-41112069D01*
X81178082Y-41002122D01*
X80852793Y-40790877D01*
X80507197Y-40614787D01*
X80145094Y-40475788D01*
X80145087Y-40475786D01*
X79770433Y-40375398D01*
X79770429Y-40375397D01*
X79770428Y-40375397D01*
X79387339Y-40314722D01*
X79000001Y-40294422D01*
X78999999Y-40294422D01*
X78612660Y-40314722D01*
X78229572Y-40375397D01*
X78229570Y-40375397D01*
X77854905Y-40475788D01*
X77492802Y-40614787D01*
X77147206Y-40790877D01*
X76821917Y-41002122D01*
X76520488Y-41246215D01*
X76520480Y-41246222D01*
X76246222Y-41520480D01*
X76246215Y-41520488D01*
X76002122Y-41821917D01*
X75790877Y-42147206D01*
X75614787Y-42492802D01*
X75475788Y-42854905D01*
X75375397Y-43229570D01*
X75375397Y-43229572D01*
X75314722Y-43612660D01*
X75294422Y-43999999D01*
X72500559Y-43999999D01*
X72500618Y-43997297D01*
X72503377Y-43934108D01*
X72517386Y-43613226D01*
X72518326Y-43602495D01*
X72568152Y-43224025D01*
X72570025Y-43213405D01*
X72652649Y-42840709D01*
X72655440Y-42830295D01*
X72770230Y-42466227D01*
X72773917Y-42456095D01*
X72920003Y-42103412D01*
X72924561Y-42093638D01*
X73100822Y-41755045D01*
X73106217Y-41745700D01*
X73311325Y-41423744D01*
X73317515Y-41414905D01*
X73549896Y-41112060D01*
X73556834Y-41103791D01*
X73814726Y-40822352D01*
X73822352Y-40814726D01*
X74103791Y-40556834D01*
X74112060Y-40549896D01*
X74414905Y-40317515D01*
X74423744Y-40311325D01*
X74745700Y-40106217D01*
X74755045Y-40100822D01*
X75093638Y-39924561D01*
X75103412Y-39920003D01*
X75456095Y-39773917D01*
X75466227Y-39770230D01*
X75830295Y-39655440D01*
X75840709Y-39652649D01*
X76213405Y-39570025D01*
X76224025Y-39568152D01*
X76602495Y-39518326D01*
X76613226Y-39517386D01*
X76997297Y-39500617D01*
X77002706Y-39500500D01*
X77065892Y-39500500D01*
X208934108Y-39500500D01*
X208997294Y-39500500D01*
X209002702Y-39500617D01*
G37*
%TD.AperFunction*%
%TD*%
%TA.AperFunction,Conductor*%
%TO.N,/V_SEC_RTN*%
G36*
X180943039Y-74019685D02*
G01*
X180988794Y-74072489D01*
X181000000Y-74124000D01*
X181000000Y-86000000D01*
X213375500Y-86000000D01*
X213442539Y-86019685D01*
X213488294Y-86072489D01*
X213499500Y-86124000D01*
X213499500Y-94867931D01*
X213479815Y-94934970D01*
X213427011Y-94980725D01*
X213357853Y-94990669D01*
X213294297Y-94961644D01*
X213269773Y-94932721D01*
X213202815Y-94823457D01*
X213202814Y-94823455D01*
X213202813Y-94823454D01*
X213202812Y-94823452D01*
X213038699Y-94631301D01*
X212846548Y-94467188D01*
X212846546Y-94467186D01*
X212846544Y-94467185D01*
X212846542Y-94467184D01*
X212631090Y-94335154D01*
X212397630Y-94238452D01*
X212151912Y-94179461D01*
X212151913Y-94179461D01*
X211900000Y-94159636D01*
X211648087Y-94179461D01*
X211402369Y-94238452D01*
X211168909Y-94335154D01*
X210953457Y-94467184D01*
X210953455Y-94467185D01*
X210761301Y-94631301D01*
X210597185Y-94823455D01*
X210597184Y-94823457D01*
X210465154Y-95038909D01*
X210368452Y-95272369D01*
X210309461Y-95518087D01*
X210289636Y-95770000D01*
X210309461Y-96021912D01*
X210368452Y-96267630D01*
X210465154Y-96501090D01*
X210597184Y-96716542D01*
X210597185Y-96716544D01*
X210597186Y-96716546D01*
X210597188Y-96716548D01*
X210761301Y-96908699D01*
X210953452Y-97072812D01*
X210953454Y-97072813D01*
X210953455Y-97072814D01*
X210953457Y-97072815D01*
X211168909Y-97204845D01*
X211402369Y-97301547D01*
X211463798Y-97316294D01*
X211648084Y-97360538D01*
X211900000Y-97380364D01*
X212151916Y-97360538D01*
X212397630Y-97301547D01*
X212631090Y-97204845D01*
X212846548Y-97072812D01*
X213038699Y-96908699D01*
X213202812Y-96716548D01*
X213269773Y-96607276D01*
X213321584Y-96560403D01*
X213390514Y-96548980D01*
X213454677Y-96576637D01*
X213493702Y-96634593D01*
X213499500Y-96672068D01*
X213499500Y-99947931D01*
X213479815Y-100014970D01*
X213427011Y-100060725D01*
X213357853Y-100070669D01*
X213294297Y-100041644D01*
X213269773Y-100012721D01*
X213202815Y-99903457D01*
X213202814Y-99903455D01*
X213202813Y-99903454D01*
X213202812Y-99903452D01*
X213038699Y-99711301D01*
X212846548Y-99547188D01*
X212846546Y-99547186D01*
X212846544Y-99547185D01*
X212846542Y-99547184D01*
X212631090Y-99415154D01*
X212397630Y-99318452D01*
X212151912Y-99259461D01*
X212151913Y-99259461D01*
X211900000Y-99239636D01*
X211648087Y-99259461D01*
X211402369Y-99318452D01*
X211168909Y-99415154D01*
X210953457Y-99547184D01*
X210953455Y-99547185D01*
X210761301Y-99711301D01*
X210597185Y-99903455D01*
X210597184Y-99903457D01*
X210465154Y-100118909D01*
X210368452Y-100352369D01*
X210309461Y-100598087D01*
X210289636Y-100850000D01*
X210309461Y-101101912D01*
X210368452Y-101347630D01*
X210465154Y-101581090D01*
X210597184Y-101796542D01*
X210597185Y-101796544D01*
X210597186Y-101796546D01*
X210597188Y-101796548D01*
X210761301Y-101988699D01*
X210953452Y-102152812D01*
X210953454Y-102152813D01*
X210953455Y-102152814D01*
X210953457Y-102152815D01*
X211168909Y-102284845D01*
X211402369Y-102381547D01*
X211435234Y-102389437D01*
X211648084Y-102440538D01*
X211900000Y-102460364D01*
X212151916Y-102440538D01*
X212397630Y-102381547D01*
X212631090Y-102284845D01*
X212846548Y-102152812D01*
X213038699Y-101988699D01*
X213202812Y-101796548D01*
X213269773Y-101687276D01*
X213321584Y-101640403D01*
X213390514Y-101628980D01*
X213454677Y-101656637D01*
X213493702Y-101714593D01*
X213499500Y-101752068D01*
X213499500Y-123997293D01*
X213499382Y-124002702D01*
X213482614Y-124386750D01*
X213481671Y-124397526D01*
X213431849Y-124775957D01*
X213429971Y-124786610D01*
X213347354Y-125159272D01*
X213344554Y-125169721D01*
X213229775Y-125533755D01*
X213226075Y-125543921D01*
X213080002Y-125896572D01*
X213075430Y-125906376D01*
X212899183Y-126244942D01*
X212893775Y-126254310D01*
X212688681Y-126576244D01*
X212682476Y-126585105D01*
X212450110Y-126887930D01*
X212443156Y-126896217D01*
X212185284Y-127177635D01*
X212177635Y-127185284D01*
X211896217Y-127443156D01*
X211887930Y-127450110D01*
X211585105Y-127682476D01*
X211576244Y-127688681D01*
X211254310Y-127893775D01*
X211244942Y-127899183D01*
X210906376Y-128075430D01*
X210896572Y-128080002D01*
X210543921Y-128226075D01*
X210533755Y-128229775D01*
X210169721Y-128344554D01*
X210159272Y-128347354D01*
X209786610Y-128429971D01*
X209775957Y-128431849D01*
X209397526Y-128481671D01*
X209386750Y-128482614D01*
X209002703Y-128499382D01*
X208997294Y-128499500D01*
X77002706Y-128499500D01*
X76997297Y-128499382D01*
X76613249Y-128482614D01*
X76602473Y-128481671D01*
X76224042Y-128431849D01*
X76213389Y-128429971D01*
X75840727Y-128347354D01*
X75830278Y-128344554D01*
X75466244Y-128229775D01*
X75456078Y-128226075D01*
X75103427Y-128080002D01*
X75093623Y-128075430D01*
X74755057Y-127899183D01*
X74745689Y-127893775D01*
X74423755Y-127688681D01*
X74414894Y-127682476D01*
X74112069Y-127450110D01*
X74103782Y-127443156D01*
X73822364Y-127185284D01*
X73814715Y-127177635D01*
X73556843Y-126896217D01*
X73549889Y-126887930D01*
X73317523Y-126585105D01*
X73311318Y-126576244D01*
X73106224Y-126254310D01*
X73100816Y-126244942D01*
X72924569Y-125906376D01*
X72919997Y-125896572D01*
X72773920Y-125543911D01*
X72770224Y-125533755D01*
X72658082Y-125178084D01*
X72655442Y-125169710D01*
X72652648Y-125159284D01*
X72570025Y-124786597D01*
X72568152Y-124775971D01*
X72518326Y-124397506D01*
X72517386Y-124386771D01*
X72500618Y-124002702D01*
X72500500Y-123997293D01*
X72500500Y-123000000D01*
X75294422Y-123000000D01*
X75314722Y-123387338D01*
X75375398Y-123770433D01*
X75419254Y-123934108D01*
X75475788Y-124145094D01*
X75614787Y-124507197D01*
X75790877Y-124852793D01*
X76002122Y-125178082D01*
X76002124Y-125178084D01*
X76246219Y-125479516D01*
X76520484Y-125753781D01*
X76520488Y-125753784D01*
X76821917Y-125997877D01*
X76827011Y-126001185D01*
X77147211Y-126209125D01*
X77492806Y-126385214D01*
X77854913Y-126524214D01*
X78229567Y-126624602D01*
X78612662Y-126685278D01*
X78978576Y-126704455D01*
X78999999Y-126705578D01*
X79000000Y-126705578D01*
X79000001Y-126705578D01*
X79020301Y-126704514D01*
X79387338Y-126685278D01*
X79770433Y-126624602D01*
X80145087Y-126524214D01*
X80507194Y-126385214D01*
X80852789Y-126209125D01*
X81178084Y-125997876D01*
X81479516Y-125753781D01*
X81753781Y-125479516D01*
X81997876Y-125178084D01*
X82209125Y-124852789D01*
X82385214Y-124507194D01*
X82524214Y-124145087D01*
X82624602Y-123770433D01*
X82685278Y-123387338D01*
X82705578Y-123000000D01*
X203294422Y-123000000D01*
X203314722Y-123387338D01*
X203375398Y-123770433D01*
X203419254Y-123934108D01*
X203475788Y-124145094D01*
X203614787Y-124507197D01*
X203790877Y-124852793D01*
X204002122Y-125178082D01*
X204002124Y-125178084D01*
X204246219Y-125479516D01*
X204520484Y-125753781D01*
X204520488Y-125753784D01*
X204821917Y-125997877D01*
X204827011Y-126001185D01*
X205147211Y-126209125D01*
X205492806Y-126385214D01*
X205854913Y-126524214D01*
X206229567Y-126624602D01*
X206612662Y-126685278D01*
X206978576Y-126704455D01*
X206999999Y-126705578D01*
X207000000Y-126705578D01*
X207000001Y-126705578D01*
X207020301Y-126704514D01*
X207387338Y-126685278D01*
X207770433Y-126624602D01*
X208145087Y-126524214D01*
X208507194Y-126385214D01*
X208852789Y-126209125D01*
X209178084Y-125997876D01*
X209479516Y-125753781D01*
X209753781Y-125479516D01*
X209997876Y-125178084D01*
X210209125Y-124852789D01*
X210385214Y-124507194D01*
X210524214Y-124145087D01*
X210624602Y-123770433D01*
X210685278Y-123387338D01*
X210705578Y-123000000D01*
X210685278Y-122612662D01*
X210624602Y-122229567D01*
X210524214Y-121854913D01*
X210385214Y-121492806D01*
X210209125Y-121147211D01*
X209997876Y-120821916D01*
X209753781Y-120520484D01*
X209479516Y-120246219D01*
X209178084Y-120002124D01*
X209178082Y-120002122D01*
X208852793Y-119790877D01*
X208507197Y-119614787D01*
X208145094Y-119475788D01*
X208145087Y-119475786D01*
X207770433Y-119375398D01*
X207770429Y-119375397D01*
X207770428Y-119375397D01*
X207387339Y-119314722D01*
X207000001Y-119294422D01*
X206999999Y-119294422D01*
X206612660Y-119314722D01*
X206229572Y-119375397D01*
X206229570Y-119375397D01*
X205854905Y-119475788D01*
X205492802Y-119614787D01*
X205147206Y-119790877D01*
X204821917Y-120002122D01*
X204520488Y-120246215D01*
X204520480Y-120246222D01*
X204246222Y-120520480D01*
X204246215Y-120520488D01*
X204002122Y-120821917D01*
X203790877Y-121147206D01*
X203614787Y-121492802D01*
X203475788Y-121854905D01*
X203375397Y-122229570D01*
X203375397Y-122229572D01*
X203314722Y-122612662D01*
X203294422Y-123000000D01*
X82705578Y-123000000D01*
X82685278Y-122612662D01*
X82624602Y-122229567D01*
X82524214Y-121854913D01*
X82385214Y-121492806D01*
X82209125Y-121147211D01*
X81997876Y-120821916D01*
X81753781Y-120520484D01*
X81479516Y-120246219D01*
X81178084Y-120002124D01*
X81178082Y-120002122D01*
X80852793Y-119790877D01*
X80507197Y-119614787D01*
X80145094Y-119475788D01*
X80145087Y-119475786D01*
X79770433Y-119375398D01*
X79770429Y-119375397D01*
X79770428Y-119375397D01*
X79387339Y-119314722D01*
X79000001Y-119294422D01*
X78999999Y-119294422D01*
X78612660Y-119314722D01*
X78229572Y-119375397D01*
X78229570Y-119375397D01*
X77854905Y-119475788D01*
X77492802Y-119614787D01*
X77147206Y-119790877D01*
X76821917Y-120002122D01*
X76520488Y-120246215D01*
X76520480Y-120246222D01*
X76246222Y-120520480D01*
X76246215Y-120520488D01*
X76002122Y-120821917D01*
X75790877Y-121147206D01*
X75614787Y-121492802D01*
X75475788Y-121854905D01*
X75375397Y-122229570D01*
X75375397Y-122229572D01*
X75314722Y-122612662D01*
X75294422Y-123000000D01*
X72500500Y-123000000D01*
X72500500Y-114910000D01*
X78886732Y-114910000D01*
X78905785Y-115224989D01*
X78905785Y-115224994D01*
X78905786Y-115224995D01*
X78962669Y-115535396D01*
X78962670Y-115535400D01*
X78962671Y-115535404D01*
X79056545Y-115836659D01*
X79056549Y-115836670D01*
X79056550Y-115836673D01*
X79056552Y-115836678D01*
X79186066Y-116124446D01*
X79349326Y-116394510D01*
X79543943Y-116642920D01*
X79767079Y-116866056D01*
X80015489Y-117060673D01*
X80015492Y-117060675D01*
X80015495Y-117060677D01*
X80285554Y-117223934D01*
X80573322Y-117353448D01*
X80573332Y-117353451D01*
X80573340Y-117353454D01*
X80774176Y-117416036D01*
X80874604Y-117447331D01*
X81185005Y-117504214D01*
X81500000Y-117523268D01*
X81814995Y-117504214D01*
X82125396Y-117447331D01*
X82426678Y-117353448D01*
X82714446Y-117223934D01*
X82984505Y-117060677D01*
X83232917Y-116866059D01*
X83456059Y-116642917D01*
X83650677Y-116394505D01*
X83813934Y-116124446D01*
X83943448Y-115836678D01*
X84037331Y-115535396D01*
X84094214Y-115224995D01*
X84113268Y-114910000D01*
X84094214Y-114595005D01*
X84037331Y-114284604D01*
X83943448Y-113983322D01*
X83813934Y-113695554D01*
X83650677Y-113425495D01*
X83650675Y-113425492D01*
X83650673Y-113425489D01*
X83456056Y-113177079D01*
X83232920Y-112953943D01*
X82984510Y-112759326D01*
X82714446Y-112596066D01*
X82426678Y-112466552D01*
X82426673Y-112466550D01*
X82426670Y-112466549D01*
X82426659Y-112466545D01*
X82125404Y-112372671D01*
X82125400Y-112372670D01*
X82125396Y-112372669D01*
X81814995Y-112315786D01*
X81814994Y-112315785D01*
X81814989Y-112315785D01*
X81500000Y-112296732D01*
X81185010Y-112315785D01*
X81185005Y-112315786D01*
X80874604Y-112372669D01*
X80874601Y-112372669D01*
X80874595Y-112372671D01*
X80573340Y-112466545D01*
X80573329Y-112466549D01*
X80285553Y-112596066D01*
X80015489Y-112759326D01*
X79767079Y-112953943D01*
X79543943Y-113177079D01*
X79349326Y-113425489D01*
X79186066Y-113695553D01*
X79056549Y-113983329D01*
X79056545Y-113983340D01*
X78962671Y-114284595D01*
X78905785Y-114595010D01*
X78886732Y-114910000D01*
X72500500Y-114910000D01*
X72500500Y-98254998D01*
X78794609Y-98254998D01*
X78794609Y-98255001D01*
X78814136Y-98478200D01*
X78814137Y-98478208D01*
X78872126Y-98694625D01*
X78872127Y-98694627D01*
X78872128Y-98694630D01*
X78966819Y-98897696D01*
X78966821Y-98897700D01*
X79095329Y-99081228D01*
X79095334Y-99081234D01*
X79253765Y-99239665D01*
X79253771Y-99239670D01*
X79437299Y-99368178D01*
X79437301Y-99368179D01*
X79437304Y-99368181D01*
X79640370Y-99462872D01*
X79854414Y-99520225D01*
X79914074Y-99556590D01*
X79944603Y-99619437D01*
X79936308Y-99688813D01*
X79891823Y-99742691D01*
X79854415Y-99759774D01*
X79805230Y-99772953D01*
X79640374Y-99817126D01*
X79640368Y-99817129D01*
X79437306Y-99911818D01*
X79437304Y-99911819D01*
X79253764Y-100040334D01*
X79095334Y-100198764D01*
X78966819Y-100382304D01*
X78966818Y-100382306D01*
X78872129Y-100585368D01*
X78872126Y-100585374D01*
X78814137Y-100801791D01*
X78814136Y-100801799D01*
X78794609Y-101024998D01*
X78794609Y-101025001D01*
X78814136Y-101248200D01*
X78814137Y-101248208D01*
X78872126Y-101464625D01*
X78872127Y-101464627D01*
X78872128Y-101464630D01*
X78958800Y-101650499D01*
X78966819Y-101667696D01*
X78966821Y-101667700D01*
X79095329Y-101851228D01*
X79095334Y-101851234D01*
X79253765Y-102009665D01*
X79253771Y-102009670D01*
X79437299Y-102138178D01*
X79437301Y-102138179D01*
X79437304Y-102138181D01*
X79640370Y-102232872D01*
X79854414Y-102290225D01*
X79914074Y-102326590D01*
X79944603Y-102389437D01*
X79936308Y-102458813D01*
X79891823Y-102512691D01*
X79854415Y-102529774D01*
X79805230Y-102542953D01*
X79640374Y-102587126D01*
X79640368Y-102587129D01*
X79437306Y-102681818D01*
X79437304Y-102681819D01*
X79253764Y-102810334D01*
X79095334Y-102968764D01*
X78966819Y-103152304D01*
X78966818Y-103152306D01*
X78872129Y-103355368D01*
X78872126Y-103355374D01*
X78814137Y-103571791D01*
X78814136Y-103571799D01*
X78794609Y-103794998D01*
X78794609Y-103795001D01*
X78814136Y-104018200D01*
X78814137Y-104018208D01*
X78872126Y-104234625D01*
X78872127Y-104234627D01*
X78872128Y-104234630D01*
X78966819Y-104437696D01*
X78966821Y-104437700D01*
X79095329Y-104621228D01*
X79095334Y-104621234D01*
X79253765Y-104779665D01*
X79253771Y-104779670D01*
X79437299Y-104908178D01*
X79437301Y-104908179D01*
X79437304Y-104908181D01*
X79640370Y-105002872D01*
X79854414Y-105060225D01*
X79914074Y-105096590D01*
X79944603Y-105159437D01*
X79936308Y-105228813D01*
X79891823Y-105282691D01*
X79854415Y-105299774D01*
X79805230Y-105312953D01*
X79640374Y-105357126D01*
X79640368Y-105357129D01*
X79437306Y-105451818D01*
X79437304Y-105451819D01*
X79253764Y-105580334D01*
X79095334Y-105738764D01*
X78966819Y-105922304D01*
X78966818Y-105922306D01*
X78872129Y-106125368D01*
X78872126Y-106125374D01*
X78814137Y-106341791D01*
X78814136Y-106341799D01*
X78794609Y-106564998D01*
X78794609Y-106565001D01*
X78814136Y-106788200D01*
X78814137Y-106788208D01*
X78872126Y-107004625D01*
X78872127Y-107004627D01*
X78872128Y-107004630D01*
X78932171Y-107133393D01*
X78966819Y-107207696D01*
X78966821Y-107207700D01*
X79095329Y-107391228D01*
X79095334Y-107391234D01*
X79253765Y-107549665D01*
X79253771Y-107549670D01*
X79437299Y-107678178D01*
X79437301Y-107678179D01*
X79437304Y-107678181D01*
X79640370Y-107772872D01*
X79856794Y-107830863D01*
X80016226Y-107844811D01*
X80079998Y-107850391D01*
X80080000Y-107850391D01*
X80080002Y-107850391D01*
X80084540Y-107849994D01*
X173774357Y-107849994D01*
X173774357Y-107850005D01*
X173794890Y-108097812D01*
X173794892Y-108097824D01*
X173855936Y-108338881D01*
X173955826Y-108566606D01*
X174091833Y-108774782D01*
X174091836Y-108774785D01*
X174260256Y-108957738D01*
X174456491Y-109110474D01*
X174675190Y-109228828D01*
X174910386Y-109309571D01*
X175155665Y-109350500D01*
X175404335Y-109350500D01*
X175649614Y-109309571D01*
X175884810Y-109228828D01*
X176103509Y-109110474D01*
X176299744Y-108957738D01*
X176468164Y-108774785D01*
X176604173Y-108566607D01*
X176704063Y-108338881D01*
X176765108Y-108097821D01*
X176785643Y-107850000D01*
X176784057Y-107830863D01*
X176765109Y-107602187D01*
X176765107Y-107602175D01*
X176704063Y-107361118D01*
X176604173Y-107133393D01*
X176468166Y-106925217D01*
X176446557Y-106901744D01*
X176299744Y-106742262D01*
X176103509Y-106589526D01*
X176103507Y-106589525D01*
X176103506Y-106589524D01*
X175884811Y-106471172D01*
X175884802Y-106471169D01*
X175649616Y-106390429D01*
X175404335Y-106349500D01*
X175155665Y-106349500D01*
X174910383Y-106390429D01*
X174675197Y-106471169D01*
X174675188Y-106471172D01*
X174456493Y-106589524D01*
X174260257Y-106742261D01*
X174091833Y-106925217D01*
X173955826Y-107133393D01*
X173855936Y-107361118D01*
X173794892Y-107602175D01*
X173794890Y-107602187D01*
X173774357Y-107849994D01*
X80084540Y-107849994D01*
X80135801Y-107845509D01*
X80303206Y-107830863D01*
X80519630Y-107772872D01*
X80722696Y-107678181D01*
X80906233Y-107549667D01*
X81064667Y-107391233D01*
X81193181Y-107207696D01*
X81287872Y-107004630D01*
X81345863Y-106788206D01*
X81365391Y-106565000D01*
X81345863Y-106341794D01*
X81287872Y-106125370D01*
X81193181Y-105922305D01*
X81064667Y-105738767D01*
X80906233Y-105580333D01*
X80906229Y-105580330D01*
X80906228Y-105580329D01*
X80722700Y-105451821D01*
X80722696Y-105451819D01*
X80722694Y-105451818D01*
X80519630Y-105357128D01*
X80519626Y-105357127D01*
X80519622Y-105357125D01*
X80357884Y-105313788D01*
X80305585Y-105299774D01*
X80245925Y-105263410D01*
X80215396Y-105200563D01*
X80223691Y-105131188D01*
X80268176Y-105077310D01*
X80305584Y-105060225D01*
X80519630Y-105002872D01*
X80722696Y-104908181D01*
X80906233Y-104779667D01*
X81064667Y-104621233D01*
X81193181Y-104437696D01*
X81287872Y-104234630D01*
X81345863Y-104018206D01*
X81365391Y-103795000D01*
X81345863Y-103571794D01*
X81287872Y-103355370D01*
X81193181Y-103152305D01*
X81064667Y-102968767D01*
X80906233Y-102810333D01*
X80906229Y-102810330D01*
X80906228Y-102810329D01*
X80722700Y-102681821D01*
X80722696Y-102681819D01*
X80618449Y-102633208D01*
X80519630Y-102587128D01*
X80519626Y-102587127D01*
X80519622Y-102587125D01*
X80357884Y-102543788D01*
X80305585Y-102529774D01*
X80245925Y-102493410D01*
X80215396Y-102430563D01*
X80217855Y-102409998D01*
X81634609Y-102409998D01*
X81634609Y-102410001D01*
X81654136Y-102633200D01*
X81654137Y-102633208D01*
X81712126Y-102849625D01*
X81712127Y-102849627D01*
X81712128Y-102849630D01*
X81767683Y-102968768D01*
X81806819Y-103052696D01*
X81806821Y-103052700D01*
X81935329Y-103236228D01*
X81935334Y-103236234D01*
X82093765Y-103394665D01*
X82093771Y-103394670D01*
X82277299Y-103523178D01*
X82277301Y-103523179D01*
X82277304Y-103523181D01*
X82480370Y-103617872D01*
X82696794Y-103675863D01*
X82856226Y-103689811D01*
X82919998Y-103695391D01*
X82920000Y-103695391D01*
X82920002Y-103695391D01*
X82975801Y-103690509D01*
X83143206Y-103675863D01*
X83359630Y-103617872D01*
X83562696Y-103523181D01*
X83746233Y-103394667D01*
X83904667Y-103236233D01*
X84033181Y-103052696D01*
X84127872Y-102849630D01*
X84185863Y-102633206D01*
X84205391Y-102410000D01*
X84196642Y-102309996D01*
X182714435Y-102309996D01*
X182714435Y-102310003D01*
X182734630Y-102489249D01*
X182734631Y-102489254D01*
X182794211Y-102659523D01*
X182808221Y-102681819D01*
X182890184Y-102812262D01*
X183017738Y-102939816D01*
X183170478Y-103035789D01*
X183218807Y-103052700D01*
X183340745Y-103095368D01*
X183340750Y-103095369D01*
X183519996Y-103115565D01*
X183520000Y-103115565D01*
X183520004Y-103115565D01*
X183699249Y-103095369D01*
X183699252Y-103095368D01*
X183699255Y-103095368D01*
X183869522Y-103035789D01*
X184022262Y-102939816D01*
X184149816Y-102812262D01*
X184245789Y-102659522D01*
X184305368Y-102489255D01*
X184305369Y-102489249D01*
X184325565Y-102310003D01*
X184325565Y-102309996D01*
X184305369Y-102130750D01*
X184305368Y-102130745D01*
X184255664Y-101988699D01*
X184245789Y-101960478D01*
X184149816Y-101807738D01*
X184022262Y-101680184D01*
X184002394Y-101667700D01*
X183869523Y-101584211D01*
X183699254Y-101524631D01*
X183699249Y-101524630D01*
X183520004Y-101504435D01*
X183519996Y-101504435D01*
X183340750Y-101524630D01*
X183340745Y-101524631D01*
X183170476Y-101584211D01*
X183017737Y-101680184D01*
X182890184Y-101807737D01*
X182794211Y-101960476D01*
X182734631Y-102130745D01*
X182734630Y-102130750D01*
X182714435Y-102309996D01*
X84196642Y-102309996D01*
X84185863Y-102186794D01*
X84127872Y-101970370D01*
X84033181Y-101767305D01*
X83911690Y-101593797D01*
X83904668Y-101583768D01*
X83828444Y-101507544D01*
X83746233Y-101425333D01*
X83746229Y-101425330D01*
X83746228Y-101425329D01*
X83562700Y-101296821D01*
X83562696Y-101296819D01*
X83458449Y-101248208D01*
X83359630Y-101202128D01*
X83359627Y-101202127D01*
X83359625Y-101202126D01*
X83143208Y-101144137D01*
X83143200Y-101144136D01*
X82920002Y-101124609D01*
X82919998Y-101124609D01*
X82696799Y-101144136D01*
X82696791Y-101144137D01*
X82480374Y-101202126D01*
X82480368Y-101202129D01*
X82277306Y-101296818D01*
X82277304Y-101296819D01*
X82093764Y-101425334D01*
X81935334Y-101583764D01*
X81806819Y-101767304D01*
X81806818Y-101767306D01*
X81712129Y-101970368D01*
X81712126Y-101970374D01*
X81654137Y-102186791D01*
X81654136Y-102186799D01*
X81634609Y-102409998D01*
X80217855Y-102409998D01*
X80223691Y-102361188D01*
X80268176Y-102307310D01*
X80305584Y-102290225D01*
X80519630Y-102232872D01*
X80722696Y-102138181D01*
X80906233Y-102009667D01*
X81064667Y-101851233D01*
X81193181Y-101667696D01*
X81287872Y-101464630D01*
X81345863Y-101248206D01*
X81365391Y-101025000D01*
X81345863Y-100801794D01*
X81287872Y-100585370D01*
X81193181Y-100382305D01*
X81064667Y-100198767D01*
X80906233Y-100040333D01*
X80906229Y-100040330D01*
X80906228Y-100040329D01*
X80722700Y-99911821D01*
X80722696Y-99911819D01*
X80722694Y-99911818D01*
X80519630Y-99817128D01*
X80519626Y-99817127D01*
X80519622Y-99817125D01*
X80357884Y-99773788D01*
X80305585Y-99759774D01*
X80245925Y-99723410D01*
X80215396Y-99660563D01*
X80223691Y-99591188D01*
X80268176Y-99537310D01*
X80305584Y-99520225D01*
X80519630Y-99462872D01*
X80722696Y-99368181D01*
X80906233Y-99239667D01*
X81043765Y-99102135D01*
X153479500Y-99102135D01*
X153479500Y-101197870D01*
X153479501Y-101197876D01*
X153485908Y-101257483D01*
X153536202Y-101392328D01*
X153536206Y-101392335D01*
X153622452Y-101507544D01*
X153622455Y-101507547D01*
X153737664Y-101593793D01*
X153737671Y-101593797D01*
X153872517Y-101644091D01*
X153872516Y-101644091D01*
X153879444Y-101644835D01*
X153932127Y-101650500D01*
X156027872Y-101650499D01*
X156087483Y-101644091D01*
X156222331Y-101593796D01*
X156337546Y-101507546D01*
X156423796Y-101392331D01*
X156474091Y-101257483D01*
X156480500Y-101197873D01*
X156480500Y-100850000D01*
X205209636Y-100850000D01*
X205229461Y-101101912D01*
X205288452Y-101347630D01*
X205385154Y-101581090D01*
X205517184Y-101796542D01*
X205517185Y-101796544D01*
X205517186Y-101796546D01*
X205517188Y-101796548D01*
X205681301Y-101988699D01*
X205873452Y-102152812D01*
X205873454Y-102152813D01*
X205873455Y-102152814D01*
X205873457Y-102152815D01*
X206088909Y-102284845D01*
X206322369Y-102381547D01*
X206355234Y-102389437D01*
X206568084Y-102440538D01*
X206820000Y-102460364D01*
X207071916Y-102440538D01*
X207317630Y-102381547D01*
X207551090Y-102284845D01*
X207766548Y-102152812D01*
X207958699Y-101988699D01*
X208122812Y-101796548D01*
X208254845Y-101581090D01*
X208351547Y-101347630D01*
X208410538Y-101101916D01*
X208430364Y-100850000D01*
X208410538Y-100598084D01*
X208351547Y-100352370D01*
X208287924Y-100198768D01*
X208254845Y-100118909D01*
X208135301Y-99923832D01*
X208122812Y-99903452D01*
X207958699Y-99711301D01*
X207766548Y-99547188D01*
X207766546Y-99547186D01*
X207766544Y-99547185D01*
X207766542Y-99547184D01*
X207551090Y-99415154D01*
X207317630Y-99318452D01*
X207071912Y-99259461D01*
X207071913Y-99259461D01*
X206820000Y-99239636D01*
X206568087Y-99259461D01*
X206322369Y-99318452D01*
X206088909Y-99415154D01*
X205873457Y-99547184D01*
X205873455Y-99547185D01*
X205681301Y-99711301D01*
X205517185Y-99903455D01*
X205517184Y-99903457D01*
X205385154Y-100118909D01*
X205288452Y-100352369D01*
X205229461Y-100598087D01*
X205209636Y-100850000D01*
X156480500Y-100850000D01*
X156480499Y-99102128D01*
X156474091Y-99042517D01*
X156468985Y-99028828D01*
X156423797Y-98907671D01*
X156423793Y-98907664D01*
X156337547Y-98792455D01*
X156337544Y-98792452D01*
X156222335Y-98706206D01*
X156222328Y-98706202D01*
X156087482Y-98655908D01*
X156087483Y-98655908D01*
X156027883Y-98649501D01*
X156027881Y-98649500D01*
X156027873Y-98649500D01*
X156027864Y-98649500D01*
X153932129Y-98649500D01*
X153932123Y-98649501D01*
X153872516Y-98655908D01*
X153737671Y-98706202D01*
X153737664Y-98706206D01*
X153622455Y-98792452D01*
X153622452Y-98792455D01*
X153536206Y-98907664D01*
X153536202Y-98907671D01*
X153485908Y-99042517D01*
X153481746Y-99081233D01*
X153479501Y-99102123D01*
X153479500Y-99102135D01*
X81043765Y-99102135D01*
X81064667Y-99081233D01*
X81193181Y-98897696D01*
X81287872Y-98694630D01*
X81345863Y-98478206D01*
X81365391Y-98255000D01*
X81345863Y-98031794D01*
X81287872Y-97815370D01*
X81210756Y-97649994D01*
X173774357Y-97649994D01*
X173774357Y-97650005D01*
X173794890Y-97897812D01*
X173794892Y-97897824D01*
X173855936Y-98138881D01*
X173955826Y-98366606D01*
X174091833Y-98574782D01*
X174091836Y-98574785D01*
X174260256Y-98757738D01*
X174456491Y-98910474D01*
X174675190Y-99028828D01*
X174910386Y-99109571D01*
X175155665Y-99150500D01*
X175404335Y-99150500D01*
X175649614Y-99109571D01*
X175884810Y-99028828D01*
X176103509Y-98910474D01*
X176299744Y-98757738D01*
X176468164Y-98574785D01*
X176604173Y-98366607D01*
X176629003Y-98310000D01*
X207851550Y-98310000D01*
X207870122Y-98545977D01*
X207925378Y-98776136D01*
X208015960Y-98994822D01*
X208139634Y-99196640D01*
X208139635Y-99196641D01*
X208139636Y-99196643D01*
X208139638Y-99196645D01*
X208293365Y-99376635D01*
X208473355Y-99530362D01*
X208473357Y-99530363D01*
X208473358Y-99530364D01*
X208473359Y-99530365D01*
X208675177Y-99654039D01*
X208759130Y-99688813D01*
X208893863Y-99744621D01*
X209124026Y-99799878D01*
X209360000Y-99818450D01*
X209595974Y-99799878D01*
X209826137Y-99744621D01*
X210044822Y-99654039D01*
X210246645Y-99530362D01*
X210426635Y-99376635D01*
X210580362Y-99196645D01*
X210704039Y-98994822D01*
X210794621Y-98776137D01*
X210849878Y-98545974D01*
X210868450Y-98310000D01*
X210849878Y-98074026D01*
X210794621Y-97843863D01*
X210704039Y-97625178D01*
X210704039Y-97625177D01*
X210580365Y-97423359D01*
X210580364Y-97423358D01*
X210580363Y-97423357D01*
X210580362Y-97423355D01*
X210426635Y-97243365D01*
X210246645Y-97089638D01*
X210246643Y-97089636D01*
X210246641Y-97089635D01*
X210246640Y-97089634D01*
X210044822Y-96965960D01*
X209826136Y-96875378D01*
X209595977Y-96820122D01*
X209360000Y-96801550D01*
X209124022Y-96820122D01*
X208893863Y-96875378D01*
X208675177Y-96965960D01*
X208473359Y-97089634D01*
X208473358Y-97089635D01*
X208293365Y-97243365D01*
X208139635Y-97423358D01*
X208139634Y-97423359D01*
X208015960Y-97625177D01*
X207925378Y-97843863D01*
X207870122Y-98074022D01*
X207851550Y-98310000D01*
X176629003Y-98310000D01*
X176704063Y-98138881D01*
X176765108Y-97897821D01*
X176771940Y-97815370D01*
X176785643Y-97650005D01*
X176785643Y-97649994D01*
X176765109Y-97402187D01*
X176765107Y-97402175D01*
X176704063Y-97161118D01*
X176604173Y-96933393D01*
X176468166Y-96725217D01*
X176419239Y-96672068D01*
X176299744Y-96542262D01*
X176103509Y-96389526D01*
X176103507Y-96389525D01*
X176103506Y-96389524D01*
X175884811Y-96271172D01*
X175884802Y-96271169D01*
X175649616Y-96190429D01*
X175404335Y-96149500D01*
X175155665Y-96149500D01*
X174910383Y-96190429D01*
X174675197Y-96271169D01*
X174675188Y-96271172D01*
X174456493Y-96389524D01*
X174260257Y-96542261D01*
X174091833Y-96725217D01*
X173955826Y-96933393D01*
X173855936Y-97161118D01*
X173794892Y-97402175D01*
X173794890Y-97402187D01*
X173774357Y-97649994D01*
X81210756Y-97649994D01*
X81193181Y-97612305D01*
X81064667Y-97428767D01*
X80906233Y-97270333D01*
X80906229Y-97270330D01*
X80906228Y-97270329D01*
X80722700Y-97141821D01*
X80722696Y-97141819D01*
X80610793Y-97089638D01*
X80519630Y-97047128D01*
X80519627Y-97047127D01*
X80519625Y-97047126D01*
X80303208Y-96989137D01*
X80303200Y-96989136D01*
X80080002Y-96969609D01*
X80079998Y-96969609D01*
X79856799Y-96989136D01*
X79856791Y-96989137D01*
X79640374Y-97047126D01*
X79640368Y-97047129D01*
X79437306Y-97141818D01*
X79437304Y-97141819D01*
X79253764Y-97270334D01*
X79095334Y-97428764D01*
X78966819Y-97612304D01*
X78966818Y-97612306D01*
X78872129Y-97815368D01*
X78872126Y-97815374D01*
X78814137Y-98031791D01*
X78814136Y-98031799D01*
X78794609Y-98254998D01*
X72500500Y-98254998D01*
X72500500Y-95049994D01*
X153474357Y-95049994D01*
X153474357Y-95050005D01*
X153494890Y-95297812D01*
X153494892Y-95297824D01*
X153555936Y-95538881D01*
X153655826Y-95766606D01*
X153791833Y-95974782D01*
X153791836Y-95974785D01*
X153960256Y-96157738D01*
X154156491Y-96310474D01*
X154375190Y-96428828D01*
X154610386Y-96509571D01*
X154855665Y-96550500D01*
X155104335Y-96550500D01*
X155349614Y-96509571D01*
X155584810Y-96428828D01*
X155803509Y-96310474D01*
X155999744Y-96157738D01*
X156168164Y-95974785D01*
X156301956Y-95770000D01*
X205209636Y-95770000D01*
X205229461Y-96021912D01*
X205288452Y-96267630D01*
X205385154Y-96501090D01*
X205517184Y-96716542D01*
X205517185Y-96716544D01*
X205517186Y-96716546D01*
X205517188Y-96716548D01*
X205681301Y-96908699D01*
X205873452Y-97072812D01*
X205873454Y-97072813D01*
X205873455Y-97072814D01*
X205873457Y-97072815D01*
X206088909Y-97204845D01*
X206322369Y-97301547D01*
X206383798Y-97316294D01*
X206568084Y-97360538D01*
X206820000Y-97380364D01*
X207071916Y-97360538D01*
X207317630Y-97301547D01*
X207551090Y-97204845D01*
X207766548Y-97072812D01*
X207958699Y-96908699D01*
X208122812Y-96716548D01*
X208254845Y-96501090D01*
X208351547Y-96267630D01*
X208410538Y-96021916D01*
X208430364Y-95770000D01*
X208410538Y-95518084D01*
X208351547Y-95272370D01*
X208259437Y-95049994D01*
X208254845Y-95038909D01*
X208122815Y-94823457D01*
X208122814Y-94823455D01*
X208122813Y-94823454D01*
X208122812Y-94823452D01*
X207958699Y-94631301D01*
X207766548Y-94467188D01*
X207766546Y-94467186D01*
X207766544Y-94467185D01*
X207766542Y-94467184D01*
X207551090Y-94335154D01*
X207317630Y-94238452D01*
X207071912Y-94179461D01*
X207071913Y-94179461D01*
X206820000Y-94159636D01*
X206568087Y-94179461D01*
X206322369Y-94238452D01*
X206088909Y-94335154D01*
X205873457Y-94467184D01*
X205873455Y-94467185D01*
X205681301Y-94631301D01*
X205517185Y-94823455D01*
X205517184Y-94823457D01*
X205385154Y-95038909D01*
X205288452Y-95272369D01*
X205229461Y-95518087D01*
X205209636Y-95770000D01*
X156301956Y-95770000D01*
X156304173Y-95766607D01*
X156404063Y-95538881D01*
X156465108Y-95297821D01*
X156485643Y-95050000D01*
X156484724Y-95038910D01*
X156465109Y-94802187D01*
X156465107Y-94802175D01*
X156404063Y-94561118D01*
X156304173Y-94333393D01*
X156168166Y-94125217D01*
X156146557Y-94101744D01*
X155999744Y-93942262D01*
X155803509Y-93789526D01*
X155803507Y-93789525D01*
X155803506Y-93789524D01*
X155584811Y-93671172D01*
X155584802Y-93671169D01*
X155349616Y-93590429D01*
X155104335Y-93549500D01*
X154855665Y-93549500D01*
X154610383Y-93590429D01*
X154375197Y-93671169D01*
X154375188Y-93671172D01*
X154156493Y-93789524D01*
X153960257Y-93942261D01*
X153791833Y-94125217D01*
X153655826Y-94333393D01*
X153555936Y-94561118D01*
X153494892Y-94802175D01*
X153494890Y-94802187D01*
X153474357Y-95049994D01*
X72500500Y-95049994D01*
X72500500Y-93139996D01*
X182734435Y-93139996D01*
X182734435Y-93140003D01*
X182754630Y-93319249D01*
X182754631Y-93319254D01*
X182814211Y-93489523D01*
X182877615Y-93590429D01*
X182910184Y-93642262D01*
X183037738Y-93769816D01*
X183190478Y-93865789D01*
X183360745Y-93925368D01*
X183360750Y-93925369D01*
X183539996Y-93945565D01*
X183540000Y-93945565D01*
X183540004Y-93945565D01*
X183719249Y-93925369D01*
X183719252Y-93925368D01*
X183719255Y-93925368D01*
X183889522Y-93865789D01*
X184042262Y-93769816D01*
X184169816Y-93642262D01*
X184265789Y-93489522D01*
X184325368Y-93319255D01*
X184345565Y-93140000D01*
X184325368Y-92960745D01*
X184265789Y-92790478D01*
X184169816Y-92637738D01*
X184042262Y-92510184D01*
X184032761Y-92504214D01*
X183889523Y-92414211D01*
X183719254Y-92354631D01*
X183719249Y-92354630D01*
X183540004Y-92334435D01*
X183539996Y-92334435D01*
X183360750Y-92354630D01*
X183360745Y-92354631D01*
X183190476Y-92414211D01*
X183037737Y-92510184D01*
X182910184Y-92637737D01*
X182814211Y-92790476D01*
X182754631Y-92960745D01*
X182754630Y-92960750D01*
X182734435Y-93139996D01*
X72500500Y-93139996D01*
X72500500Y-89910000D01*
X78886732Y-89910000D01*
X78905785Y-90224989D01*
X78905785Y-90224994D01*
X78905786Y-90224995D01*
X78962669Y-90535396D01*
X78962670Y-90535400D01*
X78962671Y-90535404D01*
X79056545Y-90836659D01*
X79056549Y-90836670D01*
X79056550Y-90836673D01*
X79056552Y-90836678D01*
X79186066Y-91124446D01*
X79349326Y-91394510D01*
X79543943Y-91642920D01*
X79767079Y-91866056D01*
X80015489Y-92060673D01*
X80015492Y-92060675D01*
X80015495Y-92060677D01*
X80285554Y-92223934D01*
X80573322Y-92353448D01*
X80573332Y-92353451D01*
X80573340Y-92353454D01*
X80768318Y-92414211D01*
X80874604Y-92447331D01*
X81185005Y-92504214D01*
X81500000Y-92523268D01*
X81814995Y-92504214D01*
X82125396Y-92447331D01*
X82385885Y-92366159D01*
X82426659Y-92353454D01*
X82426660Y-92353453D01*
X82426678Y-92353448D01*
X82714446Y-92223934D01*
X82984505Y-92060677D01*
X83232917Y-91866059D01*
X83456059Y-91642917D01*
X83650677Y-91394505D01*
X83813934Y-91124446D01*
X83943448Y-90836678D01*
X84037331Y-90535396D01*
X84094214Y-90224995D01*
X84113268Y-89910000D01*
X84094214Y-89595005D01*
X84037331Y-89284604D01*
X83943448Y-88983322D01*
X83813934Y-88695554D01*
X83650677Y-88425495D01*
X83650675Y-88425492D01*
X83650673Y-88425489D01*
X83456056Y-88177079D01*
X83232920Y-87953943D01*
X82984510Y-87759326D01*
X82714446Y-87596066D01*
X82426678Y-87466552D01*
X82426673Y-87466550D01*
X82426670Y-87466549D01*
X82426659Y-87466545D01*
X82373544Y-87449994D01*
X153474357Y-87449994D01*
X153474357Y-87450005D01*
X153494890Y-87697812D01*
X153494892Y-87697824D01*
X153555936Y-87938881D01*
X153655826Y-88166606D01*
X153791833Y-88374782D01*
X153791836Y-88374785D01*
X153960256Y-88557738D01*
X154156491Y-88710474D01*
X154375190Y-88828828D01*
X154610386Y-88909571D01*
X154855665Y-88950500D01*
X155104335Y-88950500D01*
X155349614Y-88909571D01*
X155584810Y-88828828D01*
X155803509Y-88710474D01*
X155999744Y-88557738D01*
X156168164Y-88374785D01*
X156304173Y-88166607D01*
X156404063Y-87938881D01*
X156465108Y-87697821D01*
X156473540Y-87596066D01*
X156485643Y-87450005D01*
X156485643Y-87449994D01*
X173774357Y-87449994D01*
X173774357Y-87450005D01*
X173794890Y-87697812D01*
X173794892Y-87697824D01*
X173855936Y-87938881D01*
X173955826Y-88166606D01*
X174091833Y-88374782D01*
X174091836Y-88374785D01*
X174260256Y-88557738D01*
X174456491Y-88710474D01*
X174675190Y-88828828D01*
X174910386Y-88909571D01*
X175155665Y-88950500D01*
X175404335Y-88950500D01*
X175649614Y-88909571D01*
X175884810Y-88828828D01*
X176103509Y-88710474D01*
X176299744Y-88557738D01*
X176468164Y-88374785D01*
X176604173Y-88166607D01*
X176704063Y-87938881D01*
X176765108Y-87697821D01*
X176773540Y-87596066D01*
X176785643Y-87450005D01*
X176785643Y-87449994D01*
X176765109Y-87202187D01*
X176765107Y-87202175D01*
X176704063Y-86961118D01*
X176604173Y-86733393D01*
X176468166Y-86525217D01*
X176446557Y-86501744D01*
X176299744Y-86342262D01*
X176103509Y-86189526D01*
X176103507Y-86189525D01*
X176103506Y-86189524D01*
X175884811Y-86071172D01*
X175884802Y-86071169D01*
X175649616Y-85990429D01*
X175404335Y-85949500D01*
X175155665Y-85949500D01*
X174910383Y-85990429D01*
X174675197Y-86071169D01*
X174675188Y-86071172D01*
X174456493Y-86189524D01*
X174260257Y-86342261D01*
X174091833Y-86525217D01*
X173955826Y-86733393D01*
X173855936Y-86961118D01*
X173794892Y-87202175D01*
X173794890Y-87202187D01*
X173774357Y-87449994D01*
X156485643Y-87449994D01*
X156465109Y-87202187D01*
X156465107Y-87202175D01*
X156404063Y-86961118D01*
X156304173Y-86733393D01*
X156168166Y-86525217D01*
X156146557Y-86501744D01*
X155999744Y-86342262D01*
X155803509Y-86189526D01*
X155803507Y-86189525D01*
X155803506Y-86189524D01*
X155584811Y-86071172D01*
X155584802Y-86071169D01*
X155349616Y-85990429D01*
X155104335Y-85949500D01*
X154855665Y-85949500D01*
X154610383Y-85990429D01*
X154375197Y-86071169D01*
X154375188Y-86071172D01*
X154156493Y-86189524D01*
X153960257Y-86342261D01*
X153791833Y-86525217D01*
X153655826Y-86733393D01*
X153555936Y-86961118D01*
X153494892Y-87202175D01*
X153494890Y-87202187D01*
X153474357Y-87449994D01*
X82373544Y-87449994D01*
X82125404Y-87372671D01*
X82125400Y-87372670D01*
X82125396Y-87372669D01*
X81814995Y-87315786D01*
X81814994Y-87315785D01*
X81814989Y-87315785D01*
X81500000Y-87296732D01*
X81185010Y-87315785D01*
X81185005Y-87315786D01*
X80874604Y-87372669D01*
X80874601Y-87372669D01*
X80874595Y-87372671D01*
X80573340Y-87466545D01*
X80573329Y-87466549D01*
X80285553Y-87596066D01*
X80015489Y-87759326D01*
X79767079Y-87953943D01*
X79543943Y-88177079D01*
X79349326Y-88425489D01*
X79186066Y-88695553D01*
X79056549Y-88983329D01*
X79056545Y-88983340D01*
X78962671Y-89284595D01*
X78905785Y-89595010D01*
X78886732Y-89910000D01*
X72500500Y-89910000D01*
X72500500Y-85124000D01*
X72520185Y-85056961D01*
X72572989Y-85011206D01*
X72624500Y-85000000D01*
X129000000Y-85000000D01*
X129000000Y-83869996D01*
X149184435Y-83869996D01*
X149184435Y-83870003D01*
X149204630Y-84049249D01*
X149204631Y-84049254D01*
X149264211Y-84219523D01*
X149360184Y-84372262D01*
X149487738Y-84499816D01*
X149640478Y-84595789D01*
X149810745Y-84655368D01*
X149810750Y-84655369D01*
X149989996Y-84675565D01*
X149990000Y-84675565D01*
X149990004Y-84675565D01*
X150169249Y-84655369D01*
X150169252Y-84655368D01*
X150169255Y-84655368D01*
X150339522Y-84595789D01*
X150492262Y-84499816D01*
X150619816Y-84372262D01*
X150715789Y-84219522D01*
X150775368Y-84049255D01*
X150795565Y-83870000D01*
X150791710Y-83835789D01*
X150775369Y-83690750D01*
X150775368Y-83690745D01*
X150715789Y-83520478D01*
X150619816Y-83367738D01*
X150492262Y-83240184D01*
X150469353Y-83225789D01*
X150339523Y-83144211D01*
X150241743Y-83109996D01*
X167914435Y-83109996D01*
X167914435Y-83110003D01*
X167934630Y-83289249D01*
X167934631Y-83289254D01*
X167994211Y-83459523D01*
X168085976Y-83605565D01*
X168090184Y-83612262D01*
X168217738Y-83739816D01*
X168370478Y-83835789D01*
X168468256Y-83870003D01*
X168540745Y-83895368D01*
X168540750Y-83895369D01*
X168719996Y-83915565D01*
X168720000Y-83915565D01*
X168720004Y-83915565D01*
X168899249Y-83895369D01*
X168899252Y-83895368D01*
X168899255Y-83895368D01*
X169069522Y-83835789D01*
X169222262Y-83739816D01*
X169349816Y-83612262D01*
X169445789Y-83459522D01*
X169505368Y-83289255D01*
X169509791Y-83250000D01*
X169509791Y-83249996D01*
X174549435Y-83249996D01*
X174549435Y-83250003D01*
X174569630Y-83429249D01*
X174569631Y-83429254D01*
X174629211Y-83599523D01*
X174637216Y-83612262D01*
X174725184Y-83752262D01*
X174852738Y-83879816D01*
X175005478Y-83975789D01*
X175175745Y-84035368D01*
X175175750Y-84035369D01*
X175354996Y-84055565D01*
X175355000Y-84055565D01*
X175355004Y-84055565D01*
X175534249Y-84035369D01*
X175534252Y-84035368D01*
X175534255Y-84035368D01*
X175704522Y-83975789D01*
X175857262Y-83879816D01*
X175984816Y-83752262D01*
X176080789Y-83599522D01*
X176140368Y-83429255D01*
X176140369Y-83429249D01*
X176160565Y-83250003D01*
X176160565Y-83249996D01*
X176140369Y-83070750D01*
X176140368Y-83070745D01*
X176108354Y-82979255D01*
X176080789Y-82900478D01*
X175984816Y-82747738D01*
X175857262Y-82620184D01*
X175837453Y-82607737D01*
X175704523Y-82524211D01*
X175534254Y-82464631D01*
X175534249Y-82464630D01*
X175355004Y-82444435D01*
X175354996Y-82444435D01*
X175175750Y-82464630D01*
X175175745Y-82464631D01*
X175005476Y-82524211D01*
X174852737Y-82620184D01*
X174725184Y-82747737D01*
X174629211Y-82900476D01*
X174569631Y-83070745D01*
X174569630Y-83070750D01*
X174549435Y-83249996D01*
X169509791Y-83249996D01*
X169525565Y-83110003D01*
X169525565Y-83109996D01*
X169505369Y-82930750D01*
X169505368Y-82930745D01*
X169445788Y-82760476D01*
X169349815Y-82607737D01*
X169222262Y-82480184D01*
X169069523Y-82384211D01*
X168899254Y-82324631D01*
X168899249Y-82324630D01*
X168720004Y-82304435D01*
X168719996Y-82304435D01*
X168540750Y-82324630D01*
X168540745Y-82324631D01*
X168370476Y-82384211D01*
X168217737Y-82480184D01*
X168090184Y-82607737D01*
X167994211Y-82760476D01*
X167934631Y-82930745D01*
X167934630Y-82930750D01*
X167914435Y-83109996D01*
X150241743Y-83109996D01*
X150169254Y-83084631D01*
X150169249Y-83084630D01*
X149990004Y-83064435D01*
X149989996Y-83064435D01*
X149810750Y-83084630D01*
X149810745Y-83084631D01*
X149640476Y-83144211D01*
X149487737Y-83240184D01*
X149360184Y-83367737D01*
X149264211Y-83520476D01*
X149204631Y-83690745D01*
X149204630Y-83690750D01*
X149184435Y-83869996D01*
X129000000Y-83869996D01*
X129000000Y-81489996D01*
X150314435Y-81489996D01*
X150314435Y-81490003D01*
X150334630Y-81669249D01*
X150334631Y-81669254D01*
X150394211Y-81839523D01*
X150413477Y-81870184D01*
X150490184Y-81992262D01*
X150617738Y-82119816D01*
X150770478Y-82215789D01*
X150940745Y-82275368D01*
X150940750Y-82275369D01*
X151119996Y-82295565D01*
X151120000Y-82295565D01*
X151120004Y-82295565D01*
X151299249Y-82275369D01*
X151299252Y-82275368D01*
X151299255Y-82275368D01*
X151469522Y-82215789D01*
X151622262Y-82119816D01*
X151749816Y-81992262D01*
X151845789Y-81839522D01*
X151905368Y-81669255D01*
X151916488Y-81570563D01*
X151925565Y-81490003D01*
X151925565Y-81489996D01*
X151905369Y-81310750D01*
X151905368Y-81310745D01*
X151845788Y-81140476D01*
X151749815Y-80987737D01*
X151622262Y-80860184D01*
X151469523Y-80764211D01*
X151299254Y-80704631D01*
X151299249Y-80704630D01*
X151120004Y-80684435D01*
X151119996Y-80684435D01*
X150940750Y-80704630D01*
X150940745Y-80704631D01*
X150770476Y-80764211D01*
X150617737Y-80860184D01*
X150490184Y-80987737D01*
X150394211Y-81140476D01*
X150334631Y-81310745D01*
X150334630Y-81310750D01*
X150314435Y-81489996D01*
X129000000Y-81489996D01*
X129000000Y-80239998D01*
X164859437Y-80239998D01*
X164859437Y-80240001D01*
X164879650Y-80471044D01*
X164879651Y-80471051D01*
X164939678Y-80695074D01*
X164939679Y-80695076D01*
X164939680Y-80695079D01*
X165037699Y-80905282D01*
X165170730Y-81095269D01*
X165334731Y-81259270D01*
X165524718Y-81392301D01*
X165734921Y-81490320D01*
X165958950Y-81550349D01*
X166123985Y-81564787D01*
X166189998Y-81570563D01*
X166190000Y-81570563D01*
X166190002Y-81570563D01*
X166247762Y-81565509D01*
X166421050Y-81550349D01*
X166645079Y-81490320D01*
X166855282Y-81392301D01*
X167045269Y-81259270D01*
X167209270Y-81095269D01*
X167342301Y-80905282D01*
X167347618Y-80893878D01*
X167393790Y-80841440D01*
X167460984Y-80822288D01*
X167527865Y-80842504D01*
X167572381Y-80893878D01*
X167577699Y-80905282D01*
X167710730Y-81095269D01*
X167874731Y-81259270D01*
X168064718Y-81392301D01*
X168274921Y-81490320D01*
X168498950Y-81550349D01*
X168663985Y-81564787D01*
X168729998Y-81570563D01*
X168730000Y-81570563D01*
X168730002Y-81570563D01*
X168787762Y-81565509D01*
X168961050Y-81550349D01*
X169185079Y-81490320D01*
X169395282Y-81392301D01*
X169585269Y-81259270D01*
X169749270Y-81095269D01*
X169882301Y-80905282D01*
X169887618Y-80893878D01*
X169933790Y-80841440D01*
X170000984Y-80822288D01*
X170067865Y-80842504D01*
X170112381Y-80893878D01*
X170117699Y-80905282D01*
X170250730Y-81095269D01*
X170414731Y-81259270D01*
X170604718Y-81392301D01*
X170814921Y-81490320D01*
X171038950Y-81550349D01*
X171203985Y-81564787D01*
X171269998Y-81570563D01*
X171270000Y-81570563D01*
X171270002Y-81570563D01*
X171327762Y-81565509D01*
X171501050Y-81550349D01*
X171725079Y-81490320D01*
X171935282Y-81392301D01*
X172125269Y-81259270D01*
X172289270Y-81095269D01*
X172422301Y-80905282D01*
X172520320Y-80695079D01*
X172580349Y-80471050D01*
X172600563Y-80240000D01*
X172597063Y-80200000D01*
X172594787Y-80173985D01*
X172580349Y-80008950D01*
X172520320Y-79784921D01*
X172422301Y-79574719D01*
X172422299Y-79574716D01*
X172422298Y-79574714D01*
X172289273Y-79384735D01*
X172289268Y-79384729D01*
X172125269Y-79220730D01*
X172063870Y-79177738D01*
X171935282Y-79087699D01*
X171725079Y-78989680D01*
X171725076Y-78989679D01*
X171725074Y-78989678D01*
X171501051Y-78929651D01*
X171501044Y-78929650D01*
X171270002Y-78909437D01*
X171269998Y-78909437D01*
X171038955Y-78929650D01*
X171038948Y-78929651D01*
X170814917Y-78989681D01*
X170604718Y-79087699D01*
X170604714Y-79087701D01*
X170414735Y-79220726D01*
X170414729Y-79220731D01*
X170250731Y-79384729D01*
X170250726Y-79384735D01*
X170117701Y-79574714D01*
X170117698Y-79574720D01*
X170112381Y-79586123D01*
X170066207Y-79638562D01*
X169999013Y-79657712D01*
X169932133Y-79637495D01*
X169887619Y-79586123D01*
X169882301Y-79574720D01*
X169882298Y-79574714D01*
X169749273Y-79384735D01*
X169749268Y-79384729D01*
X169585269Y-79220730D01*
X169523870Y-79177738D01*
X169395282Y-79087699D01*
X169185079Y-78989680D01*
X169185076Y-78989679D01*
X169185074Y-78989678D01*
X168961051Y-78929651D01*
X168961044Y-78929650D01*
X168730002Y-78909437D01*
X168729998Y-78909437D01*
X168498955Y-78929650D01*
X168498948Y-78929651D01*
X168274917Y-78989681D01*
X168064718Y-79087699D01*
X168064714Y-79087701D01*
X167874735Y-79220726D01*
X167874729Y-79220731D01*
X167710731Y-79384729D01*
X167710726Y-79384735D01*
X167577701Y-79574714D01*
X167577698Y-79574720D01*
X167572381Y-79586123D01*
X167526207Y-79638562D01*
X167459013Y-79657712D01*
X167392133Y-79637495D01*
X167347619Y-79586123D01*
X167342301Y-79574720D01*
X167342298Y-79574714D01*
X167209273Y-79384735D01*
X167209268Y-79384729D01*
X167045269Y-79220730D01*
X166983870Y-79177738D01*
X166855282Y-79087699D01*
X166645079Y-78989680D01*
X166645076Y-78989679D01*
X166645074Y-78989678D01*
X166421051Y-78929651D01*
X166421044Y-78929650D01*
X166190002Y-78909437D01*
X166189998Y-78909437D01*
X165958955Y-78929650D01*
X165958948Y-78929651D01*
X165734917Y-78989681D01*
X165524718Y-79087699D01*
X165524714Y-79087701D01*
X165334735Y-79220726D01*
X165334729Y-79220731D01*
X165170731Y-79384729D01*
X165170726Y-79384735D01*
X165037701Y-79574714D01*
X165037699Y-79574718D01*
X164939681Y-79784917D01*
X164879651Y-80008948D01*
X164879650Y-80008955D01*
X164859437Y-80239998D01*
X129000000Y-80239998D01*
X129000000Y-77299996D01*
X156484435Y-77299996D01*
X156484435Y-77300003D01*
X156504630Y-77479249D01*
X156504631Y-77479254D01*
X156564211Y-77649523D01*
X156605005Y-77714446D01*
X156660184Y-77802262D01*
X156787738Y-77929816D01*
X156940478Y-78025789D01*
X157110745Y-78085368D01*
X157110750Y-78085369D01*
X157289996Y-78105565D01*
X157290000Y-78105565D01*
X157290004Y-78105565D01*
X157469249Y-78085369D01*
X157469252Y-78085368D01*
X157469255Y-78085368D01*
X157639522Y-78025789D01*
X157792262Y-77929816D01*
X157919816Y-77802262D01*
X158015789Y-77649522D01*
X158075368Y-77479255D01*
X158095565Y-77300000D01*
X158078718Y-77150478D01*
X158075369Y-77120750D01*
X158075368Y-77120745D01*
X158015788Y-76950476D01*
X157919815Y-76797737D01*
X157792262Y-76670184D01*
X157639523Y-76574211D01*
X157469254Y-76514631D01*
X157469249Y-76514630D01*
X157290004Y-76494435D01*
X157289996Y-76494435D01*
X157110750Y-76514630D01*
X157110745Y-76514631D01*
X156940476Y-76574211D01*
X156787737Y-76670184D01*
X156660184Y-76797737D01*
X156564211Y-76950476D01*
X156504631Y-77120745D01*
X156504630Y-77120750D01*
X156484435Y-77299996D01*
X129000000Y-77299996D01*
X129000000Y-74124000D01*
X129019685Y-74056961D01*
X129072489Y-74011206D01*
X129124000Y-74000000D01*
X180876000Y-74000000D01*
X180943039Y-74019685D01*
G37*
%TD.AperFunction*%
%TD*%
M02*
