%TF.GenerationSoftware,KiCad,Pcbnew,8.0.6*%
%TF.CreationDate,2025-05-19T10:35:06-04:00*%
%TF.ProjectId,CAEN_NEVIS_DAQ_12V,4341454e-5f4e-4455-9649-535f4441515f,rev?*%
%TF.SameCoordinates,Original*%
%TF.FileFunction,Copper,L4,Inr*%
%TF.FilePolarity,Positive*%
%FSLAX46Y46*%
G04 Gerber Fmt 4.6, Leading zero omitted, Abs format (unit mm)*
G04 Created by KiCad (PCBNEW 8.0.6) date 2025-05-19 10:35:06*
%MOMM*%
%LPD*%
G01*
G04 APERTURE LIST*
%TA.AperFunction,ComponentPad*%
%ADD10C,1.560000*%
%TD*%
%TA.AperFunction,ComponentPad*%
%ADD11C,4.216000*%
%TD*%
%TA.AperFunction,ComponentPad*%
%ADD12C,6.400000*%
%TD*%
%TA.AperFunction,ComponentPad*%
%ADD13C,1.650000*%
%TD*%
%TA.AperFunction,ComponentPad*%
%ADD14C,2.006600*%
%TD*%
%TA.AperFunction,ComponentPad*%
%ADD15C,2.209800*%
%TD*%
%TA.AperFunction,ComponentPad*%
%ADD16R,2.000000X2.000000*%
%TD*%
%TA.AperFunction,ComponentPad*%
%ADD17C,2.000000*%
%TD*%
%TA.AperFunction,ComponentPad*%
%ADD18C,1.635000*%
%TD*%
%TA.AperFunction,ComponentPad*%
%ADD19C,2.100000*%
%TD*%
%TA.AperFunction,ViaPad*%
%ADD20C,0.600000*%
%TD*%
%TA.AperFunction,Conductor*%
%ADD21C,0.200000*%
%TD*%
G04 APERTURE END LIST*
D10*
%TO.N,/V_SEC_RTN*%
%TO.C,J1*%
X82920000Y-96870000D03*
X82920000Y-99640000D03*
%TO.N,unconnected-(J1-Pad3)*%
X82920000Y-102410000D03*
%TO.N,/V_SEC_RTN*%
X82920000Y-105180000D03*
X82920000Y-107950000D03*
%TO.N,/V_SEC_IN*%
X80080000Y-98255000D03*
X80080000Y-101025000D03*
X80080000Y-103795000D03*
X80080000Y-106565000D03*
D11*
%TO.N,GNDPWR*%
X81500000Y-89910000D03*
X81500000Y-114910000D03*
%TD*%
D12*
%TO.N,GNDPWR*%
%TO.C,H4*%
X207000000Y-123000000D03*
%TD*%
D13*
%TO.N,Net-(J10-Pad1)*%
%TO.C,J10*%
X166190000Y-80240000D03*
%TO.N,Net-(U1-REMOTE)*%
X168730000Y-80240000D03*
%TO.N,Net-(J10-Pad3)*%
X171270000Y-80240000D03*
%TD*%
D14*
%TO.N,/P12V_OUT_*%
%TO.C,J4*%
X209360000Y-98310000D03*
D15*
%TO.N,/P12V_RTN*%
X211900000Y-95770000D03*
X206820000Y-95770000D03*
X206820000Y-100850000D03*
X211900000Y-100850000D03*
%TD*%
D12*
%TO.N,GNDPWR*%
%TO.C,H3*%
X79000000Y-123000000D03*
%TD*%
D16*
%TO.N,/Main_DCDC_Converter/V_SEC*%
%TO.C,U1*%
X154980000Y-100150000D03*
D17*
%TO.N,Net-(U1--VIN)*%
X154980000Y-95050000D03*
%TO.N,/P12V_OUT*%
X175280000Y-107850000D03*
%TO.N,/Main_DCDC_Converter/TRIM*%
X175280000Y-97650000D03*
%TO.N,/P12V_RTN*%
X175280000Y-87450000D03*
%TO.N,Net-(U1-REMOTE)*%
X154980000Y-87450000D03*
%TD*%
D12*
%TO.N,GNDPWR*%
%TO.C,H1*%
X79000000Y-44000000D03*
%TD*%
%TO.N,GNDPWR*%
%TO.C,H2*%
X207000000Y-44000000D03*
%TD*%
D18*
%TO.N,/TEMP_MON*%
%TO.C,J2*%
X82920000Y-69540000D03*
%TO.N,/V_TELEM_RTN*%
X82920000Y-66770000D03*
%TO.N,/P12V_I_MON*%
X82920000Y-64000000D03*
%TO.N,/V_TELEM_RTN*%
X82920000Y-61230000D03*
%TO.N,/ENABLE-*%
X82920000Y-58460000D03*
%TO.N,/V_TELEM_RTN*%
X80080000Y-68155000D03*
%TO.N,/P12V_V_MON*%
X80080000Y-65385000D03*
%TO.N,/V_TELEM_RTN*%
X80080000Y-62615000D03*
%TO.N,/ENABLE+*%
X80080000Y-59845000D03*
D11*
%TO.N,GNDPWR*%
X81500000Y-51500000D03*
X81500000Y-76500000D03*
%TD*%
D19*
%TO.N,/V_TELEM_IN*%
%TO.C,J3*%
X149890000Y-47150000D03*
%TO.N,/V_TELEM_RTN*%
X146080000Y-47150000D03*
%TO.N,/V_TELEM_IN*%
X142270000Y-47150000D03*
%TD*%
D20*
%TO.N,/Main_DCDC_Converter/V_SEC*%
X149990000Y-83870000D03*
X151120000Y-81490000D03*
%TO.N,/P12V_OUT*%
X183520000Y-102310000D03*
%TO.N,/P12V_RTN*%
X183540000Y-93140000D03*
%TO.N,/V_SEC_RTN*%
X195000000Y-105000000D03*
X125000000Y-105000000D03*
X112500000Y-122500000D03*
X145000000Y-112500000D03*
X197500000Y-102500000D03*
X200000000Y-90000000D03*
X95000000Y-87500000D03*
X135000000Y-120000000D03*
X202500000Y-117500000D03*
X97500000Y-102500000D03*
X102500000Y-120000000D03*
X165000000Y-120000000D03*
X97500000Y-90000000D03*
X137500000Y-115000000D03*
X167500000Y-125000000D03*
X132500000Y-80000000D03*
X180000000Y-75000000D03*
X97500000Y-95000000D03*
X197500000Y-112500000D03*
X95000000Y-115000000D03*
X180000000Y-90000000D03*
X170000000Y-117500000D03*
X100000000Y-102500000D03*
X177500000Y-115000000D03*
X117500000Y-110000000D03*
X197500000Y-107500000D03*
X95000000Y-105000000D03*
X172500000Y-77500000D03*
X142500000Y-115000000D03*
X90000000Y-122500000D03*
X207500000Y-117500000D03*
X135000000Y-80000000D03*
X95000000Y-125000000D03*
X200000000Y-112500000D03*
X112500000Y-110000000D03*
X200000000Y-87500000D03*
X95000000Y-102500000D03*
X87500000Y-97500000D03*
X132500000Y-82500000D03*
X130000000Y-107500000D03*
X135000000Y-117500000D03*
X200000000Y-120000000D03*
X98527500Y-105000000D03*
X160000000Y-122500000D03*
X90000000Y-105000000D03*
X110000000Y-90000000D03*
X182500000Y-87500000D03*
X118830000Y-86880000D03*
X127500000Y-105000000D03*
X105000000Y-125000000D03*
X147500000Y-117500000D03*
X170000000Y-120000000D03*
X155000000Y-122500000D03*
X182500000Y-112500000D03*
X97500000Y-117500000D03*
X87500000Y-102500000D03*
X185000000Y-115000000D03*
X180000000Y-110000000D03*
X202500000Y-110000000D03*
X117500000Y-122500000D03*
X142500000Y-85000000D03*
X87500000Y-112500000D03*
X207500000Y-115000000D03*
X190000000Y-110000000D03*
X180000000Y-80000000D03*
X205000000Y-107500000D03*
X202500000Y-125000000D03*
X120000000Y-112500000D03*
X200000000Y-95000000D03*
X212500000Y-107500000D03*
X192500000Y-115000000D03*
X185000000Y-105000000D03*
X92500000Y-105000000D03*
X185000000Y-90000000D03*
X90000000Y-125000000D03*
X165000000Y-115000000D03*
X107500000Y-87500000D03*
X112500000Y-107500000D03*
X175000000Y-112500000D03*
X197500000Y-125000000D03*
X170000000Y-75000000D03*
X170000000Y-115000000D03*
X175000000Y-117500000D03*
X115000000Y-112500000D03*
X165000000Y-77500000D03*
X95000000Y-110000000D03*
X212500000Y-110000000D03*
X177500000Y-77500000D03*
X120000000Y-107500000D03*
X140000000Y-115000000D03*
X160000000Y-112500000D03*
X195000000Y-92500000D03*
X202500000Y-112500000D03*
X107500000Y-102500000D03*
X210000000Y-105000000D03*
X190000000Y-120000000D03*
X107500000Y-95000000D03*
X147500000Y-110000000D03*
X140000000Y-122500000D03*
X127500000Y-125000000D03*
X115000000Y-122500000D03*
X190000000Y-125000000D03*
X87500000Y-110000000D03*
X210000000Y-110000000D03*
X147500000Y-125000000D03*
X137500000Y-120000000D03*
X112500000Y-125000000D03*
X103950000Y-91210000D03*
X135000000Y-82500000D03*
X112500000Y-112500000D03*
X105000000Y-92500000D03*
X195000000Y-90000000D03*
X195000000Y-102500000D03*
X102500000Y-125000000D03*
X132500000Y-122500000D03*
X90000000Y-90000000D03*
X145000000Y-77500000D03*
X95000000Y-120000000D03*
X145000000Y-120000000D03*
X85000000Y-120000000D03*
X132500000Y-117500000D03*
X105000000Y-112500000D03*
X150000000Y-77500000D03*
X140000000Y-80000000D03*
X92500000Y-117500000D03*
X110000000Y-120000000D03*
X142500000Y-112500000D03*
X180000000Y-92500000D03*
X150000000Y-125000000D03*
X180000000Y-77500000D03*
X107500000Y-122500000D03*
X107500000Y-110000000D03*
X190000000Y-107500000D03*
X137500000Y-122500000D03*
X200000000Y-117500000D03*
X142500000Y-117500000D03*
X192500000Y-95000000D03*
X197500000Y-117500000D03*
X117500000Y-117500000D03*
X155000000Y-115000000D03*
X145000000Y-75000000D03*
X207500000Y-105000000D03*
X150000000Y-75000000D03*
X92500000Y-102500000D03*
X152500000Y-125000000D03*
X152500000Y-120000000D03*
X182500000Y-110000000D03*
X140000000Y-85000000D03*
X115000000Y-115000000D03*
X172500000Y-122500000D03*
X95000000Y-112500000D03*
X145000000Y-85000000D03*
X120000000Y-105000000D03*
X102500000Y-102500000D03*
X100000000Y-90000000D03*
X87500000Y-115000000D03*
X177500000Y-125000000D03*
X103950000Y-89710000D03*
X135000000Y-112500000D03*
X192500000Y-87500000D03*
X172500000Y-115000000D03*
X95000000Y-90000000D03*
X192500000Y-120000000D03*
X102200000Y-88210000D03*
X192500000Y-122500000D03*
X175000000Y-122500000D03*
X195000000Y-125000000D03*
X100027500Y-106500000D03*
X147500000Y-122500000D03*
X190000000Y-115000000D03*
X87500000Y-90000000D03*
X105000000Y-110000000D03*
X147500000Y-82500000D03*
X145000000Y-110000000D03*
X100000000Y-112500000D03*
X115000000Y-105000000D03*
X142500000Y-125000000D03*
X105000000Y-117500000D03*
X122500000Y-107500000D03*
X142500000Y-122500000D03*
X197500000Y-90000000D03*
X122500000Y-110000000D03*
X187500000Y-105000000D03*
X145000000Y-125000000D03*
X162500000Y-75000000D03*
X117500000Y-105000000D03*
X210000000Y-112500000D03*
X205000000Y-105000000D03*
X182500000Y-122500000D03*
X185000000Y-112500000D03*
X95000000Y-117500000D03*
X210000000Y-115000000D03*
X170000000Y-77500000D03*
X147500000Y-112500000D03*
X150000000Y-120000000D03*
X202500000Y-102500000D03*
X165000000Y-117500000D03*
X87500000Y-105000000D03*
X142500000Y-75000000D03*
X117500000Y-125000000D03*
X101527500Y-105000000D03*
X110000000Y-110000000D03*
X147500000Y-120000000D03*
X92500000Y-107500000D03*
X187500000Y-120000000D03*
X212500000Y-105000000D03*
X110000000Y-87500000D03*
X180000000Y-102500000D03*
X170000000Y-122500000D03*
X102500000Y-110000000D03*
X187500000Y-125000000D03*
X92500000Y-92500000D03*
X187500000Y-117500000D03*
X135000000Y-122500000D03*
X105000000Y-95000000D03*
X180000000Y-117500000D03*
X125000000Y-110000000D03*
X100000000Y-120000000D03*
X115000000Y-107500000D03*
X175000000Y-120000000D03*
X90000000Y-92500000D03*
X130000000Y-77500000D03*
X85000000Y-122500000D03*
X202500000Y-92500000D03*
X167500000Y-112500000D03*
X177500000Y-75000000D03*
X182500000Y-117500000D03*
X97500000Y-125000000D03*
X95000000Y-92500000D03*
X112500000Y-115000000D03*
X182500000Y-115000000D03*
X192500000Y-117500000D03*
X140000000Y-112500000D03*
X90000000Y-120000000D03*
X197500000Y-87500000D03*
X130000000Y-87500000D03*
X137500000Y-125000000D03*
X192500000Y-90000000D03*
X192500000Y-107500000D03*
X160000000Y-120000000D03*
X140000000Y-125000000D03*
X160000000Y-80000000D03*
X87500000Y-122500000D03*
X87500000Y-117500000D03*
X92500000Y-97500000D03*
X140000000Y-117500000D03*
X147500000Y-85000000D03*
X192500000Y-105000000D03*
X102200000Y-89710000D03*
X155000000Y-120000000D03*
X202500000Y-120000000D03*
X100000000Y-110000000D03*
X87500000Y-92500000D03*
X167500000Y-75000000D03*
X187500000Y-110000000D03*
X105000000Y-120000000D03*
X127500000Y-110000000D03*
X152500000Y-115000000D03*
X172500000Y-125000000D03*
X132500000Y-110000000D03*
X97500000Y-110000000D03*
X175000000Y-115000000D03*
X100000000Y-125000000D03*
X212500000Y-90000000D03*
X92500000Y-112500000D03*
X92500000Y-100000000D03*
X200000000Y-110000000D03*
X140000000Y-120000000D03*
X97500000Y-87500000D03*
X152500000Y-122500000D03*
X115000000Y-110000000D03*
X177500000Y-117500000D03*
X87500000Y-87500000D03*
X87500000Y-120000000D03*
X122500000Y-125000000D03*
X122500000Y-105000000D03*
X112500000Y-90000000D03*
X167500000Y-77500000D03*
X185000000Y-110000000D03*
X180000000Y-112500000D03*
X125000000Y-112500000D03*
X170000000Y-112500000D03*
X160000000Y-125000000D03*
X157500000Y-117500000D03*
X155000000Y-75000000D03*
X192500000Y-125000000D03*
X175000000Y-75000000D03*
X185000000Y-107500000D03*
X172500000Y-117500000D03*
X160000000Y-75000000D03*
X90000000Y-102500000D03*
X127500000Y-112500000D03*
X210000000Y-107500000D03*
X130000000Y-112500000D03*
X162500000Y-125000000D03*
X157500000Y-75000000D03*
X155000000Y-117500000D03*
X200000000Y-107500000D03*
X100000000Y-117500000D03*
X165000000Y-112500000D03*
X182500000Y-125000000D03*
X122500000Y-112500000D03*
X102500000Y-122500000D03*
X142500000Y-77500000D03*
X137500000Y-117500000D03*
X125000000Y-87500000D03*
X90000000Y-117500000D03*
X205000000Y-112500000D03*
X101527500Y-106500000D03*
X170000000Y-82500000D03*
X140000000Y-77500000D03*
X165000000Y-75000000D03*
X172500000Y-75000000D03*
X110000000Y-95000000D03*
X190000000Y-122500000D03*
X92500000Y-110000000D03*
X152500000Y-75000000D03*
X202500000Y-115000000D03*
X202500000Y-90000000D03*
X92500000Y-125000000D03*
X115000000Y-87500000D03*
X157500000Y-125000000D03*
X159260000Y-82110000D03*
X160000000Y-115000000D03*
X98527500Y-106500000D03*
X167500000Y-122500000D03*
X207500000Y-112500000D03*
X107500000Y-120000000D03*
X180000000Y-120000000D03*
X132500000Y-115000000D03*
X130000000Y-125000000D03*
X127500000Y-107500000D03*
X122500000Y-87500000D03*
X185000000Y-117500000D03*
X100027500Y-105000000D03*
X202500000Y-87500000D03*
X135000000Y-110000000D03*
X190000000Y-90000000D03*
X187500000Y-112500000D03*
X117500000Y-115000000D03*
X180000000Y-115000000D03*
X165000000Y-122500000D03*
X87500000Y-100000000D03*
X155000000Y-112500000D03*
X100000000Y-95000000D03*
X190000000Y-105000000D03*
X145000000Y-117500000D03*
X105000000Y-115000000D03*
X125000000Y-107500000D03*
X192500000Y-112500000D03*
X195000000Y-112500000D03*
X177500000Y-120000000D03*
X197500000Y-105000000D03*
X175000000Y-125000000D03*
X142500000Y-120000000D03*
X92500000Y-87500000D03*
X130000000Y-105000000D03*
X97500000Y-122500000D03*
X172500000Y-112500000D03*
X117500000Y-120000000D03*
X150000000Y-112500000D03*
X212500000Y-117500000D03*
X97500000Y-112500000D03*
X155000000Y-125000000D03*
X132500000Y-120000000D03*
X152500000Y-112500000D03*
X135000000Y-75000000D03*
X195000000Y-115000000D03*
X157500000Y-122500000D03*
X132500000Y-125000000D03*
X100000000Y-87500000D03*
X110000000Y-112500000D03*
X180000000Y-122500000D03*
X95000000Y-107500000D03*
X110000000Y-122500000D03*
X102500000Y-117500000D03*
X190000000Y-87500000D03*
X157500000Y-112500000D03*
X195000000Y-87500000D03*
X110000000Y-117500000D03*
X172500000Y-120000000D03*
X112500000Y-117500000D03*
X115000000Y-120000000D03*
X170000000Y-125000000D03*
X185000000Y-122500000D03*
X102500000Y-112500000D03*
X200000000Y-102500000D03*
X197500000Y-120000000D03*
X145000000Y-80000000D03*
X187500000Y-90000000D03*
X102500000Y-115000000D03*
X172500000Y-82500000D03*
X103950000Y-88210000D03*
X100000000Y-115000000D03*
X140000000Y-110000000D03*
X190000000Y-112500000D03*
X180000000Y-105000000D03*
X87500000Y-107500000D03*
X130000000Y-110000000D03*
X200000000Y-115000000D03*
X97500000Y-120000000D03*
X107500000Y-92500000D03*
X117500000Y-112500000D03*
X137500000Y-110000000D03*
X205000000Y-110000000D03*
X112500000Y-105000000D03*
X200000000Y-125000000D03*
X107500000Y-112500000D03*
X100000000Y-122500000D03*
X117500000Y-107500000D03*
X162500000Y-112500000D03*
X160000000Y-117500000D03*
X135000000Y-115000000D03*
X95000000Y-122500000D03*
X205000000Y-117500000D03*
X195000000Y-107500000D03*
X102500000Y-92500000D03*
X190000000Y-117500000D03*
X212500000Y-112500000D03*
X145000000Y-122500000D03*
X210000000Y-117500000D03*
X175000000Y-77500000D03*
X197500000Y-110000000D03*
X146670000Y-79410000D03*
X127500000Y-87500000D03*
X102200000Y-91210000D03*
X212500000Y-87500000D03*
X97500000Y-92500000D03*
X110000000Y-125000000D03*
X92500000Y-120000000D03*
X187500000Y-115000000D03*
X92500000Y-95000000D03*
X145000000Y-115000000D03*
X202500000Y-107500000D03*
X200000000Y-122500000D03*
X202500000Y-95000000D03*
X90000000Y-107500000D03*
X116930000Y-86880000D03*
X197500000Y-92500000D03*
X162500000Y-117500000D03*
X112500000Y-102500000D03*
X105000000Y-102500000D03*
X207500000Y-110000000D03*
X150000000Y-110000000D03*
X90000000Y-112500000D03*
X137500000Y-82500000D03*
X142500000Y-110000000D03*
X177500000Y-122500000D03*
X162500000Y-77500000D03*
X112500000Y-87500000D03*
X157500000Y-115000000D03*
X212500000Y-115000000D03*
X137500000Y-80000000D03*
X205000000Y-115000000D03*
X137500000Y-112500000D03*
X130000000Y-82500000D03*
X132500000Y-112500000D03*
X92500000Y-90000000D03*
X212500000Y-92500000D03*
X130000000Y-75000000D03*
X180000000Y-82500000D03*
X107500000Y-125000000D03*
X90000000Y-95000000D03*
X90000000Y-115000000D03*
X112500000Y-92500000D03*
X195000000Y-120000000D03*
X182500000Y-120000000D03*
X150000000Y-115000000D03*
X162500000Y-120000000D03*
X185000000Y-120000000D03*
X135000000Y-125000000D03*
X202500000Y-122500000D03*
X107500000Y-117500000D03*
X97500000Y-115000000D03*
X197500000Y-115000000D03*
X130000000Y-80000000D03*
X115000000Y-125000000D03*
X100000000Y-92500000D03*
X120000000Y-110000000D03*
X142500000Y-80000000D03*
X115000000Y-117500000D03*
X162500000Y-122500000D03*
X125000000Y-125000000D03*
X90000000Y-87500000D03*
X120000000Y-125000000D03*
X207500000Y-107500000D03*
X187500000Y-87500000D03*
X180000000Y-125000000D03*
X145000000Y-82500000D03*
X110000000Y-115000000D03*
X180000000Y-100000000D03*
X167500000Y-120000000D03*
X132500000Y-75000000D03*
X192500000Y-102500000D03*
X165000000Y-125000000D03*
X140000000Y-82500000D03*
X195000000Y-110000000D03*
X92500000Y-122500000D03*
X92500000Y-115000000D03*
X90000000Y-100000000D03*
X112500000Y-120000000D03*
X137500000Y-75000000D03*
X150000000Y-122500000D03*
X187500000Y-122500000D03*
X187500000Y-107500000D03*
X135000000Y-77500000D03*
X90000000Y-110000000D03*
X162500000Y-115000000D03*
X185000000Y-87500000D03*
X197500000Y-122500000D03*
X107500000Y-115000000D03*
X195000000Y-117500000D03*
X137500000Y-77500000D03*
X102500000Y-95000000D03*
X105000000Y-122500000D03*
X178380000Y-80220000D03*
X167500000Y-117500000D03*
X167500000Y-115000000D03*
X87500000Y-125000000D03*
X185000000Y-125000000D03*
X202500000Y-105000000D03*
X140000000Y-75000000D03*
X150000000Y-117500000D03*
X147500000Y-115000000D03*
X157500000Y-120000000D03*
X177500000Y-112500000D03*
X132500000Y-77500000D03*
X200000000Y-105000000D03*
X85000000Y-125000000D03*
X152500000Y-117500000D03*
X142500000Y-82500000D03*
X192500000Y-110000000D03*
X95000000Y-95000000D03*
X195000000Y-122500000D03*
%TO.N,GNDPWR*%
X175355000Y-83250000D03*
%TO.N,/V_TELEM_RTN*%
X116930000Y-82030000D03*
X115000000Y-77500000D03*
X160000000Y-65000000D03*
X145000000Y-52500000D03*
X180000000Y-52500000D03*
X87500000Y-52500000D03*
X95000000Y-82500000D03*
X92500000Y-80000000D03*
X87500000Y-45000000D03*
X212500000Y-82500000D03*
X202500000Y-50000000D03*
X137500000Y-55000000D03*
X192500000Y-50000000D03*
X175000000Y-50000000D03*
X90000000Y-42500000D03*
X155000000Y-45000000D03*
X157500000Y-55000000D03*
X112500000Y-42500000D03*
X132500000Y-47500000D03*
X105000000Y-62500000D03*
X190000000Y-50000000D03*
X187500000Y-50000000D03*
X125000000Y-45000000D03*
X207500000Y-52500000D03*
X130000000Y-60000000D03*
X120000000Y-52500000D03*
X122500000Y-75000000D03*
X95000000Y-75000000D03*
X180000000Y-55000000D03*
X110000000Y-67500000D03*
X202500000Y-42500000D03*
X162500000Y-47500000D03*
X212500000Y-47500000D03*
X202471400Y-55012500D03*
X137500000Y-62500000D03*
X185000000Y-50000000D03*
X137500000Y-65000000D03*
X167500000Y-47500000D03*
X100000000Y-50000000D03*
X135000000Y-47500000D03*
X105000000Y-82500000D03*
X207500000Y-60000000D03*
X200000000Y-77500000D03*
X147500000Y-52500000D03*
X155000000Y-47500000D03*
X165906200Y-63115000D03*
X122500000Y-82500000D03*
X195000000Y-52500000D03*
X118840000Y-82040000D03*
X100000000Y-67500000D03*
X167500000Y-42500000D03*
X125000000Y-52500000D03*
X157500000Y-52500000D03*
X117500000Y-65000000D03*
X212500000Y-67500000D03*
X175000000Y-52500000D03*
X210000000Y-65000000D03*
X120000000Y-67500000D03*
X205000000Y-50000000D03*
X197500000Y-42500000D03*
X160000000Y-42500000D03*
X197500000Y-47500000D03*
X100000000Y-62500000D03*
X127500000Y-55000000D03*
X97500000Y-75000000D03*
X140000000Y-67500000D03*
X205000000Y-65000000D03*
X102500000Y-77500000D03*
X166926200Y-55545000D03*
X90000000Y-75000000D03*
X87500000Y-67500000D03*
X117500000Y-50000000D03*
X90000000Y-80000000D03*
X200420000Y-81240000D03*
X191450000Y-75370000D03*
X212500000Y-77500000D03*
X137500000Y-50000000D03*
X95000000Y-67500000D03*
X160000000Y-60000000D03*
X200000000Y-75000000D03*
X187500000Y-60000000D03*
X170000000Y-45000000D03*
X197500000Y-77500000D03*
X80000000Y-82500000D03*
X115000000Y-65000000D03*
X162500000Y-42500000D03*
X210000000Y-62500000D03*
X205000000Y-67500000D03*
X192500000Y-47500000D03*
X187500000Y-62500000D03*
X117500000Y-80000000D03*
X110000000Y-75000000D03*
X190000000Y-52500000D03*
X205000000Y-55000000D03*
X192500000Y-72500000D03*
X155000000Y-62500000D03*
X110000000Y-45000000D03*
X178210000Y-58800000D03*
X155000000Y-52500000D03*
X102500000Y-82500000D03*
X182500000Y-42500000D03*
X182500000Y-45000000D03*
X177500000Y-47500000D03*
X97500000Y-60000000D03*
X157500000Y-60000000D03*
X122500000Y-55000000D03*
X207500000Y-57500000D03*
X127500000Y-45000000D03*
X210000000Y-52500000D03*
X190000000Y-57500000D03*
X212500000Y-65000000D03*
X135000000Y-45000000D03*
X120000000Y-45000000D03*
X145000000Y-55000000D03*
X205000000Y-60000000D03*
X135000000Y-50000000D03*
X112500000Y-50000000D03*
X120000000Y-50000000D03*
X135000000Y-67500000D03*
X95000000Y-57500000D03*
X162500000Y-62500000D03*
X167500000Y-45000000D03*
X182500000Y-52500000D03*
X120000000Y-47500000D03*
X197500000Y-50000000D03*
X97500000Y-47500000D03*
X115000000Y-45000000D03*
X200000000Y-42500000D03*
X185000000Y-60000000D03*
X210000000Y-67500000D03*
X190000000Y-47500000D03*
X125000000Y-55000000D03*
X165000000Y-47500000D03*
X112500000Y-77500000D03*
X165000000Y-45000000D03*
X95000000Y-55000000D03*
X110000000Y-82500000D03*
X172500000Y-50000000D03*
X190000000Y-72500000D03*
X182500000Y-50000000D03*
X187500000Y-65000000D03*
X92500000Y-67500000D03*
X85000000Y-42500000D03*
X95000000Y-52500000D03*
X85000000Y-82500000D03*
X160000000Y-62500000D03*
X90000000Y-55000000D03*
X102500000Y-80000000D03*
X175000000Y-45000000D03*
X142500000Y-52500000D03*
X112500000Y-45000000D03*
X207500000Y-65000000D03*
X100000000Y-60000000D03*
X152500000Y-55000000D03*
X130000000Y-45000000D03*
X175000000Y-42500000D03*
X105000000Y-45000000D03*
X97500000Y-50000000D03*
X97500000Y-77500000D03*
X140000000Y-52500000D03*
X212500000Y-72500000D03*
X107500000Y-75000000D03*
X182500000Y-57500000D03*
X82500000Y-82500000D03*
X135000000Y-42500000D03*
X181490000Y-66370000D03*
X115000000Y-75000000D03*
X180000000Y-47500000D03*
X125000000Y-47500000D03*
X100000000Y-42500000D03*
X87500000Y-50000000D03*
X120000000Y-55000000D03*
X115000000Y-50000000D03*
X130000000Y-67500000D03*
X92500000Y-47500000D03*
X165000000Y-50000000D03*
X125000000Y-77500000D03*
X100000000Y-52500000D03*
X192500000Y-77500000D03*
X200000000Y-45000000D03*
X190000000Y-55000000D03*
X160000000Y-55000000D03*
X190750000Y-82800000D03*
X195000000Y-45000000D03*
X132500000Y-62500000D03*
X95000000Y-62500000D03*
X205000000Y-57500000D03*
X100000000Y-45000000D03*
X87500000Y-80000000D03*
X212500000Y-75000000D03*
X165000000Y-42500000D03*
X157500000Y-67500000D03*
X157500000Y-65000000D03*
X180000000Y-45000000D03*
X130000000Y-42500000D03*
X202500000Y-47500000D03*
X185000000Y-47500000D03*
X112500000Y-75000000D03*
X97500000Y-82500000D03*
X155000000Y-50000000D03*
X195000000Y-42500000D03*
X102500000Y-45000000D03*
X130000000Y-50000000D03*
X122500000Y-67500000D03*
X97500000Y-55000000D03*
X205000000Y-52500000D03*
X212500000Y-45000000D03*
X182500000Y-55000000D03*
X92500000Y-52500000D03*
X142500000Y-65000000D03*
X117500000Y-67500000D03*
X202500000Y-57500000D03*
X185000000Y-45000000D03*
X170000000Y-47500000D03*
X75000000Y-82500000D03*
X172500000Y-52500000D03*
X117500000Y-60000000D03*
X110000000Y-62500000D03*
X135000000Y-52500000D03*
X195000000Y-72500000D03*
X90000000Y-45000000D03*
X117500000Y-75000000D03*
X100000000Y-75000000D03*
X92500000Y-42500000D03*
X160000000Y-52500000D03*
X122500000Y-65000000D03*
X187500000Y-45000000D03*
X111068500Y-55000000D03*
X140000000Y-62500000D03*
X122500000Y-45000000D03*
X127500000Y-65000000D03*
X122500000Y-42500000D03*
X207500000Y-62500000D03*
X155000000Y-42500000D03*
X167500000Y-52500000D03*
X212500000Y-52500000D03*
X197500000Y-75000000D03*
X100000000Y-80000000D03*
X177500000Y-45000000D03*
X125000000Y-80000000D03*
X97500000Y-67500000D03*
X157500000Y-47500000D03*
X100000000Y-77500000D03*
X112500000Y-67500000D03*
X110000000Y-80000000D03*
X177500000Y-55000000D03*
X197500000Y-45000000D03*
X107500000Y-62500000D03*
X102500000Y-67500000D03*
X87500000Y-47500000D03*
X210000000Y-50000000D03*
X170000000Y-52500000D03*
X117500000Y-47500000D03*
X187500000Y-55000000D03*
X132500000Y-65000000D03*
X170000000Y-50000000D03*
X165000000Y-52500000D03*
X195000000Y-47500000D03*
X100000000Y-82500000D03*
X77500000Y-82500000D03*
X122500000Y-60000000D03*
X110000000Y-77500000D03*
X92500000Y-55000000D03*
X100000000Y-47500000D03*
X115000000Y-42500000D03*
X210000000Y-55000000D03*
X127500000Y-52500000D03*
X95000000Y-50000000D03*
X212500000Y-57500000D03*
X167500000Y-50000000D03*
X125000000Y-75000000D03*
X172500000Y-45000000D03*
X135000000Y-55000000D03*
X135000000Y-65000000D03*
X132500000Y-52500000D03*
X95000000Y-42500000D03*
X107500000Y-82500000D03*
X95000000Y-45000000D03*
X87500000Y-55000000D03*
X193731400Y-67562500D03*
X192500000Y-45000000D03*
X117500000Y-45000000D03*
X122500000Y-80000000D03*
X125000000Y-67500000D03*
X127500000Y-50000000D03*
X155000000Y-55000000D03*
X155000000Y-65000000D03*
X115000000Y-47500000D03*
X212500000Y-55000000D03*
X170000000Y-55000000D03*
X144620000Y-62840000D03*
X107500000Y-80000000D03*
X115000000Y-55000000D03*
X160000000Y-47500000D03*
X212500000Y-60000000D03*
X105000000Y-67500000D03*
X105000000Y-77500000D03*
X117500000Y-55000000D03*
X162500000Y-50000000D03*
X212500000Y-50000000D03*
X109220000Y-59540000D03*
X102500000Y-42500000D03*
X125000000Y-82500000D03*
X87500000Y-75000000D03*
X207500000Y-67500000D03*
X107500000Y-67500000D03*
X122500000Y-47500000D03*
X95000000Y-80000000D03*
X162500000Y-52500000D03*
X185000000Y-57500000D03*
X212500000Y-70000000D03*
X200000000Y-50000000D03*
X115000000Y-82500000D03*
X137500000Y-52500000D03*
X125000000Y-50000000D03*
X97500000Y-42500000D03*
X172500000Y-42500000D03*
X192500000Y-55000000D03*
X115000000Y-60000000D03*
X120000000Y-75000000D03*
X152500000Y-62500000D03*
X102500000Y-75000000D03*
X195000000Y-75000000D03*
X187500000Y-70000000D03*
X92500000Y-50000000D03*
X202500000Y-65000000D03*
X177500000Y-50000000D03*
X95000000Y-77500000D03*
X180000000Y-42500000D03*
X90000000Y-52500000D03*
X175000000Y-55000000D03*
X192500000Y-52500000D03*
X157500000Y-45000000D03*
X125000000Y-65000000D03*
X90000000Y-82500000D03*
X117500000Y-42500000D03*
X130000000Y-55000000D03*
X115000000Y-80000000D03*
X132500000Y-45000000D03*
X170000000Y-42500000D03*
X192500000Y-57500000D03*
X92500000Y-77500000D03*
X212500000Y-80000000D03*
X125000000Y-42500000D03*
X192500000Y-42500000D03*
X187500000Y-42500000D03*
X187500000Y-47500000D03*
X190671400Y-59752500D03*
X127500000Y-42500000D03*
X90000000Y-77500000D03*
X105000000Y-80000000D03*
X97500000Y-80000000D03*
X162500000Y-55000000D03*
X187500000Y-52500000D03*
X157500000Y-42500000D03*
X132500000Y-42500000D03*
X95000000Y-60000000D03*
X132500000Y-55000000D03*
X90550000Y-56500000D03*
X162500000Y-45000000D03*
X150000000Y-55000000D03*
X162500000Y-65000000D03*
X155000000Y-60000000D03*
X163210000Y-67340000D03*
X190000000Y-45000000D03*
X200000000Y-72500000D03*
X190000000Y-42500000D03*
X102500000Y-62500000D03*
X190000000Y-65000000D03*
X107500000Y-45000000D03*
X130000000Y-52500000D03*
X212500000Y-62500000D03*
X120000000Y-42500000D03*
X195000000Y-77500000D03*
X185000000Y-52500000D03*
X172500000Y-47500000D03*
X177500000Y-52500000D03*
X157500000Y-62500000D03*
X97500000Y-62500000D03*
X207500000Y-55000000D03*
X127500000Y-67500000D03*
X195000000Y-55000000D03*
X180000000Y-57500000D03*
X177500000Y-42500000D03*
X137500000Y-42500000D03*
X120000000Y-60000000D03*
X130000000Y-65000000D03*
X137500000Y-45000000D03*
X185000000Y-55000000D03*
X157500000Y-50000000D03*
X85000000Y-45000000D03*
X155000000Y-67500000D03*
X142500000Y-55000000D03*
X182500000Y-60000000D03*
X202500000Y-67500000D03*
X92500000Y-82500000D03*
X187500000Y-57500000D03*
X97500000Y-52500000D03*
X132500000Y-67500000D03*
X160000000Y-45000000D03*
X122500000Y-52500000D03*
X210000000Y-57500000D03*
X175510000Y-69570000D03*
X105000000Y-75000000D03*
X152500000Y-52500000D03*
X207500000Y-50000000D03*
X210000000Y-60000000D03*
X150000000Y-52500000D03*
X160000000Y-50000000D03*
X97500000Y-45000000D03*
X92500000Y-75000000D03*
X107500000Y-77500000D03*
X190000000Y-70000000D03*
X107500000Y-42500000D03*
X200000000Y-47500000D03*
X140000000Y-65000000D03*
X115000000Y-52500000D03*
X132500000Y-50000000D03*
X202500000Y-62500000D03*
X172500000Y-55000000D03*
X137500000Y-67500000D03*
X130000000Y-47500000D03*
X202500000Y-60000000D03*
X197500000Y-72500000D03*
X195000000Y-50000000D03*
X105000000Y-42500000D03*
X90000000Y-50000000D03*
X117500000Y-77500000D03*
X92500000Y-45000000D03*
X120000000Y-80000000D03*
X185000000Y-42500000D03*
X127500000Y-47500000D03*
X140000000Y-55000000D03*
X180000000Y-50000000D03*
X112500000Y-82500000D03*
X120000000Y-77500000D03*
X137500000Y-47500000D03*
X108598500Y-46660000D03*
X112500000Y-47500000D03*
X182500000Y-47500000D03*
X195000000Y-57500000D03*
X90000000Y-47500000D03*
X100000000Y-55000000D03*
X122500000Y-77500000D03*
X87500000Y-77500000D03*
X120000000Y-65000000D03*
X202500000Y-45000000D03*
X147500000Y-55000000D03*
X115000000Y-67500000D03*
X127500000Y-60000000D03*
X85000000Y-47500000D03*
X135000000Y-62500000D03*
X205000000Y-62500000D03*
X87500000Y-42500000D03*
X112500000Y-80000000D03*
X90000000Y-67500000D03*
X100000000Y-57500000D03*
X87500000Y-82500000D03*
X175000000Y-47500000D03*
X95000000Y-47500000D03*
X117500000Y-52500000D03*
X160000000Y-67500000D03*
X122500000Y-50000000D03*
X125000000Y-60000000D03*
X97500000Y-57500000D03*
X152500000Y-60000000D03*
X110000000Y-42500000D03*
%TO.N,/V_TELEM_IN*%
X151230000Y-63170000D03*
X207910000Y-71880000D03*
X102248500Y-47230000D03*
X200141400Y-66290000D03*
X181640000Y-68960000D03*
%TO.N,/Enable_Block/3p3V*%
X104588500Y-57910000D03*
%TO.N,/Telemetry_Schematic/3p3V*%
X197830000Y-56502500D03*
X190750000Y-79680000D03*
X175120000Y-58810000D03*
%TO.N,Net-(U6B-B_OUT)*%
X176230000Y-59830000D03*
X176230000Y-66850000D03*
%TO.N,/P12V_OUT_*%
X210000000Y-69810000D03*
X167590000Y-67330000D03*
%TO.N,Net-(J10-Pad1)*%
X157290000Y-77300000D03*
%TO.N,Net-(U1-REMOTE)*%
X168720000Y-83110000D03*
%TO.N,/P12V_I_MON*%
X150790000Y-72060000D03*
X85630000Y-64000000D03*
X144320000Y-72060000D03*
X85630000Y-72070000D03*
%TO.N,/P12V_V_MON*%
X112370000Y-65340000D03*
X112370000Y-57300000D03*
%TO.N,/Telemetry_Schematic/TEMP*%
X184354579Y-63542511D03*
%TO.N,/TEMP_MON*%
X150820000Y-69550000D03*
X144340000Y-69560000D03*
%TO.N,Net-(LED1-Pad2)*%
X206100000Y-75910000D03*
%TO.N,Net-(LED1-Pad1)*%
X206100000Y-80200000D03*
%TD*%
D21*
%TO.N,/Main_DCDC_Converter/V_SEC*%
X150640000Y-100150000D02*
X154980000Y-100150000D01*
X149990000Y-83870000D02*
X149990000Y-99500000D01*
X149990000Y-99500000D02*
X150640000Y-100150000D01*
%TO.N,/P12V_OUT_*%
X210000000Y-69810000D02*
X210000000Y-92240000D01*
X209360000Y-92880000D02*
X209360000Y-98310000D01*
X210000000Y-98287000D02*
X210043000Y-98330000D01*
X210000000Y-92240000D02*
X209360000Y-92880000D01*
%TO.N,/P12V_I_MON*%
X85630000Y-72070000D02*
X85630000Y-64000000D01*
%TD*%
%TA.AperFunction,Conductor*%
%TO.N,/Telemetry_Schematic/3p3V*%
G36*
X161719142Y-52019685D02*
G01*
X161764897Y-52072489D01*
X161774841Y-52141647D01*
X161769145Y-52164954D01*
X161714632Y-52320742D01*
X161714630Y-52320750D01*
X161694435Y-52499996D01*
X161694435Y-52500003D01*
X161714630Y-52679249D01*
X161714631Y-52679254D01*
X161774211Y-52849523D01*
X161870184Y-53002262D01*
X161997738Y-53129816D01*
X162150478Y-53225789D01*
X162320745Y-53285368D01*
X162320750Y-53285369D01*
X162499996Y-53305565D01*
X162500000Y-53305565D01*
X162500004Y-53305565D01*
X162679249Y-53285369D01*
X162679252Y-53285368D01*
X162679255Y-53285368D01*
X162849522Y-53225789D01*
X163002262Y-53129816D01*
X163129816Y-53002262D01*
X163225789Y-52849522D01*
X163285368Y-52679255D01*
X163305565Y-52500000D01*
X163285368Y-52320745D01*
X163285367Y-52320742D01*
X163230855Y-52164954D01*
X163227294Y-52095176D01*
X163262023Y-52034548D01*
X163324016Y-52002321D01*
X163347897Y-52000000D01*
X164152103Y-52000000D01*
X164219142Y-52019685D01*
X164264897Y-52072489D01*
X164274841Y-52141647D01*
X164269145Y-52164954D01*
X164214632Y-52320742D01*
X164214630Y-52320750D01*
X164194435Y-52499996D01*
X164194435Y-52500003D01*
X164214630Y-52679249D01*
X164214631Y-52679254D01*
X164274211Y-52849523D01*
X164370184Y-53002262D01*
X164497738Y-53129816D01*
X164650478Y-53225789D01*
X164820745Y-53285368D01*
X164820750Y-53285369D01*
X164999996Y-53305565D01*
X165000000Y-53305565D01*
X165000004Y-53305565D01*
X165179249Y-53285369D01*
X165179252Y-53285368D01*
X165179255Y-53285368D01*
X165349522Y-53225789D01*
X165502262Y-53129816D01*
X165629816Y-53002262D01*
X165725789Y-52849522D01*
X165785368Y-52679255D01*
X165805565Y-52500000D01*
X165785368Y-52320745D01*
X165785367Y-52320742D01*
X165730855Y-52164954D01*
X165727294Y-52095176D01*
X165762023Y-52034548D01*
X165824016Y-52002321D01*
X165847897Y-52000000D01*
X166652103Y-52000000D01*
X166719142Y-52019685D01*
X166764897Y-52072489D01*
X166774841Y-52141647D01*
X166769145Y-52164954D01*
X166714632Y-52320742D01*
X166714630Y-52320750D01*
X166694435Y-52499996D01*
X166694435Y-52500003D01*
X166714630Y-52679249D01*
X166714631Y-52679254D01*
X166774211Y-52849523D01*
X166870184Y-53002262D01*
X166997738Y-53129816D01*
X167150478Y-53225789D01*
X167320745Y-53285368D01*
X167320750Y-53285369D01*
X167499996Y-53305565D01*
X167500000Y-53305565D01*
X167500004Y-53305565D01*
X167679249Y-53285369D01*
X167679252Y-53285368D01*
X167679255Y-53285368D01*
X167849522Y-53225789D01*
X168002262Y-53129816D01*
X168129816Y-53002262D01*
X168225789Y-52849522D01*
X168285368Y-52679255D01*
X168305565Y-52500000D01*
X168285368Y-52320745D01*
X168285367Y-52320742D01*
X168230855Y-52164954D01*
X168227294Y-52095176D01*
X168262023Y-52034548D01*
X168324016Y-52002321D01*
X168347897Y-52000000D01*
X169152103Y-52000000D01*
X169219142Y-52019685D01*
X169264897Y-52072489D01*
X169274841Y-52141647D01*
X169269145Y-52164954D01*
X169214632Y-52320742D01*
X169214630Y-52320750D01*
X169194435Y-52499996D01*
X169194435Y-52500003D01*
X169214630Y-52679249D01*
X169214631Y-52679254D01*
X169274211Y-52849523D01*
X169370184Y-53002262D01*
X169497738Y-53129816D01*
X169650478Y-53225789D01*
X169820745Y-53285368D01*
X169820750Y-53285369D01*
X169999996Y-53305565D01*
X170000000Y-53305565D01*
X170000004Y-53305565D01*
X170179249Y-53285369D01*
X170179252Y-53285368D01*
X170179255Y-53285368D01*
X170349522Y-53225789D01*
X170502262Y-53129816D01*
X170629816Y-53002262D01*
X170725789Y-52849522D01*
X170785368Y-52679255D01*
X170805565Y-52500000D01*
X170785368Y-52320745D01*
X170785367Y-52320742D01*
X170730855Y-52164954D01*
X170727294Y-52095176D01*
X170762023Y-52034548D01*
X170824016Y-52002321D01*
X170847897Y-52000000D01*
X171652103Y-52000000D01*
X171719142Y-52019685D01*
X171764897Y-52072489D01*
X171774841Y-52141647D01*
X171769145Y-52164954D01*
X171714632Y-52320742D01*
X171714630Y-52320750D01*
X171694435Y-52499996D01*
X171694435Y-52500003D01*
X171714630Y-52679249D01*
X171714631Y-52679254D01*
X171774211Y-52849523D01*
X171870184Y-53002262D01*
X171997738Y-53129816D01*
X172150478Y-53225789D01*
X172320745Y-53285368D01*
X172320750Y-53285369D01*
X172499996Y-53305565D01*
X172500000Y-53305565D01*
X172500004Y-53305565D01*
X172679249Y-53285369D01*
X172679252Y-53285368D01*
X172679255Y-53285368D01*
X172849522Y-53225789D01*
X173002262Y-53129816D01*
X173129816Y-53002262D01*
X173225789Y-52849522D01*
X173285368Y-52679255D01*
X173305565Y-52500000D01*
X173285368Y-52320745D01*
X173285367Y-52320742D01*
X173230855Y-52164954D01*
X173227294Y-52095176D01*
X173262023Y-52034548D01*
X173324016Y-52002321D01*
X173347897Y-52000000D01*
X174152103Y-52000000D01*
X174219142Y-52019685D01*
X174264897Y-52072489D01*
X174274841Y-52141647D01*
X174269145Y-52164954D01*
X174214632Y-52320742D01*
X174214630Y-52320750D01*
X174194435Y-52499996D01*
X174194435Y-52500003D01*
X174214630Y-52679249D01*
X174214631Y-52679254D01*
X174274211Y-52849523D01*
X174370184Y-53002262D01*
X174497738Y-53129816D01*
X174650478Y-53225789D01*
X174820745Y-53285368D01*
X174820750Y-53285369D01*
X174999996Y-53305565D01*
X175000000Y-53305565D01*
X175000004Y-53305565D01*
X175179249Y-53285369D01*
X175179252Y-53285368D01*
X175179255Y-53285368D01*
X175349522Y-53225789D01*
X175502262Y-53129816D01*
X175629816Y-53002262D01*
X175725789Y-52849522D01*
X175785368Y-52679255D01*
X175805565Y-52500000D01*
X175785368Y-52320745D01*
X175785367Y-52320742D01*
X175730855Y-52164954D01*
X175727294Y-52095176D01*
X175762023Y-52034548D01*
X175824016Y-52002321D01*
X175847897Y-52000000D01*
X176652103Y-52000000D01*
X176719142Y-52019685D01*
X176764897Y-52072489D01*
X176774841Y-52141647D01*
X176769145Y-52164954D01*
X176714632Y-52320742D01*
X176714630Y-52320750D01*
X176694435Y-52499996D01*
X176694435Y-52500003D01*
X176714630Y-52679249D01*
X176714631Y-52679254D01*
X176774211Y-52849523D01*
X176870184Y-53002262D01*
X176997738Y-53129816D01*
X177150478Y-53225789D01*
X177320745Y-53285368D01*
X177320750Y-53285369D01*
X177499996Y-53305565D01*
X177500000Y-53305565D01*
X177500004Y-53305565D01*
X177679249Y-53285369D01*
X177679252Y-53285368D01*
X177679255Y-53285368D01*
X177849522Y-53225789D01*
X178002262Y-53129816D01*
X178129816Y-53002262D01*
X178225789Y-52849522D01*
X178285368Y-52679255D01*
X178305565Y-52500000D01*
X178285368Y-52320745D01*
X178285367Y-52320742D01*
X178230855Y-52164954D01*
X178227294Y-52095176D01*
X178262023Y-52034548D01*
X178324016Y-52002321D01*
X178347897Y-52000000D01*
X179152103Y-52000000D01*
X179219142Y-52019685D01*
X179264897Y-52072489D01*
X179274841Y-52141647D01*
X179269145Y-52164954D01*
X179214632Y-52320742D01*
X179214630Y-52320750D01*
X179194435Y-52499996D01*
X179194435Y-52500003D01*
X179214630Y-52679249D01*
X179214631Y-52679254D01*
X179274211Y-52849523D01*
X179370184Y-53002262D01*
X179497738Y-53129816D01*
X179650478Y-53225789D01*
X179820745Y-53285368D01*
X179820750Y-53285369D01*
X179999996Y-53305565D01*
X180000000Y-53305565D01*
X180000004Y-53305565D01*
X180179249Y-53285369D01*
X180179252Y-53285368D01*
X180179255Y-53285368D01*
X180349522Y-53225789D01*
X180502262Y-53129816D01*
X180629816Y-53002262D01*
X180725789Y-52849522D01*
X180785368Y-52679255D01*
X180805565Y-52500000D01*
X180785368Y-52320745D01*
X180785367Y-52320742D01*
X180730855Y-52164954D01*
X180727294Y-52095176D01*
X180762023Y-52034548D01*
X180824016Y-52002321D01*
X180847897Y-52000000D01*
X181652103Y-52000000D01*
X181719142Y-52019685D01*
X181764897Y-52072489D01*
X181774841Y-52141647D01*
X181769145Y-52164954D01*
X181714632Y-52320742D01*
X181714630Y-52320750D01*
X181694435Y-52499996D01*
X181694435Y-52500003D01*
X181714630Y-52679249D01*
X181714631Y-52679254D01*
X181774211Y-52849523D01*
X181870184Y-53002262D01*
X181997738Y-53129816D01*
X182150478Y-53225789D01*
X182320745Y-53285368D01*
X182320750Y-53285369D01*
X182499996Y-53305565D01*
X182500000Y-53305565D01*
X182500004Y-53305565D01*
X182679249Y-53285369D01*
X182679252Y-53285368D01*
X182679255Y-53285368D01*
X182849522Y-53225789D01*
X183002262Y-53129816D01*
X183129816Y-53002262D01*
X183225789Y-52849522D01*
X183285368Y-52679255D01*
X183305565Y-52500000D01*
X183285368Y-52320745D01*
X183285367Y-52320742D01*
X183230855Y-52164954D01*
X183227294Y-52095176D01*
X183262023Y-52034548D01*
X183324016Y-52002321D01*
X183347897Y-52000000D01*
X184152103Y-52000000D01*
X184219142Y-52019685D01*
X184264897Y-52072489D01*
X184274841Y-52141647D01*
X184269145Y-52164954D01*
X184214632Y-52320742D01*
X184214630Y-52320750D01*
X184194435Y-52499996D01*
X184194435Y-52500003D01*
X184214630Y-52679249D01*
X184214631Y-52679254D01*
X184274211Y-52849523D01*
X184370184Y-53002262D01*
X184497738Y-53129816D01*
X184650478Y-53225789D01*
X184820745Y-53285368D01*
X184820750Y-53285369D01*
X184999996Y-53305565D01*
X185000000Y-53305565D01*
X185000004Y-53305565D01*
X185179249Y-53285369D01*
X185179252Y-53285368D01*
X185179255Y-53285368D01*
X185349522Y-53225789D01*
X185502262Y-53129816D01*
X185629816Y-53002262D01*
X185725789Y-52849522D01*
X185785368Y-52679255D01*
X185805565Y-52500000D01*
X185785368Y-52320745D01*
X185785367Y-52320742D01*
X185730855Y-52164954D01*
X185727294Y-52095176D01*
X185762023Y-52034548D01*
X185824016Y-52002321D01*
X185847897Y-52000000D01*
X186652103Y-52000000D01*
X186719142Y-52019685D01*
X186764897Y-52072489D01*
X186774841Y-52141647D01*
X186769145Y-52164954D01*
X186714632Y-52320742D01*
X186714630Y-52320750D01*
X186694435Y-52499996D01*
X186694435Y-52500003D01*
X186714630Y-52679249D01*
X186714631Y-52679254D01*
X186774211Y-52849523D01*
X186870184Y-53002262D01*
X186997738Y-53129816D01*
X187150478Y-53225789D01*
X187320745Y-53285368D01*
X187320750Y-53285369D01*
X187499996Y-53305565D01*
X187500000Y-53305565D01*
X187500004Y-53305565D01*
X187679249Y-53285369D01*
X187679252Y-53285368D01*
X187679255Y-53285368D01*
X187849522Y-53225789D01*
X188002262Y-53129816D01*
X188129816Y-53002262D01*
X188225789Y-52849522D01*
X188285368Y-52679255D01*
X188305565Y-52500000D01*
X188285368Y-52320745D01*
X188285367Y-52320742D01*
X188230855Y-52164954D01*
X188227294Y-52095176D01*
X188262023Y-52034548D01*
X188324016Y-52002321D01*
X188347897Y-52000000D01*
X189152103Y-52000000D01*
X189219142Y-52019685D01*
X189264897Y-52072489D01*
X189274841Y-52141647D01*
X189269145Y-52164954D01*
X189214632Y-52320742D01*
X189214630Y-52320750D01*
X189194435Y-52499996D01*
X189194435Y-52500003D01*
X189214630Y-52679249D01*
X189214631Y-52679254D01*
X189274211Y-52849523D01*
X189370184Y-53002262D01*
X189497738Y-53129816D01*
X189650478Y-53225789D01*
X189820745Y-53285368D01*
X189820750Y-53285369D01*
X189999996Y-53305565D01*
X190000000Y-53305565D01*
X190000004Y-53305565D01*
X190179249Y-53285369D01*
X190179252Y-53285368D01*
X190179255Y-53285368D01*
X190349522Y-53225789D01*
X190502262Y-53129816D01*
X190629816Y-53002262D01*
X190725789Y-52849522D01*
X190785368Y-52679255D01*
X190805565Y-52500000D01*
X190785368Y-52320745D01*
X190785367Y-52320742D01*
X190730855Y-52164954D01*
X190727294Y-52095176D01*
X190762023Y-52034548D01*
X190824016Y-52002321D01*
X190847897Y-52000000D01*
X191652103Y-52000000D01*
X191719142Y-52019685D01*
X191764897Y-52072489D01*
X191774841Y-52141647D01*
X191769145Y-52164954D01*
X191714632Y-52320742D01*
X191714630Y-52320750D01*
X191694435Y-52499996D01*
X191694435Y-52500003D01*
X191714630Y-52679249D01*
X191714631Y-52679254D01*
X191774211Y-52849523D01*
X191870184Y-53002262D01*
X191997738Y-53129816D01*
X192150478Y-53225789D01*
X192320745Y-53285368D01*
X192320750Y-53285369D01*
X192499996Y-53305565D01*
X192500000Y-53305565D01*
X192500004Y-53305565D01*
X192679249Y-53285369D01*
X192679252Y-53285368D01*
X192679255Y-53285368D01*
X192849522Y-53225789D01*
X193002262Y-53129816D01*
X193129816Y-53002262D01*
X193225789Y-52849522D01*
X193285368Y-52679255D01*
X193305565Y-52500000D01*
X193285368Y-52320745D01*
X193285367Y-52320742D01*
X193230855Y-52164954D01*
X193227294Y-52095176D01*
X193262023Y-52034548D01*
X193324016Y-52002321D01*
X193347897Y-52000000D01*
X194152103Y-52000000D01*
X194219142Y-52019685D01*
X194264897Y-52072489D01*
X194274841Y-52141647D01*
X194269145Y-52164954D01*
X194214632Y-52320742D01*
X194214630Y-52320750D01*
X194194435Y-52499996D01*
X194194435Y-52500003D01*
X194214630Y-52679249D01*
X194214631Y-52679254D01*
X194274211Y-52849523D01*
X194370184Y-53002262D01*
X194497738Y-53129816D01*
X194650478Y-53225789D01*
X194820745Y-53285368D01*
X194820750Y-53285369D01*
X194999996Y-53305565D01*
X195000000Y-53305565D01*
X195000004Y-53305565D01*
X195179249Y-53285369D01*
X195179252Y-53285368D01*
X195179255Y-53285368D01*
X195349522Y-53225789D01*
X195502262Y-53129816D01*
X195629816Y-53002262D01*
X195725789Y-52849522D01*
X195785368Y-52679255D01*
X195805565Y-52500000D01*
X195785368Y-52320745D01*
X195785367Y-52320742D01*
X195730855Y-52164954D01*
X195727294Y-52095176D01*
X195762023Y-52034548D01*
X195824016Y-52002321D01*
X195847897Y-52000000D01*
X203876000Y-52000000D01*
X203943039Y-52019685D01*
X203988794Y-52072489D01*
X204000000Y-52124000D01*
X204000000Y-83876000D01*
X203980315Y-83943039D01*
X203927511Y-83988794D01*
X203876000Y-84000000D01*
X184124000Y-84000000D01*
X184056961Y-83980315D01*
X184011206Y-83927511D01*
X184000000Y-83876000D01*
X184000000Y-82799996D01*
X189944435Y-82799996D01*
X189944435Y-82800003D01*
X189964630Y-82979249D01*
X189964631Y-82979254D01*
X190024211Y-83149523D01*
X190109569Y-83285368D01*
X190120184Y-83302262D01*
X190247738Y-83429816D01*
X190400478Y-83525789D01*
X190570745Y-83585368D01*
X190570750Y-83585369D01*
X190749996Y-83605565D01*
X190750000Y-83605565D01*
X190750004Y-83605565D01*
X190929249Y-83585369D01*
X190929252Y-83585368D01*
X190929255Y-83585368D01*
X191099522Y-83525789D01*
X191252262Y-83429816D01*
X191379816Y-83302262D01*
X191475789Y-83149522D01*
X191535368Y-82979255D01*
X191544820Y-82895368D01*
X191555565Y-82800003D01*
X191555565Y-82799996D01*
X191535369Y-82620750D01*
X191535368Y-82620745D01*
X191493117Y-82500000D01*
X191475789Y-82450478D01*
X191379816Y-82297738D01*
X191252262Y-82170184D01*
X191156480Y-82110000D01*
X191099523Y-82074211D01*
X190929254Y-82014631D01*
X190929249Y-82014630D01*
X190750004Y-81994435D01*
X190749996Y-81994435D01*
X190570750Y-82014630D01*
X190570745Y-82014631D01*
X190400476Y-82074211D01*
X190247737Y-82170184D01*
X190120184Y-82297737D01*
X190024211Y-82450476D01*
X189964631Y-82620745D01*
X189964630Y-82620750D01*
X189944435Y-82799996D01*
X184000000Y-82799996D01*
X184000000Y-81239996D01*
X199614435Y-81239996D01*
X199614435Y-81240003D01*
X199634630Y-81419249D01*
X199634631Y-81419254D01*
X199694211Y-81589523D01*
X199760132Y-81694435D01*
X199790184Y-81742262D01*
X199917738Y-81869816D01*
X200070478Y-81965789D01*
X200210063Y-82014632D01*
X200240745Y-82025368D01*
X200240750Y-82025369D01*
X200419996Y-82045565D01*
X200420000Y-82045565D01*
X200420004Y-82045565D01*
X200599249Y-82025369D01*
X200599252Y-82025368D01*
X200599255Y-82025368D01*
X200769522Y-81965789D01*
X200922262Y-81869816D01*
X201049816Y-81742262D01*
X201145789Y-81589522D01*
X201205368Y-81419255D01*
X201208405Y-81392301D01*
X201225565Y-81240003D01*
X201225565Y-81239996D01*
X201205369Y-81060750D01*
X201205368Y-81060745D01*
X201145788Y-80890476D01*
X201106582Y-80828080D01*
X201049816Y-80737738D01*
X200922262Y-80610184D01*
X200857549Y-80569522D01*
X200769523Y-80514211D01*
X200599254Y-80454631D01*
X200599249Y-80454630D01*
X200420004Y-80434435D01*
X200419996Y-80434435D01*
X200240750Y-80454630D01*
X200240745Y-80454631D01*
X200070476Y-80514211D01*
X199917737Y-80610184D01*
X199790184Y-80737737D01*
X199694211Y-80890476D01*
X199634631Y-81060745D01*
X199634630Y-81060750D01*
X199614435Y-81239996D01*
X184000000Y-81239996D01*
X184000000Y-77499996D01*
X191694435Y-77499996D01*
X191694435Y-77500003D01*
X191714630Y-77679249D01*
X191714631Y-77679254D01*
X191774211Y-77849523D01*
X191870184Y-78002262D01*
X191997738Y-78129816D01*
X192150478Y-78225789D01*
X192320745Y-78285368D01*
X192320750Y-78285369D01*
X192499996Y-78305565D01*
X192500000Y-78305565D01*
X192500004Y-78305565D01*
X192679249Y-78285369D01*
X192679252Y-78285368D01*
X192679255Y-78285368D01*
X192849522Y-78225789D01*
X193002262Y-78129816D01*
X193129816Y-78002262D01*
X193225789Y-77849522D01*
X193285368Y-77679255D01*
X193305565Y-77500000D01*
X193305565Y-77499996D01*
X194194435Y-77499996D01*
X194194435Y-77500003D01*
X194214630Y-77679249D01*
X194214631Y-77679254D01*
X194274211Y-77849523D01*
X194370184Y-78002262D01*
X194497738Y-78129816D01*
X194650478Y-78225789D01*
X194820745Y-78285368D01*
X194820750Y-78285369D01*
X194999996Y-78305565D01*
X195000000Y-78305565D01*
X195000004Y-78305565D01*
X195179249Y-78285369D01*
X195179252Y-78285368D01*
X195179255Y-78285368D01*
X195349522Y-78225789D01*
X195502262Y-78129816D01*
X195629816Y-78002262D01*
X195725789Y-77849522D01*
X195785368Y-77679255D01*
X195805565Y-77500000D01*
X195805565Y-77499996D01*
X196694435Y-77499996D01*
X196694435Y-77500003D01*
X196714630Y-77679249D01*
X196714631Y-77679254D01*
X196774211Y-77849523D01*
X196870184Y-78002262D01*
X196997738Y-78129816D01*
X197150478Y-78225789D01*
X197320745Y-78285368D01*
X197320750Y-78285369D01*
X197499996Y-78305565D01*
X197500000Y-78305565D01*
X197500004Y-78305565D01*
X197679249Y-78285369D01*
X197679252Y-78285368D01*
X197679255Y-78285368D01*
X197849522Y-78225789D01*
X198002262Y-78129816D01*
X198129816Y-78002262D01*
X198225789Y-77849522D01*
X198285368Y-77679255D01*
X198305565Y-77500000D01*
X198305565Y-77499996D01*
X199194435Y-77499996D01*
X199194435Y-77500003D01*
X199214630Y-77679249D01*
X199214631Y-77679254D01*
X199274211Y-77849523D01*
X199370184Y-78002262D01*
X199497738Y-78129816D01*
X199650478Y-78225789D01*
X199820745Y-78285368D01*
X199820750Y-78285369D01*
X199999996Y-78305565D01*
X200000000Y-78305565D01*
X200000004Y-78305565D01*
X200179249Y-78285369D01*
X200179252Y-78285368D01*
X200179255Y-78285368D01*
X200349522Y-78225789D01*
X200502262Y-78129816D01*
X200629816Y-78002262D01*
X200725789Y-77849522D01*
X200785368Y-77679255D01*
X200805565Y-77500000D01*
X200785368Y-77320745D01*
X200725789Y-77150478D01*
X200629816Y-76997738D01*
X200502262Y-76870184D01*
X200349523Y-76774211D01*
X200179254Y-76714631D01*
X200179249Y-76714630D01*
X200000004Y-76694435D01*
X199999996Y-76694435D01*
X199820750Y-76714630D01*
X199820745Y-76714631D01*
X199650476Y-76774211D01*
X199497737Y-76870184D01*
X199370184Y-76997737D01*
X199274211Y-77150476D01*
X199214631Y-77320745D01*
X199214630Y-77320750D01*
X199194435Y-77499996D01*
X198305565Y-77499996D01*
X198285368Y-77320745D01*
X198225789Y-77150478D01*
X198129816Y-76997738D01*
X198002262Y-76870184D01*
X197849523Y-76774211D01*
X197679254Y-76714631D01*
X197679249Y-76714630D01*
X197500004Y-76694435D01*
X197499996Y-76694435D01*
X197320750Y-76714630D01*
X197320745Y-76714631D01*
X197150476Y-76774211D01*
X196997737Y-76870184D01*
X196870184Y-76997737D01*
X196774211Y-77150476D01*
X196714631Y-77320745D01*
X196714630Y-77320750D01*
X196694435Y-77499996D01*
X195805565Y-77499996D01*
X195785368Y-77320745D01*
X195725789Y-77150478D01*
X195629816Y-76997738D01*
X195502262Y-76870184D01*
X195349523Y-76774211D01*
X195179254Y-76714631D01*
X195179249Y-76714630D01*
X195000004Y-76694435D01*
X194999996Y-76694435D01*
X194820750Y-76714630D01*
X194820745Y-76714631D01*
X194650476Y-76774211D01*
X194497737Y-76870184D01*
X194370184Y-76997737D01*
X194274211Y-77150476D01*
X194214631Y-77320745D01*
X194214630Y-77320750D01*
X194194435Y-77499996D01*
X193305565Y-77499996D01*
X193285368Y-77320745D01*
X193225789Y-77150478D01*
X193129816Y-76997738D01*
X193002262Y-76870184D01*
X192849523Y-76774211D01*
X192679254Y-76714631D01*
X192679249Y-76714630D01*
X192500004Y-76694435D01*
X192499996Y-76694435D01*
X192320750Y-76714630D01*
X192320745Y-76714631D01*
X192150476Y-76774211D01*
X191997737Y-76870184D01*
X191870184Y-76997737D01*
X191774211Y-77150476D01*
X191714631Y-77320745D01*
X191714630Y-77320750D01*
X191694435Y-77499996D01*
X184000000Y-77499996D01*
X184000000Y-75369996D01*
X190644435Y-75369996D01*
X190644435Y-75370003D01*
X190664630Y-75549249D01*
X190664631Y-75549254D01*
X190724211Y-75719523D01*
X190765585Y-75785369D01*
X190820184Y-75872262D01*
X190947738Y-75999816D01*
X191100478Y-76095789D01*
X191270745Y-76155368D01*
X191270750Y-76155369D01*
X191449996Y-76175565D01*
X191450000Y-76175565D01*
X191450004Y-76175565D01*
X191629249Y-76155369D01*
X191629252Y-76155368D01*
X191629255Y-76155368D01*
X191799522Y-76095789D01*
X191952262Y-75999816D01*
X192079816Y-75872262D01*
X192175789Y-75719522D01*
X192235368Y-75549255D01*
X192255565Y-75370000D01*
X192235368Y-75190745D01*
X192175789Y-75020478D01*
X192162919Y-74999996D01*
X194194435Y-74999996D01*
X194194435Y-75000003D01*
X194214630Y-75179249D01*
X194214631Y-75179254D01*
X194274211Y-75349523D01*
X194287078Y-75370000D01*
X194370184Y-75502262D01*
X194497738Y-75629816D01*
X194588080Y-75686582D01*
X194640505Y-75719523D01*
X194650478Y-75725789D01*
X194820745Y-75785368D01*
X194820750Y-75785369D01*
X194999996Y-75805565D01*
X195000000Y-75805565D01*
X195000004Y-75805565D01*
X195179249Y-75785369D01*
X195179252Y-75785368D01*
X195179255Y-75785368D01*
X195349522Y-75725789D01*
X195502262Y-75629816D01*
X195629816Y-75502262D01*
X195725789Y-75349522D01*
X195785368Y-75179255D01*
X195805565Y-75000000D01*
X195805565Y-74999996D01*
X196694435Y-74999996D01*
X196694435Y-75000003D01*
X196714630Y-75179249D01*
X196714631Y-75179254D01*
X196774211Y-75349523D01*
X196787078Y-75370000D01*
X196870184Y-75502262D01*
X196997738Y-75629816D01*
X197088080Y-75686582D01*
X197140505Y-75719523D01*
X197150478Y-75725789D01*
X197320745Y-75785368D01*
X197320750Y-75785369D01*
X197499996Y-75805565D01*
X197500000Y-75805565D01*
X197500004Y-75805565D01*
X197679249Y-75785369D01*
X197679252Y-75785368D01*
X197679255Y-75785368D01*
X197849522Y-75725789D01*
X198002262Y-75629816D01*
X198129816Y-75502262D01*
X198225789Y-75349522D01*
X198285368Y-75179255D01*
X198305565Y-75000000D01*
X198305565Y-74999996D01*
X199194435Y-74999996D01*
X199194435Y-75000003D01*
X199214630Y-75179249D01*
X199214631Y-75179254D01*
X199274211Y-75349523D01*
X199287078Y-75370000D01*
X199370184Y-75502262D01*
X199497738Y-75629816D01*
X199588080Y-75686582D01*
X199640505Y-75719523D01*
X199650478Y-75725789D01*
X199820745Y-75785368D01*
X199820750Y-75785369D01*
X199999996Y-75805565D01*
X200000000Y-75805565D01*
X200000004Y-75805565D01*
X200179249Y-75785369D01*
X200179252Y-75785368D01*
X200179255Y-75785368D01*
X200349522Y-75725789D01*
X200502262Y-75629816D01*
X200629816Y-75502262D01*
X200725789Y-75349522D01*
X200785368Y-75179255D01*
X200805565Y-75000000D01*
X200785368Y-74820745D01*
X200725789Y-74650478D01*
X200629816Y-74497738D01*
X200502262Y-74370184D01*
X200349523Y-74274211D01*
X200179254Y-74214631D01*
X200179249Y-74214630D01*
X200000004Y-74194435D01*
X199999996Y-74194435D01*
X199820750Y-74214630D01*
X199820745Y-74214631D01*
X199650476Y-74274211D01*
X199497737Y-74370184D01*
X199370184Y-74497737D01*
X199274211Y-74650476D01*
X199214631Y-74820745D01*
X199214630Y-74820750D01*
X199194435Y-74999996D01*
X198305565Y-74999996D01*
X198285368Y-74820745D01*
X198225789Y-74650478D01*
X198129816Y-74497738D01*
X198002262Y-74370184D01*
X197849523Y-74274211D01*
X197679254Y-74214631D01*
X197679249Y-74214630D01*
X197500004Y-74194435D01*
X197499996Y-74194435D01*
X197320750Y-74214630D01*
X197320745Y-74214631D01*
X197150476Y-74274211D01*
X196997737Y-74370184D01*
X196870184Y-74497737D01*
X196774211Y-74650476D01*
X196714631Y-74820745D01*
X196714630Y-74820750D01*
X196694435Y-74999996D01*
X195805565Y-74999996D01*
X195785368Y-74820745D01*
X195725789Y-74650478D01*
X195629816Y-74497738D01*
X195502262Y-74370184D01*
X195349523Y-74274211D01*
X195179254Y-74214631D01*
X195179249Y-74214630D01*
X195000004Y-74194435D01*
X194999996Y-74194435D01*
X194820750Y-74214630D01*
X194820745Y-74214631D01*
X194650476Y-74274211D01*
X194497737Y-74370184D01*
X194370184Y-74497737D01*
X194274211Y-74650476D01*
X194214631Y-74820745D01*
X194214630Y-74820750D01*
X194194435Y-74999996D01*
X192162919Y-74999996D01*
X192079816Y-74867738D01*
X191952262Y-74740184D01*
X191799523Y-74644211D01*
X191629254Y-74584631D01*
X191629249Y-74584630D01*
X191450004Y-74564435D01*
X191449996Y-74564435D01*
X191270750Y-74584630D01*
X191270745Y-74584631D01*
X191100476Y-74644211D01*
X190947737Y-74740184D01*
X190820184Y-74867737D01*
X190724211Y-75020476D01*
X190664631Y-75190745D01*
X190664630Y-75190750D01*
X190644435Y-75369996D01*
X184000000Y-75369996D01*
X184000000Y-72499996D01*
X189194435Y-72499996D01*
X189194435Y-72500003D01*
X189214630Y-72679249D01*
X189214631Y-72679254D01*
X189274211Y-72849523D01*
X189370184Y-73002262D01*
X189497738Y-73129816D01*
X189650478Y-73225789D01*
X189820745Y-73285368D01*
X189820750Y-73285369D01*
X189999996Y-73305565D01*
X190000000Y-73305565D01*
X190000004Y-73305565D01*
X190179249Y-73285369D01*
X190179252Y-73285368D01*
X190179255Y-73285368D01*
X190349522Y-73225789D01*
X190502262Y-73129816D01*
X190629816Y-73002262D01*
X190725789Y-72849522D01*
X190785368Y-72679255D01*
X190805565Y-72500000D01*
X190805565Y-72499996D01*
X191694435Y-72499996D01*
X191694435Y-72500003D01*
X191714630Y-72679249D01*
X191714631Y-72679254D01*
X191774211Y-72849523D01*
X191870184Y-73002262D01*
X191997738Y-73129816D01*
X192150478Y-73225789D01*
X192320745Y-73285368D01*
X192320750Y-73285369D01*
X192499996Y-73305565D01*
X192500000Y-73305565D01*
X192500004Y-73305565D01*
X192679249Y-73285369D01*
X192679252Y-73285368D01*
X192679255Y-73285368D01*
X192849522Y-73225789D01*
X193002262Y-73129816D01*
X193129816Y-73002262D01*
X193225789Y-72849522D01*
X193285368Y-72679255D01*
X193305565Y-72500000D01*
X193305565Y-72499996D01*
X194194435Y-72499996D01*
X194194435Y-72500003D01*
X194214630Y-72679249D01*
X194214631Y-72679254D01*
X194274211Y-72849523D01*
X194370184Y-73002262D01*
X194497738Y-73129816D01*
X194650478Y-73225789D01*
X194820745Y-73285368D01*
X194820750Y-73285369D01*
X194999996Y-73305565D01*
X195000000Y-73305565D01*
X195000004Y-73305565D01*
X195179249Y-73285369D01*
X195179252Y-73285368D01*
X195179255Y-73285368D01*
X195349522Y-73225789D01*
X195502262Y-73129816D01*
X195629816Y-73002262D01*
X195725789Y-72849522D01*
X195785368Y-72679255D01*
X195805565Y-72500000D01*
X195805565Y-72499996D01*
X196694435Y-72499996D01*
X196694435Y-72500003D01*
X196714630Y-72679249D01*
X196714631Y-72679254D01*
X196774211Y-72849523D01*
X196870184Y-73002262D01*
X196997738Y-73129816D01*
X197150478Y-73225789D01*
X197320745Y-73285368D01*
X197320750Y-73285369D01*
X197499996Y-73305565D01*
X197500000Y-73305565D01*
X197500004Y-73305565D01*
X197679249Y-73285369D01*
X197679252Y-73285368D01*
X197679255Y-73285368D01*
X197849522Y-73225789D01*
X198002262Y-73129816D01*
X198129816Y-73002262D01*
X198225789Y-72849522D01*
X198285368Y-72679255D01*
X198305565Y-72500000D01*
X198305565Y-72499996D01*
X199194435Y-72499996D01*
X199194435Y-72500003D01*
X199214630Y-72679249D01*
X199214631Y-72679254D01*
X199274211Y-72849523D01*
X199370184Y-73002262D01*
X199497738Y-73129816D01*
X199650478Y-73225789D01*
X199820745Y-73285368D01*
X199820750Y-73285369D01*
X199999996Y-73305565D01*
X200000000Y-73305565D01*
X200000004Y-73305565D01*
X200179249Y-73285369D01*
X200179252Y-73285368D01*
X200179255Y-73285368D01*
X200349522Y-73225789D01*
X200502262Y-73129816D01*
X200629816Y-73002262D01*
X200725789Y-72849522D01*
X200785368Y-72679255D01*
X200805565Y-72500000D01*
X200785368Y-72320745D01*
X200725789Y-72150478D01*
X200629816Y-71997738D01*
X200502262Y-71870184D01*
X200349523Y-71774211D01*
X200179254Y-71714631D01*
X200179249Y-71714630D01*
X200000004Y-71694435D01*
X199999996Y-71694435D01*
X199820750Y-71714630D01*
X199820745Y-71714631D01*
X199650476Y-71774211D01*
X199497737Y-71870184D01*
X199370184Y-71997737D01*
X199274211Y-72150476D01*
X199214631Y-72320745D01*
X199214630Y-72320750D01*
X199194435Y-72499996D01*
X198305565Y-72499996D01*
X198285368Y-72320745D01*
X198225789Y-72150478D01*
X198129816Y-71997738D01*
X198002262Y-71870184D01*
X197849523Y-71774211D01*
X197679254Y-71714631D01*
X197679249Y-71714630D01*
X197500004Y-71694435D01*
X197499996Y-71694435D01*
X197320750Y-71714630D01*
X197320745Y-71714631D01*
X197150476Y-71774211D01*
X196997737Y-71870184D01*
X196870184Y-71997737D01*
X196774211Y-72150476D01*
X196714631Y-72320745D01*
X196714630Y-72320750D01*
X196694435Y-72499996D01*
X195805565Y-72499996D01*
X195785368Y-72320745D01*
X195725789Y-72150478D01*
X195629816Y-71997738D01*
X195502262Y-71870184D01*
X195349523Y-71774211D01*
X195179254Y-71714631D01*
X195179249Y-71714630D01*
X195000004Y-71694435D01*
X194999996Y-71694435D01*
X194820750Y-71714630D01*
X194820745Y-71714631D01*
X194650476Y-71774211D01*
X194497737Y-71870184D01*
X194370184Y-71997737D01*
X194274211Y-72150476D01*
X194214631Y-72320745D01*
X194214630Y-72320750D01*
X194194435Y-72499996D01*
X193305565Y-72499996D01*
X193285368Y-72320745D01*
X193225789Y-72150478D01*
X193129816Y-71997738D01*
X193002262Y-71870184D01*
X192849523Y-71774211D01*
X192679254Y-71714631D01*
X192679249Y-71714630D01*
X192500004Y-71694435D01*
X192499996Y-71694435D01*
X192320750Y-71714630D01*
X192320745Y-71714631D01*
X192150476Y-71774211D01*
X191997737Y-71870184D01*
X191870184Y-71997737D01*
X191774211Y-72150476D01*
X191714631Y-72320745D01*
X191714630Y-72320750D01*
X191694435Y-72499996D01*
X190805565Y-72499996D01*
X190785368Y-72320745D01*
X190725789Y-72150478D01*
X190629816Y-71997738D01*
X190502262Y-71870184D01*
X190349523Y-71774211D01*
X190179254Y-71714631D01*
X190179249Y-71714630D01*
X190000004Y-71694435D01*
X189999996Y-71694435D01*
X189820750Y-71714630D01*
X189820745Y-71714631D01*
X189650476Y-71774211D01*
X189497737Y-71870184D01*
X189370184Y-71997737D01*
X189274211Y-72150476D01*
X189214631Y-72320745D01*
X189214630Y-72320750D01*
X189194435Y-72499996D01*
X184000000Y-72499996D01*
X184000000Y-71000000D01*
X159124000Y-71000000D01*
X159056961Y-70980315D01*
X159011206Y-70927511D01*
X159000000Y-70876000D01*
X159000000Y-69569996D01*
X174704435Y-69569996D01*
X174704435Y-69570003D01*
X174724630Y-69749249D01*
X174724631Y-69749254D01*
X174784211Y-69919523D01*
X174880184Y-70072262D01*
X175007738Y-70199816D01*
X175160478Y-70295789D01*
X175314038Y-70349522D01*
X175330745Y-70355368D01*
X175330750Y-70355369D01*
X175509996Y-70375565D01*
X175510000Y-70375565D01*
X175510004Y-70375565D01*
X175689249Y-70355369D01*
X175689252Y-70355368D01*
X175689255Y-70355368D01*
X175859522Y-70295789D01*
X176012262Y-70199816D01*
X176139816Y-70072262D01*
X176185224Y-69999996D01*
X186694435Y-69999996D01*
X186694435Y-70000003D01*
X186714630Y-70179249D01*
X186714631Y-70179254D01*
X186774211Y-70349523D01*
X186870184Y-70502262D01*
X186997738Y-70629816D01*
X187150478Y-70725789D01*
X187320745Y-70785368D01*
X187320750Y-70785369D01*
X187499996Y-70805565D01*
X187500000Y-70805565D01*
X187500004Y-70805565D01*
X187679249Y-70785369D01*
X187679252Y-70785368D01*
X187679255Y-70785368D01*
X187849522Y-70725789D01*
X188002262Y-70629816D01*
X188129816Y-70502262D01*
X188225789Y-70349522D01*
X188285368Y-70179255D01*
X188305565Y-70000000D01*
X188305565Y-69999996D01*
X189194435Y-69999996D01*
X189194435Y-70000003D01*
X189214630Y-70179249D01*
X189214631Y-70179254D01*
X189274211Y-70349523D01*
X189370184Y-70502262D01*
X189497738Y-70629816D01*
X189650478Y-70725789D01*
X189820745Y-70785368D01*
X189820750Y-70785369D01*
X189999996Y-70805565D01*
X190000000Y-70805565D01*
X190000004Y-70805565D01*
X190179249Y-70785369D01*
X190179252Y-70785368D01*
X190179255Y-70785368D01*
X190349522Y-70725789D01*
X190502262Y-70629816D01*
X190629816Y-70502262D01*
X190725789Y-70349522D01*
X190785368Y-70179255D01*
X190805565Y-70000000D01*
X190796497Y-69919522D01*
X190785369Y-69820750D01*
X190785368Y-69820745D01*
X190766060Y-69765565D01*
X190725789Y-69650478D01*
X190629816Y-69497738D01*
X190502262Y-69370184D01*
X190405721Y-69309523D01*
X190349523Y-69274211D01*
X190179254Y-69214631D01*
X190179249Y-69214630D01*
X190000004Y-69194435D01*
X189999996Y-69194435D01*
X189820750Y-69214630D01*
X189820745Y-69214631D01*
X189650476Y-69274211D01*
X189497737Y-69370184D01*
X189370184Y-69497737D01*
X189274211Y-69650476D01*
X189214631Y-69820745D01*
X189214630Y-69820750D01*
X189194435Y-69999996D01*
X188305565Y-69999996D01*
X188296497Y-69919522D01*
X188285369Y-69820750D01*
X188285368Y-69820745D01*
X188266060Y-69765565D01*
X188225789Y-69650478D01*
X188129816Y-69497738D01*
X188002262Y-69370184D01*
X187905721Y-69309523D01*
X187849523Y-69274211D01*
X187679254Y-69214631D01*
X187679249Y-69214630D01*
X187500004Y-69194435D01*
X187499996Y-69194435D01*
X187320750Y-69214630D01*
X187320745Y-69214631D01*
X187150476Y-69274211D01*
X186997737Y-69370184D01*
X186870184Y-69497737D01*
X186774211Y-69650476D01*
X186714631Y-69820745D01*
X186714630Y-69820750D01*
X186694435Y-69999996D01*
X176185224Y-69999996D01*
X176235789Y-69919522D01*
X176295368Y-69749255D01*
X176302519Y-69685788D01*
X176315565Y-69570003D01*
X176315565Y-69569996D01*
X176295369Y-69390750D01*
X176295368Y-69390745D01*
X176235788Y-69220476D01*
X176184753Y-69139255D01*
X176139816Y-69067738D01*
X176032074Y-68959996D01*
X180834435Y-68959996D01*
X180834435Y-68960003D01*
X180854630Y-69139249D01*
X180854631Y-69139254D01*
X180914211Y-69309523D01*
X180952327Y-69370184D01*
X181010184Y-69462262D01*
X181137738Y-69589816D01*
X181290478Y-69685789D01*
X181460745Y-69745368D01*
X181460750Y-69745369D01*
X181639996Y-69765565D01*
X181640000Y-69765565D01*
X181640004Y-69765565D01*
X181819249Y-69745369D01*
X181819252Y-69745368D01*
X181819255Y-69745368D01*
X181989522Y-69685789D01*
X182142262Y-69589816D01*
X182269816Y-69462262D01*
X182365789Y-69309522D01*
X182425368Y-69139255D01*
X182445565Y-68960000D01*
X182443332Y-68940184D01*
X182425369Y-68780750D01*
X182425368Y-68780745D01*
X182365788Y-68610476D01*
X182269815Y-68457737D01*
X182142262Y-68330184D01*
X181989523Y-68234211D01*
X181819254Y-68174631D01*
X181819249Y-68174630D01*
X181640004Y-68154435D01*
X181639996Y-68154435D01*
X181460750Y-68174630D01*
X181460745Y-68174631D01*
X181290476Y-68234211D01*
X181137737Y-68330184D01*
X181010184Y-68457737D01*
X180914211Y-68610476D01*
X180854631Y-68780745D01*
X180854630Y-68780750D01*
X180834435Y-68959996D01*
X176032074Y-68959996D01*
X176012262Y-68940184D01*
X175859523Y-68844211D01*
X175689254Y-68784631D01*
X175689249Y-68784630D01*
X175510004Y-68764435D01*
X175509996Y-68764435D01*
X175330750Y-68784630D01*
X175330745Y-68784631D01*
X175160476Y-68844211D01*
X175007737Y-68940184D01*
X174880184Y-69067737D01*
X174784211Y-69220476D01*
X174724631Y-69390745D01*
X174724630Y-69390750D01*
X174704435Y-69569996D01*
X159000000Y-69569996D01*
X159000000Y-67795685D01*
X159019685Y-67728646D01*
X159072489Y-67682891D01*
X159141647Y-67672947D01*
X159205203Y-67701972D01*
X159241042Y-67754731D01*
X159274210Y-67849521D01*
X159313482Y-67912022D01*
X159370184Y-68002262D01*
X159497738Y-68129816D01*
X159650478Y-68225789D01*
X159674547Y-68234211D01*
X159820745Y-68285368D01*
X159820750Y-68285369D01*
X159999996Y-68305565D01*
X160000000Y-68305565D01*
X160000004Y-68305565D01*
X160179249Y-68285369D01*
X160179252Y-68285368D01*
X160179255Y-68285368D01*
X160349522Y-68225789D01*
X160502262Y-68129816D01*
X160629816Y-68002262D01*
X160725789Y-67849522D01*
X160785368Y-67679255D01*
X160786079Y-67672947D01*
X160805565Y-67500003D01*
X160805565Y-67499996D01*
X160787537Y-67339996D01*
X162404435Y-67339996D01*
X162404435Y-67340003D01*
X162424630Y-67519249D01*
X162424631Y-67519254D01*
X162484211Y-67689523D01*
X162550918Y-67795685D01*
X162580184Y-67842262D01*
X162707738Y-67969816D01*
X162798080Y-68026582D01*
X162858843Y-68064762D01*
X162860478Y-68065789D01*
X163030745Y-68125368D01*
X163030750Y-68125369D01*
X163209996Y-68145565D01*
X163210000Y-68145565D01*
X163210004Y-68145565D01*
X163389249Y-68125369D01*
X163389252Y-68125368D01*
X163389255Y-68125368D01*
X163559522Y-68065789D01*
X163712262Y-67969816D01*
X163839816Y-67842262D01*
X163935789Y-67689522D01*
X163995368Y-67519255D01*
X163996495Y-67509254D01*
X164015565Y-67340003D01*
X164015565Y-67339996D01*
X164014438Y-67329996D01*
X166784435Y-67329996D01*
X166784435Y-67330003D01*
X166804630Y-67509249D01*
X166804631Y-67509254D01*
X166864211Y-67679523D01*
X166911468Y-67754731D01*
X166960184Y-67832262D01*
X167087738Y-67959816D01*
X167240478Y-68055789D01*
X167410745Y-68115368D01*
X167410750Y-68115369D01*
X167589996Y-68135565D01*
X167590000Y-68135565D01*
X167590004Y-68135565D01*
X167769249Y-68115369D01*
X167769252Y-68115368D01*
X167769255Y-68115368D01*
X167939522Y-68055789D01*
X168092262Y-67959816D01*
X168219816Y-67832262D01*
X168315789Y-67679522D01*
X168375368Y-67509255D01*
X168375369Y-67509249D01*
X168395565Y-67330003D01*
X168395565Y-67329996D01*
X168375369Y-67150750D01*
X168375368Y-67150745D01*
X168332856Y-67029254D01*
X168315789Y-66980478D01*
X168233802Y-66849996D01*
X175424435Y-66849996D01*
X175424435Y-66850003D01*
X175444630Y-67029249D01*
X175444631Y-67029254D01*
X175504211Y-67199523D01*
X175580384Y-67320750D01*
X175600184Y-67352262D01*
X175727738Y-67479816D01*
X175774590Y-67509255D01*
X175859328Y-67562500D01*
X175880478Y-67575789D01*
X176050745Y-67635368D01*
X176050750Y-67635369D01*
X176229996Y-67655565D01*
X176230000Y-67655565D01*
X176230004Y-67655565D01*
X176409249Y-67635369D01*
X176409252Y-67635368D01*
X176409255Y-67635368D01*
X176579522Y-67575789D01*
X176600678Y-67562496D01*
X192925835Y-67562496D01*
X192925835Y-67562503D01*
X192946030Y-67741749D01*
X192946031Y-67741754D01*
X193005611Y-67912023D01*
X193095945Y-68055788D01*
X193101584Y-68064762D01*
X193229138Y-68192316D01*
X193319480Y-68249082D01*
X193377230Y-68285369D01*
X193381878Y-68288289D01*
X193501607Y-68330184D01*
X193552145Y-68347868D01*
X193552150Y-68347869D01*
X193731396Y-68368065D01*
X193731400Y-68368065D01*
X193731404Y-68368065D01*
X193910649Y-68347869D01*
X193910652Y-68347868D01*
X193910655Y-68347868D01*
X194080922Y-68288289D01*
X194233662Y-68192316D01*
X194361216Y-68064762D01*
X194457189Y-67912022D01*
X194516768Y-67741755D01*
X194518245Y-67728646D01*
X194536965Y-67562503D01*
X194536965Y-67562496D01*
X194529923Y-67499996D01*
X201694435Y-67499996D01*
X201694435Y-67500003D01*
X201714630Y-67679249D01*
X201714631Y-67679254D01*
X201774211Y-67849523D01*
X201813482Y-67912022D01*
X201870184Y-68002262D01*
X201997738Y-68129816D01*
X202150478Y-68225789D01*
X202174547Y-68234211D01*
X202320745Y-68285368D01*
X202320750Y-68285369D01*
X202499996Y-68305565D01*
X202500000Y-68305565D01*
X202500004Y-68305565D01*
X202679249Y-68285369D01*
X202679252Y-68285368D01*
X202679255Y-68285368D01*
X202849522Y-68225789D01*
X203002262Y-68129816D01*
X203129816Y-68002262D01*
X203225789Y-67849522D01*
X203285368Y-67679255D01*
X203286079Y-67672947D01*
X203305565Y-67500003D01*
X203305565Y-67499996D01*
X203285369Y-67320750D01*
X203285368Y-67320745D01*
X203244627Y-67204314D01*
X203225789Y-67150478D01*
X203129816Y-66997738D01*
X203002262Y-66870184D01*
X202970144Y-66850003D01*
X202849523Y-66774211D01*
X202679254Y-66714631D01*
X202679249Y-66714630D01*
X202500004Y-66694435D01*
X202499996Y-66694435D01*
X202320750Y-66714630D01*
X202320745Y-66714631D01*
X202150476Y-66774211D01*
X201997737Y-66870184D01*
X201870184Y-66997737D01*
X201774211Y-67150476D01*
X201714631Y-67320745D01*
X201714630Y-67320750D01*
X201694435Y-67499996D01*
X194529923Y-67499996D01*
X194516769Y-67383250D01*
X194516768Y-67383245D01*
X194501636Y-67340000D01*
X194457189Y-67212978D01*
X194361216Y-67060238D01*
X194233662Y-66932684D01*
X194213181Y-66919815D01*
X194080923Y-66836711D01*
X193910654Y-66777131D01*
X193910649Y-66777130D01*
X193731404Y-66756935D01*
X193731396Y-66756935D01*
X193552150Y-66777130D01*
X193552145Y-66777131D01*
X193381876Y-66836711D01*
X193229137Y-66932684D01*
X193101584Y-67060237D01*
X193005611Y-67212976D01*
X192946031Y-67383245D01*
X192946030Y-67383250D01*
X192925835Y-67562496D01*
X176600678Y-67562496D01*
X176732262Y-67479816D01*
X176859816Y-67352262D01*
X176955789Y-67199522D01*
X177015368Y-67029255D01*
X177015369Y-67029249D01*
X177035565Y-66850003D01*
X177035565Y-66849996D01*
X177015369Y-66670750D01*
X177015368Y-66670745D01*
X176974738Y-66554631D01*
X176955789Y-66500478D01*
X176936166Y-66469249D01*
X176873804Y-66370000D01*
X176873801Y-66369996D01*
X180684435Y-66369996D01*
X180684435Y-66370003D01*
X180704630Y-66549249D01*
X180704631Y-66549254D01*
X180764211Y-66719523D01*
X180832207Y-66827737D01*
X180860184Y-66872262D01*
X180987738Y-66999816D01*
X181034590Y-67029255D01*
X181140121Y-67095565D01*
X181140478Y-67095789D01*
X181296770Y-67150478D01*
X181310745Y-67155368D01*
X181310750Y-67155369D01*
X181489996Y-67175565D01*
X181490000Y-67175565D01*
X181490004Y-67175565D01*
X181669249Y-67155369D01*
X181669252Y-67155368D01*
X181669255Y-67155368D01*
X181839522Y-67095789D01*
X181992262Y-66999816D01*
X182119816Y-66872262D01*
X182215789Y-66719522D01*
X182275368Y-66549255D01*
X182284382Y-66469254D01*
X182295565Y-66370003D01*
X182295565Y-66369996D01*
X182286551Y-66289996D01*
X199335835Y-66289996D01*
X199335835Y-66290003D01*
X199356030Y-66469249D01*
X199356031Y-66469254D01*
X199415611Y-66639523D01*
X199502077Y-66777132D01*
X199511584Y-66792262D01*
X199639138Y-66919816D01*
X199729480Y-66976582D01*
X199766455Y-66999815D01*
X199791878Y-67015789D01*
X199830359Y-67029254D01*
X199962145Y-67075368D01*
X199962150Y-67075369D01*
X200141396Y-67095565D01*
X200141400Y-67095565D01*
X200141404Y-67095565D01*
X200320649Y-67075369D01*
X200320652Y-67075368D01*
X200320655Y-67075368D01*
X200490922Y-67015789D01*
X200643662Y-66919816D01*
X200771216Y-66792262D01*
X200867189Y-66639522D01*
X200926768Y-66469255D01*
X200937951Y-66370003D01*
X200946965Y-66290003D01*
X200946965Y-66289996D01*
X200926769Y-66110750D01*
X200926768Y-66110745D01*
X200895182Y-66020478D01*
X200867189Y-65940478D01*
X200771216Y-65787738D01*
X200643662Y-65660184D01*
X200595330Y-65629815D01*
X200490923Y-65564211D01*
X200320654Y-65504631D01*
X200320649Y-65504630D01*
X200141404Y-65484435D01*
X200141396Y-65484435D01*
X199962150Y-65504630D01*
X199962145Y-65504631D01*
X199791876Y-65564211D01*
X199639137Y-65660184D01*
X199511584Y-65787737D01*
X199415611Y-65940476D01*
X199356031Y-66110745D01*
X199356030Y-66110750D01*
X199335835Y-66289996D01*
X182286551Y-66289996D01*
X182275369Y-66190750D01*
X182275368Y-66190745D01*
X182252087Y-66124211D01*
X182215789Y-66020478D01*
X182119816Y-65867738D01*
X181992262Y-65740184D01*
X181969351Y-65725788D01*
X181839523Y-65644211D01*
X181669254Y-65584631D01*
X181669249Y-65584630D01*
X181490004Y-65564435D01*
X181489996Y-65564435D01*
X181310750Y-65584630D01*
X181310745Y-65584631D01*
X181140476Y-65644211D01*
X180987737Y-65740184D01*
X180860184Y-65867737D01*
X180764211Y-66020476D01*
X180704631Y-66190745D01*
X180704630Y-66190750D01*
X180684435Y-66369996D01*
X176873801Y-66369996D01*
X176859816Y-66347738D01*
X176732262Y-66220184D01*
X176685410Y-66190745D01*
X176579523Y-66124211D01*
X176409254Y-66064631D01*
X176409249Y-66064630D01*
X176230004Y-66044435D01*
X176229996Y-66044435D01*
X176050750Y-66064630D01*
X176050745Y-66064631D01*
X175880476Y-66124211D01*
X175727737Y-66220184D01*
X175600184Y-66347737D01*
X175504211Y-66500476D01*
X175444631Y-66670745D01*
X175444630Y-66670750D01*
X175424435Y-66849996D01*
X168233802Y-66849996D01*
X168219816Y-66827738D01*
X168092262Y-66700184D01*
X167995721Y-66639523D01*
X167939523Y-66604211D01*
X167769254Y-66544631D01*
X167769249Y-66544630D01*
X167590004Y-66524435D01*
X167589996Y-66524435D01*
X167410750Y-66544630D01*
X167410745Y-66544631D01*
X167240476Y-66604211D01*
X167087737Y-66700184D01*
X166960184Y-66827737D01*
X166864211Y-66980476D01*
X166804631Y-67150745D01*
X166804630Y-67150750D01*
X166784435Y-67329996D01*
X164014438Y-67329996D01*
X163995369Y-67160750D01*
X163995368Y-67160745D01*
X163993487Y-67155369D01*
X163935789Y-66990478D01*
X163929504Y-66980476D01*
X163860203Y-66870184D01*
X163839816Y-66837738D01*
X163712262Y-66710184D01*
X163687198Y-66694435D01*
X163559523Y-66614211D01*
X163389254Y-66554631D01*
X163389249Y-66554630D01*
X163210004Y-66534435D01*
X163209996Y-66534435D01*
X163030750Y-66554630D01*
X163030745Y-66554631D01*
X162860476Y-66614211D01*
X162707737Y-66710184D01*
X162580184Y-66837737D01*
X162484211Y-66990476D01*
X162424631Y-67160745D01*
X162424630Y-67160750D01*
X162404435Y-67339996D01*
X160787537Y-67339996D01*
X160785369Y-67320750D01*
X160785368Y-67320745D01*
X160744627Y-67204314D01*
X160725789Y-67150478D01*
X160629816Y-66997738D01*
X160502262Y-66870184D01*
X160470144Y-66850003D01*
X160349523Y-66774211D01*
X160179254Y-66714631D01*
X160179249Y-66714630D01*
X160000004Y-66694435D01*
X159999996Y-66694435D01*
X159820750Y-66714630D01*
X159820745Y-66714631D01*
X159650476Y-66774211D01*
X159497737Y-66870184D01*
X159370184Y-66997737D01*
X159274209Y-67150480D01*
X159241041Y-67245269D01*
X159200320Y-67302045D01*
X159135367Y-67327792D01*
X159066805Y-67314336D01*
X159016403Y-67265948D01*
X159000000Y-67204314D01*
X159000000Y-65295685D01*
X159019685Y-65228646D01*
X159072489Y-65182891D01*
X159141647Y-65172947D01*
X159205203Y-65201972D01*
X159241042Y-65254731D01*
X159274210Y-65349521D01*
X159370184Y-65502262D01*
X159497738Y-65629816D01*
X159650478Y-65725789D01*
X159691617Y-65740184D01*
X159820745Y-65785368D01*
X159820750Y-65785369D01*
X159999996Y-65805565D01*
X160000000Y-65805565D01*
X160000004Y-65805565D01*
X160179249Y-65785369D01*
X160179252Y-65785368D01*
X160179255Y-65785368D01*
X160349522Y-65725789D01*
X160502262Y-65629816D01*
X160629816Y-65502262D01*
X160725789Y-65349522D01*
X160785368Y-65179255D01*
X160805565Y-65000000D01*
X160805565Y-64999996D01*
X161694435Y-64999996D01*
X161694435Y-65000003D01*
X161714630Y-65179249D01*
X161714631Y-65179254D01*
X161774211Y-65349523D01*
X161870184Y-65502262D01*
X161997738Y-65629816D01*
X162150478Y-65725789D01*
X162191617Y-65740184D01*
X162320745Y-65785368D01*
X162320750Y-65785369D01*
X162499996Y-65805565D01*
X162500000Y-65805565D01*
X162500004Y-65805565D01*
X162679249Y-65785369D01*
X162679252Y-65785368D01*
X162679255Y-65785368D01*
X162849522Y-65725789D01*
X163002262Y-65629816D01*
X163129816Y-65502262D01*
X163225789Y-65349522D01*
X163285368Y-65179255D01*
X163305565Y-65000000D01*
X163305565Y-64999996D01*
X186694435Y-64999996D01*
X186694435Y-65000003D01*
X186714630Y-65179249D01*
X186714631Y-65179254D01*
X186774211Y-65349523D01*
X186870184Y-65502262D01*
X186997738Y-65629816D01*
X187150478Y-65725789D01*
X187191617Y-65740184D01*
X187320745Y-65785368D01*
X187320750Y-65785369D01*
X187499996Y-65805565D01*
X187500000Y-65805565D01*
X187500004Y-65805565D01*
X187679249Y-65785369D01*
X187679252Y-65785368D01*
X187679255Y-65785368D01*
X187849522Y-65725789D01*
X188002262Y-65629816D01*
X188129816Y-65502262D01*
X188225789Y-65349522D01*
X188285368Y-65179255D01*
X188305565Y-65000000D01*
X188305565Y-64999996D01*
X189194435Y-64999996D01*
X189194435Y-65000003D01*
X189214630Y-65179249D01*
X189214631Y-65179254D01*
X189274211Y-65349523D01*
X189370184Y-65502262D01*
X189497738Y-65629816D01*
X189650478Y-65725789D01*
X189691617Y-65740184D01*
X189820745Y-65785368D01*
X189820750Y-65785369D01*
X189999996Y-65805565D01*
X190000000Y-65805565D01*
X190000004Y-65805565D01*
X190179249Y-65785369D01*
X190179252Y-65785368D01*
X190179255Y-65785368D01*
X190349522Y-65725789D01*
X190502262Y-65629816D01*
X190629816Y-65502262D01*
X190725789Y-65349522D01*
X190785368Y-65179255D01*
X190805565Y-65000000D01*
X190805565Y-64999996D01*
X201694435Y-64999996D01*
X201694435Y-65000003D01*
X201714630Y-65179249D01*
X201714631Y-65179254D01*
X201774211Y-65349523D01*
X201870184Y-65502262D01*
X201997738Y-65629816D01*
X202150478Y-65725789D01*
X202191617Y-65740184D01*
X202320745Y-65785368D01*
X202320750Y-65785369D01*
X202499996Y-65805565D01*
X202500000Y-65805565D01*
X202500004Y-65805565D01*
X202679249Y-65785369D01*
X202679252Y-65785368D01*
X202679255Y-65785368D01*
X202849522Y-65725789D01*
X203002262Y-65629816D01*
X203129816Y-65502262D01*
X203225789Y-65349522D01*
X203285368Y-65179255D01*
X203305565Y-65000000D01*
X203285368Y-64820745D01*
X203225789Y-64650478D01*
X203129816Y-64497738D01*
X203002262Y-64370184D01*
X202849523Y-64274211D01*
X202679254Y-64214631D01*
X202679249Y-64214630D01*
X202500004Y-64194435D01*
X202499996Y-64194435D01*
X202320750Y-64214630D01*
X202320745Y-64214631D01*
X202150476Y-64274211D01*
X201997737Y-64370184D01*
X201870184Y-64497737D01*
X201774211Y-64650476D01*
X201714631Y-64820745D01*
X201714630Y-64820750D01*
X201694435Y-64999996D01*
X190805565Y-64999996D01*
X190785368Y-64820745D01*
X190725789Y-64650478D01*
X190629816Y-64497738D01*
X190502262Y-64370184D01*
X190349523Y-64274211D01*
X190179254Y-64214631D01*
X190179249Y-64214630D01*
X190000004Y-64194435D01*
X189999996Y-64194435D01*
X189820750Y-64214630D01*
X189820745Y-64214631D01*
X189650476Y-64274211D01*
X189497737Y-64370184D01*
X189370184Y-64497737D01*
X189274211Y-64650476D01*
X189214631Y-64820745D01*
X189214630Y-64820750D01*
X189194435Y-64999996D01*
X188305565Y-64999996D01*
X188285368Y-64820745D01*
X188225789Y-64650478D01*
X188129816Y-64497738D01*
X188002262Y-64370184D01*
X187849523Y-64274211D01*
X187679254Y-64214631D01*
X187679249Y-64214630D01*
X187500004Y-64194435D01*
X187499996Y-64194435D01*
X187320750Y-64214630D01*
X187320745Y-64214631D01*
X187150476Y-64274211D01*
X186997737Y-64370184D01*
X186870184Y-64497737D01*
X186774211Y-64650476D01*
X186714631Y-64820745D01*
X186714630Y-64820750D01*
X186694435Y-64999996D01*
X163305565Y-64999996D01*
X163285368Y-64820745D01*
X163225789Y-64650478D01*
X163129816Y-64497738D01*
X163002262Y-64370184D01*
X162849523Y-64274211D01*
X162679254Y-64214631D01*
X162679249Y-64214630D01*
X162500004Y-64194435D01*
X162499996Y-64194435D01*
X162320750Y-64214630D01*
X162320745Y-64214631D01*
X162150476Y-64274211D01*
X161997737Y-64370184D01*
X161870184Y-64497737D01*
X161774211Y-64650476D01*
X161714631Y-64820745D01*
X161714630Y-64820750D01*
X161694435Y-64999996D01*
X160805565Y-64999996D01*
X160785368Y-64820745D01*
X160725789Y-64650478D01*
X160629816Y-64497738D01*
X160502262Y-64370184D01*
X160349523Y-64274211D01*
X160179254Y-64214631D01*
X160179249Y-64214630D01*
X160000004Y-64194435D01*
X159999996Y-64194435D01*
X159820750Y-64214630D01*
X159820745Y-64214631D01*
X159650476Y-64274211D01*
X159497737Y-64370184D01*
X159370184Y-64497737D01*
X159274209Y-64650480D01*
X159241041Y-64745269D01*
X159200320Y-64802045D01*
X159135367Y-64827792D01*
X159066805Y-64814336D01*
X159016403Y-64765948D01*
X159000000Y-64704314D01*
X159000000Y-62795685D01*
X159019685Y-62728646D01*
X159072489Y-62682891D01*
X159141647Y-62672947D01*
X159205203Y-62701972D01*
X159241042Y-62754731D01*
X159274210Y-62849521D01*
X159328392Y-62935750D01*
X159370184Y-63002262D01*
X159497738Y-63129816D01*
X159650478Y-63225789D01*
X159820745Y-63285368D01*
X159820750Y-63285369D01*
X159999996Y-63305565D01*
X160000000Y-63305565D01*
X160000004Y-63305565D01*
X160179249Y-63285369D01*
X160179252Y-63285368D01*
X160179255Y-63285368D01*
X160349522Y-63225789D01*
X160502262Y-63129816D01*
X160629816Y-63002262D01*
X160725789Y-62849522D01*
X160785368Y-62679255D01*
X160805565Y-62500000D01*
X160805565Y-62499996D01*
X161694435Y-62499996D01*
X161694435Y-62500003D01*
X161714630Y-62679249D01*
X161714631Y-62679254D01*
X161774211Y-62849523D01*
X161870184Y-63002262D01*
X161997738Y-63129816D01*
X162150478Y-63225789D01*
X162320745Y-63285368D01*
X162320750Y-63285369D01*
X162499996Y-63305565D01*
X162500000Y-63305565D01*
X162500004Y-63305565D01*
X162679249Y-63285369D01*
X162679252Y-63285368D01*
X162679255Y-63285368D01*
X162849522Y-63225789D01*
X163002262Y-63129816D01*
X163017082Y-63114996D01*
X165100635Y-63114996D01*
X165100635Y-63115003D01*
X165120830Y-63294249D01*
X165120831Y-63294254D01*
X165180411Y-63464523D01*
X165276384Y-63617262D01*
X165403938Y-63744816D01*
X165556678Y-63840789D01*
X165703125Y-63892033D01*
X165726945Y-63900368D01*
X165726950Y-63900369D01*
X165906196Y-63920565D01*
X165906200Y-63920565D01*
X165906204Y-63920565D01*
X166085449Y-63900369D01*
X166085452Y-63900368D01*
X166085455Y-63900368D01*
X166255722Y-63840789D01*
X166408462Y-63744816D01*
X166536016Y-63617262D01*
X166582988Y-63542507D01*
X183549014Y-63542507D01*
X183549014Y-63542514D01*
X183569209Y-63721760D01*
X183569210Y-63721765D01*
X183628790Y-63892034D01*
X183724763Y-64044773D01*
X183852317Y-64172327D01*
X184005057Y-64268300D01*
X184021950Y-64274211D01*
X184175324Y-64327879D01*
X184175329Y-64327880D01*
X184354575Y-64348076D01*
X184354579Y-64348076D01*
X184354583Y-64348076D01*
X184533828Y-64327880D01*
X184533831Y-64327879D01*
X184533834Y-64327879D01*
X184704101Y-64268300D01*
X184856841Y-64172327D01*
X184984395Y-64044773D01*
X185080368Y-63892033D01*
X185139947Y-63721766D01*
X185160144Y-63542511D01*
X185139947Y-63363256D01*
X185080368Y-63192989D01*
X184984395Y-63040249D01*
X184856841Y-62912695D01*
X184704102Y-62816722D01*
X184533833Y-62757142D01*
X184533828Y-62757141D01*
X184354583Y-62736946D01*
X184354575Y-62736946D01*
X184175329Y-62757141D01*
X184175324Y-62757142D01*
X184005055Y-62816722D01*
X183852316Y-62912695D01*
X183724763Y-63040248D01*
X183628790Y-63192987D01*
X183569210Y-63363256D01*
X183569209Y-63363261D01*
X183549014Y-63542507D01*
X166582988Y-63542507D01*
X166631989Y-63464522D01*
X166691568Y-63294255D01*
X166691569Y-63294249D01*
X166711765Y-63115003D01*
X166711765Y-63114996D01*
X166691569Y-62935750D01*
X166691568Y-62935745D01*
X166683502Y-62912695D01*
X166631989Y-62765478D01*
X166536016Y-62612738D01*
X166423274Y-62499996D01*
X186694435Y-62499996D01*
X186694435Y-62500003D01*
X186714630Y-62679249D01*
X186714631Y-62679254D01*
X186774211Y-62849523D01*
X186870184Y-63002262D01*
X186997738Y-63129816D01*
X187150478Y-63225789D01*
X187320745Y-63285368D01*
X187320750Y-63285369D01*
X187499996Y-63305565D01*
X187500000Y-63305565D01*
X187500004Y-63305565D01*
X187679249Y-63285369D01*
X187679252Y-63285368D01*
X187679255Y-63285368D01*
X187849522Y-63225789D01*
X188002262Y-63129816D01*
X188129816Y-63002262D01*
X188225789Y-62849522D01*
X188285368Y-62679255D01*
X188305565Y-62500000D01*
X188305565Y-62499996D01*
X201694435Y-62499996D01*
X201694435Y-62500003D01*
X201714630Y-62679249D01*
X201714631Y-62679254D01*
X201774211Y-62849523D01*
X201870184Y-63002262D01*
X201997738Y-63129816D01*
X202150478Y-63225789D01*
X202320745Y-63285368D01*
X202320750Y-63285369D01*
X202499996Y-63305565D01*
X202500000Y-63305565D01*
X202500004Y-63305565D01*
X202679249Y-63285369D01*
X202679252Y-63285368D01*
X202679255Y-63285368D01*
X202849522Y-63225789D01*
X203002262Y-63129816D01*
X203129816Y-63002262D01*
X203225789Y-62849522D01*
X203285368Y-62679255D01*
X203305565Y-62500000D01*
X203293082Y-62389211D01*
X203285369Y-62320750D01*
X203285368Y-62320745D01*
X203244627Y-62204314D01*
X203225789Y-62150478D01*
X203129816Y-61997738D01*
X203002262Y-61870184D01*
X202849523Y-61774211D01*
X202679254Y-61714631D01*
X202679249Y-61714630D01*
X202500004Y-61694435D01*
X202499996Y-61694435D01*
X202320750Y-61714630D01*
X202320745Y-61714631D01*
X202150476Y-61774211D01*
X201997737Y-61870184D01*
X201870184Y-61997737D01*
X201774211Y-62150476D01*
X201714631Y-62320745D01*
X201714630Y-62320750D01*
X201694435Y-62499996D01*
X188305565Y-62499996D01*
X188293082Y-62389211D01*
X188285369Y-62320750D01*
X188285368Y-62320745D01*
X188244627Y-62204314D01*
X188225789Y-62150478D01*
X188129816Y-61997738D01*
X188002262Y-61870184D01*
X187849523Y-61774211D01*
X187679254Y-61714631D01*
X187679249Y-61714630D01*
X187500004Y-61694435D01*
X187499996Y-61694435D01*
X187320750Y-61714630D01*
X187320745Y-61714631D01*
X187150476Y-61774211D01*
X186997737Y-61870184D01*
X186870184Y-61997737D01*
X186774211Y-62150476D01*
X186714631Y-62320745D01*
X186714630Y-62320750D01*
X186694435Y-62499996D01*
X166423274Y-62499996D01*
X166408462Y-62485184D01*
X166255723Y-62389211D01*
X166085454Y-62329631D01*
X166085449Y-62329630D01*
X165906204Y-62309435D01*
X165906196Y-62309435D01*
X165726950Y-62329630D01*
X165726945Y-62329631D01*
X165556676Y-62389211D01*
X165403937Y-62485184D01*
X165276384Y-62612737D01*
X165180411Y-62765476D01*
X165120831Y-62935745D01*
X165120830Y-62935750D01*
X165100635Y-63114996D01*
X163017082Y-63114996D01*
X163129816Y-63002262D01*
X163225789Y-62849522D01*
X163285368Y-62679255D01*
X163305565Y-62500000D01*
X163293082Y-62389211D01*
X163285369Y-62320750D01*
X163285368Y-62320745D01*
X163244627Y-62204314D01*
X163225789Y-62150478D01*
X163129816Y-61997738D01*
X163002262Y-61870184D01*
X162849523Y-61774211D01*
X162679254Y-61714631D01*
X162679249Y-61714630D01*
X162500004Y-61694435D01*
X162499996Y-61694435D01*
X162320750Y-61714630D01*
X162320745Y-61714631D01*
X162150476Y-61774211D01*
X161997737Y-61870184D01*
X161870184Y-61997737D01*
X161774211Y-62150476D01*
X161714631Y-62320745D01*
X161714630Y-62320750D01*
X161694435Y-62499996D01*
X160805565Y-62499996D01*
X160793082Y-62389211D01*
X160785369Y-62320750D01*
X160785368Y-62320745D01*
X160744627Y-62204314D01*
X160725789Y-62150478D01*
X160629816Y-61997738D01*
X160502262Y-61870184D01*
X160349523Y-61774211D01*
X160179254Y-61714631D01*
X160179249Y-61714630D01*
X160000004Y-61694435D01*
X159999996Y-61694435D01*
X159820750Y-61714630D01*
X159820745Y-61714631D01*
X159650476Y-61774211D01*
X159497737Y-61870184D01*
X159370184Y-61997737D01*
X159274209Y-62150480D01*
X159241041Y-62245269D01*
X159200320Y-62302045D01*
X159135367Y-62327792D01*
X159066805Y-62314336D01*
X159016403Y-62265948D01*
X159000000Y-62204314D01*
X159000000Y-60295685D01*
X159019685Y-60228646D01*
X159072489Y-60182891D01*
X159141647Y-60172947D01*
X159205203Y-60201972D01*
X159241042Y-60254731D01*
X159274210Y-60349521D01*
X159294816Y-60382315D01*
X159370184Y-60502262D01*
X159497738Y-60629816D01*
X159650478Y-60725789D01*
X159820745Y-60785368D01*
X159820750Y-60785369D01*
X159999996Y-60805565D01*
X160000000Y-60805565D01*
X160000004Y-60805565D01*
X160179249Y-60785369D01*
X160179252Y-60785368D01*
X160179255Y-60785368D01*
X160349522Y-60725789D01*
X160502262Y-60629816D01*
X160629816Y-60502262D01*
X160725789Y-60349522D01*
X160785368Y-60179255D01*
X160794070Y-60102022D01*
X160805565Y-60000003D01*
X160805565Y-59999996D01*
X160786411Y-59829996D01*
X175424435Y-59829996D01*
X175424435Y-59830003D01*
X175444630Y-60009249D01*
X175444631Y-60009254D01*
X175504211Y-60179523D01*
X175551468Y-60254731D01*
X175600184Y-60332262D01*
X175727738Y-60459816D01*
X175818080Y-60516582D01*
X175851958Y-60537869D01*
X175880478Y-60555789D01*
X176050745Y-60615368D01*
X176050750Y-60615369D01*
X176229996Y-60635565D01*
X176230000Y-60635565D01*
X176230004Y-60635565D01*
X176409249Y-60615369D01*
X176409252Y-60615368D01*
X176409255Y-60615368D01*
X176579522Y-60555789D01*
X176732262Y-60459816D01*
X176859816Y-60332262D01*
X176955789Y-60179522D01*
X177015368Y-60009255D01*
X177015369Y-60009249D01*
X177016412Y-59999996D01*
X181694435Y-59999996D01*
X181694435Y-60000003D01*
X181714630Y-60179249D01*
X181714631Y-60179254D01*
X181774211Y-60349523D01*
X181843513Y-60459815D01*
X181870184Y-60502262D01*
X181997738Y-60629816D01*
X182150478Y-60725789D01*
X182320745Y-60785368D01*
X182320750Y-60785369D01*
X182499996Y-60805565D01*
X182500000Y-60805565D01*
X182500004Y-60805565D01*
X182679249Y-60785369D01*
X182679252Y-60785368D01*
X182679255Y-60785368D01*
X182849522Y-60725789D01*
X183002262Y-60629816D01*
X183129816Y-60502262D01*
X183225789Y-60349522D01*
X183285368Y-60179255D01*
X183294070Y-60102022D01*
X183305565Y-60000003D01*
X183305565Y-59999996D01*
X184194435Y-59999996D01*
X184194435Y-60000003D01*
X184214630Y-60179249D01*
X184214631Y-60179254D01*
X184274211Y-60349523D01*
X184343513Y-60459815D01*
X184370184Y-60502262D01*
X184497738Y-60629816D01*
X184650478Y-60725789D01*
X184820745Y-60785368D01*
X184820750Y-60785369D01*
X184999996Y-60805565D01*
X185000000Y-60805565D01*
X185000004Y-60805565D01*
X185179249Y-60785369D01*
X185179252Y-60785368D01*
X185179255Y-60785368D01*
X185349522Y-60725789D01*
X185502262Y-60629816D01*
X185629816Y-60502262D01*
X185725789Y-60349522D01*
X185785368Y-60179255D01*
X185794070Y-60102022D01*
X185805565Y-60000003D01*
X185805565Y-59999996D01*
X186694435Y-59999996D01*
X186694435Y-60000003D01*
X186714630Y-60179249D01*
X186714631Y-60179254D01*
X186774211Y-60349523D01*
X186843513Y-60459815D01*
X186870184Y-60502262D01*
X186997738Y-60629816D01*
X187150478Y-60725789D01*
X187320745Y-60785368D01*
X187320750Y-60785369D01*
X187499996Y-60805565D01*
X187500000Y-60805565D01*
X187500004Y-60805565D01*
X187679249Y-60785369D01*
X187679252Y-60785368D01*
X187679255Y-60785368D01*
X187849522Y-60725789D01*
X188002262Y-60629816D01*
X188129816Y-60502262D01*
X188225789Y-60349522D01*
X188285368Y-60179255D01*
X188294070Y-60102022D01*
X188305565Y-60000003D01*
X188305565Y-59999996D01*
X188285369Y-59820750D01*
X188285368Y-59820745D01*
X188261486Y-59752496D01*
X189865835Y-59752496D01*
X189865835Y-59752503D01*
X189886030Y-59931749D01*
X189886031Y-59931754D01*
X189945611Y-60102023D01*
X189994308Y-60179523D01*
X190041584Y-60254762D01*
X190169138Y-60382316D01*
X190321878Y-60478289D01*
X190390389Y-60502262D01*
X190492145Y-60537868D01*
X190492150Y-60537869D01*
X190671396Y-60558065D01*
X190671400Y-60558065D01*
X190671404Y-60558065D01*
X190850649Y-60537869D01*
X190850652Y-60537868D01*
X190850655Y-60537868D01*
X191020922Y-60478289D01*
X191173662Y-60382316D01*
X191301216Y-60254762D01*
X191397189Y-60102022D01*
X191432889Y-59999996D01*
X201694435Y-59999996D01*
X201694435Y-60000003D01*
X201714630Y-60179249D01*
X201714631Y-60179254D01*
X201774211Y-60349523D01*
X201843513Y-60459815D01*
X201870184Y-60502262D01*
X201997738Y-60629816D01*
X202150478Y-60725789D01*
X202320745Y-60785368D01*
X202320750Y-60785369D01*
X202499996Y-60805565D01*
X202500000Y-60805565D01*
X202500004Y-60805565D01*
X202679249Y-60785369D01*
X202679252Y-60785368D01*
X202679255Y-60785368D01*
X202849522Y-60725789D01*
X203002262Y-60629816D01*
X203129816Y-60502262D01*
X203225789Y-60349522D01*
X203285368Y-60179255D01*
X203294070Y-60102022D01*
X203305565Y-60000003D01*
X203305565Y-59999996D01*
X203285369Y-59820750D01*
X203285368Y-59820745D01*
X203225882Y-59650745D01*
X203225789Y-59650478D01*
X203129816Y-59497738D01*
X203002262Y-59370184D01*
X202934708Y-59327737D01*
X202849523Y-59274211D01*
X202679254Y-59214631D01*
X202679249Y-59214630D01*
X202500004Y-59194435D01*
X202499996Y-59194435D01*
X202320750Y-59214630D01*
X202320745Y-59214631D01*
X202150476Y-59274211D01*
X201997737Y-59370184D01*
X201870184Y-59497737D01*
X201774211Y-59650476D01*
X201714631Y-59820745D01*
X201714630Y-59820750D01*
X201694435Y-59999996D01*
X191432889Y-59999996D01*
X191456768Y-59931755D01*
X191468233Y-59830000D01*
X191476965Y-59752503D01*
X191476965Y-59752496D01*
X191456769Y-59573250D01*
X191456768Y-59573245D01*
X191430347Y-59497738D01*
X191397189Y-59402978D01*
X191301216Y-59250238D01*
X191173662Y-59122684D01*
X191020923Y-59026711D01*
X190850654Y-58967131D01*
X190850649Y-58967130D01*
X190671404Y-58946935D01*
X190671396Y-58946935D01*
X190492150Y-58967130D01*
X190492145Y-58967131D01*
X190321876Y-59026711D01*
X190169137Y-59122684D01*
X190041584Y-59250237D01*
X189945611Y-59402976D01*
X189886031Y-59573245D01*
X189886030Y-59573250D01*
X189865835Y-59752496D01*
X188261486Y-59752496D01*
X188225882Y-59650745D01*
X188225789Y-59650478D01*
X188129816Y-59497738D01*
X188002262Y-59370184D01*
X187934708Y-59327737D01*
X187849523Y-59274211D01*
X187679254Y-59214631D01*
X187679249Y-59214630D01*
X187500004Y-59194435D01*
X187499996Y-59194435D01*
X187320750Y-59214630D01*
X187320745Y-59214631D01*
X187150476Y-59274211D01*
X186997737Y-59370184D01*
X186870184Y-59497737D01*
X186774211Y-59650476D01*
X186714631Y-59820745D01*
X186714630Y-59820750D01*
X186694435Y-59999996D01*
X185805565Y-59999996D01*
X185785369Y-59820750D01*
X185785368Y-59820745D01*
X185725882Y-59650745D01*
X185725789Y-59650478D01*
X185629816Y-59497738D01*
X185502262Y-59370184D01*
X185434708Y-59327737D01*
X185349523Y-59274211D01*
X185179254Y-59214631D01*
X185179249Y-59214630D01*
X185000004Y-59194435D01*
X184999996Y-59194435D01*
X184820750Y-59214630D01*
X184820745Y-59214631D01*
X184650476Y-59274211D01*
X184497737Y-59370184D01*
X184370184Y-59497737D01*
X184274211Y-59650476D01*
X184214631Y-59820745D01*
X184214630Y-59820750D01*
X184194435Y-59999996D01*
X183305565Y-59999996D01*
X183285369Y-59820750D01*
X183285368Y-59820745D01*
X183225882Y-59650745D01*
X183225789Y-59650478D01*
X183129816Y-59497738D01*
X183002262Y-59370184D01*
X182934708Y-59327737D01*
X182849523Y-59274211D01*
X182679254Y-59214631D01*
X182679249Y-59214630D01*
X182500004Y-59194435D01*
X182499996Y-59194435D01*
X182320750Y-59214630D01*
X182320745Y-59214631D01*
X182150476Y-59274211D01*
X181997737Y-59370184D01*
X181870184Y-59497737D01*
X181774211Y-59650476D01*
X181714631Y-59820745D01*
X181714630Y-59820750D01*
X181694435Y-59999996D01*
X177016412Y-59999996D01*
X177035565Y-59830003D01*
X177035565Y-59829996D01*
X177015369Y-59650750D01*
X177015368Y-59650745D01*
X176992492Y-59585369D01*
X176955789Y-59480478D01*
X176859816Y-59327738D01*
X176732262Y-59200184D01*
X176608922Y-59122684D01*
X176579523Y-59104211D01*
X176409254Y-59044631D01*
X176409249Y-59044630D01*
X176230004Y-59024435D01*
X176229996Y-59024435D01*
X176050750Y-59044630D01*
X176050745Y-59044631D01*
X175880476Y-59104211D01*
X175727737Y-59200184D01*
X175600184Y-59327737D01*
X175504211Y-59480476D01*
X175444631Y-59650745D01*
X175444630Y-59650750D01*
X175424435Y-59829996D01*
X160786411Y-59829996D01*
X160785369Y-59820750D01*
X160785368Y-59820745D01*
X160725882Y-59650745D01*
X160725789Y-59650478D01*
X160629816Y-59497738D01*
X160502262Y-59370184D01*
X160434708Y-59327737D01*
X160349523Y-59274211D01*
X160179254Y-59214631D01*
X160179249Y-59214630D01*
X160000004Y-59194435D01*
X159999996Y-59194435D01*
X159820750Y-59214630D01*
X159820745Y-59214631D01*
X159650476Y-59274211D01*
X159497737Y-59370184D01*
X159370184Y-59497737D01*
X159274209Y-59650480D01*
X159241041Y-59745269D01*
X159200320Y-59802045D01*
X159135367Y-59827792D01*
X159066805Y-59814336D01*
X159016403Y-59765948D01*
X159000000Y-59704314D01*
X159000000Y-58799996D01*
X177404435Y-58799996D01*
X177404435Y-58800003D01*
X177424630Y-58979249D01*
X177424631Y-58979254D01*
X177484211Y-59149523D01*
X177525122Y-59214632D01*
X177580184Y-59302262D01*
X177707738Y-59429816D01*
X177788363Y-59480476D01*
X177815833Y-59497737D01*
X177860478Y-59525789D01*
X177996114Y-59573250D01*
X178030745Y-59585368D01*
X178030750Y-59585369D01*
X178209996Y-59605565D01*
X178210000Y-59605565D01*
X178210004Y-59605565D01*
X178389249Y-59585369D01*
X178389252Y-59585368D01*
X178389255Y-59585368D01*
X178559522Y-59525789D01*
X178712262Y-59429816D01*
X178839816Y-59302262D01*
X178935789Y-59149522D01*
X178995368Y-58979255D01*
X179015565Y-58800000D01*
X178995368Y-58620745D01*
X178935789Y-58450478D01*
X178839816Y-58297738D01*
X178712262Y-58170184D01*
X178648017Y-58129816D01*
X178559523Y-58074211D01*
X178389254Y-58014631D01*
X178389249Y-58014630D01*
X178210004Y-57994435D01*
X178209996Y-57994435D01*
X178030750Y-58014630D01*
X178030745Y-58014631D01*
X177860476Y-58074211D01*
X177707737Y-58170184D01*
X177580184Y-58297737D01*
X177484211Y-58450476D01*
X177424631Y-58620745D01*
X177424630Y-58620750D01*
X177404435Y-58799996D01*
X159000000Y-58799996D01*
X159000000Y-57499996D01*
X179194435Y-57499996D01*
X179194435Y-57500003D01*
X179214630Y-57679249D01*
X179214631Y-57679254D01*
X179274211Y-57849523D01*
X179365266Y-57994435D01*
X179370184Y-58002262D01*
X179497738Y-58129816D01*
X179650478Y-58225789D01*
X179820745Y-58285368D01*
X179820750Y-58285369D01*
X179999996Y-58305565D01*
X180000000Y-58305565D01*
X180000004Y-58305565D01*
X180179249Y-58285369D01*
X180179252Y-58285368D01*
X180179255Y-58285368D01*
X180349522Y-58225789D01*
X180502262Y-58129816D01*
X180629816Y-58002262D01*
X180725789Y-57849522D01*
X180785368Y-57679255D01*
X180805565Y-57500000D01*
X180805565Y-57499996D01*
X181694435Y-57499996D01*
X181694435Y-57500003D01*
X181714630Y-57679249D01*
X181714631Y-57679254D01*
X181774211Y-57849523D01*
X181865266Y-57994435D01*
X181870184Y-58002262D01*
X181997738Y-58129816D01*
X182150478Y-58225789D01*
X182320745Y-58285368D01*
X182320750Y-58285369D01*
X182499996Y-58305565D01*
X182500000Y-58305565D01*
X182500004Y-58305565D01*
X182679249Y-58285369D01*
X182679252Y-58285368D01*
X182679255Y-58285368D01*
X182849522Y-58225789D01*
X183002262Y-58129816D01*
X183129816Y-58002262D01*
X183225789Y-57849522D01*
X183285368Y-57679255D01*
X183305565Y-57500000D01*
X183305565Y-57499996D01*
X184194435Y-57499996D01*
X184194435Y-57500003D01*
X184214630Y-57679249D01*
X184214631Y-57679254D01*
X184274211Y-57849523D01*
X184365266Y-57994435D01*
X184370184Y-58002262D01*
X184497738Y-58129816D01*
X184650478Y-58225789D01*
X184820745Y-58285368D01*
X184820750Y-58285369D01*
X184999996Y-58305565D01*
X185000000Y-58305565D01*
X185000004Y-58305565D01*
X185179249Y-58285369D01*
X185179252Y-58285368D01*
X185179255Y-58285368D01*
X185349522Y-58225789D01*
X185502262Y-58129816D01*
X185629816Y-58002262D01*
X185725789Y-57849522D01*
X185785368Y-57679255D01*
X185805565Y-57500000D01*
X185805565Y-57499996D01*
X186694435Y-57499996D01*
X186694435Y-57500003D01*
X186714630Y-57679249D01*
X186714631Y-57679254D01*
X186774211Y-57849523D01*
X186865266Y-57994435D01*
X186870184Y-58002262D01*
X186997738Y-58129816D01*
X187150478Y-58225789D01*
X187320745Y-58285368D01*
X187320750Y-58285369D01*
X187499996Y-58305565D01*
X187500000Y-58305565D01*
X187500004Y-58305565D01*
X187679249Y-58285369D01*
X187679252Y-58285368D01*
X187679255Y-58285368D01*
X187849522Y-58225789D01*
X188002262Y-58129816D01*
X188129816Y-58002262D01*
X188225789Y-57849522D01*
X188285368Y-57679255D01*
X188305565Y-57500000D01*
X188305565Y-57499996D01*
X189194435Y-57499996D01*
X189194435Y-57500003D01*
X189214630Y-57679249D01*
X189214631Y-57679254D01*
X189274211Y-57849523D01*
X189365266Y-57994435D01*
X189370184Y-58002262D01*
X189497738Y-58129816D01*
X189650478Y-58225789D01*
X189820745Y-58285368D01*
X189820750Y-58285369D01*
X189999996Y-58305565D01*
X190000000Y-58305565D01*
X190000004Y-58305565D01*
X190179249Y-58285369D01*
X190179252Y-58285368D01*
X190179255Y-58285368D01*
X190349522Y-58225789D01*
X190502262Y-58129816D01*
X190629816Y-58002262D01*
X190725789Y-57849522D01*
X190785368Y-57679255D01*
X190805565Y-57500000D01*
X190805565Y-57499996D01*
X191694435Y-57499996D01*
X191694435Y-57500003D01*
X191714630Y-57679249D01*
X191714631Y-57679254D01*
X191774211Y-57849523D01*
X191865266Y-57994435D01*
X191870184Y-58002262D01*
X191997738Y-58129816D01*
X192150478Y-58225789D01*
X192320745Y-58285368D01*
X192320750Y-58285369D01*
X192499996Y-58305565D01*
X192500000Y-58305565D01*
X192500004Y-58305565D01*
X192679249Y-58285369D01*
X192679252Y-58285368D01*
X192679255Y-58285368D01*
X192849522Y-58225789D01*
X193002262Y-58129816D01*
X193129816Y-58002262D01*
X193225789Y-57849522D01*
X193285368Y-57679255D01*
X193305565Y-57500000D01*
X193305565Y-57499996D01*
X194194435Y-57499996D01*
X194194435Y-57500003D01*
X194214630Y-57679249D01*
X194214631Y-57679254D01*
X194274211Y-57849523D01*
X194365266Y-57994435D01*
X194370184Y-58002262D01*
X194497738Y-58129816D01*
X194650478Y-58225789D01*
X194820745Y-58285368D01*
X194820750Y-58285369D01*
X194999996Y-58305565D01*
X195000000Y-58305565D01*
X195000004Y-58305565D01*
X195179249Y-58285369D01*
X195179252Y-58285368D01*
X195179255Y-58285368D01*
X195349522Y-58225789D01*
X195502262Y-58129816D01*
X195629816Y-58002262D01*
X195725789Y-57849522D01*
X195785368Y-57679255D01*
X195805565Y-57500000D01*
X195805565Y-57499996D01*
X201694435Y-57499996D01*
X201694435Y-57500003D01*
X201714630Y-57679249D01*
X201714631Y-57679254D01*
X201774211Y-57849523D01*
X201865266Y-57994435D01*
X201870184Y-58002262D01*
X201997738Y-58129816D01*
X202150478Y-58225789D01*
X202320745Y-58285368D01*
X202320750Y-58285369D01*
X202499996Y-58305565D01*
X202500000Y-58305565D01*
X202500004Y-58305565D01*
X202679249Y-58285369D01*
X202679252Y-58285368D01*
X202679255Y-58285368D01*
X202849522Y-58225789D01*
X203002262Y-58129816D01*
X203129816Y-58002262D01*
X203225789Y-57849522D01*
X203285368Y-57679255D01*
X203305565Y-57500000D01*
X203285368Y-57320745D01*
X203225789Y-57150478D01*
X203129816Y-56997738D01*
X203002262Y-56870184D01*
X202849523Y-56774211D01*
X202679254Y-56714631D01*
X202679249Y-56714630D01*
X202500004Y-56694435D01*
X202499996Y-56694435D01*
X202320750Y-56714630D01*
X202320745Y-56714631D01*
X202150476Y-56774211D01*
X201997737Y-56870184D01*
X201870184Y-56997737D01*
X201774211Y-57150476D01*
X201714631Y-57320745D01*
X201714630Y-57320750D01*
X201694435Y-57499996D01*
X195805565Y-57499996D01*
X195785368Y-57320745D01*
X195725789Y-57150478D01*
X195629816Y-56997738D01*
X195502262Y-56870184D01*
X195349523Y-56774211D01*
X195179254Y-56714631D01*
X195179249Y-56714630D01*
X195000004Y-56694435D01*
X194999996Y-56694435D01*
X194820750Y-56714630D01*
X194820745Y-56714631D01*
X194650476Y-56774211D01*
X194497737Y-56870184D01*
X194370184Y-56997737D01*
X194274211Y-57150476D01*
X194214631Y-57320745D01*
X194214630Y-57320750D01*
X194194435Y-57499996D01*
X193305565Y-57499996D01*
X193285368Y-57320745D01*
X193225789Y-57150478D01*
X193129816Y-56997738D01*
X193002262Y-56870184D01*
X192849523Y-56774211D01*
X192679254Y-56714631D01*
X192679249Y-56714630D01*
X192500004Y-56694435D01*
X192499996Y-56694435D01*
X192320750Y-56714630D01*
X192320745Y-56714631D01*
X192150476Y-56774211D01*
X191997737Y-56870184D01*
X191870184Y-56997737D01*
X191774211Y-57150476D01*
X191714631Y-57320745D01*
X191714630Y-57320750D01*
X191694435Y-57499996D01*
X190805565Y-57499996D01*
X190785368Y-57320745D01*
X190725789Y-57150478D01*
X190629816Y-56997738D01*
X190502262Y-56870184D01*
X190349523Y-56774211D01*
X190179254Y-56714631D01*
X190179249Y-56714630D01*
X190000004Y-56694435D01*
X189999996Y-56694435D01*
X189820750Y-56714630D01*
X189820745Y-56714631D01*
X189650476Y-56774211D01*
X189497737Y-56870184D01*
X189370184Y-56997737D01*
X189274211Y-57150476D01*
X189214631Y-57320745D01*
X189214630Y-57320750D01*
X189194435Y-57499996D01*
X188305565Y-57499996D01*
X188285368Y-57320745D01*
X188225789Y-57150478D01*
X188129816Y-56997738D01*
X188002262Y-56870184D01*
X187849523Y-56774211D01*
X187679254Y-56714631D01*
X187679249Y-56714630D01*
X187500004Y-56694435D01*
X187499996Y-56694435D01*
X187320750Y-56714630D01*
X187320745Y-56714631D01*
X187150476Y-56774211D01*
X186997737Y-56870184D01*
X186870184Y-56997737D01*
X186774211Y-57150476D01*
X186714631Y-57320745D01*
X186714630Y-57320750D01*
X186694435Y-57499996D01*
X185805565Y-57499996D01*
X185785368Y-57320745D01*
X185725789Y-57150478D01*
X185629816Y-56997738D01*
X185502262Y-56870184D01*
X185349523Y-56774211D01*
X185179254Y-56714631D01*
X185179249Y-56714630D01*
X185000004Y-56694435D01*
X184999996Y-56694435D01*
X184820750Y-56714630D01*
X184820745Y-56714631D01*
X184650476Y-56774211D01*
X184497737Y-56870184D01*
X184370184Y-56997737D01*
X184274211Y-57150476D01*
X184214631Y-57320745D01*
X184214630Y-57320750D01*
X184194435Y-57499996D01*
X183305565Y-57499996D01*
X183285368Y-57320745D01*
X183225789Y-57150478D01*
X183129816Y-56997738D01*
X183002262Y-56870184D01*
X182849523Y-56774211D01*
X182679254Y-56714631D01*
X182679249Y-56714630D01*
X182500004Y-56694435D01*
X182499996Y-56694435D01*
X182320750Y-56714630D01*
X182320745Y-56714631D01*
X182150476Y-56774211D01*
X181997737Y-56870184D01*
X181870184Y-56997737D01*
X181774211Y-57150476D01*
X181714631Y-57320745D01*
X181714630Y-57320750D01*
X181694435Y-57499996D01*
X180805565Y-57499996D01*
X180785368Y-57320745D01*
X180725789Y-57150478D01*
X180629816Y-56997738D01*
X180502262Y-56870184D01*
X180349523Y-56774211D01*
X180179254Y-56714631D01*
X180179249Y-56714630D01*
X180000004Y-56694435D01*
X179999996Y-56694435D01*
X179820750Y-56714630D01*
X179820745Y-56714631D01*
X179650476Y-56774211D01*
X179497737Y-56870184D01*
X179370184Y-56997737D01*
X179274211Y-57150476D01*
X179214631Y-57320745D01*
X179214630Y-57320750D01*
X179194435Y-57499996D01*
X159000000Y-57499996D01*
X159000000Y-55295685D01*
X159019685Y-55228646D01*
X159072489Y-55182891D01*
X159141647Y-55172947D01*
X159205203Y-55201972D01*
X159241042Y-55254731D01*
X159274210Y-55349521D01*
X159370184Y-55502262D01*
X159497738Y-55629816D01*
X159517630Y-55642315D01*
X159648036Y-55724255D01*
X159650478Y-55725789D01*
X159820745Y-55785368D01*
X159820750Y-55785369D01*
X159999996Y-55805565D01*
X160000000Y-55805565D01*
X160000004Y-55805565D01*
X160179249Y-55785369D01*
X160179252Y-55785368D01*
X160179255Y-55785368D01*
X160349522Y-55725789D01*
X160502262Y-55629816D01*
X160629816Y-55502262D01*
X160725789Y-55349522D01*
X160785368Y-55179255D01*
X160800750Y-55042737D01*
X160805565Y-55000003D01*
X160805565Y-54999996D01*
X161694435Y-54999996D01*
X161694435Y-55000003D01*
X161714630Y-55179249D01*
X161714631Y-55179254D01*
X161774211Y-55349523D01*
X161870184Y-55502262D01*
X161997738Y-55629816D01*
X162017630Y-55642315D01*
X162148036Y-55724255D01*
X162150478Y-55725789D01*
X162320745Y-55785368D01*
X162320750Y-55785369D01*
X162499996Y-55805565D01*
X162500000Y-55805565D01*
X162500004Y-55805565D01*
X162679249Y-55785369D01*
X162679252Y-55785368D01*
X162679255Y-55785368D01*
X162849522Y-55725789D01*
X163002262Y-55629816D01*
X163087082Y-55544996D01*
X166120635Y-55544996D01*
X166120635Y-55545003D01*
X166140830Y-55724249D01*
X166140831Y-55724254D01*
X166200411Y-55894523D01*
X166296384Y-56047262D01*
X166423938Y-56174816D01*
X166576678Y-56270789D01*
X166746945Y-56330368D01*
X166746950Y-56330369D01*
X166926196Y-56350565D01*
X166926200Y-56350565D01*
X166926204Y-56350565D01*
X167105449Y-56330369D01*
X167105452Y-56330368D01*
X167105455Y-56330368D01*
X167275722Y-56270789D01*
X167428462Y-56174816D01*
X167556016Y-56047262D01*
X167651989Y-55894522D01*
X167711568Y-55724255D01*
X167711569Y-55724249D01*
X167731765Y-55545003D01*
X167731765Y-55544996D01*
X167711569Y-55365750D01*
X167711568Y-55365745D01*
X167687053Y-55295685D01*
X167651989Y-55195478D01*
X167641795Y-55179255D01*
X167556015Y-55042737D01*
X167513274Y-54999996D01*
X169194435Y-54999996D01*
X169194435Y-55000003D01*
X169214630Y-55179249D01*
X169214631Y-55179254D01*
X169274211Y-55349523D01*
X169370184Y-55502262D01*
X169497738Y-55629816D01*
X169517630Y-55642315D01*
X169648036Y-55724255D01*
X169650478Y-55725789D01*
X169820745Y-55785368D01*
X169820750Y-55785369D01*
X169999996Y-55805565D01*
X170000000Y-55805565D01*
X170000004Y-55805565D01*
X170179249Y-55785369D01*
X170179252Y-55785368D01*
X170179255Y-55785368D01*
X170349522Y-55725789D01*
X170502262Y-55629816D01*
X170629816Y-55502262D01*
X170725789Y-55349522D01*
X170785368Y-55179255D01*
X170800750Y-55042737D01*
X170805565Y-55000003D01*
X170805565Y-54999996D01*
X171694435Y-54999996D01*
X171694435Y-55000003D01*
X171714630Y-55179249D01*
X171714631Y-55179254D01*
X171774211Y-55349523D01*
X171870184Y-55502262D01*
X171997738Y-55629816D01*
X172017630Y-55642315D01*
X172148036Y-55724255D01*
X172150478Y-55725789D01*
X172320745Y-55785368D01*
X172320750Y-55785369D01*
X172499996Y-55805565D01*
X172500000Y-55805565D01*
X172500004Y-55805565D01*
X172679249Y-55785369D01*
X172679252Y-55785368D01*
X172679255Y-55785368D01*
X172849522Y-55725789D01*
X173002262Y-55629816D01*
X173129816Y-55502262D01*
X173225789Y-55349522D01*
X173285368Y-55179255D01*
X173300750Y-55042737D01*
X173305565Y-55000003D01*
X173305565Y-54999996D01*
X174194435Y-54999996D01*
X174194435Y-55000003D01*
X174214630Y-55179249D01*
X174214631Y-55179254D01*
X174274211Y-55349523D01*
X174370184Y-55502262D01*
X174497738Y-55629816D01*
X174517630Y-55642315D01*
X174648036Y-55724255D01*
X174650478Y-55725789D01*
X174820745Y-55785368D01*
X174820750Y-55785369D01*
X174999996Y-55805565D01*
X175000000Y-55805565D01*
X175000004Y-55805565D01*
X175179249Y-55785369D01*
X175179252Y-55785368D01*
X175179255Y-55785368D01*
X175349522Y-55725789D01*
X175502262Y-55629816D01*
X175629816Y-55502262D01*
X175725789Y-55349522D01*
X175785368Y-55179255D01*
X175800750Y-55042737D01*
X175805565Y-55000003D01*
X175805565Y-54999996D01*
X176694435Y-54999996D01*
X176694435Y-55000003D01*
X176714630Y-55179249D01*
X176714631Y-55179254D01*
X176774211Y-55349523D01*
X176870184Y-55502262D01*
X176997738Y-55629816D01*
X177017630Y-55642315D01*
X177148036Y-55724255D01*
X177150478Y-55725789D01*
X177320745Y-55785368D01*
X177320750Y-55785369D01*
X177499996Y-55805565D01*
X177500000Y-55805565D01*
X177500004Y-55805565D01*
X177679249Y-55785369D01*
X177679252Y-55785368D01*
X177679255Y-55785368D01*
X177849522Y-55725789D01*
X178002262Y-55629816D01*
X178129816Y-55502262D01*
X178225789Y-55349522D01*
X178285368Y-55179255D01*
X178300750Y-55042737D01*
X178305565Y-55000003D01*
X178305565Y-54999996D01*
X179194435Y-54999996D01*
X179194435Y-55000003D01*
X179214630Y-55179249D01*
X179214631Y-55179254D01*
X179274211Y-55349523D01*
X179370184Y-55502262D01*
X179497738Y-55629816D01*
X179517630Y-55642315D01*
X179648036Y-55724255D01*
X179650478Y-55725789D01*
X179820745Y-55785368D01*
X179820750Y-55785369D01*
X179999996Y-55805565D01*
X180000000Y-55805565D01*
X180000004Y-55805565D01*
X180179249Y-55785369D01*
X180179252Y-55785368D01*
X180179255Y-55785368D01*
X180349522Y-55725789D01*
X180502262Y-55629816D01*
X180629816Y-55502262D01*
X180725789Y-55349522D01*
X180785368Y-55179255D01*
X180800750Y-55042737D01*
X180805565Y-55000003D01*
X180805565Y-54999996D01*
X181694435Y-54999996D01*
X181694435Y-55000003D01*
X181714630Y-55179249D01*
X181714631Y-55179254D01*
X181774211Y-55349523D01*
X181870184Y-55502262D01*
X181997738Y-55629816D01*
X182017630Y-55642315D01*
X182148036Y-55724255D01*
X182150478Y-55725789D01*
X182320745Y-55785368D01*
X182320750Y-55785369D01*
X182499996Y-55805565D01*
X182500000Y-55805565D01*
X182500004Y-55805565D01*
X182679249Y-55785369D01*
X182679252Y-55785368D01*
X182679255Y-55785368D01*
X182849522Y-55725789D01*
X183002262Y-55629816D01*
X183129816Y-55502262D01*
X183225789Y-55349522D01*
X183285368Y-55179255D01*
X183300750Y-55042737D01*
X183305565Y-55000003D01*
X183305565Y-54999996D01*
X184194435Y-54999996D01*
X184194435Y-55000003D01*
X184214630Y-55179249D01*
X184214631Y-55179254D01*
X184274211Y-55349523D01*
X184370184Y-55502262D01*
X184497738Y-55629816D01*
X184517630Y-55642315D01*
X184648036Y-55724255D01*
X184650478Y-55725789D01*
X184820745Y-55785368D01*
X184820750Y-55785369D01*
X184999996Y-55805565D01*
X185000000Y-55805565D01*
X185000004Y-55805565D01*
X185179249Y-55785369D01*
X185179252Y-55785368D01*
X185179255Y-55785368D01*
X185349522Y-55725789D01*
X185502262Y-55629816D01*
X185629816Y-55502262D01*
X185725789Y-55349522D01*
X185785368Y-55179255D01*
X185800750Y-55042737D01*
X185805565Y-55000003D01*
X185805565Y-54999996D01*
X186694435Y-54999996D01*
X186694435Y-55000003D01*
X186714630Y-55179249D01*
X186714631Y-55179254D01*
X186774211Y-55349523D01*
X186870184Y-55502262D01*
X186997738Y-55629816D01*
X187017630Y-55642315D01*
X187148036Y-55724255D01*
X187150478Y-55725789D01*
X187320745Y-55785368D01*
X187320750Y-55785369D01*
X187499996Y-55805565D01*
X187500000Y-55805565D01*
X187500004Y-55805565D01*
X187679249Y-55785369D01*
X187679252Y-55785368D01*
X187679255Y-55785368D01*
X187849522Y-55725789D01*
X188002262Y-55629816D01*
X188129816Y-55502262D01*
X188225789Y-55349522D01*
X188285368Y-55179255D01*
X188300750Y-55042737D01*
X188305565Y-55000003D01*
X188305565Y-54999996D01*
X189194435Y-54999996D01*
X189194435Y-55000003D01*
X189214630Y-55179249D01*
X189214631Y-55179254D01*
X189274211Y-55349523D01*
X189370184Y-55502262D01*
X189497738Y-55629816D01*
X189517630Y-55642315D01*
X189648036Y-55724255D01*
X189650478Y-55725789D01*
X189820745Y-55785368D01*
X189820750Y-55785369D01*
X189999996Y-55805565D01*
X190000000Y-55805565D01*
X190000004Y-55805565D01*
X190179249Y-55785369D01*
X190179252Y-55785368D01*
X190179255Y-55785368D01*
X190349522Y-55725789D01*
X190502262Y-55629816D01*
X190629816Y-55502262D01*
X190725789Y-55349522D01*
X190785368Y-55179255D01*
X190800750Y-55042737D01*
X190805565Y-55000003D01*
X190805565Y-54999996D01*
X191694435Y-54999996D01*
X191694435Y-55000003D01*
X191714630Y-55179249D01*
X191714631Y-55179254D01*
X191774211Y-55349523D01*
X191870184Y-55502262D01*
X191997738Y-55629816D01*
X192017630Y-55642315D01*
X192148036Y-55724255D01*
X192150478Y-55725789D01*
X192320745Y-55785368D01*
X192320750Y-55785369D01*
X192499996Y-55805565D01*
X192500000Y-55805565D01*
X192500004Y-55805565D01*
X192679249Y-55785369D01*
X192679252Y-55785368D01*
X192679255Y-55785368D01*
X192849522Y-55725789D01*
X193002262Y-55629816D01*
X193129816Y-55502262D01*
X193225789Y-55349522D01*
X193285368Y-55179255D01*
X193300750Y-55042737D01*
X193305565Y-55000003D01*
X193305565Y-54999996D01*
X194194435Y-54999996D01*
X194194435Y-55000003D01*
X194214630Y-55179249D01*
X194214631Y-55179254D01*
X194274211Y-55349523D01*
X194370184Y-55502262D01*
X194497738Y-55629816D01*
X194517630Y-55642315D01*
X194648036Y-55724255D01*
X194650478Y-55725789D01*
X194820745Y-55785368D01*
X194820750Y-55785369D01*
X194999996Y-55805565D01*
X195000000Y-55805565D01*
X195000004Y-55805565D01*
X195179249Y-55785369D01*
X195179252Y-55785368D01*
X195179255Y-55785368D01*
X195349522Y-55725789D01*
X195502262Y-55629816D01*
X195629816Y-55502262D01*
X195725789Y-55349522D01*
X195785368Y-55179255D01*
X195800750Y-55042737D01*
X195804157Y-55012496D01*
X201665835Y-55012496D01*
X201665835Y-55012503D01*
X201686030Y-55191749D01*
X201686031Y-55191754D01*
X201745611Y-55362023D01*
X201747950Y-55365745D01*
X201841584Y-55514762D01*
X201969138Y-55642316D01*
X202121878Y-55738289D01*
X202256422Y-55785368D01*
X202292145Y-55797868D01*
X202292150Y-55797869D01*
X202471396Y-55818065D01*
X202471400Y-55818065D01*
X202471404Y-55818065D01*
X202650649Y-55797869D01*
X202650652Y-55797868D01*
X202650655Y-55797868D01*
X202820922Y-55738289D01*
X202973662Y-55642316D01*
X203101216Y-55514762D01*
X203197189Y-55362022D01*
X203256768Y-55191755D01*
X203257767Y-55182891D01*
X203276965Y-55012503D01*
X203276965Y-55012496D01*
X203256769Y-54833250D01*
X203256768Y-54833245D01*
X203197188Y-54662976D01*
X203101215Y-54510237D01*
X202973662Y-54382684D01*
X202820923Y-54286711D01*
X202650654Y-54227131D01*
X202650649Y-54227130D01*
X202471404Y-54206935D01*
X202471396Y-54206935D01*
X202292150Y-54227130D01*
X202292145Y-54227131D01*
X202121876Y-54286711D01*
X201969137Y-54382684D01*
X201841584Y-54510237D01*
X201745611Y-54662976D01*
X201686031Y-54833245D01*
X201686030Y-54833250D01*
X201665835Y-55012496D01*
X195804157Y-55012496D01*
X195805565Y-55000003D01*
X195805565Y-54999996D01*
X195785369Y-54820750D01*
X195785368Y-54820745D01*
X195730162Y-54662976D01*
X195725789Y-54650478D01*
X195629816Y-54497738D01*
X195502262Y-54370184D01*
X195369416Y-54286711D01*
X195349523Y-54274211D01*
X195179254Y-54214631D01*
X195179249Y-54214630D01*
X195000004Y-54194435D01*
X194999996Y-54194435D01*
X194820750Y-54214630D01*
X194820745Y-54214631D01*
X194650476Y-54274211D01*
X194497737Y-54370184D01*
X194370184Y-54497737D01*
X194274211Y-54650476D01*
X194214631Y-54820745D01*
X194214630Y-54820750D01*
X194194435Y-54999996D01*
X193305565Y-54999996D01*
X193285369Y-54820750D01*
X193285368Y-54820745D01*
X193230162Y-54662976D01*
X193225789Y-54650478D01*
X193129816Y-54497738D01*
X193002262Y-54370184D01*
X192869416Y-54286711D01*
X192849523Y-54274211D01*
X192679254Y-54214631D01*
X192679249Y-54214630D01*
X192500004Y-54194435D01*
X192499996Y-54194435D01*
X192320750Y-54214630D01*
X192320745Y-54214631D01*
X192150476Y-54274211D01*
X191997737Y-54370184D01*
X191870184Y-54497737D01*
X191774211Y-54650476D01*
X191714631Y-54820745D01*
X191714630Y-54820750D01*
X191694435Y-54999996D01*
X190805565Y-54999996D01*
X190785369Y-54820750D01*
X190785368Y-54820745D01*
X190730162Y-54662976D01*
X190725789Y-54650478D01*
X190629816Y-54497738D01*
X190502262Y-54370184D01*
X190369416Y-54286711D01*
X190349523Y-54274211D01*
X190179254Y-54214631D01*
X190179249Y-54214630D01*
X190000004Y-54194435D01*
X189999996Y-54194435D01*
X189820750Y-54214630D01*
X189820745Y-54214631D01*
X189650476Y-54274211D01*
X189497737Y-54370184D01*
X189370184Y-54497737D01*
X189274211Y-54650476D01*
X189214631Y-54820745D01*
X189214630Y-54820750D01*
X189194435Y-54999996D01*
X188305565Y-54999996D01*
X188285369Y-54820750D01*
X188285368Y-54820745D01*
X188230162Y-54662976D01*
X188225789Y-54650478D01*
X188129816Y-54497738D01*
X188002262Y-54370184D01*
X187869416Y-54286711D01*
X187849523Y-54274211D01*
X187679254Y-54214631D01*
X187679249Y-54214630D01*
X187500004Y-54194435D01*
X187499996Y-54194435D01*
X187320750Y-54214630D01*
X187320745Y-54214631D01*
X187150476Y-54274211D01*
X186997737Y-54370184D01*
X186870184Y-54497737D01*
X186774211Y-54650476D01*
X186714631Y-54820745D01*
X186714630Y-54820750D01*
X186694435Y-54999996D01*
X185805565Y-54999996D01*
X185785369Y-54820750D01*
X185785368Y-54820745D01*
X185730162Y-54662976D01*
X185725789Y-54650478D01*
X185629816Y-54497738D01*
X185502262Y-54370184D01*
X185369416Y-54286711D01*
X185349523Y-54274211D01*
X185179254Y-54214631D01*
X185179249Y-54214630D01*
X185000004Y-54194435D01*
X184999996Y-54194435D01*
X184820750Y-54214630D01*
X184820745Y-54214631D01*
X184650476Y-54274211D01*
X184497737Y-54370184D01*
X184370184Y-54497737D01*
X184274211Y-54650476D01*
X184214631Y-54820745D01*
X184214630Y-54820750D01*
X184194435Y-54999996D01*
X183305565Y-54999996D01*
X183285369Y-54820750D01*
X183285368Y-54820745D01*
X183230162Y-54662976D01*
X183225789Y-54650478D01*
X183129816Y-54497738D01*
X183002262Y-54370184D01*
X182869416Y-54286711D01*
X182849523Y-54274211D01*
X182679254Y-54214631D01*
X182679249Y-54214630D01*
X182500004Y-54194435D01*
X182499996Y-54194435D01*
X182320750Y-54214630D01*
X182320745Y-54214631D01*
X182150476Y-54274211D01*
X181997737Y-54370184D01*
X181870184Y-54497737D01*
X181774211Y-54650476D01*
X181714631Y-54820745D01*
X181714630Y-54820750D01*
X181694435Y-54999996D01*
X180805565Y-54999996D01*
X180785369Y-54820750D01*
X180785368Y-54820745D01*
X180730162Y-54662976D01*
X180725789Y-54650478D01*
X180629816Y-54497738D01*
X180502262Y-54370184D01*
X180369416Y-54286711D01*
X180349523Y-54274211D01*
X180179254Y-54214631D01*
X180179249Y-54214630D01*
X180000004Y-54194435D01*
X179999996Y-54194435D01*
X179820750Y-54214630D01*
X179820745Y-54214631D01*
X179650476Y-54274211D01*
X179497737Y-54370184D01*
X179370184Y-54497737D01*
X179274211Y-54650476D01*
X179214631Y-54820745D01*
X179214630Y-54820750D01*
X179194435Y-54999996D01*
X178305565Y-54999996D01*
X178285369Y-54820750D01*
X178285368Y-54820745D01*
X178230162Y-54662976D01*
X178225789Y-54650478D01*
X178129816Y-54497738D01*
X178002262Y-54370184D01*
X177869416Y-54286711D01*
X177849523Y-54274211D01*
X177679254Y-54214631D01*
X177679249Y-54214630D01*
X177500004Y-54194435D01*
X177499996Y-54194435D01*
X177320750Y-54214630D01*
X177320745Y-54214631D01*
X177150476Y-54274211D01*
X176997737Y-54370184D01*
X176870184Y-54497737D01*
X176774211Y-54650476D01*
X176714631Y-54820745D01*
X176714630Y-54820750D01*
X176694435Y-54999996D01*
X175805565Y-54999996D01*
X175785369Y-54820750D01*
X175785368Y-54820745D01*
X175730162Y-54662976D01*
X175725789Y-54650478D01*
X175629816Y-54497738D01*
X175502262Y-54370184D01*
X175369416Y-54286711D01*
X175349523Y-54274211D01*
X175179254Y-54214631D01*
X175179249Y-54214630D01*
X175000004Y-54194435D01*
X174999996Y-54194435D01*
X174820750Y-54214630D01*
X174820745Y-54214631D01*
X174650476Y-54274211D01*
X174497737Y-54370184D01*
X174370184Y-54497737D01*
X174274211Y-54650476D01*
X174214631Y-54820745D01*
X174214630Y-54820750D01*
X174194435Y-54999996D01*
X173305565Y-54999996D01*
X173285369Y-54820750D01*
X173285368Y-54820745D01*
X173230162Y-54662976D01*
X173225789Y-54650478D01*
X173129816Y-54497738D01*
X173002262Y-54370184D01*
X172869416Y-54286711D01*
X172849523Y-54274211D01*
X172679254Y-54214631D01*
X172679249Y-54214630D01*
X172500004Y-54194435D01*
X172499996Y-54194435D01*
X172320750Y-54214630D01*
X172320745Y-54214631D01*
X172150476Y-54274211D01*
X171997737Y-54370184D01*
X171870184Y-54497737D01*
X171774211Y-54650476D01*
X171714631Y-54820745D01*
X171714630Y-54820750D01*
X171694435Y-54999996D01*
X170805565Y-54999996D01*
X170785369Y-54820750D01*
X170785368Y-54820745D01*
X170730162Y-54662976D01*
X170725789Y-54650478D01*
X170629816Y-54497738D01*
X170502262Y-54370184D01*
X170369416Y-54286711D01*
X170349523Y-54274211D01*
X170179254Y-54214631D01*
X170179249Y-54214630D01*
X170000004Y-54194435D01*
X169999996Y-54194435D01*
X169820750Y-54214630D01*
X169820745Y-54214631D01*
X169650476Y-54274211D01*
X169497737Y-54370184D01*
X169370184Y-54497737D01*
X169274211Y-54650476D01*
X169214631Y-54820745D01*
X169214630Y-54820750D01*
X169194435Y-54999996D01*
X167513274Y-54999996D01*
X167428462Y-54915184D01*
X167275723Y-54819211D01*
X167105454Y-54759631D01*
X167105449Y-54759630D01*
X166926204Y-54739435D01*
X166926196Y-54739435D01*
X166746950Y-54759630D01*
X166746945Y-54759631D01*
X166576676Y-54819211D01*
X166423937Y-54915184D01*
X166296384Y-55042737D01*
X166200411Y-55195476D01*
X166140831Y-55365745D01*
X166140830Y-55365750D01*
X166120635Y-55544996D01*
X163087082Y-55544996D01*
X163129816Y-55502262D01*
X163225789Y-55349522D01*
X163285368Y-55179255D01*
X163300750Y-55042737D01*
X163305565Y-55000003D01*
X163305565Y-54999996D01*
X163285369Y-54820750D01*
X163285368Y-54820745D01*
X163230162Y-54662976D01*
X163225789Y-54650478D01*
X163129816Y-54497738D01*
X163002262Y-54370184D01*
X162869416Y-54286711D01*
X162849523Y-54274211D01*
X162679254Y-54214631D01*
X162679249Y-54214630D01*
X162500004Y-54194435D01*
X162499996Y-54194435D01*
X162320750Y-54214630D01*
X162320745Y-54214631D01*
X162150476Y-54274211D01*
X161997737Y-54370184D01*
X161870184Y-54497737D01*
X161774211Y-54650476D01*
X161714631Y-54820745D01*
X161714630Y-54820750D01*
X161694435Y-54999996D01*
X160805565Y-54999996D01*
X160785369Y-54820750D01*
X160785368Y-54820745D01*
X160730162Y-54662976D01*
X160725789Y-54650478D01*
X160629816Y-54497738D01*
X160502262Y-54370184D01*
X160369416Y-54286711D01*
X160349523Y-54274211D01*
X160179254Y-54214631D01*
X160179249Y-54214630D01*
X160000004Y-54194435D01*
X159999996Y-54194435D01*
X159820750Y-54214630D01*
X159820745Y-54214631D01*
X159650476Y-54274211D01*
X159497737Y-54370184D01*
X159370184Y-54497737D01*
X159274209Y-54650480D01*
X159241041Y-54745269D01*
X159200320Y-54802045D01*
X159135367Y-54827792D01*
X159066805Y-54814336D01*
X159016403Y-54765948D01*
X159000000Y-54704314D01*
X159000000Y-52795685D01*
X159019685Y-52728646D01*
X159072489Y-52682891D01*
X159141647Y-52672947D01*
X159205203Y-52701972D01*
X159241042Y-52754731D01*
X159274210Y-52849521D01*
X159370184Y-53002262D01*
X159497738Y-53129816D01*
X159650478Y-53225789D01*
X159820745Y-53285368D01*
X159820750Y-53285369D01*
X159999996Y-53305565D01*
X160000000Y-53305565D01*
X160000004Y-53305565D01*
X160179249Y-53285369D01*
X160179252Y-53285368D01*
X160179255Y-53285368D01*
X160349522Y-53225789D01*
X160502262Y-53129816D01*
X160629816Y-53002262D01*
X160725789Y-52849522D01*
X160785368Y-52679255D01*
X160805565Y-52500000D01*
X160785368Y-52320745D01*
X160785367Y-52320742D01*
X160730855Y-52164954D01*
X160727294Y-52095176D01*
X160762023Y-52034548D01*
X160824016Y-52002321D01*
X160847897Y-52000000D01*
X161652103Y-52000000D01*
X161719142Y-52019685D01*
G37*
%TD.AperFunction*%
%TD*%
%TA.AperFunction,Conductor*%
%TO.N,/P12V_RTN*%
G36*
X209342539Y-85019685D02*
G01*
X209388294Y-85072489D01*
X209399500Y-85124000D01*
X209399500Y-91939902D01*
X209379815Y-92006941D01*
X209363181Y-92027583D01*
X208879481Y-92511282D01*
X208879479Y-92511285D01*
X208829361Y-92598094D01*
X208829359Y-92598096D01*
X208800425Y-92648209D01*
X208800424Y-92648210D01*
X208800423Y-92648215D01*
X208759499Y-92800943D01*
X208759499Y-92800945D01*
X208759499Y-92969046D01*
X208759500Y-92969059D01*
X208759500Y-96848179D01*
X208739815Y-96915218D01*
X208687011Y-96960973D01*
X208682962Y-96962736D01*
X208675177Y-96965960D01*
X208675174Y-96965962D01*
X208473359Y-97089634D01*
X208473358Y-97089635D01*
X208293365Y-97243365D01*
X208139635Y-97423358D01*
X208139634Y-97423359D01*
X208015960Y-97625177D01*
X207925378Y-97843863D01*
X207870122Y-98074022D01*
X207851550Y-98310000D01*
X207870122Y-98545977D01*
X207925378Y-98776136D01*
X208015960Y-98994822D01*
X208139634Y-99196640D01*
X208139635Y-99196641D01*
X208139636Y-99196643D01*
X208139638Y-99196645D01*
X208293365Y-99376635D01*
X208473355Y-99530362D01*
X208473357Y-99530363D01*
X208473358Y-99530364D01*
X208473359Y-99530365D01*
X208675177Y-99654039D01*
X208893863Y-99744621D01*
X209124026Y-99799878D01*
X209360000Y-99818450D01*
X209595974Y-99799878D01*
X209826137Y-99744621D01*
X210044822Y-99654039D01*
X210246645Y-99530362D01*
X210426635Y-99376635D01*
X210580362Y-99196645D01*
X210704039Y-98994822D01*
X210794621Y-98776137D01*
X210849878Y-98545974D01*
X210868450Y-98310000D01*
X210849878Y-98074026D01*
X210794621Y-97843863D01*
X210704039Y-97625178D01*
X210704039Y-97625177D01*
X210580365Y-97423359D01*
X210580364Y-97423358D01*
X210580363Y-97423357D01*
X210580362Y-97423355D01*
X210426635Y-97243365D01*
X210246645Y-97089638D01*
X210246643Y-97089636D01*
X210246641Y-97089635D01*
X210246640Y-97089634D01*
X210044825Y-96965962D01*
X210044822Y-96965960D01*
X210037038Y-96962736D01*
X209982638Y-96918891D01*
X209960579Y-96852595D01*
X209960500Y-96848179D01*
X209960500Y-93180097D01*
X209980185Y-93113058D01*
X209996819Y-93092416D01*
X210130178Y-92959057D01*
X210480520Y-92608716D01*
X210559577Y-92471784D01*
X210600501Y-92319057D01*
X210600501Y-92160942D01*
X210600501Y-92153347D01*
X210600500Y-92153329D01*
X210600500Y-85124000D01*
X210620185Y-85056961D01*
X210672989Y-85011206D01*
X210724500Y-85000000D01*
X212876000Y-85000000D01*
X212943039Y-85019685D01*
X212988794Y-85072489D01*
X213000000Y-85124000D01*
X213000000Y-86652103D01*
X212980315Y-86719142D01*
X212927511Y-86764897D01*
X212858353Y-86774841D01*
X212835046Y-86769145D01*
X212679257Y-86714632D01*
X212679249Y-86714630D01*
X212500004Y-86694435D01*
X212499996Y-86694435D01*
X212320750Y-86714630D01*
X212320745Y-86714631D01*
X212150476Y-86774211D01*
X211997737Y-86870184D01*
X211870184Y-86997737D01*
X211774211Y-87150476D01*
X211714631Y-87320745D01*
X211714630Y-87320750D01*
X211694435Y-87499996D01*
X211694435Y-87500003D01*
X211714630Y-87679249D01*
X211714631Y-87679254D01*
X211774211Y-87849523D01*
X211870184Y-88002262D01*
X211997738Y-88129816D01*
X212150478Y-88225789D01*
X212254023Y-88262021D01*
X212320745Y-88285368D01*
X212320750Y-88285369D01*
X212499996Y-88305565D01*
X212500000Y-88305565D01*
X212500004Y-88305565D01*
X212679249Y-88285369D01*
X212679251Y-88285368D01*
X212679255Y-88285368D01*
X212679258Y-88285366D01*
X212679262Y-88285366D01*
X212835045Y-88230855D01*
X212904824Y-88227293D01*
X212965451Y-88262021D01*
X212997679Y-88324015D01*
X213000000Y-88347896D01*
X213000000Y-89152103D01*
X212980315Y-89219142D01*
X212927511Y-89264897D01*
X212858353Y-89274841D01*
X212835046Y-89269145D01*
X212679257Y-89214632D01*
X212679249Y-89214630D01*
X212500004Y-89194435D01*
X212499996Y-89194435D01*
X212320750Y-89214630D01*
X212320745Y-89214631D01*
X212150476Y-89274211D01*
X211997737Y-89370184D01*
X211870184Y-89497737D01*
X211774211Y-89650476D01*
X211714631Y-89820745D01*
X211714630Y-89820750D01*
X211694435Y-89999996D01*
X211694435Y-90000003D01*
X211714630Y-90179249D01*
X211714631Y-90179254D01*
X211774211Y-90349523D01*
X211870184Y-90502262D01*
X211997738Y-90629816D01*
X212150478Y-90725789D01*
X212254023Y-90762021D01*
X212320745Y-90785368D01*
X212320750Y-90785369D01*
X212499996Y-90805565D01*
X212500000Y-90805565D01*
X212500004Y-90805565D01*
X212679249Y-90785369D01*
X212679251Y-90785368D01*
X212679255Y-90785368D01*
X212679258Y-90785366D01*
X212679262Y-90785366D01*
X212835045Y-90730855D01*
X212904824Y-90727293D01*
X212965451Y-90762021D01*
X212997679Y-90824015D01*
X213000000Y-90847896D01*
X213000000Y-91652103D01*
X212980315Y-91719142D01*
X212927511Y-91764897D01*
X212858353Y-91774841D01*
X212835046Y-91769145D01*
X212679257Y-91714632D01*
X212679249Y-91714630D01*
X212500004Y-91694435D01*
X212499996Y-91694435D01*
X212320750Y-91714630D01*
X212320745Y-91714631D01*
X212150476Y-91774211D01*
X211997737Y-91870184D01*
X211870184Y-91997737D01*
X211774211Y-92150476D01*
X211714631Y-92320745D01*
X211714630Y-92320750D01*
X211694435Y-92499996D01*
X211694435Y-92500003D01*
X211714630Y-92679249D01*
X211714631Y-92679254D01*
X211774211Y-92849523D01*
X211843036Y-92959057D01*
X211870184Y-93002262D01*
X211997738Y-93129816D01*
X212150478Y-93225789D01*
X212254023Y-93262021D01*
X212320745Y-93285368D01*
X212320750Y-93285369D01*
X212499996Y-93305565D01*
X212500000Y-93305565D01*
X212500004Y-93305565D01*
X212679249Y-93285369D01*
X212679251Y-93285368D01*
X212679255Y-93285368D01*
X212679258Y-93285366D01*
X212679262Y-93285366D01*
X212835045Y-93230855D01*
X212904824Y-93227293D01*
X212965451Y-93262021D01*
X212997679Y-93324015D01*
X213000000Y-93347896D01*
X213000000Y-104152103D01*
X212980315Y-104219142D01*
X212927511Y-104264897D01*
X212858353Y-104274841D01*
X212835046Y-104269145D01*
X212679257Y-104214632D01*
X212679249Y-104214630D01*
X212500004Y-104194435D01*
X212499996Y-104194435D01*
X212320750Y-104214630D01*
X212320745Y-104214631D01*
X212150476Y-104274211D01*
X211997737Y-104370184D01*
X211870184Y-104497737D01*
X211774211Y-104650476D01*
X211714631Y-104820745D01*
X211714630Y-104820749D01*
X211706842Y-104889883D01*
X211679776Y-104954297D01*
X211622182Y-104993852D01*
X211583622Y-105000000D01*
X210916378Y-105000000D01*
X210849339Y-104980315D01*
X210803584Y-104927511D01*
X210793158Y-104889883D01*
X210785369Y-104820749D01*
X210785368Y-104820745D01*
X210725788Y-104650476D01*
X210629815Y-104497737D01*
X210502262Y-104370184D01*
X210349523Y-104274211D01*
X210179254Y-104214631D01*
X210179249Y-104214630D01*
X210000004Y-104194435D01*
X209999996Y-104194435D01*
X209820750Y-104214630D01*
X209820745Y-104214631D01*
X209650476Y-104274211D01*
X209497737Y-104370184D01*
X209370184Y-104497737D01*
X209274211Y-104650476D01*
X209214631Y-104820745D01*
X209214630Y-104820749D01*
X209206842Y-104889883D01*
X209179776Y-104954297D01*
X209122182Y-104993852D01*
X209083622Y-105000000D01*
X208416378Y-105000000D01*
X208349339Y-104980315D01*
X208303584Y-104927511D01*
X208293158Y-104889883D01*
X208285369Y-104820749D01*
X208285368Y-104820745D01*
X208225788Y-104650476D01*
X208129815Y-104497737D01*
X208002262Y-104370184D01*
X207849523Y-104274211D01*
X207679254Y-104214631D01*
X207679249Y-104214630D01*
X207500004Y-104194435D01*
X207499996Y-104194435D01*
X207320750Y-104214630D01*
X207320745Y-104214631D01*
X207150476Y-104274211D01*
X206997737Y-104370184D01*
X206870184Y-104497737D01*
X206774211Y-104650476D01*
X206714631Y-104820745D01*
X206714630Y-104820749D01*
X206706842Y-104889883D01*
X206679776Y-104954297D01*
X206622182Y-104993852D01*
X206583622Y-105000000D01*
X205916378Y-105000000D01*
X205849339Y-104980315D01*
X205803584Y-104927511D01*
X205793158Y-104889883D01*
X205785369Y-104820749D01*
X205785368Y-104820745D01*
X205725788Y-104650476D01*
X205629815Y-104497737D01*
X205502262Y-104370184D01*
X205349523Y-104274211D01*
X205179254Y-104214631D01*
X205179249Y-104214630D01*
X205000004Y-104194435D01*
X204999996Y-104194435D01*
X204820750Y-104214630D01*
X204820745Y-104214631D01*
X204650476Y-104274211D01*
X204497737Y-104370184D01*
X204370184Y-104497737D01*
X204274211Y-104650476D01*
X204214631Y-104820745D01*
X204214630Y-104820749D01*
X204206842Y-104889883D01*
X204179776Y-104954297D01*
X204122182Y-104993852D01*
X204083622Y-105000000D01*
X203416378Y-105000000D01*
X203349339Y-104980315D01*
X203303584Y-104927511D01*
X203293158Y-104889883D01*
X203285369Y-104820749D01*
X203285368Y-104820745D01*
X203225788Y-104650476D01*
X203129815Y-104497737D01*
X203002262Y-104370184D01*
X202849523Y-104274211D01*
X202679254Y-104214631D01*
X202679249Y-104214630D01*
X202500004Y-104194435D01*
X202499996Y-104194435D01*
X202320750Y-104214630D01*
X202320745Y-104214631D01*
X202150476Y-104274211D01*
X201997737Y-104370184D01*
X201870184Y-104497737D01*
X201774211Y-104650476D01*
X201714631Y-104820745D01*
X201714630Y-104820749D01*
X201706842Y-104889883D01*
X201679776Y-104954297D01*
X201622182Y-104993852D01*
X201583622Y-105000000D01*
X200916378Y-105000000D01*
X200849339Y-104980315D01*
X200803584Y-104927511D01*
X200793158Y-104889883D01*
X200785369Y-104820749D01*
X200785368Y-104820745D01*
X200725788Y-104650476D01*
X200629815Y-104497737D01*
X200502262Y-104370184D01*
X200349523Y-104274211D01*
X200179254Y-104214631D01*
X200179249Y-104214630D01*
X200000004Y-104194435D01*
X199999996Y-104194435D01*
X199820750Y-104214630D01*
X199820745Y-104214631D01*
X199650476Y-104274211D01*
X199497737Y-104370184D01*
X199370184Y-104497737D01*
X199274211Y-104650476D01*
X199214631Y-104820745D01*
X199214630Y-104820749D01*
X199206842Y-104889883D01*
X199179776Y-104954297D01*
X199122182Y-104993852D01*
X199083622Y-105000000D01*
X198416378Y-105000000D01*
X198349339Y-104980315D01*
X198303584Y-104927511D01*
X198293158Y-104889883D01*
X198285369Y-104820749D01*
X198285368Y-104820745D01*
X198225788Y-104650476D01*
X198129815Y-104497737D01*
X198002262Y-104370184D01*
X197849523Y-104274211D01*
X197679254Y-104214631D01*
X197679249Y-104214630D01*
X197500004Y-104194435D01*
X197499996Y-104194435D01*
X197320750Y-104214630D01*
X197320745Y-104214631D01*
X197150476Y-104274211D01*
X196997737Y-104370184D01*
X196870184Y-104497737D01*
X196774211Y-104650476D01*
X196714631Y-104820745D01*
X196714630Y-104820749D01*
X196706842Y-104889883D01*
X196679776Y-104954297D01*
X196622182Y-104993852D01*
X196583622Y-105000000D01*
X195916378Y-105000000D01*
X195849339Y-104980315D01*
X195803584Y-104927511D01*
X195793158Y-104889883D01*
X195785369Y-104820749D01*
X195785368Y-104820745D01*
X195725788Y-104650476D01*
X195629815Y-104497737D01*
X195502262Y-104370184D01*
X195349523Y-104274211D01*
X195179254Y-104214631D01*
X195179249Y-104214630D01*
X195000004Y-104194435D01*
X194999996Y-104194435D01*
X194820750Y-104214630D01*
X194820745Y-104214631D01*
X194650476Y-104274211D01*
X194497737Y-104370184D01*
X194370184Y-104497737D01*
X194274211Y-104650476D01*
X194214631Y-104820745D01*
X194214630Y-104820749D01*
X194206842Y-104889883D01*
X194179776Y-104954297D01*
X194122182Y-104993852D01*
X194083622Y-105000000D01*
X193416378Y-105000000D01*
X193349339Y-104980315D01*
X193303584Y-104927511D01*
X193293158Y-104889883D01*
X193285369Y-104820749D01*
X193285368Y-104820745D01*
X193225788Y-104650476D01*
X193129815Y-104497737D01*
X193002262Y-104370184D01*
X192849523Y-104274211D01*
X192679254Y-104214631D01*
X192679249Y-104214630D01*
X192500004Y-104194435D01*
X192499996Y-104194435D01*
X192320750Y-104214630D01*
X192320745Y-104214631D01*
X192150476Y-104274211D01*
X191997737Y-104370184D01*
X191870184Y-104497737D01*
X191774211Y-104650476D01*
X191714631Y-104820745D01*
X191714630Y-104820749D01*
X191706842Y-104889883D01*
X191679776Y-104954297D01*
X191622182Y-104993852D01*
X191583622Y-105000000D01*
X190916378Y-105000000D01*
X190849339Y-104980315D01*
X190803584Y-104927511D01*
X190793158Y-104889883D01*
X190785369Y-104820749D01*
X190785368Y-104820745D01*
X190725788Y-104650476D01*
X190629815Y-104497737D01*
X190502262Y-104370184D01*
X190349523Y-104274211D01*
X190179254Y-104214631D01*
X190179249Y-104214630D01*
X190000004Y-104194435D01*
X189999996Y-104194435D01*
X189820750Y-104214630D01*
X189820745Y-104214631D01*
X189650476Y-104274211D01*
X189497737Y-104370184D01*
X189370184Y-104497737D01*
X189274211Y-104650476D01*
X189214631Y-104820745D01*
X189214630Y-104820749D01*
X189206842Y-104889883D01*
X189179776Y-104954297D01*
X189122182Y-104993852D01*
X189083622Y-105000000D01*
X188416378Y-105000000D01*
X188349339Y-104980315D01*
X188303584Y-104927511D01*
X188293158Y-104889883D01*
X188285369Y-104820749D01*
X188285368Y-104820745D01*
X188225788Y-104650476D01*
X188129815Y-104497737D01*
X188002262Y-104370184D01*
X187849523Y-104274211D01*
X187679254Y-104214631D01*
X187679249Y-104214630D01*
X187500004Y-104194435D01*
X187499996Y-104194435D01*
X187320750Y-104214630D01*
X187320745Y-104214631D01*
X187150476Y-104274211D01*
X186997737Y-104370184D01*
X186870184Y-104497737D01*
X186774211Y-104650476D01*
X186714631Y-104820745D01*
X186714630Y-104820749D01*
X186706842Y-104889883D01*
X186679776Y-104954297D01*
X186622182Y-104993852D01*
X186583622Y-105000000D01*
X185916378Y-105000000D01*
X185849339Y-104980315D01*
X185803584Y-104927511D01*
X185793158Y-104889883D01*
X185785369Y-104820749D01*
X185785368Y-104820745D01*
X185725788Y-104650476D01*
X185629815Y-104497737D01*
X185502262Y-104370184D01*
X185349523Y-104274211D01*
X185179254Y-104214631D01*
X185179249Y-104214630D01*
X185000004Y-104194435D01*
X184999996Y-104194435D01*
X184820750Y-104214630D01*
X184820745Y-104214631D01*
X184650476Y-104274211D01*
X184497737Y-104370184D01*
X184370184Y-104497737D01*
X184274211Y-104650476D01*
X184214631Y-104820745D01*
X184214630Y-104820749D01*
X184206842Y-104889883D01*
X184179776Y-104954297D01*
X184122182Y-104993852D01*
X184083622Y-105000000D01*
X180916378Y-105000000D01*
X180849339Y-104980315D01*
X180803584Y-104927511D01*
X180793158Y-104889883D01*
X180785369Y-104820749D01*
X180785368Y-104820745D01*
X180725788Y-104650476D01*
X180629815Y-104497737D01*
X180502262Y-104370184D01*
X180349523Y-104274211D01*
X180179254Y-104214631D01*
X180179249Y-104214630D01*
X180000004Y-104194435D01*
X179999996Y-104194435D01*
X179820750Y-104214630D01*
X179820745Y-104214631D01*
X179650476Y-104274211D01*
X179497737Y-104370184D01*
X179370184Y-104497737D01*
X179274211Y-104650476D01*
X179214631Y-104820745D01*
X179214630Y-104820749D01*
X179206842Y-104889883D01*
X179179776Y-104954297D01*
X179122182Y-104993852D01*
X179083622Y-105000000D01*
X178124000Y-105000000D01*
X178056961Y-104980315D01*
X178011206Y-104927511D01*
X178000000Y-104876000D01*
X178000000Y-102499996D01*
X179194435Y-102499996D01*
X179194435Y-102500003D01*
X179214630Y-102679249D01*
X179214631Y-102679254D01*
X179274211Y-102849523D01*
X179370184Y-103002262D01*
X179497738Y-103129816D01*
X179650478Y-103225789D01*
X179820745Y-103285368D01*
X179820750Y-103285369D01*
X179999996Y-103305565D01*
X180000000Y-103305565D01*
X180000004Y-103305565D01*
X180179249Y-103285369D01*
X180179252Y-103285368D01*
X180179255Y-103285368D01*
X180349522Y-103225789D01*
X180502262Y-103129816D01*
X180629816Y-103002262D01*
X180725789Y-102849522D01*
X180785368Y-102679255D01*
X180785369Y-102679249D01*
X180805565Y-102500003D01*
X180805565Y-102499996D01*
X180785369Y-102320750D01*
X180785368Y-102320745D01*
X180781607Y-102309996D01*
X182714435Y-102309996D01*
X182714435Y-102310003D01*
X182734630Y-102489249D01*
X182734631Y-102489254D01*
X182794211Y-102659523D01*
X182806606Y-102679249D01*
X182890184Y-102812262D01*
X183017738Y-102939816D01*
X183170478Y-103035789D01*
X183340745Y-103095368D01*
X183340750Y-103095369D01*
X183519996Y-103115565D01*
X183520000Y-103115565D01*
X183520004Y-103115565D01*
X183699249Y-103095369D01*
X183699252Y-103095368D01*
X183699255Y-103095368D01*
X183869522Y-103035789D01*
X184022262Y-102939816D01*
X184149816Y-102812262D01*
X184245789Y-102659522D01*
X184301610Y-102499996D01*
X191694435Y-102499996D01*
X191694435Y-102500003D01*
X191714630Y-102679249D01*
X191714631Y-102679254D01*
X191774211Y-102849523D01*
X191870184Y-103002262D01*
X191997738Y-103129816D01*
X192150478Y-103225789D01*
X192320745Y-103285368D01*
X192320750Y-103285369D01*
X192499996Y-103305565D01*
X192500000Y-103305565D01*
X192500004Y-103305565D01*
X192679249Y-103285369D01*
X192679252Y-103285368D01*
X192679255Y-103285368D01*
X192849522Y-103225789D01*
X193002262Y-103129816D01*
X193129816Y-103002262D01*
X193225789Y-102849522D01*
X193285368Y-102679255D01*
X193285369Y-102679249D01*
X193305565Y-102500003D01*
X193305565Y-102499996D01*
X194194435Y-102499996D01*
X194194435Y-102500003D01*
X194214630Y-102679249D01*
X194214631Y-102679254D01*
X194274211Y-102849523D01*
X194370184Y-103002262D01*
X194497738Y-103129816D01*
X194650478Y-103225789D01*
X194820745Y-103285368D01*
X194820750Y-103285369D01*
X194999996Y-103305565D01*
X195000000Y-103305565D01*
X195000004Y-103305565D01*
X195179249Y-103285369D01*
X195179252Y-103285368D01*
X195179255Y-103285368D01*
X195349522Y-103225789D01*
X195502262Y-103129816D01*
X195629816Y-103002262D01*
X195725789Y-102849522D01*
X195785368Y-102679255D01*
X195785369Y-102679249D01*
X195805565Y-102500003D01*
X195805565Y-102499996D01*
X196694435Y-102499996D01*
X196694435Y-102500003D01*
X196714630Y-102679249D01*
X196714631Y-102679254D01*
X196774211Y-102849523D01*
X196870184Y-103002262D01*
X196997738Y-103129816D01*
X197150478Y-103225789D01*
X197320745Y-103285368D01*
X197320750Y-103285369D01*
X197499996Y-103305565D01*
X197500000Y-103305565D01*
X197500004Y-103305565D01*
X197679249Y-103285369D01*
X197679252Y-103285368D01*
X197679255Y-103285368D01*
X197849522Y-103225789D01*
X198002262Y-103129816D01*
X198129816Y-103002262D01*
X198225789Y-102849522D01*
X198285368Y-102679255D01*
X198285369Y-102679249D01*
X198305565Y-102500003D01*
X198305565Y-102499996D01*
X199194435Y-102499996D01*
X199194435Y-102500003D01*
X199214630Y-102679249D01*
X199214631Y-102679254D01*
X199274211Y-102849523D01*
X199370184Y-103002262D01*
X199497738Y-103129816D01*
X199650478Y-103225789D01*
X199820745Y-103285368D01*
X199820750Y-103285369D01*
X199999996Y-103305565D01*
X200000000Y-103305565D01*
X200000004Y-103305565D01*
X200179249Y-103285369D01*
X200179252Y-103285368D01*
X200179255Y-103285368D01*
X200349522Y-103225789D01*
X200502262Y-103129816D01*
X200629816Y-103002262D01*
X200725789Y-102849522D01*
X200785368Y-102679255D01*
X200785369Y-102679249D01*
X200805565Y-102500003D01*
X200805565Y-102499996D01*
X201694435Y-102499996D01*
X201694435Y-102500003D01*
X201714630Y-102679249D01*
X201714631Y-102679254D01*
X201774211Y-102849523D01*
X201870184Y-103002262D01*
X201997738Y-103129816D01*
X202150478Y-103225789D01*
X202320745Y-103285368D01*
X202320750Y-103285369D01*
X202499996Y-103305565D01*
X202500000Y-103305565D01*
X202500004Y-103305565D01*
X202679249Y-103285369D01*
X202679252Y-103285368D01*
X202679255Y-103285368D01*
X202849522Y-103225789D01*
X203002262Y-103129816D01*
X203129816Y-103002262D01*
X203225789Y-102849522D01*
X203285368Y-102679255D01*
X203285369Y-102679249D01*
X203305565Y-102500003D01*
X203305565Y-102499996D01*
X203285369Y-102320750D01*
X203285368Y-102320745D01*
X203225788Y-102150476D01*
X203129815Y-101997737D01*
X203002262Y-101870184D01*
X202849523Y-101774211D01*
X202679254Y-101714631D01*
X202679249Y-101714630D01*
X202500004Y-101694435D01*
X202499996Y-101694435D01*
X202320750Y-101714630D01*
X202320745Y-101714631D01*
X202150476Y-101774211D01*
X201997737Y-101870184D01*
X201870184Y-101997737D01*
X201774211Y-102150476D01*
X201714631Y-102320745D01*
X201714630Y-102320750D01*
X201694435Y-102499996D01*
X200805565Y-102499996D01*
X200785369Y-102320750D01*
X200785368Y-102320745D01*
X200725788Y-102150476D01*
X200629815Y-101997737D01*
X200502262Y-101870184D01*
X200349523Y-101774211D01*
X200179254Y-101714631D01*
X200179249Y-101714630D01*
X200000004Y-101694435D01*
X199999996Y-101694435D01*
X199820750Y-101714630D01*
X199820745Y-101714631D01*
X199650476Y-101774211D01*
X199497737Y-101870184D01*
X199370184Y-101997737D01*
X199274211Y-102150476D01*
X199214631Y-102320745D01*
X199214630Y-102320750D01*
X199194435Y-102499996D01*
X198305565Y-102499996D01*
X198285369Y-102320750D01*
X198285368Y-102320745D01*
X198225788Y-102150476D01*
X198129815Y-101997737D01*
X198002262Y-101870184D01*
X197849523Y-101774211D01*
X197679254Y-101714631D01*
X197679249Y-101714630D01*
X197500004Y-101694435D01*
X197499996Y-101694435D01*
X197320750Y-101714630D01*
X197320745Y-101714631D01*
X197150476Y-101774211D01*
X196997737Y-101870184D01*
X196870184Y-101997737D01*
X196774211Y-102150476D01*
X196714631Y-102320745D01*
X196714630Y-102320750D01*
X196694435Y-102499996D01*
X195805565Y-102499996D01*
X195785369Y-102320750D01*
X195785368Y-102320745D01*
X195725788Y-102150476D01*
X195629815Y-101997737D01*
X195502262Y-101870184D01*
X195349523Y-101774211D01*
X195179254Y-101714631D01*
X195179249Y-101714630D01*
X195000004Y-101694435D01*
X194999996Y-101694435D01*
X194820750Y-101714630D01*
X194820745Y-101714631D01*
X194650476Y-101774211D01*
X194497737Y-101870184D01*
X194370184Y-101997737D01*
X194274211Y-102150476D01*
X194214631Y-102320745D01*
X194214630Y-102320750D01*
X194194435Y-102499996D01*
X193305565Y-102499996D01*
X193285369Y-102320750D01*
X193285368Y-102320745D01*
X193225788Y-102150476D01*
X193129815Y-101997737D01*
X193002262Y-101870184D01*
X192849523Y-101774211D01*
X192679254Y-101714631D01*
X192679249Y-101714630D01*
X192500004Y-101694435D01*
X192499996Y-101694435D01*
X192320750Y-101714630D01*
X192320745Y-101714631D01*
X192150476Y-101774211D01*
X191997737Y-101870184D01*
X191870184Y-101997737D01*
X191774211Y-102150476D01*
X191714631Y-102320745D01*
X191714630Y-102320750D01*
X191694435Y-102499996D01*
X184301610Y-102499996D01*
X184305368Y-102489255D01*
X184324354Y-102320750D01*
X184325565Y-102310003D01*
X184325565Y-102309996D01*
X184305369Y-102130750D01*
X184305368Y-102130745D01*
X184245788Y-101960476D01*
X184149815Y-101807737D01*
X184022262Y-101680184D01*
X183869523Y-101584211D01*
X183699254Y-101524631D01*
X183699249Y-101524630D01*
X183520004Y-101504435D01*
X183519996Y-101504435D01*
X183340750Y-101524630D01*
X183340745Y-101524631D01*
X183170476Y-101584211D01*
X183017737Y-101680184D01*
X182890184Y-101807737D01*
X182794211Y-101960476D01*
X182734631Y-102130745D01*
X182734630Y-102130750D01*
X182714435Y-102309996D01*
X180781607Y-102309996D01*
X180725788Y-102150476D01*
X180629815Y-101997737D01*
X180502262Y-101870184D01*
X180349523Y-101774211D01*
X180179254Y-101714631D01*
X180179249Y-101714630D01*
X180000004Y-101694435D01*
X179999996Y-101694435D01*
X179820750Y-101714630D01*
X179820745Y-101714631D01*
X179650476Y-101774211D01*
X179497737Y-101870184D01*
X179370184Y-101997737D01*
X179274211Y-102150476D01*
X179214631Y-102320745D01*
X179214630Y-102320750D01*
X179194435Y-102499996D01*
X178000000Y-102499996D01*
X178000000Y-99999996D01*
X179194435Y-99999996D01*
X179194435Y-100000003D01*
X179214630Y-100179249D01*
X179214631Y-100179254D01*
X179274211Y-100349523D01*
X179370184Y-100502262D01*
X179497738Y-100629816D01*
X179650478Y-100725789D01*
X179820745Y-100785368D01*
X179820750Y-100785369D01*
X179999996Y-100805565D01*
X180000000Y-100805565D01*
X180000004Y-100805565D01*
X180179249Y-100785369D01*
X180179252Y-100785368D01*
X180179255Y-100785368D01*
X180349522Y-100725789D01*
X180502262Y-100629816D01*
X180629816Y-100502262D01*
X180725789Y-100349522D01*
X180785368Y-100179255D01*
X180805565Y-100000000D01*
X180785368Y-99820745D01*
X180725789Y-99650478D01*
X180629816Y-99497738D01*
X180502262Y-99370184D01*
X180349523Y-99274211D01*
X180179254Y-99214631D01*
X180179249Y-99214630D01*
X180000004Y-99194435D01*
X179999996Y-99194435D01*
X179820750Y-99214630D01*
X179820745Y-99214631D01*
X179650476Y-99274211D01*
X179497737Y-99370184D01*
X179370184Y-99497737D01*
X179274211Y-99650476D01*
X179214631Y-99820745D01*
X179214630Y-99820750D01*
X179194435Y-99999996D01*
X178000000Y-99999996D01*
X178000000Y-94999996D01*
X191694435Y-94999996D01*
X191694435Y-95000003D01*
X191714630Y-95179249D01*
X191714631Y-95179254D01*
X191774211Y-95349523D01*
X191870184Y-95502262D01*
X191997738Y-95629816D01*
X192150478Y-95725789D01*
X192320745Y-95785368D01*
X192320750Y-95785369D01*
X192499996Y-95805565D01*
X192500000Y-95805565D01*
X192500004Y-95805565D01*
X192679249Y-95785369D01*
X192679252Y-95785368D01*
X192679255Y-95785368D01*
X192849522Y-95725789D01*
X193002262Y-95629816D01*
X193129816Y-95502262D01*
X193225789Y-95349522D01*
X193285368Y-95179255D01*
X193305565Y-95000000D01*
X193305565Y-94999996D01*
X199194435Y-94999996D01*
X199194435Y-95000003D01*
X199214630Y-95179249D01*
X199214631Y-95179254D01*
X199274211Y-95349523D01*
X199370184Y-95502262D01*
X199497738Y-95629816D01*
X199650478Y-95725789D01*
X199820745Y-95785368D01*
X199820750Y-95785369D01*
X199999996Y-95805565D01*
X200000000Y-95805565D01*
X200000004Y-95805565D01*
X200179249Y-95785369D01*
X200179252Y-95785368D01*
X200179255Y-95785368D01*
X200349522Y-95725789D01*
X200502262Y-95629816D01*
X200629816Y-95502262D01*
X200725789Y-95349522D01*
X200785368Y-95179255D01*
X200805565Y-95000000D01*
X200805565Y-94999996D01*
X201694435Y-94999996D01*
X201694435Y-95000003D01*
X201714630Y-95179249D01*
X201714631Y-95179254D01*
X201774211Y-95349523D01*
X201870184Y-95502262D01*
X201997738Y-95629816D01*
X202150478Y-95725789D01*
X202320745Y-95785368D01*
X202320750Y-95785369D01*
X202499996Y-95805565D01*
X202500000Y-95805565D01*
X202500004Y-95805565D01*
X202679249Y-95785369D01*
X202679252Y-95785368D01*
X202679255Y-95785368D01*
X202849522Y-95725789D01*
X203002262Y-95629816D01*
X203129816Y-95502262D01*
X203225789Y-95349522D01*
X203285368Y-95179255D01*
X203305565Y-95000000D01*
X203285368Y-94820745D01*
X203225789Y-94650478D01*
X203129816Y-94497738D01*
X203002262Y-94370184D01*
X202849523Y-94274211D01*
X202679254Y-94214631D01*
X202679249Y-94214630D01*
X202500004Y-94194435D01*
X202499996Y-94194435D01*
X202320750Y-94214630D01*
X202320745Y-94214631D01*
X202150476Y-94274211D01*
X201997737Y-94370184D01*
X201870184Y-94497737D01*
X201774211Y-94650476D01*
X201714631Y-94820745D01*
X201714630Y-94820750D01*
X201694435Y-94999996D01*
X200805565Y-94999996D01*
X200785368Y-94820745D01*
X200725789Y-94650478D01*
X200629816Y-94497738D01*
X200502262Y-94370184D01*
X200349523Y-94274211D01*
X200179254Y-94214631D01*
X200179249Y-94214630D01*
X200000004Y-94194435D01*
X199999996Y-94194435D01*
X199820750Y-94214630D01*
X199820745Y-94214631D01*
X199650476Y-94274211D01*
X199497737Y-94370184D01*
X199370184Y-94497737D01*
X199274211Y-94650476D01*
X199214631Y-94820745D01*
X199214630Y-94820750D01*
X199194435Y-94999996D01*
X193305565Y-94999996D01*
X193285368Y-94820745D01*
X193225789Y-94650478D01*
X193129816Y-94497738D01*
X193002262Y-94370184D01*
X192849523Y-94274211D01*
X192679254Y-94214631D01*
X192679249Y-94214630D01*
X192500004Y-94194435D01*
X192499996Y-94194435D01*
X192320750Y-94214630D01*
X192320745Y-94214631D01*
X192150476Y-94274211D01*
X191997737Y-94370184D01*
X191870184Y-94497737D01*
X191774211Y-94650476D01*
X191714631Y-94820745D01*
X191714630Y-94820750D01*
X191694435Y-94999996D01*
X178000000Y-94999996D01*
X178000000Y-92499996D01*
X179194435Y-92499996D01*
X179194435Y-92500003D01*
X179214630Y-92679249D01*
X179214631Y-92679254D01*
X179274211Y-92849523D01*
X179343036Y-92959057D01*
X179370184Y-93002262D01*
X179497738Y-93129816D01*
X179650478Y-93225789D01*
X179754023Y-93262021D01*
X179820745Y-93285368D01*
X179820750Y-93285369D01*
X179999996Y-93305565D01*
X180000000Y-93305565D01*
X180000004Y-93305565D01*
X180179249Y-93285369D01*
X180179252Y-93285368D01*
X180179255Y-93285368D01*
X180349522Y-93225789D01*
X180502262Y-93129816D01*
X180629816Y-93002262D01*
X180725789Y-92849522D01*
X180785368Y-92679255D01*
X180785369Y-92679249D01*
X180805565Y-92500003D01*
X180805565Y-92499996D01*
X194194435Y-92499996D01*
X194194435Y-92500003D01*
X194214630Y-92679249D01*
X194214631Y-92679254D01*
X194274211Y-92849523D01*
X194343036Y-92959057D01*
X194370184Y-93002262D01*
X194497738Y-93129816D01*
X194650478Y-93225789D01*
X194754023Y-93262021D01*
X194820745Y-93285368D01*
X194820750Y-93285369D01*
X194999996Y-93305565D01*
X195000000Y-93305565D01*
X195000004Y-93305565D01*
X195179249Y-93285369D01*
X195179252Y-93285368D01*
X195179255Y-93285368D01*
X195349522Y-93225789D01*
X195502262Y-93129816D01*
X195629816Y-93002262D01*
X195725789Y-92849522D01*
X195785368Y-92679255D01*
X195785369Y-92679249D01*
X195805565Y-92500003D01*
X195805565Y-92499996D01*
X196694435Y-92499996D01*
X196694435Y-92500003D01*
X196714630Y-92679249D01*
X196714631Y-92679254D01*
X196774211Y-92849523D01*
X196843036Y-92959057D01*
X196870184Y-93002262D01*
X196997738Y-93129816D01*
X197150478Y-93225789D01*
X197254023Y-93262021D01*
X197320745Y-93285368D01*
X197320750Y-93285369D01*
X197499996Y-93305565D01*
X197500000Y-93305565D01*
X197500004Y-93305565D01*
X197679249Y-93285369D01*
X197679252Y-93285368D01*
X197679255Y-93285368D01*
X197849522Y-93225789D01*
X198002262Y-93129816D01*
X198129816Y-93002262D01*
X198225789Y-92849522D01*
X198285368Y-92679255D01*
X198285369Y-92679249D01*
X198305565Y-92500003D01*
X198305565Y-92499996D01*
X201694435Y-92499996D01*
X201694435Y-92500003D01*
X201714630Y-92679249D01*
X201714631Y-92679254D01*
X201774211Y-92849523D01*
X201843036Y-92959057D01*
X201870184Y-93002262D01*
X201997738Y-93129816D01*
X202150478Y-93225789D01*
X202254023Y-93262021D01*
X202320745Y-93285368D01*
X202320750Y-93285369D01*
X202499996Y-93305565D01*
X202500000Y-93305565D01*
X202500004Y-93305565D01*
X202679249Y-93285369D01*
X202679252Y-93285368D01*
X202679255Y-93285368D01*
X202849522Y-93225789D01*
X203002262Y-93129816D01*
X203129816Y-93002262D01*
X203225789Y-92849522D01*
X203285368Y-92679255D01*
X203285369Y-92679249D01*
X203305565Y-92500003D01*
X203305565Y-92499996D01*
X203285369Y-92320750D01*
X203285368Y-92320745D01*
X203284777Y-92319055D01*
X203225789Y-92150478D01*
X203129816Y-91997738D01*
X203002262Y-91870184D01*
X202849523Y-91774211D01*
X202679254Y-91714631D01*
X202679249Y-91714630D01*
X202500004Y-91694435D01*
X202499996Y-91694435D01*
X202320750Y-91714630D01*
X202320745Y-91714631D01*
X202150476Y-91774211D01*
X201997737Y-91870184D01*
X201870184Y-91997737D01*
X201774211Y-92150476D01*
X201714631Y-92320745D01*
X201714630Y-92320750D01*
X201694435Y-92499996D01*
X198305565Y-92499996D01*
X198285369Y-92320750D01*
X198285368Y-92320745D01*
X198284777Y-92319055D01*
X198225789Y-92150478D01*
X198129816Y-91997738D01*
X198002262Y-91870184D01*
X197849523Y-91774211D01*
X197679254Y-91714631D01*
X197679249Y-91714630D01*
X197500004Y-91694435D01*
X197499996Y-91694435D01*
X197320750Y-91714630D01*
X197320745Y-91714631D01*
X197150476Y-91774211D01*
X196997737Y-91870184D01*
X196870184Y-91997737D01*
X196774211Y-92150476D01*
X196714631Y-92320745D01*
X196714630Y-92320750D01*
X196694435Y-92499996D01*
X195805565Y-92499996D01*
X195785369Y-92320750D01*
X195785368Y-92320745D01*
X195784777Y-92319055D01*
X195725789Y-92150478D01*
X195629816Y-91997738D01*
X195502262Y-91870184D01*
X195349523Y-91774211D01*
X195179254Y-91714631D01*
X195179249Y-91714630D01*
X195000004Y-91694435D01*
X194999996Y-91694435D01*
X194820750Y-91714630D01*
X194820745Y-91714631D01*
X194650476Y-91774211D01*
X194497737Y-91870184D01*
X194370184Y-91997737D01*
X194274211Y-92150476D01*
X194214631Y-92320745D01*
X194214630Y-92320750D01*
X194194435Y-92499996D01*
X180805565Y-92499996D01*
X180785369Y-92320750D01*
X180785368Y-92320745D01*
X180784777Y-92319055D01*
X180725789Y-92150478D01*
X180629816Y-91997738D01*
X180502262Y-91870184D01*
X180349523Y-91774211D01*
X180179254Y-91714631D01*
X180179249Y-91714630D01*
X180000004Y-91694435D01*
X179999996Y-91694435D01*
X179820750Y-91714630D01*
X179820745Y-91714631D01*
X179650476Y-91774211D01*
X179497737Y-91870184D01*
X179370184Y-91997737D01*
X179274211Y-92150476D01*
X179214631Y-92320745D01*
X179214630Y-92320750D01*
X179194435Y-92499996D01*
X178000000Y-92499996D01*
X178000000Y-91000000D01*
X173124000Y-91000000D01*
X173056961Y-90980315D01*
X173011206Y-90927511D01*
X173000000Y-90876000D01*
X173000000Y-89999996D01*
X179194435Y-89999996D01*
X179194435Y-90000003D01*
X179214630Y-90179249D01*
X179214631Y-90179254D01*
X179274211Y-90349523D01*
X179370184Y-90502262D01*
X179497738Y-90629816D01*
X179650478Y-90725789D01*
X179754023Y-90762021D01*
X179820745Y-90785368D01*
X179820750Y-90785369D01*
X179999996Y-90805565D01*
X180000000Y-90805565D01*
X180000004Y-90805565D01*
X180179249Y-90785369D01*
X180179252Y-90785368D01*
X180179255Y-90785368D01*
X180349522Y-90725789D01*
X180502262Y-90629816D01*
X180629816Y-90502262D01*
X180725789Y-90349522D01*
X180785368Y-90179255D01*
X180805565Y-90000000D01*
X180805565Y-89999996D01*
X184194435Y-89999996D01*
X184194435Y-90000003D01*
X184214630Y-90179249D01*
X184214631Y-90179254D01*
X184274211Y-90349523D01*
X184370184Y-90502262D01*
X184497738Y-90629816D01*
X184650478Y-90725789D01*
X184754023Y-90762021D01*
X184820745Y-90785368D01*
X184820750Y-90785369D01*
X184999996Y-90805565D01*
X185000000Y-90805565D01*
X185000004Y-90805565D01*
X185179249Y-90785369D01*
X185179252Y-90785368D01*
X185179255Y-90785368D01*
X185349522Y-90725789D01*
X185502262Y-90629816D01*
X185629816Y-90502262D01*
X185725789Y-90349522D01*
X185785368Y-90179255D01*
X185805565Y-90000000D01*
X185805565Y-89999996D01*
X186694435Y-89999996D01*
X186694435Y-90000003D01*
X186714630Y-90179249D01*
X186714631Y-90179254D01*
X186774211Y-90349523D01*
X186870184Y-90502262D01*
X186997738Y-90629816D01*
X187150478Y-90725789D01*
X187254023Y-90762021D01*
X187320745Y-90785368D01*
X187320750Y-90785369D01*
X187499996Y-90805565D01*
X187500000Y-90805565D01*
X187500004Y-90805565D01*
X187679249Y-90785369D01*
X187679252Y-90785368D01*
X187679255Y-90785368D01*
X187849522Y-90725789D01*
X188002262Y-90629816D01*
X188129816Y-90502262D01*
X188225789Y-90349522D01*
X188285368Y-90179255D01*
X188305565Y-90000000D01*
X188305565Y-89999996D01*
X189194435Y-89999996D01*
X189194435Y-90000003D01*
X189214630Y-90179249D01*
X189214631Y-90179254D01*
X189274211Y-90349523D01*
X189370184Y-90502262D01*
X189497738Y-90629816D01*
X189650478Y-90725789D01*
X189754023Y-90762021D01*
X189820745Y-90785368D01*
X189820750Y-90785369D01*
X189999996Y-90805565D01*
X190000000Y-90805565D01*
X190000004Y-90805565D01*
X190179249Y-90785369D01*
X190179252Y-90785368D01*
X190179255Y-90785368D01*
X190349522Y-90725789D01*
X190502262Y-90629816D01*
X190629816Y-90502262D01*
X190725789Y-90349522D01*
X190785368Y-90179255D01*
X190805565Y-90000000D01*
X190805565Y-89999996D01*
X191694435Y-89999996D01*
X191694435Y-90000003D01*
X191714630Y-90179249D01*
X191714631Y-90179254D01*
X191774211Y-90349523D01*
X191870184Y-90502262D01*
X191997738Y-90629816D01*
X192150478Y-90725789D01*
X192254023Y-90762021D01*
X192320745Y-90785368D01*
X192320750Y-90785369D01*
X192499996Y-90805565D01*
X192500000Y-90805565D01*
X192500004Y-90805565D01*
X192679249Y-90785369D01*
X192679252Y-90785368D01*
X192679255Y-90785368D01*
X192849522Y-90725789D01*
X193002262Y-90629816D01*
X193129816Y-90502262D01*
X193225789Y-90349522D01*
X193285368Y-90179255D01*
X193305565Y-90000000D01*
X193305565Y-89999996D01*
X194194435Y-89999996D01*
X194194435Y-90000003D01*
X194214630Y-90179249D01*
X194214631Y-90179254D01*
X194274211Y-90349523D01*
X194370184Y-90502262D01*
X194497738Y-90629816D01*
X194650478Y-90725789D01*
X194754023Y-90762021D01*
X194820745Y-90785368D01*
X194820750Y-90785369D01*
X194999996Y-90805565D01*
X195000000Y-90805565D01*
X195000004Y-90805565D01*
X195179249Y-90785369D01*
X195179252Y-90785368D01*
X195179255Y-90785368D01*
X195349522Y-90725789D01*
X195502262Y-90629816D01*
X195629816Y-90502262D01*
X195725789Y-90349522D01*
X195785368Y-90179255D01*
X195805565Y-90000000D01*
X195805565Y-89999996D01*
X196694435Y-89999996D01*
X196694435Y-90000003D01*
X196714630Y-90179249D01*
X196714631Y-90179254D01*
X196774211Y-90349523D01*
X196870184Y-90502262D01*
X196997738Y-90629816D01*
X197150478Y-90725789D01*
X197254023Y-90762021D01*
X197320745Y-90785368D01*
X197320750Y-90785369D01*
X197499996Y-90805565D01*
X197500000Y-90805565D01*
X197500004Y-90805565D01*
X197679249Y-90785369D01*
X197679252Y-90785368D01*
X197679255Y-90785368D01*
X197849522Y-90725789D01*
X198002262Y-90629816D01*
X198129816Y-90502262D01*
X198225789Y-90349522D01*
X198285368Y-90179255D01*
X198305565Y-90000000D01*
X198305565Y-89999996D01*
X199194435Y-89999996D01*
X199194435Y-90000003D01*
X199214630Y-90179249D01*
X199214631Y-90179254D01*
X199274211Y-90349523D01*
X199370184Y-90502262D01*
X199497738Y-90629816D01*
X199650478Y-90725789D01*
X199754023Y-90762021D01*
X199820745Y-90785368D01*
X199820750Y-90785369D01*
X199999996Y-90805565D01*
X200000000Y-90805565D01*
X200000004Y-90805565D01*
X200179249Y-90785369D01*
X200179252Y-90785368D01*
X200179255Y-90785368D01*
X200349522Y-90725789D01*
X200502262Y-90629816D01*
X200629816Y-90502262D01*
X200725789Y-90349522D01*
X200785368Y-90179255D01*
X200805565Y-90000000D01*
X200805565Y-89999996D01*
X201694435Y-89999996D01*
X201694435Y-90000003D01*
X201714630Y-90179249D01*
X201714631Y-90179254D01*
X201774211Y-90349523D01*
X201870184Y-90502262D01*
X201997738Y-90629816D01*
X202150478Y-90725789D01*
X202254023Y-90762021D01*
X202320745Y-90785368D01*
X202320750Y-90785369D01*
X202499996Y-90805565D01*
X202500000Y-90805565D01*
X202500004Y-90805565D01*
X202679249Y-90785369D01*
X202679252Y-90785368D01*
X202679255Y-90785368D01*
X202849522Y-90725789D01*
X203002262Y-90629816D01*
X203129816Y-90502262D01*
X203225789Y-90349522D01*
X203285368Y-90179255D01*
X203305565Y-90000000D01*
X203285368Y-89820745D01*
X203225789Y-89650478D01*
X203129816Y-89497738D01*
X203002262Y-89370184D01*
X202849523Y-89274211D01*
X202679254Y-89214631D01*
X202679249Y-89214630D01*
X202500004Y-89194435D01*
X202499996Y-89194435D01*
X202320750Y-89214630D01*
X202320745Y-89214631D01*
X202150476Y-89274211D01*
X201997737Y-89370184D01*
X201870184Y-89497737D01*
X201774211Y-89650476D01*
X201714631Y-89820745D01*
X201714630Y-89820750D01*
X201694435Y-89999996D01*
X200805565Y-89999996D01*
X200785368Y-89820745D01*
X200725789Y-89650478D01*
X200629816Y-89497738D01*
X200502262Y-89370184D01*
X200349523Y-89274211D01*
X200179254Y-89214631D01*
X200179249Y-89214630D01*
X200000004Y-89194435D01*
X199999996Y-89194435D01*
X199820750Y-89214630D01*
X199820745Y-89214631D01*
X199650476Y-89274211D01*
X199497737Y-89370184D01*
X199370184Y-89497737D01*
X199274211Y-89650476D01*
X199214631Y-89820745D01*
X199214630Y-89820750D01*
X199194435Y-89999996D01*
X198305565Y-89999996D01*
X198285368Y-89820745D01*
X198225789Y-89650478D01*
X198129816Y-89497738D01*
X198002262Y-89370184D01*
X197849523Y-89274211D01*
X197679254Y-89214631D01*
X197679249Y-89214630D01*
X197500004Y-89194435D01*
X197499996Y-89194435D01*
X197320750Y-89214630D01*
X197320745Y-89214631D01*
X197150476Y-89274211D01*
X196997737Y-89370184D01*
X196870184Y-89497737D01*
X196774211Y-89650476D01*
X196714631Y-89820745D01*
X196714630Y-89820750D01*
X196694435Y-89999996D01*
X195805565Y-89999996D01*
X195785368Y-89820745D01*
X195725789Y-89650478D01*
X195629816Y-89497738D01*
X195502262Y-89370184D01*
X195349523Y-89274211D01*
X195179254Y-89214631D01*
X195179249Y-89214630D01*
X195000004Y-89194435D01*
X194999996Y-89194435D01*
X194820750Y-89214630D01*
X194820745Y-89214631D01*
X194650476Y-89274211D01*
X194497737Y-89370184D01*
X194370184Y-89497737D01*
X194274211Y-89650476D01*
X194214631Y-89820745D01*
X194214630Y-89820750D01*
X194194435Y-89999996D01*
X193305565Y-89999996D01*
X193285368Y-89820745D01*
X193225789Y-89650478D01*
X193129816Y-89497738D01*
X193002262Y-89370184D01*
X192849523Y-89274211D01*
X192679254Y-89214631D01*
X192679249Y-89214630D01*
X192500004Y-89194435D01*
X192499996Y-89194435D01*
X192320750Y-89214630D01*
X192320745Y-89214631D01*
X192150476Y-89274211D01*
X191997737Y-89370184D01*
X191870184Y-89497737D01*
X191774211Y-89650476D01*
X191714631Y-89820745D01*
X191714630Y-89820750D01*
X191694435Y-89999996D01*
X190805565Y-89999996D01*
X190785368Y-89820745D01*
X190725789Y-89650478D01*
X190629816Y-89497738D01*
X190502262Y-89370184D01*
X190349523Y-89274211D01*
X190179254Y-89214631D01*
X190179249Y-89214630D01*
X190000004Y-89194435D01*
X189999996Y-89194435D01*
X189820750Y-89214630D01*
X189820745Y-89214631D01*
X189650476Y-89274211D01*
X189497737Y-89370184D01*
X189370184Y-89497737D01*
X189274211Y-89650476D01*
X189214631Y-89820745D01*
X189214630Y-89820750D01*
X189194435Y-89999996D01*
X188305565Y-89999996D01*
X188285368Y-89820745D01*
X188225789Y-89650478D01*
X188129816Y-89497738D01*
X188002262Y-89370184D01*
X187849523Y-89274211D01*
X187679254Y-89214631D01*
X187679249Y-89214630D01*
X187500004Y-89194435D01*
X187499996Y-89194435D01*
X187320750Y-89214630D01*
X187320745Y-89214631D01*
X187150476Y-89274211D01*
X186997737Y-89370184D01*
X186870184Y-89497737D01*
X186774211Y-89650476D01*
X186714631Y-89820745D01*
X186714630Y-89820750D01*
X186694435Y-89999996D01*
X185805565Y-89999996D01*
X185785368Y-89820745D01*
X185725789Y-89650478D01*
X185629816Y-89497738D01*
X185502262Y-89370184D01*
X185349523Y-89274211D01*
X185179254Y-89214631D01*
X185179249Y-89214630D01*
X185000004Y-89194435D01*
X184999996Y-89194435D01*
X184820750Y-89214630D01*
X184820745Y-89214631D01*
X184650476Y-89274211D01*
X184497737Y-89370184D01*
X184370184Y-89497737D01*
X184274211Y-89650476D01*
X184214631Y-89820745D01*
X184214630Y-89820750D01*
X184194435Y-89999996D01*
X180805565Y-89999996D01*
X180785368Y-89820745D01*
X180725789Y-89650478D01*
X180629816Y-89497738D01*
X180502262Y-89370184D01*
X180349523Y-89274211D01*
X180179254Y-89214631D01*
X180179249Y-89214630D01*
X180000004Y-89194435D01*
X179999996Y-89194435D01*
X179820750Y-89214630D01*
X179820745Y-89214631D01*
X179650476Y-89274211D01*
X179497737Y-89370184D01*
X179370184Y-89497737D01*
X179274211Y-89650476D01*
X179214631Y-89820745D01*
X179214630Y-89820750D01*
X179194435Y-89999996D01*
X173000000Y-89999996D01*
X173000000Y-87499996D01*
X181694435Y-87499996D01*
X181694435Y-87500003D01*
X181714630Y-87679249D01*
X181714631Y-87679254D01*
X181774211Y-87849523D01*
X181870184Y-88002262D01*
X181997738Y-88129816D01*
X182150478Y-88225789D01*
X182254023Y-88262021D01*
X182320745Y-88285368D01*
X182320750Y-88285369D01*
X182499996Y-88305565D01*
X182500000Y-88305565D01*
X182500004Y-88305565D01*
X182679249Y-88285369D01*
X182679252Y-88285368D01*
X182679255Y-88285368D01*
X182849522Y-88225789D01*
X183002262Y-88129816D01*
X183129816Y-88002262D01*
X183225789Y-87849522D01*
X183285368Y-87679255D01*
X183305565Y-87500000D01*
X183305565Y-87499996D01*
X184194435Y-87499996D01*
X184194435Y-87500003D01*
X184214630Y-87679249D01*
X184214631Y-87679254D01*
X184274211Y-87849523D01*
X184370184Y-88002262D01*
X184497738Y-88129816D01*
X184650478Y-88225789D01*
X184754023Y-88262021D01*
X184820745Y-88285368D01*
X184820750Y-88285369D01*
X184999996Y-88305565D01*
X185000000Y-88305565D01*
X185000004Y-88305565D01*
X185179249Y-88285369D01*
X185179252Y-88285368D01*
X185179255Y-88285368D01*
X185349522Y-88225789D01*
X185502262Y-88129816D01*
X185629816Y-88002262D01*
X185725789Y-87849522D01*
X185785368Y-87679255D01*
X185805565Y-87500000D01*
X185805565Y-87499996D01*
X186694435Y-87499996D01*
X186694435Y-87500003D01*
X186714630Y-87679249D01*
X186714631Y-87679254D01*
X186774211Y-87849523D01*
X186870184Y-88002262D01*
X186997738Y-88129816D01*
X187150478Y-88225789D01*
X187254023Y-88262021D01*
X187320745Y-88285368D01*
X187320750Y-88285369D01*
X187499996Y-88305565D01*
X187500000Y-88305565D01*
X187500004Y-88305565D01*
X187679249Y-88285369D01*
X187679252Y-88285368D01*
X187679255Y-88285368D01*
X187849522Y-88225789D01*
X188002262Y-88129816D01*
X188129816Y-88002262D01*
X188225789Y-87849522D01*
X188285368Y-87679255D01*
X188305565Y-87500000D01*
X188305565Y-87499996D01*
X189194435Y-87499996D01*
X189194435Y-87500003D01*
X189214630Y-87679249D01*
X189214631Y-87679254D01*
X189274211Y-87849523D01*
X189370184Y-88002262D01*
X189497738Y-88129816D01*
X189650478Y-88225789D01*
X189754023Y-88262021D01*
X189820745Y-88285368D01*
X189820750Y-88285369D01*
X189999996Y-88305565D01*
X190000000Y-88305565D01*
X190000004Y-88305565D01*
X190179249Y-88285369D01*
X190179252Y-88285368D01*
X190179255Y-88285368D01*
X190349522Y-88225789D01*
X190502262Y-88129816D01*
X190629816Y-88002262D01*
X190725789Y-87849522D01*
X190785368Y-87679255D01*
X190805565Y-87500000D01*
X190805565Y-87499996D01*
X191694435Y-87499996D01*
X191694435Y-87500003D01*
X191714630Y-87679249D01*
X191714631Y-87679254D01*
X191774211Y-87849523D01*
X191870184Y-88002262D01*
X191997738Y-88129816D01*
X192150478Y-88225789D01*
X192254023Y-88262021D01*
X192320745Y-88285368D01*
X192320750Y-88285369D01*
X192499996Y-88305565D01*
X192500000Y-88305565D01*
X192500004Y-88305565D01*
X192679249Y-88285369D01*
X192679252Y-88285368D01*
X192679255Y-88285368D01*
X192849522Y-88225789D01*
X193002262Y-88129816D01*
X193129816Y-88002262D01*
X193225789Y-87849522D01*
X193285368Y-87679255D01*
X193305565Y-87500000D01*
X193305565Y-87499996D01*
X194194435Y-87499996D01*
X194194435Y-87500003D01*
X194214630Y-87679249D01*
X194214631Y-87679254D01*
X194274211Y-87849523D01*
X194370184Y-88002262D01*
X194497738Y-88129816D01*
X194650478Y-88225789D01*
X194754023Y-88262021D01*
X194820745Y-88285368D01*
X194820750Y-88285369D01*
X194999996Y-88305565D01*
X195000000Y-88305565D01*
X195000004Y-88305565D01*
X195179249Y-88285369D01*
X195179252Y-88285368D01*
X195179255Y-88285368D01*
X195349522Y-88225789D01*
X195502262Y-88129816D01*
X195629816Y-88002262D01*
X195725789Y-87849522D01*
X195785368Y-87679255D01*
X195805565Y-87500000D01*
X195805565Y-87499996D01*
X196694435Y-87499996D01*
X196694435Y-87500003D01*
X196714630Y-87679249D01*
X196714631Y-87679254D01*
X196774211Y-87849523D01*
X196870184Y-88002262D01*
X196997738Y-88129816D01*
X197150478Y-88225789D01*
X197254023Y-88262021D01*
X197320745Y-88285368D01*
X197320750Y-88285369D01*
X197499996Y-88305565D01*
X197500000Y-88305565D01*
X197500004Y-88305565D01*
X197679249Y-88285369D01*
X197679252Y-88285368D01*
X197679255Y-88285368D01*
X197849522Y-88225789D01*
X198002262Y-88129816D01*
X198129816Y-88002262D01*
X198225789Y-87849522D01*
X198285368Y-87679255D01*
X198305565Y-87500000D01*
X198305565Y-87499996D01*
X199194435Y-87499996D01*
X199194435Y-87500003D01*
X199214630Y-87679249D01*
X199214631Y-87679254D01*
X199274211Y-87849523D01*
X199370184Y-88002262D01*
X199497738Y-88129816D01*
X199650478Y-88225789D01*
X199754023Y-88262021D01*
X199820745Y-88285368D01*
X199820750Y-88285369D01*
X199999996Y-88305565D01*
X200000000Y-88305565D01*
X200000004Y-88305565D01*
X200179249Y-88285369D01*
X200179252Y-88285368D01*
X200179255Y-88285368D01*
X200349522Y-88225789D01*
X200502262Y-88129816D01*
X200629816Y-88002262D01*
X200725789Y-87849522D01*
X200785368Y-87679255D01*
X200805565Y-87500000D01*
X200805565Y-87499996D01*
X201694435Y-87499996D01*
X201694435Y-87500003D01*
X201714630Y-87679249D01*
X201714631Y-87679254D01*
X201774211Y-87849523D01*
X201870184Y-88002262D01*
X201997738Y-88129816D01*
X202150478Y-88225789D01*
X202254023Y-88262021D01*
X202320745Y-88285368D01*
X202320750Y-88285369D01*
X202499996Y-88305565D01*
X202500000Y-88305565D01*
X202500004Y-88305565D01*
X202679249Y-88285369D01*
X202679252Y-88285368D01*
X202679255Y-88285368D01*
X202849522Y-88225789D01*
X203002262Y-88129816D01*
X203129816Y-88002262D01*
X203225789Y-87849522D01*
X203285368Y-87679255D01*
X203305565Y-87500000D01*
X203285368Y-87320745D01*
X203225789Y-87150478D01*
X203129816Y-86997738D01*
X203002262Y-86870184D01*
X202849523Y-86774211D01*
X202679254Y-86714631D01*
X202679249Y-86714630D01*
X202500004Y-86694435D01*
X202499996Y-86694435D01*
X202320750Y-86714630D01*
X202320745Y-86714631D01*
X202150476Y-86774211D01*
X201997737Y-86870184D01*
X201870184Y-86997737D01*
X201774211Y-87150476D01*
X201714631Y-87320745D01*
X201714630Y-87320750D01*
X201694435Y-87499996D01*
X200805565Y-87499996D01*
X200785368Y-87320745D01*
X200725789Y-87150478D01*
X200629816Y-86997738D01*
X200502262Y-86870184D01*
X200349523Y-86774211D01*
X200179254Y-86714631D01*
X200179249Y-86714630D01*
X200000004Y-86694435D01*
X199999996Y-86694435D01*
X199820750Y-86714630D01*
X199820745Y-86714631D01*
X199650476Y-86774211D01*
X199497737Y-86870184D01*
X199370184Y-86997737D01*
X199274211Y-87150476D01*
X199214631Y-87320745D01*
X199214630Y-87320750D01*
X199194435Y-87499996D01*
X198305565Y-87499996D01*
X198285368Y-87320745D01*
X198225789Y-87150478D01*
X198129816Y-86997738D01*
X198002262Y-86870184D01*
X197849523Y-86774211D01*
X197679254Y-86714631D01*
X197679249Y-86714630D01*
X197500004Y-86694435D01*
X197499996Y-86694435D01*
X197320750Y-86714630D01*
X197320745Y-86714631D01*
X197150476Y-86774211D01*
X196997737Y-86870184D01*
X196870184Y-86997737D01*
X196774211Y-87150476D01*
X196714631Y-87320745D01*
X196714630Y-87320750D01*
X196694435Y-87499996D01*
X195805565Y-87499996D01*
X195785368Y-87320745D01*
X195725789Y-87150478D01*
X195629816Y-86997738D01*
X195502262Y-86870184D01*
X195349523Y-86774211D01*
X195179254Y-86714631D01*
X195179249Y-86714630D01*
X195000004Y-86694435D01*
X194999996Y-86694435D01*
X194820750Y-86714630D01*
X194820745Y-86714631D01*
X194650476Y-86774211D01*
X194497737Y-86870184D01*
X194370184Y-86997737D01*
X194274211Y-87150476D01*
X194214631Y-87320745D01*
X194214630Y-87320750D01*
X194194435Y-87499996D01*
X193305565Y-87499996D01*
X193285368Y-87320745D01*
X193225789Y-87150478D01*
X193129816Y-86997738D01*
X193002262Y-86870184D01*
X192849523Y-86774211D01*
X192679254Y-86714631D01*
X192679249Y-86714630D01*
X192500004Y-86694435D01*
X192499996Y-86694435D01*
X192320750Y-86714630D01*
X192320745Y-86714631D01*
X192150476Y-86774211D01*
X191997737Y-86870184D01*
X191870184Y-86997737D01*
X191774211Y-87150476D01*
X191714631Y-87320745D01*
X191714630Y-87320750D01*
X191694435Y-87499996D01*
X190805565Y-87499996D01*
X190785368Y-87320745D01*
X190725789Y-87150478D01*
X190629816Y-86997738D01*
X190502262Y-86870184D01*
X190349523Y-86774211D01*
X190179254Y-86714631D01*
X190179249Y-86714630D01*
X190000004Y-86694435D01*
X189999996Y-86694435D01*
X189820750Y-86714630D01*
X189820745Y-86714631D01*
X189650476Y-86774211D01*
X189497737Y-86870184D01*
X189370184Y-86997737D01*
X189274211Y-87150476D01*
X189214631Y-87320745D01*
X189214630Y-87320750D01*
X189194435Y-87499996D01*
X188305565Y-87499996D01*
X188285368Y-87320745D01*
X188225789Y-87150478D01*
X188129816Y-86997738D01*
X188002262Y-86870184D01*
X187849523Y-86774211D01*
X187679254Y-86714631D01*
X187679249Y-86714630D01*
X187500004Y-86694435D01*
X187499996Y-86694435D01*
X187320750Y-86714630D01*
X187320745Y-86714631D01*
X187150476Y-86774211D01*
X186997737Y-86870184D01*
X186870184Y-86997737D01*
X186774211Y-87150476D01*
X186714631Y-87320745D01*
X186714630Y-87320750D01*
X186694435Y-87499996D01*
X185805565Y-87499996D01*
X185785368Y-87320745D01*
X185725789Y-87150478D01*
X185629816Y-86997738D01*
X185502262Y-86870184D01*
X185349523Y-86774211D01*
X185179254Y-86714631D01*
X185179249Y-86714630D01*
X185000004Y-86694435D01*
X184999996Y-86694435D01*
X184820750Y-86714630D01*
X184820745Y-86714631D01*
X184650476Y-86774211D01*
X184497737Y-86870184D01*
X184370184Y-86997737D01*
X184274211Y-87150476D01*
X184214631Y-87320745D01*
X184214630Y-87320750D01*
X184194435Y-87499996D01*
X183305565Y-87499996D01*
X183285368Y-87320745D01*
X183225789Y-87150478D01*
X183129816Y-86997738D01*
X183002262Y-86870184D01*
X182849523Y-86774211D01*
X182679254Y-86714631D01*
X182679249Y-86714630D01*
X182500004Y-86694435D01*
X182499996Y-86694435D01*
X182320750Y-86714630D01*
X182320745Y-86714631D01*
X182150476Y-86774211D01*
X181997737Y-86870184D01*
X181870184Y-86997737D01*
X181774211Y-87150476D01*
X181714631Y-87320745D01*
X181714630Y-87320750D01*
X181694435Y-87499996D01*
X173000000Y-87499996D01*
X173000000Y-85124000D01*
X173019685Y-85056961D01*
X173072489Y-85011206D01*
X173124000Y-85000000D01*
X209275500Y-85000000D01*
X209342539Y-85019685D01*
G37*
%TD.AperFunction*%
%TD*%
M02*
