%TF.GenerationSoftware,KiCad,Pcbnew,8.0.6*%
%TF.CreationDate,2025-05-19T10:35:06-04:00*%
%TF.ProjectId,CAEN_NEVIS_DAQ_12V,4341454e-5f4e-4455-9649-535f4441515f,rev?*%
%TF.SameCoordinates,Original*%
%TF.FileFunction,Copper,L1,Top*%
%TF.FilePolarity,Positive*%
%FSLAX46Y46*%
G04 Gerber Fmt 4.6, Leading zero omitted, Abs format (unit mm)*
G04 Created by KiCad (PCBNEW 8.0.6) date 2025-05-19 10:35:06*
%MOMM*%
%LPD*%
G01*
G04 APERTURE LIST*
G04 Aperture macros list*
%AMRoundRect*
0 Rectangle with rounded corners*
0 $1 Rounding radius*
0 $2 $3 $4 $5 $6 $7 $8 $9 X,Y pos of 4 corners*
0 Add a 4 corners polygon primitive as box body*
4,1,4,$2,$3,$4,$5,$6,$7,$8,$9,$2,$3,0*
0 Add four circle primitives for the rounded corners*
1,1,$1+$1,$2,$3*
1,1,$1+$1,$4,$5*
1,1,$1+$1,$6,$7*
1,1,$1+$1,$8,$9*
0 Add four rect primitives between the rounded corners*
20,1,$1+$1,$2,$3,$4,$5,0*
20,1,$1+$1,$4,$5,$6,$7,0*
20,1,$1+$1,$6,$7,$8,$9,0*
20,1,$1+$1,$8,$9,$2,$3,0*%
G04 Aperture macros list end*
%TA.AperFunction,SMDPad,CuDef*%
%ADD10RoundRect,0.200000X-0.275000X0.200000X-0.275000X-0.200000X0.275000X-0.200000X0.275000X0.200000X0*%
%TD*%
%TA.AperFunction,SMDPad,CuDef*%
%ADD11RoundRect,0.250000X-0.450000X-0.425000X0.450000X-0.425000X0.450000X0.425000X-0.450000X0.425000X0*%
%TD*%
%TA.AperFunction,SMDPad,CuDef*%
%ADD12R,0.889000X1.016000*%
%TD*%
%TA.AperFunction,SMDPad,CuDef*%
%ADD13R,3.200000X1.000000*%
%TD*%
%TA.AperFunction,SMDPad,CuDef*%
%ADD14RoundRect,0.200000X0.200000X0.275000X-0.200000X0.275000X-0.200000X-0.275000X0.200000X-0.275000X0*%
%TD*%
%TA.AperFunction,ComponentPad*%
%ADD15C,1.560000*%
%TD*%
%TA.AperFunction,ComponentPad*%
%ADD16C,4.216000*%
%TD*%
%TA.AperFunction,SMDPad,CuDef*%
%ADD17RoundRect,0.250000X0.925000X-0.787500X0.925000X0.787500X-0.925000X0.787500X-0.925000X-0.787500X0*%
%TD*%
%TA.AperFunction,SMDPad,CuDef*%
%ADD18RoundRect,0.200000X0.275000X-0.200000X0.275000X0.200000X-0.275000X0.200000X-0.275000X-0.200000X0*%
%TD*%
%TA.AperFunction,SMDPad,CuDef*%
%ADD19RoundRect,0.225000X0.250000X-0.225000X0.250000X0.225000X-0.250000X0.225000X-0.250000X-0.225000X0*%
%TD*%
%TA.AperFunction,SMDPad,CuDef*%
%ADD20RoundRect,0.225000X0.225000X0.250000X-0.225000X0.250000X-0.225000X-0.250000X0.225000X-0.250000X0*%
%TD*%
%TA.AperFunction,ComponentPad*%
%ADD21C,6.400000*%
%TD*%
%TA.AperFunction,ComponentPad*%
%ADD22C,1.650000*%
%TD*%
%TA.AperFunction,SMDPad,CuDef*%
%ADD23R,0.558800X1.473200*%
%TD*%
%TA.AperFunction,SMDPad,CuDef*%
%ADD24R,4.241800X3.810000*%
%TD*%
%TA.AperFunction,ComponentPad*%
%ADD25C,2.006600*%
%TD*%
%TA.AperFunction,ComponentPad*%
%ADD26C,2.209800*%
%TD*%
%TA.AperFunction,SMDPad,CuDef*%
%ADD27RoundRect,0.250000X0.450000X0.425000X-0.450000X0.425000X-0.450000X-0.425000X0.450000X-0.425000X0*%
%TD*%
%TA.AperFunction,SMDPad,CuDef*%
%ADD28R,0.350800X1.161200*%
%TD*%
%TA.AperFunction,SMDPad,CuDef*%
%ADD29RoundRect,0.225000X-0.250000X0.225000X-0.250000X-0.225000X0.250000X-0.225000X0.250000X0.225000X0*%
%TD*%
%TA.AperFunction,SMDPad,CuDef*%
%ADD30R,0.584200X2.159000*%
%TD*%
%TA.AperFunction,SMDPad,CuDef*%
%ADD31R,0.558800X1.651000*%
%TD*%
%TA.AperFunction,SMDPad,CuDef*%
%ADD32RoundRect,0.140000X-0.170000X0.140000X-0.170000X-0.140000X0.170000X-0.140000X0.170000X0.140000X0*%
%TD*%
%TA.AperFunction,SMDPad,CuDef*%
%ADD33RoundRect,0.250000X0.450000X-0.262500X0.450000X0.262500X-0.450000X0.262500X-0.450000X-0.262500X0*%
%TD*%
%TA.AperFunction,SMDPad,CuDef*%
%ADD34RoundRect,0.140000X-0.140000X-0.170000X0.140000X-0.170000X0.140000X0.170000X-0.140000X0.170000X0*%
%TD*%
%TA.AperFunction,SMDPad,CuDef*%
%ADD35RoundRect,0.225000X-0.225000X-0.250000X0.225000X-0.250000X0.225000X0.250000X-0.225000X0.250000X0*%
%TD*%
%TA.AperFunction,SMDPad,CuDef*%
%ADD36RoundRect,0.140000X0.170000X-0.140000X0.170000X0.140000X-0.170000X0.140000X-0.170000X-0.140000X0*%
%TD*%
%TA.AperFunction,SMDPad,CuDef*%
%ADD37RoundRect,0.075000X0.910000X0.225000X-0.910000X0.225000X-0.910000X-0.225000X0.910000X-0.225000X0*%
%TD*%
%TA.AperFunction,SMDPad,CuDef*%
%ADD38R,1.981200X0.558800*%
%TD*%
%TA.AperFunction,SMDPad,CuDef*%
%ADD39RoundRect,0.200000X-0.200000X-0.275000X0.200000X-0.275000X0.200000X0.275000X-0.200000X0.275000X0*%
%TD*%
%TA.AperFunction,ComponentPad*%
%ADD40R,2.000000X2.000000*%
%TD*%
%TA.AperFunction,ComponentPad*%
%ADD41C,2.000000*%
%TD*%
%TA.AperFunction,SMDPad,CuDef*%
%ADD42RoundRect,0.500000X-0.500000X-2.800000X0.500000X-2.800000X0.500000X2.800000X-0.500000X2.800000X0*%
%TD*%
%TA.AperFunction,SMDPad,CuDef*%
%ADD43RoundRect,0.250000X0.787500X0.925000X-0.787500X0.925000X-0.787500X-0.925000X0.787500X-0.925000X0*%
%TD*%
%TA.AperFunction,SMDPad,CuDef*%
%ADD44RoundRect,0.135000X0.185000X-0.135000X0.185000X0.135000X-0.185000X0.135000X-0.185000X-0.135000X0*%
%TD*%
%TA.AperFunction,ComponentPad*%
%ADD45C,1.635000*%
%TD*%
%TA.AperFunction,SMDPad,CuDef*%
%ADD46RoundRect,0.250000X0.925000X-0.412500X0.925000X0.412500X-0.925000X0.412500X-0.925000X-0.412500X0*%
%TD*%
%TA.AperFunction,SMDPad,CuDef*%
%ADD47RoundRect,0.475000X1.125000X-0.475000X1.125000X0.475000X-1.125000X0.475000X-1.125000X-0.475000X0*%
%TD*%
%TA.AperFunction,ComponentPad*%
%ADD48C,2.100000*%
%TD*%
%TA.AperFunction,SMDPad,CuDef*%
%ADD49R,0.711200X0.444500*%
%TD*%
%TA.AperFunction,ViaPad*%
%ADD50C,0.600000*%
%TD*%
%TA.AperFunction,Conductor*%
%ADD51C,0.200000*%
%TD*%
%TA.AperFunction,Conductor*%
%ADD52C,1.000000*%
%TD*%
%TA.AperFunction,Conductor*%
%ADD53C,0.500000*%
%TD*%
%TA.AperFunction,Conductor*%
%ADD54C,0.300000*%
%TD*%
%TA.AperFunction,Conductor*%
%ADD55C,0.350000*%
%TD*%
G04 APERTURE END LIST*
D10*
%TO.P,R2,1*%
%TO.N,Net-(U1--VIN)*%
X143110000Y-90055000D03*
%TO.P,R2,2*%
%TO.N,Net-(C8-Pad2)*%
X143110000Y-91705000D03*
%TD*%
D11*
%TO.P,C14,1*%
%TO.N,/Enable_Block/3p3V*%
X104580000Y-59510000D03*
%TO.P,C14,2*%
%TO.N,/V_TELEM_RTN*%
X107280000Y-59510000D03*
%TD*%
D12*
%TO.P,U4,1,SET*%
%TO.N,Net-(U4-SET)*%
X195518600Y-64922500D03*
%TO.P,U4,2,OUT*%
%TO.N,/Telemetry_Schematic/3p3V*%
X197830000Y-64922500D03*
%TO.P,U4,3,IN*%
%TO.N,/V_TELEM_IN*%
X200141400Y-64922500D03*
D13*
%TO.P,U4,4,TAB*%
%TO.N,/Telemetry_Schematic/3p3V*%
X197830000Y-57930000D03*
%TD*%
D14*
%TO.P,R23,1*%
%TO.N,/Telemetry_Schematic/TEMP*%
X179215000Y-63510000D03*
%TO.P,R23,2*%
%TO.N,Net-(U6B-+INB)*%
X177565000Y-63510000D03*
%TD*%
%TO.P,R26,1*%
%TO.N,Net-(C25-Pad2)*%
X170555000Y-69550000D03*
%TO.P,R26,2*%
%TO.N,/TEMP_MON*%
X168905000Y-69550000D03*
%TD*%
%TO.P,R8,1*%
%TO.N,Net-(M2-Pad1)*%
X147485000Y-62840000D03*
%TO.P,R8,2*%
%TO.N,/V_TELEM_RTN*%
X145835000Y-62840000D03*
%TD*%
D11*
%TO.P,C12,1*%
%TO.N,/V_TELEM_IN*%
X104151000Y-46660000D03*
%TO.P,C12,2*%
%TO.N,/V_TELEM_RTN*%
X106851000Y-46660000D03*
%TD*%
D15*
%TO.P,J1,1*%
%TO.N,/V_SEC_RTN*%
X82920000Y-96870000D03*
%TO.P,J1,2*%
X82920000Y-99640000D03*
%TO.P,J1,3*%
%TO.N,unconnected-(J1-Pad3)*%
X82920000Y-102410000D03*
%TO.P,J1,4*%
%TO.N,/V_SEC_RTN*%
X82920000Y-105180000D03*
%TO.P,J1,5*%
X82920000Y-107950000D03*
%TO.P,J1,6*%
%TO.N,/V_SEC_IN*%
X80080000Y-98255000D03*
%TO.P,J1,7*%
X80080000Y-101025000D03*
%TO.P,J1,8*%
X80080000Y-103795000D03*
%TO.P,J1,9*%
X80080000Y-106565000D03*
D16*
%TO.P,J1,S1*%
%TO.N,GNDPWR*%
X81500000Y-89910000D03*
%TO.P,J1,S2*%
X81500000Y-114910000D03*
%TD*%
D17*
%TO.P,C8,1*%
%TO.N,/Main_DCDC_Converter/V_SEC*%
X143120000Y-99282500D03*
%TO.P,C8,2*%
%TO.N,Net-(C8-Pad2)*%
X143120000Y-94357500D03*
%TD*%
D14*
%TO.P,R9,1*%
%TO.N,/V_SEC_RTN*%
X176655000Y-80240000D03*
%TO.P,R9,2*%
%TO.N,Net-(J10-Pad3)*%
X175005000Y-80240000D03*
%TD*%
D18*
%TO.P,R18,1*%
%TO.N,/V_TELEM_RTN*%
X164626200Y-67330000D03*
%TO.P,R18,2*%
%TO.N,Net-(U6A-+INA)*%
X164626200Y-65680000D03*
%TD*%
D14*
%TO.P,R15,1*%
%TO.N,Net-(U5-OUT)*%
X189965000Y-77220000D03*
%TO.P,R15,2*%
%TO.N,Net-(C20-Pad2)*%
X188315000Y-77220000D03*
%TD*%
D19*
%TO.P,C13,1*%
%TO.N,/V_TELEM_RTN*%
X111948500Y-53105000D03*
%TO.P,C13,2*%
%TO.N,Net-(U2-SET)*%
X111948500Y-51555000D03*
%TD*%
D14*
%TO.P,R21,1*%
%TO.N,Net-(C23-Pad2)*%
X161861200Y-57305000D03*
%TO.P,R21,2*%
%TO.N,/P12V_V_MON*%
X160211200Y-57305000D03*
%TD*%
D20*
%TO.P,C20,1*%
%TO.N,/V_TELEM_RTN*%
X189925000Y-75370000D03*
%TO.P,C20,2*%
%TO.N,Net-(C20-Pad2)*%
X188375000Y-75370000D03*
%TD*%
D21*
%TO.P,H4,1,1*%
%TO.N,GNDPWR*%
X207000000Y-123000000D03*
%TD*%
D22*
%TO.P,J10,1*%
%TO.N,Net-(J10-Pad1)*%
X166190000Y-80240000D03*
%TO.P,J10,2*%
%TO.N,Net-(U1-REMOTE)*%
X168730000Y-80240000D03*
%TO.P,J10,3*%
%TO.N,Net-(J10-Pad3)*%
X171270000Y-80240000D03*
%TD*%
D23*
%TO.P,U3,1,VCC*%
%TO.N,/Enable_Block/3p3V*%
X92540001Y-58436200D03*
%TO.P,U3,2,GND*%
%TO.N,/V_TELEM_RTN*%
X91590000Y-58436200D03*
%TO.P,U3,3,A*%
%TO.N,/ENABLE-*%
X90639999Y-58436200D03*
%TO.P,U3,4,B*%
%TO.N,/ENABLE+*%
X90639999Y-60823800D03*
%TO.P,U3,5,R*%
%TO.N,/Enable_SIG*%
X92540001Y-60823800D03*
%TD*%
D14*
%TO.P,R16,1*%
%TO.N,Net-(C20-Pad2)*%
X188375000Y-73280000D03*
%TO.P,R16,2*%
%TO.N,/P12V_I_MON*%
X186725000Y-73280000D03*
%TD*%
D24*
%TO.P,F1,1,1*%
%TO.N,/V_SEC_IN*%
X97762300Y-98520000D03*
%TO.P,F1,2,2*%
%TO.N,Net-(F1-Pad2)*%
X104137700Y-98520000D03*
%TD*%
D25*
%TO.P,J4,1,SIGNAL*%
%TO.N,/P12V_OUT_*%
X209360000Y-98310000D03*
D26*
%TO.P,J4,2,GND*%
%TO.N,/P12V_RTN*%
X211900000Y-95770000D03*
%TO.P,J4,3,GND*%
X206820000Y-95770000D03*
%TO.P,J4,4,GND*%
X206820000Y-100850000D03*
%TO.P,J4,5,GND*%
X211900000Y-100850000D03*
%TD*%
D21*
%TO.P,H3,1,1*%
%TO.N,GNDPWR*%
X79000000Y-123000000D03*
%TD*%
D27*
%TO.P,C16,1*%
%TO.N,/V_TELEM_IN*%
X198043900Y-67552500D03*
%TO.P,C16,2*%
%TO.N,/V_TELEM_RTN*%
X195343900Y-67552500D03*
%TD*%
D28*
%TO.P,M2,1,1*%
%TO.N,Net-(M2-Pad1)*%
X147160000Y-64830000D03*
%TO.P,M2,2,2*%
%TO.N,/V_TELEM_RTN*%
X146160002Y-64830000D03*
%TO.P,M2,3,3*%
%TO.N,Net-(M2-Pad3)*%
X146660001Y-66180000D03*
%TD*%
D14*
%TO.P,R25,1*%
%TO.N,Net-(U6B-B_OUT)*%
X174295000Y-67860000D03*
%TO.P,R25,2*%
%TO.N,Net-(C25-Pad2)*%
X172645000Y-67860000D03*
%TD*%
D18*
%TO.P,R30,1*%
%TO.N,/V_SEC_RTN*%
X118840000Y-85385000D03*
%TO.P,R30,2*%
%TO.N,/V_TELEM_RTN*%
X118840000Y-83735000D03*
%TD*%
D20*
%TO.P,C23,1*%
%TO.N,/V_TELEM_RTN*%
X165531200Y-55545000D03*
%TO.P,C23,2*%
%TO.N,Net-(C23-Pad2)*%
X163981200Y-55545000D03*
%TD*%
D29*
%TO.P,C18,1*%
%TO.N,/V_TELEM_RTN*%
X189701400Y-61542500D03*
%TO.P,C18,2*%
%TO.N,Net-(U4-SET)*%
X189701400Y-63092500D03*
%TD*%
D14*
%TO.P,R7,1*%
%TO.N,Net-(M2-Pad1)*%
X147495000Y-60860000D03*
%TO.P,R7,2*%
%TO.N,/Enable_SIG*%
X145845000Y-60860000D03*
%TD*%
D30*
%TO.P,R14,1*%
%TO.N,/P12V_OUT*%
X195526600Y-98330000D03*
%TO.P,R14,2*%
%TO.N,/P12V_OUT_*%
X196593400Y-98330000D03*
%TD*%
D11*
%TO.P,C17,1*%
%TO.N,/Telemetry_Schematic/3p3V*%
X197801400Y-55012500D03*
%TO.P,C17,2*%
%TO.N,/V_TELEM_RTN*%
X200501400Y-55012500D03*
%TD*%
D31*
%TO.P,Q1,1,1*%
%TO.N,Net-(Q1-Pad1)*%
X147935000Y-69915800D03*
%TO.P,Q1,2,2*%
%TO.N,Net-(M2-Pad3)*%
X146665000Y-69915800D03*
%TO.P,Q1,3,3*%
%TO.N,/V_SEC_RTN*%
X146665000Y-76164200D03*
%TO.P,Q1,4,4*%
%TO.N,Net-(M1-Pad1)*%
X147935000Y-76164200D03*
%TD*%
D18*
%TO.P,R1,1*%
%TO.N,/Main_DCDC_Converter/TRIM*%
X180300000Y-98455000D03*
%TO.P,R1,2*%
%TO.N,/P12V_RTN*%
X180300000Y-96805000D03*
%TD*%
D32*
%TO.P,C19,1*%
%TO.N,/Telemetry_Schematic/3p3V*%
X191360000Y-80740000D03*
%TO.P,C19,2*%
%TO.N,/V_TELEM_RTN*%
X191360000Y-81700000D03*
%TD*%
D33*
%TO.P,R10,1*%
%TO.N,Net-(C10-Pad1)*%
X109870000Y-100332500D03*
%TO.P,R10,2*%
%TO.N,Net-(F1-Pad2)*%
X109870000Y-98507500D03*
%TD*%
D12*
%TO.P,U2,1,SET*%
%TO.N,Net-(U2-SET)*%
X106879900Y-49497500D03*
%TO.P,U2,2,OUT*%
%TO.N,/Enable_Block/3p3V*%
X104568500Y-49497500D03*
%TO.P,U2,3,IN*%
%TO.N,/V_TELEM_IN*%
X102257100Y-49497500D03*
D13*
%TO.P,U2,4,TAB*%
%TO.N,/Enable_Block/3p3V*%
X104568500Y-56490000D03*
%TD*%
D34*
%TO.P,C21,1*%
%TO.N,/Telemetry_Schematic/3p3V*%
X176220000Y-58810000D03*
%TO.P,C21,2*%
%TO.N,/V_TELEM_RTN*%
X177180000Y-58810000D03*
%TD*%
D35*
%TO.P,C11,1*%
%TO.N,GNDPWR*%
X176765000Y-83250000D03*
%TO.P,C11,2*%
%TO.N,/P12V_RTN*%
X178315000Y-83250000D03*
%TD*%
D36*
%TO.P,C24,1*%
%TO.N,Net-(U6B--INB)*%
X176230000Y-61700000D03*
%TO.P,C24,2*%
%TO.N,Net-(U6B-B_OUT)*%
X176230000Y-60740000D03*
%TD*%
D37*
%TO.P,U5,1,-IN*%
%TO.N,/P12V_OUT_*%
X198550000Y-83125000D03*
%TO.P,U5,2,GND*%
%TO.N,/V_TELEM_RTN*%
X198550000Y-81855000D03*
%TO.P,U5,3,REF2*%
X198550000Y-80585000D03*
%TO.P,U5,4,4*%
%TO.N,unconnected-(U5-Pad4)*%
X198550000Y-79315000D03*
%TO.P,U5,5,OUT*%
%TO.N,Net-(U5-OUT)*%
X193610000Y-79315000D03*
%TO.P,U5,6,V+*%
%TO.N,/Telemetry_Schematic/3p3V*%
X193610000Y-80585000D03*
%TO.P,U5,7,REF1*%
%TO.N,/V_TELEM_RTN*%
X193610000Y-81855000D03*
%TO.P,U5,8,+IN*%
%TO.N,/P12V_OUT*%
X193610000Y-83125000D03*
%TD*%
D10*
%TO.P,R19,1*%
%TO.N,Net-(U6A-+INA)*%
X166346200Y-65680000D03*
%TO.P,R19,2*%
%TO.N,/P12V_OUT_*%
X166346200Y-67330000D03*
%TD*%
D17*
%TO.P,C7,1*%
%TO.N,/P12V_OUT*%
X183520000Y-100092500D03*
%TO.P,C7,2*%
%TO.N,/P12V_RTN*%
X183520000Y-95167500D03*
%TD*%
D20*
%TO.P,C25,1*%
%TO.N,/V_TELEM_RTN*%
X174195000Y-69570000D03*
%TO.P,C25,2*%
%TO.N,Net-(C25-Pad2)*%
X172645000Y-69570000D03*
%TD*%
D10*
%TO.P,R13,1*%
%TO.N,/V_TELEM_RTN*%
X191591400Y-61497500D03*
%TO.P,R13,2*%
%TO.N,Net-(U4-SET)*%
X191591400Y-63147500D03*
%TD*%
D38*
%TO.P,U6,1,A_OUT*%
%TO.N,Net-(U6A-A_OUT)*%
X167942400Y-59300000D03*
%TO.P,U6,2,-INA*%
%TO.N,Net-(U6A--INA)*%
X167942400Y-60570000D03*
%TO.P,U6,3,+INA*%
%TO.N,Net-(U6A-+INA)*%
X167942400Y-61840000D03*
%TO.P,U6,4,VSS*%
%TO.N,/V_TELEM_RTN*%
X167942400Y-63110000D03*
%TO.P,U6,5,+INB*%
%TO.N,Net-(U6B-+INB)*%
X172870000Y-63110000D03*
%TO.P,U6,6,-INB*%
%TO.N,Net-(U6B--INB)*%
X172870000Y-61840000D03*
%TO.P,U6,7,B_OUT*%
%TO.N,Net-(U6B-B_OUT)*%
X172870000Y-60570000D03*
%TO.P,U6,8,VCC*%
%TO.N,/Telemetry_Schematic/3p3V*%
X172870000Y-59300000D03*
%TD*%
D28*
%TO.P,M1,1,1*%
%TO.N,Net-(M1-Pad1)*%
X156790001Y-80145000D03*
%TO.P,M1,2,2*%
%TO.N,/V_SEC_RTN*%
X157789999Y-80145000D03*
%TO.P,M1,3,3*%
%TO.N,Net-(J10-Pad1)*%
X157290000Y-78795000D03*
%TD*%
D39*
%TO.P,R6,1*%
%TO.N,Net-(M1-Pad1)*%
X156464999Y-82135000D03*
%TO.P,R6,2*%
%TO.N,/V_SEC_RTN*%
X158114999Y-82135000D03*
%TD*%
D40*
%TO.P,U1,1,+VIN*%
%TO.N,/Main_DCDC_Converter/V_SEC*%
X154980000Y-100150000D03*
D41*
%TO.P,U1,2,-VIN*%
%TO.N,Net-(U1--VIN)*%
X154980000Y-95050000D03*
%TO.P,U1,3,+VOUT*%
%TO.N,/P12V_OUT*%
X175280000Y-107850000D03*
%TO.P,U1,4,TRIM*%
%TO.N,/Main_DCDC_Converter/TRIM*%
X175280000Y-97650000D03*
%TO.P,U1,5,-VOUT*%
%TO.N,/P12V_RTN*%
X175280000Y-87450000D03*
%TO.P,U1,6,REMOTE*%
%TO.N,Net-(U1-REMOTE)*%
X154980000Y-87450000D03*
%TD*%
D42*
%TO.P,L2,1,1*%
%TO.N,Net-(L2-Pad1)*%
X133325000Y-87290000D03*
%TO.P,L2,2,2*%
%TO.N,Net-(U1--VIN)*%
X137525000Y-87290000D03*
%TD*%
D18*
%TO.P,R4,1*%
%TO.N,/Main_DCDC_Converter/V_SEC*%
X149980000Y-81485000D03*
%TO.P,R4,2*%
%TO.N,Net-(M1-Pad1)*%
X149980000Y-79835000D03*
%TD*%
D36*
%TO.P,C22,1*%
%TO.N,Net-(U6A--INA)*%
X164326200Y-60385000D03*
%TO.P,C22,2*%
%TO.N,Net-(U6A-A_OUT)*%
X164326200Y-59425000D03*
%TD*%
D43*
%TO.P,C10,1*%
%TO.N,Net-(C10-Pad1)*%
X109870000Y-105860000D03*
%TO.P,C10,2*%
%TO.N,/V_SEC_RTN*%
X104945000Y-105860000D03*
%TD*%
D21*
%TO.P,H1,1,1*%
%TO.N,GNDPWR*%
X79000000Y-44000000D03*
%TD*%
D14*
%TO.P,R20,1*%
%TO.N,Net-(U6A-A_OUT)*%
X165611200Y-57305000D03*
%TO.P,R20,2*%
%TO.N,Net-(C23-Pad2)*%
X163961200Y-57305000D03*
%TD*%
D29*
%TO.P,C26,1*%
%TO.N,/V_TELEM_RTN*%
X116930000Y-83835000D03*
%TO.P,C26,2*%
%TO.N,/V_SEC_RTN*%
X116930000Y-85385000D03*
%TD*%
D21*
%TO.P,H2,1,1*%
%TO.N,GNDPWR*%
X207000000Y-44000000D03*
%TD*%
D44*
%TO.P,R24,1*%
%TO.N,Net-(U6B--INB)*%
X175020000Y-61720000D03*
%TO.P,R24,2*%
%TO.N,Net-(U6B-B_OUT)*%
X175020000Y-60700000D03*
%TD*%
D45*
%TO.P,J2,1*%
%TO.N,/TEMP_MON*%
X82920000Y-69540000D03*
%TO.P,J2,2*%
%TO.N,/V_TELEM_RTN*%
X82920000Y-66770000D03*
%TO.P,J2,3*%
%TO.N,/P12V_I_MON*%
X82920000Y-64000000D03*
%TO.P,J2,4*%
%TO.N,/V_TELEM_RTN*%
X82920000Y-61230000D03*
%TO.P,J2,5*%
%TO.N,/ENABLE-*%
X82920000Y-58460000D03*
%TO.P,J2,6*%
%TO.N,/V_TELEM_RTN*%
X80080000Y-68155000D03*
%TO.P,J2,7*%
%TO.N,/P12V_V_MON*%
X80080000Y-65385000D03*
%TO.P,J2,8*%
%TO.N,/V_TELEM_RTN*%
X80080000Y-62615000D03*
%TO.P,J2,9*%
%TO.N,/ENABLE+*%
X80080000Y-59845000D03*
D16*
%TO.P,J2,S1*%
%TO.N,GNDPWR*%
X81500000Y-51500000D03*
%TO.P,J2,S2*%
X81500000Y-76500000D03*
%TD*%
D18*
%TO.P,R12,1*%
%TO.N,/V_TELEM_RTN*%
X110188500Y-53135000D03*
%TO.P,R12,2*%
%TO.N,Net-(U2-SET)*%
X110188500Y-51485000D03*
%TD*%
D44*
%TO.P,R17,1*%
%TO.N,Net-(U6A--INA)*%
X165596200Y-60435000D03*
%TO.P,R17,2*%
%TO.N,Net-(U6A-A_OUT)*%
X165596200Y-59415000D03*
%TD*%
D42*
%TO.P,L1,1,1*%
%TO.N,Net-(L1-Pad1)*%
X133325000Y-104980000D03*
%TO.P,L1,2,2*%
%TO.N,/Main_DCDC_Converter/V_SEC*%
X137525000Y-104980000D03*
%TD*%
D46*
%TO.P,C9,1*%
%TO.N,/Main_DCDC_Converter/V_SEC*%
X137620000Y-98230000D03*
%TO.P,C9,2*%
%TO.N,Net-(U1--VIN)*%
X137620000Y-95155000D03*
%TD*%
D47*
%TO.P,L3,1*%
%TO.N,Net-(L2-Pad1)*%
X128250000Y-94760000D03*
%TO.P,L3,2*%
%TO.N,Net-(L1-Pad1)*%
X128250000Y-98460000D03*
%TO.P,L3,3*%
%TO.N,Net-(F1-Pad2)*%
X115650000Y-98460000D03*
%TO.P,L3,4*%
%TO.N,/V_SEC_RTN*%
X115650000Y-94760000D03*
%TD*%
D34*
%TO.P,C15,1*%
%TO.N,/V_TELEM_RTN*%
X91635400Y-56496500D03*
%TO.P,C15,2*%
%TO.N,/Enable_Block/3p3V*%
X92595400Y-56496500D03*
%TD*%
D48*
%TO.P,J3,1*%
%TO.N,/V_TELEM_IN*%
X149890000Y-47150000D03*
%TO.P,J3,2*%
%TO.N,/V_TELEM_RTN*%
X146080000Y-47150000D03*
%TO.P,J3,3*%
%TO.N,/V_TELEM_IN*%
X142270000Y-47150000D03*
%TD*%
D49*
%TO.P,LED,1*%
%TO.N,Net-(LED1-Pad1)*%
X206100000Y-78508650D03*
%TO.P,LED,2*%
%TO.N,Net-(LED1-Pad2)*%
X206100000Y-77251350D03*
%TD*%
D18*
%TO.P,R22,1*%
%TO.N,/V_TELEM_RTN*%
X181490000Y-65195000D03*
%TO.P,R22,2*%
%TO.N,/Telemetry_Schematic/TEMP*%
X181490000Y-63545000D03*
%TD*%
D10*
%TO.P,R5,1*%
%TO.N,/V_TELEM_IN*%
X151230000Y-64755000D03*
%TO.P,R5,2*%
%TO.N,Net-(Q1-Pad1)*%
X151230000Y-66405000D03*
%TD*%
D50*
%TO.N,/Main_DCDC_Converter/V_SEC*%
X149990000Y-83870000D03*
X151120000Y-81490000D03*
%TO.N,/P12V_OUT*%
X183520000Y-102310000D03*
%TO.N,/P12V_RTN*%
X183540000Y-93140000D03*
%TO.N,/V_SEC_RTN*%
X195000000Y-105000000D03*
X125000000Y-105000000D03*
X112500000Y-122500000D03*
X145000000Y-112500000D03*
X197500000Y-102500000D03*
X200000000Y-90000000D03*
X95000000Y-87500000D03*
X135000000Y-120000000D03*
X202500000Y-117500000D03*
X97500000Y-102500000D03*
X102500000Y-120000000D03*
X165000000Y-120000000D03*
X97500000Y-90000000D03*
X137500000Y-115000000D03*
X167500000Y-125000000D03*
X132500000Y-80000000D03*
X180000000Y-75000000D03*
X97500000Y-95000000D03*
X197500000Y-112500000D03*
X95000000Y-115000000D03*
X180000000Y-90000000D03*
X170000000Y-117500000D03*
X100000000Y-102500000D03*
X177500000Y-115000000D03*
X117500000Y-110000000D03*
X197500000Y-107500000D03*
X95000000Y-105000000D03*
X172500000Y-77500000D03*
X142500000Y-115000000D03*
X90000000Y-122500000D03*
X207500000Y-117500000D03*
X135000000Y-80000000D03*
X95000000Y-125000000D03*
X200000000Y-112500000D03*
X112500000Y-110000000D03*
X200000000Y-87500000D03*
X95000000Y-102500000D03*
X87500000Y-97500000D03*
X132500000Y-82500000D03*
X130000000Y-107500000D03*
X135000000Y-117500000D03*
X200000000Y-120000000D03*
X98527500Y-105000000D03*
X160000000Y-122500000D03*
X90000000Y-105000000D03*
X110000000Y-90000000D03*
X182500000Y-87500000D03*
X118830000Y-86880000D03*
X127500000Y-105000000D03*
X105000000Y-125000000D03*
X147500000Y-117500000D03*
X170000000Y-120000000D03*
X155000000Y-122500000D03*
X182500000Y-112500000D03*
X97500000Y-117500000D03*
X87500000Y-102500000D03*
X185000000Y-115000000D03*
X180000000Y-110000000D03*
X202500000Y-110000000D03*
X117500000Y-122500000D03*
X142500000Y-85000000D03*
X87500000Y-112500000D03*
X207500000Y-115000000D03*
X190000000Y-110000000D03*
X180000000Y-80000000D03*
X205000000Y-107500000D03*
X202500000Y-125000000D03*
X120000000Y-112500000D03*
X200000000Y-95000000D03*
X212500000Y-107500000D03*
X192500000Y-115000000D03*
X185000000Y-105000000D03*
X92500000Y-105000000D03*
X185000000Y-90000000D03*
X90000000Y-125000000D03*
X165000000Y-115000000D03*
X107500000Y-87500000D03*
X112500000Y-107500000D03*
X175000000Y-112500000D03*
X197500000Y-125000000D03*
X170000000Y-75000000D03*
X170000000Y-115000000D03*
X175000000Y-117500000D03*
X115000000Y-112500000D03*
X165000000Y-77500000D03*
X95000000Y-110000000D03*
X212500000Y-110000000D03*
X177500000Y-77500000D03*
X120000000Y-107500000D03*
X140000000Y-115000000D03*
X160000000Y-112500000D03*
X195000000Y-92500000D03*
X202500000Y-112500000D03*
X107500000Y-102500000D03*
X210000000Y-105000000D03*
X190000000Y-120000000D03*
X107500000Y-95000000D03*
X147500000Y-110000000D03*
X140000000Y-122500000D03*
X127500000Y-125000000D03*
X115000000Y-122500000D03*
X190000000Y-125000000D03*
X87500000Y-110000000D03*
X210000000Y-110000000D03*
X147500000Y-125000000D03*
X137500000Y-120000000D03*
X112500000Y-125000000D03*
X103950000Y-91210000D03*
X135000000Y-82500000D03*
X112500000Y-112500000D03*
X105000000Y-92500000D03*
X195000000Y-90000000D03*
X195000000Y-102500000D03*
X102500000Y-125000000D03*
X132500000Y-122500000D03*
X90000000Y-90000000D03*
X145000000Y-77500000D03*
X95000000Y-120000000D03*
X145000000Y-120000000D03*
X85000000Y-120000000D03*
X132500000Y-117500000D03*
X105000000Y-112500000D03*
X150000000Y-77500000D03*
X140000000Y-80000000D03*
X92500000Y-117500000D03*
X110000000Y-120000000D03*
X142500000Y-112500000D03*
X180000000Y-92500000D03*
X150000000Y-125000000D03*
X180000000Y-77500000D03*
X107500000Y-122500000D03*
X107500000Y-110000000D03*
X190000000Y-107500000D03*
X137500000Y-122500000D03*
X200000000Y-117500000D03*
X142500000Y-117500000D03*
X192500000Y-95000000D03*
X197500000Y-117500000D03*
X117500000Y-117500000D03*
X155000000Y-115000000D03*
X145000000Y-75000000D03*
X207500000Y-105000000D03*
X150000000Y-75000000D03*
X92500000Y-102500000D03*
X152500000Y-125000000D03*
X152500000Y-120000000D03*
X182500000Y-110000000D03*
X140000000Y-85000000D03*
X115000000Y-115000000D03*
X172500000Y-122500000D03*
X95000000Y-112500000D03*
X145000000Y-85000000D03*
X120000000Y-105000000D03*
X102500000Y-102500000D03*
X100000000Y-90000000D03*
X87500000Y-115000000D03*
X177500000Y-125000000D03*
X103950000Y-89710000D03*
X135000000Y-112500000D03*
X192500000Y-87500000D03*
X172500000Y-115000000D03*
X95000000Y-90000000D03*
X192500000Y-120000000D03*
X102200000Y-88210000D03*
X192500000Y-122500000D03*
X175000000Y-122500000D03*
X195000000Y-125000000D03*
X100027500Y-106500000D03*
X147500000Y-122500000D03*
X190000000Y-115000000D03*
X87500000Y-90000000D03*
X105000000Y-110000000D03*
X147500000Y-82500000D03*
X145000000Y-110000000D03*
X100000000Y-112500000D03*
X115000000Y-105000000D03*
X142500000Y-125000000D03*
X105000000Y-117500000D03*
X122500000Y-107500000D03*
X142500000Y-122500000D03*
X197500000Y-90000000D03*
X122500000Y-110000000D03*
X187500000Y-105000000D03*
X145000000Y-125000000D03*
X162500000Y-75000000D03*
X117500000Y-105000000D03*
X210000000Y-112500000D03*
X205000000Y-105000000D03*
X182500000Y-122500000D03*
X185000000Y-112500000D03*
X95000000Y-117500000D03*
X210000000Y-115000000D03*
X170000000Y-77500000D03*
X147500000Y-112500000D03*
X150000000Y-120000000D03*
X202500000Y-102500000D03*
X165000000Y-117500000D03*
X87500000Y-105000000D03*
X142500000Y-75000000D03*
X117500000Y-125000000D03*
X101527500Y-105000000D03*
X110000000Y-110000000D03*
X147500000Y-120000000D03*
X92500000Y-107500000D03*
X187500000Y-120000000D03*
X212500000Y-105000000D03*
X110000000Y-87500000D03*
X180000000Y-102500000D03*
X170000000Y-122500000D03*
X102500000Y-110000000D03*
X187500000Y-125000000D03*
X92500000Y-92500000D03*
X187500000Y-117500000D03*
X135000000Y-122500000D03*
X105000000Y-95000000D03*
X180000000Y-117500000D03*
X125000000Y-110000000D03*
X100000000Y-120000000D03*
X115000000Y-107500000D03*
X175000000Y-120000000D03*
X90000000Y-92500000D03*
X130000000Y-77500000D03*
X85000000Y-122500000D03*
X202500000Y-92500000D03*
X167500000Y-112500000D03*
X177500000Y-75000000D03*
X182500000Y-117500000D03*
X97500000Y-125000000D03*
X95000000Y-92500000D03*
X112500000Y-115000000D03*
X182500000Y-115000000D03*
X192500000Y-117500000D03*
X140000000Y-112500000D03*
X90000000Y-120000000D03*
X197500000Y-87500000D03*
X130000000Y-87500000D03*
X137500000Y-125000000D03*
X192500000Y-90000000D03*
X192500000Y-107500000D03*
X160000000Y-120000000D03*
X140000000Y-125000000D03*
X160000000Y-80000000D03*
X87500000Y-122500000D03*
X87500000Y-117500000D03*
X92500000Y-97500000D03*
X140000000Y-117500000D03*
X147500000Y-85000000D03*
X192500000Y-105000000D03*
X102200000Y-89710000D03*
X155000000Y-120000000D03*
X202500000Y-120000000D03*
X100000000Y-110000000D03*
X87500000Y-92500000D03*
X167500000Y-75000000D03*
X187500000Y-110000000D03*
X105000000Y-120000000D03*
X127500000Y-110000000D03*
X152500000Y-115000000D03*
X172500000Y-125000000D03*
X132500000Y-110000000D03*
X97500000Y-110000000D03*
X175000000Y-115000000D03*
X100000000Y-125000000D03*
X212500000Y-90000000D03*
X92500000Y-112500000D03*
X92500000Y-100000000D03*
X200000000Y-110000000D03*
X140000000Y-120000000D03*
X97500000Y-87500000D03*
X152500000Y-122500000D03*
X115000000Y-110000000D03*
X177500000Y-117500000D03*
X87500000Y-87500000D03*
X87500000Y-120000000D03*
X122500000Y-125000000D03*
X122500000Y-105000000D03*
X112500000Y-90000000D03*
X167500000Y-77500000D03*
X185000000Y-110000000D03*
X180000000Y-112500000D03*
X125000000Y-112500000D03*
X170000000Y-112500000D03*
X160000000Y-125000000D03*
X157500000Y-117500000D03*
X155000000Y-75000000D03*
X192500000Y-125000000D03*
X175000000Y-75000000D03*
X185000000Y-107500000D03*
X172500000Y-117500000D03*
X160000000Y-75000000D03*
X90000000Y-102500000D03*
X127500000Y-112500000D03*
X210000000Y-107500000D03*
X130000000Y-112500000D03*
X162500000Y-125000000D03*
X157500000Y-75000000D03*
X155000000Y-117500000D03*
X200000000Y-107500000D03*
X100000000Y-117500000D03*
X165000000Y-112500000D03*
X182500000Y-125000000D03*
X122500000Y-112500000D03*
X102500000Y-122500000D03*
X142500000Y-77500000D03*
X137500000Y-117500000D03*
X125000000Y-87500000D03*
X90000000Y-117500000D03*
X205000000Y-112500000D03*
X101527500Y-106500000D03*
X170000000Y-82500000D03*
X140000000Y-77500000D03*
X165000000Y-75000000D03*
X172500000Y-75000000D03*
X110000000Y-95000000D03*
X190000000Y-122500000D03*
X92500000Y-110000000D03*
X152500000Y-75000000D03*
X202500000Y-115000000D03*
X202500000Y-90000000D03*
X92500000Y-125000000D03*
X115000000Y-87500000D03*
X157500000Y-125000000D03*
X159260000Y-82110000D03*
X160000000Y-115000000D03*
X98527500Y-106500000D03*
X167500000Y-122500000D03*
X207500000Y-112500000D03*
X107500000Y-120000000D03*
X180000000Y-120000000D03*
X132500000Y-115000000D03*
X130000000Y-125000000D03*
X127500000Y-107500000D03*
X122500000Y-87500000D03*
X185000000Y-117500000D03*
X100027500Y-105000000D03*
X202500000Y-87500000D03*
X135000000Y-110000000D03*
X190000000Y-90000000D03*
X187500000Y-112500000D03*
X117500000Y-115000000D03*
X180000000Y-115000000D03*
X165000000Y-122500000D03*
X87500000Y-100000000D03*
X155000000Y-112500000D03*
X100000000Y-95000000D03*
X190000000Y-105000000D03*
X145000000Y-117500000D03*
X105000000Y-115000000D03*
X125000000Y-107500000D03*
X192500000Y-112500000D03*
X195000000Y-112500000D03*
X177500000Y-120000000D03*
X197500000Y-105000000D03*
X175000000Y-125000000D03*
X142500000Y-120000000D03*
X92500000Y-87500000D03*
X130000000Y-105000000D03*
X97500000Y-122500000D03*
X172500000Y-112500000D03*
X117500000Y-120000000D03*
X150000000Y-112500000D03*
X212500000Y-117500000D03*
X97500000Y-112500000D03*
X155000000Y-125000000D03*
X132500000Y-120000000D03*
X152500000Y-112500000D03*
X135000000Y-75000000D03*
X195000000Y-115000000D03*
X157500000Y-122500000D03*
X132500000Y-125000000D03*
X100000000Y-87500000D03*
X110000000Y-112500000D03*
X180000000Y-122500000D03*
X95000000Y-107500000D03*
X110000000Y-122500000D03*
X102500000Y-117500000D03*
X190000000Y-87500000D03*
X157500000Y-112500000D03*
X195000000Y-87500000D03*
X110000000Y-117500000D03*
X172500000Y-120000000D03*
X112500000Y-117500000D03*
X115000000Y-120000000D03*
X170000000Y-125000000D03*
X185000000Y-122500000D03*
X102500000Y-112500000D03*
X200000000Y-102500000D03*
X197500000Y-120000000D03*
X145000000Y-80000000D03*
X187500000Y-90000000D03*
X102500000Y-115000000D03*
X172500000Y-82500000D03*
X103950000Y-88210000D03*
X100000000Y-115000000D03*
X140000000Y-110000000D03*
X190000000Y-112500000D03*
X180000000Y-105000000D03*
X87500000Y-107500000D03*
X130000000Y-110000000D03*
X200000000Y-115000000D03*
X97500000Y-120000000D03*
X107500000Y-92500000D03*
X117500000Y-112500000D03*
X137500000Y-110000000D03*
X205000000Y-110000000D03*
X112500000Y-105000000D03*
X200000000Y-125000000D03*
X107500000Y-112500000D03*
X100000000Y-122500000D03*
X117500000Y-107500000D03*
X162500000Y-112500000D03*
X160000000Y-117500000D03*
X135000000Y-115000000D03*
X95000000Y-122500000D03*
X205000000Y-117500000D03*
X195000000Y-107500000D03*
X102500000Y-92500000D03*
X190000000Y-117500000D03*
X212500000Y-112500000D03*
X145000000Y-122500000D03*
X210000000Y-117500000D03*
X175000000Y-77500000D03*
X197500000Y-110000000D03*
X146670000Y-79410000D03*
X127500000Y-87500000D03*
X102200000Y-91210000D03*
X212500000Y-87500000D03*
X97500000Y-92500000D03*
X110000000Y-125000000D03*
X92500000Y-120000000D03*
X187500000Y-115000000D03*
X92500000Y-95000000D03*
X145000000Y-115000000D03*
X202500000Y-107500000D03*
X200000000Y-122500000D03*
X202500000Y-95000000D03*
X90000000Y-107500000D03*
X116930000Y-86880000D03*
X197500000Y-92500000D03*
X162500000Y-117500000D03*
X112500000Y-102500000D03*
X105000000Y-102500000D03*
X207500000Y-110000000D03*
X150000000Y-110000000D03*
X90000000Y-112500000D03*
X137500000Y-82500000D03*
X142500000Y-110000000D03*
X177500000Y-122500000D03*
X162500000Y-77500000D03*
X112500000Y-87500000D03*
X157500000Y-115000000D03*
X212500000Y-115000000D03*
X137500000Y-80000000D03*
X205000000Y-115000000D03*
X137500000Y-112500000D03*
X130000000Y-82500000D03*
X132500000Y-112500000D03*
X92500000Y-90000000D03*
X212500000Y-92500000D03*
X130000000Y-75000000D03*
X180000000Y-82500000D03*
X107500000Y-125000000D03*
X90000000Y-95000000D03*
X90000000Y-115000000D03*
X112500000Y-92500000D03*
X195000000Y-120000000D03*
X182500000Y-120000000D03*
X150000000Y-115000000D03*
X162500000Y-120000000D03*
X185000000Y-120000000D03*
X135000000Y-125000000D03*
X202500000Y-122500000D03*
X107500000Y-117500000D03*
X97500000Y-115000000D03*
X197500000Y-115000000D03*
X130000000Y-80000000D03*
X115000000Y-125000000D03*
X100000000Y-92500000D03*
X120000000Y-110000000D03*
X142500000Y-80000000D03*
X115000000Y-117500000D03*
X162500000Y-122500000D03*
X125000000Y-125000000D03*
X90000000Y-87500000D03*
X120000000Y-125000000D03*
X207500000Y-107500000D03*
X187500000Y-87500000D03*
X180000000Y-125000000D03*
X145000000Y-82500000D03*
X110000000Y-115000000D03*
X180000000Y-100000000D03*
X167500000Y-120000000D03*
X132500000Y-75000000D03*
X192500000Y-102500000D03*
X165000000Y-125000000D03*
X140000000Y-82500000D03*
X195000000Y-110000000D03*
X92500000Y-122500000D03*
X92500000Y-115000000D03*
X90000000Y-100000000D03*
X112500000Y-120000000D03*
X137500000Y-75000000D03*
X150000000Y-122500000D03*
X187500000Y-122500000D03*
X187500000Y-107500000D03*
X135000000Y-77500000D03*
X90000000Y-110000000D03*
X162500000Y-115000000D03*
X185000000Y-87500000D03*
X197500000Y-122500000D03*
X107500000Y-115000000D03*
X195000000Y-117500000D03*
X137500000Y-77500000D03*
X102500000Y-95000000D03*
X105000000Y-122500000D03*
X178380000Y-80220000D03*
X167500000Y-117500000D03*
X167500000Y-115000000D03*
X87500000Y-125000000D03*
X185000000Y-125000000D03*
X202500000Y-105000000D03*
X140000000Y-75000000D03*
X150000000Y-117500000D03*
X147500000Y-115000000D03*
X157500000Y-120000000D03*
X177500000Y-112500000D03*
X132500000Y-77500000D03*
X200000000Y-105000000D03*
X85000000Y-125000000D03*
X152500000Y-117500000D03*
X142500000Y-82500000D03*
X192500000Y-110000000D03*
X95000000Y-95000000D03*
X195000000Y-122500000D03*
%TO.N,GNDPWR*%
X175355000Y-83250000D03*
%TO.N,/V_TELEM_RTN*%
X116930000Y-82030000D03*
X115000000Y-77500000D03*
X160000000Y-65000000D03*
X145000000Y-52500000D03*
X180000000Y-52500000D03*
X87500000Y-52500000D03*
X95000000Y-82500000D03*
X92500000Y-80000000D03*
X87500000Y-45000000D03*
X212500000Y-82500000D03*
X202500000Y-50000000D03*
X137500000Y-55000000D03*
X192500000Y-50000000D03*
X175000000Y-50000000D03*
X90000000Y-42500000D03*
X155000000Y-45000000D03*
X157500000Y-55000000D03*
X112500000Y-42500000D03*
X132500000Y-47500000D03*
X105000000Y-62500000D03*
X190000000Y-50000000D03*
X187500000Y-50000000D03*
X125000000Y-45000000D03*
X207500000Y-52500000D03*
X130000000Y-60000000D03*
X120000000Y-52500000D03*
X122500000Y-75000000D03*
X95000000Y-75000000D03*
X180000000Y-55000000D03*
X110000000Y-67500000D03*
X202500000Y-42500000D03*
X162500000Y-47500000D03*
X212500000Y-47500000D03*
X202471400Y-55012500D03*
X137500000Y-62500000D03*
X185000000Y-50000000D03*
X137500000Y-65000000D03*
X167500000Y-47500000D03*
X100000000Y-50000000D03*
X135000000Y-47500000D03*
X105000000Y-82500000D03*
X207500000Y-60000000D03*
X200000000Y-77500000D03*
X147500000Y-52500000D03*
X155000000Y-47500000D03*
X165906200Y-63115000D03*
X122500000Y-82500000D03*
X195000000Y-52500000D03*
X118840000Y-82040000D03*
X100000000Y-67500000D03*
X167500000Y-42500000D03*
X125000000Y-52500000D03*
X157500000Y-52500000D03*
X117500000Y-65000000D03*
X212500000Y-67500000D03*
X175000000Y-52500000D03*
X210000000Y-65000000D03*
X120000000Y-67500000D03*
X205000000Y-50000000D03*
X197500000Y-42500000D03*
X160000000Y-42500000D03*
X197500000Y-47500000D03*
X100000000Y-62500000D03*
X127500000Y-55000000D03*
X97500000Y-75000000D03*
X140000000Y-67500000D03*
X205000000Y-65000000D03*
X102500000Y-77500000D03*
X166926200Y-55545000D03*
X90000000Y-75000000D03*
X87500000Y-67500000D03*
X117500000Y-50000000D03*
X90000000Y-80000000D03*
X200420000Y-81240000D03*
X191450000Y-75370000D03*
X212500000Y-77500000D03*
X137500000Y-50000000D03*
X95000000Y-67500000D03*
X160000000Y-60000000D03*
X200000000Y-75000000D03*
X187500000Y-60000000D03*
X170000000Y-45000000D03*
X197500000Y-77500000D03*
X80000000Y-82500000D03*
X115000000Y-65000000D03*
X162500000Y-42500000D03*
X210000000Y-62500000D03*
X205000000Y-67500000D03*
X192500000Y-47500000D03*
X187500000Y-62500000D03*
X117500000Y-80000000D03*
X110000000Y-75000000D03*
X190000000Y-52500000D03*
X205000000Y-55000000D03*
X192500000Y-72500000D03*
X155000000Y-62500000D03*
X110000000Y-45000000D03*
X178210000Y-58800000D03*
X155000000Y-52500000D03*
X102500000Y-82500000D03*
X182500000Y-42500000D03*
X182500000Y-45000000D03*
X177500000Y-47500000D03*
X97500000Y-60000000D03*
X157500000Y-60000000D03*
X122500000Y-55000000D03*
X207500000Y-57500000D03*
X127500000Y-45000000D03*
X210000000Y-52500000D03*
X190000000Y-57500000D03*
X212500000Y-65000000D03*
X135000000Y-45000000D03*
X120000000Y-45000000D03*
X145000000Y-55000000D03*
X205000000Y-60000000D03*
X135000000Y-50000000D03*
X112500000Y-50000000D03*
X120000000Y-50000000D03*
X135000000Y-67500000D03*
X95000000Y-57500000D03*
X162500000Y-62500000D03*
X167500000Y-45000000D03*
X182500000Y-52500000D03*
X120000000Y-47500000D03*
X197500000Y-50000000D03*
X97500000Y-47500000D03*
X115000000Y-45000000D03*
X200000000Y-42500000D03*
X185000000Y-60000000D03*
X210000000Y-67500000D03*
X190000000Y-47500000D03*
X125000000Y-55000000D03*
X165000000Y-47500000D03*
X112500000Y-77500000D03*
X165000000Y-45000000D03*
X95000000Y-55000000D03*
X110000000Y-82500000D03*
X172500000Y-50000000D03*
X190000000Y-72500000D03*
X182500000Y-50000000D03*
X187500000Y-65000000D03*
X92500000Y-67500000D03*
X85000000Y-42500000D03*
X95000000Y-52500000D03*
X85000000Y-82500000D03*
X160000000Y-62500000D03*
X90000000Y-55000000D03*
X102500000Y-80000000D03*
X175000000Y-45000000D03*
X142500000Y-52500000D03*
X112500000Y-45000000D03*
X207500000Y-65000000D03*
X100000000Y-60000000D03*
X152500000Y-55000000D03*
X130000000Y-45000000D03*
X175000000Y-42500000D03*
X105000000Y-45000000D03*
X97500000Y-50000000D03*
X97500000Y-77500000D03*
X140000000Y-52500000D03*
X212500000Y-72500000D03*
X107500000Y-75000000D03*
X182500000Y-57500000D03*
X82500000Y-82500000D03*
X135000000Y-42500000D03*
X181490000Y-66370000D03*
X115000000Y-75000000D03*
X180000000Y-47500000D03*
X125000000Y-47500000D03*
X100000000Y-42500000D03*
X87500000Y-50000000D03*
X120000000Y-55000000D03*
X115000000Y-50000000D03*
X130000000Y-67500000D03*
X92500000Y-47500000D03*
X165000000Y-50000000D03*
X125000000Y-77500000D03*
X100000000Y-52500000D03*
X192500000Y-77500000D03*
X200000000Y-45000000D03*
X190000000Y-55000000D03*
X160000000Y-55000000D03*
X190750000Y-82800000D03*
X195000000Y-45000000D03*
X132500000Y-62500000D03*
X95000000Y-62500000D03*
X205000000Y-57500000D03*
X100000000Y-45000000D03*
X87500000Y-80000000D03*
X212500000Y-75000000D03*
X165000000Y-42500000D03*
X157500000Y-67500000D03*
X157500000Y-65000000D03*
X180000000Y-45000000D03*
X130000000Y-42500000D03*
X202500000Y-47500000D03*
X185000000Y-47500000D03*
X112500000Y-75000000D03*
X97500000Y-82500000D03*
X155000000Y-50000000D03*
X195000000Y-42500000D03*
X102500000Y-45000000D03*
X130000000Y-50000000D03*
X122500000Y-67500000D03*
X97500000Y-55000000D03*
X205000000Y-52500000D03*
X212500000Y-45000000D03*
X182500000Y-55000000D03*
X92500000Y-52500000D03*
X142500000Y-65000000D03*
X117500000Y-67500000D03*
X202500000Y-57500000D03*
X185000000Y-45000000D03*
X170000000Y-47500000D03*
X75000000Y-82500000D03*
X172500000Y-52500000D03*
X117500000Y-60000000D03*
X110000000Y-62500000D03*
X135000000Y-52500000D03*
X195000000Y-72500000D03*
X90000000Y-45000000D03*
X117500000Y-75000000D03*
X100000000Y-75000000D03*
X92500000Y-42500000D03*
X160000000Y-52500000D03*
X122500000Y-65000000D03*
X187500000Y-45000000D03*
X111068500Y-55000000D03*
X140000000Y-62500000D03*
X122500000Y-45000000D03*
X127500000Y-65000000D03*
X122500000Y-42500000D03*
X207500000Y-62500000D03*
X155000000Y-42500000D03*
X167500000Y-52500000D03*
X212500000Y-52500000D03*
X197500000Y-75000000D03*
X100000000Y-80000000D03*
X177500000Y-45000000D03*
X125000000Y-80000000D03*
X97500000Y-67500000D03*
X157500000Y-47500000D03*
X100000000Y-77500000D03*
X112500000Y-67500000D03*
X110000000Y-80000000D03*
X177500000Y-55000000D03*
X197500000Y-45000000D03*
X107500000Y-62500000D03*
X102500000Y-67500000D03*
X87500000Y-47500000D03*
X210000000Y-50000000D03*
X170000000Y-52500000D03*
X117500000Y-47500000D03*
X187500000Y-55000000D03*
X132500000Y-65000000D03*
X170000000Y-50000000D03*
X165000000Y-52500000D03*
X195000000Y-47500000D03*
X100000000Y-82500000D03*
X77500000Y-82500000D03*
X122500000Y-60000000D03*
X110000000Y-77500000D03*
X92500000Y-55000000D03*
X100000000Y-47500000D03*
X115000000Y-42500000D03*
X210000000Y-55000000D03*
X127500000Y-52500000D03*
X95000000Y-50000000D03*
X212500000Y-57500000D03*
X167500000Y-50000000D03*
X125000000Y-75000000D03*
X172500000Y-45000000D03*
X135000000Y-55000000D03*
X135000000Y-65000000D03*
X132500000Y-52500000D03*
X95000000Y-42500000D03*
X107500000Y-82500000D03*
X95000000Y-45000000D03*
X87500000Y-55000000D03*
X193731400Y-67562500D03*
X192500000Y-45000000D03*
X117500000Y-45000000D03*
X122500000Y-80000000D03*
X125000000Y-67500000D03*
X127500000Y-50000000D03*
X155000000Y-55000000D03*
X155000000Y-65000000D03*
X115000000Y-47500000D03*
X212500000Y-55000000D03*
X170000000Y-55000000D03*
X144620000Y-62840000D03*
X107500000Y-80000000D03*
X115000000Y-55000000D03*
X160000000Y-47500000D03*
X212500000Y-60000000D03*
X105000000Y-67500000D03*
X105000000Y-77500000D03*
X117500000Y-55000000D03*
X162500000Y-50000000D03*
X212500000Y-50000000D03*
X109220000Y-59540000D03*
X102500000Y-42500000D03*
X125000000Y-82500000D03*
X87500000Y-75000000D03*
X207500000Y-67500000D03*
X107500000Y-67500000D03*
X122500000Y-47500000D03*
X95000000Y-80000000D03*
X162500000Y-52500000D03*
X185000000Y-57500000D03*
X212500000Y-70000000D03*
X200000000Y-50000000D03*
X115000000Y-82500000D03*
X137500000Y-52500000D03*
X125000000Y-50000000D03*
X97500000Y-42500000D03*
X172500000Y-42500000D03*
X192500000Y-55000000D03*
X115000000Y-60000000D03*
X120000000Y-75000000D03*
X152500000Y-62500000D03*
X102500000Y-75000000D03*
X195000000Y-75000000D03*
X187500000Y-70000000D03*
X92500000Y-50000000D03*
X202500000Y-65000000D03*
X177500000Y-50000000D03*
X95000000Y-77500000D03*
X180000000Y-42500000D03*
X90000000Y-52500000D03*
X175000000Y-55000000D03*
X192500000Y-52500000D03*
X157500000Y-45000000D03*
X125000000Y-65000000D03*
X90000000Y-82500000D03*
X117500000Y-42500000D03*
X130000000Y-55000000D03*
X115000000Y-80000000D03*
X132500000Y-45000000D03*
X170000000Y-42500000D03*
X192500000Y-57500000D03*
X92500000Y-77500000D03*
X212500000Y-80000000D03*
X125000000Y-42500000D03*
X192500000Y-42500000D03*
X187500000Y-42500000D03*
X187500000Y-47500000D03*
X190671400Y-59752500D03*
X127500000Y-42500000D03*
X90000000Y-77500000D03*
X105000000Y-80000000D03*
X97500000Y-80000000D03*
X162500000Y-55000000D03*
X187500000Y-52500000D03*
X157500000Y-42500000D03*
X132500000Y-42500000D03*
X95000000Y-60000000D03*
X132500000Y-55000000D03*
X90550000Y-56500000D03*
X162500000Y-45000000D03*
X150000000Y-55000000D03*
X162500000Y-65000000D03*
X155000000Y-60000000D03*
X163210000Y-67340000D03*
X190000000Y-45000000D03*
X200000000Y-72500000D03*
X190000000Y-42500000D03*
X102500000Y-62500000D03*
X190000000Y-65000000D03*
X107500000Y-45000000D03*
X130000000Y-52500000D03*
X212500000Y-62500000D03*
X120000000Y-42500000D03*
X195000000Y-77500000D03*
X185000000Y-52500000D03*
X172500000Y-47500000D03*
X177500000Y-52500000D03*
X157500000Y-62500000D03*
X97500000Y-62500000D03*
X207500000Y-55000000D03*
X127500000Y-67500000D03*
X195000000Y-55000000D03*
X180000000Y-57500000D03*
X177500000Y-42500000D03*
X137500000Y-42500000D03*
X120000000Y-60000000D03*
X130000000Y-65000000D03*
X137500000Y-45000000D03*
X185000000Y-55000000D03*
X157500000Y-50000000D03*
X85000000Y-45000000D03*
X155000000Y-67500000D03*
X142500000Y-55000000D03*
X182500000Y-60000000D03*
X202500000Y-67500000D03*
X92500000Y-82500000D03*
X187500000Y-57500000D03*
X97500000Y-52500000D03*
X132500000Y-67500000D03*
X160000000Y-45000000D03*
X122500000Y-52500000D03*
X210000000Y-57500000D03*
X175510000Y-69570000D03*
X105000000Y-75000000D03*
X152500000Y-52500000D03*
X207500000Y-50000000D03*
X210000000Y-60000000D03*
X150000000Y-52500000D03*
X160000000Y-50000000D03*
X97500000Y-45000000D03*
X92500000Y-75000000D03*
X107500000Y-77500000D03*
X190000000Y-70000000D03*
X107500000Y-42500000D03*
X200000000Y-47500000D03*
X140000000Y-65000000D03*
X115000000Y-52500000D03*
X132500000Y-50000000D03*
X202500000Y-62500000D03*
X172500000Y-55000000D03*
X137500000Y-67500000D03*
X130000000Y-47500000D03*
X202500000Y-60000000D03*
X197500000Y-72500000D03*
X195000000Y-50000000D03*
X105000000Y-42500000D03*
X90000000Y-50000000D03*
X117500000Y-77500000D03*
X92500000Y-45000000D03*
X120000000Y-80000000D03*
X185000000Y-42500000D03*
X127500000Y-47500000D03*
X140000000Y-55000000D03*
X180000000Y-50000000D03*
X112500000Y-82500000D03*
X120000000Y-77500000D03*
X137500000Y-47500000D03*
X108598500Y-46660000D03*
X112500000Y-47500000D03*
X182500000Y-47500000D03*
X195000000Y-57500000D03*
X90000000Y-47500000D03*
X100000000Y-55000000D03*
X122500000Y-77500000D03*
X87500000Y-77500000D03*
X120000000Y-65000000D03*
X202500000Y-45000000D03*
X147500000Y-55000000D03*
X115000000Y-67500000D03*
X127500000Y-60000000D03*
X85000000Y-47500000D03*
X135000000Y-62500000D03*
X205000000Y-62500000D03*
X87500000Y-42500000D03*
X112500000Y-80000000D03*
X90000000Y-67500000D03*
X100000000Y-57500000D03*
X87500000Y-82500000D03*
X175000000Y-47500000D03*
X95000000Y-47500000D03*
X117500000Y-52500000D03*
X160000000Y-67500000D03*
X122500000Y-50000000D03*
X125000000Y-60000000D03*
X97500000Y-57500000D03*
X152500000Y-60000000D03*
X110000000Y-42500000D03*
%TO.N,/V_TELEM_IN*%
X151230000Y-63170000D03*
X207910000Y-71880000D03*
X102248500Y-47230000D03*
X200141400Y-66290000D03*
X181640000Y-68960000D03*
%TO.N,/Enable_Block/3p3V*%
X104588500Y-57910000D03*
%TO.N,/Telemetry_Schematic/3p3V*%
X197830000Y-56502500D03*
X190750000Y-79680000D03*
X175120000Y-58810000D03*
%TO.N,Net-(U6B-B_OUT)*%
X176230000Y-59830000D03*
X176230000Y-66850000D03*
%TO.N,/P12V_OUT_*%
X210000000Y-69810000D03*
X167590000Y-67330000D03*
%TO.N,Net-(J10-Pad1)*%
X157290000Y-77300000D03*
%TO.N,Net-(U1-REMOTE)*%
X168720000Y-83110000D03*
%TO.N,/P12V_I_MON*%
X150790000Y-72060000D03*
X85630000Y-64000000D03*
X144320000Y-72060000D03*
X85630000Y-72070000D03*
%TO.N,/P12V_V_MON*%
X112370000Y-65340000D03*
X112370000Y-57300000D03*
%TO.N,/Telemetry_Schematic/TEMP*%
X184354579Y-63542511D03*
%TO.N,/TEMP_MON*%
X150820000Y-69550000D03*
X144340000Y-69560000D03*
%TO.N,Net-(LED1-Pad2)*%
X206100000Y-75910000D03*
%TO.N,Net-(LED1-Pad1)*%
X206100000Y-80200000D03*
%TD*%
D51*
%TO.N,/Main_DCDC_Converter/V_SEC*%
X137620000Y-104885000D02*
X137525000Y-104980000D01*
D52*
X137620000Y-98230000D02*
X137620000Y-104885000D01*
D51*
X149980000Y-81485000D02*
X149980000Y-83860000D01*
X137620000Y-98230000D02*
X137605000Y-98245000D01*
D52*
X150150000Y-104980000D02*
X154980000Y-100150000D01*
D53*
X143120000Y-99282500D02*
X143120000Y-104950000D01*
D52*
X137525000Y-104980000D02*
X143090000Y-104980000D01*
X143090000Y-104980000D02*
X150150000Y-104980000D01*
D51*
X151115000Y-81485000D02*
X151120000Y-81490000D01*
X149980000Y-81485000D02*
X151115000Y-81485000D01*
X143120000Y-104950000D02*
X143090000Y-104980000D01*
X149980000Y-83860000D02*
X149990000Y-83870000D01*
D52*
%TO.N,Net-(U1--VIN)*%
X137620000Y-95155000D02*
X137620000Y-87385000D01*
D51*
X137620000Y-88245000D02*
X137605000Y-88230000D01*
X143110000Y-87340000D02*
X143060000Y-87290000D01*
D52*
X147220000Y-87290000D02*
X154980000Y-95050000D01*
D51*
X137620000Y-87385000D02*
X137525000Y-87290000D01*
D52*
X137525000Y-87290000D02*
X143060000Y-87290000D01*
X143060000Y-87290000D02*
X147220000Y-87290000D01*
D53*
X143110000Y-90055000D02*
X143110000Y-87340000D01*
D52*
%TO.N,/P12V_OUT*%
X183520000Y-104640000D02*
X183520000Y-102310000D01*
D51*
X195586600Y-98270000D02*
X195526600Y-98330000D01*
D52*
X186757500Y-100092500D02*
X187340000Y-99510000D01*
X183520000Y-102310000D02*
X183520000Y-100092500D01*
X187340000Y-99510000D02*
X188510000Y-98340000D01*
D51*
X193610000Y-83125000D02*
X192025000Y-83125000D01*
D52*
X183520000Y-100092500D02*
X186757500Y-100092500D01*
X188510000Y-98340000D02*
X195160000Y-98340000D01*
D51*
X195526600Y-95616600D02*
X195526600Y-98330000D01*
X195520000Y-98336600D02*
X195526600Y-98330000D01*
X192025000Y-83125000D02*
X191150000Y-84000000D01*
D52*
X175280000Y-107850000D02*
X180310000Y-107850000D01*
X180310000Y-107850000D02*
X183520000Y-104640000D01*
D51*
X191150000Y-84000000D02*
X191150000Y-91240000D01*
X191150000Y-91240000D02*
X195526600Y-95616600D01*
%TO.N,/P12V_RTN*%
X179870000Y-87440000D02*
X179860000Y-87450000D01*
D52*
X183520000Y-90010000D02*
X183520000Y-95167500D01*
X175280000Y-87450000D02*
X179860000Y-87450000D01*
D51*
X180300000Y-96805000D02*
X180300000Y-96000000D01*
D52*
X179860000Y-87450000D02*
X180960000Y-87450000D01*
D51*
X178315000Y-83250000D02*
X179620000Y-83250000D01*
X179620000Y-83250000D02*
X179870000Y-83500000D01*
X181132500Y-95167500D02*
X183520000Y-95167500D01*
X180300000Y-96000000D02*
X181132500Y-95167500D01*
D52*
X180960000Y-87450000D02*
X183520000Y-90010000D01*
D51*
X179870000Y-83500000D02*
X179870000Y-87440000D01*
D53*
%TO.N,Net-(C8-Pad2)*%
X143120000Y-94357500D02*
X143120000Y-91715000D01*
D51*
X143120000Y-91715000D02*
X143110000Y-91705000D01*
%TO.N,/V_SEC_RTN*%
X118840000Y-85385000D02*
X118840000Y-86870000D01*
X116930000Y-85385000D02*
X116930000Y-86880000D01*
X158114999Y-82135000D02*
X159235000Y-82135000D01*
D52*
X104945000Y-105860000D02*
X99167500Y-105860000D01*
X107790000Y-89710000D02*
X102200000Y-89710000D01*
D51*
X158114999Y-81340000D02*
X158114999Y-82110000D01*
X157789999Y-80145000D02*
X157789999Y-81015000D01*
X176655000Y-80240000D02*
X178360000Y-80240000D01*
X158114999Y-82110000D02*
X158114999Y-82135000D01*
X99167500Y-105860000D02*
X98527500Y-106500000D01*
X146665000Y-76164200D02*
X146670000Y-79410000D01*
X157789999Y-81015000D02*
X158114999Y-81340000D01*
D52*
X115650000Y-94760000D02*
X112840000Y-94760000D01*
X112840000Y-94760000D02*
X107790000Y-89710000D01*
D51*
X118840000Y-86870000D02*
X118830000Y-86880000D01*
X159235000Y-82135000D02*
X159260000Y-82110000D01*
X146670000Y-79410000D02*
X146665000Y-79405000D01*
X178360000Y-80240000D02*
X178380000Y-80220000D01*
%TO.N,Net-(C10-Pad1)*%
X109885000Y-105845000D02*
X109870000Y-105860000D01*
D52*
X109870000Y-105860000D02*
X109870000Y-100332500D01*
D51*
%TO.N,GNDPWR*%
X176765000Y-83250000D02*
X175355000Y-83250000D01*
%TO.N,/V_TELEM_RTN*%
X165911200Y-63110000D02*
X165906200Y-63115000D01*
X189701400Y-60722500D02*
X190671400Y-59752500D01*
X110188500Y-54120000D02*
X111068500Y-55000000D01*
X116930000Y-83835000D02*
X116930000Y-82030000D01*
X145835000Y-62840000D02*
X144620000Y-62840000D01*
X199765000Y-80585000D02*
X200420000Y-81240000D01*
X106851000Y-46660000D02*
X108598500Y-46660000D01*
X199805000Y-81855000D02*
X200420000Y-81240000D01*
X91590000Y-58436200D02*
X91590000Y-56541900D01*
X193610000Y-81855000D02*
X192295000Y-81855000D01*
X111948500Y-53105000D02*
X111948500Y-54120000D01*
X193741400Y-67552500D02*
X193731400Y-67562500D01*
D54*
X200501400Y-55012500D02*
X202471400Y-55012500D01*
D51*
X191591400Y-60672500D02*
X190671400Y-59752500D01*
X91635400Y-56496500D02*
X90553500Y-56496500D01*
X164626200Y-67330000D02*
X163220000Y-67330000D01*
X191360000Y-82190000D02*
X190750000Y-82800000D01*
X198550000Y-81855000D02*
X199805000Y-81855000D01*
X192140000Y-81700000D02*
X191360000Y-81700000D01*
X118840000Y-83735000D02*
X118840000Y-82040000D01*
X177180000Y-58810000D02*
X178200000Y-58810000D01*
X110188500Y-53135000D02*
X110188500Y-54120000D01*
X174195000Y-69570000D02*
X175510000Y-69570000D01*
X90553500Y-56496500D02*
X90550000Y-56500000D01*
X109190000Y-59510000D02*
X109220000Y-59540000D01*
X181490000Y-65195000D02*
X181490000Y-66370000D01*
X145835000Y-63715000D02*
X145835000Y-62840000D01*
X191591400Y-61497500D02*
X191591400Y-60672500D01*
X195343900Y-67552500D02*
X193741400Y-67552500D01*
X178200000Y-58810000D02*
X178210000Y-58800000D01*
X198550000Y-80585000D02*
X199765000Y-80585000D01*
X189925000Y-75370000D02*
X191450000Y-75370000D01*
X91590000Y-56541900D02*
X91635400Y-56496500D01*
X167942400Y-63110000D02*
X165911200Y-63110000D01*
X111948500Y-54120000D02*
X111068500Y-55000000D01*
X191360000Y-81700000D02*
X191360000Y-82190000D01*
X146160002Y-64040002D02*
X145835000Y-63715000D01*
X146160002Y-64830000D02*
X146160002Y-64040002D01*
X192295000Y-81855000D02*
X192140000Y-81700000D01*
X189701400Y-61542500D02*
X189701400Y-60722500D01*
X165531200Y-55545000D02*
X166926200Y-55545000D01*
X163220000Y-67330000D02*
X163210000Y-67340000D01*
X107280000Y-59510000D02*
X109190000Y-59510000D01*
%TO.N,/V_TELEM_IN*%
X200141400Y-67102500D02*
X199691400Y-67552500D01*
X200141400Y-66290000D02*
X200141400Y-67102500D01*
D55*
X102257100Y-49497500D02*
X102248500Y-47230000D01*
X102248500Y-46890000D02*
X102478500Y-46660000D01*
D51*
X200141400Y-66290000D02*
X200141400Y-64922500D01*
D55*
X102478500Y-46660000D02*
X104151000Y-46660000D01*
X102248500Y-47230000D02*
X102257100Y-47231400D01*
D51*
X199691400Y-67552500D02*
X198043900Y-67552500D01*
X151230000Y-64755000D02*
X151230000Y-63170000D01*
D55*
X102248500Y-47230000D02*
X102248500Y-46890000D01*
D51*
%TO.N,Net-(U2-SET)*%
X110188500Y-51485000D02*
X111878500Y-51485000D01*
X111878500Y-51485000D02*
X111948500Y-51555000D01*
X110188500Y-50000000D02*
X110188500Y-51485000D01*
X110188500Y-50000000D02*
X109686000Y-49497500D01*
X109686000Y-49497500D02*
X106879900Y-49497500D01*
X110188500Y-49990000D02*
X110188500Y-50000000D01*
D55*
%TO.N,/Enable_Block/3p3V*%
X104588500Y-57910000D02*
X104588500Y-59820000D01*
D51*
X104588500Y-59820000D02*
X104558500Y-59850000D01*
D55*
X104568500Y-49497500D02*
X104568500Y-56490000D01*
X104568500Y-56490000D02*
X104568500Y-57890000D01*
D51*
X92601900Y-56490000D02*
X92595400Y-56496500D01*
X92540001Y-58436200D02*
X92540001Y-56551899D01*
X104568500Y-56490000D02*
X92601900Y-56490000D01*
X104568500Y-57890000D02*
X104588500Y-57910000D01*
X92540001Y-56551899D02*
X92595400Y-56496500D01*
%TO.N,/Telemetry_Schematic/3p3V*%
X192415000Y-80585000D02*
X192260000Y-80740000D01*
X191360000Y-80740000D02*
X191360000Y-80290000D01*
X193610000Y-80585000D02*
X192415000Y-80585000D01*
X174630000Y-59300000D02*
X175120000Y-58810000D01*
X175120000Y-58810000D02*
X176220000Y-58810000D01*
D53*
X197830000Y-64922500D02*
X197830000Y-57930000D01*
D51*
X192260000Y-80740000D02*
X191360000Y-80740000D01*
D53*
X197830000Y-57930000D02*
X197830000Y-56502500D01*
D51*
X191360000Y-80290000D02*
X190750000Y-79680000D01*
X172870000Y-59300000D02*
X174630000Y-59300000D01*
D53*
X197830000Y-55041100D02*
X197801400Y-55012500D01*
X197830000Y-56502500D02*
X197830000Y-55041100D01*
D51*
%TO.N,Net-(U4-SET)*%
X191591400Y-63802500D02*
X191591400Y-63147500D01*
X195518600Y-64922500D02*
X192711400Y-64922500D01*
X192711400Y-64922500D02*
X191591400Y-63802500D01*
X191591400Y-63147500D02*
X189756400Y-63147500D01*
X189756400Y-63147500D02*
X189701400Y-63092500D01*
%TO.N,Net-(C20-Pad2)*%
X188375000Y-75370000D02*
X188375000Y-73280000D01*
X188315000Y-75430000D02*
X188375000Y-75370000D01*
X188315000Y-77220000D02*
X188315000Y-75430000D01*
%TO.N,Net-(U6A-A_OUT)*%
X166506200Y-59425000D02*
X164326200Y-59425000D01*
X166631200Y-59300000D02*
X166506200Y-59425000D01*
X165596200Y-59415000D02*
X165596200Y-57320000D01*
X167942400Y-59300000D02*
X166631200Y-59300000D01*
X165596200Y-57320000D02*
X165611200Y-57305000D01*
%TO.N,Net-(U6A--INA)*%
X166366200Y-60385000D02*
X164326200Y-60385000D01*
X166551200Y-60570000D02*
X166366200Y-60385000D01*
X167942400Y-60570000D02*
X166551200Y-60570000D01*
%TO.N,Net-(C23-Pad2)*%
X163961200Y-57305000D02*
X161861200Y-57305000D01*
X163961200Y-55565000D02*
X163981200Y-55545000D01*
X163961200Y-57305000D02*
X163961200Y-55565000D01*
%TO.N,Net-(U6B-B_OUT)*%
X176230000Y-60740000D02*
X176230000Y-59830000D01*
X174070000Y-60570000D02*
X174240000Y-60740000D01*
X174295000Y-67860000D02*
X175610000Y-67860000D01*
X172870000Y-60570000D02*
X174070000Y-60570000D01*
X174240000Y-60740000D02*
X176230000Y-60740000D01*
X175610000Y-67860000D02*
X176230000Y-67240000D01*
X176230000Y-67240000D02*
X176230000Y-66850000D01*
%TO.N,Net-(U6B--INB)*%
X174150000Y-61700000D02*
X176230000Y-61700000D01*
X174010000Y-61840000D02*
X174150000Y-61700000D01*
X172870000Y-61840000D02*
X174010000Y-61840000D01*
%TO.N,Net-(C25-Pad2)*%
X170575000Y-69570000D02*
X170555000Y-69550000D01*
X172645000Y-69570000D02*
X170575000Y-69570000D01*
X172645000Y-69570000D02*
X172645000Y-67860000D01*
D52*
%TO.N,/V_SEC_IN*%
X80080000Y-94920000D02*
X81000000Y-94000000D01*
X91520000Y-98520000D02*
X97762300Y-98520000D01*
X81000000Y-94000000D02*
X87000000Y-94000000D01*
X87000000Y-94000000D02*
X91520000Y-98520000D01*
X80080000Y-106565000D02*
X80080000Y-94920000D01*
%TO.N,Net-(F1-Pad2)*%
X109557500Y-98517500D02*
X104140200Y-98517500D01*
D51*
X104140200Y-98517500D02*
X104137700Y-98520000D01*
D52*
X115592500Y-98517500D02*
X115650000Y-98460000D01*
X109557500Y-98517500D02*
X115592500Y-98517500D01*
D51*
%TO.N,/P12V_OUT_*%
X196593400Y-95666600D02*
X196593400Y-98330000D01*
X196590000Y-98333400D02*
X196593400Y-98330000D01*
X200465000Y-83125000D02*
X201240000Y-83900000D01*
X201240000Y-91020000D02*
X196593400Y-95666600D01*
D52*
X209360000Y-98310000D02*
X196940000Y-98310000D01*
D51*
X166346200Y-67330000D02*
X167590000Y-67330000D01*
X201240000Y-83900000D02*
X201240000Y-91020000D01*
X198550000Y-83125000D02*
X200465000Y-83125000D01*
%TO.N,Net-(J10-Pad3)*%
X175005000Y-80240000D02*
X171270000Y-80240000D01*
%TO.N,Net-(J10-Pad1)*%
X157290000Y-77300000D02*
X157290000Y-78795000D01*
X163430000Y-80240000D02*
X166190000Y-80240000D01*
X157290000Y-77300000D02*
X160490000Y-77300000D01*
X160490000Y-77300000D02*
X163430000Y-80240000D01*
%TO.N,Net-(U1-REMOTE)*%
X168730000Y-80240000D02*
X168730000Y-83100000D01*
X168730000Y-83100000D02*
X168720000Y-83110000D01*
D52*
%TO.N,Net-(L2-Pad1)*%
X128250000Y-94760000D02*
X131410000Y-94760000D01*
X131410000Y-94760000D02*
X133325000Y-92845000D01*
X133325000Y-92845000D02*
X133325000Y-87290000D01*
%TO.N,Net-(L1-Pad1)*%
X128250000Y-98460000D02*
X131500000Y-98460000D01*
X131500000Y-98460000D02*
X133325000Y-100285000D01*
X133325000Y-100285000D02*
X133325000Y-104980000D01*
D51*
%TO.N,Net-(M1-Pad1)*%
X149980000Y-79835000D02*
X151405000Y-79835000D01*
X148725000Y-79835000D02*
X147935000Y-79045000D01*
X147935000Y-79045000D02*
X147935000Y-76164200D01*
X149980000Y-79835000D02*
X148725000Y-79835000D01*
X153705000Y-82135000D02*
X156464999Y-82135000D01*
X151405000Y-79835000D02*
X153705000Y-82135000D01*
X156464999Y-81330000D02*
X156464999Y-82135000D01*
X156790001Y-80145000D02*
X156790001Y-81004998D01*
X156790001Y-81004998D02*
X156464999Y-81330000D01*
%TO.N,Net-(M2-Pad3)*%
X146660001Y-69910801D02*
X146665000Y-69915800D01*
D54*
X146660001Y-66180000D02*
X146660001Y-69910801D01*
D51*
%TO.N,Net-(M2-Pad1)*%
X147485000Y-60870000D02*
X147495000Y-60860000D01*
X147485000Y-63765000D02*
X147485000Y-62840000D01*
X147485000Y-62840000D02*
X147485000Y-60870000D01*
X147160000Y-64830000D02*
X147160000Y-64090000D01*
X147160000Y-64090000D02*
X147485000Y-63765000D01*
D54*
%TO.N,Net-(Q1-Pad1)*%
X147935000Y-67905000D02*
X149430000Y-66410000D01*
X151225000Y-66410000D02*
X151230000Y-66405000D01*
X149430000Y-66410000D02*
X151225000Y-66410000D01*
X147935000Y-69915800D02*
X147935000Y-67905000D01*
D51*
%TO.N,/Main_DCDC_Converter/TRIM*%
X180300000Y-98455000D02*
X176085000Y-98455000D01*
X176085000Y-98455000D02*
X175280000Y-97650000D01*
%TO.N,/Enable_SIG*%
X92540001Y-60823800D02*
X92540001Y-62470001D01*
X129050000Y-63140000D02*
X131330000Y-60860000D01*
X92540001Y-62470001D02*
X93210000Y-63140000D01*
X93210000Y-63140000D02*
X129050000Y-63140000D01*
X131330000Y-60860000D02*
X145845000Y-60860000D01*
%TO.N,Net-(U5-OUT)*%
X192060000Y-79315000D02*
X189965000Y-77220000D01*
X193610000Y-79315000D02*
X192060000Y-79315000D01*
%TO.N,/P12V_I_MON*%
X180480000Y-72060000D02*
X150790000Y-72060000D01*
X85640000Y-72060000D02*
X85630000Y-72070000D01*
X186725000Y-73280000D02*
X183200000Y-73280000D01*
X183200000Y-73280000D02*
X181980000Y-72060000D01*
X85630000Y-64000000D02*
X82920000Y-64000000D01*
X181980000Y-72060000D02*
X180480000Y-72060000D01*
X144320000Y-72060000D02*
X85640000Y-72060000D01*
%TO.N,Net-(U6A-+INA)*%
X164616200Y-65695000D02*
X166336200Y-65695000D01*
X164616200Y-62565000D02*
X164616200Y-65695000D01*
X164616200Y-62565000D02*
X165341200Y-61840000D01*
X165341200Y-61840000D02*
X167942400Y-61840000D01*
%TO.N,/P12V_V_MON*%
X112375000Y-57305000D02*
X112370000Y-57300000D01*
X160211200Y-57305000D02*
X112375000Y-57305000D01*
X80080000Y-65385000D02*
X112325000Y-65385000D01*
%TO.N,/Telemetry_Schematic/TEMP*%
X181490000Y-63545000D02*
X181495000Y-63540000D01*
X184352068Y-63540000D02*
X184354579Y-63542511D01*
X181490000Y-63545000D02*
X179250000Y-63545000D01*
X179250000Y-63545000D02*
X179215000Y-63510000D01*
X181495000Y-63540000D02*
X184352068Y-63540000D01*
%TO.N,Net-(U6B-+INB)*%
X175340000Y-63110000D02*
X172870000Y-63110000D01*
X177565000Y-63510000D02*
X175740000Y-63510000D01*
X175740000Y-63510000D02*
X175340000Y-63110000D01*
%TO.N,/TEMP_MON*%
X150820000Y-69550000D02*
X150830000Y-69550000D01*
X82940000Y-69560000D02*
X82920000Y-69540000D01*
X144340000Y-69560000D02*
X82940000Y-69560000D01*
X168905000Y-69550000D02*
X150820000Y-69550000D01*
%TO.N,/ENABLE-*%
X82920000Y-58460000D02*
X83025000Y-58460000D01*
X90410001Y-59419999D02*
X90639999Y-59190001D01*
X83050000Y-58485000D02*
X82745000Y-58485000D01*
X83025000Y-58460000D02*
X83050000Y-58485000D01*
X83720000Y-58485000D02*
X84654999Y-59419999D01*
X83720000Y-58485000D02*
X83050000Y-58485000D01*
X84654999Y-59419999D02*
X90410001Y-59419999D01*
X90639999Y-59190001D02*
X90639999Y-58436200D01*
X82745000Y-58485000D02*
X82720000Y-58460000D01*
%TO.N,/ENABLE+*%
X81145000Y-59845000D02*
X81170000Y-59870000D01*
X81170000Y-59870000D02*
X90390000Y-59870000D01*
X90390000Y-59870000D02*
X90639999Y-60119999D01*
X80880000Y-59870000D02*
X80855000Y-59845000D01*
X80080000Y-59845000D02*
X81145000Y-59845000D01*
X80880000Y-59870000D02*
X81170000Y-59870000D01*
X90639999Y-60119999D02*
X90639999Y-60823800D01*
%TO.N,Net-(LED1-Pad2)*%
X206100000Y-77251350D02*
X206100000Y-75910000D01*
%TO.N,Net-(LED1-Pad1)*%
X206100000Y-78508650D02*
X206100000Y-80200000D01*
%TD*%
%TA.AperFunction,Conductor*%
%TO.N,/V_SEC_RTN*%
G36*
X104643039Y-87729685D02*
G01*
X104688794Y-87782489D01*
X104700000Y-87834000D01*
X104700000Y-91586000D01*
X104680315Y-91653039D01*
X104627511Y-91698794D01*
X104576000Y-91710000D01*
X101574000Y-91710000D01*
X101506961Y-91690315D01*
X101461206Y-91637511D01*
X101450000Y-91586000D01*
X101450000Y-87834000D01*
X101469685Y-87766961D01*
X101522489Y-87721206D01*
X101574000Y-87710000D01*
X104576000Y-87710000D01*
X104643039Y-87729685D01*
G37*
%TD.AperFunction*%
%TD*%
%TA.AperFunction,Conductor*%
%TO.N,/V_SEC_RTN*%
G36*
X102220539Y-104269685D02*
G01*
X102266294Y-104322489D01*
X102277500Y-104374000D01*
X102277500Y-107126000D01*
X102257815Y-107193039D01*
X102205011Y-107238794D01*
X102153500Y-107250000D01*
X97901500Y-107250000D01*
X97834461Y-107230315D01*
X97788706Y-107177511D01*
X97777500Y-107126000D01*
X97777500Y-104374000D01*
X97797185Y-104306961D01*
X97849989Y-104261206D01*
X97901500Y-104250000D01*
X102153500Y-104250000D01*
X102220539Y-104269685D01*
G37*
%TD.AperFunction*%
%TD*%
M02*
