%TF.GenerationSoftware,KiCad,Pcbnew,8.0.6*%
%TF.CreationDate,2025-05-19T10:35:06-04:00*%
%TF.ProjectId,CAEN_NEVIS_DAQ_12V,4341454e-5f4e-4455-9649-535f4441515f,rev?*%
%TF.SameCoordinates,Original*%
%TF.FileFunction,Soldermask,Top*%
%TF.FilePolarity,Negative*%
%FSLAX46Y46*%
G04 Gerber Fmt 4.6, Leading zero omitted, Abs format (unit mm)*
G04 Created by KiCad (PCBNEW 8.0.6) date 2025-05-19 10:35:06*
%MOMM*%
%LPD*%
G01*
G04 APERTURE LIST*
G04 Aperture macros list*
%AMRoundRect*
0 Rectangle with rounded corners*
0 $1 Rounding radius*
0 $2 $3 $4 $5 $6 $7 $8 $9 X,Y pos of 4 corners*
0 Add a 4 corners polygon primitive as box body*
4,1,4,$2,$3,$4,$5,$6,$7,$8,$9,$2,$3,0*
0 Add four circle primitives for the rounded corners*
1,1,$1+$1,$2,$3*
1,1,$1+$1,$4,$5*
1,1,$1+$1,$6,$7*
1,1,$1+$1,$8,$9*
0 Add four rect primitives between the rounded corners*
20,1,$1+$1,$2,$3,$4,$5,0*
20,1,$1+$1,$4,$5,$6,$7,0*
20,1,$1+$1,$6,$7,$8,$9,0*
20,1,$1+$1,$8,$9,$2,$3,0*%
G04 Aperture macros list end*
%ADD10RoundRect,0.200000X-0.275000X0.200000X-0.275000X-0.200000X0.275000X-0.200000X0.275000X0.200000X0*%
%ADD11RoundRect,0.250000X-0.450000X-0.425000X0.450000X-0.425000X0.450000X0.425000X-0.450000X0.425000X0*%
%ADD12R,0.889000X1.016000*%
%ADD13R,3.200000X1.000000*%
%ADD14RoundRect,0.200000X0.200000X0.275000X-0.200000X0.275000X-0.200000X-0.275000X0.200000X-0.275000X0*%
%ADD15C,1.764000*%
%ADD16C,4.420000*%
%ADD17RoundRect,0.250000X0.925000X-0.787500X0.925000X0.787500X-0.925000X0.787500X-0.925000X-0.787500X0*%
%ADD18RoundRect,0.200000X0.275000X-0.200000X0.275000X0.200000X-0.275000X0.200000X-0.275000X-0.200000X0*%
%ADD19RoundRect,0.225000X0.250000X-0.225000X0.250000X0.225000X-0.250000X0.225000X-0.250000X-0.225000X0*%
%ADD20RoundRect,0.225000X0.225000X0.250000X-0.225000X0.250000X-0.225000X-0.250000X0.225000X-0.250000X0*%
%ADD21C,6.400000*%
%ADD22C,1.854000*%
%ADD23R,0.558800X1.473200*%
%ADD24R,4.241800X3.810000*%
%ADD25C,2.006600*%
%ADD26C,2.209800*%
%ADD27RoundRect,0.250000X0.450000X0.425000X-0.450000X0.425000X-0.450000X-0.425000X0.450000X-0.425000X0*%
%ADD28R,0.350800X1.161200*%
%ADD29RoundRect,0.225000X-0.250000X0.225000X-0.250000X-0.225000X0.250000X-0.225000X0.250000X0.225000X0*%
%ADD30R,0.584200X2.159000*%
%ADD31R,0.558800X1.651000*%
%ADD32RoundRect,0.140000X-0.170000X0.140000X-0.170000X-0.140000X0.170000X-0.140000X0.170000X0.140000X0*%
%ADD33RoundRect,0.250000X0.450000X-0.262500X0.450000X0.262500X-0.450000X0.262500X-0.450000X-0.262500X0*%
%ADD34RoundRect,0.140000X-0.140000X-0.170000X0.140000X-0.170000X0.140000X0.170000X-0.140000X0.170000X0*%
%ADD35RoundRect,0.225000X-0.225000X-0.250000X0.225000X-0.250000X0.225000X0.250000X-0.225000X0.250000X0*%
%ADD36RoundRect,0.140000X0.170000X-0.140000X0.170000X0.140000X-0.170000X0.140000X-0.170000X-0.140000X0*%
%ADD37RoundRect,0.100500X0.986500X0.301500X-0.986500X0.301500X-0.986500X-0.301500X0.986500X-0.301500X0*%
%ADD38R,1.981200X0.558800*%
%ADD39RoundRect,0.200000X-0.200000X-0.275000X0.200000X-0.275000X0.200000X0.275000X-0.200000X0.275000X0*%
%ADD40RoundRect,0.102000X1.000000X-1.000000X1.000000X1.000000X-1.000000X1.000000X-1.000000X-1.000000X0*%
%ADD41C,2.204000*%
%ADD42RoundRect,0.500000X-0.500000X-2.800000X0.500000X-2.800000X0.500000X2.800000X-0.500000X2.800000X0*%
%ADD43RoundRect,0.250000X0.787500X0.925000X-0.787500X0.925000X-0.787500X-0.925000X0.787500X-0.925000X0*%
%ADD44RoundRect,0.135000X0.185000X-0.135000X0.185000X0.135000X-0.185000X0.135000X-0.185000X-0.135000X0*%
%ADD45C,1.839000*%
%ADD46RoundRect,0.250000X0.925000X-0.412500X0.925000X0.412500X-0.925000X0.412500X-0.925000X-0.412500X0*%
%ADD47RoundRect,0.475000X1.125000X-0.475000X1.125000X0.475000X-1.125000X0.475000X-1.125000X-0.475000X0*%
%ADD48C,2.304000*%
%ADD49R,0.711200X0.444500*%
G04 APERTURE END LIST*
D10*
%TO.C,R2*%
X143110000Y-90055000D03*
X143110000Y-91705000D03*
%TD*%
D11*
%TO.C,C14*%
X104580000Y-59510000D03*
X107280000Y-59510000D03*
%TD*%
D12*
%TO.C,U4*%
X195518600Y-64922500D03*
X197830000Y-64922500D03*
X200141400Y-64922500D03*
D13*
X197830000Y-57930000D03*
%TD*%
D14*
%TO.C,R23*%
X179215000Y-63510000D03*
X177565000Y-63510000D03*
%TD*%
%TO.C,R26*%
X170555000Y-69550000D03*
X168905000Y-69550000D03*
%TD*%
%TO.C,R8*%
X147485000Y-62840000D03*
X145835000Y-62840000D03*
%TD*%
D11*
%TO.C,C12*%
X104151000Y-46660000D03*
X106851000Y-46660000D03*
%TD*%
D15*
%TO.C,J1*%
X82920000Y-96870000D03*
X82920000Y-99640000D03*
X82920000Y-102410000D03*
X82920000Y-105180000D03*
X82920000Y-107950000D03*
X80080000Y-98255000D03*
X80080000Y-101025000D03*
X80080000Y-103795000D03*
X80080000Y-106565000D03*
D16*
X81500000Y-89910000D03*
X81500000Y-114910000D03*
%TD*%
D17*
%TO.C,C8*%
X143120000Y-99282500D03*
X143120000Y-94357500D03*
%TD*%
D14*
%TO.C,R9*%
X176655000Y-80240000D03*
X175005000Y-80240000D03*
%TD*%
D18*
%TO.C,R18*%
X164626200Y-67330000D03*
X164626200Y-65680000D03*
%TD*%
D14*
%TO.C,R15*%
X189965000Y-77220000D03*
X188315000Y-77220000D03*
%TD*%
D19*
%TO.C,C13*%
X111948500Y-53105000D03*
X111948500Y-51555000D03*
%TD*%
D14*
%TO.C,R21*%
X161861200Y-57305000D03*
X160211200Y-57305000D03*
%TD*%
D20*
%TO.C,C20*%
X189925000Y-75370000D03*
X188375000Y-75370000D03*
%TD*%
D21*
%TO.C,H4*%
X207000000Y-123000000D03*
%TD*%
D22*
%TO.C,J10*%
X166190000Y-80240000D03*
X168730000Y-80240000D03*
X171270000Y-80240000D03*
%TD*%
D23*
%TO.C,U3*%
X92540001Y-58436200D03*
X91590000Y-58436200D03*
X90639999Y-58436200D03*
X90639999Y-60823800D03*
X92540001Y-60823800D03*
%TD*%
D14*
%TO.C,R16*%
X188375000Y-73280000D03*
X186725000Y-73280000D03*
%TD*%
D24*
%TO.C,F1*%
X97762300Y-98520000D03*
X104137700Y-98520000D03*
%TD*%
D25*
%TO.C,J4*%
X209360000Y-98310000D03*
D26*
X211900000Y-95770000D03*
X206820000Y-95770000D03*
X206820000Y-100850000D03*
X211900000Y-100850000D03*
%TD*%
D21*
%TO.C,H3*%
X79000000Y-123000000D03*
%TD*%
D27*
%TO.C,C16*%
X198043900Y-67552500D03*
X195343900Y-67552500D03*
%TD*%
D28*
%TO.C,M2*%
X147160000Y-64830000D03*
X146160002Y-64830000D03*
X146660001Y-66180000D03*
%TD*%
D14*
%TO.C,R25*%
X174295000Y-67860000D03*
X172645000Y-67860000D03*
%TD*%
D18*
%TO.C,R30*%
X118840000Y-85385000D03*
X118840000Y-83735000D03*
%TD*%
D20*
%TO.C,C23*%
X165531200Y-55545000D03*
X163981200Y-55545000D03*
%TD*%
D29*
%TO.C,C18*%
X189701400Y-61542500D03*
X189701400Y-63092500D03*
%TD*%
D14*
%TO.C,R7*%
X147495000Y-60860000D03*
X145845000Y-60860000D03*
%TD*%
D30*
%TO.C,R14*%
X195526600Y-98330000D03*
X196593400Y-98330000D03*
%TD*%
D11*
%TO.C,C17*%
X197801400Y-55012500D03*
X200501400Y-55012500D03*
%TD*%
D31*
%TO.C,Q1*%
X147935000Y-69915800D03*
X146665000Y-69915800D03*
X146665000Y-76164200D03*
X147935000Y-76164200D03*
%TD*%
D18*
%TO.C,R1*%
X180300000Y-98455000D03*
X180300000Y-96805000D03*
%TD*%
D32*
%TO.C,C19*%
X191360000Y-80740000D03*
X191360000Y-81700000D03*
%TD*%
D33*
%TO.C,R10*%
X109870000Y-100332500D03*
X109870000Y-98507500D03*
%TD*%
D12*
%TO.C,U2*%
X106879900Y-49497500D03*
X104568500Y-49497500D03*
X102257100Y-49497500D03*
D13*
X104568500Y-56490000D03*
%TD*%
D34*
%TO.C,C21*%
X176220000Y-58810000D03*
X177180000Y-58810000D03*
%TD*%
D35*
%TO.C,C11*%
X176765000Y-83250000D03*
X178315000Y-83250000D03*
%TD*%
D36*
%TO.C,C24*%
X176230000Y-61700000D03*
X176230000Y-60740000D03*
%TD*%
D37*
%TO.C,U5*%
X198550000Y-83125000D03*
X198550000Y-81855000D03*
X198550000Y-80585000D03*
X198550000Y-79315000D03*
X193610000Y-79315000D03*
X193610000Y-80585000D03*
X193610000Y-81855000D03*
X193610000Y-83125000D03*
%TD*%
D10*
%TO.C,R19*%
X166346200Y-65680000D03*
X166346200Y-67330000D03*
%TD*%
D17*
%TO.C,C7*%
X183520000Y-100092500D03*
X183520000Y-95167500D03*
%TD*%
D20*
%TO.C,C25*%
X174195000Y-69570000D03*
X172645000Y-69570000D03*
%TD*%
D10*
%TO.C,R13*%
X191591400Y-61497500D03*
X191591400Y-63147500D03*
%TD*%
D38*
%TO.C,U6*%
X167942400Y-59300000D03*
X167942400Y-60570000D03*
X167942400Y-61840000D03*
X167942400Y-63110000D03*
X172870000Y-63110000D03*
X172870000Y-61840000D03*
X172870000Y-60570000D03*
X172870000Y-59300000D03*
%TD*%
D28*
%TO.C,M1*%
X156790001Y-80145000D03*
X157789999Y-80145000D03*
X157290000Y-78795000D03*
%TD*%
D39*
%TO.C,R6*%
X156464999Y-82135000D03*
X158114999Y-82135000D03*
%TD*%
D40*
%TO.C,U1*%
X154980000Y-100150000D03*
D41*
X154980000Y-95050000D03*
X175280000Y-107850000D03*
X175280000Y-97650000D03*
X175280000Y-87450000D03*
X154980000Y-87450000D03*
%TD*%
D42*
%TO.C,L2*%
X133325000Y-87290000D03*
X137525000Y-87290000D03*
%TD*%
D18*
%TO.C,R4*%
X149980000Y-81485000D03*
X149980000Y-79835000D03*
%TD*%
D36*
%TO.C,C22*%
X164326200Y-60385000D03*
X164326200Y-59425000D03*
%TD*%
D43*
%TO.C,C10*%
X109870000Y-105860000D03*
X104945000Y-105860000D03*
%TD*%
D21*
%TO.C,H1*%
X79000000Y-44000000D03*
%TD*%
D14*
%TO.C,R20*%
X165611200Y-57305000D03*
X163961200Y-57305000D03*
%TD*%
D29*
%TO.C,C26*%
X116930000Y-83835000D03*
X116930000Y-85385000D03*
%TD*%
D21*
%TO.C,H2*%
X207000000Y-44000000D03*
%TD*%
D44*
%TO.C,R24*%
X175020000Y-61720000D03*
X175020000Y-60700000D03*
%TD*%
D45*
%TO.C,J2*%
X82920000Y-69540000D03*
X82920000Y-66770000D03*
X82920000Y-64000000D03*
X82920000Y-61230000D03*
X82920000Y-58460000D03*
X80080000Y-68155000D03*
X80080000Y-65385000D03*
X80080000Y-62615000D03*
X80080000Y-59845000D03*
D16*
X81500000Y-51500000D03*
X81500000Y-76500000D03*
%TD*%
D18*
%TO.C,R12*%
X110188500Y-53135000D03*
X110188500Y-51485000D03*
%TD*%
D44*
%TO.C,R17*%
X165596200Y-60435000D03*
X165596200Y-59415000D03*
%TD*%
D42*
%TO.C,L1*%
X133325000Y-104980000D03*
X137525000Y-104980000D03*
%TD*%
D46*
%TO.C,C9*%
X137620000Y-98230000D03*
X137620000Y-95155000D03*
%TD*%
D47*
%TO.C,L3*%
X128250000Y-94760000D03*
X128250000Y-98460000D03*
X115650000Y-98460000D03*
X115650000Y-94760000D03*
%TD*%
D34*
%TO.C,C15*%
X91635400Y-56496500D03*
X92595400Y-56496500D03*
%TD*%
D48*
%TO.C,J3*%
X149890000Y-47150000D03*
X146080000Y-47150000D03*
X142270000Y-47150000D03*
%TD*%
D49*
%TO.C,LED*%
X206100000Y-78508650D03*
X206100000Y-77251350D03*
%TD*%
D18*
%TO.C,R22*%
X181490000Y-65195000D03*
X181490000Y-63545000D03*
%TD*%
D10*
%TO.C,R5*%
X151230000Y-64755000D03*
X151230000Y-66405000D03*
%TD*%
M02*
