%TF.GenerationSoftware,KiCad,Pcbnew,9.0.3*%
%TF.CreationDate,2025-09-16T13:25:54-04:00*%
%TF.ProjectId,CAEN_NEVIS_DAQ_3p3V,4341454e-5f4e-4455-9649-535f4441515f,rev?*%
%TF.SameCoordinates,Original*%
%TF.FileFunction,Component,L1,Top*%
%TF.FilePolarity,Positive*%
%FSLAX46Y46*%
G04 Gerber Fmt 4.6, Leading zero omitted, Abs format (unit mm)*
G04 Created by KiCad (PCBNEW 9.0.3) date 2025-09-16 13:25:54*
%MOMM*%
%LPD*%
G01*
G04 APERTURE LIST*
%TA.AperFunction,ComponentMain*%
%ADD10C,0.300000*%
%TD*%
%TA.AperFunction,ComponentOutline,Courtyard*%
%ADD11C,0.100000*%
%TD*%
%TA.AperFunction,ComponentPin*%
%ADD12P,0.360000X4X0.000000*%
%TD*%
%TA.AperFunction,ComponentPin*%
%ADD13C,0.100000*%
%TD*%
%TA.AperFunction,ComponentOutline,Footprint*%
%ADD14C,0.100000*%
%TD*%
%TA.AperFunction,Profile*%
%ADD15C,0.050000*%
%TD*%
G04 APERTURE END LIST*
D10*
%TO.C,LED1*%
%TO.CFtp,LED_0AS75000_WRE*%
%TO.CVal,150060GS75000*%
%TO.CLbN,Wurth_Elektronik*%
%TO.CMnt,SMD*%
%TO.CRot,0*%
X129615000Y-50235000D03*
D11*
X130714900Y-49541500D02*
X130714900Y-50928500D01*
X128515100Y-50928500D01*
X128515100Y-49541500D01*
X130714900Y-49541500D01*
D12*
%TO.P,LED1,1*%
X128986350Y-50235000D03*
D13*
%TO.P,LED1,2*%
X130243650Y-50235000D03*
%TD*%
D10*
%TO.C,C1*%
%TO.CFtp,CP_EIA-3528-12_Kemet-T*%
%TO.CVal,100uF*%
%TO.CLbN,Capacitor_Tantalum_SMD*%
%TO.CMnt,SMD*%
%TO.CRot,-90*%
X131400000Y-98225000D03*
D11*
X133045000Y-95780000D02*
X133045000Y-100670000D01*
X129755000Y-100670000D01*
X129755000Y-95780000D01*
X133045000Y-95780000D01*
D12*
%TO.P,C1,1*%
X131400000Y-96687500D03*
D13*
%TO.P,C1,2*%
X131400000Y-99762500D03*
%TD*%
D10*
%TO.C,C23*%
%TO.CFtp,C_0402_1005Metric*%
%TO.CVal,0.1uF*%
%TO.CLbN,Capacitor_SMD*%
%TO.CMnt,SMD*%
%TO.CRot,180*%
X68920000Y-51800000D03*
D11*
X69825000Y-51345000D02*
X69825000Y-52255000D01*
X68015000Y-52255000D01*
X68015000Y-51345000D01*
X69825000Y-51345000D01*
D12*
%TO.P,C23,1*%
X69400000Y-51800000D03*
D13*
%TO.P,C23,2*%
X68440000Y-51800000D03*
%TD*%
D10*
%TO.C,C15*%
%TO.CFtp,C_0603_1608Metric*%
%TO.CVal,1uF*%
%TO.CLbN,Capacitor_SMD*%
%TO.CMnt,SMD*%
%TO.CRot,-90*%
X181910000Y-58590000D03*
D11*
X182635000Y-57115000D02*
X182635000Y-60065000D01*
X181185000Y-60065000D01*
X181185000Y-57115000D01*
X182635000Y-57115000D01*
D12*
%TO.P,C15,1*%
X181910000Y-57815000D03*
D13*
%TO.P,C15,2*%
X181910000Y-59365000D03*
%TD*%
D10*
%TO.C,C16*%
%TO.CFtp,C_0603_1608Metric*%
%TO.CVal,0.1uF*%
%TO.CLbN,Capacitor_SMD*%
%TO.CMnt,SMD*%
%TO.CRot,-90*%
X85045000Y-44788750D03*
D11*
X85770000Y-43313750D02*
X85770000Y-46263750D01*
X84320000Y-46263750D01*
X84320000Y-43313750D01*
X85770000Y-43313750D01*
D12*
%TO.P,C16,1*%
X85045000Y-44013750D03*
D13*
%TO.P,C16,2*%
X85045000Y-45563750D03*
%TD*%
D10*
%TO.C,R14*%
%TO.CFtp,R_0603_1608Metric*%
%TO.CVal,150*%
%TO.CLbN,Resistor_SMD*%
%TO.CMnt,SMD*%
%TO.CRot,180*%
X193010000Y-35650000D03*
D11*
X194485000Y-34925000D02*
X194485000Y-36375000D01*
X191535000Y-36375000D01*
X191535000Y-34925000D01*
X194485000Y-34925000D01*
D12*
%TO.P,R14,1*%
X193835000Y-35650000D03*
D13*
%TO.P,R14,2*%
X192185000Y-35650000D03*
%TD*%
D10*
%TO.C,R12*%
%TO.CFtp,R_0603_1608Metric*%
%TO.CVal,24.9*%
%TO.CLbN,Resistor_SMD*%
%TO.CMnt,SMD*%
%TO.CRot,180*%
X178290000Y-59405000D03*
D11*
X179765000Y-58680000D02*
X179765000Y-60130000D01*
X176815000Y-60130000D01*
X176815000Y-58680000D01*
X179765000Y-58680000D01*
D12*
%TO.P,R12,1*%
X179115000Y-59405000D03*
D13*
%TO.P,R12,2*%
X177465000Y-59405000D03*
%TD*%
D10*
%TO.C,C18*%
%TO.CFtp,C_0402_1005Metric*%
%TO.CVal,0.1uF*%
%TO.CLbN,Capacitor_SMD*%
%TO.CMnt,SMD*%
%TO.CRot,-90*%
X185380000Y-45660000D03*
D11*
X185835000Y-44755000D02*
X185835000Y-46565000D01*
X184925000Y-46565000D01*
X184925000Y-44755000D01*
X185835000Y-44755000D01*
D12*
%TO.P,C18,1*%
X185380000Y-45180000D03*
D13*
%TO.P,C18,2*%
X185380000Y-46140000D03*
%TD*%
D10*
%TO.C,R21*%
%TO.CFtp,R_0402_1005Metric*%
%TO.CVal,10k*%
%TO.CLbN,Resistor_SMD*%
%TO.CMnt,SMD*%
%TO.CRot,-90*%
X175230000Y-44380000D03*
D11*
X175695000Y-43455000D02*
X175695000Y-45305000D01*
X174765000Y-45305000D01*
X174765000Y-43455000D01*
X175695000Y-43455000D01*
D12*
%TO.P,R21,1*%
X175230000Y-43870000D03*
D13*
%TO.P,R21,2*%
X175230000Y-44890000D03*
%TD*%
D10*
%TO.C,C11*%
%TO.CFtp,C_0805_2012Metric*%
%TO.CVal,0.1uF*%
%TO.CLbN,Capacitor_SMD*%
%TO.CMnt,SMD*%
%TO.CRot,90*%
X195750000Y-117500000D03*
D11*
X196725000Y-115805000D02*
X196725000Y-119195000D01*
X194775000Y-119195000D01*
X194775000Y-115805000D01*
X196725000Y-115805000D01*
D12*
%TO.P,C11,1*%
X195750000Y-118450000D03*
D13*
%TO.P,C11,2*%
X195750000Y-116550000D03*
%TD*%
D10*
%TO.C,R16*%
%TO.CFtp,R_0603_1608Metric*%
%TO.CVal,24.9*%
%TO.CLbN,Resistor_SMD*%
%TO.CMnt,SMD*%
%TO.CRot,0*%
X185060000Y-47810000D03*
D11*
X186535000Y-47085000D02*
X186535000Y-48535000D01*
X183585000Y-48535000D01*
X183585000Y-47085000D01*
X186535000Y-47085000D01*
D12*
%TO.P,R16,1*%
X184235000Y-47810000D03*
D13*
%TO.P,R16,2*%
X185885000Y-47810000D03*
%TD*%
D10*
%TO.C,R20*%
%TO.CFtp,R_0603_1608Metric*%
%TO.CVal,100k*%
%TO.CLbN,Resistor_SMD*%
%TO.CMnt,SMD*%
%TO.CRot,90*%
X191550000Y-54160000D03*
D11*
X192275000Y-52685000D02*
X192275000Y-55635000D01*
X190825000Y-55635000D01*
X190825000Y-52685000D01*
X192275000Y-52685000D01*
D12*
%TO.P,R20,1*%
X191550000Y-54985000D03*
D13*
%TO.P,R20,2*%
X191550000Y-53335000D03*
%TD*%
D10*
%TO.C,J3*%
%TO.CFtp,CONN_RF2-49B-T-00-50-G-HDW_ADM*%
%TO.CVal,RF2-49B-T-00-50-G-HDW*%
%TO.CLbN,Adam_Tech*%
%TO.CMnt,TH*%
%TO.CRot,-90*%
X233167999Y-100035000D03*
D11*
X250247431Y-95137800D02*
X250247431Y-104932200D01*
X229042568Y-104932200D01*
X229042568Y-95137800D01*
X250247431Y-95137800D01*
D12*
%TO.P,J3,1,SIGNAL*%
X233167999Y-100035000D03*
D13*
%TO.P,J3,2,GND*%
X235707999Y-97495000D03*
%TO.P,J3,3,GND*%
X230627999Y-97495000D03*
%TO.P,J3,4,GND*%
X230627999Y-102575000D03*
%TO.P,J3,5,GND*%
X235707999Y-102575000D03*
%TD*%
D10*
%TO.C,F1*%
%TO.CFtp,FUSE_0154010.DRL*%
%TO.CVal,0154010.DRL*%
%TO.CLbN,Little_Fuse*%
%TO.CMnt,SMD*%
%TO.CRot,0*%
X72520000Y-105045000D03*
D11*
X78073600Y-102285400D02*
X78073600Y-107804600D01*
X66966400Y-107804600D01*
X66966400Y-102285400D01*
X78073600Y-102285400D01*
D12*
%TO.P,F1,1*%
X69332300Y-105045000D03*
D13*
%TO.P,F1,2*%
X75707700Y-105045000D03*
%TD*%
D10*
%TO.C,C14*%
%TO.CFtp,CP_EIA-7343-15_Kemet-W*%
%TO.CVal,10uF*%
%TO.CLbN,Capacitor_Tantalum_SMD*%
%TO.CMnt,SMD*%
%TO.CRot,0*%
X95430000Y-36243750D03*
D11*
X99825000Y-33848750D02*
X99825000Y-38638750D01*
X91035000Y-38638750D01*
X91035000Y-33848750D01*
X99825000Y-33848750D01*
D12*
%TO.P,C14,1*%
X92317500Y-36243750D03*
D13*
%TO.P,C14,2*%
X98542500Y-36243750D03*
%TD*%
D10*
%TO.C,C19*%
%TO.CFtp,C_0603_1608Metric*%
%TO.CVal,1uF*%
%TO.CLbN,Capacitor_SMD*%
%TO.CMnt,SMD*%
%TO.CRot,0*%
X185070000Y-49590000D03*
D11*
X186545000Y-48865000D02*
X186545000Y-50315000D01*
X183595000Y-50315000D01*
X183595000Y-48865000D01*
X186545000Y-48865000D01*
D12*
%TO.P,C19,1*%
X184295000Y-49590000D03*
D13*
%TO.P,C19,2*%
X185845000Y-49590000D03*
%TD*%
D10*
%TO.C,J1*%
%TO.CFtp,691322310003*%
%TO.CVal,691322310003*%
%TO.CLbN,Wurth_Elektronik*%
%TO.CMnt,TH*%
%TO.CRot,180*%
X108760000Y-30510000D03*
D11*
X115365000Y-22215000D02*
X115365000Y-32005000D01*
X102155000Y-32005000D01*
X102155000Y-22215000D01*
X115365000Y-22215000D01*
D12*
%TO.P,J1,1*%
X112570000Y-30510000D03*
D13*
%TO.P,J1,2*%
X108760000Y-30510000D03*
%TO.P,J1,3*%
X104950000Y-30510000D03*
%TD*%
D10*
%TO.C,J4*%
%TO.CFtp,618009231121*%
%TO.CVal,618009231121*%
%TO.CLbN,Wurth_Elektronik*%
%TO.CMnt,TH*%
%TO.CRot,-90*%
X50680000Y-50550000D03*
D11*
X60175000Y-34855000D02*
X60175000Y-66245000D01*
X47265000Y-66245000D01*
X47265000Y-34855000D01*
X60175000Y-34855000D01*
D12*
%TO.P,J4,1*%
X58400000Y-56090000D03*
D13*
%TO.P,J4,2*%
X58400000Y-53320000D03*
%TO.P,J4,3*%
X58400000Y-50550000D03*
%TO.P,J4,4*%
X58400000Y-47780000D03*
%TO.P,J4,5*%
X58400000Y-45010000D03*
%TO.P,J4,6*%
X55560000Y-54705000D03*
%TO.P,J4,7*%
X55560000Y-51935000D03*
%TO.P,J4,8*%
X55560000Y-49165000D03*
%TO.P,J4,9*%
X55560000Y-46395000D03*
%TO.P,J4,S1*%
X56980000Y-38050000D03*
%TO.P,J4,S2*%
X56980000Y-63050000D03*
%TD*%
D10*
%TO.C,C22*%
%TO.CFtp,C_0402_1005Metric*%
%TO.CVal,1uF*%
%TO.CLbN,Capacitor_SMD*%
%TO.CMnt,SMD*%
%TO.CRot,180*%
X68930000Y-50660000D03*
D11*
X69835000Y-50205000D02*
X69835000Y-51115000D01*
X68025000Y-51115000D01*
X68025000Y-50205000D01*
X69835000Y-50205000D01*
D12*
%TO.P,C22,1*%
X69410000Y-50660000D03*
D13*
%TO.P,C22,2*%
X68450000Y-50660000D03*
%TD*%
D10*
%TO.C,M1*%
%TO.CFtp,SSM_TOS*%
%TO.CVal,SSM3K15AFS_LF*%
%TO.CLbN,Toshiba_Semi*%
%TO.CMnt,SMD*%
%TO.CRot,180*%
X125105000Y-70675000D03*
D11*
X126004000Y-69170401D02*
X126004000Y-70026000D01*
X126154000Y-70026000D01*
X126154000Y-71324000D01*
X125504000Y-71324000D01*
X125504000Y-72179599D01*
X124706000Y-72179599D01*
X124706000Y-71324000D01*
X124056000Y-71324000D01*
X124056000Y-70026000D01*
X124206000Y-70026000D01*
X124206000Y-69170401D01*
X126004000Y-69170401D01*
D12*
%TO.P,M1,1,1*%
X125604999Y-70000000D03*
D13*
%TO.P,M1,2,2*%
X124605001Y-70000000D03*
%TO.P,M1,3,3*%
X125105000Y-71350000D03*
%TD*%
D10*
%TO.C,U2*%
%TO.CFtp,SOT-3_ST_LIT*%
%TO.CVal,LT3080EST-PBF*%
%TO.CLbN,Analog_Devices*%
%TO.CMnt,SMD*%
%TO.CRot,0*%
X92320000Y-44703750D03*
D11*
X94143800Y-40454250D02*
X94143800Y-42600550D01*
X95921800Y-42600550D01*
X95921800Y-46806950D01*
X95299500Y-46806950D01*
X95299500Y-48953250D01*
X89340500Y-48953250D01*
X89340500Y-46806950D01*
X88718200Y-46806950D01*
X88718200Y-42600550D01*
X90496200Y-42600550D01*
X90496200Y-40454250D01*
X94143800Y-40454250D01*
D12*
%TO.P,U2,1,SET*%
X90008600Y-48196250D03*
D13*
%TO.P,U2,2,OUT*%
X92320000Y-48196250D03*
%TO.P,U2,3,IN*%
X94631400Y-48196250D03*
%TO.P,U2,4,TAB*%
X92320000Y-41203750D03*
%TD*%
D10*
%TO.C,R23*%
%TO.CFtp,R_0603_1608Metric*%
%TO.CVal,24.9*%
%TO.CLbN,Resistor_SMD*%
%TO.CMnt,SMD*%
%TO.CRot,180*%
X169570000Y-48180000D03*
D11*
X171045000Y-47455000D02*
X171045000Y-48905000D01*
X168095000Y-48905000D01*
X168095000Y-47455000D01*
X171045000Y-47455000D01*
D12*
%TO.P,R23,1*%
X170395000Y-48180000D03*
D13*
%TO.P,R23,2*%
X168745000Y-48180000D03*
%TD*%
D10*
%TO.C,R25*%
%TO.CFtp,R_0603_1608Metric*%
%TO.CVal,24.9*%
%TO.CLbN,Resistor_SMD*%
%TO.CMnt,SMD*%
%TO.CRot,180*%
X78890000Y-54820000D03*
D11*
X80365000Y-54095000D02*
X80365000Y-55545000D01*
X77415000Y-55545000D01*
X77415000Y-54095000D01*
X80365000Y-54095000D01*
D12*
%TO.P,R25,1*%
X79715000Y-54820000D03*
D13*
%TO.P,R25,2*%
X78065000Y-54820000D03*
%TD*%
D10*
%TO.C,R17*%
%TO.CFtp,R_0603_1608Metric*%
%TO.CVal,24.9*%
%TO.CLbN,Resistor_SMD*%
%TO.CMnt,SMD*%
%TO.CRot,180*%
X185020000Y-51350000D03*
D11*
X186495000Y-50625000D02*
X186495000Y-52075000D01*
X183545000Y-52075000D01*
X183545000Y-50625000D01*
X186495000Y-50625000D01*
D12*
%TO.P,R17,1*%
X185845000Y-51350000D03*
D13*
%TO.P,R17,2*%
X184195000Y-51350000D03*
%TD*%
D10*
%TO.C,3.3V_RTN1*%
%TO.CFtp,TestPoint_Keystone_5005-5009_Compact*%
%TO.CVal,5006*%
%TO.CLbN,TestPoint*%
%TO.CMnt,TH*%
%TO.CRot,0*%
X210000000Y-109000000D03*
D11*
X210142504Y-107007548D02*
X210424610Y-107048108D01*
X210698068Y-107128403D01*
X210957320Y-107246799D01*
X211197080Y-107400884D01*
X211412475Y-107587524D01*
X211599115Y-107802919D01*
X211753200Y-108042679D01*
X211871596Y-108301931D01*
X211951891Y-108575389D01*
X211992458Y-108857542D01*
X211994999Y-109000000D01*
X211992458Y-109142457D01*
X211951891Y-109424610D01*
X211871596Y-109698068D01*
X211753200Y-109957320D01*
X211599115Y-110197080D01*
X211412475Y-110412475D01*
X211197080Y-110599115D01*
X210957320Y-110753200D01*
X210698068Y-110871596D01*
X210424610Y-110951891D01*
X210142504Y-110992452D01*
X209857496Y-110992452D01*
X209575389Y-110951891D01*
X209301931Y-110871596D01*
X209042679Y-110753200D01*
X208802919Y-110599115D01*
X208587524Y-110412475D01*
X208400884Y-110197080D01*
X208246799Y-109957320D01*
X208128403Y-109698068D01*
X208048108Y-109424610D01*
X208007548Y-109142503D01*
X208007548Y-108857496D01*
X208048108Y-108575389D01*
X208128403Y-108301931D01*
X208246799Y-108042679D01*
X208400884Y-107802919D01*
X208587524Y-107587524D01*
X208802919Y-107400884D01*
X209042679Y-107246799D01*
X209301931Y-107128403D01*
X209575389Y-107048108D01*
X209857496Y-107007548D01*
X210142504Y-107007548D01*
D12*
%TO.P,3.3V_RTN1,1,1*%
X210000000Y-109000000D03*
%TD*%
D10*
%TO.C,R2*%
%TO.CFtp,R_1206_3216Metric*%
%TO.CVal,0.1*%
%TO.CLbN,Resistor_SMD*%
%TO.CMnt,SMD*%
%TO.CRot,90*%
X131390000Y-104275000D03*
D11*
X132505000Y-102000000D02*
X132505000Y-106550000D01*
X130275000Y-106550000D01*
X130275000Y-102000000D01*
X132505000Y-102000000D01*
D12*
%TO.P,R2,1*%
X131390000Y-105737500D03*
D13*
%TO.P,R2,2*%
X131390000Y-102812500D03*
%TD*%
D10*
%TO.C,J5*%
%TO.CFtp,61300311121*%
%TO.CVal,61300311121*%
%TO.CLbN,Wurth_Elektronik*%
%TO.CMnt,TH*%
%TO.CRot,90*%
X82850000Y-57370000D03*
D11*
X84415000Y-53265000D02*
X84415000Y-61475000D01*
X81285000Y-61475000D01*
X81285000Y-53265000D01*
X84415000Y-53265000D01*
D12*
%TO.P,J5,1*%
X82850000Y-59910000D03*
D13*
%TO.P,J5,2*%
X82850000Y-57370000D03*
%TO.P,J5,3*%
X82850000Y-54830000D03*
%TD*%
D10*
%TO.C,Q1*%
%TO.CFtp,ISP281D_ISO*%
%TO.CVal,ISP281D*%
%TO.CLbN,ISOCOM*%
%TO.CMnt,SMD*%
%TO.CRot,-90*%
X125105000Y-62255000D03*
D11*
X126268400Y-58056300D02*
X126268400Y-59707300D01*
X126801800Y-59707300D01*
X126801800Y-64802700D01*
X126268400Y-64802700D01*
X126268400Y-66453700D01*
X123941600Y-66453700D01*
X123941600Y-64802700D01*
X123408200Y-64802700D01*
X123408200Y-59707300D01*
X123941600Y-59707300D01*
X123941600Y-58056300D01*
X126268400Y-58056300D01*
D12*
%TO.P,Q1,1,1*%
X125740000Y-59130800D03*
D13*
%TO.P,Q1,2,2*%
X124470000Y-59130800D03*
%TO.P,Q1,3,3*%
X124470000Y-65379200D03*
%TO.P,Q1,4,4*%
X125740000Y-65379200D03*
%TD*%
D10*
%TO.C,P1*%
%TO.CFtp,conn1_1-1123824-1_TEC*%
%TO.CVal,1-1123824-1*%
%TO.CLbN,TE_Connectivity*%
%TO.CMnt,TH*%
%TO.CRot,-90*%
X202250000Y-35660000D03*
D11*
X206774000Y-31011001D02*
X206774000Y-40308999D01*
X197726000Y-40308999D01*
X197726000Y-31011001D01*
X206774000Y-31011001D01*
D12*
%TO.P,P1,1,1*%
X202250000Y-35660000D03*
D13*
%TO.P,P1,*%
X201490000Y-31990000D03*
X201490000Y-39310000D03*
%TD*%
D10*
%TO.C,R4*%
%TO.CFtp,R_0603_1608Metric*%
%TO.CVal,15k*%
%TO.CLbN,Resistor_SMD*%
%TO.CMnt,SMD*%
%TO.CRot,0*%
X128655000Y-69755000D03*
D11*
X130130000Y-69030000D02*
X130130000Y-70480000D01*
X127180000Y-70480000D01*
X127180000Y-69030000D01*
X130130000Y-69030000D01*
D12*
%TO.P,R4,1*%
X127830000Y-69755000D03*
D13*
%TO.P,R4,2*%
X129480000Y-69755000D03*
%TD*%
D10*
%TO.C,C21*%
%TO.CFtp,C_0603_1608Metric*%
%TO.CVal,1uF*%
%TO.CLbN,Capacitor_SMD*%
%TO.CMnt,SMD*%
%TO.CRot,180*%
X173210000Y-48180000D03*
D11*
X174685000Y-47455000D02*
X174685000Y-48905000D01*
X171735000Y-48905000D01*
X171735000Y-47455000D01*
X174685000Y-47455000D01*
D12*
%TO.P,C21,1*%
X173985000Y-48180000D03*
D13*
%TO.P,C21,2*%
X172435000Y-48180000D03*
%TD*%
D10*
%TO.C,C13*%
%TO.CFtp,CP_EIA-3216-10_Kemet-I*%
%TO.CVal,2.2uF*%
%TO.CLbN,Capacitor_Tantalum_SMD*%
%TO.CMnt,SMD*%
%TO.CRot,180*%
X93275000Y-51528750D03*
D11*
X95570000Y-50483750D02*
X95570000Y-52573750D01*
X90980000Y-52573750D01*
X90980000Y-50483750D01*
X95570000Y-50483750D01*
D12*
%TO.P,C13,1*%
X94625000Y-51528750D03*
D13*
%TO.P,C13,2*%
X91925000Y-51528750D03*
%TD*%
D10*
%TO.C,R26*%
%TO.CFtp,R_1206_3216Metric*%
%TO.CVal,1k*%
%TO.CLbN,Resistor_SMD*%
%TO.CMnt,SMD*%
%TO.CRot,-90*%
X100500000Y-74537500D03*
D11*
X101615000Y-72262500D02*
X101615000Y-76812500D01*
X99385000Y-76812500D01*
X99385000Y-72262500D01*
X101615000Y-72262500D01*
D12*
%TO.P,R26,1*%
X100500000Y-73075000D03*
D13*
%TO.P,R26,2*%
X100500000Y-76000000D03*
%TD*%
D10*
%TO.C,J2*%
%TO.CFtp,618009231221*%
%TO.CVal,618009231221*%
%TO.CLbN,Wurth_Elektronik*%
%TO.CMnt,TH*%
%TO.CRot,-90*%
X50760000Y-98030000D03*
D11*
X60255000Y-82335000D02*
X60255000Y-113725000D01*
X47345000Y-113725000D01*
X47345000Y-82335000D01*
X60255000Y-82335000D01*
D12*
%TO.P,J2,1*%
X58480000Y-92490000D03*
D13*
%TO.P,J2,2*%
X58480000Y-95260000D03*
%TO.P,J2,3*%
X58480000Y-98030000D03*
%TO.P,J2,4*%
X58480000Y-100800000D03*
%TO.P,J2,5*%
X58480000Y-103570000D03*
%TO.P,J2,6*%
X55640000Y-93875000D03*
%TO.P,J2,7*%
X55640000Y-96645000D03*
%TO.P,J2,8*%
X55640000Y-99415000D03*
%TO.P,J2,9*%
X55640000Y-102185000D03*
%TO.P,J2,S1*%
X57060000Y-85530000D03*
%TO.P,J2,S2*%
X57060000Y-110530000D03*
%TD*%
D10*
%TO.C,TELEM_PWR1*%
%TO.CFtp,TestPoint_Keystone_5005-5009_Compact*%
%TO.CVal,5005*%
%TO.CLbN,TestPoint*%
%TO.CMnt,TH*%
%TO.CRot,180*%
X139140000Y-53870000D03*
D11*
X139282504Y-51877548D02*
X139564610Y-51918108D01*
X139838068Y-51998403D01*
X140097320Y-52116799D01*
X140337080Y-52270884D01*
X140552475Y-52457524D01*
X140739115Y-52672919D01*
X140893200Y-52912679D01*
X141011596Y-53171931D01*
X141091891Y-53445389D01*
X141132458Y-53727542D01*
X141134999Y-53870000D01*
X141132458Y-54012457D01*
X141091891Y-54294610D01*
X141011596Y-54568068D01*
X140893200Y-54827320D01*
X140739115Y-55067080D01*
X140552475Y-55282475D01*
X140337080Y-55469115D01*
X140097320Y-55623200D01*
X139838068Y-55741596D01*
X139564610Y-55821891D01*
X139282504Y-55862452D01*
X138997496Y-55862452D01*
X138715389Y-55821891D01*
X138441931Y-55741596D01*
X138182679Y-55623200D01*
X137942919Y-55469115D01*
X137727524Y-55282475D01*
X137540884Y-55067080D01*
X137386799Y-54827320D01*
X137268403Y-54568068D01*
X137188108Y-54294610D01*
X137147548Y-54012503D01*
X137147548Y-53727496D01*
X137188108Y-53445389D01*
X137268403Y-53171931D01*
X137386799Y-52912679D01*
X137540884Y-52672919D01*
X137727524Y-52457524D01*
X137942919Y-52270884D01*
X138182679Y-52116799D01*
X138441931Y-51998403D01*
X138715389Y-51918108D01*
X138997496Y-51877548D01*
X139282504Y-51877548D01*
D12*
%TO.P,TELEM_PWR1,1,1*%
X139140000Y-53870000D03*
%TD*%
D10*
%TO.C,G\u005Cu002A\u005Cu002A\u005Cu002A*%
%TO.CFtp,NASA-Meatball-3*%
%TO.CVal,LOGO*%
%TO.CLbN,NASA_Meatball*%
%TO.CMnt,Other*%
%TO.CRot,0*%
X93000000Y-124000000D03*
%TD*%
%TO.C,C20*%
%TO.CFtp,C_0402_1005Metric*%
%TO.CVal,0.1uF*%
%TO.CLbN,Capacitor_SMD*%
%TO.CMnt,SMD*%
%TO.CRot,-90*%
X174050000Y-44380000D03*
D11*
X174505000Y-43475000D02*
X174505000Y-45285000D01*
X173595000Y-45285000D01*
X173595000Y-43475000D01*
X174505000Y-43475000D01*
D12*
%TO.P,C20,1*%
X174050000Y-43900000D03*
D13*
%TO.P,C20,2*%
X174050000Y-44860000D03*
%TD*%
D10*
%TO.C,R19*%
%TO.CFtp,R_0603_1608Metric*%
%TO.CVal,49.9k*%
%TO.CLbN,Resistor_SMD*%
%TO.CMnt,SMD*%
%TO.CRot,180*%
X223190000Y-87530000D03*
D11*
X224665000Y-86805000D02*
X224665000Y-88255000D01*
X221715000Y-88255000D01*
X221715000Y-86805000D01*
X224665000Y-86805000D01*
D12*
%TO.P,R19,1*%
X224015000Y-87530000D03*
D13*
%TO.P,R19,2*%
X222365000Y-87530000D03*
%TD*%
D10*
%TO.C,P2*%
%TO.CFtp,conn1_1-1123824-1_TEC*%
%TO.CVal,1-1123824-1*%
%TO.CLbN,TE_Connectivity*%
%TO.CMnt,TH*%
%TO.CRot,-90*%
X202210000Y-50790000D03*
D11*
X206734000Y-46141001D02*
X206734000Y-55438999D01*
X197686000Y-55438999D01*
X197686000Y-46141001D01*
X206734000Y-46141001D01*
D12*
%TO.P,P2,1,1*%
X202210000Y-50790000D03*
D13*
%TO.P,P2,*%
X201450000Y-47120000D03*
X201450000Y-54440000D03*
%TD*%
D10*
%TO.C,C5*%
%TO.CFtp,CP_EIA-3528-12_Kemet-T*%
%TO.CVal,100uF*%
%TO.CLbN,Capacitor_Tantalum_SMD*%
%TO.CMnt,SMD*%
%TO.CRot,180*%
X69870000Y-99955000D03*
D11*
X72315000Y-98310000D02*
X72315000Y-101600000D01*
X67425000Y-101600000D01*
X67425000Y-98310000D01*
X72315000Y-98310000D01*
D12*
%TO.P,C5,1*%
X71407500Y-99955000D03*
D13*
%TO.P,C5,2*%
X68332500Y-99955000D03*
%TD*%
D10*
%TO.C,R7*%
%TO.CFtp,R_0603_1608Metric*%
%TO.CVal,4.99k*%
%TO.CLbN,Resistor_SMD*%
%TO.CMnt,SMD*%
%TO.CRot,180*%
X125115000Y-67975000D03*
D11*
X126590000Y-67250000D02*
X126590000Y-68700000D01*
X123640000Y-68700000D01*
X123640000Y-67250000D01*
X126590000Y-67250000D01*
D12*
%TO.P,R7,1*%
X125940000Y-67975000D03*
D13*
%TO.P,R7,2*%
X124290000Y-67975000D03*
%TD*%
D10*
%TO.C,R9*%
%TO.CFtp,R_0603_1608Metric*%
%TO.CVal,1k*%
%TO.CLbN,Resistor_SMD*%
%TO.CMnt,SMD*%
%TO.CRot,90*%
X128163000Y-55193000D03*
D11*
X128888000Y-53718000D02*
X128888000Y-56668000D01*
X127438000Y-56668000D01*
X127438000Y-53718000D01*
X128888000Y-53718000D01*
D12*
%TO.P,R9,1*%
X128163000Y-56018000D03*
D13*
%TO.P,R9,2*%
X128163000Y-54368000D03*
%TD*%
D10*
%TO.C,R11*%
%TO.CFtp,R_0603_1608Metric*%
%TO.CVal,24.9*%
%TO.CLbN,Resistor_SMD*%
%TO.CMnt,SMD*%
%TO.CRot,-90*%
X183750000Y-58580000D03*
D11*
X184475000Y-57105000D02*
X184475000Y-60055000D01*
X183025000Y-60055000D01*
X183025000Y-57105000D01*
X184475000Y-57105000D01*
D12*
%TO.P,R11,1*%
X183750000Y-57755000D03*
D13*
%TO.P,R11,2*%
X183750000Y-59405000D03*
%TD*%
D10*
%TO.C,L1*%
%TO.CFtp,MLC1260*%
%TO.CVal,4uH*%
%TO.CLbN,CoilCraft*%
%TO.CMnt,SMD*%
%TO.CRot,-90*%
X109055000Y-88895000D03*
D14*
X121055000Y-92795000D02*
X109055000Y-92795000D01*
X109055000Y-95495000D01*
X121055000Y-95495000D01*
X121055000Y-92795000D01*
D12*
%TO.P,L1,1,1*%
X111055000Y-94145000D03*
D13*
%TO.P,L1,2,2*%
X119055000Y-94145000D03*
%TD*%
D10*
%TO.C,3.3V1*%
%TO.CFtp,TestPoint_Keystone_5005-5009_Compact*%
%TO.CVal,5005*%
%TO.CLbN,TestPoint*%
%TO.CMnt,TH*%
%TO.CRot,0*%
X225000000Y-109000000D03*
D11*
X225142504Y-107007548D02*
X225424610Y-107048108D01*
X225698068Y-107128403D01*
X225957320Y-107246799D01*
X226197080Y-107400884D01*
X226412475Y-107587524D01*
X226599115Y-107802919D01*
X226753200Y-108042679D01*
X226871596Y-108301931D01*
X226951891Y-108575389D01*
X226992458Y-108857542D01*
X226994999Y-109000000D01*
X226992458Y-109142457D01*
X226951891Y-109424610D01*
X226871596Y-109698068D01*
X226753200Y-109957320D01*
X226599115Y-110197080D01*
X226412475Y-110412475D01*
X226197080Y-110599115D01*
X225957320Y-110753200D01*
X225698068Y-110871596D01*
X225424610Y-110951891D01*
X225142504Y-110992452D01*
X224857496Y-110992452D01*
X224575389Y-110951891D01*
X224301931Y-110871596D01*
X224042679Y-110753200D01*
X223802919Y-110599115D01*
X223587524Y-110412475D01*
X223400884Y-110197080D01*
X223246799Y-109957320D01*
X223128403Y-109698068D01*
X223048108Y-109424610D01*
X223007548Y-109142503D01*
X223007548Y-108857496D01*
X223048108Y-108575389D01*
X223128403Y-108301931D01*
X223246799Y-108042679D01*
X223400884Y-107802919D01*
X223587524Y-107587524D01*
X223802919Y-107400884D01*
X224042679Y-107246799D01*
X224301931Y-107128403D01*
X224575389Y-107048108D01*
X224857496Y-107007548D01*
X225142504Y-107007548D01*
D12*
%TO.P,3.3V1,1,1*%
X225000000Y-109000000D03*
%TD*%
D10*
%TO.C,R22*%
%TO.CFtp,R_0603_1608Metric*%
%TO.CVal,24.9*%
%TO.CLbN,Resistor_SMD*%
%TO.CMnt,SMD*%
%TO.CRot,180*%
X173220000Y-46440000D03*
D11*
X174695000Y-45715000D02*
X174695000Y-47165000D01*
X171745000Y-47165000D01*
X171745000Y-45715000D01*
X174695000Y-45715000D01*
D12*
%TO.P,R22,1*%
X174045000Y-46440000D03*
D13*
%TO.P,R22,2*%
X172395000Y-46440000D03*
%TD*%
D10*
%TO.C,L3*%
%TO.CFtp,MLC1260*%
%TO.CVal,4uH*%
%TO.CLbN,CoilCraft*%
%TO.CMnt,SMD*%
%TO.CRot,-90*%
X109205000Y-101705000D03*
D14*
X121205000Y-105605000D02*
X109205000Y-105605000D01*
X109205000Y-108305000D01*
X121205000Y-108305000D01*
X121205000Y-105605000D01*
D12*
%TO.P,L3,1,1*%
X111205000Y-106955000D03*
D13*
%TO.P,L3,2,2*%
X119205000Y-106955000D03*
%TD*%
D10*
%TO.C,Secondary_RTN1*%
%TO.CFtp,TestPoint_Keystone_5005-5009_Compact*%
%TO.CVal,5006*%
%TO.CLbN,TestPoint*%
%TO.CMnt,TH*%
%TO.CRot,0*%
X79340000Y-88210000D03*
D11*
X79482504Y-86217548D02*
X79764610Y-86258108D01*
X80038068Y-86338403D01*
X80297320Y-86456799D01*
X80537080Y-86610884D01*
X80752475Y-86797524D01*
X80939115Y-87012919D01*
X81093200Y-87252679D01*
X81211596Y-87511931D01*
X81291891Y-87785389D01*
X81332458Y-88067542D01*
X81334999Y-88210000D01*
X81332458Y-88352457D01*
X81291891Y-88634610D01*
X81211596Y-88908068D01*
X81093200Y-89167320D01*
X80939115Y-89407080D01*
X80752475Y-89622475D01*
X80537080Y-89809115D01*
X80297320Y-89963200D01*
X80038068Y-90081596D01*
X79764610Y-90161891D01*
X79482504Y-90202452D01*
X79197496Y-90202452D01*
X78915389Y-90161891D01*
X78641931Y-90081596D01*
X78382679Y-89963200D01*
X78142919Y-89809115D01*
X77927524Y-89622475D01*
X77740884Y-89407080D01*
X77586799Y-89167320D01*
X77468403Y-88908068D01*
X77388108Y-88634610D01*
X77347548Y-88352503D01*
X77347548Y-88067496D01*
X77388108Y-87785389D01*
X77468403Y-87511931D01*
X77586799Y-87252679D01*
X77740884Y-87012919D01*
X77927524Y-86797524D01*
X78142919Y-86610884D01*
X78382679Y-86456799D01*
X78641931Y-86338403D01*
X78915389Y-86258108D01*
X79197496Y-86217548D01*
X79482504Y-86217548D01*
D12*
%TO.P,Secondary_RTN1,1,1*%
X79340000Y-88210000D03*
%TD*%
D10*
%TO.C,M3*%
%TO.CFtp,SSM_TOS*%
%TO.CVal,SSM3K15AFS_LF*%
%TO.CLbN,Toshiba_Semi*%
%TO.CMnt,SMD*%
%TO.CRot,-90*%
X194430000Y-54160000D03*
D11*
X195079000Y-53111000D02*
X195079000Y-53761000D01*
X195934599Y-53761000D01*
X195934599Y-54559000D01*
X195079000Y-54559000D01*
X195079000Y-55209000D01*
X193781000Y-55209000D01*
X193781000Y-55059000D01*
X192925401Y-55059000D01*
X192925401Y-53261000D01*
X193781000Y-53261000D01*
X193781000Y-53111000D01*
X195079000Y-53111000D01*
D12*
%TO.P,M3,1,1*%
X193755000Y-53660001D03*
D13*
%TO.P,M3,2,2*%
X193755000Y-54659999D03*
%TO.P,M3,3,3*%
X195105000Y-54160000D03*
%TD*%
D10*
%TO.C,U6*%
%TO.CFtp,DBV5*%
%TO.CVal,SN65LVDS2DBVR*%
%TO.CLbN,Texas_Instruments*%
%TO.CMnt,SMD*%
%TO.CRot,-90*%
X68445000Y-54750000D03*
D11*
X70218000Y-52570600D02*
X70218000Y-56929400D01*
X66672000Y-56929400D01*
X66672000Y-52570600D01*
X70218000Y-52570600D01*
D12*
%TO.P,U6,1,VCC*%
X69395001Y-53556200D03*
D13*
%TO.P,U6,2,GND*%
X68445000Y-53556200D03*
%TO.P,U6,3,A*%
X67494999Y-53556200D03*
%TO.P,U6,4,B*%
X67494999Y-55943800D03*
%TO.P,U6,5,R*%
X69395001Y-55943800D03*
%TD*%
D10*
%TO.C,U3*%
%TO.CFtp,INA28x_8SOIC*%
%TO.CVal,INA286*%
%TO.CLbN,Texas_Instruments*%
%TO.CMnt,SMD*%
%TO.CRot,180*%
X210967500Y-91427500D03*
D11*
X214667500Y-88730000D02*
X214667500Y-94125000D01*
X207267500Y-94125000D01*
X207267500Y-88730000D01*
X214667500Y-88730000D01*
D12*
%TO.P,U3,1,-IN*%
X213437500Y-93332500D03*
D13*
%TO.P,U3,2,GND*%
X213437500Y-92062500D03*
%TO.P,U3,3,REF2*%
X213437500Y-90792500D03*
%TO.P,U3,4,4*%
X213437500Y-89522500D03*
%TO.P,U3,5,OUT*%
X208497500Y-89522500D03*
%TO.P,U3,6,V+*%
X208497500Y-90792500D03*
%TO.P,U3,7,REF1*%
X208497500Y-92062500D03*
%TO.P,U3,8,+IN*%
X208497500Y-93332500D03*
%TD*%
D10*
%TO.C,C3*%
%TO.CFtp,CP_EIA-3528-12_Kemet-T*%
%TO.CVal,10uF*%
%TO.CLbN,Capacitor_Tantalum_SMD*%
%TO.CMnt,SMD*%
%TO.CRot,-90*%
X197485000Y-100115000D03*
D11*
X199130000Y-97670000D02*
X199130000Y-102560000D01*
X195840000Y-102560000D01*
X195840000Y-97670000D01*
X199130000Y-97670000D01*
D12*
%TO.P,C3,1*%
X197485000Y-98577500D03*
D13*
%TO.P,C3,2*%
X197485000Y-101652500D03*
%TD*%
D10*
%TO.C,R5*%
%TO.CFtp,R_0603_1608Metric*%
%TO.CVal,120*%
%TO.CLbN,Resistor_SMD*%
%TO.CMnt,SMD*%
%TO.CRot,180*%
X132605000Y-50235000D03*
D11*
X134080000Y-49510000D02*
X134080000Y-50960000D01*
X131130000Y-50960000D01*
X131130000Y-49510000D01*
X134080000Y-49510000D01*
D12*
%TO.P,R5,1*%
X133430000Y-50235000D03*
D13*
%TO.P,R5,2*%
X131780000Y-50235000D03*
%TD*%
D10*
%TO.C,Secondary_PWR1*%
%TO.CFtp,TestPoint_Keystone_5005-5009_Compact*%
%TO.CVal,5005*%
%TO.CLbN,TestPoint*%
%TO.CMnt,TH*%
%TO.CRot,0*%
X69340000Y-113850000D03*
D11*
X69482504Y-111857548D02*
X69764610Y-111898108D01*
X70038068Y-111978403D01*
X70297320Y-112096799D01*
X70537080Y-112250884D01*
X70752475Y-112437524D01*
X70939115Y-112652919D01*
X71093200Y-112892679D01*
X71211596Y-113151931D01*
X71291891Y-113425389D01*
X71332458Y-113707542D01*
X71334999Y-113850000D01*
X71332458Y-113992457D01*
X71291891Y-114274610D01*
X71211596Y-114548068D01*
X71093200Y-114807320D01*
X70939115Y-115047080D01*
X70752475Y-115262475D01*
X70537080Y-115449115D01*
X70297320Y-115603200D01*
X70038068Y-115721596D01*
X69764610Y-115801891D01*
X69482504Y-115842452D01*
X69197496Y-115842452D01*
X68915389Y-115801891D01*
X68641931Y-115721596D01*
X68382679Y-115603200D01*
X68142919Y-115449115D01*
X67927524Y-115262475D01*
X67740884Y-115047080D01*
X67586799Y-114807320D01*
X67468403Y-114548068D01*
X67388108Y-114274610D01*
X67347548Y-113992503D01*
X67347548Y-113707496D01*
X67388108Y-113425389D01*
X67468403Y-113151931D01*
X67586799Y-112892679D01*
X67740884Y-112652919D01*
X67927524Y-112437524D01*
X68142919Y-112250884D01*
X68382679Y-112096799D01*
X68641931Y-111978403D01*
X68915389Y-111898108D01*
X69197496Y-111857548D01*
X69482504Y-111857548D01*
D12*
%TO.P,Secondary_PWR1,1,1*%
X69340000Y-113850000D03*
%TD*%
D10*
%TO.C,R10*%
%TO.CFtp,Y14870R01000B9R_10mOhm*%
%TO.CVal,Y14870R01000B9R*%
%TO.CLbN,Foil_Resistors*%
%TO.CMnt,SMD*%
%TO.CRot,0*%
X210965000Y-100015000D03*
D11*
X214890000Y-97930000D02*
X214890000Y-102100000D01*
X207040000Y-102100000D01*
X207040000Y-97930000D01*
X214890000Y-97930000D01*
D13*
%TO.P,R10,E1*%
X207980000Y-101285000D03*
%TO.P,R10,E2*%
X213950000Y-98745000D03*
%TO.P,R10,I1*%
X208110000Y-99180000D03*
%TO.P,R10,I2*%
X213820000Y-100850000D03*
%TD*%
D10*
%TO.C,TELEM_RTN1*%
%TO.CFtp,TestPoint_Keystone_5005-5009_Compact*%
%TO.CVal,5006*%
%TO.CLbN,TestPoint*%
%TO.CMnt,TH*%
%TO.CRot,180*%
X119060000Y-53890000D03*
D11*
X119202504Y-51897548D02*
X119484610Y-51938108D01*
X119758068Y-52018403D01*
X120017320Y-52136799D01*
X120257080Y-52290884D01*
X120472475Y-52477524D01*
X120659115Y-52692919D01*
X120813200Y-52932679D01*
X120931596Y-53191931D01*
X121011891Y-53465389D01*
X121052458Y-53747542D01*
X121054999Y-53890000D01*
X121052458Y-54032457D01*
X121011891Y-54314610D01*
X120931596Y-54588068D01*
X120813200Y-54847320D01*
X120659115Y-55087080D01*
X120472475Y-55302475D01*
X120257080Y-55489115D01*
X120017320Y-55643200D01*
X119758068Y-55761596D01*
X119484610Y-55841891D01*
X119202504Y-55882452D01*
X118917496Y-55882452D01*
X118635389Y-55841891D01*
X118361931Y-55761596D01*
X118102679Y-55643200D01*
X117862919Y-55489115D01*
X117647524Y-55302475D01*
X117460884Y-55087080D01*
X117306799Y-54847320D01*
X117188403Y-54588068D01*
X117108108Y-54314610D01*
X117067548Y-54032503D01*
X117067548Y-53747496D01*
X117108108Y-53465389D01*
X117188403Y-53191931D01*
X117306799Y-52932679D01*
X117460884Y-52692919D01*
X117647524Y-52477524D01*
X117862919Y-52290884D01*
X118102679Y-52136799D01*
X118361931Y-52018403D01*
X118635389Y-51938108D01*
X118917496Y-51897548D01*
X119202504Y-51897548D01*
D12*
%TO.P,TELEM_RTN1,1,1*%
X119060000Y-53890000D03*
%TD*%
D10*
%TO.C,R8*%
%TO.CFtp,R_0603_1608Metric*%
%TO.CVal,835*%
%TO.CLbN,Resistor_SMD*%
%TO.CMnt,SMD*%
%TO.CRot,0*%
X118410000Y-57330000D03*
D11*
X119885000Y-56605000D02*
X119885000Y-58055000D01*
X116935000Y-58055000D01*
X116935000Y-56605000D01*
X119885000Y-56605000D01*
D12*
%TO.P,R8,1*%
X117585000Y-57330000D03*
D13*
%TO.P,R8,2*%
X119235000Y-57330000D03*
%TD*%
D10*
%TO.C,R1*%
%TO.CFtp,R_1206_3216Metric*%
%TO.CVal,10*%
%TO.CLbN,Resistor_SMD*%
%TO.CMnt,SMD*%
%TO.CRot,0*%
X75900000Y-99955000D03*
D11*
X78175000Y-98840000D02*
X78175000Y-101070000D01*
X73625000Y-101070000D01*
X73625000Y-98840000D01*
X78175000Y-98840000D01*
D12*
%TO.P,R1,1*%
X74437500Y-99955000D03*
D13*
%TO.P,R1,2*%
X77362500Y-99955000D03*
%TD*%
D10*
%TO.C,C2*%
%TO.CFtp,CP_EIA-3528-12_Kemet-T*%
%TO.CVal,10uF*%
%TO.CLbN,Capacitor_Tantalum_SMD*%
%TO.CMnt,SMD*%
%TO.CRot,-90*%
X126110000Y-100657500D03*
D11*
X127755000Y-98212500D02*
X127755000Y-103102500D01*
X124465000Y-103102500D01*
X124465000Y-98212500D01*
X127755000Y-98212500D01*
D12*
%TO.P,C2,1*%
X126110000Y-99120000D03*
D13*
%TO.P,C2,2*%
X126110000Y-102195000D03*
%TD*%
D10*
%TO.C,R3*%
%TO.CFtp,R_0603_1608Metric*%
%TO.CVal,180*%
%TO.CLbN,Resistor_SMD*%
%TO.CMnt,SMD*%
%TO.CRot,180*%
X130795000Y-57505000D03*
D11*
X132270000Y-56780000D02*
X132270000Y-58230000D01*
X129320000Y-58230000D01*
X129320000Y-56780000D01*
X132270000Y-56780000D01*
D12*
%TO.P,R3,1*%
X131620000Y-57505000D03*
D13*
%TO.P,R3,2*%
X129970000Y-57505000D03*
%TD*%
D10*
%TO.C,L2*%
%TO.CFtp,MSD1583-105*%
%TO.CVal,900uH to 1mH (CM) 2uH Leakage*%
%TO.CLbN,CoilCraft*%
%TO.CMnt,SMD*%
%TO.CRot,90*%
X100430000Y-107975000D03*
D14*
X85030000Y-103275000D02*
X100830000Y-103275000D01*
X100830000Y-97675000D01*
X85030000Y-97675000D01*
X85030000Y-103275000D01*
D12*
%TO.P,L2,1*%
X99230000Y-98625000D03*
D13*
%TO.P,L2,2*%
X99230000Y-102325000D03*
%TO.P,L2,3*%
X86630000Y-102325000D03*
%TO.P,L2,4*%
X86630000Y-98625000D03*
%TD*%
D10*
%TO.C,U1*%
%TO.CFtp,VHB50W-Q24-S3R3*%
%TO.CVal,VHB50W-Q24-S3R3*%
%TO.CLbN,CUI*%
%TO.CMnt,TH*%
%TO.CRot,0*%
X164015000Y-100035000D03*
D11*
X193210000Y-69290000D02*
X193210000Y-130780000D01*
X134820000Y-130780000D01*
X134820000Y-69290000D01*
X193210000Y-69290000D01*
D12*
%TO.P,U1,1,+VIN*%
X139890000Y-82255000D03*
D13*
%TO.P,U1,*%
X139890000Y-74635000D03*
X139890000Y-125435000D03*
X188140000Y-74635000D03*
X188140000Y-125435000D03*
%TO.P,U1,2,ON/OFF*%
X139890000Y-92415000D03*
%TO.P,U1,3,CASE*%
X139890000Y-107655000D03*
%TO.P,U1,4,-VIN*%
X139890000Y-117815000D03*
%TO.P,U1,5,-VO*%
X188140000Y-117815000D03*
%TO.P,U1,6,-S*%
X188140000Y-107655000D03*
%TO.P,U1,7,TRIM*%
X188140000Y-100035000D03*
%TO.P,U1,8,+S*%
X188140000Y-92415000D03*
%TO.P,U1,9,+VO*%
X188140000Y-82255000D03*
%TD*%
D10*
%TO.C,R13*%
%TO.CFtp,R_0603_1608Metric*%
%TO.CVal,330k*%
%TO.CLbN,Resistor_SMD*%
%TO.CMnt,SMD*%
%TO.CRot,90*%
X86805000Y-44788750D03*
D11*
X87530000Y-43313750D02*
X87530000Y-46263750D01*
X86080000Y-46263750D01*
X86080000Y-43313750D01*
X87530000Y-43313750D01*
D12*
%TO.P,R13,1*%
X86805000Y-45613750D03*
D13*
%TO.P,R13,2*%
X86805000Y-43963750D03*
%TD*%
D10*
%TO.C,M2*%
%TO.CFtp,ES6_TOS*%
%TO.CVal,SSM6N35FE\u002CLM*%
%TO.CLbN,Toshiba_Semi*%
%TO.CMnt,SMD*%
%TO.CRot,180*%
X125265000Y-54935000D03*
D11*
X126110900Y-53885900D02*
X126110900Y-54051000D01*
X126593500Y-54051000D01*
X126593500Y-55819000D01*
X126110900Y-55819000D01*
X126110900Y-55984100D01*
X124419100Y-55984100D01*
X124419100Y-55819000D01*
X123936500Y-55819000D01*
X123936500Y-54051000D01*
X124419100Y-54051000D01*
X124419100Y-53885900D01*
X126110900Y-53885900D01*
D12*
%TO.P,M2,1,1S*%
X126027000Y-55443000D03*
D13*
%TO.P,M2,2,1G*%
X126027000Y-54935000D03*
%TO.P,M2,3,2D*%
X126027000Y-54427000D03*
%TO.P,M2,4,2S*%
X124503000Y-54427000D03*
%TO.P,M2,5,2G*%
X124503000Y-54935000D03*
%TO.P,M2,6,1D*%
X124503000Y-55443000D03*
%TD*%
D10*
%TO.C,C24*%
%TO.CFtp,C_1206_3216Metric*%
%TO.CVal,0.1uF*%
%TO.CLbN,Capacitor_SMD*%
%TO.CMnt,SMD*%
%TO.CRot,-90*%
X103820000Y-74557500D03*
D11*
X104965000Y-72262500D02*
X104965000Y-76852500D01*
X102675000Y-76852500D01*
X102675000Y-72262500D01*
X104965000Y-72262500D01*
D12*
%TO.P,C24,1*%
X103820000Y-73082500D03*
D13*
%TO.P,C24,2*%
X103820000Y-76032500D03*
%TD*%
D10*
%TO.C,U4*%
%TO.CFtp,R_8_ADI*%
%TO.CVal,LTC2051HVCS8#TRPBF*%
%TO.CLbN,Analog_Devices*%
%TO.CMnt,SMD*%
%TO.CRot,180*%
X179720000Y-44380000D03*
D11*
X181962900Y-41629100D02*
X181962900Y-41946600D01*
X183423400Y-41946600D01*
X183423400Y-46813400D01*
X181962900Y-46813400D01*
X181962900Y-47130900D01*
X177477100Y-47130900D01*
X177477100Y-46813400D01*
X176016600Y-46813400D01*
X176016600Y-41946600D01*
X177477100Y-41946600D01*
X177477100Y-41629100D01*
X181962900Y-41629100D01*
D12*
%TO.P,U4,1,A_OUT*%
X182183800Y-46285000D03*
D13*
%TO.P,U4,2,-INA*%
X182183800Y-45015000D03*
%TO.P,U4,3,+INA*%
X182183800Y-43745000D03*
%TO.P,U4,4,VSS*%
X182183800Y-42475000D03*
%TO.P,U4,5,+INB*%
X177256200Y-42475000D03*
%TO.P,U4,6,-INB*%
X177256200Y-43745000D03*
%TO.P,U4,7,B_OUT*%
X177256200Y-45015000D03*
%TO.P,U4,8,VCC*%
X177256200Y-46285000D03*
%TD*%
D10*
%TO.C,R6*%
%TO.CFtp,R_0603_1608Metric*%
%TO.CVal,15k*%
%TO.CLbN,Resistor_SMD*%
%TO.CMnt,SMD*%
%TO.CRot,180*%
X128665000Y-67985000D03*
D11*
X130140000Y-67260000D02*
X130140000Y-68710000D01*
X127190000Y-68710000D01*
X127190000Y-67260000D01*
X130140000Y-67260000D01*
D12*
%TO.P,R6,1*%
X129490000Y-67985000D03*
D13*
%TO.P,R6,2*%
X127840000Y-67985000D03*
%TD*%
D10*
%TO.C,R18*%
%TO.CFtp,R_0603_1608Metric*%
%TO.CVal,49.9k*%
%TO.CLbN,Resistor_SMD*%
%TO.CMnt,SMD*%
%TO.CRot,180*%
X223190000Y-89310000D03*
D11*
X224665000Y-88585000D02*
X224665000Y-90035000D01*
X221715000Y-90035000D01*
X221715000Y-88585000D01*
X224665000Y-88585000D01*
D12*
%TO.P,R18,1*%
X224015000Y-89310000D03*
D13*
%TO.P,R18,2*%
X222365000Y-89310000D03*
%TD*%
D10*
%TO.C,R15*%
%TO.CFtp,R_0402_1005Metric*%
%TO.CVal,10k*%
%TO.CLbN,Resistor_SMD*%
%TO.CMnt,SMD*%
%TO.CRot,-90*%
X184240000Y-45660000D03*
D11*
X184705000Y-44735000D02*
X184705000Y-46585000D01*
X183775000Y-46585000D01*
X183775000Y-44735000D01*
X184705000Y-44735000D01*
D12*
%TO.P,R15,1*%
X184240000Y-45150000D03*
D13*
%TO.P,R15,2*%
X184240000Y-46170000D03*
%TD*%
D15*
X47500000Y-135000000D02*
X47500000Y-27500000D01*
X235000000Y-22500000D02*
G75*
G02*
X237500000Y-25000000I0J-2500000D01*
G01*
X52500000Y-22500000D02*
X235000000Y-22500000D01*
X237500000Y-135000000D02*
G75*
G02*
X232500000Y-140000000I-5000000J0D01*
G01*
X232500000Y-140000000D02*
X52500000Y-140000000D01*
X47500000Y-27500000D02*
G75*
G02*
X52500000Y-22500000I5000000J0D01*
G01*
X52500000Y-140000000D02*
G75*
G02*
X47500000Y-135000000I0J5000000D01*
G01*
X237500000Y-25000000D02*
X237500000Y-135000000D01*
M02*
