%TF.GenerationSoftware,KiCad,Pcbnew,9.0.3*%
%TF.CreationDate,2025-09-16T13:25:35-04:00*%
%TF.ProjectId,CAEN_NEVIS_DAQ_3p3V,4341454e-5f4e-4455-9649-535f4441515f,rev?*%
%TF.SameCoordinates,Original*%
%TF.FileFunction,Other,User*%
%FSLAX46Y46*%
G04 Gerber Fmt 4.6, Leading zero omitted, Abs format (unit mm)*
G04 Created by KiCad (PCBNEW 9.0.3) date 2025-09-16 13:25:35*
%MOMM*%
%LPD*%
G01*
G04 APERTURE LIST*
%ADD10C,0.050000*%
%ADD11C,0.152400*%
G04 APERTURE END LIST*
D10*
%TO.C,C10*%
X196515000Y-98415000D02*
X198475000Y-98415000D01*
X196515000Y-101815000D02*
X196515000Y-98415000D01*
X198475000Y-98415000D02*
X198475000Y-101815000D01*
X198475000Y-101815000D02*
X196515000Y-101815000D01*
%TO.C,C9*%
X191565000Y-98355000D02*
X193525000Y-98355000D01*
X191565000Y-101755000D02*
X191565000Y-98355000D01*
X193525000Y-98355000D02*
X193525000Y-101755000D01*
X193525000Y-101755000D02*
X191565000Y-101755000D01*
%TO.C,C6*%
X133100000Y-98325000D02*
X135060000Y-98325000D01*
X133100000Y-101725000D02*
X133100000Y-98325000D01*
X135060000Y-98325000D02*
X135060000Y-101725000D01*
X135060000Y-101725000D02*
X133100000Y-101725000D01*
%TO.C,C4*%
X130690000Y-98325000D02*
X132650000Y-98325000D01*
X130690000Y-101725000D02*
X130690000Y-98325000D01*
X132650000Y-98325000D02*
X132650000Y-101725000D01*
X132650000Y-101725000D02*
X130690000Y-101725000D01*
%TO.C,R24*%
X203165000Y-82195000D02*
X204625000Y-82195000D01*
X203165000Y-85155000D02*
X203165000Y-82195000D01*
X204625000Y-82195000D02*
X204625000Y-85155000D01*
X204625000Y-85155000D02*
X203165000Y-85155000D01*
%TO.C,C7*%
X135500000Y-98335000D02*
X137460000Y-98335000D01*
X135500000Y-101735000D02*
X135500000Y-98335000D01*
X137460000Y-98335000D02*
X137460000Y-101735000D01*
X137460000Y-101735000D02*
X135500000Y-101735000D01*
D11*
%TO.C,U5*%
X194251600Y-79781600D02*
X194251600Y-84658400D01*
X194251600Y-79781600D02*
X195712100Y-79781600D01*
X194251600Y-84658400D02*
X195712100Y-84658400D01*
X195712100Y-79464100D02*
X195712100Y-79781600D01*
X195712100Y-84658400D02*
X195712100Y-84975900D01*
X195712100Y-84975900D02*
X200207900Y-84975900D01*
X200207900Y-79464100D02*
X195712100Y-79464100D01*
X200207900Y-79781600D02*
X200207900Y-79464100D01*
X200207900Y-84975900D02*
X200207900Y-84658400D01*
X201668400Y-79781600D02*
X200207900Y-79781600D01*
X201668400Y-84658400D02*
X200207900Y-84658400D01*
X201668400Y-84658400D02*
X201668400Y-79781600D01*
D10*
%TO.C,C8*%
X193985000Y-98415000D02*
X195945000Y-98415000D01*
X193985000Y-101815000D02*
X193985000Y-98415000D01*
X195945000Y-98415000D02*
X195945000Y-101815000D01*
X195945000Y-101815000D02*
X193985000Y-101815000D01*
%TO.C,C17*%
X179140000Y-43460000D02*
X180060000Y-43460000D01*
X179140000Y-45280000D02*
X179140000Y-43460000D01*
X180060000Y-43460000D02*
X180060000Y-45280000D01*
X180060000Y-45280000D02*
X179140000Y-45280000D01*
%TO.C,C12*%
X210572500Y-90127500D02*
X211492500Y-90127500D01*
X210572500Y-91947500D02*
X210572500Y-90127500D01*
X211492500Y-90127500D02*
X211492500Y-91947500D01*
X211492500Y-91947500D02*
X210572500Y-91947500D01*
%TD*%
M02*
