%TF.GenerationSoftware,KiCad,Pcbnew,9.0.3*%
%TF.CreationDate,2025-09-16T13:25:34-04:00*%
%TF.ProjectId,CAEN_NEVIS_DAQ_3p3V,4341454e-5f4e-4455-9649-535f4441515f,rev?*%
%TF.SameCoordinates,Original*%
%TF.FileFunction,Copper,L4,Inr*%
%TF.FilePolarity,Positive*%
%FSLAX46Y46*%
G04 Gerber Fmt 4.6, Leading zero omitted, Abs format (unit mm)*
G04 Created by KiCad (PCBNEW 9.0.3) date 2025-09-16 13:25:34*
%MOMM*%
%LPD*%
G01*
G04 APERTURE LIST*
%TA.AperFunction,ComponentPad*%
%ADD10C,2.006600*%
%TD*%
%TA.AperFunction,ComponentPad*%
%ADD11C,2.209800*%
%TD*%
%TA.AperFunction,ComponentPad*%
%ADD12C,6.400000*%
%TD*%
%TA.AperFunction,ComponentPad*%
%ADD13C,2.100000*%
%TD*%
%TA.AperFunction,ComponentPad*%
%ADD14C,1.635000*%
%TD*%
%TA.AperFunction,ComponentPad*%
%ADD15C,4.216000*%
%TD*%
%TA.AperFunction,ComponentPad*%
%ADD16C,2.800000*%
%TD*%
%TA.AperFunction,ComponentPad*%
%ADD17C,1.650000*%
%TD*%
%TA.AperFunction,ComponentPad*%
%ADD18C,2.159000*%
%TD*%
%TA.AperFunction,ComponentPad*%
%ADD19C,1.560000*%
%TD*%
%TA.AperFunction,ComponentPad*%
%ADD20R,2.800000X2.800000*%
%TD*%
%TA.AperFunction,ComponentPad*%
%ADD21C,4.800000*%
%TD*%
%TA.AperFunction,ViaPad*%
%ADD22C,0.600000*%
%TD*%
%TA.AperFunction,ViaPad*%
%ADD23C,1.000000*%
%TD*%
%TA.AperFunction,Conductor*%
%ADD24C,0.200000*%
%TD*%
G04 APERTURE END LIST*
D10*
%TO.N,/V_3p3_Supply*%
%TO.C,J3*%
X233167999Y-100035000D03*
D11*
%TO.N,/V_3p3_RTN*%
X235707999Y-97495000D03*
X230627999Y-97495000D03*
X230627999Y-102575000D03*
X235707999Y-102575000D03*
%TD*%
D12*
%TO.N,GNDPWR*%
%TO.C,H4*%
X230000000Y-133000000D03*
%TD*%
D13*
%TO.N,/V_TELEM*%
%TO.C,J1*%
X112570000Y-30510000D03*
%TO.N,/V_TELEM_RTN*%
X108760000Y-30510000D03*
%TO.N,/V_TELEM*%
X104950000Y-30510000D03*
%TD*%
D14*
%TO.N,/EN+*%
%TO.C,J4*%
X58400000Y-56090000D03*
%TO.N,/EN-*%
X58400000Y-53320000D03*
%TO.N,unconnected-(J4-Pad3)*%
X58400000Y-50550000D03*
%TO.N,/V_TELEM_RTN*%
X58400000Y-47780000D03*
%TO.N,/TEMP_Mon*%
X58400000Y-45010000D03*
%TO.N,/V_TELEM_RTN*%
X55560000Y-54705000D03*
%TO.N,/Volt_Mon*%
X55560000Y-51935000D03*
%TO.N,/V_TELEM_RTN*%
X55560000Y-49165000D03*
%TO.N,/Curr_Mon*%
X55560000Y-46395000D03*
D15*
%TO.N,GNDPWR*%
X56980000Y-38050000D03*
X56980000Y-63050000D03*
%TD*%
D12*
%TO.N,GNDPWR*%
%TO.C,H3*%
X230000000Y-29000000D03*
%TD*%
D16*
%TO.N,/V_3p3_RTN*%
%TO.C,3.3V_RTN1*%
X210000000Y-109000000D03*
%TD*%
D12*
%TO.N,GNDPWR*%
%TO.C,H1*%
X55000000Y-29000000D03*
%TD*%
%TO.N,GNDPWR*%
%TO.C,H2*%
X55000000Y-133000000D03*
%TD*%
D17*
%TO.N,Net-(U6-R)*%
%TO.C,J5*%
X82850000Y-59910000D03*
%TO.N,/EN_SIG*%
X82850000Y-57370000D03*
%TO.N,Net-(J5-Pad3)*%
X82850000Y-54830000D03*
%TD*%
D18*
%TO.N,Net-(P1-Pad1)*%
%TO.C,P1*%
X202250000Y-35660000D03*
%TD*%
D19*
%TO.N,/V_SEC_RTN*%
%TO.C,J2*%
X58480000Y-92490000D03*
X58480000Y-95260000D03*
%TO.N,unconnected-(J2-Pad3)*%
X58480000Y-98030000D03*
%TO.N,/V_SEC_RTN*%
X58480000Y-100800000D03*
X58480000Y-103570000D03*
%TO.N,/V_SEC_IN*%
X55640000Y-93875000D03*
X55640000Y-96645000D03*
X55640000Y-99415000D03*
X55640000Y-102185000D03*
D15*
%TO.N,GNDPWR*%
X57060000Y-85530000D03*
X57060000Y-110530000D03*
%TD*%
D16*
%TO.N,/V_TELEM*%
%TO.C,TELEM_PWR1*%
X139140000Y-53870000D03*
%TD*%
D18*
%TO.N,Net-(M3-Pad3)*%
%TO.C,P2*%
X202210000Y-50790000D03*
%TD*%
D16*
%TO.N,/V_3p3_Supply*%
%TO.C,3.3V1*%
X225000000Y-109000000D03*
%TD*%
%TO.N,/V_SEC_RTN*%
%TO.C,Secondary_RTN1*%
X79340000Y-88210000D03*
%TD*%
%TO.N,/V_SEC_IN*%
%TO.C,Secondary_PWR1*%
X69340000Y-113850000D03*
%TD*%
%TO.N,/V_TELEM_RTN*%
%TO.C,TELEM_RTN1*%
X119060000Y-53890000D03*
%TD*%
D20*
%TO.N,/Main_Converter/p12V*%
%TO.C,U1*%
X139890000Y-82255000D03*
D16*
%TO.N,Net-(U1-ON{slash}OFF)*%
X139890000Y-92415000D03*
%TO.N,GNDPWR*%
X139890000Y-107655000D03*
%TO.N,/Main_Converter/p12V_rtn*%
X139890000Y-117815000D03*
D21*
%TO.N,/V_3p3_RTN*%
X188140000Y-117815000D03*
D16*
X188140000Y-107655000D03*
%TO.N,unconnected-(U1-TRIM-Pad7)*%
X188140000Y-100035000D03*
%TO.N,/V_3p3_*%
X188140000Y-92415000D03*
D21*
X188140000Y-82255000D03*
%TD*%
D12*
%TO.N,GNDPWR*%
%TO.C,H5*%
X55000000Y-74000000D03*
%TD*%
D22*
%TO.N,/V_3p3_RTN*%
X195740000Y-114710000D03*
%TO.N,/V_SEC_RTN*%
X140000000Y-67500000D03*
X180000000Y-132500000D03*
X125000000Y-137500000D03*
X90000000Y-132500000D03*
X63640000Y-98915000D03*
X105000000Y-117500000D03*
X210000000Y-137500000D03*
X225000000Y-127500000D03*
X150000000Y-137500000D03*
X235000000Y-132500000D03*
X120000000Y-67500000D03*
X145000000Y-132500000D03*
X64640000Y-99915000D03*
X60000000Y-122500000D03*
X225000000Y-132500000D03*
X65000000Y-112500000D03*
X215000000Y-97500000D03*
X130000000Y-132500000D03*
X185000000Y-67500000D03*
X205000000Y-122500000D03*
X205000000Y-107500000D03*
X165000000Y-67500000D03*
X70000000Y-87500000D03*
X105000000Y-102500000D03*
X100000000Y-122500000D03*
X215000000Y-107500000D03*
X235000000Y-107500000D03*
X200000000Y-112500000D03*
X75000000Y-92500000D03*
X65640000Y-99915000D03*
X205000000Y-127500000D03*
X150000000Y-67500000D03*
X95000000Y-112500000D03*
X105000000Y-97500000D03*
X50000000Y-132500000D03*
X115000000Y-77500000D03*
X215000000Y-102500000D03*
X145000000Y-67500000D03*
X200000000Y-122500000D03*
X175000000Y-137500000D03*
X235000000Y-122500000D03*
X110000000Y-82500000D03*
X65000000Y-137500000D03*
X75000000Y-127500000D03*
X65000000Y-87500000D03*
X80000000Y-112500000D03*
X65000000Y-117500000D03*
X110000000Y-87500000D03*
X85000000Y-107500000D03*
X200000000Y-92500000D03*
X90000000Y-122500000D03*
X205000000Y-97500000D03*
X230000000Y-127500000D03*
X75000000Y-117500000D03*
X70000000Y-117500000D03*
X55000000Y-137500000D03*
X105000000Y-122500000D03*
X225000000Y-102500000D03*
X64640000Y-98915000D03*
X95000000Y-87500000D03*
X80000000Y-82500000D03*
X220000000Y-97500000D03*
X70000000Y-77500000D03*
X155000000Y-132500000D03*
X170000000Y-137500000D03*
X135000000Y-67500000D03*
X215000000Y-127500000D03*
X75000000Y-122500000D03*
X70000000Y-82500000D03*
X215000000Y-117500000D03*
X130000000Y-122500000D03*
X110000000Y-127500000D03*
X50000000Y-122500000D03*
X120000000Y-77500000D03*
X115000000Y-117500000D03*
X215000000Y-137500000D03*
X105000000Y-82500000D03*
X220000000Y-102500000D03*
X125000000Y-127500000D03*
X190000000Y-97500000D03*
X225000000Y-117500000D03*
X120000000Y-137500000D03*
X155000000Y-137500000D03*
X80000000Y-137500000D03*
X65000000Y-132500000D03*
X140000000Y-137500000D03*
X60000000Y-117500000D03*
X185000000Y-132500000D03*
X55000000Y-122500000D03*
X100000000Y-87500000D03*
X90000000Y-112500000D03*
X115000000Y-127500000D03*
X85000000Y-122500000D03*
X115000000Y-87500000D03*
X210000000Y-127500000D03*
X200000000Y-137500000D03*
X85000000Y-132500000D03*
X60000000Y-132500000D03*
X175000000Y-67500000D03*
X55000000Y-127500000D03*
X220000000Y-107500000D03*
X170000000Y-67500000D03*
X75000000Y-87500000D03*
X105000000Y-132500000D03*
X130000000Y-127500000D03*
X215000000Y-122500000D03*
X75000000Y-112500000D03*
X90000000Y-117500000D03*
X195000000Y-112500000D03*
X215000000Y-132500000D03*
X115000000Y-137500000D03*
X85000000Y-92500000D03*
X85000000Y-112500000D03*
X140000000Y-132500000D03*
X70000000Y-127500000D03*
X120000000Y-122500000D03*
X70000000Y-137500000D03*
X95000000Y-137500000D03*
X110000000Y-122500000D03*
X205000000Y-132500000D03*
X150000000Y-132500000D03*
X65640000Y-100915000D03*
X100000000Y-82500000D03*
X130000000Y-137500000D03*
X50000000Y-117500000D03*
X90000000Y-82500000D03*
X205000000Y-112500000D03*
X110000000Y-132500000D03*
X200000000Y-117500000D03*
X190000000Y-132500000D03*
X235000000Y-127500000D03*
X205000000Y-117500000D03*
X200000000Y-102500000D03*
X65000000Y-122500000D03*
X110000000Y-77500000D03*
X80000000Y-77500000D03*
X125000000Y-132500000D03*
X85000000Y-87500000D03*
X85000000Y-117500000D03*
X80000000Y-92500000D03*
X80000000Y-122500000D03*
X220000000Y-137500000D03*
X115000000Y-82500000D03*
X220000000Y-132500000D03*
X195000000Y-137500000D03*
X225000000Y-112500000D03*
X235000000Y-117500000D03*
X160000000Y-67500000D03*
X105000000Y-127500000D03*
X80000000Y-117500000D03*
X225000000Y-137500000D03*
X75000000Y-82500000D03*
X135000000Y-132500000D03*
X100510000Y-77730000D03*
X85000000Y-127500000D03*
X105000000Y-92500000D03*
X70000000Y-122500000D03*
X95000000Y-132500000D03*
X85000000Y-82500000D03*
X63640000Y-100915000D03*
X75000000Y-132500000D03*
X80000000Y-132500000D03*
X190000000Y-137500000D03*
X120000000Y-132500000D03*
X155000000Y-67500000D03*
X200000000Y-127500000D03*
X120000000Y-87500000D03*
X75000000Y-77500000D03*
X90000000Y-77500000D03*
X100000000Y-117500000D03*
X95000000Y-77500000D03*
X85000000Y-77500000D03*
X100000000Y-137500000D03*
X103820000Y-77760000D03*
X90000000Y-137500000D03*
X230000000Y-112500000D03*
X65000000Y-107500000D03*
X95000000Y-82500000D03*
X210000000Y-132500000D03*
X200000000Y-132500000D03*
X125000000Y-122500000D03*
X110000000Y-137500000D03*
X175000000Y-132500000D03*
X95000000Y-127500000D03*
X210000000Y-112500000D03*
X65000000Y-92500000D03*
X90000000Y-127500000D03*
X190000000Y-102500000D03*
X220000000Y-127500000D03*
X180000000Y-137500000D03*
X50000000Y-127500000D03*
X70000000Y-132500000D03*
X190000000Y-112500000D03*
X120000000Y-72500000D03*
X145000000Y-137500000D03*
X225000000Y-122500000D03*
X190000000Y-87500000D03*
X65000000Y-127500000D03*
X230000000Y-122500000D03*
X95000000Y-122500000D03*
X120000000Y-117500000D03*
X110000000Y-117500000D03*
X210000000Y-102500000D03*
X220000000Y-112500000D03*
X190000000Y-67500000D03*
X120000000Y-82500000D03*
X105000000Y-87500000D03*
X64640000Y-100915000D03*
X220000000Y-122500000D03*
X220000000Y-117500000D03*
X120000000Y-127500000D03*
X80000000Y-107500000D03*
X185000000Y-137500000D03*
X105000000Y-107500000D03*
X205000000Y-102500000D03*
X170000000Y-132500000D03*
X235000000Y-112500000D03*
X55000000Y-117500000D03*
X215000000Y-112500000D03*
X70000000Y-92500000D03*
X205000000Y-137500000D03*
X115000000Y-132500000D03*
X165000000Y-137500000D03*
X63640000Y-99915000D03*
X180000000Y-67500000D03*
X65000000Y-77500000D03*
X160000000Y-137500000D03*
X230000000Y-117500000D03*
X100000000Y-127500000D03*
X115000000Y-122500000D03*
X105000000Y-112500000D03*
X75000000Y-137500000D03*
X65640000Y-98915000D03*
X200000000Y-107500000D03*
X225000000Y-97500000D03*
X95000000Y-117500000D03*
X100000000Y-132500000D03*
X165000000Y-132500000D03*
X230000000Y-137500000D03*
X160000000Y-132500000D03*
X60000000Y-137500000D03*
X210000000Y-122500000D03*
X65000000Y-82500000D03*
X60000000Y-127500000D03*
X100000000Y-112500000D03*
X135000000Y-137500000D03*
X90000000Y-87500000D03*
X105000000Y-137500000D03*
X210000000Y-117500000D03*
X200000000Y-97500000D03*
X85000000Y-137500000D03*
X195000000Y-132500000D03*
X80000000Y-127500000D03*
D23*
%TO.N,GNDPWR*%
X155600000Y-105000000D03*
X155600000Y-90000000D03*
X175600000Y-115000000D03*
X165600000Y-100000000D03*
X165600000Y-125000000D03*
X160600000Y-90000000D03*
X155600000Y-85000000D03*
X155600000Y-95000000D03*
X155600000Y-100000000D03*
X145600000Y-110000000D03*
X165600000Y-110000000D03*
X145600000Y-125000000D03*
X155600000Y-120000000D03*
X145600000Y-85000000D03*
X165600000Y-95000000D03*
X150600000Y-95000000D03*
X170600000Y-105000000D03*
X150600000Y-125000000D03*
X145600000Y-75000000D03*
X160600000Y-80000000D03*
X175600000Y-125000000D03*
X180600000Y-85000000D03*
X165600000Y-120000000D03*
X160600000Y-110000000D03*
X170600000Y-95000000D03*
X155600000Y-110000000D03*
X165600000Y-90000000D03*
X160600000Y-125000000D03*
X165600000Y-105000000D03*
X180600000Y-80000000D03*
X165600000Y-85000000D03*
X150600000Y-120000000D03*
X150600000Y-105000000D03*
X160600000Y-85000000D03*
X155600000Y-115000000D03*
D22*
X195740000Y-120100000D03*
D23*
X145600000Y-80000000D03*
X170600000Y-115000000D03*
X170600000Y-120000000D03*
X160600000Y-120000000D03*
X145600000Y-100000000D03*
X155600000Y-125000000D03*
X165600000Y-115000000D03*
X175600000Y-85000000D03*
X145600000Y-105000000D03*
X160600000Y-115000000D03*
X145600000Y-90000000D03*
X180600000Y-95000000D03*
X175600000Y-120000000D03*
X180600000Y-105000000D03*
X180600000Y-120000000D03*
X180600000Y-125000000D03*
X150600000Y-85000000D03*
X150600000Y-90000000D03*
X180600000Y-100000000D03*
X170600000Y-100000000D03*
X175600000Y-80000000D03*
X175600000Y-105000000D03*
X145600000Y-120000000D03*
X170600000Y-85000000D03*
X150600000Y-115000000D03*
X170600000Y-110000000D03*
X165600000Y-75000000D03*
X175600000Y-75000000D03*
X175600000Y-90000000D03*
X175600000Y-100000000D03*
X175600000Y-95000000D03*
X180600000Y-90000000D03*
X180600000Y-115000000D03*
X165600000Y-80000000D03*
X170600000Y-80000000D03*
X175600000Y-110000000D03*
X150600000Y-75000000D03*
X170600000Y-75000000D03*
X155600000Y-75000000D03*
X160600000Y-105000000D03*
X180600000Y-75000000D03*
X150600000Y-80000000D03*
X145600000Y-115000000D03*
X160600000Y-100000000D03*
X170600000Y-90000000D03*
X145600000Y-95000000D03*
X155600000Y-80000000D03*
X180600000Y-110000000D03*
X160600000Y-95000000D03*
X160600000Y-75000000D03*
X170600000Y-125000000D03*
X150600000Y-100000000D03*
X150600000Y-110000000D03*
D22*
%TO.N,/Telemetry_CKT/V_3p3*%
X178720000Y-46280000D03*
X78060000Y-53520000D03*
X209942500Y-90557500D03*
X92320000Y-39413750D03*
X70660000Y-51810000D03*
%TO.N,/V_TELEM_RTN*%
X90000000Y-30000000D03*
X65000000Y-62500000D03*
X115000000Y-50000000D03*
X225000000Y-30000000D03*
X230000000Y-35000000D03*
X190000000Y-40000000D03*
X225490000Y-87530000D03*
X75000000Y-25000000D03*
X195000000Y-50000000D03*
X160000000Y-50000000D03*
X80000000Y-35000000D03*
X90000000Y-67500000D03*
X135000000Y-35000000D03*
X70000000Y-35000000D03*
X225000000Y-40000000D03*
X170000000Y-35000000D03*
X135000000Y-25000000D03*
X210000000Y-70000000D03*
X195000000Y-40000000D03*
X70000000Y-30000000D03*
X80000000Y-62500000D03*
X200000000Y-25000000D03*
X129445000Y-56015000D03*
X110000000Y-72500000D03*
X100000000Y-30000000D03*
X220000000Y-55000000D03*
X185000000Y-40000000D03*
X80000000Y-72500000D03*
X100000000Y-25000000D03*
X230000000Y-45000000D03*
X150000000Y-30000000D03*
X190000000Y-60000000D03*
X235000000Y-45000000D03*
X180680000Y-42480000D03*
X210000000Y-25000000D03*
X215000000Y-35000000D03*
X220000000Y-65000000D03*
X220000000Y-40000000D03*
X180000000Y-30000000D03*
X150000000Y-25000000D03*
X65000000Y-35000000D03*
X230000000Y-65000000D03*
X215000000Y-45000000D03*
X85925000Y-42348750D03*
X120000000Y-40000000D03*
X195000000Y-60000000D03*
X95000000Y-55000000D03*
X205000000Y-70000000D03*
X100000000Y-67500000D03*
X220000000Y-60000000D03*
X120000000Y-35000000D03*
X215000000Y-80000000D03*
X103800000Y-71110000D03*
X155000000Y-30000000D03*
X170000000Y-40000000D03*
X85000000Y-25000000D03*
X75000000Y-67500000D03*
X203895000Y-86000000D03*
X65000000Y-30000000D03*
X160000000Y-35000000D03*
X75000000Y-57500000D03*
X230000000Y-55000000D03*
X145000000Y-35000000D03*
X215000000Y-40000000D03*
X220000000Y-80000000D03*
X100000000Y-40000000D03*
X210000000Y-60000000D03*
X215000000Y-30000000D03*
X150000000Y-50000000D03*
X225000000Y-60000000D03*
X130000000Y-40000000D03*
X235000000Y-75000000D03*
X215000000Y-70000000D03*
X65000000Y-57500000D03*
X190000000Y-30000000D03*
X215000000Y-75000000D03*
X220000000Y-30000000D03*
X70000000Y-62500000D03*
X85000000Y-35000000D03*
X110000000Y-40000000D03*
X235000000Y-65000000D03*
X80000000Y-40000000D03*
X180000000Y-40000000D03*
X220000000Y-45000000D03*
X110000000Y-67500000D03*
X215000000Y-55000000D03*
X210000000Y-75000000D03*
X115000000Y-40000000D03*
X90000000Y-25000000D03*
X175000000Y-30000000D03*
X220000000Y-25000000D03*
X140000000Y-60000000D03*
X235000000Y-80000000D03*
X155000000Y-55000000D03*
X175000000Y-50000000D03*
X90000000Y-72500000D03*
X125000000Y-40000000D03*
X230000000Y-50000000D03*
X105000000Y-67500000D03*
X75000000Y-35000000D03*
X140000000Y-50000000D03*
X150000000Y-35000000D03*
X211992500Y-92067500D03*
X165000000Y-30000000D03*
X125000000Y-25000000D03*
X90000000Y-62500000D03*
X60000000Y-67500000D03*
X105000000Y-35000000D03*
X130000000Y-30000000D03*
X191550000Y-56280000D03*
X150000000Y-55000000D03*
X220000000Y-35000000D03*
X225000000Y-75000000D03*
X160000000Y-30000000D03*
X130000000Y-25000000D03*
X140000000Y-25000000D03*
X95000000Y-67500000D03*
X80000000Y-57500000D03*
X190000000Y-45000000D03*
X140000000Y-35000000D03*
X225000000Y-50000000D03*
X235000000Y-35000000D03*
X220000000Y-50000000D03*
X115000000Y-67500000D03*
X235000000Y-70000000D03*
X175000000Y-35000000D03*
X125000000Y-35000000D03*
X85000000Y-62500000D03*
X230000000Y-40000000D03*
X155000000Y-60000000D03*
X235000000Y-40000000D03*
X145000000Y-50000000D03*
X165000000Y-25000000D03*
X75000000Y-62500000D03*
X230000000Y-60000000D03*
X100510000Y-71110000D03*
X175370000Y-48180000D03*
X195000000Y-30000000D03*
X225000000Y-25000000D03*
X200000000Y-75000000D03*
X220000000Y-75000000D03*
X140000000Y-30000000D03*
X70000000Y-40000000D03*
X225000000Y-45000000D03*
X115000000Y-62500000D03*
X230000000Y-70000000D03*
X85000000Y-40000000D03*
X160000000Y-55000000D03*
X70000000Y-67500000D03*
X210000000Y-35000000D03*
X182970000Y-49590000D03*
X160000000Y-25000000D03*
X181920000Y-56560000D03*
X200000000Y-70000000D03*
X100000000Y-62500000D03*
X170000000Y-25000000D03*
X215000000Y-50000000D03*
X145000000Y-25000000D03*
X135000000Y-60000000D03*
X100000000Y-50000000D03*
X65000000Y-67500000D03*
X195000000Y-25000000D03*
X155000000Y-25000000D03*
X80000000Y-25000000D03*
X235000000Y-60000000D03*
X190000000Y-25000000D03*
X210000000Y-65000000D03*
X90000000Y-35000000D03*
X235000000Y-55000000D03*
X215000000Y-65000000D03*
X180000000Y-35000000D03*
X100620000Y-36243750D03*
X225000000Y-85000000D03*
X180000000Y-50000000D03*
X125000000Y-30000000D03*
X215000000Y-85000000D03*
X65000000Y-72500000D03*
X75000000Y-30000000D03*
X200000000Y-65000000D03*
X110000000Y-55000000D03*
X155000000Y-35000000D03*
X80000000Y-67500000D03*
X90000000Y-40000000D03*
X170000000Y-30000000D03*
X105000000Y-62500000D03*
X215000000Y-60000000D03*
X70000000Y-72500000D03*
X165000000Y-35000000D03*
X205000000Y-25000000D03*
X90290000Y-51528750D03*
X100000000Y-55000000D03*
X205000000Y-60000000D03*
X145000000Y-60000000D03*
X95000000Y-62500000D03*
X85000000Y-67500000D03*
X135000000Y-30000000D03*
X95000000Y-30000000D03*
X235000000Y-50000000D03*
X90000000Y-55000000D03*
X185000000Y-25000000D03*
X115000000Y-55000000D03*
X230000000Y-80000000D03*
X195000000Y-45000000D03*
X65000000Y-25000000D03*
X105000000Y-40000000D03*
X95000000Y-72500000D03*
X75000000Y-40000000D03*
X215000000Y-25000000D03*
X60000000Y-25000000D03*
X185000000Y-30000000D03*
X95000000Y-25000000D03*
X225000000Y-55000000D03*
X200000000Y-60000000D03*
X170000000Y-55000000D03*
X80000000Y-30000000D03*
X225000000Y-65000000D03*
X105000000Y-55000000D03*
X205000000Y-75000000D03*
X145000000Y-55000000D03*
X130000000Y-35000000D03*
X205000000Y-65000000D03*
X120000000Y-30000000D03*
X67240000Y-51790000D03*
X185000000Y-55000000D03*
X115000000Y-35000000D03*
X225000000Y-35000000D03*
X230000000Y-85000000D03*
X110000000Y-62500000D03*
X110000000Y-35000000D03*
X160000000Y-60000000D03*
X65000000Y-40000000D03*
X75000000Y-72500000D03*
X110000000Y-50000000D03*
X190000000Y-50000000D03*
X85000000Y-72500000D03*
X85000000Y-30000000D03*
X220000000Y-85000000D03*
X180000000Y-25000000D03*
X123085000Y-53875000D03*
X120000000Y-25000000D03*
X225000000Y-70000000D03*
X185000000Y-35000000D03*
X150000000Y-60000000D03*
X225000000Y-80000000D03*
X210000000Y-30000000D03*
X165000000Y-40000000D03*
X220000000Y-70000000D03*
X70000000Y-25000000D03*
X180000000Y-55000000D03*
X175000000Y-55000000D03*
X175000000Y-25000000D03*
X115000000Y-72500000D03*
X105000000Y-50000000D03*
X230000000Y-75000000D03*
X155000000Y-50000000D03*
X145000000Y-30000000D03*
X235000000Y-85000000D03*
X60000000Y-30000000D03*
%TO.N,/V_TELEM*%
X132995000Y-57515000D03*
X203895000Y-80705000D03*
X190660000Y-35650000D03*
X94625000Y-49768750D03*
X134635000Y-50235000D03*
%TO.N,/Volt_Mon*%
X167060000Y-47780000D03*
X61950000Y-51940000D03*
X61950000Y-47780000D03*
%TO.N,/TEMP_Mon*%
X168740000Y-45010000D03*
%TO.N,/Curr_Mon*%
X165180000Y-46395000D03*
%TO.N,Net-(U1-ON{slash}OFF)*%
X125115000Y-73965000D03*
X125115000Y-92445000D03*
%TO.N,/Main_Converter/p12V*%
X129510000Y-82250000D03*
%TO.N,Net-(U3-OUT)*%
X208500000Y-57730000D03*
X185330000Y-57730000D03*
%TO.N,Net-(U4A-+INA)*%
X186060000Y-43740000D03*
X222360000Y-43780000D03*
%TO.N,/Telemetry_CKT/TEMP*%
X206016577Y-80710531D03*
X206020000Y-41070000D03*
X175110000Y-41070000D03*
%TO.N,/Main_Converter/p12V_rtn*%
X123515000Y-117775000D03*
X123515000Y-71945000D03*
%TD*%
D24*
%TO.N,/V_TELEM_RTN*%
X123080000Y-53870000D02*
X123085000Y-53875000D01*
X123070000Y-53890000D02*
X119060000Y-53890000D01*
%TO.N,/V_TELEM*%
X135505000Y-50235000D02*
X139140000Y-53870000D01*
X134635000Y-50235000D02*
X135505000Y-50235000D01*
%TO.N,/Volt_Mon*%
X61945000Y-51935000D02*
X61950000Y-51940000D01*
X165190000Y-47780000D02*
X167060000Y-47780000D01*
X55560000Y-51935000D02*
X61945000Y-51935000D01*
X61950000Y-47780000D02*
X165190000Y-47780000D01*
%TO.N,/TEMP_Mon*%
X58400000Y-45010000D02*
X168740000Y-45010000D01*
%TO.N,/Curr_Mon*%
X55560000Y-46395000D02*
X165180000Y-46395000D01*
%TO.N,Net-(U1-ON{slash}OFF)*%
X139860000Y-92445000D02*
X139890000Y-92415000D01*
X125115000Y-92445000D02*
X139860000Y-92445000D01*
%TO.N,/Main_Converter/p12V*%
X139890000Y-82255000D02*
X129515000Y-82255000D01*
X129515000Y-82255000D02*
X129510000Y-82250000D01*
%TO.N,Net-(U3-OUT)*%
X185330000Y-57730000D02*
X185320000Y-57730000D01*
X208500000Y-57730000D02*
X185330000Y-57730000D01*
%TO.N,Net-(U4A-+INA)*%
X186100000Y-43780000D02*
X186060000Y-43740000D01*
X222360000Y-43780000D02*
X186100000Y-43780000D01*
%TO.N,/Telemetry_CKT/TEMP*%
X206020000Y-41070000D02*
X175110000Y-41070000D01*
%TO.N,/Main_Converter/p12V_rtn*%
X123515000Y-117775000D02*
X139850000Y-117775000D01*
X139850000Y-117775000D02*
X139890000Y-117815000D01*
%TD*%
%TA.AperFunction,Conductor*%
%TO.N,GNDPWR*%
G36*
X191004418Y-70000316D02*
G01*
X191275790Y-70019724D01*
X191293291Y-70022241D01*
X191554803Y-70079129D01*
X191571762Y-70084108D01*
X191822524Y-70177638D01*
X191838616Y-70184987D01*
X192073501Y-70313244D01*
X192088375Y-70322802D01*
X192302624Y-70483188D01*
X192315994Y-70494774D01*
X192505225Y-70684005D01*
X192516811Y-70697375D01*
X192677193Y-70911619D01*
X192686758Y-70926503D01*
X192815011Y-71161382D01*
X192822361Y-71177475D01*
X192915888Y-71428229D01*
X192920872Y-71445205D01*
X192977757Y-71706702D01*
X192980275Y-71724214D01*
X192999684Y-71995581D01*
X193000000Y-72004427D01*
X193000000Y-75995572D01*
X192999684Y-76004418D01*
X192980275Y-76275785D01*
X192977757Y-76293297D01*
X192920872Y-76554794D01*
X192915888Y-76571770D01*
X192822361Y-76822524D01*
X192815011Y-76838617D01*
X192686758Y-77073496D01*
X192677193Y-77088380D01*
X192516811Y-77302624D01*
X192505225Y-77315994D01*
X192315994Y-77505225D01*
X192302624Y-77516811D01*
X192088380Y-77677193D01*
X192073496Y-77686758D01*
X191838617Y-77815011D01*
X191822524Y-77822361D01*
X191571770Y-77915888D01*
X191554794Y-77920872D01*
X191293297Y-77977757D01*
X191275785Y-77980275D01*
X191004418Y-77999684D01*
X190995572Y-78000000D01*
X184000000Y-78000000D01*
X184000000Y-123000000D01*
X190995572Y-123000000D01*
X191004418Y-123000316D01*
X191275790Y-123019724D01*
X191293291Y-123022241D01*
X191554803Y-123079129D01*
X191571762Y-123084108D01*
X191822087Y-123177475D01*
X191822524Y-123177638D01*
X191838616Y-123184987D01*
X192073501Y-123313244D01*
X192088375Y-123322802D01*
X192240303Y-123436535D01*
X192302624Y-123483188D01*
X192315994Y-123494774D01*
X192505225Y-123684005D01*
X192516811Y-123697375D01*
X192677193Y-123911619D01*
X192686758Y-123926503D01*
X192815011Y-124161382D01*
X192822361Y-124177475D01*
X192915888Y-124428229D01*
X192920872Y-124445205D01*
X192977757Y-124706702D01*
X192980275Y-124724214D01*
X192999684Y-124995581D01*
X193000000Y-125004427D01*
X193000000Y-127995572D01*
X192999684Y-128004418D01*
X192980275Y-128275785D01*
X192977757Y-128293297D01*
X192920872Y-128554794D01*
X192915888Y-128571770D01*
X192822361Y-128822524D01*
X192815011Y-128838617D01*
X192686758Y-129073496D01*
X192677193Y-129088380D01*
X192516811Y-129302624D01*
X192505225Y-129315994D01*
X192315994Y-129505225D01*
X192302624Y-129516811D01*
X192088380Y-129677193D01*
X192073496Y-129686758D01*
X191838617Y-129815011D01*
X191822524Y-129822361D01*
X191571770Y-129915888D01*
X191554794Y-129920872D01*
X191293297Y-129977757D01*
X191275785Y-129980275D01*
X191004418Y-129999684D01*
X190995572Y-130000000D01*
X137004428Y-130000000D01*
X136995582Y-129999684D01*
X136724214Y-129980275D01*
X136706702Y-129977757D01*
X136445205Y-129920872D01*
X136428229Y-129915888D01*
X136177475Y-129822361D01*
X136161382Y-129815011D01*
X135926503Y-129686758D01*
X135911619Y-129677193D01*
X135697375Y-129516811D01*
X135684005Y-129505225D01*
X135494774Y-129315994D01*
X135483188Y-129302624D01*
X135322802Y-129088375D01*
X135313244Y-129073501D01*
X135184987Y-128838616D01*
X135177638Y-128822524D01*
X135084108Y-128571762D01*
X135079129Y-128554803D01*
X135022241Y-128293291D01*
X135019724Y-128275785D01*
X135000316Y-128004418D01*
X135000000Y-127995572D01*
X135000000Y-125303872D01*
X137889500Y-125303872D01*
X137889500Y-125566127D01*
X137916123Y-125768339D01*
X137923730Y-125826116D01*
X137991602Y-126079418D01*
X137991605Y-126079428D01*
X138091953Y-126321690D01*
X138091958Y-126321700D01*
X138223075Y-126548803D01*
X138382718Y-126756851D01*
X138382726Y-126756860D01*
X138568140Y-126942274D01*
X138568148Y-126942281D01*
X138776196Y-127101924D01*
X139003299Y-127233041D01*
X139003309Y-127233046D01*
X139245571Y-127333394D01*
X139245581Y-127333398D01*
X139498884Y-127401270D01*
X139758880Y-127435500D01*
X139758887Y-127435500D01*
X140021113Y-127435500D01*
X140021120Y-127435500D01*
X140281116Y-127401270D01*
X140534419Y-127333398D01*
X140776697Y-127233043D01*
X141003803Y-127101924D01*
X141211851Y-126942282D01*
X141211855Y-126942277D01*
X141211860Y-126942274D01*
X141397274Y-126756860D01*
X141397277Y-126756855D01*
X141397282Y-126756851D01*
X141556924Y-126548803D01*
X141688043Y-126321697D01*
X141788398Y-126079419D01*
X141856270Y-125826116D01*
X141890500Y-125566120D01*
X141890500Y-125303880D01*
X141890499Y-125303872D01*
X186139500Y-125303872D01*
X186139500Y-125566127D01*
X186166123Y-125768339D01*
X186173730Y-125826116D01*
X186241602Y-126079418D01*
X186241605Y-126079428D01*
X186341953Y-126321690D01*
X186341958Y-126321700D01*
X186473075Y-126548803D01*
X186632718Y-126756851D01*
X186632726Y-126756860D01*
X186818140Y-126942274D01*
X186818148Y-126942281D01*
X187026196Y-127101924D01*
X187253299Y-127233041D01*
X187253309Y-127233046D01*
X187495571Y-127333394D01*
X187495581Y-127333398D01*
X187748884Y-127401270D01*
X188008880Y-127435500D01*
X188008887Y-127435500D01*
X188271113Y-127435500D01*
X188271120Y-127435500D01*
X188531116Y-127401270D01*
X188784419Y-127333398D01*
X189026697Y-127233043D01*
X189253803Y-127101924D01*
X189461851Y-126942282D01*
X189461855Y-126942277D01*
X189461860Y-126942274D01*
X189647274Y-126756860D01*
X189647277Y-126756855D01*
X189647282Y-126756851D01*
X189806924Y-126548803D01*
X189938043Y-126321697D01*
X190038398Y-126079419D01*
X190106270Y-125826116D01*
X190140500Y-125566120D01*
X190140500Y-125303880D01*
X190106270Y-125043884D01*
X190038398Y-124790581D01*
X190003654Y-124706702D01*
X189938046Y-124548309D01*
X189938041Y-124548299D01*
X189806924Y-124321196D01*
X189647281Y-124113148D01*
X189647274Y-124113140D01*
X189461860Y-123927726D01*
X189461851Y-123927718D01*
X189253803Y-123768075D01*
X189026700Y-123636958D01*
X189026690Y-123636953D01*
X188784428Y-123536605D01*
X188784421Y-123536603D01*
X188784419Y-123536602D01*
X188531116Y-123468730D01*
X188473339Y-123461123D01*
X188271127Y-123434500D01*
X188271120Y-123434500D01*
X188008880Y-123434500D01*
X188008872Y-123434500D01*
X187777772Y-123464926D01*
X187748884Y-123468730D01*
X187495581Y-123536602D01*
X187495571Y-123536605D01*
X187253309Y-123636953D01*
X187253299Y-123636958D01*
X187026196Y-123768075D01*
X186818148Y-123927718D01*
X186632718Y-124113148D01*
X186473075Y-124321196D01*
X186341958Y-124548299D01*
X186341953Y-124548309D01*
X186241605Y-124790571D01*
X186241602Y-124790581D01*
X186184303Y-125004427D01*
X186173730Y-125043885D01*
X186139500Y-125303872D01*
X141890499Y-125303872D01*
X141856270Y-125043884D01*
X141788398Y-124790581D01*
X141753654Y-124706702D01*
X141688046Y-124548309D01*
X141688041Y-124548299D01*
X141556924Y-124321196D01*
X141397281Y-124113148D01*
X141397274Y-124113140D01*
X141211860Y-123927726D01*
X141211851Y-123927718D01*
X141003803Y-123768075D01*
X140776700Y-123636958D01*
X140776690Y-123636953D01*
X140534428Y-123536605D01*
X140534421Y-123536603D01*
X140534419Y-123536602D01*
X140281116Y-123468730D01*
X140223339Y-123461123D01*
X140021127Y-123434500D01*
X140021120Y-123434500D01*
X139758880Y-123434500D01*
X139758872Y-123434500D01*
X139527772Y-123464926D01*
X139498884Y-123468730D01*
X139245581Y-123536602D01*
X139245571Y-123536605D01*
X139003309Y-123636953D01*
X139003299Y-123636958D01*
X138776196Y-123768075D01*
X138568148Y-123927718D01*
X138382718Y-124113148D01*
X138223075Y-124321196D01*
X138091958Y-124548299D01*
X138091953Y-124548309D01*
X137991605Y-124790571D01*
X137991602Y-124790581D01*
X137934303Y-125004427D01*
X137923730Y-125043885D01*
X137889500Y-125303872D01*
X135000000Y-125303872D01*
X135000000Y-124004427D01*
X135000316Y-123995581D01*
X135005170Y-123927718D01*
X135019724Y-123724207D01*
X135022240Y-123706710D01*
X135079130Y-123445192D01*
X135084107Y-123428241D01*
X135177640Y-123177470D01*
X135184985Y-123161388D01*
X135313248Y-122926491D01*
X135322798Y-122911630D01*
X135483195Y-122697366D01*
X135494767Y-122684012D01*
X135684012Y-122494767D01*
X135697366Y-122483195D01*
X135911630Y-122322798D01*
X135926491Y-122313248D01*
X136161388Y-122184985D01*
X136177470Y-122177640D01*
X136428241Y-122084107D01*
X136445192Y-122079130D01*
X136706710Y-122022240D01*
X136724207Y-122019724D01*
X136995582Y-122000316D01*
X137004428Y-122000000D01*
X143000000Y-122000000D01*
X143000000Y-111000000D01*
X141000000Y-111000000D01*
X138004428Y-111000000D01*
X137995582Y-110999684D01*
X137724214Y-110980275D01*
X137706702Y-110977757D01*
X137445205Y-110920872D01*
X137428229Y-110915888D01*
X137177475Y-110822361D01*
X137161382Y-110815011D01*
X136926503Y-110686758D01*
X136911619Y-110677193D01*
X136697375Y-110516811D01*
X136684005Y-110505225D01*
X136494774Y-110315994D01*
X136483188Y-110302624D01*
X136322802Y-110088375D01*
X136313244Y-110073501D01*
X136184987Y-109838616D01*
X136177638Y-109822524D01*
X136084108Y-109571762D01*
X136079129Y-109554803D01*
X136022241Y-109293291D01*
X136019724Y-109275785D01*
X136000316Y-109004418D01*
X136000000Y-108995572D01*
X136000000Y-106004427D01*
X136000316Y-105995581D01*
X136019724Y-105724214D01*
X136022240Y-105706710D01*
X136079130Y-105445192D01*
X136084107Y-105428241D01*
X136177640Y-105177470D01*
X136184985Y-105161388D01*
X136313248Y-104926491D01*
X136322798Y-104911630D01*
X136483195Y-104697366D01*
X136494767Y-104684012D01*
X136684012Y-104494767D01*
X136697366Y-104483195D01*
X136911630Y-104322798D01*
X136926491Y-104313248D01*
X137161388Y-104184985D01*
X137177470Y-104177640D01*
X137428241Y-104084107D01*
X137445192Y-104079130D01*
X137706710Y-104022240D01*
X137724207Y-104019724D01*
X137995582Y-104000316D01*
X138004428Y-104000000D01*
X143000000Y-104000000D01*
X143000000Y-79000000D01*
X141000000Y-79000000D01*
X137004428Y-79000000D01*
X136995582Y-78999684D01*
X136724214Y-78980275D01*
X136706702Y-78977757D01*
X136445205Y-78920872D01*
X136428229Y-78915888D01*
X136177475Y-78822361D01*
X136161382Y-78815011D01*
X135926503Y-78686758D01*
X135911619Y-78677193D01*
X135697375Y-78516811D01*
X135684005Y-78505225D01*
X135494774Y-78315994D01*
X135483188Y-78302624D01*
X135322802Y-78088375D01*
X135313244Y-78073501D01*
X135184987Y-77838616D01*
X135177638Y-77822524D01*
X135123432Y-77677193D01*
X135084108Y-77571762D01*
X135079129Y-77554803D01*
X135022241Y-77293291D01*
X135019724Y-77275785D01*
X135005256Y-77073496D01*
X135000316Y-77004418D01*
X135000000Y-76995572D01*
X135000000Y-74503872D01*
X137889500Y-74503872D01*
X137889500Y-74766127D01*
X137916123Y-74968339D01*
X137923730Y-75026116D01*
X137991602Y-75279418D01*
X137991605Y-75279428D01*
X138091953Y-75521690D01*
X138091958Y-75521700D01*
X138223075Y-75748803D01*
X138382718Y-75956851D01*
X138382726Y-75956860D01*
X138568140Y-76142274D01*
X138568148Y-76142281D01*
X138776196Y-76301924D01*
X139003299Y-76433041D01*
X139003309Y-76433046D01*
X139245571Y-76533394D01*
X139245581Y-76533398D01*
X139498884Y-76601270D01*
X139758880Y-76635500D01*
X139758887Y-76635500D01*
X140021113Y-76635500D01*
X140021120Y-76635500D01*
X140281116Y-76601270D01*
X140534419Y-76533398D01*
X140776697Y-76433043D01*
X141003803Y-76301924D01*
X141211851Y-76142282D01*
X141211855Y-76142277D01*
X141211860Y-76142274D01*
X141397274Y-75956860D01*
X141397277Y-75956855D01*
X141397282Y-75956851D01*
X141556924Y-75748803D01*
X141688043Y-75521697D01*
X141788398Y-75279419D01*
X141856270Y-75026116D01*
X141890500Y-74766120D01*
X141890500Y-74503880D01*
X141890499Y-74503872D01*
X186139500Y-74503872D01*
X186139500Y-74766127D01*
X186166123Y-74968339D01*
X186173730Y-75026116D01*
X186241602Y-75279418D01*
X186241605Y-75279428D01*
X186341953Y-75521690D01*
X186341958Y-75521700D01*
X186473075Y-75748803D01*
X186632718Y-75956851D01*
X186632726Y-75956860D01*
X186818140Y-76142274D01*
X186818148Y-76142281D01*
X187026196Y-76301924D01*
X187253299Y-76433041D01*
X187253309Y-76433046D01*
X187495571Y-76533394D01*
X187495581Y-76533398D01*
X187748884Y-76601270D01*
X188008880Y-76635500D01*
X188008887Y-76635500D01*
X188271113Y-76635500D01*
X188271120Y-76635500D01*
X188531116Y-76601270D01*
X188784419Y-76533398D01*
X189026697Y-76433043D01*
X189253803Y-76301924D01*
X189461851Y-76142282D01*
X189461855Y-76142277D01*
X189461860Y-76142274D01*
X189647274Y-75956860D01*
X189647277Y-75956855D01*
X189647282Y-75956851D01*
X189806924Y-75748803D01*
X189938043Y-75521697D01*
X190038398Y-75279419D01*
X190106270Y-75026116D01*
X190140500Y-74766120D01*
X190140500Y-74503880D01*
X190106270Y-74243884D01*
X190038398Y-73990581D01*
X190038394Y-73990571D01*
X189938046Y-73748309D01*
X189938041Y-73748299D01*
X189806924Y-73521196D01*
X189647281Y-73313148D01*
X189647274Y-73313140D01*
X189461860Y-73127726D01*
X189461851Y-73127718D01*
X189253803Y-72968075D01*
X189026700Y-72836958D01*
X189026690Y-72836953D01*
X188784428Y-72736605D01*
X188784421Y-72736603D01*
X188784419Y-72736602D01*
X188531116Y-72668730D01*
X188473339Y-72661123D01*
X188271127Y-72634500D01*
X188271120Y-72634500D01*
X188008880Y-72634500D01*
X188008872Y-72634500D01*
X187777772Y-72664926D01*
X187748884Y-72668730D01*
X187495581Y-72736602D01*
X187495571Y-72736605D01*
X187253309Y-72836953D01*
X187253299Y-72836958D01*
X187026196Y-72968075D01*
X186818148Y-73127718D01*
X186632718Y-73313148D01*
X186473075Y-73521196D01*
X186341958Y-73748299D01*
X186341953Y-73748309D01*
X186241605Y-73990571D01*
X186241602Y-73990581D01*
X186173730Y-74243885D01*
X186139500Y-74503872D01*
X141890499Y-74503872D01*
X141856270Y-74243884D01*
X141788398Y-73990581D01*
X141788394Y-73990571D01*
X141688046Y-73748309D01*
X141688041Y-73748299D01*
X141556924Y-73521196D01*
X141397281Y-73313148D01*
X141397274Y-73313140D01*
X141211860Y-73127726D01*
X141211851Y-73127718D01*
X141003803Y-72968075D01*
X140776700Y-72836958D01*
X140776690Y-72836953D01*
X140534428Y-72736605D01*
X140534421Y-72736603D01*
X140534419Y-72736602D01*
X140281116Y-72668730D01*
X140223339Y-72661123D01*
X140021127Y-72634500D01*
X140021120Y-72634500D01*
X139758880Y-72634500D01*
X139758872Y-72634500D01*
X139527772Y-72664926D01*
X139498884Y-72668730D01*
X139245581Y-72736602D01*
X139245571Y-72736605D01*
X139003309Y-72836953D01*
X139003299Y-72836958D01*
X138776196Y-72968075D01*
X138568148Y-73127718D01*
X138382718Y-73313148D01*
X138223075Y-73521196D01*
X138091958Y-73748299D01*
X138091953Y-73748309D01*
X137991605Y-73990571D01*
X137991602Y-73990581D01*
X137923730Y-74243885D01*
X137889500Y-74503872D01*
X135000000Y-74503872D01*
X135000000Y-72004427D01*
X135000316Y-71995581D01*
X135019724Y-71724214D01*
X135022240Y-71706710D01*
X135079130Y-71445192D01*
X135084107Y-71428241D01*
X135177640Y-71177470D01*
X135184985Y-71161388D01*
X135313248Y-70926491D01*
X135322798Y-70911630D01*
X135483195Y-70697366D01*
X135494767Y-70684012D01*
X135684012Y-70494767D01*
X135697366Y-70483195D01*
X135911630Y-70322798D01*
X135926491Y-70313248D01*
X136161388Y-70184985D01*
X136177470Y-70177640D01*
X136428241Y-70084107D01*
X136445192Y-70079130D01*
X136706710Y-70022240D01*
X136724207Y-70019724D01*
X136995582Y-70000316D01*
X137004428Y-70000000D01*
X190995572Y-70000000D01*
X191004418Y-70000316D01*
G37*
%TD.AperFunction*%
%TD*%
M02*
