%TF.GenerationSoftware,KiCad,Pcbnew,9.0.3*%
%TF.CreationDate,2025-09-16T13:25:35-04:00*%
%TF.ProjectId,CAEN_NEVIS_DAQ_3p3V,4341454e-5f4e-4455-9649-535f4441515f,rev?*%
%TF.SameCoordinates,Original*%
%TF.FileFunction,AssemblyDrawing,Bot*%
%FSLAX46Y46*%
G04 Gerber Fmt 4.6, Leading zero omitted, Abs format (unit mm)*
G04 Created by KiCad (PCBNEW 9.0.3) date 2025-09-16 13:25:35*
%MOMM*%
%LPD*%
G01*
G04 APERTURE LIST*
%ADD10C,0.150000*%
%ADD11C,0.080000*%
%ADD12C,0.060000*%
%ADD13C,0.040000*%
%ADD14C,0.100000*%
%ADD15C,0.025400*%
G04 APERTURE END LIST*
D10*
X196269819Y-99519761D02*
X196269819Y-98948333D01*
X196269819Y-99234047D02*
X195269819Y-99234047D01*
X195269819Y-99234047D02*
X195412676Y-99138809D01*
X195412676Y-99138809D02*
X195507914Y-99043571D01*
X195507914Y-99043571D02*
X195555533Y-98948333D01*
X195603152Y-100376904D02*
X196269819Y-100376904D01*
X195603152Y-99948333D02*
X196126961Y-99948333D01*
X196126961Y-99948333D02*
X196222200Y-99995952D01*
X196222200Y-99995952D02*
X196269819Y-100091190D01*
X196269819Y-100091190D02*
X196269819Y-100234047D01*
X196269819Y-100234047D02*
X196222200Y-100329285D01*
X196222200Y-100329285D02*
X196174580Y-100376904D01*
X195746009Y-101186428D02*
X195746009Y-100853095D01*
X196269819Y-100853095D02*
X195269819Y-100853095D01*
X195269819Y-100853095D02*
X195269819Y-101329285D01*
D11*
X197674530Y-99793571D02*
X197698340Y-99769762D01*
X197698340Y-99769762D02*
X197722149Y-99698333D01*
X197722149Y-99698333D02*
X197722149Y-99650714D01*
X197722149Y-99650714D02*
X197698340Y-99579286D01*
X197698340Y-99579286D02*
X197650720Y-99531667D01*
X197650720Y-99531667D02*
X197603101Y-99507857D01*
X197603101Y-99507857D02*
X197507863Y-99484048D01*
X197507863Y-99484048D02*
X197436435Y-99484048D01*
X197436435Y-99484048D02*
X197341197Y-99507857D01*
X197341197Y-99507857D02*
X197293578Y-99531667D01*
X197293578Y-99531667D02*
X197245959Y-99579286D01*
X197245959Y-99579286D02*
X197222149Y-99650714D01*
X197222149Y-99650714D02*
X197222149Y-99698333D01*
X197222149Y-99698333D02*
X197245959Y-99769762D01*
X197245959Y-99769762D02*
X197269768Y-99793571D01*
X197722149Y-100269762D02*
X197722149Y-99984048D01*
X197722149Y-100126905D02*
X197222149Y-100126905D01*
X197222149Y-100126905D02*
X197293578Y-100079286D01*
X197293578Y-100079286D02*
X197341197Y-100031667D01*
X197341197Y-100031667D02*
X197365006Y-99984048D01*
X197222149Y-100579285D02*
X197222149Y-100626904D01*
X197222149Y-100626904D02*
X197245959Y-100674523D01*
X197245959Y-100674523D02*
X197269768Y-100698333D01*
X197269768Y-100698333D02*
X197317387Y-100722142D01*
X197317387Y-100722142D02*
X197412625Y-100745952D01*
X197412625Y-100745952D02*
X197531673Y-100745952D01*
X197531673Y-100745952D02*
X197626911Y-100722142D01*
X197626911Y-100722142D02*
X197674530Y-100698333D01*
X197674530Y-100698333D02*
X197698340Y-100674523D01*
X197698340Y-100674523D02*
X197722149Y-100626904D01*
X197722149Y-100626904D02*
X197722149Y-100579285D01*
X197722149Y-100579285D02*
X197698340Y-100531666D01*
X197698340Y-100531666D02*
X197674530Y-100507857D01*
X197674530Y-100507857D02*
X197626911Y-100484047D01*
X197626911Y-100484047D02*
X197531673Y-100460238D01*
X197531673Y-100460238D02*
X197412625Y-100460238D01*
X197412625Y-100460238D02*
X197317387Y-100484047D01*
X197317387Y-100484047D02*
X197269768Y-100507857D01*
X197269768Y-100507857D02*
X197245959Y-100531666D01*
X197245959Y-100531666D02*
X197222149Y-100579285D01*
D10*
X190319819Y-97935952D02*
X190319819Y-98031190D01*
X190319819Y-98031190D02*
X190367438Y-98126428D01*
X190367438Y-98126428D02*
X190415057Y-98174047D01*
X190415057Y-98174047D02*
X190510295Y-98221666D01*
X190510295Y-98221666D02*
X190700771Y-98269285D01*
X190700771Y-98269285D02*
X190938866Y-98269285D01*
X190938866Y-98269285D02*
X191129342Y-98221666D01*
X191129342Y-98221666D02*
X191224580Y-98174047D01*
X191224580Y-98174047D02*
X191272200Y-98126428D01*
X191272200Y-98126428D02*
X191319819Y-98031190D01*
X191319819Y-98031190D02*
X191319819Y-97935952D01*
X191319819Y-97935952D02*
X191272200Y-97840714D01*
X191272200Y-97840714D02*
X191224580Y-97793095D01*
X191224580Y-97793095D02*
X191129342Y-97745476D01*
X191129342Y-97745476D02*
X190938866Y-97697857D01*
X190938866Y-97697857D02*
X190700771Y-97697857D01*
X190700771Y-97697857D02*
X190510295Y-97745476D01*
X190510295Y-97745476D02*
X190415057Y-97793095D01*
X190415057Y-97793095D02*
X190367438Y-97840714D01*
X190367438Y-97840714D02*
X190319819Y-97935952D01*
X191224580Y-98697857D02*
X191272200Y-98745476D01*
X191272200Y-98745476D02*
X191319819Y-98697857D01*
X191319819Y-98697857D02*
X191272200Y-98650238D01*
X191272200Y-98650238D02*
X191224580Y-98697857D01*
X191224580Y-98697857D02*
X191319819Y-98697857D01*
X190319819Y-99364523D02*
X190319819Y-99459761D01*
X190319819Y-99459761D02*
X190367438Y-99554999D01*
X190367438Y-99554999D02*
X190415057Y-99602618D01*
X190415057Y-99602618D02*
X190510295Y-99650237D01*
X190510295Y-99650237D02*
X190700771Y-99697856D01*
X190700771Y-99697856D02*
X190938866Y-99697856D01*
X190938866Y-99697856D02*
X191129342Y-99650237D01*
X191129342Y-99650237D02*
X191224580Y-99602618D01*
X191224580Y-99602618D02*
X191272200Y-99554999D01*
X191272200Y-99554999D02*
X191319819Y-99459761D01*
X191319819Y-99459761D02*
X191319819Y-99364523D01*
X191319819Y-99364523D02*
X191272200Y-99269285D01*
X191272200Y-99269285D02*
X191224580Y-99221666D01*
X191224580Y-99221666D02*
X191129342Y-99174047D01*
X191129342Y-99174047D02*
X190938866Y-99126428D01*
X190938866Y-99126428D02*
X190700771Y-99126428D01*
X190700771Y-99126428D02*
X190510295Y-99174047D01*
X190510295Y-99174047D02*
X190415057Y-99221666D01*
X190415057Y-99221666D02*
X190367438Y-99269285D01*
X190367438Y-99269285D02*
X190319819Y-99364523D01*
X191319819Y-100650237D02*
X191319819Y-100078809D01*
X191319819Y-100364523D02*
X190319819Y-100364523D01*
X190319819Y-100364523D02*
X190462676Y-100269285D01*
X190462676Y-100269285D02*
X190557914Y-100174047D01*
X190557914Y-100174047D02*
X190605533Y-100078809D01*
X190653152Y-101507380D02*
X191319819Y-101507380D01*
X190653152Y-101078809D02*
X191176961Y-101078809D01*
X191176961Y-101078809D02*
X191272200Y-101126428D01*
X191272200Y-101126428D02*
X191319819Y-101221666D01*
X191319819Y-101221666D02*
X191319819Y-101364523D01*
X191319819Y-101364523D02*
X191272200Y-101459761D01*
X191272200Y-101459761D02*
X191224580Y-101507380D01*
X190796009Y-102316904D02*
X190796009Y-101983571D01*
X191319819Y-101983571D02*
X190319819Y-101983571D01*
X190319819Y-101983571D02*
X190319819Y-102459761D01*
D11*
X192724530Y-99971666D02*
X192748340Y-99947857D01*
X192748340Y-99947857D02*
X192772149Y-99876428D01*
X192772149Y-99876428D02*
X192772149Y-99828809D01*
X192772149Y-99828809D02*
X192748340Y-99757381D01*
X192748340Y-99757381D02*
X192700720Y-99709762D01*
X192700720Y-99709762D02*
X192653101Y-99685952D01*
X192653101Y-99685952D02*
X192557863Y-99662143D01*
X192557863Y-99662143D02*
X192486435Y-99662143D01*
X192486435Y-99662143D02*
X192391197Y-99685952D01*
X192391197Y-99685952D02*
X192343578Y-99709762D01*
X192343578Y-99709762D02*
X192295959Y-99757381D01*
X192295959Y-99757381D02*
X192272149Y-99828809D01*
X192272149Y-99828809D02*
X192272149Y-99876428D01*
X192272149Y-99876428D02*
X192295959Y-99947857D01*
X192295959Y-99947857D02*
X192319768Y-99971666D01*
X192772149Y-100209762D02*
X192772149Y-100305000D01*
X192772149Y-100305000D02*
X192748340Y-100352619D01*
X192748340Y-100352619D02*
X192724530Y-100376428D01*
X192724530Y-100376428D02*
X192653101Y-100424047D01*
X192653101Y-100424047D02*
X192557863Y-100447857D01*
X192557863Y-100447857D02*
X192367387Y-100447857D01*
X192367387Y-100447857D02*
X192319768Y-100424047D01*
X192319768Y-100424047D02*
X192295959Y-100400238D01*
X192295959Y-100400238D02*
X192272149Y-100352619D01*
X192272149Y-100352619D02*
X192272149Y-100257381D01*
X192272149Y-100257381D02*
X192295959Y-100209762D01*
X192295959Y-100209762D02*
X192319768Y-100185952D01*
X192319768Y-100185952D02*
X192367387Y-100162143D01*
X192367387Y-100162143D02*
X192486435Y-100162143D01*
X192486435Y-100162143D02*
X192534054Y-100185952D01*
X192534054Y-100185952D02*
X192557863Y-100209762D01*
X192557863Y-100209762D02*
X192581673Y-100257381D01*
X192581673Y-100257381D02*
X192581673Y-100352619D01*
X192581673Y-100352619D02*
X192557863Y-100400238D01*
X192557863Y-100400238D02*
X192534054Y-100424047D01*
X192534054Y-100424047D02*
X192486435Y-100447857D01*
D10*
X131854819Y-98382143D02*
X131854819Y-98477381D01*
X131854819Y-98477381D02*
X131902438Y-98572619D01*
X131902438Y-98572619D02*
X131950057Y-98620238D01*
X131950057Y-98620238D02*
X132045295Y-98667857D01*
X132045295Y-98667857D02*
X132235771Y-98715476D01*
X132235771Y-98715476D02*
X132473866Y-98715476D01*
X132473866Y-98715476D02*
X132664342Y-98667857D01*
X132664342Y-98667857D02*
X132759580Y-98620238D01*
X132759580Y-98620238D02*
X132807200Y-98572619D01*
X132807200Y-98572619D02*
X132854819Y-98477381D01*
X132854819Y-98477381D02*
X132854819Y-98382143D01*
X132854819Y-98382143D02*
X132807200Y-98286905D01*
X132807200Y-98286905D02*
X132759580Y-98239286D01*
X132759580Y-98239286D02*
X132664342Y-98191667D01*
X132664342Y-98191667D02*
X132473866Y-98144048D01*
X132473866Y-98144048D02*
X132235771Y-98144048D01*
X132235771Y-98144048D02*
X132045295Y-98191667D01*
X132045295Y-98191667D02*
X131950057Y-98239286D01*
X131950057Y-98239286D02*
X131902438Y-98286905D01*
X131902438Y-98286905D02*
X131854819Y-98382143D01*
X132759580Y-99144048D02*
X132807200Y-99191667D01*
X132807200Y-99191667D02*
X132854819Y-99144048D01*
X132854819Y-99144048D02*
X132807200Y-99096429D01*
X132807200Y-99096429D02*
X132759580Y-99144048D01*
X132759580Y-99144048D02*
X132854819Y-99144048D01*
X132854819Y-100144047D02*
X132854819Y-99572619D01*
X132854819Y-99858333D02*
X131854819Y-99858333D01*
X131854819Y-99858333D02*
X131997676Y-99763095D01*
X131997676Y-99763095D02*
X132092914Y-99667857D01*
X132092914Y-99667857D02*
X132140533Y-99572619D01*
X132188152Y-101001190D02*
X132854819Y-101001190D01*
X132188152Y-100572619D02*
X132711961Y-100572619D01*
X132711961Y-100572619D02*
X132807200Y-100620238D01*
X132807200Y-100620238D02*
X132854819Y-100715476D01*
X132854819Y-100715476D02*
X132854819Y-100858333D01*
X132854819Y-100858333D02*
X132807200Y-100953571D01*
X132807200Y-100953571D02*
X132759580Y-101001190D01*
X132331009Y-101810714D02*
X132331009Y-101477381D01*
X132854819Y-101477381D02*
X131854819Y-101477381D01*
X131854819Y-101477381D02*
X131854819Y-101953571D01*
D11*
X134259530Y-99941666D02*
X134283340Y-99917857D01*
X134283340Y-99917857D02*
X134307149Y-99846428D01*
X134307149Y-99846428D02*
X134307149Y-99798809D01*
X134307149Y-99798809D02*
X134283340Y-99727381D01*
X134283340Y-99727381D02*
X134235720Y-99679762D01*
X134235720Y-99679762D02*
X134188101Y-99655952D01*
X134188101Y-99655952D02*
X134092863Y-99632143D01*
X134092863Y-99632143D02*
X134021435Y-99632143D01*
X134021435Y-99632143D02*
X133926197Y-99655952D01*
X133926197Y-99655952D02*
X133878578Y-99679762D01*
X133878578Y-99679762D02*
X133830959Y-99727381D01*
X133830959Y-99727381D02*
X133807149Y-99798809D01*
X133807149Y-99798809D02*
X133807149Y-99846428D01*
X133807149Y-99846428D02*
X133830959Y-99917857D01*
X133830959Y-99917857D02*
X133854768Y-99941666D01*
X133807149Y-100370238D02*
X133807149Y-100275000D01*
X133807149Y-100275000D02*
X133830959Y-100227381D01*
X133830959Y-100227381D02*
X133854768Y-100203571D01*
X133854768Y-100203571D02*
X133926197Y-100155952D01*
X133926197Y-100155952D02*
X134021435Y-100132143D01*
X134021435Y-100132143D02*
X134211911Y-100132143D01*
X134211911Y-100132143D02*
X134259530Y-100155952D01*
X134259530Y-100155952D02*
X134283340Y-100179762D01*
X134283340Y-100179762D02*
X134307149Y-100227381D01*
X134307149Y-100227381D02*
X134307149Y-100322619D01*
X134307149Y-100322619D02*
X134283340Y-100370238D01*
X134283340Y-100370238D02*
X134259530Y-100394047D01*
X134259530Y-100394047D02*
X134211911Y-100417857D01*
X134211911Y-100417857D02*
X134092863Y-100417857D01*
X134092863Y-100417857D02*
X134045244Y-100394047D01*
X134045244Y-100394047D02*
X134021435Y-100370238D01*
X134021435Y-100370238D02*
X133997625Y-100322619D01*
X133997625Y-100322619D02*
X133997625Y-100227381D01*
X133997625Y-100227381D02*
X134021435Y-100179762D01*
X134021435Y-100179762D02*
X134045244Y-100155952D01*
X134045244Y-100155952D02*
X134092863Y-100132143D01*
D10*
X130444819Y-99429761D02*
X130444819Y-98858333D01*
X130444819Y-99144047D02*
X129444819Y-99144047D01*
X129444819Y-99144047D02*
X129587676Y-99048809D01*
X129587676Y-99048809D02*
X129682914Y-98953571D01*
X129682914Y-98953571D02*
X129730533Y-98858333D01*
X129778152Y-100286904D02*
X130444819Y-100286904D01*
X129778152Y-99858333D02*
X130301961Y-99858333D01*
X130301961Y-99858333D02*
X130397200Y-99905952D01*
X130397200Y-99905952D02*
X130444819Y-100001190D01*
X130444819Y-100001190D02*
X130444819Y-100144047D01*
X130444819Y-100144047D02*
X130397200Y-100239285D01*
X130397200Y-100239285D02*
X130349580Y-100286904D01*
X129921009Y-101096428D02*
X129921009Y-100763095D01*
X130444819Y-100763095D02*
X129444819Y-100763095D01*
X129444819Y-100763095D02*
X129444819Y-101239285D01*
D11*
X131849530Y-99941666D02*
X131873340Y-99917857D01*
X131873340Y-99917857D02*
X131897149Y-99846428D01*
X131897149Y-99846428D02*
X131897149Y-99798809D01*
X131897149Y-99798809D02*
X131873340Y-99727381D01*
X131873340Y-99727381D02*
X131825720Y-99679762D01*
X131825720Y-99679762D02*
X131778101Y-99655952D01*
X131778101Y-99655952D02*
X131682863Y-99632143D01*
X131682863Y-99632143D02*
X131611435Y-99632143D01*
X131611435Y-99632143D02*
X131516197Y-99655952D01*
X131516197Y-99655952D02*
X131468578Y-99679762D01*
X131468578Y-99679762D02*
X131420959Y-99727381D01*
X131420959Y-99727381D02*
X131397149Y-99798809D01*
X131397149Y-99798809D02*
X131397149Y-99846428D01*
X131397149Y-99846428D02*
X131420959Y-99917857D01*
X131420959Y-99917857D02*
X131444768Y-99941666D01*
X131563816Y-100370238D02*
X131897149Y-100370238D01*
X131373340Y-100251190D02*
X131730482Y-100132143D01*
X131730482Y-100132143D02*
X131730482Y-100441666D01*
D10*
X202919819Y-81889286D02*
X202919819Y-82079762D01*
X202919819Y-82079762D02*
X202872200Y-82175000D01*
X202872200Y-82175000D02*
X202824580Y-82222619D01*
X202824580Y-82222619D02*
X202681723Y-82317857D01*
X202681723Y-82317857D02*
X202491247Y-82365476D01*
X202491247Y-82365476D02*
X202110295Y-82365476D01*
X202110295Y-82365476D02*
X202015057Y-82317857D01*
X202015057Y-82317857D02*
X201967438Y-82270238D01*
X201967438Y-82270238D02*
X201919819Y-82175000D01*
X201919819Y-82175000D02*
X201919819Y-81984524D01*
X201919819Y-81984524D02*
X201967438Y-81889286D01*
X201967438Y-81889286D02*
X202015057Y-81841667D01*
X202015057Y-81841667D02*
X202110295Y-81794048D01*
X202110295Y-81794048D02*
X202348390Y-81794048D01*
X202348390Y-81794048D02*
X202443628Y-81841667D01*
X202443628Y-81841667D02*
X202491247Y-81889286D01*
X202491247Y-81889286D02*
X202538866Y-81984524D01*
X202538866Y-81984524D02*
X202538866Y-82175000D01*
X202538866Y-82175000D02*
X202491247Y-82270238D01*
X202491247Y-82270238D02*
X202443628Y-82317857D01*
X202443628Y-82317857D02*
X202348390Y-82365476D01*
X202824580Y-82794048D02*
X202872200Y-82841667D01*
X202872200Y-82841667D02*
X202919819Y-82794048D01*
X202919819Y-82794048D02*
X202872200Y-82746429D01*
X202872200Y-82746429D02*
X202824580Y-82794048D01*
X202824580Y-82794048D02*
X202919819Y-82794048D01*
X201919819Y-83460714D02*
X201919819Y-83555952D01*
X201919819Y-83555952D02*
X201967438Y-83651190D01*
X201967438Y-83651190D02*
X202015057Y-83698809D01*
X202015057Y-83698809D02*
X202110295Y-83746428D01*
X202110295Y-83746428D02*
X202300771Y-83794047D01*
X202300771Y-83794047D02*
X202538866Y-83794047D01*
X202538866Y-83794047D02*
X202729342Y-83746428D01*
X202729342Y-83746428D02*
X202824580Y-83698809D01*
X202824580Y-83698809D02*
X202872200Y-83651190D01*
X202872200Y-83651190D02*
X202919819Y-83555952D01*
X202919819Y-83555952D02*
X202919819Y-83460714D01*
X202919819Y-83460714D02*
X202872200Y-83365476D01*
X202872200Y-83365476D02*
X202824580Y-83317857D01*
X202824580Y-83317857D02*
X202729342Y-83270238D01*
X202729342Y-83270238D02*
X202538866Y-83222619D01*
X202538866Y-83222619D02*
X202300771Y-83222619D01*
X202300771Y-83222619D02*
X202110295Y-83270238D01*
X202110295Y-83270238D02*
X202015057Y-83317857D01*
X202015057Y-83317857D02*
X201967438Y-83365476D01*
X201967438Y-83365476D02*
X201919819Y-83460714D01*
X202919819Y-84270238D02*
X202919819Y-84460714D01*
X202919819Y-84460714D02*
X202872200Y-84555952D01*
X202872200Y-84555952D02*
X202824580Y-84603571D01*
X202824580Y-84603571D02*
X202681723Y-84698809D01*
X202681723Y-84698809D02*
X202491247Y-84746428D01*
X202491247Y-84746428D02*
X202110295Y-84746428D01*
X202110295Y-84746428D02*
X202015057Y-84698809D01*
X202015057Y-84698809D02*
X201967438Y-84651190D01*
X201967438Y-84651190D02*
X201919819Y-84555952D01*
X201919819Y-84555952D02*
X201919819Y-84365476D01*
X201919819Y-84365476D02*
X201967438Y-84270238D01*
X201967438Y-84270238D02*
X202015057Y-84222619D01*
X202015057Y-84222619D02*
X202110295Y-84175000D01*
X202110295Y-84175000D02*
X202348390Y-84175000D01*
X202348390Y-84175000D02*
X202443628Y-84222619D01*
X202443628Y-84222619D02*
X202491247Y-84270238D01*
X202491247Y-84270238D02*
X202538866Y-84365476D01*
X202538866Y-84365476D02*
X202538866Y-84555952D01*
X202538866Y-84555952D02*
X202491247Y-84651190D01*
X202491247Y-84651190D02*
X202443628Y-84698809D01*
X202443628Y-84698809D02*
X202348390Y-84746428D01*
X202919819Y-85175000D02*
X201919819Y-85175000D01*
X202538866Y-85270238D02*
X202919819Y-85555952D01*
X202253152Y-85555952D02*
X202634104Y-85175000D01*
D12*
X204076927Y-83417857D02*
X203886451Y-83284524D01*
X204076927Y-83189286D02*
X203676927Y-83189286D01*
X203676927Y-83189286D02*
X203676927Y-83341667D01*
X203676927Y-83341667D02*
X203695975Y-83379762D01*
X203695975Y-83379762D02*
X203715022Y-83398809D01*
X203715022Y-83398809D02*
X203753118Y-83417857D01*
X203753118Y-83417857D02*
X203810260Y-83417857D01*
X203810260Y-83417857D02*
X203848356Y-83398809D01*
X203848356Y-83398809D02*
X203867403Y-83379762D01*
X203867403Y-83379762D02*
X203886451Y-83341667D01*
X203886451Y-83341667D02*
X203886451Y-83189286D01*
X203715022Y-83570238D02*
X203695975Y-83589286D01*
X203695975Y-83589286D02*
X203676927Y-83627381D01*
X203676927Y-83627381D02*
X203676927Y-83722619D01*
X203676927Y-83722619D02*
X203695975Y-83760714D01*
X203695975Y-83760714D02*
X203715022Y-83779762D01*
X203715022Y-83779762D02*
X203753118Y-83798809D01*
X203753118Y-83798809D02*
X203791213Y-83798809D01*
X203791213Y-83798809D02*
X203848356Y-83779762D01*
X203848356Y-83779762D02*
X204076927Y-83551190D01*
X204076927Y-83551190D02*
X204076927Y-83798809D01*
X203810260Y-84141666D02*
X204076927Y-84141666D01*
X203657880Y-84046428D02*
X203943594Y-83951190D01*
X203943594Y-83951190D02*
X203943594Y-84198809D01*
D10*
X134254819Y-97915952D02*
X134254819Y-98011190D01*
X134254819Y-98011190D02*
X134302438Y-98106428D01*
X134302438Y-98106428D02*
X134350057Y-98154047D01*
X134350057Y-98154047D02*
X134445295Y-98201666D01*
X134445295Y-98201666D02*
X134635771Y-98249285D01*
X134635771Y-98249285D02*
X134873866Y-98249285D01*
X134873866Y-98249285D02*
X135064342Y-98201666D01*
X135064342Y-98201666D02*
X135159580Y-98154047D01*
X135159580Y-98154047D02*
X135207200Y-98106428D01*
X135207200Y-98106428D02*
X135254819Y-98011190D01*
X135254819Y-98011190D02*
X135254819Y-97915952D01*
X135254819Y-97915952D02*
X135207200Y-97820714D01*
X135207200Y-97820714D02*
X135159580Y-97773095D01*
X135159580Y-97773095D02*
X135064342Y-97725476D01*
X135064342Y-97725476D02*
X134873866Y-97677857D01*
X134873866Y-97677857D02*
X134635771Y-97677857D01*
X134635771Y-97677857D02*
X134445295Y-97725476D01*
X134445295Y-97725476D02*
X134350057Y-97773095D01*
X134350057Y-97773095D02*
X134302438Y-97820714D01*
X134302438Y-97820714D02*
X134254819Y-97915952D01*
X135159580Y-98677857D02*
X135207200Y-98725476D01*
X135207200Y-98725476D02*
X135254819Y-98677857D01*
X135254819Y-98677857D02*
X135207200Y-98630238D01*
X135207200Y-98630238D02*
X135159580Y-98677857D01*
X135159580Y-98677857D02*
X135254819Y-98677857D01*
X134254819Y-99344523D02*
X134254819Y-99439761D01*
X134254819Y-99439761D02*
X134302438Y-99534999D01*
X134302438Y-99534999D02*
X134350057Y-99582618D01*
X134350057Y-99582618D02*
X134445295Y-99630237D01*
X134445295Y-99630237D02*
X134635771Y-99677856D01*
X134635771Y-99677856D02*
X134873866Y-99677856D01*
X134873866Y-99677856D02*
X135064342Y-99630237D01*
X135064342Y-99630237D02*
X135159580Y-99582618D01*
X135159580Y-99582618D02*
X135207200Y-99534999D01*
X135207200Y-99534999D02*
X135254819Y-99439761D01*
X135254819Y-99439761D02*
X135254819Y-99344523D01*
X135254819Y-99344523D02*
X135207200Y-99249285D01*
X135207200Y-99249285D02*
X135159580Y-99201666D01*
X135159580Y-99201666D02*
X135064342Y-99154047D01*
X135064342Y-99154047D02*
X134873866Y-99106428D01*
X134873866Y-99106428D02*
X134635771Y-99106428D01*
X134635771Y-99106428D02*
X134445295Y-99154047D01*
X134445295Y-99154047D02*
X134350057Y-99201666D01*
X134350057Y-99201666D02*
X134302438Y-99249285D01*
X134302438Y-99249285D02*
X134254819Y-99344523D01*
X135254819Y-100630237D02*
X135254819Y-100058809D01*
X135254819Y-100344523D02*
X134254819Y-100344523D01*
X134254819Y-100344523D02*
X134397676Y-100249285D01*
X134397676Y-100249285D02*
X134492914Y-100154047D01*
X134492914Y-100154047D02*
X134540533Y-100058809D01*
X134588152Y-101487380D02*
X135254819Y-101487380D01*
X134588152Y-101058809D02*
X135111961Y-101058809D01*
X135111961Y-101058809D02*
X135207200Y-101106428D01*
X135207200Y-101106428D02*
X135254819Y-101201666D01*
X135254819Y-101201666D02*
X135254819Y-101344523D01*
X135254819Y-101344523D02*
X135207200Y-101439761D01*
X135207200Y-101439761D02*
X135159580Y-101487380D01*
X134731009Y-102296904D02*
X134731009Y-101963571D01*
X135254819Y-101963571D02*
X134254819Y-101963571D01*
X134254819Y-101963571D02*
X134254819Y-102439761D01*
D11*
X136659530Y-99951666D02*
X136683340Y-99927857D01*
X136683340Y-99927857D02*
X136707149Y-99856428D01*
X136707149Y-99856428D02*
X136707149Y-99808809D01*
X136707149Y-99808809D02*
X136683340Y-99737381D01*
X136683340Y-99737381D02*
X136635720Y-99689762D01*
X136635720Y-99689762D02*
X136588101Y-99665952D01*
X136588101Y-99665952D02*
X136492863Y-99642143D01*
X136492863Y-99642143D02*
X136421435Y-99642143D01*
X136421435Y-99642143D02*
X136326197Y-99665952D01*
X136326197Y-99665952D02*
X136278578Y-99689762D01*
X136278578Y-99689762D02*
X136230959Y-99737381D01*
X136230959Y-99737381D02*
X136207149Y-99808809D01*
X136207149Y-99808809D02*
X136207149Y-99856428D01*
X136207149Y-99856428D02*
X136230959Y-99927857D01*
X136230959Y-99927857D02*
X136254768Y-99951666D01*
X136207149Y-100118333D02*
X136207149Y-100451666D01*
X136207149Y-100451666D02*
X136707149Y-100237381D01*
D10*
X201483809Y-82389104D02*
X201007619Y-82389104D01*
X201579047Y-82674819D02*
X201245714Y-81674819D01*
X201245714Y-81674819D02*
X200912381Y-82674819D01*
X200579047Y-82674819D02*
X200579047Y-81674819D01*
X200579047Y-81674819D02*
X200340952Y-81674819D01*
X200340952Y-81674819D02*
X200198095Y-81722438D01*
X200198095Y-81722438D02*
X200102857Y-81817676D01*
X200102857Y-81817676D02*
X200055238Y-81912914D01*
X200055238Y-81912914D02*
X200007619Y-82103390D01*
X200007619Y-82103390D02*
X200007619Y-82246247D01*
X200007619Y-82246247D02*
X200055238Y-82436723D01*
X200055238Y-82436723D02*
X200102857Y-82531961D01*
X200102857Y-82531961D02*
X200198095Y-82627200D01*
X200198095Y-82627200D02*
X200340952Y-82674819D01*
X200340952Y-82674819D02*
X200579047Y-82674819D01*
X199102857Y-81674819D02*
X199579047Y-81674819D01*
X199579047Y-81674819D02*
X199626666Y-82151009D01*
X199626666Y-82151009D02*
X199579047Y-82103390D01*
X199579047Y-82103390D02*
X199483809Y-82055771D01*
X199483809Y-82055771D02*
X199245714Y-82055771D01*
X199245714Y-82055771D02*
X199150476Y-82103390D01*
X199150476Y-82103390D02*
X199102857Y-82151009D01*
X199102857Y-82151009D02*
X199055238Y-82246247D01*
X199055238Y-82246247D02*
X199055238Y-82484342D01*
X199055238Y-82484342D02*
X199102857Y-82579580D01*
X199102857Y-82579580D02*
X199150476Y-82627200D01*
X199150476Y-82627200D02*
X199245714Y-82674819D01*
X199245714Y-82674819D02*
X199483809Y-82674819D01*
X199483809Y-82674819D02*
X199579047Y-82627200D01*
X199579047Y-82627200D02*
X199626666Y-82579580D01*
X198579047Y-82674819D02*
X198388571Y-82674819D01*
X198388571Y-82674819D02*
X198293333Y-82627200D01*
X198293333Y-82627200D02*
X198245714Y-82579580D01*
X198245714Y-82579580D02*
X198150476Y-82436723D01*
X198150476Y-82436723D02*
X198102857Y-82246247D01*
X198102857Y-82246247D02*
X198102857Y-81865295D01*
X198102857Y-81865295D02*
X198150476Y-81770057D01*
X198150476Y-81770057D02*
X198198095Y-81722438D01*
X198198095Y-81722438D02*
X198293333Y-81674819D01*
X198293333Y-81674819D02*
X198483809Y-81674819D01*
X198483809Y-81674819D02*
X198579047Y-81722438D01*
X198579047Y-81722438D02*
X198626666Y-81770057D01*
X198626666Y-81770057D02*
X198674285Y-81865295D01*
X198674285Y-81865295D02*
X198674285Y-82103390D01*
X198674285Y-82103390D02*
X198626666Y-82198628D01*
X198626666Y-82198628D02*
X198579047Y-82246247D01*
X198579047Y-82246247D02*
X198483809Y-82293866D01*
X198483809Y-82293866D02*
X198293333Y-82293866D01*
X198293333Y-82293866D02*
X198198095Y-82246247D01*
X198198095Y-82246247D02*
X198150476Y-82198628D01*
X198150476Y-82198628D02*
X198102857Y-82103390D01*
X197483809Y-81674819D02*
X197388571Y-81674819D01*
X197388571Y-81674819D02*
X197293333Y-81722438D01*
X197293333Y-81722438D02*
X197245714Y-81770057D01*
X197245714Y-81770057D02*
X197198095Y-81865295D01*
X197198095Y-81865295D02*
X197150476Y-82055771D01*
X197150476Y-82055771D02*
X197150476Y-82293866D01*
X197150476Y-82293866D02*
X197198095Y-82484342D01*
X197198095Y-82484342D02*
X197245714Y-82579580D01*
X197245714Y-82579580D02*
X197293333Y-82627200D01*
X197293333Y-82627200D02*
X197388571Y-82674819D01*
X197388571Y-82674819D02*
X197483809Y-82674819D01*
X197483809Y-82674819D02*
X197579047Y-82627200D01*
X197579047Y-82627200D02*
X197626666Y-82579580D01*
X197626666Y-82579580D02*
X197674285Y-82484342D01*
X197674285Y-82484342D02*
X197721904Y-82293866D01*
X197721904Y-82293866D02*
X197721904Y-82055771D01*
X197721904Y-82055771D02*
X197674285Y-81865295D01*
X197674285Y-81865295D02*
X197626666Y-81770057D01*
X197626666Y-81770057D02*
X197579047Y-81722438D01*
X197579047Y-81722438D02*
X197483809Y-81674819D01*
X196436190Y-81674819D02*
X196436190Y-82389104D01*
X196436190Y-82389104D02*
X196483809Y-82531961D01*
X196483809Y-82531961D02*
X196579047Y-82627200D01*
X196579047Y-82627200D02*
X196721904Y-82674819D01*
X196721904Y-82674819D02*
X196817142Y-82674819D01*
X195388571Y-82674819D02*
X195721904Y-82198628D01*
X195959999Y-82674819D02*
X195959999Y-81674819D01*
X195959999Y-81674819D02*
X195579047Y-81674819D01*
X195579047Y-81674819D02*
X195483809Y-81722438D01*
X195483809Y-81722438D02*
X195436190Y-81770057D01*
X195436190Y-81770057D02*
X195388571Y-81865295D01*
X195388571Y-81865295D02*
X195388571Y-82008152D01*
X195388571Y-82008152D02*
X195436190Y-82103390D01*
X195436190Y-82103390D02*
X195483809Y-82151009D01*
X195483809Y-82151009D02*
X195579047Y-82198628D01*
X195579047Y-82198628D02*
X195959999Y-82198628D01*
X195055237Y-81674819D02*
X194388571Y-81674819D01*
X194388571Y-81674819D02*
X195055237Y-82674819D01*
X195055237Y-82674819D02*
X194388571Y-82674819D01*
X199572899Y-79249119D02*
X199572899Y-79487214D01*
X199810994Y-79391976D02*
X199572899Y-79487214D01*
X199572899Y-79487214D02*
X199334804Y-79391976D01*
X199715756Y-79677690D02*
X199572899Y-79487214D01*
X199572899Y-79487214D02*
X199430042Y-79677690D01*
X198721904Y-81674819D02*
X198721904Y-82484342D01*
X198721904Y-82484342D02*
X198674285Y-82579580D01*
X198674285Y-82579580D02*
X198626666Y-82627200D01*
X198626666Y-82627200D02*
X198531428Y-82674819D01*
X198531428Y-82674819D02*
X198340952Y-82674819D01*
X198340952Y-82674819D02*
X198245714Y-82627200D01*
X198245714Y-82627200D02*
X198198095Y-82579580D01*
X198198095Y-82579580D02*
X198150476Y-82484342D01*
X198150476Y-82484342D02*
X198150476Y-81674819D01*
X197198095Y-81674819D02*
X197674285Y-81674819D01*
X197674285Y-81674819D02*
X197721904Y-82151009D01*
X197721904Y-82151009D02*
X197674285Y-82103390D01*
X197674285Y-82103390D02*
X197579047Y-82055771D01*
X197579047Y-82055771D02*
X197340952Y-82055771D01*
X197340952Y-82055771D02*
X197245714Y-82103390D01*
X197245714Y-82103390D02*
X197198095Y-82151009D01*
X197198095Y-82151009D02*
X197150476Y-82246247D01*
X197150476Y-82246247D02*
X197150476Y-82484342D01*
X197150476Y-82484342D02*
X197198095Y-82579580D01*
X197198095Y-82579580D02*
X197245714Y-82627200D01*
X197245714Y-82627200D02*
X197340952Y-82674819D01*
X197340952Y-82674819D02*
X197579047Y-82674819D01*
X197579047Y-82674819D02*
X197674285Y-82627200D01*
X197674285Y-82627200D02*
X197721904Y-82579580D01*
X199572899Y-79249119D02*
X199572899Y-79487214D01*
X199810994Y-79391976D02*
X199572899Y-79487214D01*
X199572899Y-79487214D02*
X199334804Y-79391976D01*
X199715756Y-79677690D02*
X199572899Y-79487214D01*
X199572899Y-79487214D02*
X199430042Y-79677690D01*
X192739819Y-98472143D02*
X192739819Y-98567381D01*
X192739819Y-98567381D02*
X192787438Y-98662619D01*
X192787438Y-98662619D02*
X192835057Y-98710238D01*
X192835057Y-98710238D02*
X192930295Y-98757857D01*
X192930295Y-98757857D02*
X193120771Y-98805476D01*
X193120771Y-98805476D02*
X193358866Y-98805476D01*
X193358866Y-98805476D02*
X193549342Y-98757857D01*
X193549342Y-98757857D02*
X193644580Y-98710238D01*
X193644580Y-98710238D02*
X193692200Y-98662619D01*
X193692200Y-98662619D02*
X193739819Y-98567381D01*
X193739819Y-98567381D02*
X193739819Y-98472143D01*
X193739819Y-98472143D02*
X193692200Y-98376905D01*
X193692200Y-98376905D02*
X193644580Y-98329286D01*
X193644580Y-98329286D02*
X193549342Y-98281667D01*
X193549342Y-98281667D02*
X193358866Y-98234048D01*
X193358866Y-98234048D02*
X193120771Y-98234048D01*
X193120771Y-98234048D02*
X192930295Y-98281667D01*
X192930295Y-98281667D02*
X192835057Y-98329286D01*
X192835057Y-98329286D02*
X192787438Y-98376905D01*
X192787438Y-98376905D02*
X192739819Y-98472143D01*
X193644580Y-99234048D02*
X193692200Y-99281667D01*
X193692200Y-99281667D02*
X193739819Y-99234048D01*
X193739819Y-99234048D02*
X193692200Y-99186429D01*
X193692200Y-99186429D02*
X193644580Y-99234048D01*
X193644580Y-99234048D02*
X193739819Y-99234048D01*
X193739819Y-100234047D02*
X193739819Y-99662619D01*
X193739819Y-99948333D02*
X192739819Y-99948333D01*
X192739819Y-99948333D02*
X192882676Y-99853095D01*
X192882676Y-99853095D02*
X192977914Y-99757857D01*
X192977914Y-99757857D02*
X193025533Y-99662619D01*
X193073152Y-101091190D02*
X193739819Y-101091190D01*
X193073152Y-100662619D02*
X193596961Y-100662619D01*
X193596961Y-100662619D02*
X193692200Y-100710238D01*
X193692200Y-100710238D02*
X193739819Y-100805476D01*
X193739819Y-100805476D02*
X193739819Y-100948333D01*
X193739819Y-100948333D02*
X193692200Y-101043571D01*
X193692200Y-101043571D02*
X193644580Y-101091190D01*
X193216009Y-101900714D02*
X193216009Y-101567381D01*
X193739819Y-101567381D02*
X192739819Y-101567381D01*
X192739819Y-101567381D02*
X192739819Y-102043571D01*
D11*
X195144530Y-100031666D02*
X195168340Y-100007857D01*
X195168340Y-100007857D02*
X195192149Y-99936428D01*
X195192149Y-99936428D02*
X195192149Y-99888809D01*
X195192149Y-99888809D02*
X195168340Y-99817381D01*
X195168340Y-99817381D02*
X195120720Y-99769762D01*
X195120720Y-99769762D02*
X195073101Y-99745952D01*
X195073101Y-99745952D02*
X194977863Y-99722143D01*
X194977863Y-99722143D02*
X194906435Y-99722143D01*
X194906435Y-99722143D02*
X194811197Y-99745952D01*
X194811197Y-99745952D02*
X194763578Y-99769762D01*
X194763578Y-99769762D02*
X194715959Y-99817381D01*
X194715959Y-99817381D02*
X194692149Y-99888809D01*
X194692149Y-99888809D02*
X194692149Y-99936428D01*
X194692149Y-99936428D02*
X194715959Y-100007857D01*
X194715959Y-100007857D02*
X194739768Y-100031666D01*
X194906435Y-100317381D02*
X194882625Y-100269762D01*
X194882625Y-100269762D02*
X194858816Y-100245952D01*
X194858816Y-100245952D02*
X194811197Y-100222143D01*
X194811197Y-100222143D02*
X194787387Y-100222143D01*
X194787387Y-100222143D02*
X194739768Y-100245952D01*
X194739768Y-100245952D02*
X194715959Y-100269762D01*
X194715959Y-100269762D02*
X194692149Y-100317381D01*
X194692149Y-100317381D02*
X194692149Y-100412619D01*
X194692149Y-100412619D02*
X194715959Y-100460238D01*
X194715959Y-100460238D02*
X194739768Y-100484047D01*
X194739768Y-100484047D02*
X194787387Y-100507857D01*
X194787387Y-100507857D02*
X194811197Y-100507857D01*
X194811197Y-100507857D02*
X194858816Y-100484047D01*
X194858816Y-100484047D02*
X194882625Y-100460238D01*
X194882625Y-100460238D02*
X194906435Y-100412619D01*
X194906435Y-100412619D02*
X194906435Y-100317381D01*
X194906435Y-100317381D02*
X194930244Y-100269762D01*
X194930244Y-100269762D02*
X194954054Y-100245952D01*
X194954054Y-100245952D02*
X195001673Y-100222143D01*
X195001673Y-100222143D02*
X195096911Y-100222143D01*
X195096911Y-100222143D02*
X195144530Y-100245952D01*
X195144530Y-100245952D02*
X195168340Y-100269762D01*
X195168340Y-100269762D02*
X195192149Y-100317381D01*
X195192149Y-100317381D02*
X195192149Y-100412619D01*
X195192149Y-100412619D02*
X195168340Y-100460238D01*
X195168340Y-100460238D02*
X195144530Y-100484047D01*
X195144530Y-100484047D02*
X195096911Y-100507857D01*
X195096911Y-100507857D02*
X195001673Y-100507857D01*
X195001673Y-100507857D02*
X194954054Y-100484047D01*
X194954054Y-100484047D02*
X194930244Y-100460238D01*
X194930244Y-100460238D02*
X194906435Y-100412619D01*
D10*
X177894819Y-42727143D02*
X177894819Y-42822381D01*
X177894819Y-42822381D02*
X177942438Y-42917619D01*
X177942438Y-42917619D02*
X177990057Y-42965238D01*
X177990057Y-42965238D02*
X178085295Y-43012857D01*
X178085295Y-43012857D02*
X178275771Y-43060476D01*
X178275771Y-43060476D02*
X178513866Y-43060476D01*
X178513866Y-43060476D02*
X178704342Y-43012857D01*
X178704342Y-43012857D02*
X178799580Y-42965238D01*
X178799580Y-42965238D02*
X178847200Y-42917619D01*
X178847200Y-42917619D02*
X178894819Y-42822381D01*
X178894819Y-42822381D02*
X178894819Y-42727143D01*
X178894819Y-42727143D02*
X178847200Y-42631905D01*
X178847200Y-42631905D02*
X178799580Y-42584286D01*
X178799580Y-42584286D02*
X178704342Y-42536667D01*
X178704342Y-42536667D02*
X178513866Y-42489048D01*
X178513866Y-42489048D02*
X178275771Y-42489048D01*
X178275771Y-42489048D02*
X178085295Y-42536667D01*
X178085295Y-42536667D02*
X177990057Y-42584286D01*
X177990057Y-42584286D02*
X177942438Y-42631905D01*
X177942438Y-42631905D02*
X177894819Y-42727143D01*
X178799580Y-43489048D02*
X178847200Y-43536667D01*
X178847200Y-43536667D02*
X178894819Y-43489048D01*
X178894819Y-43489048D02*
X178847200Y-43441429D01*
X178847200Y-43441429D02*
X178799580Y-43489048D01*
X178799580Y-43489048D02*
X178894819Y-43489048D01*
X178894819Y-44489047D02*
X178894819Y-43917619D01*
X178894819Y-44203333D02*
X177894819Y-44203333D01*
X177894819Y-44203333D02*
X178037676Y-44108095D01*
X178037676Y-44108095D02*
X178132914Y-44012857D01*
X178132914Y-44012857D02*
X178180533Y-43917619D01*
X178228152Y-45346190D02*
X178894819Y-45346190D01*
X178228152Y-44917619D02*
X178751961Y-44917619D01*
X178751961Y-44917619D02*
X178847200Y-44965238D01*
X178847200Y-44965238D02*
X178894819Y-45060476D01*
X178894819Y-45060476D02*
X178894819Y-45203333D01*
X178894819Y-45203333D02*
X178847200Y-45298571D01*
X178847200Y-45298571D02*
X178799580Y-45346190D01*
X178371009Y-46155714D02*
X178371009Y-45822381D01*
X178894819Y-45822381D02*
X177894819Y-45822381D01*
X177894819Y-45822381D02*
X177894819Y-46298571D01*
D13*
X179689765Y-44209285D02*
X179701670Y-44197381D01*
X179701670Y-44197381D02*
X179713574Y-44161666D01*
X179713574Y-44161666D02*
X179713574Y-44137857D01*
X179713574Y-44137857D02*
X179701670Y-44102143D01*
X179701670Y-44102143D02*
X179677860Y-44078333D01*
X179677860Y-44078333D02*
X179654050Y-44066428D01*
X179654050Y-44066428D02*
X179606431Y-44054524D01*
X179606431Y-44054524D02*
X179570717Y-44054524D01*
X179570717Y-44054524D02*
X179523098Y-44066428D01*
X179523098Y-44066428D02*
X179499289Y-44078333D01*
X179499289Y-44078333D02*
X179475479Y-44102143D01*
X179475479Y-44102143D02*
X179463574Y-44137857D01*
X179463574Y-44137857D02*
X179463574Y-44161666D01*
X179463574Y-44161666D02*
X179475479Y-44197381D01*
X179475479Y-44197381D02*
X179487384Y-44209285D01*
X179713574Y-44447381D02*
X179713574Y-44304524D01*
X179713574Y-44375952D02*
X179463574Y-44375952D01*
X179463574Y-44375952D02*
X179499289Y-44352143D01*
X179499289Y-44352143D02*
X179523098Y-44328333D01*
X179523098Y-44328333D02*
X179535003Y-44304524D01*
X179463574Y-44530714D02*
X179463574Y-44697380D01*
X179463574Y-44697380D02*
X179713574Y-44590238D01*
D10*
X211647319Y-89394643D02*
X211647319Y-89489881D01*
X211647319Y-89489881D02*
X211694938Y-89585119D01*
X211694938Y-89585119D02*
X211742557Y-89632738D01*
X211742557Y-89632738D02*
X211837795Y-89680357D01*
X211837795Y-89680357D02*
X212028271Y-89727976D01*
X212028271Y-89727976D02*
X212266366Y-89727976D01*
X212266366Y-89727976D02*
X212456842Y-89680357D01*
X212456842Y-89680357D02*
X212552080Y-89632738D01*
X212552080Y-89632738D02*
X212599700Y-89585119D01*
X212599700Y-89585119D02*
X212647319Y-89489881D01*
X212647319Y-89489881D02*
X212647319Y-89394643D01*
X212647319Y-89394643D02*
X212599700Y-89299405D01*
X212599700Y-89299405D02*
X212552080Y-89251786D01*
X212552080Y-89251786D02*
X212456842Y-89204167D01*
X212456842Y-89204167D02*
X212266366Y-89156548D01*
X212266366Y-89156548D02*
X212028271Y-89156548D01*
X212028271Y-89156548D02*
X211837795Y-89204167D01*
X211837795Y-89204167D02*
X211742557Y-89251786D01*
X211742557Y-89251786D02*
X211694938Y-89299405D01*
X211694938Y-89299405D02*
X211647319Y-89394643D01*
X212552080Y-90156548D02*
X212599700Y-90204167D01*
X212599700Y-90204167D02*
X212647319Y-90156548D01*
X212647319Y-90156548D02*
X212599700Y-90108929D01*
X212599700Y-90108929D02*
X212552080Y-90156548D01*
X212552080Y-90156548D02*
X212647319Y-90156548D01*
X212647319Y-91156547D02*
X212647319Y-90585119D01*
X212647319Y-90870833D02*
X211647319Y-90870833D01*
X211647319Y-90870833D02*
X211790176Y-90775595D01*
X211790176Y-90775595D02*
X211885414Y-90680357D01*
X211885414Y-90680357D02*
X211933033Y-90585119D01*
X211980652Y-92013690D02*
X212647319Y-92013690D01*
X211980652Y-91585119D02*
X212504461Y-91585119D01*
X212504461Y-91585119D02*
X212599700Y-91632738D01*
X212599700Y-91632738D02*
X212647319Y-91727976D01*
X212647319Y-91727976D02*
X212647319Y-91870833D01*
X212647319Y-91870833D02*
X212599700Y-91966071D01*
X212599700Y-91966071D02*
X212552080Y-92013690D01*
X212123509Y-92823214D02*
X212123509Y-92489881D01*
X212647319Y-92489881D02*
X211647319Y-92489881D01*
X211647319Y-92489881D02*
X211647319Y-92966071D01*
D13*
X211122265Y-90876785D02*
X211134170Y-90864881D01*
X211134170Y-90864881D02*
X211146074Y-90829166D01*
X211146074Y-90829166D02*
X211146074Y-90805357D01*
X211146074Y-90805357D02*
X211134170Y-90769643D01*
X211134170Y-90769643D02*
X211110360Y-90745833D01*
X211110360Y-90745833D02*
X211086550Y-90733928D01*
X211086550Y-90733928D02*
X211038931Y-90722024D01*
X211038931Y-90722024D02*
X211003217Y-90722024D01*
X211003217Y-90722024D02*
X210955598Y-90733928D01*
X210955598Y-90733928D02*
X210931789Y-90745833D01*
X210931789Y-90745833D02*
X210907979Y-90769643D01*
X210907979Y-90769643D02*
X210896074Y-90805357D01*
X210896074Y-90805357D02*
X210896074Y-90829166D01*
X210896074Y-90829166D02*
X210907979Y-90864881D01*
X210907979Y-90864881D02*
X210919884Y-90876785D01*
X211146074Y-91114881D02*
X211146074Y-90972024D01*
X211146074Y-91043452D02*
X210896074Y-91043452D01*
X210896074Y-91043452D02*
X210931789Y-91019643D01*
X210931789Y-91019643D02*
X210955598Y-90995833D01*
X210955598Y-90995833D02*
X210967503Y-90972024D01*
X210919884Y-91210119D02*
X210907979Y-91222023D01*
X210907979Y-91222023D02*
X210896074Y-91245833D01*
X210896074Y-91245833D02*
X210896074Y-91305357D01*
X210896074Y-91305357D02*
X210907979Y-91329166D01*
X210907979Y-91329166D02*
X210919884Y-91341071D01*
X210919884Y-91341071D02*
X210943693Y-91352976D01*
X210943693Y-91352976D02*
X210967503Y-91352976D01*
X210967503Y-91352976D02*
X211003217Y-91341071D01*
X211003217Y-91341071D02*
X211146074Y-91198214D01*
X211146074Y-91198214D02*
X211146074Y-91352976D01*
D14*
%TO.C,C10*%
X196870000Y-99115000D02*
X198120000Y-99115000D01*
X196870000Y-101115000D02*
X196870000Y-99115000D01*
X198120000Y-99115000D02*
X198120000Y-101115000D01*
X198120000Y-101115000D02*
X196870000Y-101115000D01*
%TO.C,C9*%
X191920000Y-99055000D02*
X193170000Y-99055000D01*
X191920000Y-101055000D02*
X191920000Y-99055000D01*
X193170000Y-99055000D02*
X193170000Y-101055000D01*
X193170000Y-101055000D02*
X191920000Y-101055000D01*
%TO.C,C6*%
X133455000Y-99025000D02*
X134705000Y-99025000D01*
X133455000Y-101025000D02*
X133455000Y-99025000D01*
X134705000Y-99025000D02*
X134705000Y-101025000D01*
X134705000Y-101025000D02*
X133455000Y-101025000D01*
%TO.C,C4*%
X131045000Y-99025000D02*
X132295000Y-99025000D01*
X131045000Y-101025000D02*
X131045000Y-99025000D01*
X132295000Y-99025000D02*
X132295000Y-101025000D01*
X132295000Y-101025000D02*
X131045000Y-101025000D01*
%TO.C,R24*%
X203482500Y-82875000D02*
X204307500Y-82875000D01*
X203482500Y-84475000D02*
X203482500Y-82875000D01*
X204307500Y-82875000D02*
X204307500Y-84475000D01*
X204307500Y-84475000D02*
X203482500Y-84475000D01*
%TO.C,C7*%
X135855000Y-99035000D02*
X137105000Y-99035000D01*
X135855000Y-101035000D02*
X135855000Y-99035000D01*
X137105000Y-99035000D02*
X137105000Y-101035000D01*
X137105000Y-101035000D02*
X135855000Y-101035000D01*
D15*
%TO.C,U5*%
X194861200Y-80061000D02*
X195966100Y-80061000D01*
X194861200Y-80569000D02*
X194861200Y-80061000D01*
X194861200Y-81331000D02*
X195966100Y-81331000D01*
X194861200Y-81839000D02*
X194861200Y-81331000D01*
X194861200Y-82601000D02*
X195966100Y-82601000D01*
X194861200Y-83109000D02*
X194861200Y-82601000D01*
X194861200Y-83871000D02*
X195966100Y-83871000D01*
X194861200Y-84379000D02*
X194861200Y-83871000D01*
X195966100Y-79718100D02*
X199953900Y-79718100D01*
X195966100Y-80061000D02*
X195966100Y-80569000D01*
X195966100Y-80569000D02*
X194861200Y-80569000D01*
X195966100Y-81331000D02*
X195966100Y-81839000D01*
X195966100Y-81839000D02*
X194861200Y-81839000D01*
X195966100Y-82601000D02*
X195966100Y-83109000D01*
X195966100Y-83109000D02*
X194861200Y-83109000D01*
X195966100Y-83871000D02*
X195966100Y-84379000D01*
X195966100Y-84379000D02*
X194861200Y-84379000D01*
X195966100Y-84721900D02*
X195966100Y-79718100D01*
X199953900Y-79718100D02*
X199953900Y-84721900D01*
X199953900Y-80061000D02*
X201058800Y-80061000D01*
X199953900Y-80569000D02*
X199953900Y-80061000D01*
X199953900Y-81331000D02*
X201058800Y-81331000D01*
X199953900Y-81839000D02*
X199953900Y-81331000D01*
X199953900Y-82601000D02*
X201058800Y-82601000D01*
X199953900Y-83109000D02*
X199953900Y-82601000D01*
X199953900Y-83871000D02*
X201058800Y-83871000D01*
X199953900Y-84379000D02*
X199953900Y-83871000D01*
X199953900Y-84721900D02*
X195966100Y-84721900D01*
X201058800Y-80061000D02*
X201058800Y-80569000D01*
X201058800Y-80569000D02*
X199953900Y-80569000D01*
X201058800Y-81331000D02*
X201058800Y-81839000D01*
X201058800Y-81839000D02*
X199953900Y-81839000D01*
X201058800Y-82601000D02*
X201058800Y-83109000D01*
X201058800Y-83109000D02*
X199953900Y-83109000D01*
X201058800Y-83871000D02*
X201058800Y-84379000D01*
X201058800Y-84379000D02*
X199953900Y-84379000D01*
X198264800Y-79718100D02*
G75*
G02*
X197655200Y-79718100I-304800J0D01*
G01*
D14*
%TO.C,C8*%
X194340000Y-99115000D02*
X195590000Y-99115000D01*
X194340000Y-101115000D02*
X194340000Y-99115000D01*
X195590000Y-99115000D02*
X195590000Y-101115000D01*
X195590000Y-101115000D02*
X194340000Y-101115000D01*
%TO.C,C17*%
X179350000Y-43870000D02*
X179850000Y-43870000D01*
X179350000Y-44870000D02*
X179350000Y-43870000D01*
X179850000Y-43870000D02*
X179850000Y-44870000D01*
X179850000Y-44870000D02*
X179350000Y-44870000D01*
%TO.C,C12*%
X210782500Y-90537500D02*
X211282500Y-90537500D01*
X210782500Y-91537500D02*
X210782500Y-90537500D01*
X211282500Y-90537500D02*
X211282500Y-91537500D01*
X211282500Y-91537500D02*
X210782500Y-91537500D01*
%TD*%
M02*
