%TF.GenerationSoftware,KiCad,Pcbnew,9.0.3*%
%TF.CreationDate,2025-09-16T13:44:48-04:00*%
%TF.ProjectId,WARM_TPC_Shaper,5741524d-5f54-4504-935f-536861706572,rev?*%
%TF.SameCoordinates,Original*%
%TF.FileFunction,Paste,Top*%
%TF.FilePolarity,Positive*%
%FSLAX46Y46*%
G04 Gerber Fmt 4.6, Leading zero omitted, Abs format (unit mm)*
G04 Created by KiCad (PCBNEW 9.0.3) date 2025-09-16 13:44:48*
%MOMM*%
%LPD*%
G01*
G04 APERTURE LIST*
G04 Aperture macros list*
%AMRoundRect*
0 Rectangle with rounded corners*
0 $1 Rounding radius*
0 $2 $3 $4 $5 $6 $7 $8 $9 X,Y pos of 4 corners*
0 Add a 4 corners polygon primitive as box body*
4,1,4,$2,$3,$4,$5,$6,$7,$8,$9,$2,$3,0*
0 Add four circle primitives for the rounded corners*
1,1,$1+$1,$2,$3*
1,1,$1+$1,$4,$5*
1,1,$1+$1,$6,$7*
1,1,$1+$1,$8,$9*
0 Add four rect primitives between the rounded corners*
20,1,$1+$1,$2,$3,$4,$5,0*
20,1,$1+$1,$4,$5,$6,$7,0*
20,1,$1+$1,$6,$7,$8,$9,0*
20,1,$1+$1,$8,$9,$2,$3,0*%
G04 Aperture macros list end*
%ADD10RoundRect,0.200000X-0.200000X-0.275000X0.200000X-0.275000X0.200000X0.275000X-0.200000X0.275000X0*%
%ADD11RoundRect,0.075000X0.910000X0.225000X-0.910000X0.225000X-0.910000X-0.225000X0.910000X-0.225000X0*%
%ADD12RoundRect,0.075000X-0.910000X-0.225000X0.910000X-0.225000X0.910000X0.225000X-0.910000X0.225000X0*%
%ADD13RoundRect,0.225000X0.250000X-0.225000X0.250000X0.225000X-0.250000X0.225000X-0.250000X-0.225000X0*%
%ADD14RoundRect,0.225000X-0.250000X0.225000X-0.250000X-0.225000X0.250000X-0.225000X0.250000X0.225000X0*%
%ADD15R,0.584200X2.159000*%
%ADD16RoundRect,0.200000X0.200000X0.275000X-0.200000X0.275000X-0.200000X-0.275000X0.200000X-0.275000X0*%
%ADD17RoundRect,0.225000X0.225000X0.250000X-0.225000X0.250000X-0.225000X-0.250000X0.225000X-0.250000X0*%
%ADD18RoundRect,0.135000X0.185000X-0.135000X0.185000X0.135000X-0.185000X0.135000X-0.185000X-0.135000X0*%
%ADD19R,0.558800X1.651000*%
%ADD20RoundRect,0.135000X-0.185000X0.135000X-0.185000X-0.135000X0.185000X-0.135000X0.185000X0.135000X0*%
%ADD21RoundRect,0.140000X-0.140000X-0.170000X0.140000X-0.170000X0.140000X0.170000X-0.140000X0.170000X0*%
%ADD22RoundRect,0.225000X-0.225000X-0.250000X0.225000X-0.250000X0.225000X0.250000X-0.225000X0.250000X0*%
%ADD23RoundRect,0.250000X-0.425000X0.450000X-0.425000X-0.450000X0.425000X-0.450000X0.425000X0.450000X0*%
%ADD24R,1.016000X0.889000*%
%ADD25R,1.000000X3.200000*%
%ADD26RoundRect,0.250000X-0.275000X0.312500X-0.275000X-0.312500X0.275000X-0.312500X0.275000X0.312500X0*%
%ADD27RoundRect,0.140000X0.140000X0.170000X-0.140000X0.170000X-0.140000X-0.170000X0.140000X-0.170000X0*%
%ADD28R,0.350800X1.161200*%
%ADD29RoundRect,0.250000X1.025000X-0.787500X1.025000X0.787500X-1.025000X0.787500X-1.025000X-0.787500X0*%
%ADD30RoundRect,0.250000X-0.312500X-0.625000X0.312500X-0.625000X0.312500X0.625000X-0.312500X0.625000X0*%
%ADD31R,1.161200X0.350800*%
%ADD32RoundRect,0.250000X0.275000X-0.312500X0.275000X0.312500X-0.275000X0.312500X-0.275000X-0.312500X0*%
%ADD33RoundRect,0.265000X0.795000X-0.860000X0.795000X0.860000X-0.795000X0.860000X-0.795000X-0.860000X0*%
%ADD34RoundRect,0.135000X0.135000X0.185000X-0.135000X0.185000X-0.135000X-0.185000X0.135000X-0.185000X0*%
%ADD35RoundRect,0.140000X0.170000X-0.140000X0.170000X0.140000X-0.170000X0.140000X-0.170000X-0.140000X0*%
%ADD36R,0.444500X0.711200*%
%ADD37RoundRect,0.200000X0.275000X-0.200000X0.275000X0.200000X-0.275000X0.200000X-0.275000X-0.200000X0*%
%ADD38RoundRect,0.250000X0.450000X-0.262500X0.450000X0.262500X-0.450000X0.262500X-0.450000X-0.262500X0*%
%ADD39R,1.600200X0.838200*%
%ADD40R,1.600200X3.048000*%
%ADD41R,1.981200X0.558800*%
%ADD42RoundRect,0.170000X2.330000X-1.530000X2.330000X1.530000X-2.330000X1.530000X-2.330000X-1.530000X0*%
%ADD43RoundRect,0.250000X0.425000X-0.450000X0.425000X0.450000X-0.425000X0.450000X-0.425000X-0.450000X0*%
%ADD44RoundRect,0.140000X-0.170000X0.140000X-0.170000X-0.140000X0.170000X-0.140000X0.170000X0.140000X0*%
%ADD45RoundRect,0.200000X-0.275000X0.200000X-0.275000X-0.200000X0.275000X-0.200000X0.275000X0.200000X0*%
%ADD46R,0.558800X1.473200*%
%ADD47R,1.219200X0.457200*%
%ADD48O,1.219200X0.457200*%
%ADD49R,0.558800X1.981200*%
G04 APERTURE END LIST*
D10*
%TO.C,R68*%
X181365000Y-200600000D03*
X183015000Y-200600000D03*
%TD*%
D11*
%TO.C,U7*%
X217398000Y-157494999D03*
X217398000Y-156224999D03*
X217398000Y-154954999D03*
X217398000Y-153684999D03*
X212458000Y-153684999D03*
X212458000Y-154954999D03*
X212458000Y-156224999D03*
X212458000Y-157494999D03*
%TD*%
D12*
%TO.C,U12*%
X210700000Y-139529999D03*
X210700000Y-140799999D03*
X210700000Y-142069999D03*
X210700000Y-143339999D03*
X215640000Y-143339999D03*
X215640000Y-142069999D03*
X215640000Y-140799999D03*
X215640000Y-139529999D03*
%TD*%
D13*
%TO.C,C27*%
X202590000Y-46555000D03*
X202590000Y-45005000D03*
%TD*%
D14*
%TO.C,C25*%
X208120000Y-46894999D03*
X208120000Y-48444999D03*
%TD*%
D15*
%TO.C,R11*%
X215213400Y-232124999D03*
X214146600Y-232124999D03*
%TD*%
D16*
%TO.C,R18*%
X208555000Y-188975000D03*
X206905000Y-188975000D03*
%TD*%
D17*
%TO.C,C75*%
X142215000Y-170860000D03*
X140665000Y-170860000D03*
%TD*%
D18*
%TO.C,R33*%
X188530000Y-179960000D03*
X188530000Y-178940000D03*
%TD*%
D16*
%TO.C,R25*%
X215405000Y-253369999D03*
X213755000Y-253369999D03*
%TD*%
D19*
%TO.C,Q1*%
X169525000Y-171484200D03*
X170795000Y-171484200D03*
X170795000Y-165235800D03*
X169525000Y-165235800D03*
%TD*%
D20*
%TO.C,R65*%
X189850000Y-200580000D03*
X189850000Y-201600000D03*
%TD*%
D13*
%TO.C,C35*%
X205118000Y-154485000D03*
X205118000Y-152935000D03*
%TD*%
D21*
%TO.C,C74*%
X153375476Y-182990000D03*
X154335476Y-182990000D03*
%TD*%
D22*
%TO.C,C17*%
X185341000Y-157730000D03*
X186891000Y-157730000D03*
%TD*%
D10*
%TO.C,R69*%
X166125000Y-178340000D03*
X167775000Y-178340000D03*
%TD*%
D16*
%TO.C,R73*%
X165925000Y-160850000D03*
X164275000Y-160850000D03*
%TD*%
D10*
%TO.C,R56*%
X135295000Y-228110000D03*
X136945000Y-228110000D03*
%TD*%
D16*
%TO.C,R20*%
X215605000Y-73414999D03*
X213955000Y-73414999D03*
%TD*%
D23*
%TO.C,C20*%
X145420000Y-219300000D03*
X145420000Y-222000000D03*
%TD*%
D10*
%TO.C,R54*%
X137065000Y-214050000D03*
X138715000Y-214050000D03*
%TD*%
D15*
%TO.C,R6*%
X213713400Y-137014999D03*
X212646600Y-137014999D03*
%TD*%
D16*
%TO.C,R24*%
X215485000Y-217379999D03*
X213835000Y-217379999D03*
%TD*%
D10*
%TO.C,R57*%
X139730000Y-228110000D03*
X141380000Y-228110000D03*
%TD*%
D13*
%TO.C,C42*%
X203050000Y-226610000D03*
X203050000Y-225060000D03*
%TD*%
D21*
%TO.C,C24*%
X192210000Y-208600000D03*
X193170000Y-208600000D03*
%TD*%
D24*
%TO.C,U3*%
X135067500Y-216990100D03*
X135067500Y-219301500D03*
X135067500Y-221612900D03*
D25*
X142060000Y-219301500D03*
%TD*%
D15*
%TO.C,R7*%
X215433400Y-159894999D03*
X214366600Y-159894999D03*
%TD*%
D26*
%TO.C,C21*%
X128880000Y-231625000D03*
X128880000Y-233400000D03*
%TD*%
D16*
%TO.C,R61*%
X200135000Y-219840000D03*
X198485000Y-219840000D03*
%TD*%
D20*
%TO.C,R26*%
X177920000Y-177610000D03*
X177920000Y-178630000D03*
%TD*%
D16*
%TO.C,R23*%
X215565000Y-181349999D03*
X213915000Y-181349999D03*
%TD*%
D18*
%TO.C,R62*%
X185140000Y-212940000D03*
X185140000Y-211920000D03*
%TD*%
D27*
%TO.C,C63*%
X187280000Y-213050000D03*
X186320000Y-213050000D03*
%TD*%
D18*
%TO.C,R13*%
X179120000Y-178630000D03*
X179120000Y-177610000D03*
%TD*%
D16*
%TO.C,R29*%
X186225000Y-80790000D03*
X184575000Y-80790000D03*
%TD*%
D14*
%TO.C,C37*%
X208730000Y-190839999D03*
X208730000Y-192389999D03*
%TD*%
D12*
%TO.C,U15*%
X210470000Y-247489999D03*
X210470000Y-248759999D03*
X210470000Y-250029999D03*
X210470000Y-251299999D03*
X215410000Y-251299999D03*
X215410000Y-250029999D03*
X215410000Y-248759999D03*
X215410000Y-247489999D03*
%TD*%
D16*
%TO.C,R16*%
X208505000Y-116945000D03*
X206855000Y-116945000D03*
%TD*%
D13*
%TO.C,C54*%
X210190000Y-182894999D03*
X210190000Y-181344999D03*
%TD*%
D12*
%TO.C,U11*%
X210700000Y-103529999D03*
X210700000Y-104799999D03*
X210700000Y-106069999D03*
X210700000Y-107339999D03*
X215640000Y-107339999D03*
X215640000Y-106069999D03*
X215640000Y-104799999D03*
X215640000Y-103529999D03*
%TD*%
D13*
%TO.C,C36*%
X203278000Y-154475000D03*
X203278000Y-152925000D03*
%TD*%
D28*
%TO.C,M6*%
X169660001Y-160825000D03*
X170659999Y-160825000D03*
X170160000Y-159475000D03*
%TD*%
D29*
%TO.C,C1*%
X139067500Y-108257500D03*
X139067500Y-102032500D03*
%TD*%
D20*
%TO.C,R67*%
X186180000Y-201720000D03*
X186180000Y-202740000D03*
%TD*%
D16*
%TO.C,R22*%
X215635000Y-145409999D03*
X213985000Y-145409999D03*
%TD*%
D30*
%TO.C,F5*%
X135902500Y-149995000D03*
X138827500Y-149995000D03*
%TD*%
D14*
%TO.C,C76*%
X152350000Y-167485000D03*
X152350000Y-169035000D03*
%TD*%
D13*
%TO.C,C30*%
X203280000Y-82505000D03*
X203280000Y-80955000D03*
%TD*%
D17*
%TO.C,C62*%
X179485000Y-182880000D03*
X177935000Y-182880000D03*
%TD*%
D31*
%TO.C,M2*%
X180717000Y-66493999D03*
X180717000Y-65494001D03*
X179367000Y-65994000D03*
%TD*%
D32*
%TO.C,C22*%
X145130000Y-235227500D03*
X145130000Y-233452500D03*
%TD*%
D10*
%TO.C,R27*%
X177525000Y-180100000D03*
X179175000Y-180100000D03*
%TD*%
D15*
%TO.C,R3*%
X215453400Y-88294999D03*
X214386600Y-88294999D03*
%TD*%
D27*
%TO.C,C72*%
X151435476Y-182050000D03*
X150475476Y-182050000D03*
%TD*%
D13*
%TO.C,C60*%
X210030000Y-254914999D03*
X210030000Y-253364999D03*
%TD*%
%TO.C,C47*%
X212050000Y-110964999D03*
X212050000Y-109414999D03*
%TD*%
D33*
%TO.C,D3*%
X193147500Y-140120000D03*
X193147500Y-144490000D03*
%TD*%
D10*
%TO.C,R72*%
X165935000Y-162810000D03*
X167585000Y-162810000D03*
%TD*%
D34*
%TO.C,R64*%
X188560000Y-202740000D03*
X187540000Y-202740000D03*
%TD*%
D13*
%TO.C,C33*%
X203150000Y-118470000D03*
X203150000Y-116920000D03*
%TD*%
D16*
%TO.C,R19*%
X208405000Y-225085000D03*
X206755000Y-225085000D03*
%TD*%
D11*
%TO.C,U8*%
X217320000Y-193519999D03*
X217320000Y-192249999D03*
X217320000Y-190979999D03*
X217320000Y-189709999D03*
X212380000Y-189709999D03*
X212380000Y-190979999D03*
X212380000Y-192249999D03*
X212380000Y-193519999D03*
%TD*%
D27*
%TO.C,C70*%
X183680000Y-204410000D03*
X182720000Y-204410000D03*
%TD*%
%TO.C,C73*%
X147255476Y-183690000D03*
X146295476Y-183690000D03*
%TD*%
D16*
%TO.C,R34*%
X187975000Y-66960000D03*
X186325000Y-66960000D03*
%TD*%
D28*
%TO.C,M5*%
X170310001Y-176285000D03*
X171309999Y-176285000D03*
X170810000Y-174935000D03*
%TD*%
D11*
%TO.C,U9*%
X217170000Y-229629999D03*
X217170000Y-228359999D03*
X217170000Y-227089999D03*
X217170000Y-225819999D03*
X212230000Y-225819999D03*
X212230000Y-227089999D03*
X212230000Y-228359999D03*
X212230000Y-229629999D03*
%TD*%
D13*
%TO.C,C46*%
X219270000Y-106194999D03*
X219270000Y-104644999D03*
%TD*%
%TO.C,C50*%
X212050000Y-146964999D03*
X212050000Y-145414999D03*
%TD*%
D27*
%TO.C,C71*%
X183670000Y-203180000D03*
X182710000Y-203180000D03*
%TD*%
D12*
%TO.C,U14*%
X210550000Y-211499999D03*
X210550000Y-212769999D03*
X210550000Y-214039999D03*
X210550000Y-215309999D03*
X215490000Y-215309999D03*
X215490000Y-214039999D03*
X215490000Y-212769999D03*
X215490000Y-211499999D03*
%TD*%
%TO.C,U13*%
X210630000Y-175469999D03*
X210630000Y-176739999D03*
X210630000Y-178009999D03*
X210630000Y-179279999D03*
X215570000Y-179279999D03*
X215570000Y-178009999D03*
X215570000Y-176739999D03*
X215570000Y-175469999D03*
%TD*%
D34*
%TO.C,R78*%
X147285476Y-184800000D03*
X146265476Y-184800000D03*
%TD*%
D13*
%TO.C,C29*%
X205120000Y-82515000D03*
X205120000Y-80965000D03*
%TD*%
D31*
%TO.C,M1*%
X180140000Y-80329998D03*
X180140000Y-79330000D03*
X178790000Y-79829999D03*
%TD*%
D35*
%TO.C,C64*%
X185140000Y-215360000D03*
X185140000Y-214400000D03*
%TD*%
D11*
%TO.C,U4*%
X216710000Y-49574999D03*
X216710000Y-48304999D03*
X216710000Y-47034999D03*
X216710000Y-45764999D03*
X211770000Y-45764999D03*
X211770000Y-47034999D03*
X211770000Y-48304999D03*
X211770000Y-49574999D03*
%TD*%
D15*
%TO.C,R4*%
X213713400Y-101034999D03*
X212646600Y-101034999D03*
%TD*%
D36*
%TO.C,LED2*%
X143486200Y-242255000D03*
X144743500Y-242255000D03*
%TD*%
D15*
%TO.C,R1*%
X214783400Y-52054999D03*
X213716600Y-52054999D03*
%TD*%
D13*
%TO.C,C53*%
X211980000Y-182904999D03*
X211980000Y-181354999D03*
%TD*%
%TO.C,C38*%
X205040000Y-190510000D03*
X205040000Y-188960000D03*
%TD*%
D37*
%TO.C,R55*%
X145420000Y-217100000D03*
X145420000Y-215450000D03*
%TD*%
D13*
%TO.C,C56*%
X211900000Y-218934999D03*
X211900000Y-217384999D03*
%TD*%
D33*
%TO.C,D2*%
X193257500Y-107640000D03*
X193257500Y-112010000D03*
%TD*%
D13*
%TO.C,C58*%
X219040000Y-250154999D03*
X219040000Y-248604999D03*
%TD*%
%TO.C,C55*%
X219120000Y-214164999D03*
X219120000Y-212614999D03*
%TD*%
D10*
%TO.C,R77*%
X145900000Y-178380000D03*
X147550000Y-178380000D03*
%TD*%
D34*
%TO.C,R66*%
X192880000Y-202930000D03*
X191860000Y-202930000D03*
%TD*%
D38*
%TO.C,R48*%
X138815000Y-145847500D03*
X138815000Y-144022500D03*
%TD*%
D15*
%TO.C,R9*%
X215373400Y-196174999D03*
X214306600Y-196174999D03*
%TD*%
D13*
%TO.C,C51*%
X210260000Y-146954999D03*
X210260000Y-145404999D03*
%TD*%
D39*
%TO.C,U19*%
X135259600Y-231150000D03*
X135259600Y-233450000D03*
X135259600Y-235750000D03*
D40*
X141660400Y-233450000D03*
%TD*%
D37*
%TO.C,R46*%
X193157500Y-136955000D03*
X193157500Y-135305000D03*
%TD*%
D26*
%TO.C,C18*%
X131900000Y-221612500D03*
X131900000Y-223387500D03*
%TD*%
D41*
%TO.C,U20*%
X156191676Y-188715000D03*
X156191676Y-189985000D03*
X156191676Y-191255000D03*
X156191676Y-192525000D03*
X161119276Y-192525000D03*
X161119276Y-191255000D03*
X161119276Y-189985000D03*
X161119276Y-188715000D03*
%TD*%
D14*
%TO.C,C28*%
X208810000Y-82844999D03*
X208810000Y-84394999D03*
%TD*%
D10*
%TO.C,R63*%
X180495000Y-213660000D03*
X182145000Y-213660000D03*
%TD*%
D42*
%TO.C,L9*%
X145615000Y-150086000D03*
X155215000Y-150086000D03*
%TD*%
D43*
%TO.C,C67*%
X160417500Y-143347500D03*
X160417500Y-140647500D03*
%TD*%
D37*
%TO.C,R28*%
X150460000Y-169095000D03*
X150460000Y-167445000D03*
%TD*%
D13*
%TO.C,C52*%
X219200000Y-178134999D03*
X219200000Y-176584999D03*
%TD*%
D44*
%TO.C,C69*%
X186180000Y-199630000D03*
X186180000Y-200590000D03*
%TD*%
D11*
%TO.C,U6*%
X217270000Y-121489999D03*
X217270000Y-120219999D03*
X217270000Y-118949999D03*
X217270000Y-117679999D03*
X212330000Y-117679999D03*
X212330000Y-118949999D03*
X212330000Y-120219999D03*
X212330000Y-121489999D03*
%TD*%
D13*
%TO.C,C57*%
X210110000Y-218924999D03*
X210110000Y-217374999D03*
%TD*%
D45*
%TO.C,R37*%
X191800000Y-160045000D03*
X191800000Y-161695000D03*
%TD*%
D14*
%TO.C,C40*%
X208580000Y-226949999D03*
X208580000Y-228499999D03*
%TD*%
D46*
%TO.C,U21*%
X141920000Y-173722400D03*
X140969999Y-173722400D03*
X140019998Y-173722400D03*
X140019998Y-176110000D03*
X141920000Y-176110000D03*
%TD*%
D13*
%TO.C,C26*%
X204430000Y-46565000D03*
X204430000Y-45015000D03*
%TD*%
%TO.C,C32*%
X204990000Y-118480000D03*
X204990000Y-116930000D03*
%TD*%
D45*
%TO.C,R58*%
X145140000Y-229265000D03*
X145140000Y-230915000D03*
%TD*%
D16*
%TO.C,R31*%
X143855000Y-70700000D03*
X142205000Y-70700000D03*
%TD*%
%TO.C,R21*%
X215635000Y-109409999D03*
X213985000Y-109409999D03*
%TD*%
D22*
%TO.C,C19*%
X137085000Y-212190000D03*
X138635000Y-212190000D03*
%TD*%
D42*
%TO.C,L10*%
X145655000Y-134426000D03*
X155255000Y-134426000D03*
%TD*%
D16*
%TO.C,R15*%
X208635000Y-80980000D03*
X206985000Y-80980000D03*
%TD*%
D15*
%TO.C,R8*%
X213633400Y-172814999D03*
X212566600Y-172814999D03*
%TD*%
%TO.C,R5*%
X215313400Y-123934999D03*
X214246600Y-123934999D03*
%TD*%
D13*
%TO.C,C39*%
X203200000Y-190500000D03*
X203200000Y-188950000D03*
%TD*%
D37*
%TO.C,R38*%
X193580000Y-161685000D03*
X193580000Y-160035000D03*
%TD*%
D45*
%TO.C,R75*%
X153075476Y-191245000D03*
X153075476Y-192895000D03*
%TD*%
D14*
%TO.C,C31*%
X208680000Y-118809999D03*
X208680000Y-120359999D03*
%TD*%
D12*
%TO.C,U10*%
X210670000Y-67534999D03*
X210670000Y-68804999D03*
X210670000Y-70074999D03*
X210670000Y-71344999D03*
X215610000Y-71344999D03*
X215610000Y-70074999D03*
X215610000Y-68804999D03*
X215610000Y-67534999D03*
%TD*%
D27*
%TO.C,C68*%
X188520000Y-201600000D03*
X187560000Y-201600000D03*
%TD*%
D17*
%TO.C,C16*%
X187921000Y-94380000D03*
X186371000Y-94380000D03*
%TD*%
D10*
%TO.C,R70*%
X169985000Y-178340000D03*
X171635000Y-178340000D03*
%TD*%
D41*
%TO.C,U17*%
X181376200Y-177555000D03*
X181376200Y-178825000D03*
X181376200Y-180095000D03*
X181376200Y-181365000D03*
X186303800Y-181365000D03*
X186303800Y-180095000D03*
X186303800Y-178825000D03*
X186303800Y-177555000D03*
%TD*%
D15*
%TO.C,R10*%
X213553400Y-209024999D03*
X212486600Y-209024999D03*
%TD*%
D45*
%TO.C,R30*%
X182390000Y-79125000D03*
X182390000Y-80775000D03*
%TD*%
D22*
%TO.C,C61*%
X187845000Y-175700000D03*
X189395000Y-175700000D03*
%TD*%
D47*
%TO.C,U22*%
X150175476Y-184799998D03*
D48*
X150175476Y-185749999D03*
X150175476Y-186700000D03*
X152795476Y-186700000D03*
X152795476Y-184799998D03*
%TD*%
D13*
%TO.C,C44*%
X212020000Y-74969999D03*
X212020000Y-73419999D03*
%TD*%
D36*
%TO.C,LED1*%
X147477549Y-250914999D03*
X148734849Y-250914999D03*
%TD*%
D42*
%TO.C,L1*%
X145887500Y-117696000D03*
X155487500Y-117696000D03*
%TD*%
D45*
%TO.C,R35*%
X182850000Y-65275000D03*
X182850000Y-66925000D03*
%TD*%
D38*
%TO.C,R47*%
X139087500Y-113457500D03*
X139087500Y-111632500D03*
%TD*%
D16*
%TO.C,R14*%
X207945000Y-45030000D03*
X206295000Y-45030000D03*
%TD*%
%TO.C,R79*%
X144060476Y-184800000D03*
X142410476Y-184800000D03*
%TD*%
D15*
%TO.C,R2*%
X213658400Y-64909999D03*
X212591600Y-64909999D03*
%TD*%
D42*
%TO.C,L2*%
X145927500Y-102036000D03*
X155527500Y-102036000D03*
%TD*%
D15*
%TO.C,R12*%
X213463400Y-244564999D03*
X212396600Y-244564999D03*
%TD*%
D30*
%TO.C,F1*%
X136175000Y-117605000D03*
X139100000Y-117605000D03*
%TD*%
D13*
%TO.C,C45*%
X210230000Y-74959999D03*
X210230000Y-73409999D03*
%TD*%
D34*
%TO.C,R59*%
X187300000Y-211920000D03*
X186280000Y-211920000D03*
%TD*%
D49*
%TO.C,U18*%
X186145000Y-209793800D03*
X187415000Y-209793800D03*
X188685000Y-209793800D03*
X189955000Y-209793800D03*
X189955000Y-204866200D03*
X188685000Y-204866200D03*
X187415000Y-204866200D03*
X186145000Y-204866200D03*
%TD*%
D10*
%TO.C,R71*%
X163455000Y-174650000D03*
X165105000Y-174650000D03*
%TD*%
D16*
%TO.C,R17*%
X208633000Y-152950000D03*
X206983000Y-152950000D03*
%TD*%
D34*
%TO.C,R76*%
X151485476Y-183180000D03*
X150465476Y-183180000D03*
%TD*%
D10*
%TO.C,R74*%
X169335000Y-162810000D03*
X170985000Y-162810000D03*
%TD*%
D13*
%TO.C,C41*%
X204890000Y-226620000D03*
X204890000Y-225070000D03*
%TD*%
D10*
%TO.C,R60*%
X198485000Y-221620000D03*
X200135000Y-221620000D03*
%TD*%
D43*
%TO.C,C65*%
X160690000Y-110957500D03*
X160690000Y-108257500D03*
%TD*%
D13*
%TO.C,C48*%
X210260000Y-110954999D03*
X210260000Y-109404999D03*
%TD*%
%TO.C,C59*%
X211820000Y-254924999D03*
X211820000Y-253374999D03*
%TD*%
%TO.C,C49*%
X219270000Y-142194999D03*
X219270000Y-140644999D03*
%TD*%
D14*
%TO.C,C34*%
X208808000Y-154814999D03*
X208808000Y-156364999D03*
%TD*%
D29*
%TO.C,C66*%
X138795000Y-140647500D03*
X138795000Y-134422500D03*
%TD*%
D11*
%TO.C,U5*%
X217400000Y-85524999D03*
X217400000Y-84254999D03*
X217400000Y-82984999D03*
X217400000Y-81714999D03*
X212460000Y-81714999D03*
X212460000Y-82984999D03*
X212460000Y-84254999D03*
X212460000Y-85524999D03*
%TD*%
D16*
%TO.C,R36*%
X143915000Y-58060000D03*
X142265000Y-58060000D03*
%TD*%
D21*
%TO.C,C23*%
X192210000Y-209800000D03*
X193170000Y-209800000D03*
%TD*%
D13*
%TO.C,C43*%
X219240000Y-70199999D03*
X219240000Y-68649999D03*
%TD*%
D45*
%TO.C,R45*%
X193277500Y-115750000D03*
X193277500Y-117400000D03*
%TD*%
M02*
