M48
; DRILL file {KiCad 9.0.3} date 2025-09-16T13:44:51-0400
; FORMAT={-:-/ absolute / inch / decimal}
; #@! TF.CreationDate,2025-09-16T13:44:51-04:00
; #@! TF.GenerationSoftware,Kicad,Pcbnew,9.0.3
; #@! TF.FileFunction,Plated,1,10,PTH
FMAT,2
INCH
; #@! TA.AperFunction,Plated,PTH,ViaDrill
T1C0.0118
; #@! TA.AperFunction,Plated,PTH,ComponentDrill
T2C0.0402
; #@! TA.AperFunction,Plated,PTH,ComponentDrill
T3C0.0409
; #@! TA.AperFunction,Plated,PTH,ComponentDrill
T4C0.0429
; #@! TA.AperFunction,Plated,PTH,ComponentDrill
T5C0.0512
; #@! TA.AperFunction,Plated,PTH,ComponentDrill
T6C0.0590
; #@! TA.AperFunction,Plated,PTH,ComponentDrill
T7C0.0630
; #@! TA.AperFunction,Plated,PTH,ComponentDrill
T8C0.0650
; #@! TA.AperFunction,Plated,PTH,ComponentDrill
T9C0.0670
; #@! TA.AperFunction,Plated,PTH,ComponentDrill
T10C0.1012
; #@! TA.AperFunction,Plated,PTH,ComponentDrill
T11C0.1260
%
G90
G05
T1
X4.6Y-1.8
X4.6Y-2.0
X4.6Y-2.2
X4.6Y-2.4
X4.6Y-2.6
X4.6Y-2.8
X4.6Y-3.0
X4.6Y-3.2
X4.6Y-3.4
X4.6Y-3.6
X4.6Y-3.8
X4.6Y-4.0
X4.6Y-4.2
X4.6Y-5.8
X4.6Y-6.0
X4.6Y-6.2
X4.6Y-6.4
X4.6Y-8.2
X4.6Y-9.8
X4.6Y-10.0
X4.8Y-1.8
X4.8Y-2.0
X4.8Y-2.2
X4.8Y-2.4
X4.8Y-2.6
X4.8Y-2.8
X4.8Y-3.0
X4.8Y-3.2
X4.8Y-3.4
X4.8Y-3.6
X4.8Y-3.8
X4.8Y-4.0
X4.8Y-4.2
X4.8Y-5.8
X4.8Y-6.0
X4.8Y-6.2
X4.8Y-6.4
X4.8Y-8.2
X4.8Y-9.8
X4.8Y-10.0
X4.9496Y-8.3232
X4.95Y-2.2862
X4.95Y-2.7862
X5.0Y-1.4
X5.0Y-1.6
X5.0Y-1.8
X5.0Y-2.0
X5.0Y-2.2
X5.0Y-2.4
X5.0Y-2.6
X5.0Y-3.0
X5.0Y-3.2
X5.0Y-3.4
X5.0Y-3.6
X5.0Y-3.8
X5.0Y-4.0
X5.0Y-4.2
X5.0Y-4.4
X5.0Y-4.6
X5.0Y-4.8
X5.0Y-5.0
X5.0Y-5.2
X5.0Y-5.4
X5.0Y-5.6
X5.0Y-5.8
X5.0Y-6.0
X5.0Y-6.2
X5.0Y-6.4
X5.0Y-8.0
X5.0Y-8.2
X5.0Y-8.4
X5.0Y-8.6
X5.0Y-9.4
X5.0Y-9.6
X5.0Y-9.8
X5.0Y-10.0
X5.074Y-9.061
X5.074Y-10.0764
X5.1329Y-10.2703
X5.1366Y-1.848
X5.1366Y-7.426
X5.1634Y-7.8977
X5.1634Y-7.526
X5.1752Y-1.8075
X5.1752Y-7.226
X5.1933Y-8.8508
X5.2Y-1.4
X5.2Y-1.6
X5.2Y-8.0
X5.2Y-8.2
X5.2Y-8.4
X5.2Y-8.6
X5.2Y-9.4
X5.2Y-10.4
X5.2134Y-1.7705
X5.2134Y-7.026
X5.2177Y-7.626
X5.2177Y-7.8114
X5.25Y-8.7244
X5.2503Y-1.7348
X5.2504Y-7.1264
X5.2676Y-9.9258
X5.2685Y-8.9811
X5.2894Y-7.0752
X5.2898Y-6.8079
X5.3025Y-5.9996
X5.3025Y-6.0496
X5.3039Y-4.7236
X5.3039Y-4.7736
X5.3195Y-9.8181
X5.3228Y-6.8425
X5.3228Y-7.176
X5.3505Y-5.9996
X5.3525Y-6.0496
X5.3539Y-4.7236
X5.3539Y-4.7736
X5.3853Y-9.5341
X5.4Y-1.4
X5.4Y-1.6
X5.4Y-2.0
X5.4Y-2.2
X5.4Y-2.4
X5.4Y-2.6
X5.4Y-3.0
X5.4Y-3.2
X5.4Y-3.4
X5.4Y-6.4
X5.4Y-7.4
X5.4Y-7.65
X5.4Y-7.85
X5.4Y-8.0
X5.4Y-8.2
X5.4Y-9.4
X5.4Y-10.4
X5.4025Y-5.9996
X5.4025Y-6.0496
X5.4026Y-10.2904
X5.4039Y-4.7236
X5.4039Y-4.7736
X5.45Y-3.775
X5.45Y-3.825
X5.45Y-3.875
X5.45Y-5.05
X5.45Y-5.1
X5.45Y-5.15
X5.4583Y-8.3024
X5.4618Y-10.1778
X5.5Y-3.775
X5.5Y-3.825
X5.5Y-3.875
X5.5Y-5.05
X5.5Y-5.1
X5.5Y-5.15
X5.5378Y-6.7783
X5.5988Y-6.7776
X5.6Y-1.4
X5.6Y-1.6
X5.6Y-2.0
X5.6Y-2.2
X5.6Y-3.2
X5.6Y-3.4
X5.6Y-3.6
X5.6Y-5.0
X5.6Y-6.2
X5.6Y-6.4
X5.6Y-7.4
X5.6Y-7.65
X5.6Y-7.85
X5.6Y-8.0
X5.6Y-8.2
X5.6Y-8.4
X5.6Y-9.4
X5.6Y-10.4
X5.603Y-9.7053
X5.6491Y-9.6199
X5.6508Y-9.1909
X5.6524Y-8.6339
X5.6752Y-6.7689
X5.6752Y-6.9602
X5.7138Y-9.3295
X5.7142Y-8.9795
X5.7252Y-8.4295
X5.7256Y-8.8075
X5.7349Y-10.064
X5.7349Y-10.2317
X5.7416Y-9.5376
X5.8Y-1.4
X5.8Y-1.6
X5.8Y-2.0
X5.8Y-3.2
X5.8Y-3.4
X5.8Y-3.6
X5.8Y-5.0
X5.8Y-6.2
X5.8Y-6.4
X5.8Y-7.4
X5.8Y-7.65
X5.8Y-7.85
X5.8Y-8.0
X5.8Y-8.2
X5.8Y-8.4
X5.8Y-8.6
X5.8Y-8.8
X5.8Y-9.0
X5.8Y-9.2
X5.8Y-9.4
X5.8Y-10.4
X5.8061Y-9.7872
X5.8372Y-7.2319
X5.8542Y-7.313
X5.9097Y-9.8785
X5.9236Y-6.5256
X5.924Y-6.7169
X5.9282Y-9.5368
X5.998Y-6.5264
X5.998Y-6.7157
X6.0Y-1.4
X6.0Y-1.6
X6.0Y-2.0
X6.0Y-3.2
X6.0Y-3.4
X6.0Y-3.6
X6.0Y-5.0
X6.0Y-6.2
X6.0Y-6.4
X6.0Y-7.85
X6.0Y-8.0
X6.0Y-8.2
X6.0Y-8.4
X6.0Y-8.6
X6.0Y-8.8
X6.0Y-9.0
X6.0Y-9.2
X6.0Y-9.4
X6.0Y-10.4
X6.0266Y-7.6476
X6.0384Y-7.237
X6.0518Y-9.8258
X6.1183Y-7.2043
X6.2Y-1.4
X6.2Y-1.6
X6.2Y-2.0
X6.2Y-3.2
X6.2Y-3.4
X6.2Y-3.6
X6.2Y-5.0
X6.2Y-6.2
X6.2Y-7.2
X6.2Y-7.85
X6.2Y-8.0
X6.2Y-8.2
X6.2Y-8.4
X6.2Y-10.4
X6.2425Y-7.6421
X6.3823Y-6.876
X6.4Y-1.4
X6.4Y-1.6
X6.4Y-2.0
X6.4Y-2.2
X6.4Y-2.4
X6.4Y-2.6
X6.4Y-2.8
X6.4Y-3.0
X6.4Y-3.2
X6.4Y-3.4
X6.4Y-3.6
X6.4Y-7.2
X6.4Y-7.65
X6.4Y-7.85
X6.4Y-8.0
X6.4Y-8.2
X6.4Y-8.4
X6.4Y-8.6
X6.4Y-8.8
X6.4Y-9.0
X6.4Y-9.2
X6.4Y-9.4
X6.4Y-9.6
X6.4Y-9.8
X6.4Y-10.0
X6.4Y-10.2
X6.4Y-10.4
X6.4071Y-6.2094
X6.4071Y-6.3327
X6.6Y-1.4
X6.6Y-1.6
X6.6Y-2.0
X6.6Y-3.2
X6.6Y-3.4
X6.6Y-5.0
X6.6Y-7.2
X6.6Y-7.4
X6.6Y-7.65
X6.6Y-7.85
X6.6Y-8.0
X6.6Y-8.2
X6.6Y-8.4
X6.6Y-8.8
X6.6Y-9.0
X6.6Y-9.2
X6.6Y-9.4
X6.6Y-9.6
X6.6Y-9.8
X6.6Y-10.0
X6.6Y-10.2
X6.6Y-10.4
X6.7858Y-6.3827
X6.8Y-1.4
X6.8Y-1.6
X6.8Y-2.0
X6.8Y-3.2
X6.8Y-5.0
X6.8Y-6.2
X6.8Y-7.2
X6.8Y-7.4
X6.8Y-7.65
X6.8Y-7.85
X6.8Y-8.0
X6.8Y-8.2
X6.8Y-8.4
X6.8Y-9.0
X6.8Y-9.2
X6.8Y-9.4
X6.8Y-9.6
X6.8Y-9.8
X6.8Y-10.0
X6.8Y-10.2
X6.8Y-10.4
X6.8059Y-7.0213
X6.9366Y-7.0906
X6.952Y-7.2
X6.9909Y-7.8114
X7.0Y-1.4
X7.0Y-1.6
X7.0Y-2.0
X7.0Y-2.2
X7.0Y-2.4
X7.0Y-2.8
X7.0Y-3.0
X7.0Y-3.2
X7.0Y-3.4
X7.0Y-3.6
X7.0Y-5.0
X7.0Y-6.2
X7.0Y-6.4
X7.0Y-7.4
X7.0Y-7.65
X7.0Y-8.6
X7.0Y-8.8
X7.0Y-9.0
X7.0Y-9.2
X7.0Y-9.4
X7.0Y-9.6
X7.0Y-9.8
X7.0Y-10.0
X7.0Y-10.2
X7.0Y-10.4
X7.0071Y-6.6846
X7.0169Y-8.4122
X7.052Y-6.7327
X7.0551Y-7.8976
X7.1169Y-7.2
X7.1807Y-3.0693
X7.1937Y-8.0831
X7.1988Y-2.5173
X7.2Y-1.4
X7.2Y-1.6
X7.2Y-2.0
X7.2Y-2.2
X7.2Y-2.4
X7.2Y-2.8
X7.2Y-3.0
X7.2Y-3.4
X7.2Y-3.6
X7.2Y-5.0
X7.2Y-7.4
X7.2Y-7.65
X7.2Y-8.6
X7.2Y-8.8
X7.2Y-9.0
X7.2Y-9.2
X7.2Y-9.4
X7.2Y-9.6
X7.2Y-9.8
X7.2Y-10.0
X7.2Y-10.2
X7.2Y-10.4
X7.2396Y-6.2098
X7.2748Y-8.0476
X7.2754Y-3.7157
X7.289Y-8.5189
X7.2906Y-7.8594
X7.3504Y-6.9173
X7.4Y-1.4
X7.4Y-1.6
X7.4Y-2.0
X7.4Y-2.2
X7.4Y-2.4
X7.4Y-2.8
X7.4Y-3.0
X7.4Y-3.4
X7.4Y-3.6
X7.4Y-5.0
X7.4Y-6.4
X7.4Y-7.4
X7.4Y-7.65
X7.4Y-8.6
X7.4Y-8.8
X7.4Y-9.0
X7.4Y-9.2
X7.4Y-9.4
X7.4Y-9.6
X7.4Y-9.8
X7.4Y-10.0
X7.4Y-10.2
X7.4Y-10.4
X7.4191Y-6.2098
X7.4374Y-6.7331
X7.4577Y-3.7157
X7.476Y-6.9957
X7.4976Y-3.1807
X7.5091Y-6.9173
X7.528Y-8.2594
X7.5673Y-2.6362
X7.6Y-1.4
X7.6Y-1.6
X7.6Y-2.0
X7.6Y-2.2
X7.6Y-2.4
X7.6Y-3.4
X7.6Y-3.6
X7.6Y-3.8
X7.6Y-4.0
X7.6Y-4.8
X7.6Y-5.0
X7.6Y-7.0
X7.6Y-7.2
X7.6Y-7.4
X7.6Y-7.65
X7.6Y-8.4
X7.6Y-8.8
X7.6Y-9.0
X7.6Y-9.2
X7.6Y-9.4
X7.6Y-9.6
X7.6Y-9.8
X7.6Y-10.0
X7.6Y-10.2
X7.6Y-10.4
X7.6441Y-7.9894
X7.6441Y-8.2594
X7.7098Y-6.0209
X7.7098Y-6.8425
X7.7236Y-7.7299
X7.7236Y-9.9752
X7.7425Y-4.6031
X7.7429Y-6.7689
X7.7476Y-1.848
X7.7476Y-3.3539
X7.772Y-5.7246
X7.772Y-6.8075
X7.7858Y-1.8075
X7.7858Y-3.187
X7.8Y-1.4
X7.8Y-1.6
X7.8Y-3.4
X7.8Y-3.6
X7.8Y-3.8
X7.8Y-4.0
X7.8Y-4.2
X7.8Y-4.4
X7.8Y-4.8
X7.8Y-5.0
X7.8Y-5.2
X7.8Y-5.4
X7.8Y-5.6
X7.8Y-5.8
X7.8Y-6.4
X7.8Y-7.0
X7.8Y-8.8
X7.8Y-9.0
X7.8Y-9.2
X7.8Y-9.4
X7.8Y-9.6
X7.8Y-9.8
X7.8Y-10.2
X7.8Y-10.4
X7.8004Y-8.5579
X7.8008Y-7.4764
X7.835Y-7.1398
X7.837Y-1.735
X7.861Y-2.8898
X7.8843Y-1.7713
X7.8992Y-7.439
X7.9059Y-3.4748
X7.9059Y-4.7831
X7.9059Y-6.2067
X7.9059Y-7.2283
X7.9441Y-8.9217
X7.9465Y-7.5
X7.9823Y-6.6846
X7.9827Y-5.4937
X7.9827Y-6.9087
X7.9831Y-2.6591
X7.9831Y-4.076
X7.9831Y-5.3272
X7.9941Y-8.8161
X7.9953Y-7.5823
X8.0Y-1.4
X8.0Y-1.6
X8.0Y-2.0
X8.0Y-2.2
X8.0Y-2.4
X8.0Y-9.2
X8.0Y-9.4
X8.0Y-9.6
X8.0Y-10.2
X8.0Y-10.4
X8.0122Y-1.8781
X8.0343Y-4.7094
X8.0393Y-6.127
X8.0394Y-3.2935
X8.0559Y-9.7433
X8.0618Y-8.3268
X8.063Y-7.8969
X8.1209Y-3.3539
X8.1211Y-4.3073
X8.1287Y-7.2283
X8.1287Y-7.6272
X8.1287Y-9.0492
X8.1291Y-8.7252
X8.2Y-1.4
X8.2Y-1.6
X8.2Y-2.0
X8.2Y-2.4
X8.2Y-3.6
X8.2Y-3.8
X8.2Y-5.0
X8.2Y-5.2
X8.2Y-6.3
X8.2Y-6.5
X8.2Y-6.8
X8.2Y-7.8
X8.2Y-8.0
X8.2Y-8.2
X8.2Y-9.2
X8.2Y-9.4
X8.2Y-10.2
X8.2Y-10.4
X8.2063Y-9.8187
X8.2071Y-6.9837
X8.2071Y-10.036
X8.2075Y-7.2006
X8.2114Y-8.4014
X8.2134Y-5.786
X8.2165Y-4.3683
X8.2169Y-8.6193
X8.2213Y-4.151
X8.2219Y-2.7335
X8.224Y-2.9512
X8.226Y-5.5685
X8.2567Y-1.9602
X8.2571Y-1.848
X8.2571Y-1.9031
X8.2748Y-9.049
X8.2752Y-8.9368
X8.2752Y-8.9919
X8.2791Y-4.6793
X8.2791Y-4.7344
X8.2811Y-7.5152
X8.2811Y-7.5703
X8.2842Y-6.0969
X8.2842Y-6.152
X8.2843Y-3.2634
X8.2843Y-3.3185
X8.4Y-1.4
X8.4Y-1.6
X8.4Y-2.2
X8.4Y-2.4
X8.4Y-3.0
X8.4Y-3.6
X8.4Y-3.8
X8.4Y-4.4
X8.4Y-5.0
X8.4Y-5.2
X8.4Y-6.0
X8.4Y-6.5
X8.4Y-7.4
X8.4Y-7.8
X8.4Y-8.0
X8.4Y-8.8
X8.4Y-9.4
X8.4Y-10.2
X8.4Y-10.4
X8.5579Y-9.7894
X8.5583Y-9.8472
X8.561Y-8.3724
X8.5614Y-8.4303
X8.5642Y-6.9539
X8.5646Y-7.0118
X8.5657Y-2.7045
X8.5661Y-2.7624
X8.5669Y-4.1217
X8.5669Y-5.539
X8.5673Y-4.1795
X8.5673Y-5.5969
X8.6Y-2.0
X8.6Y-2.2
X8.6Y-2.4
X8.6Y-3.0
X8.6Y-3.6
X8.6Y-3.8
X8.6Y-4.4
X8.6Y-5.0
X8.6Y-5.2
X8.6Y-5.8
X8.6Y-6.0
X8.6Y-6.5
X8.6Y-7.2
X8.6Y-7.4
X8.6Y-7.8
X8.6Y-8.0
X8.6Y-8.2
X8.6Y-8.6
X8.6Y-8.8
X8.6Y-9.2
X8.6Y-9.4
X8.6Y-9.6
X8.6Y-10.0
X8.6094Y-1.8766
X8.6311Y-8.9656
X8.6323Y-3.2921
X8.6327Y-4.7061
X8.6374Y-6.125
X8.6406Y-7.5439
X8.7346Y-8.6878
X8.8Y-2.2
X8.8Y-2.4
X8.8Y-3.0
X8.8Y-3.6
X8.8Y-3.8
X8.8Y-4.4
X8.8Y-5.0
X8.8Y-5.2
X8.8Y-5.8
X8.8Y-6.5
X8.8Y-7.2
X8.8Y-7.4
X8.8Y-8.0
X8.8Y-8.6
X8.8Y-8.8
X8.8Y-9.4
X8.8Y-10.0
X9.0Y-1.4
X9.0Y-1.6
X9.0Y-2.2
X9.0Y-2.4
X9.0Y-3.0
X9.0Y-3.6
X9.0Y-3.8
X9.0Y-4.4
X9.0Y-5.0
X9.0Y-5.2
X9.0Y-5.8
X9.0Y-6.5
X9.0Y-7.2
X9.0Y-7.4
X9.0Y-8.0
X9.0Y-8.6
X9.0Y-8.8
X9.0Y-9.4
X9.0Y-10.0
X9.0Y-10.2
X9.0Y-10.4
T2
X4.5295Y-6.9756
X4.5295Y-7.0756
X4.5295Y-7.1756
X4.5295Y-7.2756
X4.5295Y-7.3756
X4.5295Y-7.4756
X4.5295Y-7.5756
X4.5295Y-7.6756
X4.6295Y-6.9256
X4.6295Y-7.0256
X4.6295Y-7.1256
X4.6295Y-7.2256
X4.6295Y-7.3256
X4.6295Y-7.4256
X4.6295Y-7.5256
X4.6295Y-7.6256
X4.6295Y-7.7256
X4.7295Y-6.9756
X4.7295Y-7.0756
X4.7295Y-7.1756
X4.7295Y-7.2756
X4.7295Y-7.3756
X4.7295Y-7.4756
X4.7295Y-7.5756
X4.7295Y-7.6756
X4.8295Y-7.0256
X4.8295Y-7.1256
X4.8295Y-7.2256
X4.8295Y-7.4256
X4.8295Y-7.5256
X4.8295Y-7.6256
T3
X4.7224Y-4.8096
X4.7224Y-4.9187
X4.7224Y-5.0278
X4.7224Y-5.1368
X4.8343Y-4.7551
X4.8343Y-4.8642
X4.8343Y-4.9732
X4.8343Y-5.0823
X4.8343Y-5.1913
T4
X4.7165Y-8.8748
X4.7165Y-8.9839
X4.7165Y-9.0929
X4.7165Y-9.202
X4.8283Y-8.8203
X4.8283Y-8.9293
X4.8283Y-9.0384
X4.8283Y-9.1474
X4.8283Y-9.2565
T5
X6.5279Y-5.198
X6.5279Y-5.4972
X6.5279Y-5.698
X6.5386Y-3.9228
X6.5386Y-4.222
X6.5386Y-4.4228
X7.3271Y-5.198
X7.3271Y-5.5996
X7.3271Y-6.0012
X7.3378Y-3.9228
X7.3378Y-4.3244
X7.3378Y-4.726
T6
X8.885Y-1.9506
X8.885Y-2.6593
X8.885Y-3.3679
X8.885Y-4.0766
X8.885Y-4.7852
X8.885Y-5.4939
X8.885Y-6.2026
X8.885Y-6.9112
X8.885Y-7.6199
X8.885Y-8.3285
X8.885Y-9.0372
X8.885Y-9.7459
T7
X5.4Y-3.6
X6.176Y-9.024
X6.176Y-9.398
X6.178Y-8.64
X6.2181Y-6.3795
X7.146Y-6.44
X8.154Y-2.248
T8
X5.9693Y-2.368
X5.9768Y-2.8657
X6.7248Y-2.8657
X6.7256Y-2.3681
T9
X8.785Y-1.8506
X8.785Y-2.0506
X8.785Y-2.5593
X8.785Y-2.7593
X8.785Y-3.2679
X8.785Y-3.4679
X8.785Y-3.9766
X8.785Y-4.1766
X8.785Y-4.6852
X8.785Y-4.8852
X8.785Y-5.3939
X8.785Y-5.5939
X8.785Y-6.1026
X8.785Y-6.3026
X8.785Y-6.8112
X8.785Y-7.0112
X8.785Y-7.5199
X8.785Y-7.7199
X8.785Y-8.2285
X8.785Y-8.4285
X8.785Y-8.9372
X8.785Y-9.1372
X8.785Y-9.6459
X8.785Y-9.8459
X8.985Y-1.8506
X8.985Y-2.0506
X8.985Y-2.5593
X8.985Y-2.7593
X8.985Y-3.2679
X8.985Y-3.4679
X8.985Y-3.9766
X8.985Y-4.1766
X8.985Y-4.6852
X8.985Y-4.8852
X8.985Y-5.3939
X8.985Y-5.5939
X8.985Y-6.1026
X8.985Y-6.3026
X8.985Y-6.8112
X8.985Y-7.0112
X8.985Y-7.5199
X8.985Y-7.7199
X8.985Y-8.2285
X8.985Y-8.4285
X8.985Y-8.9372
X8.985Y-9.1372
X8.985Y-9.6459
X8.985Y-9.8459
T10
X4.6495Y-6.7681
X4.6495Y-7.8831
T11
X4.7Y-1.4961
X4.7724Y-8.5463
X4.7724Y-9.5305
X4.7783Y-4.4811
X4.7783Y-5.4654
X4.8425Y-10.3
X6.752Y-3.5433
X6.752Y-8.6614
X8.6614Y-1.4961
X8.6614Y-10.3
M30
