%TF.GenerationSoftware,KiCad,Pcbnew,9.0.3*%
%TF.CreationDate,2025-09-16T13:44:48-04:00*%
%TF.ProjectId,WARM_TPC_Shaper,5741524d-5f54-4504-935f-536861706572,rev?*%
%TF.SameCoordinates,Original*%
%TF.FileFunction,Copper,L6,Inr*%
%TF.FilePolarity,Positive*%
%FSLAX46Y46*%
G04 Gerber Fmt 4.6, Leading zero omitted, Abs format (unit mm)*
G04 Created by KiCad (PCBNEW 9.0.3) date 2025-09-16 13:44:48*
%MOMM*%
%LPD*%
G01*
G04 APERTURE LIST*
%TA.AperFunction,ComponentPad*%
%ADD10C,2.800000*%
%TD*%
%TA.AperFunction,ComponentPad*%
%ADD11C,2.006600*%
%TD*%
%TA.AperFunction,ComponentPad*%
%ADD12C,2.209800*%
%TD*%
%TA.AperFunction,ComponentPad*%
%ADD13C,1.635000*%
%TD*%
%TA.AperFunction,ComponentPad*%
%ADD14C,4.216000*%
%TD*%
%TA.AperFunction,ComponentPad*%
%ADD15C,2.159000*%
%TD*%
%TA.AperFunction,ComponentPad*%
%ADD16R,2.000000X2.000000*%
%TD*%
%TA.AperFunction,ComponentPad*%
%ADD17C,2.000000*%
%TD*%
%TA.AperFunction,ComponentPad*%
%ADD18C,1.560000*%
%TD*%
%TA.AperFunction,ComponentPad*%
%ADD19C,6.400000*%
%TD*%
%TA.AperFunction,ComponentPad*%
%ADD20C,4.000000*%
%TD*%
%TA.AperFunction,ComponentPad*%
%ADD21R,1.530000X1.530000*%
%TD*%
%TA.AperFunction,ComponentPad*%
%ADD22C,1.530000*%
%TD*%
%TA.AperFunction,ViaPad*%
%ADD23C,0.600000*%
%TD*%
%TA.AperFunction,Conductor*%
%ADD24C,0.300000*%
%TD*%
%TA.AperFunction,Conductor*%
%ADD25C,0.200000*%
%TD*%
G04 APERTURE END LIST*
D10*
%TO.N,/V_SEC_RTN*%
%TO.C,SEC_{RTN}1*%
X181508400Y-163576000D03*
%TD*%
D11*
%TO.N,/M_SHPR_6*%
%TO.C,J13*%
X225680000Y-247544999D03*
D12*
%TO.N,/PM3p3V_RTN*%
X228220000Y-245004999D03*
X223140000Y-245004999D03*
X223140000Y-250084999D03*
X228220000Y-250084999D03*
%TD*%
D10*
%TO.N,/TELEM_M5V*%
%TO.C,TELEM_{-5V}1*%
X156870400Y-238709200D03*
%TD*%
D13*
%TO.N,/TELEM_RTN*%
%TO.C,J15*%
X122640000Y-235115000D03*
X122640000Y-232345000D03*
%TO.N,unconnected-(J15-Pad3)*%
X122640000Y-229575000D03*
%TO.N,/TELEM_RTN*%
X122640000Y-226805000D03*
X122640000Y-224035000D03*
%TO.N,/TELEM_M5V*%
X119800000Y-233730000D03*
X119800000Y-230960000D03*
%TO.N,/TELEM_P5V*%
X119800000Y-228190000D03*
X119800000Y-225420000D03*
D14*
%TO.N,GNDPWR*%
X121220000Y-217075000D03*
X121220000Y-242075000D03*
%TD*%
D15*
%TO.N,Net-(M2-Pad3)*%
%TO.C,P4*%
X170830000Y-60150000D03*
%TD*%
D11*
%TO.N,/M_SHPR_2*%
%TO.C,J5*%
X225680000Y-103544999D03*
D12*
%TO.N,/PM3p3V_RTN*%
X228220000Y-101004999D03*
X223140000Y-101004999D03*
X223140000Y-106084999D03*
X228220000Y-106084999D03*
%TD*%
D10*
%TO.N,/TELEM_RTN*%
%TO.C,TELEM_{RTN}2*%
X156870400Y-229209600D03*
%TD*%
D11*
%TO.N,/M_SHPR_1*%
%TO.C,J3*%
X225680000Y-67544999D03*
D12*
%TO.N,/PM3p3V_RTN*%
X228220000Y-65004999D03*
X223140000Y-65004999D03*
X223140000Y-70084999D03*
X228220000Y-70084999D03*
%TD*%
D11*
%TO.N,/P_SHPR_6*%
%TO.C,J14*%
X225680000Y-229544999D03*
D12*
%TO.N,/PM3p3V_RTN*%
X228220000Y-227004999D03*
X223140000Y-227004999D03*
X223140000Y-232084999D03*
X228220000Y-232084999D03*
%TD*%
D10*
%TO.N,/TELEM_RTN*%
%TO.C,TELEM_{RTN}1*%
X207111600Y-57099200D03*
%TD*%
D16*
%TO.N,Net-(U1-+VIN)*%
%TO.C,U1*%
X166080000Y-112340000D03*
D17*
%TO.N,Net-(U1--VIN)*%
X166080000Y-107240000D03*
%TO.N,/P3p3V*%
X186380000Y-120040000D03*
%TO.N,unconnected-(U1-TRIM-Pad4)*%
X186380000Y-109840000D03*
%TO.N,/PM3p3V_RTN*%
X186380000Y-99640000D03*
%TO.N,/Main_CKT/Enable*%
X166080000Y-99640000D03*
%TD*%
D11*
%TO.N,/M_SHPR_5*%
%TO.C,J11*%
X225680000Y-211544999D03*
D12*
%TO.N,/PM3p3V_RTN*%
X228220000Y-209004999D03*
X223140000Y-209004999D03*
X223140000Y-214084999D03*
X228220000Y-214084999D03*
%TD*%
D10*
%TO.N,/V_SEC_RTN*%
%TO.C,SEC_{RTN}2*%
X137160000Y-91440000D03*
%TD*%
%TO.N,/Main_CKT/Enable*%
%TO.C,V_{EN}1*%
X157940000Y-162040000D03*
%TD*%
D18*
%TO.N,/V_SEC_RTN*%
%TO.C,J2*%
X122790000Y-120780000D03*
X122790000Y-123550000D03*
%TO.N,unconnected-(J2-Pad3)*%
X122790000Y-126320000D03*
%TO.N,/V_SEC_RTN*%
X122790000Y-129090000D03*
X122790000Y-131860000D03*
%TO.N,/V_SEC_IN*%
X119950000Y-122165000D03*
X119950000Y-124935000D03*
X119950000Y-127705000D03*
X119950000Y-130475000D03*
D14*
%TO.N,GNDPWR*%
X121370000Y-113820000D03*
X121370000Y-138820000D03*
%TD*%
D19*
%TO.N,GNDPWR*%
%TO.C,H7*%
X123000000Y-261620000D03*
%TD*%
%TO.N,GNDPWR*%
%TO.C,H5*%
X119380000Y-38000000D03*
%TD*%
D10*
%TO.N,/TELEM_P5V*%
%TO.C,TELEM_{+5V}1*%
X156921200Y-219456000D03*
%TD*%
D11*
%TO.N,/P_SHPR_5*%
%TO.C,J12*%
X225680000Y-193544999D03*
D12*
%TO.N,/PM3p3V_RTN*%
X228220000Y-191004999D03*
X223140000Y-191004999D03*
X223140000Y-196084999D03*
X228220000Y-196084999D03*
%TD*%
D19*
%TO.N,GNDPWR*%
%TO.C,H1*%
X220000000Y-38000000D03*
%TD*%
D16*
%TO.N,Net-(U2-+VIN)*%
%TO.C,U2*%
X165807500Y-144730000D03*
D17*
%TO.N,Net-(U2--VIN)*%
X165807500Y-139630000D03*
%TO.N,/PM3p3V_RTN*%
X186107500Y-152430000D03*
%TO.N,unconnected-(U2-TRIM-Pad4)*%
X186107500Y-142230000D03*
%TO.N,/M3p3V*%
X186107500Y-132030000D03*
%TO.N,/Main_CKT/Enable*%
X165807500Y-132030000D03*
%TD*%
D19*
%TO.N,GNDPWR*%
%TO.C,H2*%
X171500000Y-90000000D03*
%TD*%
D11*
%TO.N,/P_SHPR_4*%
%TO.C,J10*%
X225680000Y-157544999D03*
D12*
%TO.N,/PM3p3V_RTN*%
X228220000Y-155004999D03*
X223140000Y-155004999D03*
X223140000Y-160084999D03*
X228220000Y-160084999D03*
%TD*%
D11*
%TO.N,/P_SHPR_2*%
%TO.C,J6*%
X225680000Y-85544999D03*
D12*
%TO.N,/PM3p3V_RTN*%
X228220000Y-83004999D03*
X223140000Y-83004999D03*
X223140000Y-88084999D03*
X228220000Y-88084999D03*
%TD*%
D15*
%TO.N,Net-(P1-Pad1)*%
%TO.C,P1*%
X151810600Y-72790000D03*
%TD*%
D11*
%TO.N,/M_SHPR_4*%
%TO.C,J9*%
X225680000Y-175544999D03*
D12*
%TO.N,/PM3p3V_RTN*%
X228220000Y-173004999D03*
X223140000Y-173004999D03*
X223140000Y-178084999D03*
X228220000Y-178084999D03*
%TD*%
D19*
%TO.N,GNDPWR*%
%TO.C,H4*%
X220000000Y-261620000D03*
%TD*%
D11*
%TO.N,/P_SHPR_1*%
%TO.C,J4*%
X225680000Y-49544999D03*
D12*
%TO.N,/PM3p3V_RTN*%
X228220000Y-47004999D03*
X223140000Y-47004999D03*
X223140000Y-52084999D03*
X228220000Y-52084999D03*
%TD*%
D19*
%TO.N,GNDPWR*%
%TO.C,H3*%
X171500000Y-220000000D03*
%TD*%
D15*
%TO.N,Net-(M1-Pad3)*%
%TO.C,P2*%
X170809800Y-72790000D03*
%TD*%
%TO.N,Net-(P3-Pad1)*%
%TO.C,P3*%
X151620000Y-60148000D03*
%TD*%
D11*
%TO.N,/P_SHPR_3*%
%TO.C,J8*%
X225680000Y-121544999D03*
D12*
%TO.N,/PM3p3V_RTN*%
X228220000Y-119004999D03*
X223140000Y-119004999D03*
X223140000Y-124084999D03*
X228220000Y-124084999D03*
%TD*%
D20*
%TO.N,GNDPWR*%
%TO.C,J1*%
X118098000Y-171909500D03*
X118098000Y-200230500D03*
D21*
%TO.N,/i_Sense_6-*%
X117590000Y-196230000D03*
D22*
%TO.N,/TELEM_RTN*%
X115050000Y-194960000D03*
%TO.N,/i_Sense_6+*%
X117590000Y-193690000D03*
%TO.N,/TELEM_RTN*%
X115050000Y-192420000D03*
%TO.N,/i_Sense_5-*%
X117590000Y-191150000D03*
%TO.N,/TELEM_RTN*%
X115050000Y-189880000D03*
%TO.N,/i_Sense_5+*%
X117590000Y-188610000D03*
%TO.N,/TELEM_RTN*%
X115050000Y-187340000D03*
X115050000Y-184800000D03*
%TO.N,/i_Sense_4+*%
X117590000Y-183530000D03*
%TO.N,/TELEM_RTN*%
X115050000Y-182260000D03*
%TO.N,/i_Sense_3-*%
X117590000Y-180990000D03*
%TO.N,/TELEM_RTN*%
X115050000Y-179720000D03*
%TO.N,/i_Sense_3+*%
X117590000Y-178450000D03*
%TO.N,/TELEM_RTN*%
X115050000Y-177180000D03*
%TO.N,/Enable+*%
X117590000Y-175910000D03*
%TO.N,/TELEM_RTN*%
X120130000Y-194960000D03*
%TO.N,/P3p3V_MON*%
X122670000Y-193690000D03*
%TO.N,/TELEM_RTN*%
X120130000Y-192420000D03*
%TO.N,/M3p3V_MON*%
X122670000Y-191150000D03*
%TO.N,/TEMP_MON*%
X120130000Y-189880000D03*
%TO.N,/i_Sense_2-*%
X122670000Y-188610000D03*
%TO.N,/TELEM_RTN*%
X120130000Y-187340000D03*
%TO.N,/i_Sense_4-*%
X117590000Y-186070000D03*
%TO.N,/TELEM_RTN*%
X120130000Y-184800000D03*
%TO.N,/i_Sense_2+*%
X122670000Y-183530000D03*
%TO.N,/TELEM_RTN*%
X120130000Y-182260000D03*
%TO.N,/i_Sense_1-*%
X122670000Y-180990000D03*
%TO.N,/TELEM_RTN*%
X120130000Y-179720000D03*
%TO.N,/Enable-*%
X120130000Y-177180000D03*
%TO.N,/i_Sense_1+*%
X122670000Y-178450000D03*
%TD*%
D11*
%TO.N,/M_SHPR_3*%
%TO.C,J7*%
X225680000Y-139544999D03*
D12*
%TO.N,/PM3p3V_RTN*%
X228220000Y-137004999D03*
X223140000Y-137004999D03*
X223140000Y-142084999D03*
X228220000Y-142084999D03*
%TD*%
D23*
%TO.N,/P3p3V*%
X206470000Y-183600000D03*
X200810000Y-121490000D03*
X206470000Y-193730000D03*
X200810000Y-183600000D03*
X209720000Y-49789999D03*
X206480000Y-221620000D03*
X200810000Y-157650000D03*
X210180000Y-229844999D03*
X206470000Y-229850000D03*
X200810000Y-88260000D03*
%TO.N,/PM3p3V_RTN*%
X188446000Y-157730000D03*
X189426000Y-94380000D03*
X221860000Y-220670000D03*
%TO.N,GNDPWR*%
X184796000Y-94380000D03*
X183886000Y-157730000D03*
%TO.N,/V_SEC_RTN*%
X187960000Y-40640000D03*
X218440000Y-152400000D03*
X121920000Y-66040000D03*
X127000000Y-147320000D03*
X147320000Y-81280000D03*
X157480000Y-157480000D03*
X213360000Y-60960000D03*
X121920000Y-152400000D03*
X139700000Y-129540000D03*
X187960000Y-35560000D03*
X116840000Y-152400000D03*
X127000000Y-45720000D03*
X167640000Y-50800000D03*
X138430000Y-98425000D03*
X127000000Y-50800000D03*
X177800000Y-157480000D03*
X223520000Y-111760000D03*
X142240000Y-55880000D03*
X121920000Y-162560000D03*
X182880000Y-86360000D03*
X127000000Y-60960000D03*
X162560000Y-60960000D03*
X208280000Y-40640000D03*
X228600000Y-147320000D03*
X198120000Y-101600000D03*
X172720000Y-50800000D03*
X116840000Y-81280000D03*
X150460000Y-165750000D03*
X198120000Y-162560000D03*
X142240000Y-35560000D03*
X116840000Y-96520000D03*
X198120000Y-121920000D03*
X198120000Y-91440000D03*
X213360000Y-96520000D03*
X228600000Y-165100000D03*
X223520000Y-55880000D03*
X127000000Y-106680000D03*
X139700000Y-130810000D03*
X147320000Y-50800000D03*
X127000000Y-40640000D03*
X228600000Y-35560000D03*
X223520000Y-147320000D03*
X162560000Y-81280000D03*
X193040000Y-40640000D03*
X116840000Y-86360000D03*
X132080000Y-40640000D03*
X182880000Y-40640000D03*
X116840000Y-71120000D03*
X147320000Y-86360000D03*
X177800000Y-76200000D03*
X228600000Y-60960000D03*
X116840000Y-91440000D03*
X152400000Y-157480000D03*
X203200000Y-55880000D03*
X213360000Y-55880000D03*
X182880000Y-60960000D03*
X208280000Y-96520000D03*
X139700000Y-98425000D03*
X198120000Y-106680000D03*
X187960000Y-76200000D03*
X121920000Y-81280000D03*
X132080000Y-35560000D03*
X213360000Y-165100000D03*
X228600000Y-132080000D03*
X137160000Y-81280000D03*
X198120000Y-35560000D03*
X203200000Y-40640000D03*
X193040000Y-35560000D03*
X213360000Y-152400000D03*
X193040000Y-86360000D03*
X218440000Y-165100000D03*
X193040000Y-121920000D03*
X162560000Y-50800000D03*
X208280000Y-132080000D03*
X203200000Y-35560000D03*
X152400000Y-86360000D03*
X127000000Y-157480000D03*
X218440000Y-127000000D03*
X223520000Y-96520000D03*
X193040000Y-55880000D03*
X157480000Y-127000000D03*
X172720000Y-40640000D03*
X208280000Y-127000000D03*
X157480000Y-35560000D03*
X177800000Y-86360000D03*
X121920000Y-76200000D03*
X138430000Y-130810000D03*
X218440000Y-76200000D03*
X127000000Y-127000000D03*
X147320000Y-162560000D03*
X193040000Y-101600000D03*
X121920000Y-71120000D03*
X198120000Y-142240000D03*
X121920000Y-101600000D03*
X177800000Y-35560000D03*
X152400000Y-40640000D03*
X218440000Y-132080000D03*
X127000000Y-96520000D03*
X167640000Y-81280000D03*
X147320000Y-35560000D03*
X157480000Y-86360000D03*
X198120000Y-96520000D03*
X127000000Y-91440000D03*
X223520000Y-127000000D03*
X228600000Y-55880000D03*
X142240000Y-91440000D03*
X127000000Y-111760000D03*
X193040000Y-127000000D03*
X187960000Y-55880000D03*
X172360000Y-162120000D03*
X198120000Y-86360000D03*
X127000000Y-137160000D03*
X142240000Y-162560000D03*
X138430000Y-128270000D03*
X137160000Y-162560000D03*
X137160000Y-35560000D03*
X193040000Y-96520000D03*
X138430000Y-97155000D03*
X142240000Y-81280000D03*
X142240000Y-50800000D03*
X162560000Y-66040000D03*
X127000000Y-132080000D03*
X172720000Y-127000000D03*
X208280000Y-91440000D03*
X152400000Y-162560000D03*
X142240000Y-127000000D03*
X203200000Y-50800000D03*
X223520000Y-76200000D03*
X218440000Y-111760000D03*
X223520000Y-165100000D03*
X127000000Y-86360000D03*
X127000000Y-66040000D03*
X121920000Y-106680000D03*
X198120000Y-137160000D03*
X167640000Y-127000000D03*
X177800000Y-60960000D03*
X142240000Y-86360000D03*
X147320000Y-91440000D03*
X152400000Y-81280000D03*
X228600000Y-111760000D03*
X172720000Y-35560000D03*
X218440000Y-91440000D03*
X127000000Y-101600000D03*
X152400000Y-35560000D03*
X116840000Y-50800000D03*
X218440000Y-60960000D03*
X177800000Y-91440000D03*
X187960000Y-60960000D03*
X193040000Y-60960000D03*
X198120000Y-111760000D03*
X152400000Y-127000000D03*
X223520000Y-132080000D03*
X137160000Y-55880000D03*
X127000000Y-121920000D03*
X152400000Y-91440000D03*
X182880000Y-35560000D03*
X147320000Y-157480000D03*
X127000000Y-116840000D03*
X127000000Y-35560000D03*
X218440000Y-55880000D03*
X182880000Y-76200000D03*
X142240000Y-40640000D03*
X177800000Y-55880000D03*
X137160000Y-60960000D03*
X187960000Y-127000000D03*
X208280000Y-165100000D03*
X187960000Y-71120000D03*
X193040000Y-50800000D03*
X152400000Y-50800000D03*
X228600000Y-76200000D03*
X157480000Y-40640000D03*
X213360000Y-111760000D03*
X116840000Y-45720000D03*
X121920000Y-60960000D03*
X218440000Y-50800000D03*
X116840000Y-60960000D03*
X228600000Y-96520000D03*
X121920000Y-86360000D03*
X198120000Y-132080000D03*
X203200000Y-60960000D03*
X139700000Y-128270000D03*
X223520000Y-91440000D03*
X172720000Y-157480000D03*
X218440000Y-147320000D03*
X121920000Y-91440000D03*
X228600000Y-91440000D03*
X138430000Y-129540000D03*
X162560000Y-76200000D03*
X187960000Y-50800000D03*
X177800000Y-50800000D03*
X121920000Y-55880000D03*
X116840000Y-76200000D03*
X147320000Y-40640000D03*
X139700000Y-95885000D03*
X182880000Y-50800000D03*
X162560000Y-35560000D03*
X162560000Y-86360000D03*
X147320000Y-127000000D03*
X152350000Y-165770000D03*
X137160000Y-86360000D03*
X198120000Y-127000000D03*
X139700000Y-97155000D03*
X182880000Y-55880000D03*
X182880000Y-127000000D03*
X177800000Y-40640000D03*
X162560000Y-71120000D03*
X187960000Y-86360000D03*
X127000000Y-55880000D03*
X116840000Y-101600000D03*
X167640000Y-86360000D03*
X177800000Y-81280000D03*
X127000000Y-142240000D03*
X127000000Y-76200000D03*
X157480000Y-81280000D03*
X121920000Y-147320000D03*
X157480000Y-50800000D03*
X137160000Y-66040000D03*
X137160000Y-40640000D03*
X138430000Y-95885000D03*
X182880000Y-91440000D03*
X208280000Y-50800000D03*
X121920000Y-50800000D03*
X127000000Y-81280000D03*
X213360000Y-132080000D03*
X213360000Y-76200000D03*
X187960000Y-91440000D03*
X162560000Y-55880000D03*
X223520000Y-60960000D03*
X121920000Y-96520000D03*
X218440000Y-96520000D03*
X121920000Y-45720000D03*
X228600000Y-40640000D03*
X198120000Y-40640000D03*
X193040000Y-91440000D03*
X121920000Y-157480000D03*
X116840000Y-106680000D03*
X116840000Y-66040000D03*
X213360000Y-40640000D03*
X213360000Y-91440000D03*
X157480000Y-91440000D03*
X116840000Y-55880000D03*
X127000000Y-152400000D03*
X177800000Y-127000000D03*
X177800000Y-162560000D03*
X162560000Y-91440000D03*
X142240000Y-157480000D03*
X228600000Y-127000000D03*
X213360000Y-127000000D03*
X208280000Y-160020000D03*
X116840000Y-162560000D03*
X116840000Y-157480000D03*
X167640000Y-35560000D03*
X162560000Y-40640000D03*
X137160000Y-50800000D03*
X198120000Y-147320000D03*
X137160000Y-76200000D03*
X213360000Y-35560000D03*
X177800000Y-71120000D03*
X187960000Y-162560000D03*
X127000000Y-162560000D03*
X182880000Y-71120000D03*
X208280000Y-35560000D03*
X172720000Y-81280000D03*
X116840000Y-147320000D03*
X167640000Y-40640000D03*
X208280000Y-60960000D03*
%TO.N,/M3p3V*%
X177980000Y-169790000D03*
X202750000Y-169790000D03*
X204800000Y-200580000D03*
X202770000Y-103530000D03*
X204620000Y-247480000D03*
X204770000Y-211500000D03*
X202760000Y-139540000D03*
X202760000Y-175480000D03*
X202770000Y-135310000D03*
X202770000Y-67540000D03*
%TO.N,/V_SEC_IN*%
X134720000Y-121250000D03*
X134682500Y-153660000D03*
X134682500Y-152390000D03*
X137260000Y-119980000D03*
X135990000Y-121250000D03*
X137222500Y-153660000D03*
X135952500Y-153660000D03*
X135990000Y-119980000D03*
X135902500Y-152390000D03*
X134720000Y-119980000D03*
X137260000Y-121250000D03*
X137222500Y-152390000D03*
%TO.N,/TELEM_RTN*%
X145130000Y-236970000D03*
X228600000Y-223520000D03*
X182880000Y-218440000D03*
X198120000Y-233680000D03*
X142240000Y-203200000D03*
X218440000Y-223520000D03*
X198120000Y-243840000D03*
X219470000Y-191614999D03*
X121920000Y-208280000D03*
X217570000Y-68694999D03*
X218440000Y-198120000D03*
X228600000Y-254000000D03*
X136786200Y-242165000D03*
X145140000Y-228080000D03*
X167640000Y-248920000D03*
X208280000Y-172720000D03*
X147320000Y-203200000D03*
X187960000Y-233680000D03*
X157480000Y-203200000D03*
X157480000Y-182880000D03*
X208280000Y-259080000D03*
X203200000Y-264160000D03*
X176580000Y-182880000D03*
X167640000Y-259080000D03*
X193040000Y-259080000D03*
X127000000Y-248920000D03*
X182880000Y-233680000D03*
X152400000Y-238760000D03*
X193040000Y-254000000D03*
X223520000Y-254000000D03*
X132080000Y-218440000D03*
X218440000Y-187960000D03*
X167640000Y-228600000D03*
X213360000Y-203200000D03*
X172720000Y-254000000D03*
X193040000Y-177800000D03*
X142240000Y-208280000D03*
X147320000Y-187960000D03*
X182880000Y-238760000D03*
X132080000Y-264160000D03*
X198120000Y-223520000D03*
X172720000Y-233680000D03*
X208570000Y-213394999D03*
X187960000Y-187960000D03*
X177800000Y-243840000D03*
X162560000Y-228600000D03*
X203200000Y-233680000D03*
X217600000Y-104689999D03*
X213360000Y-259080000D03*
X162560000Y-223520000D03*
X130376200Y-260865000D03*
X167640000Y-182880000D03*
X198120000Y-259080000D03*
X127000000Y-213360000D03*
X213360000Y-198120000D03*
X223520000Y-182880000D03*
X147320000Y-199390000D03*
X228600000Y-238760000D03*
X198120000Y-177800000D03*
X209730000Y-48339999D03*
X147320000Y-218440000D03*
X137160000Y-199390000D03*
X172720000Y-259080000D03*
X172720000Y-187960000D03*
X210290000Y-120254999D03*
X152400000Y-223520000D03*
X223520000Y-203200000D03*
X187960000Y-259080000D03*
X203200000Y-238760000D03*
X218440000Y-243840000D03*
X162560000Y-233680000D03*
X148695476Y-185749999D03*
X157480000Y-213360000D03*
X127000000Y-208280000D03*
X177800000Y-254000000D03*
X208470000Y-182894999D03*
X176190000Y-180100000D03*
X162560000Y-238760000D03*
X213360000Y-223520000D03*
X187960000Y-228600000D03*
X157480000Y-199390000D03*
X116840000Y-208280000D03*
X217450000Y-212659999D03*
X208460000Y-177384999D03*
X182880000Y-254000000D03*
X127000000Y-218440000D03*
X208280000Y-203200000D03*
X121920000Y-254000000D03*
X152400000Y-199390000D03*
X193040000Y-248920000D03*
X167640000Y-194310000D03*
X223520000Y-223520000D03*
X127000000Y-238760000D03*
X203200000Y-243840000D03*
X172720000Y-208280000D03*
X177800000Y-228600000D03*
X204198000Y-155624999D03*
X185180000Y-199630000D03*
X219270000Y-119534999D03*
X210420000Y-84289999D03*
X152400000Y-213360000D03*
X147320000Y-213360000D03*
X147320000Y-194310000D03*
X167640000Y-213360000D03*
X193040000Y-187960000D03*
X167640000Y-208280000D03*
X172720000Y-213360000D03*
X132080000Y-238760000D03*
X182880000Y-243840000D03*
X172720000Y-243840000D03*
X148265476Y-183690000D03*
X218680000Y-47664999D03*
X162560000Y-248920000D03*
X157480000Y-264160000D03*
X182880000Y-194310000D03*
X162560000Y-208280000D03*
X198120000Y-238760000D03*
X208890000Y-74959999D03*
X172720000Y-238760000D03*
X116840000Y-254000000D03*
X177800000Y-259080000D03*
X167640000Y-238760000D03*
X217370000Y-248649999D03*
X182720000Y-205310000D03*
X187960000Y-254000000D03*
X201780000Y-226610000D03*
X187960000Y-243840000D03*
X193040000Y-223520000D03*
X218440000Y-208280000D03*
X142240000Y-264160000D03*
X208820000Y-105434999D03*
X182880000Y-264160000D03*
X172720000Y-203200000D03*
X208700000Y-110954999D03*
X204070000Y-119619999D03*
X147320000Y-228600000D03*
X147320000Y-233680000D03*
X182850000Y-63940000D03*
X210340000Y-192284999D03*
X210190000Y-228394999D03*
X167640000Y-264160000D03*
X177800000Y-238760000D03*
X218440000Y-203200000D03*
X187960000Y-223520000D03*
X177800000Y-248920000D03*
X167640000Y-203200000D03*
X162560000Y-182880000D03*
X172720000Y-199390000D03*
X162560000Y-264160000D03*
X142240000Y-238760000D03*
X167640000Y-187960000D03*
X152350000Y-170580000D03*
X172720000Y-264160000D03*
X219230000Y-227724999D03*
X150470000Y-170610000D03*
X142316200Y-246515000D03*
X208460000Y-254914999D03*
X208280000Y-264160000D03*
X218440000Y-233680000D03*
X133820000Y-228120000D03*
X153075476Y-194250000D03*
X127000000Y-203200000D03*
X152400000Y-208280000D03*
X182880000Y-187960000D03*
X213360000Y-264160000D03*
X187960000Y-218440000D03*
X218440000Y-182880000D03*
X162560000Y-213360000D03*
X127000000Y-243840000D03*
X193040000Y-228600000D03*
X187960000Y-248920000D03*
X147320000Y-223520000D03*
X208710000Y-218930000D03*
X152400000Y-233680000D03*
X177800000Y-233680000D03*
X187960000Y-194310000D03*
X208280000Y-238760000D03*
X147320000Y-238760000D03*
X172720000Y-228600000D03*
X172720000Y-182880000D03*
X162560000Y-199390000D03*
X167640000Y-233680000D03*
X217530000Y-176629999D03*
X167640000Y-223520000D03*
X142240000Y-199390000D03*
X198120000Y-228600000D03*
X193040000Y-194310000D03*
X157480000Y-208280000D03*
X198120000Y-264160000D03*
X208280000Y-233680000D03*
X162560000Y-243840000D03*
X208280000Y-208280000D03*
X187960000Y-264160000D03*
X167640000Y-243840000D03*
X193040000Y-264160000D03*
X219390000Y-155574999D03*
X121920000Y-248920000D03*
X210418000Y-156259999D03*
X213360000Y-238760000D03*
X167640000Y-254000000D03*
X213360000Y-187960000D03*
X177800000Y-187960000D03*
X162560000Y-254000000D03*
X142240000Y-187960000D03*
X162560000Y-218440000D03*
X228600000Y-264160000D03*
X152400000Y-218440000D03*
X218440000Y-218440000D03*
X167640000Y-199390000D03*
X162560000Y-259080000D03*
X172720000Y-194310000D03*
X152400000Y-228600000D03*
X218440000Y-254000000D03*
X208280000Y-198120000D03*
X193040000Y-238760000D03*
X228600000Y-182880000D03*
X135116200Y-249380000D03*
X128880000Y-230150000D03*
X218440000Y-238760000D03*
X198120000Y-248920000D03*
X177800000Y-264160000D03*
X177800000Y-223520000D03*
X193040000Y-243840000D03*
X177800000Y-218440000D03*
X208620000Y-146964999D03*
X182390000Y-77960000D03*
X190730000Y-175700000D03*
X182880000Y-223520000D03*
X223520000Y-218440000D03*
X223520000Y-238760000D03*
X152400000Y-264160000D03*
X147320000Y-208280000D03*
X132080000Y-203200000D03*
X217600000Y-140689999D03*
X194160000Y-209790000D03*
X193040000Y-233680000D03*
X137226200Y-261375000D03*
X223520000Y-187960000D03*
X137160000Y-238760000D03*
X204200000Y-83654999D03*
X145420000Y-214110000D03*
X203200000Y-259080000D03*
X177800000Y-194310000D03*
X162560000Y-194310000D03*
X193040000Y-182880000D03*
X208440000Y-249394999D03*
X228600000Y-218440000D03*
X137160000Y-208280000D03*
X137160000Y-187960000D03*
X182880000Y-228600000D03*
X208940000Y-141439999D03*
X137160000Y-203200000D03*
X142240000Y-213360000D03*
X138640000Y-210880000D03*
X145666200Y-259885000D03*
X201840000Y-190500000D03*
X182880000Y-248920000D03*
X137160000Y-194310000D03*
X152400000Y-203200000D03*
X132080000Y-213360000D03*
X228600000Y-203200000D03*
X228600000Y-187960000D03*
X127000000Y-254000000D03*
X116840000Y-248920000D03*
X172720000Y-248920000D03*
X147320000Y-264160000D03*
X194160000Y-202930000D03*
X132080000Y-208280000D03*
X203510000Y-47704999D03*
X142240000Y-194310000D03*
X228600000Y-259080000D03*
X131910000Y-224810000D03*
X145430000Y-223710000D03*
X182880000Y-259080000D03*
X185140000Y-216380000D03*
X219260000Y-83619999D03*
X172870000Y-178340000D03*
X155405476Y-182990000D03*
X208835000Y-69429999D03*
X187960000Y-238760000D03*
X162560000Y-203200000D03*
X193040000Y-213360000D03*
X137160000Y-264160000D03*
X140660000Y-172170000D03*
%TO.N,/i_Sense_1+*%
X200260000Y-44990000D03*
X132420000Y-44970000D03*
X132420000Y-178460000D03*
%TO.N,/i_Sense_2+*%
X131450000Y-45910000D03*
X197760000Y-80950000D03*
X131450000Y-183540000D03*
X197760000Y-45910000D03*
%TO.N,/TELEM_P5V*%
X133350000Y-221600000D03*
X150576200Y-242235000D03*
X125720000Y-211410000D03*
X158560000Y-194110000D03*
X125730000Y-70770000D03*
X186700000Y-175700000D03*
X125730000Y-58070000D03*
X145666200Y-255625000D03*
X162110000Y-174650000D03*
X153716200Y-249575000D03*
X133796200Y-252115000D03*
%TO.N,/TELEM_M5V*%
X128880000Y-255940000D03*
X180770000Y-182880000D03*
X138730000Y-258515000D03*
%TO.N,/i_Sense_3+*%
X144150000Y-176790000D03*
X196660000Y-116920000D03*
X144150000Y-171930000D03*
X196670000Y-171930000D03*
%TO.N,/i_Sense_4+*%
X195830000Y-173800000D03*
X195830000Y-152930000D03*
X135200000Y-173800000D03*
X135200000Y-182270000D03*
%TO.N,/i_Sense_5+*%
X200640000Y-188950000D03*
%TO.N,/i_Sense_6+*%
X203050000Y-223930000D03*
X203080000Y-192590000D03*
%TO.N,/i_Sense_1-*%
X199670000Y-73400000D03*
X133360000Y-181010000D03*
X133357380Y-44063928D03*
X199060000Y-44070000D03*
%TO.N,/i_Sense_2-*%
X206270000Y-85190000D03*
X196790000Y-85190000D03*
X130470000Y-188620000D03*
X206274999Y-109404999D03*
X196790000Y-46940000D03*
X130470000Y-46940000D03*
%TO.N,/i_Sense_3-*%
X134350000Y-179710000D03*
X197410000Y-172910000D03*
X134360000Y-172920000D03*
X197410000Y-145404999D03*
%TO.N,/i_Sense_4-*%
X199010000Y-181350000D03*
%TO.N,/i_Sense_5-*%
X198140000Y-189900000D03*
X198130000Y-217370000D03*
%TO.N,/i_Sense_6-*%
X196180000Y-253370000D03*
X196180000Y-196340000D03*
%TO.N,Net-(U17A-A_OUT)*%
X179120000Y-171010000D03*
X190440000Y-80790000D03*
X188910000Y-171020000D03*
%TO.N,Net-(U17B-B_OUT)*%
X192210000Y-66960000D03*
X189890000Y-177690000D03*
%TO.N,/TELEM_P3p3V*%
X210418000Y-154859999D03*
X210340000Y-190884999D03*
X210190000Y-226994999D03*
X217380000Y-250119999D03*
X210290000Y-118854999D03*
X217460000Y-214129999D03*
X209730000Y-46939999D03*
X142210000Y-172150000D03*
X217610000Y-142159999D03*
X217610000Y-106159999D03*
X153375476Y-183820000D03*
X184780000Y-204410000D03*
X143570000Y-219300000D03*
X217540000Y-178099999D03*
X217580000Y-70164999D03*
X210420000Y-82889999D03*
%TO.N,/TELEM_M3p3V*%
X143530000Y-233450000D03*
X191210000Y-209790000D03*
%TO.N,Net-(LED1-Pad2)*%
X150106199Y-250914999D03*
%TO.N,Net-(LED1-Pad1)*%
X147476199Y-248594999D03*
%TO.N,Net-(LED2-Pad1)*%
X143486200Y-244345000D03*
%TO.N,Net-(LED2-Pad2)*%
X145836200Y-242255000D03*
%TO.N,/Main_CKT/Enable*%
X162740000Y-157720000D03*
X162740000Y-160850000D03*
%TO.N,/P3p3V_MON*%
X132530000Y-198410000D03*
X132530000Y-193700000D03*
X178230000Y-213670000D03*
X177570000Y-198410000D03*
%TO.N,/M3p3V_MON*%
X179200000Y-200600000D03*
X131149881Y-200600833D03*
X131150000Y-191160000D03*
%TD*%
D24*
%TO.N,/P3p3V*%
X206470000Y-193730000D02*
X206470000Y-183600000D01*
X200810000Y-88260000D02*
X200810000Y-51120000D01*
X200810000Y-181360000D02*
X200810000Y-183600000D01*
X202140001Y-49789999D02*
X209720000Y-49789999D01*
X200810000Y-51120000D02*
X202140001Y-49789999D01*
X200810000Y-131530000D02*
X200810000Y-157650000D01*
X200810000Y-157650000D02*
X200810000Y-181360000D01*
X206470000Y-193730000D02*
X206470000Y-229850000D01*
X200810000Y-121490000D02*
X200810000Y-131530000D01*
X206470000Y-193730000D02*
X206470000Y-193740000D01*
X200810000Y-120040000D02*
X200810000Y-88260000D01*
X200810000Y-120040000D02*
X200810000Y-121490000D01*
%TO.N,/M3p3V*%
X202760000Y-169800000D02*
X202760000Y-175480000D01*
X202770000Y-103530000D02*
X202770000Y-139530000D01*
X202760000Y-185170000D02*
X202760000Y-175480000D01*
X202760000Y-169780000D02*
X202750000Y-169790000D01*
X202750000Y-169790000D02*
X202760000Y-169800000D01*
X204620000Y-211650000D02*
X204620000Y-247480000D01*
X202770000Y-139530000D02*
X202760000Y-139540000D01*
X202760000Y-139540000D02*
X202760000Y-169780000D01*
X204770000Y-187180000D02*
X204770000Y-211500000D01*
X202770000Y-67540000D02*
X202770000Y-103530000D01*
X202760000Y-185170000D02*
X204770000Y-187180000D01*
X204770000Y-211500000D02*
X204620000Y-211650000D01*
D25*
%TO.N,/i_Sense_1+*%
X132420000Y-44970000D02*
X132420000Y-178460000D01*
%TO.N,/i_Sense_2+*%
X131450000Y-45910000D02*
X131450000Y-183540000D01*
X197760000Y-80950000D02*
X197760000Y-45910000D01*
%TO.N,/TELEM_P5V*%
X125730000Y-70770000D02*
X125730000Y-211400000D01*
X125730000Y-211400000D02*
X125720000Y-211410000D01*
X125730000Y-70770000D02*
X125730000Y-58070000D01*
%TO.N,/i_Sense_3+*%
X144150000Y-171930000D02*
X144150000Y-176790000D01*
X196660000Y-171920000D02*
X196670000Y-171930000D01*
X196660000Y-116920000D02*
X196660000Y-171920000D01*
%TO.N,/i_Sense_4+*%
X135200000Y-173800000D02*
X135200000Y-182270000D01*
X195830000Y-152930000D02*
X195830000Y-173800000D01*
%TO.N,/i_Sense_6+*%
X203060000Y-192610000D02*
X203080000Y-192590000D01*
X203060000Y-216630000D02*
X203060000Y-192610000D01*
X203050000Y-218880000D02*
X203050000Y-220860000D01*
X203050000Y-218880000D02*
X203050000Y-216640000D01*
X203050000Y-220860000D02*
X203050000Y-223930000D01*
X203050000Y-216640000D02*
X203060000Y-216630000D01*
%TO.N,/i_Sense_1-*%
X133357380Y-44063928D02*
X133357380Y-181007380D01*
X199060000Y-72790000D02*
X199060000Y-44070000D01*
X199670000Y-73400000D02*
X199060000Y-72790000D01*
X133357380Y-181007380D02*
X133360000Y-181010000D01*
%TO.N,/i_Sense_2-*%
X196790000Y-85190000D02*
X196790000Y-46940000D01*
X206270000Y-85190000D02*
X206274999Y-85194999D01*
X130470000Y-46940000D02*
X130470000Y-188620000D01*
X206274999Y-109404999D02*
X206270000Y-85190000D01*
%TO.N,/i_Sense_3-*%
X134350000Y-179710000D02*
X134350000Y-172930000D01*
X197410000Y-172910000D02*
X197410000Y-172920000D01*
X134350000Y-172930000D02*
X134360000Y-172920000D01*
X197410000Y-145404999D02*
X197410000Y-172910000D01*
%TO.N,/i_Sense_5-*%
X198130000Y-189910000D02*
X198140000Y-189900000D01*
X198130000Y-217370000D02*
X198130000Y-189910000D01*
%TO.N,/i_Sense_6-*%
X196180000Y-253370000D02*
X196180000Y-196340000D01*
%TO.N,Net-(U17A-A_OUT)*%
X188910000Y-171020000D02*
X190440000Y-169490000D01*
X190440000Y-169490000D02*
X190440000Y-80790000D01*
%TO.N,Net-(U17B-B_OUT)*%
X192210000Y-175370000D02*
X192210000Y-66960000D01*
X189890000Y-177690000D02*
X192210000Y-175370000D01*
%TO.N,/Main_CKT/Enable*%
X165807500Y-132030000D02*
X162750000Y-132030000D01*
X157950000Y-162030000D02*
X157940000Y-162040000D01*
X162740000Y-160850000D02*
X162740000Y-161550000D01*
X162740000Y-132020000D02*
X162740000Y-100160000D01*
X162750000Y-132030000D02*
X162740000Y-132020000D01*
X162740000Y-157720000D02*
X162740000Y-160850000D01*
X162260000Y-162030000D02*
X157950000Y-162030000D01*
X162740000Y-161550000D02*
X162260000Y-162030000D01*
X162740000Y-157590000D02*
X162740000Y-157720000D01*
X163260000Y-99640000D02*
X166080000Y-99640000D01*
X162740000Y-100160000D02*
X163260000Y-99640000D01*
X162740000Y-157590000D02*
X162740000Y-132020000D01*
%TO.N,/P3p3V_MON*%
X178230000Y-213670000D02*
X177570000Y-213010000D01*
X177570000Y-213010000D02*
X177570000Y-198410000D01*
X132530000Y-198410000D02*
X132530000Y-193700000D01*
%TO.N,/M3p3V_MON*%
X131150000Y-200600714D02*
X131150000Y-191160000D01*
X131149881Y-200600833D02*
X131150000Y-200600714D01*
%TD*%
M02*
