%TF.GenerationSoftware,KiCad,Pcbnew,9.0.3*%
%TF.CreationDate,2025-09-16T14:09:08-04:00*%
%TF.ProjectId,11_CPU_PDU,31315f43-5055-45f5-9044-552e6b696361,rev?*%
%TF.SameCoordinates,Original*%
%TF.FileFunction,Component,L10,Bot*%
%TF.FilePolarity,Positive*%
%FSLAX46Y46*%
G04 Gerber Fmt 4.6, Leading zero omitted, Abs format (unit mm)*
G04 Created by KiCad (PCBNEW 9.0.3) date 2025-09-16 14:09:08*
%MOMM*%
%LPD*%
G01*
G04 APERTURE LIST*
%TA.AperFunction,ComponentMain*%
%ADD10C,0.300000*%
%TD*%
%TA.AperFunction,ComponentOutline,Courtyard*%
%ADD11C,0.100000*%
%TD*%
%TA.AperFunction,ComponentPin*%
%ADD12P,0.360000X4X0.000000*%
%TD*%
%TA.AperFunction,ComponentPin*%
%ADD13C,0.100000*%
%TD*%
%TA.AperFunction,ComponentOutline,Footprint*%
%ADD14C,0.100000*%
%TD*%
%TA.AperFunction,Profile*%
%ADD15C,0.050000*%
%TD*%
G04 APERTURE END LIST*
D10*
%TO.C,C50*%
%TO.CFtp,C_0603_1608Metric*%
%TO.CVal,0.1uF*%
%TO.CLbN,Capacitor_SMD*%
%TO.CMnt,SMD*%
%TO.CRot,90*%
X285165001Y-167634999D03*
D11*
X285890001Y-166159999D02*
X285890001Y-169109999D01*
X284440001Y-169109999D01*
X284440001Y-166159999D01*
X285890001Y-166159999D01*
D12*
%TO.P,C50,1*%
X285165001Y-166859999D03*
D13*
%TO.P,C50,2*%
X285165001Y-168409999D03*
%TD*%
D10*
%TO.C,U17*%
%TO.CFtp,INA28x_VSSOP*%
%TO.CVal,INA28x*%
%TO.CLbN,Texas_Instruments*%
%TO.CMnt,SMD*%
%TO.CRot,0*%
X333717501Y-376005000D03*
D14*
X336417501Y-374805001D02*
X336417501Y-377205002D01*
X331017501Y-377205002D01*
X331017501Y-374805001D01*
X336417501Y-374805001D01*
D12*
%TO.P,U17,1,-IN*%
X335842501Y-375030001D03*
D13*
%TO.P,U17,2,GND*%
X335842501Y-375680002D03*
%TO.P,U17,3,REF2*%
X335842501Y-376330001D03*
%TO.P,U17,4,4*%
X335842501Y-376980002D03*
%TO.P,U17,5,OUT*%
X331592501Y-376980002D03*
%TO.P,U17,6,V+*%
X331592501Y-376330001D03*
%TO.P,U17,7,REF1*%
X331592501Y-375680002D03*
%TO.P,U17,8,+IN*%
X331592501Y-375030001D03*
%TD*%
D10*
%TO.C,C129*%
%TO.CFtp,C_0402_1005Metric*%
%TO.CVal,0.1uF*%
%TO.CLbN,Capacitor_SMD*%
%TO.CMnt,SMD*%
%TO.CRot,-90*%
X329527501Y-376015000D03*
D11*
X329982501Y-375110000D02*
X329982501Y-376920000D01*
X329072501Y-376920000D01*
X329072501Y-375110000D01*
X329982501Y-375110000D01*
D12*
%TO.P,C129,1*%
X329527501Y-376495000D03*
D13*
%TO.P,C129,2*%
X329527501Y-375535000D03*
%TD*%
D10*
%TO.C,R112*%
%TO.CFtp,R_0603_1608Metric*%
%TO.CVal,120*%
%TO.CLbN,Resistor_SMD*%
%TO.CMnt,SMD*%
%TO.CRot,180*%
X276735001Y-276799999D03*
D11*
X278210001Y-276074999D02*
X278210001Y-277524999D01*
X275260001Y-277524999D01*
X275260001Y-276074999D01*
X278210001Y-276074999D01*
D12*
%TO.P,R112,1*%
X275910001Y-276799999D03*
D13*
%TO.P,R112,2*%
X277560001Y-276799999D03*
%TD*%
D10*
%TO.C,C9*%
%TO.CFtp,C_0603_1608Metric*%
%TO.CVal,0.1uF*%
%TO.CLbN,Capacitor_SMD*%
%TO.CMnt,SMD*%
%TO.CRot,90*%
X258055001Y-52495000D03*
D11*
X258780001Y-51020000D02*
X258780001Y-53970000D01*
X257330001Y-53970000D01*
X257330001Y-51020000D01*
X258780001Y-51020000D01*
D12*
%TO.P,C9,1*%
X258055001Y-51720000D03*
D13*
%TO.P,C9,2*%
X258055001Y-53270000D03*
%TD*%
D10*
%TO.C,C20*%
%TO.CFtp,C_0603_1608Metric*%
%TO.CVal,0.01uF*%
%TO.CLbN,Capacitor_SMD*%
%TO.CMnt,SMD*%
%TO.CRot,90*%
X310255001Y-111925000D03*
D11*
X310980001Y-110450000D02*
X310980001Y-113400000D01*
X309530001Y-113400000D01*
X309530001Y-110450000D01*
X310980001Y-110450000D01*
D12*
%TO.P,C20,1*%
X310255001Y-111150000D03*
D13*
%TO.P,C20,2*%
X310255001Y-112700000D03*
%TD*%
D10*
%TO.C,C126*%
%TO.CFtp,C_0402_1005Metric*%
%TO.CVal,0.1uF*%
%TO.CLbN,Capacitor_SMD*%
%TO.CMnt,SMD*%
%TO.CRot,-90*%
X353845001Y-327035000D03*
D11*
X354300001Y-326130000D02*
X354300001Y-327940000D01*
X353390001Y-327940000D01*
X353390001Y-326130000D01*
X354300001Y-326130000D01*
D12*
%TO.P,C126,1*%
X353845001Y-327515000D03*
D13*
%TO.P,C126,2*%
X353845001Y-326555000D03*
%TD*%
D10*
%TO.C,C84*%
%TO.CFtp,C_0402_1005Metric*%
%TO.CVal,1uF*%
%TO.CLbN,Capacitor_SMD*%
%TO.CMnt,SMD*%
%TO.CRot,180*%
X362595850Y-245729999D03*
D11*
X363500850Y-245274999D02*
X363500850Y-246184999D01*
X361690850Y-246184999D01*
X361690850Y-245274999D01*
X363500850Y-245274999D01*
D12*
%TO.P,C84,1*%
X362115850Y-245729999D03*
D13*
%TO.P,C84,2*%
X363075850Y-245729999D03*
%TD*%
D10*
%TO.C,C110*%
%TO.CFtp,C_0402_1005Metric*%
%TO.CVal,0.1uF*%
%TO.CLbN,Capacitor_SMD*%
%TO.CMnt,SMD*%
%TO.CRot,0*%
X215343200Y-213875000D03*
D11*
X216248200Y-213420000D02*
X216248200Y-214330000D01*
X214438200Y-214330000D01*
X214438200Y-213420000D01*
X216248200Y-213420000D01*
D12*
%TO.P,C110,1*%
X215823200Y-213875000D03*
D13*
%TO.P,C110,2*%
X214863200Y-213875000D03*
%TD*%
D10*
%TO.C,C32*%
%TO.CFtp,C_0603_1608Metric*%
%TO.CVal,0.1uF*%
%TO.CLbN,Capacitor_SMD*%
%TO.CMnt,SMD*%
%TO.CRot,90*%
X316535001Y-327584999D03*
D11*
X317260001Y-326109999D02*
X317260001Y-329059999D01*
X315810001Y-329059999D01*
X315810001Y-326109999D01*
X317260001Y-326109999D01*
D12*
%TO.P,C32,1*%
X316535001Y-326809999D03*
D13*
%TO.P,C32,2*%
X316535001Y-328359999D03*
%TD*%
D10*
%TO.C,C123*%
%TO.CFtp,C_0402_1005Metric*%
%TO.CVal,0.1uF*%
%TO.CLbN,Capacitor_SMD*%
%TO.CMnt,SMD*%
%TO.CRot,-90*%
X334645001Y-59665000D03*
D11*
X335100001Y-58760000D02*
X335100001Y-60570000D01*
X334190001Y-60570000D01*
X334190001Y-58760000D01*
X335100001Y-58760000D01*
D12*
%TO.P,C123,1*%
X334645001Y-60145000D03*
D13*
%TO.P,C123,2*%
X334645001Y-59185000D03*
%TD*%
D10*
%TO.C,C95*%
%TO.CFtp,C_0402_1005Metric*%
%TO.CVal,0.1uF*%
%TO.CLbN,Capacitor_SMD*%
%TO.CMnt,SMD*%
%TO.CRot,180*%
X362670000Y-264679999D03*
D11*
X363575000Y-264224999D02*
X363575000Y-265134999D01*
X361765000Y-265134999D01*
X361765000Y-264224999D01*
X363575000Y-264224999D01*
D12*
%TO.P,C95,1*%
X362190000Y-264679999D03*
D13*
%TO.P,C95,2*%
X363150000Y-264679999D03*
%TD*%
D10*
%TO.C,C59*%
%TO.CFtp,C_0603_1608Metric*%
%TO.CVal,1uF*%
%TO.CLbN,Capacitor_SMD*%
%TO.CMnt,SMD*%
%TO.CRot,90*%
X291085001Y-375590000D03*
D11*
X291810001Y-374115000D02*
X291810001Y-377065000D01*
X290360001Y-377065000D01*
X290360001Y-374115000D01*
X291810001Y-374115000D01*
D12*
%TO.P,C59,1*%
X291085001Y-374815000D03*
D13*
%TO.P,C59,2*%
X291085001Y-376365000D03*
%TD*%
D10*
%TO.C,C6*%
%TO.CFtp,C_0603_1608Metric*%
%TO.CVal,0.1uF*%
%TO.CLbN,Capacitor_SMD*%
%TO.CMnt,SMD*%
%TO.CRot,90*%
X313505001Y-52065000D03*
D11*
X314230001Y-50590000D02*
X314230001Y-53540000D01*
X312780001Y-53540000D01*
X312780001Y-50590000D01*
X314230001Y-50590000D01*
D12*
%TO.P,C6,1*%
X313505001Y-51290000D03*
D13*
%TO.P,C6,2*%
X313505001Y-52840000D03*
%TD*%
D10*
%TO.C,U16*%
%TO.CFtp,INA28x_VSSOP*%
%TO.CVal,INA28x*%
%TO.CLbN,Texas_Instruments*%
%TO.CMnt,SMD*%
%TO.CRot,0*%
X302600000Y-182820000D03*
D14*
X305300000Y-181620001D02*
X305300000Y-184020002D01*
X299900000Y-184020002D01*
X299900000Y-181620001D01*
X305300000Y-181620001D01*
D12*
%TO.P,U16,1,-IN*%
X304725000Y-181845001D03*
D13*
%TO.P,U16,2,GND*%
X304725000Y-182495002D03*
%TO.P,U16,3,REF2*%
X304725000Y-183145001D03*
%TO.P,U16,4,4*%
X304725000Y-183795002D03*
%TO.P,U16,5,OUT*%
X300475000Y-183795002D03*
%TO.P,U16,6,V+*%
X300475000Y-183145001D03*
%TO.P,U16,7,REF1*%
X300475000Y-182495002D03*
%TO.P,U16,8,+IN*%
X300475000Y-181845001D03*
%TD*%
D10*
%TO.C,C10*%
%TO.CFtp,C_0603_1608Metric*%
%TO.CVal,1uF*%
%TO.CLbN,Capacitor_SMD*%
%TO.CMnt,SMD*%
%TO.CRot,90*%
X256065001Y-52495000D03*
D11*
X256790001Y-51020000D02*
X256790001Y-53970000D01*
X255340001Y-53970000D01*
X255340001Y-51020000D01*
X256790001Y-51020000D01*
D12*
%TO.P,C10,1*%
X256065001Y-51720000D03*
D13*
%TO.P,C10,2*%
X256065001Y-53270000D03*
%TD*%
D10*
%TO.C,C125*%
%TO.CFtp,C_0402_1005Metric*%
%TO.CVal,0.1uF*%
%TO.CLbN,Capacitor_SMD*%
%TO.CMnt,SMD*%
%TO.CRot,-90*%
X320705001Y-338305000D03*
D11*
X321160001Y-337400000D02*
X321160001Y-339210000D01*
X320250001Y-339210000D01*
X320250001Y-337400000D01*
X321160001Y-337400000D01*
D12*
%TO.P,C125,1*%
X320705001Y-338785000D03*
D13*
%TO.P,C125,2*%
X320705001Y-337825000D03*
%TD*%
D10*
%TO.C,C54*%
%TO.CFtp,C_0603_1608Metric*%
%TO.CVal,0.01uF*%
%TO.CLbN,Capacitor_SMD*%
%TO.CMnt,SMD*%
%TO.CRot,90*%
X257282501Y-167555000D03*
D11*
X258007501Y-166080000D02*
X258007501Y-169030000D01*
X256557501Y-169030000D01*
X256557501Y-166080000D01*
X258007501Y-166080000D01*
D12*
%TO.P,C54,1*%
X257282501Y-166780000D03*
D13*
%TO.P,C54,2*%
X257282501Y-168330000D03*
%TD*%
D10*
%TO.C,C19*%
%TO.CFtp,C_0603_1608Metric*%
%TO.CVal,0.1uF*%
%TO.CLbN,Capacitor_SMD*%
%TO.CMnt,SMD*%
%TO.CRot,90*%
X312135001Y-111935000D03*
D11*
X312860001Y-110460000D02*
X312860001Y-113410000D01*
X311410001Y-113410000D01*
X311410001Y-110460000D01*
X312860001Y-110460000D01*
D12*
%TO.P,C19,1*%
X312135001Y-111160000D03*
D13*
%TO.P,C19,2*%
X312135001Y-112710000D03*
%TD*%
D10*
%TO.C,C116*%
%TO.CFtp,C_0603_1608Metric*%
%TO.CVal,1uF*%
%TO.CLbN,Capacitor_SMD*%
%TO.CMnt,SMD*%
%TO.CRot,90*%
X274205001Y-270479999D03*
D11*
X274930001Y-269004999D02*
X274930001Y-271954999D01*
X273480001Y-271954999D01*
X273480001Y-269004999D01*
X274930001Y-269004999D01*
D12*
%TO.P,C116,1*%
X274205001Y-269704999D03*
D13*
%TO.P,C116,2*%
X274205001Y-271254999D03*
%TD*%
D10*
%TO.C,C49*%
%TO.CFtp,C_0603_1608Metric*%
%TO.CVal,1uF*%
%TO.CLbN,Capacitor_SMD*%
%TO.CMnt,SMD*%
%TO.CRot,90*%
X287075001Y-167654999D03*
D11*
X287800001Y-166179999D02*
X287800001Y-169129999D01*
X286350001Y-169129999D01*
X286350001Y-166179999D01*
X287800001Y-166179999D01*
D12*
%TO.P,C49,1*%
X287075001Y-166879999D03*
D13*
%TO.P,C49,2*%
X287075001Y-168429999D03*
%TD*%
D10*
%TO.C,C119*%
%TO.CFtp,C_0603_1608Metric*%
%TO.CVal,1uF*%
%TO.CLbN,Capacitor_SMD*%
%TO.CMnt,SMD*%
%TO.CRot,90*%
X242205001Y-270519999D03*
D11*
X242930001Y-269044999D02*
X242930001Y-271994999D01*
X241480001Y-271994999D01*
X241480001Y-269044999D01*
X242930001Y-269044999D01*
D12*
%TO.P,C119,1*%
X242205001Y-269744999D03*
D13*
%TO.P,C119,2*%
X242205001Y-271294999D03*
%TD*%
D10*
%TO.C,U14*%
%TO.CFtp,INA28x_VSSOP*%
%TO.CVal,INA28x*%
%TO.CLbN,Texas_Instruments*%
%TO.CMnt,SMD*%
%TO.CRot,0*%
X358035001Y-327025000D03*
D14*
X360735001Y-325825001D02*
X360735001Y-328225002D01*
X355335001Y-328225002D01*
X355335001Y-325825001D01*
X360735001Y-325825001D01*
D12*
%TO.P,U14,1,-IN*%
X360160001Y-326050001D03*
D13*
%TO.P,U14,2,GND*%
X360160001Y-326700002D03*
%TO.P,U14,3,REF2*%
X360160001Y-327350001D03*
%TO.P,U14,4,4*%
X360160001Y-328000002D03*
%TO.P,U14,5,OUT*%
X355910001Y-328000002D03*
%TO.P,U14,6,V+*%
X355910001Y-327350001D03*
%TO.P,U14,7,REF1*%
X355910001Y-326700002D03*
%TO.P,U14,8,+IN*%
X355910001Y-326050001D03*
%TD*%
D10*
%TO.C,C34*%
%TO.CFtp,C_0603_1608Metric*%
%TO.CVal,0.01uF*%
%TO.CLbN,Capacitor_SMD*%
%TO.CMnt,SMD*%
%TO.CRot,90*%
X263365001Y-327664999D03*
D11*
X264090001Y-326189999D02*
X264090001Y-329139999D01*
X262640001Y-329139999D01*
X262640001Y-326189999D01*
X264090001Y-326189999D01*
D12*
%TO.P,C34,1*%
X263365001Y-326889999D03*
D13*
%TO.P,C34,2*%
X263365001Y-328439999D03*
%TD*%
D10*
%TO.C,C124*%
%TO.CFtp,C_0402_1005Metric*%
%TO.CVal,0.1uF*%
%TO.CLbN,Capacitor_SMD*%
%TO.CMnt,SMD*%
%TO.CRot,-90*%
X334755001Y-119525000D03*
D11*
X335210001Y-118620000D02*
X335210001Y-120430000D01*
X334300001Y-120430000D01*
X334300001Y-118620000D01*
X335210001Y-118620000D01*
D12*
%TO.P,C124,1*%
X334755001Y-120005000D03*
D13*
%TO.P,C124,2*%
X334755001Y-119045000D03*
%TD*%
D10*
%TO.C,U13*%
%TO.CFtp,INA28x_VSSOP*%
%TO.CVal,INA28x*%
%TO.CLbN,Texas_Instruments*%
%TO.CMnt,SMD*%
%TO.CRot,0*%
X324895001Y-338295000D03*
D14*
X327595001Y-337095001D02*
X327595001Y-339495002D01*
X322195001Y-339495002D01*
X322195001Y-337095001D01*
X327595001Y-337095001D01*
D12*
%TO.P,U13,1,-IN*%
X327020001Y-337320001D03*
D13*
%TO.P,U13,2,GND*%
X327020001Y-337970002D03*
%TO.P,U13,3,REF2*%
X327020001Y-338620001D03*
%TO.P,U13,4,4*%
X327020001Y-339270002D03*
%TO.P,U13,5,OUT*%
X322770001Y-339270002D03*
%TO.P,U13,6,V+*%
X322770001Y-338620001D03*
%TO.P,U13,7,REF1*%
X322770001Y-337970002D03*
%TO.P,U13,8,+IN*%
X322770001Y-337320001D03*
%TD*%
D10*
%TO.C,C7*%
%TO.CFtp,C_0603_1608Metric*%
%TO.CVal,0.01uF*%
%TO.CLbN,Capacitor_SMD*%
%TO.CMnt,SMD*%
%TO.CRot,90*%
X311625001Y-52055000D03*
D11*
X312350001Y-50580000D02*
X312350001Y-53530000D01*
X310900001Y-53530000D01*
X310900001Y-50580000D01*
X312350001Y-50580000D01*
D12*
%TO.P,C7,1*%
X311625001Y-51280000D03*
D13*
%TO.P,C7,2*%
X311625001Y-52830000D03*
%TD*%
D10*
%TO.C,C121*%
%TO.CFtp,C_0402_1005Metric*%
%TO.CVal,1uF*%
%TO.CLbN,Capacitor_SMD*%
%TO.CMnt,SMD*%
%TO.CRot,0*%
X217643200Y-224415000D03*
D11*
X218548200Y-223960000D02*
X218548200Y-224870000D01*
X216738200Y-224870000D01*
X216738200Y-223960000D01*
X218548200Y-223960000D01*
D12*
%TO.P,C121,1*%
X218123200Y-224415000D03*
D13*
%TO.P,C121,2*%
X217163200Y-224415000D03*
%TD*%
D10*
%TO.C,U11*%
%TO.CFtp,INA28x_VSSOP*%
%TO.CVal,INA28x*%
%TO.CLbN,Texas_Instruments*%
%TO.CMnt,SMD*%
%TO.CRot,0*%
X338835001Y-59655000D03*
D14*
X341535001Y-58455001D02*
X341535001Y-60855002D01*
X336135001Y-60855002D01*
X336135001Y-58455001D01*
X341535001Y-58455001D01*
D12*
%TO.P,U11,1,-IN*%
X340960001Y-58680001D03*
D13*
%TO.P,U11,2,GND*%
X340960001Y-59330002D03*
%TO.P,U11,3,REF2*%
X340960001Y-59980001D03*
%TO.P,U11,4,4*%
X340960001Y-60630002D03*
%TO.P,U11,5,OUT*%
X336710001Y-60630002D03*
%TO.P,U11,6,V+*%
X336710001Y-59980001D03*
%TO.P,U11,7,REF1*%
X336710001Y-59330002D03*
%TO.P,U11,8,+IN*%
X336710001Y-58680001D03*
%TD*%
D10*
%TO.C,U12*%
%TO.CFtp,INA28x_VSSOP*%
%TO.CVal,INA28x*%
%TO.CLbN,Texas_Instruments*%
%TO.CMnt,SMD*%
%TO.CRot,0*%
X338945001Y-119515000D03*
D14*
X341645001Y-118315001D02*
X341645001Y-120715002D01*
X336245001Y-120715002D01*
X336245001Y-118315001D01*
X341645001Y-118315001D01*
D12*
%TO.P,U12,1,-IN*%
X341070001Y-118540001D03*
D13*
%TO.P,U12,2,GND*%
X341070001Y-119190002D03*
%TO.P,U12,3,REF2*%
X341070001Y-119840001D03*
%TO.P,U12,4,4*%
X341070001Y-120490002D03*
%TO.P,U12,5,OUT*%
X336820001Y-120490002D03*
%TO.P,U12,6,V+*%
X336820001Y-119840001D03*
%TO.P,U12,7,REF1*%
X336820001Y-119190002D03*
%TO.P,U12,8,+IN*%
X336820001Y-118540001D03*
%TD*%
D10*
%TO.C,C26*%
%TO.CFtp,C_0603_1608Metric*%
%TO.CVal,0.1uF*%
%TO.CLbN,Capacitor_SMD*%
%TO.CMnt,SMD*%
%TO.CRot,90*%
X313785001Y-106475000D03*
D11*
X314510001Y-105000000D02*
X314510001Y-107950000D01*
X313060001Y-107950000D01*
X313060001Y-105000000D01*
X314510001Y-105000000D01*
D12*
%TO.P,C26,1*%
X313785001Y-105700000D03*
D13*
%TO.P,C26,2*%
X313785001Y-107250000D03*
%TD*%
D10*
%TO.C,C35*%
%TO.CFtp,C_0603_1608Metric*%
%TO.CVal,0.1uF*%
%TO.CLbN,Capacitor_SMD*%
%TO.CMnt,SMD*%
%TO.CRot,90*%
X261555001Y-327664999D03*
D11*
X262280001Y-326189999D02*
X262280001Y-329139999D01*
X260830001Y-329139999D01*
X260830001Y-326189999D01*
X262280001Y-326189999D01*
D12*
%TO.P,C35,1*%
X261555001Y-326889999D03*
D13*
%TO.P,C35,2*%
X261555001Y-328439999D03*
%TD*%
D10*
%TO.C,C53*%
%TO.CFtp,C_0603_1608Metric*%
%TO.CVal,0.1uF*%
%TO.CLbN,Capacitor_SMD*%
%TO.CMnt,SMD*%
%TO.CRot,90*%
X255305001Y-167565000D03*
D11*
X256030001Y-166090000D02*
X256030001Y-169040000D01*
X254580001Y-169040000D01*
X254580001Y-166090000D01*
X256030001Y-166090000D01*
D12*
%TO.P,C53,1*%
X255305001Y-166790000D03*
D13*
%TO.P,C53,2*%
X255305001Y-168340000D03*
%TD*%
D10*
%TO.C,U15*%
%TO.CFtp,INA28x_VSSOP*%
%TO.CVal,INA28x*%
%TO.CLbN,Texas_Instruments*%
%TO.CMnt,SMD*%
%TO.CRot,0*%
X358037501Y-344565000D03*
D14*
X360737501Y-343365001D02*
X360737501Y-345765002D01*
X355337501Y-345765002D01*
X355337501Y-343365001D01*
X360737501Y-343365001D01*
D12*
%TO.P,U15,1,-IN*%
X360162501Y-343590001D03*
D13*
%TO.P,U15,2,GND*%
X360162501Y-344240002D03*
%TO.P,U15,3,REF2*%
X360162501Y-344890001D03*
%TO.P,U15,4,4*%
X360162501Y-345540002D03*
%TO.P,U15,5,OUT*%
X355912501Y-345540002D03*
%TO.P,U15,6,V+*%
X355912501Y-344890001D03*
%TO.P,U15,7,REF1*%
X355912501Y-344240002D03*
%TO.P,U15,8,+IN*%
X355912501Y-343590001D03*
%TD*%
D10*
%TO.C,C60*%
%TO.CFtp,C_0603_1608Metric*%
%TO.CVal,0.1uF*%
%TO.CLbN,Capacitor_SMD*%
%TO.CMnt,SMD*%
%TO.CRot,90*%
X289175001Y-375570000D03*
D11*
X289900001Y-374095000D02*
X289900001Y-377045000D01*
X288450001Y-377045000D01*
X288450001Y-374095000D01*
X289900001Y-374095000D01*
D12*
%TO.P,C60,1*%
X289175001Y-374795000D03*
D13*
%TO.P,C60,2*%
X289175001Y-376345000D03*
%TD*%
D10*
%TO.C,C64*%
%TO.CFtp,C_0603_1608Metric*%
%TO.CVal,0.01uF*%
%TO.CLbN,Capacitor_SMD*%
%TO.CMnt,SMD*%
%TO.CRot,90*%
X261292501Y-375490000D03*
D11*
X262017501Y-374015000D02*
X262017501Y-376965000D01*
X260567501Y-376965000D01*
X260567501Y-374015000D01*
X262017501Y-374015000D01*
D12*
%TO.P,C64,1*%
X261292501Y-374715000D03*
D13*
%TO.P,C64,2*%
X261292501Y-376265000D03*
%TD*%
D10*
%TO.C,C23*%
%TO.CFtp,C_0603_1608Metric*%
%TO.CVal,1uF*%
%TO.CLbN,Capacitor_SMD*%
%TO.CMnt,SMD*%
%TO.CRot,90*%
X254695001Y-112365000D03*
D11*
X255420001Y-110890000D02*
X255420001Y-113840000D01*
X253970001Y-113840000D01*
X253970001Y-110890000D01*
X255420001Y-110890000D01*
D12*
%TO.P,C23,1*%
X254695001Y-111590000D03*
D13*
%TO.P,C23,2*%
X254695001Y-113140000D03*
%TD*%
D10*
%TO.C,C109*%
%TO.CFtp,C_0402_1005Metric*%
%TO.CVal,1uF*%
%TO.CLbN,Capacitor_SMD*%
%TO.CMnt,SMD*%
%TO.CRot,0*%
X215323200Y-212705000D03*
D11*
X216228200Y-212250000D02*
X216228200Y-213160000D01*
X214418200Y-213160000D01*
X214418200Y-212250000D01*
X216228200Y-212250000D01*
D12*
%TO.P,C109,1*%
X215803200Y-212705000D03*
D13*
%TO.P,C109,2*%
X214843200Y-212705000D03*
%TD*%
D10*
%TO.C,C128*%
%TO.CFtp,C_0402_1005Metric*%
%TO.CVal,0.1uF*%
%TO.CLbN,Capacitor_SMD*%
%TO.CMnt,SMD*%
%TO.CRot,-90*%
X298410000Y-182830000D03*
D11*
X298865000Y-181925000D02*
X298865000Y-183735000D01*
X297955000Y-183735000D01*
X297955000Y-181925000D01*
X298865000Y-181925000D01*
D12*
%TO.P,C128,1*%
X298410000Y-183310000D03*
D13*
%TO.P,C128,2*%
X298410000Y-182350000D03*
%TD*%
D10*
%TO.C,C14*%
%TO.CFtp,C_0603_1608Metric*%
%TO.CVal,2200pF*%
%TO.CLbN,Capacitor_SMD*%
%TO.CMnt,SMD*%
%TO.CRot,0*%
X284145001Y-120715000D03*
D11*
X285620001Y-119990000D02*
X285620001Y-121440000D01*
X282670001Y-121440000D01*
X282670001Y-119990000D01*
X285620001Y-119990000D01*
D12*
%TO.P,C14,1*%
X284920001Y-120715000D03*
D13*
%TO.P,C14,2*%
X283370001Y-120715000D03*
%TD*%
D10*
%TO.C,C8*%
%TO.CFtp,C_0603_1608Metric*%
%TO.CVal,0.01uF*%
%TO.CLbN,Capacitor_SMD*%
%TO.CMnt,SMD*%
%TO.CRot,90*%
X260005001Y-52485000D03*
D11*
X260730001Y-51010000D02*
X260730001Y-53960000D01*
X259280001Y-53960000D01*
X259280001Y-51010000D01*
X260730001Y-51010000D01*
D12*
%TO.P,C8,1*%
X260005001Y-51710000D03*
D13*
%TO.P,C8,2*%
X260005001Y-53260000D03*
%TD*%
D10*
%TO.C,C25*%
%TO.CFtp,C_0603_1608Metric*%
%TO.CVal,2200pF*%
%TO.CLbN,Capacitor_SMD*%
%TO.CMnt,SMD*%
%TO.CRot,0*%
X284145001Y-93735000D03*
D11*
X285620001Y-93010000D02*
X285620001Y-94460000D01*
X282670001Y-94460000D01*
X282670001Y-93010000D01*
X285620001Y-93010000D01*
D12*
%TO.P,C25,1*%
X284920001Y-93735000D03*
D13*
%TO.P,C25,2*%
X283370001Y-93735000D03*
%TD*%
D10*
%TO.C,C18*%
%TO.CFtp,C_0603_1608Metric*%
%TO.CVal,1uF*%
%TO.CLbN,Capacitor_SMD*%
%TO.CMnt,SMD*%
%TO.CRot,90*%
X314105001Y-111955000D03*
D11*
X314830001Y-110480000D02*
X314830001Y-113430000D01*
X313380001Y-113430000D01*
X313380001Y-110480000D01*
X314830001Y-110480000D01*
D12*
%TO.P,C18,1*%
X314105001Y-111180000D03*
D13*
%TO.P,C18,2*%
X314105001Y-112730000D03*
%TD*%
D10*
%TO.C,C94*%
%TO.CFtp,C_0402_1005Metric*%
%TO.CVal,1uF*%
%TO.CLbN,Capacitor_SMD*%
%TO.CMnt,SMD*%
%TO.CRot,180*%
X362670000Y-265779999D03*
D11*
X363575000Y-265324999D02*
X363575000Y-266234999D01*
X361765000Y-266234999D01*
X361765000Y-265324999D01*
X363575000Y-265324999D01*
D12*
%TO.P,C94,1*%
X362190000Y-265779999D03*
D13*
%TO.P,C94,2*%
X363150000Y-265779999D03*
%TD*%
D10*
%TO.C,C39*%
%TO.CFtp,C_0603_1608Metric*%
%TO.CVal,0.1uF*%
%TO.CLbN,Capacitor_SMD*%
%TO.CMnt,SMD*%
%TO.CRot,90*%
X318335001Y-321824999D03*
D11*
X319060001Y-320349999D02*
X319060001Y-323299999D01*
X317610001Y-323299999D01*
X317610001Y-320349999D01*
X319060001Y-320349999D01*
D12*
%TO.P,C39,1*%
X318335001Y-321049999D03*
D13*
%TO.P,C39,2*%
X318335001Y-322599999D03*
%TD*%
D10*
%TO.C,C117*%
%TO.CFtp,C_0603_1608Metric*%
%TO.CVal,0.01uF*%
%TO.CLbN,Capacitor_SMD*%
%TO.CMnt,SMD*%
%TO.CRot,90*%
X245915001Y-270499999D03*
D11*
X246640001Y-269024999D02*
X246640001Y-271974999D01*
X245190001Y-271974999D01*
X245190001Y-269024999D01*
X246640001Y-269024999D01*
D12*
%TO.P,C117,1*%
X245915001Y-269724999D03*
D13*
%TO.P,C117,2*%
X245915001Y-271274999D03*
%TD*%
D10*
%TO.C,C85*%
%TO.CFtp,C_0402_1005Metric*%
%TO.CVal,0.1uF*%
%TO.CLbN,Capacitor_SMD*%
%TO.CMnt,SMD*%
%TO.CRot,180*%
X362595850Y-244629999D03*
D11*
X363500850Y-244174999D02*
X363500850Y-245084999D01*
X361690850Y-245084999D01*
X361690850Y-244174999D01*
X363500850Y-244174999D01*
D12*
%TO.P,C85,1*%
X362115850Y-244629999D03*
D13*
%TO.P,C85,2*%
X363075850Y-244629999D03*
%TD*%
D10*
%TO.C,C38*%
%TO.CFtp,C_0603_1608Metric*%
%TO.CVal,2200pF*%
%TO.CLbN,Capacitor_SMD*%
%TO.CMnt,SMD*%
%TO.CRot,0*%
X289115001Y-308844999D03*
D11*
X290590001Y-308119999D02*
X290590001Y-309569999D01*
X287640001Y-309569999D01*
X287640001Y-308119999D01*
X290590001Y-308119999D01*
D12*
%TO.P,C38,1*%
X289890001Y-308844999D03*
D13*
%TO.P,C38,2*%
X288340001Y-308844999D03*
%TD*%
D10*
%TO.C,C5*%
%TO.CFtp,C_0603_1608Metric*%
%TO.CVal,1uF*%
%TO.CLbN,Capacitor_SMD*%
%TO.CMnt,SMD*%
%TO.CRot,90*%
X315475001Y-52085000D03*
D11*
X316200001Y-50610000D02*
X316200001Y-53560000D01*
X314750001Y-53560000D01*
X314750001Y-50610000D01*
X316200001Y-50610000D01*
D12*
%TO.P,C5,1*%
X315475001Y-51310000D03*
D13*
%TO.P,C5,2*%
X315475001Y-52860000D03*
%TD*%
D10*
%TO.C,C62*%
%TO.CFtp,C_0603_1608Metric*%
%TO.CVal,1uF*%
%TO.CLbN,Capacitor_SMD*%
%TO.CMnt,SMD*%
%TO.CRot,90*%
X257465001Y-375490000D03*
D11*
X258190001Y-374015000D02*
X258190001Y-376965000D01*
X256740001Y-376965000D01*
X256740001Y-374015000D01*
X258190001Y-374015000D01*
D12*
%TO.P,C62,1*%
X257465001Y-374715000D03*
D13*
%TO.P,C62,2*%
X257465001Y-376265000D03*
%TD*%
D10*
%TO.C,C118*%
%TO.CFtp,C_0603_1608Metric*%
%TO.CVal,0.1uF*%
%TO.CLbN,Capacitor_SMD*%
%TO.CMnt,SMD*%
%TO.CRot,90*%
X244095001Y-270499999D03*
D11*
X244820001Y-269024999D02*
X244820001Y-271974999D01*
X243370001Y-271974999D01*
X243370001Y-269024999D01*
X244820001Y-269024999D01*
D12*
%TO.P,C118,1*%
X244095001Y-269724999D03*
D13*
%TO.P,C118,2*%
X244095001Y-271274999D03*
%TD*%
D10*
%TO.C,C51*%
%TO.CFtp,C_0603_1608Metric*%
%TO.CVal,0.01uF*%
%TO.CLbN,Capacitor_SMD*%
%TO.CMnt,SMD*%
%TO.CRot,90*%
X283355001Y-167644999D03*
D11*
X284080001Y-166169999D02*
X284080001Y-169119999D01*
X282630001Y-169119999D01*
X282630001Y-166169999D01*
X284080001Y-166169999D01*
D12*
%TO.P,C51,1*%
X283355001Y-166869999D03*
D13*
%TO.P,C51,2*%
X283355001Y-168419999D03*
%TD*%
D10*
%TO.C,C122*%
%TO.CFtp,C_0402_1005Metric*%
%TO.CVal,0.1uF*%
%TO.CLbN,Capacitor_SMD*%
%TO.CMnt,SMD*%
%TO.CRot,0*%
X217633200Y-223295000D03*
D11*
X218538200Y-222840000D02*
X218538200Y-223750000D01*
X216728200Y-223750000D01*
X216728200Y-222840000D01*
X218538200Y-222840000D01*
D12*
%TO.P,C122,1*%
X218113200Y-223295000D03*
D13*
%TO.P,C122,2*%
X217153200Y-223295000D03*
%TD*%
D10*
%TO.C,C12*%
%TO.CFtp,C_0603_1608Metric*%
%TO.CVal,2200pF*%
%TO.CLbN,Capacitor_SMD*%
%TO.CMnt,SMD*%
%TO.CRot,0*%
X285515001Y-33865000D03*
D11*
X286990001Y-33140000D02*
X286990001Y-34590000D01*
X284040001Y-34590000D01*
X284040001Y-33140000D01*
X286990001Y-33140000D01*
D12*
%TO.P,C12,1*%
X286290001Y-33865000D03*
D13*
%TO.P,C12,2*%
X284740001Y-33865000D03*
%TD*%
D10*
%TO.C,C22*%
%TO.CFtp,C_0603_1608Metric*%
%TO.CVal,0.1uF*%
%TO.CLbN,Capacitor_SMD*%
%TO.CMnt,SMD*%
%TO.CRot,90*%
X256685001Y-112365000D03*
D11*
X257410001Y-110890000D02*
X257410001Y-113840000D01*
X255960001Y-113840000D01*
X255960001Y-110890000D01*
X257410001Y-110890000D01*
D12*
%TO.P,C22,1*%
X256685001Y-111590000D03*
D13*
%TO.P,C22,2*%
X256685001Y-113140000D03*
%TD*%
D10*
%TO.C,C33*%
%TO.CFtp,C_0603_1608Metric*%
%TO.CVal,0.01uF*%
%TO.CLbN,Capacitor_SMD*%
%TO.CMnt,SMD*%
%TO.CRot,90*%
X314635001Y-327589999D03*
D11*
X315360001Y-326114999D02*
X315360001Y-329064999D01*
X313910001Y-329064999D01*
X313910001Y-326114999D01*
X315360001Y-326114999D01*
D12*
%TO.P,C33,1*%
X314635001Y-326814999D03*
D13*
%TO.P,C33,2*%
X314635001Y-328364999D03*
%TD*%
D10*
%TO.C,C114*%
%TO.CFtp,C_0603_1608Metric*%
%TO.CVal,0.01uF*%
%TO.CLbN,Capacitor_SMD*%
%TO.CMnt,SMD*%
%TO.CRot,90*%
X272195001Y-270479999D03*
D11*
X272920001Y-269004999D02*
X272920001Y-271954999D01*
X271470001Y-271954999D01*
X271470001Y-269004999D01*
X272920001Y-269004999D01*
D12*
%TO.P,C114,1*%
X272195001Y-269704999D03*
D13*
%TO.P,C114,2*%
X272195001Y-271254999D03*
%TD*%
D10*
%TO.C,C21*%
%TO.CFtp,C_0603_1608Metric*%
%TO.CVal,0.01uF*%
%TO.CLbN,Capacitor_SMD*%
%TO.CMnt,SMD*%
%TO.CRot,90*%
X258635001Y-112355000D03*
D11*
X259360001Y-110880000D02*
X259360001Y-113830000D01*
X257910001Y-113830000D01*
X257910001Y-110880000D01*
X259360001Y-110880000D01*
D12*
%TO.P,C21,1*%
X258635001Y-111580000D03*
D13*
%TO.P,C21,2*%
X258635001Y-113130000D03*
%TD*%
D10*
%TO.C,C1*%
%TO.CFtp,C_0603_1608Metric*%
%TO.CVal,2200pF*%
%TO.CLbN,Capacitor_SMD*%
%TO.CMnt,SMD*%
%TO.CRot,0*%
X285515001Y-60845000D03*
D11*
X286990001Y-60120000D02*
X286990001Y-61570000D01*
X284040001Y-61570000D01*
X284040001Y-60120000D01*
X286990001Y-60120000D01*
D12*
%TO.P,C1,1*%
X286290001Y-60845000D03*
D13*
%TO.P,C1,2*%
X284740001Y-60845000D03*
%TD*%
D10*
%TO.C,C13*%
%TO.CFtp,C_0603_1608Metric*%
%TO.CVal,0.1uF*%
%TO.CLbN,Capacitor_SMD*%
%TO.CMnt,SMD*%
%TO.CRot,90*%
X314845001Y-46635000D03*
D11*
X315570001Y-45160000D02*
X315570001Y-48110000D01*
X314120001Y-48110000D01*
X314120001Y-45160000D01*
X315570001Y-45160000D01*
D12*
%TO.P,C13,1*%
X314845001Y-45860000D03*
D13*
%TO.P,C13,2*%
X314845001Y-47410000D03*
%TD*%
D10*
%TO.C,C115*%
%TO.CFtp,C_0603_1608Metric*%
%TO.CVal,0.1uF*%
%TO.CLbN,Capacitor_SMD*%
%TO.CMnt,SMD*%
%TO.CRot,90*%
X276255001Y-270489999D03*
D11*
X276980001Y-269014999D02*
X276980001Y-271964999D01*
X275530001Y-271964999D01*
X275530001Y-269014999D01*
X276980001Y-269014999D01*
D12*
%TO.P,C115,1*%
X276255001Y-269714999D03*
D13*
%TO.P,C115,2*%
X276255001Y-271264999D03*
%TD*%
D10*
%TO.C,C36*%
%TO.CFtp,C_0603_1608Metric*%
%TO.CVal,1uF*%
%TO.CLbN,Capacitor_SMD*%
%TO.CMnt,SMD*%
%TO.CRot,90*%
X259685001Y-327664999D03*
D11*
X260410001Y-326189999D02*
X260410001Y-329139999D01*
X258960001Y-329139999D01*
X258960001Y-326189999D01*
X260410001Y-326189999D01*
D12*
%TO.P,C36,1*%
X259685001Y-326889999D03*
D13*
%TO.P,C36,2*%
X259685001Y-328439999D03*
%TD*%
D10*
%TO.C,C31*%
%TO.CFtp,C_0603_1608Metric*%
%TO.CVal,1uF*%
%TO.CLbN,Capacitor_SMD*%
%TO.CMnt,SMD*%
%TO.CRot,90*%
X318325001Y-327584999D03*
D11*
X319050001Y-326109999D02*
X319050001Y-329059999D01*
X317600001Y-329059999D01*
X317600001Y-326109999D01*
X319050001Y-326109999D01*
D12*
%TO.P,C31,1*%
X318325001Y-326809999D03*
D13*
%TO.P,C31,2*%
X318325001Y-328359999D03*
%TD*%
D10*
%TO.C,C63*%
%TO.CFtp,C_0603_1608Metric*%
%TO.CVal,0.1uF*%
%TO.CLbN,Capacitor_SMD*%
%TO.CMnt,SMD*%
%TO.CRot,90*%
X259315001Y-375500000D03*
D11*
X260040001Y-374025000D02*
X260040001Y-376975000D01*
X258590001Y-376975000D01*
X258590001Y-374025000D01*
X260040001Y-374025000D01*
D12*
%TO.P,C63,1*%
X259315001Y-374725000D03*
D13*
%TO.P,C63,2*%
X259315001Y-376275000D03*
%TD*%
D10*
%TO.C,C52*%
%TO.CFtp,C_0603_1608Metric*%
%TO.CVal,1uF*%
%TO.CLbN,Capacitor_SMD*%
%TO.CMnt,SMD*%
%TO.CRot,90*%
X253455001Y-167555000D03*
D11*
X254180001Y-166080000D02*
X254180001Y-169030000D01*
X252730001Y-169030000D01*
X252730001Y-166080000D01*
X254180001Y-166080000D01*
D12*
%TO.P,C52,1*%
X253455001Y-166780000D03*
D13*
%TO.P,C52,2*%
X253455001Y-168330000D03*
%TD*%
D10*
%TO.C,C61*%
%TO.CFtp,C_0603_1608Metric*%
%TO.CVal,0.01uF*%
%TO.CLbN,Capacitor_SMD*%
%TO.CMnt,SMD*%
%TO.CRot,90*%
X287365001Y-375580000D03*
D11*
X288090001Y-374105000D02*
X288090001Y-377055000D01*
X286640001Y-377055000D01*
X286640001Y-374105000D01*
X288090001Y-374105000D01*
D12*
%TO.P,C61,1*%
X287365001Y-374805000D03*
D13*
%TO.P,C61,2*%
X287365001Y-376355000D03*
%TD*%
D10*
%TO.C,C127*%
%TO.CFtp,C_0402_1005Metric*%
%TO.CVal,0.1uF*%
%TO.CLbN,Capacitor_SMD*%
%TO.CMnt,SMD*%
%TO.CRot,-90*%
X353847501Y-344575000D03*
D11*
X354302501Y-343670000D02*
X354302501Y-345480000D01*
X353392501Y-345480000D01*
X353392501Y-343670000D01*
X354302501Y-343670000D01*
D12*
%TO.P,C127,1*%
X353847501Y-345055000D03*
D13*
%TO.P,C127,2*%
X353847501Y-344095000D03*
%TD*%
D10*
%TO.C,C27*%
%TO.CFtp,C_0603_1608Metric*%
%TO.CVal,2200pF*%
%TO.CLbN,Capacitor_SMD*%
%TO.CMnt,SMD*%
%TO.CRot,0*%
X289145001Y-336414999D03*
D11*
X290620001Y-335689999D02*
X290620001Y-337139999D01*
X287670001Y-337139999D01*
X287670001Y-335689999D01*
X290620001Y-335689999D01*
D12*
%TO.P,C27,1*%
X289920001Y-336414999D03*
D13*
%TO.P,C27,2*%
X288370001Y-336414999D03*
%TD*%
D15*
X400000000Y-395000000D02*
G75*
G02*
X395000000Y-400000000I-5000000J0D01*
G01*
X185000000Y-25000000D02*
X185000000Y-395000000D01*
X190000000Y-400010009D02*
X395000000Y-400000000D01*
X190000000Y-400010009D02*
G75*
G02*
X185000001Y-395000000I0J5000009D01*
G01*
X185000000Y-25000000D02*
G75*
G02*
X190000000Y-20000000I5000000J0D01*
G01*
X400000000Y-395000000D02*
X400000000Y-25000000D01*
X395000000Y-20000000D02*
G75*
G02*
X400000000Y-25000000I0J-5000000D01*
G01*
X190000000Y-20000000D02*
X395000000Y-20000000D01*
M02*
