%TF.GenerationSoftware,KiCad,Pcbnew,9.0.3*%
%TF.CreationDate,2025-09-16T14:09:08-04:00*%
%TF.ProjectId,11_CPU_PDU,31315f43-5055-45f5-9044-552e6b696361,rev?*%
%TF.SameCoordinates,Original*%
%TF.FileFunction,Component,L1,Top*%
%TF.FilePolarity,Positive*%
%FSLAX46Y46*%
G04 Gerber Fmt 4.6, Leading zero omitted, Abs format (unit mm)*
G04 Created by KiCad (PCBNEW 9.0.3) date 2025-09-16 14:09:08*
%MOMM*%
%LPD*%
G01*
G04 APERTURE LIST*
%TA.AperFunction,ComponentMain*%
%ADD10C,0.300000*%
%TD*%
%TA.AperFunction,ComponentOutline,Courtyard*%
%ADD11C,0.100000*%
%TD*%
%TA.AperFunction,ComponentPin*%
%ADD12P,0.360000X4X0.000000*%
%TD*%
%TA.AperFunction,ComponentPin*%
%ADD13C,0.100000*%
%TD*%
%TA.AperFunction,ComponentOutline,Footprint*%
%ADD14C,0.100000*%
%TD*%
%TA.AperFunction,Profile*%
%ADD15C,0.050000*%
%TD*%
G04 APERTURE END LIST*
D10*
%TO.C,R96*%
%TO.CFtp,R_0603_1608Metric*%
%TO.CVal,24.9*%
%TO.CLbN,Resistor_SMD*%
%TO.CMnt,SMD*%
%TO.CRot,180*%
X355420000Y-257719999D03*
D11*
X356895000Y-256994999D02*
X356895000Y-258444999D01*
X353945000Y-258444999D01*
X353945000Y-256994999D01*
X356895000Y-256994999D01*
D12*
%TO.P,R96,1*%
X356245000Y-257719999D03*
D13*
%TO.P,R96,2*%
X354595000Y-257719999D03*
%TD*%
D10*
%TO.C,R104*%
%TO.CFtp,R_0603_1608Metric*%
%TO.CVal,24.9*%
%TO.CLbN,Resistor_SMD*%
%TO.CMnt,SMD*%
%TO.CRot,0*%
X369700000Y-257729999D03*
D11*
X371175000Y-257004999D02*
X371175000Y-258454999D01*
X368225000Y-258454999D01*
X368225000Y-257004999D01*
X371175000Y-257004999D01*
D12*
%TO.P,R104,1*%
X368875000Y-257729999D03*
D13*
%TO.P,R104,2*%
X370525000Y-257729999D03*
%TD*%
D10*
%TO.C,L3*%
%TO.CFtp,MLC1260*%
%TO.CVal,0.8uH (+/- 20\u0025)*%
%TO.CLbN,CoilCraft*%
%TO.CMnt,SMD*%
%TO.CRot,-90*%
X240695001Y-41195000D03*
D14*
X252695001Y-45095000D02*
X240695001Y-45095000D01*
X240695001Y-47795000D01*
X252695001Y-47795000D01*
X252695001Y-45095000D01*
D12*
%TO.P,L3,1,1*%
X242695001Y-46445000D03*
D13*
%TO.P,L3,2,2*%
X250695001Y-46445000D03*
%TD*%
D10*
%TO.C,F5*%
%TO.CFtp,0154Series_LTF*%
%TO.CVal,0154002.DR*%
%TO.CLbN,Little_Fuse*%
%TO.CMnt,SMD*%
%TO.CRot,0*%
X215865001Y-381220000D03*
D11*
X220978101Y-378456400D02*
X220978101Y-379066000D01*
X221422601Y-379066000D01*
X221422601Y-383374000D01*
X220978101Y-383374000D01*
X220978101Y-383983600D01*
X210751901Y-383983600D01*
X210751901Y-383374000D01*
X210307401Y-383374000D01*
X210307401Y-379066000D01*
X210751901Y-379066000D01*
X210751901Y-378456400D01*
X220978101Y-378456400D01*
D12*
%TO.P,F5,1,1*%
X212677301Y-381220000D03*
D13*
%TO.P,F5,2,2*%
X219052701Y-381220000D03*
%TD*%
D10*
%TO.C,C112*%
%TO.CFtp,CP_EIA-3216-12_Kemet-S*%
%TO.CVal,10uF*%
%TO.CLbN,Capacitor_Tantalum_SMD*%
%TO.CMnt,SMD*%
%TO.CRot,90*%
X244095001Y-270477499D03*
D11*
X245140001Y-268172499D02*
X245140001Y-272782499D01*
X243050001Y-272782499D01*
X243050001Y-268172499D01*
X245140001Y-268172499D01*
D12*
%TO.P,C112,1*%
X244095001Y-271829999D03*
D13*
%TO.P,C112,2*%
X244095001Y-269124999D03*
%TD*%
D10*
%TO.C,C15*%
%TO.CFtp,CP_EIA-3216-12_Kemet-S*%
%TO.CVal,10uF*%
%TO.CLbN,Capacitor_Tantalum_SMD*%
%TO.CMnt,SMD*%
%TO.CRot,90*%
X256685001Y-112365000D03*
D11*
X257730001Y-110060000D02*
X257730001Y-114670000D01*
X255640001Y-114670000D01*
X255640001Y-110060000D01*
X257730001Y-110060000D01*
D12*
%TO.P,C15,1*%
X256685001Y-113717500D03*
D13*
%TO.P,C15,2*%
X256685001Y-111012500D03*
%TD*%
D10*
%TO.C,J15*%
%TO.CFtp,1731130182*%
%TO.CVal,1731130182*%
%TO.CLbN,Molex*%
%TO.CMnt,TH*%
%TO.CRot,-90*%
X385970000Y-277329999D03*
D11*
X406183400Y-257355900D02*
X406183400Y-288664100D01*
X383384200Y-288664100D01*
X383384200Y-257355900D01*
X406183400Y-257355900D01*
D12*
%TO.P,J15,1,1*%
X385970000Y-277329999D03*
D13*
%TO.P,J15,2,2*%
X385970000Y-275039998D03*
%TO.P,J15,3,3*%
X385970000Y-272749998D03*
%TO.P,J15,4,4*%
X385970000Y-270460000D03*
%TO.P,J15,5,5*%
X385970000Y-268169999D03*
%TO.P,J15,6,6*%
X388510000Y-278469999D03*
%TO.P,J15,7,7*%
X388510000Y-276179999D03*
%TO.P,J15,8,8*%
X388510000Y-273889998D03*
%TO.P,J15,9,9*%
X388510000Y-271600000D03*
%TO.P,J15,10,10*%
X388510000Y-269310000D03*
%TO.P,J15,11,11*%
X391050000Y-277329999D03*
%TO.P,J15,12,12*%
X391050000Y-275039998D03*
%TO.P,J15,13,13*%
X391050000Y-272749998D03*
%TO.P,J15,14,14*%
X391050000Y-270460000D03*
%TO.P,J15,15,15*%
X391050000Y-268169999D03*
%TO.P,J15,S1,S1*%
X388510000Y-260509999D03*
%TO.P,J15,S2,S2*%
X388510000Y-285510000D03*
%TD*%
D10*
%TO.C,J14*%
%TO.CFtp,618015330923*%
%TO.CVal,618015330923*%
%TO.CLbN,Wurth_Elektronik*%
%TO.CMnt,TH*%
%TO.CRot,90*%
X394970000Y-221795000D03*
D11*
X400215000Y-206095000D02*
X400215000Y-237495000D01*
X383725000Y-237495000D01*
X383725000Y-206095000D01*
X400215000Y-206095000D01*
D12*
%TO.P,J14,1*%
X385950000Y-217469000D03*
D13*
%TO.P,J14,2*%
X385950000Y-219759000D03*
%TO.P,J14,3*%
X385950000Y-222049000D03*
%TO.P,J14,4*%
X385950000Y-224339000D03*
%TO.P,J14,5*%
X385950000Y-226629000D03*
%TO.P,J14,6*%
X388490000Y-216324000D03*
%TO.P,J14,7*%
X388490000Y-218614000D03*
%TO.P,J14,8*%
X388490000Y-220904000D03*
%TO.P,J14,9*%
X388490000Y-223194000D03*
%TO.P,J14,10*%
X388490000Y-225484000D03*
%TO.P,J14,11*%
X391030000Y-217469000D03*
%TO.P,J14,12*%
X391030000Y-219759000D03*
%TO.P,J14,13*%
X391030000Y-222049000D03*
%TO.P,J14,14*%
X391030000Y-224339000D03*
%TO.P,J14,15*%
X391030000Y-226629000D03*
%TO.P,J14,S1*%
X388490000Y-234290000D03*
%TO.P,J14,S2*%
X388490000Y-209300000D03*
%TD*%
D10*
%TO.C,SEC_PWR3*%
%TO.CFtp,TestPoint_Keystone_5005-5009_Compact*%
%TO.CVal,5007*%
%TO.CLbN,TestPoint*%
%TO.CMnt,TH*%
%TO.CRot,0*%
X295245001Y-384520000D03*
D11*
X295387505Y-382527548D02*
X295669611Y-382568108D01*
X295943069Y-382648403D01*
X296202321Y-382766799D01*
X296442081Y-382920884D01*
X296657476Y-383107524D01*
X296844116Y-383322919D01*
X296998201Y-383562679D01*
X297116597Y-383821931D01*
X297196892Y-384095389D01*
X297237459Y-384377542D01*
X297240000Y-384520000D01*
X297237459Y-384662457D01*
X297196892Y-384944610D01*
X297116597Y-385218068D01*
X296998201Y-385477320D01*
X296844116Y-385717080D01*
X296657476Y-385932475D01*
X296442081Y-386119115D01*
X296202321Y-386273200D01*
X295943069Y-386391596D01*
X295669611Y-386471891D01*
X295387505Y-386512452D01*
X295102497Y-386512452D01*
X294820390Y-386471891D01*
X294546932Y-386391596D01*
X294287680Y-386273200D01*
X294047920Y-386119115D01*
X293832525Y-385932475D01*
X293645885Y-385717080D01*
X293491800Y-385477320D01*
X293373404Y-385218068D01*
X293293109Y-384944610D01*
X293252549Y-384662503D01*
X293252549Y-384377496D01*
X293293109Y-384095389D01*
X293373404Y-383821931D01*
X293491800Y-383562679D01*
X293645885Y-383322919D01*
X293832525Y-383107524D01*
X294047920Y-382920884D01*
X294287680Y-382766799D01*
X294546932Y-382648403D01*
X294820390Y-382568108D01*
X295102497Y-382527548D01*
X295387505Y-382527548D01*
D12*
%TO.P,SEC_PWR3,1,1*%
X295245001Y-384520000D03*
%TD*%
D10*
%TO.C,R28*%
%TO.CFtp,R_0603_1608Metric*%
%TO.CVal,(DNP)*%
%TO.CLbN,Resistor_SMD*%
%TO.CMnt,SMD*%
%TO.CRot,90*%
X346515001Y-339674999D03*
D11*
X347240001Y-338199999D02*
X347240001Y-341149999D01*
X345790001Y-341149999D01*
X345790001Y-338199999D01*
X347240001Y-338199999D01*
D12*
%TO.P,R28,1*%
X346515001Y-340499999D03*
D13*
%TO.P,R28,2*%
X346515001Y-338849999D03*
%TD*%
D10*
%TO.C,R84*%
%TO.CFtp,R_0402_1005Metric*%
%TO.CVal,10k*%
%TO.CLbN,Resistor_SMD*%
%TO.CMnt,SMD*%
%TO.CRot,90*%
X367035850Y-241979999D03*
D11*
X367500850Y-241054999D02*
X367500850Y-242904999D01*
X366570850Y-242904999D01*
X366570850Y-241054999D01*
X367500850Y-241054999D01*
D12*
%TO.P,R84,1*%
X367035850Y-242489999D03*
D13*
%TO.P,R84,2*%
X367035850Y-241469999D03*
%TD*%
D10*
%TO.C,C102*%
%TO.CFtp,C_0603_1608Metric*%
%TO.CVal,1uF*%
%TO.CLbN,Capacitor_SMD*%
%TO.CMnt,SMD*%
%TO.CRot,0*%
X366230000Y-272629999D03*
D11*
X367705000Y-271904999D02*
X367705000Y-273354999D01*
X364755000Y-273354999D01*
X364755000Y-271904999D01*
X367705000Y-271904999D01*
D12*
%TO.P,C102,1*%
X365455000Y-272629999D03*
D13*
%TO.P,C102,2*%
X367005000Y-272629999D03*
%TD*%
D10*
%TO.C,M10*%
%TO.CFtp,SSM_TOS*%
%TO.CVal,SSM3K15AFS_LF*%
%TO.CLbN,Toshiba_Semi*%
%TO.CMnt,SMD*%
%TO.CRot,0*%
X265055001Y-62675000D03*
D11*
X265454001Y-61170401D02*
X265454001Y-62026000D01*
X266104001Y-62026000D01*
X266104001Y-63324000D01*
X265954001Y-63324000D01*
X265954001Y-64179599D01*
X264156001Y-64179599D01*
X264156001Y-63324000D01*
X264006001Y-63324000D01*
X264006001Y-62026000D01*
X264656001Y-62026000D01*
X264656001Y-61170401D01*
X265454001Y-61170401D01*
D12*
%TO.P,M10,1,1*%
X264555002Y-63350000D03*
D13*
%TO.P,M10,2,2*%
X265555000Y-63350000D03*
%TO.P,M10,3,3*%
X265055001Y-62000000D03*
%TD*%
D10*
%TO.C,J13*%
%TO.CFtp,618009231221*%
%TO.CVal,618009231221*%
%TO.CLbN,Wurth_Elektronik*%
%TO.CMnt,TH*%
%TO.CRot,-90*%
X188185001Y-372700000D03*
D11*
X197680001Y-357005000D02*
X197680001Y-388395000D01*
X184770001Y-388395000D01*
X184770001Y-357005000D01*
X197680001Y-357005000D01*
D12*
%TO.P,J13,1*%
X195905001Y-367160000D03*
D13*
%TO.P,J13,2*%
X195905001Y-369930000D03*
%TO.P,J13,3*%
X195905001Y-372700000D03*
%TO.P,J13,4*%
X195905001Y-375470000D03*
%TO.P,J13,5*%
X195905001Y-378240000D03*
%TO.P,J13,6*%
X193065001Y-368545000D03*
%TO.P,J13,7*%
X193065001Y-371315000D03*
%TO.P,J13,8*%
X193065001Y-374085000D03*
%TO.P,J13,9*%
X193065001Y-376855000D03*
%TO.P,J13,S1*%
X194485001Y-360200000D03*
%TO.P,J13,S2*%
X194485001Y-385200000D03*
%TD*%
D10*
%TO.C,R89*%
%TO.CFtp,R_0402_1005Metric*%
%TO.CVal,(DNI)*%
%TO.CLbN,Resistor_SMD*%
%TO.CMnt,SMD*%
%TO.CRot,90*%
X355760000Y-268389999D03*
D11*
X356225000Y-267464999D02*
X356225000Y-269314999D01*
X355295000Y-269314999D01*
X355295000Y-267464999D01*
X356225000Y-267464999D01*
D12*
%TO.P,R89,1*%
X355760000Y-268899999D03*
D13*
%TO.P,R89,2*%
X355760000Y-267879999D03*
%TD*%
D10*
%TO.C,C88*%
%TO.CFtp,C_0603_1608Metric*%
%TO.CVal,1uF*%
%TO.CLbN,Capacitor_SMD*%
%TO.CMnt,SMD*%
%TO.CRot,180*%
X358995850Y-252589999D03*
D11*
X360470850Y-251864999D02*
X360470850Y-253314999D01*
X357520850Y-253314999D01*
X357520850Y-251864999D01*
X360470850Y-251864999D01*
D12*
%TO.P,C88,1*%
X359770850Y-252589999D03*
D13*
%TO.P,C88,2*%
X358220850Y-252589999D03*
%TD*%
D10*
%TO.C,R47*%
%TO.CFtp,R_0603_1608Metric*%
%TO.CVal,4.99k*%
%TO.CLbN,Resistor_SMD*%
%TO.CMnt,SMD*%
%TO.CRot,180*%
X254415003Y-362029998D03*
D11*
X255890003Y-361304998D02*
X255890003Y-362754998D01*
X252940003Y-362754998D01*
X252940003Y-361304998D01*
X255890003Y-361304998D01*
D12*
%TO.P,R47,1*%
X255240003Y-362029998D03*
D13*
%TO.P,R47,2*%
X253590003Y-362029998D03*
%TD*%
D10*
%TO.C,LED3*%
%TO.CFtp,LED_0AS75000_WRE*%
%TO.CVal,150060GS75000*%
%TO.CLbN,Wurth_Elektronik*%
%TO.CMnt,SMD*%
%TO.CRot,180*%
X249785001Y-299554999D03*
D11*
X250884901Y-298861499D02*
X250884901Y-300248499D01*
X248685101Y-300248499D01*
X248685101Y-298861499D01*
X250884901Y-298861499D01*
D12*
%TO.P,LED3,1*%
X250413651Y-299554999D03*
D13*
%TO.P,LED3,2*%
X249156351Y-299554999D03*
%TD*%
D10*
%TO.C,Q4*%
%TO.CFtp,ISP281D_ISO*%
%TO.CVal,ISP281D*%
%TO.CLbN,ISOCOM*%
%TO.CMnt,SMD*%
%TO.CRot,90*%
X250002501Y-185255000D03*
D11*
X251165901Y-181056300D02*
X251165901Y-182707300D01*
X251699301Y-182707300D01*
X251699301Y-187802700D01*
X251165901Y-187802700D01*
X251165901Y-189453700D01*
X248839101Y-189453700D01*
X248839101Y-187802700D01*
X248305701Y-187802700D01*
X248305701Y-182707300D01*
X248839101Y-182707300D01*
X248839101Y-181056300D01*
X251165901Y-181056300D01*
D12*
%TO.P,Q4,1,1*%
X249367501Y-188379200D03*
D13*
%TO.P,Q4,2,2*%
X250637501Y-188379200D03*
%TO.P,Q4,3,3*%
X250637501Y-182130800D03*
%TO.P,Q4,4,4*%
X249367501Y-182130800D03*
%TD*%
D10*
%TO.C,J10*%
%TO.CFtp,61300311121*%
%TO.CVal,61300311121*%
%TO.CLbN,Wurth_Elektronik*%
%TO.CMnt,TH*%
%TO.CRot,90*%
X225063200Y-207735000D03*
D11*
X226628200Y-203630000D02*
X226628200Y-211840000D01*
X223498200Y-211840000D01*
X223498200Y-203630000D01*
X226628200Y-203630000D01*
D12*
%TO.P,J10,1*%
X225063200Y-210275000D03*
D13*
%TO.P,J10,2*%
X225063200Y-207735000D03*
%TO.P,J10,3*%
X225063200Y-205195000D03*
%TD*%
D10*
%TO.C,R40*%
%TO.CFtp,R_0603_1608Metric*%
%TO.CVal,1k*%
%TO.CLbN,Resistor_SMD*%
%TO.CMnt,SMD*%
%TO.CRot,-90*%
X248663001Y-192893000D03*
D11*
X249388001Y-191418000D02*
X249388001Y-194368000D01*
X247938001Y-194368000D01*
X247938001Y-191418000D01*
X249388001Y-191418000D01*
D12*
%TO.P,R40,1*%
X248663001Y-192068000D03*
D13*
%TO.P,R40,2*%
X248663001Y-193718000D03*
%TD*%
D10*
%TO.C,M9*%
%TO.CFtp,SSM_TOS*%
%TO.CVal,SSM3K15AFS_LF*%
%TO.CLbN,Toshiba_Semi*%
%TO.CMnt,SMD*%
%TO.CRot,180*%
X254415002Y-364934998D03*
D11*
X255314002Y-363430399D02*
X255314002Y-364285998D01*
X255464002Y-364285998D01*
X255464002Y-365583998D01*
X254814002Y-365583998D01*
X254814002Y-366439597D01*
X254016002Y-366439597D01*
X254016002Y-365583998D01*
X253366002Y-365583998D01*
X253366002Y-364285998D01*
X253516002Y-364285998D01*
X253516002Y-363430399D01*
X255314002Y-363430399D01*
D12*
%TO.P,M9,1,1*%
X254915001Y-364259998D03*
D13*
%TO.P,M9,2,2*%
X253915003Y-364259998D03*
%TO.P,M9,3,3*%
X254415002Y-365609998D03*
%TD*%
D10*
%TO.C,8.2V1*%
%TO.CFtp,TestPoint_Keystone_5005-5009_Compact*%
%TO.CVal,5005*%
%TO.CLbN,TestPoint*%
%TO.CMnt,TH*%
%TO.CRot,0*%
X343902501Y-309244999D03*
D11*
X344045005Y-307252547D02*
X344327111Y-307293107D01*
X344600569Y-307373402D01*
X344859821Y-307491798D01*
X345099581Y-307645883D01*
X345314976Y-307832523D01*
X345501616Y-308047918D01*
X345655701Y-308287678D01*
X345774097Y-308546930D01*
X345854392Y-308820388D01*
X345894959Y-309102541D01*
X345897500Y-309244999D01*
X345894959Y-309387456D01*
X345854392Y-309669609D01*
X345774097Y-309943067D01*
X345655701Y-310202319D01*
X345501616Y-310442079D01*
X345314976Y-310657474D01*
X345099581Y-310844114D01*
X344859821Y-310998199D01*
X344600569Y-311116595D01*
X344327111Y-311196890D01*
X344045005Y-311237451D01*
X343759997Y-311237451D01*
X343477890Y-311196890D01*
X343204432Y-311116595D01*
X342945180Y-310998199D01*
X342705420Y-310844114D01*
X342490025Y-310657474D01*
X342303385Y-310442079D01*
X342149300Y-310202319D01*
X342030904Y-309943067D01*
X341950609Y-309669609D01*
X341910049Y-309387502D01*
X341910049Y-309102495D01*
X341950609Y-308820388D01*
X342030904Y-308546930D01*
X342149300Y-308287678D01*
X342303385Y-308047918D01*
X342490025Y-307832523D01*
X342705420Y-307645883D01*
X342945180Y-307491798D01*
X343204432Y-307373402D01*
X343477890Y-307293107D01*
X343759997Y-307252547D01*
X344045005Y-307252547D01*
D12*
%TO.P,8.2V1,1,1*%
X343902501Y-309244999D03*
%TD*%
D10*
%TO.C,5V2*%
%TO.CFtp,TestPoint_Keystone_5005-5009_Compact*%
%TO.CVal,5007*%
%TO.CLbN,TestPoint*%
%TO.CMnt,TH*%
%TO.CRot,0*%
X291235001Y-176584999D03*
D11*
X291377505Y-174592547D02*
X291659611Y-174633107D01*
X291933069Y-174713402D01*
X292192321Y-174831798D01*
X292432081Y-174985883D01*
X292647476Y-175172523D01*
X292834116Y-175387918D01*
X292988201Y-175627678D01*
X293106597Y-175886930D01*
X293186892Y-176160388D01*
X293227459Y-176442541D01*
X293230000Y-176584999D01*
X293227459Y-176727456D01*
X293186892Y-177009609D01*
X293106597Y-177283067D01*
X292988201Y-177542319D01*
X292834116Y-177782079D01*
X292647476Y-177997474D01*
X292432081Y-178184114D01*
X292192321Y-178338199D01*
X291933069Y-178456595D01*
X291659611Y-178536890D01*
X291377505Y-178577451D01*
X291092497Y-178577451D01*
X290810390Y-178536890D01*
X290536932Y-178456595D01*
X290277680Y-178338199D01*
X290037920Y-178184114D01*
X289822525Y-177997474D01*
X289635885Y-177782079D01*
X289481800Y-177542319D01*
X289363404Y-177283067D01*
X289283109Y-177009609D01*
X289242549Y-176727502D01*
X289242549Y-176442495D01*
X289283109Y-176160388D01*
X289363404Y-175886930D01*
X289481800Y-175627678D01*
X289635885Y-175387918D01*
X289822525Y-175172523D01*
X290037920Y-174985883D01*
X290277680Y-174831798D01*
X290536932Y-174713402D01*
X290810390Y-174633107D01*
X291092497Y-174592547D01*
X291377505Y-174592547D01*
D12*
%TO.P,5V2,1,1*%
X291235001Y-176584999D03*
%TD*%
D10*
%TO.C,C79*%
%TO.CFtp,C_0603_1608Metric*%
%TO.CVal,1uF*%
%TO.CLbN,Capacitor_SMD*%
%TO.CMnt,SMD*%
%TO.CRot,-90*%
X352747501Y-348575000D03*
D11*
X353472501Y-347100000D02*
X353472501Y-350050000D01*
X352022501Y-350050000D01*
X352022501Y-347100000D01*
X353472501Y-347100000D01*
D12*
%TO.P,C79,1*%
X352747501Y-347800000D03*
D13*
%TO.P,C79,2*%
X352747501Y-349350000D03*
%TD*%
D10*
%TO.C,U3*%
%TO.CFtp,PRC60-24-S12*%
%TO.CVal,PRC60-24-S12*%
%TO.CLbN,CUI*%
%TO.CMnt,TH*%
%TO.CRot,0*%
X289157501Y-322704999D03*
D11*
X314802501Y-309759999D02*
X314802501Y-335649999D01*
X263512501Y-335649999D01*
X263512501Y-309759999D01*
X314802501Y-309759999D01*
D12*
%TO.P,U3,1,+VIN*%
X266297501Y-330324999D03*
D13*
%TO.P,U3,2,-VIN*%
X266297501Y-325244999D03*
%TO.P,U3,3,CTRL*%
X266297501Y-315084999D03*
%TO.P,U3,4,+VOUT*%
X312017501Y-332864999D03*
%TO.P,U3,5,-VOUT*%
X312017501Y-322704999D03*
%TO.P,U3,6,TRIM*%
X312017501Y-312544999D03*
%TD*%
D10*
%TO.C,R81*%
%TO.CFtp,R_0402_1005Metric*%
%TO.CVal,(DNI)*%
%TO.CLbN,Resistor_SMD*%
%TO.CMnt,SMD*%
%TO.CRot,90*%
X369415850Y-248419999D03*
D11*
X369880850Y-247494999D02*
X369880850Y-249344999D01*
X368950850Y-249344999D01*
X368950850Y-247494999D01*
X369880850Y-247494999D01*
D12*
%TO.P,R81,1*%
X369415850Y-248929999D03*
D13*
%TO.P,R81,2*%
X369415850Y-247909999D03*
%TD*%
D10*
%TO.C,M5*%
%TO.CFtp,ES6_TOS*%
%TO.CVal,SSM6N35FE\u002CLM*%
%TO.CLbN,Toshiba_Semi*%
%TO.CMnt,SMD*%
%TO.CRot,0*%
X249623001Y-348622000D03*
D11*
X250468901Y-347572900D02*
X250468901Y-347738000D01*
X250951501Y-347738000D01*
X250951501Y-349506000D01*
X250468901Y-349506000D01*
X250468901Y-349671100D01*
X248777101Y-349671100D01*
X248777101Y-349506000D01*
X248294501Y-349506000D01*
X248294501Y-347738000D01*
X248777101Y-347738000D01*
X248777101Y-347572900D01*
X250468901Y-347572900D01*
D12*
%TO.P,M5,1,1S*%
X248861001Y-348114000D03*
D13*
%TO.P,M5,2,1G*%
X248861001Y-348622000D03*
%TO.P,M5,3,2D*%
X248861001Y-349130000D03*
%TO.P,M5,4,2S*%
X250385001Y-349130000D03*
%TO.P,M5,5,2G*%
X250385001Y-348622000D03*
%TO.P,M5,6,1D*%
X250385001Y-348114000D03*
%TD*%
D10*
%TO.C,J7*%
%TO.CFtp,618015231121*%
%TO.CVal,618015231121*%
%TO.CLbN,Wurth_Elektronik*%
%TO.CMnt,TH*%
%TO.CRot,-90*%
X188185001Y-219645000D03*
D11*
X197680001Y-199750000D02*
X197680001Y-239540000D01*
X184770001Y-239540000D01*
X184770001Y-199750000D01*
X197680001Y-199750000D01*
D12*
%TO.P,J7,1*%
X195905001Y-229340000D03*
D13*
%TO.P,J7,2*%
X195905001Y-226570000D03*
%TO.P,J7,3*%
X195905001Y-223800000D03*
%TO.P,J7,4*%
X195905001Y-221030000D03*
%TO.P,J7,5*%
X195905001Y-218260000D03*
%TO.P,J7,6*%
X195905001Y-215490000D03*
%TO.P,J7,7*%
X195905001Y-212720000D03*
%TO.P,J7,8*%
X195905001Y-209950000D03*
%TO.P,J7,9*%
X193065001Y-227955000D03*
%TO.P,J7,10*%
X193065001Y-225185000D03*
%TO.P,J7,11*%
X193065001Y-222415000D03*
%TO.P,J7,12*%
X193065001Y-219645000D03*
%TO.P,J7,13*%
X193065001Y-216875000D03*
%TO.P,J7,14*%
X193065001Y-214105000D03*
%TO.P,J7,15*%
X193065001Y-211335000D03*
%TO.P,J7,S1*%
X194485001Y-202995000D03*
%TO.P,J7,S2*%
X194485001Y-236295000D03*
%TD*%
D10*
%TO.C,R76*%
%TO.CFtp,R_0402_1005Metric*%
%TO.CVal,10k*%
%TO.CLbN,Resistor_SMD*%
%TO.CMnt,SMD*%
%TO.CRot,90*%
X358005850Y-241979999D03*
D11*
X358470850Y-241054999D02*
X358470850Y-242904999D01*
X357540850Y-242904999D01*
X357540850Y-241054999D01*
X358470850Y-241054999D01*
D12*
%TO.P,R76,1*%
X358005850Y-242489999D03*
D13*
%TO.P,R76,2*%
X358005850Y-241469999D03*
%TD*%
D10*
%TO.C,R68*%
%TO.CFtp,R_0603_1608Metric*%
%TO.CVal,24.9*%
%TO.CLbN,Resistor_SMD*%
%TO.CMnt,SMD*%
%TO.CRot,-90*%
X299080000Y-186830000D03*
D11*
X299805000Y-185355000D02*
X299805000Y-188305000D01*
X298355000Y-188305000D01*
X298355000Y-185355000D01*
X299805000Y-185355000D01*
D12*
%TO.P,R68,1*%
X299080000Y-186005000D03*
D13*
%TO.P,R68,2*%
X299080000Y-187655000D03*
%TD*%
D10*
%TO.C,C58*%
%TO.CFtp,CP_EIA-3216-12_Kemet-S*%
%TO.CVal,10uF*%
%TO.CLbN,Capacitor_Tantalum_SMD*%
%TO.CMnt,SMD*%
%TO.CRot,90*%
X291065001Y-375620000D03*
D11*
X292110001Y-373315000D02*
X292110001Y-377925000D01*
X290020001Y-377925000D01*
X290020001Y-373315000D01*
X292110001Y-373315000D01*
D12*
%TO.P,C58,1*%
X291065001Y-376972500D03*
D13*
%TO.P,C58,2*%
X291065001Y-374267500D03*
%TD*%
D10*
%TO.C,R110*%
%TO.CFtp,R_0603_1608Metric*%
%TO.CVal,24.9*%
%TO.CLbN,Resistor_SMD*%
%TO.CMnt,SMD*%
%TO.CRot,0*%
X234783200Y-218975000D03*
D11*
X236258200Y-218250000D02*
X236258200Y-219700000D01*
X233308200Y-219700000D01*
X233308200Y-218250000D01*
X236258200Y-218250000D01*
D12*
%TO.P,R110,1*%
X233958200Y-218975000D03*
D13*
%TO.P,R110,2*%
X235608200Y-218975000D03*
%TD*%
D10*
%TO.C,CHASSIS1*%
%TO.CFtp,KEYSTONE_5019*%
%TO.CVal,5019*%
%TO.CLbN,Keystone*%
%TO.CMnt,SMD*%
%TO.CRot,0*%
X303530000Y-245680000D03*
D11*
X305680000Y-244420000D02*
X305680000Y-246940000D01*
X301380000Y-246940000D01*
X301380000Y-244420000D01*
X305680000Y-244420000D01*
D13*
%TO.P,CHASSIS1,TP*%
X303530000Y-245680000D03*
%TD*%
D10*
%TO.C,C90*%
%TO.CFtp,C_0402_1005Metric*%
%TO.CVal,1uF*%
%TO.CLbN,Capacitor_SMD*%
%TO.CMnt,SMD*%
%TO.CRot,-90*%
X368225850Y-248389999D03*
D11*
X368680850Y-247484999D02*
X368680850Y-249294999D01*
X367770850Y-249294999D01*
X367770850Y-247484999D01*
X368680850Y-247484999D01*
D12*
%TO.P,C90,1*%
X368225850Y-247909999D03*
D13*
%TO.P,C90,2*%
X368225850Y-248869999D03*
%TD*%
D10*
%TO.C,R60*%
%TO.CFtp,R_0603_1608Metric*%
%TO.CVal,24.9*%
%TO.CLbN,Resistor_SMD*%
%TO.CMnt,SMD*%
%TO.CRot,0*%
X320435001Y-344965000D03*
D11*
X321910001Y-344240000D02*
X321910001Y-345690000D01*
X318960001Y-345690000D01*
X318960001Y-344240000D01*
X321910001Y-344240000D01*
D12*
%TO.P,R60,1*%
X319610001Y-344965000D03*
D13*
%TO.P,R60,2*%
X321260001Y-344965000D03*
%TD*%
D10*
%TO.C,C73*%
%TO.CFtp,C_0603_1608Metric*%
%TO.CVal,1uF*%
%TO.CLbN,Capacitor_SMD*%
%TO.CMnt,SMD*%
%TO.CRot,-90*%
X333655001Y-123525000D03*
D11*
X334380001Y-122050000D02*
X334380001Y-125000000D01*
X332930001Y-125000000D01*
X332930001Y-122050000D01*
X334380001Y-122050000D01*
D12*
%TO.P,C73,1*%
X333655001Y-122750000D03*
D13*
%TO.P,C73,2*%
X333655001Y-124300000D03*
%TD*%
D10*
%TO.C,R64*%
%TO.CFtp,Y14870R01000B9R_10mOhm*%
%TO.CVal,Y14870R01000B9R*%
%TO.CLbN,Foil_Resistors*%
%TO.CMnt,SMD*%
%TO.CRot,0*%
X358087501Y-339165000D03*
D11*
X362012501Y-337080000D02*
X362012501Y-341250000D01*
X354162501Y-341250000D01*
X354162501Y-337080000D01*
X362012501Y-337080000D01*
D13*
%TO.P,R64,E1*%
X355102501Y-340435000D03*
%TO.P,R64,E2*%
X361072501Y-337895000D03*
%TO.P,R64,I1*%
X355232501Y-338330000D03*
%TO.P,R64,I2*%
X360942501Y-340000000D03*
%TD*%
D10*
%TO.C,C65*%
%TO.CFtp,CP_EIA-7360-38_Kemet-E*%
%TO.CVal,100uF*%
%TO.CLbN,Capacitor_Tantalum_SMD*%
%TO.CMnt,SMD*%
%TO.CRot,180*%
X215512501Y-374040000D03*
D11*
X219917501Y-370795000D02*
X219917501Y-377285000D01*
X211107501Y-377285000D01*
X211107501Y-370795000D01*
X219917501Y-370795000D01*
D12*
%TO.P,C65,1*%
X218632501Y-374040000D03*
D13*
%TO.P,C65,2*%
X212392501Y-374040000D03*
%TD*%
D10*
%TO.C,SEC_RTN1*%
%TO.CFtp,TestPoint_Keystone_5005-5009_Compact*%
%TO.CVal,5006*%
%TO.CLbN,TestPoint*%
%TO.CMnt,TH*%
%TO.CRot,0*%
X206725001Y-45335000D03*
D11*
X206867505Y-43342548D02*
X207149611Y-43383108D01*
X207423069Y-43463403D01*
X207682321Y-43581799D01*
X207922081Y-43735884D01*
X208137476Y-43922524D01*
X208324116Y-44137919D01*
X208478201Y-44377679D01*
X208596597Y-44636931D01*
X208676892Y-44910389D01*
X208717459Y-45192542D01*
X208720000Y-45335000D01*
X208717459Y-45477457D01*
X208676892Y-45759610D01*
X208596597Y-46033068D01*
X208478201Y-46292320D01*
X208324116Y-46532080D01*
X208137476Y-46747475D01*
X207922081Y-46934115D01*
X207682321Y-47088200D01*
X207423069Y-47206596D01*
X207149611Y-47286891D01*
X206867505Y-47327452D01*
X206582497Y-47327452D01*
X206300390Y-47286891D01*
X206026932Y-47206596D01*
X205767680Y-47088200D01*
X205527920Y-46934115D01*
X205312525Y-46747475D01*
X205125885Y-46532080D01*
X204971800Y-46292320D01*
X204853404Y-46033068D01*
X204773109Y-45759610D01*
X204732549Y-45477503D01*
X204732549Y-45192496D01*
X204773109Y-44910389D01*
X204853404Y-44636931D01*
X204971800Y-44377679D01*
X205125885Y-44137919D01*
X205312525Y-43922524D01*
X205527920Y-43735884D01*
X205767680Y-43581799D01*
X206026932Y-43463403D01*
X206300390Y-43383108D01*
X206582497Y-43342548D01*
X206867505Y-43342548D01*
D12*
%TO.P,SEC_RTN1,1,1*%
X206725001Y-45335000D03*
%TD*%
D10*
%TO.C,R13*%
%TO.CFtp,R_0603_1608Metric*%
%TO.CVal,15k*%
%TO.CLbN,Resistor_SMD*%
%TO.CMnt,SMD*%
%TO.CRot,180*%
X259455001Y-123445000D03*
D11*
X260930001Y-122720000D02*
X260930001Y-124170000D01*
X257980001Y-124170000D01*
X257980001Y-122720000D01*
X260930001Y-122720000D01*
D12*
%TO.P,R13,1*%
X260280001Y-123445000D03*
D13*
%TO.P,R13,2*%
X258630001Y-123445000D03*
%TD*%
D10*
%TO.C,R85*%
%TO.CFtp,R_0603_1608Metric*%
%TO.CVal,24.9*%
%TO.CLbN,Resistor_SMD*%
%TO.CMnt,SMD*%
%TO.CRot,0*%
X366105850Y-250859999D03*
D11*
X367580850Y-250134999D02*
X367580850Y-251584999D01*
X364630850Y-251584999D01*
X364630850Y-250134999D01*
X367580850Y-250134999D01*
D12*
%TO.P,R85,1*%
X365280850Y-250859999D03*
D13*
%TO.P,R85,2*%
X366930850Y-250859999D03*
%TD*%
D10*
%TO.C,R51*%
%TO.CFtp,R_0805_2012Metric*%
%TO.CVal,9k*%
%TO.CLbN,Resistor_SMD*%
%TO.CMnt,SMD*%
%TO.CRot,-90*%
X367910000Y-279669999D03*
D11*
X368855000Y-277994999D02*
X368855000Y-281344999D01*
X366965000Y-281344999D01*
X366965000Y-277994999D01*
X368855000Y-277994999D01*
D12*
%TO.P,R51,1*%
X367910000Y-278757499D03*
D13*
%TO.P,R51,2*%
X367910000Y-280582499D03*
%TD*%
D10*
%TO.C,R10*%
%TO.CFtp,R_0603_1608Metric*%
%TO.CVal,10*%
%TO.CLbN,Resistor_SMD*%
%TO.CMnt,SMD*%
%TO.CRot,135*%
X214225001Y-113175000D03*
D11*
X215780635Y-113705330D02*
X214755331Y-114730634D01*
X212669367Y-112644670D01*
X213694671Y-111619366D01*
X215780635Y-113705330D01*
D12*
%TO.P,R10,1*%
X214808364Y-113758363D03*
D13*
%TO.P,R10,2*%
X213641638Y-112591637D03*
%TD*%
D10*
%TO.C,SEC_RTN2*%
%TO.CFtp,TestPoint_Keystone_5005-5009_Compact*%
%TO.CVal,5005*%
%TO.CLbN,TestPoint*%
%TO.CMnt,TH*%
%TO.CRot,0*%
X216715001Y-122055000D03*
D11*
X216857505Y-120062548D02*
X217139611Y-120103108D01*
X217413069Y-120183403D01*
X217672321Y-120301799D01*
X217912081Y-120455884D01*
X218127476Y-120642524D01*
X218314116Y-120857919D01*
X218468201Y-121097679D01*
X218586597Y-121356931D01*
X218666892Y-121630389D01*
X218707459Y-121912542D01*
X218710000Y-122055000D01*
X218707459Y-122197457D01*
X218666892Y-122479610D01*
X218586597Y-122753068D01*
X218468201Y-123012320D01*
X218314116Y-123252080D01*
X218127476Y-123467475D01*
X217912081Y-123654115D01*
X217672321Y-123808200D01*
X217413069Y-123926596D01*
X217139611Y-124006891D01*
X216857505Y-124047452D01*
X216572497Y-124047452D01*
X216290390Y-124006891D01*
X216016932Y-123926596D01*
X215757680Y-123808200D01*
X215517920Y-123654115D01*
X215302525Y-123467475D01*
X215115885Y-123252080D01*
X214961800Y-123012320D01*
X214843404Y-122753068D01*
X214763109Y-122479610D01*
X214722549Y-122197503D01*
X214722549Y-121912496D01*
X214763109Y-121630389D01*
X214843404Y-121356931D01*
X214961800Y-121097679D01*
X215115885Y-120857919D01*
X215302525Y-120642524D01*
X215517920Y-120455884D01*
X215757680Y-120301799D01*
X216016932Y-120183403D01*
X216290390Y-120103108D01*
X216572497Y-120062548D01*
X216857505Y-120062548D01*
D12*
%TO.P,SEC_RTN2,1,1*%
X216715001Y-122055000D03*
%TD*%
D10*
%TO.C,R45*%
%TO.CFtp,R_0603_1608Metric*%
%TO.CVal,120*%
%TO.CLbN,Resistor_SMD*%
%TO.CMnt,SMD*%
%TO.CRot,0*%
X242371001Y-352570000D03*
D11*
X243846001Y-351845000D02*
X243846001Y-353295000D01*
X240896001Y-353295000D01*
X240896001Y-351845000D01*
X243846001Y-351845000D01*
D12*
%TO.P,R45,1*%
X241546001Y-352570000D03*
D13*
%TO.P,R45,2*%
X243196001Y-352570000D03*
%TD*%
D10*
%TO.C,C47*%
%TO.CFtp,CP_EIA-7360-38_Kemet-E*%
%TO.CVal,100uF*%
%TO.CLbN,Capacitor_Tantalum_SMD*%
%TO.CMnt,SMD*%
%TO.CRot,90*%
X250915001Y-167512501D03*
D11*
X254160001Y-163107501D02*
X254160001Y-171917501D01*
X247670001Y-171917501D01*
X247670001Y-163107501D01*
X254160001Y-163107501D01*
D12*
%TO.P,C47,1*%
X250915001Y-170632501D03*
D13*
%TO.P,C47,2*%
X250915001Y-164392501D03*
%TD*%
D10*
%TO.C,R44*%
%TO.CFtp,R_0603_1608Metric*%
%TO.CVal,15k*%
%TO.CLbN,Resistor_SMD*%
%TO.CMnt,SMD*%
%TO.CRot,90*%
X257005001Y-367080000D03*
D11*
X257730001Y-365605000D02*
X257730001Y-368555000D01*
X256280001Y-368555000D01*
X256280001Y-365605000D01*
X257730001Y-365605000D01*
D12*
%TO.P,R44,1*%
X257005001Y-367905000D03*
D13*
%TO.P,R44,2*%
X257005001Y-366255000D03*
%TD*%
D10*
%TO.C,C70*%
%TO.CFtp,C_0402_1005Metric*%
%TO.CVal,0.1uF*%
%TO.CLbN,Capacitor_SMD*%
%TO.CMnt,SMD*%
%TO.CRot,0*%
X338825001Y-59985000D03*
D11*
X339730001Y-59530000D02*
X339730001Y-60440000D01*
X337920001Y-60440000D01*
X337920001Y-59530000D01*
X339730001Y-59530000D01*
D12*
%TO.P,C70,1*%
X338345001Y-59985000D03*
D13*
%TO.P,C70,2*%
X339305001Y-59985000D03*
%TD*%
D10*
%TO.C,R103*%
%TO.CFtp,R_0603_1608Metric*%
%TO.CVal,24.9*%
%TO.CLbN,Resistor_SMD*%
%TO.CMnt,SMD*%
%TO.CRot,0*%
X366180000Y-259399999D03*
D11*
X367655000Y-258674999D02*
X367655000Y-260124999D01*
X364705000Y-260124999D01*
X364705000Y-258674999D01*
X367655000Y-258674999D01*
D12*
%TO.P,R103,1*%
X365355000Y-259399999D03*
D13*
%TO.P,R103,2*%
X367005000Y-259399999D03*
%TD*%
D10*
%TO.C,C57*%
%TO.CFtp,CP_EIA-7360-38_Kemet-E*%
%TO.CVal,100uF*%
%TO.CLbN,Capacitor_Tantalum_SMD*%
%TO.CMnt,SMD*%
%TO.CRot,90*%
X254925001Y-375447500D03*
D11*
X258170001Y-371042500D02*
X258170001Y-379852500D01*
X251680001Y-379852500D01*
X251680001Y-371042500D01*
X258170001Y-371042500D01*
D12*
%TO.P,C57,1*%
X254925001Y-378567500D03*
D13*
%TO.P,C57,2*%
X254925001Y-372327500D03*
%TD*%
D10*
%TO.C,C135*%
%TO.CFtp,C_1206_3216Metric*%
%TO.CVal,0.1uF*%
%TO.CLbN,Capacitor_SMD*%
%TO.CMnt,SMD*%
%TO.CRot,90*%
X344060000Y-377360000D03*
D11*
X345205000Y-375065000D02*
X345205000Y-379655000D01*
X342915000Y-379655000D01*
X342915000Y-375065000D01*
X345205000Y-375065000D01*
D12*
%TO.P,C135,1*%
X344060000Y-378835000D03*
D13*
%TO.P,C135,2*%
X344060000Y-375885000D03*
%TD*%
D10*
%TO.C,C11*%
%TO.CFtp,CP_EIA-3216-12_Kemet-S*%
%TO.CVal,10uF*%
%TO.CLbN,Capacitor_Tantalum_SMD*%
%TO.CMnt,SMD*%
%TO.CRot,180*%
X210945001Y-52735000D03*
D11*
X213250001Y-51690000D02*
X213250001Y-53780000D01*
X208640001Y-53780000D01*
X208640001Y-51690000D01*
X213250001Y-51690000D01*
D12*
%TO.P,C11,1*%
X212297501Y-52735000D03*
D13*
%TO.P,C11,2*%
X209592501Y-52735000D03*
%TD*%
D10*
%TO.C,L6*%
%TO.CFtp,MLC1260*%
%TO.CVal,0.8uH (+/- 20\u0025)*%
%TO.CLbN,CoilCraft*%
%TO.CMnt,SMD*%
%TO.CRot,-90*%
X239325001Y-101065000D03*
D14*
X251325001Y-104965000D02*
X239325001Y-104965000D01*
X239325001Y-107665000D01*
X251325001Y-107665000D01*
X251325001Y-104965000D01*
D12*
%TO.P,L6,1,1*%
X241325001Y-106315000D03*
D13*
%TO.P,L6,2,2*%
X249325001Y-106315000D03*
%TD*%
D10*
%TO.C,C67*%
%TO.CFtp,CP_EIA-3216-10_Kemet-I*%
%TO.CVal,2.2uF*%
%TO.CLbN,Capacitor_Tantalum_SMD*%
%TO.CMnt,SMD*%
%TO.CRot,180*%
X331160000Y-253153750D03*
D11*
X333465000Y-252108750D02*
X333465000Y-254198750D01*
X328855000Y-254198750D01*
X328855000Y-252108750D01*
X333465000Y-252108750D01*
D12*
%TO.P,C67,1*%
X332512500Y-253153750D03*
D13*
%TO.P,C67,2*%
X329807500Y-253153750D03*
%TD*%
D10*
%TO.C,C131*%
%TO.CFtp,C_1206_3216Metric*%
%TO.CVal,0.1uF*%
%TO.CLbN,Capacitor_SMD*%
%TO.CMnt,SMD*%
%TO.CRot,90*%
X340920000Y-45860000D03*
D11*
X342065000Y-43565000D02*
X342065000Y-48155000D01*
X339775000Y-48155000D01*
X339775000Y-43565000D01*
X342065000Y-43565000D01*
D12*
%TO.P,C131,1*%
X340920000Y-47335000D03*
D13*
%TO.P,C131,2*%
X340920000Y-44385000D03*
%TD*%
D10*
%TO.C,C103*%
%TO.CFtp,C_0603_1608Metric*%
%TO.CVal,1uF*%
%TO.CLbN,Capacitor_SMD*%
%TO.CMnt,SMD*%
%TO.CRot,0*%
X366220000Y-257719999D03*
D11*
X367695000Y-256994999D02*
X367695000Y-258444999D01*
X364745000Y-258444999D01*
X364745000Y-256994999D01*
X367695000Y-256994999D01*
D12*
%TO.P,C103,1*%
X365445000Y-257719999D03*
D13*
%TO.P,C103,2*%
X366995000Y-257719999D03*
%TD*%
D10*
%TO.C,M3*%
%TO.CFtp,ES6_TOS*%
%TO.CVal,SSM6N35FE\u002CLM*%
%TO.CLbN,Toshiba_Semi*%
%TO.CMnt,SMD*%
%TO.CRot,0*%
X253535001Y-295454999D03*
D11*
X254380901Y-294405899D02*
X254380901Y-294570999D01*
X254863501Y-294570999D01*
X254863501Y-296338999D01*
X254380901Y-296338999D01*
X254380901Y-296504099D01*
X252689101Y-296504099D01*
X252689101Y-296338999D01*
X252206501Y-296338999D01*
X252206501Y-294570999D01*
X252689101Y-294570999D01*
X252689101Y-294405899D01*
X254380901Y-294405899D01*
D12*
%TO.P,M3,1,1S*%
X252773001Y-294946999D03*
D13*
%TO.P,M3,2,1G*%
X252773001Y-295454999D03*
%TO.P,M3,3,2D*%
X252773001Y-295962999D03*
%TO.P,M3,4,2S*%
X254297001Y-295962999D03*
%TO.P,M3,5,2G*%
X254297001Y-295454999D03*
%TO.P,M3,6,1D*%
X254297001Y-294946999D03*
%TD*%
D10*
%TO.C,R113*%
%TO.CFtp,R_1206_3216Metric*%
%TO.CVal,1k*%
%TO.CLbN,Resistor_SMD*%
%TO.CMnt,SMD*%
%TO.CRot,-90*%
X311680000Y-233480000D03*
D11*
X312805000Y-231205000D02*
X312805000Y-235755000D01*
X310555000Y-235755000D01*
X310555000Y-231205000D01*
X312805000Y-231205000D01*
D12*
%TO.P,R113,1*%
X311680000Y-232017500D03*
D13*
%TO.P,R113,2*%
X311680000Y-234942500D03*
%TD*%
D10*
%TO.C,R25*%
%TO.CFtp,R_0603_1608Metric*%
%TO.CVal,4.99k*%
%TO.CLbN,Resistor_SMD*%
%TO.CMnt,SMD*%
%TO.CRot,180*%
X258445001Y-309394999D03*
D11*
X259920001Y-308669999D02*
X259920001Y-310119999D01*
X256970001Y-310119999D01*
X256970001Y-308669999D01*
X259920001Y-308669999D01*
D12*
%TO.P,R25,1*%
X259270001Y-309394999D03*
D13*
%TO.P,R25,2*%
X257620001Y-309394999D03*
%TD*%
D10*
%TO.C,C78*%
%TO.CFtp,C_0402_1005Metric*%
%TO.CVal,0.1uF*%
%TO.CLbN,Capacitor_SMD*%
%TO.CMnt,SMD*%
%TO.CRot,0*%
X358027501Y-344895000D03*
D11*
X358932501Y-344440000D02*
X358932501Y-345350000D01*
X357122501Y-345350000D01*
X357122501Y-344440000D01*
X358932501Y-344440000D01*
D12*
%TO.P,C78,1*%
X357547501Y-344895000D03*
D13*
%TO.P,C78,2*%
X358507501Y-344895000D03*
%TD*%
D10*
%TO.C,C17*%
%TO.CFtp,CP_EIA-3216-12_Kemet-S*%
%TO.CVal,10uF*%
%TO.CLbN,Capacitor_Tantalum_SMD*%
%TO.CMnt,SMD*%
%TO.CRot,90*%
X315565001Y-111935000D03*
D11*
X316610001Y-109630000D02*
X316610001Y-114240000D01*
X314520001Y-114240000D01*
X314520001Y-109630000D01*
X316610001Y-109630000D01*
D12*
%TO.P,C17,1*%
X315565001Y-113287500D03*
D13*
%TO.P,C17,2*%
X315565001Y-110582500D03*
%TD*%
D10*
%TO.C,R107*%
%TO.CFtp,R_0603_1608Metric*%
%TO.CVal,24.9*%
%TO.CLbN,Resistor_SMD*%
%TO.CMnt,SMD*%
%TO.CRot,0*%
X235033200Y-207555000D03*
D11*
X236508200Y-206830000D02*
X236508200Y-208280000D01*
X233558200Y-208280000D01*
X233558200Y-206830000D01*
X236508200Y-206830000D01*
D12*
%TO.P,R107,1*%
X234208200Y-207555000D03*
D13*
%TO.P,R107,2*%
X235858200Y-207555000D03*
%TD*%
D10*
%TO.C,R20*%
%TO.CFtp,R_0603_1608Metric*%
%TO.CVal,(DNP)*%
%TO.CLbN,Resistor_SMD*%
%TO.CMnt,SMD*%
%TO.CRot,90*%
X315885001Y-316864999D03*
D11*
X316610001Y-315389999D02*
X316610001Y-318339999D01*
X315160001Y-318339999D01*
X315160001Y-315389999D01*
X316610001Y-315389999D01*
D12*
%TO.P,R20,1*%
X315885001Y-317689999D03*
D13*
%TO.P,R20,2*%
X315885001Y-316039999D03*
%TD*%
D10*
%TO.C,R31*%
%TO.CFtp,R_0603_1608Metric*%
%TO.CVal,820k*%
%TO.CLbN,Resistor_SMD*%
%TO.CMnt,SMD*%
%TO.CRot,-90*%
X342702501Y-303364999D03*
D11*
X343427501Y-301889999D02*
X343427501Y-304839999D01*
X341977501Y-304839999D01*
X341977501Y-301889999D01*
X343427501Y-301889999D01*
D12*
%TO.P,R31,1*%
X342702501Y-302539999D03*
D13*
%TO.P,R31,2*%
X342702501Y-304189999D03*
%TD*%
D10*
%TO.C,J12*%
%TO.CFtp,61300311121*%
%TO.CVal,61300311121*%
%TO.CLbN,Wurth_Elektronik*%
%TO.CMnt,TH*%
%TO.CRot,90*%
X231063200Y-221525000D03*
D11*
X232628200Y-217420000D02*
X232628200Y-225630000D01*
X229498200Y-225630000D01*
X229498200Y-217420000D01*
X232628200Y-217420000D01*
D12*
%TO.P,J12,1*%
X231063200Y-224065000D03*
D13*
%TO.P,J12,2*%
X231063200Y-221525000D03*
%TO.P,J12,3*%
X231063200Y-218985000D03*
%TD*%
D10*
%TO.C,R50*%
%TO.CFtp,R_0603_1608Metric*%
%TO.CVal,330k*%
%TO.CLbN,Resistor_SMD*%
%TO.CMnt,SMD*%
%TO.CRot,90*%
X324990000Y-246473750D03*
D11*
X325715000Y-244998750D02*
X325715000Y-247948750D01*
X324265000Y-247948750D01*
X324265000Y-244998750D01*
X325715000Y-244998750D01*
D12*
%TO.P,R50,1*%
X324990000Y-247298750D03*
D13*
%TO.P,R50,2*%
X324990000Y-245648750D03*
%TD*%
D10*
%TO.C,U23*%
%TO.CFtp,CONV_PDQ30-Q24-S5-D*%
%TO.CVal,PDQ30-Q24-S5-D*%
%TO.CLbN,CUI*%
%TO.CMnt,TH*%
%TO.CRot,90*%
X258655001Y-270489999D03*
D11*
X271600001Y-257544999D02*
X271600001Y-283434999D01*
X245710001Y-283434999D01*
X245710001Y-257544999D01*
X271600001Y-257544999D01*
D12*
%TO.P,U23,1,+VIN*%
X248505001Y-272989999D03*
D13*
%TO.P,U23,2,-VIN*%
X248505001Y-267889999D03*
%TO.P,U23,3,+VOUT*%
X268805001Y-280689999D03*
%TO.P,U23,4,TRIM*%
X268805001Y-270489999D03*
%TO.P,U23,5,-VOUT*%
X268805001Y-260289999D03*
%TO.P,U23,6,REMOTE*%
X248505001Y-260289999D03*
%TD*%
D10*
%TO.C,R22*%
%TO.CFtp,R_0603_1608Metric*%
%TO.CVal,15k*%
%TO.CLbN,Resistor_SMD*%
%TO.CMnt,SMD*%
%TO.CRot,90*%
X260925001Y-313964999D03*
D11*
X261650001Y-312489999D02*
X261650001Y-315439999D01*
X260200001Y-315439999D01*
X260200001Y-312489999D01*
X261650001Y-312489999D01*
D12*
%TO.P,R22,1*%
X260925001Y-314789999D03*
D13*
%TO.P,R22,2*%
X260925001Y-313139999D03*
%TD*%
D10*
%TO.C,U2*%
%TO.CFtp,PRC60-24-S12*%
%TO.CVal,PRC60-24-S12*%
%TO.CLbN,CUI*%
%TO.CMnt,TH*%
%TO.CRot,0*%
X284185001Y-107295000D03*
D11*
X309830001Y-94350000D02*
X309830001Y-120240000D01*
X258540001Y-120240000D01*
X258540001Y-94350000D01*
X309830001Y-94350000D01*
D12*
%TO.P,U2,1,+VIN*%
X261325001Y-114915000D03*
D13*
%TO.P,U2,2,-VIN*%
X261325001Y-109835000D03*
%TO.P,U2,3,CTRL*%
X261325001Y-99675000D03*
%TO.P,U2,4,+VOUT*%
X307045001Y-117455000D03*
%TO.P,U2,5,-VOUT*%
X307045001Y-107295000D03*
%TO.P,U2,6,TRIM*%
X307045001Y-97135000D03*
%TD*%
D10*
%TO.C,C133*%
%TO.CFtp,C_1206_3216Metric*%
%TO.CVal,0.1uF*%
%TO.CLbN,Capacitor_SMD*%
%TO.CMnt,SMD*%
%TO.CRot,90*%
X337810000Y-351730000D03*
D11*
X338955000Y-349435000D02*
X338955000Y-354025000D01*
X336665000Y-354025000D01*
X336665000Y-349435000D01*
X338955000Y-349435000D01*
D12*
%TO.P,C133,1*%
X337810000Y-353205000D03*
D13*
%TO.P,C133,2*%
X337810000Y-350255000D03*
%TD*%
D10*
%TO.C,R29*%
%TO.CFtp,R_0603_1608Metric*%
%TO.CVal,330k*%
%TO.CLbN,Resistor_SMD*%
%TO.CMnt,SMD*%
%TO.CRot,-90*%
X342634001Y-336724999D03*
D11*
X343359001Y-335249999D02*
X343359001Y-338199999D01*
X341909001Y-338199999D01*
X341909001Y-335249999D01*
X343359001Y-335249999D01*
D12*
%TO.P,R29,1*%
X342634001Y-335899999D03*
D13*
%TO.P,R29,2*%
X342634001Y-337549999D03*
%TD*%
D10*
%TO.C,L8*%
%TO.CFtp,MSD1583-105*%
%TO.CVal,54.4uH to 81.6uH (CM) 0.79uH Leakage*%
%TO.CLbN,CoilCraft*%
%TO.CMnt,SMD*%
%TO.CRot,90*%
X240665001Y-335084999D03*
D14*
X225265001Y-330384999D02*
X241065001Y-330384999D01*
X241065001Y-324784999D01*
X225265001Y-324784999D01*
X225265001Y-330384999D01*
D12*
%TO.P,L8,1*%
X239465001Y-325734999D03*
D13*
%TO.P,L8,2*%
X239465001Y-329434999D03*
%TO.P,L8,3*%
X226865001Y-329434999D03*
%TO.P,L8,4*%
X226865001Y-325734999D03*
%TD*%
D10*
%TO.C,R101*%
%TO.CFtp,R_0603_1608Metric*%
%TO.CVal,24.9*%
%TO.CLbN,Resistor_SMD*%
%TO.CMnt,SMD*%
%TO.CRot,0*%
X366180000Y-270909999D03*
D11*
X367655000Y-270184999D02*
X367655000Y-271634999D01*
X364705000Y-271634999D01*
X364705000Y-270184999D01*
X367655000Y-270184999D01*
D12*
%TO.P,R101,1*%
X365355000Y-270909999D03*
D13*
%TO.P,R101,2*%
X367005000Y-270909999D03*
%TD*%
D10*
%TO.C,C130*%
%TO.CFtp,C_1206_3216Metric*%
%TO.CVal,0.1uF*%
%TO.CLbN,Capacitor_SMD*%
%TO.CMnt,SMD*%
%TO.CRot,-90*%
X315000000Y-233500000D03*
D11*
X316145000Y-231205000D02*
X316145000Y-235795000D01*
X313855000Y-235795000D01*
X313855000Y-231205000D01*
X316145000Y-231205000D01*
D12*
%TO.P,C130,1*%
X315000000Y-232025000D03*
D13*
%TO.P,C130,2*%
X315000000Y-234975000D03*
%TD*%
D10*
%TO.C,C81*%
%TO.CFtp,C_0603_1608Metric*%
%TO.CVal,1uF*%
%TO.CLbN,Capacitor_SMD*%
%TO.CMnt,SMD*%
%TO.CRot,-90*%
X297310000Y-186830000D03*
D11*
X298035000Y-185355000D02*
X298035000Y-188305000D01*
X296585000Y-188305000D01*
X296585000Y-185355000D01*
X298035000Y-185355000D01*
D12*
%TO.P,C81,1*%
X297310000Y-186055000D03*
D13*
%TO.P,C81,2*%
X297310000Y-187605000D03*
%TD*%
D10*
%TO.C,C55*%
%TO.CFtp,CP_EIA-7360-38_Kemet-E*%
%TO.CVal,100uF*%
%TO.CLbN,Capacitor_Tantalum_SMD*%
%TO.CMnt,SMD*%
%TO.CRot,180*%
X211502501Y-166105001D03*
D11*
X215907501Y-162860001D02*
X215907501Y-169350001D01*
X207097501Y-169350001D01*
X207097501Y-162860001D01*
X215907501Y-162860001D01*
D12*
%TO.P,C55,1*%
X214622501Y-166105001D03*
D13*
%TO.P,C55,2*%
X208382501Y-166105001D03*
%TD*%
D10*
%TO.C,C107*%
%TO.CFtp,C_0402_1005Metric*%
%TO.CVal,0.1uF*%
%TO.CLbN,Capacitor_SMD*%
%TO.CMnt,SMD*%
%TO.CRot,180*%
X205743200Y-215105000D03*
D11*
X206648200Y-214650000D02*
X206648200Y-215560000D01*
X204838200Y-215560000D01*
X204838200Y-214650000D01*
X206648200Y-214650000D01*
D12*
%TO.P,C107,1*%
X206223200Y-215105000D03*
D13*
%TO.P,C107,2*%
X205263200Y-215105000D03*
%TD*%
D10*
%TO.C,R16*%
%TO.CFtp,R_0603_1608Metric*%
%TO.CVal,4.99k*%
%TO.CLbN,Resistor_SMD*%
%TO.CMnt,SMD*%
%TO.CRot,0*%
X263675001Y-125305000D03*
D11*
X265150001Y-124580000D02*
X265150001Y-126030000D01*
X262200001Y-126030000D01*
X262200001Y-124580000D01*
X265150001Y-124580000D01*
D12*
%TO.P,R16,1*%
X262850001Y-125305000D03*
D13*
%TO.P,R16,2*%
X264500001Y-125305000D03*
%TD*%
D10*
%TO.C,R111*%
%TO.CFtp,R_0603_1608Metric*%
%TO.CVal,10*%
%TO.CLbN,Resistor_SMD*%
%TO.CMnt,SMD*%
%TO.CRot,135*%
X219215001Y-273269999D03*
D11*
X220770635Y-273800329D02*
X219745331Y-274825633D01*
X217659367Y-272739669D01*
X218684671Y-271714365D01*
X220770635Y-273800329D01*
D12*
%TO.P,R111,1*%
X219798364Y-273853362D03*
D13*
%TO.P,R111,2*%
X218631638Y-272686636D03*
%TD*%
D10*
%TO.C,C68*%
%TO.CFtp,CP_EIA-7343-15_Kemet-W*%
%TO.CVal,10uF*%
%TO.CLbN,Capacitor_Tantalum_SMD*%
%TO.CMnt,SMD*%
%TO.CRot,180*%
X327067500Y-237683750D03*
D11*
X331472500Y-235288750D02*
X331472500Y-240078750D01*
X322662500Y-240078750D01*
X322662500Y-235288750D01*
X331472500Y-235288750D01*
D12*
%TO.P,C68,1*%
X330187500Y-237683750D03*
D13*
%TO.P,C68,2*%
X323947500Y-237683750D03*
%TD*%
D10*
%TO.C,C72*%
%TO.CFtp,C_0402_1005Metric*%
%TO.CVal,0.1uF*%
%TO.CLbN,Capacitor_SMD*%
%TO.CMnt,SMD*%
%TO.CRot,0*%
X338935001Y-119845000D03*
D11*
X339840001Y-119390000D02*
X339840001Y-120300000D01*
X338030001Y-120300000D01*
X338030001Y-119390000D01*
X339840001Y-119390000D01*
D12*
%TO.P,C72,1*%
X338455001Y-119845000D03*
D13*
%TO.P,C72,2*%
X339415001Y-119845000D03*
%TD*%
D10*
%TO.C,J11*%
%TO.CFtp,61300311121*%
%TO.CVal,61300311121*%
%TO.CLbN,Wurth_Elektronik*%
%TO.CMnt,TH*%
%TO.CRot,90*%
X225063200Y-218495000D03*
D11*
X226628200Y-214390000D02*
X226628200Y-222600000D01*
X223498200Y-222600000D01*
X223498200Y-214390000D01*
X226628200Y-214390000D01*
D12*
%TO.P,J11,1*%
X225063200Y-221035000D03*
D13*
%TO.P,J11,2*%
X225063200Y-218495000D03*
%TO.P,J11,3*%
X225063200Y-215955000D03*
%TD*%
D10*
%TO.C,L11*%
%TO.CFtp,MSD1583-105*%
%TO.CVal,54.4uH to 81.6uH (CM) 0.79uH Leakage*%
%TO.CLbN,CoilCraft*%
%TO.CMnt,SMD*%
%TO.CRot,90*%
X246475001Y-382850000D03*
D14*
X231075001Y-378150000D02*
X246875001Y-378150000D01*
X246875001Y-372550000D01*
X231075001Y-372550000D01*
X231075001Y-378150000D01*
D12*
%TO.P,L11,1*%
X245275001Y-373500000D03*
D13*
%TO.P,L11,2*%
X245275001Y-377200000D03*
%TO.P,L11,3*%
X232675001Y-377200000D03*
%TO.P,L11,4*%
X232675001Y-373500000D03*
%TD*%
D10*
%TO.C,R30*%
%TO.CFtp,R_0603_1608Metric*%
%TO.CVal,499k*%
%TO.CLbN,Resistor_SMD*%
%TO.CMnt,SMD*%
%TO.CRot,-90*%
X342672501Y-319714999D03*
D11*
X343397501Y-318239999D02*
X343397501Y-321189999D01*
X341947501Y-321189999D01*
X341947501Y-318239999D01*
X343397501Y-318239999D01*
D12*
%TO.P,R30,1*%
X342672501Y-318889999D03*
D13*
%TO.P,R30,2*%
X342672501Y-320539999D03*
%TD*%
D10*
%TO.C,R5*%
%TO.CFtp,R_0603_1608Metric*%
%TO.CVal,120*%
%TO.CLbN,Resistor_SMD*%
%TO.CMnt,SMD*%
%TO.CRot,0*%
X248685001Y-80715000D03*
D11*
X250160001Y-79990000D02*
X250160001Y-81440000D01*
X247210001Y-81440000D01*
X247210001Y-79990000D01*
X250160001Y-79990000D01*
D12*
%TO.P,R5,1*%
X247860001Y-80715000D03*
D13*
%TO.P,R5,2*%
X249510001Y-80715000D03*
%TD*%
D10*
%TO.C,R17*%
%TO.CFtp,R_0603_1608Metric*%
%TO.CVal,835*%
%TO.CLbN,Resistor_SMD*%
%TO.CMnt,SMD*%
%TO.CRot,0*%
X243945001Y-134705000D03*
D11*
X245420001Y-133980000D02*
X245420001Y-135430000D01*
X242470001Y-135430000D01*
X242470001Y-133980000D01*
X245420001Y-133980000D01*
D12*
%TO.P,R17,1*%
X243120001Y-134705000D03*
D13*
%TO.P,R17,2*%
X244770001Y-134705000D03*
%TD*%
D10*
%TO.C,R3*%
%TO.CFtp,R_0603_1608Metric*%
%TO.CVal,180*%
%TO.CLbN,Resistor_SMD*%
%TO.CMnt,SMD*%
%TO.CRot,-90*%
X259957001Y-74343000D03*
D11*
X260682001Y-72868000D02*
X260682001Y-75818000D01*
X259232001Y-75818000D01*
X259232001Y-72868000D01*
X260682001Y-72868000D01*
D12*
%TO.P,R3,1*%
X259957001Y-73518000D03*
D13*
%TO.P,R3,2*%
X259957001Y-75168000D03*
%TD*%
D10*
%TO.C,C41*%
%TO.CFtp,CP_EIA-7343-15_Kemet-W*%
%TO.CVal,10uF*%
%TO.CLbN,Capacitor_Tantalum_SMD*%
%TO.CMnt,SMD*%
%TO.CRot,180*%
X334652501Y-310824999D03*
D11*
X339057501Y-308429999D02*
X339057501Y-313219999D01*
X330247501Y-313219999D01*
X330247501Y-308429999D01*
X339057501Y-308429999D01*
D12*
%TO.P,C41,1*%
X337772501Y-310824999D03*
D13*
%TO.P,C41,2*%
X331532501Y-310824999D03*
%TD*%
D10*
%TO.C,5V1*%
%TO.CFtp,TestPoint_Keystone_5005-5009_Compact*%
%TO.CVal,5005*%
%TO.CLbN,TestPoint*%
%TO.CMnt,TH*%
%TO.CRot,0*%
X343522501Y-325554999D03*
D11*
X343665005Y-323562547D02*
X343947111Y-323603107D01*
X344220569Y-323683402D01*
X344479821Y-323801798D01*
X344719581Y-323955883D01*
X344934976Y-324142523D01*
X345121616Y-324357918D01*
X345275701Y-324597678D01*
X345394097Y-324856930D01*
X345474392Y-325130388D01*
X345514959Y-325412541D01*
X345517500Y-325554999D01*
X345514959Y-325697456D01*
X345474392Y-325979609D01*
X345394097Y-326253067D01*
X345275701Y-326512319D01*
X345121616Y-326752079D01*
X344934976Y-326967474D01*
X344719581Y-327154114D01*
X344479821Y-327308199D01*
X344220569Y-327426595D01*
X343947111Y-327506890D01*
X343665005Y-327547451D01*
X343379997Y-327547451D01*
X343097890Y-327506890D01*
X342824432Y-327426595D01*
X342565180Y-327308199D01*
X342325420Y-327154114D01*
X342110025Y-326967474D01*
X341923385Y-326752079D01*
X341769300Y-326512319D01*
X341650904Y-326253067D01*
X341570609Y-325979609D01*
X341530049Y-325697502D01*
X341530049Y-325412495D01*
X341570609Y-325130388D01*
X341650904Y-324856930D01*
X341769300Y-324597678D01*
X341923385Y-324357918D01*
X342110025Y-324142523D01*
X342325420Y-323955883D01*
X342565180Y-323801798D01*
X342824432Y-323683402D01*
X343097890Y-323603107D01*
X343379997Y-323562547D01*
X343665005Y-323562547D01*
D12*
%TO.P,5V1,1,1*%
X343522501Y-325554999D03*
%TD*%
D10*
%TO.C,R14*%
%TO.CFtp,R_0603_1608Metric*%
%TO.CVal,120*%
%TO.CLbN,Resistor_SMD*%
%TO.CMnt,SMD*%
%TO.CRot,0*%
X247315001Y-140585000D03*
D11*
X248790001Y-139860000D02*
X248790001Y-141310000D01*
X245840001Y-141310000D01*
X245840001Y-139860000D01*
X248790001Y-139860000D01*
D12*
%TO.P,R14,1*%
X246490001Y-140585000D03*
D13*
%TO.P,R14,2*%
X248140001Y-140585000D03*
%TD*%
D10*
%TO.C,R57*%
%TO.CFtp,R_0603_1608Metric*%
%TO.CVal,24.9*%
%TO.CLbN,Resistor_SMD*%
%TO.CMnt,SMD*%
%TO.CRot,0*%
X334485001Y-126185000D03*
D11*
X335960001Y-125460000D02*
X335960001Y-126910000D01*
X333010001Y-126910000D01*
X333010001Y-125460000D01*
X335960001Y-125460000D01*
D12*
%TO.P,R57,1*%
X333660001Y-126185000D03*
D13*
%TO.P,R57,2*%
X335310001Y-126185000D03*
%TD*%
D10*
%TO.C,U18*%
%TO.CFtp,SO-14_S_LIT*%
%TO.CVal,LTC2052HV*%
%TO.CLbN,Analog_Devices*%
%TO.CMnt,SMD*%
%TO.CRot,0*%
X362555850Y-245199999D03*
D11*
X364798750Y-240582199D02*
X364798750Y-240874299D01*
X366259250Y-240874299D01*
X366259250Y-249525699D01*
X364798750Y-249525699D01*
X364798750Y-249817799D01*
X360312950Y-249817799D01*
X360312950Y-249525699D01*
X358852450Y-249525699D01*
X358852450Y-240874299D01*
X360312950Y-240874299D01*
X360312950Y-240582199D01*
X364798750Y-240582199D01*
D12*
%TO.P,U18,1,A_Out*%
X359831700Y-241389999D03*
D13*
%TO.P,U18,2,-INA*%
X359831700Y-242659999D03*
%TO.P,U18,3,+INA*%
X359831700Y-243929999D03*
%TO.P,U18,4,VCC*%
X359831700Y-245199999D03*
%TO.P,U18,5,+INB*%
X359831700Y-246469999D03*
%TO.P,U18,6,-INB*%
X359831700Y-247739999D03*
%TO.P,U18,7,B_OUT*%
X359831700Y-249009999D03*
%TO.P,U18,8,C_OUT*%
X365280000Y-249009999D03*
%TO.P,U18,9,-INC*%
X365280000Y-247739999D03*
%TO.P,U18,10,+INC*%
X365280000Y-246469999D03*
%TO.P,U18,11,VSS*%
X365280000Y-245199999D03*
%TO.P,U18,12,+IND*%
X365280000Y-243929999D03*
%TO.P,U18,13,-IND*%
X365280000Y-242659999D03*
%TO.P,U18,14,D_OUT*%
X365280000Y-241389999D03*
%TD*%
D10*
%TO.C,R74*%
%TO.CFtp,R_0402_1005Metric*%
%TO.CVal,10k*%
%TO.CLbN,Resistor_SMD*%
%TO.CMnt,SMD*%
%TO.CRot,-90*%
X358005850Y-248309999D03*
D11*
X358470850Y-247384999D02*
X358470850Y-249234999D01*
X357540850Y-249234999D01*
X357540850Y-247384999D01*
X358470850Y-247384999D01*
D12*
%TO.P,R74,1*%
X358005850Y-247799999D03*
D13*
%TO.P,R74,2*%
X358005850Y-248819999D03*
%TD*%
D10*
%TO.C,C66*%
%TO.CFtp,C_0603_1608Metric*%
%TO.CVal,0.1uF*%
%TO.CLbN,Capacitor_SMD*%
%TO.CMnt,SMD*%
%TO.CRot,0*%
X281965001Y-361010000D03*
D11*
X283440001Y-360285000D02*
X283440001Y-361735000D01*
X280490001Y-361735000D01*
X280490001Y-360285000D01*
X283440001Y-360285000D01*
D12*
%TO.P,C66,1*%
X281190001Y-361010000D03*
D13*
%TO.P,C66,2*%
X282740001Y-361010000D03*
%TD*%
D10*
%TO.C,LED4*%
%TO.CFtp,LED_0AS75000_WRE*%
%TO.CVal,150060GS75000*%
%TO.CLbN,Wurth_Elektronik*%
%TO.CMnt,SMD*%
%TO.CRot,0*%
X255363001Y-192623000D03*
D11*
X256462901Y-191929500D02*
X256462901Y-193316500D01*
X254263101Y-193316500D01*
X254263101Y-191929500D01*
X256462901Y-191929500D01*
D12*
%TO.P,LED4,1*%
X254734351Y-192623000D03*
D13*
%TO.P,LED4,2*%
X255991651Y-192623000D03*
%TD*%
D10*
%TO.C,J18*%
%TO.CFtp,618015231121*%
%TO.CVal,618015231121*%
%TO.CLbN,Wurth_Elektronik*%
%TO.CMnt,TH*%
%TO.CRot,90*%
X396800000Y-55420000D03*
D11*
X400215000Y-35525000D02*
X400215000Y-75315000D01*
X387305000Y-75315000D01*
X387305000Y-35525000D01*
X400215000Y-35525000D01*
D12*
%TO.P,J18,1*%
X389080000Y-45725000D03*
D13*
%TO.P,J18,2*%
X389080000Y-48495000D03*
%TO.P,J18,3*%
X389080000Y-51265000D03*
%TO.P,J18,4*%
X389080000Y-54035000D03*
%TO.P,J18,5*%
X389080000Y-56805000D03*
%TO.P,J18,6*%
X389080000Y-59575000D03*
%TO.P,J18,7*%
X389080000Y-62345000D03*
%TO.P,J18,8*%
X389080000Y-65115000D03*
%TO.P,J18,9*%
X391920000Y-47110000D03*
%TO.P,J18,10*%
X391920000Y-49880000D03*
%TO.P,J18,11*%
X391920000Y-52650000D03*
%TO.P,J18,12*%
X391920000Y-55420000D03*
%TO.P,J18,13*%
X391920000Y-58190000D03*
%TO.P,J18,14*%
X391920000Y-60960000D03*
%TO.P,J18,15*%
X391920000Y-63730000D03*
%TO.P,J18,S1*%
X390500000Y-72070000D03*
%TO.P,J18,S2*%
X390500000Y-38770000D03*
%TD*%
D10*
%TO.C,R53*%
%TO.CFtp,R_0603_1608Metric*%
%TO.CVal,24.9*%
%TO.CLbN,Resistor_SMD*%
%TO.CMnt,SMD*%
%TO.CRot,-90*%
X335315001Y-63665000D03*
D11*
X336040001Y-62190000D02*
X336040001Y-65140000D01*
X334590001Y-65140000D01*
X334590001Y-62190000D01*
X336040001Y-62190000D01*
D12*
%TO.P,R53,1*%
X335315001Y-62840000D03*
D13*
%TO.P,R53,2*%
X335315001Y-64490000D03*
%TD*%
D10*
%TO.C,L4*%
%TO.CFtp,MLC1260*%
%TO.CVal,0.8uH (+/- 20\u0025)*%
%TO.CLbN,CoilCraft*%
%TO.CMnt,SMD*%
%TO.CRot,-90*%
X239325001Y-113355000D03*
D14*
X251325001Y-117255000D02*
X239325001Y-117255000D01*
X239325001Y-119955000D01*
X251325001Y-119955000D01*
X251325001Y-117255000D01*
D12*
%TO.P,L4,1,1*%
X241325001Y-118605000D03*
D13*
%TO.P,L4,2,2*%
X249325001Y-118605000D03*
%TD*%
D10*
%TO.C,C46*%
%TO.CFtp,C_0603_1608Metric*%
%TO.CVal,0.1uF*%
%TO.CLbN,Capacitor_SMD*%
%TO.CMnt,SMD*%
%TO.CRot,90*%
X344462501Y-303384999D03*
D11*
X345187501Y-301909999D02*
X345187501Y-304859999D01*
X343737501Y-304859999D01*
X343737501Y-301909999D01*
X345187501Y-301909999D01*
D12*
%TO.P,C46,1*%
X344462501Y-304159999D03*
D13*
%TO.P,C46,2*%
X344462501Y-302609999D03*
%TD*%
D10*
%TO.C,U20*%
%TO.CFtp,SOT-3_ST_LIT*%
%TO.CVal,LT3080EST-PBF*%
%TO.CLbN,Analog_Devices*%
%TO.CMnt,SMD*%
%TO.CRot,0*%
X214104700Y-240705000D03*
D11*
X215928500Y-236455500D02*
X215928500Y-238601800D01*
X217706500Y-238601800D01*
X217706500Y-242808200D01*
X217084200Y-242808200D01*
X217084200Y-244954500D01*
X211125200Y-244954500D01*
X211125200Y-242808200D01*
X210502900Y-242808200D01*
X210502900Y-238601800D01*
X212280900Y-238601800D01*
X212280900Y-236455500D01*
X215928500Y-236455500D01*
D12*
%TO.P,U20,1,SET*%
X211793300Y-244197500D03*
D13*
%TO.P,U20,2,OUT*%
X214104700Y-244197500D03*
%TO.P,U20,3,IN*%
X216416100Y-244197500D03*
%TO.P,U20,4,TAB*%
X214104700Y-237205000D03*
%TD*%
D10*
%TO.C,M1*%
%TO.CFtp,ES6_TOS*%
%TO.CVal,SSM6N35FE\u002CLM*%
%TO.CLbN,Toshiba_Semi*%
%TO.CMnt,SMD*%
%TO.CRot,0*%
X251535001Y-74835000D03*
D11*
X252380901Y-73785900D02*
X252380901Y-73951000D01*
X252863501Y-73951000D01*
X252863501Y-75719000D01*
X252380901Y-75719000D01*
X252380901Y-75884100D01*
X250689101Y-75884100D01*
X250689101Y-75719000D01*
X250206501Y-75719000D01*
X250206501Y-73951000D01*
X250689101Y-73951000D01*
X250689101Y-73785900D01*
X252380901Y-73785900D01*
D12*
%TO.P,M1,1,1S*%
X250773001Y-74327000D03*
D13*
%TO.P,M1,2,1G*%
X250773001Y-74835000D03*
%TO.P,M1,3,2D*%
X250773001Y-75343000D03*
%TO.P,M1,4,2S*%
X252297001Y-75343000D03*
%TO.P,M1,5,2G*%
X252297001Y-74835000D03*
%TO.P,M1,6,1D*%
X252297001Y-74327000D03*
%TD*%
D10*
%TO.C,R4*%
%TO.CFtp,R_0603_1608Metric*%
%TO.CVal,15k*%
%TO.CLbN,Resistor_SMD*%
%TO.CMnt,SMD*%
%TO.CRot,180*%
X260825001Y-63575000D03*
D11*
X262300001Y-62850000D02*
X262300001Y-64300000D01*
X259350001Y-64300000D01*
X259350001Y-62850000D01*
X262300001Y-62850000D01*
D12*
%TO.P,R4,1*%
X261650001Y-63575000D03*
D13*
%TO.P,R4,2*%
X260000001Y-63575000D03*
%TD*%
D10*
%TO.C,R2*%
%TO.CFtp,R_0603_1608Metric*%
%TO.CVal,(DNP)*%
%TO.CLbN,Resistor_SMD*%
%TO.CMnt,SMD*%
%TO.CRot,90*%
X312665001Y-41755000D03*
D11*
X313390001Y-40280000D02*
X313390001Y-43230000D01*
X311940001Y-43230000D01*
X311940001Y-40280000D01*
X313390001Y-40280000D01*
D12*
%TO.P,R2,1*%
X312665001Y-42580000D03*
D13*
%TO.P,R2,2*%
X312665001Y-40930000D03*
%TD*%
D10*
%TO.C,U6*%
%TO.CFtp,SOT-3_ST_LIT*%
%TO.CVal,LT3080EST-PBF*%
%TO.CLbN,Analog_Devices*%
%TO.CMnt,SMD*%
%TO.CRot,180*%
X337781001Y-303664999D03*
D11*
X340760501Y-299415499D02*
X340760501Y-301561799D01*
X341382801Y-301561799D01*
X341382801Y-305768199D01*
X339604801Y-305768199D01*
X339604801Y-307914499D01*
X335957201Y-307914499D01*
X335957201Y-305768199D01*
X334179201Y-305768199D01*
X334179201Y-301561799D01*
X334801501Y-301561799D01*
X334801501Y-299415499D01*
X340760501Y-299415499D01*
D12*
%TO.P,U6,1,SET*%
X340092401Y-300172499D03*
D13*
%TO.P,U6,2,OUT*%
X337781001Y-300172499D03*
%TO.P,U6,3,IN*%
X335469601Y-300172499D03*
%TO.P,U6,4,TAB*%
X337781001Y-307164999D03*
%TD*%
D10*
%TO.C,C69*%
%TO.CFtp,C_0603_1608Metric*%
%TO.CVal,0.1uF*%
%TO.CLbN,Capacitor_SMD*%
%TO.CMnt,SMD*%
%TO.CRot,-90*%
X323220000Y-246473750D03*
D11*
X323945000Y-244998750D02*
X323945000Y-247948750D01*
X322495000Y-247948750D01*
X322495000Y-244998750D01*
X323945000Y-244998750D01*
D12*
%TO.P,C69,1*%
X323220000Y-245698750D03*
D13*
%TO.P,C69,2*%
X323220000Y-247248750D03*
%TD*%
D10*
%TO.C,C75*%
%TO.CFtp,C_0603_1608Metric*%
%TO.CVal,1uF*%
%TO.CLbN,Capacitor_SMD*%
%TO.CMnt,SMD*%
%TO.CRot,-90*%
X319605001Y-342305000D03*
D11*
X320330001Y-340830000D02*
X320330001Y-343780000D01*
X318880001Y-343780000D01*
X318880001Y-340830000D01*
X320330001Y-340830000D01*
D12*
%TO.P,C75,1*%
X319605001Y-341530000D03*
D13*
%TO.P,C75,2*%
X319605001Y-343080000D03*
%TD*%
D10*
%TO.C,LED1*%
%TO.CFtp,LED_0AS75000_WRE*%
%TO.CVal,150060GS75000*%
%TO.CLbN,Wurth_Elektronik*%
%TO.CMnt,SMD*%
%TO.CRot,-90*%
X249515001Y-78315000D03*
D11*
X250208501Y-77215100D02*
X250208501Y-79414900D01*
X248821501Y-79414900D01*
X248821501Y-77215100D01*
X250208501Y-77215100D01*
D12*
%TO.P,LED1,1*%
X249515001Y-77686350D03*
D13*
%TO.P,LED1,2*%
X249515001Y-78943650D03*
%TD*%
D10*
%TO.C,R93*%
%TO.CFtp,R_0603_1608Metric*%
%TO.CVal,24.9*%
%TO.CLbN,Resistor_SMD*%
%TO.CMnt,SMD*%
%TO.CRot,180*%
X359110000Y-270909999D03*
D11*
X360585000Y-270184999D02*
X360585000Y-271634999D01*
X357635000Y-271634999D01*
X357635000Y-270184999D01*
X360585000Y-270184999D01*
D12*
%TO.P,R93,1*%
X359935000Y-270909999D03*
D13*
%TO.P,R93,2*%
X358285000Y-270909999D03*
%TD*%
D10*
%TO.C,R90*%
%TO.CFtp,R_0402_1005Metric*%
%TO.CVal,10k*%
%TO.CLbN,Resistor_SMD*%
%TO.CMnt,SMD*%
%TO.CRot,-90*%
X358080000Y-268359999D03*
D11*
X358545000Y-267434999D02*
X358545000Y-269284999D01*
X357615000Y-269284999D01*
X357615000Y-267434999D01*
X358545000Y-267434999D01*
D12*
%TO.P,R90,1*%
X358080000Y-267849999D03*
D13*
%TO.P,R90,2*%
X358080000Y-268869999D03*
%TD*%
D10*
%TO.C,R11*%
%TO.CFtp,R_0603_1608Metric*%
%TO.CVal,(DNP)*%
%TO.CLbN,Resistor_SMD*%
%TO.CMnt,SMD*%
%TO.CRot,90*%
X311295001Y-101625000D03*
D11*
X312020001Y-100150000D02*
X312020001Y-103100000D01*
X310570001Y-103100000D01*
X310570001Y-100150000D01*
X312020001Y-100150000D01*
D12*
%TO.P,R11,1*%
X311295001Y-102450000D03*
D13*
%TO.P,R11,2*%
X311295001Y-100800000D03*
%TD*%
D10*
%TO.C,J9*%
%TO.CFtp,61300311121*%
%TO.CVal,61300311121*%
%TO.CLbN,Wurth_Elektronik*%
%TO.CMnt,TH*%
%TO.CRot,90*%
X231063200Y-210105000D03*
D11*
X232628200Y-206000000D02*
X232628200Y-214210000D01*
X229498200Y-214210000D01*
X229498200Y-206000000D01*
X232628200Y-206000000D01*
D12*
%TO.P,J9,1*%
X231063200Y-212645000D03*
D13*
%TO.P,J9,2*%
X231063200Y-210105000D03*
%TO.P,J9,3*%
X231063200Y-207565000D03*
%TD*%
D10*
%TO.C,R118*%
%TO.CFtp,R_1206_3216Metric*%
%TO.CVal,1k*%
%TO.CLbN,Resistor_SMD*%
%TO.CMnt,SMD*%
%TO.CRot,90*%
X347470000Y-377390000D03*
D11*
X348595000Y-375115000D02*
X348595000Y-379665000D01*
X346345000Y-379665000D01*
X346345000Y-375115000D01*
X348595000Y-375115000D01*
D12*
%TO.P,R118,1*%
X347470000Y-378852500D03*
D13*
%TO.P,R118,2*%
X347470000Y-375927500D03*
%TD*%
D10*
%TO.C,R15*%
%TO.CFtp,R_0603_1608Metric*%
%TO.CVal,15k*%
%TO.CLbN,Resistor_SMD*%
%TO.CMnt,SMD*%
%TO.CRot,0*%
X259450001Y-125305000D03*
D11*
X260925001Y-124580000D02*
X260925001Y-126030000D01*
X257975001Y-126030000D01*
X257975001Y-124580000D01*
X260925001Y-124580000D01*
D12*
%TO.P,R15,1*%
X258625001Y-125305000D03*
D13*
%TO.P,R15,2*%
X260275001Y-125305000D03*
%TD*%
D10*
%TO.C,R87*%
%TO.CFtp,R_0603_1608Metric*%
%TO.CVal,24.9*%
%TO.CLbN,Resistor_SMD*%
%TO.CMnt,SMD*%
%TO.CRot,0*%
X366105850Y-239349999D03*
D11*
X367580850Y-238624999D02*
X367580850Y-240074999D01*
X364630850Y-240074999D01*
X364630850Y-238624999D01*
X367580850Y-238624999D01*
D12*
%TO.P,R87,1*%
X365280850Y-239349999D03*
D13*
%TO.P,R87,2*%
X366930850Y-239349999D03*
%TD*%
D10*
%TO.C,C120*%
%TO.CFtp,C_0603_1608Metric*%
%TO.CVal,0.1uF*%
%TO.CLbN,Capacitor_SMD*%
%TO.CMnt,SMD*%
%TO.CRot,0*%
X268015001Y-255769999D03*
D11*
X269490001Y-255044999D02*
X269490001Y-256494999D01*
X266540001Y-256494999D01*
X266540001Y-255044999D01*
X269490001Y-255044999D01*
D12*
%TO.P,C120,1*%
X267240001Y-255769999D03*
D13*
%TO.P,C120,2*%
X268790001Y-255769999D03*
%TD*%
D10*
%TO.C,R67*%
%TO.CFtp,Y14870R01000B9R_10mOhm*%
%TO.CVal,Y14870R01000B9R*%
%TO.CLbN,Foil_Resistors*%
%TO.CMnt,SMD*%
%TO.CRot,0*%
X302650000Y-177420000D03*
D11*
X306575000Y-175335000D02*
X306575000Y-179505000D01*
X298725000Y-179505000D01*
X298725000Y-175335000D01*
X306575000Y-175335000D01*
D13*
%TO.P,R67,E1*%
X299665000Y-178690000D03*
%TO.P,R67,E2*%
X305635000Y-176150000D03*
%TO.P,R67,I1*%
X299795000Y-176585000D03*
%TO.P,R67,I2*%
X305505000Y-178255000D03*
%TD*%
D10*
%TO.C,C44*%
%TO.CFtp,C_0603_1608Metric*%
%TO.CVal,0.1uF*%
%TO.CLbN,Capacitor_SMD*%
%TO.CMnt,SMD*%
%TO.CRot,90*%
X344434001Y-336694999D03*
D11*
X345159001Y-335219999D02*
X345159001Y-338169999D01*
X343709001Y-338169999D01*
X343709001Y-335219999D01*
X345159001Y-335219999D01*
D12*
%TO.P,C44,1*%
X344434001Y-337469999D03*
D13*
%TO.P,C44,2*%
X344434001Y-335919999D03*
%TD*%
D10*
%TO.C,R116*%
%TO.CFtp,R_1206_3216Metric*%
%TO.CVal,1k*%
%TO.CLbN,Resistor_SMD*%
%TO.CMnt,SMD*%
%TO.CRot,90*%
X341040000Y-351710000D03*
D11*
X342165000Y-349435000D02*
X342165000Y-353985000D01*
X339915000Y-353985000D01*
X339915000Y-349435000D01*
X342165000Y-349435000D01*
D12*
%TO.P,R116,1*%
X341040000Y-353172500D03*
D13*
%TO.P,R116,2*%
X341040000Y-350247500D03*
%TD*%
D10*
%TO.C,C96*%
%TO.CFtp,C_0402_1005Metric*%
%TO.CVal,1uF*%
%TO.CLbN,Capacitor_SMD*%
%TO.CMnt,SMD*%
%TO.CRot,-90*%
X356950000Y-268349999D03*
D11*
X357405000Y-267444999D02*
X357405000Y-269254999D01*
X356495000Y-269254999D01*
X356495000Y-267444999D01*
X357405000Y-267444999D01*
D12*
%TO.P,C96,1*%
X356950000Y-267869999D03*
D13*
%TO.P,C96,2*%
X356950000Y-268829999D03*
%TD*%
D10*
%TO.C,8.2\u005Cu002C5\u005Cu002C3.3_RTN1*%
%TO.CFtp,TestPoint_Keystone_5005-5009_Compact*%
%TO.CVal,5006*%
%TO.CLbN,TestPoint*%
%TO.CMnt,TH*%
%TO.CRot,0*%
X327155001Y-319864999D03*
D11*
X327297505Y-317872547D02*
X327579611Y-317913107D01*
X327853069Y-317993402D01*
X328112321Y-318111798D01*
X328352081Y-318265883D01*
X328567476Y-318452523D01*
X328754116Y-318667918D01*
X328908201Y-318907678D01*
X329026597Y-319166930D01*
X329106892Y-319440388D01*
X329147459Y-319722541D01*
X329150000Y-319864999D01*
X329147459Y-320007456D01*
X329106892Y-320289609D01*
X329026597Y-320563067D01*
X328908201Y-320822319D01*
X328754116Y-321062079D01*
X328567476Y-321277474D01*
X328352081Y-321464114D01*
X328112321Y-321618199D01*
X327853069Y-321736595D01*
X327579611Y-321816890D01*
X327297505Y-321857451D01*
X327012497Y-321857451D01*
X326730390Y-321816890D01*
X326456932Y-321736595D01*
X326197680Y-321618199D01*
X325957920Y-321464114D01*
X325742525Y-321277474D01*
X325555885Y-321062079D01*
X325401800Y-320822319D01*
X325283404Y-320563067D01*
X325203109Y-320289609D01*
X325162549Y-320007502D01*
X325162549Y-319722495D01*
X325203109Y-319440388D01*
X325283404Y-319166930D01*
X325401800Y-318907678D01*
X325555885Y-318667918D01*
X325742525Y-318452523D01*
X325957920Y-318265883D01*
X326197680Y-318111798D01*
X326456932Y-317993402D01*
X326730390Y-317913107D01*
X327012497Y-317872547D01*
X327297505Y-317872547D01*
D12*
%TO.P,8.2\u005Cu002C5\u005Cu002C3.3_RTN1,1,1*%
X327155001Y-319864999D03*
%TD*%
D10*
%TO.C,Q3*%
%TO.CFtp,ISP281D_ISO*%
%TO.CVal,ISP281D*%
%TO.CLbN,ISOCOM*%
%TO.CMnt,SMD*%
%TO.CRot,-90*%
X258465001Y-303894999D03*
D11*
X259628401Y-299696299D02*
X259628401Y-301347299D01*
X260161801Y-301347299D01*
X260161801Y-306442699D01*
X259628401Y-306442699D01*
X259628401Y-308093699D01*
X257301601Y-308093699D01*
X257301601Y-306442699D01*
X256768201Y-306442699D01*
X256768201Y-301347299D01*
X257301601Y-301347299D01*
X257301601Y-299696299D01*
X259628401Y-299696299D01*
D12*
%TO.P,Q3,1,1*%
X259100001Y-300770799D03*
D13*
%TO.P,Q3,2,2*%
X257830001Y-300770799D03*
%TO.P,Q3,3,3*%
X257830001Y-307019199D03*
%TO.P,Q3,4,4*%
X259100001Y-307019199D03*
%TD*%
D10*
%TO.C,C29*%
%TO.CFtp,CP_EIA-3216-12_Kemet-S*%
%TO.CVal,10uF*%
%TO.CLbN,Capacitor_Tantalum_SMD*%
%TO.CMnt,SMD*%
%TO.CRot,90*%
X316535001Y-327584999D03*
D11*
X317580001Y-325279999D02*
X317580001Y-329889999D01*
X315490001Y-329889999D01*
X315490001Y-325279999D01*
X317580001Y-325279999D01*
D12*
%TO.P,C29,1*%
X316535001Y-328937499D03*
D13*
%TO.P,C29,2*%
X316535001Y-326232499D03*
%TD*%
D10*
%TO.C,C132*%
%TO.CFtp,C_1206_3216Metric*%
%TO.CVal,0.1uF*%
%TO.CLbN,Capacitor_SMD*%
%TO.CMnt,SMD*%
%TO.CRot,90*%
X340995000Y-103580000D03*
D11*
X342140000Y-101285000D02*
X342140000Y-105875000D01*
X339850000Y-105875000D01*
X339850000Y-101285000D01*
X342140000Y-101285000D01*
D12*
%TO.P,C132,1*%
X340995000Y-105055000D03*
D13*
%TO.P,C132,2*%
X340995000Y-102105000D03*
%TD*%
D10*
%TO.C,J8*%
%TO.CFtp,61300311121*%
%TO.CVal,61300311121*%
%TO.CLbN,Wurth_Elektronik*%
%TO.CMnt,TH*%
%TO.CRot,90*%
X225063200Y-229915000D03*
D11*
X226628200Y-225810000D02*
X226628200Y-234020000D01*
X223498200Y-234020000D01*
X223498200Y-225810000D01*
X226628200Y-225810000D01*
D12*
%TO.P,J8,1*%
X225063200Y-232455000D03*
D13*
%TO.P,J8,2*%
X225063200Y-229915000D03*
%TO.P,J8,3*%
X225063200Y-227375000D03*
%TD*%
D10*
%TO.C,J3*%
%TO.CFtp,618009231221*%
%TO.CVal,618009231221*%
%TO.CLbN,Wurth_Elektronik*%
%TO.CMnt,TH*%
%TO.CRot,-90*%
X188185001Y-323910000D03*
D11*
X197680001Y-308215000D02*
X197680001Y-339605000D01*
X184770001Y-339605000D01*
X184770001Y-308215000D01*
X197680001Y-308215000D01*
D12*
%TO.P,J3,1*%
X195905001Y-318370000D03*
D13*
%TO.P,J3,2*%
X195905001Y-321140000D03*
%TO.P,J3,3*%
X195905001Y-323910000D03*
%TO.P,J3,4*%
X195905001Y-326680000D03*
%TO.P,J3,5*%
X195905001Y-329450000D03*
%TO.P,J3,6*%
X193065001Y-319755000D03*
%TO.P,J3,7*%
X193065001Y-322525000D03*
%TO.P,J3,8*%
X193065001Y-325295000D03*
%TO.P,J3,9*%
X193065001Y-328065000D03*
%TO.P,J3,S1*%
X194485001Y-311410000D03*
%TO.P,J3,S2*%
X194485001Y-336410000D03*
%TD*%
D10*
%TO.C,R21*%
%TO.CFtp,R_0603_1608Metric*%
%TO.CVal,180*%
%TO.CLbN,Resistor_SMD*%
%TO.CMnt,SMD*%
%TO.CRot,-90*%
X259095001Y-296924999D03*
D11*
X259820001Y-295449999D02*
X259820001Y-298399999D01*
X258370001Y-298399999D01*
X258370001Y-295449999D01*
X259820001Y-295449999D01*
D12*
%TO.P,R21,1*%
X259095001Y-296099999D03*
D13*
%TO.P,R21,2*%
X259095001Y-297749999D03*
%TD*%
D10*
%TO.C,LED2*%
%TO.CFtp,LED_0AS75000_WRE*%
%TO.CVal,150060GS75000*%
%TO.CLbN,Wurth_Elektronik*%
%TO.CMnt,SMD*%
%TO.CRot,-90*%
X248145001Y-138185000D03*
D11*
X248838501Y-137085100D02*
X248838501Y-139284900D01*
X247451501Y-139284900D01*
X247451501Y-137085100D01*
X248838501Y-137085100D01*
D12*
%TO.P,LED2,1*%
X248145001Y-137556350D03*
D13*
%TO.P,LED2,2*%
X248145001Y-138813650D03*
%TD*%
D10*
%TO.C,R37*%
%TO.CFtp,R_0603_1608Metric*%
%TO.CVal,15k*%
%TO.CLbN,Resistor_SMD*%
%TO.CMnt,SMD*%
%TO.CRot,-90*%
X247225001Y-178845000D03*
D11*
X247950001Y-177370000D02*
X247950001Y-180320000D01*
X246500001Y-180320000D01*
X246500001Y-177370000D01*
X247950001Y-177370000D01*
D12*
%TO.P,R37,1*%
X247225001Y-178020000D03*
D13*
%TO.P,R37,2*%
X247225001Y-179670000D03*
%TD*%
D10*
%TO.C,C92*%
%TO.CFtp,C_0603_1608Metric*%
%TO.CVal,1uF*%
%TO.CLbN,Capacitor_SMD*%
%TO.CMnt,SMD*%
%TO.CRot,0*%
X366155850Y-252579999D03*
D11*
X367630850Y-251854999D02*
X367630850Y-253304999D01*
X364680850Y-253304999D01*
X364680850Y-251854999D01*
X367630850Y-251854999D01*
D12*
%TO.P,C92,1*%
X365380850Y-252579999D03*
D13*
%TO.P,C92,2*%
X366930850Y-252579999D03*
%TD*%
D10*
%TO.C,C40*%
%TO.CFtp,CP_EIA-3216-10_Kemet-I*%
%TO.CVal,2.2uF*%
%TO.CLbN,Capacitor_Tantalum_SMD*%
%TO.CMnt,SMD*%
%TO.CRot,-90*%
X332102501Y-303694999D03*
D11*
X333147501Y-301389999D02*
X333147501Y-305999999D01*
X331057501Y-305999999D01*
X331057501Y-301389999D01*
X333147501Y-301389999D01*
D12*
%TO.P,C40,1*%
X332102501Y-302342499D03*
D13*
%TO.P,C40,2*%
X332102501Y-305047499D03*
%TD*%
D10*
%TO.C,C48*%
%TO.CFtp,CP_EIA-3216-12_Kemet-S*%
%TO.CVal,10uF*%
%TO.CLbN,Capacitor_Tantalum_SMD*%
%TO.CMnt,SMD*%
%TO.CRot,90*%
X287055001Y-167684999D03*
D11*
X288100001Y-165379999D02*
X288100001Y-169989999D01*
X286010001Y-169989999D01*
X286010001Y-165379999D01*
X288100001Y-165379999D01*
D12*
%TO.P,C48,1*%
X287055001Y-169037499D03*
D13*
%TO.P,C48,2*%
X287055001Y-166332499D03*
%TD*%
D10*
%TO.C,R88*%
%TO.CFtp,R_0603_1608Metric*%
%TO.CVal,24.9*%
%TO.CLbN,Resistor_SMD*%
%TO.CMnt,SMD*%
%TO.CRot,0*%
X369625850Y-237679999D03*
D11*
X371100850Y-236954999D02*
X371100850Y-238404999D01*
X368150850Y-238404999D01*
X368150850Y-236954999D01*
X371100850Y-236954999D01*
D12*
%TO.P,R88,1*%
X368800850Y-237679999D03*
D13*
%TO.P,R88,2*%
X370450850Y-237679999D03*
%TD*%
D10*
%TO.C,J6*%
%TO.CFtp,618015231221*%
%TO.CVal,618015231221*%
%TO.CLbN,Wurth_Elektronik*%
%TO.CMnt,TH*%
%TO.CRot,90*%
X396755000Y-166235000D03*
D11*
X400170000Y-146290000D02*
X400170000Y-186180000D01*
X387260000Y-186180000D01*
X387260000Y-146290000D01*
X400170000Y-146290000D01*
D12*
%TO.P,J6,1*%
X389035000Y-175930000D03*
D13*
%TO.P,J6,2*%
X389035000Y-173160000D03*
%TO.P,J6,3*%
X389035000Y-170390000D03*
%TO.P,J6,4*%
X389035000Y-167620000D03*
%TO.P,J6,5*%
X389035000Y-164850000D03*
%TO.P,J6,6*%
X389035000Y-162080000D03*
%TO.P,J6,7*%
X389035000Y-159310000D03*
%TO.P,J6,8*%
X389035000Y-156540000D03*
%TO.P,J6,9*%
X391875000Y-174545000D03*
%TO.P,J6,10*%
X391875000Y-171775000D03*
%TO.P,J6,11*%
X391875000Y-169005000D03*
%TO.P,J6,12*%
X391875000Y-166235000D03*
%TO.P,J6,13*%
X391875000Y-163465000D03*
%TO.P,J6,14*%
X391875000Y-160695000D03*
%TO.P,J6,15*%
X391875000Y-157925000D03*
%TO.P,J6,S1*%
X390455000Y-182885000D03*
%TO.P,J6,S2*%
X390455000Y-149585000D03*
%TD*%
D10*
%TO.C,U22*%
%TO.CFtp,SN65LVDS33PWR_16TSSOP*%
%TO.CVal,SN65LVDS33PWR*%
%TO.CLbN,Texas_Instruments*%
%TO.CMnt,SMD*%
%TO.CRot,-90*%
X216503200Y-218625000D03*
D11*
X219304900Y-214718400D02*
X219304900Y-222531600D01*
X213701500Y-222531600D01*
X213701500Y-214718400D01*
X219304900Y-214718400D01*
D12*
%TO.P,U22,1,IN_1-*%
X218778199Y-215805600D03*
D13*
%TO.P,U22,2,IN_1+*%
X218128201Y-215805600D03*
%TO.P,U22,3,OUT_1*%
X217478199Y-215805600D03*
%TO.P,U22,4,EN+*%
X216828201Y-215805600D03*
%TO.P,U22,5,OUT_2*%
X216178202Y-215805600D03*
%TO.P,U22,6,IN_2+*%
X215528201Y-215805600D03*
%TO.P,U22,7,IN_2-*%
X214878202Y-215805600D03*
%TO.P,U22,8,VSS*%
X214228201Y-215805600D03*
%TO.P,U22,9,IN_3-*%
X214228201Y-221444400D03*
%TO.P,U22,10,IN_3+*%
X214878199Y-221444400D03*
%TO.P,U22,11,OUT_3*%
X215528201Y-221444400D03*
%TO.P,U22,12,EN-*%
X216178199Y-221444400D03*
%TO.P,U22,13,OUT_4*%
X216828198Y-221444400D03*
%TO.P,U22,14,IN_4+*%
X217478199Y-221444400D03*
%TO.P,U22,15,IN_4-*%
X218128198Y-221444400D03*
%TO.P,U22,16,VCC*%
X218778199Y-221444400D03*
%TD*%
D10*
%TO.C,C77*%
%TO.CFtp,C_0603_1608Metric*%
%TO.CVal,1uF*%
%TO.CLbN,Capacitor_SMD*%
%TO.CMnt,SMD*%
%TO.CRot,-90*%
X352745001Y-331035000D03*
D11*
X353470001Y-329560000D02*
X353470001Y-332510000D01*
X352020001Y-332510000D01*
X352020001Y-329560000D01*
X353470001Y-329560000D01*
D12*
%TO.P,C77,1*%
X352745001Y-330260000D03*
D13*
%TO.P,C77,2*%
X352745001Y-331810000D03*
%TD*%
D10*
%TO.C,R24*%
%TO.CFtp,R_0603_1608Metric*%
%TO.CVal,15k*%
%TO.CLbN,Resistor_SMD*%
%TO.CMnt,SMD*%
%TO.CRot,90*%
X260925001Y-310224999D03*
D11*
X261650001Y-308749999D02*
X261650001Y-311699999D01*
X260200001Y-311699999D01*
X260200001Y-308749999D01*
X261650001Y-308749999D01*
D12*
%TO.P,R24,1*%
X260925001Y-311049999D03*
D13*
%TO.P,R24,2*%
X260925001Y-309399999D03*
%TD*%
D10*
%TO.C,M2*%
%TO.CFtp,ES6_TOS*%
%TO.CVal,SSM6N35FE\u002CLM*%
%TO.CLbN,Toshiba_Semi*%
%TO.CMnt,SMD*%
%TO.CRot,0*%
X250165001Y-134705000D03*
D11*
X251010901Y-133655900D02*
X251010901Y-133821000D01*
X251493501Y-133821000D01*
X251493501Y-135589000D01*
X251010901Y-135589000D01*
X251010901Y-135754100D01*
X249319101Y-135754100D01*
X249319101Y-135589000D01*
X248836501Y-135589000D01*
X248836501Y-133821000D01*
X249319101Y-133821000D01*
X249319101Y-133655900D01*
X251010901Y-133655900D01*
D12*
%TO.P,M2,1,1S*%
X249403001Y-134197000D03*
D13*
%TO.P,M2,2,1G*%
X249403001Y-134705000D03*
%TO.P,M2,3,2D*%
X249403001Y-135213000D03*
%TO.P,M2,4,2S*%
X250927001Y-135213000D03*
%TO.P,M2,5,2G*%
X250927001Y-134705000D03*
%TO.P,M2,6,1D*%
X250927001Y-134197000D03*
%TD*%
D10*
%TO.C,R115*%
%TO.CFtp,R_1206_3216Metric*%
%TO.CVal,1k*%
%TO.CLbN,Resistor_SMD*%
%TO.CMnt,SMD*%
%TO.CRot,90*%
X344130000Y-103610000D03*
D11*
X345255000Y-101335000D02*
X345255000Y-105885000D01*
X343005000Y-105885000D01*
X343005000Y-101335000D01*
X345255000Y-101335000D01*
D12*
%TO.P,R115,1*%
X344130000Y-105072500D03*
D13*
%TO.P,R115,2*%
X344130000Y-102147500D03*
%TD*%
D10*
%TO.C,F1*%
%TO.CFtp,FUSE_0154010.DRL*%
%TO.CVal,0154010.DRL*%
%TO.CLbN,Little_Fuse*%
%TO.CMnt,SMD*%
%TO.CRot,0*%
X209025001Y-57445000D03*
D11*
X214578601Y-54685400D02*
X214578601Y-60204600D01*
X203471401Y-60204600D01*
X203471401Y-54685400D01*
X214578601Y-54685400D01*
D12*
%TO.P,F1,1*%
X205837301Y-57445000D03*
D13*
%TO.P,F1,2*%
X212212701Y-57445000D03*
%TD*%
D10*
%TO.C,L1*%
%TO.CFtp,MLC1260*%
%TO.CVal,0.8uH (+/- 20\u0025)*%
%TO.CLbN,CoilCraft*%
%TO.CMnt,SMD*%
%TO.CRot,-90*%
X240695001Y-53485000D03*
D14*
X252695001Y-57385000D02*
X240695001Y-57385000D01*
X240695001Y-60085000D01*
X252695001Y-60085000D01*
X252695001Y-57385000D01*
D12*
%TO.P,L1,1,1*%
X242695001Y-58735000D03*
D13*
%TO.P,L1,2,2*%
X250695001Y-58735000D03*
%TD*%
D10*
%TO.C,C106*%
%TO.CFtp,CP_EIA-7343-15_Kemet-W*%
%TO.CVal,10uF*%
%TO.CLbN,Capacitor_Tantalum_SMD*%
%TO.CMnt,SMD*%
%TO.CRot,0*%
X223823200Y-240665000D03*
D11*
X228228200Y-238270000D02*
X228228200Y-243060000D01*
X219418200Y-243060000D01*
X219418200Y-238270000D01*
X228228200Y-238270000D01*
D12*
%TO.P,C106,1*%
X220703200Y-240665000D03*
D13*
%TO.P,C106,2*%
X226943200Y-240665000D03*
%TD*%
D10*
%TO.C,C105*%
%TO.CFtp,CP_EIA-3216-10_Kemet-I*%
%TO.CVal,2.2uF*%
%TO.CLbN,Capacitor_Tantalum_SMD*%
%TO.CMnt,SMD*%
%TO.CRot,0*%
X223753200Y-244625000D03*
D11*
X226058200Y-243580000D02*
X226058200Y-245670000D01*
X221448200Y-245670000D01*
X221448200Y-243580000D01*
X226058200Y-243580000D01*
D12*
%TO.P,C105,1*%
X222400700Y-244625000D03*
D13*
%TO.P,C105,2*%
X225105700Y-244625000D03*
%TD*%
D10*
%TO.C,R26*%
%TO.CFtp,R_0603_1608Metric*%
%TO.CVal,835*%
%TO.CLbN,Resistor_SMD*%
%TO.CMnt,SMD*%
%TO.CRot,0*%
X246805001Y-296024999D03*
D11*
X248280001Y-295299999D02*
X248280001Y-296749999D01*
X245330001Y-296749999D01*
X245330001Y-295299999D01*
X248280001Y-295299999D01*
D12*
%TO.P,R26,1*%
X245980001Y-296024999D03*
D13*
%TO.P,R26,2*%
X247630001Y-296024999D03*
%TD*%
D10*
%TO.C,R38*%
%TO.CFtp,R_0603_1608Metric*%
%TO.CVal,4.99k*%
%TO.CLbN,Resistor_SMD*%
%TO.CMnt,SMD*%
%TO.CRot,0*%
X250012502Y-179670000D03*
D11*
X251487502Y-178945000D02*
X251487502Y-180395000D01*
X248537502Y-180395000D01*
X248537502Y-178945000D01*
X251487502Y-178945000D01*
D12*
%TO.P,R38,1*%
X249187502Y-179670000D03*
D13*
%TO.P,R38,2*%
X250837502Y-179670000D03*
%TD*%
D10*
%TO.C,L2*%
%TO.CFtp,MSD1583-105*%
%TO.CVal,54.4uH to 81.6uH (CM) 0.79uH Leakage*%
%TO.CLbN,CoilCraft*%
%TO.CMnt,SMD*%
%TO.CRot,90*%
X235265001Y-59865000D03*
D14*
X219865001Y-55165000D02*
X235665001Y-55165000D01*
X235665001Y-49565000D01*
X219865001Y-49565000D01*
X219865001Y-55165000D01*
D12*
%TO.P,L2,1*%
X234065001Y-50515000D03*
D13*
%TO.P,L2,2*%
X234065001Y-54215000D03*
%TO.P,L2,3*%
X221465001Y-54215000D03*
%TO.P,L2,4*%
X221465001Y-50515000D03*
%TD*%
D10*
%TO.C,Q5*%
%TO.CFtp,ISP281D_ISO*%
%TO.CVal,ISP281D*%
%TO.CLbN,ISOCOM*%
%TO.CMnt,SMD*%
%TO.CRot,-90*%
X254395001Y-356270000D03*
D11*
X255558401Y-352071300D02*
X255558401Y-353722300D01*
X256091801Y-353722300D01*
X256091801Y-358817700D01*
X255558401Y-358817700D01*
X255558401Y-360468700D01*
X253231601Y-360468700D01*
X253231601Y-358817700D01*
X252698201Y-358817700D01*
X252698201Y-353722300D01*
X253231601Y-353722300D01*
X253231601Y-352071300D01*
X255558401Y-352071300D01*
D12*
%TO.P,Q5,1,1*%
X255030001Y-353145800D03*
D13*
%TO.P,Q5,2,2*%
X253760001Y-353145800D03*
%TO.P,Q5,3,3*%
X253760001Y-359394200D03*
%TO.P,Q5,4,4*%
X255030001Y-359394200D03*
%TD*%
D10*
%TO.C,R102*%
%TO.CFtp,R_0603_1608Metric*%
%TO.CVal,24.9*%
%TO.CLbN,Resistor_SMD*%
%TO.CMnt,SMD*%
%TO.CRot,0*%
X369520000Y-272639999D03*
D11*
X370995000Y-271914999D02*
X370995000Y-273364999D01*
X368045000Y-273364999D01*
X368045000Y-271914999D01*
X370995000Y-271914999D01*
D12*
%TO.P,R102,1*%
X368695000Y-272639999D03*
D13*
%TO.P,R102,2*%
X370345000Y-272639999D03*
%TD*%
D10*
%TO.C,R6*%
%TO.CFtp,R_0603_1608Metric*%
%TO.CVal,15k*%
%TO.CLbN,Resistor_SMD*%
%TO.CMnt,SMD*%
%TO.CRot,0*%
X260820001Y-65435000D03*
D11*
X262295001Y-64710000D02*
X262295001Y-66160000D01*
X259345001Y-66160000D01*
X259345001Y-64710000D01*
X262295001Y-64710000D01*
D12*
%TO.P,R6,1*%
X259995001Y-65435000D03*
D13*
%TO.P,R6,2*%
X261645001Y-65435000D03*
%TD*%
D10*
%TO.C,C28*%
%TO.CFtp,CP_EIA-3216-12_Kemet-S*%
%TO.CVal,10uF*%
%TO.CLbN,Capacitor_Tantalum_SMD*%
%TO.CMnt,SMD*%
%TO.CRot,90*%
X261555001Y-327662499D03*
D11*
X262600001Y-325357499D02*
X262600001Y-329967499D01*
X260510001Y-329967499D01*
X260510001Y-325357499D01*
X262600001Y-325357499D01*
D12*
%TO.P,C28,1*%
X261555001Y-329014999D03*
D13*
%TO.P,C28,2*%
X261555001Y-326309999D03*
%TD*%
D10*
%TO.C,C113*%
%TO.CFtp,CP_EIA-7360-38_Kemet-E*%
%TO.CVal,100uF*%
%TO.CLbN,Capacitor_Tantalum_SMD*%
%TO.CMnt,SMD*%
%TO.CRot,90*%
X212445001Y-268207499D03*
D11*
X215690001Y-263802499D02*
X215690001Y-272612499D01*
X209200001Y-272612499D01*
X209200001Y-263802499D01*
X215690001Y-263802499D01*
D12*
%TO.P,C113,1*%
X212445001Y-271327499D03*
D13*
%TO.P,C113,2*%
X212445001Y-265087499D03*
%TD*%
D10*
%TO.C,R70*%
%TO.CFtp,Y14870R01000B9R_10mOhm*%
%TO.CVal,Y14870R01000B9R*%
%TO.CLbN,Foil_Resistors*%
%TO.CMnt,SMD*%
%TO.CRot,0*%
X333767501Y-370605000D03*
D11*
X337692501Y-368520000D02*
X337692501Y-372690000D01*
X329842501Y-372690000D01*
X329842501Y-368520000D01*
X337692501Y-368520000D01*
D13*
%TO.P,R70,E1*%
X330782501Y-371875000D03*
%TO.P,R70,E2*%
X336752501Y-369335000D03*
%TO.P,R70,I1*%
X330912501Y-369770000D03*
%TO.P,R70,I2*%
X336622501Y-371440000D03*
%TD*%
D10*
%TO.C,C4*%
%TO.CFtp,CP_EIA-3216-12_Kemet-S*%
%TO.CVal,10uF*%
%TO.CLbN,Capacitor_Tantalum_SMD*%
%TO.CMnt,SMD*%
%TO.CRot,90*%
X316935001Y-52065000D03*
D11*
X317980001Y-49760000D02*
X317980001Y-54370000D01*
X315890001Y-54370000D01*
X315890001Y-49760000D01*
X317980001Y-49760000D01*
D12*
%TO.P,C4,1*%
X316935001Y-53417500D03*
D13*
%TO.P,C4,2*%
X316935001Y-50712500D03*
%TD*%
D10*
%TO.C,R54*%
%TO.CFtp,R_0603_1608Metric*%
%TO.CVal,24.9*%
%TO.CLbN,Resistor_SMD*%
%TO.CMnt,SMD*%
%TO.CRot,0*%
X334375001Y-66325000D03*
D11*
X335850001Y-65600000D02*
X335850001Y-67050000D01*
X332900001Y-67050000D01*
X332900001Y-65600000D01*
X335850001Y-65600000D01*
D12*
%TO.P,R54,1*%
X333550001Y-66325000D03*
D13*
%TO.P,R54,2*%
X335200001Y-66325000D03*
%TD*%
D10*
%TO.C,J2*%
%TO.CFtp,618009231221*%
%TO.CVal,618009231221*%
%TO.CLbN,Wurth_Elektronik*%
%TO.CMnt,TH*%
%TO.CRot,-90*%
X188185001Y-113240000D03*
D11*
X197680001Y-97545000D02*
X197680001Y-128935000D01*
X184770001Y-128935000D01*
X184770001Y-97545000D01*
X197680001Y-97545000D01*
D12*
%TO.P,J2,1*%
X195905001Y-107700000D03*
D13*
%TO.P,J2,2*%
X195905001Y-110470000D03*
%TO.P,J2,3*%
X195905001Y-113240000D03*
%TO.P,J2,4*%
X195905001Y-116010000D03*
%TO.P,J2,5*%
X195905001Y-118780000D03*
%TO.P,J2,6*%
X193065001Y-109085000D03*
%TO.P,J2,7*%
X193065001Y-111855000D03*
%TO.P,J2,8*%
X193065001Y-114625000D03*
%TO.P,J2,9*%
X193065001Y-117395000D03*
%TO.P,J2,S1*%
X194485001Y-100740000D03*
%TO.P,J2,S2*%
X194485001Y-125740000D03*
%TD*%
D10*
%TO.C,R114*%
%TO.CFtp,R_1206_3216Metric*%
%TO.CVal,1k*%
%TO.CLbN,Resistor_SMD*%
%TO.CMnt,SMD*%
%TO.CRot,90*%
X344100000Y-45870000D03*
D11*
X345225000Y-43595000D02*
X345225000Y-48145000D01*
X342975000Y-48145000D01*
X342975000Y-43595000D01*
X345225000Y-43595000D01*
D12*
%TO.P,R114,1*%
X344100000Y-47332500D03*
D13*
%TO.P,R114,2*%
X344100000Y-44407500D03*
%TD*%
D10*
%TO.C,R42*%
%TO.CFtp,R_0603_1608Metric*%
%TO.CVal,(DNP)*%
%TO.CLbN,Resistor_SMD*%
%TO.CMnt,SMD*%
%TO.CRot,-90*%
X288715001Y-370110000D03*
D11*
X289440001Y-368635000D02*
X289440001Y-371585000D01*
X287990001Y-371585000D01*
X287990001Y-368635000D01*
X289440001Y-368635000D01*
D12*
%TO.P,R42,1*%
X288715001Y-369285000D03*
D13*
%TO.P,R42,2*%
X288715001Y-370935000D03*
%TD*%
D10*
%TO.C,SEC_PWR1*%
%TO.CFtp,TestPoint_Keystone_5005-5009_Compact*%
%TO.CVal,5005*%
%TO.CLbN,TestPoint*%
%TO.CMnt,TH*%
%TO.CRot,0*%
X218085001Y-62185000D03*
D11*
X218227505Y-60192548D02*
X218509611Y-60233108D01*
X218783069Y-60313403D01*
X219042321Y-60431799D01*
X219282081Y-60585884D01*
X219497476Y-60772524D01*
X219684116Y-60987919D01*
X219838201Y-61227679D01*
X219956597Y-61486931D01*
X220036892Y-61760389D01*
X220077459Y-62042542D01*
X220080000Y-62185000D01*
X220077459Y-62327457D01*
X220036892Y-62609610D01*
X219956597Y-62883068D01*
X219838201Y-63142320D01*
X219684116Y-63382080D01*
X219497476Y-63597475D01*
X219282081Y-63784115D01*
X219042321Y-63938200D01*
X218783069Y-64056596D01*
X218509611Y-64136891D01*
X218227505Y-64177452D01*
X217942497Y-64177452D01*
X217660390Y-64136891D01*
X217386932Y-64056596D01*
X217127680Y-63938200D01*
X216887920Y-63784115D01*
X216672525Y-63597475D01*
X216485885Y-63382080D01*
X216331800Y-63142320D01*
X216213404Y-62883068D01*
X216133109Y-62609610D01*
X216092549Y-62327503D01*
X216092549Y-62042496D01*
X216133109Y-61760389D01*
X216213404Y-61486931D01*
X216331800Y-61227679D01*
X216485885Y-60987919D01*
X216672525Y-60772524D01*
X216887920Y-60585884D01*
X217127680Y-60431799D01*
X217386932Y-60313403D01*
X217660390Y-60233108D01*
X217942497Y-60192548D01*
X218227505Y-60192548D01*
D12*
%TO.P,SEC_PWR1,1,1*%
X218085001Y-62185000D03*
%TD*%
D10*
%TO.C,C97*%
%TO.CFtp,C_0402_1005Metric*%
%TO.CVal,1uF*%
%TO.CLbN,Capacitor_SMD*%
%TO.CMnt,SMD*%
%TO.CRot,90*%
X356970000Y-262019999D03*
D11*
X357425000Y-261114999D02*
X357425000Y-262924999D01*
X356515000Y-262924999D01*
X356515000Y-261114999D01*
X357425000Y-261114999D01*
D12*
%TO.P,C97,1*%
X356970000Y-262499999D03*
D13*
%TO.P,C97,2*%
X356970000Y-261539999D03*
%TD*%
D10*
%TO.C,R8*%
%TO.CFtp,R_0603_1608Metric*%
%TO.CVal,835*%
%TO.CLbN,Resistor_SMD*%
%TO.CMnt,SMD*%
%TO.CRot,0*%
X245315001Y-74835000D03*
D11*
X246790001Y-74110000D02*
X246790001Y-75560000D01*
X243840001Y-75560000D01*
X243840001Y-74110000D01*
X246790001Y-74110000D01*
D12*
%TO.P,R8,1*%
X244490001Y-74835000D03*
D13*
%TO.P,R8,2*%
X246140001Y-74835000D03*
%TD*%
D10*
%TO.C,J16*%
%TO.CFtp,618009231221*%
%TO.CVal,618009231221*%
%TO.CLbN,Wurth_Elektronik*%
%TO.CMnt,TH*%
%TO.CRot,90*%
X396830000Y-336340000D03*
D11*
X400245000Y-320645000D02*
X400245000Y-352035000D01*
X387335000Y-352035000D01*
X387335000Y-320645000D01*
X400245000Y-320645000D01*
D12*
%TO.P,J16,1*%
X389110000Y-341880000D03*
D13*
%TO.P,J16,2*%
X389110000Y-339110000D03*
%TO.P,J16,3*%
X389110000Y-336340000D03*
%TO.P,J16,4*%
X389110000Y-333570000D03*
%TO.P,J16,5*%
X389110000Y-330800000D03*
%TO.P,J16,6*%
X391950000Y-340495000D03*
%TO.P,J16,7*%
X391950000Y-337725000D03*
%TO.P,J16,8*%
X391950000Y-334955000D03*
%TO.P,J16,9*%
X391950000Y-332185000D03*
%TO.P,J16,S1*%
X390530000Y-348840000D03*
%TO.P,J16,S2*%
X390530000Y-323840000D03*
%TD*%
D10*
%TO.C,Q1*%
%TO.CFtp,ISP281D_ISO*%
%TO.CVal,ISP281D*%
%TO.CLbN,ISOCOM*%
%TO.CMnt,SMD*%
%TO.CRot,90*%
X265017001Y-70843000D03*
D11*
X266180401Y-66644300D02*
X266180401Y-68295300D01*
X266713801Y-68295300D01*
X266713801Y-73390700D01*
X266180401Y-73390700D01*
X266180401Y-75041700D01*
X263853601Y-75041700D01*
X263853601Y-73390700D01*
X263320201Y-73390700D01*
X263320201Y-68295300D01*
X263853601Y-68295300D01*
X263853601Y-66644300D01*
X266180401Y-66644300D01*
D12*
%TO.P,Q1,1,1*%
X264382001Y-73967200D03*
D13*
%TO.P,Q1,2,2*%
X265652001Y-73967200D03*
%TO.P,Q1,3,3*%
X265652001Y-67718800D03*
%TO.P,Q1,4,4*%
X264382001Y-67718800D03*
%TD*%
D10*
%TO.C,C16*%
%TO.CFtp,CP_EIA-3216-12_Kemet-S*%
%TO.CVal,10uF*%
%TO.CLbN,Capacitor_Tantalum_SMD*%
%TO.CMnt,SMD*%
%TO.CRot,90*%
X312135001Y-111935000D03*
D11*
X313180001Y-109630000D02*
X313180001Y-114240000D01*
X311090001Y-114240000D01*
X311090001Y-109630000D01*
X313180001Y-109630000D01*
D12*
%TO.P,C16,1*%
X312135001Y-113287500D03*
D13*
%TO.P,C16,2*%
X312135001Y-110582500D03*
%TD*%
D10*
%TO.C,J17*%
%TO.CFtp,618009231121*%
%TO.CVal,618009231121*%
%TO.CLbN,Wurth_Elektronik*%
%TO.CMnt,TH*%
%TO.CRot,90*%
X396810000Y-114280000D03*
D11*
X400225000Y-98585000D02*
X400225000Y-129975000D01*
X387315000Y-129975000D01*
X387315000Y-98585000D01*
X400225000Y-98585000D01*
D12*
%TO.P,J17,1*%
X389090000Y-108740000D03*
D13*
%TO.P,J17,2*%
X389090000Y-111510000D03*
%TO.P,J17,3*%
X389090000Y-114280000D03*
%TO.P,J17,4*%
X389090000Y-117050000D03*
%TO.P,J17,5*%
X389090000Y-119820000D03*
%TO.P,J17,6*%
X391930000Y-110125000D03*
%TO.P,J17,7*%
X391930000Y-112895000D03*
%TO.P,J17,8*%
X391930000Y-115665000D03*
%TO.P,J17,9*%
X391930000Y-118435000D03*
%TO.P,J17,S1*%
X390510000Y-126780000D03*
%TO.P,J17,S2*%
X390510000Y-101780000D03*
%TD*%
D10*
%TO.C,R98*%
%TO.CFtp,R_0402_1005Metric*%
%TO.CVal,10k*%
%TO.CLbN,Resistor_SMD*%
%TO.CMnt,SMD*%
%TO.CRot,-90*%
X367090000Y-268439999D03*
D11*
X367555000Y-267514999D02*
X367555000Y-269364999D01*
X366625000Y-269364999D01*
X366625000Y-267514999D01*
X367555000Y-267514999D01*
D12*
%TO.P,R98,1*%
X367090000Y-267929999D03*
D13*
%TO.P,R98,2*%
X367090000Y-268949999D03*
%TD*%
D10*
%TO.C,C86*%
%TO.CFtp,C_0402_1005Metric*%
%TO.CVal,1uF*%
%TO.CLbN,Capacitor_SMD*%
%TO.CMnt,SMD*%
%TO.CRot,-90*%
X356875850Y-248299999D03*
D11*
X357330850Y-247394999D02*
X357330850Y-249204999D01*
X356420850Y-249204999D01*
X356420850Y-247394999D01*
X357330850Y-247394999D01*
D12*
%TO.P,C86,1*%
X356875850Y-247819999D03*
D13*
%TO.P,C86,2*%
X356875850Y-248779999D03*
%TD*%
D10*
%TO.C,R43*%
%TO.CFtp,R_0603_1608Metric*%
%TO.CVal,180*%
%TO.CLbN,Resistor_SMD*%
%TO.CMnt,SMD*%
%TO.CRot,-90*%
X255015001Y-349330000D03*
D11*
X255740001Y-347855000D02*
X255740001Y-350805000D01*
X254290001Y-350805000D01*
X254290001Y-347855000D01*
X255740001Y-347855000D01*
D12*
%TO.P,R43,1*%
X255015001Y-348505000D03*
D13*
%TO.P,R43,2*%
X255015001Y-350155000D03*
%TD*%
D10*
%TO.C,R62*%
%TO.CFtp,R_0603_1608Metric*%
%TO.CVal,24.9*%
%TO.CLbN,Resistor_SMD*%
%TO.CMnt,SMD*%
%TO.CRot,-90*%
X354515001Y-331035000D03*
D11*
X355240001Y-329560000D02*
X355240001Y-332510000D01*
X353790001Y-332510000D01*
X353790001Y-329560000D01*
X355240001Y-329560000D01*
D12*
%TO.P,R62,1*%
X354515001Y-330210000D03*
D13*
%TO.P,R62,2*%
X354515001Y-331860000D03*
%TD*%
D10*
%TO.C,C56*%
%TO.CFtp,C_0603_1608Metric*%
%TO.CVal,0.1uF*%
%TO.CLbN,Capacitor_SMD*%
%TO.CMnt,SMD*%
%TO.CRot,0*%
X276810000Y-153240000D03*
D11*
X278285000Y-152515000D02*
X278285000Y-153965000D01*
X275335000Y-153965000D01*
X275335000Y-152515000D01*
X278285000Y-152515000D01*
D12*
%TO.P,C56,1*%
X276035000Y-153240000D03*
D13*
%TO.P,C56,2*%
X277585000Y-153240000D03*
%TD*%
D10*
%TO.C,R99*%
%TO.CFtp,R_0402_1005Metric*%
%TO.CVal,(DNI)*%
%TO.CLbN,Resistor_SMD*%
%TO.CMnt,SMD*%
%TO.CRot,-90*%
X369490000Y-262019999D03*
D11*
X369955000Y-261094999D02*
X369955000Y-262944999D01*
X369025000Y-262944999D01*
X369025000Y-261094999D01*
X369955000Y-261094999D01*
D12*
%TO.P,R99,1*%
X369490000Y-261509999D03*
D13*
%TO.P,R99,2*%
X369490000Y-262529999D03*
%TD*%
D10*
%TO.C,LED6*%
%TO.CFtp,LED_0AS75000_WRE*%
%TO.CVal,150060GS75000*%
%TO.CLbN,Wurth_Elektronik*%
%TO.CMnt,SMD*%
%TO.CRot,-90*%
X278645001Y-273649999D03*
D11*
X279338501Y-272550099D02*
X279338501Y-274749899D01*
X277951501Y-274749899D01*
X277951501Y-272550099D01*
X279338501Y-272550099D01*
D12*
%TO.P,LED6,1*%
X278645001Y-273021349D03*
D13*
%TO.P,LED6,2*%
X278645001Y-274278649D03*
%TD*%
D10*
%TO.C,R100*%
%TO.CFtp,R_0402_1005Metric*%
%TO.CVal,10k*%
%TO.CLbN,Resistor_SMD*%
%TO.CMnt,SMD*%
%TO.CRot,90*%
X367110000Y-262029999D03*
D11*
X367575000Y-261104999D02*
X367575000Y-262954999D01*
X366645000Y-262954999D01*
X366645000Y-261104999D01*
X367575000Y-261104999D01*
D12*
%TO.P,R100,1*%
X367110000Y-262539999D03*
D13*
%TO.P,R100,2*%
X367110000Y-261519999D03*
%TD*%
D10*
%TO.C,R48*%
%TO.CFtp,R_0603_1608Metric*%
%TO.CVal,835*%
%TO.CLbN,Resistor_SMD*%
%TO.CMnt,SMD*%
%TO.CRot,0*%
X243955001Y-349190000D03*
D11*
X245430001Y-348465000D02*
X245430001Y-349915000D01*
X242480001Y-349915000D01*
X242480001Y-348465000D01*
X245430001Y-348465000D01*
D12*
%TO.P,R48,1*%
X243130001Y-349190000D03*
D13*
%TO.P,R48,2*%
X244780001Y-349190000D03*
%TD*%
D10*
%TO.C,R77*%
%TO.CFtp,R_0603_1608Metric*%
%TO.CVal,24.9*%
%TO.CLbN,Resistor_SMD*%
%TO.CMnt,SMD*%
%TO.CRot,180*%
X359035850Y-250859999D03*
D11*
X360510850Y-250134999D02*
X360510850Y-251584999D01*
X357560850Y-251584999D01*
X357560850Y-250134999D01*
X360510850Y-250134999D01*
D12*
%TO.P,R77,1*%
X359860850Y-250859999D03*
D13*
%TO.P,R77,2*%
X358210850Y-250859999D03*
%TD*%
D10*
%TO.C,L5*%
%TO.CFtp,MSD1583-105*%
%TO.CVal,54.4uH to 81.6uH (CM) 0.79uH Leakage*%
%TO.CLbN,CoilCraft*%
%TO.CMnt,SMD*%
%TO.CRot,90*%
X233895001Y-119735000D03*
D14*
X218495001Y-115035000D02*
X234295001Y-115035000D01*
X234295001Y-109435000D01*
X218495001Y-109435000D01*
X218495001Y-115035000D01*
D12*
%TO.P,L5,1*%
X232695001Y-110385000D03*
D13*
%TO.P,L5,2*%
X232695001Y-114085000D03*
%TO.P,L5,3*%
X220095001Y-114085000D03*
%TO.P,L5,4*%
X220095001Y-110385000D03*
%TD*%
D10*
%TO.C,R82*%
%TO.CFtp,R_0402_1005Metric*%
%TO.CVal,10k*%
%TO.CLbN,Resistor_SMD*%
%TO.CMnt,SMD*%
%TO.CRot,-90*%
X367015850Y-248389999D03*
D11*
X367480850Y-247464999D02*
X367480850Y-249314999D01*
X366550850Y-249314999D01*
X366550850Y-247464999D01*
X367480850Y-247464999D01*
D12*
%TO.P,R82,1*%
X367015850Y-247879999D03*
D13*
%TO.P,R82,2*%
X367015850Y-248899999D03*
%TD*%
D10*
%TO.C,U21*%
%TO.CFtp,DBV5*%
%TO.CVal,SN65LVDS2DBVR*%
%TO.CLbN,Texas_Instruments*%
%TO.CMnt,SMD*%
%TO.CRot,-90*%
X205273200Y-218295000D03*
D11*
X207046200Y-216115600D02*
X207046200Y-220474400D01*
X203500200Y-220474400D01*
X203500200Y-216115600D01*
X207046200Y-216115600D01*
D12*
%TO.P,U21,1,VCC*%
X206223201Y-217101200D03*
D13*
%TO.P,U21,2,GND*%
X205273200Y-217101200D03*
%TO.P,U21,3,A*%
X204323199Y-217101200D03*
%TO.P,U21,4,B*%
X204323199Y-219488800D03*
%TO.P,U21,5,R*%
X206223201Y-219488800D03*
%TD*%
D10*
%TO.C,C134*%
%TO.CFtp,C_1206_3216Metric*%
%TO.CVal,0.1uF*%
%TO.CLbN,Capacitor_SMD*%
%TO.CMnt,SMD*%
%TO.CRot,90*%
X339910000Y-164270000D03*
D11*
X341055000Y-161975000D02*
X341055000Y-166565000D01*
X338765000Y-166565000D01*
X338765000Y-161975000D01*
X341055000Y-161975000D01*
D12*
%TO.P,C134,1*%
X339910000Y-165745000D03*
D13*
%TO.P,C134,2*%
X339910000Y-162795000D03*
%TD*%
D10*
%TO.C,M8*%
%TO.CFtp,SSM_TOS*%
%TO.CVal,SSM3K15AFS_LF*%
%TO.CLbN,Toshiba_Semi*%
%TO.CMnt,SMD*%
%TO.CRot,0*%
X250012502Y-176880000D03*
D11*
X250411502Y-175375401D02*
X250411502Y-176231000D01*
X251061502Y-176231000D01*
X251061502Y-177529000D01*
X250911502Y-177529000D01*
X250911502Y-178384599D01*
X249113502Y-178384599D01*
X249113502Y-177529000D01*
X248963502Y-177529000D01*
X248963502Y-176231000D01*
X249613502Y-176231000D01*
X249613502Y-175375401D01*
X250411502Y-175375401D01*
D12*
%TO.P,M8,1,1*%
X249512503Y-177555000D03*
D13*
%TO.P,M8,2,2*%
X250512501Y-177555000D03*
%TO.P,M8,3,3*%
X250012502Y-176205000D03*
%TD*%
D10*
%TO.C,C71*%
%TO.CFtp,C_0603_1608Metric*%
%TO.CVal,1uF*%
%TO.CLbN,Capacitor_SMD*%
%TO.CMnt,SMD*%
%TO.CRot,-90*%
X333545001Y-63665000D03*
D11*
X334270001Y-62190000D02*
X334270001Y-65140000D01*
X332820001Y-65140000D01*
X332820001Y-62190000D01*
X334270001Y-62190000D01*
D12*
%TO.P,C71,1*%
X333545001Y-62890000D03*
D13*
%TO.P,C71,2*%
X333545001Y-64440000D03*
%TD*%
D10*
%TO.C,R52*%
%TO.CFtp,Y14870R01000B9R_10mOhm*%
%TO.CVal,Y14870R01000B9R*%
%TO.CLbN,Foil_Resistors*%
%TO.CMnt,SMD*%
%TO.CRot,0*%
X338885001Y-54255000D03*
D11*
X342810001Y-52170000D02*
X342810001Y-56340000D01*
X334960001Y-56340000D01*
X334960001Y-52170000D01*
X342810001Y-52170000D01*
D13*
%TO.P,R52,E1*%
X335900001Y-55525000D03*
%TO.P,R52,E2*%
X341870001Y-52985000D03*
%TO.P,R52,I1*%
X336030001Y-53420000D03*
%TO.P,R52,I2*%
X341740001Y-55090000D03*
%TD*%
D10*
%TO.C,R27*%
%TO.CFtp,R_0603_1608Metric*%
%TO.CVal,1k*%
%TO.CLbN,Resistor_SMD*%
%TO.CMnt,SMD*%
%TO.CRot,-90*%
X249735001Y-295204999D03*
D11*
X250460001Y-293729999D02*
X250460001Y-296679999D01*
X249010001Y-296679999D01*
X249010001Y-293729999D01*
X250460001Y-293729999D01*
D12*
%TO.P,R27,1*%
X249735001Y-294379999D03*
D13*
%TO.P,R27,2*%
X249735001Y-296029999D03*
%TD*%
D10*
%TO.C,L12*%
%TO.CFtp,MSD1583-105*%
%TO.CVal,54.4uH to 81.6uH (CM) 0.79uH Leakage*%
%TO.CLbN,CoilCraft*%
%TO.CMnt,SMD*%
%TO.CRot,90*%
X239025001Y-277899999D03*
D14*
X223625001Y-273199999D02*
X239425001Y-273199999D01*
X239425001Y-267599999D01*
X223625001Y-267599999D01*
X223625001Y-273199999D01*
D12*
%TO.P,L12,1*%
X237825001Y-268549999D03*
D13*
%TO.P,L12,2*%
X237825001Y-272249999D03*
%TO.P,L12,3*%
X225225001Y-272249999D03*
%TO.P,L12,4*%
X225225001Y-268549999D03*
%TD*%
D10*
%TO.C,C82*%
%TO.CFtp,C_0402_1005Metric*%
%TO.CVal,0.1uF*%
%TO.CLbN,Capacitor_SMD*%
%TO.CMnt,SMD*%
%TO.CRot,0*%
X333707501Y-376335000D03*
D11*
X334612501Y-375880000D02*
X334612501Y-376790000D01*
X332802501Y-376790000D01*
X332802501Y-375880000D01*
X334612501Y-375880000D01*
D12*
%TO.P,C82,1*%
X333227501Y-376335000D03*
D13*
%TO.P,C82,2*%
X334187501Y-376335000D03*
%TD*%
D10*
%TO.C,C100*%
%TO.CFtp,C_0402_1005Metric*%
%TO.CVal,1uF*%
%TO.CLbN,Capacitor_SMD*%
%TO.CMnt,SMD*%
%TO.CRot,-90*%
X368300000Y-268439999D03*
D11*
X368755000Y-267534999D02*
X368755000Y-269344999D01*
X367845000Y-269344999D01*
X367845000Y-267534999D01*
X368755000Y-267534999D01*
D12*
%TO.P,C100,1*%
X368300000Y-267959999D03*
D13*
%TO.P,C100,2*%
X368300000Y-268919999D03*
%TD*%
D10*
%TO.C,R109*%
%TO.CFtp,R_0603_1608Metric*%
%TO.CVal,24.9*%
%TO.CLbN,Resistor_SMD*%
%TO.CMnt,SMD*%
%TO.CRot,0*%
X228673200Y-215955000D03*
D11*
X230148200Y-215230000D02*
X230148200Y-216680000D01*
X227198200Y-216680000D01*
X227198200Y-215230000D01*
X230148200Y-215230000D01*
D12*
%TO.P,R109,1*%
X227848200Y-215955000D03*
D13*
%TO.P,R109,2*%
X229498200Y-215955000D03*
%TD*%
D10*
%TO.C,C98*%
%TO.CFtp,C_0603_1608Metric*%
%TO.CVal,1uF*%
%TO.CLbN,Capacitor_SMD*%
%TO.CMnt,SMD*%
%TO.CRot,180*%
X359070000Y-272639999D03*
D11*
X360545000Y-271914999D02*
X360545000Y-273364999D01*
X357595000Y-273364999D01*
X357595000Y-271914999D01*
X360545000Y-271914999D01*
D12*
%TO.P,C98,1*%
X359845000Y-272639999D03*
D13*
%TO.P,C98,2*%
X358295000Y-272639999D03*
%TD*%
D10*
%TO.C,R94*%
%TO.CFtp,R_0603_1608Metric*%
%TO.CVal,24.9*%
%TO.CLbN,Resistor_SMD*%
%TO.CMnt,SMD*%
%TO.CRot,180*%
X355700000Y-272629999D03*
D11*
X357175000Y-271904999D02*
X357175000Y-273354999D01*
X354225000Y-273354999D01*
X354225000Y-271904999D01*
X357175000Y-271904999D01*
D12*
%TO.P,R94,1*%
X356525000Y-272629999D03*
D13*
%TO.P,R94,2*%
X354875000Y-272629999D03*
%TD*%
D10*
%TO.C,M7*%
%TO.CFtp,SSM_TOS*%
%TO.CVal,SSM3K15AFS_LF*%
%TO.CLbN,Toshiba_Semi*%
%TO.CMnt,SMD*%
%TO.CRot,180*%
X258445002Y-312339999D03*
D11*
X259344002Y-310835400D02*
X259344002Y-311690999D01*
X259494002Y-311690999D01*
X259494002Y-312988999D01*
X258844002Y-312988999D01*
X258844002Y-313844598D01*
X258046002Y-313844598D01*
X258046002Y-312988999D01*
X257396002Y-312988999D01*
X257396002Y-311690999D01*
X257546002Y-311690999D01*
X257546002Y-310835400D01*
X259344002Y-310835400D01*
D12*
%TO.P,M7,1,1*%
X258945001Y-311664999D03*
D13*
%TO.P,M7,2,2*%
X257945003Y-311664999D03*
%TO.P,M7,3,3*%
X258445002Y-313014999D03*
%TD*%
D10*
%TO.C,R1*%
%TO.CFtp,R_0603_1608Metric*%
%TO.CVal,10*%
%TO.CLbN,Resistor_SMD*%
%TO.CMnt,SMD*%
%TO.CRot,135*%
X215595001Y-53305000D03*
D11*
X217150635Y-53835330D02*
X216125331Y-54860634D01*
X214039367Y-52774670D01*
X215064671Y-51749366D01*
X217150635Y-53835330D01*
D12*
%TO.P,R1,1*%
X216178364Y-53888363D03*
D13*
%TO.P,R1,2*%
X215011638Y-52721637D03*
%TD*%
D10*
%TO.C,P2*%
%TO.CFtp,conn1_1-1123824-1_TEC*%
%TO.CVal,1-1123824-1*%
%TO.CLbN,TE_Connectivity*%
%TO.CMnt,TH*%
%TO.CRot,90*%
X367580000Y-384730000D03*
D11*
X372104000Y-380081001D02*
X372104000Y-389378999D01*
X363056000Y-389378999D01*
X363056000Y-380081001D01*
X372104000Y-380081001D01*
D12*
%TO.P,P2,1,1*%
X367580000Y-384730000D03*
D13*
%TO.P,P2,*%
X368340000Y-388400000D03*
X368340000Y-381080000D03*
%TD*%
D10*
%TO.C,U8*%
%TO.CFtp,CONV_PDQ30-Q24-S5-D*%
%TO.CVal,PDQ30-Q24-S5-D*%
%TO.CLbN,CUI*%
%TO.CMnt,TH*%
%TO.CRot,90*%
X273992501Y-375490000D03*
D11*
X286937501Y-362545000D02*
X286937501Y-388435000D01*
X261047501Y-388435000D01*
X261047501Y-362545000D01*
X286937501Y-362545000D01*
D12*
%TO.P,U8,1,+VIN*%
X263842501Y-377990000D03*
D13*
%TO.P,U8,2,-VIN*%
X263842501Y-372890000D03*
%TO.P,U8,3,+VOUT*%
X284142501Y-385690000D03*
%TO.P,U8,4,TRIM*%
X284142501Y-375490000D03*
%TO.P,U8,5,-VOUT*%
X284142501Y-365290000D03*
%TO.P,U8,6,REMOTE*%
X263842501Y-365290000D03*
%TD*%
D10*
%TO.C,R78*%
%TO.CFtp,R_0603_1608Metric*%
%TO.CVal,24.9*%
%TO.CLbN,Resistor_SMD*%
%TO.CMnt,SMD*%
%TO.CRot,180*%
X355625850Y-252579999D03*
D11*
X357100850Y-251854999D02*
X357100850Y-253304999D01*
X354150850Y-253304999D01*
X354150850Y-251854999D01*
X357100850Y-251854999D01*
D12*
%TO.P,R78,1*%
X356450850Y-252579999D03*
D13*
%TO.P,R78,2*%
X354800850Y-252579999D03*
%TD*%
D10*
%TO.C,C93*%
%TO.CFtp,C_0603_1608Metric*%
%TO.CVal,1uF*%
%TO.CLbN,Capacitor_SMD*%
%TO.CMnt,SMD*%
%TO.CRot,0*%
X366145850Y-237669999D03*
D11*
X367620850Y-236944999D02*
X367620850Y-238394999D01*
X364670850Y-238394999D01*
X364670850Y-236944999D01*
X367620850Y-236944999D01*
D12*
%TO.P,C93,1*%
X365370850Y-237669999D03*
D13*
%TO.P,C93,2*%
X366920850Y-237669999D03*
%TD*%
D10*
%TO.C,C91*%
%TO.CFtp,C_0402_1005Metric*%
%TO.CVal,1uF*%
%TO.CLbN,Capacitor_SMD*%
%TO.CMnt,SMD*%
%TO.CRot,90*%
X368225850Y-241969999D03*
D11*
X368680850Y-241064999D02*
X368680850Y-242874999D01*
X367770850Y-242874999D01*
X367770850Y-241064999D01*
X368680850Y-241064999D01*
D12*
%TO.P,C91,1*%
X368225850Y-242449999D03*
D13*
%TO.P,C91,2*%
X368225850Y-241489999D03*
%TD*%
D10*
%TO.C,U19*%
%TO.CFtp,SO-14_S_LIT*%
%TO.CVal,LTC2052HV*%
%TO.CLbN,Analog_Devices*%
%TO.CMnt,SMD*%
%TO.CRot,0*%
X362630000Y-265249999D03*
D11*
X364872900Y-260632199D02*
X364872900Y-260924299D01*
X366333400Y-260924299D01*
X366333400Y-269575699D01*
X364872900Y-269575699D01*
X364872900Y-269867799D01*
X360387100Y-269867799D01*
X360387100Y-269575699D01*
X358926600Y-269575699D01*
X358926600Y-260924299D01*
X360387100Y-260924299D01*
X360387100Y-260632199D01*
X364872900Y-260632199D01*
D12*
%TO.P,U19,1,A_Out*%
X359905850Y-261439999D03*
D13*
%TO.P,U19,2,-INA*%
X359905850Y-262709999D03*
%TO.P,U19,3,+INA*%
X359905850Y-263979999D03*
%TO.P,U19,4,VCC*%
X359905850Y-265249999D03*
%TO.P,U19,5,+INB*%
X359905850Y-266519999D03*
%TO.P,U19,6,-INB*%
X359905850Y-267789999D03*
%TO.P,U19,7,B_OUT*%
X359905850Y-269059999D03*
%TO.P,U19,8,C_OUT*%
X365354150Y-269059999D03*
%TO.P,U19,9,-INC*%
X365354150Y-267789999D03*
%TO.P,U19,10,+INC*%
X365354150Y-266519999D03*
%TO.P,U19,11,VSS*%
X365354150Y-265249999D03*
%TO.P,U19,12,+IND*%
X365354150Y-263979999D03*
%TO.P,U19,13,-IND*%
X365354150Y-262709999D03*
%TO.P,U19,14,D_OUT*%
X365354150Y-261439999D03*
%TD*%
D10*
%TO.C,R108*%
%TO.CFtp,R_0603_1608Metric*%
%TO.CVal,24.9*%
%TO.CLbN,Resistor_SMD*%
%TO.CMnt,SMD*%
%TO.CRot,0*%
X229000000Y-205000000D03*
D11*
X230475000Y-204275000D02*
X230475000Y-205725000D01*
X227525000Y-205725000D01*
X227525000Y-204275000D01*
X230475000Y-204275000D01*
D12*
%TO.P,R108,1*%
X228175000Y-205000000D03*
D13*
%TO.P,R108,2*%
X229825000Y-205000000D03*
%TD*%
D10*
%TO.C,F3*%
%TO.CFtp,FUSE_0154010.DRL*%
%TO.CVal,0154010.DRL*%
%TO.CLbN,Little_Fuse*%
%TO.CMnt,SMD*%
%TO.CRot,0*%
X211795001Y-332764999D03*
D11*
X217348601Y-330005399D02*
X217348601Y-335524599D01*
X206241401Y-335524599D01*
X206241401Y-330005399D01*
X217348601Y-330005399D01*
D12*
%TO.P,F3,1*%
X208607301Y-332764999D03*
D13*
%TO.P,F3,2*%
X214982701Y-332764999D03*
%TD*%
D10*
%TO.C,F6*%
%TO.CFtp,0154Series_LTF*%
%TO.CVal,0154002.DR*%
%TO.CLbN,Little_Fuse*%
%TO.CMnt,SMD*%
%TO.CRot,0*%
X209605001Y-276399999D03*
D11*
X214718101Y-273636399D02*
X214718101Y-274245999D01*
X215162601Y-274245999D01*
X215162601Y-278553999D01*
X214718101Y-278553999D01*
X214718101Y-279163599D01*
X204491901Y-279163599D01*
X204491901Y-278553999D01*
X204047401Y-278553999D01*
X204047401Y-274245999D01*
X204491901Y-274245999D01*
X204491901Y-273636399D01*
X214718101Y-273636399D01*
D12*
%TO.P,F6,1,1*%
X206417301Y-276399999D03*
D13*
%TO.P,F6,2,2*%
X212792701Y-276399999D03*
%TD*%
D10*
%TO.C,R36*%
%TO.CFtp,R_0603_1608Metric*%
%TO.CVal,120*%
%TO.CLbN,Resistor_SMD*%
%TO.CMnt,SMD*%
%TO.CRot,180*%
X258563001Y-192633000D03*
D11*
X260038001Y-191908000D02*
X260038001Y-193358000D01*
X257088001Y-193358000D01*
X257088001Y-191908000D01*
X260038001Y-191908000D01*
D12*
%TO.P,R36,1*%
X259388001Y-192633000D03*
D13*
%TO.P,R36,2*%
X257738001Y-192633000D03*
%TD*%
D10*
%TO.C,TP1*%
%TO.CFtp,TestPoint_Keystone_5005-5009_Compact*%
%TO.CVal,5006*%
%TO.CLbN,TestPoint*%
%TO.CMnt,TH*%
%TO.CRot,0*%
X205355001Y-105205000D03*
D11*
X205497505Y-103212548D02*
X205779611Y-103253108D01*
X206053069Y-103333403D01*
X206312321Y-103451799D01*
X206552081Y-103605884D01*
X206767476Y-103792524D01*
X206954116Y-104007919D01*
X207108201Y-104247679D01*
X207226597Y-104506931D01*
X207306892Y-104780389D01*
X207347459Y-105062542D01*
X207350000Y-105205000D01*
X207347459Y-105347457D01*
X207306892Y-105629610D01*
X207226597Y-105903068D01*
X207108201Y-106162320D01*
X206954116Y-106402080D01*
X206767476Y-106617475D01*
X206552081Y-106804115D01*
X206312321Y-106958200D01*
X206053069Y-107076596D01*
X205779611Y-107156891D01*
X205497505Y-107197452D01*
X205212497Y-107197452D01*
X204930390Y-107156891D01*
X204656932Y-107076596D01*
X204397680Y-106958200D01*
X204157920Y-106804115D01*
X203942525Y-106617475D01*
X203755885Y-106402080D01*
X203601800Y-106162320D01*
X203483404Y-105903068D01*
X203403109Y-105629610D01*
X203362549Y-105347503D01*
X203362549Y-105062496D01*
X203403109Y-104780389D01*
X203483404Y-104506931D01*
X203601800Y-104247679D01*
X203755885Y-104007919D01*
X203942525Y-103792524D01*
X204157920Y-103605884D01*
X204397680Y-103451799D01*
X204656932Y-103333403D01*
X204930390Y-103253108D01*
X205212497Y-103212548D01*
X205497505Y-103212548D01*
D12*
%TO.P,TP1,1,1*%
X205355001Y-105205000D03*
%TD*%
D10*
%TO.C,V_SEC_IN1*%
%TO.CFtp,TestPoint_Keystone_5005-5009_Compact*%
%TO.CVal,5005*%
%TO.CLbN,TestPoint*%
%TO.CMnt,TH*%
%TO.CRot,0*%
X221885001Y-336364999D03*
D11*
X222027505Y-334372547D02*
X222309611Y-334413107D01*
X222583069Y-334493402D01*
X222842321Y-334611798D01*
X223082081Y-334765883D01*
X223297476Y-334952523D01*
X223484116Y-335167918D01*
X223638201Y-335407678D01*
X223756597Y-335666930D01*
X223836892Y-335940388D01*
X223877459Y-336222541D01*
X223880000Y-336364999D01*
X223877459Y-336507456D01*
X223836892Y-336789609D01*
X223756597Y-337063067D01*
X223638201Y-337322319D01*
X223484116Y-337562079D01*
X223297476Y-337777474D01*
X223082081Y-337964114D01*
X222842321Y-338118199D01*
X222583069Y-338236595D01*
X222309611Y-338316890D01*
X222027505Y-338357451D01*
X221742497Y-338357451D01*
X221460390Y-338316890D01*
X221186932Y-338236595D01*
X220927680Y-338118199D01*
X220687920Y-337964114D01*
X220472525Y-337777474D01*
X220285885Y-337562079D01*
X220131800Y-337322319D01*
X220013404Y-337063067D01*
X219933109Y-336789609D01*
X219892549Y-336507502D01*
X219892549Y-336222495D01*
X219933109Y-335940388D01*
X220013404Y-335666930D01*
X220131800Y-335407678D01*
X220285885Y-335167918D01*
X220472525Y-334952523D01*
X220687920Y-334765883D01*
X220927680Y-334611798D01*
X221186932Y-334493402D01*
X221460390Y-334413107D01*
X221742497Y-334372547D01*
X222027505Y-334372547D01*
D12*
%TO.P,V_SEC_IN1,1,1*%
X221885001Y-336364999D03*
%TD*%
D10*
%TO.C,C89*%
%TO.CFtp,C_0603_1608Metric*%
%TO.CVal,1uF*%
%TO.CLbN,Capacitor_SMD*%
%TO.CMnt,SMD*%
%TO.CRot,180*%
X358945850Y-237669999D03*
D11*
X360420850Y-236944999D02*
X360420850Y-238394999D01*
X357470850Y-238394999D01*
X357470850Y-236944999D01*
X360420850Y-236944999D01*
D12*
%TO.P,C89,1*%
X359720850Y-237669999D03*
D13*
%TO.P,C89,2*%
X358170850Y-237669999D03*
%TD*%
D10*
%TO.C,L9*%
%TO.CFtp,MLC1260*%
%TO.CVal,0.8uH (+/- 20\u0025)*%
%TO.CLbN,CoilCraft*%
%TO.CMnt,SMD*%
%TO.CRot,-90*%
X245470001Y-316074999D03*
D14*
X257470001Y-319974999D02*
X245470001Y-319974999D01*
X245470001Y-322674999D01*
X257470001Y-322674999D01*
X257470001Y-319974999D01*
D12*
%TO.P,L9,1,1*%
X247470001Y-321324999D03*
D13*
%TO.P,L9,2,2*%
X255470001Y-321324999D03*
%TD*%
D10*
%TO.C,R79*%
%TO.CFtp,R_0603_1608Metric*%
%TO.CVal,24.9*%
%TO.CLbN,Resistor_SMD*%
%TO.CMnt,SMD*%
%TO.CRot,180*%
X358995850Y-239429999D03*
D11*
X360470850Y-238704999D02*
X360470850Y-240154999D01*
X357520850Y-240154999D01*
X357520850Y-238704999D01*
X360470850Y-238704999D01*
D12*
%TO.P,R79,1*%
X359820850Y-239429999D03*
D13*
%TO.P,R79,2*%
X358170850Y-239429999D03*
%TD*%
D10*
%TO.C,R69*%
%TO.CFtp,R_0603_1608Metric*%
%TO.CVal,24.9*%
%TO.CLbN,Resistor_SMD*%
%TO.CMnt,SMD*%
%TO.CRot,0*%
X298140000Y-189490000D03*
D11*
X299615000Y-188765000D02*
X299615000Y-190215000D01*
X296665000Y-190215000D01*
X296665000Y-188765000D01*
X299615000Y-188765000D01*
D12*
%TO.P,R69,1*%
X297315000Y-189490000D03*
D13*
%TO.P,R69,2*%
X298965000Y-189490000D03*
%TD*%
D10*
%TO.C,U5*%
%TO.CFtp,SOT-3_ST_LIT*%
%TO.CVal,LT3080EST-PBF*%
%TO.CLbN,Analog_Devices*%
%TO.CMnt,SMD*%
%TO.CRot,180*%
X337762501Y-319894999D03*
D11*
X340742001Y-315645499D02*
X340742001Y-317791799D01*
X341364301Y-317791799D01*
X341364301Y-321998199D01*
X339586301Y-321998199D01*
X339586301Y-324144499D01*
X335938701Y-324144499D01*
X335938701Y-321998199D01*
X334160701Y-321998199D01*
X334160701Y-317791799D01*
X334783001Y-317791799D01*
X334783001Y-315645499D01*
X340742001Y-315645499D01*
D12*
%TO.P,U5,1,SET*%
X340073901Y-316402499D03*
D13*
%TO.P,U5,2,OUT*%
X337762501Y-316402499D03*
%TO.P,U5,3,IN*%
X335451101Y-316402499D03*
%TO.P,U5,4,TAB*%
X337762501Y-323394999D03*
%TD*%
D10*
%TO.C,C45*%
%TO.CFtp,C_0603_1608Metric*%
%TO.CVal,0.1uF*%
%TO.CLbN,Capacitor_SMD*%
%TO.CMnt,SMD*%
%TO.CRot,90*%
X344452501Y-319714999D03*
D11*
X345177501Y-318239999D02*
X345177501Y-321189999D01*
X343727501Y-321189999D01*
X343727501Y-318239999D01*
X345177501Y-318239999D01*
D12*
%TO.P,C45,1*%
X344452501Y-320489999D03*
D13*
%TO.P,C45,2*%
X344452501Y-318939999D03*
%TD*%
D10*
%TO.C,C111*%
%TO.CFtp,CP_EIA-3216-12_Kemet-S*%
%TO.CVal,10uF*%
%TO.CLbN,Capacitor_Tantalum_SMD*%
%TO.CMnt,SMD*%
%TO.CRot,90*%
X274205001Y-270479999D03*
D11*
X275250001Y-268174999D02*
X275250001Y-272784999D01*
X273160001Y-272784999D01*
X273160001Y-268174999D01*
X275250001Y-268174999D01*
D12*
%TO.P,C111,1*%
X274205001Y-271832499D03*
D13*
%TO.P,C111,2*%
X274205001Y-269127499D03*
%TD*%
D10*
%TO.C,R75*%
%TO.CFtp,R_0402_1005Metric*%
%TO.CVal,(DNI)*%
%TO.CLbN,Resistor_SMD*%
%TO.CMnt,SMD*%
%TO.CRot,-90*%
X355715850Y-241959999D03*
D11*
X356180850Y-241034999D02*
X356180850Y-242884999D01*
X355250850Y-242884999D01*
X355250850Y-241034999D01*
X356180850Y-241034999D01*
D12*
%TO.P,R75,1*%
X355715850Y-241449999D03*
D13*
%TO.P,R75,2*%
X355715850Y-242469999D03*
%TD*%
D10*
%TO.C,C76*%
%TO.CFtp,C_0402_1005Metric*%
%TO.CVal,0.1uF*%
%TO.CLbN,Capacitor_SMD*%
%TO.CMnt,SMD*%
%TO.CRot,0*%
X358025001Y-327355000D03*
D11*
X358930001Y-326900000D02*
X358930001Y-327810000D01*
X357120001Y-327810000D01*
X357120001Y-326900000D01*
X358930001Y-326900000D01*
D12*
%TO.P,C76,1*%
X357545001Y-327355000D03*
D13*
%TO.P,C76,2*%
X358505001Y-327355000D03*
%TD*%
D10*
%TO.C,F2*%
%TO.CFtp,FUSE_0154010.DRL*%
%TO.CVal,0154010.DRL*%
%TO.CLbN,Little_Fuse*%
%TO.CMnt,SMD*%
%TO.CRot,0*%
X207655001Y-117315000D03*
D11*
X213208601Y-114555400D02*
X213208601Y-120074600D01*
X202101401Y-120074600D01*
X202101401Y-114555400D01*
X213208601Y-114555400D01*
D12*
%TO.P,F2,1*%
X204467301Y-117315000D03*
D13*
%TO.P,F2,2*%
X210842701Y-117315000D03*
%TD*%
D10*
%TO.C,R86*%
%TO.CFtp,R_0603_1608Metric*%
%TO.CVal,24.9*%
%TO.CLbN,Resistor_SMD*%
%TO.CMnt,SMD*%
%TO.CRot,0*%
X369445850Y-252589999D03*
D11*
X370920850Y-251864999D02*
X370920850Y-253314999D01*
X367970850Y-253314999D01*
X367970850Y-251864999D01*
X370920850Y-251864999D01*
D12*
%TO.P,R86,1*%
X368620850Y-252589999D03*
D13*
%TO.P,R86,2*%
X370270850Y-252589999D03*
%TD*%
D10*
%TO.C,R55*%
%TO.CFtp,Y14870R01000B9R_10mOhm*%
%TO.CVal,Y14870R01000B9R*%
%TO.CLbN,Foil_Resistors*%
%TO.CMnt,SMD*%
%TO.CRot,0*%
X338995001Y-114115000D03*
D11*
X342920001Y-112030000D02*
X342920001Y-116200000D01*
X335070001Y-116200000D01*
X335070001Y-112030000D01*
X342920001Y-112030000D01*
D13*
%TO.P,R55,E1*%
X336010001Y-115385000D03*
%TO.P,R55,E2*%
X341980001Y-112845000D03*
%TO.P,R55,I1*%
X336140001Y-113280000D03*
%TO.P,R55,I2*%
X341850001Y-114950000D03*
%TD*%
D10*
%TO.C,R72*%
%TO.CFtp,R_0603_1608Metric*%
%TO.CVal,24.9*%
%TO.CLbN,Resistor_SMD*%
%TO.CMnt,SMD*%
%TO.CRot,0*%
X329257501Y-382675000D03*
D11*
X330732501Y-381950000D02*
X330732501Y-383400000D01*
X327782501Y-383400000D01*
X327782501Y-381950000D01*
X330732501Y-381950000D01*
D12*
%TO.P,R72,1*%
X328432501Y-382675000D03*
D13*
%TO.P,R72,2*%
X330082501Y-382675000D03*
%TD*%
D10*
%TO.C,R65*%
%TO.CFtp,R_0603_1608Metric*%
%TO.CVal,24.9*%
%TO.CLbN,Resistor_SMD*%
%TO.CMnt,SMD*%
%TO.CRot,-90*%
X354517501Y-348575000D03*
D11*
X355242501Y-347100000D02*
X355242501Y-350050000D01*
X353792501Y-350050000D01*
X353792501Y-347100000D01*
X355242501Y-347100000D01*
D12*
%TO.P,R65,1*%
X354517501Y-347750000D03*
D13*
%TO.P,R65,2*%
X354517501Y-349400000D03*
%TD*%
D10*
%TO.C,U4*%
%TO.CFtp,SOT-3_ST_LIT*%
%TO.CVal,LT3080EST-PBF*%
%TO.CLbN,Analog_Devices*%
%TO.CMnt,SMD*%
%TO.CRot,180*%
X337802501Y-336614999D03*
D11*
X340782001Y-332365499D02*
X340782001Y-334511799D01*
X341404301Y-334511799D01*
X341404301Y-338718199D01*
X339626301Y-338718199D01*
X339626301Y-340864499D01*
X335978701Y-340864499D01*
X335978701Y-338718199D01*
X334200701Y-338718199D01*
X334200701Y-334511799D01*
X334823001Y-334511799D01*
X334823001Y-332365499D01*
X340782001Y-332365499D01*
D12*
%TO.P,U4,1,SET*%
X340113901Y-333122499D03*
D13*
%TO.P,U4,2,OUT*%
X337802501Y-333122499D03*
%TO.P,U4,3,IN*%
X335491101Y-333122499D03*
%TO.P,U4,4,TAB*%
X337802501Y-340114999D03*
%TD*%
D10*
%TO.C,R97*%
%TO.CFtp,R_0402_1005Metric*%
%TO.CVal,(DNI)*%
%TO.CLbN,Resistor_SMD*%
%TO.CMnt,SMD*%
%TO.CRot,90*%
X369490000Y-268469999D03*
D11*
X369955000Y-267544999D02*
X369955000Y-269394999D01*
X369025000Y-269394999D01*
X369025000Y-267544999D01*
X369955000Y-267544999D01*
D12*
%TO.P,R97,1*%
X369490000Y-268979999D03*
D13*
%TO.P,R97,2*%
X369490000Y-267959999D03*
%TD*%
D10*
%TO.C,R73*%
%TO.CFtp,R_0402_1005Metric*%
%TO.CVal,(DNI)*%
%TO.CLbN,Resistor_SMD*%
%TO.CMnt,SMD*%
%TO.CRot,90*%
X355685850Y-248339999D03*
D11*
X356150850Y-247414999D02*
X356150850Y-249264999D01*
X355220850Y-249264999D01*
X355220850Y-247414999D01*
X356150850Y-247414999D01*
D12*
%TO.P,R73,1*%
X355685850Y-248849999D03*
D13*
%TO.P,R73,2*%
X355685850Y-247829999D03*
%TD*%
D10*
%TO.C,R41*%
%TO.CFtp,R_0603_1608Metric*%
%TO.CVal,10*%
%TO.CLbN,Resistor_SMD*%
%TO.CMnt,SMD*%
%TO.CRot,135*%
X223481638Y-376416637D03*
D11*
X225037272Y-376946967D02*
X224011968Y-377972271D01*
X221926004Y-375886307D01*
X222951308Y-374861003D01*
X225037272Y-376946967D01*
D12*
%TO.P,R41,1*%
X224065001Y-377000000D03*
D13*
%TO.P,R41,2*%
X222898275Y-375833274D03*
%TD*%
D10*
%TO.C,C2*%
%TO.CFtp,CP_EIA-3216-12_Kemet-S*%
%TO.CVal,10uF*%
%TO.CLbN,Capacitor_Tantalum_SMD*%
%TO.CMnt,SMD*%
%TO.CRot,90*%
X258055001Y-52495000D03*
D11*
X259100001Y-50190000D02*
X259100001Y-54800000D01*
X257010001Y-54800000D01*
X257010001Y-50190000D01*
X259100001Y-50190000D01*
D12*
%TO.P,C2,1*%
X258055001Y-53847500D03*
D13*
%TO.P,C2,2*%
X258055001Y-51142500D03*
%TD*%
D10*
%TO.C,C42*%
%TO.CFtp,CP_EIA-7343-15_Kemet-W*%
%TO.CVal,10uF*%
%TO.CLbN,Capacitor_Tantalum_SMD*%
%TO.CMnt,SMD*%
%TO.CRot,180*%
X334672501Y-327514999D03*
D11*
X339077501Y-325119999D02*
X339077501Y-329909999D01*
X330267501Y-329909999D01*
X330267501Y-325119999D01*
X339077501Y-325119999D01*
D12*
%TO.P,C42,1*%
X337792501Y-327514999D03*
D13*
%TO.P,C42,2*%
X331552501Y-327514999D03*
%TD*%
D10*
%TO.C,R32*%
%TO.CFtp,R_0603_1608Metric*%
%TO.CVal,10*%
%TO.CLbN,Resistor_SMD*%
%TO.CMnt,SMD*%
%TO.CRot,135*%
X219471638Y-168481637D03*
D11*
X221027272Y-169011967D02*
X220001968Y-170037271D01*
X217916004Y-167951307D01*
X218941308Y-166926003D01*
X221027272Y-169011967D01*
D12*
%TO.P,R32,1*%
X220055001Y-169065000D03*
D13*
%TO.P,R32,2*%
X218888275Y-167898274D03*
%TD*%
D10*
%TO.C,U9*%
%TO.CFtp,SOT-3_ST_LIT*%
%TO.CVal,LT3080EST-PBF*%
%TO.CLbN,Analog_Devices*%
%TO.CMnt,SMD*%
%TO.CRot,0*%
X330190000Y-246313750D03*
D11*
X332013800Y-242064250D02*
X332013800Y-244210550D01*
X333791800Y-244210550D01*
X333791800Y-248416950D01*
X333169500Y-248416950D01*
X333169500Y-250563250D01*
X327210500Y-250563250D01*
X327210500Y-248416950D01*
X326588200Y-248416950D01*
X326588200Y-244210550D01*
X328366200Y-244210550D01*
X328366200Y-242064250D01*
X332013800Y-242064250D01*
D12*
%TO.P,U9,1,SET*%
X327878600Y-249806250D03*
D13*
%TO.P,U9,2,OUT*%
X330190000Y-249806250D03*
%TO.P,U9,3,IN*%
X332501400Y-249806250D03*
%TO.P,U9,4,TAB*%
X330190000Y-242813750D03*
%TD*%
D10*
%TO.C,C99*%
%TO.CFtp,C_0603_1608Metric*%
%TO.CVal,1uF*%
%TO.CLbN,Capacitor_SMD*%
%TO.CMnt,SMD*%
%TO.CRot,180*%
X359020000Y-257719999D03*
D11*
X360495000Y-256994999D02*
X360495000Y-258444999D01*
X357545000Y-258444999D01*
X357545000Y-256994999D01*
X360495000Y-256994999D01*
D12*
%TO.P,C99,1*%
X359795000Y-257719999D03*
D13*
%TO.P,C99,2*%
X358245000Y-257719999D03*
%TD*%
D10*
%TO.C,C80*%
%TO.CFtp,C_0402_1005Metric*%
%TO.CVal,0.1uF*%
%TO.CLbN,Capacitor_SMD*%
%TO.CMnt,SMD*%
%TO.CRot,0*%
X302590000Y-183150000D03*
D11*
X303495000Y-182695000D02*
X303495000Y-183605000D01*
X301685000Y-183605000D01*
X301685000Y-182695000D01*
X303495000Y-182695000D01*
D12*
%TO.P,C80,1*%
X302110000Y-183150000D03*
D13*
%TO.P,C80,2*%
X303070000Y-183150000D03*
%TD*%
D10*
%TO.C,R105*%
%TO.CFtp,R_0603_1608Metric*%
%TO.CVal,24.9*%
%TO.CLbN,Resistor_SMD*%
%TO.CMnt,SMD*%
%TO.CRot,0*%
X229243200Y-227365000D03*
D11*
X230718200Y-226640000D02*
X230718200Y-228090000D01*
X227768200Y-228090000D01*
X227768200Y-226640000D01*
X230718200Y-226640000D01*
D12*
%TO.P,R105,1*%
X228418200Y-227365000D03*
D13*
%TO.P,R105,2*%
X230068200Y-227365000D03*
%TD*%
D10*
%TO.C,R46*%
%TO.CFtp,R_0603_1608Metric*%
%TO.CVal,15k*%
%TO.CLbN,Resistor_SMD*%
%TO.CMnt,SMD*%
%TO.CRot,90*%
X257005003Y-362779998D03*
D11*
X257730003Y-361304998D02*
X257730003Y-364254998D01*
X256280003Y-364254998D01*
X256280003Y-361304998D01*
X257730003Y-361304998D01*
D12*
%TO.P,R46,1*%
X257005003Y-363604998D03*
D13*
%TO.P,R46,2*%
X257005003Y-361954998D03*
%TD*%
D10*
%TO.C,C37*%
%TO.CFtp,CP_EIA-3216-12_Kemet-S*%
%TO.CVal,10uF*%
%TO.CLbN,Capacitor_Tantalum_SMD*%
%TO.CMnt,SMD*%
%TO.CRot,180*%
X215832501Y-327414999D03*
D11*
X218137501Y-326369999D02*
X218137501Y-328459999D01*
X213527501Y-328459999D01*
X213527501Y-326369999D01*
X218137501Y-326369999D01*
D12*
%TO.P,C37,1*%
X217185001Y-327414999D03*
D13*
%TO.P,C37,2*%
X214480001Y-327414999D03*
%TD*%
D10*
%TO.C,R23*%
%TO.CFtp,R_0603_1608Metric*%
%TO.CVal,120*%
%TO.CLbN,Resistor_SMD*%
%TO.CMnt,SMD*%
%TO.CRot,0*%
X246645001Y-299554999D03*
D11*
X248120001Y-298829999D02*
X248120001Y-300279999D01*
X245170001Y-300279999D01*
X245170001Y-298829999D01*
X248120001Y-298829999D01*
D12*
%TO.P,R23,1*%
X245820001Y-299554999D03*
D13*
%TO.P,R23,2*%
X247470001Y-299554999D03*
%TD*%
D10*
%TO.C,L7*%
%TO.CFtp,MLC1260*%
%TO.CVal,0.8uH (+/- 20\u0025)*%
%TO.CLbN,CoilCraft*%
%TO.CMnt,SMD*%
%TO.CRot,-90*%
X245470001Y-328614999D03*
D14*
X257470001Y-332514999D02*
X245470001Y-332514999D01*
X245470001Y-335214999D01*
X257470001Y-335214999D01*
X257470001Y-332514999D01*
D12*
%TO.P,L7,1,1*%
X247470001Y-333864999D03*
D13*
%TO.P,L7,2,2*%
X255470001Y-333864999D03*
%TD*%
D10*
%TO.C,R34*%
%TO.CFtp,R_0603_1608Metric*%
%TO.CVal,180*%
%TO.CLbN,Resistor_SMD*%
%TO.CMnt,SMD*%
%TO.CRot,0*%
X245755001Y-190785000D03*
D11*
X247230001Y-190060000D02*
X247230001Y-191510000D01*
X244280001Y-191510000D01*
X244280001Y-190060000D01*
X247230001Y-190060000D01*
D12*
%TO.P,R34,1*%
X244930001Y-190785000D03*
D13*
%TO.P,R34,2*%
X246580001Y-190785000D03*
%TD*%
D10*
%TO.C,R66*%
%TO.CFtp,R_0603_1608Metric*%
%TO.CVal,24.9*%
%TO.CLbN,Resistor_SMD*%
%TO.CMnt,SMD*%
%TO.CRot,180*%
X351930000Y-351020000D03*
D11*
X353405000Y-350295000D02*
X353405000Y-351745000D01*
X350455000Y-351745000D01*
X350455000Y-350295000D01*
X353405000Y-350295000D01*
D12*
%TO.P,R66,1*%
X352755000Y-351020000D03*
D13*
%TO.P,R66,2*%
X351105000Y-351020000D03*
%TD*%
D10*
%TO.C,Q2*%
%TO.CFtp,ISP281D_ISO*%
%TO.CVal,ISP281D*%
%TO.CLbN,ISOCOM*%
%TO.CMnt,SMD*%
%TO.CRot,90*%
X263647001Y-130713000D03*
D11*
X264810401Y-126514300D02*
X264810401Y-128165300D01*
X265343801Y-128165300D01*
X265343801Y-133260700D01*
X264810401Y-133260700D01*
X264810401Y-134911700D01*
X262483601Y-134911700D01*
X262483601Y-133260700D01*
X261950201Y-133260700D01*
X261950201Y-128165300D01*
X262483601Y-128165300D01*
X262483601Y-126514300D01*
X264810401Y-126514300D01*
D12*
%TO.P,Q2,1,1*%
X263012001Y-133837200D03*
D13*
%TO.P,Q2,2,2*%
X264282001Y-133837200D03*
%TO.P,Q2,3,3*%
X264282001Y-127588800D03*
%TO.P,Q2,4,4*%
X263012001Y-127588800D03*
%TD*%
D10*
%TO.C,R35*%
%TO.CFtp,R_0603_1608Metric*%
%TO.CVal,15k*%
%TO.CLbN,Resistor_SMD*%
%TO.CMnt,SMD*%
%TO.CRot,0*%
X253785001Y-174805000D03*
D11*
X255260001Y-174080000D02*
X255260001Y-175530000D01*
X252310001Y-175530000D01*
X252310001Y-174080000D01*
X255260001Y-174080000D01*
D12*
%TO.P,R35,1*%
X252960001Y-174805000D03*
D13*
%TO.P,R35,2*%
X254610001Y-174805000D03*
%TD*%
D10*
%TO.C,R56*%
%TO.CFtp,R_0603_1608Metric*%
%TO.CVal,24.9*%
%TO.CLbN,Resistor_SMD*%
%TO.CMnt,SMD*%
%TO.CRot,-90*%
X335425001Y-123525000D03*
D11*
X336150001Y-122050000D02*
X336150001Y-125000000D01*
X334700001Y-125000000D01*
X334700001Y-122050000D01*
X336150001Y-122050000D01*
D12*
%TO.P,R56,1*%
X335425001Y-122700000D03*
D13*
%TO.P,R56,2*%
X335425001Y-124350000D03*
%TD*%
D10*
%TO.C,C101*%
%TO.CFtp,C_0402_1005Metric*%
%TO.CVal,1uF*%
%TO.CLbN,Capacitor_SMD*%
%TO.CMnt,SMD*%
%TO.CRot,90*%
X368300000Y-262019999D03*
D11*
X368755000Y-261114999D02*
X368755000Y-262924999D01*
X367845000Y-262924999D01*
X367845000Y-261114999D01*
X368755000Y-261114999D01*
D12*
%TO.P,C101,1*%
X368300000Y-262499999D03*
D13*
%TO.P,C101,2*%
X368300000Y-261539999D03*
%TD*%
D10*
%TO.C,R80*%
%TO.CFtp,R_0603_1608Metric*%
%TO.CVal,24.9*%
%TO.CLbN,Resistor_SMD*%
%TO.CMnt,SMD*%
%TO.CRot,180*%
X355345850Y-237669999D03*
D11*
X356820850Y-236944999D02*
X356820850Y-238394999D01*
X353870850Y-238394999D01*
X353870850Y-236944999D01*
X356820850Y-236944999D01*
D12*
%TO.P,R80,1*%
X356170850Y-237669999D03*
D13*
%TO.P,R80,2*%
X354520850Y-237669999D03*
%TD*%
D10*
%TO.C,J1*%
%TO.CFtp,618009231221*%
%TO.CVal,618009231221*%
%TO.CLbN,Wurth_Elektronik*%
%TO.CMnt,TH*%
%TO.CRot,-90*%
X188185001Y-53370000D03*
D11*
X197680001Y-37675000D02*
X197680001Y-69065000D01*
X184770001Y-69065000D01*
X184770001Y-37675000D01*
X197680001Y-37675000D01*
D12*
%TO.P,J1,1*%
X195905001Y-47830000D03*
D13*
%TO.P,J1,2*%
X195905001Y-50600000D03*
%TO.P,J1,3*%
X195905001Y-53370000D03*
%TO.P,J1,4*%
X195905001Y-56140000D03*
%TO.P,J1,5*%
X195905001Y-58910000D03*
%TO.P,J1,6*%
X193065001Y-49215000D03*
%TO.P,J1,7*%
X193065001Y-51985000D03*
%TO.P,J1,8*%
X193065001Y-54755000D03*
%TO.P,J1,9*%
X193065001Y-57525000D03*
%TO.P,J1,S1*%
X194485001Y-40870000D03*
%TO.P,J1,S2*%
X194485001Y-65870000D03*
%TD*%
D10*
%TO.C,TELEM_PWR1*%
%TO.CFtp,TestPoint_Keystone_5005-5009_Compact*%
%TO.CVal,5005*%
%TO.CLbN,TestPoint*%
%TO.CMnt,TH*%
%TO.CRot,0*%
X258595001Y-81255000D03*
D11*
X258737505Y-79262548D02*
X259019611Y-79303108D01*
X259293069Y-79383403D01*
X259552321Y-79501799D01*
X259792081Y-79655884D01*
X260007476Y-79842524D01*
X260194116Y-80057919D01*
X260348201Y-80297679D01*
X260466597Y-80556931D01*
X260546892Y-80830389D01*
X260587459Y-81112542D01*
X260590000Y-81255000D01*
X260587459Y-81397457D01*
X260546892Y-81679610D01*
X260466597Y-81953068D01*
X260348201Y-82212320D01*
X260194116Y-82452080D01*
X260007476Y-82667475D01*
X259792081Y-82854115D01*
X259552321Y-83008200D01*
X259293069Y-83126596D01*
X259019611Y-83206891D01*
X258737505Y-83247452D01*
X258452497Y-83247452D01*
X258170390Y-83206891D01*
X257896932Y-83126596D01*
X257637680Y-83008200D01*
X257397920Y-82854115D01*
X257182525Y-82667475D01*
X256995885Y-82452080D01*
X256841800Y-82212320D01*
X256723404Y-81953068D01*
X256643109Y-81679610D01*
X256602549Y-81397503D01*
X256602549Y-81112496D01*
X256643109Y-80830389D01*
X256723404Y-80556931D01*
X256841800Y-80297679D01*
X256995885Y-80057919D01*
X257182525Y-79842524D01*
X257397920Y-79655884D01*
X257637680Y-79501799D01*
X257896932Y-79383403D01*
X258170390Y-79303108D01*
X258452497Y-79262548D01*
X258737505Y-79262548D01*
D12*
%TO.P,TELEM_PWR1,1,1*%
X258595001Y-81255000D03*
%TD*%
D10*
%TO.C,L10*%
%TO.CFtp,MSD1583-105*%
%TO.CVal,54.4uH to 81.6uH (CM) 0.79uH Leakage*%
%TO.CLbN,CoilCraft*%
%TO.CMnt,SMD*%
%TO.CRot,90*%
X242465001Y-174915000D03*
D14*
X227065001Y-170215000D02*
X242865001Y-170215000D01*
X242865001Y-164615000D01*
X227065001Y-164615000D01*
X227065001Y-170215000D01*
D12*
%TO.P,L10,1*%
X241265001Y-165565000D03*
D13*
%TO.P,L10,2*%
X241265001Y-169265000D03*
%TO.P,L10,3*%
X228665001Y-169265000D03*
%TO.P,L10,4*%
X228665001Y-165565000D03*
%TD*%
D10*
%TO.C,SEC_PWR2*%
%TO.CFtp,TestPoint_Keystone_5005-5009_Compact*%
%TO.CVal,5005*%
%TO.CLbN,TestPoint*%
%TO.CMnt,TH*%
%TO.CRot,0*%
X257225001Y-141125000D03*
D11*
X257367505Y-139132548D02*
X257649611Y-139173108D01*
X257923069Y-139253403D01*
X258182321Y-139371799D01*
X258422081Y-139525884D01*
X258637476Y-139712524D01*
X258824116Y-139927919D01*
X258978201Y-140167679D01*
X259096597Y-140426931D01*
X259176892Y-140700389D01*
X259217459Y-140982542D01*
X259220000Y-141125000D01*
X259217459Y-141267457D01*
X259176892Y-141549610D01*
X259096597Y-141823068D01*
X258978201Y-142082320D01*
X258824116Y-142322080D01*
X258637476Y-142537475D01*
X258422081Y-142724115D01*
X258182321Y-142878200D01*
X257923069Y-142996596D01*
X257649611Y-143076891D01*
X257367505Y-143117452D01*
X257082497Y-143117452D01*
X256800390Y-143076891D01*
X256526932Y-142996596D01*
X256267680Y-142878200D01*
X256027920Y-142724115D01*
X255812525Y-142537475D01*
X255625885Y-142322080D01*
X255471800Y-142082320D01*
X255353404Y-141823068D01*
X255273109Y-141549610D01*
X255232549Y-141267503D01*
X255232549Y-140982496D01*
X255273109Y-140700389D01*
X255353404Y-140426931D01*
X255471800Y-140167679D01*
X255625885Y-139927919D01*
X255812525Y-139712524D01*
X256027920Y-139525884D01*
X256267680Y-139371799D01*
X256526932Y-139253403D01*
X256800390Y-139173108D01*
X257082497Y-139132548D01*
X257367505Y-139132548D01*
D12*
%TO.P,SEC_PWR2,1,1*%
X257225001Y-141125000D03*
%TD*%
D10*
%TO.C,R33*%
%TO.CFtp,R_0603_1608Metric*%
%TO.CVal,(DNP)*%
%TO.CLbN,Resistor_SMD*%
%TO.CMnt,SMD*%
%TO.CRot,-90*%
X284705001Y-162175000D03*
D11*
X285430001Y-160700000D02*
X285430001Y-163650000D01*
X283980001Y-163650000D01*
X283980001Y-160700000D01*
X285430001Y-160700000D01*
D12*
%TO.P,R33,1*%
X284705001Y-161350000D03*
D13*
%TO.P,R33,2*%
X284705001Y-163000000D03*
%TD*%
D10*
%TO.C,J5*%
%TO.CFtp,618009231221*%
%TO.CVal,618009231221*%
%TO.CLbN,Wurth_Elektronik*%
%TO.CMnt,TH*%
%TO.CRot,-90*%
X188185001Y-270834999D03*
D11*
X197680001Y-255139999D02*
X197680001Y-286529999D01*
X184770001Y-286529999D01*
X184770001Y-255139999D01*
X197680001Y-255139999D01*
D12*
%TO.P,J5,1*%
X195905001Y-265294999D03*
D13*
%TO.P,J5,2*%
X195905001Y-268064999D03*
%TO.P,J5,3*%
X195905001Y-270834999D03*
%TO.P,J5,4*%
X195905001Y-273604999D03*
%TO.P,J5,5*%
X195905001Y-276374999D03*
%TO.P,J5,6*%
X193065001Y-266679999D03*
%TO.P,J5,7*%
X193065001Y-269449999D03*
%TO.P,J5,8*%
X193065001Y-272219999D03*
%TO.P,J5,9*%
X193065001Y-274989999D03*
%TO.P,J5,S1*%
X194485001Y-258334999D03*
%TO.P,J5,S2*%
X194485001Y-283334999D03*
%TD*%
D10*
%TO.C,R106*%
%TO.CFtp,R_0603_1608Metric*%
%TO.CVal,330k*%
%TO.CLbN,Resistor_SMD*%
%TO.CMnt,SMD*%
%TO.CRot,90*%
X209053200Y-240635000D03*
D11*
X209778200Y-239160000D02*
X209778200Y-242110000D01*
X208328200Y-242110000D01*
X208328200Y-239160000D01*
X209778200Y-239160000D01*
D12*
%TO.P,R106,1*%
X209053200Y-241460000D03*
D13*
%TO.P,R106,2*%
X209053200Y-239810000D03*
%TD*%
D10*
%TO.C,P1*%
%TO.CFtp,conn1_1-1123824-1_TEC*%
%TO.CVal,1-1123824-1*%
%TO.CLbN,TE_Connectivity*%
%TO.CMnt,TH*%
%TO.CRot,90*%
X367580000Y-374519600D03*
D11*
X372104000Y-369870601D02*
X372104000Y-379168599D01*
X363056000Y-379168599D01*
X363056000Y-369870601D01*
X372104000Y-369870601D01*
D12*
%TO.P,P1,1,1*%
X367580000Y-374519600D03*
D13*
%TO.P,P1,*%
X368340000Y-378189600D03*
X368340000Y-370869600D03*
%TD*%
D10*
%TO.C,U10*%
%TO.CFtp,R_8_ADI*%
%TO.CVal,AD590JRZ*%
%TO.CLbN,Analog_Devices*%
%TO.CMnt,SMD*%
%TO.CRot,180*%
X362519996Y-282579999D03*
D11*
X364762896Y-279829099D02*
X364762896Y-280146599D01*
X366223396Y-280146599D01*
X366223396Y-285013399D01*
X364762896Y-285013399D01*
X364762896Y-285330899D01*
X360277096Y-285330899D01*
X360277096Y-285013399D01*
X358816596Y-285013399D01*
X358816596Y-280146599D01*
X360277096Y-280146599D01*
X360277096Y-279829099D01*
X364762896Y-279829099D01*
D12*
%TO.P,U10,1,NC*%
X364983796Y-284484999D03*
D13*
%TO.P,U10,2,V+*%
X364983796Y-283214999D03*
%TO.P,U10,3,V-*%
X364983796Y-281944999D03*
%TO.P,U10,4,NC*%
X364983796Y-280674999D03*
%TO.P,U10,5,NC*%
X360056196Y-280674999D03*
%TO.P,U10,6,NC*%
X360056196Y-281944999D03*
%TO.P,U10,7,NC*%
X360056196Y-283214999D03*
%TO.P,U10,8,NC*%
X360056196Y-284484999D03*
%TD*%
D10*
%TO.C,R117*%
%TO.CFtp,R_1206_3216Metric*%
%TO.CVal,1k*%
%TO.CLbN,Resistor_SMD*%
%TO.CMnt,SMD*%
%TO.CRot,90*%
X344170000Y-164250000D03*
D11*
X345295000Y-161975000D02*
X345295000Y-166525000D01*
X343045000Y-166525000D01*
X343045000Y-161975000D01*
X345295000Y-161975000D01*
D12*
%TO.P,R117,1*%
X344170000Y-165712500D03*
D13*
%TO.P,R117,2*%
X344170000Y-162787500D03*
%TD*%
D10*
%TO.C,TELEM_RTN1*%
%TO.CFtp,TestPoint_Keystone_5005-5009_Compact*%
%TO.CVal,5006*%
%TO.CLbN,TestPoint*%
%TO.CMnt,TH*%
%TO.CRot,0*%
X239625001Y-81245000D03*
D11*
X239767505Y-79252548D02*
X240049611Y-79293108D01*
X240323069Y-79373403D01*
X240582321Y-79491799D01*
X240822081Y-79645884D01*
X241037476Y-79832524D01*
X241224116Y-80047919D01*
X241378201Y-80287679D01*
X241496597Y-80546931D01*
X241576892Y-80820389D01*
X241617459Y-81102542D01*
X241620000Y-81245000D01*
X241617459Y-81387457D01*
X241576892Y-81669610D01*
X241496597Y-81943068D01*
X241378201Y-82202320D01*
X241224116Y-82442080D01*
X241037476Y-82657475D01*
X240822081Y-82844115D01*
X240582321Y-82998200D01*
X240323069Y-83116596D01*
X240049611Y-83196891D01*
X239767505Y-83237452D01*
X239482497Y-83237452D01*
X239200390Y-83196891D01*
X238926932Y-83116596D01*
X238667680Y-82998200D01*
X238427920Y-82844115D01*
X238212525Y-82657475D01*
X238025885Y-82442080D01*
X237871800Y-82202320D01*
X237753404Y-81943068D01*
X237673109Y-81669610D01*
X237632549Y-81387503D01*
X237632549Y-81102496D01*
X237673109Y-80820389D01*
X237753404Y-80546931D01*
X237871800Y-80287679D01*
X238025885Y-80047919D01*
X238212525Y-79832524D01*
X238427920Y-79645884D01*
X238667680Y-79491799D01*
X238926932Y-79373403D01*
X239200390Y-79293108D01*
X239482497Y-79252548D01*
X239767505Y-79252548D01*
D12*
%TO.P,TELEM_RTN1,1,1*%
X239625001Y-81245000D03*
%TD*%
D10*
%TO.C,R91*%
%TO.CFtp,R_0402_1005Metric*%
%TO.CVal,(DNI)*%
%TO.CLbN,Resistor_SMD*%
%TO.CMnt,SMD*%
%TO.CRot,-90*%
X355790000Y-262009999D03*
D11*
X356255000Y-261084999D02*
X356255000Y-262934999D01*
X355325000Y-262934999D01*
X355325000Y-261084999D01*
X356255000Y-261084999D01*
D12*
%TO.P,R91,1*%
X355790000Y-261499999D03*
D13*
%TO.P,R91,2*%
X355790000Y-262519999D03*
%TD*%
D10*
%TO.C,5V_RTN1*%
%TO.CFtp,TestPoint_Keystone_5005-5009_Compact*%
%TO.CVal,5006*%
%TO.CLbN,TestPoint*%
%TO.CMnt,TH*%
%TO.CRot,0*%
X291315001Y-159085000D03*
D11*
X291457505Y-157092548D02*
X291739611Y-157133108D01*
X292013069Y-157213403D01*
X292272321Y-157331799D01*
X292512081Y-157485884D01*
X292727476Y-157672524D01*
X292914116Y-157887919D01*
X293068201Y-158127679D01*
X293186597Y-158386931D01*
X293266892Y-158660389D01*
X293307459Y-158942542D01*
X293310000Y-159085000D01*
X293307459Y-159227457D01*
X293266892Y-159509610D01*
X293186597Y-159783068D01*
X293068201Y-160042320D01*
X292914116Y-160282080D01*
X292727476Y-160497475D01*
X292512081Y-160684115D01*
X292272321Y-160838200D01*
X292013069Y-160956596D01*
X291739611Y-161036891D01*
X291457505Y-161077452D01*
X291172497Y-161077452D01*
X290890390Y-161036891D01*
X290616932Y-160956596D01*
X290357680Y-160838200D01*
X290117920Y-160684115D01*
X289902525Y-160497475D01*
X289715885Y-160282080D01*
X289561800Y-160042320D01*
X289443404Y-159783068D01*
X289363109Y-159509610D01*
X289322549Y-159227503D01*
X289322549Y-158942496D01*
X289363109Y-158660389D01*
X289443404Y-158386931D01*
X289561800Y-158127679D01*
X289715885Y-157887919D01*
X289902525Y-157672524D01*
X290117920Y-157485884D01*
X290357680Y-157331799D01*
X290616932Y-157213403D01*
X290890390Y-157133108D01*
X291172497Y-157092548D01*
X291457505Y-157092548D01*
D12*
%TO.P,5V_RTN1,1,1*%
X291315001Y-159085000D03*
%TD*%
D10*
%TO.C,R7*%
%TO.CFtp,R_0603_1608Metric*%
%TO.CVal,4.99k*%
%TO.CLbN,Resistor_SMD*%
%TO.CMnt,SMD*%
%TO.CRot,0*%
X265045001Y-65435000D03*
D11*
X266520001Y-64710000D02*
X266520001Y-66160000D01*
X263570001Y-66160000D01*
X263570001Y-64710000D01*
X266520001Y-64710000D01*
D12*
%TO.P,R7,1*%
X264220001Y-65435000D03*
D13*
%TO.P,R7,2*%
X265870001Y-65435000D03*
%TD*%
D10*
%TO.C,R9*%
%TO.CFtp,R_0603_1608Metric*%
%TO.CVal,1k*%
%TO.CLbN,Resistor_SMD*%
%TO.CMnt,SMD*%
%TO.CRot,90*%
X246135001Y-77275000D03*
D11*
X246860001Y-75800000D02*
X246860001Y-78750000D01*
X245410001Y-78750000D01*
X245410001Y-75800000D01*
X246860001Y-75800000D01*
D12*
%TO.P,R9,1*%
X246135001Y-78100000D03*
D13*
%TO.P,R9,2*%
X246135001Y-76450000D03*
%TD*%
D10*
%TO.C,J4*%
%TO.CFtp,618009231221*%
%TO.CVal,618009231221*%
%TO.CLbN,Wurth_Elektronik*%
%TO.CMnt,TH*%
%TO.CRot,-90*%
X188185001Y-166075000D03*
D11*
X197680001Y-150380000D02*
X197680001Y-181770000D01*
X184770001Y-181770000D01*
X184770001Y-150380000D01*
X197680001Y-150380000D01*
D12*
%TO.P,J4,1*%
X195905001Y-160535000D03*
D13*
%TO.P,J4,2*%
X195905001Y-163305000D03*
%TO.P,J4,3*%
X195905001Y-166075000D03*
%TO.P,J4,4*%
X195905001Y-168845000D03*
%TO.P,J4,5*%
X195905001Y-171615000D03*
%TO.P,J4,6*%
X193065001Y-161920000D03*
%TO.P,J4,7*%
X193065001Y-164690000D03*
%TO.P,J4,8*%
X193065001Y-167460000D03*
%TO.P,J4,9*%
X193065001Y-170230000D03*
%TO.P,J4,S1*%
X194485001Y-153575000D03*
%TO.P,J4,S2*%
X194485001Y-178575000D03*
%TD*%
D10*
%TO.C,3.3V1*%
%TO.CFtp,TestPoint_Keystone_5005-5009_Compact*%
%TO.CVal,5005*%
%TO.CLbN,TestPoint*%
%TO.CMnt,TH*%
%TO.CRot,0*%
X343474001Y-342274999D03*
D11*
X343616505Y-340282547D02*
X343898611Y-340323107D01*
X344172069Y-340403402D01*
X344431321Y-340521798D01*
X344671081Y-340675883D01*
X344886476Y-340862523D01*
X345073116Y-341077918D01*
X345227201Y-341317678D01*
X345345597Y-341576930D01*
X345425892Y-341850388D01*
X345466459Y-342132541D01*
X345469000Y-342274999D01*
X345466459Y-342417456D01*
X345425892Y-342699609D01*
X345345597Y-342973067D01*
X345227201Y-343232319D01*
X345073116Y-343472079D01*
X344886476Y-343687474D01*
X344671081Y-343874114D01*
X344431321Y-344028199D01*
X344172069Y-344146595D01*
X343898611Y-344226890D01*
X343616505Y-344267451D01*
X343331497Y-344267451D01*
X343049390Y-344226890D01*
X342775932Y-344146595D01*
X342516680Y-344028199D01*
X342276920Y-343874114D01*
X342061525Y-343687474D01*
X341874885Y-343472079D01*
X341720800Y-343232319D01*
X341602404Y-342973067D01*
X341522109Y-342699609D01*
X341481549Y-342417502D01*
X341481549Y-342132495D01*
X341522109Y-341850388D01*
X341602404Y-341576930D01*
X341720800Y-341317678D01*
X341874885Y-341077918D01*
X342061525Y-340862523D01*
X342276920Y-340675883D01*
X342516680Y-340521798D01*
X342775932Y-340403402D01*
X343049390Y-340323107D01*
X343331497Y-340282547D01*
X343616505Y-340282547D01*
D12*
%TO.P,3.3V1,1,1*%
X343474001Y-342274999D03*
%TD*%
D10*
%TO.C,R39*%
%TO.CFtp,R_0603_1608Metric*%
%TO.CVal,835*%
%TO.CLbN,Resistor_SMD*%
%TO.CMnt,SMD*%
%TO.CRot,0*%
X246063001Y-193713000D03*
D11*
X247538001Y-192988000D02*
X247538001Y-194438000D01*
X244588001Y-194438000D01*
X244588001Y-192988000D01*
X247538001Y-192988000D01*
D12*
%TO.P,R39,1*%
X245238001Y-193713000D03*
D13*
%TO.P,R39,2*%
X246888001Y-193713000D03*
%TD*%
D10*
%TO.C,C108*%
%TO.CFtp,C_0603_1608Metric*%
%TO.CVal,0.1uF*%
%TO.CLbN,Capacitor_SMD*%
%TO.CMnt,SMD*%
%TO.CRot,-90*%
X207313200Y-240635000D03*
D11*
X208038200Y-239160000D02*
X208038200Y-242110000D01*
X206588200Y-242110000D01*
X206588200Y-239160000D01*
X208038200Y-239160000D01*
D12*
%TO.P,C108,1*%
X207313200Y-239860000D03*
D13*
%TO.P,C108,2*%
X207313200Y-241410000D03*
%TD*%
D10*
%TO.C,M6*%
%TO.CFtp,SSM_TOS*%
%TO.CVal,SSM3K15AFS_LF*%
%TO.CLbN,Toshiba_Semi*%
%TO.CMnt,SMD*%
%TO.CRot,0*%
X263685001Y-122545000D03*
D11*
X264084001Y-121040401D02*
X264084001Y-121896000D01*
X264734001Y-121896000D01*
X264734001Y-123194000D01*
X264584001Y-123194000D01*
X264584001Y-124049599D01*
X262786001Y-124049599D01*
X262786001Y-123194000D01*
X262636001Y-123194000D01*
X262636001Y-121896000D01*
X263286001Y-121896000D01*
X263286001Y-121040401D01*
X264084001Y-121040401D01*
D12*
%TO.P,M6,1,1*%
X263185002Y-123220000D03*
D13*
%TO.P,M6,2,2*%
X264185000Y-123220000D03*
%TO.P,M6,3,3*%
X263685001Y-121870000D03*
%TD*%
D10*
%TO.C,R63*%
%TO.CFtp,R_0603_1608Metric*%
%TO.CVal,24.9*%
%TO.CLbN,Resistor_SMD*%
%TO.CMnt,SMD*%
%TO.CRot,0*%
X353575001Y-333695000D03*
D11*
X355050001Y-332970000D02*
X355050001Y-334420000D01*
X352100001Y-334420000D01*
X352100001Y-332970000D01*
X355050001Y-332970000D01*
D12*
%TO.P,R63,1*%
X352750001Y-333695000D03*
D13*
%TO.P,R63,2*%
X354400001Y-333695000D03*
%TD*%
D10*
%TO.C,U1*%
%TO.CFtp,PRC60-24-S12*%
%TO.CVal,PRC60-24-S12*%
%TO.CLbN,CUI*%
%TO.CMnt,TH*%
%TO.CRot,0*%
X285555001Y-47425000D03*
D11*
X311200001Y-34480000D02*
X311200001Y-60370000D01*
X259910001Y-60370000D01*
X259910001Y-34480000D01*
X311200001Y-34480000D01*
D12*
%TO.P,U1,1,+VIN*%
X262695001Y-55045000D03*
D13*
%TO.P,U1,2,-VIN*%
X262695001Y-49965000D03*
%TO.P,U1,3,CTRL*%
X262695001Y-39805000D03*
%TO.P,U1,4,+VOUT*%
X308415001Y-57585000D03*
%TO.P,U1,5,-VOUT*%
X308415001Y-47425000D03*
%TO.P,U1,6,TRIM*%
X308415001Y-37265000D03*
%TD*%
D10*
%TO.C,C74*%
%TO.CFtp,C_0402_1005Metric*%
%TO.CVal,0.1uF*%
%TO.CLbN,Capacitor_SMD*%
%TO.CMnt,SMD*%
%TO.CRot,0*%
X324885001Y-338625000D03*
D11*
X325790001Y-338170000D02*
X325790001Y-339080000D01*
X323980001Y-339080000D01*
X323980001Y-338170000D01*
X325790001Y-338170000D01*
D12*
%TO.P,C74,1*%
X324405001Y-338625000D03*
D13*
%TO.P,C74,2*%
X325365001Y-338625000D03*
%TD*%
D10*
%TO.C,C3*%
%TO.CFtp,CP_EIA-3216-12_Kemet-S*%
%TO.CVal,10uF*%
%TO.CLbN,Capacitor_Tantalum_SMD*%
%TO.CMnt,SMD*%
%TO.CRot,90*%
X313505001Y-52065000D03*
D11*
X314550001Y-49760000D02*
X314550001Y-54370000D01*
X312460001Y-54370000D01*
X312460001Y-49760000D01*
X314550001Y-49760000D01*
D12*
%TO.P,C3,1*%
X313505001Y-53417500D03*
D13*
%TO.P,C3,2*%
X313505001Y-50712500D03*
%TD*%
D10*
%TO.C,C104*%
%TO.CFtp,C_0402_1005Metric*%
%TO.CVal,1uF*%
%TO.CLbN,Capacitor_SMD*%
%TO.CMnt,SMD*%
%TO.CRot,180*%
X205743200Y-213965000D03*
D11*
X206648200Y-213510000D02*
X206648200Y-214420000D01*
X204838200Y-214420000D01*
X204838200Y-213510000D01*
X206648200Y-213510000D01*
D12*
%TO.P,C104,1*%
X206223200Y-213965000D03*
D13*
%TO.P,C104,2*%
X205263200Y-213965000D03*
%TD*%
D10*
%TO.C,C24*%
%TO.CFtp,CP_EIA-3216-12_Kemet-S*%
%TO.CVal,10uF*%
%TO.CLbN,Capacitor_Tantalum_SMD*%
%TO.CMnt,SMD*%
%TO.CRot,180*%
X209575001Y-112605000D03*
D11*
X211880001Y-111560000D02*
X211880001Y-113650000D01*
X207270001Y-113650000D01*
X207270001Y-111560000D01*
X211880001Y-111560000D01*
D12*
%TO.P,C24,1*%
X210927501Y-112605000D03*
D13*
%TO.P,C24,2*%
X208222501Y-112605000D03*
%TD*%
D10*
%TO.C,M4*%
%TO.CFtp,ES6_TOS*%
%TO.CVal,SSM6N35FE\u002CLM*%
%TO.CLbN,Toshiba_Semi*%
%TO.CMnt,SMD*%
%TO.CRot,180*%
X251383001Y-193133000D03*
D11*
X252228901Y-192083900D02*
X252228901Y-192249000D01*
X252711501Y-192249000D01*
X252711501Y-194017000D01*
X252228901Y-194017000D01*
X252228901Y-194182100D01*
X250537101Y-194182100D01*
X250537101Y-194017000D01*
X250054501Y-194017000D01*
X250054501Y-192249000D01*
X250537101Y-192249000D01*
X250537101Y-192083900D01*
X252228901Y-192083900D01*
D12*
%TO.P,M4,1,1S*%
X252145001Y-193641000D03*
D13*
%TO.P,M4,2,1G*%
X252145001Y-193133000D03*
%TO.P,M4,3,2D*%
X252145001Y-192625000D03*
%TO.P,M4,4,2S*%
X250621001Y-192625000D03*
%TO.P,M4,5,2G*%
X250621001Y-193133000D03*
%TO.P,M4,6,1D*%
X250621001Y-193641000D03*
%TD*%
D10*
%TO.C,R71*%
%TO.CFtp,R_0603_1608Metric*%
%TO.CVal,24.9*%
%TO.CLbN,Resistor_SMD*%
%TO.CMnt,SMD*%
%TO.CRot,-90*%
X330197501Y-380015000D03*
D11*
X330922501Y-378540000D02*
X330922501Y-381490000D01*
X329472501Y-381490000D01*
X329472501Y-378540000D01*
X330922501Y-378540000D01*
D12*
%TO.P,R71,1*%
X330197501Y-379190000D03*
D13*
%TO.P,R71,2*%
X330197501Y-380840000D03*
%TD*%
D10*
%TO.C,R19*%
%TO.CFtp,R_0603_1608Metric*%
%TO.CVal,10*%
%TO.CLbN,Resistor_SMD*%
%TO.CMnt,SMD*%
%TO.CRot,135*%
X220735001Y-329444999D03*
D11*
X222290635Y-329975329D02*
X221265331Y-331000633D01*
X219179367Y-328914669D01*
X220204671Y-327889365D01*
X222290635Y-329975329D01*
D12*
%TO.P,R19,1*%
X221318364Y-330028362D03*
D13*
%TO.P,R19,2*%
X220151638Y-328861636D03*
%TD*%
D10*
%TO.C,R95*%
%TO.CFtp,R_0603_1608Metric*%
%TO.CVal,24.9*%
%TO.CLbN,Resistor_SMD*%
%TO.CMnt,SMD*%
%TO.CRot,180*%
X359070000Y-259479999D03*
D11*
X360545000Y-258754999D02*
X360545000Y-260204999D01*
X357595000Y-260204999D01*
X357595000Y-258754999D01*
X360545000Y-258754999D01*
D12*
%TO.P,R95,1*%
X359895000Y-259479999D03*
D13*
%TO.P,R95,2*%
X358245000Y-259479999D03*
%TD*%
D10*
%TO.C,V_SEC_RTN1*%
%TO.CFtp,TestPoint_Keystone_5005-5009_Compact*%
%TO.CVal,5006*%
%TO.CLbN,TestPoint*%
%TO.CMnt,TH*%
%TO.CRot,0*%
X209135001Y-320864999D03*
D11*
X209277505Y-318872547D02*
X209559611Y-318913107D01*
X209833069Y-318993402D01*
X210092321Y-319111798D01*
X210332081Y-319265883D01*
X210547476Y-319452523D01*
X210734116Y-319667918D01*
X210888201Y-319907678D01*
X211006597Y-320166930D01*
X211086892Y-320440388D01*
X211127459Y-320722541D01*
X211130000Y-320864999D01*
X211127459Y-321007456D01*
X211086892Y-321289609D01*
X211006597Y-321563067D01*
X210888201Y-321822319D01*
X210734116Y-322062079D01*
X210547476Y-322277474D01*
X210332081Y-322464114D01*
X210092321Y-322618199D01*
X209833069Y-322736595D01*
X209559611Y-322816890D01*
X209277505Y-322857451D01*
X208992497Y-322857451D01*
X208710390Y-322816890D01*
X208436932Y-322736595D01*
X208177680Y-322618199D01*
X207937920Y-322464114D01*
X207722525Y-322277474D01*
X207535885Y-322062079D01*
X207381800Y-321822319D01*
X207263404Y-321563067D01*
X207183109Y-321289609D01*
X207142549Y-321007502D01*
X207142549Y-320722495D01*
X207183109Y-320440388D01*
X207263404Y-320166930D01*
X207381800Y-319907678D01*
X207535885Y-319667918D01*
X207722525Y-319452523D01*
X207937920Y-319265883D01*
X208177680Y-319111798D01*
X208436932Y-318993402D01*
X208710390Y-318913107D01*
X208992497Y-318872547D01*
X209277505Y-318872547D01*
D12*
%TO.P,V_SEC_RTN1,1,1*%
X209135001Y-320864999D03*
%TD*%
D10*
%TO.C,R12*%
%TO.CFtp,R_0603_1608Metric*%
%TO.CVal,180*%
%TO.CLbN,Resistor_SMD*%
%TO.CMnt,SMD*%
%TO.CRot,-90*%
X258587001Y-134213000D03*
D11*
X259312001Y-132738000D02*
X259312001Y-135688000D01*
X257862001Y-135688000D01*
X257862001Y-132738000D01*
X259312001Y-132738000D01*
D12*
%TO.P,R12,1*%
X258587001Y-133388000D03*
D13*
%TO.P,R12,2*%
X258587001Y-135038000D03*
%TD*%
D10*
%TO.C,C30*%
%TO.CFtp,CP_EIA-3216-12_Kemet-S*%
%TO.CVal,10uF*%
%TO.CLbN,Capacitor_Tantalum_SMD*%
%TO.CMnt,SMD*%
%TO.CRot,90*%
X319075001Y-327572499D03*
D11*
X320120001Y-325267499D02*
X320120001Y-329877499D01*
X318030001Y-329877499D01*
X318030001Y-325267499D01*
X320120001Y-325267499D01*
D12*
%TO.P,C30,1*%
X319075001Y-328924999D03*
D13*
%TO.P,C30,2*%
X319075001Y-326219999D03*
%TD*%
D10*
%TO.C,R49*%
%TO.CFtp,R_0603_1608Metric*%
%TO.CVal,1k*%
%TO.CLbN,Resistor_SMD*%
%TO.CMnt,SMD*%
%TO.CRot,-90*%
X246715001Y-348370000D03*
D11*
X247440001Y-346895000D02*
X247440001Y-349845000D01*
X245990001Y-349845000D01*
X245990001Y-346895000D01*
X247440001Y-346895000D01*
D12*
%TO.P,R49,1*%
X246715001Y-347545000D03*
D13*
%TO.P,R49,2*%
X246715001Y-349195000D03*
%TD*%
D10*
%TO.C,SEC_RTN4*%
%TO.CFtp,TestPoint_Keystone_5005-5009_Compact*%
%TO.CVal,5006*%
%TO.CLbN,TestPoint*%
%TO.CMnt,TH*%
%TO.CRot,0*%
X295325001Y-367020000D03*
D11*
X295467505Y-365027548D02*
X295749611Y-365068108D01*
X296023069Y-365148403D01*
X296282321Y-365266799D01*
X296522081Y-365420884D01*
X296737476Y-365607524D01*
X296924116Y-365822919D01*
X297078201Y-366062679D01*
X297196597Y-366321931D01*
X297276892Y-366595389D01*
X297317459Y-366877542D01*
X297320000Y-367020000D01*
X297317459Y-367162457D01*
X297276892Y-367444610D01*
X297196597Y-367718068D01*
X297078201Y-367977320D01*
X296924116Y-368217080D01*
X296737476Y-368432475D01*
X296522081Y-368619115D01*
X296282321Y-368773200D01*
X296023069Y-368891596D01*
X295749611Y-368971891D01*
X295467505Y-369012452D01*
X295182497Y-369012452D01*
X294900390Y-368971891D01*
X294626932Y-368891596D01*
X294367680Y-368773200D01*
X294127920Y-368619115D01*
X293912525Y-368432475D01*
X293725885Y-368217080D01*
X293571800Y-367977320D01*
X293453404Y-367718068D01*
X293373109Y-367444610D01*
X293332549Y-367162503D01*
X293332549Y-366877496D01*
X293373109Y-366595389D01*
X293453404Y-366321931D01*
X293571800Y-366062679D01*
X293725885Y-365822919D01*
X293912525Y-365607524D01*
X294127920Y-365420884D01*
X294367680Y-365266799D01*
X294626932Y-365148403D01*
X294900390Y-365068108D01*
X295182497Y-365027548D01*
X295467505Y-365027548D01*
D12*
%TO.P,SEC_RTN4,1,1*%
X295325001Y-367020000D03*
%TD*%
D10*
%TO.C,C87*%
%TO.CFtp,C_0402_1005Metric*%
%TO.CVal,1uF*%
%TO.CLbN,Capacitor_SMD*%
%TO.CMnt,SMD*%
%TO.CRot,90*%
X356895850Y-241969999D03*
D11*
X357350850Y-241064999D02*
X357350850Y-242874999D01*
X356440850Y-242874999D01*
X356440850Y-241064999D01*
X357350850Y-241064999D01*
D12*
%TO.P,C87,1*%
X356895850Y-242449999D03*
D13*
%TO.P,C87,2*%
X356895850Y-241489999D03*
%TD*%
D10*
%TO.C,R18*%
%TO.CFtp,R_0603_1608Metric*%
%TO.CVal,1k*%
%TO.CLbN,Resistor_SMD*%
%TO.CMnt,SMD*%
%TO.CRot,90*%
X244765001Y-137145000D03*
D11*
X245490001Y-135670000D02*
X245490001Y-138620000D01*
X244040001Y-138620000D01*
X244040001Y-135670000D01*
X245490001Y-135670000D01*
D12*
%TO.P,R18,1*%
X244765001Y-137970000D03*
D13*
%TO.P,R18,2*%
X244765001Y-136320000D03*
%TD*%
D10*
%TO.C,U7*%
%TO.CFtp,CONV_PDQ30-Q24-S5-D*%
%TO.CVal,PDQ30-Q24-S5-D*%
%TO.CLbN,CUI*%
%TO.CMnt,TH*%
%TO.CRot,90*%
X269982501Y-167555000D03*
D11*
X282927501Y-154610000D02*
X282927501Y-180500000D01*
X257037501Y-180500000D01*
X257037501Y-154610000D01*
X282927501Y-154610000D01*
D12*
%TO.P,U7,1,+VIN*%
X259832501Y-170055000D03*
D13*
%TO.P,U7,2,-VIN*%
X259832501Y-164955000D03*
%TO.P,U7,3,+VOUT*%
X280132501Y-177755000D03*
%TO.P,U7,4,TRIM*%
X280132501Y-167555000D03*
%TO.P,U7,5,-VOUT*%
X280132501Y-157355000D03*
%TO.P,U7,6,REMOTE*%
X259832501Y-157355000D03*
%TD*%
D10*
%TO.C,R59*%
%TO.CFtp,R_0603_1608Metric*%
%TO.CVal,24.9*%
%TO.CLbN,Resistor_SMD*%
%TO.CMnt,SMD*%
%TO.CRot,-90*%
X321375001Y-342305000D03*
D11*
X322100001Y-340830000D02*
X322100001Y-343780000D01*
X320650001Y-343780000D01*
X320650001Y-340830000D01*
X322100001Y-340830000D01*
D12*
%TO.P,R59,1*%
X321375001Y-341480000D03*
D13*
%TO.P,R59,2*%
X321375001Y-343130000D03*
%TD*%
D10*
%TO.C,C83*%
%TO.CFtp,C_0603_1608Metric*%
%TO.CVal,1uF*%
%TO.CLbN,Capacitor_SMD*%
%TO.CMnt,SMD*%
%TO.CRot,-90*%
X328427501Y-380015000D03*
D11*
X329152501Y-378540000D02*
X329152501Y-381490000D01*
X327702501Y-381490000D01*
X327702501Y-378540000D01*
X329152501Y-378540000D01*
D12*
%TO.P,C83,1*%
X328427501Y-379240000D03*
D13*
%TO.P,C83,2*%
X328427501Y-380790000D03*
%TD*%
D10*
%TO.C,R61*%
%TO.CFtp,Y14870R01000B9R_10mOhm*%
%TO.CVal,Y14870R01000B9R*%
%TO.CLbN,Foil_Resistors*%
%TO.CMnt,SMD*%
%TO.CRot,0*%
X358085001Y-321625000D03*
D11*
X362010001Y-319540000D02*
X362010001Y-323710000D01*
X354160001Y-323710000D01*
X354160001Y-319540000D01*
X362010001Y-319540000D01*
D13*
%TO.P,R61,E1*%
X355100001Y-322895000D03*
%TO.P,R61,E2*%
X361070001Y-320355000D03*
%TO.P,R61,I1*%
X355230001Y-320790000D03*
%TO.P,R61,I2*%
X360940001Y-322460000D03*
%TD*%
D10*
%TO.C,F4*%
%TO.CFtp,0154Series_LTF*%
%TO.CVal,0154002.DR*%
%TO.CLbN,Little_Fuse*%
%TO.CMnt,SMD*%
%TO.CRot,0*%
X211855001Y-173285000D03*
D11*
X216968101Y-170521400D02*
X216968101Y-171131000D01*
X217412601Y-171131000D01*
X217412601Y-175439000D01*
X216968101Y-175439000D01*
X216968101Y-176048600D01*
X206741901Y-176048600D01*
X206741901Y-175439000D01*
X206297401Y-175439000D01*
X206297401Y-171131000D01*
X206741901Y-171131000D01*
X206741901Y-170521400D01*
X216968101Y-170521400D01*
D12*
%TO.P,F4,1,1*%
X208667301Y-173285000D03*
D13*
%TO.P,F4,2,2*%
X215042701Y-173285000D03*
%TD*%
D10*
%TO.C,C43*%
%TO.CFtp,CP_EIA-7343-15_Kemet-W*%
%TO.CVal,10uF*%
%TO.CLbN,Capacitor_Tantalum_SMD*%
%TO.CMnt,SMD*%
%TO.CRot,180*%
X334664001Y-344124999D03*
D11*
X339069001Y-341729999D02*
X339069001Y-346519999D01*
X330259001Y-346519999D01*
X330259001Y-341729999D01*
X339069001Y-341729999D01*
D12*
%TO.P,C43,1*%
X337784001Y-344124999D03*
D13*
%TO.P,C43,2*%
X331544001Y-344124999D03*
%TD*%
D10*
%TO.C,LED5*%
%TO.CFtp,LED_0AS75000_WRE*%
%TO.CVal,150060GS75000*%
%TO.CLbN,Wurth_Elektronik*%
%TO.CMnt,SMD*%
%TO.CRot,180*%
X245805001Y-352560000D03*
D11*
X246904901Y-351866500D02*
X246904901Y-353253500D01*
X244705101Y-353253500D01*
X244705101Y-351866500D01*
X246904901Y-351866500D01*
D12*
%TO.P,LED5,1*%
X246433651Y-352560000D03*
D13*
%TO.P,LED5,2*%
X245176351Y-352560000D03*
%TD*%
D10*
%TO.C,R58*%
%TO.CFtp,Y14870R01000B9R_10mOhm*%
%TO.CVal,Y14870R01000B9R*%
%TO.CLbN,Foil_Resistors*%
%TO.CMnt,SMD*%
%TO.CRot,0*%
X324945001Y-332895000D03*
D11*
X328870001Y-330810000D02*
X328870001Y-334980000D01*
X321020001Y-334980000D01*
X321020001Y-330810000D01*
X328870001Y-330810000D01*
D13*
%TO.P,R58,E1*%
X321960001Y-334165000D03*
%TO.P,R58,E2*%
X327930001Y-331625000D03*
%TO.P,R58,I1*%
X322090001Y-332060000D03*
%TO.P,R58,I2*%
X327800001Y-333730000D03*
%TD*%
D10*
%TO.C,R92*%
%TO.CFtp,R_0402_1005Metric*%
%TO.CVal,10k*%
%TO.CLbN,Resistor_SMD*%
%TO.CMnt,SMD*%
%TO.CRot,90*%
X358080000Y-262029999D03*
D11*
X358545000Y-261104999D02*
X358545000Y-262954999D01*
X357615000Y-262954999D01*
X357615000Y-261104999D01*
X358545000Y-261104999D01*
D12*
%TO.P,R92,1*%
X358080000Y-262539999D03*
D13*
%TO.P,R92,2*%
X358080000Y-261519999D03*
%TD*%
D10*
%TO.C,R83*%
%TO.CFtp,R_0402_1005Metric*%
%TO.CVal,(DNI)*%
%TO.CLbN,Resistor_SMD*%
%TO.CMnt,SMD*%
%TO.CRot,-90*%
X369415850Y-241969999D03*
D11*
X369880850Y-241044999D02*
X369880850Y-242894999D01*
X368950850Y-242894999D01*
X368950850Y-241044999D01*
X369880850Y-241044999D01*
D12*
%TO.P,R83,1*%
X369415850Y-241459999D03*
D13*
%TO.P,R83,2*%
X369415850Y-242479999D03*
%TD*%
D10*
%TO.C,SEC_RTN3*%
%TO.CFtp,TestPoint_Keystone_5005-5009_Compact*%
%TO.CVal,5006*%
%TO.CLbN,TestPoint*%
%TO.CMnt,TH*%
%TO.CRot,0*%
X238255001Y-141115000D03*
D11*
X238397505Y-139122548D02*
X238679611Y-139163108D01*
X238953069Y-139243403D01*
X239212321Y-139361799D01*
X239452081Y-139515884D01*
X239667476Y-139702524D01*
X239854116Y-139917919D01*
X240008201Y-140157679D01*
X240126597Y-140416931D01*
X240206892Y-140690389D01*
X240247459Y-140972542D01*
X240250000Y-141115000D01*
X240247459Y-141257457D01*
X240206892Y-141539610D01*
X240126597Y-141813068D01*
X240008201Y-142072320D01*
X239854116Y-142312080D01*
X239667476Y-142527475D01*
X239452081Y-142714115D01*
X239212321Y-142868200D01*
X238953069Y-142986596D01*
X238679611Y-143066891D01*
X238397505Y-143107452D01*
X238112497Y-143107452D01*
X237830390Y-143066891D01*
X237556932Y-142986596D01*
X237297680Y-142868200D01*
X237057920Y-142714115D01*
X236842525Y-142527475D01*
X236655885Y-142312080D01*
X236501800Y-142072320D01*
X236383404Y-141813068D01*
X236303109Y-141539610D01*
X236262549Y-141257503D01*
X236262549Y-140972496D01*
X236303109Y-140690389D01*
X236383404Y-140416931D01*
X236501800Y-140157679D01*
X236655885Y-139917919D01*
X236842525Y-139702524D01*
X237057920Y-139515884D01*
X237297680Y-139361799D01*
X237556932Y-139243403D01*
X237830390Y-139163108D01*
X238112497Y-139122548D01*
X238397505Y-139122548D01*
D12*
%TO.P,SEC_RTN3,1,1*%
X238255001Y-141115000D03*
%TD*%
D15*
X400000000Y-395000000D02*
G75*
G02*
X395000000Y-400000000I-5000000J0D01*
G01*
X185000000Y-25000000D02*
X185000000Y-395000000D01*
X190000000Y-400010009D02*
X395000000Y-400000000D01*
X190000000Y-400010009D02*
G75*
G02*
X185000001Y-395000000I0J5000009D01*
G01*
X185000000Y-25000000D02*
G75*
G02*
X190000000Y-20000000I5000000J0D01*
G01*
X400000000Y-395000000D02*
X400000000Y-25000000D01*
X395000000Y-20000000D02*
G75*
G02*
X400000000Y-25000000I0J-5000000D01*
G01*
X190000000Y-20000000D02*
X395000000Y-20000000D01*
M02*
