%TF.GenerationSoftware,KiCad,Pcbnew,9.0.3*%
%TF.CreationDate,2025-09-16T14:08:45-04:00*%
%TF.ProjectId,11_CPU_PDU,31315f43-5055-45f5-9044-552e6b696361,rev?*%
%TF.SameCoordinates,Original*%
%TF.FileFunction,Legend,Bot*%
%TF.FilePolarity,Positive*%
%FSLAX46Y46*%
G04 Gerber Fmt 4.6, Leading zero omitted, Abs format (unit mm)*
G04 Created by KiCad (PCBNEW 9.0.3) date 2025-09-16 14:08:45*
%MOMM*%
%LPD*%
G01*
G04 APERTURE LIST*
%ADD10C,0.150000*%
%ADD11C,0.508000*%
%ADD12C,0.120000*%
%ADD13C,0.200000*%
G04 APERTURE END LIST*
D10*
X285452735Y-169922855D02*
X285488450Y-169887141D01*
X285488450Y-169887141D02*
X285524164Y-169779998D01*
X285524164Y-169779998D02*
X285524164Y-169708570D01*
X285524164Y-169708570D02*
X285488450Y-169601427D01*
X285488450Y-169601427D02*
X285417021Y-169529998D01*
X285417021Y-169529998D02*
X285345592Y-169494284D01*
X285345592Y-169494284D02*
X285202735Y-169458570D01*
X285202735Y-169458570D02*
X285095592Y-169458570D01*
X285095592Y-169458570D02*
X284952735Y-169494284D01*
X284952735Y-169494284D02*
X284881307Y-169529998D01*
X284881307Y-169529998D02*
X284809878Y-169601427D01*
X284809878Y-169601427D02*
X284774164Y-169708570D01*
X284774164Y-169708570D02*
X284774164Y-169779998D01*
X284774164Y-169779998D02*
X284809878Y-169887141D01*
X284809878Y-169887141D02*
X284845592Y-169922855D01*
X284774164Y-170601427D02*
X284774164Y-170244284D01*
X284774164Y-170244284D02*
X285131307Y-170208570D01*
X285131307Y-170208570D02*
X285095592Y-170244284D01*
X285095592Y-170244284D02*
X285059878Y-170315713D01*
X285059878Y-170315713D02*
X285059878Y-170494284D01*
X285059878Y-170494284D02*
X285095592Y-170565713D01*
X285095592Y-170565713D02*
X285131307Y-170601427D01*
X285131307Y-170601427D02*
X285202735Y-170637141D01*
X285202735Y-170637141D02*
X285381307Y-170637141D01*
X285381307Y-170637141D02*
X285452735Y-170601427D01*
X285452735Y-170601427D02*
X285488450Y-170565713D01*
X285488450Y-170565713D02*
X285524164Y-170494284D01*
X285524164Y-170494284D02*
X285524164Y-170315713D01*
X285524164Y-170315713D02*
X285488450Y-170244284D01*
X285488450Y-170244284D02*
X285452735Y-170208570D01*
X284774164Y-171101427D02*
X284774164Y-171172856D01*
X284774164Y-171172856D02*
X284809878Y-171244284D01*
X284809878Y-171244284D02*
X284845592Y-171279999D01*
X284845592Y-171279999D02*
X284917021Y-171315713D01*
X284917021Y-171315713D02*
X285059878Y-171351427D01*
X285059878Y-171351427D02*
X285238450Y-171351427D01*
X285238450Y-171351427D02*
X285381307Y-171315713D01*
X285381307Y-171315713D02*
X285452735Y-171279999D01*
X285452735Y-171279999D02*
X285488450Y-171244284D01*
X285488450Y-171244284D02*
X285524164Y-171172856D01*
X285524164Y-171172856D02*
X285524164Y-171101427D01*
X285524164Y-171101427D02*
X285488450Y-171029999D01*
X285488450Y-171029999D02*
X285452735Y-170994284D01*
X285452735Y-170994284D02*
X285381307Y-170958570D01*
X285381307Y-170958570D02*
X285238450Y-170922856D01*
X285238450Y-170922856D02*
X285059878Y-170922856D01*
X285059878Y-170922856D02*
X284917021Y-170958570D01*
X284917021Y-170958570D02*
X284845592Y-170994284D01*
X284845592Y-170994284D02*
X284809878Y-171029999D01*
X284809878Y-171029999D02*
X284774164Y-171101427D01*
X334955595Y-373046819D02*
X334955595Y-373856342D01*
X334955595Y-373856342D02*
X334907976Y-373951580D01*
X334907976Y-373951580D02*
X334860357Y-373999200D01*
X334860357Y-373999200D02*
X334765119Y-374046819D01*
X334765119Y-374046819D02*
X334574643Y-374046819D01*
X334574643Y-374046819D02*
X334479405Y-373999200D01*
X334479405Y-373999200D02*
X334431786Y-373951580D01*
X334431786Y-373951580D02*
X334384167Y-373856342D01*
X334384167Y-373856342D02*
X334384167Y-373046819D01*
X333384167Y-374046819D02*
X333955595Y-374046819D01*
X333669881Y-374046819D02*
X333669881Y-373046819D01*
X333669881Y-373046819D02*
X333765119Y-373189676D01*
X333765119Y-373189676D02*
X333860357Y-373284914D01*
X333860357Y-373284914D02*
X333955595Y-373332533D01*
X333050833Y-373046819D02*
X332384167Y-373046819D01*
X332384167Y-373046819D02*
X332812738Y-374046819D01*
X328745236Y-375175713D02*
X328780951Y-375139999D01*
X328780951Y-375139999D02*
X328816665Y-375032856D01*
X328816665Y-375032856D02*
X328816665Y-374961428D01*
X328816665Y-374961428D02*
X328780951Y-374854285D01*
X328780951Y-374854285D02*
X328709522Y-374782856D01*
X328709522Y-374782856D02*
X328638093Y-374747142D01*
X328638093Y-374747142D02*
X328495236Y-374711428D01*
X328495236Y-374711428D02*
X328388093Y-374711428D01*
X328388093Y-374711428D02*
X328245236Y-374747142D01*
X328245236Y-374747142D02*
X328173808Y-374782856D01*
X328173808Y-374782856D02*
X328102379Y-374854285D01*
X328102379Y-374854285D02*
X328066665Y-374961428D01*
X328066665Y-374961428D02*
X328066665Y-375032856D01*
X328066665Y-375032856D02*
X328102379Y-375139999D01*
X328102379Y-375139999D02*
X328138093Y-375175713D01*
X328816665Y-375889999D02*
X328816665Y-375461428D01*
X328816665Y-375675713D02*
X328066665Y-375675713D01*
X328066665Y-375675713D02*
X328173808Y-375604285D01*
X328173808Y-375604285D02*
X328245236Y-375532856D01*
X328245236Y-375532856D02*
X328280951Y-375461428D01*
X328138093Y-376175714D02*
X328102379Y-376211428D01*
X328102379Y-376211428D02*
X328066665Y-376282857D01*
X328066665Y-376282857D02*
X328066665Y-376461428D01*
X328066665Y-376461428D02*
X328102379Y-376532857D01*
X328102379Y-376532857D02*
X328138093Y-376568571D01*
X328138093Y-376568571D02*
X328209522Y-376604285D01*
X328209522Y-376604285D02*
X328280951Y-376604285D01*
X328280951Y-376604285D02*
X328388093Y-376568571D01*
X328388093Y-376568571D02*
X328816665Y-376139999D01*
X328816665Y-376139999D02*
X328816665Y-376604285D01*
X328816665Y-376961428D02*
X328816665Y-377104285D01*
X328816665Y-377104285D02*
X328780951Y-377175714D01*
X328780951Y-377175714D02*
X328745236Y-377211428D01*
X328745236Y-377211428D02*
X328638093Y-377282857D01*
X328638093Y-377282857D02*
X328495236Y-377318571D01*
X328495236Y-377318571D02*
X328209522Y-377318571D01*
X328209522Y-377318571D02*
X328138093Y-377282857D01*
X328138093Y-377282857D02*
X328102379Y-377247143D01*
X328102379Y-377247143D02*
X328066665Y-377175714D01*
X328066665Y-377175714D02*
X328066665Y-377032857D01*
X328066665Y-377032857D02*
X328102379Y-376961428D01*
X328102379Y-376961428D02*
X328138093Y-376925714D01*
X328138093Y-376925714D02*
X328209522Y-376890000D01*
X328209522Y-376890000D02*
X328388093Y-376890000D01*
X328388093Y-376890000D02*
X328459522Y-376925714D01*
X328459522Y-376925714D02*
X328495236Y-376961428D01*
X328495236Y-376961428D02*
X328530951Y-377032857D01*
X328530951Y-377032857D02*
X328530951Y-377175714D01*
X328530951Y-377175714D02*
X328495236Y-377247143D01*
X328495236Y-377247143D02*
X328459522Y-377282857D01*
X328459522Y-377282857D02*
X328388093Y-377318571D01*
X277574287Y-278569163D02*
X277824287Y-278212020D01*
X278002858Y-278569163D02*
X278002858Y-277819163D01*
X278002858Y-277819163D02*
X277717144Y-277819163D01*
X277717144Y-277819163D02*
X277645715Y-277854877D01*
X277645715Y-277854877D02*
X277610001Y-277890591D01*
X277610001Y-277890591D02*
X277574287Y-277962020D01*
X277574287Y-277962020D02*
X277574287Y-278069163D01*
X277574287Y-278069163D02*
X277610001Y-278140591D01*
X277610001Y-278140591D02*
X277645715Y-278176306D01*
X277645715Y-278176306D02*
X277717144Y-278212020D01*
X277717144Y-278212020D02*
X278002858Y-278212020D01*
X276860001Y-278569163D02*
X277288572Y-278569163D01*
X277074287Y-278569163D02*
X277074287Y-277819163D01*
X277074287Y-277819163D02*
X277145715Y-277926306D01*
X277145715Y-277926306D02*
X277217144Y-277997734D01*
X277217144Y-277997734D02*
X277288572Y-278033449D01*
X276145715Y-278569163D02*
X276574286Y-278569163D01*
X276360001Y-278569163D02*
X276360001Y-277819163D01*
X276360001Y-277819163D02*
X276431429Y-277926306D01*
X276431429Y-277926306D02*
X276502858Y-277997734D01*
X276502858Y-277997734D02*
X276574286Y-278033449D01*
X275860000Y-277890591D02*
X275824286Y-277854877D01*
X275824286Y-277854877D02*
X275752858Y-277819163D01*
X275752858Y-277819163D02*
X275574286Y-277819163D01*
X275574286Y-277819163D02*
X275502858Y-277854877D01*
X275502858Y-277854877D02*
X275467143Y-277890591D01*
X275467143Y-277890591D02*
X275431429Y-277962020D01*
X275431429Y-277962020D02*
X275431429Y-278033449D01*
X275431429Y-278033449D02*
X275467143Y-278140591D01*
X275467143Y-278140591D02*
X275895715Y-278569163D01*
X275895715Y-278569163D02*
X275431429Y-278569163D01*
X258332736Y-49919999D02*
X258368451Y-49884285D01*
X258368451Y-49884285D02*
X258404165Y-49777142D01*
X258404165Y-49777142D02*
X258404165Y-49705714D01*
X258404165Y-49705714D02*
X258368451Y-49598571D01*
X258368451Y-49598571D02*
X258297022Y-49527142D01*
X258297022Y-49527142D02*
X258225593Y-49491428D01*
X258225593Y-49491428D02*
X258082736Y-49455714D01*
X258082736Y-49455714D02*
X257975593Y-49455714D01*
X257975593Y-49455714D02*
X257832736Y-49491428D01*
X257832736Y-49491428D02*
X257761308Y-49527142D01*
X257761308Y-49527142D02*
X257689879Y-49598571D01*
X257689879Y-49598571D02*
X257654165Y-49705714D01*
X257654165Y-49705714D02*
X257654165Y-49777142D01*
X257654165Y-49777142D02*
X257689879Y-49884285D01*
X257689879Y-49884285D02*
X257725593Y-49919999D01*
X258404165Y-50277142D02*
X258404165Y-50419999D01*
X258404165Y-50419999D02*
X258368451Y-50491428D01*
X258368451Y-50491428D02*
X258332736Y-50527142D01*
X258332736Y-50527142D02*
X258225593Y-50598571D01*
X258225593Y-50598571D02*
X258082736Y-50634285D01*
X258082736Y-50634285D02*
X257797022Y-50634285D01*
X257797022Y-50634285D02*
X257725593Y-50598571D01*
X257725593Y-50598571D02*
X257689879Y-50562857D01*
X257689879Y-50562857D02*
X257654165Y-50491428D01*
X257654165Y-50491428D02*
X257654165Y-50348571D01*
X257654165Y-50348571D02*
X257689879Y-50277142D01*
X257689879Y-50277142D02*
X257725593Y-50241428D01*
X257725593Y-50241428D02*
X257797022Y-50205714D01*
X257797022Y-50205714D02*
X257975593Y-50205714D01*
X257975593Y-50205714D02*
X258047022Y-50241428D01*
X258047022Y-50241428D02*
X258082736Y-50277142D01*
X258082736Y-50277142D02*
X258118451Y-50348571D01*
X258118451Y-50348571D02*
X258118451Y-50491428D01*
X258118451Y-50491428D02*
X258082736Y-50562857D01*
X258082736Y-50562857D02*
X258047022Y-50598571D01*
X258047022Y-50598571D02*
X257975593Y-50634285D01*
X308922736Y-111402856D02*
X308958451Y-111367142D01*
X308958451Y-111367142D02*
X308994165Y-111259999D01*
X308994165Y-111259999D02*
X308994165Y-111188571D01*
X308994165Y-111188571D02*
X308958451Y-111081428D01*
X308958451Y-111081428D02*
X308887022Y-111009999D01*
X308887022Y-111009999D02*
X308815593Y-110974285D01*
X308815593Y-110974285D02*
X308672736Y-110938571D01*
X308672736Y-110938571D02*
X308565593Y-110938571D01*
X308565593Y-110938571D02*
X308422736Y-110974285D01*
X308422736Y-110974285D02*
X308351308Y-111009999D01*
X308351308Y-111009999D02*
X308279879Y-111081428D01*
X308279879Y-111081428D02*
X308244165Y-111188571D01*
X308244165Y-111188571D02*
X308244165Y-111259999D01*
X308244165Y-111259999D02*
X308279879Y-111367142D01*
X308279879Y-111367142D02*
X308315593Y-111402856D01*
X308315593Y-111688571D02*
X308279879Y-111724285D01*
X308279879Y-111724285D02*
X308244165Y-111795714D01*
X308244165Y-111795714D02*
X308244165Y-111974285D01*
X308244165Y-111974285D02*
X308279879Y-112045714D01*
X308279879Y-112045714D02*
X308315593Y-112081428D01*
X308315593Y-112081428D02*
X308387022Y-112117142D01*
X308387022Y-112117142D02*
X308458451Y-112117142D01*
X308458451Y-112117142D02*
X308565593Y-112081428D01*
X308565593Y-112081428D02*
X308994165Y-111652856D01*
X308994165Y-111652856D02*
X308994165Y-112117142D01*
X308244165Y-112581428D02*
X308244165Y-112652857D01*
X308244165Y-112652857D02*
X308279879Y-112724285D01*
X308279879Y-112724285D02*
X308315593Y-112760000D01*
X308315593Y-112760000D02*
X308387022Y-112795714D01*
X308387022Y-112795714D02*
X308529879Y-112831428D01*
X308529879Y-112831428D02*
X308708451Y-112831428D01*
X308708451Y-112831428D02*
X308851308Y-112795714D01*
X308851308Y-112795714D02*
X308922736Y-112760000D01*
X308922736Y-112760000D02*
X308958451Y-112724285D01*
X308958451Y-112724285D02*
X308994165Y-112652857D01*
X308994165Y-112652857D02*
X308994165Y-112581428D01*
X308994165Y-112581428D02*
X308958451Y-112510000D01*
X308958451Y-112510000D02*
X308922736Y-112474285D01*
X308922736Y-112474285D02*
X308851308Y-112438571D01*
X308851308Y-112438571D02*
X308708451Y-112402857D01*
X308708451Y-112402857D02*
X308529879Y-112402857D01*
X308529879Y-112402857D02*
X308387022Y-112438571D01*
X308387022Y-112438571D02*
X308315593Y-112474285D01*
X308315593Y-112474285D02*
X308279879Y-112510000D01*
X308279879Y-112510000D02*
X308244165Y-112581428D01*
X353062736Y-326195713D02*
X353098451Y-326159999D01*
X353098451Y-326159999D02*
X353134165Y-326052856D01*
X353134165Y-326052856D02*
X353134165Y-325981428D01*
X353134165Y-325981428D02*
X353098451Y-325874285D01*
X353098451Y-325874285D02*
X353027022Y-325802856D01*
X353027022Y-325802856D02*
X352955593Y-325767142D01*
X352955593Y-325767142D02*
X352812736Y-325731428D01*
X352812736Y-325731428D02*
X352705593Y-325731428D01*
X352705593Y-325731428D02*
X352562736Y-325767142D01*
X352562736Y-325767142D02*
X352491308Y-325802856D01*
X352491308Y-325802856D02*
X352419879Y-325874285D01*
X352419879Y-325874285D02*
X352384165Y-325981428D01*
X352384165Y-325981428D02*
X352384165Y-326052856D01*
X352384165Y-326052856D02*
X352419879Y-326159999D01*
X352419879Y-326159999D02*
X352455593Y-326195713D01*
X353134165Y-326909999D02*
X353134165Y-326481428D01*
X353134165Y-326695713D02*
X352384165Y-326695713D01*
X352384165Y-326695713D02*
X352491308Y-326624285D01*
X352491308Y-326624285D02*
X352562736Y-326552856D01*
X352562736Y-326552856D02*
X352598451Y-326481428D01*
X352455593Y-327195714D02*
X352419879Y-327231428D01*
X352419879Y-327231428D02*
X352384165Y-327302857D01*
X352384165Y-327302857D02*
X352384165Y-327481428D01*
X352384165Y-327481428D02*
X352419879Y-327552857D01*
X352419879Y-327552857D02*
X352455593Y-327588571D01*
X352455593Y-327588571D02*
X352527022Y-327624285D01*
X352527022Y-327624285D02*
X352598451Y-327624285D01*
X352598451Y-327624285D02*
X352705593Y-327588571D01*
X352705593Y-327588571D02*
X353134165Y-327159999D01*
X353134165Y-327159999D02*
X353134165Y-327624285D01*
X352384165Y-328267143D02*
X352384165Y-328124285D01*
X352384165Y-328124285D02*
X352419879Y-328052857D01*
X352419879Y-328052857D02*
X352455593Y-328017143D01*
X352455593Y-328017143D02*
X352562736Y-327945714D01*
X352562736Y-327945714D02*
X352705593Y-327910000D01*
X352705593Y-327910000D02*
X352991308Y-327910000D01*
X352991308Y-327910000D02*
X353062736Y-327945714D01*
X353062736Y-327945714D02*
X353098451Y-327981428D01*
X353098451Y-327981428D02*
X353134165Y-328052857D01*
X353134165Y-328052857D02*
X353134165Y-328195714D01*
X353134165Y-328195714D02*
X353098451Y-328267143D01*
X353098451Y-328267143D02*
X353062736Y-328302857D01*
X353062736Y-328302857D02*
X352991308Y-328338571D01*
X352991308Y-328338571D02*
X352812736Y-328338571D01*
X352812736Y-328338571D02*
X352741308Y-328302857D01*
X352741308Y-328302857D02*
X352705593Y-328267143D01*
X352705593Y-328267143D02*
X352669879Y-328195714D01*
X352669879Y-328195714D02*
X352669879Y-328052857D01*
X352669879Y-328052857D02*
X352705593Y-327981428D01*
X352705593Y-327981428D02*
X352741308Y-327945714D01*
X352741308Y-327945714D02*
X352812736Y-327910000D01*
X363077993Y-247157734D02*
X363113707Y-247193449D01*
X363113707Y-247193449D02*
X363220850Y-247229163D01*
X363220850Y-247229163D02*
X363292278Y-247229163D01*
X363292278Y-247229163D02*
X363399421Y-247193449D01*
X363399421Y-247193449D02*
X363470850Y-247122020D01*
X363470850Y-247122020D02*
X363506564Y-247050591D01*
X363506564Y-247050591D02*
X363542278Y-246907734D01*
X363542278Y-246907734D02*
X363542278Y-246800591D01*
X363542278Y-246800591D02*
X363506564Y-246657734D01*
X363506564Y-246657734D02*
X363470850Y-246586306D01*
X363470850Y-246586306D02*
X363399421Y-246514877D01*
X363399421Y-246514877D02*
X363292278Y-246479163D01*
X363292278Y-246479163D02*
X363220850Y-246479163D01*
X363220850Y-246479163D02*
X363113707Y-246514877D01*
X363113707Y-246514877D02*
X363077993Y-246550591D01*
X362649421Y-246800591D02*
X362720850Y-246764877D01*
X362720850Y-246764877D02*
X362756564Y-246729163D01*
X362756564Y-246729163D02*
X362792278Y-246657734D01*
X362792278Y-246657734D02*
X362792278Y-246622020D01*
X362792278Y-246622020D02*
X362756564Y-246550591D01*
X362756564Y-246550591D02*
X362720850Y-246514877D01*
X362720850Y-246514877D02*
X362649421Y-246479163D01*
X362649421Y-246479163D02*
X362506564Y-246479163D01*
X362506564Y-246479163D02*
X362435136Y-246514877D01*
X362435136Y-246514877D02*
X362399421Y-246550591D01*
X362399421Y-246550591D02*
X362363707Y-246622020D01*
X362363707Y-246622020D02*
X362363707Y-246657734D01*
X362363707Y-246657734D02*
X362399421Y-246729163D01*
X362399421Y-246729163D02*
X362435136Y-246764877D01*
X362435136Y-246764877D02*
X362506564Y-246800591D01*
X362506564Y-246800591D02*
X362649421Y-246800591D01*
X362649421Y-246800591D02*
X362720850Y-246836306D01*
X362720850Y-246836306D02*
X362756564Y-246872020D01*
X362756564Y-246872020D02*
X362792278Y-246943449D01*
X362792278Y-246943449D02*
X362792278Y-247086306D01*
X362792278Y-247086306D02*
X362756564Y-247157734D01*
X362756564Y-247157734D02*
X362720850Y-247193449D01*
X362720850Y-247193449D02*
X362649421Y-247229163D01*
X362649421Y-247229163D02*
X362506564Y-247229163D01*
X362506564Y-247229163D02*
X362435136Y-247193449D01*
X362435136Y-247193449D02*
X362399421Y-247157734D01*
X362399421Y-247157734D02*
X362363707Y-247086306D01*
X362363707Y-247086306D02*
X362363707Y-246943449D01*
X362363707Y-246943449D02*
X362399421Y-246872020D01*
X362399421Y-246872020D02*
X362435136Y-246836306D01*
X362435136Y-246836306D02*
X362506564Y-246800591D01*
X361720850Y-246729163D02*
X361720850Y-247229163D01*
X361899421Y-246443449D02*
X362077992Y-246979163D01*
X362077992Y-246979163D02*
X361613707Y-246979163D01*
X216162486Y-211942735D02*
X216198200Y-211978450D01*
X216198200Y-211978450D02*
X216305343Y-212014164D01*
X216305343Y-212014164D02*
X216376771Y-212014164D01*
X216376771Y-212014164D02*
X216483914Y-211978450D01*
X216483914Y-211978450D02*
X216555343Y-211907021D01*
X216555343Y-211907021D02*
X216591057Y-211835592D01*
X216591057Y-211835592D02*
X216626771Y-211692735D01*
X216626771Y-211692735D02*
X216626771Y-211585592D01*
X216626771Y-211585592D02*
X216591057Y-211442735D01*
X216591057Y-211442735D02*
X216555343Y-211371307D01*
X216555343Y-211371307D02*
X216483914Y-211299878D01*
X216483914Y-211299878D02*
X216376771Y-211264164D01*
X216376771Y-211264164D02*
X216305343Y-211264164D01*
X216305343Y-211264164D02*
X216198200Y-211299878D01*
X216198200Y-211299878D02*
X216162486Y-211335592D01*
X215448200Y-212014164D02*
X215876771Y-212014164D01*
X215662486Y-212014164D02*
X215662486Y-211264164D01*
X215662486Y-211264164D02*
X215733914Y-211371307D01*
X215733914Y-211371307D02*
X215805343Y-211442735D01*
X215805343Y-211442735D02*
X215876771Y-211478450D01*
X214733914Y-212014164D02*
X215162485Y-212014164D01*
X214948200Y-212014164D02*
X214948200Y-211264164D01*
X214948200Y-211264164D02*
X215019628Y-211371307D01*
X215019628Y-211371307D02*
X215091057Y-211442735D01*
X215091057Y-211442735D02*
X215162485Y-211478450D01*
X214269628Y-211264164D02*
X214198199Y-211264164D01*
X214198199Y-211264164D02*
X214126771Y-211299878D01*
X214126771Y-211299878D02*
X214091057Y-211335592D01*
X214091057Y-211335592D02*
X214055342Y-211407021D01*
X214055342Y-211407021D02*
X214019628Y-211549878D01*
X214019628Y-211549878D02*
X214019628Y-211728450D01*
X214019628Y-211728450D02*
X214055342Y-211871307D01*
X214055342Y-211871307D02*
X214091057Y-211942735D01*
X214091057Y-211942735D02*
X214126771Y-211978450D01*
X214126771Y-211978450D02*
X214198199Y-212014164D01*
X214198199Y-212014164D02*
X214269628Y-212014164D01*
X214269628Y-212014164D02*
X214341057Y-211978450D01*
X214341057Y-211978450D02*
X214376771Y-211942735D01*
X214376771Y-211942735D02*
X214412485Y-211871307D01*
X214412485Y-211871307D02*
X214448199Y-211728450D01*
X214448199Y-211728450D02*
X214448199Y-211549878D01*
X214448199Y-211549878D02*
X214412485Y-211407021D01*
X214412485Y-211407021D02*
X214376771Y-211335592D01*
X214376771Y-211335592D02*
X214341057Y-211299878D01*
X214341057Y-211299878D02*
X214269628Y-211264164D01*
X316812736Y-324392855D02*
X316848451Y-324357141D01*
X316848451Y-324357141D02*
X316884165Y-324249998D01*
X316884165Y-324249998D02*
X316884165Y-324178570D01*
X316884165Y-324178570D02*
X316848451Y-324071427D01*
X316848451Y-324071427D02*
X316777022Y-323999998D01*
X316777022Y-323999998D02*
X316705593Y-323964284D01*
X316705593Y-323964284D02*
X316562736Y-323928570D01*
X316562736Y-323928570D02*
X316455593Y-323928570D01*
X316455593Y-323928570D02*
X316312736Y-323964284D01*
X316312736Y-323964284D02*
X316241308Y-323999998D01*
X316241308Y-323999998D02*
X316169879Y-324071427D01*
X316169879Y-324071427D02*
X316134165Y-324178570D01*
X316134165Y-324178570D02*
X316134165Y-324249998D01*
X316134165Y-324249998D02*
X316169879Y-324357141D01*
X316169879Y-324357141D02*
X316205593Y-324392855D01*
X316134165Y-324642855D02*
X316134165Y-325107141D01*
X316134165Y-325107141D02*
X316419879Y-324857141D01*
X316419879Y-324857141D02*
X316419879Y-324964284D01*
X316419879Y-324964284D02*
X316455593Y-325035713D01*
X316455593Y-325035713D02*
X316491308Y-325071427D01*
X316491308Y-325071427D02*
X316562736Y-325107141D01*
X316562736Y-325107141D02*
X316741308Y-325107141D01*
X316741308Y-325107141D02*
X316812736Y-325071427D01*
X316812736Y-325071427D02*
X316848451Y-325035713D01*
X316848451Y-325035713D02*
X316884165Y-324964284D01*
X316884165Y-324964284D02*
X316884165Y-324749998D01*
X316884165Y-324749998D02*
X316848451Y-324678570D01*
X316848451Y-324678570D02*
X316812736Y-324642855D01*
X316205593Y-325392856D02*
X316169879Y-325428570D01*
X316169879Y-325428570D02*
X316134165Y-325499999D01*
X316134165Y-325499999D02*
X316134165Y-325678570D01*
X316134165Y-325678570D02*
X316169879Y-325749999D01*
X316169879Y-325749999D02*
X316205593Y-325785713D01*
X316205593Y-325785713D02*
X316277022Y-325821427D01*
X316277022Y-325821427D02*
X316348451Y-325821427D01*
X316348451Y-325821427D02*
X316455593Y-325785713D01*
X316455593Y-325785713D02*
X316884165Y-325357141D01*
X316884165Y-325357141D02*
X316884165Y-325821427D01*
X333862736Y-58825713D02*
X333898451Y-58789999D01*
X333898451Y-58789999D02*
X333934165Y-58682856D01*
X333934165Y-58682856D02*
X333934165Y-58611428D01*
X333934165Y-58611428D02*
X333898451Y-58504285D01*
X333898451Y-58504285D02*
X333827022Y-58432856D01*
X333827022Y-58432856D02*
X333755593Y-58397142D01*
X333755593Y-58397142D02*
X333612736Y-58361428D01*
X333612736Y-58361428D02*
X333505593Y-58361428D01*
X333505593Y-58361428D02*
X333362736Y-58397142D01*
X333362736Y-58397142D02*
X333291308Y-58432856D01*
X333291308Y-58432856D02*
X333219879Y-58504285D01*
X333219879Y-58504285D02*
X333184165Y-58611428D01*
X333184165Y-58611428D02*
X333184165Y-58682856D01*
X333184165Y-58682856D02*
X333219879Y-58789999D01*
X333219879Y-58789999D02*
X333255593Y-58825713D01*
X333934165Y-59539999D02*
X333934165Y-59111428D01*
X333934165Y-59325713D02*
X333184165Y-59325713D01*
X333184165Y-59325713D02*
X333291308Y-59254285D01*
X333291308Y-59254285D02*
X333362736Y-59182856D01*
X333362736Y-59182856D02*
X333398451Y-59111428D01*
X333255593Y-59825714D02*
X333219879Y-59861428D01*
X333219879Y-59861428D02*
X333184165Y-59932857D01*
X333184165Y-59932857D02*
X333184165Y-60111428D01*
X333184165Y-60111428D02*
X333219879Y-60182857D01*
X333219879Y-60182857D02*
X333255593Y-60218571D01*
X333255593Y-60218571D02*
X333327022Y-60254285D01*
X333327022Y-60254285D02*
X333398451Y-60254285D01*
X333398451Y-60254285D02*
X333505593Y-60218571D01*
X333505593Y-60218571D02*
X333934165Y-59789999D01*
X333934165Y-59789999D02*
X333934165Y-60254285D01*
X333184165Y-60504285D02*
X333184165Y-60968571D01*
X333184165Y-60968571D02*
X333469879Y-60718571D01*
X333469879Y-60718571D02*
X333469879Y-60825714D01*
X333469879Y-60825714D02*
X333505593Y-60897143D01*
X333505593Y-60897143D02*
X333541308Y-60932857D01*
X333541308Y-60932857D02*
X333612736Y-60968571D01*
X333612736Y-60968571D02*
X333791308Y-60968571D01*
X333791308Y-60968571D02*
X333862736Y-60932857D01*
X333862736Y-60932857D02*
X333898451Y-60897143D01*
X333898451Y-60897143D02*
X333934165Y-60825714D01*
X333934165Y-60825714D02*
X333934165Y-60611428D01*
X333934165Y-60611428D02*
X333898451Y-60540000D01*
X333898451Y-60540000D02*
X333862736Y-60504285D01*
X363112143Y-263867734D02*
X363147857Y-263903449D01*
X363147857Y-263903449D02*
X363255000Y-263939163D01*
X363255000Y-263939163D02*
X363326428Y-263939163D01*
X363326428Y-263939163D02*
X363433571Y-263903449D01*
X363433571Y-263903449D02*
X363505000Y-263832020D01*
X363505000Y-263832020D02*
X363540714Y-263760591D01*
X363540714Y-263760591D02*
X363576428Y-263617734D01*
X363576428Y-263617734D02*
X363576428Y-263510591D01*
X363576428Y-263510591D02*
X363540714Y-263367734D01*
X363540714Y-263367734D02*
X363505000Y-263296306D01*
X363505000Y-263296306D02*
X363433571Y-263224877D01*
X363433571Y-263224877D02*
X363326428Y-263189163D01*
X363326428Y-263189163D02*
X363255000Y-263189163D01*
X363255000Y-263189163D02*
X363147857Y-263224877D01*
X363147857Y-263224877D02*
X363112143Y-263260591D01*
X362755000Y-263939163D02*
X362612143Y-263939163D01*
X362612143Y-263939163D02*
X362540714Y-263903449D01*
X362540714Y-263903449D02*
X362505000Y-263867734D01*
X362505000Y-263867734D02*
X362433571Y-263760591D01*
X362433571Y-263760591D02*
X362397857Y-263617734D01*
X362397857Y-263617734D02*
X362397857Y-263332020D01*
X362397857Y-263332020D02*
X362433571Y-263260591D01*
X362433571Y-263260591D02*
X362469286Y-263224877D01*
X362469286Y-263224877D02*
X362540714Y-263189163D01*
X362540714Y-263189163D02*
X362683571Y-263189163D01*
X362683571Y-263189163D02*
X362755000Y-263224877D01*
X362755000Y-263224877D02*
X362790714Y-263260591D01*
X362790714Y-263260591D02*
X362826428Y-263332020D01*
X362826428Y-263332020D02*
X362826428Y-263510591D01*
X362826428Y-263510591D02*
X362790714Y-263582020D01*
X362790714Y-263582020D02*
X362755000Y-263617734D01*
X362755000Y-263617734D02*
X362683571Y-263653449D01*
X362683571Y-263653449D02*
X362540714Y-263653449D01*
X362540714Y-263653449D02*
X362469286Y-263617734D01*
X362469286Y-263617734D02*
X362433571Y-263582020D01*
X362433571Y-263582020D02*
X362397857Y-263510591D01*
X361719285Y-263189163D02*
X362076428Y-263189163D01*
X362076428Y-263189163D02*
X362112142Y-263546306D01*
X362112142Y-263546306D02*
X362076428Y-263510591D01*
X362076428Y-263510591D02*
X362005000Y-263474877D01*
X362005000Y-263474877D02*
X361826428Y-263474877D01*
X361826428Y-263474877D02*
X361755000Y-263510591D01*
X361755000Y-263510591D02*
X361719285Y-263546306D01*
X361719285Y-263546306D02*
X361683571Y-263617734D01*
X361683571Y-263617734D02*
X361683571Y-263796306D01*
X361683571Y-263796306D02*
X361719285Y-263867734D01*
X361719285Y-263867734D02*
X361755000Y-263903449D01*
X361755000Y-263903449D02*
X361826428Y-263939163D01*
X361826428Y-263939163D02*
X362005000Y-263939163D01*
X362005000Y-263939163D02*
X362076428Y-263903449D01*
X362076428Y-263903449D02*
X362112142Y-263867734D01*
X291325675Y-377907856D02*
X291361771Y-377872142D01*
X291361771Y-377872142D02*
X291397866Y-377764999D01*
X291397866Y-377764999D02*
X291397866Y-377693571D01*
X291397866Y-377693571D02*
X291361771Y-377586428D01*
X291361771Y-377586428D02*
X291289580Y-377514999D01*
X291289580Y-377514999D02*
X291217390Y-377479285D01*
X291217390Y-377479285D02*
X291073009Y-377443571D01*
X291073009Y-377443571D02*
X290964723Y-377443571D01*
X290964723Y-377443571D02*
X290820342Y-377479285D01*
X290820342Y-377479285D02*
X290748151Y-377514999D01*
X290748151Y-377514999D02*
X290675961Y-377586428D01*
X290675961Y-377586428D02*
X290639866Y-377693571D01*
X290639866Y-377693571D02*
X290639866Y-377764999D01*
X290639866Y-377764999D02*
X290675961Y-377872142D01*
X290675961Y-377872142D02*
X290712056Y-377907856D01*
X290639866Y-378586428D02*
X290639866Y-378229285D01*
X290639866Y-378229285D02*
X291000818Y-378193571D01*
X291000818Y-378193571D02*
X290964723Y-378229285D01*
X290964723Y-378229285D02*
X290928628Y-378300714D01*
X290928628Y-378300714D02*
X290928628Y-378479285D01*
X290928628Y-378479285D02*
X290964723Y-378550714D01*
X290964723Y-378550714D02*
X291000818Y-378586428D01*
X291000818Y-378586428D02*
X291073009Y-378622142D01*
X291073009Y-378622142D02*
X291253485Y-378622142D01*
X291253485Y-378622142D02*
X291325675Y-378586428D01*
X291325675Y-378586428D02*
X291361771Y-378550714D01*
X291361771Y-378550714D02*
X291397866Y-378479285D01*
X291397866Y-378479285D02*
X291397866Y-378300714D01*
X291397866Y-378300714D02*
X291361771Y-378229285D01*
X291361771Y-378229285D02*
X291325675Y-378193571D01*
X291397866Y-378979285D02*
X291397866Y-379122142D01*
X291397866Y-379122142D02*
X291361771Y-379193571D01*
X291361771Y-379193571D02*
X291325675Y-379229285D01*
X291325675Y-379229285D02*
X291217390Y-379300714D01*
X291217390Y-379300714D02*
X291073009Y-379336428D01*
X291073009Y-379336428D02*
X290784247Y-379336428D01*
X290784247Y-379336428D02*
X290712056Y-379300714D01*
X290712056Y-379300714D02*
X290675961Y-379265000D01*
X290675961Y-379265000D02*
X290639866Y-379193571D01*
X290639866Y-379193571D02*
X290639866Y-379050714D01*
X290639866Y-379050714D02*
X290675961Y-378979285D01*
X290675961Y-378979285D02*
X290712056Y-378943571D01*
X290712056Y-378943571D02*
X290784247Y-378907857D01*
X290784247Y-378907857D02*
X290964723Y-378907857D01*
X290964723Y-378907857D02*
X291036913Y-378943571D01*
X291036913Y-378943571D02*
X291073009Y-378979285D01*
X291073009Y-378979285D02*
X291109104Y-379050714D01*
X291109104Y-379050714D02*
X291109104Y-379193571D01*
X291109104Y-379193571D02*
X291073009Y-379265000D01*
X291073009Y-379265000D02*
X291036913Y-379300714D01*
X291036913Y-379300714D02*
X290964723Y-379336428D01*
X313772736Y-49519999D02*
X313808451Y-49484285D01*
X313808451Y-49484285D02*
X313844165Y-49377142D01*
X313844165Y-49377142D02*
X313844165Y-49305714D01*
X313844165Y-49305714D02*
X313808451Y-49198571D01*
X313808451Y-49198571D02*
X313737022Y-49127142D01*
X313737022Y-49127142D02*
X313665593Y-49091428D01*
X313665593Y-49091428D02*
X313522736Y-49055714D01*
X313522736Y-49055714D02*
X313415593Y-49055714D01*
X313415593Y-49055714D02*
X313272736Y-49091428D01*
X313272736Y-49091428D02*
X313201308Y-49127142D01*
X313201308Y-49127142D02*
X313129879Y-49198571D01*
X313129879Y-49198571D02*
X313094165Y-49305714D01*
X313094165Y-49305714D02*
X313094165Y-49377142D01*
X313094165Y-49377142D02*
X313129879Y-49484285D01*
X313129879Y-49484285D02*
X313165593Y-49519999D01*
X313094165Y-50162857D02*
X313094165Y-50019999D01*
X313094165Y-50019999D02*
X313129879Y-49948571D01*
X313129879Y-49948571D02*
X313165593Y-49912857D01*
X313165593Y-49912857D02*
X313272736Y-49841428D01*
X313272736Y-49841428D02*
X313415593Y-49805714D01*
X313415593Y-49805714D02*
X313701308Y-49805714D01*
X313701308Y-49805714D02*
X313772736Y-49841428D01*
X313772736Y-49841428D02*
X313808451Y-49877142D01*
X313808451Y-49877142D02*
X313844165Y-49948571D01*
X313844165Y-49948571D02*
X313844165Y-50091428D01*
X313844165Y-50091428D02*
X313808451Y-50162857D01*
X313808451Y-50162857D02*
X313772736Y-50198571D01*
X313772736Y-50198571D02*
X313701308Y-50234285D01*
X313701308Y-50234285D02*
X313522736Y-50234285D01*
X313522736Y-50234285D02*
X313451308Y-50198571D01*
X313451308Y-50198571D02*
X313415593Y-50162857D01*
X313415593Y-50162857D02*
X313379879Y-50091428D01*
X313379879Y-50091428D02*
X313379879Y-49948571D01*
X313379879Y-49948571D02*
X313415593Y-49877142D01*
X313415593Y-49877142D02*
X313451308Y-49841428D01*
X313451308Y-49841428D02*
X313522736Y-49805714D01*
X303838094Y-179861819D02*
X303838094Y-180671342D01*
X303838094Y-180671342D02*
X303790475Y-180766580D01*
X303790475Y-180766580D02*
X303742856Y-180814200D01*
X303742856Y-180814200D02*
X303647618Y-180861819D01*
X303647618Y-180861819D02*
X303457142Y-180861819D01*
X303457142Y-180861819D02*
X303361904Y-180814200D01*
X303361904Y-180814200D02*
X303314285Y-180766580D01*
X303314285Y-180766580D02*
X303266666Y-180671342D01*
X303266666Y-180671342D02*
X303266666Y-179861819D01*
X302266666Y-180861819D02*
X302838094Y-180861819D01*
X302552380Y-180861819D02*
X302552380Y-179861819D01*
X302552380Y-179861819D02*
X302647618Y-180004676D01*
X302647618Y-180004676D02*
X302742856Y-180099914D01*
X302742856Y-180099914D02*
X302838094Y-180147533D01*
X301409523Y-179861819D02*
X301599999Y-179861819D01*
X301599999Y-179861819D02*
X301695237Y-179909438D01*
X301695237Y-179909438D02*
X301742856Y-179957057D01*
X301742856Y-179957057D02*
X301838094Y-180099914D01*
X301838094Y-180099914D02*
X301885713Y-180290390D01*
X301885713Y-180290390D02*
X301885713Y-180671342D01*
X301885713Y-180671342D02*
X301838094Y-180766580D01*
X301838094Y-180766580D02*
X301790475Y-180814200D01*
X301790475Y-180814200D02*
X301695237Y-180861819D01*
X301695237Y-180861819D02*
X301504761Y-180861819D01*
X301504761Y-180861819D02*
X301409523Y-180814200D01*
X301409523Y-180814200D02*
X301361904Y-180766580D01*
X301361904Y-180766580D02*
X301314285Y-180671342D01*
X301314285Y-180671342D02*
X301314285Y-180433247D01*
X301314285Y-180433247D02*
X301361904Y-180338009D01*
X301361904Y-180338009D02*
X301409523Y-180290390D01*
X301409523Y-180290390D02*
X301504761Y-180242771D01*
X301504761Y-180242771D02*
X301695237Y-180242771D01*
X301695237Y-180242771D02*
X301790475Y-180290390D01*
X301790475Y-180290390D02*
X301838094Y-180338009D01*
X301838094Y-180338009D02*
X301885713Y-180433247D01*
X256362736Y-49222856D02*
X256398451Y-49187142D01*
X256398451Y-49187142D02*
X256434165Y-49079999D01*
X256434165Y-49079999D02*
X256434165Y-49008571D01*
X256434165Y-49008571D02*
X256398451Y-48901428D01*
X256398451Y-48901428D02*
X256327022Y-48829999D01*
X256327022Y-48829999D02*
X256255593Y-48794285D01*
X256255593Y-48794285D02*
X256112736Y-48758571D01*
X256112736Y-48758571D02*
X256005593Y-48758571D01*
X256005593Y-48758571D02*
X255862736Y-48794285D01*
X255862736Y-48794285D02*
X255791308Y-48829999D01*
X255791308Y-48829999D02*
X255719879Y-48901428D01*
X255719879Y-48901428D02*
X255684165Y-49008571D01*
X255684165Y-49008571D02*
X255684165Y-49079999D01*
X255684165Y-49079999D02*
X255719879Y-49187142D01*
X255719879Y-49187142D02*
X255755593Y-49222856D01*
X256434165Y-49937142D02*
X256434165Y-49508571D01*
X256434165Y-49722856D02*
X255684165Y-49722856D01*
X255684165Y-49722856D02*
X255791308Y-49651428D01*
X255791308Y-49651428D02*
X255862736Y-49579999D01*
X255862736Y-49579999D02*
X255898451Y-49508571D01*
X255684165Y-50401428D02*
X255684165Y-50472857D01*
X255684165Y-50472857D02*
X255719879Y-50544285D01*
X255719879Y-50544285D02*
X255755593Y-50580000D01*
X255755593Y-50580000D02*
X255827022Y-50615714D01*
X255827022Y-50615714D02*
X255969879Y-50651428D01*
X255969879Y-50651428D02*
X256148451Y-50651428D01*
X256148451Y-50651428D02*
X256291308Y-50615714D01*
X256291308Y-50615714D02*
X256362736Y-50580000D01*
X256362736Y-50580000D02*
X256398451Y-50544285D01*
X256398451Y-50544285D02*
X256434165Y-50472857D01*
X256434165Y-50472857D02*
X256434165Y-50401428D01*
X256434165Y-50401428D02*
X256398451Y-50330000D01*
X256398451Y-50330000D02*
X256362736Y-50294285D01*
X256362736Y-50294285D02*
X256291308Y-50258571D01*
X256291308Y-50258571D02*
X256148451Y-50222857D01*
X256148451Y-50222857D02*
X255969879Y-50222857D01*
X255969879Y-50222857D02*
X255827022Y-50258571D01*
X255827022Y-50258571D02*
X255755593Y-50294285D01*
X255755593Y-50294285D02*
X255719879Y-50330000D01*
X255719879Y-50330000D02*
X255684165Y-50401428D01*
X319922736Y-337465713D02*
X319958451Y-337429999D01*
X319958451Y-337429999D02*
X319994165Y-337322856D01*
X319994165Y-337322856D02*
X319994165Y-337251428D01*
X319994165Y-337251428D02*
X319958451Y-337144285D01*
X319958451Y-337144285D02*
X319887022Y-337072856D01*
X319887022Y-337072856D02*
X319815593Y-337037142D01*
X319815593Y-337037142D02*
X319672736Y-337001428D01*
X319672736Y-337001428D02*
X319565593Y-337001428D01*
X319565593Y-337001428D02*
X319422736Y-337037142D01*
X319422736Y-337037142D02*
X319351308Y-337072856D01*
X319351308Y-337072856D02*
X319279879Y-337144285D01*
X319279879Y-337144285D02*
X319244165Y-337251428D01*
X319244165Y-337251428D02*
X319244165Y-337322856D01*
X319244165Y-337322856D02*
X319279879Y-337429999D01*
X319279879Y-337429999D02*
X319315593Y-337465713D01*
X319994165Y-338179999D02*
X319994165Y-337751428D01*
X319994165Y-337965713D02*
X319244165Y-337965713D01*
X319244165Y-337965713D02*
X319351308Y-337894285D01*
X319351308Y-337894285D02*
X319422736Y-337822856D01*
X319422736Y-337822856D02*
X319458451Y-337751428D01*
X319315593Y-338465714D02*
X319279879Y-338501428D01*
X319279879Y-338501428D02*
X319244165Y-338572857D01*
X319244165Y-338572857D02*
X319244165Y-338751428D01*
X319244165Y-338751428D02*
X319279879Y-338822857D01*
X319279879Y-338822857D02*
X319315593Y-338858571D01*
X319315593Y-338858571D02*
X319387022Y-338894285D01*
X319387022Y-338894285D02*
X319458451Y-338894285D01*
X319458451Y-338894285D02*
X319565593Y-338858571D01*
X319565593Y-338858571D02*
X319994165Y-338429999D01*
X319994165Y-338429999D02*
X319994165Y-338894285D01*
X319244165Y-339572857D02*
X319244165Y-339215714D01*
X319244165Y-339215714D02*
X319601308Y-339180000D01*
X319601308Y-339180000D02*
X319565593Y-339215714D01*
X319565593Y-339215714D02*
X319529879Y-339287143D01*
X319529879Y-339287143D02*
X319529879Y-339465714D01*
X319529879Y-339465714D02*
X319565593Y-339537143D01*
X319565593Y-339537143D02*
X319601308Y-339572857D01*
X319601308Y-339572857D02*
X319672736Y-339608571D01*
X319672736Y-339608571D02*
X319851308Y-339608571D01*
X319851308Y-339608571D02*
X319922736Y-339572857D01*
X319922736Y-339572857D02*
X319958451Y-339537143D01*
X319958451Y-339537143D02*
X319994165Y-339465714D01*
X319994165Y-339465714D02*
X319994165Y-339287143D01*
X319994165Y-339287143D02*
X319958451Y-339215714D01*
X319958451Y-339215714D02*
X319922736Y-339180000D01*
X257592736Y-164342856D02*
X257628451Y-164307142D01*
X257628451Y-164307142D02*
X257664165Y-164199999D01*
X257664165Y-164199999D02*
X257664165Y-164128571D01*
X257664165Y-164128571D02*
X257628451Y-164021428D01*
X257628451Y-164021428D02*
X257557022Y-163949999D01*
X257557022Y-163949999D02*
X257485593Y-163914285D01*
X257485593Y-163914285D02*
X257342736Y-163878571D01*
X257342736Y-163878571D02*
X257235593Y-163878571D01*
X257235593Y-163878571D02*
X257092736Y-163914285D01*
X257092736Y-163914285D02*
X257021308Y-163949999D01*
X257021308Y-163949999D02*
X256949879Y-164021428D01*
X256949879Y-164021428D02*
X256914165Y-164128571D01*
X256914165Y-164128571D02*
X256914165Y-164199999D01*
X256914165Y-164199999D02*
X256949879Y-164307142D01*
X256949879Y-164307142D02*
X256985593Y-164342856D01*
X256914165Y-165021428D02*
X256914165Y-164664285D01*
X256914165Y-164664285D02*
X257271308Y-164628571D01*
X257271308Y-164628571D02*
X257235593Y-164664285D01*
X257235593Y-164664285D02*
X257199879Y-164735714D01*
X257199879Y-164735714D02*
X257199879Y-164914285D01*
X257199879Y-164914285D02*
X257235593Y-164985714D01*
X257235593Y-164985714D02*
X257271308Y-165021428D01*
X257271308Y-165021428D02*
X257342736Y-165057142D01*
X257342736Y-165057142D02*
X257521308Y-165057142D01*
X257521308Y-165057142D02*
X257592736Y-165021428D01*
X257592736Y-165021428D02*
X257628451Y-164985714D01*
X257628451Y-164985714D02*
X257664165Y-164914285D01*
X257664165Y-164914285D02*
X257664165Y-164735714D01*
X257664165Y-164735714D02*
X257628451Y-164664285D01*
X257628451Y-164664285D02*
X257592736Y-164628571D01*
X257164165Y-165700000D02*
X257664165Y-165700000D01*
X256878451Y-165521428D02*
X257414165Y-165342857D01*
X257414165Y-165342857D02*
X257414165Y-165807142D01*
X312402736Y-109032856D02*
X312438451Y-108997142D01*
X312438451Y-108997142D02*
X312474165Y-108889999D01*
X312474165Y-108889999D02*
X312474165Y-108818571D01*
X312474165Y-108818571D02*
X312438451Y-108711428D01*
X312438451Y-108711428D02*
X312367022Y-108639999D01*
X312367022Y-108639999D02*
X312295593Y-108604285D01*
X312295593Y-108604285D02*
X312152736Y-108568571D01*
X312152736Y-108568571D02*
X312045593Y-108568571D01*
X312045593Y-108568571D02*
X311902736Y-108604285D01*
X311902736Y-108604285D02*
X311831308Y-108639999D01*
X311831308Y-108639999D02*
X311759879Y-108711428D01*
X311759879Y-108711428D02*
X311724165Y-108818571D01*
X311724165Y-108818571D02*
X311724165Y-108889999D01*
X311724165Y-108889999D02*
X311759879Y-108997142D01*
X311759879Y-108997142D02*
X311795593Y-109032856D01*
X312474165Y-109747142D02*
X312474165Y-109318571D01*
X312474165Y-109532856D02*
X311724165Y-109532856D01*
X311724165Y-109532856D02*
X311831308Y-109461428D01*
X311831308Y-109461428D02*
X311902736Y-109389999D01*
X311902736Y-109389999D02*
X311938451Y-109318571D01*
X312474165Y-110104285D02*
X312474165Y-110247142D01*
X312474165Y-110247142D02*
X312438451Y-110318571D01*
X312438451Y-110318571D02*
X312402736Y-110354285D01*
X312402736Y-110354285D02*
X312295593Y-110425714D01*
X312295593Y-110425714D02*
X312152736Y-110461428D01*
X312152736Y-110461428D02*
X311867022Y-110461428D01*
X311867022Y-110461428D02*
X311795593Y-110425714D01*
X311795593Y-110425714D02*
X311759879Y-110390000D01*
X311759879Y-110390000D02*
X311724165Y-110318571D01*
X311724165Y-110318571D02*
X311724165Y-110175714D01*
X311724165Y-110175714D02*
X311759879Y-110104285D01*
X311759879Y-110104285D02*
X311795593Y-110068571D01*
X311795593Y-110068571D02*
X311867022Y-110032857D01*
X311867022Y-110032857D02*
X312045593Y-110032857D01*
X312045593Y-110032857D02*
X312117022Y-110068571D01*
X312117022Y-110068571D02*
X312152736Y-110104285D01*
X312152736Y-110104285D02*
X312188451Y-110175714D01*
X312188451Y-110175714D02*
X312188451Y-110318571D01*
X312188451Y-110318571D02*
X312152736Y-110390000D01*
X312152736Y-110390000D02*
X312117022Y-110425714D01*
X312117022Y-110425714D02*
X312045593Y-110461428D01*
X274512736Y-272710712D02*
X274548451Y-272674998D01*
X274548451Y-272674998D02*
X274584165Y-272567855D01*
X274584165Y-272567855D02*
X274584165Y-272496427D01*
X274584165Y-272496427D02*
X274548451Y-272389284D01*
X274548451Y-272389284D02*
X274477022Y-272317855D01*
X274477022Y-272317855D02*
X274405593Y-272282141D01*
X274405593Y-272282141D02*
X274262736Y-272246427D01*
X274262736Y-272246427D02*
X274155593Y-272246427D01*
X274155593Y-272246427D02*
X274012736Y-272282141D01*
X274012736Y-272282141D02*
X273941308Y-272317855D01*
X273941308Y-272317855D02*
X273869879Y-272389284D01*
X273869879Y-272389284D02*
X273834165Y-272496427D01*
X273834165Y-272496427D02*
X273834165Y-272567855D01*
X273834165Y-272567855D02*
X273869879Y-272674998D01*
X273869879Y-272674998D02*
X273905593Y-272710712D01*
X274584165Y-273424998D02*
X274584165Y-272996427D01*
X274584165Y-273210712D02*
X273834165Y-273210712D01*
X273834165Y-273210712D02*
X273941308Y-273139284D01*
X273941308Y-273139284D02*
X274012736Y-273067855D01*
X274012736Y-273067855D02*
X274048451Y-272996427D01*
X274584165Y-274139284D02*
X274584165Y-273710713D01*
X274584165Y-273924998D02*
X273834165Y-273924998D01*
X273834165Y-273924998D02*
X273941308Y-273853570D01*
X273941308Y-273853570D02*
X274012736Y-273782141D01*
X274012736Y-273782141D02*
X274048451Y-273710713D01*
X273834165Y-274782142D02*
X273834165Y-274639284D01*
X273834165Y-274639284D02*
X273869879Y-274567856D01*
X273869879Y-274567856D02*
X273905593Y-274532142D01*
X273905593Y-274532142D02*
X274012736Y-274460713D01*
X274012736Y-274460713D02*
X274155593Y-274424999D01*
X274155593Y-274424999D02*
X274441308Y-274424999D01*
X274441308Y-274424999D02*
X274512736Y-274460713D01*
X274512736Y-274460713D02*
X274548451Y-274496427D01*
X274548451Y-274496427D02*
X274584165Y-274567856D01*
X274584165Y-274567856D02*
X274584165Y-274710713D01*
X274584165Y-274710713D02*
X274548451Y-274782142D01*
X274548451Y-274782142D02*
X274512736Y-274817856D01*
X274512736Y-274817856D02*
X274441308Y-274853570D01*
X274441308Y-274853570D02*
X274262736Y-274853570D01*
X274262736Y-274853570D02*
X274191308Y-274817856D01*
X274191308Y-274817856D02*
X274155593Y-274782142D01*
X274155593Y-274782142D02*
X274119879Y-274710713D01*
X274119879Y-274710713D02*
X274119879Y-274567856D01*
X274119879Y-274567856D02*
X274155593Y-274496427D01*
X274155593Y-274496427D02*
X274191308Y-274460713D01*
X274191308Y-274460713D02*
X274262736Y-274424999D01*
X287315675Y-169972855D02*
X287351771Y-169937141D01*
X287351771Y-169937141D02*
X287387866Y-169829998D01*
X287387866Y-169829998D02*
X287387866Y-169758570D01*
X287387866Y-169758570D02*
X287351771Y-169651427D01*
X287351771Y-169651427D02*
X287279580Y-169579998D01*
X287279580Y-169579998D02*
X287207390Y-169544284D01*
X287207390Y-169544284D02*
X287063009Y-169508570D01*
X287063009Y-169508570D02*
X286954723Y-169508570D01*
X286954723Y-169508570D02*
X286810342Y-169544284D01*
X286810342Y-169544284D02*
X286738151Y-169579998D01*
X286738151Y-169579998D02*
X286665961Y-169651427D01*
X286665961Y-169651427D02*
X286629866Y-169758570D01*
X286629866Y-169758570D02*
X286629866Y-169829998D01*
X286629866Y-169829998D02*
X286665961Y-169937141D01*
X286665961Y-169937141D02*
X286702056Y-169972855D01*
X286882532Y-170615713D02*
X287387866Y-170615713D01*
X286593771Y-170437141D02*
X287135199Y-170258570D01*
X287135199Y-170258570D02*
X287135199Y-170722855D01*
X287387866Y-171044284D02*
X287387866Y-171187141D01*
X287387866Y-171187141D02*
X287351771Y-171258570D01*
X287351771Y-171258570D02*
X287315675Y-171294284D01*
X287315675Y-171294284D02*
X287207390Y-171365713D01*
X287207390Y-171365713D02*
X287063009Y-171401427D01*
X287063009Y-171401427D02*
X286774247Y-171401427D01*
X286774247Y-171401427D02*
X286702056Y-171365713D01*
X286702056Y-171365713D02*
X286665961Y-171329999D01*
X286665961Y-171329999D02*
X286629866Y-171258570D01*
X286629866Y-171258570D02*
X286629866Y-171115713D01*
X286629866Y-171115713D02*
X286665961Y-171044284D01*
X286665961Y-171044284D02*
X286702056Y-171008570D01*
X286702056Y-171008570D02*
X286774247Y-170972856D01*
X286774247Y-170972856D02*
X286954723Y-170972856D01*
X286954723Y-170972856D02*
X287026913Y-171008570D01*
X287026913Y-171008570D02*
X287063009Y-171044284D01*
X287063009Y-171044284D02*
X287099104Y-171115713D01*
X287099104Y-171115713D02*
X287099104Y-171258570D01*
X287099104Y-171258570D02*
X287063009Y-171329999D01*
X287063009Y-171329999D02*
X287026913Y-171365713D01*
X287026913Y-171365713D02*
X286954723Y-171401427D01*
X242472736Y-266460712D02*
X242508451Y-266424998D01*
X242508451Y-266424998D02*
X242544165Y-266317855D01*
X242544165Y-266317855D02*
X242544165Y-266246427D01*
X242544165Y-266246427D02*
X242508451Y-266139284D01*
X242508451Y-266139284D02*
X242437022Y-266067855D01*
X242437022Y-266067855D02*
X242365593Y-266032141D01*
X242365593Y-266032141D02*
X242222736Y-265996427D01*
X242222736Y-265996427D02*
X242115593Y-265996427D01*
X242115593Y-265996427D02*
X241972736Y-266032141D01*
X241972736Y-266032141D02*
X241901308Y-266067855D01*
X241901308Y-266067855D02*
X241829879Y-266139284D01*
X241829879Y-266139284D02*
X241794165Y-266246427D01*
X241794165Y-266246427D02*
X241794165Y-266317855D01*
X241794165Y-266317855D02*
X241829879Y-266424998D01*
X241829879Y-266424998D02*
X241865593Y-266460712D01*
X242544165Y-267174998D02*
X242544165Y-266746427D01*
X242544165Y-266960712D02*
X241794165Y-266960712D01*
X241794165Y-266960712D02*
X241901308Y-266889284D01*
X241901308Y-266889284D02*
X241972736Y-266817855D01*
X241972736Y-266817855D02*
X242008451Y-266746427D01*
X242544165Y-267889284D02*
X242544165Y-267460713D01*
X242544165Y-267674998D02*
X241794165Y-267674998D01*
X241794165Y-267674998D02*
X241901308Y-267603570D01*
X241901308Y-267603570D02*
X241972736Y-267532141D01*
X241972736Y-267532141D02*
X242008451Y-267460713D01*
X242544165Y-268246427D02*
X242544165Y-268389284D01*
X242544165Y-268389284D02*
X242508451Y-268460713D01*
X242508451Y-268460713D02*
X242472736Y-268496427D01*
X242472736Y-268496427D02*
X242365593Y-268567856D01*
X242365593Y-268567856D02*
X242222736Y-268603570D01*
X242222736Y-268603570D02*
X241937022Y-268603570D01*
X241937022Y-268603570D02*
X241865593Y-268567856D01*
X241865593Y-268567856D02*
X241829879Y-268532142D01*
X241829879Y-268532142D02*
X241794165Y-268460713D01*
X241794165Y-268460713D02*
X241794165Y-268317856D01*
X241794165Y-268317856D02*
X241829879Y-268246427D01*
X241829879Y-268246427D02*
X241865593Y-268210713D01*
X241865593Y-268210713D02*
X241937022Y-268174999D01*
X241937022Y-268174999D02*
X242115593Y-268174999D01*
X242115593Y-268174999D02*
X242187022Y-268210713D01*
X242187022Y-268210713D02*
X242222736Y-268246427D01*
X242222736Y-268246427D02*
X242258451Y-268317856D01*
X242258451Y-268317856D02*
X242258451Y-268460713D01*
X242258451Y-268460713D02*
X242222736Y-268532142D01*
X242222736Y-268532142D02*
X242187022Y-268567856D01*
X242187022Y-268567856D02*
X242115593Y-268603570D01*
X359273095Y-324066819D02*
X359273095Y-324876342D01*
X359273095Y-324876342D02*
X359225476Y-324971580D01*
X359225476Y-324971580D02*
X359177857Y-325019200D01*
X359177857Y-325019200D02*
X359082619Y-325066819D01*
X359082619Y-325066819D02*
X358892143Y-325066819D01*
X358892143Y-325066819D02*
X358796905Y-325019200D01*
X358796905Y-325019200D02*
X358749286Y-324971580D01*
X358749286Y-324971580D02*
X358701667Y-324876342D01*
X358701667Y-324876342D02*
X358701667Y-324066819D01*
X357701667Y-325066819D02*
X358273095Y-325066819D01*
X357987381Y-325066819D02*
X357987381Y-324066819D01*
X357987381Y-324066819D02*
X358082619Y-324209676D01*
X358082619Y-324209676D02*
X358177857Y-324304914D01*
X358177857Y-324304914D02*
X358273095Y-324352533D01*
X356844524Y-324400152D02*
X356844524Y-325066819D01*
X357082619Y-324019200D02*
X357320714Y-324733485D01*
X357320714Y-324733485D02*
X356701667Y-324733485D01*
X263632736Y-324382855D02*
X263668451Y-324347141D01*
X263668451Y-324347141D02*
X263704165Y-324239998D01*
X263704165Y-324239998D02*
X263704165Y-324168570D01*
X263704165Y-324168570D02*
X263668451Y-324061427D01*
X263668451Y-324061427D02*
X263597022Y-323989998D01*
X263597022Y-323989998D02*
X263525593Y-323954284D01*
X263525593Y-323954284D02*
X263382736Y-323918570D01*
X263382736Y-323918570D02*
X263275593Y-323918570D01*
X263275593Y-323918570D02*
X263132736Y-323954284D01*
X263132736Y-323954284D02*
X263061308Y-323989998D01*
X263061308Y-323989998D02*
X262989879Y-324061427D01*
X262989879Y-324061427D02*
X262954165Y-324168570D01*
X262954165Y-324168570D02*
X262954165Y-324239998D01*
X262954165Y-324239998D02*
X262989879Y-324347141D01*
X262989879Y-324347141D02*
X263025593Y-324382855D01*
X262954165Y-324632855D02*
X262954165Y-325097141D01*
X262954165Y-325097141D02*
X263239879Y-324847141D01*
X263239879Y-324847141D02*
X263239879Y-324954284D01*
X263239879Y-324954284D02*
X263275593Y-325025713D01*
X263275593Y-325025713D02*
X263311308Y-325061427D01*
X263311308Y-325061427D02*
X263382736Y-325097141D01*
X263382736Y-325097141D02*
X263561308Y-325097141D01*
X263561308Y-325097141D02*
X263632736Y-325061427D01*
X263632736Y-325061427D02*
X263668451Y-325025713D01*
X263668451Y-325025713D02*
X263704165Y-324954284D01*
X263704165Y-324954284D02*
X263704165Y-324739998D01*
X263704165Y-324739998D02*
X263668451Y-324668570D01*
X263668451Y-324668570D02*
X263632736Y-324632855D01*
X263204165Y-325739999D02*
X263704165Y-325739999D01*
X262918451Y-325561427D02*
X263454165Y-325382856D01*
X263454165Y-325382856D02*
X263454165Y-325847141D01*
X333972736Y-118685713D02*
X334008451Y-118649999D01*
X334008451Y-118649999D02*
X334044165Y-118542856D01*
X334044165Y-118542856D02*
X334044165Y-118471428D01*
X334044165Y-118471428D02*
X334008451Y-118364285D01*
X334008451Y-118364285D02*
X333937022Y-118292856D01*
X333937022Y-118292856D02*
X333865593Y-118257142D01*
X333865593Y-118257142D02*
X333722736Y-118221428D01*
X333722736Y-118221428D02*
X333615593Y-118221428D01*
X333615593Y-118221428D02*
X333472736Y-118257142D01*
X333472736Y-118257142D02*
X333401308Y-118292856D01*
X333401308Y-118292856D02*
X333329879Y-118364285D01*
X333329879Y-118364285D02*
X333294165Y-118471428D01*
X333294165Y-118471428D02*
X333294165Y-118542856D01*
X333294165Y-118542856D02*
X333329879Y-118649999D01*
X333329879Y-118649999D02*
X333365593Y-118685713D01*
X334044165Y-119399999D02*
X334044165Y-118971428D01*
X334044165Y-119185713D02*
X333294165Y-119185713D01*
X333294165Y-119185713D02*
X333401308Y-119114285D01*
X333401308Y-119114285D02*
X333472736Y-119042856D01*
X333472736Y-119042856D02*
X333508451Y-118971428D01*
X333365593Y-119685714D02*
X333329879Y-119721428D01*
X333329879Y-119721428D02*
X333294165Y-119792857D01*
X333294165Y-119792857D02*
X333294165Y-119971428D01*
X333294165Y-119971428D02*
X333329879Y-120042857D01*
X333329879Y-120042857D02*
X333365593Y-120078571D01*
X333365593Y-120078571D02*
X333437022Y-120114285D01*
X333437022Y-120114285D02*
X333508451Y-120114285D01*
X333508451Y-120114285D02*
X333615593Y-120078571D01*
X333615593Y-120078571D02*
X334044165Y-119649999D01*
X334044165Y-119649999D02*
X334044165Y-120114285D01*
X333544165Y-120757143D02*
X334044165Y-120757143D01*
X333258451Y-120578571D02*
X333794165Y-120400000D01*
X333794165Y-120400000D02*
X333794165Y-120864285D01*
X326133095Y-335336819D02*
X326133095Y-336146342D01*
X326133095Y-336146342D02*
X326085476Y-336241580D01*
X326085476Y-336241580D02*
X326037857Y-336289200D01*
X326037857Y-336289200D02*
X325942619Y-336336819D01*
X325942619Y-336336819D02*
X325752143Y-336336819D01*
X325752143Y-336336819D02*
X325656905Y-336289200D01*
X325656905Y-336289200D02*
X325609286Y-336241580D01*
X325609286Y-336241580D02*
X325561667Y-336146342D01*
X325561667Y-336146342D02*
X325561667Y-335336819D01*
X324561667Y-336336819D02*
X325133095Y-336336819D01*
X324847381Y-336336819D02*
X324847381Y-335336819D01*
X324847381Y-335336819D02*
X324942619Y-335479676D01*
X324942619Y-335479676D02*
X325037857Y-335574914D01*
X325037857Y-335574914D02*
X325133095Y-335622533D01*
X324228333Y-335336819D02*
X323609286Y-335336819D01*
X323609286Y-335336819D02*
X323942619Y-335717771D01*
X323942619Y-335717771D02*
X323799762Y-335717771D01*
X323799762Y-335717771D02*
X323704524Y-335765390D01*
X323704524Y-335765390D02*
X323656905Y-335813009D01*
X323656905Y-335813009D02*
X323609286Y-335908247D01*
X323609286Y-335908247D02*
X323609286Y-336146342D01*
X323609286Y-336146342D02*
X323656905Y-336241580D01*
X323656905Y-336241580D02*
X323704524Y-336289200D01*
X323704524Y-336289200D02*
X323799762Y-336336819D01*
X323799762Y-336336819D02*
X324085476Y-336336819D01*
X324085476Y-336336819D02*
X324180714Y-336289200D01*
X324180714Y-336289200D02*
X324228333Y-336241580D01*
X310292736Y-51889999D02*
X310328451Y-51854285D01*
X310328451Y-51854285D02*
X310364165Y-51747142D01*
X310364165Y-51747142D02*
X310364165Y-51675714D01*
X310364165Y-51675714D02*
X310328451Y-51568571D01*
X310328451Y-51568571D02*
X310257022Y-51497142D01*
X310257022Y-51497142D02*
X310185593Y-51461428D01*
X310185593Y-51461428D02*
X310042736Y-51425714D01*
X310042736Y-51425714D02*
X309935593Y-51425714D01*
X309935593Y-51425714D02*
X309792736Y-51461428D01*
X309792736Y-51461428D02*
X309721308Y-51497142D01*
X309721308Y-51497142D02*
X309649879Y-51568571D01*
X309649879Y-51568571D02*
X309614165Y-51675714D01*
X309614165Y-51675714D02*
X309614165Y-51747142D01*
X309614165Y-51747142D02*
X309649879Y-51854285D01*
X309649879Y-51854285D02*
X309685593Y-51889999D01*
X309614165Y-52139999D02*
X309614165Y-52639999D01*
X309614165Y-52639999D02*
X310364165Y-52318571D01*
X218482486Y-226862735D02*
X218518200Y-226898450D01*
X218518200Y-226898450D02*
X218625343Y-226934164D01*
X218625343Y-226934164D02*
X218696771Y-226934164D01*
X218696771Y-226934164D02*
X218803914Y-226898450D01*
X218803914Y-226898450D02*
X218875343Y-226827021D01*
X218875343Y-226827021D02*
X218911057Y-226755592D01*
X218911057Y-226755592D02*
X218946771Y-226612735D01*
X218946771Y-226612735D02*
X218946771Y-226505592D01*
X218946771Y-226505592D02*
X218911057Y-226362735D01*
X218911057Y-226362735D02*
X218875343Y-226291307D01*
X218875343Y-226291307D02*
X218803914Y-226219878D01*
X218803914Y-226219878D02*
X218696771Y-226184164D01*
X218696771Y-226184164D02*
X218625343Y-226184164D01*
X218625343Y-226184164D02*
X218518200Y-226219878D01*
X218518200Y-226219878D02*
X218482486Y-226255592D01*
X217768200Y-226934164D02*
X218196771Y-226934164D01*
X217982486Y-226934164D02*
X217982486Y-226184164D01*
X217982486Y-226184164D02*
X218053914Y-226291307D01*
X218053914Y-226291307D02*
X218125343Y-226362735D01*
X218125343Y-226362735D02*
X218196771Y-226398450D01*
X217482485Y-226255592D02*
X217446771Y-226219878D01*
X217446771Y-226219878D02*
X217375343Y-226184164D01*
X217375343Y-226184164D02*
X217196771Y-226184164D01*
X217196771Y-226184164D02*
X217125343Y-226219878D01*
X217125343Y-226219878D02*
X217089628Y-226255592D01*
X217089628Y-226255592D02*
X217053914Y-226327021D01*
X217053914Y-226327021D02*
X217053914Y-226398450D01*
X217053914Y-226398450D02*
X217089628Y-226505592D01*
X217089628Y-226505592D02*
X217518200Y-226934164D01*
X217518200Y-226934164D02*
X217053914Y-226934164D01*
X216339628Y-226934164D02*
X216768199Y-226934164D01*
X216553914Y-226934164D02*
X216553914Y-226184164D01*
X216553914Y-226184164D02*
X216625342Y-226291307D01*
X216625342Y-226291307D02*
X216696771Y-226362735D01*
X216696771Y-226362735D02*
X216768199Y-226398450D01*
X340073095Y-56696819D02*
X340073095Y-57506342D01*
X340073095Y-57506342D02*
X340025476Y-57601580D01*
X340025476Y-57601580D02*
X339977857Y-57649200D01*
X339977857Y-57649200D02*
X339882619Y-57696819D01*
X339882619Y-57696819D02*
X339692143Y-57696819D01*
X339692143Y-57696819D02*
X339596905Y-57649200D01*
X339596905Y-57649200D02*
X339549286Y-57601580D01*
X339549286Y-57601580D02*
X339501667Y-57506342D01*
X339501667Y-57506342D02*
X339501667Y-56696819D01*
X338501667Y-57696819D02*
X339073095Y-57696819D01*
X338787381Y-57696819D02*
X338787381Y-56696819D01*
X338787381Y-56696819D02*
X338882619Y-56839676D01*
X338882619Y-56839676D02*
X338977857Y-56934914D01*
X338977857Y-56934914D02*
X339073095Y-56982533D01*
X337549286Y-57696819D02*
X338120714Y-57696819D01*
X337835000Y-57696819D02*
X337835000Y-56696819D01*
X337835000Y-56696819D02*
X337930238Y-56839676D01*
X337930238Y-56839676D02*
X338025476Y-56934914D01*
X338025476Y-56934914D02*
X338120714Y-56982533D01*
X340183095Y-116556819D02*
X340183095Y-117366342D01*
X340183095Y-117366342D02*
X340135476Y-117461580D01*
X340135476Y-117461580D02*
X340087857Y-117509200D01*
X340087857Y-117509200D02*
X339992619Y-117556819D01*
X339992619Y-117556819D02*
X339802143Y-117556819D01*
X339802143Y-117556819D02*
X339706905Y-117509200D01*
X339706905Y-117509200D02*
X339659286Y-117461580D01*
X339659286Y-117461580D02*
X339611667Y-117366342D01*
X339611667Y-117366342D02*
X339611667Y-116556819D01*
X338611667Y-117556819D02*
X339183095Y-117556819D01*
X338897381Y-117556819D02*
X338897381Y-116556819D01*
X338897381Y-116556819D02*
X338992619Y-116699676D01*
X338992619Y-116699676D02*
X339087857Y-116794914D01*
X339087857Y-116794914D02*
X339183095Y-116842533D01*
X338230714Y-116652057D02*
X338183095Y-116604438D01*
X338183095Y-116604438D02*
X338087857Y-116556819D01*
X338087857Y-116556819D02*
X337849762Y-116556819D01*
X337849762Y-116556819D02*
X337754524Y-116604438D01*
X337754524Y-116604438D02*
X337706905Y-116652057D01*
X337706905Y-116652057D02*
X337659286Y-116747295D01*
X337659286Y-116747295D02*
X337659286Y-116842533D01*
X337659286Y-116842533D02*
X337706905Y-116985390D01*
X337706905Y-116985390D02*
X338278333Y-117556819D01*
X338278333Y-117556819D02*
X337659286Y-117556819D01*
X315592736Y-105962856D02*
X315628451Y-105927142D01*
X315628451Y-105927142D02*
X315664165Y-105819999D01*
X315664165Y-105819999D02*
X315664165Y-105748571D01*
X315664165Y-105748571D02*
X315628451Y-105641428D01*
X315628451Y-105641428D02*
X315557022Y-105569999D01*
X315557022Y-105569999D02*
X315485593Y-105534285D01*
X315485593Y-105534285D02*
X315342736Y-105498571D01*
X315342736Y-105498571D02*
X315235593Y-105498571D01*
X315235593Y-105498571D02*
X315092736Y-105534285D01*
X315092736Y-105534285D02*
X315021308Y-105569999D01*
X315021308Y-105569999D02*
X314949879Y-105641428D01*
X314949879Y-105641428D02*
X314914165Y-105748571D01*
X314914165Y-105748571D02*
X314914165Y-105819999D01*
X314914165Y-105819999D02*
X314949879Y-105927142D01*
X314949879Y-105927142D02*
X314985593Y-105962856D01*
X314985593Y-106248571D02*
X314949879Y-106284285D01*
X314949879Y-106284285D02*
X314914165Y-106355714D01*
X314914165Y-106355714D02*
X314914165Y-106534285D01*
X314914165Y-106534285D02*
X314949879Y-106605714D01*
X314949879Y-106605714D02*
X314985593Y-106641428D01*
X314985593Y-106641428D02*
X315057022Y-106677142D01*
X315057022Y-106677142D02*
X315128451Y-106677142D01*
X315128451Y-106677142D02*
X315235593Y-106641428D01*
X315235593Y-106641428D02*
X315664165Y-106212856D01*
X315664165Y-106212856D02*
X315664165Y-106677142D01*
X314914165Y-107320000D02*
X314914165Y-107177142D01*
X314914165Y-107177142D02*
X314949879Y-107105714D01*
X314949879Y-107105714D02*
X314985593Y-107070000D01*
X314985593Y-107070000D02*
X315092736Y-106998571D01*
X315092736Y-106998571D02*
X315235593Y-106962857D01*
X315235593Y-106962857D02*
X315521308Y-106962857D01*
X315521308Y-106962857D02*
X315592736Y-106998571D01*
X315592736Y-106998571D02*
X315628451Y-107034285D01*
X315628451Y-107034285D02*
X315664165Y-107105714D01*
X315664165Y-107105714D02*
X315664165Y-107248571D01*
X315664165Y-107248571D02*
X315628451Y-107320000D01*
X315628451Y-107320000D02*
X315592736Y-107355714D01*
X315592736Y-107355714D02*
X315521308Y-107391428D01*
X315521308Y-107391428D02*
X315342736Y-107391428D01*
X315342736Y-107391428D02*
X315271308Y-107355714D01*
X315271308Y-107355714D02*
X315235593Y-107320000D01*
X315235593Y-107320000D02*
X315199879Y-107248571D01*
X315199879Y-107248571D02*
X315199879Y-107105714D01*
X315199879Y-107105714D02*
X315235593Y-107034285D01*
X315235593Y-107034285D02*
X315271308Y-106998571D01*
X315271308Y-106998571D02*
X315342736Y-106962857D01*
X261822736Y-324342855D02*
X261858451Y-324307141D01*
X261858451Y-324307141D02*
X261894165Y-324199998D01*
X261894165Y-324199998D02*
X261894165Y-324128570D01*
X261894165Y-324128570D02*
X261858451Y-324021427D01*
X261858451Y-324021427D02*
X261787022Y-323949998D01*
X261787022Y-323949998D02*
X261715593Y-323914284D01*
X261715593Y-323914284D02*
X261572736Y-323878570D01*
X261572736Y-323878570D02*
X261465593Y-323878570D01*
X261465593Y-323878570D02*
X261322736Y-323914284D01*
X261322736Y-323914284D02*
X261251308Y-323949998D01*
X261251308Y-323949998D02*
X261179879Y-324021427D01*
X261179879Y-324021427D02*
X261144165Y-324128570D01*
X261144165Y-324128570D02*
X261144165Y-324199998D01*
X261144165Y-324199998D02*
X261179879Y-324307141D01*
X261179879Y-324307141D02*
X261215593Y-324342855D01*
X261144165Y-324592855D02*
X261144165Y-325057141D01*
X261144165Y-325057141D02*
X261429879Y-324807141D01*
X261429879Y-324807141D02*
X261429879Y-324914284D01*
X261429879Y-324914284D02*
X261465593Y-324985713D01*
X261465593Y-324985713D02*
X261501308Y-325021427D01*
X261501308Y-325021427D02*
X261572736Y-325057141D01*
X261572736Y-325057141D02*
X261751308Y-325057141D01*
X261751308Y-325057141D02*
X261822736Y-325021427D01*
X261822736Y-325021427D02*
X261858451Y-324985713D01*
X261858451Y-324985713D02*
X261894165Y-324914284D01*
X261894165Y-324914284D02*
X261894165Y-324699998D01*
X261894165Y-324699998D02*
X261858451Y-324628570D01*
X261858451Y-324628570D02*
X261822736Y-324592855D01*
X261144165Y-325735713D02*
X261144165Y-325378570D01*
X261144165Y-325378570D02*
X261501308Y-325342856D01*
X261501308Y-325342856D02*
X261465593Y-325378570D01*
X261465593Y-325378570D02*
X261429879Y-325449999D01*
X261429879Y-325449999D02*
X261429879Y-325628570D01*
X261429879Y-325628570D02*
X261465593Y-325699999D01*
X261465593Y-325699999D02*
X261501308Y-325735713D01*
X261501308Y-325735713D02*
X261572736Y-325771427D01*
X261572736Y-325771427D02*
X261751308Y-325771427D01*
X261751308Y-325771427D02*
X261822736Y-325735713D01*
X261822736Y-325735713D02*
X261858451Y-325699999D01*
X261858451Y-325699999D02*
X261894165Y-325628570D01*
X261894165Y-325628570D02*
X261894165Y-325449999D01*
X261894165Y-325449999D02*
X261858451Y-325378570D01*
X261858451Y-325378570D02*
X261822736Y-325342856D01*
X255612736Y-164352856D02*
X255648451Y-164317142D01*
X255648451Y-164317142D02*
X255684165Y-164209999D01*
X255684165Y-164209999D02*
X255684165Y-164138571D01*
X255684165Y-164138571D02*
X255648451Y-164031428D01*
X255648451Y-164031428D02*
X255577022Y-163959999D01*
X255577022Y-163959999D02*
X255505593Y-163924285D01*
X255505593Y-163924285D02*
X255362736Y-163888571D01*
X255362736Y-163888571D02*
X255255593Y-163888571D01*
X255255593Y-163888571D02*
X255112736Y-163924285D01*
X255112736Y-163924285D02*
X255041308Y-163959999D01*
X255041308Y-163959999D02*
X254969879Y-164031428D01*
X254969879Y-164031428D02*
X254934165Y-164138571D01*
X254934165Y-164138571D02*
X254934165Y-164209999D01*
X254934165Y-164209999D02*
X254969879Y-164317142D01*
X254969879Y-164317142D02*
X255005593Y-164352856D01*
X254934165Y-165031428D02*
X254934165Y-164674285D01*
X254934165Y-164674285D02*
X255291308Y-164638571D01*
X255291308Y-164638571D02*
X255255593Y-164674285D01*
X255255593Y-164674285D02*
X255219879Y-164745714D01*
X255219879Y-164745714D02*
X255219879Y-164924285D01*
X255219879Y-164924285D02*
X255255593Y-164995714D01*
X255255593Y-164995714D02*
X255291308Y-165031428D01*
X255291308Y-165031428D02*
X255362736Y-165067142D01*
X255362736Y-165067142D02*
X255541308Y-165067142D01*
X255541308Y-165067142D02*
X255612736Y-165031428D01*
X255612736Y-165031428D02*
X255648451Y-164995714D01*
X255648451Y-164995714D02*
X255684165Y-164924285D01*
X255684165Y-164924285D02*
X255684165Y-164745714D01*
X255684165Y-164745714D02*
X255648451Y-164674285D01*
X255648451Y-164674285D02*
X255612736Y-164638571D01*
X254934165Y-165317142D02*
X254934165Y-165781428D01*
X254934165Y-165781428D02*
X255219879Y-165531428D01*
X255219879Y-165531428D02*
X255219879Y-165638571D01*
X255219879Y-165638571D02*
X255255593Y-165710000D01*
X255255593Y-165710000D02*
X255291308Y-165745714D01*
X255291308Y-165745714D02*
X255362736Y-165781428D01*
X255362736Y-165781428D02*
X255541308Y-165781428D01*
X255541308Y-165781428D02*
X255612736Y-165745714D01*
X255612736Y-165745714D02*
X255648451Y-165710000D01*
X255648451Y-165710000D02*
X255684165Y-165638571D01*
X255684165Y-165638571D02*
X255684165Y-165424285D01*
X255684165Y-165424285D02*
X255648451Y-165352857D01*
X255648451Y-165352857D02*
X255612736Y-165317142D01*
X359275595Y-341606819D02*
X359275595Y-342416342D01*
X359275595Y-342416342D02*
X359227976Y-342511580D01*
X359227976Y-342511580D02*
X359180357Y-342559200D01*
X359180357Y-342559200D02*
X359085119Y-342606819D01*
X359085119Y-342606819D02*
X358894643Y-342606819D01*
X358894643Y-342606819D02*
X358799405Y-342559200D01*
X358799405Y-342559200D02*
X358751786Y-342511580D01*
X358751786Y-342511580D02*
X358704167Y-342416342D01*
X358704167Y-342416342D02*
X358704167Y-341606819D01*
X357704167Y-342606819D02*
X358275595Y-342606819D01*
X357989881Y-342606819D02*
X357989881Y-341606819D01*
X357989881Y-341606819D02*
X358085119Y-341749676D01*
X358085119Y-341749676D02*
X358180357Y-341844914D01*
X358180357Y-341844914D02*
X358275595Y-341892533D01*
X356799405Y-341606819D02*
X357275595Y-341606819D01*
X357275595Y-341606819D02*
X357323214Y-342083009D01*
X357323214Y-342083009D02*
X357275595Y-342035390D01*
X357275595Y-342035390D02*
X357180357Y-341987771D01*
X357180357Y-341987771D02*
X356942262Y-341987771D01*
X356942262Y-341987771D02*
X356847024Y-342035390D01*
X356847024Y-342035390D02*
X356799405Y-342083009D01*
X356799405Y-342083009D02*
X356751786Y-342178247D01*
X356751786Y-342178247D02*
X356751786Y-342416342D01*
X356751786Y-342416342D02*
X356799405Y-342511580D01*
X356799405Y-342511580D02*
X356847024Y-342559200D01*
X356847024Y-342559200D02*
X356942262Y-342606819D01*
X356942262Y-342606819D02*
X357180357Y-342606819D01*
X357180357Y-342606819D02*
X357275595Y-342559200D01*
X357275595Y-342559200D02*
X357323214Y-342511580D01*
X289462736Y-377857856D02*
X289498451Y-377822142D01*
X289498451Y-377822142D02*
X289534165Y-377714999D01*
X289534165Y-377714999D02*
X289534165Y-377643571D01*
X289534165Y-377643571D02*
X289498451Y-377536428D01*
X289498451Y-377536428D02*
X289427022Y-377464999D01*
X289427022Y-377464999D02*
X289355593Y-377429285D01*
X289355593Y-377429285D02*
X289212736Y-377393571D01*
X289212736Y-377393571D02*
X289105593Y-377393571D01*
X289105593Y-377393571D02*
X288962736Y-377429285D01*
X288962736Y-377429285D02*
X288891308Y-377464999D01*
X288891308Y-377464999D02*
X288819879Y-377536428D01*
X288819879Y-377536428D02*
X288784165Y-377643571D01*
X288784165Y-377643571D02*
X288784165Y-377714999D01*
X288784165Y-377714999D02*
X288819879Y-377822142D01*
X288819879Y-377822142D02*
X288855593Y-377857856D01*
X288784165Y-378500714D02*
X288784165Y-378357856D01*
X288784165Y-378357856D02*
X288819879Y-378286428D01*
X288819879Y-378286428D02*
X288855593Y-378250714D01*
X288855593Y-378250714D02*
X288962736Y-378179285D01*
X288962736Y-378179285D02*
X289105593Y-378143571D01*
X289105593Y-378143571D02*
X289391308Y-378143571D01*
X289391308Y-378143571D02*
X289462736Y-378179285D01*
X289462736Y-378179285D02*
X289498451Y-378214999D01*
X289498451Y-378214999D02*
X289534165Y-378286428D01*
X289534165Y-378286428D02*
X289534165Y-378429285D01*
X289534165Y-378429285D02*
X289498451Y-378500714D01*
X289498451Y-378500714D02*
X289462736Y-378536428D01*
X289462736Y-378536428D02*
X289391308Y-378572142D01*
X289391308Y-378572142D02*
X289212736Y-378572142D01*
X289212736Y-378572142D02*
X289141308Y-378536428D01*
X289141308Y-378536428D02*
X289105593Y-378500714D01*
X289105593Y-378500714D02*
X289069879Y-378429285D01*
X289069879Y-378429285D02*
X289069879Y-378286428D01*
X289069879Y-378286428D02*
X289105593Y-378214999D01*
X289105593Y-378214999D02*
X289141308Y-378179285D01*
X289141308Y-378179285D02*
X289212736Y-378143571D01*
X288784165Y-379036428D02*
X288784165Y-379107857D01*
X288784165Y-379107857D02*
X288819879Y-379179285D01*
X288819879Y-379179285D02*
X288855593Y-379215000D01*
X288855593Y-379215000D02*
X288927022Y-379250714D01*
X288927022Y-379250714D02*
X289069879Y-379286428D01*
X289069879Y-379286428D02*
X289248451Y-379286428D01*
X289248451Y-379286428D02*
X289391308Y-379250714D01*
X289391308Y-379250714D02*
X289462736Y-379215000D01*
X289462736Y-379215000D02*
X289498451Y-379179285D01*
X289498451Y-379179285D02*
X289534165Y-379107857D01*
X289534165Y-379107857D02*
X289534165Y-379036428D01*
X289534165Y-379036428D02*
X289498451Y-378965000D01*
X289498451Y-378965000D02*
X289462736Y-378929285D01*
X289462736Y-378929285D02*
X289391308Y-378893571D01*
X289391308Y-378893571D02*
X289248451Y-378857857D01*
X289248451Y-378857857D02*
X289069879Y-378857857D01*
X289069879Y-378857857D02*
X288927022Y-378893571D01*
X288927022Y-378893571D02*
X288855593Y-378929285D01*
X288855593Y-378929285D02*
X288819879Y-378965000D01*
X288819879Y-378965000D02*
X288784165Y-379036428D01*
X261602736Y-372277856D02*
X261638451Y-372242142D01*
X261638451Y-372242142D02*
X261674165Y-372134999D01*
X261674165Y-372134999D02*
X261674165Y-372063571D01*
X261674165Y-372063571D02*
X261638451Y-371956428D01*
X261638451Y-371956428D02*
X261567022Y-371884999D01*
X261567022Y-371884999D02*
X261495593Y-371849285D01*
X261495593Y-371849285D02*
X261352736Y-371813571D01*
X261352736Y-371813571D02*
X261245593Y-371813571D01*
X261245593Y-371813571D02*
X261102736Y-371849285D01*
X261102736Y-371849285D02*
X261031308Y-371884999D01*
X261031308Y-371884999D02*
X260959879Y-371956428D01*
X260959879Y-371956428D02*
X260924165Y-372063571D01*
X260924165Y-372063571D02*
X260924165Y-372134999D01*
X260924165Y-372134999D02*
X260959879Y-372242142D01*
X260959879Y-372242142D02*
X260995593Y-372277856D01*
X260924165Y-372920714D02*
X260924165Y-372777856D01*
X260924165Y-372777856D02*
X260959879Y-372706428D01*
X260959879Y-372706428D02*
X260995593Y-372670714D01*
X260995593Y-372670714D02*
X261102736Y-372599285D01*
X261102736Y-372599285D02*
X261245593Y-372563571D01*
X261245593Y-372563571D02*
X261531308Y-372563571D01*
X261531308Y-372563571D02*
X261602736Y-372599285D01*
X261602736Y-372599285D02*
X261638451Y-372634999D01*
X261638451Y-372634999D02*
X261674165Y-372706428D01*
X261674165Y-372706428D02*
X261674165Y-372849285D01*
X261674165Y-372849285D02*
X261638451Y-372920714D01*
X261638451Y-372920714D02*
X261602736Y-372956428D01*
X261602736Y-372956428D02*
X261531308Y-372992142D01*
X261531308Y-372992142D02*
X261352736Y-372992142D01*
X261352736Y-372992142D02*
X261281308Y-372956428D01*
X261281308Y-372956428D02*
X261245593Y-372920714D01*
X261245593Y-372920714D02*
X261209879Y-372849285D01*
X261209879Y-372849285D02*
X261209879Y-372706428D01*
X261209879Y-372706428D02*
X261245593Y-372634999D01*
X261245593Y-372634999D02*
X261281308Y-372599285D01*
X261281308Y-372599285D02*
X261352736Y-372563571D01*
X261174165Y-373635000D02*
X261674165Y-373635000D01*
X260888451Y-373456428D02*
X261424165Y-373277857D01*
X261424165Y-373277857D02*
X261424165Y-373742142D01*
X254992736Y-109092856D02*
X255028451Y-109057142D01*
X255028451Y-109057142D02*
X255064165Y-108949999D01*
X255064165Y-108949999D02*
X255064165Y-108878571D01*
X255064165Y-108878571D02*
X255028451Y-108771428D01*
X255028451Y-108771428D02*
X254957022Y-108699999D01*
X254957022Y-108699999D02*
X254885593Y-108664285D01*
X254885593Y-108664285D02*
X254742736Y-108628571D01*
X254742736Y-108628571D02*
X254635593Y-108628571D01*
X254635593Y-108628571D02*
X254492736Y-108664285D01*
X254492736Y-108664285D02*
X254421308Y-108699999D01*
X254421308Y-108699999D02*
X254349879Y-108771428D01*
X254349879Y-108771428D02*
X254314165Y-108878571D01*
X254314165Y-108878571D02*
X254314165Y-108949999D01*
X254314165Y-108949999D02*
X254349879Y-109057142D01*
X254349879Y-109057142D02*
X254385593Y-109092856D01*
X254385593Y-109378571D02*
X254349879Y-109414285D01*
X254349879Y-109414285D02*
X254314165Y-109485714D01*
X254314165Y-109485714D02*
X254314165Y-109664285D01*
X254314165Y-109664285D02*
X254349879Y-109735714D01*
X254349879Y-109735714D02*
X254385593Y-109771428D01*
X254385593Y-109771428D02*
X254457022Y-109807142D01*
X254457022Y-109807142D02*
X254528451Y-109807142D01*
X254528451Y-109807142D02*
X254635593Y-109771428D01*
X254635593Y-109771428D02*
X255064165Y-109342856D01*
X255064165Y-109342856D02*
X255064165Y-109807142D01*
X254314165Y-110057142D02*
X254314165Y-110521428D01*
X254314165Y-110521428D02*
X254599879Y-110271428D01*
X254599879Y-110271428D02*
X254599879Y-110378571D01*
X254599879Y-110378571D02*
X254635593Y-110450000D01*
X254635593Y-110450000D02*
X254671308Y-110485714D01*
X254671308Y-110485714D02*
X254742736Y-110521428D01*
X254742736Y-110521428D02*
X254921308Y-110521428D01*
X254921308Y-110521428D02*
X254992736Y-110485714D01*
X254992736Y-110485714D02*
X255028451Y-110450000D01*
X255028451Y-110450000D02*
X255064165Y-110378571D01*
X255064165Y-110378571D02*
X255064165Y-110164285D01*
X255064165Y-110164285D02*
X255028451Y-110092857D01*
X255028451Y-110092857D02*
X254992736Y-110057142D01*
X216172486Y-210882735D02*
X216208200Y-210918450D01*
X216208200Y-210918450D02*
X216315343Y-210954164D01*
X216315343Y-210954164D02*
X216386771Y-210954164D01*
X216386771Y-210954164D02*
X216493914Y-210918450D01*
X216493914Y-210918450D02*
X216565343Y-210847021D01*
X216565343Y-210847021D02*
X216601057Y-210775592D01*
X216601057Y-210775592D02*
X216636771Y-210632735D01*
X216636771Y-210632735D02*
X216636771Y-210525592D01*
X216636771Y-210525592D02*
X216601057Y-210382735D01*
X216601057Y-210382735D02*
X216565343Y-210311307D01*
X216565343Y-210311307D02*
X216493914Y-210239878D01*
X216493914Y-210239878D02*
X216386771Y-210204164D01*
X216386771Y-210204164D02*
X216315343Y-210204164D01*
X216315343Y-210204164D02*
X216208200Y-210239878D01*
X216208200Y-210239878D02*
X216172486Y-210275592D01*
X215458200Y-210954164D02*
X215886771Y-210954164D01*
X215672486Y-210954164D02*
X215672486Y-210204164D01*
X215672486Y-210204164D02*
X215743914Y-210311307D01*
X215743914Y-210311307D02*
X215815343Y-210382735D01*
X215815343Y-210382735D02*
X215886771Y-210418450D01*
X214993914Y-210204164D02*
X214922485Y-210204164D01*
X214922485Y-210204164D02*
X214851057Y-210239878D01*
X214851057Y-210239878D02*
X214815343Y-210275592D01*
X214815343Y-210275592D02*
X214779628Y-210347021D01*
X214779628Y-210347021D02*
X214743914Y-210489878D01*
X214743914Y-210489878D02*
X214743914Y-210668450D01*
X214743914Y-210668450D02*
X214779628Y-210811307D01*
X214779628Y-210811307D02*
X214815343Y-210882735D01*
X214815343Y-210882735D02*
X214851057Y-210918450D01*
X214851057Y-210918450D02*
X214922485Y-210954164D01*
X214922485Y-210954164D02*
X214993914Y-210954164D01*
X214993914Y-210954164D02*
X215065343Y-210918450D01*
X215065343Y-210918450D02*
X215101057Y-210882735D01*
X215101057Y-210882735D02*
X215136771Y-210811307D01*
X215136771Y-210811307D02*
X215172485Y-210668450D01*
X215172485Y-210668450D02*
X215172485Y-210489878D01*
X215172485Y-210489878D02*
X215136771Y-210347021D01*
X215136771Y-210347021D02*
X215101057Y-210275592D01*
X215101057Y-210275592D02*
X215065343Y-210239878D01*
X215065343Y-210239878D02*
X214993914Y-210204164D01*
X214386771Y-210954164D02*
X214243914Y-210954164D01*
X214243914Y-210954164D02*
X214172485Y-210918450D01*
X214172485Y-210918450D02*
X214136771Y-210882735D01*
X214136771Y-210882735D02*
X214065342Y-210775592D01*
X214065342Y-210775592D02*
X214029628Y-210632735D01*
X214029628Y-210632735D02*
X214029628Y-210347021D01*
X214029628Y-210347021D02*
X214065342Y-210275592D01*
X214065342Y-210275592D02*
X214101057Y-210239878D01*
X214101057Y-210239878D02*
X214172485Y-210204164D01*
X214172485Y-210204164D02*
X214315342Y-210204164D01*
X214315342Y-210204164D02*
X214386771Y-210239878D01*
X214386771Y-210239878D02*
X214422485Y-210275592D01*
X214422485Y-210275592D02*
X214458199Y-210347021D01*
X214458199Y-210347021D02*
X214458199Y-210525592D01*
X214458199Y-210525592D02*
X214422485Y-210597021D01*
X214422485Y-210597021D02*
X214386771Y-210632735D01*
X214386771Y-210632735D02*
X214315342Y-210668450D01*
X214315342Y-210668450D02*
X214172485Y-210668450D01*
X214172485Y-210668450D02*
X214101057Y-210632735D01*
X214101057Y-210632735D02*
X214065342Y-210597021D01*
X214065342Y-210597021D02*
X214029628Y-210525592D01*
X297627735Y-181990713D02*
X297663450Y-181954999D01*
X297663450Y-181954999D02*
X297699164Y-181847856D01*
X297699164Y-181847856D02*
X297699164Y-181776428D01*
X297699164Y-181776428D02*
X297663450Y-181669285D01*
X297663450Y-181669285D02*
X297592021Y-181597856D01*
X297592021Y-181597856D02*
X297520592Y-181562142D01*
X297520592Y-181562142D02*
X297377735Y-181526428D01*
X297377735Y-181526428D02*
X297270592Y-181526428D01*
X297270592Y-181526428D02*
X297127735Y-181562142D01*
X297127735Y-181562142D02*
X297056307Y-181597856D01*
X297056307Y-181597856D02*
X296984878Y-181669285D01*
X296984878Y-181669285D02*
X296949164Y-181776428D01*
X296949164Y-181776428D02*
X296949164Y-181847856D01*
X296949164Y-181847856D02*
X296984878Y-181954999D01*
X296984878Y-181954999D02*
X297020592Y-181990713D01*
X297699164Y-182704999D02*
X297699164Y-182276428D01*
X297699164Y-182490713D02*
X296949164Y-182490713D01*
X296949164Y-182490713D02*
X297056307Y-182419285D01*
X297056307Y-182419285D02*
X297127735Y-182347856D01*
X297127735Y-182347856D02*
X297163450Y-182276428D01*
X297020592Y-182990714D02*
X296984878Y-183026428D01*
X296984878Y-183026428D02*
X296949164Y-183097857D01*
X296949164Y-183097857D02*
X296949164Y-183276428D01*
X296949164Y-183276428D02*
X296984878Y-183347857D01*
X296984878Y-183347857D02*
X297020592Y-183383571D01*
X297020592Y-183383571D02*
X297092021Y-183419285D01*
X297092021Y-183419285D02*
X297163450Y-183419285D01*
X297163450Y-183419285D02*
X297270592Y-183383571D01*
X297270592Y-183383571D02*
X297699164Y-182954999D01*
X297699164Y-182954999D02*
X297699164Y-183419285D01*
X297270592Y-183847857D02*
X297234878Y-183776428D01*
X297234878Y-183776428D02*
X297199164Y-183740714D01*
X297199164Y-183740714D02*
X297127735Y-183705000D01*
X297127735Y-183705000D02*
X297092021Y-183705000D01*
X297092021Y-183705000D02*
X297020592Y-183740714D01*
X297020592Y-183740714D02*
X296984878Y-183776428D01*
X296984878Y-183776428D02*
X296949164Y-183847857D01*
X296949164Y-183847857D02*
X296949164Y-183990714D01*
X296949164Y-183990714D02*
X296984878Y-184062143D01*
X296984878Y-184062143D02*
X297020592Y-184097857D01*
X297020592Y-184097857D02*
X297092021Y-184133571D01*
X297092021Y-184133571D02*
X297127735Y-184133571D01*
X297127735Y-184133571D02*
X297199164Y-184097857D01*
X297199164Y-184097857D02*
X297234878Y-184062143D01*
X297234878Y-184062143D02*
X297270592Y-183990714D01*
X297270592Y-183990714D02*
X297270592Y-183847857D01*
X297270592Y-183847857D02*
X297306307Y-183776428D01*
X297306307Y-183776428D02*
X297342021Y-183740714D01*
X297342021Y-183740714D02*
X297413450Y-183705000D01*
X297413450Y-183705000D02*
X297556307Y-183705000D01*
X297556307Y-183705000D02*
X297627735Y-183740714D01*
X297627735Y-183740714D02*
X297663450Y-183776428D01*
X297663450Y-183776428D02*
X297699164Y-183847857D01*
X297699164Y-183847857D02*
X297699164Y-183990714D01*
X297699164Y-183990714D02*
X297663450Y-184062143D01*
X297663450Y-184062143D02*
X297627735Y-184097857D01*
X297627735Y-184097857D02*
X297556307Y-184133571D01*
X297556307Y-184133571D02*
X297413450Y-184133571D01*
X297413450Y-184133571D02*
X297342021Y-184097857D01*
X297342021Y-184097857D02*
X297306307Y-184062143D01*
X297306307Y-184062143D02*
X297270592Y-183990714D01*
X284627144Y-119552735D02*
X284662858Y-119588450D01*
X284662858Y-119588450D02*
X284770001Y-119624164D01*
X284770001Y-119624164D02*
X284841429Y-119624164D01*
X284841429Y-119624164D02*
X284948572Y-119588450D01*
X284948572Y-119588450D02*
X285020001Y-119517021D01*
X285020001Y-119517021D02*
X285055715Y-119445592D01*
X285055715Y-119445592D02*
X285091429Y-119302735D01*
X285091429Y-119302735D02*
X285091429Y-119195592D01*
X285091429Y-119195592D02*
X285055715Y-119052735D01*
X285055715Y-119052735D02*
X285020001Y-118981307D01*
X285020001Y-118981307D02*
X284948572Y-118909878D01*
X284948572Y-118909878D02*
X284841429Y-118874164D01*
X284841429Y-118874164D02*
X284770001Y-118874164D01*
X284770001Y-118874164D02*
X284662858Y-118909878D01*
X284662858Y-118909878D02*
X284627144Y-118945592D01*
X283912858Y-119624164D02*
X284341429Y-119624164D01*
X284127144Y-119624164D02*
X284127144Y-118874164D01*
X284127144Y-118874164D02*
X284198572Y-118981307D01*
X284198572Y-118981307D02*
X284270001Y-119052735D01*
X284270001Y-119052735D02*
X284341429Y-119088450D01*
X283270001Y-119124164D02*
X283270001Y-119624164D01*
X283448572Y-118838450D02*
X283627143Y-119374164D01*
X283627143Y-119374164D02*
X283162858Y-119374164D01*
X260282736Y-49869999D02*
X260318451Y-49834285D01*
X260318451Y-49834285D02*
X260354165Y-49727142D01*
X260354165Y-49727142D02*
X260354165Y-49655714D01*
X260354165Y-49655714D02*
X260318451Y-49548571D01*
X260318451Y-49548571D02*
X260247022Y-49477142D01*
X260247022Y-49477142D02*
X260175593Y-49441428D01*
X260175593Y-49441428D02*
X260032736Y-49405714D01*
X260032736Y-49405714D02*
X259925593Y-49405714D01*
X259925593Y-49405714D02*
X259782736Y-49441428D01*
X259782736Y-49441428D02*
X259711308Y-49477142D01*
X259711308Y-49477142D02*
X259639879Y-49548571D01*
X259639879Y-49548571D02*
X259604165Y-49655714D01*
X259604165Y-49655714D02*
X259604165Y-49727142D01*
X259604165Y-49727142D02*
X259639879Y-49834285D01*
X259639879Y-49834285D02*
X259675593Y-49869999D01*
X259925593Y-50298571D02*
X259889879Y-50227142D01*
X259889879Y-50227142D02*
X259854165Y-50191428D01*
X259854165Y-50191428D02*
X259782736Y-50155714D01*
X259782736Y-50155714D02*
X259747022Y-50155714D01*
X259747022Y-50155714D02*
X259675593Y-50191428D01*
X259675593Y-50191428D02*
X259639879Y-50227142D01*
X259639879Y-50227142D02*
X259604165Y-50298571D01*
X259604165Y-50298571D02*
X259604165Y-50441428D01*
X259604165Y-50441428D02*
X259639879Y-50512857D01*
X259639879Y-50512857D02*
X259675593Y-50548571D01*
X259675593Y-50548571D02*
X259747022Y-50584285D01*
X259747022Y-50584285D02*
X259782736Y-50584285D01*
X259782736Y-50584285D02*
X259854165Y-50548571D01*
X259854165Y-50548571D02*
X259889879Y-50512857D01*
X259889879Y-50512857D02*
X259925593Y-50441428D01*
X259925593Y-50441428D02*
X259925593Y-50298571D01*
X259925593Y-50298571D02*
X259961308Y-50227142D01*
X259961308Y-50227142D02*
X259997022Y-50191428D01*
X259997022Y-50191428D02*
X260068451Y-50155714D01*
X260068451Y-50155714D02*
X260211308Y-50155714D01*
X260211308Y-50155714D02*
X260282736Y-50191428D01*
X260282736Y-50191428D02*
X260318451Y-50227142D01*
X260318451Y-50227142D02*
X260354165Y-50298571D01*
X260354165Y-50298571D02*
X260354165Y-50441428D01*
X260354165Y-50441428D02*
X260318451Y-50512857D01*
X260318451Y-50512857D02*
X260282736Y-50548571D01*
X260282736Y-50548571D02*
X260211308Y-50584285D01*
X260211308Y-50584285D02*
X260068451Y-50584285D01*
X260068451Y-50584285D02*
X259997022Y-50548571D01*
X259997022Y-50548571D02*
X259961308Y-50512857D01*
X259961308Y-50512857D02*
X259925593Y-50441428D01*
X284627144Y-92572735D02*
X284662858Y-92608450D01*
X284662858Y-92608450D02*
X284770001Y-92644164D01*
X284770001Y-92644164D02*
X284841429Y-92644164D01*
X284841429Y-92644164D02*
X284948572Y-92608450D01*
X284948572Y-92608450D02*
X285020001Y-92537021D01*
X285020001Y-92537021D02*
X285055715Y-92465592D01*
X285055715Y-92465592D02*
X285091429Y-92322735D01*
X285091429Y-92322735D02*
X285091429Y-92215592D01*
X285091429Y-92215592D02*
X285055715Y-92072735D01*
X285055715Y-92072735D02*
X285020001Y-92001307D01*
X285020001Y-92001307D02*
X284948572Y-91929878D01*
X284948572Y-91929878D02*
X284841429Y-91894164D01*
X284841429Y-91894164D02*
X284770001Y-91894164D01*
X284770001Y-91894164D02*
X284662858Y-91929878D01*
X284662858Y-91929878D02*
X284627144Y-91965592D01*
X284341429Y-91965592D02*
X284305715Y-91929878D01*
X284305715Y-91929878D02*
X284234287Y-91894164D01*
X284234287Y-91894164D02*
X284055715Y-91894164D01*
X284055715Y-91894164D02*
X283984287Y-91929878D01*
X283984287Y-91929878D02*
X283948572Y-91965592D01*
X283948572Y-91965592D02*
X283912858Y-92037021D01*
X283912858Y-92037021D02*
X283912858Y-92108450D01*
X283912858Y-92108450D02*
X283948572Y-92215592D01*
X283948572Y-92215592D02*
X284377144Y-92644164D01*
X284377144Y-92644164D02*
X283912858Y-92644164D01*
X283234286Y-91894164D02*
X283591429Y-91894164D01*
X283591429Y-91894164D02*
X283627143Y-92251307D01*
X283627143Y-92251307D02*
X283591429Y-92215592D01*
X283591429Y-92215592D02*
X283520001Y-92179878D01*
X283520001Y-92179878D02*
X283341429Y-92179878D01*
X283341429Y-92179878D02*
X283270001Y-92215592D01*
X283270001Y-92215592D02*
X283234286Y-92251307D01*
X283234286Y-92251307D02*
X283198572Y-92322735D01*
X283198572Y-92322735D02*
X283198572Y-92501307D01*
X283198572Y-92501307D02*
X283234286Y-92572735D01*
X283234286Y-92572735D02*
X283270001Y-92608450D01*
X283270001Y-92608450D02*
X283341429Y-92644164D01*
X283341429Y-92644164D02*
X283520001Y-92644164D01*
X283520001Y-92644164D02*
X283591429Y-92608450D01*
X283591429Y-92608450D02*
X283627143Y-92572735D01*
X314382736Y-109062856D02*
X314418451Y-109027142D01*
X314418451Y-109027142D02*
X314454165Y-108919999D01*
X314454165Y-108919999D02*
X314454165Y-108848571D01*
X314454165Y-108848571D02*
X314418451Y-108741428D01*
X314418451Y-108741428D02*
X314347022Y-108669999D01*
X314347022Y-108669999D02*
X314275593Y-108634285D01*
X314275593Y-108634285D02*
X314132736Y-108598571D01*
X314132736Y-108598571D02*
X314025593Y-108598571D01*
X314025593Y-108598571D02*
X313882736Y-108634285D01*
X313882736Y-108634285D02*
X313811308Y-108669999D01*
X313811308Y-108669999D02*
X313739879Y-108741428D01*
X313739879Y-108741428D02*
X313704165Y-108848571D01*
X313704165Y-108848571D02*
X313704165Y-108919999D01*
X313704165Y-108919999D02*
X313739879Y-109027142D01*
X313739879Y-109027142D02*
X313775593Y-109062856D01*
X314454165Y-109777142D02*
X314454165Y-109348571D01*
X314454165Y-109562856D02*
X313704165Y-109562856D01*
X313704165Y-109562856D02*
X313811308Y-109491428D01*
X313811308Y-109491428D02*
X313882736Y-109419999D01*
X313882736Y-109419999D02*
X313918451Y-109348571D01*
X314025593Y-110205714D02*
X313989879Y-110134285D01*
X313989879Y-110134285D02*
X313954165Y-110098571D01*
X313954165Y-110098571D02*
X313882736Y-110062857D01*
X313882736Y-110062857D02*
X313847022Y-110062857D01*
X313847022Y-110062857D02*
X313775593Y-110098571D01*
X313775593Y-110098571D02*
X313739879Y-110134285D01*
X313739879Y-110134285D02*
X313704165Y-110205714D01*
X313704165Y-110205714D02*
X313704165Y-110348571D01*
X313704165Y-110348571D02*
X313739879Y-110420000D01*
X313739879Y-110420000D02*
X313775593Y-110455714D01*
X313775593Y-110455714D02*
X313847022Y-110491428D01*
X313847022Y-110491428D02*
X313882736Y-110491428D01*
X313882736Y-110491428D02*
X313954165Y-110455714D01*
X313954165Y-110455714D02*
X313989879Y-110420000D01*
X313989879Y-110420000D02*
X314025593Y-110348571D01*
X314025593Y-110348571D02*
X314025593Y-110205714D01*
X314025593Y-110205714D02*
X314061308Y-110134285D01*
X314061308Y-110134285D02*
X314097022Y-110098571D01*
X314097022Y-110098571D02*
X314168451Y-110062857D01*
X314168451Y-110062857D02*
X314311308Y-110062857D01*
X314311308Y-110062857D02*
X314382736Y-110098571D01*
X314382736Y-110098571D02*
X314418451Y-110134285D01*
X314418451Y-110134285D02*
X314454165Y-110205714D01*
X314454165Y-110205714D02*
X314454165Y-110348571D01*
X314454165Y-110348571D02*
X314418451Y-110420000D01*
X314418451Y-110420000D02*
X314382736Y-110455714D01*
X314382736Y-110455714D02*
X314311308Y-110491428D01*
X314311308Y-110491428D02*
X314168451Y-110491428D01*
X314168451Y-110491428D02*
X314097022Y-110455714D01*
X314097022Y-110455714D02*
X314061308Y-110420000D01*
X314061308Y-110420000D02*
X314025593Y-110348571D01*
X363152143Y-267207734D02*
X363187857Y-267243449D01*
X363187857Y-267243449D02*
X363295000Y-267279163D01*
X363295000Y-267279163D02*
X363366428Y-267279163D01*
X363366428Y-267279163D02*
X363473571Y-267243449D01*
X363473571Y-267243449D02*
X363545000Y-267172020D01*
X363545000Y-267172020D02*
X363580714Y-267100591D01*
X363580714Y-267100591D02*
X363616428Y-266957734D01*
X363616428Y-266957734D02*
X363616428Y-266850591D01*
X363616428Y-266850591D02*
X363580714Y-266707734D01*
X363580714Y-266707734D02*
X363545000Y-266636306D01*
X363545000Y-266636306D02*
X363473571Y-266564877D01*
X363473571Y-266564877D02*
X363366428Y-266529163D01*
X363366428Y-266529163D02*
X363295000Y-266529163D01*
X363295000Y-266529163D02*
X363187857Y-266564877D01*
X363187857Y-266564877D02*
X363152143Y-266600591D01*
X362795000Y-267279163D02*
X362652143Y-267279163D01*
X362652143Y-267279163D02*
X362580714Y-267243449D01*
X362580714Y-267243449D02*
X362545000Y-267207734D01*
X362545000Y-267207734D02*
X362473571Y-267100591D01*
X362473571Y-267100591D02*
X362437857Y-266957734D01*
X362437857Y-266957734D02*
X362437857Y-266672020D01*
X362437857Y-266672020D02*
X362473571Y-266600591D01*
X362473571Y-266600591D02*
X362509286Y-266564877D01*
X362509286Y-266564877D02*
X362580714Y-266529163D01*
X362580714Y-266529163D02*
X362723571Y-266529163D01*
X362723571Y-266529163D02*
X362795000Y-266564877D01*
X362795000Y-266564877D02*
X362830714Y-266600591D01*
X362830714Y-266600591D02*
X362866428Y-266672020D01*
X362866428Y-266672020D02*
X362866428Y-266850591D01*
X362866428Y-266850591D02*
X362830714Y-266922020D01*
X362830714Y-266922020D02*
X362795000Y-266957734D01*
X362795000Y-266957734D02*
X362723571Y-266993449D01*
X362723571Y-266993449D02*
X362580714Y-266993449D01*
X362580714Y-266993449D02*
X362509286Y-266957734D01*
X362509286Y-266957734D02*
X362473571Y-266922020D01*
X362473571Y-266922020D02*
X362437857Y-266850591D01*
X361795000Y-266779163D02*
X361795000Y-267279163D01*
X361973571Y-266493449D02*
X362152142Y-267029163D01*
X362152142Y-267029163D02*
X361687857Y-267029163D01*
X320012736Y-321342855D02*
X320048451Y-321307141D01*
X320048451Y-321307141D02*
X320084165Y-321199998D01*
X320084165Y-321199998D02*
X320084165Y-321128570D01*
X320084165Y-321128570D02*
X320048451Y-321021427D01*
X320048451Y-321021427D02*
X319977022Y-320949998D01*
X319977022Y-320949998D02*
X319905593Y-320914284D01*
X319905593Y-320914284D02*
X319762736Y-320878570D01*
X319762736Y-320878570D02*
X319655593Y-320878570D01*
X319655593Y-320878570D02*
X319512736Y-320914284D01*
X319512736Y-320914284D02*
X319441308Y-320949998D01*
X319441308Y-320949998D02*
X319369879Y-321021427D01*
X319369879Y-321021427D02*
X319334165Y-321128570D01*
X319334165Y-321128570D02*
X319334165Y-321199998D01*
X319334165Y-321199998D02*
X319369879Y-321307141D01*
X319369879Y-321307141D02*
X319405593Y-321342855D01*
X319334165Y-321592855D02*
X319334165Y-322057141D01*
X319334165Y-322057141D02*
X319619879Y-321807141D01*
X319619879Y-321807141D02*
X319619879Y-321914284D01*
X319619879Y-321914284D02*
X319655593Y-321985713D01*
X319655593Y-321985713D02*
X319691308Y-322021427D01*
X319691308Y-322021427D02*
X319762736Y-322057141D01*
X319762736Y-322057141D02*
X319941308Y-322057141D01*
X319941308Y-322057141D02*
X320012736Y-322021427D01*
X320012736Y-322021427D02*
X320048451Y-321985713D01*
X320048451Y-321985713D02*
X320084165Y-321914284D01*
X320084165Y-321914284D02*
X320084165Y-321699998D01*
X320084165Y-321699998D02*
X320048451Y-321628570D01*
X320048451Y-321628570D02*
X320012736Y-321592855D01*
X320084165Y-322414284D02*
X320084165Y-322557141D01*
X320084165Y-322557141D02*
X320048451Y-322628570D01*
X320048451Y-322628570D02*
X320012736Y-322664284D01*
X320012736Y-322664284D02*
X319905593Y-322735713D01*
X319905593Y-322735713D02*
X319762736Y-322771427D01*
X319762736Y-322771427D02*
X319477022Y-322771427D01*
X319477022Y-322771427D02*
X319405593Y-322735713D01*
X319405593Y-322735713D02*
X319369879Y-322699999D01*
X319369879Y-322699999D02*
X319334165Y-322628570D01*
X319334165Y-322628570D02*
X319334165Y-322485713D01*
X319334165Y-322485713D02*
X319369879Y-322414284D01*
X319369879Y-322414284D02*
X319405593Y-322378570D01*
X319405593Y-322378570D02*
X319477022Y-322342856D01*
X319477022Y-322342856D02*
X319655593Y-322342856D01*
X319655593Y-322342856D02*
X319727022Y-322378570D01*
X319727022Y-322378570D02*
X319762736Y-322414284D01*
X319762736Y-322414284D02*
X319798451Y-322485713D01*
X319798451Y-322485713D02*
X319798451Y-322628570D01*
X319798451Y-322628570D02*
X319762736Y-322699999D01*
X319762736Y-322699999D02*
X319727022Y-322735713D01*
X319727022Y-322735713D02*
X319655593Y-322771427D01*
X246272736Y-266370712D02*
X246308451Y-266334998D01*
X246308451Y-266334998D02*
X246344165Y-266227855D01*
X246344165Y-266227855D02*
X246344165Y-266156427D01*
X246344165Y-266156427D02*
X246308451Y-266049284D01*
X246308451Y-266049284D02*
X246237022Y-265977855D01*
X246237022Y-265977855D02*
X246165593Y-265942141D01*
X246165593Y-265942141D02*
X246022736Y-265906427D01*
X246022736Y-265906427D02*
X245915593Y-265906427D01*
X245915593Y-265906427D02*
X245772736Y-265942141D01*
X245772736Y-265942141D02*
X245701308Y-265977855D01*
X245701308Y-265977855D02*
X245629879Y-266049284D01*
X245629879Y-266049284D02*
X245594165Y-266156427D01*
X245594165Y-266156427D02*
X245594165Y-266227855D01*
X245594165Y-266227855D02*
X245629879Y-266334998D01*
X245629879Y-266334998D02*
X245665593Y-266370712D01*
X246344165Y-267084998D02*
X246344165Y-266656427D01*
X246344165Y-266870712D02*
X245594165Y-266870712D01*
X245594165Y-266870712D02*
X245701308Y-266799284D01*
X245701308Y-266799284D02*
X245772736Y-266727855D01*
X245772736Y-266727855D02*
X245808451Y-266656427D01*
X246344165Y-267799284D02*
X246344165Y-267370713D01*
X246344165Y-267584998D02*
X245594165Y-267584998D01*
X245594165Y-267584998D02*
X245701308Y-267513570D01*
X245701308Y-267513570D02*
X245772736Y-267442141D01*
X245772736Y-267442141D02*
X245808451Y-267370713D01*
X245594165Y-268049284D02*
X245594165Y-268549284D01*
X245594165Y-268549284D02*
X246344165Y-268227856D01*
X363037993Y-243817734D02*
X363073707Y-243853449D01*
X363073707Y-243853449D02*
X363180850Y-243889163D01*
X363180850Y-243889163D02*
X363252278Y-243889163D01*
X363252278Y-243889163D02*
X363359421Y-243853449D01*
X363359421Y-243853449D02*
X363430850Y-243782020D01*
X363430850Y-243782020D02*
X363466564Y-243710591D01*
X363466564Y-243710591D02*
X363502278Y-243567734D01*
X363502278Y-243567734D02*
X363502278Y-243460591D01*
X363502278Y-243460591D02*
X363466564Y-243317734D01*
X363466564Y-243317734D02*
X363430850Y-243246306D01*
X363430850Y-243246306D02*
X363359421Y-243174877D01*
X363359421Y-243174877D02*
X363252278Y-243139163D01*
X363252278Y-243139163D02*
X363180850Y-243139163D01*
X363180850Y-243139163D02*
X363073707Y-243174877D01*
X363073707Y-243174877D02*
X363037993Y-243210591D01*
X362609421Y-243460591D02*
X362680850Y-243424877D01*
X362680850Y-243424877D02*
X362716564Y-243389163D01*
X362716564Y-243389163D02*
X362752278Y-243317734D01*
X362752278Y-243317734D02*
X362752278Y-243282020D01*
X362752278Y-243282020D02*
X362716564Y-243210591D01*
X362716564Y-243210591D02*
X362680850Y-243174877D01*
X362680850Y-243174877D02*
X362609421Y-243139163D01*
X362609421Y-243139163D02*
X362466564Y-243139163D01*
X362466564Y-243139163D02*
X362395136Y-243174877D01*
X362395136Y-243174877D02*
X362359421Y-243210591D01*
X362359421Y-243210591D02*
X362323707Y-243282020D01*
X362323707Y-243282020D02*
X362323707Y-243317734D01*
X362323707Y-243317734D02*
X362359421Y-243389163D01*
X362359421Y-243389163D02*
X362395136Y-243424877D01*
X362395136Y-243424877D02*
X362466564Y-243460591D01*
X362466564Y-243460591D02*
X362609421Y-243460591D01*
X362609421Y-243460591D02*
X362680850Y-243496306D01*
X362680850Y-243496306D02*
X362716564Y-243532020D01*
X362716564Y-243532020D02*
X362752278Y-243603449D01*
X362752278Y-243603449D02*
X362752278Y-243746306D01*
X362752278Y-243746306D02*
X362716564Y-243817734D01*
X362716564Y-243817734D02*
X362680850Y-243853449D01*
X362680850Y-243853449D02*
X362609421Y-243889163D01*
X362609421Y-243889163D02*
X362466564Y-243889163D01*
X362466564Y-243889163D02*
X362395136Y-243853449D01*
X362395136Y-243853449D02*
X362359421Y-243817734D01*
X362359421Y-243817734D02*
X362323707Y-243746306D01*
X362323707Y-243746306D02*
X362323707Y-243603449D01*
X362323707Y-243603449D02*
X362359421Y-243532020D01*
X362359421Y-243532020D02*
X362395136Y-243496306D01*
X362395136Y-243496306D02*
X362466564Y-243460591D01*
X361645135Y-243139163D02*
X362002278Y-243139163D01*
X362002278Y-243139163D02*
X362037992Y-243496306D01*
X362037992Y-243496306D02*
X362002278Y-243460591D01*
X362002278Y-243460591D02*
X361930850Y-243424877D01*
X361930850Y-243424877D02*
X361752278Y-243424877D01*
X361752278Y-243424877D02*
X361680850Y-243460591D01*
X361680850Y-243460591D02*
X361645135Y-243496306D01*
X361645135Y-243496306D02*
X361609421Y-243567734D01*
X361609421Y-243567734D02*
X361609421Y-243746306D01*
X361609421Y-243746306D02*
X361645135Y-243817734D01*
X361645135Y-243817734D02*
X361680850Y-243853449D01*
X361680850Y-243853449D02*
X361752278Y-243889163D01*
X361752278Y-243889163D02*
X361930850Y-243889163D01*
X361930850Y-243889163D02*
X362002278Y-243853449D01*
X362002278Y-243853449D02*
X362037992Y-243817734D01*
X289597144Y-307682734D02*
X289632858Y-307718449D01*
X289632858Y-307718449D02*
X289740001Y-307754163D01*
X289740001Y-307754163D02*
X289811429Y-307754163D01*
X289811429Y-307754163D02*
X289918572Y-307718449D01*
X289918572Y-307718449D02*
X289990001Y-307647020D01*
X289990001Y-307647020D02*
X290025715Y-307575591D01*
X290025715Y-307575591D02*
X290061429Y-307432734D01*
X290061429Y-307432734D02*
X290061429Y-307325591D01*
X290061429Y-307325591D02*
X290025715Y-307182734D01*
X290025715Y-307182734D02*
X289990001Y-307111306D01*
X289990001Y-307111306D02*
X289918572Y-307039877D01*
X289918572Y-307039877D02*
X289811429Y-307004163D01*
X289811429Y-307004163D02*
X289740001Y-307004163D01*
X289740001Y-307004163D02*
X289632858Y-307039877D01*
X289632858Y-307039877D02*
X289597144Y-307075591D01*
X289347144Y-307004163D02*
X288882858Y-307004163D01*
X288882858Y-307004163D02*
X289132858Y-307289877D01*
X289132858Y-307289877D02*
X289025715Y-307289877D01*
X289025715Y-307289877D02*
X288954287Y-307325591D01*
X288954287Y-307325591D02*
X288918572Y-307361306D01*
X288918572Y-307361306D02*
X288882858Y-307432734D01*
X288882858Y-307432734D02*
X288882858Y-307611306D01*
X288882858Y-307611306D02*
X288918572Y-307682734D01*
X288918572Y-307682734D02*
X288954287Y-307718449D01*
X288954287Y-307718449D02*
X289025715Y-307754163D01*
X289025715Y-307754163D02*
X289240001Y-307754163D01*
X289240001Y-307754163D02*
X289311429Y-307718449D01*
X289311429Y-307718449D02*
X289347144Y-307682734D01*
X288454286Y-307325591D02*
X288525715Y-307289877D01*
X288525715Y-307289877D02*
X288561429Y-307254163D01*
X288561429Y-307254163D02*
X288597143Y-307182734D01*
X288597143Y-307182734D02*
X288597143Y-307147020D01*
X288597143Y-307147020D02*
X288561429Y-307075591D01*
X288561429Y-307075591D02*
X288525715Y-307039877D01*
X288525715Y-307039877D02*
X288454286Y-307004163D01*
X288454286Y-307004163D02*
X288311429Y-307004163D01*
X288311429Y-307004163D02*
X288240001Y-307039877D01*
X288240001Y-307039877D02*
X288204286Y-307075591D01*
X288204286Y-307075591D02*
X288168572Y-307147020D01*
X288168572Y-307147020D02*
X288168572Y-307182734D01*
X288168572Y-307182734D02*
X288204286Y-307254163D01*
X288204286Y-307254163D02*
X288240001Y-307289877D01*
X288240001Y-307289877D02*
X288311429Y-307325591D01*
X288311429Y-307325591D02*
X288454286Y-307325591D01*
X288454286Y-307325591D02*
X288525715Y-307361306D01*
X288525715Y-307361306D02*
X288561429Y-307397020D01*
X288561429Y-307397020D02*
X288597143Y-307468449D01*
X288597143Y-307468449D02*
X288597143Y-307611306D01*
X288597143Y-307611306D02*
X288561429Y-307682734D01*
X288561429Y-307682734D02*
X288525715Y-307718449D01*
X288525715Y-307718449D02*
X288454286Y-307754163D01*
X288454286Y-307754163D02*
X288311429Y-307754163D01*
X288311429Y-307754163D02*
X288240001Y-307718449D01*
X288240001Y-307718449D02*
X288204286Y-307682734D01*
X288204286Y-307682734D02*
X288168572Y-307611306D01*
X288168572Y-307611306D02*
X288168572Y-307468449D01*
X288168572Y-307468449D02*
X288204286Y-307397020D01*
X288204286Y-307397020D02*
X288240001Y-307361306D01*
X288240001Y-307361306D02*
X288311429Y-307325591D01*
X315752736Y-49549999D02*
X315788451Y-49514285D01*
X315788451Y-49514285D02*
X315824165Y-49407142D01*
X315824165Y-49407142D02*
X315824165Y-49335714D01*
X315824165Y-49335714D02*
X315788451Y-49228571D01*
X315788451Y-49228571D02*
X315717022Y-49157142D01*
X315717022Y-49157142D02*
X315645593Y-49121428D01*
X315645593Y-49121428D02*
X315502736Y-49085714D01*
X315502736Y-49085714D02*
X315395593Y-49085714D01*
X315395593Y-49085714D02*
X315252736Y-49121428D01*
X315252736Y-49121428D02*
X315181308Y-49157142D01*
X315181308Y-49157142D02*
X315109879Y-49228571D01*
X315109879Y-49228571D02*
X315074165Y-49335714D01*
X315074165Y-49335714D02*
X315074165Y-49407142D01*
X315074165Y-49407142D02*
X315109879Y-49514285D01*
X315109879Y-49514285D02*
X315145593Y-49549999D01*
X315074165Y-50228571D02*
X315074165Y-49871428D01*
X315074165Y-49871428D02*
X315431308Y-49835714D01*
X315431308Y-49835714D02*
X315395593Y-49871428D01*
X315395593Y-49871428D02*
X315359879Y-49942857D01*
X315359879Y-49942857D02*
X315359879Y-50121428D01*
X315359879Y-50121428D02*
X315395593Y-50192857D01*
X315395593Y-50192857D02*
X315431308Y-50228571D01*
X315431308Y-50228571D02*
X315502736Y-50264285D01*
X315502736Y-50264285D02*
X315681308Y-50264285D01*
X315681308Y-50264285D02*
X315752736Y-50228571D01*
X315752736Y-50228571D02*
X315788451Y-50192857D01*
X315788451Y-50192857D02*
X315824165Y-50121428D01*
X315824165Y-50121428D02*
X315824165Y-49942857D01*
X315824165Y-49942857D02*
X315788451Y-49871428D01*
X315788451Y-49871428D02*
X315752736Y-49835714D01*
X257772736Y-372257856D02*
X257808451Y-372222142D01*
X257808451Y-372222142D02*
X257844165Y-372114999D01*
X257844165Y-372114999D02*
X257844165Y-372043571D01*
X257844165Y-372043571D02*
X257808451Y-371936428D01*
X257808451Y-371936428D02*
X257737022Y-371864999D01*
X257737022Y-371864999D02*
X257665593Y-371829285D01*
X257665593Y-371829285D02*
X257522736Y-371793571D01*
X257522736Y-371793571D02*
X257415593Y-371793571D01*
X257415593Y-371793571D02*
X257272736Y-371829285D01*
X257272736Y-371829285D02*
X257201308Y-371864999D01*
X257201308Y-371864999D02*
X257129879Y-371936428D01*
X257129879Y-371936428D02*
X257094165Y-372043571D01*
X257094165Y-372043571D02*
X257094165Y-372114999D01*
X257094165Y-372114999D02*
X257129879Y-372222142D01*
X257129879Y-372222142D02*
X257165593Y-372257856D01*
X257094165Y-372900714D02*
X257094165Y-372757856D01*
X257094165Y-372757856D02*
X257129879Y-372686428D01*
X257129879Y-372686428D02*
X257165593Y-372650714D01*
X257165593Y-372650714D02*
X257272736Y-372579285D01*
X257272736Y-372579285D02*
X257415593Y-372543571D01*
X257415593Y-372543571D02*
X257701308Y-372543571D01*
X257701308Y-372543571D02*
X257772736Y-372579285D01*
X257772736Y-372579285D02*
X257808451Y-372614999D01*
X257808451Y-372614999D02*
X257844165Y-372686428D01*
X257844165Y-372686428D02*
X257844165Y-372829285D01*
X257844165Y-372829285D02*
X257808451Y-372900714D01*
X257808451Y-372900714D02*
X257772736Y-372936428D01*
X257772736Y-372936428D02*
X257701308Y-372972142D01*
X257701308Y-372972142D02*
X257522736Y-372972142D01*
X257522736Y-372972142D02*
X257451308Y-372936428D01*
X257451308Y-372936428D02*
X257415593Y-372900714D01*
X257415593Y-372900714D02*
X257379879Y-372829285D01*
X257379879Y-372829285D02*
X257379879Y-372686428D01*
X257379879Y-372686428D02*
X257415593Y-372614999D01*
X257415593Y-372614999D02*
X257451308Y-372579285D01*
X257451308Y-372579285D02*
X257522736Y-372543571D01*
X257165593Y-373257857D02*
X257129879Y-373293571D01*
X257129879Y-373293571D02*
X257094165Y-373365000D01*
X257094165Y-373365000D02*
X257094165Y-373543571D01*
X257094165Y-373543571D02*
X257129879Y-373615000D01*
X257129879Y-373615000D02*
X257165593Y-373650714D01*
X257165593Y-373650714D02*
X257237022Y-373686428D01*
X257237022Y-373686428D02*
X257308451Y-373686428D01*
X257308451Y-373686428D02*
X257415593Y-373650714D01*
X257415593Y-373650714D02*
X257844165Y-373222142D01*
X257844165Y-373222142D02*
X257844165Y-373686428D01*
X244452736Y-266490712D02*
X244488451Y-266454998D01*
X244488451Y-266454998D02*
X244524165Y-266347855D01*
X244524165Y-266347855D02*
X244524165Y-266276427D01*
X244524165Y-266276427D02*
X244488451Y-266169284D01*
X244488451Y-266169284D02*
X244417022Y-266097855D01*
X244417022Y-266097855D02*
X244345593Y-266062141D01*
X244345593Y-266062141D02*
X244202736Y-266026427D01*
X244202736Y-266026427D02*
X244095593Y-266026427D01*
X244095593Y-266026427D02*
X243952736Y-266062141D01*
X243952736Y-266062141D02*
X243881308Y-266097855D01*
X243881308Y-266097855D02*
X243809879Y-266169284D01*
X243809879Y-266169284D02*
X243774165Y-266276427D01*
X243774165Y-266276427D02*
X243774165Y-266347855D01*
X243774165Y-266347855D02*
X243809879Y-266454998D01*
X243809879Y-266454998D02*
X243845593Y-266490712D01*
X244524165Y-267204998D02*
X244524165Y-266776427D01*
X244524165Y-266990712D02*
X243774165Y-266990712D01*
X243774165Y-266990712D02*
X243881308Y-266919284D01*
X243881308Y-266919284D02*
X243952736Y-266847855D01*
X243952736Y-266847855D02*
X243988451Y-266776427D01*
X244524165Y-267919284D02*
X244524165Y-267490713D01*
X244524165Y-267704998D02*
X243774165Y-267704998D01*
X243774165Y-267704998D02*
X243881308Y-267633570D01*
X243881308Y-267633570D02*
X243952736Y-267562141D01*
X243952736Y-267562141D02*
X243988451Y-267490713D01*
X244095593Y-268347856D02*
X244059879Y-268276427D01*
X244059879Y-268276427D02*
X244024165Y-268240713D01*
X244024165Y-268240713D02*
X243952736Y-268204999D01*
X243952736Y-268204999D02*
X243917022Y-268204999D01*
X243917022Y-268204999D02*
X243845593Y-268240713D01*
X243845593Y-268240713D02*
X243809879Y-268276427D01*
X243809879Y-268276427D02*
X243774165Y-268347856D01*
X243774165Y-268347856D02*
X243774165Y-268490713D01*
X243774165Y-268490713D02*
X243809879Y-268562142D01*
X243809879Y-268562142D02*
X243845593Y-268597856D01*
X243845593Y-268597856D02*
X243917022Y-268633570D01*
X243917022Y-268633570D02*
X243952736Y-268633570D01*
X243952736Y-268633570D02*
X244024165Y-268597856D01*
X244024165Y-268597856D02*
X244059879Y-268562142D01*
X244059879Y-268562142D02*
X244095593Y-268490713D01*
X244095593Y-268490713D02*
X244095593Y-268347856D01*
X244095593Y-268347856D02*
X244131308Y-268276427D01*
X244131308Y-268276427D02*
X244167022Y-268240713D01*
X244167022Y-268240713D02*
X244238451Y-268204999D01*
X244238451Y-268204999D02*
X244381308Y-268204999D01*
X244381308Y-268204999D02*
X244452736Y-268240713D01*
X244452736Y-268240713D02*
X244488451Y-268276427D01*
X244488451Y-268276427D02*
X244524165Y-268347856D01*
X244524165Y-268347856D02*
X244524165Y-268490713D01*
X244524165Y-268490713D02*
X244488451Y-268562142D01*
X244488451Y-268562142D02*
X244452736Y-268597856D01*
X244452736Y-268597856D02*
X244381308Y-268633570D01*
X244381308Y-268633570D02*
X244238451Y-268633570D01*
X244238451Y-268633570D02*
X244167022Y-268597856D01*
X244167022Y-268597856D02*
X244131308Y-268562142D01*
X244131308Y-268562142D02*
X244095593Y-268490713D01*
X282192736Y-167162855D02*
X282228451Y-167127141D01*
X282228451Y-167127141D02*
X282264165Y-167019998D01*
X282264165Y-167019998D02*
X282264165Y-166948570D01*
X282264165Y-166948570D02*
X282228451Y-166841427D01*
X282228451Y-166841427D02*
X282157022Y-166769998D01*
X282157022Y-166769998D02*
X282085593Y-166734284D01*
X282085593Y-166734284D02*
X281942736Y-166698570D01*
X281942736Y-166698570D02*
X281835593Y-166698570D01*
X281835593Y-166698570D02*
X281692736Y-166734284D01*
X281692736Y-166734284D02*
X281621308Y-166769998D01*
X281621308Y-166769998D02*
X281549879Y-166841427D01*
X281549879Y-166841427D02*
X281514165Y-166948570D01*
X281514165Y-166948570D02*
X281514165Y-167019998D01*
X281514165Y-167019998D02*
X281549879Y-167127141D01*
X281549879Y-167127141D02*
X281585593Y-167162855D01*
X281514165Y-167841427D02*
X281514165Y-167484284D01*
X281514165Y-167484284D02*
X281871308Y-167448570D01*
X281871308Y-167448570D02*
X281835593Y-167484284D01*
X281835593Y-167484284D02*
X281799879Y-167555713D01*
X281799879Y-167555713D02*
X281799879Y-167734284D01*
X281799879Y-167734284D02*
X281835593Y-167805713D01*
X281835593Y-167805713D02*
X281871308Y-167841427D01*
X281871308Y-167841427D02*
X281942736Y-167877141D01*
X281942736Y-167877141D02*
X282121308Y-167877141D01*
X282121308Y-167877141D02*
X282192736Y-167841427D01*
X282192736Y-167841427D02*
X282228451Y-167805713D01*
X282228451Y-167805713D02*
X282264165Y-167734284D01*
X282264165Y-167734284D02*
X282264165Y-167555713D01*
X282264165Y-167555713D02*
X282228451Y-167484284D01*
X282228451Y-167484284D02*
X282192736Y-167448570D01*
X282264165Y-168591427D02*
X282264165Y-168162856D01*
X282264165Y-168377141D02*
X281514165Y-168377141D01*
X281514165Y-168377141D02*
X281621308Y-168305713D01*
X281621308Y-168305713D02*
X281692736Y-168234284D01*
X281692736Y-168234284D02*
X281728451Y-168162856D01*
X218512486Y-225802735D02*
X218548200Y-225838450D01*
X218548200Y-225838450D02*
X218655343Y-225874164D01*
X218655343Y-225874164D02*
X218726771Y-225874164D01*
X218726771Y-225874164D02*
X218833914Y-225838450D01*
X218833914Y-225838450D02*
X218905343Y-225767021D01*
X218905343Y-225767021D02*
X218941057Y-225695592D01*
X218941057Y-225695592D02*
X218976771Y-225552735D01*
X218976771Y-225552735D02*
X218976771Y-225445592D01*
X218976771Y-225445592D02*
X218941057Y-225302735D01*
X218941057Y-225302735D02*
X218905343Y-225231307D01*
X218905343Y-225231307D02*
X218833914Y-225159878D01*
X218833914Y-225159878D02*
X218726771Y-225124164D01*
X218726771Y-225124164D02*
X218655343Y-225124164D01*
X218655343Y-225124164D02*
X218548200Y-225159878D01*
X218548200Y-225159878D02*
X218512486Y-225195592D01*
X217798200Y-225874164D02*
X218226771Y-225874164D01*
X218012486Y-225874164D02*
X218012486Y-225124164D01*
X218012486Y-225124164D02*
X218083914Y-225231307D01*
X218083914Y-225231307D02*
X218155343Y-225302735D01*
X218155343Y-225302735D02*
X218226771Y-225338450D01*
X217512485Y-225195592D02*
X217476771Y-225159878D01*
X217476771Y-225159878D02*
X217405343Y-225124164D01*
X217405343Y-225124164D02*
X217226771Y-225124164D01*
X217226771Y-225124164D02*
X217155343Y-225159878D01*
X217155343Y-225159878D02*
X217119628Y-225195592D01*
X217119628Y-225195592D02*
X217083914Y-225267021D01*
X217083914Y-225267021D02*
X217083914Y-225338450D01*
X217083914Y-225338450D02*
X217119628Y-225445592D01*
X217119628Y-225445592D02*
X217548200Y-225874164D01*
X217548200Y-225874164D02*
X217083914Y-225874164D01*
X216798199Y-225195592D02*
X216762485Y-225159878D01*
X216762485Y-225159878D02*
X216691057Y-225124164D01*
X216691057Y-225124164D02*
X216512485Y-225124164D01*
X216512485Y-225124164D02*
X216441057Y-225159878D01*
X216441057Y-225159878D02*
X216405342Y-225195592D01*
X216405342Y-225195592D02*
X216369628Y-225267021D01*
X216369628Y-225267021D02*
X216369628Y-225338450D01*
X216369628Y-225338450D02*
X216405342Y-225445592D01*
X216405342Y-225445592D02*
X216833914Y-225874164D01*
X216833914Y-225874164D02*
X216369628Y-225874164D01*
X285997144Y-32702735D02*
X286032858Y-32738450D01*
X286032858Y-32738450D02*
X286140001Y-32774164D01*
X286140001Y-32774164D02*
X286211429Y-32774164D01*
X286211429Y-32774164D02*
X286318572Y-32738450D01*
X286318572Y-32738450D02*
X286390001Y-32667021D01*
X286390001Y-32667021D02*
X286425715Y-32595592D01*
X286425715Y-32595592D02*
X286461429Y-32452735D01*
X286461429Y-32452735D02*
X286461429Y-32345592D01*
X286461429Y-32345592D02*
X286425715Y-32202735D01*
X286425715Y-32202735D02*
X286390001Y-32131307D01*
X286390001Y-32131307D02*
X286318572Y-32059878D01*
X286318572Y-32059878D02*
X286211429Y-32024164D01*
X286211429Y-32024164D02*
X286140001Y-32024164D01*
X286140001Y-32024164D02*
X286032858Y-32059878D01*
X286032858Y-32059878D02*
X285997144Y-32095592D01*
X285282858Y-32774164D02*
X285711429Y-32774164D01*
X285497144Y-32774164D02*
X285497144Y-32024164D01*
X285497144Y-32024164D02*
X285568572Y-32131307D01*
X285568572Y-32131307D02*
X285640001Y-32202735D01*
X285640001Y-32202735D02*
X285711429Y-32238450D01*
X284997143Y-32095592D02*
X284961429Y-32059878D01*
X284961429Y-32059878D02*
X284890001Y-32024164D01*
X284890001Y-32024164D02*
X284711429Y-32024164D01*
X284711429Y-32024164D02*
X284640001Y-32059878D01*
X284640001Y-32059878D02*
X284604286Y-32095592D01*
X284604286Y-32095592D02*
X284568572Y-32167021D01*
X284568572Y-32167021D02*
X284568572Y-32238450D01*
X284568572Y-32238450D02*
X284604286Y-32345592D01*
X284604286Y-32345592D02*
X285032858Y-32774164D01*
X285032858Y-32774164D02*
X284568572Y-32774164D01*
X256962736Y-109432856D02*
X256998451Y-109397142D01*
X256998451Y-109397142D02*
X257034165Y-109289999D01*
X257034165Y-109289999D02*
X257034165Y-109218571D01*
X257034165Y-109218571D02*
X256998451Y-109111428D01*
X256998451Y-109111428D02*
X256927022Y-109039999D01*
X256927022Y-109039999D02*
X256855593Y-109004285D01*
X256855593Y-109004285D02*
X256712736Y-108968571D01*
X256712736Y-108968571D02*
X256605593Y-108968571D01*
X256605593Y-108968571D02*
X256462736Y-109004285D01*
X256462736Y-109004285D02*
X256391308Y-109039999D01*
X256391308Y-109039999D02*
X256319879Y-109111428D01*
X256319879Y-109111428D02*
X256284165Y-109218571D01*
X256284165Y-109218571D02*
X256284165Y-109289999D01*
X256284165Y-109289999D02*
X256319879Y-109397142D01*
X256319879Y-109397142D02*
X256355593Y-109432856D01*
X256355593Y-109718571D02*
X256319879Y-109754285D01*
X256319879Y-109754285D02*
X256284165Y-109825714D01*
X256284165Y-109825714D02*
X256284165Y-110004285D01*
X256284165Y-110004285D02*
X256319879Y-110075714D01*
X256319879Y-110075714D02*
X256355593Y-110111428D01*
X256355593Y-110111428D02*
X256427022Y-110147142D01*
X256427022Y-110147142D02*
X256498451Y-110147142D01*
X256498451Y-110147142D02*
X256605593Y-110111428D01*
X256605593Y-110111428D02*
X257034165Y-109682856D01*
X257034165Y-109682856D02*
X257034165Y-110147142D01*
X256355593Y-110432857D02*
X256319879Y-110468571D01*
X256319879Y-110468571D02*
X256284165Y-110540000D01*
X256284165Y-110540000D02*
X256284165Y-110718571D01*
X256284165Y-110718571D02*
X256319879Y-110790000D01*
X256319879Y-110790000D02*
X256355593Y-110825714D01*
X256355593Y-110825714D02*
X256427022Y-110861428D01*
X256427022Y-110861428D02*
X256498451Y-110861428D01*
X256498451Y-110861428D02*
X256605593Y-110825714D01*
X256605593Y-110825714D02*
X257034165Y-110397142D01*
X257034165Y-110397142D02*
X257034165Y-110861428D01*
X314932736Y-324302855D02*
X314968451Y-324267141D01*
X314968451Y-324267141D02*
X315004165Y-324159998D01*
X315004165Y-324159998D02*
X315004165Y-324088570D01*
X315004165Y-324088570D02*
X314968451Y-323981427D01*
X314968451Y-323981427D02*
X314897022Y-323909998D01*
X314897022Y-323909998D02*
X314825593Y-323874284D01*
X314825593Y-323874284D02*
X314682736Y-323838570D01*
X314682736Y-323838570D02*
X314575593Y-323838570D01*
X314575593Y-323838570D02*
X314432736Y-323874284D01*
X314432736Y-323874284D02*
X314361308Y-323909998D01*
X314361308Y-323909998D02*
X314289879Y-323981427D01*
X314289879Y-323981427D02*
X314254165Y-324088570D01*
X314254165Y-324088570D02*
X314254165Y-324159998D01*
X314254165Y-324159998D02*
X314289879Y-324267141D01*
X314289879Y-324267141D02*
X314325593Y-324302855D01*
X314254165Y-324552855D02*
X314254165Y-325017141D01*
X314254165Y-325017141D02*
X314539879Y-324767141D01*
X314539879Y-324767141D02*
X314539879Y-324874284D01*
X314539879Y-324874284D02*
X314575593Y-324945713D01*
X314575593Y-324945713D02*
X314611308Y-324981427D01*
X314611308Y-324981427D02*
X314682736Y-325017141D01*
X314682736Y-325017141D02*
X314861308Y-325017141D01*
X314861308Y-325017141D02*
X314932736Y-324981427D01*
X314932736Y-324981427D02*
X314968451Y-324945713D01*
X314968451Y-324945713D02*
X315004165Y-324874284D01*
X315004165Y-324874284D02*
X315004165Y-324659998D01*
X315004165Y-324659998D02*
X314968451Y-324588570D01*
X314968451Y-324588570D02*
X314932736Y-324552855D01*
X314254165Y-325267141D02*
X314254165Y-325731427D01*
X314254165Y-325731427D02*
X314539879Y-325481427D01*
X314539879Y-325481427D02*
X314539879Y-325588570D01*
X314539879Y-325588570D02*
X314575593Y-325659999D01*
X314575593Y-325659999D02*
X314611308Y-325695713D01*
X314611308Y-325695713D02*
X314682736Y-325731427D01*
X314682736Y-325731427D02*
X314861308Y-325731427D01*
X314861308Y-325731427D02*
X314932736Y-325695713D01*
X314932736Y-325695713D02*
X314968451Y-325659999D01*
X314968451Y-325659999D02*
X315004165Y-325588570D01*
X315004165Y-325588570D02*
X315004165Y-325374284D01*
X315004165Y-325374284D02*
X314968451Y-325302856D01*
X314968451Y-325302856D02*
X314932736Y-325267141D01*
X271032736Y-269640712D02*
X271068451Y-269604998D01*
X271068451Y-269604998D02*
X271104165Y-269497855D01*
X271104165Y-269497855D02*
X271104165Y-269426427D01*
X271104165Y-269426427D02*
X271068451Y-269319284D01*
X271068451Y-269319284D02*
X270997022Y-269247855D01*
X270997022Y-269247855D02*
X270925593Y-269212141D01*
X270925593Y-269212141D02*
X270782736Y-269176427D01*
X270782736Y-269176427D02*
X270675593Y-269176427D01*
X270675593Y-269176427D02*
X270532736Y-269212141D01*
X270532736Y-269212141D02*
X270461308Y-269247855D01*
X270461308Y-269247855D02*
X270389879Y-269319284D01*
X270389879Y-269319284D02*
X270354165Y-269426427D01*
X270354165Y-269426427D02*
X270354165Y-269497855D01*
X270354165Y-269497855D02*
X270389879Y-269604998D01*
X270389879Y-269604998D02*
X270425593Y-269640712D01*
X271104165Y-270354998D02*
X271104165Y-269926427D01*
X271104165Y-270140712D02*
X270354165Y-270140712D01*
X270354165Y-270140712D02*
X270461308Y-270069284D01*
X270461308Y-270069284D02*
X270532736Y-269997855D01*
X270532736Y-269997855D02*
X270568451Y-269926427D01*
X271104165Y-271069284D02*
X271104165Y-270640713D01*
X271104165Y-270854998D02*
X270354165Y-270854998D01*
X270354165Y-270854998D02*
X270461308Y-270783570D01*
X270461308Y-270783570D02*
X270532736Y-270712141D01*
X270532736Y-270712141D02*
X270568451Y-270640713D01*
X270604165Y-271712142D02*
X271104165Y-271712142D01*
X270318451Y-271533570D02*
X270854165Y-271354999D01*
X270854165Y-271354999D02*
X270854165Y-271819284D01*
X258912736Y-109382856D02*
X258948451Y-109347142D01*
X258948451Y-109347142D02*
X258984165Y-109239999D01*
X258984165Y-109239999D02*
X258984165Y-109168571D01*
X258984165Y-109168571D02*
X258948451Y-109061428D01*
X258948451Y-109061428D02*
X258877022Y-108989999D01*
X258877022Y-108989999D02*
X258805593Y-108954285D01*
X258805593Y-108954285D02*
X258662736Y-108918571D01*
X258662736Y-108918571D02*
X258555593Y-108918571D01*
X258555593Y-108918571D02*
X258412736Y-108954285D01*
X258412736Y-108954285D02*
X258341308Y-108989999D01*
X258341308Y-108989999D02*
X258269879Y-109061428D01*
X258269879Y-109061428D02*
X258234165Y-109168571D01*
X258234165Y-109168571D02*
X258234165Y-109239999D01*
X258234165Y-109239999D02*
X258269879Y-109347142D01*
X258269879Y-109347142D02*
X258305593Y-109382856D01*
X258305593Y-109668571D02*
X258269879Y-109704285D01*
X258269879Y-109704285D02*
X258234165Y-109775714D01*
X258234165Y-109775714D02*
X258234165Y-109954285D01*
X258234165Y-109954285D02*
X258269879Y-110025714D01*
X258269879Y-110025714D02*
X258305593Y-110061428D01*
X258305593Y-110061428D02*
X258377022Y-110097142D01*
X258377022Y-110097142D02*
X258448451Y-110097142D01*
X258448451Y-110097142D02*
X258555593Y-110061428D01*
X258555593Y-110061428D02*
X258984165Y-109632856D01*
X258984165Y-109632856D02*
X258984165Y-110097142D01*
X258984165Y-110811428D02*
X258984165Y-110382857D01*
X258984165Y-110597142D02*
X258234165Y-110597142D01*
X258234165Y-110597142D02*
X258341308Y-110525714D01*
X258341308Y-110525714D02*
X258412736Y-110454285D01*
X258412736Y-110454285D02*
X258448451Y-110382857D01*
X285640001Y-59682735D02*
X285675715Y-59718450D01*
X285675715Y-59718450D02*
X285782858Y-59754164D01*
X285782858Y-59754164D02*
X285854286Y-59754164D01*
X285854286Y-59754164D02*
X285961429Y-59718450D01*
X285961429Y-59718450D02*
X286032858Y-59647021D01*
X286032858Y-59647021D02*
X286068572Y-59575592D01*
X286068572Y-59575592D02*
X286104286Y-59432735D01*
X286104286Y-59432735D02*
X286104286Y-59325592D01*
X286104286Y-59325592D02*
X286068572Y-59182735D01*
X286068572Y-59182735D02*
X286032858Y-59111307D01*
X286032858Y-59111307D02*
X285961429Y-59039878D01*
X285961429Y-59039878D02*
X285854286Y-59004164D01*
X285854286Y-59004164D02*
X285782858Y-59004164D01*
X285782858Y-59004164D02*
X285675715Y-59039878D01*
X285675715Y-59039878D02*
X285640001Y-59075592D01*
X284925715Y-59754164D02*
X285354286Y-59754164D01*
X285140001Y-59754164D02*
X285140001Y-59004164D01*
X285140001Y-59004164D02*
X285211429Y-59111307D01*
X285211429Y-59111307D02*
X285282858Y-59182735D01*
X285282858Y-59182735D02*
X285354286Y-59218450D01*
X316512736Y-46112856D02*
X316548451Y-46077142D01*
X316548451Y-46077142D02*
X316584165Y-45969999D01*
X316584165Y-45969999D02*
X316584165Y-45898571D01*
X316584165Y-45898571D02*
X316548451Y-45791428D01*
X316548451Y-45791428D02*
X316477022Y-45719999D01*
X316477022Y-45719999D02*
X316405593Y-45684285D01*
X316405593Y-45684285D02*
X316262736Y-45648571D01*
X316262736Y-45648571D02*
X316155593Y-45648571D01*
X316155593Y-45648571D02*
X316012736Y-45684285D01*
X316012736Y-45684285D02*
X315941308Y-45719999D01*
X315941308Y-45719999D02*
X315869879Y-45791428D01*
X315869879Y-45791428D02*
X315834165Y-45898571D01*
X315834165Y-45898571D02*
X315834165Y-45969999D01*
X315834165Y-45969999D02*
X315869879Y-46077142D01*
X315869879Y-46077142D02*
X315905593Y-46112856D01*
X316584165Y-46827142D02*
X316584165Y-46398571D01*
X316584165Y-46612856D02*
X315834165Y-46612856D01*
X315834165Y-46612856D02*
X315941308Y-46541428D01*
X315941308Y-46541428D02*
X316012736Y-46469999D01*
X316012736Y-46469999D02*
X316048451Y-46398571D01*
X315834165Y-47077142D02*
X315834165Y-47541428D01*
X315834165Y-47541428D02*
X316119879Y-47291428D01*
X316119879Y-47291428D02*
X316119879Y-47398571D01*
X316119879Y-47398571D02*
X316155593Y-47470000D01*
X316155593Y-47470000D02*
X316191308Y-47505714D01*
X316191308Y-47505714D02*
X316262736Y-47541428D01*
X316262736Y-47541428D02*
X316441308Y-47541428D01*
X316441308Y-47541428D02*
X316512736Y-47505714D01*
X316512736Y-47505714D02*
X316548451Y-47470000D01*
X316548451Y-47470000D02*
X316584165Y-47398571D01*
X316584165Y-47398571D02*
X316584165Y-47184285D01*
X316584165Y-47184285D02*
X316548451Y-47112857D01*
X316548451Y-47112857D02*
X316512736Y-47077142D01*
X276492736Y-272760712D02*
X276528451Y-272724998D01*
X276528451Y-272724998D02*
X276564165Y-272617855D01*
X276564165Y-272617855D02*
X276564165Y-272546427D01*
X276564165Y-272546427D02*
X276528451Y-272439284D01*
X276528451Y-272439284D02*
X276457022Y-272367855D01*
X276457022Y-272367855D02*
X276385593Y-272332141D01*
X276385593Y-272332141D02*
X276242736Y-272296427D01*
X276242736Y-272296427D02*
X276135593Y-272296427D01*
X276135593Y-272296427D02*
X275992736Y-272332141D01*
X275992736Y-272332141D02*
X275921308Y-272367855D01*
X275921308Y-272367855D02*
X275849879Y-272439284D01*
X275849879Y-272439284D02*
X275814165Y-272546427D01*
X275814165Y-272546427D02*
X275814165Y-272617855D01*
X275814165Y-272617855D02*
X275849879Y-272724998D01*
X275849879Y-272724998D02*
X275885593Y-272760712D01*
X276564165Y-273474998D02*
X276564165Y-273046427D01*
X276564165Y-273260712D02*
X275814165Y-273260712D01*
X275814165Y-273260712D02*
X275921308Y-273189284D01*
X275921308Y-273189284D02*
X275992736Y-273117855D01*
X275992736Y-273117855D02*
X276028451Y-273046427D01*
X276564165Y-274189284D02*
X276564165Y-273760713D01*
X276564165Y-273974998D02*
X275814165Y-273974998D01*
X275814165Y-273974998D02*
X275921308Y-273903570D01*
X275921308Y-273903570D02*
X275992736Y-273832141D01*
X275992736Y-273832141D02*
X276028451Y-273760713D01*
X275814165Y-274867856D02*
X275814165Y-274510713D01*
X275814165Y-274510713D02*
X276171308Y-274474999D01*
X276171308Y-274474999D02*
X276135593Y-274510713D01*
X276135593Y-274510713D02*
X276099879Y-274582142D01*
X276099879Y-274582142D02*
X276099879Y-274760713D01*
X276099879Y-274760713D02*
X276135593Y-274832142D01*
X276135593Y-274832142D02*
X276171308Y-274867856D01*
X276171308Y-274867856D02*
X276242736Y-274903570D01*
X276242736Y-274903570D02*
X276421308Y-274903570D01*
X276421308Y-274903570D02*
X276492736Y-274867856D01*
X276492736Y-274867856D02*
X276528451Y-274832142D01*
X276528451Y-274832142D02*
X276564165Y-274760713D01*
X276564165Y-274760713D02*
X276564165Y-274582142D01*
X276564165Y-274582142D02*
X276528451Y-274510713D01*
X276528451Y-274510713D02*
X276492736Y-274474999D01*
X259992736Y-324442855D02*
X260028451Y-324407141D01*
X260028451Y-324407141D02*
X260064165Y-324299998D01*
X260064165Y-324299998D02*
X260064165Y-324228570D01*
X260064165Y-324228570D02*
X260028451Y-324121427D01*
X260028451Y-324121427D02*
X259957022Y-324049998D01*
X259957022Y-324049998D02*
X259885593Y-324014284D01*
X259885593Y-324014284D02*
X259742736Y-323978570D01*
X259742736Y-323978570D02*
X259635593Y-323978570D01*
X259635593Y-323978570D02*
X259492736Y-324014284D01*
X259492736Y-324014284D02*
X259421308Y-324049998D01*
X259421308Y-324049998D02*
X259349879Y-324121427D01*
X259349879Y-324121427D02*
X259314165Y-324228570D01*
X259314165Y-324228570D02*
X259314165Y-324299998D01*
X259314165Y-324299998D02*
X259349879Y-324407141D01*
X259349879Y-324407141D02*
X259385593Y-324442855D01*
X259314165Y-324692855D02*
X259314165Y-325157141D01*
X259314165Y-325157141D02*
X259599879Y-324907141D01*
X259599879Y-324907141D02*
X259599879Y-325014284D01*
X259599879Y-325014284D02*
X259635593Y-325085713D01*
X259635593Y-325085713D02*
X259671308Y-325121427D01*
X259671308Y-325121427D02*
X259742736Y-325157141D01*
X259742736Y-325157141D02*
X259921308Y-325157141D01*
X259921308Y-325157141D02*
X259992736Y-325121427D01*
X259992736Y-325121427D02*
X260028451Y-325085713D01*
X260028451Y-325085713D02*
X260064165Y-325014284D01*
X260064165Y-325014284D02*
X260064165Y-324799998D01*
X260064165Y-324799998D02*
X260028451Y-324728570D01*
X260028451Y-324728570D02*
X259992736Y-324692855D01*
X259314165Y-325799999D02*
X259314165Y-325657141D01*
X259314165Y-325657141D02*
X259349879Y-325585713D01*
X259349879Y-325585713D02*
X259385593Y-325549999D01*
X259385593Y-325549999D02*
X259492736Y-325478570D01*
X259492736Y-325478570D02*
X259635593Y-325442856D01*
X259635593Y-325442856D02*
X259921308Y-325442856D01*
X259921308Y-325442856D02*
X259992736Y-325478570D01*
X259992736Y-325478570D02*
X260028451Y-325514284D01*
X260028451Y-325514284D02*
X260064165Y-325585713D01*
X260064165Y-325585713D02*
X260064165Y-325728570D01*
X260064165Y-325728570D02*
X260028451Y-325799999D01*
X260028451Y-325799999D02*
X259992736Y-325835713D01*
X259992736Y-325835713D02*
X259921308Y-325871427D01*
X259921308Y-325871427D02*
X259742736Y-325871427D01*
X259742736Y-325871427D02*
X259671308Y-325835713D01*
X259671308Y-325835713D02*
X259635593Y-325799999D01*
X259635593Y-325799999D02*
X259599879Y-325728570D01*
X259599879Y-325728570D02*
X259599879Y-325585713D01*
X259599879Y-325585713D02*
X259635593Y-325514284D01*
X259635593Y-325514284D02*
X259671308Y-325478570D01*
X259671308Y-325478570D02*
X259742736Y-325442856D01*
X318572736Y-324477855D02*
X318608451Y-324442141D01*
X318608451Y-324442141D02*
X318644165Y-324334998D01*
X318644165Y-324334998D02*
X318644165Y-324263570D01*
X318644165Y-324263570D02*
X318608451Y-324156427D01*
X318608451Y-324156427D02*
X318537022Y-324084998D01*
X318537022Y-324084998D02*
X318465593Y-324049284D01*
X318465593Y-324049284D02*
X318322736Y-324013570D01*
X318322736Y-324013570D02*
X318215593Y-324013570D01*
X318215593Y-324013570D02*
X318072736Y-324049284D01*
X318072736Y-324049284D02*
X318001308Y-324084998D01*
X318001308Y-324084998D02*
X317929879Y-324156427D01*
X317929879Y-324156427D02*
X317894165Y-324263570D01*
X317894165Y-324263570D02*
X317894165Y-324334998D01*
X317894165Y-324334998D02*
X317929879Y-324442141D01*
X317929879Y-324442141D02*
X317965593Y-324477855D01*
X317894165Y-324727855D02*
X317894165Y-325192141D01*
X317894165Y-325192141D02*
X318179879Y-324942141D01*
X318179879Y-324942141D02*
X318179879Y-325049284D01*
X318179879Y-325049284D02*
X318215593Y-325120713D01*
X318215593Y-325120713D02*
X318251308Y-325156427D01*
X318251308Y-325156427D02*
X318322736Y-325192141D01*
X318322736Y-325192141D02*
X318501308Y-325192141D01*
X318501308Y-325192141D02*
X318572736Y-325156427D01*
X318572736Y-325156427D02*
X318608451Y-325120713D01*
X318608451Y-325120713D02*
X318644165Y-325049284D01*
X318644165Y-325049284D02*
X318644165Y-324834998D01*
X318644165Y-324834998D02*
X318608451Y-324763570D01*
X318608451Y-324763570D02*
X318572736Y-324727855D01*
X318644165Y-325906427D02*
X318644165Y-325477856D01*
X318644165Y-325692141D02*
X317894165Y-325692141D01*
X317894165Y-325692141D02*
X318001308Y-325620713D01*
X318001308Y-325620713D02*
X318072736Y-325549284D01*
X318072736Y-325549284D02*
X318108451Y-325477856D01*
X259622736Y-372287856D02*
X259658451Y-372252142D01*
X259658451Y-372252142D02*
X259694165Y-372144999D01*
X259694165Y-372144999D02*
X259694165Y-372073571D01*
X259694165Y-372073571D02*
X259658451Y-371966428D01*
X259658451Y-371966428D02*
X259587022Y-371894999D01*
X259587022Y-371894999D02*
X259515593Y-371859285D01*
X259515593Y-371859285D02*
X259372736Y-371823571D01*
X259372736Y-371823571D02*
X259265593Y-371823571D01*
X259265593Y-371823571D02*
X259122736Y-371859285D01*
X259122736Y-371859285D02*
X259051308Y-371894999D01*
X259051308Y-371894999D02*
X258979879Y-371966428D01*
X258979879Y-371966428D02*
X258944165Y-372073571D01*
X258944165Y-372073571D02*
X258944165Y-372144999D01*
X258944165Y-372144999D02*
X258979879Y-372252142D01*
X258979879Y-372252142D02*
X259015593Y-372287856D01*
X258944165Y-372930714D02*
X258944165Y-372787856D01*
X258944165Y-372787856D02*
X258979879Y-372716428D01*
X258979879Y-372716428D02*
X259015593Y-372680714D01*
X259015593Y-372680714D02*
X259122736Y-372609285D01*
X259122736Y-372609285D02*
X259265593Y-372573571D01*
X259265593Y-372573571D02*
X259551308Y-372573571D01*
X259551308Y-372573571D02*
X259622736Y-372609285D01*
X259622736Y-372609285D02*
X259658451Y-372644999D01*
X259658451Y-372644999D02*
X259694165Y-372716428D01*
X259694165Y-372716428D02*
X259694165Y-372859285D01*
X259694165Y-372859285D02*
X259658451Y-372930714D01*
X259658451Y-372930714D02*
X259622736Y-372966428D01*
X259622736Y-372966428D02*
X259551308Y-373002142D01*
X259551308Y-373002142D02*
X259372736Y-373002142D01*
X259372736Y-373002142D02*
X259301308Y-372966428D01*
X259301308Y-372966428D02*
X259265593Y-372930714D01*
X259265593Y-372930714D02*
X259229879Y-372859285D01*
X259229879Y-372859285D02*
X259229879Y-372716428D01*
X259229879Y-372716428D02*
X259265593Y-372644999D01*
X259265593Y-372644999D02*
X259301308Y-372609285D01*
X259301308Y-372609285D02*
X259372736Y-372573571D01*
X258944165Y-373252142D02*
X258944165Y-373716428D01*
X258944165Y-373716428D02*
X259229879Y-373466428D01*
X259229879Y-373466428D02*
X259229879Y-373573571D01*
X259229879Y-373573571D02*
X259265593Y-373645000D01*
X259265593Y-373645000D02*
X259301308Y-373680714D01*
X259301308Y-373680714D02*
X259372736Y-373716428D01*
X259372736Y-373716428D02*
X259551308Y-373716428D01*
X259551308Y-373716428D02*
X259622736Y-373680714D01*
X259622736Y-373680714D02*
X259658451Y-373645000D01*
X259658451Y-373645000D02*
X259694165Y-373573571D01*
X259694165Y-373573571D02*
X259694165Y-373359285D01*
X259694165Y-373359285D02*
X259658451Y-373287857D01*
X259658451Y-373287857D02*
X259622736Y-373252142D01*
X253762736Y-164322856D02*
X253798451Y-164287142D01*
X253798451Y-164287142D02*
X253834165Y-164179999D01*
X253834165Y-164179999D02*
X253834165Y-164108571D01*
X253834165Y-164108571D02*
X253798451Y-164001428D01*
X253798451Y-164001428D02*
X253727022Y-163929999D01*
X253727022Y-163929999D02*
X253655593Y-163894285D01*
X253655593Y-163894285D02*
X253512736Y-163858571D01*
X253512736Y-163858571D02*
X253405593Y-163858571D01*
X253405593Y-163858571D02*
X253262736Y-163894285D01*
X253262736Y-163894285D02*
X253191308Y-163929999D01*
X253191308Y-163929999D02*
X253119879Y-164001428D01*
X253119879Y-164001428D02*
X253084165Y-164108571D01*
X253084165Y-164108571D02*
X253084165Y-164179999D01*
X253084165Y-164179999D02*
X253119879Y-164287142D01*
X253119879Y-164287142D02*
X253155593Y-164322856D01*
X253084165Y-165001428D02*
X253084165Y-164644285D01*
X253084165Y-164644285D02*
X253441308Y-164608571D01*
X253441308Y-164608571D02*
X253405593Y-164644285D01*
X253405593Y-164644285D02*
X253369879Y-164715714D01*
X253369879Y-164715714D02*
X253369879Y-164894285D01*
X253369879Y-164894285D02*
X253405593Y-164965714D01*
X253405593Y-164965714D02*
X253441308Y-165001428D01*
X253441308Y-165001428D02*
X253512736Y-165037142D01*
X253512736Y-165037142D02*
X253691308Y-165037142D01*
X253691308Y-165037142D02*
X253762736Y-165001428D01*
X253762736Y-165001428D02*
X253798451Y-164965714D01*
X253798451Y-164965714D02*
X253834165Y-164894285D01*
X253834165Y-164894285D02*
X253834165Y-164715714D01*
X253834165Y-164715714D02*
X253798451Y-164644285D01*
X253798451Y-164644285D02*
X253762736Y-164608571D01*
X253155593Y-165322857D02*
X253119879Y-165358571D01*
X253119879Y-165358571D02*
X253084165Y-165430000D01*
X253084165Y-165430000D02*
X253084165Y-165608571D01*
X253084165Y-165608571D02*
X253119879Y-165680000D01*
X253119879Y-165680000D02*
X253155593Y-165715714D01*
X253155593Y-165715714D02*
X253227022Y-165751428D01*
X253227022Y-165751428D02*
X253298451Y-165751428D01*
X253298451Y-165751428D02*
X253405593Y-165715714D01*
X253405593Y-165715714D02*
X253834165Y-165287142D01*
X253834165Y-165287142D02*
X253834165Y-165751428D01*
X286202736Y-375097856D02*
X286238451Y-375062142D01*
X286238451Y-375062142D02*
X286274165Y-374954999D01*
X286274165Y-374954999D02*
X286274165Y-374883571D01*
X286274165Y-374883571D02*
X286238451Y-374776428D01*
X286238451Y-374776428D02*
X286167022Y-374704999D01*
X286167022Y-374704999D02*
X286095593Y-374669285D01*
X286095593Y-374669285D02*
X285952736Y-374633571D01*
X285952736Y-374633571D02*
X285845593Y-374633571D01*
X285845593Y-374633571D02*
X285702736Y-374669285D01*
X285702736Y-374669285D02*
X285631308Y-374704999D01*
X285631308Y-374704999D02*
X285559879Y-374776428D01*
X285559879Y-374776428D02*
X285524165Y-374883571D01*
X285524165Y-374883571D02*
X285524165Y-374954999D01*
X285524165Y-374954999D02*
X285559879Y-375062142D01*
X285559879Y-375062142D02*
X285595593Y-375097856D01*
X285524165Y-375740714D02*
X285524165Y-375597856D01*
X285524165Y-375597856D02*
X285559879Y-375526428D01*
X285559879Y-375526428D02*
X285595593Y-375490714D01*
X285595593Y-375490714D02*
X285702736Y-375419285D01*
X285702736Y-375419285D02*
X285845593Y-375383571D01*
X285845593Y-375383571D02*
X286131308Y-375383571D01*
X286131308Y-375383571D02*
X286202736Y-375419285D01*
X286202736Y-375419285D02*
X286238451Y-375454999D01*
X286238451Y-375454999D02*
X286274165Y-375526428D01*
X286274165Y-375526428D02*
X286274165Y-375669285D01*
X286274165Y-375669285D02*
X286238451Y-375740714D01*
X286238451Y-375740714D02*
X286202736Y-375776428D01*
X286202736Y-375776428D02*
X286131308Y-375812142D01*
X286131308Y-375812142D02*
X285952736Y-375812142D01*
X285952736Y-375812142D02*
X285881308Y-375776428D01*
X285881308Y-375776428D02*
X285845593Y-375740714D01*
X285845593Y-375740714D02*
X285809879Y-375669285D01*
X285809879Y-375669285D02*
X285809879Y-375526428D01*
X285809879Y-375526428D02*
X285845593Y-375454999D01*
X285845593Y-375454999D02*
X285881308Y-375419285D01*
X285881308Y-375419285D02*
X285952736Y-375383571D01*
X286274165Y-376526428D02*
X286274165Y-376097857D01*
X286274165Y-376312142D02*
X285524165Y-376312142D01*
X285524165Y-376312142D02*
X285631308Y-376240714D01*
X285631308Y-376240714D02*
X285702736Y-376169285D01*
X285702736Y-376169285D02*
X285738451Y-376097857D01*
X353065236Y-343735713D02*
X353100951Y-343699999D01*
X353100951Y-343699999D02*
X353136665Y-343592856D01*
X353136665Y-343592856D02*
X353136665Y-343521428D01*
X353136665Y-343521428D02*
X353100951Y-343414285D01*
X353100951Y-343414285D02*
X353029522Y-343342856D01*
X353029522Y-343342856D02*
X352958093Y-343307142D01*
X352958093Y-343307142D02*
X352815236Y-343271428D01*
X352815236Y-343271428D02*
X352708093Y-343271428D01*
X352708093Y-343271428D02*
X352565236Y-343307142D01*
X352565236Y-343307142D02*
X352493808Y-343342856D01*
X352493808Y-343342856D02*
X352422379Y-343414285D01*
X352422379Y-343414285D02*
X352386665Y-343521428D01*
X352386665Y-343521428D02*
X352386665Y-343592856D01*
X352386665Y-343592856D02*
X352422379Y-343699999D01*
X352422379Y-343699999D02*
X352458093Y-343735713D01*
X353136665Y-344449999D02*
X353136665Y-344021428D01*
X353136665Y-344235713D02*
X352386665Y-344235713D01*
X352386665Y-344235713D02*
X352493808Y-344164285D01*
X352493808Y-344164285D02*
X352565236Y-344092856D01*
X352565236Y-344092856D02*
X352600951Y-344021428D01*
X352458093Y-344735714D02*
X352422379Y-344771428D01*
X352422379Y-344771428D02*
X352386665Y-344842857D01*
X352386665Y-344842857D02*
X352386665Y-345021428D01*
X352386665Y-345021428D02*
X352422379Y-345092857D01*
X352422379Y-345092857D02*
X352458093Y-345128571D01*
X352458093Y-345128571D02*
X352529522Y-345164285D01*
X352529522Y-345164285D02*
X352600951Y-345164285D01*
X352600951Y-345164285D02*
X352708093Y-345128571D01*
X352708093Y-345128571D02*
X353136665Y-344699999D01*
X353136665Y-344699999D02*
X353136665Y-345164285D01*
X352386665Y-345414285D02*
X352386665Y-345914285D01*
X352386665Y-345914285D02*
X353136665Y-345592857D01*
X289637144Y-338082734D02*
X289672858Y-338118449D01*
X289672858Y-338118449D02*
X289780001Y-338154163D01*
X289780001Y-338154163D02*
X289851429Y-338154163D01*
X289851429Y-338154163D02*
X289958572Y-338118449D01*
X289958572Y-338118449D02*
X290030001Y-338047020D01*
X290030001Y-338047020D02*
X290065715Y-337975591D01*
X290065715Y-337975591D02*
X290101429Y-337832734D01*
X290101429Y-337832734D02*
X290101429Y-337725591D01*
X290101429Y-337725591D02*
X290065715Y-337582734D01*
X290065715Y-337582734D02*
X290030001Y-337511306D01*
X290030001Y-337511306D02*
X289958572Y-337439877D01*
X289958572Y-337439877D02*
X289851429Y-337404163D01*
X289851429Y-337404163D02*
X289780001Y-337404163D01*
X289780001Y-337404163D02*
X289672858Y-337439877D01*
X289672858Y-337439877D02*
X289637144Y-337475591D01*
X289351429Y-337475591D02*
X289315715Y-337439877D01*
X289315715Y-337439877D02*
X289244287Y-337404163D01*
X289244287Y-337404163D02*
X289065715Y-337404163D01*
X289065715Y-337404163D02*
X288994287Y-337439877D01*
X288994287Y-337439877D02*
X288958572Y-337475591D01*
X288958572Y-337475591D02*
X288922858Y-337547020D01*
X288922858Y-337547020D02*
X288922858Y-337618449D01*
X288922858Y-337618449D02*
X288958572Y-337725591D01*
X288958572Y-337725591D02*
X289387144Y-338154163D01*
X289387144Y-338154163D02*
X288922858Y-338154163D01*
X288672858Y-337404163D02*
X288172858Y-337404163D01*
X288172858Y-337404163D02*
X288494286Y-338154163D01*
D11*
%TO.C,P2*%
X367961000Y-390165600D02*
G75*
G02*
X367199000Y-390165600I-381000J0D01*
G01*
X367199000Y-390165600D02*
G75*
G02*
X367961000Y-390165600I381000J0D01*
G01*
%TO.C,P1*%
X367961000Y-379955200D02*
G75*
G02*
X367199000Y-379955200I-381000J0D01*
G01*
X367199000Y-379955200D02*
G75*
G02*
X367961000Y-379955200I381000J0D01*
G01*
D12*
%TO.C,C50*%
X284655001Y-167494419D02*
X284655001Y-167775579D01*
X285675001Y-167494419D02*
X285675001Y-167775579D01*
D13*
%TO.C,U17*%
X334667499Y-377554997D02*
X332767500Y-377554997D01*
X336292502Y-374455001D02*
X332767500Y-374454998D01*
D12*
%TO.C,C129*%
X329167501Y-376122836D02*
X329167501Y-375907164D01*
X329887501Y-376122836D02*
X329887501Y-375907164D01*
%TO.C,R112*%
X276497743Y-276277499D02*
X276972259Y-276277499D01*
X276497743Y-277322499D02*
X276972259Y-277322499D01*
%TO.C,C9*%
X257545001Y-52354420D02*
X257545001Y-52635580D01*
X258565001Y-52354420D02*
X258565001Y-52635580D01*
%TO.C,C20*%
X309745001Y-111784420D02*
X309745001Y-112065580D01*
X310765001Y-111784420D02*
X310765001Y-112065580D01*
%TO.C,C126*%
X353485001Y-327142836D02*
X353485001Y-326927164D01*
X354205001Y-327142836D02*
X354205001Y-326927164D01*
%TO.C,C84*%
X362488014Y-245369999D02*
X362703686Y-245369999D01*
X362488014Y-246089999D02*
X362703686Y-246089999D01*
%TO.C,C110*%
X215451036Y-213515000D02*
X215235364Y-213515000D01*
X215451036Y-214235000D02*
X215235364Y-214235000D01*
%TO.C,C32*%
X316025001Y-327444419D02*
X316025001Y-327725579D01*
X317045001Y-327444419D02*
X317045001Y-327725579D01*
%TO.C,C123*%
X334285001Y-59772836D02*
X334285001Y-59557164D01*
X335005001Y-59772836D02*
X335005001Y-59557164D01*
%TO.C,C95*%
X362562164Y-264319999D02*
X362777836Y-264319999D01*
X362562164Y-265039999D02*
X362777836Y-265039999D01*
%TO.C,C59*%
X290575001Y-375449420D02*
X290575001Y-375730580D01*
X291595001Y-375449420D02*
X291595001Y-375730580D01*
%TO.C,C6*%
X312995001Y-51924420D02*
X312995001Y-52205580D01*
X314015001Y-51924420D02*
X314015001Y-52205580D01*
D13*
%TO.C,U16*%
X303549998Y-184369997D02*
X301649999Y-184369997D01*
X305175001Y-181270001D02*
X301649999Y-181269998D01*
D12*
%TO.C,C10*%
X255555001Y-52354420D02*
X255555001Y-52635580D01*
X256575001Y-52354420D02*
X256575001Y-52635580D01*
%TO.C,C125*%
X320345001Y-338412836D02*
X320345001Y-338197164D01*
X321065001Y-338412836D02*
X321065001Y-338197164D01*
%TO.C,C54*%
X256772501Y-167414420D02*
X256772501Y-167695580D01*
X257792501Y-167414420D02*
X257792501Y-167695580D01*
%TO.C,C19*%
X311625001Y-111794420D02*
X311625001Y-112075580D01*
X312645001Y-111794420D02*
X312645001Y-112075580D01*
%TO.C,C116*%
X273695001Y-270339419D02*
X273695001Y-270620579D01*
X274715001Y-270339419D02*
X274715001Y-270620579D01*
%TO.C,C49*%
X286565001Y-167514419D02*
X286565001Y-167795579D01*
X287585001Y-167514419D02*
X287585001Y-167795579D01*
%TO.C,C119*%
X241695001Y-270379419D02*
X241695001Y-270660579D01*
X242715001Y-270379419D02*
X242715001Y-270660579D01*
D13*
%TO.C,U14*%
X358984999Y-328574997D02*
X357085000Y-328574997D01*
X360610002Y-325475001D02*
X357085000Y-325474998D01*
D12*
%TO.C,C34*%
X262855001Y-327524419D02*
X262855001Y-327805579D01*
X263875001Y-327524419D02*
X263875001Y-327805579D01*
%TO.C,C124*%
X334395001Y-119632836D02*
X334395001Y-119417164D01*
X335115001Y-119632836D02*
X335115001Y-119417164D01*
D13*
%TO.C,U13*%
X325844999Y-339844997D02*
X323945000Y-339844997D01*
X327470002Y-336745001D02*
X323945000Y-336744998D01*
D12*
%TO.C,C7*%
X311115001Y-51914420D02*
X311115001Y-52195580D01*
X312135001Y-51914420D02*
X312135001Y-52195580D01*
%TO.C,C121*%
X217751036Y-224055000D02*
X217535364Y-224055000D01*
X217751036Y-224775000D02*
X217535364Y-224775000D01*
D13*
%TO.C,U11*%
X339784999Y-61204997D02*
X337885000Y-61204997D01*
X341410002Y-58105001D02*
X337885000Y-58104998D01*
%TO.C,U12*%
X339894999Y-121064997D02*
X337995000Y-121064997D01*
X341520002Y-117965001D02*
X337995000Y-117964998D01*
D12*
%TO.C,C26*%
X313275001Y-106334420D02*
X313275001Y-106615580D01*
X314295001Y-106334420D02*
X314295001Y-106615580D01*
%TO.C,C35*%
X261045001Y-327524419D02*
X261045001Y-327805579D01*
X262065001Y-327524419D02*
X262065001Y-327805579D01*
%TO.C,C53*%
X254795001Y-167424420D02*
X254795001Y-167705580D01*
X255815001Y-167424420D02*
X255815001Y-167705580D01*
D13*
%TO.C,U15*%
X358987499Y-346114997D02*
X357087500Y-346114997D01*
X360612502Y-343015001D02*
X357087500Y-343014998D01*
D12*
%TO.C,C60*%
X288665001Y-375429420D02*
X288665001Y-375710580D01*
X289685001Y-375429420D02*
X289685001Y-375710580D01*
%TO.C,C64*%
X260782501Y-375349420D02*
X260782501Y-375630580D01*
X261802501Y-375349420D02*
X261802501Y-375630580D01*
%TO.C,C23*%
X254185001Y-112224420D02*
X254185001Y-112505580D01*
X255205001Y-112224420D02*
X255205001Y-112505580D01*
%TO.C,C109*%
X215431036Y-212345000D02*
X215215364Y-212345000D01*
X215431036Y-213065000D02*
X215215364Y-213065000D01*
%TO.C,C128*%
X298050000Y-182937836D02*
X298050000Y-182722164D01*
X298770000Y-182937836D02*
X298770000Y-182722164D01*
%TO.C,C14*%
X284285581Y-120205000D02*
X284004421Y-120205000D01*
X284285581Y-121225000D02*
X284004421Y-121225000D01*
%TO.C,C8*%
X259495001Y-52344420D02*
X259495001Y-52625580D01*
X260515001Y-52344420D02*
X260515001Y-52625580D01*
%TO.C,C25*%
X284285581Y-93225000D02*
X284004421Y-93225000D01*
X284285581Y-94245000D02*
X284004421Y-94245000D01*
%TO.C,C18*%
X313595001Y-111814420D02*
X313595001Y-112095580D01*
X314615001Y-111814420D02*
X314615001Y-112095580D01*
%TO.C,C94*%
X362562164Y-265419999D02*
X362777836Y-265419999D01*
X362562164Y-266139999D02*
X362777836Y-266139999D01*
%TO.C,C39*%
X317825001Y-321684419D02*
X317825001Y-321965579D01*
X318845001Y-321684419D02*
X318845001Y-321965579D01*
%TO.C,C117*%
X245405001Y-270359419D02*
X245405001Y-270640579D01*
X246425001Y-270359419D02*
X246425001Y-270640579D01*
%TO.C,C85*%
X362488014Y-244269999D02*
X362703686Y-244269999D01*
X362488014Y-244989999D02*
X362703686Y-244989999D01*
%TO.C,C38*%
X289255581Y-308334999D02*
X288974421Y-308334999D01*
X289255581Y-309354999D02*
X288974421Y-309354999D01*
%TO.C,C5*%
X314965001Y-51944420D02*
X314965001Y-52225580D01*
X315985001Y-51944420D02*
X315985001Y-52225580D01*
%TO.C,C62*%
X256955001Y-375349420D02*
X256955001Y-375630580D01*
X257975001Y-375349420D02*
X257975001Y-375630580D01*
%TO.C,C118*%
X243585001Y-270359419D02*
X243585001Y-270640579D01*
X244605001Y-270359419D02*
X244605001Y-270640579D01*
%TO.C,C51*%
X282845001Y-167504419D02*
X282845001Y-167785579D01*
X283865001Y-167504419D02*
X283865001Y-167785579D01*
%TO.C,C122*%
X217741036Y-222935000D02*
X217525364Y-222935000D01*
X217741036Y-223655000D02*
X217525364Y-223655000D01*
%TO.C,C12*%
X285655581Y-33355000D02*
X285374421Y-33355000D01*
X285655581Y-34375000D02*
X285374421Y-34375000D01*
%TO.C,C22*%
X256175001Y-112224420D02*
X256175001Y-112505580D01*
X257195001Y-112224420D02*
X257195001Y-112505580D01*
%TO.C,C33*%
X314125001Y-327449419D02*
X314125001Y-327730579D01*
X315145001Y-327449419D02*
X315145001Y-327730579D01*
%TO.C,C114*%
X271685001Y-270339419D02*
X271685001Y-270620579D01*
X272705001Y-270339419D02*
X272705001Y-270620579D01*
%TO.C,C21*%
X258125001Y-112214420D02*
X258125001Y-112495580D01*
X259145001Y-112214420D02*
X259145001Y-112495580D01*
%TO.C,C1*%
X285655581Y-60335000D02*
X285374421Y-60335000D01*
X285655581Y-61355000D02*
X285374421Y-61355000D01*
%TO.C,C13*%
X314335001Y-46494420D02*
X314335001Y-46775580D01*
X315355001Y-46494420D02*
X315355001Y-46775580D01*
%TO.C,C115*%
X275745001Y-270349419D02*
X275745001Y-270630579D01*
X276765001Y-270349419D02*
X276765001Y-270630579D01*
%TO.C,C36*%
X259175001Y-327524419D02*
X259175001Y-327805579D01*
X260195001Y-327524419D02*
X260195001Y-327805579D01*
%TO.C,C31*%
X317815001Y-327444419D02*
X317815001Y-327725579D01*
X318835001Y-327444419D02*
X318835001Y-327725579D01*
%TO.C,C63*%
X258805001Y-375359420D02*
X258805001Y-375640580D01*
X259825001Y-375359420D02*
X259825001Y-375640580D01*
%TO.C,C52*%
X252945001Y-167414420D02*
X252945001Y-167695580D01*
X253965001Y-167414420D02*
X253965001Y-167695580D01*
%TO.C,C61*%
X286855001Y-375439420D02*
X286855001Y-375720580D01*
X287875001Y-375439420D02*
X287875001Y-375720580D01*
%TO.C,C127*%
X353487501Y-344682836D02*
X353487501Y-344467164D01*
X354207501Y-344682836D02*
X354207501Y-344467164D01*
%TO.C,C27*%
X289285581Y-335904999D02*
X289004421Y-335904999D01*
X289285581Y-336924999D02*
X289004421Y-336924999D01*
%TD*%
M02*
