%TF.GenerationSoftware,KiCad,Pcbnew,9.0.3*%
%TF.CreationDate,2025-09-16T14:08:45-04:00*%
%TF.ProjectId,11_CPU_PDU,31315f43-5055-45f5-9044-552e6b696361,rev?*%
%TF.SameCoordinates,Original*%
%TF.FileFunction,Paste,Bot*%
%TF.FilePolarity,Positive*%
%FSLAX46Y46*%
G04 Gerber Fmt 4.6, Leading zero omitted, Abs format (unit mm)*
G04 Created by KiCad (PCBNEW 9.0.3) date 2025-09-16 14:08:45*
%MOMM*%
%LPD*%
G01*
G04 APERTURE LIST*
G04 Aperture macros list*
%AMRoundRect*
0 Rectangle with rounded corners*
0 $1 Rounding radius*
0 $2 $3 $4 $5 $6 $7 $8 $9 X,Y pos of 4 corners*
0 Add a 4 corners polygon primitive as box body*
4,1,4,$2,$3,$4,$5,$6,$7,$8,$9,$2,$3,0*
0 Add four circle primitives for the rounded corners*
1,1,$1+$1,$2,$3*
1,1,$1+$1,$4,$5*
1,1,$1+$1,$6,$7*
1,1,$1+$1,$8,$9*
0 Add four rect primitives between the rounded corners*
20,1,$1+$1,$2,$3,$4,$5,0*
20,1,$1+$1,$4,$5,$6,$7,0*
20,1,$1+$1,$6,$7,$8,$9,0*
20,1,$1+$1,$8,$9,$2,$3,0*%
G04 Aperture macros list end*
%ADD10RoundRect,0.225000X-0.250000X0.225000X-0.250000X-0.225000X0.250000X-0.225000X0.250000X0.225000X0*%
%ADD11O,1.150000X0.449999*%
%ADD12RoundRect,0.140000X0.170000X-0.140000X0.170000X0.140000X-0.170000X0.140000X-0.170000X-0.140000X0*%
%ADD13RoundRect,0.200000X-0.200000X-0.275000X0.200000X-0.275000X0.200000X0.275000X-0.200000X0.275000X0*%
%ADD14RoundRect,0.140000X-0.140000X-0.170000X0.140000X-0.170000X0.140000X0.170000X-0.140000X0.170000X0*%
%ADD15RoundRect,0.140000X0.140000X0.170000X-0.140000X0.170000X-0.140000X-0.170000X0.140000X-0.170000X0*%
%ADD16RoundRect,0.225000X0.225000X0.250000X-0.225000X0.250000X-0.225000X-0.250000X0.225000X-0.250000X0*%
G04 APERTURE END LIST*
D10*
%TO.C,C50*%
X285165001Y-166859999D03*
X285165001Y-168409999D03*
%TD*%
D11*
%TO.C,U17*%
X335842501Y-375030001D03*
X335842501Y-375680002D03*
X335842501Y-376330001D03*
X335842501Y-376980002D03*
X331592501Y-376980002D03*
X331592501Y-376330001D03*
X331592501Y-375680002D03*
X331592501Y-375030001D03*
%TD*%
D12*
%TO.C,C129*%
X329527501Y-376495000D03*
X329527501Y-375535000D03*
%TD*%
D13*
%TO.C,R112*%
X275910001Y-276799999D03*
X277560001Y-276799999D03*
%TD*%
D10*
%TO.C,C9*%
X258055001Y-51720000D03*
X258055001Y-53270000D03*
%TD*%
%TO.C,C20*%
X310255001Y-111150000D03*
X310255001Y-112700000D03*
%TD*%
D12*
%TO.C,C126*%
X353845001Y-327515000D03*
X353845001Y-326555000D03*
%TD*%
D14*
%TO.C,C84*%
X362115850Y-245729999D03*
X363075850Y-245729999D03*
%TD*%
D15*
%TO.C,C110*%
X215823200Y-213875000D03*
X214863200Y-213875000D03*
%TD*%
D10*
%TO.C,C32*%
X316535001Y-326809999D03*
X316535001Y-328359999D03*
%TD*%
D12*
%TO.C,C123*%
X334645001Y-60145000D03*
X334645001Y-59185000D03*
%TD*%
D14*
%TO.C,C95*%
X362190000Y-264679999D03*
X363150000Y-264679999D03*
%TD*%
D10*
%TO.C,C59*%
X291085001Y-374815000D03*
X291085001Y-376365000D03*
%TD*%
%TO.C,C6*%
X313505001Y-51290000D03*
X313505001Y-52840000D03*
%TD*%
D11*
%TO.C,U16*%
X304725000Y-181845001D03*
X304725000Y-182495002D03*
X304725000Y-183145001D03*
X304725000Y-183795002D03*
X300475000Y-183795002D03*
X300475000Y-183145001D03*
X300475000Y-182495002D03*
X300475000Y-181845001D03*
%TD*%
D10*
%TO.C,C10*%
X256065001Y-51720000D03*
X256065001Y-53270000D03*
%TD*%
D12*
%TO.C,C125*%
X320705001Y-338785000D03*
X320705001Y-337825000D03*
%TD*%
D10*
%TO.C,C54*%
X257282501Y-166780000D03*
X257282501Y-168330000D03*
%TD*%
%TO.C,C19*%
X312135001Y-111160000D03*
X312135001Y-112710000D03*
%TD*%
%TO.C,C116*%
X274205001Y-269704999D03*
X274205001Y-271254999D03*
%TD*%
%TO.C,C49*%
X287075001Y-166879999D03*
X287075001Y-168429999D03*
%TD*%
%TO.C,C119*%
X242205001Y-269744999D03*
X242205001Y-271294999D03*
%TD*%
D11*
%TO.C,U14*%
X360160001Y-326050001D03*
X360160001Y-326700002D03*
X360160001Y-327350001D03*
X360160001Y-328000002D03*
X355910001Y-328000002D03*
X355910001Y-327350001D03*
X355910001Y-326700002D03*
X355910001Y-326050001D03*
%TD*%
D10*
%TO.C,C34*%
X263365001Y-326889999D03*
X263365001Y-328439999D03*
%TD*%
D12*
%TO.C,C124*%
X334755001Y-120005000D03*
X334755001Y-119045000D03*
%TD*%
D11*
%TO.C,U13*%
X327020001Y-337320001D03*
X327020001Y-337970002D03*
X327020001Y-338620001D03*
X327020001Y-339270002D03*
X322770001Y-339270002D03*
X322770001Y-338620001D03*
X322770001Y-337970002D03*
X322770001Y-337320001D03*
%TD*%
D10*
%TO.C,C7*%
X311625001Y-51280000D03*
X311625001Y-52830000D03*
%TD*%
D15*
%TO.C,C121*%
X218123200Y-224415000D03*
X217163200Y-224415000D03*
%TD*%
D11*
%TO.C,U11*%
X340960001Y-58680001D03*
X340960001Y-59330002D03*
X340960001Y-59980001D03*
X340960001Y-60630002D03*
X336710001Y-60630002D03*
X336710001Y-59980001D03*
X336710001Y-59330002D03*
X336710001Y-58680001D03*
%TD*%
%TO.C,U12*%
X341070001Y-118540001D03*
X341070001Y-119190002D03*
X341070001Y-119840001D03*
X341070001Y-120490002D03*
X336820001Y-120490002D03*
X336820001Y-119840001D03*
X336820001Y-119190002D03*
X336820001Y-118540001D03*
%TD*%
D10*
%TO.C,C26*%
X313785001Y-105700000D03*
X313785001Y-107250000D03*
%TD*%
%TO.C,C35*%
X261555001Y-326889999D03*
X261555001Y-328439999D03*
%TD*%
%TO.C,C53*%
X255305001Y-166790000D03*
X255305001Y-168340000D03*
%TD*%
D11*
%TO.C,U15*%
X360162501Y-343590001D03*
X360162501Y-344240002D03*
X360162501Y-344890001D03*
X360162501Y-345540002D03*
X355912501Y-345540002D03*
X355912501Y-344890001D03*
X355912501Y-344240002D03*
X355912501Y-343590001D03*
%TD*%
D10*
%TO.C,C60*%
X289175001Y-374795000D03*
X289175001Y-376345000D03*
%TD*%
%TO.C,C64*%
X261292501Y-374715000D03*
X261292501Y-376265000D03*
%TD*%
%TO.C,C23*%
X254695001Y-111590000D03*
X254695001Y-113140000D03*
%TD*%
D15*
%TO.C,C109*%
X215803200Y-212705000D03*
X214843200Y-212705000D03*
%TD*%
D12*
%TO.C,C128*%
X298410000Y-183310000D03*
X298410000Y-182350000D03*
%TD*%
D16*
%TO.C,C14*%
X284920001Y-120715000D03*
X283370001Y-120715000D03*
%TD*%
D10*
%TO.C,C8*%
X260005001Y-51710000D03*
X260005001Y-53260000D03*
%TD*%
D16*
%TO.C,C25*%
X284920001Y-93735000D03*
X283370001Y-93735000D03*
%TD*%
D10*
%TO.C,C18*%
X314105001Y-111180000D03*
X314105001Y-112730000D03*
%TD*%
D14*
%TO.C,C94*%
X362190000Y-265779999D03*
X363150000Y-265779999D03*
%TD*%
D10*
%TO.C,C39*%
X318335001Y-321049999D03*
X318335001Y-322599999D03*
%TD*%
%TO.C,C117*%
X245915001Y-269724999D03*
X245915001Y-271274999D03*
%TD*%
D14*
%TO.C,C85*%
X362115850Y-244629999D03*
X363075850Y-244629999D03*
%TD*%
D16*
%TO.C,C38*%
X289890001Y-308844999D03*
X288340001Y-308844999D03*
%TD*%
D10*
%TO.C,C5*%
X315475001Y-51310000D03*
X315475001Y-52860000D03*
%TD*%
%TO.C,C62*%
X257465001Y-374715000D03*
X257465001Y-376265000D03*
%TD*%
%TO.C,C118*%
X244095001Y-269724999D03*
X244095001Y-271274999D03*
%TD*%
%TO.C,C51*%
X283355001Y-166869999D03*
X283355001Y-168419999D03*
%TD*%
D15*
%TO.C,C122*%
X218113200Y-223295000D03*
X217153200Y-223295000D03*
%TD*%
D16*
%TO.C,C12*%
X286290001Y-33865000D03*
X284740001Y-33865000D03*
%TD*%
D10*
%TO.C,C22*%
X256685001Y-111590000D03*
X256685001Y-113140000D03*
%TD*%
%TO.C,C33*%
X314635001Y-326814999D03*
X314635001Y-328364999D03*
%TD*%
%TO.C,C114*%
X272195001Y-269704999D03*
X272195001Y-271254999D03*
%TD*%
%TO.C,C21*%
X258635001Y-111580000D03*
X258635001Y-113130000D03*
%TD*%
D16*
%TO.C,C1*%
X286290001Y-60845000D03*
X284740001Y-60845000D03*
%TD*%
D10*
%TO.C,C13*%
X314845001Y-45860000D03*
X314845001Y-47410000D03*
%TD*%
%TO.C,C115*%
X276255001Y-269714999D03*
X276255001Y-271264999D03*
%TD*%
%TO.C,C36*%
X259685001Y-326889999D03*
X259685001Y-328439999D03*
%TD*%
%TO.C,C31*%
X318325001Y-326809999D03*
X318325001Y-328359999D03*
%TD*%
%TO.C,C63*%
X259315001Y-374725000D03*
X259315001Y-376275000D03*
%TD*%
%TO.C,C52*%
X253455001Y-166780000D03*
X253455001Y-168330000D03*
%TD*%
%TO.C,C61*%
X287365001Y-374805000D03*
X287365001Y-376355000D03*
%TD*%
D12*
%TO.C,C127*%
X353847501Y-345055000D03*
X353847501Y-344095000D03*
%TD*%
D16*
%TO.C,C27*%
X289920001Y-336414999D03*
X288370001Y-336414999D03*
%TD*%
M02*
