%TF.GenerationSoftware,KiCad,Pcbnew,9.0.3*%
%TF.CreationDate,2025-09-16T11:45:41-04:00*%
%TF.ProjectId,5_COLD_TPC_Charge_Pre_Amp,355f434f-4c44-45f5-9450-435f43686172,rev?*%
%TF.SameCoordinates,Original*%
%TF.FileFunction,Other,User*%
%FSLAX46Y46*%
G04 Gerber Fmt 4.6, Leading zero omitted, Abs format (unit mm)*
G04 Created by KiCad (PCBNEW 9.0.3) date 2025-09-16 11:45:41*
%MOMM*%
%LPD*%
G01*
G04 APERTURE LIST*
%ADD10C,0.050000*%
%ADD11C,0.152400*%
%ADD12C,0.100000*%
%ADD13C,0.127000*%
G04 APERTURE END LIST*
D10*
%TO.C,R17*%
X270635000Y-161790000D02*
X273595000Y-161790000D01*
X270635000Y-163250000D02*
X270635000Y-161790000D01*
X273595000Y-161790000D02*
X273595000Y-163250000D01*
X273595000Y-163250000D02*
X270635000Y-163250000D01*
%TO.C,R39*%
X316210000Y-153970000D02*
X319170000Y-153970000D01*
X316210000Y-155430000D02*
X316210000Y-153970000D01*
X319170000Y-153970000D02*
X319170000Y-155430000D01*
X319170000Y-155430000D02*
X316210000Y-155430000D01*
%TO.C,C17*%
X265755000Y-106650000D02*
X267855000Y-106650000D01*
X265755000Y-111250000D02*
X265755000Y-106650000D01*
X267855000Y-106650000D02*
X267855000Y-111250000D01*
X267855000Y-111250000D02*
X265755000Y-111250000D01*
%TO.C,C15*%
X232160000Y-158860000D02*
X233620000Y-158860000D01*
X232160000Y-161820000D02*
X232160000Y-158860000D01*
X233620000Y-158860000D02*
X233620000Y-161820000D01*
X233620000Y-161820000D02*
X232160000Y-161820000D01*
%TO.C,R34*%
X278940000Y-157135000D02*
X280400000Y-157135000D01*
X278940000Y-160095000D02*
X278940000Y-157135000D01*
X280400000Y-157135000D02*
X280400000Y-160095000D01*
X280400000Y-160095000D02*
X278940000Y-160095000D01*
%TO.C,R42*%
X274570000Y-130930000D02*
X276030000Y-130930000D01*
X274570000Y-133890000D02*
X274570000Y-130930000D01*
X276030000Y-130930000D02*
X276030000Y-133890000D01*
X276030000Y-133890000D02*
X274570000Y-133890000D01*
%TO.C,C31*%
X311935000Y-117485000D02*
X313395000Y-117485000D01*
X311935000Y-120445000D02*
X311935000Y-117485000D01*
X313395000Y-117485000D02*
X313395000Y-120445000D01*
X313395000Y-120445000D02*
X311935000Y-120445000D01*
%TO.C,C42*%
X288037500Y-163589800D02*
X291437500Y-163589800D01*
X288037500Y-165349800D02*
X288037500Y-163589800D01*
X291437500Y-163589800D02*
X291437500Y-165349800D01*
X291437500Y-165349800D02*
X288037500Y-165349800D01*
%TO.C,R13*%
X264795000Y-126210000D02*
X267755000Y-126210000D01*
X264795000Y-127670000D02*
X264795000Y-126210000D01*
X267755000Y-126210000D02*
X267755000Y-127670000D01*
X267755000Y-127670000D02*
X264795000Y-127670000D01*
%TO.C,C3*%
X239565000Y-64325000D02*
X244365000Y-64325000D01*
X239565000Y-73125000D02*
X239565000Y-64325000D01*
X244365000Y-64325000D02*
X244365000Y-73125000D01*
X244365000Y-73125000D02*
X239565000Y-73125000D01*
%TO.C,R16*%
X295430000Y-168525000D02*
X296890000Y-168525000D01*
X295430000Y-171485000D02*
X295430000Y-168525000D01*
X296890000Y-168525000D02*
X296890000Y-171485000D01*
X296890000Y-171485000D02*
X295430000Y-171485000D01*
%TO.C,C4*%
X266225000Y-67765000D02*
X268325000Y-67765000D01*
X266225000Y-72365000D02*
X266225000Y-67765000D01*
X268325000Y-67765000D02*
X268325000Y-72365000D01*
X268325000Y-72365000D02*
X266225000Y-72365000D01*
%TO.C,C25*%
X306877500Y-172040000D02*
X310277500Y-172040000D01*
X306877500Y-173800000D02*
X306877500Y-172040000D01*
X310277500Y-172040000D02*
X310277500Y-173800000D01*
X310277500Y-173800000D02*
X306877500Y-173800000D01*
%TO.C,C14*%
X224657500Y-147060000D02*
X229257500Y-147060000D01*
X224657500Y-149160000D02*
X224657500Y-147060000D01*
X229257500Y-147060000D02*
X229257500Y-149160000D01*
X229257500Y-149160000D02*
X224657500Y-149160000D01*
%TO.C,U4*%
X268200000Y-96300000D02*
X294100000Y-96300000D01*
X268200000Y-122200000D02*
X268200000Y-96300000D01*
X294100000Y-96300000D02*
X294100000Y-122200000D01*
X294100000Y-122200000D02*
X268200000Y-122200000D01*
D11*
%TO.C,M1*%
X239850998Y-144416000D02*
X240500998Y-144416000D01*
X239850998Y-145724000D02*
X239850998Y-144416000D01*
X239850998Y-145724000D02*
X240000998Y-145724000D01*
X240000998Y-145724000D02*
X240000998Y-146579599D01*
X240000998Y-146579599D02*
X241808998Y-146579599D01*
X240500998Y-143560401D02*
X241308998Y-143560401D01*
X240500998Y-144416000D02*
X240500998Y-143560401D01*
X241308998Y-144416000D02*
X241308998Y-143560401D01*
X241808998Y-145724000D02*
X241808998Y-146579599D01*
X241958998Y-144416000D02*
X241308998Y-144416000D01*
X241958998Y-144416000D02*
X241958998Y-145724000D01*
X241958998Y-145724000D02*
X241808998Y-145724000D01*
D10*
%TO.C,Telem_RTN1*%
X273750000Y-144770000D02*
G75*
G02*
X269750000Y-144770000I-2000000J0D01*
G01*
X269750000Y-144770000D02*
G75*
G02*
X273750000Y-144770000I2000000J0D01*
G01*
D12*
%TO.C,J1*%
X219535000Y-101175000D02*
X206615000Y-101175000D01*
X206615000Y-69775000D01*
X219535000Y-69775000D01*
X219535000Y-101175000D01*
G36*
X219535000Y-101175000D02*
G01*
X206615000Y-101175000D01*
X206615000Y-69775000D01*
X219535000Y-69775000D01*
X219535000Y-101175000D01*
G37*
D10*
%TO.C,R32*%
X288280000Y-161630000D02*
X291240000Y-161630000D01*
X288280000Y-163090000D02*
X288280000Y-161630000D01*
X291240000Y-161630000D02*
X291240000Y-163090000D01*
X291240000Y-163090000D02*
X288280000Y-163090000D01*
%TO.C,-5V1*%
X230660000Y-132080000D02*
G75*
G02*
X226660000Y-132080000I-2000000J0D01*
G01*
X226660000Y-132080000D02*
G75*
G02*
X230660000Y-132080000I2000000J0D01*
G01*
D11*
%TO.C,U3*%
X234845600Y-159112000D02*
X239214400Y-159112000D01*
X234845600Y-162668000D02*
X234845600Y-159112000D01*
X239214400Y-159112000D02*
X239214400Y-162668000D01*
X239214400Y-162668000D02*
X234845600Y-162668000D01*
D10*
%TO.C,U5*%
X304880000Y-110882500D02*
X304880000Y-116287500D01*
X304880000Y-110882500D02*
X312290000Y-110882500D01*
X304880000Y-116287500D02*
X312290000Y-116287500D01*
X312290000Y-110882500D02*
X312290000Y-116287500D01*
%TO.C,R14*%
X237520000Y-150780000D02*
X238980000Y-150780000D01*
X237520000Y-153740000D02*
X237520000Y-150780000D01*
X238980000Y-150780000D02*
X238980000Y-153740000D01*
X238980000Y-153740000D02*
X237520000Y-153740000D01*
D11*
%TO.C,U8*%
X307087800Y-86456600D02*
X308548300Y-86456600D01*
X307087800Y-91333400D02*
X307087800Y-86456600D01*
X307087800Y-91333400D02*
X308548300Y-91333400D01*
X308548300Y-86139100D02*
X313044100Y-86139100D01*
X308548300Y-86456600D02*
X308548300Y-86139100D01*
X308548300Y-91650900D02*
X308548300Y-91333400D01*
X313044100Y-86139100D02*
X313044100Y-86456600D01*
X313044100Y-91333400D02*
X313044100Y-91650900D01*
X313044100Y-91650900D02*
X308548300Y-91650900D01*
X314504600Y-86456600D02*
X313044100Y-86456600D01*
X314504600Y-86456600D02*
X314504600Y-91333400D01*
X314504600Y-91333400D02*
X313044100Y-91333400D01*
%TO.C,J4*%
X329752569Y-102992800D02*
X350967432Y-102992800D01*
X329752569Y-112797200D02*
X329752569Y-102992800D01*
X350967432Y-102992800D02*
X350967432Y-112797200D01*
X350967432Y-112797200D02*
X329752569Y-112797200D01*
D10*
%TO.C,C43*%
X280780000Y-157130000D02*
X282240000Y-157130000D01*
X280780000Y-160090000D02*
X280780000Y-157130000D01*
X282240000Y-157130000D02*
X282240000Y-160090000D01*
X282240000Y-160090000D02*
X280780000Y-160090000D01*
%TO.C,F1*%
X232255000Y-77385000D02*
X236815000Y-77385000D01*
X232255000Y-79625000D02*
X232255000Y-77385000D01*
X236815000Y-77385000D02*
X236815000Y-79625000D01*
X236815000Y-79625000D02*
X232255000Y-79625000D01*
%TO.C,H3*%
X336450000Y-90000000D02*
G75*
G02*
X329550000Y-90000000I-3450000J0D01*
G01*
X329550000Y-90000000D02*
G75*
G02*
X336450000Y-90000000I3450000J0D01*
G01*
%TO.C,C26*%
X313445000Y-112625000D02*
X314365000Y-112625000D01*
X313445000Y-114445000D02*
X313445000Y-112625000D01*
X314365000Y-112625000D02*
X314365000Y-114445000D01*
X314365000Y-114445000D02*
X313445000Y-114445000D01*
%TO.C,R23*%
X318710000Y-81545000D02*
X320170000Y-81545000D01*
X318710000Y-84505000D02*
X318710000Y-81545000D01*
X320170000Y-81545000D02*
X320170000Y-84505000D01*
X320170000Y-84505000D02*
X318710000Y-84505000D01*
%TO.C,+5V1*%
X230540000Y-167640000D02*
G75*
G02*
X226540000Y-167640000I-2000000J0D01*
G01*
X226540000Y-167640000D02*
G75*
G02*
X230540000Y-167640000I2000000J0D01*
G01*
%TO.C,C34*%
X284997500Y-173439800D02*
X288397500Y-173439800D01*
X284997500Y-175199800D02*
X284997500Y-173439800D01*
X288397500Y-173439800D02*
X288397500Y-175199800D01*
X288397500Y-175199800D02*
X284997500Y-175199800D01*
%TO.C,C44*%
X272580000Y-130890000D02*
X274040000Y-130890000D01*
X272580000Y-133850000D02*
X272580000Y-130890000D01*
X274040000Y-130890000D02*
X274040000Y-133850000D01*
X274040000Y-133850000D02*
X272580000Y-133850000D01*
%TO.C,R37*%
X315905000Y-128850000D02*
X318865000Y-128850000D01*
X315905000Y-130310000D02*
X315905000Y-128850000D01*
X318865000Y-128850000D02*
X318865000Y-130310000D01*
X318865000Y-130310000D02*
X315905000Y-130310000D01*
%TO.C,H1*%
X217450000Y-56000000D02*
G75*
G02*
X210550000Y-56000000I-3450000J0D01*
G01*
X210550000Y-56000000D02*
G75*
G02*
X217450000Y-56000000I3450000J0D01*
G01*
%TO.C,H2*%
X336450000Y-56000000D02*
G75*
G02*
X329550000Y-56000000I-3450000J0D01*
G01*
X329550000Y-56000000D02*
G75*
G02*
X336450000Y-56000000I3450000J0D01*
G01*
%TO.C,R20*%
X313850000Y-117445000D02*
X315310000Y-117445000D01*
X313850000Y-120405000D02*
X313850000Y-117445000D01*
X315310000Y-117445000D02*
X315310000Y-120405000D01*
X315310000Y-120405000D02*
X313850000Y-120405000D01*
%TO.C,R24*%
X331610000Y-114280000D02*
X334570000Y-114280000D01*
X331610000Y-115740000D02*
X331610000Y-114280000D01*
X334570000Y-114280000D02*
X334570000Y-115740000D01*
X334570000Y-115740000D02*
X331610000Y-115740000D01*
%TO.C,R33*%
X250340000Y-144650000D02*
X253300000Y-144650000D01*
X250340000Y-146110000D02*
X250340000Y-144650000D01*
X253300000Y-144650000D02*
X253300000Y-146110000D01*
X253300000Y-146110000D02*
X250340000Y-146110000D01*
D12*
%TO.C,J3*%
X266985000Y-181780000D02*
X235575000Y-181780000D01*
X235575000Y-165280000D01*
X266985000Y-165280000D01*
X266985000Y-181780000D01*
G36*
X266985000Y-181780000D02*
G01*
X235575000Y-181780000D01*
X235575000Y-165280000D01*
X266985000Y-165280000D01*
X266985000Y-181780000D01*
G37*
D11*
%TO.C,J5*%
X329879569Y-66802800D02*
X351094432Y-66802800D01*
X329879569Y-76607200D02*
X329879569Y-66802800D01*
X351094432Y-66802800D02*
X351094432Y-76607200D01*
X351094432Y-76607200D02*
X329879569Y-76607200D01*
D10*
%TO.C,C41*%
X265940000Y-142330000D02*
X266860000Y-142330000D01*
X265940000Y-144150000D02*
X265940000Y-142330000D01*
X266860000Y-142330000D02*
X266860000Y-144150000D01*
X266860000Y-144150000D02*
X265940000Y-144150000D01*
%TO.C,V_{EN}1*%
X263320000Y-89620000D02*
G75*
G02*
X259320000Y-89620000I-2000000J0D01*
G01*
X259320000Y-89620000D02*
G75*
G02*
X263320000Y-89620000I2000000J0D01*
G01*
%TO.C,C1*%
X285670000Y-54900000D02*
X288630000Y-54900000D01*
X285670000Y-56360000D02*
X285670000Y-54900000D01*
X288630000Y-54900000D02*
X288630000Y-56360000D01*
X288630000Y-56360000D02*
X285670000Y-56360000D01*
D11*
%TO.C,U11*%
X256781600Y-144711600D02*
X258242100Y-144711600D01*
X256781600Y-149588400D02*
X256781600Y-144711600D01*
X256781600Y-149588400D02*
X258242100Y-149588400D01*
X258242100Y-144394100D02*
X262737900Y-144394100D01*
X258242100Y-144711600D02*
X258242100Y-144394100D01*
X258242100Y-149905900D02*
X258242100Y-149588400D01*
X262737900Y-144394100D02*
X262737900Y-144711600D01*
X262737900Y-149588400D02*
X262737900Y-149905900D01*
X262737900Y-149905900D02*
X258242100Y-149905900D01*
X264198400Y-144711600D02*
X262737900Y-144711600D01*
X264198400Y-144711600D02*
X264198400Y-149588400D01*
X264198400Y-149588400D02*
X262737900Y-149588400D01*
%TO.C,Q1*%
X264538200Y-130137300D02*
X265071600Y-130137300D01*
X264538200Y-135242700D02*
X264538200Y-130137300D01*
X265071600Y-128486300D02*
X265071600Y-130137300D01*
X265071600Y-128486300D02*
X267408400Y-128486300D01*
X265071600Y-135242700D02*
X264538200Y-135242700D01*
X265071600Y-136893700D02*
X265071600Y-135242700D01*
X267408400Y-128486300D02*
X267408400Y-130137300D01*
X267408400Y-130137300D02*
X267941800Y-130137300D01*
X267408400Y-136893700D02*
X265071600Y-136893700D01*
X267408400Y-136893700D02*
X267408400Y-135242700D01*
X267941800Y-130137300D02*
X267941800Y-135242700D01*
X267941800Y-135242700D02*
X267408400Y-135242700D01*
D10*
%TO.C,R25*%
X273590000Y-151250000D02*
X275450000Y-151250000D01*
X273590000Y-152190000D02*
X273590000Y-151250000D01*
X275450000Y-151250000D02*
X275450000Y-152190000D01*
X275450000Y-152190000D02*
X273590000Y-152190000D01*
%TO.C,R21*%
X310326200Y-92485000D02*
X313286200Y-92485000D01*
X310326200Y-93945000D02*
X310326200Y-92485000D01*
X313286200Y-92485000D02*
X313286200Y-93945000D01*
X313286200Y-93945000D02*
X310326200Y-93945000D01*
%TO.C,H8*%
X283450000Y-90000000D02*
G75*
G02*
X276550000Y-90000000I-3450000J0D01*
G01*
X276550000Y-90000000D02*
G75*
G02*
X283450000Y-90000000I3450000J0D01*
G01*
D11*
%TO.C,P1*%
X321771000Y-117736001D02*
X321771000Y-127043999D01*
X321771000Y-127043999D02*
X330829000Y-127043999D01*
X330829000Y-117736001D02*
X321771000Y-117736001D01*
X330829000Y-127043999D02*
X330829000Y-117736001D01*
%TO.C,M3*%
X316706001Y-164061000D02*
X316856001Y-164061000D01*
X316706001Y-165369000D02*
X316706001Y-164061000D01*
X316706001Y-165369000D02*
X317356001Y-165369000D01*
X316856001Y-164061000D02*
X316856001Y-163205401D01*
X317356001Y-165369000D02*
X317356001Y-166224599D01*
X318164001Y-165369000D02*
X318164001Y-166224599D01*
X318164001Y-166224599D02*
X317356001Y-166224599D01*
X318664001Y-163205401D02*
X316856001Y-163205401D01*
X318664001Y-164061000D02*
X318664001Y-163205401D01*
X318814001Y-164061000D02*
X318664001Y-164061000D01*
X318814001Y-164061000D02*
X318814001Y-165369000D01*
X318814001Y-165369000D02*
X318164001Y-165369000D01*
D10*
%TO.C,R11*%
X222680000Y-157290000D02*
X225640000Y-157290000D01*
X222680000Y-158750000D02*
X222680000Y-157290000D01*
X225640000Y-157290000D02*
X225640000Y-158750000D01*
X225640000Y-158750000D02*
X222680000Y-158750000D01*
%TO.C,D2*%
X298970000Y-64550000D02*
X298970000Y-67950000D01*
X298970000Y-67950000D02*
X302690000Y-67950000D01*
X302690000Y-64550000D02*
X298970000Y-64550000D01*
X302690000Y-67950000D02*
X302690000Y-64550000D01*
%TO.C,R7*%
X239384998Y-147200000D02*
X242344998Y-147200000D01*
X239384998Y-148660000D02*
X239384998Y-147200000D01*
X242344998Y-147200000D02*
X242344998Y-148660000D01*
X242344998Y-148660000D02*
X239384998Y-148660000D01*
D11*
%TO.C,M2*%
X265206001Y-123361000D02*
X265856001Y-123361000D01*
X265206001Y-124669000D02*
X265206001Y-123361000D01*
X265206001Y-124669000D02*
X265356001Y-124669000D01*
X265356001Y-124669000D02*
X265356001Y-125524599D01*
X265356001Y-125524599D02*
X267164001Y-125524599D01*
X265856001Y-122505401D02*
X266664001Y-122505401D01*
X265856001Y-123361000D02*
X265856001Y-122505401D01*
X266664001Y-123361000D02*
X266664001Y-122505401D01*
X267164001Y-124669000D02*
X267164001Y-125524599D01*
X267314001Y-123361000D02*
X266664001Y-123361000D01*
X267314001Y-123361000D02*
X267314001Y-124669000D01*
X267314001Y-124669000D02*
X267164001Y-124669000D01*
D10*
%TO.C,F2*%
X231785000Y-116270000D02*
X236345000Y-116270000D01*
X231785000Y-118510000D02*
X231785000Y-116270000D01*
X236345000Y-116270000D02*
X236345000Y-118510000D01*
X236345000Y-118510000D02*
X231785000Y-118510000D01*
%TO.C,C38*%
X255060000Y-149940000D02*
X255980000Y-149940000D01*
X255060000Y-151760000D02*
X255060000Y-149940000D01*
X255980000Y-149940000D02*
X255980000Y-151760000D01*
X255980000Y-151760000D02*
X255060000Y-151760000D01*
D11*
%TO.C,P2*%
X321691000Y-133816202D02*
X321691000Y-143124200D01*
X321691000Y-143124200D02*
X330749000Y-143124200D01*
X330749000Y-133816202D02*
X321691000Y-133816202D01*
X330749000Y-143124200D02*
X330749000Y-133816202D01*
%TO.C,U9*%
X280613200Y-165571600D02*
X282442000Y-165571600D01*
X280613200Y-169788000D02*
X280613200Y-165571600D01*
X281246900Y-169788000D02*
X280613200Y-169788000D01*
X281246900Y-171959700D02*
X281246900Y-169788000D01*
X282442000Y-163399900D02*
X285998000Y-163399900D01*
X282442000Y-165571600D02*
X282442000Y-163399900D01*
X285998000Y-163399900D02*
X285998000Y-165571600D01*
X285998000Y-165571600D02*
X287826800Y-165571600D01*
X287193100Y-169788000D02*
X287193100Y-171959700D01*
X287193100Y-171959700D02*
X281246900Y-171959700D01*
X287826800Y-165571600D02*
X287826800Y-169788000D01*
X287826800Y-169788000D02*
X287193100Y-169788000D01*
D10*
%TO.C,C33*%
X306397500Y-164910000D02*
X310997500Y-164910000D01*
X306397500Y-167010000D02*
X306397500Y-164910000D01*
X310997500Y-164910000D02*
X310997500Y-167010000D01*
X310997500Y-167010000D02*
X306397500Y-167010000D01*
%TO.C,C11*%
X295835000Y-68052500D02*
X297935000Y-68052500D01*
X295835000Y-72652500D02*
X295835000Y-68052500D01*
X297935000Y-68052500D02*
X297935000Y-72652500D01*
X297935000Y-72652500D02*
X295835000Y-72652500D01*
%TO.C,C16*%
X239095000Y-103210000D02*
X243895000Y-103210000D01*
X239095000Y-112010000D02*
X239095000Y-103210000D01*
X243895000Y-103210000D02*
X243895000Y-112010000D01*
X243895000Y-112010000D02*
X239095000Y-112010000D01*
%TO.C,R6*%
X237524998Y-147280000D02*
X238984998Y-147280000D01*
X237524998Y-150240000D02*
X237524998Y-147280000D01*
X238984998Y-147280000D02*
X238984998Y-150240000D01*
X238984998Y-150240000D02*
X237524998Y-150240000D01*
D13*
%TO.C,J2*%
X219500000Y-160700000D02*
X206580000Y-160700000D01*
X206580000Y-129300000D01*
X219500000Y-129300000D01*
X219500000Y-160700000D01*
G36*
X219500000Y-160700000D02*
G01*
X206580000Y-160700000D01*
X206580000Y-129300000D01*
X219500000Y-129300000D01*
X219500000Y-160700000D01*
G37*
D10*
%TO.C,R36*%
X316260000Y-161210000D02*
X319220000Y-161210000D01*
X316260000Y-162670000D02*
X316260000Y-161210000D01*
X319220000Y-161210000D02*
X319220000Y-162670000D01*
X319220000Y-162670000D02*
X316260000Y-162670000D01*
%TO.C,R29*%
X264770000Y-146250000D02*
X265710000Y-146250000D01*
X264770000Y-148110000D02*
X264770000Y-146250000D01*
X265710000Y-146250000D02*
X265710000Y-148110000D01*
X265710000Y-148110000D02*
X264770000Y-148110000D01*
D11*
%TO.C,U7*%
X298429300Y-167349300D02*
X300207300Y-167349300D01*
X298429300Y-171565700D02*
X298429300Y-167349300D01*
X299051600Y-171565700D02*
X298429300Y-171565700D01*
X299051600Y-173712000D02*
X299051600Y-171565700D01*
X300207300Y-165203000D02*
X303864900Y-165203000D01*
X300207300Y-167349300D02*
X300207300Y-165203000D01*
X303864900Y-165203000D02*
X303864900Y-167349300D01*
X303864900Y-167349300D02*
X305642900Y-167349300D01*
X305020600Y-171565700D02*
X305020600Y-173712000D01*
X305020600Y-173712000D02*
X299051600Y-173712000D01*
X305642900Y-167349300D02*
X305642900Y-171565700D01*
X305642900Y-171565700D02*
X305020600Y-171565700D01*
D10*
%TO.C,R9*%
X232470000Y-151980000D02*
X233930000Y-151980000D01*
X232470000Y-154940000D02*
X232470000Y-151980000D01*
X233930000Y-151980000D02*
X233930000Y-154940000D01*
X233930000Y-154940000D02*
X232470000Y-154940000D01*
%TO.C,+12V1*%
X230570000Y-68590000D02*
G75*
G02*
X226570000Y-68590000I-2000000J0D01*
G01*
X226570000Y-68590000D02*
G75*
G02*
X230570000Y-68590000I2000000J0D01*
G01*
%TO.C,R41*%
X240525000Y-113160000D02*
X242425000Y-113160000D01*
X240525000Y-116520000D02*
X240525000Y-113160000D01*
X242425000Y-113160000D02*
X242425000Y-116520000D01*
X242425000Y-116520000D02*
X240525000Y-116520000D01*
%TO.C,H5*%
X283450000Y-144000000D02*
G75*
G02*
X276550000Y-144000000I-3450000J0D01*
G01*
X276550000Y-144000000D02*
G75*
G02*
X283450000Y-144000000I3450000J0D01*
G01*
D11*
%TO.C,R2*%
X307667900Y-106703900D02*
X309522100Y-106703900D01*
X307667900Y-109066100D02*
X307667900Y-106703900D01*
X309522100Y-106703900D02*
X309522100Y-109066100D01*
X309522100Y-109066100D02*
X307667900Y-109066100D01*
D10*
%TO.C,R31*%
X259790000Y-152180000D02*
X261250000Y-152180000D01*
X259790000Y-155140000D02*
X259790000Y-152180000D01*
X261250000Y-152180000D02*
X261250000Y-155140000D01*
X261250000Y-155140000D02*
X259790000Y-155140000D01*
%TO.C,R28*%
X278390000Y-171899800D02*
X279850000Y-171899800D01*
X278390000Y-174859800D02*
X278390000Y-171899800D01*
X279850000Y-171899800D02*
X279850000Y-174859800D01*
X279850000Y-174859800D02*
X278390000Y-174859800D01*
%TO.C,R30*%
X278380000Y-166779800D02*
X279840000Y-166779800D01*
X278380000Y-169739800D02*
X278380000Y-166779800D01*
X279840000Y-166779800D02*
X279840000Y-169739800D01*
X279840000Y-169739800D02*
X278380000Y-169739800D01*
%TO.C,R26*%
X255390000Y-144960000D02*
X256330000Y-144960000D01*
X255390000Y-146820000D02*
X255390000Y-144960000D01*
X256330000Y-144960000D02*
X256330000Y-146820000D01*
X256330000Y-146820000D02*
X255390000Y-146820000D01*
%TO.C,C35*%
X254110000Y-144960000D02*
X255030000Y-144960000D01*
X254110000Y-146780000D02*
X254110000Y-144960000D01*
X255030000Y-144960000D02*
X255030000Y-146780000D01*
X255030000Y-146780000D02*
X254110000Y-146780000D01*
D11*
%TO.C,P3*%
X321591000Y-149996001D02*
X321591000Y-159303999D01*
X321591000Y-159303999D02*
X330649000Y-159303999D01*
X330649000Y-149996001D02*
X321591000Y-149996001D01*
X330649000Y-159303999D02*
X330649000Y-149996001D01*
D10*
%TO.C,U1*%
X268670000Y-57415000D02*
X294570000Y-57415000D01*
X268670000Y-83315000D02*
X268670000Y-57415000D01*
X294570000Y-57415000D02*
X294570000Y-83315000D01*
X294570000Y-83315000D02*
X268670000Y-83315000D01*
%TO.C,C13*%
X234220000Y-151980000D02*
X235680000Y-151980000D01*
X234220000Y-154940000D02*
X234220000Y-151980000D01*
X235680000Y-151980000D02*
X235680000Y-154940000D01*
X235680000Y-154940000D02*
X234220000Y-154940000D01*
%TO.C,R22*%
X316760000Y-81565000D02*
X318220000Y-81565000D01*
X316760000Y-84525000D02*
X316760000Y-81565000D01*
X318220000Y-81565000D02*
X318220000Y-84525000D01*
X318220000Y-84525000D02*
X316760000Y-84525000D01*
%TO.C,R4*%
X303970000Y-67070000D02*
X305870000Y-67070000D01*
X303970000Y-70430000D02*
X303970000Y-67070000D01*
X305870000Y-67070000D02*
X305870000Y-70430000D01*
X305870000Y-70430000D02*
X303970000Y-70430000D01*
%TO.C,C24*%
X295365000Y-106937500D02*
X297465000Y-106937500D01*
X295365000Y-111537500D02*
X295365000Y-106937500D01*
X297465000Y-106937500D02*
X297465000Y-111537500D01*
X297465000Y-111537500D02*
X295365000Y-111537500D01*
%TO.C,C12*%
X221650000Y-150662500D02*
X223410000Y-150662500D01*
X221650000Y-154062500D02*
X221650000Y-150662500D01*
X223410000Y-150662500D02*
X223410000Y-154062500D01*
X223410000Y-154062500D02*
X221650000Y-154062500D01*
%TO.C,C39*%
X256260000Y-149950000D02*
X257180000Y-149950000D01*
X256260000Y-151770000D02*
X256260000Y-149950000D01*
X257180000Y-149950000D02*
X257180000Y-151770000D01*
X257180000Y-151770000D02*
X256260000Y-151770000D01*
%TO.C,R27*%
X265210000Y-150030000D02*
X266670000Y-150030000D01*
X265210000Y-152990000D02*
X265210000Y-150030000D01*
X266670000Y-150030000D02*
X266670000Y-152990000D01*
X266670000Y-152990000D02*
X265210000Y-152990000D01*
D11*
%TO.C,U2*%
X224691700Y-152401800D02*
X225314000Y-152401800D01*
X224691700Y-156618200D02*
X224691700Y-152401800D01*
X225314000Y-150255500D02*
X231283000Y-150255500D01*
X225314000Y-152401800D02*
X225314000Y-150255500D01*
X226469700Y-156618200D02*
X224691700Y-156618200D01*
X226469700Y-158764500D02*
X226469700Y-156618200D01*
X230127300Y-156618200D02*
X230127300Y-158764500D01*
X230127300Y-158764500D02*
X226469700Y-158764500D01*
X231283000Y-150255500D02*
X231283000Y-152401800D01*
X231283000Y-152401800D02*
X231905300Y-152401800D01*
X231905300Y-152401800D02*
X231905300Y-156618200D01*
X231905300Y-156618200D02*
X230127300Y-156618200D01*
%TO.C,U10*%
X272816400Y-152917400D02*
X273923200Y-152917400D01*
X272816400Y-155782600D02*
X272816400Y-152917400D01*
X272816400Y-155782600D02*
X273923200Y-155782600D01*
X273923200Y-152648200D02*
X276056800Y-152648200D01*
X273923200Y-152917400D02*
X273923200Y-152648200D01*
X273923200Y-156051800D02*
X273923200Y-155782600D01*
X276056800Y-152648200D02*
X276056800Y-152917400D01*
X276056800Y-155782600D02*
X276056800Y-156051800D01*
X276056800Y-156051800D02*
X273923200Y-156051800D01*
X277163600Y-152917400D02*
X276056800Y-152917400D01*
X277163600Y-152917400D02*
X277163600Y-155782600D01*
X277163600Y-155782600D02*
X276056800Y-155782600D01*
D10*
%TO.C,C30*%
X293557500Y-168570000D02*
X295017500Y-168570000D01*
X293557500Y-171530000D02*
X293557500Y-168570000D01*
X295017500Y-168570000D02*
X295017500Y-171530000D01*
X295017500Y-171530000D02*
X293557500Y-171530000D01*
%TO.C,R40*%
X240995000Y-74275000D02*
X242895000Y-74275000D01*
X240995000Y-77635000D02*
X240995000Y-74275000D01*
X242895000Y-74275000D02*
X242895000Y-77635000D01*
X242895000Y-77635000D02*
X240995000Y-77635000D01*
%TO.C,R38*%
X316150000Y-137740000D02*
X319110000Y-137740000D01*
X316150000Y-139200000D02*
X316150000Y-137740000D01*
X319110000Y-137740000D02*
X319110000Y-139200000D01*
X319110000Y-139200000D02*
X316150000Y-139200000D01*
D11*
%TO.C,R1*%
X307777900Y-70533900D02*
X309632100Y-70533900D01*
X307777900Y-72896100D02*
X307777900Y-70533900D01*
X309632100Y-70533900D02*
X309632100Y-72896100D01*
X309632100Y-72896100D02*
X307777900Y-72896100D01*
%TO.C,M4*%
X316405999Y-126121000D02*
X317055999Y-126121000D01*
X316405999Y-127429000D02*
X316405999Y-126121000D01*
X316405999Y-127429000D02*
X316555999Y-127429000D01*
X316555999Y-127429000D02*
X316555999Y-128284599D01*
X316555999Y-128284599D02*
X318363999Y-128284599D01*
X317055999Y-125265401D02*
X317863999Y-125265401D01*
X317055999Y-126121000D02*
X317055999Y-125265401D01*
X317863999Y-126121000D02*
X317863999Y-125265401D01*
X318363999Y-127429000D02*
X318363999Y-128284599D01*
X318513999Y-126121000D02*
X317863999Y-126121000D01*
X318513999Y-126121000D02*
X318513999Y-127429000D01*
X318513999Y-127429000D02*
X318363999Y-127429000D01*
D10*
%TO.C,C27*%
X314755000Y-112625000D02*
X315675000Y-112625000D01*
X314755000Y-114445000D02*
X314755000Y-112625000D01*
X315675000Y-112625000D02*
X315675000Y-114445000D01*
X315675000Y-114445000D02*
X314755000Y-114445000D01*
%TO.C,R8*%
X260130000Y-138790000D02*
X263090000Y-138790000D01*
X260130000Y-140250000D02*
X260130000Y-138790000D01*
X263090000Y-138790000D02*
X263090000Y-140250000D01*
X263090000Y-140250000D02*
X260130000Y-140250000D01*
%TO.C,C2*%
X285180000Y-124090000D02*
X288140000Y-124090000D01*
X285180000Y-125550000D02*
X285180000Y-124090000D01*
X288140000Y-124090000D02*
X288140000Y-125550000D01*
X288140000Y-125550000D02*
X285180000Y-125550000D01*
%TO.C,+12V_RTN1*%
X231810000Y-89060000D02*
G75*
G02*
X227810000Y-89060000I-2000000J0D01*
G01*
X227810000Y-89060000D02*
G75*
G02*
X231810000Y-89060000I2000000J0D01*
G01*
%TO.C,C40*%
X264560000Y-142330000D02*
X265480000Y-142330000D01*
X264560000Y-144150000D02*
X264560000Y-142330000D01*
X265480000Y-142330000D02*
X265480000Y-144150000D01*
X265480000Y-144150000D02*
X264560000Y-144150000D01*
%TO.C,+/-5V_{RTN}1*%
X298700000Y-90100000D02*
G75*
G02*
X294700000Y-90100000I-2000000J0D01*
G01*
X294700000Y-90100000D02*
G75*
G02*
X298700000Y-90100000I2000000J0D01*
G01*
D11*
%TO.C,P4*%
X319251000Y-165536202D02*
X319251000Y-174844200D01*
X319251000Y-174844200D02*
X328309000Y-174844200D01*
X328309000Y-165536202D02*
X319251000Y-165536202D01*
X328309000Y-174844200D02*
X328309000Y-165536202D01*
D10*
%TO.C,H7*%
X336450000Y-174000000D02*
G75*
G02*
X329550000Y-174000000I-3450000J0D01*
G01*
X329550000Y-174000000D02*
G75*
G02*
X336450000Y-174000000I3450000J0D01*
G01*
%TO.C,H4*%
X217450000Y-114000000D02*
G75*
G02*
X210550000Y-114000000I-3450000J0D01*
G01*
X210550000Y-114000000D02*
G75*
G02*
X217450000Y-114000000I3450000J0D01*
G01*
%TO.C,H9*%
X217450000Y-174000000D02*
G75*
G02*
X210550000Y-174000000I-3450000J0D01*
G01*
X210550000Y-174000000D02*
G75*
G02*
X217450000Y-174000000I3450000J0D01*
G01*
%TD*%
M02*
