%TF.GenerationSoftware,KiCad,Pcbnew,9.0.3*%
%TF.CreationDate,2025-09-16T11:45:41-04:00*%
%TF.ProjectId,5_COLD_TPC_Charge_Pre_Amp,355f434f-4c44-45f5-9450-435f43686172,rev?*%
%TF.SameCoordinates,Original*%
%TF.FileFunction,Soldermask,Bot*%
%TF.FilePolarity,Negative*%
%FSLAX46Y46*%
G04 Gerber Fmt 4.6, Leading zero omitted, Abs format (unit mm)*
G04 Created by KiCad (PCBNEW 9.0.3) date 2025-09-16 11:45:41*
%MOMM*%
%LPD*%
G01*
G04 APERTURE LIST*
G04 Aperture macros list*
%AMRoundRect*
0 Rectangle with rounded corners*
0 $1 Rounding radius*
0 $2 $3 $4 $5 $6 $7 $8 $9 X,Y pos of 4 corners*
0 Add a 4 corners polygon primitive as box body*
4,1,4,$2,$3,$4,$5,$6,$7,$8,$9,$2,$3,0*
0 Add four circle primitives for the rounded corners*
1,1,$1+$1,$2,$3*
1,1,$1+$1,$4,$5*
1,1,$1+$1,$6,$7*
1,1,$1+$1,$8,$9*
0 Add four rect primitives between the rounded corners*
20,1,$1+$1,$2,$3,$4,$5,0*
20,1,$1+$1,$4,$5,$6,$7,0*
20,1,$1+$1,$6,$7,$8,$9,0*
20,1,$1+$1,$8,$9,$2,$3,0*%
G04 Aperture macros list end*
%ADD10RoundRect,0.102000X1.000000X-1.000000X1.000000X1.000000X-1.000000X1.000000X-1.000000X-1.000000X0*%
%ADD11C,2.204000*%
%ADD12C,2.800000*%
%ADD13C,1.764000*%
%ADD14C,4.420000*%
%ADD15C,2.006600*%
%ADD16C,2.209800*%
%ADD17C,6.400000*%
%ADD18C,1.779000*%
%ADD19C,1.295400*%
%ADD20C,2.159000*%
%ADD21C,1.839000*%
%ADD22RoundRect,0.140000X-0.140000X-0.170000X0.140000X-0.170000X0.140000X0.170000X-0.140000X0.170000X0*%
%ADD23RoundRect,0.200000X0.200000X0.275000X-0.200000X0.275000X-0.200000X-0.275000X0.200000X-0.275000X0*%
%ADD24RoundRect,0.140000X0.170000X-0.140000X0.170000X0.140000X-0.170000X0.140000X-0.170000X-0.140000X0*%
%ADD25RoundRect,0.250000X-0.450000X0.262500X-0.450000X-0.262500X0.450000X-0.262500X0.450000X0.262500X0*%
%ADD26RoundRect,0.225000X0.250000X-0.225000X0.250000X0.225000X-0.250000X0.225000X-0.250000X-0.225000X0*%
%ADD27RoundRect,0.099250X0.632750X0.297750X-0.632750X0.297750X-0.632750X-0.297750X0.632750X-0.297750X0*%
%ADD28RoundRect,0.200000X-0.275000X0.200000X-0.275000X-0.200000X0.275000X-0.200000X0.275000X0.200000X0*%
%ADD29RoundRect,0.100500X0.986500X0.301500X-0.986500X0.301500X-0.986500X-0.301500X0.986500X-0.301500X0*%
%ADD30RoundRect,0.250000X0.450000X-0.262500X0.450000X0.262500X-0.450000X0.262500X-0.450000X-0.262500X0*%
%ADD31RoundRect,0.225000X-0.250000X0.225000X-0.250000X-0.225000X0.250000X-0.225000X0.250000X0.225000X0*%
%ADD32RoundRect,0.200000X-0.200000X-0.275000X0.200000X-0.275000X0.200000X0.275000X-0.200000X0.275000X0*%
G04 APERTURE END LIST*
D10*
%TO.C,U4*%
X271000000Y-111750000D03*
D11*
X271000000Y-106650000D03*
X291300000Y-119450000D03*
X291300000Y-109250000D03*
X291300000Y-99050000D03*
X271000000Y-99050000D03*
%TD*%
D12*
%TO.C,Telem_RTN1*%
X271750000Y-144770000D03*
%TD*%
D13*
%TO.C,J1*%
X217755000Y-79935000D03*
X217755000Y-82705000D03*
X217755000Y-85475000D03*
X217755000Y-88245000D03*
X217755000Y-91015000D03*
X214915000Y-81320000D03*
X214915000Y-84090000D03*
X214915000Y-86860000D03*
X214915000Y-89630000D03*
D14*
X216335000Y-72975000D03*
X216335000Y-97975000D03*
%TD*%
D12*
%TO.C,-5V1*%
X228660000Y-132080000D03*
%TD*%
D15*
%TO.C,J4*%
X333883000Y-107895000D03*
D16*
X336423000Y-105355000D03*
X331343000Y-105355000D03*
X331343000Y-110435000D03*
X336423000Y-110435000D03*
%TD*%
D17*
%TO.C,H3*%
X333000000Y-90000000D03*
%TD*%
D12*
%TO.C,+5V1*%
X228540000Y-167640000D03*
%TD*%
D17*
%TO.C,H1*%
X214000000Y-56000000D03*
%TD*%
%TO.C,H2*%
X333000000Y-56000000D03*
%TD*%
D18*
%TO.C,J3*%
X255606000Y-167510000D03*
X253316000Y-167510000D03*
X251026000Y-167510000D03*
X248736000Y-167510000D03*
X246446000Y-167510000D03*
X256751000Y-170050000D03*
X254461000Y-170050000D03*
X252171000Y-170050000D03*
X249881000Y-170050000D03*
X247591000Y-170050000D03*
X255606000Y-172590000D03*
X253316000Y-172590000D03*
X251026000Y-172590000D03*
X248736000Y-172590000D03*
X246446000Y-172590000D03*
D14*
X238785000Y-170050000D03*
X263775000Y-170050000D03*
%TD*%
D15*
%TO.C,J5*%
X334010000Y-71705000D03*
D16*
X336550000Y-69165000D03*
X331470000Y-69165000D03*
X331470000Y-74245000D03*
X336550000Y-74245000D03*
%TD*%
D12*
%TO.C,V_{EN}1*%
X261320000Y-89620000D03*
%TD*%
D17*
%TO.C,H8*%
X280000000Y-90000000D03*
%TD*%
D19*
%TO.C,P1*%
X325540000Y-118720000D03*
X325540000Y-126040000D03*
D20*
X326300000Y-122390000D03*
%TD*%
D19*
%TO.C,P2*%
X325460000Y-134800201D03*
X325460000Y-142120201D03*
D20*
X326220000Y-138470201D03*
%TD*%
D21*
%TO.C,J2*%
X217720000Y-150540000D03*
X217720000Y-147770000D03*
X217720000Y-145000000D03*
X217720000Y-142230000D03*
X217720000Y-139460000D03*
X214880000Y-149155000D03*
X214880000Y-146385000D03*
X214880000Y-143615000D03*
X214880000Y-140845000D03*
D14*
X216300000Y-132500000D03*
X216300000Y-157500000D03*
%TD*%
D12*
%TO.C,+12V1*%
X228570000Y-68590000D03*
%TD*%
D17*
%TO.C,H5*%
X280000000Y-144000000D03*
%TD*%
D19*
%TO.C,P3*%
X325360000Y-150980000D03*
X325360000Y-158300000D03*
D20*
X326120000Y-154650000D03*
%TD*%
D10*
%TO.C,U1*%
X271470000Y-72865000D03*
D11*
X271470000Y-67765000D03*
X291770000Y-80565000D03*
X291770000Y-70365000D03*
X291770000Y-60165000D03*
X271470000Y-60165000D03*
%TD*%
D12*
%TO.C,+12V_RTN1*%
X229810000Y-89060000D03*
%TD*%
%TO.C,+/-5V_{RTN}1*%
X296700000Y-90100000D03*
%TD*%
D19*
%TO.C,P4*%
X323020000Y-166520201D03*
X323020000Y-173840201D03*
D20*
X323780000Y-170190201D03*
%TD*%
D17*
%TO.C,H7*%
X333000000Y-174000000D03*
%TD*%
%TO.C,H4*%
X214000000Y-114000000D03*
%TD*%
%TO.C,H9*%
X214000000Y-174000000D03*
%TD*%
D22*
%TO.C,C36*%
X275300000Y-157940000D03*
X276260000Y-157940000D03*
%TD*%
D23*
%TO.C,R19*%
X280815000Y-135460000D03*
X279165000Y-135460000D03*
%TD*%
D24*
%TO.C,C29*%
X301965000Y-77905000D03*
X301965000Y-76945000D03*
%TD*%
D25*
%TO.C,R3*%
X300560000Y-114137500D03*
X300560000Y-115962500D03*
%TD*%
D26*
%TO.C,C7*%
X269125000Y-70840000D03*
X269125000Y-69290000D03*
%TD*%
D27*
%TO.C,D1*%
X298660000Y-118580000D03*
X298660000Y-120480000D03*
X296700000Y-119530000D03*
%TD*%
D26*
%TO.C,C21*%
X294455000Y-110035000D03*
X294455000Y-108485000D03*
%TD*%
%TO.C,C22*%
X296425000Y-110035000D03*
X296425000Y-108485000D03*
%TD*%
%TO.C,C19*%
X266805000Y-109725000D03*
X266805000Y-108175000D03*
%TD*%
D28*
%TO.C,R18*%
X302270000Y-81745000D03*
X302270000Y-83395000D03*
%TD*%
%TO.C,R10*%
X264860000Y-119635000D03*
X264860000Y-121285000D03*
%TD*%
D29*
%TO.C,U6*%
X311235000Y-75505000D03*
X311235000Y-76775000D03*
X311235000Y-78045000D03*
X311235000Y-79315000D03*
X306295000Y-79315000D03*
X306295000Y-78045000D03*
X306295000Y-76775000D03*
X306295000Y-75505000D03*
%TD*%
D30*
%TO.C,R15*%
X300515000Y-110212500D03*
X300515000Y-108387500D03*
%TD*%
D26*
%TO.C,C6*%
X267275000Y-70840000D03*
X267275000Y-69290000D03*
%TD*%
%TO.C,C9*%
X296895000Y-71150000D03*
X296895000Y-69600000D03*
%TD*%
%TO.C,C8*%
X294925000Y-71150000D03*
X294925000Y-69600000D03*
%TD*%
%TO.C,C10*%
X298865000Y-71150000D03*
X298865000Y-69600000D03*
%TD*%
D31*
%TO.C,C32*%
X304125000Y-81840000D03*
X304125000Y-83390000D03*
%TD*%
D30*
%TO.C,R5*%
X300985000Y-71327500D03*
X300985000Y-69502500D03*
%TD*%
D26*
%TO.C,C20*%
X268655000Y-109725000D03*
X268655000Y-108175000D03*
%TD*%
D32*
%TO.C,R12*%
X266825000Y-119640000D03*
X268475000Y-119640000D03*
%TD*%
D24*
%TO.C,C28*%
X303305000Y-77905000D03*
X303305000Y-76945000D03*
%TD*%
D26*
%TO.C,C5*%
X265335000Y-70840000D03*
X265335000Y-69290000D03*
%TD*%
%TO.C,C23*%
X298395000Y-110035000D03*
X298395000Y-108485000D03*
%TD*%
D23*
%TO.C,R35*%
X280895000Y-138060000D03*
X279245000Y-138060000D03*
%TD*%
D22*
%TO.C,C37*%
X275300000Y-156810000D03*
X276260000Y-156810000D03*
%TD*%
D26*
%TO.C,C18*%
X264865000Y-109725000D03*
X264865000Y-108175000D03*
%TD*%
G36*
X289503039Y-97174685D02*
G01*
X289548794Y-97227489D01*
X289560000Y-97279000D01*
X289560000Y-111760000D01*
X291976000Y-111760000D01*
X292043039Y-111779685D01*
X292088794Y-111832489D01*
X292100000Y-111884000D01*
X292100000Y-115446000D01*
X292080315Y-115513039D01*
X292027511Y-115558794D01*
X291976000Y-115570000D01*
X288925000Y-115570000D01*
X288925000Y-121161000D01*
X288905315Y-121228039D01*
X288852511Y-121273794D01*
X288801000Y-121285000D01*
X270634000Y-121285000D01*
X270566961Y-121265315D01*
X270521206Y-121212511D01*
X270510000Y-121161000D01*
X270510000Y-114424000D01*
X270529685Y-114356961D01*
X270582489Y-114311206D01*
X270634000Y-114300000D01*
X273050000Y-114300000D01*
X273050000Y-97279000D01*
X273069685Y-97211961D01*
X273122489Y-97166206D01*
X273174000Y-97155000D01*
X289436000Y-97155000D01*
X289503039Y-97174685D01*
G37*
G36*
X289503039Y-58439685D02*
G01*
X289548794Y-58492489D01*
X289560000Y-58544000D01*
X289560000Y-82426000D01*
X289540315Y-82493039D01*
X289487511Y-82538794D01*
X289436000Y-82550000D01*
X270634000Y-82550000D01*
X270566961Y-82530315D01*
X270521206Y-82477511D01*
X270510000Y-82426000D01*
X270510000Y-75054000D01*
X270529685Y-74986961D01*
X270582489Y-74941206D01*
X270634000Y-74930000D01*
X274320000Y-74930000D01*
X274320000Y-58544000D01*
X274339685Y-58476961D01*
X274392489Y-58431206D01*
X274444000Y-58420000D01*
X289436000Y-58420000D01*
X289503039Y-58439685D01*
G37*
M02*
