M48
; DRILL file {KiCad 9.0.3} date 2025-09-16T11:45:45-0400
; FORMAT={-:-/ absolute / inch / decimal}
; #@! TF.CreationDate,2025-09-16T11:45:45-04:00
; #@! TF.GenerationSoftware,Kicad,Pcbnew,9.0.3
; #@! TF.FileFunction,Plated,1,10,PTH
FMAT,2
INCH
; #@! TA.AperFunction,Plated,PTH,ViaDrill
T1C0.0118
; #@! TA.AperFunction,Plated,PTH,ViaDrill
T2C0.0295
; #@! TA.AperFunction,Plated,PTH,ComponentDrill
T3C0.0409
; #@! TA.AperFunction,Plated,PTH,ComponentDrill
T4C0.0413
; #@! TA.AperFunction,Plated,PTH,ComponentDrill
T5C0.0429
; #@! TA.AperFunction,Plated,PTH,ComponentDrill
T6C0.0512
; #@! TA.AperFunction,Plated,PTH,ComponentDrill
T7C0.0590
; #@! TA.AperFunction,Plated,PTH,ComponentDrill
T8C0.0630
; #@! TA.AperFunction,Plated,PTH,ComponentDrill
T9C0.0650
; #@! TA.AperFunction,Plated,PTH,ComponentDrill
T10C0.0670
; #@! TA.AperFunction,Plated,PTH,ComponentDrill
T11C0.1260
%
G90
G05
T1
X8.3Y-2.4
X8.3Y-2.5
X8.3Y-2.6
X8.3Y-2.7
X8.3Y-4.1
X8.3Y-4.2
X8.3Y-4.3
X8.3Y-4.7
X8.3Y-4.8
X8.3Y-5.0
X8.3Y-6.4
X8.3Y-6.5
X8.3Y-6.6
X8.3Y-6.7
X8.4Y-2.4
X8.4Y-2.5
X8.4Y-2.6
X8.4Y-2.7
X8.4Y-4.1
X8.4Y-4.2
X8.4Y-4.3
X8.4Y-4.7
X8.4Y-4.8
X8.4Y-5.0
X8.4Y-6.6
X8.5Y-2.4
X8.5Y-2.5
X8.5Y-2.6
X8.5Y-2.7
X8.5Y-4.1
X8.5Y-4.2
X8.5Y-4.3
X8.5Y-4.7
X8.5Y-4.8
X8.5Y-5.0
X8.5Y-6.4
X8.5Y-6.5
X8.6Y-2.1
X8.6Y-2.2
X8.6Y-2.3
X8.6Y-2.4
X8.6Y-2.5
X8.6Y-2.6
X8.6Y-2.7
X8.6Y-4.1
X8.6Y-4.2
X8.6Y-4.3
X8.6Y-4.4
X8.6Y-4.5
X8.6Y-4.6
X8.6Y-4.7
X8.6Y-4.8
X8.6Y-5.0
X8.6Y-6.4
X8.6Y-6.5
X8.6Y-6.6
X8.6Y-6.8
X8.6Y-6.9
X8.6Y-7.0
X8.7Y-2.1
X8.7Y-2.2
X8.7Y-2.3
X8.7Y-2.4
X8.7Y-2.5
X8.7Y-2.6
X8.7Y-2.7
X8.7Y-2.8
X8.7Y-2.9
X8.7Y-3.0
X8.7Y-3.7
X8.7Y-3.8
X8.7Y-3.9
X8.7Y-4.0
X8.7Y-4.1
X8.7Y-4.2
X8.7Y-4.3
X8.7Y-4.4
X8.7Y-4.5
X8.7Y-4.6
X8.7Y-4.7
X8.7Y-4.8
X8.7Y-5.0
X8.7Y-5.1
X8.7Y-5.2
X8.7Y-5.3
X8.7Y-5.4
X8.7Y-6.6
X8.7Y-6.7
X8.7Y-6.9
X8.7Y-7.0
X8.739Y-6.2209
X8.761Y-6.0902
X8.8Y-2.1
X8.8Y-2.2
X8.8Y-2.3
X8.8Y-2.4
X8.8Y-2.5
X8.8Y-2.6
X8.8Y-2.7
X8.8Y-2.8
X8.8Y-2.9
X8.8Y-3.0
X8.8Y-3.1
X8.8Y-3.2
X8.8Y-3.3
X8.8Y-3.4
X8.8Y-3.5
X8.8Y-3.6
X8.8Y-3.7
X8.8Y-3.8
X8.8Y-3.9
X8.8Y-4.0
X8.8Y-4.1
X8.8Y-4.2
X8.8Y-4.3
X8.8Y-4.4
X8.8Y-4.5
X8.8Y-4.6
X8.8Y-4.7
X8.8Y-4.8
X8.8Y-5.0
X8.8Y-5.1
X8.8Y-5.2
X8.8Y-5.3
X8.8Y-5.4
X8.8Y-6.3
X8.8Y-6.4
X8.8Y-6.7
X8.8Y-6.8
X8.8Y-7.0
X8.8177Y-5.9456
X8.8295Y-5.4933
X8.8823Y-5.7713
X8.9Y-2.1
X8.9Y-2.2
X8.9Y-2.3
X8.9Y-2.4
X8.9Y-2.5
X8.9Y-2.6
X8.9Y-2.8
X8.9Y-2.9
X8.9Y-3.2
X8.9Y-3.3
X8.9Y-3.4
X8.9Y-3.5
X8.9Y-3.6
X8.9Y-3.7
X8.9Y-3.8
X8.9Y-3.9
X8.9Y-4.0
X8.9Y-4.1
X8.9Y-4.2
X8.9Y-4.3
X8.9Y-4.4
X8.9Y-4.55
X8.9Y-4.6
X8.9Y-4.7
X8.9Y-4.8
X8.9Y-5.0
X8.9Y-5.1
X8.9Y-5.3
X8.9Y-5.4
X8.9Y-5.6
X8.9Y-5.7
X8.9Y-6.3
X8.9Y-6.4
X8.9Y-6.5
X8.9Y-6.7
X8.9Y-6.8
X8.9Y-6.9
X8.925Y-3.05
X8.925Y-3.1
X8.95Y-4.55
X8.95Y-4.6
X8.975Y-3.05
X8.975Y-3.1
X9.0Y-2.1
X9.0Y-2.2
X9.0Y-2.3
X9.0Y-2.4
X9.0Y-2.5
X9.0Y-2.9
X9.0Y-3.2
X9.0Y-3.3
X9.0Y-3.4
X9.0Y-3.7
X9.0Y-3.8
X9.0Y-3.9
X9.0Y-4.0
X9.0Y-4.1
X9.0Y-4.2
X9.0Y-4.3
X9.0Y-4.4
X9.0Y-4.55
X9.0Y-4.6
X9.0Y-4.7
X9.0Y-4.8
X9.0Y-5.0
X9.0Y-5.4
X9.0Y-5.6
X9.0Y-5.7
X9.0Y-6.3
X9.0Y-6.4
X9.0Y-6.8
X9.0Y-6.9
X9.025Y-3.05
X9.025Y-3.1
X9.1Y-2.1
X9.1Y-2.2
X9.1Y-2.3
X9.1Y-2.4
X9.1Y-2.5
X9.1Y-2.6
X9.1Y-2.8
X9.1Y-2.9
X9.1Y-3.3
X9.1Y-3.4
X9.1Y-3.7
X9.1Y-3.8
X9.1Y-3.9
X9.1Y-4.0
X9.1Y-4.1
X9.1Y-4.2
X9.1Y-4.3
X9.1Y-4.4
X9.1Y-4.5
X9.1Y-4.7
X9.1Y-4.8
X9.1Y-5.0
X9.1Y-5.1
X9.1Y-5.3
X9.1Y-5.4
X9.1Y-5.6
X9.1Y-5.7
X9.1Y-5.8
X9.1Y-6.3
X9.1Y-6.4
X9.1Y-6.5
X9.1Y-6.7
X9.1Y-6.8
X9.1Y-6.9
X9.175Y-4.075
X9.175Y-4.125
X9.2Y-2.1
X9.2Y-2.2
X9.2Y-2.3
X9.2Y-2.4
X9.2Y-2.5
X9.2Y-2.8
X9.2Y-2.9
X9.2Y-3.3
X9.2Y-3.4
X9.2Y-3.5
X9.2Y-3.6
X9.2Y-3.7
X9.2Y-3.8
X9.2Y-3.9
X9.2Y-4.0
X9.2Y-4.2
X9.2Y-4.3
X9.2Y-4.4
X9.2Y-4.5
X9.2Y-4.7
X9.2Y-4.8
X9.2Y-5.0
X9.2Y-5.1
X9.2Y-5.2
X9.2Y-5.3
X9.2Y-5.4
X9.2Y-5.6
X9.2Y-5.7
X9.2Y-5.8
X9.2Y-5.9
X9.2Y-6.4
X9.2Y-6.5
X9.2Y-6.6
X9.2Y-6.7
X9.2Y-6.8
X9.2Y-6.9
X9.2154Y-6.1362
X9.2213Y-6.3439
X9.225Y-2.6
X9.225Y-2.65
X9.225Y-4.075
X9.225Y-4.125
X9.275Y-2.6
X9.275Y-2.65
X9.275Y-4.075
X9.275Y-4.125
X9.3Y-2.1
X9.3Y-2.2
X9.3Y-2.3
X9.3Y-2.4
X9.3Y-2.5
X9.3Y-2.8
X9.3Y-2.9
X9.3Y-3.3
X9.3Y-3.4
X9.3Y-3.5
X9.3Y-3.6
X9.3Y-3.7
X9.3Y-3.8
X9.3Y-3.9
X9.3Y-4.0
X9.3Y-4.2
X9.3Y-4.3
X9.3Y-4.4
X9.3Y-4.5
X9.3Y-4.7
X9.3Y-4.8
X9.3Y-5.3
X9.3Y-5.4
X9.3Y-5.6
X9.3Y-5.7
X9.3Y-5.8
X9.3Y-5.9
X9.325Y-2.6
X9.325Y-2.65
X9.4Y-2.1
X9.4Y-2.2
X9.4Y-2.3
X9.4Y-2.4
X9.4Y-2.5
X9.4Y-3.3
X9.4Y-3.4
X9.4Y-3.5
X9.4Y-3.6
X9.4Y-3.7
X9.4Y-3.8
X9.4Y-3.9
X9.4Y-4.0
X9.4Y-4.5
X9.4Y-4.7
X9.4Y-4.8
X9.4Y-4.9
X9.4Y-5.0
X9.4Y-5.1
X9.4Y-5.3
X9.4Y-5.4
X9.4Y-5.6
X9.4Y-5.7
X9.5Y-2.1
X9.5Y-2.2
X9.5Y-2.3
X9.5Y-3.3
X9.5Y-3.4
X9.5Y-3.5
X9.5Y-3.6
X9.5Y-3.7
X9.5Y-3.8
X9.5Y-3.9
X9.5Y-4.7
X9.5Y-4.8
X9.5Y-4.9
X9.5Y-5.0
X9.5Y-5.1
X9.5Y-5.3
X9.5Y-5.4
X9.5Y-5.9
X9.5Y-6.0
X9.5Y-6.1
X9.5Y-6.2
X9.5Y-6.3
X9.5Y-6.4
X9.5665Y-5.824
X9.6Y-2.1
X9.6Y-2.2
X9.6Y-2.3
X9.6Y-3.3
X9.6Y-3.4
X9.6Y-3.5
X9.6Y-3.6
X9.6Y-3.7
X9.6Y-3.8
X9.6Y-3.9
X9.6Y-4.5
X9.6Y-4.8
X9.6Y-4.9
X9.6Y-5.0
X9.6Y-5.1
X9.6Y-5.3
X9.6Y-5.4
X9.6Y-5.6
X9.6Y-5.7
X9.6Y-5.9
X9.6Y-6.0
X9.6Y-6.1
X9.6Y-6.2
X9.6Y-6.3
X9.6Y-6.4
X9.6386Y-4.7098
X9.6988Y-5.3331
X9.7Y-2.1
X9.7Y-2.2
X9.7Y-2.3
X9.7Y-2.8
X9.7Y-3.3
X9.7Y-3.4
X9.7Y-3.5
X9.7Y-3.6
X9.7Y-3.7
X9.7Y-3.8
X9.7Y-3.9
X9.7Y-4.1
X9.7Y-4.2
X9.7Y-4.3
X9.7Y-4.4
X9.7Y-4.5
X9.7Y-5.0
X9.7Y-5.1
X9.75Y-5.6
X9.75Y-5.7
X9.75Y-5.8
X9.75Y-5.9
X9.75Y-6.0
X9.75Y-6.1
X9.75Y-6.2
X9.75Y-6.3
X9.75Y-6.4
X9.7933Y-5.4362
X9.8Y-2.1
X9.8Y-2.8
X9.8Y-3.4
X9.8Y-3.5
X9.8Y-3.6
X9.8Y-4.3
X9.8Y-5.0
X9.8Y-5.1
X9.8Y-5.3
X9.85Y-5.6
X9.85Y-5.8
X9.85Y-5.9
X9.85Y-6.0
X9.85Y-6.1
X9.85Y-6.2
X9.85Y-6.4
X9.8819Y-6.3157
X9.9Y-2.1
X9.9Y-2.8
X9.9Y-3.4
X9.9Y-3.5
X9.9Y-3.6
X9.9Y-4.3
X9.9Y-5.0
X9.9Y-5.1
X9.9Y-5.3
X9.9Y-5.4
X9.95Y-5.8
X9.95Y-5.9
X9.95Y-6.0
X9.95Y-6.1
X10.0Y-2.1
X10.0Y-2.8
X10.0Y-3.4
X10.0Y-3.5
X10.0Y-3.6
X10.0Y-4.3
X10.0Y-5.0
X10.0Y-5.1
X10.0Y-5.3
X10.0Y-5.4
X10.0114Y-5.9327
X10.0732Y-6.2429
X10.0736Y-5.8681
X10.1Y-2.1
X10.1Y-2.8
X10.1Y-3.4
X10.1Y-3.5
X10.1Y-3.6
X10.1Y-4.3
X10.1Y-5.0
X10.1Y-5.1
X10.1Y-5.3
X10.1Y-5.4
X10.1559Y-5.9689
X10.2Y-2.1
X10.2Y-2.8
X10.2Y-3.6
X10.2Y-4.3
X10.2Y-5.0
X10.2Y-5.1
X10.2Y-5.3
X10.2Y-5.4
X10.2Y-6.2
X10.2Y-6.35
X10.2Y-6.45
X10.2028Y-5.4925
X10.2571Y-5.9563
X10.2697Y-5.7681
X10.3Y-2.1
X10.3Y-2.8
X10.3Y-4.3
X10.3Y-5.0
X10.3Y-5.1
X10.3Y-5.3
X10.3Y-5.4
X10.3Y-6.2
X10.3Y-6.35
X10.3Y-6.45
X10.3531Y-6.1142
X10.4Y-2.1
X10.4Y-2.2
X10.4Y-2.3
X10.4Y-2.5
X10.4Y-2.6
X10.4Y-2.9
X10.4Y-3.0
X10.4Y-3.2
X10.4Y-3.3
X10.4Y-3.5
X10.4Y-3.6
X10.4Y-3.7
X10.4Y-3.8
X10.4Y-4.4
X10.4Y-4.5
X10.4Y-6.2
X10.4Y-6.35
X10.4Y-6.45
X10.4276Y-4.8323
X10.4335Y-5.5835
X10.4339Y-5.7055
X10.4701Y-6.0492
X10.5Y-2.1
X10.5Y-2.2
X10.5Y-2.3
X10.5Y-2.4
X10.5Y-3.2
X10.5Y-3.3
X10.5Y-3.4
X10.5Y-3.5
X10.5Y-3.6
X10.5Y-3.7
X10.5Y-3.8
X10.5Y-3.9
X10.5Y-5.7
X10.5Y-6.2
X10.5Y-6.35
X10.5Y-6.45
X10.5024Y-4.7969
X10.5114Y-5.8516
X10.5988Y-4.6547
X10.6Y-2.1
X10.6Y-2.2
X10.6Y-5.0
X10.6Y-5.3
X10.6Y-5.4
X10.6Y-5.6
X10.6Y-5.8
X10.6Y-6.2
X10.6Y-6.35
X10.6Y-6.45
X10.6Y-6.55
X10.6Y-6.65
X10.6Y-6.75
X10.6Y-6.85
X10.6Y-6.95
X10.7Y-2.1
X10.7Y-2.2
X10.7Y-3.3
X10.7Y-3.4
X10.7Y-3.5
X10.7Y-3.6
X10.7Y-3.7
X10.7Y-4.9
X10.7Y-5.0
X10.7Y-5.1
X10.7Y-5.3
X10.7Y-5.4
X10.7Y-5.6
X10.7Y-5.8
X10.7Y-6.2
X10.7Y-6.55
X10.7Y-6.65
X10.7Y-6.75
X10.7Y-6.85
X10.7Y-6.95
X10.7748Y-6.1724
X10.8Y-2.1
X10.8Y-2.2
X10.8Y-3.3
X10.8Y-3.4
X10.8Y-3.5
X10.8Y-3.6
X10.8Y-3.7
X10.8Y-4.9
X10.8Y-5.0
X10.8Y-5.1
X10.8Y-5.3
X10.8Y-5.4
X10.8Y-5.6
X10.8Y-5.8
X10.8Y-6.35
X10.8Y-6.45
X10.8Y-6.55
X10.8Y-6.65
X10.8Y-6.75
X10.8Y-6.85
X10.8Y-6.95
X10.9Y-2.1
X10.9Y-2.2
X10.9Y-3.3
X10.9Y-3.4
X10.9Y-3.7
X10.9Y-4.9
X10.9Y-5.0
X10.9Y-5.1
X10.9Y-5.3
X10.9Y-5.4
X10.9Y-6.35
X10.9Y-6.45
X10.9Y-6.55
X10.9Y-6.65
X10.9Y-6.75
X10.9Y-6.85
X10.9Y-6.95
X10.9354Y-5.3331
X10.9354Y-5.4362
X10.9386Y-6.0394
X10.9406Y-6.0791
X10.9886Y-6.9153
X11.0Y-2.1
X11.0Y-2.2
X11.0Y-3.3
X11.0Y-4.9
X11.0Y-5.0
X11.0Y-5.1
X11.0831Y-6.1594
X11.1Y-2.1
X11.1Y-2.2
X11.1Y-3.3
X11.1Y-3.7
X11.1Y-4.9
X11.1Y-5.0
X11.1Y-5.1
X11.1146Y-5.3331
X11.1146Y-5.4362
X11.1815Y-4.9138
X11.1894Y-6.8024
X11.2Y-2.1
X11.2Y-3.3
X11.2Y-3.4
X11.2Y-3.5
X11.2Y-3.6
X11.2Y-3.7
X11.2Y-5.0
X11.2Y-5.1
X11.2Y-5.3
X11.2Y-5.4
X11.2Y-5.6
X11.2Y-5.7
X11.2Y-5.8
X11.213Y-2.1898
X11.2937Y-6.2429
X11.2937Y-6.4756
X11.3Y-2.1
X11.3Y-3.3
X11.3Y-3.4
X11.3Y-3.5
X11.3Y-3.6
X11.3Y-3.7
X11.3Y-5.0
X11.3Y-5.1
X11.3Y-5.3
X11.3Y-5.4
X11.3Y-5.6
X11.3Y-5.7
X11.3Y-5.8
X11.3811Y-4.9142
X11.3928Y-6.8634
X11.3984Y-2.1898
X11.4Y-2.1
X11.4Y-3.3
X11.4Y-3.4
X11.4Y-3.5
X11.4Y-3.6
X11.4Y-3.7
X11.4Y-5.0
X11.4Y-5.1
X11.4Y-5.3
X11.4Y-5.4
X11.4Y-5.6
X11.4Y-5.7
X11.4Y-5.8
X11.4Y-6.2
X11.5Y-2.1
X11.5Y-2.2
X11.5Y-3.3
X11.5Y-3.4
X11.5Y-3.5
X11.5Y-3.6
X11.5Y-3.7
X11.5Y-4.9
X11.5Y-5.0
X11.5Y-5.1
X11.5Y-5.3
X11.5Y-5.4
X11.5Y-5.6
X11.5Y-5.7
X11.5Y-5.8
X11.5Y-6.2
X11.5062Y-6.4752
X11.6Y-2.1
X11.6Y-2.2
X11.6Y-3.3
X11.6Y-3.4
X11.6Y-3.7
X11.6Y-3.8
X11.6Y-3.9
X11.6Y-4.8
X11.6Y-4.9
X11.6Y-5.0
X11.6Y-5.1
X11.6Y-5.3
X11.6Y-5.4
X11.6Y-5.6
X11.6Y-5.7
X11.6Y-5.8
X11.6Y-6.2
X11.6Y-6.4
X11.6Y-6.9
X11.6212Y-6.6079
X11.7Y-2.1
X11.7Y-2.2
X11.7Y-2.3
X11.7Y-2.4
X11.7Y-2.5
X11.7Y-3.1
X11.7Y-3.2
X11.7Y-3.3
X11.7Y-3.4
X11.7Y-3.7
X11.7Y-3.8
X11.7Y-3.9
X11.7Y-4.0
X11.7Y-4.6
X11.7Y-4.8
X11.7Y-4.9
X11.7Y-5.0
X11.7Y-5.1
X11.7Y-5.3
X11.7Y-5.4
X11.7Y-5.6
X11.7Y-5.7
X11.7Y-5.8
X11.7Y-6.2
X11.7Y-6.4
X11.7Y-6.9
X11.8Y-2.1
X11.8Y-2.2
X11.8Y-2.3
X11.8Y-2.4
X11.8Y-2.5
X11.8Y-2.9
X11.8Y-3.0
X11.8Y-3.1
X11.8Y-3.2
X11.8Y-3.3
X11.8Y-3.4
X11.8Y-3.5
X11.8Y-3.6
X11.8Y-3.7
X11.8Y-3.8
X11.8Y-3.9
X11.8Y-4.0
X11.8Y-4.1
X11.8Y-4.8
X11.8Y-4.9
X11.8Y-5.0
X11.8Y-5.1
X11.8Y-5.3
X11.8Y-5.4
X11.8Y-5.6
X11.8Y-5.7
X11.8Y-5.8
X11.8Y-6.2
X11.8Y-6.9
X11.8331Y-4.4307
X11.8984Y-5.3331
X11.8998Y-3.3494
X11.9Y-2.1
X11.9Y-2.2
X11.9Y-2.3
X11.9Y-2.4
X11.9Y-2.5
X11.9Y-5.6
X11.9Y-5.7
X11.9Y-5.8
X11.9Y-6.2
X11.9Y-6.4
X11.9Y-6.9
X11.9575Y-5.4909
X11.9823Y-4.4717
X11.9896Y-3.0226
X11.9896Y-3.0726
X12.0Y-2.1
X12.0Y-2.2
X12.0Y-2.3
X12.0Y-2.4
X12.0Y-2.5
X12.0Y-5.6
X12.0Y-5.7
X12.0Y-5.8
X12.0Y-6.2
X12.0Y-6.4
X12.0Y-6.9
X12.0105Y-6.5338
X12.0254Y-3.222
X12.0303Y-6.0394
X12.0317Y-3.6793
X12.0447Y-3.4754
X12.0471Y-6.8079
X12.0882Y-6.1142
X12.0886Y-5.1016
X12.1Y-2.1
X12.1Y-2.5
X12.1Y-2.6
X12.1Y-2.7
X12.1Y-3.8
X12.1Y-3.9
X12.1Y-4.0
X12.1Y-4.1
X12.1Y-4.7
X12.1Y-4.8
X12.1Y-4.9
X12.1Y-5.0
X12.1Y-6.2
X12.1Y-6.4
X12.1Y-6.9
X12.1329Y-2.925
X12.1746Y-2.9254
X12.2Y-2.1
X12.2Y-2.5
X12.2Y-2.6
X12.2Y-2.7
X12.2Y-3.8
X12.2Y-3.9
X12.2Y-4.0
X12.2Y-4.1
X12.2Y-4.8
X12.2Y-4.9
X12.2Y-5.0
X12.2Y-5.3
X12.2Y-5.4
X12.2Y-5.6
X12.2Y-5.7
X12.2Y-5.8
X12.2Y-6.0
X12.2Y-6.1
X12.2Y-6.2
X12.2Y-6.4
X12.2Y-6.9
X12.2491Y-6.8079
X12.2498Y-4.6533
X12.2763Y-6.5339
X12.3Y-2.1
X12.3Y-2.5
X12.3Y-2.7
X12.3Y-2.9
X12.3Y-3.8
X12.3Y-3.9
X12.3Y-4.0
X12.3Y-4.1
X12.3Y-4.2
X12.3Y-4.3
X12.3Y-4.9
X12.3Y-5.0
X12.3Y-5.3
X12.3Y-5.4
X12.3Y-5.6
X12.3Y-5.7
X12.3Y-5.8
X12.3Y-6.0
X12.3Y-6.1
X12.3Y-6.2
X12.3Y-6.4
X12.3Y-6.9
X12.3061Y-3.7289
X12.3124Y-4.4967
X12.3128Y-4.447
X12.3372Y-3.0478
X12.3862Y-5.4362
X12.3876Y-4.7904
X12.4Y-2.1
X12.4Y-2.5
X12.4Y-2.7
X12.4Y-2.9
X12.4Y-3.0
X12.4Y-3.1
X12.4Y-3.8
X12.4Y-3.9
X12.4Y-4.0
X12.4Y-4.1
X12.4Y-4.2
X12.4Y-4.3
X12.4Y-6.9
X12.4165Y-6.3756
X12.4185Y-6.0906
X12.4299Y-5.4972
X12.4992Y-3.3913
X12.4992Y-5.9327
X12.4996Y-3.1894
X12.5Y-2.1
X12.5Y-2.5
X12.5Y-2.7
X12.5Y-2.9
X12.5Y-3.0
X12.5Y-3.1
X12.5Y-6.9
X12.5417Y-6.3157
X12.5697Y-4.528
X12.5697Y-5.8508
X12.5764Y-3.1898
X12.6Y-2.1
X12.6Y-2.5
X12.6Y-2.6
X12.6Y-2.7
X12.6Y-2.9
X12.6Y-3.0
X12.6Y-3.4
X12.6Y-3.5
X12.6Y-3.6
X12.6Y-3.7
X12.6Y-3.8
X12.6Y-3.9
X12.6Y-4.0
X12.6Y-4.1
X12.6Y-4.2
X12.6Y-4.3
X12.6Y-4.4
X12.6Y-4.7
X12.6Y-4.9
X12.6Y-5.0
X12.6138Y-5.1012
X12.7Y-2.1
X12.7Y-2.5
X12.7Y-2.6
X12.7Y-2.7
X12.7Y-2.9
X12.7Y-3.0
X12.7Y-3.3
X12.7Y-3.4
X12.7Y-3.5
X12.7Y-3.6
X12.7Y-3.7
X12.7Y-3.8
X12.7Y-3.9
X12.7Y-4.0
X12.7Y-4.1
X12.7Y-4.2
X12.7Y-4.3
X12.7Y-4.4
X12.7Y-4.5
X12.7Y-5.1
X12.7Y-5.2
X12.7Y-5.7
X12.7Y-5.8
X12.7Y-6.4
X12.8Y-2.1
X12.8Y-2.2
X12.8Y-2.3
X12.8Y-2.4
X12.8Y-2.5
X12.8Y-2.6
X12.8Y-2.7
X12.8Y-2.9
X12.8Y-3.0
X12.8Y-3.3
X12.8Y-3.4
X12.8Y-3.5
X12.8Y-3.6
X12.8Y-3.7
X12.8Y-3.8
X12.8Y-3.9
X12.8Y-4.0
X12.8Y-4.1
X12.8Y-4.2
X12.8Y-4.3
X12.8Y-4.4
X12.8Y-4.5
X12.8Y-5.1
X12.8Y-5.2
X12.8Y-5.7
X12.8Y-5.8
X12.8Y-6.4
X12.9Y-2.1
X12.9Y-2.2
X12.9Y-2.3
X12.9Y-2.4
X12.9Y-2.5
X12.9Y-2.6
X12.9Y-2.7
X12.9Y-2.9
X12.9Y-3.0
X12.9Y-3.3
X12.9Y-3.4
X12.9Y-3.5
X12.9Y-3.6
X12.9Y-3.7
X12.9Y-3.8
X12.9Y-3.9
X12.9Y-4.0
X12.9Y-4.1
X12.9Y-4.2
X12.9Y-4.3
X12.9Y-4.4
X12.9Y-4.5
X12.9Y-5.1
X12.9Y-5.2
X12.9Y-5.7
X12.9Y-5.8
X12.9Y-6.4
X13.0Y-2.4
X13.0Y-2.5
X13.0Y-2.6
X13.0Y-3.3
X13.0Y-3.4
X13.0Y-5.7
X13.0Y-5.8
X13.1Y-2.4
X13.1Y-2.5
X13.1Y-2.6
X13.1Y-3.3
X13.1Y-4.7
X13.1Y-4.8
X13.1Y-4.9
X13.1Y-5.0
X13.1Y-5.3
X13.1Y-5.4
X13.1Y-5.5
X13.1Y-5.6
X13.1Y-5.7
X13.1Y-5.8
X13.1Y-5.9
X13.1Y-6.0
X13.1Y-6.1
X13.1Y-6.2
X13.1Y-6.6
X13.2Y-2.4
X13.2Y-2.5
X13.2Y-2.6
X13.2Y-4.7
X13.2Y-4.8
X13.2Y-4.9
X13.2Y-5.0
X13.2Y-5.1
X13.2Y-5.2
X13.2Y-5.3
X13.2Y-5.4
X13.2Y-5.5
X13.2Y-5.6
X13.2Y-5.7
X13.2Y-5.8
X13.2Y-5.9
X13.2Y-6.0
X13.2Y-6.1
X13.2Y-6.2
X13.2Y-6.3
X13.2Y-6.4
X13.2Y-6.5
X13.2Y-6.6
T2
X10.7Y-3.05
X10.7Y-3.15
X10.7Y-4.6
X10.7Y-4.7
X10.8Y-3.05
X10.8Y-3.15
X10.8Y-3.9
X10.8Y-4.0
X10.8Y-4.1
X10.8Y-4.2
X10.8Y-4.3
X10.8Y-4.4
X10.8Y-4.5
X10.8Y-4.6
X10.8Y-4.7
X10.9Y-2.35
X10.9Y-2.45
X10.9Y-2.55
X10.9Y-2.65
X10.9Y-2.75
X10.9Y-2.85
X10.9Y-2.95
X10.9Y-3.05
X10.9Y-3.15
X10.9Y-3.9
X10.9Y-4.0
X10.9Y-4.1
X10.9Y-4.2
X10.9Y-4.3
X10.9Y-4.4
X10.9Y-4.5
X10.9Y-4.6
X10.9Y-4.7
X11.0Y-2.35
X11.0Y-2.45
X11.0Y-2.55
X11.0Y-2.65
X11.0Y-2.75
X11.0Y-2.85
X11.0Y-2.95
X11.0Y-3.05
X11.0Y-3.15
X11.0Y-3.9
X11.0Y-4.0
X11.0Y-4.1
X11.0Y-4.2
X11.0Y-4.3
X11.0Y-4.4
X11.0Y-4.5
X11.0Y-4.6
X11.0Y-4.7
X11.1Y-2.35
X11.1Y-2.45
X11.1Y-2.55
X11.1Y-2.65
X11.1Y-2.75
X11.1Y-2.85
X11.1Y-2.95
X11.1Y-3.05
X11.1Y-3.15
X11.1Y-3.9
X11.1Y-4.0
X11.1Y-4.1
X11.1Y-4.2
X11.1Y-4.3
X11.1Y-4.4
X11.1Y-4.5
X11.1Y-4.6
X11.1Y-4.7
X11.2Y-2.35
X11.2Y-2.45
X11.2Y-2.55
X11.2Y-2.65
X11.2Y-2.75
X11.2Y-2.85
X11.2Y-2.95
X11.2Y-3.05
X11.2Y-3.15
X11.2Y-3.9
X11.2Y-4.0
X11.2Y-4.1
X11.2Y-4.2
X11.2Y-4.3
X11.2Y-4.4
X11.2Y-4.5
X11.2Y-4.6
X11.2Y-4.7
X11.3Y-2.35
X11.3Y-2.45
X11.3Y-2.55
X11.3Y-2.65
X11.3Y-2.75
X11.3Y-2.85
X11.3Y-2.95
X11.3Y-3.05
X11.3Y-3.15
X11.3Y-3.9
X11.3Y-4.0
X11.3Y-4.1
X11.3Y-4.2
X11.3Y-4.3
X11.3Y-4.4
X11.3Y-4.5
X11.3Y-4.6
X11.3Y-4.7
X11.425Y-4.475
T3
X8.4612Y-3.2016
X8.4612Y-3.3106
X8.4612Y-3.4197
X8.4612Y-3.5287
X8.573Y-3.147
X8.573Y-3.2561
X8.573Y-3.3652
X8.573Y-3.4742
X8.573Y-3.5833
T4
X9.7026Y-6.5949
X9.7026Y-6.7949
X9.7477Y-6.6949
X9.7928Y-6.5949
X9.7928Y-6.7949
X9.8378Y-6.6949
X9.8829Y-6.5949
X9.8829Y-6.7949
X9.928Y-6.6949
X9.9731Y-6.5949
X9.9731Y-6.7949
X10.0181Y-6.6949
X10.0632Y-6.5949
X10.0632Y-6.7949
X10.1083Y-6.6949
T5
X8.4598Y-5.5451
X8.4598Y-5.6541
X8.4598Y-5.7632
X8.4598Y-5.8722
X8.5717Y-5.4906
X8.5717Y-5.5996
X8.5717Y-5.7087
X8.5717Y-5.8177
X8.5717Y-5.9268
T6
X10.6693Y-3.8996
X10.6693Y-4.1988
X10.6693Y-4.3996
X10.6878Y-2.3687
X10.6878Y-2.6679
X10.6878Y-2.8687
X11.4685Y-3.8996
X11.4685Y-4.3012
X11.4685Y-4.7028
X11.487Y-2.3687
X11.487Y-2.7703
X11.487Y-3.1719
T7
X13.145Y-4.2478
X13.15Y-2.823
T8
X8.9976Y-6.6
X8.9988Y-2.7004
X9.0024Y-5.2
X9.0476Y-3.5063
X10.2882Y-3.5283
X10.6988Y-5.6996
X11.6811Y-3.5472
T9
X12.7472Y-6.7004
X12.8394Y-6.0886
X12.8433Y-5.4516
X12.8465Y-4.8185
T10
X13.045Y-4.1478
X13.045Y-4.3478
X13.05Y-2.723
X13.05Y-2.923
X13.245Y-4.1478
X13.245Y-4.3478
X13.25Y-2.723
X13.25Y-2.923
T11
X8.4252Y-2.2047
X8.4252Y-4.4882
X8.4252Y-6.8504
X8.5157Y-5.2165
X8.5157Y-6.2008
X8.5171Y-2.873
X8.5171Y-3.8573
X9.401Y-6.6949
X10.3848Y-6.6949
X11.0236Y-3.5433
X11.0236Y-5.6693
X13.1102Y-2.2047
X13.1102Y-3.5433
X13.1102Y-6.8504
M30
