%TF.GenerationSoftware,KiCad,Pcbnew,9.0.3*%
%TF.CreationDate,2025-09-16T11:45:41-04:00*%
%TF.ProjectId,5_COLD_TPC_Charge_Pre_Amp,355f434f-4c44-45f5-9450-435f43686172,rev?*%
%TF.SameCoordinates,Original*%
%TF.FileFunction,Other,User*%
%FSLAX46Y46*%
G04 Gerber Fmt 4.6, Leading zero omitted, Abs format (unit mm)*
G04 Created by KiCad (PCBNEW 9.0.3) date 2025-09-16 11:45:41*
%MOMM*%
%LPD*%
G01*
G04 APERTURE LIST*
%ADD10C,0.050000*%
G04 APERTURE END LIST*
D10*
%TO.C,C36*%
X274870000Y-157480000D02*
X276690000Y-157480000D01*
X274870000Y-158400000D02*
X274870000Y-157480000D01*
X276690000Y-157480000D02*
X276690000Y-158400000D01*
X276690000Y-158400000D02*
X274870000Y-158400000D01*
%TO.C,R19*%
X278510000Y-134730000D02*
X281470000Y-134730000D01*
X278510000Y-136190000D02*
X278510000Y-134730000D01*
X281470000Y-134730000D02*
X281470000Y-136190000D01*
X281470000Y-136190000D02*
X278510000Y-136190000D01*
%TO.C,C29*%
X301505000Y-76515000D02*
X302425000Y-76515000D01*
X301505000Y-78335000D02*
X301505000Y-76515000D01*
X302425000Y-76515000D02*
X302425000Y-78335000D01*
X302425000Y-78335000D02*
X301505000Y-78335000D01*
%TO.C,R3*%
X299610000Y-113370000D02*
X301510000Y-113370000D01*
X299610000Y-116730000D02*
X299610000Y-113370000D01*
X301510000Y-113370000D02*
X301510000Y-116730000D01*
X301510000Y-116730000D02*
X299610000Y-116730000D01*
%TO.C,C7*%
X268395000Y-68585000D02*
X269855000Y-68585000D01*
X268395000Y-71545000D02*
X268395000Y-68585000D01*
X269855000Y-68585000D02*
X269855000Y-71545000D01*
X269855000Y-71545000D02*
X268395000Y-71545000D01*
%TO.C,D1*%
X295820000Y-117830000D02*
X295820000Y-121230000D01*
X295820000Y-121230000D02*
X299540000Y-121230000D01*
X299540000Y-117830000D02*
X295820000Y-117830000D01*
X299540000Y-121230000D02*
X299540000Y-117830000D01*
%TO.C,C21*%
X293725000Y-107780000D02*
X295185000Y-107780000D01*
X293725000Y-110740000D02*
X293725000Y-107780000D01*
X295185000Y-107780000D02*
X295185000Y-110740000D01*
X295185000Y-110740000D02*
X293725000Y-110740000D01*
%TO.C,C22*%
X295695000Y-107780000D02*
X297155000Y-107780000D01*
X295695000Y-110740000D02*
X295695000Y-107780000D01*
X297155000Y-107780000D02*
X297155000Y-110740000D01*
X297155000Y-110740000D02*
X295695000Y-110740000D01*
%TO.C,C19*%
X266075000Y-107470000D02*
X267535000Y-107470000D01*
X266075000Y-110430000D02*
X266075000Y-107470000D01*
X267535000Y-107470000D02*
X267535000Y-110430000D01*
X267535000Y-110430000D02*
X266075000Y-110430000D01*
%TO.C,R18*%
X301540000Y-81090000D02*
X303000000Y-81090000D01*
X301540000Y-84050000D02*
X301540000Y-81090000D01*
X303000000Y-81090000D02*
X303000000Y-84050000D01*
X303000000Y-84050000D02*
X301540000Y-84050000D01*
%TO.C,R10*%
X264130000Y-118980000D02*
X265590000Y-118980000D01*
X264130000Y-121940000D02*
X264130000Y-118980000D01*
X265590000Y-118980000D02*
X265590000Y-121940000D01*
X265590000Y-121940000D02*
X264130000Y-121940000D01*
%TO.C,U6*%
X305060000Y-74707500D02*
X305060000Y-80112500D01*
X312470000Y-74707500D02*
X305060000Y-74707500D01*
X312470000Y-74707500D02*
X312470000Y-80112500D01*
X312470000Y-80112500D02*
X305060000Y-80112500D01*
%TO.C,R15*%
X299565000Y-107620000D02*
X301465000Y-107620000D01*
X299565000Y-110980000D02*
X299565000Y-107620000D01*
X301465000Y-107620000D02*
X301465000Y-110980000D01*
X301465000Y-110980000D02*
X299565000Y-110980000D01*
%TO.C,C6*%
X266545000Y-68585000D02*
X268005000Y-68585000D01*
X266545000Y-71545000D02*
X266545000Y-68585000D01*
X268005000Y-68585000D02*
X268005000Y-71545000D01*
X268005000Y-71545000D02*
X266545000Y-71545000D01*
%TO.C,C9*%
X296165000Y-68895000D02*
X297625000Y-68895000D01*
X296165000Y-71855000D02*
X296165000Y-68895000D01*
X297625000Y-68895000D02*
X297625000Y-71855000D01*
X297625000Y-71855000D02*
X296165000Y-71855000D01*
%TO.C,C8*%
X294195000Y-68895000D02*
X295655000Y-68895000D01*
X294195000Y-71855000D02*
X294195000Y-68895000D01*
X295655000Y-68895000D02*
X295655000Y-71855000D01*
X295655000Y-71855000D02*
X294195000Y-71855000D01*
%TO.C,C10*%
X298135000Y-68895000D02*
X299595000Y-68895000D01*
X298135000Y-71855000D02*
X298135000Y-68895000D01*
X299595000Y-68895000D02*
X299595000Y-71855000D01*
X299595000Y-71855000D02*
X298135000Y-71855000D01*
%TO.C,C32*%
X303395000Y-81135000D02*
X304855000Y-81135000D01*
X303395000Y-84095000D02*
X303395000Y-81135000D01*
X304855000Y-81135000D02*
X304855000Y-84095000D01*
X304855000Y-84095000D02*
X303395000Y-84095000D01*
%TO.C,R5*%
X300035000Y-68735000D02*
X301935000Y-68735000D01*
X300035000Y-72095000D02*
X300035000Y-68735000D01*
X301935000Y-68735000D02*
X301935000Y-72095000D01*
X301935000Y-72095000D02*
X300035000Y-72095000D01*
%TO.C,C20*%
X267925000Y-107470000D02*
X269385000Y-107470000D01*
X267925000Y-110430000D02*
X267925000Y-107470000D01*
X269385000Y-107470000D02*
X269385000Y-110430000D01*
X269385000Y-110430000D02*
X267925000Y-110430000D01*
%TO.C,R12*%
X266170000Y-118910000D02*
X269130000Y-118910000D01*
X266170000Y-120370000D02*
X266170000Y-118910000D01*
X269130000Y-118910000D02*
X269130000Y-120370000D01*
X269130000Y-120370000D02*
X266170000Y-120370000D01*
%TO.C,C28*%
X302845000Y-76515000D02*
X303765000Y-76515000D01*
X302845000Y-78335000D02*
X302845000Y-76515000D01*
X303765000Y-76515000D02*
X303765000Y-78335000D01*
X303765000Y-78335000D02*
X302845000Y-78335000D01*
%TO.C,C5*%
X264605000Y-68585000D02*
X266065000Y-68585000D01*
X264605000Y-71545000D02*
X264605000Y-68585000D01*
X266065000Y-68585000D02*
X266065000Y-71545000D01*
X266065000Y-71545000D02*
X264605000Y-71545000D01*
%TO.C,C23*%
X297665000Y-107780000D02*
X299125000Y-107780000D01*
X297665000Y-110740000D02*
X297665000Y-107780000D01*
X299125000Y-107780000D02*
X299125000Y-110740000D01*
X299125000Y-110740000D02*
X297665000Y-110740000D01*
%TO.C,R35*%
X278590000Y-137330000D02*
X281550000Y-137330000D01*
X278590000Y-138790000D02*
X278590000Y-137330000D01*
X281550000Y-137330000D02*
X281550000Y-138790000D01*
X281550000Y-138790000D02*
X278590000Y-138790000D01*
%TO.C,C37*%
X274870000Y-156350000D02*
X276690000Y-156350000D01*
X274870000Y-157270000D02*
X274870000Y-156350000D01*
X276690000Y-156350000D02*
X276690000Y-157270000D01*
X276690000Y-157270000D02*
X274870000Y-157270000D01*
%TO.C,C18*%
X264135000Y-107470000D02*
X265595000Y-107470000D01*
X264135000Y-110430000D02*
X264135000Y-107470000D01*
X265595000Y-107470000D02*
X265595000Y-110430000D01*
X265595000Y-110430000D02*
X264135000Y-110430000D01*
%TD*%
M02*
