%TF.GenerationSoftware,KiCad,Pcbnew,8.0.6*%
%TF.CreationDate,2025-05-06T15:07:16-04:00*%
%TF.ProjectId,TPC_COLD_HV_PDU,5450435f-434f-44c4-945f-48565f504455,rev?*%
%TF.SameCoordinates,Original*%
%TF.FileFunction,Copper,L6,Inr*%
%TF.FilePolarity,Positive*%
%FSLAX46Y46*%
G04 Gerber Fmt 4.6, Leading zero omitted, Abs format (unit mm)*
G04 Created by KiCad (PCBNEW 8.0.6) date 2025-05-06 15:07:16*
%MOMM*%
%LPD*%
G01*
G04 APERTURE LIST*
%TA.AperFunction,ComponentPad*%
%ADD10C,2.159000*%
%TD*%
%TA.AperFunction,ComponentPad*%
%ADD11C,6.400000*%
%TD*%
%TA.AperFunction,ComponentPad*%
%ADD12C,2.800000*%
%TD*%
%TA.AperFunction,ComponentPad*%
%ADD13C,1.575000*%
%TD*%
%TA.AperFunction,ComponentPad*%
%ADD14C,4.216000*%
%TD*%
%TA.AperFunction,ComponentPad*%
%ADD15C,1.650000*%
%TD*%
%TA.AperFunction,ComponentPad*%
%ADD16C,2.000000*%
%TD*%
%TA.AperFunction,ComponentPad*%
%ADD17R,1.447800X1.447800*%
%TD*%
%TA.AperFunction,ComponentPad*%
%ADD18C,1.447800*%
%TD*%
%TA.AperFunction,ComponentPad*%
%ADD19C,1.635000*%
%TD*%
%TA.AperFunction,ComponentPad*%
%ADD20C,1.560000*%
%TD*%
%TA.AperFunction,ComponentPad*%
%ADD21R,2.000000X2.000000*%
%TD*%
%TA.AperFunction,ViaPad*%
%ADD22C,0.600000*%
%TD*%
%TA.AperFunction,Conductor*%
%ADD23C,0.200000*%
%TD*%
%TA.AperFunction,Conductor*%
%ADD24C,0.500000*%
%TD*%
G04 APERTURE END LIST*
D10*
%TO.N,Net-(M3-Pad3)*%
%TO.C,P2*%
X240000000Y-115620000D03*
%TD*%
%TO.N,Net-(P1-Pad1)*%
%TO.C,P1*%
X240000000Y-132049800D03*
%TD*%
D11*
%TO.N,GNDPWR*%
%TO.C,H3*%
X270000000Y-58000000D03*
%TD*%
%TO.N,GNDPWR*%
%TO.C,H2*%
X90000000Y-105000000D03*
%TD*%
D12*
%TO.N,/V3p3_RTN*%
%TO.C,V_{GND}1*%
X167490000Y-124990000D03*
%TD*%
D11*
%TO.N,GNDPWR*%
%TO.C,H6*%
X170000000Y-58000000D03*
%TD*%
D13*
%TO.N,/TEMP_0_Telem*%
%TO.C,J3*%
X247536000Y-153630000D03*
%TO.N,/TEMP_1_Telem*%
X245246000Y-153630000D03*
%TO.N,unconnected-(J3-Pad3)*%
X242956000Y-153630000D03*
%TO.N,/HV_I_MON_Telem*%
X240666000Y-153630000D03*
%TO.N,/HV_MON_Telem*%
X238376000Y-153630000D03*
%TO.N,/V3p3_RTN*%
X248681000Y-156170000D03*
X246391000Y-156170000D03*
X244101000Y-156170000D03*
X241811000Y-156170000D03*
X239521000Y-156170000D03*
%TO.N,unconnected-(J3-Pad11)*%
X247536000Y-158710000D03*
%TO.N,unconnected-(J3-Pad12)*%
X245246000Y-158710000D03*
%TO.N,unconnected-(J3-Pad13)*%
X242956000Y-158710000D03*
%TO.N,unconnected-(J3-Pad14)*%
X240666000Y-158710000D03*
%TO.N,unconnected-(J3-Pad15)*%
X238376000Y-158710000D03*
D14*
%TO.N,GNDPWR*%
X230715000Y-156170000D03*
X255705000Y-156170000D03*
%TD*%
D12*
%TO.N,/V3p3*%
%TO.C,V_{3.3V}1*%
X181560000Y-125020000D03*
%TD*%
D15*
%TO.N,/HV_SET_INT*%
%TO.C,J5*%
X197400000Y-117660000D03*
%TO.N,/Main_DCDC_Converter/HV_SET*%
X194860000Y-117660000D03*
%TO.N,/HV_SET_EXT*%
X192320000Y-117660000D03*
%TD*%
D11*
%TO.N,GNDPWR*%
%TO.C,H9*%
X270000000Y-105000000D03*
%TD*%
D16*
%TO.N,/Main_DCDC_Converter/V_RTN*%
%TO.C,U1*%
X160560000Y-72745000D03*
%TO.N,/Main_DCDC_Converter/V_IN*%
X160560000Y-77845000D03*
%TO.N,/HV_I_MON*%
X160560000Y-82945000D03*
%TO.N,/HV_EN*%
X160560000Y-88045000D03*
%TO.N,/V3p3_RTN*%
X160560000Y-93145000D03*
%TO.N,N/C*%
X160560000Y-98245000D03*
%TO.N,/5V_REF*%
X160560000Y-103345000D03*
%TO.N,/Main_DCDC_Converter/V_RTN*%
X163060000Y-72745000D03*
%TO.N,/Main_DCDC_Converter/V_IN*%
X163060000Y-77845000D03*
%TO.N,unconnected-(U1-NC-Pad10)*%
X163060000Y-82945000D03*
%TO.N,/Main_DCDC_Converter/V_RTN*%
X163060000Y-88045000D03*
%TO.N,Net-(U1-V_MODE)*%
X163060000Y-93145000D03*
%TO.N,/Main_DCDC_Converter/HV_SET*%
X163060000Y-98245000D03*
%TO.N,/HV_MON*%
X163060000Y-103345000D03*
%TO.N,/HV_RTN*%
X206260000Y-99445000D03*
X208760000Y-99445000D03*
%TD*%
D12*
%TO.N,/V_TELEM_RTN*%
%TO.C,GND1*%
X104730000Y-118410000D03*
%TD*%
D11*
%TO.N,GNDPWR*%
%TO.C,H8*%
X170000000Y-162000000D03*
%TD*%
%TO.N,GNDPWR*%
%TO.C,H4*%
X220000000Y-162000000D03*
%TD*%
D17*
%TO.N,/HV_RTN*%
%TO.C,J6*%
X265779999Y-75009999D03*
D18*
X265779999Y-77010000D03*
X267780000Y-75009999D03*
X267780000Y-77010000D03*
%TD*%
D11*
%TO.N,GNDPWR*%
%TO.C,H7*%
X270000000Y-162000000D03*
%TD*%
D19*
%TO.N,/SYNC_n+*%
%TO.C,J4*%
X199440000Y-156690000D03*
%TO.N,/Enable-*%
X196670000Y-156690000D03*
%TO.N,unconnected-(J4-Pad3)*%
X193900000Y-156690000D03*
%TO.N,/SCLK+*%
X191130000Y-156690000D03*
%TO.N,/Data_In-*%
X188360000Y-156690000D03*
%TO.N,/SYNC_n-*%
X198055000Y-159530000D03*
%TO.N,/Enable+*%
X195285000Y-159530000D03*
%TO.N,/SCLK-*%
X192515000Y-159530000D03*
%TO.N,/Data_In+*%
X189745000Y-159530000D03*
D14*
%TO.N,GNDPWR*%
X181400000Y-158110000D03*
X206400000Y-158110000D03*
%TD*%
D20*
%TO.N,/V_TELEM_RTN*%
%TO.C,J2*%
X94880000Y-128120000D03*
X94880000Y-130890000D03*
%TO.N,unconnected-(J2-Pad3)*%
X94880000Y-133660000D03*
%TO.N,/V_TELEM_RTN*%
X94880000Y-136430000D03*
X94880000Y-139200000D03*
%TO.N,/V_TELEM_IN*%
X92040000Y-129505000D03*
X92040000Y-132275000D03*
X92040000Y-135045000D03*
X92040000Y-137815000D03*
D14*
%TO.N,GNDPWR*%
X93460000Y-121160000D03*
X93460000Y-146160000D03*
%TD*%
D21*
%TO.N,/Telemetry_DCDC_Converter/V_POS*%
%TO.C,U4*%
X138247500Y-136930000D03*
D16*
%TO.N,/Telemetry_DCDC_Converter/V_RTN*%
X138247500Y-131830000D03*
%TO.N,/P5V*%
X158547500Y-144630000D03*
%TO.N,unconnected-(U4-TRIM-Pad4)*%
X158547500Y-134430000D03*
%TO.N,/V3p3_RTN*%
X158547500Y-124230000D03*
%TO.N,unconnected-(U4-REMOTE-Pad6)*%
X138247500Y-124230000D03*
%TD*%
D12*
%TO.N,/HV_EN*%
%TO.C,V_{EN}1*%
X148590000Y-88075000D03*
%TD*%
D11*
%TO.N,GNDPWR*%
%TO.C,H5*%
X90000000Y-162000000D03*
%TD*%
%TO.N,GNDPWR*%
%TO.C,H1*%
X90000000Y-58000000D03*
%TD*%
D20*
%TO.N,/V_SEC_RTN*%
%TO.C,J1*%
X94830000Y-72880000D03*
X94830000Y-75650000D03*
%TO.N,unconnected-(J1-Pad3)*%
X94830000Y-78420000D03*
%TO.N,/V_SEC_RTN*%
X94830000Y-81190000D03*
X94830000Y-83960000D03*
%TO.N,/V_SEC_IN*%
X91990000Y-74265000D03*
X91990000Y-77035000D03*
X91990000Y-79805000D03*
X91990000Y-82575000D03*
D14*
%TO.N,GNDPWR*%
X93410000Y-65920000D03*
X93410000Y-90920000D03*
%TD*%
D12*
%TO.N,/V_SEC_RTN*%
%TO.C,GND2*%
X111060000Y-98240000D03*
%TD*%
%TO.N,/HV_SET_EXT*%
%TO.C,HV_SET_{-EXT}1*%
X181130000Y-117680000D03*
%TD*%
D22*
%TO.N,/V_SEC_RTN*%
X101572000Y-81869000D03*
X273050000Y-95250000D03*
X254000000Y-88900000D03*
X184150000Y-57150000D03*
X266700000Y-95250000D03*
X228600000Y-57150000D03*
X254000000Y-76200000D03*
X133350000Y-88900000D03*
X146050000Y-63500000D03*
X146050000Y-101600000D03*
X120650000Y-101600000D03*
X228600000Y-63500000D03*
X139700000Y-95250000D03*
X120650000Y-82550000D03*
X203200000Y-63500000D03*
X133350000Y-57150000D03*
X234950000Y-57150000D03*
X266700000Y-69850000D03*
X133350000Y-63500000D03*
X260350000Y-63500000D03*
X152400000Y-95250000D03*
X101600000Y-88900000D03*
X137668000Y-74168000D03*
X222250000Y-63500000D03*
X139700000Y-74168000D03*
X273050000Y-63500000D03*
X254000000Y-69850000D03*
X209550000Y-57150000D03*
X131572000Y-74168000D03*
X101600000Y-101600000D03*
X133350000Y-95250000D03*
X114300000Y-88900000D03*
X100556000Y-81869000D03*
X254000000Y-82550000D03*
X132730000Y-99745000D03*
X177800000Y-57150000D03*
X247650000Y-57150000D03*
X241300000Y-57150000D03*
X152400000Y-101600000D03*
X120650000Y-95250000D03*
X215900000Y-63500000D03*
X127000000Y-63500000D03*
X102588000Y-81869000D03*
X139700000Y-101600000D03*
X260350000Y-57150000D03*
X139700000Y-82550000D03*
X152400000Y-63500000D03*
X95250000Y-57150000D03*
X146360000Y-105350000D03*
X120650000Y-63500000D03*
X114300000Y-101600000D03*
X254000000Y-95250000D03*
X260350000Y-76200000D03*
X146050000Y-82550000D03*
X254000000Y-101600000D03*
X139700000Y-63500000D03*
X139700000Y-57150000D03*
X260350000Y-88900000D03*
X152400000Y-88900000D03*
X209550000Y-63500000D03*
X254000000Y-63500000D03*
X100556000Y-82885000D03*
X254000000Y-57150000D03*
X234950000Y-63500000D03*
X120650000Y-57150000D03*
X273050000Y-76200000D03*
X135636000Y-74168000D03*
X215900000Y-57150000D03*
X129540000Y-74168000D03*
X114300000Y-63500000D03*
X266700000Y-88900000D03*
X260350000Y-95250000D03*
X102588000Y-82885000D03*
X273050000Y-88900000D03*
X247650000Y-63500000D03*
X152400000Y-82550000D03*
X146050000Y-95250000D03*
X107950000Y-101600000D03*
X107950000Y-95250000D03*
X260350000Y-69850000D03*
X101572000Y-82885000D03*
X114300000Y-82550000D03*
X158750000Y-63500000D03*
X101600000Y-57150000D03*
X146050000Y-57150000D03*
X241300000Y-63500000D03*
X127000000Y-95250000D03*
X127000000Y-57150000D03*
X158750000Y-57150000D03*
X88900000Y-95250000D03*
X184150000Y-63500000D03*
X260350000Y-82550000D03*
X127000000Y-101600000D03*
X107950000Y-88900000D03*
X260350000Y-101600000D03*
X114300000Y-57150000D03*
X196850000Y-57150000D03*
X266700000Y-63500000D03*
X266700000Y-82550000D03*
X114300000Y-95250000D03*
X133604000Y-74168000D03*
X190500000Y-57150000D03*
X273050000Y-82550000D03*
X196850000Y-63500000D03*
X144390000Y-105350000D03*
X127000000Y-88900000D03*
X95250000Y-95250000D03*
X139700000Y-88900000D03*
X152400000Y-57150000D03*
X190500000Y-63500000D03*
X273050000Y-69850000D03*
X165100000Y-63500000D03*
X177800000Y-63500000D03*
X203200000Y-57150000D03*
X120650000Y-88900000D03*
X165100000Y-57150000D03*
X101600000Y-95250000D03*
X107950000Y-57150000D03*
X222250000Y-57150000D03*
%TO.N,GNDPWR*%
X152908000Y-119070000D03*
X127780000Y-66095000D03*
X127770000Y-82395000D03*
%TO.N,/V3p3*%
X198385000Y-144740000D03*
X216980000Y-114810000D03*
X263560000Y-147630000D03*
X174550000Y-126740000D03*
X189205000Y-146580000D03*
X215935000Y-138383800D03*
%TO.N,/V3p3_RTN*%
X218895000Y-127873800D03*
X227840000Y-117770000D03*
X157660000Y-119080000D03*
X211565000Y-138393800D03*
X180910000Y-130470000D03*
X217605000Y-149123800D03*
X258380000Y-146770000D03*
X217735000Y-112490000D03*
X198775000Y-147000000D03*
X161115000Y-113270000D03*
%TO.N,unconnected-(R27-Pad2)*%
X215090000Y-124100000D03*
%TO.N,/V3p3_RTN*%
X264510000Y-134640000D03*
X263570000Y-142250000D03*
X211155000Y-131183800D03*
X208935000Y-144593800D03*
X193915000Y-136350000D03*
X216980000Y-119770000D03*
X189455000Y-149310000D03*
%TO.N,/V_TELEM_RTN*%
X260350000Y-158750000D03*
X102000000Y-131000000D03*
X127000000Y-165100000D03*
X114300000Y-114300000D03*
X107950000Y-158750000D03*
X190500000Y-114300000D03*
X146050000Y-114300000D03*
X192300000Y-126260000D03*
X127000000Y-158750000D03*
X184150000Y-146050000D03*
X171450000Y-120650000D03*
X273050000Y-158750000D03*
X152400000Y-158750000D03*
X222250000Y-127000000D03*
X177800000Y-146050000D03*
X139700000Y-120650000D03*
X190500000Y-120650000D03*
X101600000Y-114300000D03*
X127000000Y-133350000D03*
X100000000Y-131000000D03*
X273050000Y-133350000D03*
X144400000Y-110600000D03*
X209550000Y-127000000D03*
X120650000Y-133350000D03*
X139700000Y-165100000D03*
X241300000Y-139700000D03*
X273050000Y-139700000D03*
X273050000Y-146050000D03*
X133350000Y-158750000D03*
X234950000Y-139700000D03*
X114300000Y-158750000D03*
X101600000Y-152400000D03*
X254000000Y-120650000D03*
X139700000Y-158750000D03*
X146050000Y-165100000D03*
X158750000Y-114300000D03*
X100000000Y-132000000D03*
X196850000Y-133350000D03*
X234950000Y-120650000D03*
X254000000Y-114300000D03*
X228600000Y-146050000D03*
X101600000Y-127000000D03*
X133350000Y-127000000D03*
X203200000Y-127000000D03*
X234950000Y-133350000D03*
X133350000Y-146050000D03*
X101000000Y-131000000D03*
X266700000Y-127000000D03*
X95250000Y-158750000D03*
X215900000Y-158750000D03*
X102000000Y-132000000D03*
X266700000Y-158750000D03*
X146050000Y-120650000D03*
X101600000Y-120650000D03*
X177800000Y-120650000D03*
X133350000Y-152400000D03*
X266700000Y-152400000D03*
X120650000Y-114300000D03*
X171450000Y-139700000D03*
X266700000Y-165100000D03*
X273050000Y-120650000D03*
X101000000Y-132000000D03*
X171450000Y-146050000D03*
X215900000Y-127000000D03*
X114300000Y-165100000D03*
X241300000Y-146050000D03*
X260350000Y-127000000D03*
X165100000Y-120650000D03*
X215900000Y-152400000D03*
X171450000Y-114300000D03*
X228600000Y-127000000D03*
X165100000Y-158750000D03*
X107950000Y-152400000D03*
X158750000Y-158750000D03*
X215900000Y-165100000D03*
X127000000Y-114300000D03*
X209550000Y-139700000D03*
X228600000Y-139700000D03*
X146360000Y-110600000D03*
X254000000Y-127000000D03*
X165100000Y-139700000D03*
X234950000Y-127000000D03*
X120650000Y-152400000D03*
X107950000Y-120650000D03*
X133350000Y-120650000D03*
X190500000Y-139700000D03*
X177800000Y-139700000D03*
X260350000Y-165100000D03*
X133350000Y-165100000D03*
X133350000Y-139700000D03*
X196850000Y-127000000D03*
X95250000Y-152400000D03*
X165100000Y-165100000D03*
X120650000Y-158750000D03*
X190500000Y-133350000D03*
X152400000Y-165100000D03*
X260350000Y-114300000D03*
X107950000Y-165100000D03*
X184150000Y-114300000D03*
X203200000Y-114300000D03*
X273050000Y-114300000D03*
X203200000Y-133350000D03*
X228600000Y-120650000D03*
X165100000Y-114300000D03*
X273050000Y-152400000D03*
X158750000Y-165100000D03*
X101600000Y-158750000D03*
X203200000Y-146050000D03*
X273050000Y-127000000D03*
X114300000Y-152400000D03*
X101600000Y-165100000D03*
X260350000Y-120650000D03*
X177800000Y-114300000D03*
X222250000Y-139700000D03*
X127000000Y-152400000D03*
X203200000Y-120650000D03*
X140500000Y-114475000D03*
X114300000Y-133350000D03*
X266700000Y-114300000D03*
X209550000Y-133350000D03*
X234950000Y-146050000D03*
X152400000Y-114300000D03*
X184150000Y-139700000D03*
X196850000Y-114300000D03*
X203200000Y-139700000D03*
X165100000Y-146050000D03*
X228600000Y-133350000D03*
X266700000Y-120650000D03*
X95250000Y-165100000D03*
X209550000Y-152400000D03*
X146050000Y-158750000D03*
X120650000Y-165100000D03*
X184150000Y-120650000D03*
X88900000Y-152400000D03*
X107950000Y-114300000D03*
%TO.N,/P5V*%
X129950000Y-117870000D03*
X262450000Y-137070000D03*
X254360000Y-150400000D03*
X130040000Y-144630000D03*
X192365000Y-136340000D03*
%TO.N,/5V_REF*%
X173720000Y-100945000D03*
X204240000Y-122350000D03*
X202320000Y-100950000D03*
%TO.N,/HV_I_MON_Telem*%
X240331193Y-147760234D03*
X220625000Y-147778800D03*
%TO.N,/HV_MON_Telem*%
X224130000Y-129170000D03*
X224130000Y-152390000D03*
%TO.N,/TEMP_0_Telem*%
X247610000Y-109880000D03*
X219470000Y-109500000D03*
%TO.N,/Enable_SIG*%
X201380000Y-152530000D03*
X142910000Y-117340000D03*
X142910000Y-152530000D03*
%TO.N,/HV_MON*%
X185780000Y-128650000D03*
X185710000Y-103320000D03*
X213060000Y-128650000D03*
%TO.N,/HV_I_MON*%
X166640000Y-104760000D03*
X207130000Y-146440000D03*
X207130000Y-104760000D03*
X166630000Y-85230000D03*
%TO.N,/Main_DCDC_Converter/HV_SET*%
X194920000Y-98220000D03*
X194910000Y-112380000D03*
%TD*%
D23*
%TO.N,/Main_DCDC_Converter/V_RTN*%
X165500000Y-73500000D02*
X164745000Y-72745000D01*
X165500000Y-87500000D02*
X165500000Y-73500000D01*
X164745000Y-72745000D02*
X163060000Y-72745000D01*
X163060000Y-88045000D02*
X164955000Y-88045000D01*
X164955000Y-88045000D02*
X165500000Y-87500000D01*
D24*
%TO.N,/P5V*%
X130040000Y-144630000D02*
X130040000Y-117960000D01*
X130040000Y-117960000D02*
X129950000Y-117870000D01*
D23*
%TO.N,/5V_REF*%
X204240000Y-102870000D02*
X202320000Y-100950000D01*
X204240000Y-122350000D02*
X204240000Y-102870000D01*
%TO.N,/HV_I_MON_Telem*%
X240331193Y-147760234D02*
X240666000Y-148095041D01*
X240666000Y-148095041D02*
X240666000Y-153630000D01*
%TO.N,/HV_MON_Telem*%
X224130000Y-129170000D02*
X224130000Y-152390000D01*
%TO.N,/TEMP_0_Telem*%
X247610000Y-109880000D02*
X247536000Y-109954000D01*
X247536000Y-109954000D02*
X247536000Y-153630000D01*
%TO.N,/Enable_SIG*%
X142910000Y-152530000D02*
X142910000Y-117340000D01*
%TO.N,/HV_MON*%
X185780000Y-128650000D02*
X185710000Y-128580000D01*
X185710000Y-128580000D02*
X185710000Y-103320000D01*
%TO.N,/HV_I_MON*%
X207130000Y-146440000D02*
X207130000Y-104760000D01*
X166640000Y-104760000D02*
X166640000Y-85240000D01*
X166640000Y-85240000D02*
X166630000Y-85230000D01*
%TO.N,/Main_DCDC_Converter/HV_SET*%
X194910000Y-112380000D02*
X194910000Y-98230000D01*
X194910000Y-98230000D02*
X194920000Y-98220000D01*
%TD*%
M02*
