%TF.GenerationSoftware,KiCad,Pcbnew,8.0.6*%
%TF.CreationDate,2025-05-06T15:07:16-04:00*%
%TF.ProjectId,TPC_COLD_HV_PDU,5450435f-434f-44c4-945f-48565f504455,rev?*%
%TF.SameCoordinates,Original*%
%TF.FileFunction,Soldermask,Bot*%
%TF.FilePolarity,Negative*%
%FSLAX46Y46*%
G04 Gerber Fmt 4.6, Leading zero omitted, Abs format (unit mm)*
G04 Created by KiCad (PCBNEW 8.0.6) date 2025-05-06 15:07:16*
%MOMM*%
%LPD*%
G01*
G04 APERTURE LIST*
G04 Aperture macros list*
%AMRoundRect*
0 Rectangle with rounded corners*
0 $1 Rounding radius*
0 $2 $3 $4 $5 $6 $7 $8 $9 X,Y pos of 4 corners*
0 Add a 4 corners polygon primitive as box body*
4,1,4,$2,$3,$4,$5,$6,$7,$8,$9,$2,$3,0*
0 Add four circle primitives for the rounded corners*
1,1,$1+$1,$2,$3*
1,1,$1+$1,$4,$5*
1,1,$1+$1,$6,$7*
1,1,$1+$1,$8,$9*
0 Add four rect primitives between the rounded corners*
20,1,$1+$1,$2,$3,$4,$5,0*
20,1,$1+$1,$4,$5,$6,$7,0*
20,1,$1+$1,$6,$7,$8,$9,0*
20,1,$1+$1,$8,$9,$2,$3,0*%
G04 Aperture macros list end*
%ADD10R,0.457200X1.219200*%
%ADD11O,0.457200X1.219200*%
%ADD12R,1.981200X0.558800*%
%ADD13R,0.889000X1.016000*%
%ADD14R,3.200000X1.000000*%
%ADD15C,1.295400*%
%ADD16C,2.159000*%
%ADD17RoundRect,0.250000X0.275000X-0.312500X0.275000X0.312500X-0.275000X0.312500X-0.275000X-0.312500X0*%
%ADD18C,6.400000*%
%ADD19C,2.800000*%
%ADD20C,1.779000*%
%ADD21C,4.420000*%
%ADD22C,1.854000*%
%ADD23C,5.000000*%
%ADD24C,2.000000*%
%ADD25R,1.447800X1.447800*%
%ADD26C,1.447800*%
%ADD27C,1.839000*%
%ADD28C,1.764000*%
%ADD29RoundRect,0.102000X1.000000X-1.000000X1.000000X1.000000X-1.000000X1.000000X-1.000000X-1.000000X0*%
%ADD30C,2.204000*%
%ADD31RoundRect,0.200000X0.275000X-0.200000X0.275000X0.200000X-0.275000X0.200000X-0.275000X-0.200000X0*%
%ADD32RoundRect,0.250000X-0.475000X0.250000X-0.475000X-0.250000X0.475000X-0.250000X0.475000X0.250000X0*%
%ADD33RoundRect,0.225000X0.250000X-0.225000X0.250000X0.225000X-0.250000X0.225000X-0.250000X-0.225000X0*%
%ADD34RoundRect,0.200000X-0.275000X0.200000X-0.275000X-0.200000X0.275000X-0.200000X0.275000X0.200000X0*%
%ADD35RoundRect,0.225000X0.225000X0.250000X-0.225000X0.250000X-0.225000X-0.250000X0.225000X-0.250000X0*%
%ADD36RoundRect,0.225000X-0.250000X0.225000X-0.250000X-0.225000X0.250000X-0.225000X0.250000X0.225000X0*%
%ADD37RoundRect,0.135000X0.185000X-0.135000X0.185000X0.135000X-0.185000X0.135000X-0.185000X-0.135000X0*%
%ADD38RoundRect,0.135000X-0.185000X0.135000X-0.185000X-0.135000X0.185000X-0.135000X0.185000X0.135000X0*%
G04 APERTURE END LIST*
D10*
%TO.C,U9*%
X262619999Y-143570000D03*
D11*
X263570000Y-143570000D03*
X264520001Y-143570000D03*
X264520001Y-146190000D03*
X262619999Y-146190000D03*
%TD*%
D12*
%TO.C,U8*%
X260017600Y-135800000D03*
X260017600Y-137070000D03*
X260017600Y-138340000D03*
X260017600Y-139610000D03*
X255090000Y-139610000D03*
X255090000Y-138340000D03*
X255090000Y-137070000D03*
X255090000Y-135800000D03*
%TD*%
D13*
%TO.C,U3*%
X176861400Y-135152500D03*
X174550000Y-135152500D03*
X172238600Y-135152500D03*
D14*
X174550000Y-128160000D03*
%TD*%
D15*
%TO.C,P2*%
X240760000Y-119290000D03*
X240760000Y-111970000D03*
D16*
X240000000Y-115620000D03*
%TD*%
D15*
%TO.C,P1*%
X240760000Y-135719800D03*
X240760000Y-128399800D03*
D16*
X240000000Y-132049800D03*
%TD*%
D17*
%TO.C,C17*%
X169380000Y-135207500D03*
X169380000Y-133432500D03*
%TD*%
D18*
%TO.C,H3*%
X270000000Y-58000000D03*
%TD*%
%TO.C,H2*%
X90000000Y-105000000D03*
%TD*%
D19*
%TO.C,V_{GND}1*%
X167490000Y-124990000D03*
%TD*%
D18*
%TO.C,H6*%
X170000000Y-58000000D03*
%TD*%
D20*
%TO.C,J3*%
X247536000Y-153630000D03*
X245246000Y-153630000D03*
X242956000Y-153630000D03*
X240666000Y-153630000D03*
X238376000Y-153630000D03*
X248681000Y-156170000D03*
X246391000Y-156170000D03*
X244101000Y-156170000D03*
X241811000Y-156170000D03*
X239521000Y-156170000D03*
X247536000Y-158710000D03*
X245246000Y-158710000D03*
X242956000Y-158710000D03*
X240666000Y-158710000D03*
X238376000Y-158710000D03*
D21*
X230715000Y-156170000D03*
X255705000Y-156170000D03*
%TD*%
D19*
%TO.C,V_{3.3V}1*%
X181560000Y-125020000D03*
%TD*%
D22*
%TO.C,J5*%
X197400000Y-117660000D03*
X194860000Y-117660000D03*
X192320000Y-117660000D03*
%TD*%
D18*
%TO.C,H9*%
X270000000Y-105000000D03*
%TD*%
D23*
%TO.C,U1*%
X238060000Y-102445000D03*
D24*
X160560000Y-72745000D03*
X160560000Y-77845000D03*
X160560000Y-82945000D03*
X160560000Y-88045000D03*
X160560000Y-93145000D03*
X160560000Y-98245000D03*
X160560000Y-103345000D03*
X163060000Y-72745000D03*
X163060000Y-77845000D03*
X163060000Y-82945000D03*
X163060000Y-88045000D03*
X163060000Y-93145000D03*
X163060000Y-98245000D03*
X163060000Y-103345000D03*
X206260000Y-99445000D03*
X208760000Y-99445000D03*
%TD*%
D19*
%TO.C,GND1*%
X104730000Y-118410000D03*
%TD*%
D18*
%TO.C,H8*%
X170000000Y-162000000D03*
%TD*%
%TO.C,H4*%
X220000000Y-162000000D03*
%TD*%
D25*
%TO.C,J6*%
X265779999Y-75009999D03*
D26*
X265779999Y-77010000D03*
X267780000Y-75009999D03*
X267780000Y-77010000D03*
%TD*%
D18*
%TO.C,H7*%
X270000000Y-162000000D03*
%TD*%
D27*
%TO.C,J4*%
X199440000Y-156690000D03*
X196670000Y-156690000D03*
X193900000Y-156690000D03*
X191130000Y-156690000D03*
X188360000Y-156690000D03*
X198055000Y-159530000D03*
X195285000Y-159530000D03*
X192515000Y-159530000D03*
X189745000Y-159530000D03*
D21*
X181400000Y-158110000D03*
X206400000Y-158110000D03*
%TD*%
D28*
%TO.C,J2*%
X94880000Y-128120000D03*
X94880000Y-130890000D03*
X94880000Y-133660000D03*
X94880000Y-136430000D03*
X94880000Y-139200000D03*
X92040000Y-129505000D03*
X92040000Y-132275000D03*
X92040000Y-135045000D03*
X92040000Y-137815000D03*
D21*
X93460000Y-121160000D03*
X93460000Y-146160000D03*
%TD*%
D29*
%TO.C,U4*%
X138247500Y-136930000D03*
D30*
X138247500Y-131830000D03*
X158547500Y-144630000D03*
X158547500Y-134430000D03*
X158547500Y-124230000D03*
X138247500Y-124230000D03*
%TD*%
D19*
%TO.C,V_{EN}1*%
X148590000Y-88075000D03*
%TD*%
D18*
%TO.C,H5*%
X90000000Y-162000000D03*
%TD*%
%TO.C,H1*%
X90000000Y-58000000D03*
%TD*%
D28*
%TO.C,J1*%
X94830000Y-72880000D03*
X94830000Y-75650000D03*
X94830000Y-78420000D03*
X94830000Y-81190000D03*
X94830000Y-83960000D03*
X91990000Y-74265000D03*
X91990000Y-77035000D03*
X91990000Y-79805000D03*
X91990000Y-82575000D03*
D21*
X93410000Y-65920000D03*
X93410000Y-90920000D03*
%TD*%
D19*
%TO.C,GND2*%
X111060000Y-98240000D03*
%TD*%
%TO.C,HV_SET_{-EXT}1*%
X181130000Y-117680000D03*
%TD*%
D31*
%TO.C,R23*%
X264510000Y-137385000D03*
X264510000Y-135735000D03*
%TD*%
D32*
%TO.C,C36*%
X187655000Y-146960000D03*
X187655000Y-148860000D03*
%TD*%
D33*
%TO.C,C33*%
X257130000Y-146770000D03*
X257130000Y-145220000D03*
%TD*%
%TO.C,C18*%
X161650000Y-135155000D03*
X161650000Y-133605000D03*
%TD*%
%TO.C,C14*%
X134160000Y-134985000D03*
X134160000Y-133435000D03*
%TD*%
D34*
%TO.C,R38*%
X192300000Y-123265000D03*
X192300000Y-124915000D03*
%TD*%
D35*
%TO.C,C25*%
X214475000Y-138400000D03*
X212925000Y-138400000D03*
%TD*%
D33*
%TO.C,C16*%
X181810000Y-133535000D03*
X181810000Y-131985000D03*
%TD*%
%TO.C,C21*%
X165470000Y-135165000D03*
X165470000Y-133615000D03*
%TD*%
D32*
%TO.C,C35*%
X200115000Y-145080000D03*
X200115000Y-146980000D03*
%TD*%
D34*
%TO.C,R32*%
X255330000Y-145210000D03*
X255330000Y-146860000D03*
%TD*%
%TO.C,R30*%
X259070000Y-143570000D03*
X259070000Y-145220000D03*
%TD*%
D36*
%TO.C,C26*%
X216980000Y-116555000D03*
X216980000Y-118105000D03*
%TD*%
D31*
%TO.C,R12*%
X180020000Y-133565000D03*
X180020000Y-131915000D03*
%TD*%
D33*
%TO.C,C20*%
X163550000Y-135155000D03*
X163550000Y-133605000D03*
%TD*%
D37*
%TO.C,C29*%
X267550000Y-145900000D03*
X267550000Y-144880000D03*
%TD*%
D33*
%TO.C,C15*%
X135940000Y-134995000D03*
X135940000Y-133445000D03*
%TD*%
%TO.C,C12*%
X132420000Y-134975000D03*
X132420000Y-133425000D03*
%TD*%
D38*
%TO.C,R24*%
X266290000Y-144880000D03*
X266290000Y-145900000D03*
%TD*%
M02*
