%TF.GenerationSoftware,KiCad,Pcbnew,8.0.6*%
%TF.CreationDate,2025-03-03T14:35:41-05:00*%
%TF.ProjectId,SiPM_Bias_BRD_Telem_PWR,5369504d-5f42-4696-9173-5f4252445f54,rev?*%
%TF.SameCoordinates,Original*%
%TF.FileFunction,Drillmap*%
%TF.FilePolarity,Positive*%
%FSLAX45Y45*%
G04 Gerber Fmt 4.5, Leading zero omitted, Abs format (unit mm)*
G04 Created by KiCad (PCBNEW 8.0.6) date 2025-03-03 14:35:41*
%MOMM*%
%LPD*%
G01*
G04 APERTURE LIST*
%ADD10C,0.050000*%
%ADD11C,0.200000*%
G04 APERTURE END LIST*
D10*
X35581790Y-19558000D02*
X35581790Y-13716000D01*
X23114000Y-25654000D02*
G75*
G02*
X22606000Y-25146000I0J508000D01*
G01*
X35582368Y-25146000D02*
G75*
G02*
X35204400Y-25654000I-530368J0D01*
G01*
X22606000Y-19558000D02*
X22606000Y-13716000D01*
X34798000Y-25654000D02*
X35052000Y-25654000D01*
X34798000Y-25654000D02*
X23114000Y-25654000D01*
X35204400Y-25654000D02*
X35052000Y-25654000D01*
X23114000Y-13208000D02*
X35073790Y-13208000D01*
X35073790Y-13208000D02*
G75*
G02*
X35581790Y-13716000I0J-508000D01*
G01*
X22606000Y-13716000D02*
G75*
G02*
X23114000Y-13208000I508000J0D01*
G01*
X22606000Y-25146000D02*
X22606000Y-19558000D01*
X35581790Y-25146000D02*
X35581790Y-19558000D01*
D11*
X22864277Y-25967984D02*
X22864277Y-25767984D01*
X22864277Y-25767984D02*
X22911896Y-25767984D01*
X22911896Y-25767984D02*
X22940467Y-25777508D01*
X22940467Y-25777508D02*
X22959515Y-25796555D01*
X22959515Y-25796555D02*
X22969039Y-25815603D01*
X22969039Y-25815603D02*
X22978562Y-25853698D01*
X22978562Y-25853698D02*
X22978562Y-25882269D01*
X22978562Y-25882269D02*
X22969039Y-25920365D01*
X22969039Y-25920365D02*
X22959515Y-25939412D01*
X22959515Y-25939412D02*
X22940467Y-25958460D01*
X22940467Y-25958460D02*
X22911896Y-25967984D01*
X22911896Y-25967984D02*
X22864277Y-25967984D01*
X23064277Y-25967984D02*
X23064277Y-25834650D01*
X23064277Y-25872746D02*
X23073801Y-25853698D01*
X23073801Y-25853698D02*
X23083324Y-25844174D01*
X23083324Y-25844174D02*
X23102372Y-25834650D01*
X23102372Y-25834650D02*
X23121420Y-25834650D01*
X23188086Y-25967984D02*
X23188086Y-25834650D01*
X23188086Y-25767984D02*
X23178562Y-25777508D01*
X23178562Y-25777508D02*
X23188086Y-25787031D01*
X23188086Y-25787031D02*
X23197610Y-25777508D01*
X23197610Y-25777508D02*
X23188086Y-25767984D01*
X23188086Y-25767984D02*
X23188086Y-25787031D01*
X23311896Y-25967984D02*
X23292848Y-25958460D01*
X23292848Y-25958460D02*
X23283324Y-25939412D01*
X23283324Y-25939412D02*
X23283324Y-25767984D01*
X23416658Y-25967984D02*
X23397610Y-25958460D01*
X23397610Y-25958460D02*
X23388086Y-25939412D01*
X23388086Y-25939412D02*
X23388086Y-25767984D01*
X23645229Y-25967984D02*
X23645229Y-25767984D01*
X23645229Y-25767984D02*
X23711896Y-25910841D01*
X23711896Y-25910841D02*
X23778562Y-25767984D01*
X23778562Y-25767984D02*
X23778562Y-25967984D01*
X23959515Y-25967984D02*
X23959515Y-25863222D01*
X23959515Y-25863222D02*
X23949991Y-25844174D01*
X23949991Y-25844174D02*
X23930943Y-25834650D01*
X23930943Y-25834650D02*
X23892848Y-25834650D01*
X23892848Y-25834650D02*
X23873801Y-25844174D01*
X23959515Y-25958460D02*
X23940467Y-25967984D01*
X23940467Y-25967984D02*
X23892848Y-25967984D01*
X23892848Y-25967984D02*
X23873801Y-25958460D01*
X23873801Y-25958460D02*
X23864277Y-25939412D01*
X23864277Y-25939412D02*
X23864277Y-25920365D01*
X23864277Y-25920365D02*
X23873801Y-25901317D01*
X23873801Y-25901317D02*
X23892848Y-25891793D01*
X23892848Y-25891793D02*
X23940467Y-25891793D01*
X23940467Y-25891793D02*
X23959515Y-25882269D01*
X24054753Y-25834650D02*
X24054753Y-26034650D01*
X24054753Y-25844174D02*
X24073801Y-25834650D01*
X24073801Y-25834650D02*
X24111896Y-25834650D01*
X24111896Y-25834650D02*
X24130943Y-25844174D01*
X24130943Y-25844174D02*
X24140467Y-25853698D01*
X24140467Y-25853698D02*
X24149991Y-25872746D01*
X24149991Y-25872746D02*
X24149991Y-25929888D01*
X24149991Y-25929888D02*
X24140467Y-25948936D01*
X24140467Y-25948936D02*
X24130943Y-25958460D01*
X24130943Y-25958460D02*
X24111896Y-25967984D01*
X24111896Y-25967984D02*
X24073801Y-25967984D01*
X24073801Y-25967984D02*
X24054753Y-25958460D01*
X24235705Y-25948936D02*
X24245229Y-25958460D01*
X24245229Y-25958460D02*
X24235705Y-25967984D01*
X24235705Y-25967984D02*
X24226182Y-25958460D01*
X24226182Y-25958460D02*
X24235705Y-25948936D01*
X24235705Y-25948936D02*
X24235705Y-25967984D01*
X24235705Y-25844174D02*
X24245229Y-25853698D01*
X24245229Y-25853698D02*
X24235705Y-25863222D01*
X24235705Y-25863222D02*
X24226182Y-25853698D01*
X24226182Y-25853698D02*
X24235705Y-25844174D01*
X24235705Y-25844174D02*
X24235705Y-25863222D01*
M02*
