%TF.GenerationSoftware,KiCad,Pcbnew,8.0.6*%
%TF.CreationDate,2025-03-03T14:35:36-05:00*%
%TF.ProjectId,SiPM_Bias_BRD_Telem_PWR,5369504d-5f42-4696-9173-5f4252445f54,rev?*%
%TF.SameCoordinates,Original*%
%TF.FileFunction,Soldermask,Bot*%
%TF.FilePolarity,Negative*%
%FSLAX46Y46*%
G04 Gerber Fmt 4.6, Leading zero omitted, Abs format (unit mm)*
G04 Created by KiCad (PCBNEW 8.0.6) date 2025-03-03 14:35:36*
%MOMM*%
%LPD*%
G01*
G04 APERTURE LIST*
G04 Aperture macros list*
%AMRoundRect*
0 Rectangle with rounded corners*
0 $1 Rounding radius*
0 $2 $3 $4 $5 $6 $7 $8 $9 X,Y pos of 4 corners*
0 Add a 4 corners polygon primitive as box body*
4,1,4,$2,$3,$4,$5,$6,$7,$8,$9,$2,$3,0*
0 Add four circle primitives for the rounded corners*
1,1,$1+$1,$2,$3*
1,1,$1+$1,$4,$5*
1,1,$1+$1,$6,$7*
1,1,$1+$1,$8,$9*
0 Add four rect primitives between the rounded corners*
20,1,$1+$1,$2,$3,$4,$5,0*
20,1,$1+$1,$4,$5,$6,$7,0*
20,1,$1+$1,$6,$7,$8,$9,0*
20,1,$1+$1,$8,$9,$2,$3,0*%
G04 Aperture macros list end*
%ADD10C,6.400000*%
%ADD11RoundRect,0.102000X0.900000X-0.900000X0.900000X0.900000X-0.900000X0.900000X-0.900000X-0.900000X0*%
%ADD12C,2.004000*%
%ADD13RoundRect,0.102000X-0.900000X0.900000X-0.900000X-0.900000X0.900000X-0.900000X0.900000X0.900000X0*%
%ADD14C,2.800000*%
%ADD15C,1.764000*%
%ADD16C,4.420000*%
%ADD17RoundRect,0.102000X1.000000X-1.000000X1.000000X1.000000X-1.000000X1.000000X-1.000000X-1.000000X0*%
%ADD18C,2.204000*%
%ADD19RoundRect,0.225000X0.250000X-0.225000X0.250000X0.225000X-0.250000X0.225000X-0.250000X-0.225000X0*%
%ADD20RoundRect,0.099250X-0.297750X0.632750X-0.297750X-0.632750X0.297750X-0.632750X0.297750X0.632750X0*%
%ADD21RoundRect,0.250000X0.450000X-0.262500X0.450000X0.262500X-0.450000X0.262500X-0.450000X-0.262500X0*%
G04 APERTURE END LIST*
D10*
%TO.C,H6*%
X235000000Y-140000000D03*
%TD*%
D11*
%TO.C,J5*%
X294000000Y-242400000D03*
D12*
X294000000Y-238590000D03*
X294000000Y-234780000D03*
X294000000Y-230970000D03*
X294000000Y-227160000D03*
X294000000Y-223350000D03*
X294000000Y-219540000D03*
%TD*%
D10*
%TO.C,H5*%
X347000000Y-195000000D03*
%TD*%
D11*
%TO.C,J6*%
X314000000Y-242400000D03*
D12*
X314000000Y-238590000D03*
X314000000Y-234780000D03*
X314000000Y-230970000D03*
X314000000Y-227160000D03*
X314000000Y-223350000D03*
X314000000Y-219540000D03*
%TD*%
D13*
%TO.C,J2*%
X293000000Y-142600000D03*
D12*
X293000000Y-146410000D03*
X293000000Y-150220000D03*
X293000000Y-154030000D03*
X293000000Y-157840000D03*
X293000000Y-161650000D03*
X293000000Y-165460000D03*
%TD*%
D14*
%TO.C,P5V_{RTN}*%
X315150000Y-175140000D03*
%TD*%
D15*
%TO.C,J1*%
X236980000Y-189900000D03*
X236980000Y-192670000D03*
X236980000Y-195440000D03*
X236980000Y-198210000D03*
X236980000Y-200980000D03*
X234140000Y-191285000D03*
X234140000Y-194055000D03*
X234140000Y-196825000D03*
X234140000Y-199595000D03*
D16*
X235560000Y-182940000D03*
X235560000Y-207940000D03*
%TD*%
D10*
%TO.C,H2*%
X347000000Y-245000000D03*
%TD*%
D11*
%TO.C,J7*%
X334000000Y-242400000D03*
D12*
X334000000Y-238590000D03*
X334000000Y-234780000D03*
X334000000Y-230970000D03*
X334000000Y-227160000D03*
X334000000Y-223350000D03*
X334000000Y-219540000D03*
%TD*%
D10*
%TO.C,H1*%
X235000000Y-245000000D03*
%TD*%
D13*
%TO.C,J4*%
X333000000Y-142600000D03*
D12*
X333000000Y-146410000D03*
X333000000Y-150220000D03*
X333000000Y-154030000D03*
X333000000Y-157840000D03*
X333000000Y-161650000D03*
X333000000Y-165460000D03*
%TD*%
D14*
%TO.C,P12V_{RTN}*%
X250930000Y-181990000D03*
%TD*%
%TO.C,P5V*%
X308860000Y-175160000D03*
%TD*%
D17*
%TO.C,U1*%
X281837721Y-196043157D03*
D18*
X281837721Y-190943157D03*
X302137721Y-203743157D03*
X302137721Y-193543157D03*
X302137721Y-183343157D03*
X281837721Y-183343157D03*
%TD*%
D13*
%TO.C,J3*%
X313000000Y-142600000D03*
D12*
X313000000Y-146410000D03*
X313000000Y-150220000D03*
X313000000Y-154030000D03*
X313000000Y-157840000D03*
X313000000Y-161650000D03*
X313000000Y-165460000D03*
%TD*%
D14*
%TO.C,Chassis*%
X270030000Y-245110000D03*
%TD*%
D10*
%TO.C,H3*%
X347000000Y-140000000D03*
%TD*%
D19*
%TO.C,C4*%
X277370221Y-194018157D03*
X277370221Y-192468157D03*
%TD*%
%TO.C,C3*%
X275430221Y-194008157D03*
X275430221Y-192458157D03*
%TD*%
D20*
%TO.C,D1*%
X314490000Y-187322500D03*
X316390000Y-187322500D03*
X315440000Y-189282500D03*
%TD*%
D19*
%TO.C,C9*%
X310100221Y-194268157D03*
X310100221Y-192718157D03*
%TD*%
D21*
%TO.C,R5*%
X315400000Y-194365000D03*
X315400000Y-192540000D03*
%TD*%
D19*
%TO.C,C6*%
X306060221Y-194298157D03*
X306060221Y-192748157D03*
%TD*%
%TO.C,C5*%
X279300221Y-194018157D03*
X279300221Y-192468157D03*
%TD*%
D21*
%TO.C,R1*%
X312490221Y-194385657D03*
X312490221Y-192560657D03*
%TD*%
D19*
%TO.C,C8*%
X308030221Y-194268157D03*
X308030221Y-192718157D03*
%TD*%
G36*
X300425039Y-181883685D02*
G01*
X300470794Y-181936489D01*
X300482000Y-181988000D01*
X300482000Y-184912000D01*
X304168000Y-184912000D01*
X304235039Y-184931685D01*
X304280794Y-184984489D01*
X304292000Y-185036000D01*
X304292000Y-191138000D01*
X304272315Y-191205039D01*
X304219511Y-191250794D01*
X304168000Y-191262000D01*
X300482000Y-191262000D01*
X300482000Y-195580000D01*
X304168000Y-195580000D01*
X304235039Y-195599685D01*
X304280794Y-195652489D01*
X304292000Y-195704000D01*
X304292000Y-202060000D01*
X304272315Y-202127039D01*
X304219511Y-202172794D01*
X304168000Y-202184000D01*
X300482000Y-202184000D01*
X300482000Y-205870000D01*
X300462315Y-205937039D01*
X300409511Y-205982794D01*
X300358000Y-205994000D01*
X280032000Y-205994000D01*
X279964961Y-205974315D01*
X279919206Y-205921511D01*
X279908000Y-205870000D01*
X279908000Y-197990000D01*
X279927685Y-197922961D01*
X279980489Y-197877206D01*
X280032000Y-197866000D01*
X283972000Y-197866000D01*
X283972000Y-188976000D01*
X280032000Y-188976000D01*
X279964961Y-188956315D01*
X279919206Y-188903511D01*
X279908000Y-188852000D01*
X279908000Y-185036000D01*
X279927685Y-184968961D01*
X279980489Y-184923206D01*
X280032000Y-184912000D01*
X283972000Y-184912000D01*
X283972000Y-181988000D01*
X283991685Y-181920961D01*
X284044489Y-181875206D01*
X284096000Y-181864000D01*
X300358000Y-181864000D01*
X300425039Y-181883685D01*
G37*
M02*
