%TF.GenerationSoftware,KiCad,Pcbnew,9.0.3*%
%TF.CreationDate,2025-09-16T13:04:12-04:00*%
%TF.ProjectId,CAEN_NEVIS_DAQ_12V,4341454e-5f4e-4455-9649-535f4441515f,rev?*%
%TF.SameCoordinates,Original*%
%TF.FileFunction,Legend,Bot*%
%TF.FilePolarity,Positive*%
%FSLAX46Y46*%
G04 Gerber Fmt 4.6, Leading zero omitted, Abs format (unit mm)*
G04 Created by KiCad (PCBNEW 9.0.3) date 2025-09-16 13:04:12*
%MOMM*%
%LPD*%
G01*
G04 APERTURE LIST*
%ADD10C,0.150000*%
%ADD11C,0.152400*%
%ADD12C,0.100000*%
%ADD13C,0.120000*%
G04 APERTURE END LIST*
D10*
X186295180Y-95408094D02*
X187295180Y-95408094D01*
X187295180Y-95408094D02*
X187295180Y-95169999D01*
X187295180Y-95169999D02*
X187247561Y-95027142D01*
X187247561Y-95027142D02*
X187152323Y-94931904D01*
X187152323Y-94931904D02*
X187057085Y-94884285D01*
X187057085Y-94884285D02*
X186866609Y-94836666D01*
X186866609Y-94836666D02*
X186723752Y-94836666D01*
X186723752Y-94836666D02*
X186533276Y-94884285D01*
X186533276Y-94884285D02*
X186438038Y-94931904D01*
X186438038Y-94931904D02*
X186342800Y-95027142D01*
X186342800Y-95027142D02*
X186295180Y-95169999D01*
X186295180Y-95169999D02*
X186295180Y-95408094D01*
X186295180Y-93884285D02*
X186295180Y-94455713D01*
X186295180Y-94169999D02*
X187295180Y-94169999D01*
X187295180Y-94169999D02*
X187152323Y-94265237D01*
X187152323Y-94265237D02*
X187057085Y-94360475D01*
X187057085Y-94360475D02*
X187009466Y-94455713D01*
X189054819Y-97220000D02*
X189292914Y-97220000D01*
X189197676Y-96981905D02*
X189292914Y-97220000D01*
X189292914Y-97220000D02*
X189197676Y-97458095D01*
X189483390Y-97077143D02*
X189292914Y-97220000D01*
X189292914Y-97220000D02*
X189483390Y-97362857D01*
X150867735Y-94774999D02*
X150903450Y-94739285D01*
X150903450Y-94739285D02*
X150939164Y-94632142D01*
X150939164Y-94632142D02*
X150939164Y-94560714D01*
X150939164Y-94560714D02*
X150903450Y-94453571D01*
X150903450Y-94453571D02*
X150832021Y-94382142D01*
X150832021Y-94382142D02*
X150760592Y-94346428D01*
X150760592Y-94346428D02*
X150617735Y-94310714D01*
X150617735Y-94310714D02*
X150510592Y-94310714D01*
X150510592Y-94310714D02*
X150367735Y-94346428D01*
X150367735Y-94346428D02*
X150296307Y-94382142D01*
X150296307Y-94382142D02*
X150224878Y-94453571D01*
X150224878Y-94453571D02*
X150189164Y-94560714D01*
X150189164Y-94560714D02*
X150189164Y-94632142D01*
X150189164Y-94632142D02*
X150224878Y-94739285D01*
X150224878Y-94739285D02*
X150260592Y-94774999D01*
X150260592Y-95060714D02*
X150224878Y-95096428D01*
X150224878Y-95096428D02*
X150189164Y-95167857D01*
X150189164Y-95167857D02*
X150189164Y-95346428D01*
X150189164Y-95346428D02*
X150224878Y-95417857D01*
X150224878Y-95417857D02*
X150260592Y-95453571D01*
X150260592Y-95453571D02*
X150332021Y-95489285D01*
X150332021Y-95489285D02*
X150403450Y-95489285D01*
X150403450Y-95489285D02*
X150510592Y-95453571D01*
X150510592Y-95453571D02*
X150939164Y-95024999D01*
X150939164Y-95024999D02*
X150939164Y-95489285D01*
X209262143Y-86489164D02*
X209512143Y-86132021D01*
X209690714Y-86489164D02*
X209690714Y-85739164D01*
X209690714Y-85739164D02*
X209405000Y-85739164D01*
X209405000Y-85739164D02*
X209333571Y-85774878D01*
X209333571Y-85774878D02*
X209297857Y-85810592D01*
X209297857Y-85810592D02*
X209262143Y-85882021D01*
X209262143Y-85882021D02*
X209262143Y-85989164D01*
X209262143Y-85989164D02*
X209297857Y-86060592D01*
X209297857Y-86060592D02*
X209333571Y-86096307D01*
X209333571Y-86096307D02*
X209405000Y-86132021D01*
X209405000Y-86132021D02*
X209690714Y-86132021D01*
X208976428Y-85810592D02*
X208940714Y-85774878D01*
X208940714Y-85774878D02*
X208869286Y-85739164D01*
X208869286Y-85739164D02*
X208690714Y-85739164D01*
X208690714Y-85739164D02*
X208619286Y-85774878D01*
X208619286Y-85774878D02*
X208583571Y-85810592D01*
X208583571Y-85810592D02*
X208547857Y-85882021D01*
X208547857Y-85882021D02*
X208547857Y-85953450D01*
X208547857Y-85953450D02*
X208583571Y-86060592D01*
X208583571Y-86060592D02*
X209012143Y-86489164D01*
X209012143Y-86489164D02*
X208547857Y-86489164D01*
X208190714Y-86489164D02*
X208047857Y-86489164D01*
X208047857Y-86489164D02*
X207976428Y-86453450D01*
X207976428Y-86453450D02*
X207940714Y-86417735D01*
X207940714Y-86417735D02*
X207869285Y-86310592D01*
X207869285Y-86310592D02*
X207833571Y-86167735D01*
X207833571Y-86167735D02*
X207833571Y-85882021D01*
X207833571Y-85882021D02*
X207869285Y-85810592D01*
X207869285Y-85810592D02*
X207905000Y-85774878D01*
X207905000Y-85774878D02*
X207976428Y-85739164D01*
X207976428Y-85739164D02*
X208119285Y-85739164D01*
X208119285Y-85739164D02*
X208190714Y-85774878D01*
X208190714Y-85774878D02*
X208226428Y-85810592D01*
X208226428Y-85810592D02*
X208262142Y-85882021D01*
X208262142Y-85882021D02*
X208262142Y-86060592D01*
X208262142Y-86060592D02*
X208226428Y-86132021D01*
X208226428Y-86132021D02*
X208190714Y-86167735D01*
X208190714Y-86167735D02*
X208119285Y-86203450D01*
X208119285Y-86203450D02*
X207976428Y-86203450D01*
X207976428Y-86203450D02*
X207905000Y-86167735D01*
X207905000Y-86167735D02*
X207869285Y-86132021D01*
X207869285Y-86132021D02*
X207833571Y-86060592D01*
X154769164Y-80544999D02*
X154412021Y-80294999D01*
X154769164Y-80116428D02*
X154019164Y-80116428D01*
X154019164Y-80116428D02*
X154019164Y-80402142D01*
X154019164Y-80402142D02*
X154054878Y-80473571D01*
X154054878Y-80473571D02*
X154090592Y-80509285D01*
X154090592Y-80509285D02*
X154162021Y-80544999D01*
X154162021Y-80544999D02*
X154269164Y-80544999D01*
X154269164Y-80544999D02*
X154340592Y-80509285D01*
X154340592Y-80509285D02*
X154376307Y-80473571D01*
X154376307Y-80473571D02*
X154412021Y-80402142D01*
X154412021Y-80402142D02*
X154412021Y-80116428D01*
X154019164Y-80794999D02*
X154019164Y-81259285D01*
X154019164Y-81259285D02*
X154304878Y-81009285D01*
X154304878Y-81009285D02*
X154304878Y-81116428D01*
X154304878Y-81116428D02*
X154340592Y-81187857D01*
X154340592Y-81187857D02*
X154376307Y-81223571D01*
X154376307Y-81223571D02*
X154447735Y-81259285D01*
X154447735Y-81259285D02*
X154626307Y-81259285D01*
X154626307Y-81259285D02*
X154697735Y-81223571D01*
X154697735Y-81223571D02*
X154733450Y-81187857D01*
X154733450Y-81187857D02*
X154769164Y-81116428D01*
X154769164Y-81116428D02*
X154769164Y-80902142D01*
X154769164Y-80902142D02*
X154733450Y-80830714D01*
X154733450Y-80830714D02*
X154697735Y-80794999D01*
X180867735Y-94904999D02*
X180903450Y-94869285D01*
X180903450Y-94869285D02*
X180939164Y-94762142D01*
X180939164Y-94762142D02*
X180939164Y-94690714D01*
X180939164Y-94690714D02*
X180903450Y-94583571D01*
X180903450Y-94583571D02*
X180832021Y-94512142D01*
X180832021Y-94512142D02*
X180760592Y-94476428D01*
X180760592Y-94476428D02*
X180617735Y-94440714D01*
X180617735Y-94440714D02*
X180510592Y-94440714D01*
X180510592Y-94440714D02*
X180367735Y-94476428D01*
X180367735Y-94476428D02*
X180296307Y-94512142D01*
X180296307Y-94512142D02*
X180224878Y-94583571D01*
X180224878Y-94583571D02*
X180189164Y-94690714D01*
X180189164Y-94690714D02*
X180189164Y-94762142D01*
X180189164Y-94762142D02*
X180224878Y-94869285D01*
X180224878Y-94869285D02*
X180260592Y-94904999D01*
X180189164Y-95583571D02*
X180189164Y-95226428D01*
X180189164Y-95226428D02*
X180546307Y-95190714D01*
X180546307Y-95190714D02*
X180510592Y-95226428D01*
X180510592Y-95226428D02*
X180474878Y-95297857D01*
X180474878Y-95297857D02*
X180474878Y-95476428D01*
X180474878Y-95476428D02*
X180510592Y-95547857D01*
X180510592Y-95547857D02*
X180546307Y-95583571D01*
X180546307Y-95583571D02*
X180617735Y-95619285D01*
X180617735Y-95619285D02*
X180796307Y-95619285D01*
X180796307Y-95619285D02*
X180867735Y-95583571D01*
X180867735Y-95583571D02*
X180903450Y-95547857D01*
X180903450Y-95547857D02*
X180939164Y-95476428D01*
X180939164Y-95476428D02*
X180939164Y-95297857D01*
X180939164Y-95297857D02*
X180903450Y-95226428D01*
X180903450Y-95226428D02*
X180867735Y-95190714D01*
X183494819Y-79078095D02*
X184304342Y-79078095D01*
X184304342Y-79078095D02*
X184399580Y-79125714D01*
X184399580Y-79125714D02*
X184447200Y-79173333D01*
X184447200Y-79173333D02*
X184494819Y-79268571D01*
X184494819Y-79268571D02*
X184494819Y-79459047D01*
X184494819Y-79459047D02*
X184447200Y-79554285D01*
X184447200Y-79554285D02*
X184399580Y-79601904D01*
X184399580Y-79601904D02*
X184304342Y-79649523D01*
X184304342Y-79649523D02*
X183494819Y-79649523D01*
X183494819Y-80030476D02*
X183494819Y-80697142D01*
X183494819Y-80697142D02*
X184494819Y-80268571D01*
X179888019Y-77122200D02*
X180126114Y-77122200D01*
X180030876Y-76884105D02*
X180126114Y-77122200D01*
X180126114Y-77122200D02*
X180030876Y-77360295D01*
X180316590Y-76979343D02*
X180126114Y-77122200D01*
X180126114Y-77122200D02*
X180316590Y-77265057D01*
X190769164Y-101037856D02*
X190412021Y-100787856D01*
X190769164Y-100609285D02*
X190019164Y-100609285D01*
X190019164Y-100609285D02*
X190019164Y-100894999D01*
X190019164Y-100894999D02*
X190054878Y-100966428D01*
X190054878Y-100966428D02*
X190090592Y-101002142D01*
X190090592Y-101002142D02*
X190162021Y-101037856D01*
X190162021Y-101037856D02*
X190269164Y-101037856D01*
X190269164Y-101037856D02*
X190340592Y-101002142D01*
X190340592Y-101002142D02*
X190376307Y-100966428D01*
X190376307Y-100966428D02*
X190412021Y-100894999D01*
X190412021Y-100894999D02*
X190412021Y-100609285D01*
X190769164Y-101752142D02*
X190769164Y-101323571D01*
X190769164Y-101537856D02*
X190019164Y-101537856D01*
X190019164Y-101537856D02*
X190126307Y-101466428D01*
X190126307Y-101466428D02*
X190197735Y-101394999D01*
X190197735Y-101394999D02*
X190233450Y-101323571D01*
X190769164Y-102466428D02*
X190769164Y-102037857D01*
X190769164Y-102252142D02*
X190019164Y-102252142D01*
X190019164Y-102252142D02*
X190126307Y-102180714D01*
X190126307Y-102180714D02*
X190197735Y-102109285D01*
X190197735Y-102109285D02*
X190233450Y-102037857D01*
X204979164Y-72227856D02*
X204622021Y-71977856D01*
X204979164Y-71799285D02*
X204229164Y-71799285D01*
X204229164Y-71799285D02*
X204229164Y-72084999D01*
X204229164Y-72084999D02*
X204264878Y-72156428D01*
X204264878Y-72156428D02*
X204300592Y-72192142D01*
X204300592Y-72192142D02*
X204372021Y-72227856D01*
X204372021Y-72227856D02*
X204479164Y-72227856D01*
X204479164Y-72227856D02*
X204550592Y-72192142D01*
X204550592Y-72192142D02*
X204586307Y-72156428D01*
X204586307Y-72156428D02*
X204622021Y-72084999D01*
X204622021Y-72084999D02*
X204622021Y-71799285D01*
X204300592Y-72513571D02*
X204264878Y-72549285D01*
X204264878Y-72549285D02*
X204229164Y-72620714D01*
X204229164Y-72620714D02*
X204229164Y-72799285D01*
X204229164Y-72799285D02*
X204264878Y-72870714D01*
X204264878Y-72870714D02*
X204300592Y-72906428D01*
X204300592Y-72906428D02*
X204372021Y-72942142D01*
X204372021Y-72942142D02*
X204443450Y-72942142D01*
X204443450Y-72942142D02*
X204550592Y-72906428D01*
X204550592Y-72906428D02*
X204979164Y-72477856D01*
X204979164Y-72477856D02*
X204979164Y-72942142D01*
X204229164Y-73192142D02*
X204229164Y-73692142D01*
X204229164Y-73692142D02*
X204979164Y-73370714D01*
X208754819Y-88307142D02*
X208278628Y-87973809D01*
X208754819Y-87735714D02*
X207754819Y-87735714D01*
X207754819Y-87735714D02*
X207754819Y-88116666D01*
X207754819Y-88116666D02*
X207802438Y-88211904D01*
X207802438Y-88211904D02*
X207850057Y-88259523D01*
X207850057Y-88259523D02*
X207945295Y-88307142D01*
X207945295Y-88307142D02*
X208088152Y-88307142D01*
X208088152Y-88307142D02*
X208183390Y-88259523D01*
X208183390Y-88259523D02*
X208231009Y-88211904D01*
X208231009Y-88211904D02*
X208278628Y-88116666D01*
X208278628Y-88116666D02*
X208278628Y-87735714D01*
X207850057Y-88688095D02*
X207802438Y-88735714D01*
X207802438Y-88735714D02*
X207754819Y-88830952D01*
X207754819Y-88830952D02*
X207754819Y-89069047D01*
X207754819Y-89069047D02*
X207802438Y-89164285D01*
X207802438Y-89164285D02*
X207850057Y-89211904D01*
X207850057Y-89211904D02*
X207945295Y-89259523D01*
X207945295Y-89259523D02*
X208040533Y-89259523D01*
X208040533Y-89259523D02*
X208183390Y-89211904D01*
X208183390Y-89211904D02*
X208754819Y-88640476D01*
X208754819Y-88640476D02*
X208754819Y-89259523D01*
X208183390Y-89830952D02*
X208135771Y-89735714D01*
X208135771Y-89735714D02*
X208088152Y-89688095D01*
X208088152Y-89688095D02*
X207992914Y-89640476D01*
X207992914Y-89640476D02*
X207945295Y-89640476D01*
X207945295Y-89640476D02*
X207850057Y-89688095D01*
X207850057Y-89688095D02*
X207802438Y-89735714D01*
X207802438Y-89735714D02*
X207754819Y-89830952D01*
X207754819Y-89830952D02*
X207754819Y-90021428D01*
X207754819Y-90021428D02*
X207802438Y-90116666D01*
X207802438Y-90116666D02*
X207850057Y-90164285D01*
X207850057Y-90164285D02*
X207945295Y-90211904D01*
X207945295Y-90211904D02*
X207992914Y-90211904D01*
X207992914Y-90211904D02*
X208088152Y-90164285D01*
X208088152Y-90164285D02*
X208135771Y-90116666D01*
X208135771Y-90116666D02*
X208183390Y-90021428D01*
X208183390Y-90021428D02*
X208183390Y-89830952D01*
X208183390Y-89830952D02*
X208231009Y-89735714D01*
X208231009Y-89735714D02*
X208278628Y-89688095D01*
X208278628Y-89688095D02*
X208373866Y-89640476D01*
X208373866Y-89640476D02*
X208564342Y-89640476D01*
X208564342Y-89640476D02*
X208659580Y-89688095D01*
X208659580Y-89688095D02*
X208707200Y-89735714D01*
X208707200Y-89735714D02*
X208754819Y-89830952D01*
X208754819Y-89830952D02*
X208754819Y-90021428D01*
X208754819Y-90021428D02*
X208707200Y-90116666D01*
X208707200Y-90116666D02*
X208659580Y-90164285D01*
X208659580Y-90164285D02*
X208564342Y-90211904D01*
X208564342Y-90211904D02*
X208373866Y-90211904D01*
X208373866Y-90211904D02*
X208278628Y-90164285D01*
X208278628Y-90164285D02*
X208231009Y-90116666D01*
X208231009Y-90116666D02*
X208183390Y-90021428D01*
X152667735Y-94819999D02*
X152703450Y-94784285D01*
X152703450Y-94784285D02*
X152739164Y-94677142D01*
X152739164Y-94677142D02*
X152739164Y-94605714D01*
X152739164Y-94605714D02*
X152703450Y-94498571D01*
X152703450Y-94498571D02*
X152632021Y-94427142D01*
X152632021Y-94427142D02*
X152560592Y-94391428D01*
X152560592Y-94391428D02*
X152417735Y-94355714D01*
X152417735Y-94355714D02*
X152310592Y-94355714D01*
X152310592Y-94355714D02*
X152167735Y-94391428D01*
X152167735Y-94391428D02*
X152096307Y-94427142D01*
X152096307Y-94427142D02*
X152024878Y-94498571D01*
X152024878Y-94498571D02*
X151989164Y-94605714D01*
X151989164Y-94605714D02*
X151989164Y-94677142D01*
X151989164Y-94677142D02*
X152024878Y-94784285D01*
X152024878Y-94784285D02*
X152060592Y-94819999D01*
X152739164Y-95534285D02*
X152739164Y-95105714D01*
X152739164Y-95319999D02*
X151989164Y-95319999D01*
X151989164Y-95319999D02*
X152096307Y-95248571D01*
X152096307Y-95248571D02*
X152167735Y-95177142D01*
X152167735Y-95177142D02*
X152203450Y-95105714D01*
X177427735Y-97464999D02*
X177463450Y-97429285D01*
X177463450Y-97429285D02*
X177499164Y-97322142D01*
X177499164Y-97322142D02*
X177499164Y-97250714D01*
X177499164Y-97250714D02*
X177463450Y-97143571D01*
X177463450Y-97143571D02*
X177392021Y-97072142D01*
X177392021Y-97072142D02*
X177320592Y-97036428D01*
X177320592Y-97036428D02*
X177177735Y-97000714D01*
X177177735Y-97000714D02*
X177070592Y-97000714D01*
X177070592Y-97000714D02*
X176927735Y-97036428D01*
X176927735Y-97036428D02*
X176856307Y-97072142D01*
X176856307Y-97072142D02*
X176784878Y-97143571D01*
X176784878Y-97143571D02*
X176749164Y-97250714D01*
X176749164Y-97250714D02*
X176749164Y-97322142D01*
X176749164Y-97322142D02*
X176784878Y-97429285D01*
X176784878Y-97429285D02*
X176820592Y-97464999D01*
X176999164Y-98107857D02*
X177499164Y-98107857D01*
X176713450Y-97929285D02*
X177249164Y-97750714D01*
X177249164Y-97750714D02*
X177249164Y-98214999D01*
X182827735Y-94884999D02*
X182863450Y-94849285D01*
X182863450Y-94849285D02*
X182899164Y-94742142D01*
X182899164Y-94742142D02*
X182899164Y-94670714D01*
X182899164Y-94670714D02*
X182863450Y-94563571D01*
X182863450Y-94563571D02*
X182792021Y-94492142D01*
X182792021Y-94492142D02*
X182720592Y-94456428D01*
X182720592Y-94456428D02*
X182577735Y-94420714D01*
X182577735Y-94420714D02*
X182470592Y-94420714D01*
X182470592Y-94420714D02*
X182327735Y-94456428D01*
X182327735Y-94456428D02*
X182256307Y-94492142D01*
X182256307Y-94492142D02*
X182184878Y-94563571D01*
X182184878Y-94563571D02*
X182149164Y-94670714D01*
X182149164Y-94670714D02*
X182149164Y-94742142D01*
X182149164Y-94742142D02*
X182184878Y-94849285D01*
X182184878Y-94849285D02*
X182220592Y-94884999D01*
X182149164Y-95527857D02*
X182149164Y-95384999D01*
X182149164Y-95384999D02*
X182184878Y-95313571D01*
X182184878Y-95313571D02*
X182220592Y-95277857D01*
X182220592Y-95277857D02*
X182327735Y-95206428D01*
X182327735Y-95206428D02*
X182470592Y-95170714D01*
X182470592Y-95170714D02*
X182756307Y-95170714D01*
X182756307Y-95170714D02*
X182827735Y-95206428D01*
X182827735Y-95206428D02*
X182863450Y-95242142D01*
X182863450Y-95242142D02*
X182899164Y-95313571D01*
X182899164Y-95313571D02*
X182899164Y-95456428D01*
X182899164Y-95456428D02*
X182863450Y-95527857D01*
X182863450Y-95527857D02*
X182827735Y-95563571D01*
X182827735Y-95563571D02*
X182756307Y-95599285D01*
X182756307Y-95599285D02*
X182577735Y-95599285D01*
X182577735Y-95599285D02*
X182506307Y-95563571D01*
X182506307Y-95563571D02*
X182470592Y-95527857D01*
X182470592Y-95527857D02*
X182434878Y-95456428D01*
X182434878Y-95456428D02*
X182434878Y-95313571D01*
X182434878Y-95313571D02*
X182470592Y-95242142D01*
X182470592Y-95242142D02*
X182506307Y-95206428D01*
X182506307Y-95206428D02*
X182577735Y-95170714D01*
X149077735Y-94814999D02*
X149113450Y-94779285D01*
X149113450Y-94779285D02*
X149149164Y-94672142D01*
X149149164Y-94672142D02*
X149149164Y-94600714D01*
X149149164Y-94600714D02*
X149113450Y-94493571D01*
X149113450Y-94493571D02*
X149042021Y-94422142D01*
X149042021Y-94422142D02*
X148970592Y-94386428D01*
X148970592Y-94386428D02*
X148827735Y-94350714D01*
X148827735Y-94350714D02*
X148720592Y-94350714D01*
X148720592Y-94350714D02*
X148577735Y-94386428D01*
X148577735Y-94386428D02*
X148506307Y-94422142D01*
X148506307Y-94422142D02*
X148434878Y-94493571D01*
X148434878Y-94493571D02*
X148399164Y-94600714D01*
X148399164Y-94600714D02*
X148399164Y-94672142D01*
X148399164Y-94672142D02*
X148434878Y-94779285D01*
X148434878Y-94779285D02*
X148470592Y-94814999D01*
X148399164Y-95064999D02*
X148399164Y-95529285D01*
X148399164Y-95529285D02*
X148684878Y-95279285D01*
X148684878Y-95279285D02*
X148684878Y-95386428D01*
X148684878Y-95386428D02*
X148720592Y-95457857D01*
X148720592Y-95457857D02*
X148756307Y-95493571D01*
X148756307Y-95493571D02*
X148827735Y-95529285D01*
X148827735Y-95529285D02*
X149006307Y-95529285D01*
X149006307Y-95529285D02*
X149077735Y-95493571D01*
X149077735Y-95493571D02*
X149113450Y-95457857D01*
X149113450Y-95457857D02*
X149149164Y-95386428D01*
X149149164Y-95386428D02*
X149149164Y-95172142D01*
X149149164Y-95172142D02*
X149113450Y-95100714D01*
X149113450Y-95100714D02*
X149077735Y-95064999D01*
X203567524Y-84230819D02*
X203567524Y-83230819D01*
X203567524Y-83230819D02*
X203234191Y-83945104D01*
X203234191Y-83945104D02*
X202900858Y-83230819D01*
X202900858Y-83230819D02*
X202900858Y-84230819D01*
X202519905Y-83230819D02*
X201900858Y-83230819D01*
X201900858Y-83230819D02*
X202234191Y-83611771D01*
X202234191Y-83611771D02*
X202091334Y-83611771D01*
X202091334Y-83611771D02*
X201996096Y-83659390D01*
X201996096Y-83659390D02*
X201948477Y-83707009D01*
X201948477Y-83707009D02*
X201900858Y-83802247D01*
X201900858Y-83802247D02*
X201900858Y-84040342D01*
X201900858Y-84040342D02*
X201948477Y-84135580D01*
X201948477Y-84135580D02*
X201996096Y-84183200D01*
X201996096Y-84183200D02*
X202091334Y-84230819D01*
X202091334Y-84230819D02*
X202377048Y-84230819D01*
X202377048Y-84230819D02*
X202472286Y-84183200D01*
X202472286Y-84183200D02*
X202519905Y-84135580D01*
D11*
%TO.C,D1*%
X189878700Y-96319400D02*
X189538340Y-96319400D01*
X188161660Y-96319400D02*
X187821300Y-96319400D01*
X187821300Y-96319400D02*
X187821300Y-93220600D01*
D12*
X191350000Y-95320000D02*
X190150000Y-95320000D01*
X190700000Y-95320000D02*
X190700000Y-96320000D01*
X190700000Y-94570000D02*
X190700000Y-93470000D01*
D11*
X189878700Y-93220600D02*
X189878700Y-96319400D01*
X189538340Y-93220600D02*
X189878700Y-93220600D01*
X187821300Y-93220600D02*
X188161660Y-93220600D01*
D12*
X190700000Y-95320000D02*
X190150000Y-94620000D01*
X191300000Y-94620000D01*
X190700000Y-95320000D01*
G36*
X190700000Y-95320000D02*
G01*
X190150000Y-94620000D01*
X191300000Y-94620000D01*
X190700000Y-95320000D01*
G37*
D13*
%TO.C,C2*%
X150090000Y-97600580D02*
X150090000Y-97319420D01*
X151110000Y-97600580D02*
X151110000Y-97319420D01*
%TO.C,R29*%
X205812742Y-85657500D02*
X206287258Y-85657500D01*
X205812742Y-86702500D02*
X206287258Y-86702500D01*
%TO.C,R3*%
X152477500Y-80432742D02*
X152477500Y-80907258D01*
X153522500Y-80432742D02*
X153522500Y-80907258D01*
%TO.C,C5*%
X180020000Y-97810580D02*
X180020000Y-97529420D01*
X181040000Y-97810580D02*
X181040000Y-97529420D01*
D11*
%TO.C,U7*%
X181411100Y-81960900D02*
X181411100Y-77719100D01*
X186668900Y-77719100D02*
X186668900Y-81960900D01*
D13*
%TO.C,R11*%
X188337500Y-101727258D02*
X188337500Y-101252742D01*
X189382500Y-101727258D02*
X189382500Y-101252742D01*
%TO.C,R27*%
X205547500Y-72947258D02*
X205547500Y-72472742D01*
X206592500Y-72947258D02*
X206592500Y-72472742D01*
%TO.C,R28*%
X206347500Y-88712742D02*
X206347500Y-89187258D01*
X207392500Y-88712742D02*
X207392500Y-89187258D01*
%TO.C,C1*%
X151890000Y-97600580D02*
X151890000Y-97319420D01*
X152910000Y-97600580D02*
X152910000Y-97319420D01*
%TO.C,C4*%
X178070000Y-97810580D02*
X178070000Y-97529420D01*
X179090000Y-97810580D02*
X179090000Y-97529420D01*
%TO.C,C6*%
X182050000Y-97790580D02*
X182050000Y-97509420D01*
X183070000Y-97790580D02*
X183070000Y-97509420D01*
%TO.C,C3*%
X148290000Y-97600580D02*
X148290000Y-97319420D01*
X149310000Y-97600580D02*
X149310000Y-97319420D01*
D11*
%TO.C,M3*%
X205133001Y-82868000D02*
X205551861Y-82868000D01*
X205133001Y-83271655D02*
X205133001Y-82868000D01*
X206568141Y-82868000D02*
X206987001Y-82868000D01*
X206987001Y-82868000D02*
X206987001Y-83271655D01*
%TD*%
M02*
