%TF.GenerationSoftware,KiCad,Pcbnew,9.0.3*%
%TF.CreationDate,2025-09-16T13:04:12-04:00*%
%TF.ProjectId,CAEN_NEVIS_DAQ_12V,4341454e-5f4e-4455-9649-535f4441515f,rev?*%
%TF.SameCoordinates,Original*%
%TF.FileFunction,AssemblyDrawing,Bot*%
%FSLAX46Y46*%
G04 Gerber Fmt 4.6, Leading zero omitted, Abs format (unit mm)*
G04 Created by KiCad (PCBNEW 9.0.3) date 2025-09-16 13:04:12*
%MOMM*%
%LPD*%
G01*
G04 APERTURE LIST*
%ADD10C,0.150000*%
%ADD11C,0.060000*%
%ADD12C,0.025400*%
%ADD13C,0.100000*%
G04 APERTURE END LIST*
D10*
X193295180Y-103441429D02*
X194295180Y-103441429D01*
X194295180Y-103441429D02*
X193580895Y-103108096D01*
X193580895Y-103108096D02*
X194295180Y-102774763D01*
X194295180Y-102774763D02*
X193295180Y-102774763D01*
X193295180Y-102298572D02*
X194295180Y-102298572D01*
X194295180Y-102298572D02*
X193580895Y-101965239D01*
X193580895Y-101965239D02*
X194295180Y-101631906D01*
X194295180Y-101631906D02*
X193295180Y-101631906D01*
X193342800Y-101203334D02*
X193295180Y-101060477D01*
X193295180Y-101060477D02*
X193295180Y-100822382D01*
X193295180Y-100822382D02*
X193342800Y-100727144D01*
X193342800Y-100727144D02*
X193390419Y-100679525D01*
X193390419Y-100679525D02*
X193485657Y-100631906D01*
X193485657Y-100631906D02*
X193580895Y-100631906D01*
X193580895Y-100631906D02*
X193676133Y-100679525D01*
X193676133Y-100679525D02*
X193723752Y-100727144D01*
X193723752Y-100727144D02*
X193771371Y-100822382D01*
X193771371Y-100822382D02*
X193818990Y-101012858D01*
X193818990Y-101012858D02*
X193866609Y-101108096D01*
X193866609Y-101108096D02*
X193914228Y-101155715D01*
X193914228Y-101155715D02*
X194009466Y-101203334D01*
X194009466Y-101203334D02*
X194104704Y-101203334D01*
X194104704Y-101203334D02*
X194199942Y-101155715D01*
X194199942Y-101155715D02*
X194247561Y-101108096D01*
X194247561Y-101108096D02*
X194295180Y-101012858D01*
X194295180Y-101012858D02*
X194295180Y-100774763D01*
X194295180Y-100774763D02*
X194247561Y-100631906D01*
X194295180Y-100298572D02*
X194295180Y-99631906D01*
X194295180Y-99631906D02*
X193295180Y-100298572D01*
X193295180Y-100298572D02*
X193295180Y-99631906D01*
X193295180Y-98727144D02*
X193295180Y-99298572D01*
X193295180Y-99012858D02*
X194295180Y-99012858D01*
X194295180Y-99012858D02*
X194152323Y-99108096D01*
X194152323Y-99108096D02*
X194057085Y-99203334D01*
X194057085Y-99203334D02*
X194009466Y-99298572D01*
X194295180Y-98393810D02*
X194295180Y-97774763D01*
X194295180Y-97774763D02*
X193914228Y-98108096D01*
X193914228Y-98108096D02*
X193914228Y-97965239D01*
X193914228Y-97965239D02*
X193866609Y-97870001D01*
X193866609Y-97870001D02*
X193818990Y-97822382D01*
X193818990Y-97822382D02*
X193723752Y-97774763D01*
X193723752Y-97774763D02*
X193485657Y-97774763D01*
X193485657Y-97774763D02*
X193390419Y-97822382D01*
X193390419Y-97822382D02*
X193342800Y-97870001D01*
X193342800Y-97870001D02*
X193295180Y-97965239D01*
X193295180Y-97965239D02*
X193295180Y-98250953D01*
X193295180Y-98250953D02*
X193342800Y-98346191D01*
X193342800Y-98346191D02*
X193390419Y-98393810D01*
X194295180Y-97489048D02*
X194295180Y-96917620D01*
X193295180Y-97203334D02*
X194295180Y-97203334D01*
X193295180Y-96060477D02*
X193295180Y-96631905D01*
X193295180Y-96346191D02*
X194295180Y-96346191D01*
X194295180Y-96346191D02*
X194152323Y-96441429D01*
X194152323Y-96441429D02*
X194057085Y-96536667D01*
X194057085Y-96536667D02*
X194009466Y-96631905D01*
X194247561Y-95108096D02*
X194295180Y-95203334D01*
X194295180Y-95203334D02*
X194295180Y-95346191D01*
X194295180Y-95346191D02*
X194247561Y-95489048D01*
X194247561Y-95489048D02*
X194152323Y-95584286D01*
X194152323Y-95584286D02*
X194057085Y-95631905D01*
X194057085Y-95631905D02*
X193866609Y-95679524D01*
X193866609Y-95679524D02*
X193723752Y-95679524D01*
X193723752Y-95679524D02*
X193533276Y-95631905D01*
X193533276Y-95631905D02*
X193438038Y-95584286D01*
X193438038Y-95584286D02*
X193342800Y-95489048D01*
X193342800Y-95489048D02*
X193295180Y-95346191D01*
X193295180Y-95346191D02*
X193295180Y-95250953D01*
X193295180Y-95250953D02*
X193342800Y-95108096D01*
X193342800Y-95108096D02*
X193390419Y-95060477D01*
X193390419Y-95060477D02*
X193723752Y-95060477D01*
X193723752Y-95060477D02*
X193723752Y-95250953D01*
X192914228Y-93584286D02*
X192961847Y-93631905D01*
X192961847Y-93631905D02*
X193104704Y-93727143D01*
X193104704Y-93727143D02*
X193199942Y-93774762D01*
X193199942Y-93774762D02*
X193342800Y-93822381D01*
X193342800Y-93822381D02*
X193580895Y-93870000D01*
X193580895Y-93870000D02*
X193771371Y-93870000D01*
X193771371Y-93870000D02*
X194009466Y-93822381D01*
X194009466Y-93822381D02*
X194152323Y-93774762D01*
X194152323Y-93774762D02*
X194247561Y-93727143D01*
X194247561Y-93727143D02*
X194390419Y-93631905D01*
X194390419Y-93631905D02*
X194438038Y-93584286D01*
X193295180Y-92679524D02*
X193295180Y-93250952D01*
X193295180Y-92965238D02*
X194295180Y-92965238D01*
X194295180Y-92965238D02*
X194152323Y-93060476D01*
X194152323Y-93060476D02*
X194057085Y-93155714D01*
X194057085Y-93155714D02*
X194009466Y-93250952D01*
X194295180Y-92346190D02*
X194295180Y-91727143D01*
X194295180Y-91727143D02*
X193914228Y-92060476D01*
X193914228Y-92060476D02*
X193914228Y-91917619D01*
X193914228Y-91917619D02*
X193866609Y-91822381D01*
X193866609Y-91822381D02*
X193818990Y-91774762D01*
X193818990Y-91774762D02*
X193723752Y-91727143D01*
X193723752Y-91727143D02*
X193485657Y-91727143D01*
X193485657Y-91727143D02*
X193390419Y-91774762D01*
X193390419Y-91774762D02*
X193342800Y-91822381D01*
X193342800Y-91822381D02*
X193295180Y-91917619D01*
X193295180Y-91917619D02*
X193295180Y-92203333D01*
X193295180Y-92203333D02*
X193342800Y-92298571D01*
X193342800Y-92298571D02*
X193390419Y-92346190D01*
X194295180Y-91441428D02*
X193295180Y-91108095D01*
X193295180Y-91108095D02*
X194295180Y-90774762D01*
X194295180Y-89774761D02*
X194295180Y-89108095D01*
X194295180Y-89108095D02*
X193295180Y-89774761D01*
X193295180Y-89774761D02*
X193295180Y-89108095D01*
X193342800Y-88346190D02*
X193295180Y-88441428D01*
X193295180Y-88441428D02*
X193295180Y-88631904D01*
X193295180Y-88631904D02*
X193342800Y-88727142D01*
X193342800Y-88727142D02*
X193438038Y-88774761D01*
X193438038Y-88774761D02*
X193818990Y-88774761D01*
X193818990Y-88774761D02*
X193914228Y-88727142D01*
X193914228Y-88727142D02*
X193961847Y-88631904D01*
X193961847Y-88631904D02*
X193961847Y-88441428D01*
X193961847Y-88441428D02*
X193914228Y-88346190D01*
X193914228Y-88346190D02*
X193818990Y-88298571D01*
X193818990Y-88298571D02*
X193723752Y-88298571D01*
X193723752Y-88298571D02*
X193628514Y-88774761D01*
X193961847Y-87869999D02*
X193295180Y-87869999D01*
X193866609Y-87869999D02*
X193914228Y-87822380D01*
X193914228Y-87822380D02*
X193961847Y-87727142D01*
X193961847Y-87727142D02*
X193961847Y-87584285D01*
X193961847Y-87584285D02*
X193914228Y-87489047D01*
X193914228Y-87489047D02*
X193818990Y-87441428D01*
X193818990Y-87441428D02*
X193295180Y-87441428D01*
X193342800Y-86584285D02*
X193295180Y-86679523D01*
X193295180Y-86679523D02*
X193295180Y-86869999D01*
X193295180Y-86869999D02*
X193342800Y-86965237D01*
X193342800Y-86965237D02*
X193438038Y-87012856D01*
X193438038Y-87012856D02*
X193818990Y-87012856D01*
X193818990Y-87012856D02*
X193914228Y-86965237D01*
X193914228Y-86965237D02*
X193961847Y-86869999D01*
X193961847Y-86869999D02*
X193961847Y-86679523D01*
X193961847Y-86679523D02*
X193914228Y-86584285D01*
X193914228Y-86584285D02*
X193818990Y-86536666D01*
X193818990Y-86536666D02*
X193723752Y-86536666D01*
X193723752Y-86536666D02*
X193628514Y-87012856D01*
X193295180Y-86108094D02*
X193961847Y-86108094D01*
X193771371Y-86108094D02*
X193866609Y-86060475D01*
X193866609Y-86060475D02*
X193914228Y-86012856D01*
X193914228Y-86012856D02*
X193961847Y-85917618D01*
X193961847Y-85917618D02*
X193961847Y-85822380D01*
X192914228Y-85584284D02*
X192961847Y-85536665D01*
X192961847Y-85536665D02*
X193104704Y-85441427D01*
X193104704Y-85441427D02*
X193199942Y-85393808D01*
X193199942Y-85393808D02*
X193342800Y-85346189D01*
X193342800Y-85346189D02*
X193580895Y-85298570D01*
X193580895Y-85298570D02*
X193771371Y-85298570D01*
X193771371Y-85298570D02*
X194009466Y-85346189D01*
X194009466Y-85346189D02*
X194152323Y-85393808D01*
X194152323Y-85393808D02*
X194247561Y-85441427D01*
X194247561Y-85441427D02*
X194390419Y-85536665D01*
X194390419Y-85536665D02*
X194438038Y-85584284D01*
X191745180Y-95458094D02*
X192745180Y-95458094D01*
X192745180Y-95458094D02*
X192745180Y-95219999D01*
X192745180Y-95219999D02*
X192697561Y-95077142D01*
X192697561Y-95077142D02*
X192602323Y-94981904D01*
X192602323Y-94981904D02*
X192507085Y-94934285D01*
X192507085Y-94934285D02*
X192316609Y-94886666D01*
X192316609Y-94886666D02*
X192173752Y-94886666D01*
X192173752Y-94886666D02*
X191983276Y-94934285D01*
X191983276Y-94934285D02*
X191888038Y-94981904D01*
X191888038Y-94981904D02*
X191792800Y-95077142D01*
X191792800Y-95077142D02*
X191745180Y-95219999D01*
X191745180Y-95219999D02*
X191745180Y-95458094D01*
X191745180Y-93934285D02*
X191745180Y-94505713D01*
X191745180Y-94219999D02*
X192745180Y-94219999D01*
X192745180Y-94219999D02*
X192602323Y-94315237D01*
X192602323Y-94315237D02*
X192507085Y-94410475D01*
X192507085Y-94410475D02*
X192459466Y-94505713D01*
X151484819Y-95817143D02*
X151484819Y-95912381D01*
X151484819Y-95912381D02*
X151532438Y-96007619D01*
X151532438Y-96007619D02*
X151580057Y-96055238D01*
X151580057Y-96055238D02*
X151675295Y-96102857D01*
X151675295Y-96102857D02*
X151865771Y-96150476D01*
X151865771Y-96150476D02*
X152103866Y-96150476D01*
X152103866Y-96150476D02*
X152294342Y-96102857D01*
X152294342Y-96102857D02*
X152389580Y-96055238D01*
X152389580Y-96055238D02*
X152437200Y-96007619D01*
X152437200Y-96007619D02*
X152484819Y-95912381D01*
X152484819Y-95912381D02*
X152484819Y-95817143D01*
X152484819Y-95817143D02*
X152437200Y-95721905D01*
X152437200Y-95721905D02*
X152389580Y-95674286D01*
X152389580Y-95674286D02*
X152294342Y-95626667D01*
X152294342Y-95626667D02*
X152103866Y-95579048D01*
X152103866Y-95579048D02*
X151865771Y-95579048D01*
X151865771Y-95579048D02*
X151675295Y-95626667D01*
X151675295Y-95626667D02*
X151580057Y-95674286D01*
X151580057Y-95674286D02*
X151532438Y-95721905D01*
X151532438Y-95721905D02*
X151484819Y-95817143D01*
X152389580Y-96579048D02*
X152437200Y-96626667D01*
X152437200Y-96626667D02*
X152484819Y-96579048D01*
X152484819Y-96579048D02*
X152437200Y-96531429D01*
X152437200Y-96531429D02*
X152389580Y-96579048D01*
X152389580Y-96579048D02*
X152484819Y-96579048D01*
X152484819Y-97579047D02*
X152484819Y-97007619D01*
X152484819Y-97293333D02*
X151484819Y-97293333D01*
X151484819Y-97293333D02*
X151627676Y-97198095D01*
X151627676Y-97198095D02*
X151722914Y-97102857D01*
X151722914Y-97102857D02*
X151770533Y-97007619D01*
X151818152Y-98436190D02*
X152484819Y-98436190D01*
X151818152Y-98007619D02*
X152341961Y-98007619D01*
X152341961Y-98007619D02*
X152437200Y-98055238D01*
X152437200Y-98055238D02*
X152484819Y-98150476D01*
X152484819Y-98150476D02*
X152484819Y-98293333D01*
X152484819Y-98293333D02*
X152437200Y-98388571D01*
X152437200Y-98388571D02*
X152389580Y-98436190D01*
X151961009Y-99245714D02*
X151961009Y-98912381D01*
X152484819Y-98912381D02*
X151484819Y-98912381D01*
X151484819Y-98912381D02*
X151484819Y-99388571D01*
D11*
X150743832Y-97393333D02*
X150762880Y-97374285D01*
X150762880Y-97374285D02*
X150781927Y-97317143D01*
X150781927Y-97317143D02*
X150781927Y-97279047D01*
X150781927Y-97279047D02*
X150762880Y-97221904D01*
X150762880Y-97221904D02*
X150724784Y-97183809D01*
X150724784Y-97183809D02*
X150686689Y-97164762D01*
X150686689Y-97164762D02*
X150610499Y-97145714D01*
X150610499Y-97145714D02*
X150553356Y-97145714D01*
X150553356Y-97145714D02*
X150477165Y-97164762D01*
X150477165Y-97164762D02*
X150439070Y-97183809D01*
X150439070Y-97183809D02*
X150400975Y-97221904D01*
X150400975Y-97221904D02*
X150381927Y-97279047D01*
X150381927Y-97279047D02*
X150381927Y-97317143D01*
X150381927Y-97317143D02*
X150400975Y-97374285D01*
X150400975Y-97374285D02*
X150420022Y-97393333D01*
X150420022Y-97545714D02*
X150400975Y-97564762D01*
X150400975Y-97564762D02*
X150381927Y-97602857D01*
X150381927Y-97602857D02*
X150381927Y-97698095D01*
X150381927Y-97698095D02*
X150400975Y-97736190D01*
X150400975Y-97736190D02*
X150420022Y-97755238D01*
X150420022Y-97755238D02*
X150458118Y-97774285D01*
X150458118Y-97774285D02*
X150496213Y-97774285D01*
X150496213Y-97774285D02*
X150553356Y-97755238D01*
X150553356Y-97755238D02*
X150781927Y-97526666D01*
X150781927Y-97526666D02*
X150781927Y-97774285D01*
D10*
X207454761Y-87398152D02*
X207454761Y-88064819D01*
X207692856Y-87017200D02*
X207930951Y-87731485D01*
X207930951Y-87731485D02*
X207311904Y-87731485D01*
X206883332Y-88064819D02*
X206692856Y-88064819D01*
X206692856Y-88064819D02*
X206597618Y-88017200D01*
X206597618Y-88017200D02*
X206549999Y-87969580D01*
X206549999Y-87969580D02*
X206454761Y-87826723D01*
X206454761Y-87826723D02*
X206407142Y-87636247D01*
X206407142Y-87636247D02*
X206407142Y-87255295D01*
X206407142Y-87255295D02*
X206454761Y-87160057D01*
X206454761Y-87160057D02*
X206502380Y-87112438D01*
X206502380Y-87112438D02*
X206597618Y-87064819D01*
X206597618Y-87064819D02*
X206788094Y-87064819D01*
X206788094Y-87064819D02*
X206883332Y-87112438D01*
X206883332Y-87112438D02*
X206930951Y-87160057D01*
X206930951Y-87160057D02*
X206978570Y-87255295D01*
X206978570Y-87255295D02*
X206978570Y-87493390D01*
X206978570Y-87493390D02*
X206930951Y-87588628D01*
X206930951Y-87588628D02*
X206883332Y-87636247D01*
X206883332Y-87636247D02*
X206788094Y-87683866D01*
X206788094Y-87683866D02*
X206597618Y-87683866D01*
X206597618Y-87683866D02*
X206502380Y-87636247D01*
X206502380Y-87636247D02*
X206454761Y-87588628D01*
X206454761Y-87588628D02*
X206407142Y-87493390D01*
X205978570Y-87969580D02*
X205930951Y-88017200D01*
X205930951Y-88017200D02*
X205978570Y-88064819D01*
X205978570Y-88064819D02*
X206026189Y-88017200D01*
X206026189Y-88017200D02*
X205978570Y-87969580D01*
X205978570Y-87969580D02*
X205978570Y-88064819D01*
X205454761Y-88064819D02*
X205264285Y-88064819D01*
X205264285Y-88064819D02*
X205169047Y-88017200D01*
X205169047Y-88017200D02*
X205121428Y-87969580D01*
X205121428Y-87969580D02*
X205026190Y-87826723D01*
X205026190Y-87826723D02*
X204978571Y-87636247D01*
X204978571Y-87636247D02*
X204978571Y-87255295D01*
X204978571Y-87255295D02*
X205026190Y-87160057D01*
X205026190Y-87160057D02*
X205073809Y-87112438D01*
X205073809Y-87112438D02*
X205169047Y-87064819D01*
X205169047Y-87064819D02*
X205359523Y-87064819D01*
X205359523Y-87064819D02*
X205454761Y-87112438D01*
X205454761Y-87112438D02*
X205502380Y-87160057D01*
X205502380Y-87160057D02*
X205549999Y-87255295D01*
X205549999Y-87255295D02*
X205549999Y-87493390D01*
X205549999Y-87493390D02*
X205502380Y-87588628D01*
X205502380Y-87588628D02*
X205454761Y-87636247D01*
X205454761Y-87636247D02*
X205359523Y-87683866D01*
X205359523Y-87683866D02*
X205169047Y-87683866D01*
X205169047Y-87683866D02*
X205073809Y-87636247D01*
X205073809Y-87636247D02*
X205026190Y-87588628D01*
X205026190Y-87588628D02*
X204978571Y-87493390D01*
X204549999Y-88064819D02*
X204549999Y-87064819D01*
X204454761Y-87683866D02*
X204169047Y-88064819D01*
X204169047Y-87398152D02*
X204549999Y-87779104D01*
D11*
X206307142Y-86361927D02*
X206440475Y-86171451D01*
X206535713Y-86361927D02*
X206535713Y-85961927D01*
X206535713Y-85961927D02*
X206383332Y-85961927D01*
X206383332Y-85961927D02*
X206345237Y-85980975D01*
X206345237Y-85980975D02*
X206326190Y-86000022D01*
X206326190Y-86000022D02*
X206307142Y-86038118D01*
X206307142Y-86038118D02*
X206307142Y-86095260D01*
X206307142Y-86095260D02*
X206326190Y-86133356D01*
X206326190Y-86133356D02*
X206345237Y-86152403D01*
X206345237Y-86152403D02*
X206383332Y-86171451D01*
X206383332Y-86171451D02*
X206535713Y-86171451D01*
X206154761Y-86000022D02*
X206135713Y-85980975D01*
X206135713Y-85980975D02*
X206097618Y-85961927D01*
X206097618Y-85961927D02*
X206002380Y-85961927D01*
X206002380Y-85961927D02*
X205964285Y-85980975D01*
X205964285Y-85980975D02*
X205945237Y-86000022D01*
X205945237Y-86000022D02*
X205926190Y-86038118D01*
X205926190Y-86038118D02*
X205926190Y-86076213D01*
X205926190Y-86076213D02*
X205945237Y-86133356D01*
X205945237Y-86133356D02*
X206173809Y-86361927D01*
X206173809Y-86361927D02*
X205926190Y-86361927D01*
X205735714Y-86361927D02*
X205659523Y-86361927D01*
X205659523Y-86361927D02*
X205621428Y-86342880D01*
X205621428Y-86342880D02*
X205602380Y-86323832D01*
X205602380Y-86323832D02*
X205564285Y-86266689D01*
X205564285Y-86266689D02*
X205545238Y-86190499D01*
X205545238Y-86190499D02*
X205545238Y-86038118D01*
X205545238Y-86038118D02*
X205564285Y-86000022D01*
X205564285Y-86000022D02*
X205583333Y-85980975D01*
X205583333Y-85980975D02*
X205621428Y-85961927D01*
X205621428Y-85961927D02*
X205697619Y-85961927D01*
X205697619Y-85961927D02*
X205735714Y-85980975D01*
X205735714Y-85980975D02*
X205754761Y-86000022D01*
X205754761Y-86000022D02*
X205773809Y-86038118D01*
X205773809Y-86038118D02*
X205773809Y-86133356D01*
X205773809Y-86133356D02*
X205754761Y-86171451D01*
X205754761Y-86171451D02*
X205735714Y-86190499D01*
X205735714Y-86190499D02*
X205697619Y-86209546D01*
X205697619Y-86209546D02*
X205621428Y-86209546D01*
X205621428Y-86209546D02*
X205583333Y-86190499D01*
X205583333Y-86190499D02*
X205564285Y-86171451D01*
X205564285Y-86171451D02*
X205545238Y-86133356D01*
D10*
X151120057Y-79503333D02*
X151072438Y-79550952D01*
X151072438Y-79550952D02*
X151024819Y-79646190D01*
X151024819Y-79646190D02*
X151024819Y-79884285D01*
X151024819Y-79884285D02*
X151072438Y-79979523D01*
X151072438Y-79979523D02*
X151120057Y-80027142D01*
X151120057Y-80027142D02*
X151215295Y-80074761D01*
X151215295Y-80074761D02*
X151310533Y-80074761D01*
X151310533Y-80074761D02*
X151453390Y-80027142D01*
X151453390Y-80027142D02*
X152024819Y-79455714D01*
X152024819Y-79455714D02*
X152024819Y-80074761D01*
X151024819Y-80693809D02*
X151024819Y-80789047D01*
X151024819Y-80789047D02*
X151072438Y-80884285D01*
X151072438Y-80884285D02*
X151120057Y-80931904D01*
X151120057Y-80931904D02*
X151215295Y-80979523D01*
X151215295Y-80979523D02*
X151405771Y-81027142D01*
X151405771Y-81027142D02*
X151643866Y-81027142D01*
X151643866Y-81027142D02*
X151834342Y-80979523D01*
X151834342Y-80979523D02*
X151929580Y-80931904D01*
X151929580Y-80931904D02*
X151977200Y-80884285D01*
X151977200Y-80884285D02*
X152024819Y-80789047D01*
X152024819Y-80789047D02*
X152024819Y-80693809D01*
X152024819Y-80693809D02*
X151977200Y-80598571D01*
X151977200Y-80598571D02*
X151929580Y-80550952D01*
X151929580Y-80550952D02*
X151834342Y-80503333D01*
X151834342Y-80503333D02*
X151643866Y-80455714D01*
X151643866Y-80455714D02*
X151405771Y-80455714D01*
X151405771Y-80455714D02*
X151215295Y-80503333D01*
X151215295Y-80503333D02*
X151120057Y-80550952D01*
X151120057Y-80550952D02*
X151072438Y-80598571D01*
X151072438Y-80598571D02*
X151024819Y-80693809D01*
X152024819Y-81455714D02*
X151024819Y-81455714D01*
X151643866Y-81550952D02*
X152024819Y-81836666D01*
X151358152Y-81836666D02*
X151739104Y-81455714D01*
D11*
X153181927Y-80603333D02*
X152991451Y-80470000D01*
X153181927Y-80374762D02*
X152781927Y-80374762D01*
X152781927Y-80374762D02*
X152781927Y-80527143D01*
X152781927Y-80527143D02*
X152800975Y-80565238D01*
X152800975Y-80565238D02*
X152820022Y-80584285D01*
X152820022Y-80584285D02*
X152858118Y-80603333D01*
X152858118Y-80603333D02*
X152915260Y-80603333D01*
X152915260Y-80603333D02*
X152953356Y-80584285D01*
X152953356Y-80584285D02*
X152972403Y-80565238D01*
X152972403Y-80565238D02*
X152991451Y-80527143D01*
X152991451Y-80527143D02*
X152991451Y-80374762D01*
X152781927Y-80736666D02*
X152781927Y-80984285D01*
X152781927Y-80984285D02*
X152934308Y-80850952D01*
X152934308Y-80850952D02*
X152934308Y-80908095D01*
X152934308Y-80908095D02*
X152953356Y-80946190D01*
X152953356Y-80946190D02*
X152972403Y-80965238D01*
X152972403Y-80965238D02*
X153010499Y-80984285D01*
X153010499Y-80984285D02*
X153105737Y-80984285D01*
X153105737Y-80984285D02*
X153143832Y-80965238D01*
X153143832Y-80965238D02*
X153162880Y-80946190D01*
X153162880Y-80946190D02*
X153181927Y-80908095D01*
X153181927Y-80908095D02*
X153181927Y-80793809D01*
X153181927Y-80793809D02*
X153162880Y-80755714D01*
X153162880Y-80755714D02*
X153143832Y-80736666D01*
D10*
X181414819Y-96027143D02*
X181414819Y-96122381D01*
X181414819Y-96122381D02*
X181462438Y-96217619D01*
X181462438Y-96217619D02*
X181510057Y-96265238D01*
X181510057Y-96265238D02*
X181605295Y-96312857D01*
X181605295Y-96312857D02*
X181795771Y-96360476D01*
X181795771Y-96360476D02*
X182033866Y-96360476D01*
X182033866Y-96360476D02*
X182224342Y-96312857D01*
X182224342Y-96312857D02*
X182319580Y-96265238D01*
X182319580Y-96265238D02*
X182367200Y-96217619D01*
X182367200Y-96217619D02*
X182414819Y-96122381D01*
X182414819Y-96122381D02*
X182414819Y-96027143D01*
X182414819Y-96027143D02*
X182367200Y-95931905D01*
X182367200Y-95931905D02*
X182319580Y-95884286D01*
X182319580Y-95884286D02*
X182224342Y-95836667D01*
X182224342Y-95836667D02*
X182033866Y-95789048D01*
X182033866Y-95789048D02*
X181795771Y-95789048D01*
X181795771Y-95789048D02*
X181605295Y-95836667D01*
X181605295Y-95836667D02*
X181510057Y-95884286D01*
X181510057Y-95884286D02*
X181462438Y-95931905D01*
X181462438Y-95931905D02*
X181414819Y-96027143D01*
X182319580Y-96789048D02*
X182367200Y-96836667D01*
X182367200Y-96836667D02*
X182414819Y-96789048D01*
X182414819Y-96789048D02*
X182367200Y-96741429D01*
X182367200Y-96741429D02*
X182319580Y-96789048D01*
X182319580Y-96789048D02*
X182414819Y-96789048D01*
X182414819Y-97789047D02*
X182414819Y-97217619D01*
X182414819Y-97503333D02*
X181414819Y-97503333D01*
X181414819Y-97503333D02*
X181557676Y-97408095D01*
X181557676Y-97408095D02*
X181652914Y-97312857D01*
X181652914Y-97312857D02*
X181700533Y-97217619D01*
X181748152Y-98646190D02*
X182414819Y-98646190D01*
X181748152Y-98217619D02*
X182271961Y-98217619D01*
X182271961Y-98217619D02*
X182367200Y-98265238D01*
X182367200Y-98265238D02*
X182414819Y-98360476D01*
X182414819Y-98360476D02*
X182414819Y-98503333D01*
X182414819Y-98503333D02*
X182367200Y-98598571D01*
X182367200Y-98598571D02*
X182319580Y-98646190D01*
X181891009Y-99455714D02*
X181891009Y-99122381D01*
X182414819Y-99122381D02*
X181414819Y-99122381D01*
X181414819Y-99122381D02*
X181414819Y-99598571D01*
D11*
X180673832Y-97603333D02*
X180692880Y-97584285D01*
X180692880Y-97584285D02*
X180711927Y-97527143D01*
X180711927Y-97527143D02*
X180711927Y-97489047D01*
X180711927Y-97489047D02*
X180692880Y-97431904D01*
X180692880Y-97431904D02*
X180654784Y-97393809D01*
X180654784Y-97393809D02*
X180616689Y-97374762D01*
X180616689Y-97374762D02*
X180540499Y-97355714D01*
X180540499Y-97355714D02*
X180483356Y-97355714D01*
X180483356Y-97355714D02*
X180407165Y-97374762D01*
X180407165Y-97374762D02*
X180369070Y-97393809D01*
X180369070Y-97393809D02*
X180330975Y-97431904D01*
X180330975Y-97431904D02*
X180311927Y-97489047D01*
X180311927Y-97489047D02*
X180311927Y-97527143D01*
X180311927Y-97527143D02*
X180330975Y-97584285D01*
X180330975Y-97584285D02*
X180350022Y-97603333D01*
X180311927Y-97965238D02*
X180311927Y-97774762D01*
X180311927Y-97774762D02*
X180502403Y-97755714D01*
X180502403Y-97755714D02*
X180483356Y-97774762D01*
X180483356Y-97774762D02*
X180464308Y-97812857D01*
X180464308Y-97812857D02*
X180464308Y-97908095D01*
X180464308Y-97908095D02*
X180483356Y-97946190D01*
X180483356Y-97946190D02*
X180502403Y-97965238D01*
X180502403Y-97965238D02*
X180540499Y-97984285D01*
X180540499Y-97984285D02*
X180635737Y-97984285D01*
X180635737Y-97984285D02*
X180673832Y-97965238D01*
X180673832Y-97965238D02*
X180692880Y-97946190D01*
X180692880Y-97946190D02*
X180711927Y-97908095D01*
X180711927Y-97908095D02*
X180711927Y-97812857D01*
X180711927Y-97812857D02*
X180692880Y-97774762D01*
X180692880Y-97774762D02*
X180673832Y-97755714D01*
D10*
X184209104Y-76316190D02*
X184209104Y-76792380D01*
X184494819Y-76220952D02*
X183494819Y-76554285D01*
X183494819Y-76554285D02*
X184494819Y-76887618D01*
X184494819Y-77220952D02*
X183494819Y-77220952D01*
X183494819Y-77220952D02*
X183494819Y-77459047D01*
X183494819Y-77459047D02*
X183542438Y-77601904D01*
X183542438Y-77601904D02*
X183637676Y-77697142D01*
X183637676Y-77697142D02*
X183732914Y-77744761D01*
X183732914Y-77744761D02*
X183923390Y-77792380D01*
X183923390Y-77792380D02*
X184066247Y-77792380D01*
X184066247Y-77792380D02*
X184256723Y-77744761D01*
X184256723Y-77744761D02*
X184351961Y-77697142D01*
X184351961Y-77697142D02*
X184447200Y-77601904D01*
X184447200Y-77601904D02*
X184494819Y-77459047D01*
X184494819Y-77459047D02*
X184494819Y-77220952D01*
X183494819Y-78697142D02*
X183494819Y-78220952D01*
X183494819Y-78220952D02*
X183971009Y-78173333D01*
X183971009Y-78173333D02*
X183923390Y-78220952D01*
X183923390Y-78220952D02*
X183875771Y-78316190D01*
X183875771Y-78316190D02*
X183875771Y-78554285D01*
X183875771Y-78554285D02*
X183923390Y-78649523D01*
X183923390Y-78649523D02*
X183971009Y-78697142D01*
X183971009Y-78697142D02*
X184066247Y-78744761D01*
X184066247Y-78744761D02*
X184304342Y-78744761D01*
X184304342Y-78744761D02*
X184399580Y-78697142D01*
X184399580Y-78697142D02*
X184447200Y-78649523D01*
X184447200Y-78649523D02*
X184494819Y-78554285D01*
X184494819Y-78554285D02*
X184494819Y-78316190D01*
X184494819Y-78316190D02*
X184447200Y-78220952D01*
X184447200Y-78220952D02*
X184399580Y-78173333D01*
X184494819Y-79220952D02*
X184494819Y-79411428D01*
X184494819Y-79411428D02*
X184447200Y-79506666D01*
X184447200Y-79506666D02*
X184399580Y-79554285D01*
X184399580Y-79554285D02*
X184256723Y-79649523D01*
X184256723Y-79649523D02*
X184066247Y-79697142D01*
X184066247Y-79697142D02*
X183685295Y-79697142D01*
X183685295Y-79697142D02*
X183590057Y-79649523D01*
X183590057Y-79649523D02*
X183542438Y-79601904D01*
X183542438Y-79601904D02*
X183494819Y-79506666D01*
X183494819Y-79506666D02*
X183494819Y-79316190D01*
X183494819Y-79316190D02*
X183542438Y-79220952D01*
X183542438Y-79220952D02*
X183590057Y-79173333D01*
X183590057Y-79173333D02*
X183685295Y-79125714D01*
X183685295Y-79125714D02*
X183923390Y-79125714D01*
X183923390Y-79125714D02*
X184018628Y-79173333D01*
X184018628Y-79173333D02*
X184066247Y-79220952D01*
X184066247Y-79220952D02*
X184113866Y-79316190D01*
X184113866Y-79316190D02*
X184113866Y-79506666D01*
X184113866Y-79506666D02*
X184066247Y-79601904D01*
X184066247Y-79601904D02*
X184018628Y-79649523D01*
X184018628Y-79649523D02*
X183923390Y-79697142D01*
X183494819Y-80316190D02*
X183494819Y-80411428D01*
X183494819Y-80411428D02*
X183542438Y-80506666D01*
X183542438Y-80506666D02*
X183590057Y-80554285D01*
X183590057Y-80554285D02*
X183685295Y-80601904D01*
X183685295Y-80601904D02*
X183875771Y-80649523D01*
X183875771Y-80649523D02*
X184113866Y-80649523D01*
X184113866Y-80649523D02*
X184304342Y-80601904D01*
X184304342Y-80601904D02*
X184399580Y-80554285D01*
X184399580Y-80554285D02*
X184447200Y-80506666D01*
X184447200Y-80506666D02*
X184494819Y-80411428D01*
X184494819Y-80411428D02*
X184494819Y-80316190D01*
X184494819Y-80316190D02*
X184447200Y-80220952D01*
X184447200Y-80220952D02*
X184399580Y-80173333D01*
X184399580Y-80173333D02*
X184304342Y-80125714D01*
X184304342Y-80125714D02*
X184113866Y-80078095D01*
X184113866Y-80078095D02*
X183875771Y-80078095D01*
X183875771Y-80078095D02*
X183685295Y-80125714D01*
X183685295Y-80125714D02*
X183590057Y-80173333D01*
X183590057Y-80173333D02*
X183542438Y-80220952D01*
X183542438Y-80220952D02*
X183494819Y-80316190D01*
X183494819Y-81363809D02*
X184209104Y-81363809D01*
X184209104Y-81363809D02*
X184351961Y-81316190D01*
X184351961Y-81316190D02*
X184447200Y-81220952D01*
X184447200Y-81220952D02*
X184494819Y-81078095D01*
X184494819Y-81078095D02*
X184494819Y-80982857D01*
X184494819Y-82411428D02*
X184018628Y-82078095D01*
X184494819Y-81840000D02*
X183494819Y-81840000D01*
X183494819Y-81840000D02*
X183494819Y-82220952D01*
X183494819Y-82220952D02*
X183542438Y-82316190D01*
X183542438Y-82316190D02*
X183590057Y-82363809D01*
X183590057Y-82363809D02*
X183685295Y-82411428D01*
X183685295Y-82411428D02*
X183828152Y-82411428D01*
X183828152Y-82411428D02*
X183923390Y-82363809D01*
X183923390Y-82363809D02*
X183971009Y-82316190D01*
X183971009Y-82316190D02*
X184018628Y-82220952D01*
X184018628Y-82220952D02*
X184018628Y-81840000D01*
X183494819Y-82744762D02*
X183494819Y-83411428D01*
X183494819Y-83411428D02*
X184494819Y-82744762D01*
X184494819Y-82744762D02*
X184494819Y-83411428D01*
X181069119Y-78227100D02*
X181307214Y-78227100D01*
X181211976Y-77989005D02*
X181307214Y-78227100D01*
X181307214Y-78227100D02*
X181211976Y-78465195D01*
X181497690Y-78084243D02*
X181307214Y-78227100D01*
X181307214Y-78227100D02*
X181497690Y-78369957D01*
X183494819Y-79078095D02*
X184304342Y-79078095D01*
X184304342Y-79078095D02*
X184399580Y-79125714D01*
X184399580Y-79125714D02*
X184447200Y-79173333D01*
X184447200Y-79173333D02*
X184494819Y-79268571D01*
X184494819Y-79268571D02*
X184494819Y-79459047D01*
X184494819Y-79459047D02*
X184447200Y-79554285D01*
X184447200Y-79554285D02*
X184399580Y-79601904D01*
X184399580Y-79601904D02*
X184304342Y-79649523D01*
X184304342Y-79649523D02*
X183494819Y-79649523D01*
X183494819Y-80030476D02*
X183494819Y-80697142D01*
X183494819Y-80697142D02*
X184494819Y-80268571D01*
X181069119Y-78227100D02*
X181307214Y-78227100D01*
X181211976Y-77989005D02*
X181307214Y-78227100D01*
X181307214Y-78227100D02*
X181211976Y-78465195D01*
X181497690Y-78084243D02*
X181307214Y-78227100D01*
X181307214Y-78227100D02*
X181497690Y-78369957D01*
X190078152Y-100490000D02*
X190744819Y-100490000D01*
X189697200Y-100251905D02*
X190411485Y-100013810D01*
X190411485Y-100013810D02*
X190411485Y-100632857D01*
X190744819Y-101061429D02*
X190744819Y-101251905D01*
X190744819Y-101251905D02*
X190697200Y-101347143D01*
X190697200Y-101347143D02*
X190649580Y-101394762D01*
X190649580Y-101394762D02*
X190506723Y-101490000D01*
X190506723Y-101490000D02*
X190316247Y-101537619D01*
X190316247Y-101537619D02*
X189935295Y-101537619D01*
X189935295Y-101537619D02*
X189840057Y-101490000D01*
X189840057Y-101490000D02*
X189792438Y-101442381D01*
X189792438Y-101442381D02*
X189744819Y-101347143D01*
X189744819Y-101347143D02*
X189744819Y-101156667D01*
X189744819Y-101156667D02*
X189792438Y-101061429D01*
X189792438Y-101061429D02*
X189840057Y-101013810D01*
X189840057Y-101013810D02*
X189935295Y-100966191D01*
X189935295Y-100966191D02*
X190173390Y-100966191D01*
X190173390Y-100966191D02*
X190268628Y-101013810D01*
X190268628Y-101013810D02*
X190316247Y-101061429D01*
X190316247Y-101061429D02*
X190363866Y-101156667D01*
X190363866Y-101156667D02*
X190363866Y-101347143D01*
X190363866Y-101347143D02*
X190316247Y-101442381D01*
X190316247Y-101442381D02*
X190268628Y-101490000D01*
X190268628Y-101490000D02*
X190173390Y-101537619D01*
X190649580Y-101966191D02*
X190697200Y-102013810D01*
X190697200Y-102013810D02*
X190744819Y-101966191D01*
X190744819Y-101966191D02*
X190697200Y-101918572D01*
X190697200Y-101918572D02*
X190649580Y-101966191D01*
X190649580Y-101966191D02*
X190744819Y-101966191D01*
X190744819Y-102490000D02*
X190744819Y-102680476D01*
X190744819Y-102680476D02*
X190697200Y-102775714D01*
X190697200Y-102775714D02*
X190649580Y-102823333D01*
X190649580Y-102823333D02*
X190506723Y-102918571D01*
X190506723Y-102918571D02*
X190316247Y-102966190D01*
X190316247Y-102966190D02*
X189935295Y-102966190D01*
X189935295Y-102966190D02*
X189840057Y-102918571D01*
X189840057Y-102918571D02*
X189792438Y-102870952D01*
X189792438Y-102870952D02*
X189744819Y-102775714D01*
X189744819Y-102775714D02*
X189744819Y-102585238D01*
X189744819Y-102585238D02*
X189792438Y-102490000D01*
X189792438Y-102490000D02*
X189840057Y-102442381D01*
X189840057Y-102442381D02*
X189935295Y-102394762D01*
X189935295Y-102394762D02*
X190173390Y-102394762D01*
X190173390Y-102394762D02*
X190268628Y-102442381D01*
X190268628Y-102442381D02*
X190316247Y-102490000D01*
X190316247Y-102490000D02*
X190363866Y-102585238D01*
X190363866Y-102585238D02*
X190363866Y-102775714D01*
X190363866Y-102775714D02*
X190316247Y-102870952D01*
X190316247Y-102870952D02*
X190268628Y-102918571D01*
X190268628Y-102918571D02*
X190173390Y-102966190D01*
D11*
X189041927Y-101232857D02*
X188851451Y-101099524D01*
X189041927Y-101004286D02*
X188641927Y-101004286D01*
X188641927Y-101004286D02*
X188641927Y-101156667D01*
X188641927Y-101156667D02*
X188660975Y-101194762D01*
X188660975Y-101194762D02*
X188680022Y-101213809D01*
X188680022Y-101213809D02*
X188718118Y-101232857D01*
X188718118Y-101232857D02*
X188775260Y-101232857D01*
X188775260Y-101232857D02*
X188813356Y-101213809D01*
X188813356Y-101213809D02*
X188832403Y-101194762D01*
X188832403Y-101194762D02*
X188851451Y-101156667D01*
X188851451Y-101156667D02*
X188851451Y-101004286D01*
X189041927Y-101613809D02*
X189041927Y-101385238D01*
X189041927Y-101499524D02*
X188641927Y-101499524D01*
X188641927Y-101499524D02*
X188699070Y-101461428D01*
X188699070Y-101461428D02*
X188737165Y-101423333D01*
X188737165Y-101423333D02*
X188756213Y-101385238D01*
X189041927Y-101994761D02*
X189041927Y-101766190D01*
X189041927Y-101880476D02*
X188641927Y-101880476D01*
X188641927Y-101880476D02*
X188699070Y-101842380D01*
X188699070Y-101842380D02*
X188737165Y-101804285D01*
X188737165Y-101804285D02*
X188756213Y-101766190D01*
D10*
X207050057Y-71471905D02*
X207002438Y-71519524D01*
X207002438Y-71519524D02*
X206954819Y-71614762D01*
X206954819Y-71614762D02*
X206954819Y-71852857D01*
X206954819Y-71852857D02*
X207002438Y-71948095D01*
X207002438Y-71948095D02*
X207050057Y-71995714D01*
X207050057Y-71995714D02*
X207145295Y-72043333D01*
X207145295Y-72043333D02*
X207240533Y-72043333D01*
X207240533Y-72043333D02*
X207383390Y-71995714D01*
X207383390Y-71995714D02*
X207954819Y-71424286D01*
X207954819Y-71424286D02*
X207954819Y-72043333D01*
X206954819Y-72662381D02*
X206954819Y-72757619D01*
X206954819Y-72757619D02*
X207002438Y-72852857D01*
X207002438Y-72852857D02*
X207050057Y-72900476D01*
X207050057Y-72900476D02*
X207145295Y-72948095D01*
X207145295Y-72948095D02*
X207335771Y-72995714D01*
X207335771Y-72995714D02*
X207573866Y-72995714D01*
X207573866Y-72995714D02*
X207764342Y-72948095D01*
X207764342Y-72948095D02*
X207859580Y-72900476D01*
X207859580Y-72900476D02*
X207907200Y-72852857D01*
X207907200Y-72852857D02*
X207954819Y-72757619D01*
X207954819Y-72757619D02*
X207954819Y-72662381D01*
X207954819Y-72662381D02*
X207907200Y-72567143D01*
X207907200Y-72567143D02*
X207859580Y-72519524D01*
X207859580Y-72519524D02*
X207764342Y-72471905D01*
X207764342Y-72471905D02*
X207573866Y-72424286D01*
X207573866Y-72424286D02*
X207335771Y-72424286D01*
X207335771Y-72424286D02*
X207145295Y-72471905D01*
X207145295Y-72471905D02*
X207050057Y-72519524D01*
X207050057Y-72519524D02*
X207002438Y-72567143D01*
X207002438Y-72567143D02*
X206954819Y-72662381D01*
X206954819Y-73614762D02*
X206954819Y-73710000D01*
X206954819Y-73710000D02*
X207002438Y-73805238D01*
X207002438Y-73805238D02*
X207050057Y-73852857D01*
X207050057Y-73852857D02*
X207145295Y-73900476D01*
X207145295Y-73900476D02*
X207335771Y-73948095D01*
X207335771Y-73948095D02*
X207573866Y-73948095D01*
X207573866Y-73948095D02*
X207764342Y-73900476D01*
X207764342Y-73900476D02*
X207859580Y-73852857D01*
X207859580Y-73852857D02*
X207907200Y-73805238D01*
X207907200Y-73805238D02*
X207954819Y-73710000D01*
X207954819Y-73710000D02*
X207954819Y-73614762D01*
X207954819Y-73614762D02*
X207907200Y-73519524D01*
X207907200Y-73519524D02*
X207859580Y-73471905D01*
X207859580Y-73471905D02*
X207764342Y-73424286D01*
X207764342Y-73424286D02*
X207573866Y-73376667D01*
X207573866Y-73376667D02*
X207335771Y-73376667D01*
X207335771Y-73376667D02*
X207145295Y-73424286D01*
X207145295Y-73424286D02*
X207050057Y-73471905D01*
X207050057Y-73471905D02*
X207002438Y-73519524D01*
X207002438Y-73519524D02*
X206954819Y-73614762D01*
D11*
X206251927Y-72452857D02*
X206061451Y-72319524D01*
X206251927Y-72224286D02*
X205851927Y-72224286D01*
X205851927Y-72224286D02*
X205851927Y-72376667D01*
X205851927Y-72376667D02*
X205870975Y-72414762D01*
X205870975Y-72414762D02*
X205890022Y-72433809D01*
X205890022Y-72433809D02*
X205928118Y-72452857D01*
X205928118Y-72452857D02*
X205985260Y-72452857D01*
X205985260Y-72452857D02*
X206023356Y-72433809D01*
X206023356Y-72433809D02*
X206042403Y-72414762D01*
X206042403Y-72414762D02*
X206061451Y-72376667D01*
X206061451Y-72376667D02*
X206061451Y-72224286D01*
X205890022Y-72605238D02*
X205870975Y-72624286D01*
X205870975Y-72624286D02*
X205851927Y-72662381D01*
X205851927Y-72662381D02*
X205851927Y-72757619D01*
X205851927Y-72757619D02*
X205870975Y-72795714D01*
X205870975Y-72795714D02*
X205890022Y-72814762D01*
X205890022Y-72814762D02*
X205928118Y-72833809D01*
X205928118Y-72833809D02*
X205966213Y-72833809D01*
X205966213Y-72833809D02*
X206023356Y-72814762D01*
X206023356Y-72814762D02*
X206251927Y-72586190D01*
X206251927Y-72586190D02*
X206251927Y-72833809D01*
X205851927Y-72967142D02*
X205851927Y-73233809D01*
X205851927Y-73233809D02*
X206251927Y-73062380D01*
D10*
X205894819Y-87878571D02*
X205894819Y-87307143D01*
X205894819Y-87592857D02*
X204894819Y-87592857D01*
X204894819Y-87592857D02*
X205037676Y-87497619D01*
X205037676Y-87497619D02*
X205132914Y-87402381D01*
X205132914Y-87402381D02*
X205180533Y-87307143D01*
X204894819Y-88783333D02*
X204894819Y-88307143D01*
X204894819Y-88307143D02*
X205371009Y-88259524D01*
X205371009Y-88259524D02*
X205323390Y-88307143D01*
X205323390Y-88307143D02*
X205275771Y-88402381D01*
X205275771Y-88402381D02*
X205275771Y-88640476D01*
X205275771Y-88640476D02*
X205323390Y-88735714D01*
X205323390Y-88735714D02*
X205371009Y-88783333D01*
X205371009Y-88783333D02*
X205466247Y-88830952D01*
X205466247Y-88830952D02*
X205704342Y-88830952D01*
X205704342Y-88830952D02*
X205799580Y-88783333D01*
X205799580Y-88783333D02*
X205847200Y-88735714D01*
X205847200Y-88735714D02*
X205894819Y-88640476D01*
X205894819Y-88640476D02*
X205894819Y-88402381D01*
X205894819Y-88402381D02*
X205847200Y-88307143D01*
X205847200Y-88307143D02*
X205799580Y-88259524D01*
X204894819Y-89450000D02*
X204894819Y-89545238D01*
X204894819Y-89545238D02*
X204942438Y-89640476D01*
X204942438Y-89640476D02*
X204990057Y-89688095D01*
X204990057Y-89688095D02*
X205085295Y-89735714D01*
X205085295Y-89735714D02*
X205275771Y-89783333D01*
X205275771Y-89783333D02*
X205513866Y-89783333D01*
X205513866Y-89783333D02*
X205704342Y-89735714D01*
X205704342Y-89735714D02*
X205799580Y-89688095D01*
X205799580Y-89688095D02*
X205847200Y-89640476D01*
X205847200Y-89640476D02*
X205894819Y-89545238D01*
X205894819Y-89545238D02*
X205894819Y-89450000D01*
X205894819Y-89450000D02*
X205847200Y-89354762D01*
X205847200Y-89354762D02*
X205799580Y-89307143D01*
X205799580Y-89307143D02*
X205704342Y-89259524D01*
X205704342Y-89259524D02*
X205513866Y-89211905D01*
X205513866Y-89211905D02*
X205275771Y-89211905D01*
X205275771Y-89211905D02*
X205085295Y-89259524D01*
X205085295Y-89259524D02*
X204990057Y-89307143D01*
X204990057Y-89307143D02*
X204942438Y-89354762D01*
X204942438Y-89354762D02*
X204894819Y-89450000D01*
X205894819Y-90211905D02*
X204894819Y-90211905D01*
X205513866Y-90307143D02*
X205894819Y-90592857D01*
X205228152Y-90592857D02*
X205609104Y-90211905D01*
D11*
X207051927Y-88692857D02*
X206861451Y-88559524D01*
X207051927Y-88464286D02*
X206651927Y-88464286D01*
X206651927Y-88464286D02*
X206651927Y-88616667D01*
X206651927Y-88616667D02*
X206670975Y-88654762D01*
X206670975Y-88654762D02*
X206690022Y-88673809D01*
X206690022Y-88673809D02*
X206728118Y-88692857D01*
X206728118Y-88692857D02*
X206785260Y-88692857D01*
X206785260Y-88692857D02*
X206823356Y-88673809D01*
X206823356Y-88673809D02*
X206842403Y-88654762D01*
X206842403Y-88654762D02*
X206861451Y-88616667D01*
X206861451Y-88616667D02*
X206861451Y-88464286D01*
X206690022Y-88845238D02*
X206670975Y-88864286D01*
X206670975Y-88864286D02*
X206651927Y-88902381D01*
X206651927Y-88902381D02*
X206651927Y-88997619D01*
X206651927Y-88997619D02*
X206670975Y-89035714D01*
X206670975Y-89035714D02*
X206690022Y-89054762D01*
X206690022Y-89054762D02*
X206728118Y-89073809D01*
X206728118Y-89073809D02*
X206766213Y-89073809D01*
X206766213Y-89073809D02*
X206823356Y-89054762D01*
X206823356Y-89054762D02*
X207051927Y-88826190D01*
X207051927Y-88826190D02*
X207051927Y-89073809D01*
X206823356Y-89302380D02*
X206804308Y-89264285D01*
X206804308Y-89264285D02*
X206785260Y-89245238D01*
X206785260Y-89245238D02*
X206747165Y-89226190D01*
X206747165Y-89226190D02*
X206728118Y-89226190D01*
X206728118Y-89226190D02*
X206690022Y-89245238D01*
X206690022Y-89245238D02*
X206670975Y-89264285D01*
X206670975Y-89264285D02*
X206651927Y-89302380D01*
X206651927Y-89302380D02*
X206651927Y-89378571D01*
X206651927Y-89378571D02*
X206670975Y-89416666D01*
X206670975Y-89416666D02*
X206690022Y-89435714D01*
X206690022Y-89435714D02*
X206728118Y-89454761D01*
X206728118Y-89454761D02*
X206747165Y-89454761D01*
X206747165Y-89454761D02*
X206785260Y-89435714D01*
X206785260Y-89435714D02*
X206804308Y-89416666D01*
X206804308Y-89416666D02*
X206823356Y-89378571D01*
X206823356Y-89378571D02*
X206823356Y-89302380D01*
X206823356Y-89302380D02*
X206842403Y-89264285D01*
X206842403Y-89264285D02*
X206861451Y-89245238D01*
X206861451Y-89245238D02*
X206899546Y-89226190D01*
X206899546Y-89226190D02*
X206975737Y-89226190D01*
X206975737Y-89226190D02*
X207013832Y-89245238D01*
X207013832Y-89245238D02*
X207032880Y-89264285D01*
X207032880Y-89264285D02*
X207051927Y-89302380D01*
X207051927Y-89302380D02*
X207051927Y-89378571D01*
X207051927Y-89378571D02*
X207032880Y-89416666D01*
X207032880Y-89416666D02*
X207013832Y-89435714D01*
X207013832Y-89435714D02*
X206975737Y-89454761D01*
X206975737Y-89454761D02*
X206899546Y-89454761D01*
X206899546Y-89454761D02*
X206861451Y-89435714D01*
X206861451Y-89435714D02*
X206842403Y-89416666D01*
X206842403Y-89416666D02*
X206823356Y-89378571D01*
D10*
X153284819Y-95340952D02*
X153284819Y-95436190D01*
X153284819Y-95436190D02*
X153332438Y-95531428D01*
X153332438Y-95531428D02*
X153380057Y-95579047D01*
X153380057Y-95579047D02*
X153475295Y-95626666D01*
X153475295Y-95626666D02*
X153665771Y-95674285D01*
X153665771Y-95674285D02*
X153903866Y-95674285D01*
X153903866Y-95674285D02*
X154094342Y-95626666D01*
X154094342Y-95626666D02*
X154189580Y-95579047D01*
X154189580Y-95579047D02*
X154237200Y-95531428D01*
X154237200Y-95531428D02*
X154284819Y-95436190D01*
X154284819Y-95436190D02*
X154284819Y-95340952D01*
X154284819Y-95340952D02*
X154237200Y-95245714D01*
X154237200Y-95245714D02*
X154189580Y-95198095D01*
X154189580Y-95198095D02*
X154094342Y-95150476D01*
X154094342Y-95150476D02*
X153903866Y-95102857D01*
X153903866Y-95102857D02*
X153665771Y-95102857D01*
X153665771Y-95102857D02*
X153475295Y-95150476D01*
X153475295Y-95150476D02*
X153380057Y-95198095D01*
X153380057Y-95198095D02*
X153332438Y-95245714D01*
X153332438Y-95245714D02*
X153284819Y-95340952D01*
X154189580Y-96102857D02*
X154237200Y-96150476D01*
X154237200Y-96150476D02*
X154284819Y-96102857D01*
X154284819Y-96102857D02*
X154237200Y-96055238D01*
X154237200Y-96055238D02*
X154189580Y-96102857D01*
X154189580Y-96102857D02*
X154284819Y-96102857D01*
X153284819Y-96769523D02*
X153284819Y-96864761D01*
X153284819Y-96864761D02*
X153332438Y-96959999D01*
X153332438Y-96959999D02*
X153380057Y-97007618D01*
X153380057Y-97007618D02*
X153475295Y-97055237D01*
X153475295Y-97055237D02*
X153665771Y-97102856D01*
X153665771Y-97102856D02*
X153903866Y-97102856D01*
X153903866Y-97102856D02*
X154094342Y-97055237D01*
X154094342Y-97055237D02*
X154189580Y-97007618D01*
X154189580Y-97007618D02*
X154237200Y-96959999D01*
X154237200Y-96959999D02*
X154284819Y-96864761D01*
X154284819Y-96864761D02*
X154284819Y-96769523D01*
X154284819Y-96769523D02*
X154237200Y-96674285D01*
X154237200Y-96674285D02*
X154189580Y-96626666D01*
X154189580Y-96626666D02*
X154094342Y-96579047D01*
X154094342Y-96579047D02*
X153903866Y-96531428D01*
X153903866Y-96531428D02*
X153665771Y-96531428D01*
X153665771Y-96531428D02*
X153475295Y-96579047D01*
X153475295Y-96579047D02*
X153380057Y-96626666D01*
X153380057Y-96626666D02*
X153332438Y-96674285D01*
X153332438Y-96674285D02*
X153284819Y-96769523D01*
X154284819Y-98055237D02*
X154284819Y-97483809D01*
X154284819Y-97769523D02*
X153284819Y-97769523D01*
X153284819Y-97769523D02*
X153427676Y-97674285D01*
X153427676Y-97674285D02*
X153522914Y-97579047D01*
X153522914Y-97579047D02*
X153570533Y-97483809D01*
X153618152Y-98912380D02*
X154284819Y-98912380D01*
X153618152Y-98483809D02*
X154141961Y-98483809D01*
X154141961Y-98483809D02*
X154237200Y-98531428D01*
X154237200Y-98531428D02*
X154284819Y-98626666D01*
X154284819Y-98626666D02*
X154284819Y-98769523D01*
X154284819Y-98769523D02*
X154237200Y-98864761D01*
X154237200Y-98864761D02*
X154189580Y-98912380D01*
X153761009Y-99721904D02*
X153761009Y-99388571D01*
X154284819Y-99388571D02*
X153284819Y-99388571D01*
X153284819Y-99388571D02*
X153284819Y-99864761D01*
D11*
X152543832Y-97393333D02*
X152562880Y-97374285D01*
X152562880Y-97374285D02*
X152581927Y-97317143D01*
X152581927Y-97317143D02*
X152581927Y-97279047D01*
X152581927Y-97279047D02*
X152562880Y-97221904D01*
X152562880Y-97221904D02*
X152524784Y-97183809D01*
X152524784Y-97183809D02*
X152486689Y-97164762D01*
X152486689Y-97164762D02*
X152410499Y-97145714D01*
X152410499Y-97145714D02*
X152353356Y-97145714D01*
X152353356Y-97145714D02*
X152277165Y-97164762D01*
X152277165Y-97164762D02*
X152239070Y-97183809D01*
X152239070Y-97183809D02*
X152200975Y-97221904D01*
X152200975Y-97221904D02*
X152181927Y-97279047D01*
X152181927Y-97279047D02*
X152181927Y-97317143D01*
X152181927Y-97317143D02*
X152200975Y-97374285D01*
X152200975Y-97374285D02*
X152220022Y-97393333D01*
X152581927Y-97774285D02*
X152581927Y-97545714D01*
X152581927Y-97660000D02*
X152181927Y-97660000D01*
X152181927Y-97660000D02*
X152239070Y-97621904D01*
X152239070Y-97621904D02*
X152277165Y-97583809D01*
X152277165Y-97583809D02*
X152296213Y-97545714D01*
D10*
X179464819Y-95550952D02*
X179464819Y-95646190D01*
X179464819Y-95646190D02*
X179512438Y-95741428D01*
X179512438Y-95741428D02*
X179560057Y-95789047D01*
X179560057Y-95789047D02*
X179655295Y-95836666D01*
X179655295Y-95836666D02*
X179845771Y-95884285D01*
X179845771Y-95884285D02*
X180083866Y-95884285D01*
X180083866Y-95884285D02*
X180274342Y-95836666D01*
X180274342Y-95836666D02*
X180369580Y-95789047D01*
X180369580Y-95789047D02*
X180417200Y-95741428D01*
X180417200Y-95741428D02*
X180464819Y-95646190D01*
X180464819Y-95646190D02*
X180464819Y-95550952D01*
X180464819Y-95550952D02*
X180417200Y-95455714D01*
X180417200Y-95455714D02*
X180369580Y-95408095D01*
X180369580Y-95408095D02*
X180274342Y-95360476D01*
X180274342Y-95360476D02*
X180083866Y-95312857D01*
X180083866Y-95312857D02*
X179845771Y-95312857D01*
X179845771Y-95312857D02*
X179655295Y-95360476D01*
X179655295Y-95360476D02*
X179560057Y-95408095D01*
X179560057Y-95408095D02*
X179512438Y-95455714D01*
X179512438Y-95455714D02*
X179464819Y-95550952D01*
X180369580Y-96312857D02*
X180417200Y-96360476D01*
X180417200Y-96360476D02*
X180464819Y-96312857D01*
X180464819Y-96312857D02*
X180417200Y-96265238D01*
X180417200Y-96265238D02*
X180369580Y-96312857D01*
X180369580Y-96312857D02*
X180464819Y-96312857D01*
X179464819Y-96979523D02*
X179464819Y-97074761D01*
X179464819Y-97074761D02*
X179512438Y-97169999D01*
X179512438Y-97169999D02*
X179560057Y-97217618D01*
X179560057Y-97217618D02*
X179655295Y-97265237D01*
X179655295Y-97265237D02*
X179845771Y-97312856D01*
X179845771Y-97312856D02*
X180083866Y-97312856D01*
X180083866Y-97312856D02*
X180274342Y-97265237D01*
X180274342Y-97265237D02*
X180369580Y-97217618D01*
X180369580Y-97217618D02*
X180417200Y-97169999D01*
X180417200Y-97169999D02*
X180464819Y-97074761D01*
X180464819Y-97074761D02*
X180464819Y-96979523D01*
X180464819Y-96979523D02*
X180417200Y-96884285D01*
X180417200Y-96884285D02*
X180369580Y-96836666D01*
X180369580Y-96836666D02*
X180274342Y-96789047D01*
X180274342Y-96789047D02*
X180083866Y-96741428D01*
X180083866Y-96741428D02*
X179845771Y-96741428D01*
X179845771Y-96741428D02*
X179655295Y-96789047D01*
X179655295Y-96789047D02*
X179560057Y-96836666D01*
X179560057Y-96836666D02*
X179512438Y-96884285D01*
X179512438Y-96884285D02*
X179464819Y-96979523D01*
X180464819Y-98265237D02*
X180464819Y-97693809D01*
X180464819Y-97979523D02*
X179464819Y-97979523D01*
X179464819Y-97979523D02*
X179607676Y-97884285D01*
X179607676Y-97884285D02*
X179702914Y-97789047D01*
X179702914Y-97789047D02*
X179750533Y-97693809D01*
X179798152Y-99122380D02*
X180464819Y-99122380D01*
X179798152Y-98693809D02*
X180321961Y-98693809D01*
X180321961Y-98693809D02*
X180417200Y-98741428D01*
X180417200Y-98741428D02*
X180464819Y-98836666D01*
X180464819Y-98836666D02*
X180464819Y-98979523D01*
X180464819Y-98979523D02*
X180417200Y-99074761D01*
X180417200Y-99074761D02*
X180369580Y-99122380D01*
X179941009Y-99931904D02*
X179941009Y-99598571D01*
X180464819Y-99598571D02*
X179464819Y-99598571D01*
X179464819Y-99598571D02*
X179464819Y-100074761D01*
D11*
X178723832Y-97603333D02*
X178742880Y-97584285D01*
X178742880Y-97584285D02*
X178761927Y-97527143D01*
X178761927Y-97527143D02*
X178761927Y-97489047D01*
X178761927Y-97489047D02*
X178742880Y-97431904D01*
X178742880Y-97431904D02*
X178704784Y-97393809D01*
X178704784Y-97393809D02*
X178666689Y-97374762D01*
X178666689Y-97374762D02*
X178590499Y-97355714D01*
X178590499Y-97355714D02*
X178533356Y-97355714D01*
X178533356Y-97355714D02*
X178457165Y-97374762D01*
X178457165Y-97374762D02*
X178419070Y-97393809D01*
X178419070Y-97393809D02*
X178380975Y-97431904D01*
X178380975Y-97431904D02*
X178361927Y-97489047D01*
X178361927Y-97489047D02*
X178361927Y-97527143D01*
X178361927Y-97527143D02*
X178380975Y-97584285D01*
X178380975Y-97584285D02*
X178400022Y-97603333D01*
X178495260Y-97946190D02*
X178761927Y-97946190D01*
X178342880Y-97850952D02*
X178628594Y-97755714D01*
X178628594Y-97755714D02*
X178628594Y-98003333D01*
D10*
X184444819Y-97054761D02*
X184444819Y-96483333D01*
X184444819Y-96769047D02*
X183444819Y-96769047D01*
X183444819Y-96769047D02*
X183587676Y-96673809D01*
X183587676Y-96673809D02*
X183682914Y-96578571D01*
X183682914Y-96578571D02*
X183730533Y-96483333D01*
X183778152Y-97911904D02*
X184444819Y-97911904D01*
X183778152Y-97483333D02*
X184301961Y-97483333D01*
X184301961Y-97483333D02*
X184397200Y-97530952D01*
X184397200Y-97530952D02*
X184444819Y-97626190D01*
X184444819Y-97626190D02*
X184444819Y-97769047D01*
X184444819Y-97769047D02*
X184397200Y-97864285D01*
X184397200Y-97864285D02*
X184349580Y-97911904D01*
X183921009Y-98721428D02*
X183921009Y-98388095D01*
X184444819Y-98388095D02*
X183444819Y-98388095D01*
X183444819Y-98388095D02*
X183444819Y-98864285D01*
D11*
X182703832Y-97583333D02*
X182722880Y-97564285D01*
X182722880Y-97564285D02*
X182741927Y-97507143D01*
X182741927Y-97507143D02*
X182741927Y-97469047D01*
X182741927Y-97469047D02*
X182722880Y-97411904D01*
X182722880Y-97411904D02*
X182684784Y-97373809D01*
X182684784Y-97373809D02*
X182646689Y-97354762D01*
X182646689Y-97354762D02*
X182570499Y-97335714D01*
X182570499Y-97335714D02*
X182513356Y-97335714D01*
X182513356Y-97335714D02*
X182437165Y-97354762D01*
X182437165Y-97354762D02*
X182399070Y-97373809D01*
X182399070Y-97373809D02*
X182360975Y-97411904D01*
X182360975Y-97411904D02*
X182341927Y-97469047D01*
X182341927Y-97469047D02*
X182341927Y-97507143D01*
X182341927Y-97507143D02*
X182360975Y-97564285D01*
X182360975Y-97564285D02*
X182380022Y-97583333D01*
X182341927Y-97926190D02*
X182341927Y-97850000D01*
X182341927Y-97850000D02*
X182360975Y-97811904D01*
X182360975Y-97811904D02*
X182380022Y-97792857D01*
X182380022Y-97792857D02*
X182437165Y-97754762D01*
X182437165Y-97754762D02*
X182513356Y-97735714D01*
X182513356Y-97735714D02*
X182665737Y-97735714D01*
X182665737Y-97735714D02*
X182703832Y-97754762D01*
X182703832Y-97754762D02*
X182722880Y-97773809D01*
X182722880Y-97773809D02*
X182741927Y-97811904D01*
X182741927Y-97811904D02*
X182741927Y-97888095D01*
X182741927Y-97888095D02*
X182722880Y-97926190D01*
X182722880Y-97926190D02*
X182703832Y-97945238D01*
X182703832Y-97945238D02*
X182665737Y-97964285D01*
X182665737Y-97964285D02*
X182570499Y-97964285D01*
X182570499Y-97964285D02*
X182532403Y-97945238D01*
X182532403Y-97945238D02*
X182513356Y-97926190D01*
X182513356Y-97926190D02*
X182494308Y-97888095D01*
X182494308Y-97888095D02*
X182494308Y-97811904D01*
X182494308Y-97811904D02*
X182513356Y-97773809D01*
X182513356Y-97773809D02*
X182532403Y-97754762D01*
X182532403Y-97754762D02*
X182570499Y-97735714D01*
D10*
X150684819Y-96864761D02*
X150684819Y-96293333D01*
X150684819Y-96579047D02*
X149684819Y-96579047D01*
X149684819Y-96579047D02*
X149827676Y-96483809D01*
X149827676Y-96483809D02*
X149922914Y-96388571D01*
X149922914Y-96388571D02*
X149970533Y-96293333D01*
X150018152Y-97721904D02*
X150684819Y-97721904D01*
X150018152Y-97293333D02*
X150541961Y-97293333D01*
X150541961Y-97293333D02*
X150637200Y-97340952D01*
X150637200Y-97340952D02*
X150684819Y-97436190D01*
X150684819Y-97436190D02*
X150684819Y-97579047D01*
X150684819Y-97579047D02*
X150637200Y-97674285D01*
X150637200Y-97674285D02*
X150589580Y-97721904D01*
X150161009Y-98531428D02*
X150161009Y-98198095D01*
X150684819Y-98198095D02*
X149684819Y-98198095D01*
X149684819Y-98198095D02*
X149684819Y-98674285D01*
D11*
X148943832Y-97393333D02*
X148962880Y-97374285D01*
X148962880Y-97374285D02*
X148981927Y-97317143D01*
X148981927Y-97317143D02*
X148981927Y-97279047D01*
X148981927Y-97279047D02*
X148962880Y-97221904D01*
X148962880Y-97221904D02*
X148924784Y-97183809D01*
X148924784Y-97183809D02*
X148886689Y-97164762D01*
X148886689Y-97164762D02*
X148810499Y-97145714D01*
X148810499Y-97145714D02*
X148753356Y-97145714D01*
X148753356Y-97145714D02*
X148677165Y-97164762D01*
X148677165Y-97164762D02*
X148639070Y-97183809D01*
X148639070Y-97183809D02*
X148600975Y-97221904D01*
X148600975Y-97221904D02*
X148581927Y-97279047D01*
X148581927Y-97279047D02*
X148581927Y-97317143D01*
X148581927Y-97317143D02*
X148600975Y-97374285D01*
X148600975Y-97374285D02*
X148620022Y-97393333D01*
X148581927Y-97526666D02*
X148581927Y-97774285D01*
X148581927Y-97774285D02*
X148734308Y-97640952D01*
X148734308Y-97640952D02*
X148734308Y-97698095D01*
X148734308Y-97698095D02*
X148753356Y-97736190D01*
X148753356Y-97736190D02*
X148772403Y-97755238D01*
X148772403Y-97755238D02*
X148810499Y-97774285D01*
X148810499Y-97774285D02*
X148905737Y-97774285D01*
X148905737Y-97774285D02*
X148943832Y-97755238D01*
X148943832Y-97755238D02*
X148962880Y-97736190D01*
X148962880Y-97736190D02*
X148981927Y-97698095D01*
X148981927Y-97698095D02*
X148981927Y-97583809D01*
X148981927Y-97583809D02*
X148962880Y-97545714D01*
X148962880Y-97545714D02*
X148943832Y-97526666D01*
D10*
X211869524Y-83802200D02*
X211726667Y-83849819D01*
X211726667Y-83849819D02*
X211488572Y-83849819D01*
X211488572Y-83849819D02*
X211393334Y-83802200D01*
X211393334Y-83802200D02*
X211345715Y-83754580D01*
X211345715Y-83754580D02*
X211298096Y-83659342D01*
X211298096Y-83659342D02*
X211298096Y-83564104D01*
X211298096Y-83564104D02*
X211345715Y-83468866D01*
X211345715Y-83468866D02*
X211393334Y-83421247D01*
X211393334Y-83421247D02*
X211488572Y-83373628D01*
X211488572Y-83373628D02*
X211679048Y-83326009D01*
X211679048Y-83326009D02*
X211774286Y-83278390D01*
X211774286Y-83278390D02*
X211821905Y-83230771D01*
X211821905Y-83230771D02*
X211869524Y-83135533D01*
X211869524Y-83135533D02*
X211869524Y-83040295D01*
X211869524Y-83040295D02*
X211821905Y-82945057D01*
X211821905Y-82945057D02*
X211774286Y-82897438D01*
X211774286Y-82897438D02*
X211679048Y-82849819D01*
X211679048Y-82849819D02*
X211440953Y-82849819D01*
X211440953Y-82849819D02*
X211298096Y-82897438D01*
X210917143Y-83802200D02*
X210774286Y-83849819D01*
X210774286Y-83849819D02*
X210536191Y-83849819D01*
X210536191Y-83849819D02*
X210440953Y-83802200D01*
X210440953Y-83802200D02*
X210393334Y-83754580D01*
X210393334Y-83754580D02*
X210345715Y-83659342D01*
X210345715Y-83659342D02*
X210345715Y-83564104D01*
X210345715Y-83564104D02*
X210393334Y-83468866D01*
X210393334Y-83468866D02*
X210440953Y-83421247D01*
X210440953Y-83421247D02*
X210536191Y-83373628D01*
X210536191Y-83373628D02*
X210726667Y-83326009D01*
X210726667Y-83326009D02*
X210821905Y-83278390D01*
X210821905Y-83278390D02*
X210869524Y-83230771D01*
X210869524Y-83230771D02*
X210917143Y-83135533D01*
X210917143Y-83135533D02*
X210917143Y-83040295D01*
X210917143Y-83040295D02*
X210869524Y-82945057D01*
X210869524Y-82945057D02*
X210821905Y-82897438D01*
X210821905Y-82897438D02*
X210726667Y-82849819D01*
X210726667Y-82849819D02*
X210488572Y-82849819D01*
X210488572Y-82849819D02*
X210345715Y-82897438D01*
X209917143Y-83849819D02*
X209917143Y-82849819D01*
X209917143Y-82849819D02*
X209583810Y-83564104D01*
X209583810Y-83564104D02*
X209250477Y-82849819D01*
X209250477Y-82849819D02*
X209250477Y-83849819D01*
X208869524Y-82849819D02*
X208250477Y-82849819D01*
X208250477Y-82849819D02*
X208583810Y-83230771D01*
X208583810Y-83230771D02*
X208440953Y-83230771D01*
X208440953Y-83230771D02*
X208345715Y-83278390D01*
X208345715Y-83278390D02*
X208298096Y-83326009D01*
X208298096Y-83326009D02*
X208250477Y-83421247D01*
X208250477Y-83421247D02*
X208250477Y-83659342D01*
X208250477Y-83659342D02*
X208298096Y-83754580D01*
X208298096Y-83754580D02*
X208345715Y-83802200D01*
X208345715Y-83802200D02*
X208440953Y-83849819D01*
X208440953Y-83849819D02*
X208726667Y-83849819D01*
X208726667Y-83849819D02*
X208821905Y-83802200D01*
X208821905Y-83802200D02*
X208869524Y-83754580D01*
X207821905Y-83849819D02*
X207821905Y-82849819D01*
X207250477Y-83849819D02*
X207679048Y-83278390D01*
X207250477Y-82849819D02*
X207821905Y-83421247D01*
X206298096Y-83849819D02*
X206869524Y-83849819D01*
X206583810Y-83849819D02*
X206583810Y-82849819D01*
X206583810Y-82849819D02*
X206679048Y-82992676D01*
X206679048Y-82992676D02*
X206774286Y-83087914D01*
X206774286Y-83087914D02*
X206869524Y-83135533D01*
X205393334Y-82849819D02*
X205869524Y-82849819D01*
X205869524Y-82849819D02*
X205917143Y-83326009D01*
X205917143Y-83326009D02*
X205869524Y-83278390D01*
X205869524Y-83278390D02*
X205774286Y-83230771D01*
X205774286Y-83230771D02*
X205536191Y-83230771D01*
X205536191Y-83230771D02*
X205440953Y-83278390D01*
X205440953Y-83278390D02*
X205393334Y-83326009D01*
X205393334Y-83326009D02*
X205345715Y-83421247D01*
X205345715Y-83421247D02*
X205345715Y-83659342D01*
X205345715Y-83659342D02*
X205393334Y-83754580D01*
X205393334Y-83754580D02*
X205440953Y-83802200D01*
X205440953Y-83802200D02*
X205536191Y-83849819D01*
X205536191Y-83849819D02*
X205774286Y-83849819D01*
X205774286Y-83849819D02*
X205869524Y-83802200D01*
X205869524Y-83802200D02*
X205917143Y-83754580D01*
X204964762Y-83564104D02*
X204488572Y-83564104D01*
X205060000Y-83849819D02*
X204726667Y-82849819D01*
X204726667Y-82849819D02*
X204393334Y-83849819D01*
X203726667Y-83326009D02*
X204060000Y-83326009D01*
X204060000Y-83849819D02*
X204060000Y-82849819D01*
X204060000Y-82849819D02*
X203583810Y-82849819D01*
X203250476Y-83802200D02*
X203107619Y-83849819D01*
X203107619Y-83849819D02*
X202869524Y-83849819D01*
X202869524Y-83849819D02*
X202774286Y-83802200D01*
X202774286Y-83802200D02*
X202726667Y-83754580D01*
X202726667Y-83754580D02*
X202679048Y-83659342D01*
X202679048Y-83659342D02*
X202679048Y-83564104D01*
X202679048Y-83564104D02*
X202726667Y-83468866D01*
X202726667Y-83468866D02*
X202774286Y-83421247D01*
X202774286Y-83421247D02*
X202869524Y-83373628D01*
X202869524Y-83373628D02*
X203060000Y-83326009D01*
X203060000Y-83326009D02*
X203155238Y-83278390D01*
X203155238Y-83278390D02*
X203202857Y-83230771D01*
X203202857Y-83230771D02*
X203250476Y-83135533D01*
X203250476Y-83135533D02*
X203250476Y-83040295D01*
X203250476Y-83040295D02*
X203202857Y-82945057D01*
X203202857Y-82945057D02*
X203155238Y-82897438D01*
X203155238Y-82897438D02*
X203060000Y-82849819D01*
X203060000Y-82849819D02*
X202821905Y-82849819D01*
X202821905Y-82849819D02*
X202679048Y-82897438D01*
X202488572Y-83945057D02*
X201726667Y-83945057D01*
X201012381Y-83849819D02*
X201488571Y-83849819D01*
X201488571Y-83849819D02*
X201488571Y-82849819D01*
X200345714Y-83326009D02*
X200679047Y-83326009D01*
X200679047Y-83849819D02*
X200679047Y-82849819D01*
X200679047Y-82849819D02*
X200202857Y-82849819D01*
X206869524Y-83849819D02*
X206869524Y-82849819D01*
X206869524Y-82849819D02*
X206536191Y-83564104D01*
X206536191Y-83564104D02*
X206202858Y-82849819D01*
X206202858Y-82849819D02*
X206202858Y-83849819D01*
X205821905Y-82849819D02*
X205202858Y-82849819D01*
X205202858Y-82849819D02*
X205536191Y-83230771D01*
X205536191Y-83230771D02*
X205393334Y-83230771D01*
X205393334Y-83230771D02*
X205298096Y-83278390D01*
X205298096Y-83278390D02*
X205250477Y-83326009D01*
X205250477Y-83326009D02*
X205202858Y-83421247D01*
X205202858Y-83421247D02*
X205202858Y-83659342D01*
X205202858Y-83659342D02*
X205250477Y-83754580D01*
X205250477Y-83754580D02*
X205298096Y-83802200D01*
X205298096Y-83802200D02*
X205393334Y-83849819D01*
X205393334Y-83849819D02*
X205679048Y-83849819D01*
X205679048Y-83849819D02*
X205774286Y-83802200D01*
X205774286Y-83802200D02*
X205821905Y-83754580D01*
D12*
%TO.C,D1*%
X189205600Y-96700400D02*
X188494400Y-96700400D01*
X188494400Y-96700400D02*
X188494400Y-96192400D01*
X189751700Y-96192400D02*
X187948300Y-96192400D01*
X189300850Y-96192400D02*
X189751700Y-95741550D01*
X189205600Y-96192400D02*
X189205600Y-96700400D01*
X188494400Y-96192400D02*
X189205600Y-96192400D01*
X188399150Y-96192400D02*
X187948300Y-95741550D01*
X187948300Y-96192400D02*
X187948300Y-93347600D01*
X189751700Y-93347600D02*
X189751700Y-96192400D01*
X189205600Y-93347600D02*
X188494400Y-93347600D01*
X188494400Y-93347600D02*
X188494400Y-92839600D01*
X187948300Y-93347600D02*
X189751700Y-93347600D01*
X189205600Y-92839600D02*
X189205600Y-93347600D01*
X188494400Y-92839600D02*
X189205600Y-92839600D01*
D13*
%TO.C,C2*%
X150200000Y-96660000D02*
X151000000Y-96660000D01*
X150200000Y-98260000D02*
X150200000Y-96660000D01*
X151000000Y-96660000D02*
X151000000Y-98260000D01*
X151000000Y-98260000D02*
X150200000Y-98260000D01*
%TO.C,R29*%
X205250000Y-85767500D02*
X206850000Y-85767500D01*
X205250000Y-86592500D02*
X205250000Y-85767500D01*
X206850000Y-85767500D02*
X206850000Y-86592500D01*
X206850000Y-86592500D02*
X205250000Y-86592500D01*
%TO.C,R3*%
X152587500Y-79870000D02*
X153412500Y-79870000D01*
X152587500Y-81470000D02*
X152587500Y-79870000D01*
X153412500Y-79870000D02*
X153412500Y-81470000D01*
X153412500Y-81470000D02*
X152587500Y-81470000D01*
%TO.C,C5*%
X180130000Y-96870000D02*
X180930000Y-96870000D01*
X180130000Y-98470000D02*
X180130000Y-96870000D01*
X180930000Y-96870000D02*
X180930000Y-98470000D01*
X180930000Y-98470000D02*
X180130000Y-98470000D01*
D12*
%TO.C,U7*%
X181538100Y-77846100D02*
X186541900Y-77846100D01*
X181538100Y-81833900D02*
X181538100Y-77846100D01*
X181881000Y-76741200D02*
X182389000Y-76741200D01*
X181881000Y-77846100D02*
X181881000Y-76741200D01*
X181881000Y-81833900D02*
X182389000Y-81833900D01*
X181881000Y-82938800D02*
X181881000Y-81833900D01*
X182389000Y-76741200D02*
X182389000Y-77846100D01*
X182389000Y-77846100D02*
X181881000Y-77846100D01*
X182389000Y-81833900D02*
X182389000Y-82938800D01*
X182389000Y-82938800D02*
X181881000Y-82938800D01*
X183151000Y-76741200D02*
X183659000Y-76741200D01*
X183151000Y-77846100D02*
X183151000Y-76741200D01*
X183151000Y-81833900D02*
X183659000Y-81833900D01*
X183151000Y-82938800D02*
X183151000Y-81833900D01*
X183659000Y-76741200D02*
X183659000Y-77846100D01*
X183659000Y-77846100D02*
X183151000Y-77846100D01*
X183659000Y-81833900D02*
X183659000Y-82938800D01*
X183659000Y-82938800D02*
X183151000Y-82938800D01*
X184421000Y-76741200D02*
X184929000Y-76741200D01*
X184421000Y-77846100D02*
X184421000Y-76741200D01*
X184421000Y-81833900D02*
X184929000Y-81833900D01*
X184421000Y-82938800D02*
X184421000Y-81833900D01*
X184929000Y-76741200D02*
X184929000Y-77846100D01*
X184929000Y-77846100D02*
X184421000Y-77846100D01*
X184929000Y-81833900D02*
X184929000Y-82938800D01*
X184929000Y-82938800D02*
X184421000Y-82938800D01*
X185691000Y-76741200D02*
X186199000Y-76741200D01*
X185691000Y-77846100D02*
X185691000Y-76741200D01*
X185691000Y-81833900D02*
X186199000Y-81833900D01*
X185691000Y-82938800D02*
X185691000Y-81833900D01*
X186199000Y-76741200D02*
X186199000Y-77846100D01*
X186199000Y-77846100D02*
X185691000Y-77846100D01*
X186199000Y-81833900D02*
X186199000Y-82938800D01*
X186199000Y-82938800D02*
X185691000Y-82938800D01*
X186541900Y-77846100D02*
X186541900Y-81833900D01*
X186541900Y-81833900D02*
X181538100Y-81833900D01*
X181538100Y-79535200D02*
G75*
G02*
X181538100Y-80144800I0J-304800D01*
G01*
D13*
%TO.C,R11*%
X188447500Y-100690000D02*
X189272500Y-100690000D01*
X188447500Y-102290000D02*
X188447500Y-100690000D01*
X189272500Y-100690000D02*
X189272500Y-102290000D01*
X189272500Y-102290000D02*
X188447500Y-102290000D01*
%TO.C,R27*%
X205657500Y-71910000D02*
X206482500Y-71910000D01*
X205657500Y-73510000D02*
X205657500Y-71910000D01*
X206482500Y-71910000D02*
X206482500Y-73510000D01*
X206482500Y-73510000D02*
X205657500Y-73510000D01*
%TO.C,R28*%
X206457500Y-88150000D02*
X207282500Y-88150000D01*
X206457500Y-89750000D02*
X206457500Y-88150000D01*
X207282500Y-88150000D02*
X207282500Y-89750000D01*
X207282500Y-89750000D02*
X206457500Y-89750000D01*
%TO.C,C1*%
X152000000Y-96660000D02*
X152800000Y-96660000D01*
X152000000Y-98260000D02*
X152000000Y-96660000D01*
X152800000Y-96660000D02*
X152800000Y-98260000D01*
X152800000Y-98260000D02*
X152000000Y-98260000D01*
%TO.C,C4*%
X178180000Y-96870000D02*
X178980000Y-96870000D01*
X178180000Y-98470000D02*
X178180000Y-96870000D01*
X178980000Y-96870000D02*
X178980000Y-98470000D01*
X178980000Y-98470000D02*
X178180000Y-98470000D01*
%TO.C,C6*%
X182160000Y-96850000D02*
X182960000Y-96850000D01*
X182160000Y-98450000D02*
X182160000Y-96850000D01*
X182960000Y-96850000D02*
X182960000Y-98450000D01*
X182960000Y-98450000D02*
X182160000Y-98450000D01*
%TO.C,C3*%
X148400000Y-96660000D02*
X149200000Y-96660000D01*
X148400000Y-98260000D02*
X148400000Y-96660000D01*
X149200000Y-96660000D02*
X149200000Y-98260000D01*
X149200000Y-98260000D02*
X148400000Y-98260000D01*
D12*
%TO.C,M3*%
X205260001Y-82995000D02*
X206860001Y-82995000D01*
X205260001Y-83795000D02*
X205260001Y-82995000D01*
X205410001Y-83795000D02*
X205710001Y-83795000D01*
X205410001Y-84295000D02*
X205410001Y-83795000D01*
X205710001Y-83795000D02*
X205710001Y-84295000D01*
X205710001Y-84295000D02*
X205410001Y-84295000D01*
X205910001Y-82495000D02*
X206210001Y-82495000D01*
X205910001Y-82995000D02*
X205910001Y-82495000D01*
X206210001Y-82495000D02*
X206210001Y-82995000D01*
X206210001Y-82995000D02*
X205910001Y-82995000D01*
X206410001Y-83795000D02*
X206710001Y-83795000D01*
X206410001Y-84295000D02*
X206410001Y-83795000D01*
X206710001Y-83795000D02*
X206710001Y-84295000D01*
X206710001Y-84295000D02*
X206410001Y-84295000D01*
X206860001Y-82995000D02*
X206860001Y-83795000D01*
X206860001Y-83795000D02*
X205260001Y-83795000D01*
X206560002Y-83541000D02*
X206560002Y-83541000D01*
X206560002Y-83541000D01*
X206560002Y-83541000D01*
X206560002Y-83541000D01*
X206560002Y-83541000D01*
X206560002Y-83541001D01*
X206560002Y-83541001D01*
X206560002Y-83541001D01*
X206560002Y-83541001D01*
X206560002Y-83541001D01*
X206560002Y-83541001D01*
X206560002Y-83541001D01*
X206560001Y-83541001D01*
X206560001Y-83541001D01*
X206560001Y-83541001D01*
X206560001Y-83541001D01*
X206560001Y-83541001D01*
X206560001Y-83541001D01*
X206560001Y-83541001D01*
X206560001Y-83541001D01*
X206560001Y-83541001D01*
X206560001Y-83541001D01*
X206560001Y-83541001D01*
X206560001Y-83541001D01*
X206560000Y-83541001D01*
X206560000Y-83541001D01*
X206560000Y-83541001D01*
X206560000Y-83541001D01*
X206560000Y-83541001D01*
X206560000Y-83541001D01*
X206560000Y-83541000D01*
X206560000Y-83541000D01*
X206560000Y-83541000D01*
X206560000Y-83541000D01*
X206560000Y-83541000D01*
X206560000Y-83541000D01*
X206560000Y-83541000D02*
X206560000Y-83541000D01*
X206560000Y-83541000D01*
X206560000Y-83541000D01*
X206560000Y-83541000D01*
X206560000Y-83541000D01*
X206560000Y-83541000D01*
X206560000Y-83540999D01*
X206560000Y-83540999D01*
X206560000Y-83540999D01*
X206560000Y-83540999D01*
X206560000Y-83540999D01*
X206560001Y-83540999D01*
X206560001Y-83540999D01*
X206560001Y-83540999D01*
X206560001Y-83540999D01*
X206560001Y-83540999D01*
X206560001Y-83540999D01*
X206560001Y-83540999D01*
X206560001Y-83540999D01*
X206560001Y-83540999D01*
X206560001Y-83540999D01*
X206560001Y-83540999D01*
X206560001Y-83540999D01*
X206560002Y-83540999D01*
X206560002Y-83540999D01*
X206560002Y-83540999D01*
X206560002Y-83540999D01*
X206560002Y-83540999D01*
X206560002Y-83540999D01*
X206560002Y-83541000D01*
X206560002Y-83541000D01*
X206560002Y-83541000D01*
X206560002Y-83541000D01*
X206560002Y-83541000D01*
X206560002Y-83541000D01*
X206560002Y-83541000D01*
%TD*%
M02*
