%TF.GenerationSoftware,KiCad,Pcbnew,9.0.3*%
%TF.CreationDate,2025-09-16T13:04:12-04:00*%
%TF.ProjectId,CAEN_NEVIS_DAQ_12V,4341454e-5f4e-4455-9649-535f4441515f,rev?*%
%TF.SameCoordinates,Original*%
%TF.FileFunction,Copper,L2,Inr*%
%TF.FilePolarity,Positive*%
%FSLAX46Y46*%
G04 Gerber Fmt 4.6, Leading zero omitted, Abs format (unit mm)*
G04 Created by KiCad (PCBNEW 9.0.3) date 2025-09-16 13:04:12*
%MOMM*%
%LPD*%
G01*
G04 APERTURE LIST*
%TA.AperFunction,ComponentPad*%
%ADD10C,1.560000*%
%TD*%
%TA.AperFunction,ComponentPad*%
%ADD11C,4.216000*%
%TD*%
%TA.AperFunction,ComponentPad*%
%ADD12C,6.400000*%
%TD*%
%TA.AperFunction,ComponentPad*%
%ADD13C,1.650000*%
%TD*%
%TA.AperFunction,ComponentPad*%
%ADD14C,2.006600*%
%TD*%
%TA.AperFunction,ComponentPad*%
%ADD15C,2.209800*%
%TD*%
%TA.AperFunction,ComponentPad*%
%ADD16R,2.000000X2.000000*%
%TD*%
%TA.AperFunction,ComponentPad*%
%ADD17C,2.000000*%
%TD*%
%TA.AperFunction,ComponentPad*%
%ADD18C,1.635000*%
%TD*%
%TA.AperFunction,ComponentPad*%
%ADD19C,2.100000*%
%TD*%
%TA.AperFunction,ViaPad*%
%ADD20C,0.600000*%
%TD*%
G04 APERTURE END LIST*
D10*
%TO.N,/V_SEC_RTN*%
%TO.C,J1*%
X82920000Y-96870000D03*
X82920000Y-99640000D03*
%TO.N,unconnected-(J1-Pad3)*%
X82920000Y-102410000D03*
%TO.N,/V_SEC_RTN*%
X82920000Y-105180000D03*
X82920000Y-107950000D03*
%TO.N,/V_SEC_IN*%
X80080000Y-98255000D03*
X80080000Y-101025000D03*
X80080000Y-103795000D03*
X80080000Y-106565000D03*
D11*
%TO.N,GNDPWR*%
X81500000Y-89910000D03*
X81500000Y-114910000D03*
%TD*%
D12*
%TO.N,GNDPWR*%
%TO.C,H4*%
X207000000Y-123000000D03*
%TD*%
D13*
%TO.N,Net-(J10-Pad1)*%
%TO.C,J10*%
X166190000Y-80240000D03*
%TO.N,Net-(U1-REMOTE)*%
X168730000Y-80240000D03*
%TO.N,Net-(J10-Pad3)*%
X171270000Y-80240000D03*
%TD*%
D14*
%TO.N,/P12V_OUT_*%
%TO.C,J4*%
X209360000Y-98310000D03*
D15*
%TO.N,/P12V_RTN*%
X211900000Y-95770000D03*
X206820000Y-95770000D03*
X206820000Y-100850000D03*
X211900000Y-100850000D03*
%TD*%
D12*
%TO.N,GNDPWR*%
%TO.C,H3*%
X79000000Y-123000000D03*
%TD*%
D16*
%TO.N,/Main_DCDC_Converter/V_SEC*%
%TO.C,U1*%
X154980000Y-100150000D03*
D17*
%TO.N,Net-(U1--VIN)*%
X154980000Y-95050000D03*
%TO.N,/P12V_OUT*%
X175280000Y-107850000D03*
%TO.N,/Main_DCDC_Converter/TRIM*%
X175280000Y-97650000D03*
%TO.N,/P12V_RTN*%
X175280000Y-87450000D03*
%TO.N,Net-(U1-REMOTE)*%
X154980000Y-87450000D03*
%TD*%
D12*
%TO.N,GNDPWR*%
%TO.C,H1*%
X79000000Y-44000000D03*
%TD*%
%TO.N,GNDPWR*%
%TO.C,H2*%
X207000000Y-44000000D03*
%TD*%
D18*
%TO.N,/TEMP_MON*%
%TO.C,J2*%
X82920000Y-69540000D03*
%TO.N,/V_TELEM_RTN*%
X82920000Y-66770000D03*
%TO.N,/P12V_I_MON*%
X82920000Y-64000000D03*
%TO.N,/V_TELEM_RTN*%
X82920000Y-61230000D03*
%TO.N,/ENABLE-*%
X82920000Y-58460000D03*
%TO.N,/V_TELEM_RTN*%
X80080000Y-68155000D03*
%TO.N,/P12V_V_MON*%
X80080000Y-65385000D03*
%TO.N,/V_TELEM_RTN*%
X80080000Y-62615000D03*
%TO.N,/ENABLE+*%
X80080000Y-59845000D03*
D11*
%TO.N,GNDPWR*%
X81500000Y-51500000D03*
X81500000Y-76500000D03*
%TD*%
D19*
%TO.N,/V_TELEM_IN*%
%TO.C,J3*%
X149890000Y-47150000D03*
%TO.N,/V_TELEM_RTN*%
X146080000Y-47150000D03*
%TO.N,/V_TELEM_IN*%
X142270000Y-47150000D03*
%TD*%
D20*
%TO.N,/Main_DCDC_Converter/V_SEC*%
X149990000Y-83870000D03*
X151120000Y-81490000D03*
%TO.N,/P12V_OUT*%
X183520000Y-102310000D03*
%TO.N,/P12V_RTN*%
X183540000Y-93140000D03*
%TO.N,/V_SEC_RTN*%
X195000000Y-105000000D03*
X125000000Y-105000000D03*
X112500000Y-122500000D03*
X145000000Y-112500000D03*
X197500000Y-102500000D03*
X200000000Y-90000000D03*
X95000000Y-87500000D03*
X135000000Y-120000000D03*
X202500000Y-117500000D03*
X97500000Y-102500000D03*
X102500000Y-120000000D03*
X165000000Y-120000000D03*
X97500000Y-90000000D03*
X137500000Y-115000000D03*
X167500000Y-125000000D03*
X132500000Y-80000000D03*
X180000000Y-75000000D03*
X97500000Y-95000000D03*
X197500000Y-112500000D03*
X95000000Y-115000000D03*
X180000000Y-90000000D03*
X170000000Y-117500000D03*
X100000000Y-102500000D03*
X177500000Y-115000000D03*
X117500000Y-110000000D03*
X197500000Y-107500000D03*
X95000000Y-105000000D03*
X172500000Y-77500000D03*
X142500000Y-115000000D03*
X90000000Y-122500000D03*
X207500000Y-117500000D03*
X135000000Y-80000000D03*
X95000000Y-125000000D03*
X200000000Y-112500000D03*
X112500000Y-110000000D03*
X200000000Y-87500000D03*
X95000000Y-102500000D03*
X87500000Y-97500000D03*
X132500000Y-82500000D03*
X130000000Y-107500000D03*
X135000000Y-117500000D03*
X200000000Y-120000000D03*
X98527500Y-105000000D03*
X160000000Y-122500000D03*
X90000000Y-105000000D03*
X110000000Y-90000000D03*
X182500000Y-87500000D03*
X118830000Y-86880000D03*
X127500000Y-105000000D03*
X105000000Y-125000000D03*
X147500000Y-117500000D03*
X170000000Y-120000000D03*
X155000000Y-122500000D03*
X182500000Y-112500000D03*
X97500000Y-117500000D03*
X87500000Y-102500000D03*
X185000000Y-115000000D03*
X180000000Y-110000000D03*
X202500000Y-110000000D03*
X117500000Y-122500000D03*
X142500000Y-85000000D03*
X87500000Y-112500000D03*
X207500000Y-115000000D03*
X190000000Y-110000000D03*
X180000000Y-80000000D03*
X205000000Y-107500000D03*
X202500000Y-125000000D03*
X120000000Y-112500000D03*
X200000000Y-95000000D03*
X212500000Y-107500000D03*
X192500000Y-115000000D03*
X185000000Y-105000000D03*
X92500000Y-105000000D03*
X185000000Y-90000000D03*
X90000000Y-125000000D03*
X165000000Y-115000000D03*
X107500000Y-87500000D03*
X112500000Y-107500000D03*
X175000000Y-112500000D03*
X197500000Y-125000000D03*
X170000000Y-75000000D03*
X170000000Y-115000000D03*
X175000000Y-117500000D03*
X115000000Y-112500000D03*
X165000000Y-77500000D03*
X95000000Y-110000000D03*
X212500000Y-110000000D03*
X177500000Y-77500000D03*
X120000000Y-107500000D03*
X140000000Y-115000000D03*
X160000000Y-112500000D03*
X195000000Y-92500000D03*
X202500000Y-112500000D03*
X107500000Y-102500000D03*
X210000000Y-105000000D03*
X190000000Y-120000000D03*
X107500000Y-95000000D03*
X147500000Y-110000000D03*
X140000000Y-122500000D03*
X127500000Y-125000000D03*
X115000000Y-122500000D03*
X190000000Y-125000000D03*
X87500000Y-110000000D03*
X210000000Y-110000000D03*
X147500000Y-125000000D03*
X137500000Y-120000000D03*
X112500000Y-125000000D03*
X103950000Y-91210000D03*
X135000000Y-82500000D03*
X112500000Y-112500000D03*
X105000000Y-92500000D03*
X195000000Y-90000000D03*
X195000000Y-102500000D03*
X102500000Y-125000000D03*
X132500000Y-122500000D03*
X90000000Y-90000000D03*
X145000000Y-77500000D03*
X95000000Y-120000000D03*
X145000000Y-120000000D03*
X85000000Y-120000000D03*
X132500000Y-117500000D03*
X105000000Y-112500000D03*
X150000000Y-77500000D03*
X140000000Y-80000000D03*
X92500000Y-117500000D03*
X110000000Y-120000000D03*
X142500000Y-112500000D03*
X180000000Y-92500000D03*
X150000000Y-125000000D03*
X180000000Y-77500000D03*
X107500000Y-122500000D03*
X107500000Y-110000000D03*
X190000000Y-107500000D03*
X137500000Y-122500000D03*
X200000000Y-117500000D03*
X142500000Y-117500000D03*
X192500000Y-95000000D03*
X197500000Y-117500000D03*
X117500000Y-117500000D03*
X155000000Y-115000000D03*
X145000000Y-75000000D03*
X207500000Y-105000000D03*
X150000000Y-75000000D03*
X92500000Y-102500000D03*
X152500000Y-125000000D03*
X152500000Y-120000000D03*
X182500000Y-110000000D03*
X140000000Y-85000000D03*
X115000000Y-115000000D03*
X172500000Y-122500000D03*
X95000000Y-112500000D03*
X145000000Y-85000000D03*
X120000000Y-105000000D03*
X102500000Y-102500000D03*
X100000000Y-90000000D03*
X87500000Y-115000000D03*
X177500000Y-125000000D03*
X103950000Y-89710000D03*
X135000000Y-112500000D03*
X192500000Y-87500000D03*
X172500000Y-115000000D03*
X95000000Y-90000000D03*
X192500000Y-120000000D03*
X102200000Y-88210000D03*
X192500000Y-122500000D03*
X175000000Y-122500000D03*
X195000000Y-125000000D03*
X100027500Y-106500000D03*
X147500000Y-122500000D03*
X190000000Y-115000000D03*
X87500000Y-90000000D03*
X105000000Y-110000000D03*
X147500000Y-82500000D03*
X145000000Y-110000000D03*
X100000000Y-112500000D03*
X115000000Y-105000000D03*
X142500000Y-125000000D03*
X105000000Y-117500000D03*
X122500000Y-107500000D03*
X142500000Y-122500000D03*
X197500000Y-90000000D03*
X122500000Y-110000000D03*
X187500000Y-105000000D03*
X145000000Y-125000000D03*
X162500000Y-75000000D03*
X117500000Y-105000000D03*
X210000000Y-112500000D03*
X205000000Y-105000000D03*
X182500000Y-122500000D03*
X185000000Y-112500000D03*
X95000000Y-117500000D03*
X210000000Y-115000000D03*
X170000000Y-77500000D03*
X147500000Y-112500000D03*
X150000000Y-120000000D03*
X202500000Y-102500000D03*
X165000000Y-117500000D03*
X87500000Y-105000000D03*
X142500000Y-75000000D03*
X117500000Y-125000000D03*
X101527500Y-105000000D03*
X110000000Y-110000000D03*
X147500000Y-120000000D03*
X92500000Y-107500000D03*
X187500000Y-120000000D03*
X212500000Y-105000000D03*
X110000000Y-87500000D03*
X180000000Y-102500000D03*
X170000000Y-122500000D03*
X102500000Y-110000000D03*
X187500000Y-125000000D03*
X92500000Y-92500000D03*
X187500000Y-117500000D03*
X135000000Y-122500000D03*
X105000000Y-95000000D03*
X180000000Y-117500000D03*
X125000000Y-110000000D03*
X100000000Y-120000000D03*
X115000000Y-107500000D03*
X175000000Y-120000000D03*
X90000000Y-92500000D03*
X130000000Y-77500000D03*
X85000000Y-122500000D03*
X202500000Y-92500000D03*
X167500000Y-112500000D03*
X177500000Y-75000000D03*
X182500000Y-117500000D03*
X97500000Y-125000000D03*
X95000000Y-92500000D03*
X112500000Y-115000000D03*
X182500000Y-115000000D03*
X192500000Y-117500000D03*
X140000000Y-112500000D03*
X90000000Y-120000000D03*
X197500000Y-87500000D03*
X130000000Y-87500000D03*
X137500000Y-125000000D03*
X192500000Y-90000000D03*
X192500000Y-107500000D03*
X160000000Y-120000000D03*
X140000000Y-125000000D03*
X160000000Y-80000000D03*
X87500000Y-122500000D03*
X87500000Y-117500000D03*
X92500000Y-97500000D03*
X140000000Y-117500000D03*
X147500000Y-85000000D03*
X192500000Y-105000000D03*
X102200000Y-89710000D03*
X155000000Y-120000000D03*
X202500000Y-120000000D03*
X100000000Y-110000000D03*
X87500000Y-92500000D03*
X167500000Y-75000000D03*
X187500000Y-110000000D03*
X105000000Y-120000000D03*
X127500000Y-110000000D03*
X152500000Y-115000000D03*
X172500000Y-125000000D03*
X132500000Y-110000000D03*
X97500000Y-110000000D03*
X175000000Y-115000000D03*
X100000000Y-125000000D03*
X212500000Y-90000000D03*
X92500000Y-112500000D03*
X92500000Y-100000000D03*
X200000000Y-110000000D03*
X140000000Y-120000000D03*
X97500000Y-87500000D03*
X152500000Y-122500000D03*
X115000000Y-110000000D03*
X177500000Y-117500000D03*
X87500000Y-87500000D03*
X87500000Y-120000000D03*
X122500000Y-125000000D03*
X122500000Y-105000000D03*
X112500000Y-90000000D03*
X167500000Y-77500000D03*
X185000000Y-110000000D03*
X180000000Y-112500000D03*
X125000000Y-112500000D03*
X170000000Y-112500000D03*
X160000000Y-125000000D03*
X157500000Y-117500000D03*
X155000000Y-75000000D03*
X192500000Y-125000000D03*
X175000000Y-75000000D03*
X185000000Y-107500000D03*
X172500000Y-117500000D03*
X160000000Y-75000000D03*
X90000000Y-102500000D03*
X127500000Y-112500000D03*
X210000000Y-107500000D03*
X130000000Y-112500000D03*
X162500000Y-125000000D03*
X157500000Y-75000000D03*
X155000000Y-117500000D03*
X200000000Y-107500000D03*
X100000000Y-117500000D03*
X165000000Y-112500000D03*
X182500000Y-125000000D03*
X122500000Y-112500000D03*
X102500000Y-122500000D03*
X142500000Y-77500000D03*
X137500000Y-117500000D03*
X125000000Y-87500000D03*
X90000000Y-117500000D03*
X205000000Y-112500000D03*
X101527500Y-106500000D03*
X170000000Y-82500000D03*
X140000000Y-77500000D03*
X165000000Y-75000000D03*
X172500000Y-75000000D03*
X110000000Y-95000000D03*
X190000000Y-122500000D03*
X92500000Y-110000000D03*
X152500000Y-75000000D03*
X202500000Y-115000000D03*
X202500000Y-90000000D03*
X92500000Y-125000000D03*
X115000000Y-87500000D03*
X157500000Y-125000000D03*
X159260000Y-82110000D03*
X160000000Y-115000000D03*
X98527500Y-106500000D03*
X167500000Y-122500000D03*
X207500000Y-112500000D03*
X107500000Y-120000000D03*
X180000000Y-120000000D03*
X132500000Y-115000000D03*
X130000000Y-125000000D03*
X127500000Y-107500000D03*
X122500000Y-87500000D03*
X185000000Y-117500000D03*
X100027500Y-105000000D03*
X202500000Y-87500000D03*
X135000000Y-110000000D03*
X190000000Y-90000000D03*
X187500000Y-112500000D03*
X117500000Y-115000000D03*
X180000000Y-115000000D03*
X165000000Y-122500000D03*
X87500000Y-100000000D03*
X155000000Y-112500000D03*
X100000000Y-95000000D03*
X190000000Y-105000000D03*
X145000000Y-117500000D03*
X105000000Y-115000000D03*
X125000000Y-107500000D03*
X192500000Y-112500000D03*
X195000000Y-112500000D03*
X177500000Y-120000000D03*
X197500000Y-105000000D03*
X175000000Y-125000000D03*
X142500000Y-120000000D03*
X92500000Y-87500000D03*
X130000000Y-105000000D03*
X97500000Y-122500000D03*
X172500000Y-112500000D03*
X117500000Y-120000000D03*
X150000000Y-112500000D03*
X212500000Y-117500000D03*
X97500000Y-112500000D03*
X155000000Y-125000000D03*
X132500000Y-120000000D03*
X152500000Y-112500000D03*
X135000000Y-75000000D03*
X195000000Y-115000000D03*
X157500000Y-122500000D03*
X132500000Y-125000000D03*
X100000000Y-87500000D03*
X110000000Y-112500000D03*
X180000000Y-122500000D03*
X95000000Y-107500000D03*
X110000000Y-122500000D03*
X102500000Y-117500000D03*
X190000000Y-87500000D03*
X157500000Y-112500000D03*
X195000000Y-87500000D03*
X110000000Y-117500000D03*
X172500000Y-120000000D03*
X112500000Y-117500000D03*
X115000000Y-120000000D03*
X170000000Y-125000000D03*
X185000000Y-122500000D03*
X102500000Y-112500000D03*
X200000000Y-102500000D03*
X197500000Y-120000000D03*
X145000000Y-80000000D03*
X187500000Y-90000000D03*
X102500000Y-115000000D03*
X172500000Y-82500000D03*
X103950000Y-88210000D03*
X100000000Y-115000000D03*
X140000000Y-110000000D03*
X190000000Y-112500000D03*
X180000000Y-105000000D03*
X87500000Y-107500000D03*
X130000000Y-110000000D03*
X200000000Y-115000000D03*
X97500000Y-120000000D03*
X107500000Y-92500000D03*
X117500000Y-112500000D03*
X137500000Y-110000000D03*
X205000000Y-110000000D03*
X112500000Y-105000000D03*
X200000000Y-125000000D03*
X107500000Y-112500000D03*
X100000000Y-122500000D03*
X117500000Y-107500000D03*
X162500000Y-112500000D03*
X160000000Y-117500000D03*
X135000000Y-115000000D03*
X95000000Y-122500000D03*
X205000000Y-117500000D03*
X195000000Y-107500000D03*
X102500000Y-92500000D03*
X190000000Y-117500000D03*
X212500000Y-112500000D03*
X145000000Y-122500000D03*
X210000000Y-117500000D03*
X175000000Y-77500000D03*
X197500000Y-110000000D03*
X146670000Y-79410000D03*
X127500000Y-87500000D03*
X102200000Y-91210000D03*
X212500000Y-87500000D03*
X97500000Y-92500000D03*
X110000000Y-125000000D03*
X92500000Y-120000000D03*
X187500000Y-115000000D03*
X92500000Y-95000000D03*
X145000000Y-115000000D03*
X202500000Y-107500000D03*
X200000000Y-122500000D03*
X202500000Y-95000000D03*
X90000000Y-107500000D03*
X116930000Y-86880000D03*
X197500000Y-92500000D03*
X162500000Y-117500000D03*
X112500000Y-102500000D03*
X105000000Y-102500000D03*
X207500000Y-110000000D03*
X150000000Y-110000000D03*
X90000000Y-112500000D03*
X137500000Y-82500000D03*
X142500000Y-110000000D03*
X177500000Y-122500000D03*
X162500000Y-77500000D03*
X112500000Y-87500000D03*
X157500000Y-115000000D03*
X212500000Y-115000000D03*
X137500000Y-80000000D03*
X205000000Y-115000000D03*
X137500000Y-112500000D03*
X130000000Y-82500000D03*
X132500000Y-112500000D03*
X92500000Y-90000000D03*
X212500000Y-92500000D03*
X130000000Y-75000000D03*
X180000000Y-82500000D03*
X107500000Y-125000000D03*
X90000000Y-95000000D03*
X90000000Y-115000000D03*
X112500000Y-92500000D03*
X195000000Y-120000000D03*
X182500000Y-120000000D03*
X150000000Y-115000000D03*
X162500000Y-120000000D03*
X185000000Y-120000000D03*
X135000000Y-125000000D03*
X202500000Y-122500000D03*
X107500000Y-117500000D03*
X97500000Y-115000000D03*
X197500000Y-115000000D03*
X130000000Y-80000000D03*
X115000000Y-125000000D03*
X100000000Y-92500000D03*
X120000000Y-110000000D03*
X142500000Y-80000000D03*
X115000000Y-117500000D03*
X162500000Y-122500000D03*
X125000000Y-125000000D03*
X90000000Y-87500000D03*
X120000000Y-125000000D03*
X207500000Y-107500000D03*
X187500000Y-87500000D03*
X180000000Y-125000000D03*
X145000000Y-82500000D03*
X110000000Y-115000000D03*
X180000000Y-100000000D03*
X167500000Y-120000000D03*
X132500000Y-75000000D03*
X192500000Y-102500000D03*
X165000000Y-125000000D03*
X140000000Y-82500000D03*
X195000000Y-110000000D03*
X92500000Y-122500000D03*
X92500000Y-115000000D03*
X90000000Y-100000000D03*
X112500000Y-120000000D03*
X137500000Y-75000000D03*
X150000000Y-122500000D03*
X187500000Y-122500000D03*
X187500000Y-107500000D03*
X135000000Y-77500000D03*
X90000000Y-110000000D03*
X162500000Y-115000000D03*
X185000000Y-87500000D03*
X197500000Y-122500000D03*
X107500000Y-115000000D03*
X195000000Y-117500000D03*
X137500000Y-77500000D03*
X102500000Y-95000000D03*
X105000000Y-122500000D03*
X178380000Y-80220000D03*
X167500000Y-117500000D03*
X167500000Y-115000000D03*
X87500000Y-125000000D03*
X185000000Y-125000000D03*
X202500000Y-105000000D03*
X140000000Y-75000000D03*
X150000000Y-117500000D03*
X147500000Y-115000000D03*
X157500000Y-120000000D03*
X177500000Y-112500000D03*
X132500000Y-77500000D03*
X200000000Y-105000000D03*
X85000000Y-125000000D03*
X152500000Y-117500000D03*
X142500000Y-82500000D03*
X192500000Y-110000000D03*
X95000000Y-95000000D03*
X195000000Y-122500000D03*
%TO.N,GNDPWR*%
X175355000Y-83250000D03*
%TO.N,/V_TELEM_RTN*%
X116930000Y-82030000D03*
X115000000Y-77500000D03*
X160000000Y-65000000D03*
X145000000Y-52500000D03*
X180000000Y-52500000D03*
X87500000Y-52500000D03*
X95000000Y-82500000D03*
X92500000Y-80000000D03*
X87500000Y-45000000D03*
X212500000Y-82500000D03*
X202500000Y-50000000D03*
X137500000Y-55000000D03*
X192500000Y-50000000D03*
X175000000Y-50000000D03*
X90000000Y-42500000D03*
X155000000Y-45000000D03*
X157500000Y-55000000D03*
X112500000Y-42500000D03*
X132500000Y-47500000D03*
X105000000Y-62500000D03*
X190000000Y-50000000D03*
X187500000Y-50000000D03*
X125000000Y-45000000D03*
X207500000Y-52500000D03*
X130000000Y-60000000D03*
X120000000Y-52500000D03*
X122500000Y-75000000D03*
X95000000Y-75000000D03*
X180000000Y-55000000D03*
X110000000Y-67500000D03*
X202500000Y-42500000D03*
X162500000Y-47500000D03*
X212500000Y-47500000D03*
X202471400Y-55012500D03*
X137500000Y-62500000D03*
X185000000Y-50000000D03*
X137500000Y-65000000D03*
X167500000Y-47500000D03*
X100000000Y-50000000D03*
X135000000Y-47500000D03*
X105000000Y-82500000D03*
X207500000Y-60000000D03*
X200000000Y-77500000D03*
X147500000Y-52500000D03*
X155000000Y-47500000D03*
X165906200Y-63115000D03*
X122500000Y-82500000D03*
X195000000Y-52500000D03*
X118840000Y-82040000D03*
X100000000Y-67500000D03*
X167500000Y-42500000D03*
X125000000Y-52500000D03*
X157500000Y-52500000D03*
X117500000Y-65000000D03*
X212500000Y-67500000D03*
X175000000Y-52500000D03*
X210000000Y-65000000D03*
X120000000Y-67500000D03*
X205000000Y-50000000D03*
X197500000Y-42500000D03*
X160000000Y-42500000D03*
X197500000Y-47500000D03*
X100000000Y-62500000D03*
X127500000Y-55000000D03*
X97500000Y-75000000D03*
X140000000Y-67500000D03*
X205000000Y-65000000D03*
X102500000Y-77500000D03*
X166926200Y-55545000D03*
X90000000Y-75000000D03*
X87500000Y-67500000D03*
X117500000Y-50000000D03*
X90000000Y-80000000D03*
X200420000Y-81240000D03*
X191450000Y-75370000D03*
X212500000Y-77500000D03*
X137500000Y-50000000D03*
X95000000Y-67500000D03*
X160000000Y-60000000D03*
X200000000Y-75000000D03*
X187500000Y-60000000D03*
X170000000Y-45000000D03*
X197500000Y-77500000D03*
X80000000Y-82500000D03*
X115000000Y-65000000D03*
X162500000Y-42500000D03*
X210000000Y-62500000D03*
X205000000Y-67500000D03*
X192500000Y-47500000D03*
X187500000Y-62500000D03*
X117500000Y-80000000D03*
X110000000Y-75000000D03*
X190000000Y-52500000D03*
X205000000Y-55000000D03*
X192500000Y-72500000D03*
X155000000Y-62500000D03*
X110000000Y-45000000D03*
X178210000Y-58800000D03*
X155000000Y-52500000D03*
X102500000Y-82500000D03*
X182500000Y-42500000D03*
X182500000Y-45000000D03*
X177500000Y-47500000D03*
X97500000Y-60000000D03*
X157500000Y-60000000D03*
X122500000Y-55000000D03*
X207500000Y-57500000D03*
X127500000Y-45000000D03*
X210000000Y-52500000D03*
X190000000Y-57500000D03*
X212500000Y-65000000D03*
X135000000Y-45000000D03*
X120000000Y-45000000D03*
X145000000Y-55000000D03*
X205000000Y-60000000D03*
X135000000Y-50000000D03*
X112500000Y-50000000D03*
X120000000Y-50000000D03*
X135000000Y-67500000D03*
X95000000Y-57500000D03*
X162500000Y-62500000D03*
X167500000Y-45000000D03*
X182500000Y-52500000D03*
X120000000Y-47500000D03*
X197500000Y-50000000D03*
X97500000Y-47500000D03*
X115000000Y-45000000D03*
X200000000Y-42500000D03*
X185000000Y-60000000D03*
X210000000Y-67500000D03*
X190000000Y-47500000D03*
X125000000Y-55000000D03*
X165000000Y-47500000D03*
X112500000Y-77500000D03*
X165000000Y-45000000D03*
X95000000Y-55000000D03*
X110000000Y-82500000D03*
X172500000Y-50000000D03*
X190000000Y-72500000D03*
X182500000Y-50000000D03*
X187500000Y-65000000D03*
X92500000Y-67500000D03*
X85000000Y-42500000D03*
X95000000Y-52500000D03*
X85000000Y-82500000D03*
X160000000Y-62500000D03*
X90000000Y-55000000D03*
X102500000Y-80000000D03*
X175000000Y-45000000D03*
X142500000Y-52500000D03*
X112500000Y-45000000D03*
X207500000Y-65000000D03*
X100000000Y-60000000D03*
X152500000Y-55000000D03*
X130000000Y-45000000D03*
X175000000Y-42500000D03*
X105000000Y-45000000D03*
X97500000Y-50000000D03*
X97500000Y-77500000D03*
X140000000Y-52500000D03*
X212500000Y-72500000D03*
X107500000Y-75000000D03*
X182500000Y-57500000D03*
X82500000Y-82500000D03*
X135000000Y-42500000D03*
X181490000Y-66370000D03*
X115000000Y-75000000D03*
X180000000Y-47500000D03*
X125000000Y-47500000D03*
X100000000Y-42500000D03*
X87500000Y-50000000D03*
X120000000Y-55000000D03*
X115000000Y-50000000D03*
X130000000Y-67500000D03*
X92500000Y-47500000D03*
X165000000Y-50000000D03*
X125000000Y-77500000D03*
X100000000Y-52500000D03*
X192500000Y-77500000D03*
X200000000Y-45000000D03*
X190000000Y-55000000D03*
X160000000Y-55000000D03*
X190750000Y-82800000D03*
X195000000Y-45000000D03*
X132500000Y-62500000D03*
X95000000Y-62500000D03*
X205000000Y-57500000D03*
X100000000Y-45000000D03*
X87500000Y-80000000D03*
X212500000Y-75000000D03*
X165000000Y-42500000D03*
X157500000Y-67500000D03*
X157500000Y-65000000D03*
X180000000Y-45000000D03*
X130000000Y-42500000D03*
X202500000Y-47500000D03*
X185000000Y-47500000D03*
X112500000Y-75000000D03*
X97500000Y-82500000D03*
X155000000Y-50000000D03*
X195000000Y-42500000D03*
X102500000Y-45000000D03*
X130000000Y-50000000D03*
X122500000Y-67500000D03*
X97500000Y-55000000D03*
X205000000Y-52500000D03*
X212500000Y-45000000D03*
X182500000Y-55000000D03*
X92500000Y-52500000D03*
X142500000Y-65000000D03*
X117500000Y-67500000D03*
X202500000Y-57500000D03*
X185000000Y-45000000D03*
X170000000Y-47500000D03*
X75000000Y-82500000D03*
X172500000Y-52500000D03*
X117500000Y-60000000D03*
X110000000Y-62500000D03*
X135000000Y-52500000D03*
X195000000Y-72500000D03*
X90000000Y-45000000D03*
X117500000Y-75000000D03*
X100000000Y-75000000D03*
X92500000Y-42500000D03*
X160000000Y-52500000D03*
X122500000Y-65000000D03*
X187500000Y-45000000D03*
X111068500Y-55000000D03*
X140000000Y-62500000D03*
X122500000Y-45000000D03*
X127500000Y-65000000D03*
X122500000Y-42500000D03*
X207500000Y-62500000D03*
X155000000Y-42500000D03*
X167500000Y-52500000D03*
X212500000Y-52500000D03*
X197500000Y-75000000D03*
X100000000Y-80000000D03*
X177500000Y-45000000D03*
X125000000Y-80000000D03*
X97500000Y-67500000D03*
X157500000Y-47500000D03*
X100000000Y-77500000D03*
X112500000Y-67500000D03*
X110000000Y-80000000D03*
X177500000Y-55000000D03*
X197500000Y-45000000D03*
X107500000Y-62500000D03*
X102500000Y-67500000D03*
X87500000Y-47500000D03*
X210000000Y-50000000D03*
X170000000Y-52500000D03*
X117500000Y-47500000D03*
X187500000Y-55000000D03*
X132500000Y-65000000D03*
X170000000Y-50000000D03*
X165000000Y-52500000D03*
X195000000Y-47500000D03*
X100000000Y-82500000D03*
X77500000Y-82500000D03*
X122500000Y-60000000D03*
X110000000Y-77500000D03*
X92500000Y-55000000D03*
X100000000Y-47500000D03*
X115000000Y-42500000D03*
X210000000Y-55000000D03*
X127500000Y-52500000D03*
X95000000Y-50000000D03*
X212500000Y-57500000D03*
X167500000Y-50000000D03*
X125000000Y-75000000D03*
X172500000Y-45000000D03*
X135000000Y-55000000D03*
X135000000Y-65000000D03*
X132500000Y-52500000D03*
X95000000Y-42500000D03*
X107500000Y-82500000D03*
X95000000Y-45000000D03*
X87500000Y-55000000D03*
X193731400Y-67562500D03*
X192500000Y-45000000D03*
X117500000Y-45000000D03*
X122500000Y-80000000D03*
X125000000Y-67500000D03*
X127500000Y-50000000D03*
X155000000Y-55000000D03*
X155000000Y-65000000D03*
X115000000Y-47500000D03*
X212500000Y-55000000D03*
X170000000Y-55000000D03*
X144620000Y-62840000D03*
X107500000Y-80000000D03*
X115000000Y-55000000D03*
X160000000Y-47500000D03*
X212500000Y-60000000D03*
X105000000Y-67500000D03*
X105000000Y-77500000D03*
X117500000Y-55000000D03*
X162500000Y-50000000D03*
X212500000Y-50000000D03*
X109220000Y-59540000D03*
X102500000Y-42500000D03*
X125000000Y-82500000D03*
X87500000Y-75000000D03*
X207500000Y-67500000D03*
X107500000Y-67500000D03*
X122500000Y-47500000D03*
X95000000Y-80000000D03*
X162500000Y-52500000D03*
X185000000Y-57500000D03*
X212500000Y-70000000D03*
X200000000Y-50000000D03*
X115000000Y-82500000D03*
X137500000Y-52500000D03*
X125000000Y-50000000D03*
X97500000Y-42500000D03*
X172500000Y-42500000D03*
X192500000Y-55000000D03*
X115000000Y-60000000D03*
X120000000Y-75000000D03*
X152500000Y-62500000D03*
X102500000Y-75000000D03*
X195000000Y-75000000D03*
X187500000Y-70000000D03*
X92500000Y-50000000D03*
X202500000Y-65000000D03*
X177500000Y-50000000D03*
X95000000Y-77500000D03*
X180000000Y-42500000D03*
X90000000Y-52500000D03*
X175000000Y-55000000D03*
X192500000Y-52500000D03*
X157500000Y-45000000D03*
X125000000Y-65000000D03*
X90000000Y-82500000D03*
X117500000Y-42500000D03*
X130000000Y-55000000D03*
X115000000Y-80000000D03*
X132500000Y-45000000D03*
X170000000Y-42500000D03*
X192500000Y-57500000D03*
X92500000Y-77500000D03*
X212500000Y-80000000D03*
X125000000Y-42500000D03*
X192500000Y-42500000D03*
X187500000Y-42500000D03*
X187500000Y-47500000D03*
X190671400Y-59752500D03*
X127500000Y-42500000D03*
X90000000Y-77500000D03*
X105000000Y-80000000D03*
X97500000Y-80000000D03*
X162500000Y-55000000D03*
X187500000Y-52500000D03*
X157500000Y-42500000D03*
X132500000Y-42500000D03*
X95000000Y-60000000D03*
X132500000Y-55000000D03*
X90550000Y-56500000D03*
X162500000Y-45000000D03*
X150000000Y-55000000D03*
X162500000Y-65000000D03*
X155000000Y-60000000D03*
X163210000Y-67340000D03*
X190000000Y-45000000D03*
X200000000Y-72500000D03*
X190000000Y-42500000D03*
X102500000Y-62500000D03*
X190000000Y-65000000D03*
X107500000Y-45000000D03*
X130000000Y-52500000D03*
X212500000Y-62500000D03*
X120000000Y-42500000D03*
X195000000Y-77500000D03*
X185000000Y-52500000D03*
X172500000Y-47500000D03*
X177500000Y-52500000D03*
X157500000Y-62500000D03*
X97500000Y-62500000D03*
X207500000Y-55000000D03*
X127500000Y-67500000D03*
X195000000Y-55000000D03*
X180000000Y-57500000D03*
X177500000Y-42500000D03*
X137500000Y-42500000D03*
X120000000Y-60000000D03*
X130000000Y-65000000D03*
X137500000Y-45000000D03*
X185000000Y-55000000D03*
X157500000Y-50000000D03*
X85000000Y-45000000D03*
X155000000Y-67500000D03*
X142500000Y-55000000D03*
X182500000Y-60000000D03*
X202500000Y-67500000D03*
X92500000Y-82500000D03*
X187500000Y-57500000D03*
X97500000Y-52500000D03*
X132500000Y-67500000D03*
X160000000Y-45000000D03*
X122500000Y-52500000D03*
X210000000Y-57500000D03*
X175510000Y-69570000D03*
X105000000Y-75000000D03*
X152500000Y-52500000D03*
X207500000Y-50000000D03*
X210000000Y-60000000D03*
X150000000Y-52500000D03*
X160000000Y-50000000D03*
X97500000Y-45000000D03*
X92500000Y-75000000D03*
X107500000Y-77500000D03*
X190000000Y-70000000D03*
X107500000Y-42500000D03*
X200000000Y-47500000D03*
X140000000Y-65000000D03*
X115000000Y-52500000D03*
X132500000Y-50000000D03*
X202500000Y-62500000D03*
X172500000Y-55000000D03*
X137500000Y-67500000D03*
X130000000Y-47500000D03*
X202500000Y-60000000D03*
X197500000Y-72500000D03*
X195000000Y-50000000D03*
X105000000Y-42500000D03*
X90000000Y-50000000D03*
X117500000Y-77500000D03*
X92500000Y-45000000D03*
X120000000Y-80000000D03*
X185000000Y-42500000D03*
X127500000Y-47500000D03*
X140000000Y-55000000D03*
X180000000Y-50000000D03*
X112500000Y-82500000D03*
X120000000Y-77500000D03*
X137500000Y-47500000D03*
X108598500Y-46660000D03*
X112500000Y-47500000D03*
X182500000Y-47500000D03*
X195000000Y-57500000D03*
X90000000Y-47500000D03*
X100000000Y-55000000D03*
X122500000Y-77500000D03*
X87500000Y-77500000D03*
X120000000Y-65000000D03*
X202500000Y-45000000D03*
X147500000Y-55000000D03*
X115000000Y-67500000D03*
X127500000Y-60000000D03*
X85000000Y-47500000D03*
X135000000Y-62500000D03*
X205000000Y-62500000D03*
X87500000Y-42500000D03*
X112500000Y-80000000D03*
X90000000Y-67500000D03*
X100000000Y-57500000D03*
X87500000Y-82500000D03*
X175000000Y-47500000D03*
X95000000Y-47500000D03*
X117500000Y-52500000D03*
X160000000Y-67500000D03*
X122500000Y-50000000D03*
X125000000Y-60000000D03*
X97500000Y-57500000D03*
X152500000Y-60000000D03*
X110000000Y-42500000D03*
%TO.N,/V_TELEM_IN*%
X151230000Y-63170000D03*
X207910000Y-71880000D03*
X102248500Y-47230000D03*
X200141400Y-66290000D03*
X181640000Y-68960000D03*
%TO.N,/Enable_Block/3p3V*%
X104588500Y-57910000D03*
%TO.N,/Telemetry_Schematic/3p3V*%
X197830000Y-56502500D03*
X190750000Y-79680000D03*
X175120000Y-58810000D03*
%TO.N,Net-(U6B-B_OUT)*%
X176230000Y-59830000D03*
X176230000Y-66850000D03*
%TO.N,/P12V_OUT_*%
X210000000Y-69810000D03*
X167590000Y-67330000D03*
%TO.N,Net-(J10-Pad1)*%
X157290000Y-77300000D03*
%TO.N,Net-(U1-REMOTE)*%
X168720000Y-83110000D03*
%TO.N,/P12V_I_MON*%
X150790000Y-72060000D03*
X85630000Y-64000000D03*
X144320000Y-72060000D03*
X85630000Y-72070000D03*
%TO.N,/P12V_V_MON*%
X112370000Y-65340000D03*
X112370000Y-57300000D03*
%TO.N,/Telemetry_Schematic/TEMP*%
X184354579Y-63542511D03*
%TO.N,/TEMP_MON*%
X150820000Y-69550000D03*
X144340000Y-69560000D03*
%TO.N,Net-(LED1-Pad2)*%
X206100000Y-75910000D03*
%TO.N,Net-(LED1-Pad1)*%
X206100000Y-80200000D03*
%TD*%
%TA.AperFunction,Conductor*%
%TO.N,/V_TELEM_RTN*%
G36*
X209002702Y-39500617D02*
G01*
X209386771Y-39517386D01*
X209397506Y-39518326D01*
X209775971Y-39568152D01*
X209786597Y-39570025D01*
X210159284Y-39652648D01*
X210169710Y-39655442D01*
X210533765Y-39770227D01*
X210543911Y-39773920D01*
X210896578Y-39920000D01*
X210906369Y-39924566D01*
X211244942Y-40100816D01*
X211254310Y-40106224D01*
X211576244Y-40311318D01*
X211585105Y-40317523D01*
X211887930Y-40549889D01*
X211896217Y-40556843D01*
X212177635Y-40814715D01*
X212185284Y-40822364D01*
X212443156Y-41103782D01*
X212450110Y-41112069D01*
X212682476Y-41414894D01*
X212688681Y-41423755D01*
X212893775Y-41745689D01*
X212899183Y-41755057D01*
X213075430Y-42093623D01*
X213080002Y-42103427D01*
X213226075Y-42456078D01*
X213229775Y-42466244D01*
X213344554Y-42830278D01*
X213347354Y-42840727D01*
X213429971Y-43213389D01*
X213431849Y-43224042D01*
X213481671Y-43602473D01*
X213482614Y-43613249D01*
X213499382Y-43997297D01*
X213499500Y-44002706D01*
X213499500Y-84876000D01*
X213479815Y-84943039D01*
X213427011Y-84988794D01*
X213375500Y-85000000D01*
X182124000Y-85000000D01*
X182056961Y-84980315D01*
X182011206Y-84927511D01*
X182000000Y-84876000D01*
X182000000Y-79601153D01*
X189949500Y-79601153D01*
X189949500Y-79758846D01*
X189980261Y-79913489D01*
X189980264Y-79913501D01*
X190040602Y-80059172D01*
X190040609Y-80059185D01*
X190128210Y-80190288D01*
X190128213Y-80190292D01*
X190239707Y-80301786D01*
X190239711Y-80301789D01*
X190370814Y-80389390D01*
X190370827Y-80389397D01*
X190516498Y-80449735D01*
X190516503Y-80449737D01*
X190671153Y-80480499D01*
X190671156Y-80480500D01*
X190671158Y-80480500D01*
X190828844Y-80480500D01*
X190828845Y-80480499D01*
X190983497Y-80449737D01*
X191129179Y-80389394D01*
X191260289Y-80301789D01*
X191371789Y-80190289D01*
X191417984Y-80121153D01*
X205299500Y-80121153D01*
X205299500Y-80278846D01*
X205330261Y-80433489D01*
X205330264Y-80433501D01*
X205390602Y-80579172D01*
X205390609Y-80579185D01*
X205478210Y-80710288D01*
X205478213Y-80710292D01*
X205589707Y-80821786D01*
X205589711Y-80821789D01*
X205720814Y-80909390D01*
X205720827Y-80909397D01*
X205781949Y-80934714D01*
X205866503Y-80969737D01*
X206021153Y-81000499D01*
X206021156Y-81000500D01*
X206021158Y-81000500D01*
X206178844Y-81000500D01*
X206178845Y-81000499D01*
X206333497Y-80969737D01*
X206479179Y-80909394D01*
X206610289Y-80821789D01*
X206721789Y-80710289D01*
X206809394Y-80579179D01*
X206869737Y-80433497D01*
X206900500Y-80278842D01*
X206900500Y-80121158D01*
X206900500Y-80121155D01*
X206900499Y-80121153D01*
X206888172Y-80059181D01*
X206869737Y-79966503D01*
X206847783Y-79913501D01*
X206809397Y-79820827D01*
X206809390Y-79820814D01*
X206721789Y-79689711D01*
X206721786Y-79689707D01*
X206610292Y-79578213D01*
X206610288Y-79578210D01*
X206479185Y-79490609D01*
X206479172Y-79490602D01*
X206333501Y-79430264D01*
X206333489Y-79430261D01*
X206178845Y-79399500D01*
X206178842Y-79399500D01*
X206021158Y-79399500D01*
X206021155Y-79399500D01*
X205866510Y-79430261D01*
X205866498Y-79430264D01*
X205720827Y-79490602D01*
X205720814Y-79490609D01*
X205589711Y-79578210D01*
X205589707Y-79578213D01*
X205478213Y-79689707D01*
X205478210Y-79689711D01*
X205390609Y-79820814D01*
X205390602Y-79820827D01*
X205330264Y-79966498D01*
X205330261Y-79966510D01*
X205299500Y-80121153D01*
X191417984Y-80121153D01*
X191459394Y-80059179D01*
X191519737Y-79913497D01*
X191550500Y-79758842D01*
X191550500Y-79601158D01*
X191550500Y-79601155D01*
X191550499Y-79601153D01*
X191545936Y-79578213D01*
X191519737Y-79446503D01*
X191513010Y-79430263D01*
X191459397Y-79300827D01*
X191459390Y-79300814D01*
X191371789Y-79169711D01*
X191371786Y-79169707D01*
X191260292Y-79058213D01*
X191260288Y-79058210D01*
X191129185Y-78970609D01*
X191129172Y-78970602D01*
X190983501Y-78910264D01*
X190983489Y-78910261D01*
X190828845Y-78879500D01*
X190828842Y-78879500D01*
X190671158Y-78879500D01*
X190671155Y-78879500D01*
X190516510Y-78910261D01*
X190516498Y-78910264D01*
X190370827Y-78970602D01*
X190370814Y-78970609D01*
X190239711Y-79058210D01*
X190239707Y-79058213D01*
X190128213Y-79169707D01*
X190128210Y-79169711D01*
X190040609Y-79300814D01*
X190040602Y-79300827D01*
X189980264Y-79446498D01*
X189980261Y-79446510D01*
X189949500Y-79601153D01*
X182000000Y-79601153D01*
X182000000Y-75831153D01*
X205299500Y-75831153D01*
X205299500Y-75988846D01*
X205330261Y-76143489D01*
X205330264Y-76143501D01*
X205390602Y-76289172D01*
X205390609Y-76289185D01*
X205478210Y-76420288D01*
X205478213Y-76420292D01*
X205589707Y-76531786D01*
X205589711Y-76531789D01*
X205720814Y-76619390D01*
X205720827Y-76619397D01*
X205862819Y-76678211D01*
X205866503Y-76679737D01*
X205965858Y-76699500D01*
X206021153Y-76710499D01*
X206021156Y-76710500D01*
X206021158Y-76710500D01*
X206178844Y-76710500D01*
X206178845Y-76710499D01*
X206333497Y-76679737D01*
X206479179Y-76619394D01*
X206610289Y-76531789D01*
X206721789Y-76420289D01*
X206809394Y-76289179D01*
X206869737Y-76143497D01*
X206900500Y-75988842D01*
X206900500Y-75831158D01*
X206900500Y-75831155D01*
X206900499Y-75831153D01*
X206889675Y-75776737D01*
X206869737Y-75676503D01*
X206847074Y-75621789D01*
X206809397Y-75530827D01*
X206809390Y-75530814D01*
X206721789Y-75399711D01*
X206721786Y-75399707D01*
X206610292Y-75288213D01*
X206610288Y-75288210D01*
X206479185Y-75200609D01*
X206479172Y-75200602D01*
X206333501Y-75140264D01*
X206333489Y-75140261D01*
X206178845Y-75109500D01*
X206178842Y-75109500D01*
X206021158Y-75109500D01*
X206021155Y-75109500D01*
X205866510Y-75140261D01*
X205866498Y-75140264D01*
X205720827Y-75200602D01*
X205720814Y-75200609D01*
X205589711Y-75288210D01*
X205589707Y-75288213D01*
X205478213Y-75399707D01*
X205478210Y-75399711D01*
X205390609Y-75530814D01*
X205390602Y-75530827D01*
X205330264Y-75676498D01*
X205330261Y-75676510D01*
X205299500Y-75831153D01*
X182000000Y-75831153D01*
X182000000Y-73000000D01*
X151232782Y-73000000D01*
X151165743Y-72980315D01*
X151119988Y-72927511D01*
X151110044Y-72858353D01*
X151139069Y-72794797D01*
X151165000Y-72774105D01*
X151164114Y-72772779D01*
X151232363Y-72727175D01*
X151300289Y-72681789D01*
X151411789Y-72570289D01*
X151499394Y-72439179D01*
X151559737Y-72293497D01*
X151590500Y-72138842D01*
X151590500Y-71981158D01*
X151590500Y-71981155D01*
X151590499Y-71981153D01*
X151559739Y-71826510D01*
X151559735Y-71826498D01*
X151549237Y-71801153D01*
X207109500Y-71801153D01*
X207109500Y-71958846D01*
X207140261Y-72113489D01*
X207140264Y-72113501D01*
X207200602Y-72259172D01*
X207200609Y-72259185D01*
X207288210Y-72390288D01*
X207288213Y-72390292D01*
X207399707Y-72501786D01*
X207399711Y-72501789D01*
X207530814Y-72589390D01*
X207530827Y-72589397D01*
X207676498Y-72649735D01*
X207676503Y-72649737D01*
X207831153Y-72680499D01*
X207831156Y-72680500D01*
X207831158Y-72680500D01*
X207988844Y-72680500D01*
X207988845Y-72680499D01*
X208143497Y-72649737D01*
X208289179Y-72589394D01*
X208420289Y-72501789D01*
X208531789Y-72390289D01*
X208619394Y-72259179D01*
X208679737Y-72113497D01*
X208710500Y-71958842D01*
X208710500Y-71801158D01*
X208710500Y-71801155D01*
X208710499Y-71801153D01*
X208679737Y-71646503D01*
X208643787Y-71559711D01*
X208619397Y-71500827D01*
X208619390Y-71500814D01*
X208531789Y-71369711D01*
X208531786Y-71369707D01*
X208420292Y-71258213D01*
X208420288Y-71258210D01*
X208289185Y-71170609D01*
X208289172Y-71170602D01*
X208143501Y-71110264D01*
X208143489Y-71110261D01*
X207988845Y-71079500D01*
X207988842Y-71079500D01*
X207831158Y-71079500D01*
X207831155Y-71079500D01*
X207676510Y-71110261D01*
X207676498Y-71110264D01*
X207530827Y-71170602D01*
X207530814Y-71170609D01*
X207399711Y-71258210D01*
X207399707Y-71258213D01*
X207288213Y-71369707D01*
X207288210Y-71369711D01*
X207200609Y-71500814D01*
X207200602Y-71500827D01*
X207140264Y-71646498D01*
X207140261Y-71646510D01*
X207109500Y-71801153D01*
X151549237Y-71801153D01*
X151499397Y-71680827D01*
X151499390Y-71680814D01*
X151411789Y-71549711D01*
X151411786Y-71549707D01*
X151300292Y-71438213D01*
X151300288Y-71438210D01*
X151169185Y-71350609D01*
X151169172Y-71350602D01*
X151023501Y-71290264D01*
X151023489Y-71290261D01*
X150868845Y-71259500D01*
X150868842Y-71259500D01*
X150711158Y-71259500D01*
X150711155Y-71259500D01*
X150556510Y-71290261D01*
X150556498Y-71290264D01*
X150410827Y-71350602D01*
X150410814Y-71350609D01*
X150279711Y-71438210D01*
X150279707Y-71438213D01*
X150168213Y-71549707D01*
X150168210Y-71549711D01*
X150080609Y-71680814D01*
X150080602Y-71680827D01*
X150020264Y-71826498D01*
X150020261Y-71826510D01*
X149989500Y-71981153D01*
X149989500Y-72138846D01*
X150020261Y-72293489D01*
X150020264Y-72293501D01*
X150080602Y-72439172D01*
X150080609Y-72439185D01*
X150168210Y-72570288D01*
X150168213Y-72570292D01*
X150279707Y-72681786D01*
X150279711Y-72681789D01*
X150415886Y-72772779D01*
X150414304Y-72775145D01*
X150455474Y-72815530D01*
X150470981Y-72883657D01*
X150447195Y-72949353D01*
X150391666Y-72991760D01*
X150347218Y-73000000D01*
X144762782Y-73000000D01*
X144695743Y-72980315D01*
X144649988Y-72927511D01*
X144640044Y-72858353D01*
X144669069Y-72794797D01*
X144695000Y-72774105D01*
X144694114Y-72772779D01*
X144762363Y-72727175D01*
X144830289Y-72681789D01*
X144941789Y-72570289D01*
X145029394Y-72439179D01*
X145089737Y-72293497D01*
X145120500Y-72138842D01*
X145120500Y-71981158D01*
X145120500Y-71981155D01*
X145120499Y-71981153D01*
X145116061Y-71958842D01*
X145089737Y-71826503D01*
X145033539Y-71690827D01*
X145029397Y-71680827D01*
X145029390Y-71680814D01*
X144941789Y-71549711D01*
X144941786Y-71549707D01*
X144830292Y-71438213D01*
X144830288Y-71438210D01*
X144699185Y-71350609D01*
X144699172Y-71350602D01*
X144553501Y-71290264D01*
X144553489Y-71290261D01*
X144398845Y-71259500D01*
X144398842Y-71259500D01*
X144241158Y-71259500D01*
X144241155Y-71259500D01*
X144086510Y-71290261D01*
X144086498Y-71290264D01*
X143940827Y-71350602D01*
X143940814Y-71350609D01*
X143809711Y-71438210D01*
X143809707Y-71438213D01*
X143698213Y-71549707D01*
X143698210Y-71549711D01*
X143610609Y-71680814D01*
X143610602Y-71680827D01*
X143550264Y-71826498D01*
X143550261Y-71826510D01*
X143519500Y-71981153D01*
X143519500Y-72138846D01*
X143550261Y-72293489D01*
X143550264Y-72293501D01*
X143610602Y-72439172D01*
X143610609Y-72439185D01*
X143698210Y-72570288D01*
X143698213Y-72570292D01*
X143809707Y-72681786D01*
X143809711Y-72681789D01*
X143945886Y-72772779D01*
X143944304Y-72775145D01*
X143985474Y-72815530D01*
X144000981Y-72883657D01*
X143977195Y-72949353D01*
X143921666Y-72991760D01*
X143877218Y-73000000D01*
X128000000Y-73000000D01*
X128000000Y-83876000D01*
X127980315Y-83943039D01*
X127927511Y-83988794D01*
X127876000Y-84000000D01*
X72624500Y-84000000D01*
X72557461Y-83980315D01*
X72511706Y-83927511D01*
X72500500Y-83876000D01*
X72500500Y-76353505D01*
X78891500Y-76353505D01*
X78891500Y-76646494D01*
X78924302Y-76937615D01*
X78924304Y-76937631D01*
X78989497Y-77223262D01*
X78989501Y-77223274D01*
X79086264Y-77499806D01*
X79213381Y-77763766D01*
X79369259Y-78011844D01*
X79369260Y-78011846D01*
X79551921Y-78240897D01*
X79759102Y-78448078D01*
X79988153Y-78630739D01*
X79988156Y-78630740D01*
X79988158Y-78630742D01*
X80236231Y-78786617D01*
X80500197Y-78913737D01*
X80662729Y-78970609D01*
X80776725Y-79010498D01*
X80776737Y-79010502D01*
X81062372Y-79075696D01*
X81353505Y-79108499D01*
X81353506Y-79108500D01*
X81353510Y-79108500D01*
X81646494Y-79108500D01*
X81646494Y-79108499D01*
X81937628Y-79075696D01*
X82223263Y-79010502D01*
X82499803Y-78913737D01*
X82763769Y-78786617D01*
X83011842Y-78630742D01*
X83038479Y-78609500D01*
X83240897Y-78448078D01*
X83240899Y-78448075D01*
X83240904Y-78448072D01*
X83448072Y-78240904D01*
X83473201Y-78209394D01*
X83630739Y-78011846D01*
X83630740Y-78011844D01*
X83630742Y-78011842D01*
X83786617Y-77763769D01*
X83913737Y-77499803D01*
X84010502Y-77223263D01*
X84075696Y-76937628D01*
X84108500Y-76646490D01*
X84108500Y-76353510D01*
X84075696Y-76062372D01*
X84010502Y-75776737D01*
X83913737Y-75500197D01*
X83786617Y-75236231D01*
X83630742Y-74988158D01*
X83630740Y-74988155D01*
X83630739Y-74988153D01*
X83448078Y-74759102D01*
X83240897Y-74551921D01*
X83011846Y-74369260D01*
X83011844Y-74369259D01*
X82763766Y-74213381D01*
X82499806Y-74086264D01*
X82223274Y-73989501D01*
X82223262Y-73989497D01*
X81937631Y-73924304D01*
X81937615Y-73924302D01*
X81646494Y-73891500D01*
X81646490Y-73891500D01*
X81353510Y-73891500D01*
X81353506Y-73891500D01*
X81062384Y-73924302D01*
X81062368Y-73924304D01*
X80776737Y-73989497D01*
X80776725Y-73989501D01*
X80500193Y-74086264D01*
X80236233Y-74213381D01*
X79988155Y-74369259D01*
X79988153Y-74369260D01*
X79759102Y-74551921D01*
X79551921Y-74759102D01*
X79369260Y-74988153D01*
X79369259Y-74988155D01*
X79213381Y-75236233D01*
X79086264Y-75500193D01*
X78989501Y-75776725D01*
X78989497Y-75776737D01*
X78924304Y-76062368D01*
X78924302Y-76062384D01*
X78891500Y-76353505D01*
X72500500Y-76353505D01*
X72500500Y-71991153D01*
X84829500Y-71991153D01*
X84829500Y-72148846D01*
X84860261Y-72303489D01*
X84860264Y-72303501D01*
X84920602Y-72449172D01*
X84920609Y-72449185D01*
X85008210Y-72580288D01*
X85008213Y-72580292D01*
X85119707Y-72691786D01*
X85119711Y-72691789D01*
X85250814Y-72779390D01*
X85250827Y-72779397D01*
X85396498Y-72839735D01*
X85396503Y-72839737D01*
X85551153Y-72870499D01*
X85551156Y-72870500D01*
X85551158Y-72870500D01*
X85708844Y-72870500D01*
X85708845Y-72870499D01*
X85863497Y-72839737D01*
X86009179Y-72779394D01*
X86140289Y-72691789D01*
X86251789Y-72580289D01*
X86339394Y-72449179D01*
X86399737Y-72303497D01*
X86430500Y-72148842D01*
X86430500Y-71991158D01*
X86430500Y-71991155D01*
X86430499Y-71991153D01*
X86399738Y-71836510D01*
X86399737Y-71836503D01*
X86385097Y-71801158D01*
X86339397Y-71690827D01*
X86339390Y-71690814D01*
X86251789Y-71559711D01*
X86251786Y-71559707D01*
X86140292Y-71448213D01*
X86140288Y-71448210D01*
X86009185Y-71360609D01*
X86009172Y-71360602D01*
X85863501Y-71300264D01*
X85863489Y-71300261D01*
X85708845Y-71269500D01*
X85708842Y-71269500D01*
X85551158Y-71269500D01*
X85551155Y-71269500D01*
X85396510Y-71300261D01*
X85396498Y-71300264D01*
X85250827Y-71360602D01*
X85250814Y-71360609D01*
X85119711Y-71448210D01*
X85119707Y-71448213D01*
X85008213Y-71559707D01*
X85008210Y-71559711D01*
X84920609Y-71690814D01*
X84920602Y-71690827D01*
X84860264Y-71836498D01*
X84860261Y-71836510D01*
X84829500Y-71991153D01*
X72500500Y-71991153D01*
X72500500Y-69436265D01*
X81602000Y-69436265D01*
X81602000Y-69643734D01*
X81634452Y-69848633D01*
X81698562Y-70045941D01*
X81792745Y-70230783D01*
X81914686Y-70398620D01*
X82061380Y-70545314D01*
X82229217Y-70667255D01*
X82316548Y-70711752D01*
X82414058Y-70761437D01*
X82414060Y-70761437D01*
X82414063Y-70761439D01*
X82519823Y-70795802D01*
X82611366Y-70825547D01*
X82816266Y-70858000D01*
X82816271Y-70858000D01*
X83023734Y-70858000D01*
X83228633Y-70825547D01*
X83425937Y-70761439D01*
X83610783Y-70667255D01*
X83778620Y-70545314D01*
X83925314Y-70398620D01*
X84047255Y-70230783D01*
X84141439Y-70045937D01*
X84205547Y-69848633D01*
X84215863Y-69783501D01*
X84238000Y-69643734D01*
X84238000Y-69481153D01*
X143539500Y-69481153D01*
X143539500Y-69638846D01*
X143570261Y-69793489D01*
X143570264Y-69793501D01*
X143630602Y-69939172D01*
X143630609Y-69939185D01*
X143718210Y-70070288D01*
X143718213Y-70070292D01*
X143829707Y-70181786D01*
X143829711Y-70181789D01*
X143960814Y-70269390D01*
X143960827Y-70269397D01*
X144106498Y-70329735D01*
X144106503Y-70329737D01*
X144261153Y-70360499D01*
X144261156Y-70360500D01*
X144261158Y-70360500D01*
X144418844Y-70360500D01*
X144418845Y-70360499D01*
X144573497Y-70329737D01*
X144719179Y-70269394D01*
X144850289Y-70181789D01*
X144961789Y-70070289D01*
X145049394Y-69939179D01*
X145109737Y-69793497D01*
X145140500Y-69638842D01*
X145140500Y-69481158D01*
X145138510Y-69471153D01*
X150019500Y-69471153D01*
X150019500Y-69628846D01*
X150050261Y-69783489D01*
X150050264Y-69783501D01*
X150110602Y-69929172D01*
X150110609Y-69929185D01*
X150198210Y-70060288D01*
X150198213Y-70060292D01*
X150309707Y-70171786D01*
X150309711Y-70171789D01*
X150440814Y-70259390D01*
X150440827Y-70259397D01*
X150586498Y-70319735D01*
X150586503Y-70319737D01*
X150741153Y-70350499D01*
X150741156Y-70350500D01*
X150741158Y-70350500D01*
X150898844Y-70350500D01*
X150898845Y-70350499D01*
X151053497Y-70319737D01*
X151166166Y-70273067D01*
X151199172Y-70259397D01*
X151199172Y-70259396D01*
X151199179Y-70259394D01*
X151330289Y-70171789D01*
X151441789Y-70060289D01*
X151529394Y-69929179D01*
X151589737Y-69783497D01*
X151620500Y-69628842D01*
X151620500Y-69471158D01*
X151620500Y-69471155D01*
X151620499Y-69471153D01*
X151612475Y-69430814D01*
X151589737Y-69316503D01*
X151554473Y-69231367D01*
X151529397Y-69170827D01*
X151529390Y-69170814D01*
X151441789Y-69039711D01*
X151441786Y-69039707D01*
X151330292Y-68928213D01*
X151330288Y-68928210D01*
X151259863Y-68881153D01*
X180839500Y-68881153D01*
X180839500Y-69038846D01*
X180870261Y-69193489D01*
X180870264Y-69193501D01*
X180930602Y-69339172D01*
X180930609Y-69339185D01*
X181018210Y-69470288D01*
X181018213Y-69470292D01*
X181129707Y-69581786D01*
X181129711Y-69581789D01*
X181260814Y-69669390D01*
X181260827Y-69669397D01*
X181406498Y-69729735D01*
X181406503Y-69729737D01*
X181561153Y-69760499D01*
X181561156Y-69760500D01*
X181561158Y-69760500D01*
X181718844Y-69760500D01*
X181718845Y-69760499D01*
X181866378Y-69731153D01*
X209199500Y-69731153D01*
X209199500Y-69888846D01*
X209230261Y-70043489D01*
X209230264Y-70043501D01*
X209290602Y-70189172D01*
X209290609Y-70189185D01*
X209378210Y-70320288D01*
X209378213Y-70320292D01*
X209489707Y-70431786D01*
X209489711Y-70431789D01*
X209620814Y-70519390D01*
X209620827Y-70519397D01*
X209766498Y-70579735D01*
X209766503Y-70579737D01*
X209921153Y-70610499D01*
X209921156Y-70610500D01*
X209921158Y-70610500D01*
X210078844Y-70610500D01*
X210078845Y-70610499D01*
X210233497Y-70579737D01*
X210379179Y-70519394D01*
X210510289Y-70431789D01*
X210621789Y-70320289D01*
X210709394Y-70189179D01*
X210769737Y-70043497D01*
X210800500Y-69888842D01*
X210800500Y-69731158D01*
X210800500Y-69731155D01*
X210800499Y-69731153D01*
X210782137Y-69638842D01*
X210769737Y-69576503D01*
X210730242Y-69481153D01*
X210709397Y-69430827D01*
X210709390Y-69430814D01*
X210621789Y-69299711D01*
X210621786Y-69299707D01*
X210510292Y-69188213D01*
X210510288Y-69188210D01*
X210379185Y-69100609D01*
X210379172Y-69100602D01*
X210233501Y-69040264D01*
X210233489Y-69040261D01*
X210078845Y-69009500D01*
X210078842Y-69009500D01*
X209921158Y-69009500D01*
X209921155Y-69009500D01*
X209766510Y-69040261D01*
X209766498Y-69040264D01*
X209620827Y-69100602D01*
X209620814Y-69100609D01*
X209489711Y-69188210D01*
X209489707Y-69188213D01*
X209378213Y-69299707D01*
X209378210Y-69299711D01*
X209290609Y-69430814D01*
X209290602Y-69430827D01*
X209230264Y-69576498D01*
X209230261Y-69576510D01*
X209199500Y-69731153D01*
X181866378Y-69731153D01*
X181873497Y-69729737D01*
X182019179Y-69669394D01*
X182057582Y-69643734D01*
X182090164Y-69621964D01*
X182121224Y-69601209D01*
X182150289Y-69581789D01*
X182261789Y-69470289D01*
X182349394Y-69339179D01*
X182409737Y-69193497D01*
X182440500Y-69038842D01*
X182440500Y-68881158D01*
X182440500Y-68881155D01*
X182440499Y-68881153D01*
X182420431Y-68780264D01*
X182409737Y-68726503D01*
X182391046Y-68681378D01*
X182349397Y-68580827D01*
X182349390Y-68580814D01*
X182261789Y-68449711D01*
X182261786Y-68449707D01*
X182150292Y-68338213D01*
X182150288Y-68338210D01*
X182019185Y-68250609D01*
X182019172Y-68250602D01*
X181873501Y-68190264D01*
X181873489Y-68190261D01*
X181718845Y-68159500D01*
X181718842Y-68159500D01*
X181561158Y-68159500D01*
X181561155Y-68159500D01*
X181406510Y-68190261D01*
X181406498Y-68190264D01*
X181260827Y-68250602D01*
X181260814Y-68250609D01*
X181129711Y-68338210D01*
X181129707Y-68338213D01*
X181018213Y-68449707D01*
X181018210Y-68449711D01*
X180930609Y-68580814D01*
X180930602Y-68580827D01*
X180870264Y-68726498D01*
X180870261Y-68726510D01*
X180839500Y-68881153D01*
X151259863Y-68881153D01*
X151199185Y-68840609D01*
X151199172Y-68840602D01*
X151053501Y-68780264D01*
X151053489Y-68780261D01*
X150898845Y-68749500D01*
X150898842Y-68749500D01*
X150741158Y-68749500D01*
X150741155Y-68749500D01*
X150586510Y-68780261D01*
X150586498Y-68780264D01*
X150440827Y-68840602D01*
X150440814Y-68840609D01*
X150309711Y-68928210D01*
X150309707Y-68928213D01*
X150198213Y-69039707D01*
X150198210Y-69039711D01*
X150110609Y-69170814D01*
X150110602Y-69170827D01*
X150050264Y-69316498D01*
X150050261Y-69316510D01*
X150019500Y-69471153D01*
X145138510Y-69471153D01*
X145109737Y-69326503D01*
X145105593Y-69316498D01*
X145049397Y-69180827D01*
X145049390Y-69180814D01*
X144961789Y-69049711D01*
X144961786Y-69049707D01*
X144850292Y-68938213D01*
X144850288Y-68938210D01*
X144719185Y-68850609D01*
X144719172Y-68850602D01*
X144573501Y-68790264D01*
X144573489Y-68790261D01*
X144418845Y-68759500D01*
X144418842Y-68759500D01*
X144261158Y-68759500D01*
X144261155Y-68759500D01*
X144106510Y-68790261D01*
X144106498Y-68790264D01*
X143960827Y-68850602D01*
X143960814Y-68850609D01*
X143829711Y-68938210D01*
X143829707Y-68938213D01*
X143718213Y-69049707D01*
X143718210Y-69049711D01*
X143630609Y-69180814D01*
X143630602Y-69180827D01*
X143570264Y-69326498D01*
X143570261Y-69326510D01*
X143539500Y-69481153D01*
X84238000Y-69481153D01*
X84238000Y-69436265D01*
X84205547Y-69231366D01*
X84146522Y-69049707D01*
X84141439Y-69034063D01*
X84141437Y-69034060D01*
X84141437Y-69034058D01*
X84087504Y-68928210D01*
X84047255Y-68849217D01*
X83925314Y-68681380D01*
X83778620Y-68534686D01*
X83610783Y-68412745D01*
X83425941Y-68318562D01*
X83228633Y-68254452D01*
X83023734Y-68222000D01*
X83023729Y-68222000D01*
X82816271Y-68222000D01*
X82816266Y-68222000D01*
X82611366Y-68254452D01*
X82414058Y-68318562D01*
X82229216Y-68412745D01*
X82133459Y-68482317D01*
X82061380Y-68534686D01*
X82061378Y-68534688D01*
X82061377Y-68534688D01*
X81914688Y-68681377D01*
X81914688Y-68681378D01*
X81914686Y-68681380D01*
X81881906Y-68726498D01*
X81792745Y-68849216D01*
X81698562Y-69034058D01*
X81634452Y-69231366D01*
X81602000Y-69436265D01*
X72500500Y-69436265D01*
X72500500Y-67251153D01*
X166789500Y-67251153D01*
X166789500Y-67408846D01*
X166820261Y-67563489D01*
X166820264Y-67563501D01*
X166880602Y-67709172D01*
X166880609Y-67709185D01*
X166968210Y-67840288D01*
X166968213Y-67840292D01*
X167079707Y-67951786D01*
X167079711Y-67951789D01*
X167210814Y-68039390D01*
X167210827Y-68039397D01*
X167356498Y-68099735D01*
X167356503Y-68099737D01*
X167511153Y-68130499D01*
X167511156Y-68130500D01*
X167511158Y-68130500D01*
X167668844Y-68130500D01*
X167668845Y-68130499D01*
X167823497Y-68099737D01*
X167969179Y-68039394D01*
X168100289Y-67951789D01*
X168211789Y-67840289D01*
X168299394Y-67709179D01*
X168359737Y-67563497D01*
X168390500Y-67408842D01*
X168390500Y-67251158D01*
X168390500Y-67251155D01*
X168390499Y-67251153D01*
X168359738Y-67096510D01*
X168359737Y-67096503D01*
X168359735Y-67096498D01*
X168299397Y-66950827D01*
X168299390Y-66950814D01*
X168221308Y-66833957D01*
X168221307Y-66833956D01*
X168211787Y-66819708D01*
X168163232Y-66771153D01*
X175429500Y-66771153D01*
X175429500Y-66928846D01*
X175460261Y-67083489D01*
X175460264Y-67083501D01*
X175520602Y-67229172D01*
X175520609Y-67229185D01*
X175608210Y-67360288D01*
X175608213Y-67360292D01*
X175719707Y-67471786D01*
X175719711Y-67471789D01*
X175850814Y-67559390D01*
X175850827Y-67559397D01*
X175996498Y-67619735D01*
X175996503Y-67619737D01*
X176151153Y-67650499D01*
X176151156Y-67650500D01*
X176151158Y-67650500D01*
X176308844Y-67650500D01*
X176308845Y-67650499D01*
X176463497Y-67619737D01*
X176599264Y-67563501D01*
X176609172Y-67559397D01*
X176609172Y-67559396D01*
X176609179Y-67559394D01*
X176740289Y-67471789D01*
X176851789Y-67360289D01*
X176939394Y-67229179D01*
X176999737Y-67083497D01*
X177030500Y-66928842D01*
X177030500Y-66771158D01*
X177030500Y-66771155D01*
X177030499Y-66771153D01*
X177010215Y-66669179D01*
X176999737Y-66616503D01*
X176976441Y-66560261D01*
X176939397Y-66470827D01*
X176939390Y-66470814D01*
X176851789Y-66339711D01*
X176851786Y-66339707D01*
X176740292Y-66228213D01*
X176740288Y-66228210D01*
X176714761Y-66211153D01*
X199340900Y-66211153D01*
X199340900Y-66368846D01*
X199371661Y-66523489D01*
X199371664Y-66523501D01*
X199432002Y-66669172D01*
X199432009Y-66669185D01*
X199519610Y-66800288D01*
X199519613Y-66800292D01*
X199631107Y-66911786D01*
X199631111Y-66911789D01*
X199762214Y-66999390D01*
X199762227Y-66999397D01*
X199907898Y-67059735D01*
X199907903Y-67059737D01*
X200027312Y-67083489D01*
X200062553Y-67090499D01*
X200062556Y-67090500D01*
X200062558Y-67090500D01*
X200220244Y-67090500D01*
X200220245Y-67090499D01*
X200374897Y-67059737D01*
X200520579Y-66999394D01*
X200651689Y-66911789D01*
X200763189Y-66800289D01*
X200850794Y-66669179D01*
X200911137Y-66523497D01*
X200941900Y-66368842D01*
X200941900Y-66211158D01*
X200941900Y-66211155D01*
X200941899Y-66211153D01*
X200921726Y-66109737D01*
X200911137Y-66056503D01*
X200908191Y-66049390D01*
X200850797Y-65910827D01*
X200850790Y-65910814D01*
X200763189Y-65779711D01*
X200763186Y-65779707D01*
X200651692Y-65668213D01*
X200651688Y-65668210D01*
X200520585Y-65580609D01*
X200520572Y-65580602D01*
X200374901Y-65520264D01*
X200374889Y-65520261D01*
X200220245Y-65489500D01*
X200220242Y-65489500D01*
X200062558Y-65489500D01*
X200062555Y-65489500D01*
X199907910Y-65520261D01*
X199907898Y-65520264D01*
X199762227Y-65580602D01*
X199762214Y-65580609D01*
X199631111Y-65668210D01*
X199631107Y-65668213D01*
X199519613Y-65779707D01*
X199519610Y-65779711D01*
X199432009Y-65910814D01*
X199432002Y-65910827D01*
X199371664Y-66056498D01*
X199371661Y-66056510D01*
X199340900Y-66211153D01*
X176714761Y-66211153D01*
X176609185Y-66140609D01*
X176609172Y-66140602D01*
X176463501Y-66080264D01*
X176463489Y-66080261D01*
X176308845Y-66049500D01*
X176308842Y-66049500D01*
X176151158Y-66049500D01*
X176151155Y-66049500D01*
X175996510Y-66080261D01*
X175996498Y-66080264D01*
X175850827Y-66140602D01*
X175850814Y-66140609D01*
X175719711Y-66228210D01*
X175719707Y-66228213D01*
X175608213Y-66339707D01*
X175608210Y-66339711D01*
X175520609Y-66470814D01*
X175520602Y-66470827D01*
X175460264Y-66616498D01*
X175460261Y-66616510D01*
X175429500Y-66771153D01*
X168163232Y-66771153D01*
X168100292Y-66708213D01*
X168100288Y-66708210D01*
X167969185Y-66620609D01*
X167969172Y-66620602D01*
X167823501Y-66560264D01*
X167823489Y-66560261D01*
X167668845Y-66529500D01*
X167668842Y-66529500D01*
X167511158Y-66529500D01*
X167511155Y-66529500D01*
X167356510Y-66560261D01*
X167356498Y-66560264D01*
X167210827Y-66620602D01*
X167210814Y-66620609D01*
X167079711Y-66708210D01*
X167079707Y-66708213D01*
X166968213Y-66819707D01*
X166968210Y-66819711D01*
X166880609Y-66950814D01*
X166880602Y-66950827D01*
X166820264Y-67096498D01*
X166820261Y-67096510D01*
X166789500Y-67251153D01*
X72500500Y-67251153D01*
X72500500Y-65281265D01*
X78762000Y-65281265D01*
X78762000Y-65488734D01*
X78794452Y-65693633D01*
X78858562Y-65890941D01*
X78939353Y-66049500D01*
X78952745Y-66075783D01*
X79074686Y-66243620D01*
X79221380Y-66390314D01*
X79389217Y-66512255D01*
X79476548Y-66556752D01*
X79574058Y-66606437D01*
X79574060Y-66606437D01*
X79574063Y-66606439D01*
X79617665Y-66620606D01*
X79771366Y-66670547D01*
X79976266Y-66703000D01*
X79976271Y-66703000D01*
X80183734Y-66703000D01*
X80388633Y-66670547D01*
X80392865Y-66669172D01*
X80585937Y-66606439D01*
X80770783Y-66512255D01*
X80938620Y-66390314D01*
X81085314Y-66243620D01*
X81207255Y-66075783D01*
X81301439Y-65890937D01*
X81365547Y-65693633D01*
X81383448Y-65580609D01*
X81398000Y-65488734D01*
X81398000Y-65281265D01*
X81365547Y-65076366D01*
X81328004Y-64960821D01*
X81301439Y-64879063D01*
X81301437Y-64879060D01*
X81301437Y-64879058D01*
X81245733Y-64769735D01*
X81207255Y-64694217D01*
X81085314Y-64526380D01*
X80938620Y-64379686D01*
X80770783Y-64257745D01*
X80759327Y-64251908D01*
X80585941Y-64163562D01*
X80388633Y-64099452D01*
X80183734Y-64067000D01*
X80183729Y-64067000D01*
X79976271Y-64067000D01*
X79976266Y-64067000D01*
X79771366Y-64099452D01*
X79574058Y-64163562D01*
X79389216Y-64257745D01*
X79319176Y-64308633D01*
X79221380Y-64379686D01*
X79221378Y-64379688D01*
X79221377Y-64379688D01*
X79074688Y-64526377D01*
X79074688Y-64526378D01*
X79074686Y-64526380D01*
X79022317Y-64598459D01*
X78952745Y-64694216D01*
X78858562Y-64879058D01*
X78794452Y-65076366D01*
X78762000Y-65281265D01*
X72500500Y-65281265D01*
X72500500Y-63896265D01*
X81602000Y-63896265D01*
X81602000Y-64103734D01*
X81634452Y-64308633D01*
X81698562Y-64505941D01*
X81792745Y-64690783D01*
X81914686Y-64858620D01*
X82061380Y-65005314D01*
X82229217Y-65127255D01*
X82316548Y-65171752D01*
X82414058Y-65221437D01*
X82414060Y-65221437D01*
X82414063Y-65221439D01*
X82519823Y-65255802D01*
X82611366Y-65285547D01*
X82816266Y-65318000D01*
X82816271Y-65318000D01*
X83023734Y-65318000D01*
X83228633Y-65285547D01*
X83241793Y-65281271D01*
X83303710Y-65261153D01*
X111569500Y-65261153D01*
X111569500Y-65418846D01*
X111600261Y-65573489D01*
X111600264Y-65573501D01*
X111660602Y-65719172D01*
X111660609Y-65719185D01*
X111748210Y-65850288D01*
X111748213Y-65850292D01*
X111859707Y-65961786D01*
X111859711Y-65961789D01*
X111990814Y-66049390D01*
X111990827Y-66049397D01*
X112065348Y-66080264D01*
X112136503Y-66109737D01*
X112291153Y-66140499D01*
X112291156Y-66140500D01*
X112291158Y-66140500D01*
X112448844Y-66140500D01*
X112448845Y-66140499D01*
X112603497Y-66109737D01*
X112749179Y-66049394D01*
X112880289Y-65961789D01*
X112991789Y-65850289D01*
X113079394Y-65719179D01*
X113139737Y-65573497D01*
X113170500Y-65418842D01*
X113170500Y-65261158D01*
X113170500Y-65261155D01*
X113170499Y-65261153D01*
X113143865Y-65127255D01*
X113139737Y-65106503D01*
X113139735Y-65106498D01*
X113079397Y-64960827D01*
X113079390Y-64960814D01*
X112991789Y-64829711D01*
X112991786Y-64829707D01*
X112880292Y-64718213D01*
X112880288Y-64718210D01*
X112749185Y-64630609D01*
X112749172Y-64630602D01*
X112603501Y-64570264D01*
X112603489Y-64570261D01*
X112448845Y-64539500D01*
X112448842Y-64539500D01*
X112291158Y-64539500D01*
X112291155Y-64539500D01*
X112136510Y-64570261D01*
X112136498Y-64570264D01*
X111990827Y-64630602D01*
X111990814Y-64630609D01*
X111859711Y-64718210D01*
X111859707Y-64718213D01*
X111748213Y-64829707D01*
X111748210Y-64829711D01*
X111660609Y-64960814D01*
X111660602Y-64960827D01*
X111600264Y-65106498D01*
X111600261Y-65106510D01*
X111569500Y-65261153D01*
X83303710Y-65261153D01*
X83425937Y-65221439D01*
X83610783Y-65127255D01*
X83778620Y-65005314D01*
X83925314Y-64858620D01*
X84047255Y-64690783D01*
X84141439Y-64505937D01*
X84205547Y-64308633D01*
X84214532Y-64251905D01*
X84238000Y-64103734D01*
X84238000Y-63921153D01*
X84829500Y-63921153D01*
X84829500Y-64078846D01*
X84860261Y-64233489D01*
X84860264Y-64233501D01*
X84920602Y-64379172D01*
X84920609Y-64379185D01*
X85008210Y-64510288D01*
X85008213Y-64510292D01*
X85119707Y-64621786D01*
X85119711Y-64621789D01*
X85250814Y-64709390D01*
X85250827Y-64709397D01*
X85396498Y-64769735D01*
X85396503Y-64769737D01*
X85551153Y-64800499D01*
X85551156Y-64800500D01*
X85551158Y-64800500D01*
X85708844Y-64800500D01*
X85708845Y-64800499D01*
X85863497Y-64769737D01*
X86009179Y-64709394D01*
X86140289Y-64621789D01*
X86251789Y-64510289D01*
X86339394Y-64379179D01*
X86399737Y-64233497D01*
X86430500Y-64078842D01*
X86430500Y-63921158D01*
X86430500Y-63921155D01*
X86430499Y-63921153D01*
X86422193Y-63879397D01*
X86399737Y-63766503D01*
X86368615Y-63691367D01*
X86339397Y-63620827D01*
X86339390Y-63620814D01*
X86251789Y-63489711D01*
X86251786Y-63489707D01*
X86140292Y-63378213D01*
X86140288Y-63378210D01*
X86009185Y-63290609D01*
X86009172Y-63290602D01*
X85863501Y-63230264D01*
X85863489Y-63230261D01*
X85744956Y-63206683D01*
X85744955Y-63206683D01*
X85708844Y-63199500D01*
X85708842Y-63199500D01*
X85551158Y-63199500D01*
X85551155Y-63199500D01*
X85396510Y-63230261D01*
X85396498Y-63230264D01*
X85250827Y-63290602D01*
X85250814Y-63290609D01*
X85119711Y-63378210D01*
X85119707Y-63378213D01*
X85008213Y-63489707D01*
X85008210Y-63489711D01*
X84920609Y-63620814D01*
X84920602Y-63620827D01*
X84860264Y-63766498D01*
X84860261Y-63766510D01*
X84829500Y-63921153D01*
X84238000Y-63921153D01*
X84238000Y-63896265D01*
X84205547Y-63691366D01*
X84141437Y-63494058D01*
X84047254Y-63309216D01*
X83925314Y-63141380D01*
X83875087Y-63091153D01*
X150429500Y-63091153D01*
X150429500Y-63248846D01*
X150460261Y-63403489D01*
X150460264Y-63403501D01*
X150520602Y-63549172D01*
X150520609Y-63549185D01*
X150608210Y-63680288D01*
X150608213Y-63680292D01*
X150719707Y-63791786D01*
X150719711Y-63791789D01*
X150850814Y-63879390D01*
X150850827Y-63879397D01*
X150996498Y-63939735D01*
X150996503Y-63939737D01*
X151151153Y-63970499D01*
X151151156Y-63970500D01*
X151151158Y-63970500D01*
X151308844Y-63970500D01*
X151308845Y-63970499D01*
X151463497Y-63939737D01*
X151609179Y-63879394D01*
X151740289Y-63791789D01*
X151851789Y-63680289D01*
X151939394Y-63549179D01*
X151974815Y-63463664D01*
X183554079Y-63463664D01*
X183554079Y-63621357D01*
X183584840Y-63776000D01*
X183584843Y-63776012D01*
X183645181Y-63921683D01*
X183645188Y-63921696D01*
X183732789Y-64052799D01*
X183732792Y-64052803D01*
X183844286Y-64164297D01*
X183844290Y-64164300D01*
X183975393Y-64251901D01*
X183975406Y-64251908D01*
X184121077Y-64312246D01*
X184121082Y-64312248D01*
X184275732Y-64343010D01*
X184275735Y-64343011D01*
X184275737Y-64343011D01*
X184433423Y-64343011D01*
X184433424Y-64343010D01*
X184588076Y-64312248D01*
X184733758Y-64251905D01*
X184864868Y-64164300D01*
X184976368Y-64052800D01*
X185063973Y-63921690D01*
X185064196Y-63921153D01*
X185117779Y-63791789D01*
X185124316Y-63776008D01*
X185155079Y-63621353D01*
X185155079Y-63463669D01*
X185155079Y-63463666D01*
X185155078Y-63463664D01*
X185144429Y-63410130D01*
X185124316Y-63309014D01*
X185124314Y-63309009D01*
X185063976Y-63163338D01*
X185063969Y-63163325D01*
X184976368Y-63032222D01*
X184976365Y-63032218D01*
X184864871Y-62920724D01*
X184864867Y-62920721D01*
X184733764Y-62833120D01*
X184733751Y-62833113D01*
X184588080Y-62772775D01*
X184588068Y-62772772D01*
X184433424Y-62742011D01*
X184433421Y-62742011D01*
X184275737Y-62742011D01*
X184275734Y-62742011D01*
X184121089Y-62772772D01*
X184121077Y-62772775D01*
X183975406Y-62833113D01*
X183975393Y-62833120D01*
X183844290Y-62920721D01*
X183844286Y-62920724D01*
X183732792Y-63032218D01*
X183732789Y-63032222D01*
X183645188Y-63163325D01*
X183645181Y-63163338D01*
X183584843Y-63309009D01*
X183584840Y-63309021D01*
X183554079Y-63463664D01*
X151974815Y-63463664D01*
X151999737Y-63403497D01*
X152030500Y-63248842D01*
X152030500Y-63091158D01*
X152030500Y-63091155D01*
X152030499Y-63091153D01*
X151999738Y-62936510D01*
X151999737Y-62936503D01*
X151956915Y-62833120D01*
X151939397Y-62790827D01*
X151939390Y-62790814D01*
X151851789Y-62659711D01*
X151851786Y-62659707D01*
X151740292Y-62548213D01*
X151740288Y-62548210D01*
X151609185Y-62460609D01*
X151609172Y-62460602D01*
X151463501Y-62400264D01*
X151463489Y-62400261D01*
X151308845Y-62369500D01*
X151308842Y-62369500D01*
X151151158Y-62369500D01*
X151151155Y-62369500D01*
X150996510Y-62400261D01*
X150996498Y-62400264D01*
X150850827Y-62460602D01*
X150850814Y-62460609D01*
X150719711Y-62548210D01*
X150719707Y-62548213D01*
X150608213Y-62659707D01*
X150608210Y-62659711D01*
X150520609Y-62790814D01*
X150520602Y-62790827D01*
X150460264Y-62936498D01*
X150460261Y-62936510D01*
X150429500Y-63091153D01*
X83875087Y-63091153D01*
X83778620Y-62994686D01*
X83610783Y-62872745D01*
X83425941Y-62778562D01*
X83228633Y-62714452D01*
X83023734Y-62682000D01*
X83023729Y-62682000D01*
X82816271Y-62682000D01*
X82816266Y-62682000D01*
X82611366Y-62714452D01*
X82414058Y-62778562D01*
X82229216Y-62872745D01*
X82141469Y-62936498D01*
X82061380Y-62994686D01*
X82061378Y-62994688D01*
X82061377Y-62994688D01*
X81914688Y-63141377D01*
X81914688Y-63141378D01*
X81914686Y-63141380D01*
X81862317Y-63213459D01*
X81792745Y-63309216D01*
X81698562Y-63494058D01*
X81634452Y-63691366D01*
X81602000Y-63896265D01*
X72500500Y-63896265D01*
X72500500Y-59741265D01*
X78762000Y-59741265D01*
X78762000Y-59948734D01*
X78794452Y-60153633D01*
X78858562Y-60350941D01*
X78952745Y-60535783D01*
X79074686Y-60703620D01*
X79221380Y-60850314D01*
X79389217Y-60972255D01*
X79476548Y-61016752D01*
X79574058Y-61066437D01*
X79574060Y-61066437D01*
X79574063Y-61066439D01*
X79679823Y-61100802D01*
X79771366Y-61130547D01*
X79976266Y-61163000D01*
X79976271Y-61163000D01*
X80183734Y-61163000D01*
X80388633Y-61130547D01*
X80585937Y-61066439D01*
X80770783Y-60972255D01*
X80938620Y-60850314D01*
X81085314Y-60703620D01*
X81207255Y-60535783D01*
X81301439Y-60350937D01*
X81365547Y-60153633D01*
X81398000Y-59948734D01*
X81398000Y-59741265D01*
X81365547Y-59536366D01*
X81335802Y-59444823D01*
X81301439Y-59339063D01*
X81301437Y-59339060D01*
X81301437Y-59339058D01*
X81225069Y-59189179D01*
X81207255Y-59154217D01*
X81085314Y-58986380D01*
X80938620Y-58839686D01*
X80770783Y-58717745D01*
X80756562Y-58710499D01*
X80585941Y-58623562D01*
X80388633Y-58559452D01*
X80183734Y-58527000D01*
X80183729Y-58527000D01*
X79976271Y-58527000D01*
X79976266Y-58527000D01*
X79771366Y-58559452D01*
X79574058Y-58623562D01*
X79389216Y-58717745D01*
X79319176Y-58768633D01*
X79221380Y-58839686D01*
X79221378Y-58839688D01*
X79221377Y-58839688D01*
X79074688Y-58986377D01*
X79074688Y-58986378D01*
X79074686Y-58986380D01*
X79035269Y-59040633D01*
X78952745Y-59154216D01*
X78858562Y-59339058D01*
X78794452Y-59536366D01*
X78762000Y-59741265D01*
X72500500Y-59741265D01*
X72500500Y-58356265D01*
X81602000Y-58356265D01*
X81602000Y-58563734D01*
X81634452Y-58768633D01*
X81698562Y-58965941D01*
X81792745Y-59150783D01*
X81914686Y-59318620D01*
X82061380Y-59465314D01*
X82229217Y-59587255D01*
X82274836Y-59610499D01*
X82414058Y-59681437D01*
X82414060Y-59681437D01*
X82414063Y-59681439D01*
X82519823Y-59715802D01*
X82611366Y-59745547D01*
X82816266Y-59778000D01*
X82816271Y-59778000D01*
X83023734Y-59778000D01*
X83228633Y-59745547D01*
X83241793Y-59741271D01*
X83425937Y-59681439D01*
X83610783Y-59587255D01*
X83778620Y-59465314D01*
X83925314Y-59318620D01*
X84047255Y-59150783D01*
X84141439Y-58965937D01*
X84205547Y-58768633D01*
X84211483Y-58731153D01*
X174319500Y-58731153D01*
X174319500Y-58888846D01*
X174350261Y-59043489D01*
X174350264Y-59043501D01*
X174410602Y-59189172D01*
X174410609Y-59189185D01*
X174498210Y-59320288D01*
X174498213Y-59320292D01*
X174609707Y-59431786D01*
X174609711Y-59431789D01*
X174740814Y-59519390D01*
X174740827Y-59519397D01*
X174886498Y-59579735D01*
X174886503Y-59579737D01*
X175041153Y-59610499D01*
X175041156Y-59610500D01*
X175041158Y-59610500D01*
X175198843Y-59610500D01*
X175227445Y-59604810D01*
X175286120Y-59593139D01*
X175355710Y-59599366D01*
X175410888Y-59642228D01*
X175434133Y-59708118D01*
X175431929Y-59738946D01*
X175429500Y-59751158D01*
X175429500Y-59908846D01*
X175460261Y-60063489D01*
X175460264Y-60063501D01*
X175520602Y-60209172D01*
X175520609Y-60209185D01*
X175608210Y-60340288D01*
X175608213Y-60340292D01*
X175719707Y-60451786D01*
X175719711Y-60451789D01*
X175850814Y-60539390D01*
X175850827Y-60539397D01*
X175996498Y-60599735D01*
X175996503Y-60599737D01*
X176151153Y-60630499D01*
X176151156Y-60630500D01*
X176151158Y-60630500D01*
X176308844Y-60630500D01*
X176308845Y-60630499D01*
X176463497Y-60599737D01*
X176609179Y-60539394D01*
X176740289Y-60451789D01*
X176851789Y-60340289D01*
X176939394Y-60209179D01*
X176999737Y-60063497D01*
X177030500Y-59908842D01*
X177030500Y-59751158D01*
X177030500Y-59751155D01*
X177030499Y-59751153D01*
X177016632Y-59681439D01*
X176999737Y-59596503D01*
X176974828Y-59536366D01*
X176939397Y-59450827D01*
X176939390Y-59450814D01*
X176851789Y-59319711D01*
X176851786Y-59319707D01*
X176740292Y-59208213D01*
X176740288Y-59208210D01*
X176609185Y-59120609D01*
X176609172Y-59120602D01*
X176463501Y-59060264D01*
X176463489Y-59060261D01*
X176308845Y-59029500D01*
X176308842Y-59029500D01*
X176151158Y-59029500D01*
X176151153Y-59029500D01*
X176063879Y-59046860D01*
X175994287Y-59040633D01*
X175939110Y-58997770D01*
X175915866Y-58931880D01*
X175918072Y-58901046D01*
X175920500Y-58888842D01*
X175920500Y-58731155D01*
X175920499Y-58731153D01*
X175910271Y-58679735D01*
X175889737Y-58576503D01*
X175871215Y-58531786D01*
X175829397Y-58430827D01*
X175829390Y-58430814D01*
X175741789Y-58299711D01*
X175741786Y-58299707D01*
X175630292Y-58188213D01*
X175630288Y-58188210D01*
X175499185Y-58100609D01*
X175499172Y-58100602D01*
X175353501Y-58040264D01*
X175353489Y-58040261D01*
X175198845Y-58009500D01*
X175198842Y-58009500D01*
X175041158Y-58009500D01*
X175041155Y-58009500D01*
X174886510Y-58040261D01*
X174886498Y-58040264D01*
X174740827Y-58100602D01*
X174740814Y-58100609D01*
X174609711Y-58188210D01*
X174609707Y-58188213D01*
X174498213Y-58299707D01*
X174498210Y-58299711D01*
X174410609Y-58430814D01*
X174410602Y-58430827D01*
X174350264Y-58576498D01*
X174350261Y-58576510D01*
X174319500Y-58731153D01*
X84211483Y-58731153D01*
X84214754Y-58710500D01*
X84238000Y-58563734D01*
X84238000Y-58356265D01*
X84205547Y-58151366D01*
X84169446Y-58040261D01*
X84141439Y-57954063D01*
X84141436Y-57954059D01*
X84141436Y-57954056D01*
X84104396Y-57881362D01*
X84104395Y-57881361D01*
X84078813Y-57831153D01*
X103788000Y-57831153D01*
X103788000Y-57988846D01*
X103818761Y-58143489D01*
X103818764Y-58143501D01*
X103879102Y-58289172D01*
X103879109Y-58289185D01*
X103966710Y-58420288D01*
X103966713Y-58420292D01*
X104078207Y-58531786D01*
X104078211Y-58531789D01*
X104209314Y-58619390D01*
X104209327Y-58619397D01*
X104354998Y-58679735D01*
X104355003Y-58679737D01*
X104509653Y-58710499D01*
X104509656Y-58710500D01*
X104509658Y-58710500D01*
X104667344Y-58710500D01*
X104667345Y-58710499D01*
X104821997Y-58679737D01*
X104934666Y-58633067D01*
X104967672Y-58619397D01*
X104967672Y-58619396D01*
X104967679Y-58619394D01*
X105098789Y-58531789D01*
X105210289Y-58420289D01*
X105297894Y-58289179D01*
X105358237Y-58143497D01*
X105389000Y-57988842D01*
X105389000Y-57831158D01*
X105389000Y-57831155D01*
X105388999Y-57831153D01*
X105358238Y-57676510D01*
X105358237Y-57676503D01*
X105358235Y-57676498D01*
X105297897Y-57530827D01*
X105297890Y-57530814D01*
X105210289Y-57399711D01*
X105210286Y-57399707D01*
X105098792Y-57288213D01*
X105098788Y-57288210D01*
X104998431Y-57221153D01*
X111569500Y-57221153D01*
X111569500Y-57378846D01*
X111600261Y-57533489D01*
X111600264Y-57533501D01*
X111660602Y-57679172D01*
X111660609Y-57679185D01*
X111748210Y-57810288D01*
X111748213Y-57810292D01*
X111859707Y-57921786D01*
X111859711Y-57921789D01*
X111990814Y-58009390D01*
X111990827Y-58009397D01*
X112065348Y-58040264D01*
X112136503Y-58069737D01*
X112291153Y-58100499D01*
X112291156Y-58100500D01*
X112291158Y-58100500D01*
X112448844Y-58100500D01*
X112448845Y-58100499D01*
X112603497Y-58069737D01*
X112749179Y-58009394D01*
X112880289Y-57921789D01*
X112991789Y-57810289D01*
X113079394Y-57679179D01*
X113080503Y-57676503D01*
X113139735Y-57533501D01*
X113139737Y-57533497D01*
X113170500Y-57378842D01*
X113170500Y-57221158D01*
X113170500Y-57221155D01*
X113170499Y-57221153D01*
X113168656Y-57211890D01*
X113139737Y-57066503D01*
X113139735Y-57066498D01*
X113079397Y-56920827D01*
X113079390Y-56920814D01*
X112991789Y-56789711D01*
X112991786Y-56789707D01*
X112880292Y-56678213D01*
X112880288Y-56678210D01*
X112749185Y-56590609D01*
X112749172Y-56590602D01*
X112608001Y-56532128D01*
X112608000Y-56532128D01*
X112603497Y-56530263D01*
X112603493Y-56530262D01*
X112603489Y-56530261D01*
X112448845Y-56499500D01*
X112448842Y-56499500D01*
X112291158Y-56499500D01*
X112291155Y-56499500D01*
X112136510Y-56530261D01*
X112136498Y-56530264D01*
X111990827Y-56590602D01*
X111990814Y-56590609D01*
X111859711Y-56678210D01*
X111859707Y-56678213D01*
X111748213Y-56789707D01*
X111748210Y-56789711D01*
X111660609Y-56920814D01*
X111660602Y-56920827D01*
X111600264Y-57066498D01*
X111600261Y-57066510D01*
X111569500Y-57221153D01*
X104998431Y-57221153D01*
X104967685Y-57200609D01*
X104967672Y-57200602D01*
X104822001Y-57140264D01*
X104821989Y-57140261D01*
X104667345Y-57109500D01*
X104667342Y-57109500D01*
X104509658Y-57109500D01*
X104509655Y-57109500D01*
X104355010Y-57140261D01*
X104354998Y-57140264D01*
X104209327Y-57200602D01*
X104209314Y-57200609D01*
X104078211Y-57288210D01*
X104078207Y-57288213D01*
X103966713Y-57399707D01*
X103966710Y-57399711D01*
X103879109Y-57530814D01*
X103879102Y-57530827D01*
X103818764Y-57676498D01*
X103818761Y-57676510D01*
X103788000Y-57831153D01*
X84078813Y-57831153D01*
X84047255Y-57769217D01*
X83925314Y-57601380D01*
X83778620Y-57454686D01*
X83610783Y-57332745D01*
X83425941Y-57238562D01*
X83228633Y-57174452D01*
X83023734Y-57142000D01*
X83023729Y-57142000D01*
X82816271Y-57142000D01*
X82816266Y-57142000D01*
X82611366Y-57174452D01*
X82414058Y-57238562D01*
X82229216Y-57332745D01*
X82137052Y-57399707D01*
X82061380Y-57454686D01*
X82061378Y-57454688D01*
X82061377Y-57454688D01*
X81914688Y-57601377D01*
X81914688Y-57601378D01*
X81914686Y-57601380D01*
X81862317Y-57673459D01*
X81792745Y-57769216D01*
X81698562Y-57954058D01*
X81634452Y-58151366D01*
X81602000Y-58356265D01*
X72500500Y-58356265D01*
X72500500Y-56423653D01*
X197029500Y-56423653D01*
X197029500Y-56581346D01*
X197060261Y-56735989D01*
X197060264Y-56736001D01*
X197120602Y-56881672D01*
X197120609Y-56881685D01*
X197208210Y-57012788D01*
X197208213Y-57012792D01*
X197319707Y-57124286D01*
X197319711Y-57124289D01*
X197450814Y-57211890D01*
X197450827Y-57211897D01*
X197596498Y-57272235D01*
X197596503Y-57272237D01*
X197751153Y-57302999D01*
X197751156Y-57303000D01*
X197751158Y-57303000D01*
X197908844Y-57303000D01*
X197908845Y-57302999D01*
X198063497Y-57272237D01*
X198209179Y-57211894D01*
X198340289Y-57124289D01*
X198451789Y-57012789D01*
X198539394Y-56881679D01*
X198599737Y-56735997D01*
X198630500Y-56581342D01*
X198630500Y-56423658D01*
X198630500Y-56423655D01*
X198630499Y-56423653D01*
X198599738Y-56269010D01*
X198599737Y-56269003D01*
X198599735Y-56268998D01*
X198539397Y-56123327D01*
X198539390Y-56123314D01*
X198451789Y-55992211D01*
X198451786Y-55992207D01*
X198340292Y-55880713D01*
X198340288Y-55880710D01*
X198209185Y-55793109D01*
X198209172Y-55793102D01*
X198063501Y-55732764D01*
X198063489Y-55732761D01*
X197908845Y-55702000D01*
X197908842Y-55702000D01*
X197751158Y-55702000D01*
X197751155Y-55702000D01*
X197596510Y-55732761D01*
X197596498Y-55732764D01*
X197450827Y-55793102D01*
X197450814Y-55793109D01*
X197319711Y-55880710D01*
X197319707Y-55880713D01*
X197208213Y-55992207D01*
X197208210Y-55992211D01*
X197120609Y-56123314D01*
X197120602Y-56123327D01*
X197060264Y-56268998D01*
X197060261Y-56269010D01*
X197029500Y-56423653D01*
X72500500Y-56423653D01*
X72500500Y-51353505D01*
X78891500Y-51353505D01*
X78891500Y-51646494D01*
X78924302Y-51937615D01*
X78924304Y-51937631D01*
X78989497Y-52223262D01*
X78989501Y-52223274D01*
X79086264Y-52499806D01*
X79213381Y-52763766D01*
X79369259Y-53011844D01*
X79369260Y-53011846D01*
X79551921Y-53240897D01*
X79759102Y-53448078D01*
X79988153Y-53630739D01*
X79988156Y-53630740D01*
X79988158Y-53630742D01*
X80236231Y-53786617D01*
X80500197Y-53913737D01*
X80707892Y-53986412D01*
X80776725Y-54010498D01*
X80776737Y-54010502D01*
X81062372Y-54075696D01*
X81353505Y-54108499D01*
X81353506Y-54108500D01*
X81353510Y-54108500D01*
X81646494Y-54108500D01*
X81646494Y-54108499D01*
X81937628Y-54075696D01*
X82223263Y-54010502D01*
X82499803Y-53913737D01*
X82763769Y-53786617D01*
X83011842Y-53630742D01*
X83011846Y-53630739D01*
X83240897Y-53448078D01*
X83240899Y-53448075D01*
X83240904Y-53448072D01*
X83448072Y-53240904D01*
X83630742Y-53011842D01*
X83786617Y-52763769D01*
X83913737Y-52499803D01*
X84010502Y-52223263D01*
X84075696Y-51937628D01*
X84108500Y-51646490D01*
X84108500Y-51353510D01*
X84075696Y-51062372D01*
X84010502Y-50776737D01*
X83913737Y-50500197D01*
X83786617Y-50236231D01*
X83630742Y-49988158D01*
X83630740Y-49988155D01*
X83630739Y-49988153D01*
X83448078Y-49759102D01*
X83240897Y-49551921D01*
X83011846Y-49369260D01*
X83011844Y-49369259D01*
X82763766Y-49213381D01*
X82499806Y-49086264D01*
X82223274Y-48989501D01*
X82223262Y-48989497D01*
X81937631Y-48924304D01*
X81937615Y-48924302D01*
X81646494Y-48891500D01*
X81646490Y-48891500D01*
X81353510Y-48891500D01*
X81353506Y-48891500D01*
X81062384Y-48924302D01*
X81062368Y-48924304D01*
X80776737Y-48989497D01*
X80776725Y-48989501D01*
X80500193Y-49086264D01*
X80236233Y-49213381D01*
X79988155Y-49369259D01*
X79988153Y-49369260D01*
X79759102Y-49551921D01*
X79551921Y-49759102D01*
X79369260Y-49988153D01*
X79369259Y-49988155D01*
X79213381Y-50236233D01*
X79086264Y-50500193D01*
X78989501Y-50776725D01*
X78989497Y-50776737D01*
X78924304Y-51062368D01*
X78924302Y-51062384D01*
X78891500Y-51353505D01*
X72500500Y-51353505D01*
X72500500Y-44002706D01*
X72500618Y-43997297D01*
X72508437Y-43818209D01*
X75299500Y-43818209D01*
X75299500Y-44181790D01*
X75335137Y-44543630D01*
X75406064Y-44900212D01*
X75406067Y-44900223D01*
X75511614Y-45248165D01*
X75650754Y-45584078D01*
X75650756Y-45584083D01*
X75822140Y-45904720D01*
X75822151Y-45904738D01*
X76024140Y-46207035D01*
X76024150Y-46207049D01*
X76254807Y-46488106D01*
X76511893Y-46745192D01*
X76511898Y-46745196D01*
X76511899Y-46745197D01*
X76792956Y-46975854D01*
X77095268Y-47177853D01*
X77095277Y-47177858D01*
X77095279Y-47177859D01*
X77415916Y-47349243D01*
X77415918Y-47349243D01*
X77415924Y-47349247D01*
X77751836Y-47488386D01*
X78099767Y-47593930D01*
X78099773Y-47593931D01*
X78099776Y-47593932D01*
X78099787Y-47593935D01*
X78456369Y-47664862D01*
X78818206Y-47700500D01*
X78818209Y-47700500D01*
X79181791Y-47700500D01*
X79181794Y-47700500D01*
X79543631Y-47664862D01*
X79613045Y-47651054D01*
X79900212Y-47593935D01*
X79900223Y-47593932D01*
X79900223Y-47593931D01*
X79900233Y-47593930D01*
X80248164Y-47488386D01*
X80584076Y-47349247D01*
X80904732Y-47177853D01*
X80944691Y-47151153D01*
X101448000Y-47151153D01*
X101448000Y-47308846D01*
X101478761Y-47463489D01*
X101478764Y-47463501D01*
X101539102Y-47609172D01*
X101539109Y-47609185D01*
X101626710Y-47740288D01*
X101626713Y-47740292D01*
X101738207Y-47851786D01*
X101738211Y-47851789D01*
X101869314Y-47939390D01*
X101869327Y-47939397D01*
X102014998Y-47999735D01*
X102015003Y-47999737D01*
X102169653Y-48030499D01*
X102169656Y-48030500D01*
X102169658Y-48030500D01*
X102327344Y-48030500D01*
X102327345Y-48030499D01*
X102481997Y-47999737D01*
X102627679Y-47939394D01*
X102758789Y-47851789D01*
X102870289Y-47740289D01*
X102957894Y-47609179D01*
X102964210Y-47593932D01*
X102997701Y-47513076D01*
X103018237Y-47463497D01*
X103049000Y-47308842D01*
X103049000Y-47151158D01*
X103049000Y-47151155D01*
X103028340Y-47047293D01*
X103028340Y-47047292D01*
X103024497Y-47027973D01*
X140719500Y-47027973D01*
X140719500Y-47272027D01*
X140757679Y-47513076D01*
X140833096Y-47745185D01*
X140932050Y-47939394D01*
X140943896Y-47962642D01*
X141087339Y-48160076D01*
X141087343Y-48160081D01*
X141259918Y-48332656D01*
X141259923Y-48332660D01*
X141432136Y-48457779D01*
X141457361Y-48476106D01*
X141674815Y-48586904D01*
X141906924Y-48662321D01*
X142147973Y-48700500D01*
X142147974Y-48700500D01*
X142392026Y-48700500D01*
X142392027Y-48700500D01*
X142633076Y-48662321D01*
X142865185Y-48586904D01*
X143082639Y-48476106D01*
X143280083Y-48332655D01*
X143452655Y-48160083D01*
X143596106Y-47962639D01*
X143706904Y-47745185D01*
X143782321Y-47513076D01*
X143820500Y-47272027D01*
X143820500Y-47027973D01*
X148339500Y-47027973D01*
X148339500Y-47272027D01*
X148377679Y-47513076D01*
X148453096Y-47745185D01*
X148552050Y-47939394D01*
X148563896Y-47962642D01*
X148707339Y-48160076D01*
X148707343Y-48160081D01*
X148879918Y-48332656D01*
X148879923Y-48332660D01*
X149052136Y-48457779D01*
X149077361Y-48476106D01*
X149294815Y-48586904D01*
X149526924Y-48662321D01*
X149767973Y-48700500D01*
X149767974Y-48700500D01*
X150012026Y-48700500D01*
X150012027Y-48700500D01*
X150253076Y-48662321D01*
X150485185Y-48586904D01*
X150702639Y-48476106D01*
X150900083Y-48332655D01*
X151072655Y-48160083D01*
X151216106Y-47962639D01*
X151326904Y-47745185D01*
X151402321Y-47513076D01*
X151440500Y-47272027D01*
X151440500Y-47027973D01*
X151402321Y-46786924D01*
X151326904Y-46554815D01*
X151216106Y-46337361D01*
X151121429Y-46207049D01*
X151072660Y-46139923D01*
X151072656Y-46139918D01*
X150900081Y-45967343D01*
X150900076Y-45967339D01*
X150702642Y-45823896D01*
X150702641Y-45823895D01*
X150702639Y-45823894D01*
X150485185Y-45713096D01*
X150253076Y-45637679D01*
X150253074Y-45637678D01*
X150253072Y-45637678D01*
X150084769Y-45611021D01*
X150012027Y-45599500D01*
X149767973Y-45599500D01*
X149712093Y-45608350D01*
X149526927Y-45637678D01*
X149294812Y-45713097D01*
X149077357Y-45823896D01*
X148879923Y-45967339D01*
X148879918Y-45967343D01*
X148707343Y-46139918D01*
X148707339Y-46139923D01*
X148563896Y-46337357D01*
X148453097Y-46554812D01*
X148377678Y-46786927D01*
X148347756Y-46975849D01*
X148339500Y-47027973D01*
X143820500Y-47027973D01*
X143782321Y-46786924D01*
X143706904Y-46554815D01*
X143596106Y-46337361D01*
X143501429Y-46207049D01*
X143452660Y-46139923D01*
X143452656Y-46139918D01*
X143280081Y-45967343D01*
X143280076Y-45967339D01*
X143082642Y-45823896D01*
X143082641Y-45823895D01*
X143082639Y-45823894D01*
X142865185Y-45713096D01*
X142633076Y-45637679D01*
X142633074Y-45637678D01*
X142633072Y-45637678D01*
X142464769Y-45611021D01*
X142392027Y-45599500D01*
X142147973Y-45599500D01*
X142092093Y-45608350D01*
X141906927Y-45637678D01*
X141674812Y-45713097D01*
X141457357Y-45823896D01*
X141259923Y-45967339D01*
X141259918Y-45967343D01*
X141087343Y-46139918D01*
X141087339Y-46139923D01*
X140943896Y-46337357D01*
X140833097Y-46554812D01*
X140757678Y-46786927D01*
X140727756Y-46975849D01*
X140719500Y-47027973D01*
X103024497Y-47027973D01*
X103018238Y-46996510D01*
X103018237Y-46996503D01*
X103009682Y-46975849D01*
X102957897Y-46850827D01*
X102957890Y-46850814D01*
X102870289Y-46719711D01*
X102870286Y-46719707D01*
X102758792Y-46608213D01*
X102758788Y-46608210D01*
X102627685Y-46520609D01*
X102627672Y-46520602D01*
X102482001Y-46460264D01*
X102481989Y-46460261D01*
X102327345Y-46429500D01*
X102327342Y-46429500D01*
X102169658Y-46429500D01*
X102169655Y-46429500D01*
X102015010Y-46460261D01*
X102014998Y-46460264D01*
X101869327Y-46520602D01*
X101869314Y-46520609D01*
X101738211Y-46608210D01*
X101738207Y-46608213D01*
X101626713Y-46719707D01*
X101626710Y-46719711D01*
X101539109Y-46850814D01*
X101539102Y-46850827D01*
X101478764Y-46996498D01*
X101478761Y-46996510D01*
X101448000Y-47151153D01*
X80944691Y-47151153D01*
X81071725Y-47066270D01*
X81108104Y-47041964D01*
X81129043Y-47027973D01*
X81207044Y-46975854D01*
X81488101Y-46745197D01*
X81745197Y-46488101D01*
X81975854Y-46207044D01*
X82177853Y-45904732D01*
X82349247Y-45584076D01*
X82488386Y-45248164D01*
X82593930Y-44900233D01*
X82593932Y-44900223D01*
X82593935Y-44900212D01*
X82664862Y-44543630D01*
X82700500Y-44181790D01*
X82700500Y-43818209D01*
X203299500Y-43818209D01*
X203299500Y-44181790D01*
X203335137Y-44543630D01*
X203406064Y-44900212D01*
X203406067Y-44900223D01*
X203511614Y-45248165D01*
X203650754Y-45584078D01*
X203650756Y-45584083D01*
X203822140Y-45904720D01*
X203822151Y-45904738D01*
X204024140Y-46207035D01*
X204024150Y-46207049D01*
X204254807Y-46488106D01*
X204511893Y-46745192D01*
X204511898Y-46745196D01*
X204511899Y-46745197D01*
X204792956Y-46975854D01*
X205095268Y-47177853D01*
X205095277Y-47177858D01*
X205095279Y-47177859D01*
X205415916Y-47349243D01*
X205415918Y-47349243D01*
X205415924Y-47349247D01*
X205751836Y-47488386D01*
X206099767Y-47593930D01*
X206099773Y-47593931D01*
X206099776Y-47593932D01*
X206099787Y-47593935D01*
X206456369Y-47664862D01*
X206818206Y-47700500D01*
X206818209Y-47700500D01*
X207181791Y-47700500D01*
X207181794Y-47700500D01*
X207543631Y-47664862D01*
X207613045Y-47651054D01*
X207900212Y-47593935D01*
X207900223Y-47593932D01*
X207900223Y-47593931D01*
X207900233Y-47593930D01*
X208248164Y-47488386D01*
X208584076Y-47349247D01*
X208904732Y-47177853D01*
X209207044Y-46975854D01*
X209488101Y-46745197D01*
X209745197Y-46488101D01*
X209975854Y-46207044D01*
X210177853Y-45904732D01*
X210349247Y-45584076D01*
X210488386Y-45248164D01*
X210593930Y-44900233D01*
X210593932Y-44900223D01*
X210593935Y-44900212D01*
X210664862Y-44543630D01*
X210700500Y-44181790D01*
X210700500Y-43818209D01*
X210680313Y-43613250D01*
X210664862Y-43456369D01*
X210593935Y-43099787D01*
X210593932Y-43099776D01*
X210593931Y-43099773D01*
X210593930Y-43099767D01*
X210488386Y-42751836D01*
X210349247Y-42415924D01*
X210177853Y-42095268D01*
X209975854Y-41792956D01*
X209745197Y-41511899D01*
X209745196Y-41511898D01*
X209745192Y-41511893D01*
X209488106Y-41254807D01*
X209207049Y-41024150D01*
X209207048Y-41024149D01*
X209207044Y-41024146D01*
X208904732Y-40822147D01*
X208904727Y-40822144D01*
X208904720Y-40822140D01*
X208584083Y-40650756D01*
X208584078Y-40650754D01*
X208248165Y-40511614D01*
X207900223Y-40406067D01*
X207900212Y-40406064D01*
X207543630Y-40335137D01*
X207271111Y-40308296D01*
X207181794Y-40299500D01*
X206818206Y-40299500D01*
X206735679Y-40307628D01*
X206456369Y-40335137D01*
X206099787Y-40406064D01*
X206099776Y-40406067D01*
X205751834Y-40511614D01*
X205415921Y-40650754D01*
X205415916Y-40650756D01*
X205095279Y-40822140D01*
X205095261Y-40822151D01*
X204792964Y-41024140D01*
X204792950Y-41024150D01*
X204511893Y-41254807D01*
X204254807Y-41511893D01*
X204024150Y-41792950D01*
X204024140Y-41792964D01*
X203822151Y-42095261D01*
X203822140Y-42095279D01*
X203650756Y-42415916D01*
X203650754Y-42415921D01*
X203511614Y-42751834D01*
X203406067Y-43099776D01*
X203406064Y-43099787D01*
X203335137Y-43456369D01*
X203299500Y-43818209D01*
X82700500Y-43818209D01*
X82680313Y-43613250D01*
X82664862Y-43456369D01*
X82593935Y-43099787D01*
X82593932Y-43099776D01*
X82593931Y-43099773D01*
X82593930Y-43099767D01*
X82488386Y-42751836D01*
X82349247Y-42415924D01*
X82177853Y-42095268D01*
X81975854Y-41792956D01*
X81745197Y-41511899D01*
X81745196Y-41511898D01*
X81745192Y-41511893D01*
X81488106Y-41254807D01*
X81207049Y-41024150D01*
X81207048Y-41024149D01*
X81207044Y-41024146D01*
X80904732Y-40822147D01*
X80904727Y-40822144D01*
X80904720Y-40822140D01*
X80584083Y-40650756D01*
X80584078Y-40650754D01*
X80248165Y-40511614D01*
X79900223Y-40406067D01*
X79900212Y-40406064D01*
X79543630Y-40335137D01*
X79271111Y-40308296D01*
X79181794Y-40299500D01*
X78818206Y-40299500D01*
X78735679Y-40307628D01*
X78456369Y-40335137D01*
X78099787Y-40406064D01*
X78099776Y-40406067D01*
X77751834Y-40511614D01*
X77415921Y-40650754D01*
X77415916Y-40650756D01*
X77095279Y-40822140D01*
X77095261Y-40822151D01*
X76792964Y-41024140D01*
X76792950Y-41024150D01*
X76511893Y-41254807D01*
X76254807Y-41511893D01*
X76024150Y-41792950D01*
X76024140Y-41792964D01*
X75822151Y-42095261D01*
X75822140Y-42095279D01*
X75650756Y-42415916D01*
X75650754Y-42415921D01*
X75511614Y-42751834D01*
X75406067Y-43099776D01*
X75406064Y-43099787D01*
X75335137Y-43456369D01*
X75299500Y-43818209D01*
X72508437Y-43818209D01*
X72508806Y-43809753D01*
X72508806Y-43809752D01*
X72517386Y-43613228D01*
X72518326Y-43602495D01*
X72568152Y-43224025D01*
X72570025Y-43213405D01*
X72652649Y-42840709D01*
X72655440Y-42830295D01*
X72770230Y-42466227D01*
X72773917Y-42456095D01*
X72920003Y-42103412D01*
X72924561Y-42093638D01*
X73100822Y-41755045D01*
X73106217Y-41745700D01*
X73311325Y-41423744D01*
X73317515Y-41414905D01*
X73549896Y-41112060D01*
X73556834Y-41103791D01*
X73814726Y-40822352D01*
X73822352Y-40814726D01*
X74103791Y-40556834D01*
X74112060Y-40549896D01*
X74414905Y-40317515D01*
X74423744Y-40311325D01*
X74745700Y-40106217D01*
X74755045Y-40100822D01*
X75093638Y-39924561D01*
X75103412Y-39920003D01*
X75456095Y-39773917D01*
X75466227Y-39770230D01*
X75830295Y-39655440D01*
X75840709Y-39652649D01*
X76213405Y-39570025D01*
X76224025Y-39568152D01*
X76602495Y-39518326D01*
X76613226Y-39517386D01*
X76997297Y-39500617D01*
X77002706Y-39500500D01*
X77065892Y-39500500D01*
X208934108Y-39500500D01*
X208997294Y-39500500D01*
X209002702Y-39500617D01*
G37*
%TD.AperFunction*%
%TD*%
%TA.AperFunction,Conductor*%
%TO.N,/V_SEC_RTN*%
G36*
X180943039Y-74019685D02*
G01*
X180988794Y-74072489D01*
X181000000Y-74124000D01*
X181000000Y-86000000D01*
X213375500Y-86000000D01*
X213442539Y-86019685D01*
X213488294Y-86072489D01*
X213499500Y-86124000D01*
X213499500Y-94858620D01*
X213479815Y-94925659D01*
X213427011Y-94971414D01*
X213357853Y-94981358D01*
X213294297Y-94952333D01*
X213275182Y-94931506D01*
X213222227Y-94858620D01*
X213124530Y-94724152D01*
X212945848Y-94545470D01*
X212741413Y-94396939D01*
X212516260Y-94282218D01*
X212275932Y-94204130D01*
X212275930Y-94204129D01*
X212275928Y-94204129D01*
X212026353Y-94164600D01*
X212026348Y-94164600D01*
X211773652Y-94164600D01*
X211773647Y-94164600D01*
X211524071Y-94204129D01*
X211283737Y-94282219D01*
X211058586Y-94396939D01*
X210952518Y-94474003D01*
X210854152Y-94545470D01*
X210854150Y-94545472D01*
X210854149Y-94545472D01*
X210675472Y-94724149D01*
X210675472Y-94724150D01*
X210675470Y-94724152D01*
X210611681Y-94811949D01*
X210526939Y-94928586D01*
X210412219Y-95153737D01*
X210334129Y-95394071D01*
X210294600Y-95643646D01*
X210294600Y-95896353D01*
X210315374Y-96027512D01*
X210334130Y-96145932D01*
X210412218Y-96386260D01*
X210526939Y-96611413D01*
X210675470Y-96815848D01*
X210854152Y-96994530D01*
X211058587Y-97143061D01*
X211283740Y-97257782D01*
X211524068Y-97335870D01*
X211617662Y-97350693D01*
X211773647Y-97375400D01*
X211773652Y-97375400D01*
X212026353Y-97375400D01*
X212165005Y-97353438D01*
X212275932Y-97335870D01*
X212516260Y-97257782D01*
X212741413Y-97143061D01*
X212945848Y-96994530D01*
X213124530Y-96815848D01*
X213273061Y-96611413D01*
X213273062Y-96611410D01*
X213275182Y-96608493D01*
X213330512Y-96565828D01*
X213400125Y-96559849D01*
X213461920Y-96592455D01*
X213496278Y-96653294D01*
X213499500Y-96681379D01*
X213499500Y-99938620D01*
X213479815Y-100005659D01*
X213427011Y-100051414D01*
X213357853Y-100061358D01*
X213294297Y-100032333D01*
X213275182Y-100011506D01*
X213222227Y-99938620D01*
X213124530Y-99804152D01*
X212945848Y-99625470D01*
X212741413Y-99476939D01*
X212516260Y-99362218D01*
X212275932Y-99284130D01*
X212275930Y-99284129D01*
X212275928Y-99284129D01*
X212026353Y-99244600D01*
X212026348Y-99244600D01*
X211773652Y-99244600D01*
X211773647Y-99244600D01*
X211524071Y-99284129D01*
X211283737Y-99362219D01*
X211058586Y-99476939D01*
X210961527Y-99547457D01*
X210854152Y-99625470D01*
X210854150Y-99625472D01*
X210854149Y-99625472D01*
X210675472Y-99804149D01*
X210675472Y-99804150D01*
X210675470Y-99804152D01*
X210650650Y-99838314D01*
X210526939Y-100008586D01*
X210412219Y-100233737D01*
X210334129Y-100474071D01*
X210294600Y-100723646D01*
X210294600Y-100976353D01*
X210329686Y-101197873D01*
X210334130Y-101225932D01*
X210412218Y-101466260D01*
X210526939Y-101691413D01*
X210675470Y-101895848D01*
X210854152Y-102074530D01*
X211058587Y-102223061D01*
X211283740Y-102337782D01*
X211524068Y-102415870D01*
X211617662Y-102430693D01*
X211773647Y-102455400D01*
X211773652Y-102455400D01*
X212026353Y-102455400D01*
X212165005Y-102433438D01*
X212275932Y-102415870D01*
X212516260Y-102337782D01*
X212741413Y-102223061D01*
X212945848Y-102074530D01*
X213124530Y-101895848D01*
X213273061Y-101691413D01*
X213273062Y-101691410D01*
X213275182Y-101688493D01*
X213330512Y-101645828D01*
X213400125Y-101639849D01*
X213461920Y-101672455D01*
X213496278Y-101733294D01*
X213499500Y-101761379D01*
X213499500Y-123997293D01*
X213499382Y-124002702D01*
X213482614Y-124386750D01*
X213481671Y-124397526D01*
X213431849Y-124775957D01*
X213429971Y-124786610D01*
X213347354Y-125159272D01*
X213344554Y-125169721D01*
X213229775Y-125533755D01*
X213226075Y-125543921D01*
X213080002Y-125896572D01*
X213075430Y-125906376D01*
X212899183Y-126244942D01*
X212893775Y-126254310D01*
X212688681Y-126576244D01*
X212682476Y-126585105D01*
X212450110Y-126887930D01*
X212443156Y-126896217D01*
X212185284Y-127177635D01*
X212177635Y-127185284D01*
X211896217Y-127443156D01*
X211887930Y-127450110D01*
X211585105Y-127682476D01*
X211576244Y-127688681D01*
X211254310Y-127893775D01*
X211244942Y-127899183D01*
X210906376Y-128075430D01*
X210896572Y-128080002D01*
X210543921Y-128226075D01*
X210533755Y-128229775D01*
X210169721Y-128344554D01*
X210159272Y-128347354D01*
X209786610Y-128429971D01*
X209775957Y-128431849D01*
X209397526Y-128481671D01*
X209386750Y-128482614D01*
X209002703Y-128499382D01*
X208997294Y-128499500D01*
X77002706Y-128499500D01*
X76997297Y-128499382D01*
X76613249Y-128482614D01*
X76602473Y-128481671D01*
X76224042Y-128431849D01*
X76213389Y-128429971D01*
X75840727Y-128347354D01*
X75830278Y-128344554D01*
X75466244Y-128229775D01*
X75456078Y-128226075D01*
X75103427Y-128080002D01*
X75093623Y-128075430D01*
X74755057Y-127899183D01*
X74745689Y-127893775D01*
X74423755Y-127688681D01*
X74414894Y-127682476D01*
X74112069Y-127450110D01*
X74103782Y-127443156D01*
X73822364Y-127185284D01*
X73814715Y-127177635D01*
X73556843Y-126896217D01*
X73549889Y-126887930D01*
X73317523Y-126585105D01*
X73311318Y-126576244D01*
X73106224Y-126254310D01*
X73100816Y-126244942D01*
X72960737Y-125975854D01*
X72924566Y-125906369D01*
X72919997Y-125896572D01*
X72773920Y-125543911D01*
X72770224Y-125533755D01*
X72755831Y-125488106D01*
X72655442Y-125169710D01*
X72652648Y-125159284D01*
X72570025Y-124786597D01*
X72568152Y-124775971D01*
X72518326Y-124397506D01*
X72517386Y-124386771D01*
X72500618Y-124002702D01*
X72500500Y-123997293D01*
X72500500Y-122818209D01*
X75299500Y-122818209D01*
X75299500Y-123181790D01*
X75335137Y-123543630D01*
X75406064Y-123900212D01*
X75406067Y-123900223D01*
X75511614Y-124248165D01*
X75650754Y-124584078D01*
X75650756Y-124584083D01*
X75822140Y-124904720D01*
X75822144Y-124904727D01*
X75822147Y-124904732D01*
X75999207Y-125169721D01*
X76024140Y-125207035D01*
X76024150Y-125207049D01*
X76254807Y-125488106D01*
X76511893Y-125745192D01*
X76511898Y-125745196D01*
X76511899Y-125745197D01*
X76792956Y-125975854D01*
X77095268Y-126177853D01*
X77095277Y-126177858D01*
X77095279Y-126177859D01*
X77415916Y-126349243D01*
X77415918Y-126349243D01*
X77415924Y-126349247D01*
X77751836Y-126488386D01*
X78099767Y-126593930D01*
X78099773Y-126593931D01*
X78099776Y-126593932D01*
X78099787Y-126593935D01*
X78456369Y-126664862D01*
X78818206Y-126700500D01*
X78818209Y-126700500D01*
X79181791Y-126700500D01*
X79181794Y-126700500D01*
X79543631Y-126664862D01*
X79613045Y-126651054D01*
X79900212Y-126593935D01*
X79900223Y-126593932D01*
X79900223Y-126593931D01*
X79900233Y-126593930D01*
X80248164Y-126488386D01*
X80584076Y-126349247D01*
X80904732Y-126177853D01*
X81207044Y-125975854D01*
X81488101Y-125745197D01*
X81745197Y-125488101D01*
X81975854Y-125207044D01*
X82177853Y-124904732D01*
X82349247Y-124584076D01*
X82488386Y-124248164D01*
X82593930Y-123900233D01*
X82593932Y-123900223D01*
X82593935Y-123900212D01*
X82664862Y-123543630D01*
X82700500Y-123181790D01*
X82700500Y-122818209D01*
X203299500Y-122818209D01*
X203299500Y-123181790D01*
X203335137Y-123543630D01*
X203406064Y-123900212D01*
X203406067Y-123900223D01*
X203511614Y-124248165D01*
X203650754Y-124584078D01*
X203650756Y-124584083D01*
X203822140Y-124904720D01*
X203822144Y-124904727D01*
X203822147Y-124904732D01*
X203999207Y-125169721D01*
X204024140Y-125207035D01*
X204024150Y-125207049D01*
X204254807Y-125488106D01*
X204511893Y-125745192D01*
X204511898Y-125745196D01*
X204511899Y-125745197D01*
X204792956Y-125975854D01*
X205095268Y-126177853D01*
X205095277Y-126177858D01*
X205095279Y-126177859D01*
X205415916Y-126349243D01*
X205415918Y-126349243D01*
X205415924Y-126349247D01*
X205751836Y-126488386D01*
X206099767Y-126593930D01*
X206099773Y-126593931D01*
X206099776Y-126593932D01*
X206099787Y-126593935D01*
X206456369Y-126664862D01*
X206818206Y-126700500D01*
X206818209Y-126700500D01*
X207181791Y-126700500D01*
X207181794Y-126700500D01*
X207543631Y-126664862D01*
X207613045Y-126651054D01*
X207900212Y-126593935D01*
X207900223Y-126593932D01*
X207900223Y-126593931D01*
X207900233Y-126593930D01*
X208248164Y-126488386D01*
X208584076Y-126349247D01*
X208904732Y-126177853D01*
X209207044Y-125975854D01*
X209488101Y-125745197D01*
X209745197Y-125488101D01*
X209975854Y-125207044D01*
X210177853Y-124904732D01*
X210349247Y-124584076D01*
X210488386Y-124248164D01*
X210593930Y-123900233D01*
X210593932Y-123900223D01*
X210593935Y-123900212D01*
X210664862Y-123543630D01*
X210700500Y-123181790D01*
X210700500Y-122818209D01*
X210664862Y-122456369D01*
X210593935Y-122099787D01*
X210593932Y-122099776D01*
X210593931Y-122099773D01*
X210593930Y-122099767D01*
X210488386Y-121751836D01*
X210349247Y-121415924D01*
X210177853Y-121095268D01*
X209975854Y-120792956D01*
X209745197Y-120511899D01*
X209745196Y-120511898D01*
X209745192Y-120511893D01*
X209488106Y-120254807D01*
X209207049Y-120024150D01*
X209207048Y-120024149D01*
X209207044Y-120024146D01*
X208904732Y-119822147D01*
X208904727Y-119822144D01*
X208904720Y-119822140D01*
X208584083Y-119650756D01*
X208584078Y-119650754D01*
X208248165Y-119511614D01*
X207900223Y-119406067D01*
X207900212Y-119406064D01*
X207543630Y-119335137D01*
X207271111Y-119308296D01*
X207181794Y-119299500D01*
X206818206Y-119299500D01*
X206735679Y-119307628D01*
X206456369Y-119335137D01*
X206099787Y-119406064D01*
X206099776Y-119406067D01*
X205751834Y-119511614D01*
X205415921Y-119650754D01*
X205415916Y-119650756D01*
X205095279Y-119822140D01*
X205095261Y-119822151D01*
X204792964Y-120024140D01*
X204792950Y-120024150D01*
X204511893Y-120254807D01*
X204254807Y-120511893D01*
X204024150Y-120792950D01*
X204024140Y-120792964D01*
X203822151Y-121095261D01*
X203822140Y-121095279D01*
X203650756Y-121415916D01*
X203650754Y-121415921D01*
X203511614Y-121751834D01*
X203406067Y-122099776D01*
X203406064Y-122099787D01*
X203335137Y-122456369D01*
X203299500Y-122818209D01*
X82700500Y-122818209D01*
X82664862Y-122456369D01*
X82593935Y-122099787D01*
X82593932Y-122099776D01*
X82593931Y-122099773D01*
X82593930Y-122099767D01*
X82488386Y-121751836D01*
X82349247Y-121415924D01*
X82177853Y-121095268D01*
X81975854Y-120792956D01*
X81745197Y-120511899D01*
X81745196Y-120511898D01*
X81745192Y-120511893D01*
X81488106Y-120254807D01*
X81207049Y-120024150D01*
X81207048Y-120024149D01*
X81207044Y-120024146D01*
X80904732Y-119822147D01*
X80904727Y-119822144D01*
X80904720Y-119822140D01*
X80584083Y-119650756D01*
X80584078Y-119650754D01*
X80248165Y-119511614D01*
X79900223Y-119406067D01*
X79900212Y-119406064D01*
X79543630Y-119335137D01*
X79271111Y-119308296D01*
X79181794Y-119299500D01*
X78818206Y-119299500D01*
X78735679Y-119307628D01*
X78456369Y-119335137D01*
X78099787Y-119406064D01*
X78099776Y-119406067D01*
X77751834Y-119511614D01*
X77415921Y-119650754D01*
X77415916Y-119650756D01*
X77095279Y-119822140D01*
X77095261Y-119822151D01*
X76792964Y-120024140D01*
X76792950Y-120024150D01*
X76511893Y-120254807D01*
X76254807Y-120511893D01*
X76024150Y-120792950D01*
X76024140Y-120792964D01*
X75822151Y-121095261D01*
X75822140Y-121095279D01*
X75650756Y-121415916D01*
X75650754Y-121415921D01*
X75511614Y-121751834D01*
X75406067Y-122099776D01*
X75406064Y-122099787D01*
X75335137Y-122456369D01*
X75299500Y-122818209D01*
X72500500Y-122818209D01*
X72500500Y-114763505D01*
X78891500Y-114763505D01*
X78891500Y-115056494D01*
X78924302Y-115347615D01*
X78924304Y-115347631D01*
X78989497Y-115633262D01*
X78989501Y-115633274D01*
X79086264Y-115909806D01*
X79213381Y-116173766D01*
X79369259Y-116421844D01*
X79369260Y-116421846D01*
X79551921Y-116650897D01*
X79759102Y-116858078D01*
X79988153Y-117040739D01*
X79988156Y-117040740D01*
X79988158Y-117040742D01*
X80236231Y-117196617D01*
X80500197Y-117323737D01*
X80707892Y-117396412D01*
X80776725Y-117420498D01*
X80776737Y-117420502D01*
X81062372Y-117485696D01*
X81353505Y-117518499D01*
X81353506Y-117518500D01*
X81353510Y-117518500D01*
X81646494Y-117518500D01*
X81646494Y-117518499D01*
X81937628Y-117485696D01*
X82223263Y-117420502D01*
X82499803Y-117323737D01*
X82763769Y-117196617D01*
X83011842Y-117040742D01*
X83011846Y-117040739D01*
X83240897Y-116858078D01*
X83240899Y-116858075D01*
X83240904Y-116858072D01*
X83448072Y-116650904D01*
X83630742Y-116421842D01*
X83786617Y-116173769D01*
X83913737Y-115909803D01*
X84010502Y-115633263D01*
X84075696Y-115347628D01*
X84108500Y-115056490D01*
X84108500Y-114763510D01*
X84075696Y-114472372D01*
X84010502Y-114186737D01*
X83913737Y-113910197D01*
X83786617Y-113646231D01*
X83630742Y-113398158D01*
X83630740Y-113398155D01*
X83630739Y-113398153D01*
X83448078Y-113169102D01*
X83240897Y-112961921D01*
X83011846Y-112779260D01*
X83011844Y-112779259D01*
X82763766Y-112623381D01*
X82499806Y-112496264D01*
X82223274Y-112399501D01*
X82223262Y-112399497D01*
X81937631Y-112334304D01*
X81937615Y-112334302D01*
X81646494Y-112301500D01*
X81646490Y-112301500D01*
X81353510Y-112301500D01*
X81353506Y-112301500D01*
X81062384Y-112334302D01*
X81062368Y-112334304D01*
X80776737Y-112399497D01*
X80776725Y-112399501D01*
X80500193Y-112496264D01*
X80236233Y-112623381D01*
X79988155Y-112779259D01*
X79988153Y-112779260D01*
X79759102Y-112961921D01*
X79551921Y-113169102D01*
X79369260Y-113398153D01*
X79369259Y-113398155D01*
X79213381Y-113646233D01*
X79086264Y-113910193D01*
X78989501Y-114186725D01*
X78989497Y-114186737D01*
X78924304Y-114472368D01*
X78924302Y-114472384D01*
X78891500Y-114763505D01*
X72500500Y-114763505D01*
X72500500Y-98154216D01*
X78799500Y-98154216D01*
X78799500Y-98355783D01*
X78831030Y-98554852D01*
X78893312Y-98746539D01*
X78917757Y-98794514D01*
X78984818Y-98926129D01*
X79103289Y-99089190D01*
X79245810Y-99231711D01*
X79408871Y-99350182D01*
X79588458Y-99441686D01*
X79588460Y-99441687D01*
X79780147Y-99503970D01*
X79865741Y-99517527D01*
X79928876Y-99547457D01*
X79965807Y-99606768D01*
X79964809Y-99676631D01*
X79926199Y-99734863D01*
X79865741Y-99762473D01*
X79780147Y-99776029D01*
X79588460Y-99838312D01*
X79408870Y-99929818D01*
X79315838Y-99997410D01*
X79245810Y-100048289D01*
X79245808Y-100048291D01*
X79245807Y-100048291D01*
X79103291Y-100190807D01*
X79103291Y-100190808D01*
X79103289Y-100190810D01*
X79052410Y-100260838D01*
X78984818Y-100353870D01*
X78893312Y-100533460D01*
X78831030Y-100725147D01*
X78799500Y-100924216D01*
X78799500Y-101125783D01*
X78831030Y-101324852D01*
X78893312Y-101516539D01*
X78980783Y-101688210D01*
X78984818Y-101696129D01*
X79103289Y-101859190D01*
X79245810Y-102001711D01*
X79408871Y-102120182D01*
X79553482Y-102193865D01*
X79588460Y-102211687D01*
X79780147Y-102273970D01*
X79865741Y-102287527D01*
X79928876Y-102317457D01*
X79965807Y-102376768D01*
X79964809Y-102446631D01*
X79926199Y-102504863D01*
X79865741Y-102532473D01*
X79780147Y-102546029D01*
X79588460Y-102608312D01*
X79408870Y-102699818D01*
X79395060Y-102709852D01*
X79245810Y-102818289D01*
X79245808Y-102818291D01*
X79245807Y-102818291D01*
X79103291Y-102960807D01*
X79103291Y-102960808D01*
X79103289Y-102960810D01*
X79060728Y-103019390D01*
X78984818Y-103123870D01*
X78893312Y-103303460D01*
X78831030Y-103495147D01*
X78799500Y-103694216D01*
X78799500Y-103895783D01*
X78831030Y-104094852D01*
X78893312Y-104286539D01*
X78893314Y-104286542D01*
X78984818Y-104466129D01*
X79103289Y-104629190D01*
X79245810Y-104771711D01*
X79408871Y-104890182D01*
X79588458Y-104981686D01*
X79588460Y-104981687D01*
X79780147Y-105043970D01*
X79865741Y-105057527D01*
X79928876Y-105087457D01*
X79965807Y-105146768D01*
X79964809Y-105216631D01*
X79926199Y-105274863D01*
X79865741Y-105302473D01*
X79780147Y-105316029D01*
X79588460Y-105378312D01*
X79408870Y-105469818D01*
X79315838Y-105537410D01*
X79245810Y-105588289D01*
X79245808Y-105588291D01*
X79245807Y-105588291D01*
X79103291Y-105730807D01*
X79103291Y-105730808D01*
X79103289Y-105730810D01*
X79052410Y-105800838D01*
X78984818Y-105893870D01*
X78893312Y-106073460D01*
X78831030Y-106265147D01*
X78799500Y-106464216D01*
X78799500Y-106665783D01*
X78831030Y-106864852D01*
X78893312Y-107056539D01*
X78896893Y-107063567D01*
X78984818Y-107236129D01*
X79103289Y-107399190D01*
X79245810Y-107541711D01*
X79408871Y-107660182D01*
X79588458Y-107751686D01*
X79588460Y-107751687D01*
X79684303Y-107782828D01*
X79780149Y-107813970D01*
X79872348Y-107828572D01*
X79979217Y-107845500D01*
X79979222Y-107845500D01*
X80180783Y-107845500D01*
X80277289Y-107830214D01*
X80379851Y-107813970D01*
X80571542Y-107751686D01*
X80610370Y-107731902D01*
X173779500Y-107731902D01*
X173779500Y-107968097D01*
X173816446Y-108201368D01*
X173889433Y-108425996D01*
X173996657Y-108636433D01*
X174135483Y-108827510D01*
X174302490Y-108994517D01*
X174493567Y-109133343D01*
X174592991Y-109184002D01*
X174704003Y-109240566D01*
X174704005Y-109240566D01*
X174704008Y-109240568D01*
X174824412Y-109279689D01*
X174928631Y-109313553D01*
X175161903Y-109350500D01*
X175161908Y-109350500D01*
X175398097Y-109350500D01*
X175631368Y-109313553D01*
X175855992Y-109240568D01*
X176066433Y-109133343D01*
X176257510Y-108994517D01*
X176424517Y-108827510D01*
X176563343Y-108636433D01*
X176670568Y-108425992D01*
X176743553Y-108201368D01*
X176780500Y-107968097D01*
X176780500Y-107731902D01*
X176743553Y-107498631D01*
X176670566Y-107274003D01*
X176563342Y-107063566D01*
X176558237Y-107056539D01*
X176424517Y-106872490D01*
X176257510Y-106705483D01*
X176066433Y-106566657D01*
X175855996Y-106459433D01*
X175631368Y-106386446D01*
X175398097Y-106349500D01*
X175398092Y-106349500D01*
X175161908Y-106349500D01*
X175161903Y-106349500D01*
X174928631Y-106386446D01*
X174704003Y-106459433D01*
X174493566Y-106566657D01*
X174384550Y-106645862D01*
X174302490Y-106705483D01*
X174302488Y-106705485D01*
X174302487Y-106705485D01*
X174135485Y-106872487D01*
X174135485Y-106872488D01*
X174135483Y-106872490D01*
X174075862Y-106954550D01*
X173996657Y-107063566D01*
X173889433Y-107274003D01*
X173816446Y-107498631D01*
X173779500Y-107731902D01*
X80610370Y-107731902D01*
X80751129Y-107660182D01*
X80914190Y-107541711D01*
X81056711Y-107399190D01*
X81175182Y-107236129D01*
X81266686Y-107056542D01*
X81328970Y-106864851D01*
X81345214Y-106762289D01*
X81360500Y-106665783D01*
X81360500Y-106464216D01*
X81342156Y-106348408D01*
X81328970Y-106265149D01*
X81266686Y-106073458D01*
X81175182Y-105893871D01*
X81056711Y-105730810D01*
X80914190Y-105588289D01*
X80751129Y-105469818D01*
X80571539Y-105378312D01*
X80379852Y-105316030D01*
X80294258Y-105302473D01*
X80231123Y-105272544D01*
X80194192Y-105213232D01*
X80195190Y-105143369D01*
X80233800Y-105085137D01*
X80294258Y-105057527D01*
X80323150Y-105052950D01*
X80379851Y-105043970D01*
X80571542Y-104981686D01*
X80751129Y-104890182D01*
X80914190Y-104771711D01*
X81056711Y-104629190D01*
X81175182Y-104466129D01*
X81266686Y-104286542D01*
X81328970Y-104094851D01*
X81345214Y-103992289D01*
X81360500Y-103895783D01*
X81360500Y-103694216D01*
X81342156Y-103578408D01*
X81328970Y-103495149D01*
X81297828Y-103399303D01*
X81266687Y-103303460D01*
X81266686Y-103303458D01*
X81175182Y-103123871D01*
X81056711Y-102960810D01*
X80914190Y-102818289D01*
X80751129Y-102699818D01*
X80730235Y-102689172D01*
X80571539Y-102608312D01*
X80379852Y-102546030D01*
X80294258Y-102532473D01*
X80231123Y-102502544D01*
X80194192Y-102443232D01*
X80195190Y-102373369D01*
X80233800Y-102315137D01*
X80246765Y-102309216D01*
X81639500Y-102309216D01*
X81639500Y-102510783D01*
X81671030Y-102709852D01*
X81733312Y-102901539D01*
X81793360Y-103019390D01*
X81824818Y-103081129D01*
X81943289Y-103244190D01*
X82085810Y-103386711D01*
X82248871Y-103505182D01*
X82428458Y-103596686D01*
X82428460Y-103596687D01*
X82524303Y-103627828D01*
X82620149Y-103658970D01*
X82712348Y-103673572D01*
X82819217Y-103690500D01*
X82819222Y-103690500D01*
X83020783Y-103690500D01*
X83117289Y-103675214D01*
X83219851Y-103658970D01*
X83411542Y-103596686D01*
X83591129Y-103505182D01*
X83754190Y-103386711D01*
X83896711Y-103244190D01*
X84015182Y-103081129D01*
X84106686Y-102901542D01*
X84168970Y-102709851D01*
X84194917Y-102546029D01*
X84200500Y-102510783D01*
X84200500Y-102309216D01*
X84190244Y-102244464D01*
X84188135Y-102231153D01*
X182719500Y-102231153D01*
X182719500Y-102388846D01*
X182750261Y-102543489D01*
X182750264Y-102543501D01*
X182810602Y-102689172D01*
X182810609Y-102689185D01*
X182898210Y-102820288D01*
X182898213Y-102820292D01*
X183009707Y-102931786D01*
X183009711Y-102931789D01*
X183140814Y-103019390D01*
X183140827Y-103019397D01*
X183286498Y-103079735D01*
X183286503Y-103079737D01*
X183441153Y-103110499D01*
X183441156Y-103110500D01*
X183441158Y-103110500D01*
X183598844Y-103110500D01*
X183598845Y-103110499D01*
X183753497Y-103079737D01*
X183899179Y-103019394D01*
X184030289Y-102931789D01*
X184141789Y-102820289D01*
X184229394Y-102689179D01*
X184289737Y-102543497D01*
X184320500Y-102388842D01*
X184320500Y-102231158D01*
X184320500Y-102231155D01*
X184320499Y-102231153D01*
X184298425Y-102120181D01*
X184289737Y-102076503D01*
X184288919Y-102074527D01*
X184229397Y-101930827D01*
X184229390Y-101930814D01*
X184141789Y-101799711D01*
X184141786Y-101799707D01*
X184030292Y-101688213D01*
X184030288Y-101688210D01*
X183899185Y-101600609D01*
X183899172Y-101600602D01*
X183753501Y-101540264D01*
X183753489Y-101540261D01*
X183598845Y-101509500D01*
X183598842Y-101509500D01*
X183441158Y-101509500D01*
X183441155Y-101509500D01*
X183286510Y-101540261D01*
X183286498Y-101540264D01*
X183140827Y-101600602D01*
X183140814Y-101600609D01*
X183009711Y-101688210D01*
X183009707Y-101688213D01*
X182898213Y-101799707D01*
X182898210Y-101799711D01*
X182810609Y-101930814D01*
X182810602Y-101930827D01*
X182750264Y-102076498D01*
X182750261Y-102076510D01*
X182719500Y-102231153D01*
X84188135Y-102231153D01*
X84179968Y-102179593D01*
X84168970Y-102110149D01*
X84137828Y-102014303D01*
X84106687Y-101918460D01*
X84095166Y-101895848D01*
X84015182Y-101738871D01*
X83896711Y-101575810D01*
X83754190Y-101433289D01*
X83591129Y-101314818D01*
X83478601Y-101257482D01*
X83411539Y-101223312D01*
X83219852Y-101161030D01*
X83020783Y-101129500D01*
X83020778Y-101129500D01*
X82819222Y-101129500D01*
X82819217Y-101129500D01*
X82620147Y-101161030D01*
X82428460Y-101223312D01*
X82248870Y-101314818D01*
X82235060Y-101324852D01*
X82085810Y-101433289D01*
X82085808Y-101433291D01*
X82085807Y-101433291D01*
X81943291Y-101575807D01*
X81943291Y-101575808D01*
X81943289Y-101575810D01*
X81896762Y-101639849D01*
X81824818Y-101738870D01*
X81733312Y-101918460D01*
X81671030Y-102110147D01*
X81639500Y-102309216D01*
X80246765Y-102309216D01*
X80294258Y-102287527D01*
X80323150Y-102282950D01*
X80379851Y-102273970D01*
X80571542Y-102211686D01*
X80751129Y-102120182D01*
X80914190Y-102001711D01*
X81056711Y-101859190D01*
X81175182Y-101696129D01*
X81266686Y-101516542D01*
X81328970Y-101324851D01*
X81349081Y-101197873D01*
X81360500Y-101125783D01*
X81360500Y-100924216D01*
X81342156Y-100808408D01*
X81328970Y-100725149D01*
X81266686Y-100533458D01*
X81175182Y-100353871D01*
X81056711Y-100190810D01*
X80914190Y-100048289D01*
X80751129Y-99929818D01*
X80571539Y-99838312D01*
X80379852Y-99776030D01*
X80294258Y-99762473D01*
X80231123Y-99732544D01*
X80194192Y-99673232D01*
X80195190Y-99603369D01*
X80233800Y-99545137D01*
X80294258Y-99517527D01*
X80323150Y-99512950D01*
X80379851Y-99503970D01*
X80571542Y-99441686D01*
X80751129Y-99350182D01*
X80914190Y-99231711D01*
X81043766Y-99102135D01*
X153479500Y-99102135D01*
X153479500Y-101197870D01*
X153479501Y-101197876D01*
X153485908Y-101257483D01*
X153536202Y-101392328D01*
X153536206Y-101392335D01*
X153622452Y-101507544D01*
X153622455Y-101507547D01*
X153737664Y-101593793D01*
X153737671Y-101593797D01*
X153872517Y-101644091D01*
X153872516Y-101644091D01*
X153879444Y-101644835D01*
X153932127Y-101650500D01*
X156027872Y-101650499D01*
X156087483Y-101644091D01*
X156222331Y-101593796D01*
X156337546Y-101507546D01*
X156423796Y-101392331D01*
X156474091Y-101257483D01*
X156480500Y-101197873D01*
X156480500Y-100723646D01*
X205214600Y-100723646D01*
X205214600Y-100976353D01*
X205249686Y-101197873D01*
X205254130Y-101225932D01*
X205332218Y-101466260D01*
X205446939Y-101691413D01*
X205595470Y-101895848D01*
X205774152Y-102074530D01*
X205978587Y-102223061D01*
X206203740Y-102337782D01*
X206444068Y-102415870D01*
X206537662Y-102430693D01*
X206693647Y-102455400D01*
X206693652Y-102455400D01*
X206946353Y-102455400D01*
X207085005Y-102433438D01*
X207195932Y-102415870D01*
X207436260Y-102337782D01*
X207661413Y-102223061D01*
X207865848Y-102074530D01*
X208044530Y-101895848D01*
X208193061Y-101691413D01*
X208307782Y-101466260D01*
X208385870Y-101225932D01*
X208403438Y-101115005D01*
X208425400Y-100976353D01*
X208425400Y-100723646D01*
X208385870Y-100474071D01*
X208385870Y-100474068D01*
X208307782Y-100233740D01*
X208193061Y-100008587D01*
X208044530Y-99804152D01*
X207865848Y-99625470D01*
X207661413Y-99476939D01*
X207436260Y-99362218D01*
X207195932Y-99284130D01*
X207195930Y-99284129D01*
X207195928Y-99284129D01*
X206946353Y-99244600D01*
X206946348Y-99244600D01*
X206693652Y-99244600D01*
X206693647Y-99244600D01*
X206444071Y-99284129D01*
X206203737Y-99362219D01*
X205978586Y-99476939D01*
X205881527Y-99547457D01*
X205774152Y-99625470D01*
X205774150Y-99625472D01*
X205774149Y-99625472D01*
X205595472Y-99804149D01*
X205595472Y-99804150D01*
X205595470Y-99804152D01*
X205570650Y-99838314D01*
X205446939Y-100008586D01*
X205332219Y-100233737D01*
X205254129Y-100474071D01*
X205214600Y-100723646D01*
X156480500Y-100723646D01*
X156480499Y-100061358D01*
X156480499Y-99102129D01*
X156480498Y-99102123D01*
X156480497Y-99102116D01*
X156474091Y-99042517D01*
X156473363Y-99040566D01*
X156423797Y-98907671D01*
X156423793Y-98907664D01*
X156337547Y-98792455D01*
X156337544Y-98792452D01*
X156222335Y-98706206D01*
X156222328Y-98706202D01*
X156087482Y-98655908D01*
X156087483Y-98655908D01*
X156027883Y-98649501D01*
X156027881Y-98649500D01*
X156027873Y-98649500D01*
X156027864Y-98649500D01*
X153932129Y-98649500D01*
X153932123Y-98649501D01*
X153872516Y-98655908D01*
X153737671Y-98706202D01*
X153737664Y-98706206D01*
X153622455Y-98792452D01*
X153622452Y-98792455D01*
X153536206Y-98907664D01*
X153536202Y-98907671D01*
X153485908Y-99042517D01*
X153479926Y-99098163D01*
X153479501Y-99102123D01*
X153479500Y-99102135D01*
X81043766Y-99102135D01*
X81056711Y-99089190D01*
X81175182Y-98926129D01*
X81266686Y-98746542D01*
X81328970Y-98554851D01*
X81347726Y-98436433D01*
X81360500Y-98355783D01*
X81360500Y-98154216D01*
X81329399Y-97957859D01*
X81328970Y-97955149D01*
X81297828Y-97859303D01*
X81266687Y-97763460D01*
X81175182Y-97583871D01*
X81175181Y-97583870D01*
X81137424Y-97531902D01*
X173779500Y-97531902D01*
X173779500Y-97768097D01*
X173816446Y-98001368D01*
X173889433Y-98225996D01*
X173996657Y-98436433D01*
X174135483Y-98627510D01*
X174302490Y-98794517D01*
X174493567Y-98933343D01*
X174592991Y-98984002D01*
X174704003Y-99040566D01*
X174704005Y-99040566D01*
X174704008Y-99040568D01*
X174824412Y-99079689D01*
X174928631Y-99113553D01*
X175161903Y-99150500D01*
X175161908Y-99150500D01*
X175398097Y-99150500D01*
X175631368Y-99113553D01*
X175666533Y-99102127D01*
X175855992Y-99040568D01*
X176066433Y-98933343D01*
X176257510Y-98794517D01*
X176424517Y-98627510D01*
X176563343Y-98436433D01*
X176670568Y-98225992D01*
X176681727Y-98191648D01*
X207856200Y-98191648D01*
X207856200Y-98428351D01*
X207893229Y-98662142D01*
X207893229Y-98662145D01*
X207966372Y-98887256D01*
X207976773Y-98907669D01*
X208073835Y-99098163D01*
X208212966Y-99289660D01*
X208380340Y-99457034D01*
X208571837Y-99596165D01*
X208782741Y-99703626D01*
X208782743Y-99703627D01*
X209007855Y-99776770D01*
X209007856Y-99776770D01*
X209007859Y-99776771D01*
X209241648Y-99813800D01*
X209241649Y-99813800D01*
X209478351Y-99813800D01*
X209478352Y-99813800D01*
X209712141Y-99776771D01*
X209712144Y-99776770D01*
X209712145Y-99776770D01*
X209937256Y-99703627D01*
X209937256Y-99703626D01*
X209937259Y-99703626D01*
X210148163Y-99596165D01*
X210339660Y-99457034D01*
X210507034Y-99289660D01*
X210646165Y-99098163D01*
X210753626Y-98887259D01*
X210799349Y-98746539D01*
X210826770Y-98662145D01*
X210826770Y-98662144D01*
X210826771Y-98662141D01*
X210863800Y-98428352D01*
X210863800Y-98191648D01*
X210826771Y-97957859D01*
X210826770Y-97957855D01*
X210826770Y-97957854D01*
X210753627Y-97732743D01*
X210646164Y-97521836D01*
X210507034Y-97330340D01*
X210339660Y-97162966D01*
X210148163Y-97023835D01*
X210051338Y-96974500D01*
X209937256Y-96916372D01*
X209712144Y-96843229D01*
X209536799Y-96815457D01*
X209478352Y-96806200D01*
X209241648Y-96806200D01*
X209180721Y-96815850D01*
X209007857Y-96843229D01*
X209007854Y-96843229D01*
X208782743Y-96916372D01*
X208571836Y-97023835D01*
X208502780Y-97074008D01*
X208380340Y-97162966D01*
X208380338Y-97162968D01*
X208380337Y-97162968D01*
X208212968Y-97330337D01*
X208212968Y-97330338D01*
X208212966Y-97330340D01*
X208180228Y-97375400D01*
X208073835Y-97521836D01*
X207966372Y-97732743D01*
X207893229Y-97957854D01*
X207893229Y-97957857D01*
X207856200Y-98191648D01*
X176681727Y-98191648D01*
X176743553Y-98001368D01*
X176750444Y-97957859D01*
X176780500Y-97768097D01*
X176780500Y-97531902D01*
X176743553Y-97298631D01*
X176670566Y-97074003D01*
X176563342Y-96863566D01*
X176424517Y-96672490D01*
X176257510Y-96505483D01*
X176066433Y-96366657D01*
X176001049Y-96333342D01*
X175855996Y-96259433D01*
X175631368Y-96186446D01*
X175398097Y-96149500D01*
X175398092Y-96149500D01*
X175161908Y-96149500D01*
X175161903Y-96149500D01*
X174928631Y-96186446D01*
X174704003Y-96259433D01*
X174493566Y-96366657D01*
X174384550Y-96445862D01*
X174302490Y-96505483D01*
X174302488Y-96505485D01*
X174302487Y-96505485D01*
X174135485Y-96672487D01*
X174135485Y-96672488D01*
X174135483Y-96672490D01*
X174129025Y-96681379D01*
X173996657Y-96863566D01*
X173889433Y-97074003D01*
X173816446Y-97298631D01*
X173779500Y-97531902D01*
X81137424Y-97531902D01*
X81056711Y-97420810D01*
X80914190Y-97278289D01*
X80751129Y-97159818D01*
X80571539Y-97068312D01*
X80379852Y-97006030D01*
X80180783Y-96974500D01*
X80180778Y-96974500D01*
X79979222Y-96974500D01*
X79979217Y-96974500D01*
X79780147Y-97006030D01*
X79588460Y-97068312D01*
X79408870Y-97159818D01*
X79315838Y-97227410D01*
X79245810Y-97278289D01*
X79245808Y-97278291D01*
X79245807Y-97278291D01*
X79103291Y-97420807D01*
X79103291Y-97420808D01*
X79103289Y-97420810D01*
X79052410Y-97490838D01*
X78984818Y-97583870D01*
X78893312Y-97763460D01*
X78831030Y-97955147D01*
X78799500Y-98154216D01*
X72500500Y-98154216D01*
X72500500Y-94931902D01*
X153479500Y-94931902D01*
X153479500Y-95168097D01*
X153516446Y-95401368D01*
X153589433Y-95625996D01*
X153696657Y-95836433D01*
X153835483Y-96027510D01*
X154002490Y-96194517D01*
X154193567Y-96333343D01*
X154292991Y-96384002D01*
X154404003Y-96440566D01*
X154404005Y-96440566D01*
X154404008Y-96440568D01*
X154524412Y-96479689D01*
X154628631Y-96513553D01*
X154861903Y-96550500D01*
X154861908Y-96550500D01*
X155098097Y-96550500D01*
X155331368Y-96513553D01*
X155555992Y-96440568D01*
X155766433Y-96333343D01*
X155957510Y-96194517D01*
X156124517Y-96027510D01*
X156263343Y-95836433D01*
X156361573Y-95643646D01*
X205214600Y-95643646D01*
X205214600Y-95896353D01*
X205235374Y-96027512D01*
X205254130Y-96145932D01*
X205332218Y-96386260D01*
X205446939Y-96611413D01*
X205595470Y-96815848D01*
X205774152Y-96994530D01*
X205978587Y-97143061D01*
X206203740Y-97257782D01*
X206444068Y-97335870D01*
X206537662Y-97350693D01*
X206693647Y-97375400D01*
X206693652Y-97375400D01*
X206946353Y-97375400D01*
X207085005Y-97353438D01*
X207195932Y-97335870D01*
X207436260Y-97257782D01*
X207661413Y-97143061D01*
X207865848Y-96994530D01*
X208044530Y-96815848D01*
X208193061Y-96611413D01*
X208307782Y-96386260D01*
X208385870Y-96145932D01*
X208404626Y-96027510D01*
X208425400Y-95896353D01*
X208425400Y-95643646D01*
X208385870Y-95394071D01*
X208385870Y-95394068D01*
X208307782Y-95153740D01*
X208193061Y-94928587D01*
X208044530Y-94724152D01*
X207865848Y-94545470D01*
X207661413Y-94396939D01*
X207436260Y-94282218D01*
X207195932Y-94204130D01*
X207195930Y-94204129D01*
X207195928Y-94204129D01*
X206946353Y-94164600D01*
X206946348Y-94164600D01*
X206693652Y-94164600D01*
X206693647Y-94164600D01*
X206444071Y-94204129D01*
X206203737Y-94282219D01*
X205978586Y-94396939D01*
X205872518Y-94474003D01*
X205774152Y-94545470D01*
X205774150Y-94545472D01*
X205774149Y-94545472D01*
X205595472Y-94724149D01*
X205595472Y-94724150D01*
X205595470Y-94724152D01*
X205531681Y-94811949D01*
X205446939Y-94928586D01*
X205332219Y-95153737D01*
X205254129Y-95394071D01*
X205214600Y-95643646D01*
X156361573Y-95643646D01*
X156370568Y-95625992D01*
X156443553Y-95401368D01*
X156444709Y-95394068D01*
X156480500Y-95168097D01*
X156480500Y-94931902D01*
X156443553Y-94698631D01*
X156370566Y-94474003D01*
X156314002Y-94362991D01*
X156263343Y-94263567D01*
X156124517Y-94072490D01*
X155957510Y-93905483D01*
X155766433Y-93766657D01*
X155756873Y-93761786D01*
X155555996Y-93659433D01*
X155331368Y-93586446D01*
X155098097Y-93549500D01*
X155098092Y-93549500D01*
X154861908Y-93549500D01*
X154861903Y-93549500D01*
X154628631Y-93586446D01*
X154404003Y-93659433D01*
X154193566Y-93766657D01*
X154084550Y-93845862D01*
X154002490Y-93905483D01*
X154002488Y-93905485D01*
X154002487Y-93905485D01*
X153835485Y-94072487D01*
X153835485Y-94072488D01*
X153835483Y-94072490D01*
X153775862Y-94154550D01*
X153696657Y-94263566D01*
X153589433Y-94474003D01*
X153516446Y-94698631D01*
X153479500Y-94931902D01*
X72500500Y-94931902D01*
X72500500Y-93061153D01*
X182739500Y-93061153D01*
X182739500Y-93218846D01*
X182770261Y-93373489D01*
X182770264Y-93373501D01*
X182830602Y-93519172D01*
X182830609Y-93519185D01*
X182918210Y-93650288D01*
X182918213Y-93650292D01*
X183029707Y-93761786D01*
X183029711Y-93761789D01*
X183160814Y-93849390D01*
X183160827Y-93849397D01*
X183306498Y-93909735D01*
X183306503Y-93909737D01*
X183461153Y-93940499D01*
X183461156Y-93940500D01*
X183461158Y-93940500D01*
X183618844Y-93940500D01*
X183618845Y-93940499D01*
X183773497Y-93909737D01*
X183919179Y-93849394D01*
X184050289Y-93761789D01*
X184161789Y-93650289D01*
X184249394Y-93519179D01*
X184309737Y-93373497D01*
X184340500Y-93218842D01*
X184340500Y-93061158D01*
X184340500Y-93061155D01*
X184340499Y-93061153D01*
X184309738Y-92906510D01*
X184309737Y-92906503D01*
X184309735Y-92906498D01*
X184249397Y-92760827D01*
X184249390Y-92760814D01*
X184161789Y-92629711D01*
X184161786Y-92629707D01*
X184050292Y-92518213D01*
X184050288Y-92518210D01*
X183919185Y-92430609D01*
X183919172Y-92430602D01*
X183773501Y-92370264D01*
X183773489Y-92370261D01*
X183618845Y-92339500D01*
X183618842Y-92339500D01*
X183461158Y-92339500D01*
X183461155Y-92339500D01*
X183306510Y-92370261D01*
X183306498Y-92370264D01*
X183160827Y-92430602D01*
X183160814Y-92430609D01*
X183029711Y-92518210D01*
X183029707Y-92518213D01*
X182918213Y-92629707D01*
X182918210Y-92629711D01*
X182830609Y-92760814D01*
X182830602Y-92760827D01*
X182770264Y-92906498D01*
X182770261Y-92906510D01*
X182739500Y-93061153D01*
X72500500Y-93061153D01*
X72500500Y-89763505D01*
X78891500Y-89763505D01*
X78891500Y-90056494D01*
X78924302Y-90347615D01*
X78924304Y-90347631D01*
X78989497Y-90633262D01*
X78989501Y-90633274D01*
X79086264Y-90909806D01*
X79213381Y-91173766D01*
X79369259Y-91421844D01*
X79369260Y-91421846D01*
X79551921Y-91650897D01*
X79759102Y-91858078D01*
X79988153Y-92040739D01*
X79988156Y-92040740D01*
X79988158Y-92040742D01*
X80236231Y-92196617D01*
X80500197Y-92323737D01*
X80707892Y-92396412D01*
X80776725Y-92420498D01*
X80776737Y-92420502D01*
X81062372Y-92485696D01*
X81353505Y-92518499D01*
X81353506Y-92518500D01*
X81353510Y-92518500D01*
X81646494Y-92518500D01*
X81646494Y-92518499D01*
X81937628Y-92485696D01*
X82223263Y-92420502D01*
X82499803Y-92323737D01*
X82763769Y-92196617D01*
X83011842Y-92040742D01*
X83011846Y-92040739D01*
X83240897Y-91858078D01*
X83240899Y-91858075D01*
X83240904Y-91858072D01*
X83448072Y-91650904D01*
X83630742Y-91421842D01*
X83786617Y-91173769D01*
X83913737Y-90909803D01*
X84010502Y-90633263D01*
X84075696Y-90347628D01*
X84108500Y-90056490D01*
X84108500Y-89763510D01*
X84075696Y-89472372D01*
X84010502Y-89186737D01*
X83913737Y-88910197D01*
X83786617Y-88646231D01*
X83630742Y-88398158D01*
X83630740Y-88398155D01*
X83630739Y-88398153D01*
X83448078Y-88169102D01*
X83240897Y-87961921D01*
X83011846Y-87779260D01*
X83011844Y-87779259D01*
X82763766Y-87623381D01*
X82499806Y-87496264D01*
X82350664Y-87444077D01*
X82223274Y-87399501D01*
X82223262Y-87399497D01*
X81937631Y-87334304D01*
X81937615Y-87334302D01*
X81916315Y-87331902D01*
X153479500Y-87331902D01*
X153479500Y-87568097D01*
X153516446Y-87801368D01*
X153589433Y-88025996D01*
X153662347Y-88169096D01*
X153696657Y-88236433D01*
X153835483Y-88427510D01*
X154002490Y-88594517D01*
X154193567Y-88733343D01*
X154292991Y-88784002D01*
X154404003Y-88840566D01*
X154404005Y-88840566D01*
X154404008Y-88840568D01*
X154524412Y-88879689D01*
X154628631Y-88913553D01*
X154861903Y-88950500D01*
X154861908Y-88950500D01*
X155098097Y-88950500D01*
X155331368Y-88913553D01*
X155341709Y-88910193D01*
X155555992Y-88840568D01*
X155766433Y-88733343D01*
X155957510Y-88594517D01*
X156124517Y-88427510D01*
X156263343Y-88236433D01*
X156370568Y-88025992D01*
X156443553Y-87801368D01*
X156471743Y-87623383D01*
X156480500Y-87568097D01*
X156480500Y-87331902D01*
X173779500Y-87331902D01*
X173779500Y-87568097D01*
X173816446Y-87801368D01*
X173889433Y-88025996D01*
X173962347Y-88169096D01*
X173996657Y-88236433D01*
X174135483Y-88427510D01*
X174302490Y-88594517D01*
X174493567Y-88733343D01*
X174592991Y-88784002D01*
X174704003Y-88840566D01*
X174704005Y-88840566D01*
X174704008Y-88840568D01*
X174824412Y-88879689D01*
X174928631Y-88913553D01*
X175161903Y-88950500D01*
X175161908Y-88950500D01*
X175398097Y-88950500D01*
X175631368Y-88913553D01*
X175641709Y-88910193D01*
X175855992Y-88840568D01*
X176066433Y-88733343D01*
X176257510Y-88594517D01*
X176424517Y-88427510D01*
X176563343Y-88236433D01*
X176670568Y-88025992D01*
X176743553Y-87801368D01*
X176771743Y-87623383D01*
X176780500Y-87568097D01*
X176780500Y-87331902D01*
X176743553Y-87098631D01*
X176670566Y-86874003D01*
X176563342Y-86663566D01*
X176424517Y-86472490D01*
X176257510Y-86305483D01*
X176066433Y-86166657D01*
X175855996Y-86059433D01*
X175631368Y-85986446D01*
X175398097Y-85949500D01*
X175398092Y-85949500D01*
X175161908Y-85949500D01*
X175161903Y-85949500D01*
X174928631Y-85986446D01*
X174704003Y-86059433D01*
X174493566Y-86166657D01*
X174384550Y-86245862D01*
X174302490Y-86305483D01*
X174302488Y-86305485D01*
X174302487Y-86305485D01*
X174135485Y-86472487D01*
X174135485Y-86472488D01*
X174135483Y-86472490D01*
X174075862Y-86554550D01*
X173996657Y-86663566D01*
X173889433Y-86874003D01*
X173816446Y-87098631D01*
X173779500Y-87331902D01*
X156480500Y-87331902D01*
X156443553Y-87098631D01*
X156370566Y-86874003D01*
X156263342Y-86663566D01*
X156124517Y-86472490D01*
X155957510Y-86305483D01*
X155766433Y-86166657D01*
X155555996Y-86059433D01*
X155331368Y-85986446D01*
X155098097Y-85949500D01*
X155098092Y-85949500D01*
X154861908Y-85949500D01*
X154861903Y-85949500D01*
X154628631Y-85986446D01*
X154404003Y-86059433D01*
X154193566Y-86166657D01*
X154084550Y-86245862D01*
X154002490Y-86305483D01*
X154002488Y-86305485D01*
X154002487Y-86305485D01*
X153835485Y-86472487D01*
X153835485Y-86472488D01*
X153835483Y-86472490D01*
X153775862Y-86554550D01*
X153696657Y-86663566D01*
X153589433Y-86874003D01*
X153516446Y-87098631D01*
X153479500Y-87331902D01*
X81916315Y-87331902D01*
X81646494Y-87301500D01*
X81646490Y-87301500D01*
X81353510Y-87301500D01*
X81353506Y-87301500D01*
X81062384Y-87334302D01*
X81062368Y-87334304D01*
X80776737Y-87399497D01*
X80776725Y-87399501D01*
X80500193Y-87496264D01*
X80236233Y-87623381D01*
X79988155Y-87779259D01*
X79988153Y-87779260D01*
X79759102Y-87961921D01*
X79551921Y-88169102D01*
X79369260Y-88398153D01*
X79369259Y-88398155D01*
X79213381Y-88646233D01*
X79086264Y-88910193D01*
X78989501Y-89186725D01*
X78989497Y-89186737D01*
X78924304Y-89472368D01*
X78924302Y-89472384D01*
X78891500Y-89763505D01*
X72500500Y-89763505D01*
X72500500Y-85124000D01*
X72520185Y-85056961D01*
X72572989Y-85011206D01*
X72624500Y-85000000D01*
X129000000Y-85000000D01*
X129000000Y-83791153D01*
X149189500Y-83791153D01*
X149189500Y-83948846D01*
X149220261Y-84103489D01*
X149220264Y-84103501D01*
X149280602Y-84249172D01*
X149280609Y-84249185D01*
X149368210Y-84380288D01*
X149368213Y-84380292D01*
X149479707Y-84491786D01*
X149479711Y-84491789D01*
X149610814Y-84579390D01*
X149610827Y-84579397D01*
X149756498Y-84639735D01*
X149756503Y-84639737D01*
X149911153Y-84670499D01*
X149911156Y-84670500D01*
X149911158Y-84670500D01*
X150068844Y-84670500D01*
X150068845Y-84670499D01*
X150223497Y-84639737D01*
X150369179Y-84579394D01*
X150500289Y-84491789D01*
X150611789Y-84380289D01*
X150699394Y-84249179D01*
X150759737Y-84103497D01*
X150790500Y-83948842D01*
X150790500Y-83791158D01*
X150790500Y-83791155D01*
X150790499Y-83791153D01*
X150784360Y-83760289D01*
X150759737Y-83636503D01*
X150756703Y-83629179D01*
X150699397Y-83490827D01*
X150699390Y-83490814D01*
X150611789Y-83359711D01*
X150611786Y-83359707D01*
X150500292Y-83248213D01*
X150500288Y-83248210D01*
X150369185Y-83160609D01*
X150369172Y-83160602D01*
X150318532Y-83139627D01*
X150223501Y-83100264D01*
X150223489Y-83100261D01*
X150068845Y-83069500D01*
X150068842Y-83069500D01*
X149911158Y-83069500D01*
X149911155Y-83069500D01*
X149756510Y-83100261D01*
X149756498Y-83100264D01*
X149610827Y-83160602D01*
X149610814Y-83160609D01*
X149479711Y-83248210D01*
X149479707Y-83248213D01*
X149368213Y-83359707D01*
X149368210Y-83359711D01*
X149280609Y-83490814D01*
X149280602Y-83490827D01*
X149220264Y-83636498D01*
X149220261Y-83636510D01*
X149189500Y-83791153D01*
X129000000Y-83791153D01*
X129000000Y-83031153D01*
X167919500Y-83031153D01*
X167919500Y-83188846D01*
X167950261Y-83343489D01*
X167950264Y-83343501D01*
X168010602Y-83489172D01*
X168010609Y-83489185D01*
X168098210Y-83620288D01*
X168098213Y-83620292D01*
X168209707Y-83731786D01*
X168209711Y-83731789D01*
X168340814Y-83819390D01*
X168340827Y-83819397D01*
X168486498Y-83879735D01*
X168486503Y-83879737D01*
X168641153Y-83910499D01*
X168641156Y-83910500D01*
X168641158Y-83910500D01*
X168798844Y-83910500D01*
X168798845Y-83910499D01*
X168953497Y-83879737D01*
X169099179Y-83819394D01*
X169230289Y-83731789D01*
X169341789Y-83620289D01*
X169429394Y-83489179D01*
X169489737Y-83343497D01*
X169520500Y-83188842D01*
X169520500Y-83171153D01*
X174554500Y-83171153D01*
X174554500Y-83328846D01*
X174585261Y-83483489D01*
X174585264Y-83483501D01*
X174645602Y-83629172D01*
X174645609Y-83629185D01*
X174733210Y-83760288D01*
X174733213Y-83760292D01*
X174844707Y-83871786D01*
X174844711Y-83871789D01*
X174975814Y-83959390D01*
X174975827Y-83959397D01*
X175121498Y-84019735D01*
X175121503Y-84019737D01*
X175276153Y-84050499D01*
X175276156Y-84050500D01*
X175276158Y-84050500D01*
X175433844Y-84050500D01*
X175433845Y-84050499D01*
X175588497Y-84019737D01*
X175734179Y-83959394D01*
X175865289Y-83871789D01*
X175976789Y-83760289D01*
X176064394Y-83629179D01*
X176124737Y-83483497D01*
X176155500Y-83328842D01*
X176155500Y-83171158D01*
X176155500Y-83171155D01*
X176155499Y-83171153D01*
X176141398Y-83100263D01*
X176124737Y-83016503D01*
X176067856Y-82879179D01*
X176064397Y-82870827D01*
X176064390Y-82870814D01*
X175976789Y-82739711D01*
X175976786Y-82739707D01*
X175865292Y-82628213D01*
X175865288Y-82628210D01*
X175734185Y-82540609D01*
X175734172Y-82540602D01*
X175588501Y-82480264D01*
X175588489Y-82480261D01*
X175433845Y-82449500D01*
X175433842Y-82449500D01*
X175276158Y-82449500D01*
X175276155Y-82449500D01*
X175121510Y-82480261D01*
X175121498Y-82480264D01*
X174975827Y-82540602D01*
X174975814Y-82540609D01*
X174844711Y-82628210D01*
X174844707Y-82628213D01*
X174733213Y-82739707D01*
X174733210Y-82739711D01*
X174645609Y-82870814D01*
X174645602Y-82870827D01*
X174585264Y-83016498D01*
X174585261Y-83016510D01*
X174554500Y-83171153D01*
X169520500Y-83171153D01*
X169520500Y-83031158D01*
X169520500Y-83031155D01*
X169520499Y-83031153D01*
X169489738Y-82876510D01*
X169489737Y-82876503D01*
X169487386Y-82870827D01*
X169429397Y-82730827D01*
X169429390Y-82730814D01*
X169341789Y-82599711D01*
X169341786Y-82599707D01*
X169230292Y-82488213D01*
X169230288Y-82488210D01*
X169099185Y-82400609D01*
X169099172Y-82400602D01*
X168953501Y-82340264D01*
X168953489Y-82340261D01*
X168798845Y-82309500D01*
X168798842Y-82309500D01*
X168641158Y-82309500D01*
X168641155Y-82309500D01*
X168486510Y-82340261D01*
X168486498Y-82340264D01*
X168340827Y-82400602D01*
X168340814Y-82400609D01*
X168209711Y-82488210D01*
X168209707Y-82488213D01*
X168098213Y-82599707D01*
X168098210Y-82599711D01*
X168010609Y-82730814D01*
X168010602Y-82730827D01*
X167950264Y-82876498D01*
X167950261Y-82876510D01*
X167919500Y-83031153D01*
X129000000Y-83031153D01*
X129000000Y-81411153D01*
X150319500Y-81411153D01*
X150319500Y-81568846D01*
X150350261Y-81723489D01*
X150350264Y-81723501D01*
X150410602Y-81869172D01*
X150410609Y-81869185D01*
X150498210Y-82000288D01*
X150498213Y-82000292D01*
X150609707Y-82111786D01*
X150609711Y-82111789D01*
X150740814Y-82199390D01*
X150740827Y-82199397D01*
X150886498Y-82259735D01*
X150886503Y-82259737D01*
X151041153Y-82290499D01*
X151041156Y-82290500D01*
X151041158Y-82290500D01*
X151198844Y-82290500D01*
X151198845Y-82290499D01*
X151353497Y-82259737D01*
X151499179Y-82199394D01*
X151630289Y-82111789D01*
X151741789Y-82000289D01*
X151829394Y-81869179D01*
X151889737Y-81723497D01*
X151920500Y-81568842D01*
X151920500Y-81411158D01*
X151920500Y-81411155D01*
X151920499Y-81411153D01*
X151889738Y-81256510D01*
X151889737Y-81256503D01*
X151850244Y-81161158D01*
X151829397Y-81110827D01*
X151829390Y-81110814D01*
X151741789Y-80979711D01*
X151741786Y-80979707D01*
X151630292Y-80868213D01*
X151630288Y-80868210D01*
X151499185Y-80780609D01*
X151499172Y-80780602D01*
X151353501Y-80720264D01*
X151353489Y-80720261D01*
X151198845Y-80689500D01*
X151198842Y-80689500D01*
X151041158Y-80689500D01*
X151041155Y-80689500D01*
X150886510Y-80720261D01*
X150886498Y-80720264D01*
X150740827Y-80780602D01*
X150740814Y-80780609D01*
X150609711Y-80868210D01*
X150609707Y-80868213D01*
X150498213Y-80979707D01*
X150498210Y-80979711D01*
X150410609Y-81110814D01*
X150410602Y-81110827D01*
X150350264Y-81256498D01*
X150350261Y-81256510D01*
X150319500Y-81411153D01*
X129000000Y-81411153D01*
X129000000Y-80135675D01*
X164864500Y-80135675D01*
X164864500Y-80344324D01*
X164897137Y-80550389D01*
X164961612Y-80748820D01*
X165022445Y-80868211D01*
X165056330Y-80934714D01*
X165178965Y-81103505D01*
X165326495Y-81251035D01*
X165495286Y-81373670D01*
X165563077Y-81408211D01*
X165681179Y-81468387D01*
X165681181Y-81468387D01*
X165681184Y-81468389D01*
X165787545Y-81502948D01*
X165879610Y-81532862D01*
X166085676Y-81565500D01*
X166085681Y-81565500D01*
X166294324Y-81565500D01*
X166500389Y-81532862D01*
X166510087Y-81529711D01*
X166698816Y-81468389D01*
X166884714Y-81373670D01*
X167053505Y-81251035D01*
X167201035Y-81103505D01*
X167323670Y-80934714D01*
X167349515Y-80883990D01*
X167397489Y-80833194D01*
X167465310Y-80816398D01*
X167531445Y-80838935D01*
X167570485Y-80883990D01*
X167596328Y-80934712D01*
X167644127Y-81000500D01*
X167718965Y-81103505D01*
X167866495Y-81251035D01*
X168035286Y-81373670D01*
X168103077Y-81408211D01*
X168221179Y-81468387D01*
X168221181Y-81468387D01*
X168221184Y-81468389D01*
X168327545Y-81502948D01*
X168419610Y-81532862D01*
X168625676Y-81565500D01*
X168625681Y-81565500D01*
X168834324Y-81565500D01*
X169040389Y-81532862D01*
X169050087Y-81529711D01*
X169238816Y-81468389D01*
X169424714Y-81373670D01*
X169593505Y-81251035D01*
X169741035Y-81103505D01*
X169863670Y-80934714D01*
X169889515Y-80883990D01*
X169937489Y-80833194D01*
X170005310Y-80816398D01*
X170071445Y-80838935D01*
X170110485Y-80883990D01*
X170136328Y-80934712D01*
X170184127Y-81000500D01*
X170258965Y-81103505D01*
X170406495Y-81251035D01*
X170575286Y-81373670D01*
X170643077Y-81408211D01*
X170761179Y-81468387D01*
X170761181Y-81468387D01*
X170761184Y-81468389D01*
X170867545Y-81502948D01*
X170959610Y-81532862D01*
X171165676Y-81565500D01*
X171165681Y-81565500D01*
X171374324Y-81565500D01*
X171580389Y-81532862D01*
X171590087Y-81529711D01*
X171778816Y-81468389D01*
X171964714Y-81373670D01*
X172133505Y-81251035D01*
X172281035Y-81103505D01*
X172403670Y-80934714D01*
X172498389Y-80748816D01*
X172562862Y-80550389D01*
X172569213Y-80510289D01*
X172595500Y-80344324D01*
X172595500Y-80135675D01*
X172562862Y-79929610D01*
X172509865Y-79766503D01*
X172498389Y-79731184D01*
X172498387Y-79731181D01*
X172498387Y-79731179D01*
X172403669Y-79545285D01*
X172297749Y-79399500D01*
X172281035Y-79376495D01*
X172133505Y-79228965D01*
X171964714Y-79106330D01*
X171778820Y-79011612D01*
X171580389Y-78947137D01*
X171374324Y-78914500D01*
X171374319Y-78914500D01*
X171165681Y-78914500D01*
X171165676Y-78914500D01*
X170959610Y-78947137D01*
X170761179Y-79011612D01*
X170575285Y-79106330D01*
X170406493Y-79228966D01*
X170258966Y-79376493D01*
X170136330Y-79545285D01*
X170110485Y-79596010D01*
X170062510Y-79646806D01*
X169994690Y-79663601D01*
X169928555Y-79641064D01*
X169889515Y-79596010D01*
X169863669Y-79545285D01*
X169757749Y-79399500D01*
X169741035Y-79376495D01*
X169593505Y-79228965D01*
X169424714Y-79106330D01*
X169238820Y-79011612D01*
X169040389Y-78947137D01*
X168834324Y-78914500D01*
X168834319Y-78914500D01*
X168625681Y-78914500D01*
X168625676Y-78914500D01*
X168419610Y-78947137D01*
X168221179Y-79011612D01*
X168035285Y-79106330D01*
X167866493Y-79228966D01*
X167718966Y-79376493D01*
X167596330Y-79545285D01*
X167570485Y-79596010D01*
X167522510Y-79646806D01*
X167454690Y-79663601D01*
X167388555Y-79641064D01*
X167349515Y-79596010D01*
X167323669Y-79545285D01*
X167217749Y-79399500D01*
X167201035Y-79376495D01*
X167053505Y-79228965D01*
X166884714Y-79106330D01*
X166698820Y-79011612D01*
X166500389Y-78947137D01*
X166294324Y-78914500D01*
X166294319Y-78914500D01*
X166085681Y-78914500D01*
X166085676Y-78914500D01*
X165879610Y-78947137D01*
X165681179Y-79011612D01*
X165495285Y-79106330D01*
X165326493Y-79228966D01*
X165178966Y-79376493D01*
X165056330Y-79545285D01*
X164961612Y-79731179D01*
X164897137Y-79929610D01*
X164864500Y-80135675D01*
X129000000Y-80135675D01*
X129000000Y-77221153D01*
X156489500Y-77221153D01*
X156489500Y-77378846D01*
X156520261Y-77533489D01*
X156520264Y-77533501D01*
X156580602Y-77679172D01*
X156580609Y-77679185D01*
X156668210Y-77810288D01*
X156668213Y-77810292D01*
X156779707Y-77921786D01*
X156779711Y-77921789D01*
X156910814Y-78009390D01*
X156910827Y-78009397D01*
X157056498Y-78069735D01*
X157056503Y-78069737D01*
X157211153Y-78100499D01*
X157211156Y-78100500D01*
X157211158Y-78100500D01*
X157368844Y-78100500D01*
X157368845Y-78100499D01*
X157523497Y-78069737D01*
X157669179Y-78009394D01*
X157800289Y-77921789D01*
X157911789Y-77810289D01*
X157999394Y-77679179D01*
X158059737Y-77533497D01*
X158090500Y-77378842D01*
X158090500Y-77221158D01*
X158090500Y-77221155D01*
X158090499Y-77221153D01*
X158059737Y-77066503D01*
X158006356Y-76937628D01*
X157999397Y-76920827D01*
X157999390Y-76920814D01*
X157911789Y-76789711D01*
X157911786Y-76789707D01*
X157800292Y-76678213D01*
X157800288Y-76678210D01*
X157669185Y-76590609D01*
X157669172Y-76590602D01*
X157523501Y-76530264D01*
X157523489Y-76530261D01*
X157368845Y-76499500D01*
X157368842Y-76499500D01*
X157211158Y-76499500D01*
X157211155Y-76499500D01*
X157056510Y-76530261D01*
X157056498Y-76530264D01*
X156910827Y-76590602D01*
X156910814Y-76590609D01*
X156779711Y-76678210D01*
X156779707Y-76678213D01*
X156668213Y-76789707D01*
X156668210Y-76789711D01*
X156580609Y-76920814D01*
X156580602Y-76920827D01*
X156520264Y-77066498D01*
X156520261Y-77066510D01*
X156489500Y-77221153D01*
X129000000Y-77221153D01*
X129000000Y-74124000D01*
X129019685Y-74056961D01*
X129072489Y-74011206D01*
X129124000Y-74000000D01*
X180876000Y-74000000D01*
X180943039Y-74019685D01*
G37*
%TD.AperFunction*%
%TD*%
M02*
