%TF.GenerationSoftware,KiCad,Pcbnew,8.0.6*%
%TF.CreationDate,2025-05-15T16:07:08-04:00*%
%TF.ProjectId,2 - COLD_TPC_P25M5,32202d20-434f-44c4-945f-5450435f5032,rev?*%
%TF.SameCoordinates,Original*%
%TF.FileFunction,Drillmap*%
%TF.FilePolarity,Positive*%
%FSLAX45Y45*%
G04 Gerber Fmt 4.5, Leading zero omitted, Abs format (unit mm)*
G04 Created by KiCad (PCBNEW 8.0.6) date 2025-05-15 16:07:08*
%MOMM*%
%LPD*%
G01*
G04 APERTURE LIST*
%ADD10C,0.050000*%
%ADD11C,0.200000*%
%ADD12C,0.100000*%
%ADD13C,0.104000*%
%ADD14C,0.105000*%
%ADD15C,0.109000*%
%ADD16C,0.130000*%
%ADD17C,0.149860*%
%ADD18C,0.160000*%
%ADD19C,0.165100*%
%ADD20C,0.170180*%
%ADD21C,0.320000*%
G04 APERTURE END LIST*
D10*
X13208000Y-18796000D02*
G75*
G02*
X12700000Y-18288000I0J508000D01*
G01*
X12700000Y-16764000D02*
X12700000Y-5334000D01*
X12700000Y-5334000D02*
G75*
G02*
X13208000Y-4826000I508000J0D01*
G01*
X25019000Y-18796000D02*
X13208000Y-18796000D01*
X12700000Y-18288000D02*
X12700000Y-16764000D01*
X25019000Y-4826000D02*
G75*
G02*
X25527000Y-5334000I0J-508000D01*
G01*
X25527000Y-5334000D02*
X25527000Y-18288000D01*
X13208000Y-4826000D02*
X25019000Y-4826000D01*
X25527000Y-18288000D02*
G75*
G02*
X25019000Y-18796000I-508000J0D01*
G01*
D11*
D12*
X13193000Y-6081000D02*
X13223000Y-6111000D01*
X13223000Y-6081000D02*
X13193000Y-6111000D01*
X13193000Y-6589000D02*
X13223000Y-6619000D01*
X13223000Y-6589000D02*
X13193000Y-6619000D01*
X13193000Y-7097000D02*
X13223000Y-7127000D01*
X13223000Y-7097000D02*
X13193000Y-7127000D01*
X13193000Y-12685000D02*
X13223000Y-12715000D01*
X13223000Y-12685000D02*
X13193000Y-12715000D01*
X13193000Y-16241000D02*
X13223000Y-16271000D01*
X13223000Y-16241000D02*
X13193000Y-16271000D01*
X13193000Y-16749000D02*
X13223000Y-16779000D01*
X13223000Y-16749000D02*
X13193000Y-16779000D01*
X13193000Y-17257000D02*
X13223000Y-17287000D01*
X13223000Y-17257000D02*
X13193000Y-17287000D01*
X13193000Y-18273000D02*
X13223000Y-18303000D01*
X13223000Y-18273000D02*
X13193000Y-18303000D01*
X13701000Y-6081000D02*
X13731000Y-6111000D01*
X13731000Y-6081000D02*
X13701000Y-6111000D01*
X13701000Y-6589000D02*
X13731000Y-6619000D01*
X13731000Y-6589000D02*
X13701000Y-6619000D01*
X13701000Y-7097000D02*
X13731000Y-7127000D01*
X13731000Y-7097000D02*
X13701000Y-7127000D01*
X13701000Y-12685000D02*
X13731000Y-12715000D01*
X13731000Y-12685000D02*
X13701000Y-12715000D01*
X13701000Y-16241000D02*
X13731000Y-16271000D01*
X13731000Y-16241000D02*
X13701000Y-16271000D01*
X13701000Y-16749000D02*
X13731000Y-16779000D01*
X13731000Y-16749000D02*
X13701000Y-16779000D01*
X13701000Y-17257000D02*
X13731000Y-17287000D01*
X13731000Y-17257000D02*
X13701000Y-17287000D01*
X13701000Y-18273000D02*
X13731000Y-18303000D01*
X13731000Y-18273000D02*
X13701000Y-18303000D01*
X14209000Y-5065000D02*
X14239000Y-5095000D01*
X14239000Y-5065000D02*
X14209000Y-5095000D01*
X14209000Y-5573000D02*
X14239000Y-5603000D01*
X14239000Y-5573000D02*
X14209000Y-5603000D01*
X14209000Y-6081000D02*
X14239000Y-6111000D01*
X14239000Y-6081000D02*
X14209000Y-6111000D01*
X14209000Y-6589000D02*
X14239000Y-6619000D01*
X14239000Y-6589000D02*
X14209000Y-6619000D01*
X14209000Y-7097000D02*
X14239000Y-7127000D01*
X14239000Y-7097000D02*
X14209000Y-7127000D01*
X14209000Y-7605000D02*
X14239000Y-7635000D01*
X14239000Y-7605000D02*
X14209000Y-7635000D01*
X14209000Y-9129000D02*
X14239000Y-9159000D01*
X14239000Y-9129000D02*
X14209000Y-9159000D01*
X14209000Y-9637000D02*
X14239000Y-9667000D01*
X14239000Y-9637000D02*
X14209000Y-9667000D01*
X14209000Y-10653000D02*
X14239000Y-10683000D01*
X14239000Y-10653000D02*
X14209000Y-10683000D01*
X14209000Y-11161000D02*
X14239000Y-11191000D01*
X14239000Y-11161000D02*
X14209000Y-11191000D01*
X14209000Y-11669000D02*
X14239000Y-11699000D01*
X14239000Y-11669000D02*
X14209000Y-11699000D01*
X14209000Y-12177000D02*
X14239000Y-12207000D01*
X14239000Y-12177000D02*
X14209000Y-12207000D01*
X14209000Y-12685000D02*
X14239000Y-12715000D01*
X14239000Y-12685000D02*
X14209000Y-12715000D01*
X14209000Y-13193000D02*
X14239000Y-13223000D01*
X14239000Y-13193000D02*
X14209000Y-13223000D01*
X14209000Y-13701000D02*
X14239000Y-13731000D01*
X14239000Y-13701000D02*
X14209000Y-13731000D01*
X14209000Y-14209000D02*
X14239000Y-14239000D01*
X14239000Y-14209000D02*
X14209000Y-14239000D01*
X14209000Y-14717000D02*
X14239000Y-14747000D01*
X14239000Y-14717000D02*
X14209000Y-14747000D01*
X14209000Y-15225000D02*
X14239000Y-15255000D01*
X14239000Y-15225000D02*
X14209000Y-15255000D01*
X14209000Y-15733000D02*
X14239000Y-15763000D01*
X14239000Y-15733000D02*
X14209000Y-15763000D01*
X14209000Y-16241000D02*
X14239000Y-16271000D01*
X14239000Y-16241000D02*
X14209000Y-16271000D01*
X14209000Y-16749000D02*
X14239000Y-16779000D01*
X14239000Y-16749000D02*
X14209000Y-16779000D01*
X14209000Y-17257000D02*
X14239000Y-17287000D01*
X14239000Y-17257000D02*
X14209000Y-17287000D01*
X14209000Y-17765000D02*
X14239000Y-17795000D01*
X14239000Y-17765000D02*
X14209000Y-17795000D01*
X14209000Y-18273000D02*
X14239000Y-18303000D01*
X14239000Y-18273000D02*
X14209000Y-18303000D01*
X14717000Y-5065000D02*
X14747000Y-5095000D01*
X14747000Y-5065000D02*
X14717000Y-5095000D01*
X14717000Y-5573000D02*
X14747000Y-5603000D01*
X14747000Y-5573000D02*
X14717000Y-5603000D01*
X14717000Y-6081000D02*
X14747000Y-6111000D01*
X14747000Y-6081000D02*
X14717000Y-6111000D01*
X14717000Y-6589000D02*
X14747000Y-6619000D01*
X14747000Y-6589000D02*
X14717000Y-6619000D01*
X14717000Y-7097000D02*
X14747000Y-7127000D01*
X14747000Y-7097000D02*
X14717000Y-7127000D01*
X14717000Y-7605000D02*
X14747000Y-7635000D01*
X14747000Y-7605000D02*
X14717000Y-7635000D01*
X14717000Y-9129000D02*
X14747000Y-9159000D01*
X14747000Y-9129000D02*
X14717000Y-9159000D01*
X14717000Y-9637000D02*
X14747000Y-9667000D01*
X14747000Y-9637000D02*
X14717000Y-9667000D01*
X14717000Y-10653000D02*
X14747000Y-10683000D01*
X14747000Y-10653000D02*
X14717000Y-10683000D01*
X14717000Y-11161000D02*
X14747000Y-11191000D01*
X14747000Y-11161000D02*
X14717000Y-11191000D01*
X14717000Y-11669000D02*
X14747000Y-11699000D01*
X14747000Y-11669000D02*
X14717000Y-11699000D01*
X14717000Y-12177000D02*
X14747000Y-12207000D01*
X14747000Y-12177000D02*
X14717000Y-12207000D01*
X14717000Y-12685000D02*
X14747000Y-12715000D01*
X14747000Y-12685000D02*
X14717000Y-12715000D01*
X14717000Y-13193000D02*
X14747000Y-13223000D01*
X14747000Y-13193000D02*
X14717000Y-13223000D01*
X14717000Y-13701000D02*
X14747000Y-13731000D01*
X14747000Y-13701000D02*
X14717000Y-13731000D01*
X14717000Y-14209000D02*
X14747000Y-14239000D01*
X14747000Y-14209000D02*
X14717000Y-14239000D01*
X14717000Y-14717000D02*
X14747000Y-14747000D01*
X14747000Y-14717000D02*
X14717000Y-14747000D01*
X14717000Y-15225000D02*
X14747000Y-15255000D01*
X14747000Y-15225000D02*
X14717000Y-15255000D01*
X14717000Y-15733000D02*
X14747000Y-15763000D01*
X14747000Y-15733000D02*
X14717000Y-15763000D01*
X14717000Y-16241000D02*
X14747000Y-16271000D01*
X14747000Y-16241000D02*
X14717000Y-16271000D01*
X14717000Y-16749000D02*
X14747000Y-16779000D01*
X14747000Y-16749000D02*
X14717000Y-16779000D01*
X14717000Y-17257000D02*
X14747000Y-17287000D01*
X14747000Y-17257000D02*
X14717000Y-17287000D01*
X14717000Y-17765000D02*
X14747000Y-17795000D01*
X14747000Y-17765000D02*
X14717000Y-17795000D01*
X14717000Y-18273000D02*
X14747000Y-18303000D01*
X14747000Y-18273000D02*
X14717000Y-18303000D01*
X15053000Y-8091500D02*
X15083000Y-8121500D01*
X15083000Y-8091500D02*
X15053000Y-8121500D01*
X15083000Y-10123500D02*
X15113000Y-10153500D01*
X15113000Y-10123500D02*
X15083000Y-10153500D01*
X15115500Y-13046000D02*
X15145500Y-13076000D01*
X15145500Y-13046000D02*
X15115500Y-13076000D01*
X15115500Y-13173000D02*
X15145500Y-13203000D01*
X15145500Y-13173000D02*
X15115500Y-13203000D01*
X15115500Y-13300000D02*
X15145500Y-13330000D01*
X15145500Y-13300000D02*
X15115500Y-13330000D01*
X15121500Y-12408500D02*
X15151500Y-12438500D01*
X15151500Y-12408500D02*
X15121500Y-12438500D01*
X15121500Y-12535500D02*
X15151500Y-12565500D01*
X15151500Y-12535500D02*
X15121500Y-12565500D01*
X15121500Y-12662500D02*
X15151500Y-12692500D01*
X15151500Y-12662500D02*
X15121500Y-12692500D01*
X15124750Y-16488000D02*
X15154750Y-16518000D01*
X15154750Y-16488000D02*
X15124750Y-16518000D01*
X15124750Y-16615000D02*
X15154750Y-16645000D01*
X15154750Y-16615000D02*
X15124750Y-16645000D01*
X15124750Y-16742000D02*
X15154750Y-16772000D01*
X15154750Y-16742000D02*
X15124750Y-16772000D01*
X15132750Y-15867000D02*
X15162750Y-15897000D01*
X15162750Y-15867000D02*
X15132750Y-15897000D01*
X15132750Y-15994000D02*
X15162750Y-16024000D01*
X15162750Y-15994000D02*
X15132750Y-16024000D01*
X15132750Y-16121000D02*
X15162750Y-16151000D01*
X15162750Y-16121000D02*
X15132750Y-16151000D01*
X15209000Y-7697000D02*
X15239000Y-7727000D01*
X15239000Y-7697000D02*
X15209000Y-7727000D01*
X15225000Y-5065000D02*
X15255000Y-5095000D01*
X15255000Y-5065000D02*
X15225000Y-5095000D01*
X15225000Y-5573000D02*
X15255000Y-5603000D01*
X15255000Y-5573000D02*
X15225000Y-5603000D01*
X15225000Y-6081000D02*
X15255000Y-6111000D01*
X15255000Y-6081000D02*
X15225000Y-6111000D01*
X15225000Y-6589000D02*
X15255000Y-6619000D01*
X15255000Y-6589000D02*
X15225000Y-6619000D01*
X15225000Y-7097000D02*
X15255000Y-7127000D01*
X15255000Y-7097000D02*
X15225000Y-7127000D01*
X15225000Y-10653000D02*
X15255000Y-10683000D01*
X15255000Y-10653000D02*
X15225000Y-10683000D01*
X15225000Y-11161000D02*
X15255000Y-11191000D01*
X15255000Y-11161000D02*
X15225000Y-11191000D01*
X15225000Y-11669000D02*
X15255000Y-11699000D01*
X15255000Y-11669000D02*
X15225000Y-11699000D01*
X15225000Y-12177000D02*
X15255000Y-12207000D01*
X15255000Y-12177000D02*
X15225000Y-12207000D01*
X15225000Y-13701000D02*
X15255000Y-13731000D01*
X15255000Y-13701000D02*
X15225000Y-13731000D01*
X15225000Y-14209000D02*
X15255000Y-14239000D01*
X15255000Y-14209000D02*
X15225000Y-14239000D01*
X15225000Y-14717000D02*
X15255000Y-14747000D01*
X15255000Y-14717000D02*
X15225000Y-14747000D01*
X15225000Y-15225000D02*
X15255000Y-15255000D01*
X15255000Y-15225000D02*
X15225000Y-15255000D01*
X15225000Y-17765000D02*
X15255000Y-17795000D01*
X15255000Y-17765000D02*
X15225000Y-17795000D01*
X15225000Y-18273000D02*
X15255000Y-18303000D01*
X15255000Y-18273000D02*
X15225000Y-18303000D01*
X15242500Y-13046000D02*
X15272500Y-13076000D01*
X15272500Y-13046000D02*
X15242500Y-13076000D01*
X15242500Y-13173000D02*
X15272500Y-13203000D01*
X15272500Y-13173000D02*
X15242500Y-13203000D01*
X15242500Y-13300000D02*
X15272500Y-13330000D01*
X15272500Y-13300000D02*
X15242500Y-13330000D01*
X15248500Y-12408500D02*
X15278500Y-12438500D01*
X15278500Y-12408500D02*
X15248500Y-12438500D01*
X15248500Y-12535500D02*
X15278500Y-12565500D01*
X15278500Y-12535500D02*
X15248500Y-12565500D01*
X15248500Y-12662500D02*
X15278500Y-12692500D01*
X15278500Y-12662500D02*
X15248500Y-12692500D01*
X15251750Y-16488000D02*
X15281750Y-16518000D01*
X15281750Y-16488000D02*
X15251750Y-16518000D01*
X15251750Y-16615000D02*
X15281750Y-16645000D01*
X15281750Y-16615000D02*
X15251750Y-16645000D01*
X15251750Y-16742000D02*
X15281750Y-16772000D01*
X15281750Y-16742000D02*
X15251750Y-16772000D01*
X15259750Y-15867000D02*
X15289750Y-15897000D01*
X15289750Y-15867000D02*
X15259750Y-15897000D01*
X15259750Y-15994000D02*
X15289750Y-16024000D01*
X15289750Y-15994000D02*
X15259750Y-16024000D01*
X15259750Y-16121000D02*
X15289750Y-16151000D01*
X15289750Y-16121000D02*
X15259750Y-16151000D01*
X15311000Y-9419500D02*
X15341000Y-9449500D01*
X15341000Y-9419500D02*
X15311000Y-9449500D01*
X15369500Y-13046000D02*
X15399500Y-13076000D01*
X15399500Y-13046000D02*
X15369500Y-13076000D01*
X15369500Y-13173000D02*
X15399500Y-13203000D01*
X15399500Y-13173000D02*
X15369500Y-13203000D01*
X15369500Y-13300000D02*
X15399500Y-13330000D01*
X15399500Y-13300000D02*
X15369500Y-13330000D01*
X15375500Y-12408500D02*
X15405500Y-12438500D01*
X15405500Y-12408500D02*
X15375500Y-12438500D01*
X15375500Y-12535500D02*
X15405500Y-12565500D01*
X15405500Y-12535500D02*
X15375500Y-12565500D01*
X15375500Y-12662500D02*
X15405500Y-12692500D01*
X15405500Y-12662500D02*
X15375500Y-12692500D01*
X15378750Y-16488000D02*
X15408750Y-16518000D01*
X15408750Y-16488000D02*
X15378750Y-16518000D01*
X15378750Y-16615000D02*
X15408750Y-16645000D01*
X15408750Y-16615000D02*
X15378750Y-16645000D01*
X15378750Y-16742000D02*
X15408750Y-16772000D01*
X15408750Y-16742000D02*
X15378750Y-16772000D01*
X15386750Y-15867000D02*
X15416750Y-15897000D01*
X15416750Y-15867000D02*
X15386750Y-15897000D01*
X15386750Y-15994000D02*
X15416750Y-16024000D01*
X15416750Y-15994000D02*
X15386750Y-16024000D01*
X15386750Y-16121000D02*
X15416750Y-16151000D01*
X15416750Y-16121000D02*
X15386750Y-16151000D01*
X15496500Y-13046000D02*
X15526500Y-13076000D01*
X15526500Y-13046000D02*
X15496500Y-13076000D01*
X15496500Y-13173000D02*
X15526500Y-13203000D01*
X15526500Y-13173000D02*
X15496500Y-13203000D01*
X15496500Y-13300000D02*
X15526500Y-13330000D01*
X15526500Y-13300000D02*
X15496500Y-13330000D01*
X15502500Y-12408500D02*
X15532500Y-12438500D01*
X15532500Y-12408500D02*
X15502500Y-12438500D01*
X15502500Y-12535500D02*
X15532500Y-12565500D01*
X15532500Y-12535500D02*
X15502500Y-12565500D01*
X15502500Y-12662500D02*
X15532500Y-12692500D01*
X15532500Y-12662500D02*
X15502500Y-12692500D01*
X15505750Y-16488000D02*
X15535750Y-16518000D01*
X15535750Y-16488000D02*
X15505750Y-16518000D01*
X15505750Y-16615000D02*
X15535750Y-16645000D01*
X15535750Y-16615000D02*
X15505750Y-16645000D01*
X15505750Y-16742000D02*
X15535750Y-16772000D01*
X15535750Y-16742000D02*
X15505750Y-16772000D01*
X15513750Y-15867000D02*
X15543750Y-15897000D01*
X15543750Y-15867000D02*
X15513750Y-15897000D01*
X15513750Y-15994000D02*
X15543750Y-16024000D01*
X15543750Y-15994000D02*
X15513750Y-16024000D01*
X15513750Y-16121000D02*
X15543750Y-16151000D01*
X15543750Y-16121000D02*
X15513750Y-16151000D01*
X15545000Y-8961500D02*
X15575000Y-8991500D01*
X15575000Y-8961500D02*
X15545000Y-8991500D01*
X15651000Y-9577500D02*
X15681000Y-9607500D01*
X15681000Y-9577500D02*
X15651000Y-9607500D01*
X15733000Y-6589000D02*
X15763000Y-6619000D01*
X15763000Y-6589000D02*
X15733000Y-6619000D01*
X15733000Y-7097000D02*
X15763000Y-7127000D01*
X15763000Y-7097000D02*
X15733000Y-7127000D01*
X15733000Y-11161000D02*
X15763000Y-11191000D01*
X15763000Y-11161000D02*
X15733000Y-11191000D01*
X15733000Y-11669000D02*
X15763000Y-11699000D01*
X15763000Y-11669000D02*
X15733000Y-11699000D01*
X15733000Y-12177000D02*
X15763000Y-12207000D01*
X15763000Y-12177000D02*
X15733000Y-12207000D01*
X15733000Y-13701000D02*
X15763000Y-13731000D01*
X15763000Y-13701000D02*
X15733000Y-13731000D01*
X15733000Y-14209000D02*
X15763000Y-14239000D01*
X15763000Y-14209000D02*
X15733000Y-14239000D01*
X15733000Y-14717000D02*
X15763000Y-14747000D01*
X15763000Y-14717000D02*
X15733000Y-14747000D01*
X15733000Y-15225000D02*
X15763000Y-15255000D01*
X15763000Y-15225000D02*
X15733000Y-15255000D01*
X15733000Y-15733000D02*
X15763000Y-15763000D01*
X15763000Y-15733000D02*
X15733000Y-15763000D01*
X15733000Y-16241000D02*
X15763000Y-16271000D01*
X15763000Y-16241000D02*
X15733000Y-16271000D01*
X15733000Y-17257000D02*
X15763000Y-17287000D01*
X15763000Y-17257000D02*
X15733000Y-17287000D01*
X15733000Y-17765000D02*
X15763000Y-17795000D01*
X15763000Y-17765000D02*
X15733000Y-17795000D01*
X15733000Y-18273000D02*
X15763000Y-18303000D01*
X15763000Y-18273000D02*
X15733000Y-18303000D01*
X15882000Y-7699500D02*
X15912000Y-7729500D01*
X15912000Y-7699500D02*
X15882000Y-7729500D01*
X15882140Y-8805500D02*
X15912140Y-8835500D01*
X15912140Y-8805500D02*
X15882140Y-8835500D01*
X15975000Y-10643000D02*
X16005000Y-10673000D01*
X16005000Y-10643000D02*
X15975000Y-10673000D01*
X15987000Y-12999000D02*
X16017000Y-13029000D01*
X16017000Y-12999000D02*
X15987000Y-13029000D01*
X16001000Y-12055000D02*
X16031000Y-12085000D01*
X16031000Y-12055000D02*
X16001000Y-12085000D01*
X16167000Y-9454500D02*
X16197000Y-9484500D01*
X16197000Y-9454500D02*
X16167000Y-9484500D01*
X16241000Y-6589000D02*
X16271000Y-6619000D01*
X16271000Y-6589000D02*
X16241000Y-6619000D01*
X16241000Y-7097000D02*
X16271000Y-7127000D01*
X16271000Y-7097000D02*
X16241000Y-7127000D01*
X16241000Y-7605000D02*
X16271000Y-7635000D01*
X16271000Y-7605000D02*
X16241000Y-7635000D01*
X16241000Y-8113000D02*
X16271000Y-8143000D01*
X16271000Y-8113000D02*
X16241000Y-8143000D01*
X16241000Y-8621000D02*
X16271000Y-8651000D01*
X16271000Y-8621000D02*
X16241000Y-8651000D01*
X16241000Y-9129000D02*
X16271000Y-9159000D01*
X16271000Y-9129000D02*
X16241000Y-9159000D01*
X16241000Y-10653000D02*
X16271000Y-10683000D01*
X16271000Y-10653000D02*
X16241000Y-10683000D01*
X16241000Y-11161000D02*
X16271000Y-11191000D01*
X16271000Y-11161000D02*
X16241000Y-11191000D01*
X16241000Y-11669000D02*
X16271000Y-11699000D01*
X16271000Y-11669000D02*
X16241000Y-11699000D01*
X16241000Y-12177000D02*
X16271000Y-12207000D01*
X16271000Y-12177000D02*
X16241000Y-12207000D01*
X16241000Y-13701000D02*
X16271000Y-13731000D01*
X16271000Y-13701000D02*
X16241000Y-13731000D01*
X16241000Y-14209000D02*
X16271000Y-14239000D01*
X16271000Y-14209000D02*
X16241000Y-14239000D01*
X16241000Y-14717000D02*
X16271000Y-14747000D01*
X16271000Y-14717000D02*
X16241000Y-14747000D01*
X16241000Y-15225000D02*
X16271000Y-15255000D01*
X16271000Y-15225000D02*
X16241000Y-15255000D01*
X16241000Y-15733000D02*
X16271000Y-15763000D01*
X16271000Y-15733000D02*
X16241000Y-15763000D01*
X16241000Y-16241000D02*
X16271000Y-16271000D01*
X16271000Y-16241000D02*
X16241000Y-16271000D01*
X16241000Y-17257000D02*
X16271000Y-17287000D01*
X16271000Y-17257000D02*
X16241000Y-17287000D01*
X16241000Y-18273000D02*
X16271000Y-18303000D01*
X16271000Y-18273000D02*
X16241000Y-18303000D01*
X16376000Y-7643000D02*
X16406000Y-7673000D01*
X16406000Y-7643000D02*
X16376000Y-7673000D01*
X16454000Y-9295000D02*
X16484000Y-9325000D01*
X16484000Y-9295000D02*
X16454000Y-9325000D01*
X16454000Y-10179000D02*
X16484000Y-10209000D01*
X16484000Y-10179000D02*
X16454000Y-10209000D01*
X16707000Y-8805000D02*
X16737000Y-8835000D01*
X16737000Y-8805000D02*
X16707000Y-8835000D01*
X16707000Y-10072000D02*
X16737000Y-10102000D01*
X16737000Y-10072000D02*
X16707000Y-10102000D01*
X16749000Y-12177000D02*
X16779000Y-12207000D01*
X16779000Y-12177000D02*
X16749000Y-12207000D01*
X16749000Y-13701000D02*
X16779000Y-13731000D01*
X16779000Y-13701000D02*
X16749000Y-13731000D01*
X16749000Y-14209000D02*
X16779000Y-14239000D01*
X16779000Y-14209000D02*
X16749000Y-14239000D01*
X16749000Y-14717000D02*
X16779000Y-14747000D01*
X16779000Y-14717000D02*
X16749000Y-14747000D01*
X16749000Y-15225000D02*
X16779000Y-15255000D01*
X16779000Y-15225000D02*
X16749000Y-15255000D01*
X16749000Y-15733000D02*
X16779000Y-15763000D01*
X16779000Y-15733000D02*
X16749000Y-15763000D01*
X16749000Y-17257000D02*
X16779000Y-17287000D01*
X16779000Y-17257000D02*
X16749000Y-17287000D01*
X16749000Y-18273000D02*
X16779000Y-18303000D01*
X16779000Y-18273000D02*
X16749000Y-18303000D01*
X16839000Y-10680000D02*
X16869000Y-10710000D01*
X16869000Y-10680000D02*
X16839000Y-10710000D01*
X16842000Y-7642000D02*
X16872000Y-7672000D01*
X16872000Y-7642000D02*
X16842000Y-7672000D01*
X16842000Y-10197000D02*
X16872000Y-10227000D01*
X16872000Y-10197000D02*
X16842000Y-10227000D01*
X17160000Y-7396000D02*
X17190000Y-7426000D01*
X17190000Y-7396000D02*
X17160000Y-7426000D01*
X17216000Y-7022000D02*
X17246000Y-7052000D01*
X17246000Y-7022000D02*
X17216000Y-7052000D01*
X17216000Y-7230000D02*
X17246000Y-7260000D01*
X17246000Y-7230000D02*
X17216000Y-7260000D01*
X17224000Y-12055000D02*
X17254000Y-12085000D01*
X17254000Y-12055000D02*
X17224000Y-12085000D01*
X17257000Y-8113000D02*
X17287000Y-8143000D01*
X17287000Y-8113000D02*
X17257000Y-8143000D01*
X17257000Y-8621000D02*
X17287000Y-8651000D01*
X17287000Y-8621000D02*
X17257000Y-8651000D01*
X17257000Y-9129000D02*
X17287000Y-9159000D01*
X17287000Y-9129000D02*
X17257000Y-9159000D01*
X17257000Y-9637000D02*
X17287000Y-9667000D01*
X17287000Y-9637000D02*
X17257000Y-9667000D01*
X17257000Y-10653000D02*
X17287000Y-10683000D01*
X17287000Y-10653000D02*
X17257000Y-10683000D01*
X17257000Y-11161000D02*
X17287000Y-11191000D01*
X17287000Y-11161000D02*
X17257000Y-11191000D01*
X17257000Y-13701000D02*
X17287000Y-13731000D01*
X17287000Y-13701000D02*
X17257000Y-13731000D01*
X17257000Y-14209000D02*
X17287000Y-14239000D01*
X17287000Y-14209000D02*
X17257000Y-14239000D01*
X17257000Y-14717000D02*
X17287000Y-14747000D01*
X17287000Y-14717000D02*
X17257000Y-14747000D01*
X17257000Y-15225000D02*
X17287000Y-15255000D01*
X17287000Y-15225000D02*
X17257000Y-15255000D01*
X17257000Y-16241000D02*
X17287000Y-16271000D01*
X17287000Y-16241000D02*
X17257000Y-16271000D01*
X17257000Y-17257000D02*
X17287000Y-17287000D01*
X17287000Y-17257000D02*
X17257000Y-17287000D01*
X17257000Y-18273000D02*
X17287000Y-18303000D01*
X17287000Y-18273000D02*
X17257000Y-18303000D01*
X17362000Y-11736000D02*
X17392000Y-11766000D01*
X17392000Y-11736000D02*
X17362000Y-11766000D01*
X17416000Y-9167000D02*
X17446000Y-9197000D01*
X17446000Y-9167000D02*
X17416000Y-9197000D01*
X17520000Y-7909000D02*
X17550000Y-7939000D01*
X17550000Y-7909000D02*
X17520000Y-7939000D01*
X17648000Y-8561000D02*
X17678000Y-8591000D01*
X17678000Y-8561000D02*
X17648000Y-8591000D01*
X17728415Y-8043000D02*
X17758415Y-8073000D01*
X17758415Y-8043000D02*
X17728415Y-8073000D01*
X17765000Y-7097000D02*
X17795000Y-7127000D01*
X17795000Y-7097000D02*
X17765000Y-7127000D01*
X17765000Y-7605000D02*
X17795000Y-7635000D01*
X17795000Y-7605000D02*
X17765000Y-7635000D01*
X17765000Y-9637000D02*
X17795000Y-9667000D01*
X17795000Y-9637000D02*
X17765000Y-9667000D01*
X17765000Y-11669000D02*
X17795000Y-11699000D01*
X17795000Y-11669000D02*
X17765000Y-11699000D01*
X17765000Y-14209000D02*
X17795000Y-14239000D01*
X17795000Y-14209000D02*
X17765000Y-14239000D01*
X17765000Y-14717000D02*
X17795000Y-14747000D01*
X17795000Y-14717000D02*
X17765000Y-14747000D01*
X17765000Y-15225000D02*
X17795000Y-15255000D01*
X17795000Y-15225000D02*
X17765000Y-15255000D01*
X17765000Y-17257000D02*
X17795000Y-17287000D01*
X17795000Y-17257000D02*
X17765000Y-17287000D01*
X17765000Y-17765000D02*
X17795000Y-17795000D01*
X17795000Y-17765000D02*
X17765000Y-17795000D01*
X17765000Y-18273000D02*
X17795000Y-18303000D01*
X17795000Y-18273000D02*
X17765000Y-18303000D01*
X17810000Y-10748000D02*
X17840000Y-10778000D01*
X17840000Y-10748000D02*
X17810000Y-10778000D01*
X17810000Y-11190000D02*
X17840000Y-11220000D01*
X17840000Y-11190000D02*
X17810000Y-11220000D01*
X17908000Y-9043000D02*
X17938000Y-9073000D01*
X17938000Y-9043000D02*
X17908000Y-9073000D01*
X17908415Y-8043000D02*
X17938415Y-8073000D01*
X17938415Y-8043000D02*
X17908415Y-8073000D01*
X17999000Y-10748000D02*
X18029000Y-10778000D01*
X18029000Y-10748000D02*
X17999000Y-10778000D01*
X17999000Y-11190000D02*
X18029000Y-11220000D01*
X18029000Y-11190000D02*
X17999000Y-11220000D01*
X18108415Y-8561000D02*
X18138415Y-8591000D01*
X18138415Y-8561000D02*
X18108415Y-8591000D01*
X18109000Y-7231000D02*
X18139000Y-7261000D01*
X18139000Y-7231000D02*
X18109000Y-7261000D01*
X18109000Y-7624000D02*
X18139000Y-7654000D01*
X18139000Y-7624000D02*
X18109000Y-7654000D01*
X18109000Y-10497000D02*
X18139000Y-10527000D01*
X18139000Y-10497000D02*
X18109000Y-10527000D01*
X18212000Y-11338000D02*
X18242000Y-11368000D01*
X18242000Y-11338000D02*
X18212000Y-11368000D01*
X18273000Y-9637000D02*
X18303000Y-9667000D01*
X18303000Y-9637000D02*
X18273000Y-9667000D01*
X18273000Y-11669000D02*
X18303000Y-11699000D01*
X18303000Y-11669000D02*
X18273000Y-11699000D01*
X18273000Y-15225000D02*
X18303000Y-15255000D01*
X18303000Y-15225000D02*
X18273000Y-15255000D01*
X18273000Y-17257000D02*
X18303000Y-17287000D01*
X18303000Y-17257000D02*
X18273000Y-17287000D01*
X18273000Y-18273000D02*
X18303000Y-18303000D01*
X18303000Y-18273000D02*
X18273000Y-18303000D01*
X18323000Y-9964000D02*
X18353000Y-9994000D01*
X18353000Y-9964000D02*
X18323000Y-9994000D01*
X18474415Y-8688000D02*
X18504415Y-8718000D01*
X18504415Y-8688000D02*
X18474415Y-8718000D01*
X18483000Y-11770000D02*
X18513000Y-11800000D01*
X18513000Y-11770000D02*
X18483000Y-11800000D01*
X18484000Y-11905000D02*
X18514000Y-11935000D01*
X18514000Y-11905000D02*
X18484000Y-11935000D01*
X18611000Y-7396000D02*
X18641000Y-7426000D01*
X18641000Y-7396000D02*
X18611000Y-7426000D01*
X18613000Y-9496000D02*
X18643000Y-9526000D01*
X18643000Y-9496000D02*
X18613000Y-9526000D01*
X18685000Y-6790000D02*
X18715000Y-6820000D01*
X18715000Y-6790000D02*
X18685000Y-6820000D01*
X18686748Y-6973455D02*
X18716748Y-7003455D01*
X18716748Y-6973455D02*
X18686748Y-7003455D01*
X18750415Y-8433000D02*
X18780415Y-8463000D01*
X18780415Y-8433000D02*
X18750415Y-8463000D01*
X18781000Y-7605000D02*
X18811000Y-7635000D01*
X18811000Y-7605000D02*
X18781000Y-7635000D01*
X18781000Y-15225000D02*
X18811000Y-15255000D01*
X18811000Y-15225000D02*
X18781000Y-15255000D01*
X18781000Y-15733000D02*
X18811000Y-15763000D01*
X18811000Y-15733000D02*
X18781000Y-15763000D01*
X18781000Y-17257000D02*
X18811000Y-17287000D01*
X18811000Y-17257000D02*
X18781000Y-17287000D01*
X18781000Y-18273000D02*
X18811000Y-18303000D01*
X18811000Y-18273000D02*
X18781000Y-18303000D01*
X18852000Y-10002000D02*
X18882000Y-10032000D01*
X18882000Y-10002000D02*
X18852000Y-10032000D01*
X18893000Y-11541000D02*
X18923000Y-11571000D01*
X18923000Y-11541000D02*
X18893000Y-11571000D01*
X18933000Y-9295000D02*
X18963000Y-9325000D01*
X18963000Y-9295000D02*
X18933000Y-9325000D01*
X19045000Y-12128000D02*
X19075000Y-12158000D01*
X19075000Y-12128000D02*
X19045000Y-12158000D01*
X19115415Y-8560000D02*
X19145415Y-8590000D01*
X19145415Y-8560000D02*
X19115415Y-8590000D01*
X19239000Y-11467000D02*
X19269000Y-11497000D01*
X19269000Y-11467000D02*
X19239000Y-11497000D01*
X19289000Y-5065000D02*
X19319000Y-5095000D01*
X19319000Y-5065000D02*
X19289000Y-5095000D01*
X19289000Y-5573000D02*
X19319000Y-5603000D01*
X19319000Y-5573000D02*
X19289000Y-5603000D01*
X19289000Y-6081000D02*
X19319000Y-6111000D01*
X19319000Y-6081000D02*
X19289000Y-6111000D01*
X19289000Y-7097000D02*
X19319000Y-7127000D01*
X19319000Y-7097000D02*
X19289000Y-7127000D01*
X19289000Y-7605000D02*
X19319000Y-7635000D01*
X19319000Y-7605000D02*
X19289000Y-7635000D01*
X19289000Y-14717000D02*
X19319000Y-14747000D01*
X19319000Y-14717000D02*
X19289000Y-14747000D01*
X19289000Y-17765000D02*
X19319000Y-17795000D01*
X19319000Y-17765000D02*
X19289000Y-17795000D01*
X19289000Y-18273000D02*
X19319000Y-18303000D01*
X19319000Y-18273000D02*
X19289000Y-18303000D01*
X19303415Y-8027000D02*
X19333415Y-8057000D01*
X19333415Y-8027000D02*
X19303415Y-8057000D01*
X19324415Y-9098000D02*
X19354415Y-9128000D01*
X19354415Y-9098000D02*
X19324415Y-9128000D01*
X19397915Y-9712480D02*
X19427915Y-9742480D01*
X19427915Y-9712480D02*
X19397915Y-9742480D01*
X19511415Y-9097000D02*
X19541415Y-9127000D01*
X19541415Y-9097000D02*
X19511415Y-9127000D01*
X19601415Y-8560000D02*
X19631415Y-8590000D01*
X19631415Y-8560000D02*
X19601415Y-8590000D01*
X19797000Y-5065000D02*
X19827000Y-5095000D01*
X19827000Y-5065000D02*
X19797000Y-5095000D01*
X19797000Y-5573000D02*
X19827000Y-5603000D01*
X19827000Y-5573000D02*
X19797000Y-5603000D01*
X19797000Y-6081000D02*
X19827000Y-6111000D01*
X19827000Y-6081000D02*
X19797000Y-6111000D01*
X19797000Y-7097000D02*
X19827000Y-7127000D01*
X19827000Y-7097000D02*
X19797000Y-7127000D01*
X19797000Y-7605000D02*
X19827000Y-7635000D01*
X19827000Y-7605000D02*
X19797000Y-7635000D01*
X19797000Y-8621000D02*
X19827000Y-8651000D01*
X19827000Y-8621000D02*
X19797000Y-8651000D01*
X19797000Y-9129000D02*
X19827000Y-9159000D01*
X19827000Y-9129000D02*
X19797000Y-9159000D01*
X19797000Y-10145000D02*
X19827000Y-10175000D01*
X19827000Y-10145000D02*
X19797000Y-10175000D01*
X19797000Y-10653000D02*
X19827000Y-10683000D01*
X19827000Y-10653000D02*
X19797000Y-10683000D01*
X19797000Y-11161000D02*
X19827000Y-11191000D01*
X19827000Y-11161000D02*
X19797000Y-11191000D01*
X19797000Y-14717000D02*
X19827000Y-14747000D01*
X19827000Y-14717000D02*
X19797000Y-14747000D01*
X19797000Y-17765000D02*
X19827000Y-17795000D01*
X19827000Y-17765000D02*
X19797000Y-17795000D01*
X19797000Y-18273000D02*
X19827000Y-18303000D01*
X19827000Y-18273000D02*
X19797000Y-18303000D01*
X19862415Y-8054000D02*
X19892415Y-8084000D01*
X19892415Y-8054000D02*
X19862415Y-8084000D01*
X20305000Y-5065000D02*
X20335000Y-5095000D01*
X20335000Y-5065000D02*
X20305000Y-5095000D01*
X20305000Y-5573000D02*
X20335000Y-5603000D01*
X20335000Y-5573000D02*
X20305000Y-5603000D01*
X20305000Y-6081000D02*
X20335000Y-6111000D01*
X20335000Y-6081000D02*
X20305000Y-6111000D01*
X20305000Y-7097000D02*
X20335000Y-7127000D01*
X20335000Y-7097000D02*
X20305000Y-7127000D01*
X20305000Y-7605000D02*
X20335000Y-7635000D01*
X20335000Y-7605000D02*
X20305000Y-7635000D01*
X20305000Y-8621000D02*
X20335000Y-8651000D01*
X20335000Y-8621000D02*
X20305000Y-8651000D01*
X20305000Y-9129000D02*
X20335000Y-9159000D01*
X20335000Y-9129000D02*
X20305000Y-9159000D01*
X20305000Y-9637000D02*
X20335000Y-9667000D01*
X20335000Y-9637000D02*
X20305000Y-9667000D01*
X20305000Y-10145000D02*
X20335000Y-10175000D01*
X20335000Y-10145000D02*
X20305000Y-10175000D01*
X20305000Y-10653000D02*
X20335000Y-10683000D01*
X20335000Y-10653000D02*
X20305000Y-10683000D01*
X20305000Y-11161000D02*
X20335000Y-11191000D01*
X20335000Y-11161000D02*
X20305000Y-11191000D01*
X20305000Y-14717000D02*
X20335000Y-14747000D01*
X20335000Y-14717000D02*
X20305000Y-14747000D01*
X20305000Y-17765000D02*
X20335000Y-17795000D01*
X20335000Y-17765000D02*
X20305000Y-17795000D01*
X20305000Y-18273000D02*
X20335000Y-18303000D01*
X20335000Y-18273000D02*
X20305000Y-18303000D01*
X20325000Y-8236020D02*
X20355000Y-8266020D01*
X20355000Y-8236020D02*
X20325000Y-8266020D01*
X20329000Y-9336000D02*
X20359000Y-9366000D01*
X20359000Y-9336000D02*
X20329000Y-9366000D01*
X20813000Y-5065000D02*
X20843000Y-5095000D01*
X20843000Y-5065000D02*
X20813000Y-5095000D01*
X20813000Y-5573000D02*
X20843000Y-5603000D01*
X20843000Y-5573000D02*
X20813000Y-5603000D01*
X20813000Y-6081000D02*
X20843000Y-6111000D01*
X20843000Y-6081000D02*
X20813000Y-6111000D01*
X20813000Y-11161000D02*
X20843000Y-11191000D01*
X20843000Y-11161000D02*
X20813000Y-11191000D01*
X20813000Y-14717000D02*
X20843000Y-14747000D01*
X20843000Y-14717000D02*
X20813000Y-14747000D01*
X20813000Y-17765000D02*
X20843000Y-17795000D01*
X20843000Y-17765000D02*
X20813000Y-17795000D01*
X20813000Y-18273000D02*
X20843000Y-18303000D01*
X20843000Y-18273000D02*
X20813000Y-18303000D01*
X21321000Y-5065000D02*
X21351000Y-5095000D01*
X21351000Y-5065000D02*
X21321000Y-5095000D01*
X21321000Y-5573000D02*
X21351000Y-5603000D01*
X21351000Y-5573000D02*
X21321000Y-5603000D01*
X21321000Y-6081000D02*
X21351000Y-6111000D01*
X21351000Y-6081000D02*
X21321000Y-6111000D01*
X21321000Y-11161000D02*
X21351000Y-11191000D01*
X21351000Y-11161000D02*
X21321000Y-11191000D01*
X21321000Y-17765000D02*
X21351000Y-17795000D01*
X21351000Y-17765000D02*
X21321000Y-17795000D01*
X21321000Y-18273000D02*
X21351000Y-18303000D01*
X21351000Y-18273000D02*
X21321000Y-18303000D01*
X21389000Y-14828000D02*
X21419000Y-14858000D01*
X21419000Y-14828000D02*
X21389000Y-14858000D01*
X21392800Y-14412200D02*
X21422800Y-14442200D01*
X21422800Y-14412200D02*
X21392800Y-14442200D01*
X21829000Y-5065000D02*
X21859000Y-5095000D01*
X21859000Y-5065000D02*
X21829000Y-5095000D01*
X21829000Y-5573000D02*
X21859000Y-5603000D01*
X21859000Y-5573000D02*
X21829000Y-5603000D01*
X21829000Y-6081000D02*
X21859000Y-6111000D01*
X21859000Y-6081000D02*
X21829000Y-6111000D01*
X21829000Y-7097000D02*
X21859000Y-7127000D01*
X21859000Y-7097000D02*
X21829000Y-7127000D01*
X21829000Y-7605000D02*
X21859000Y-7635000D01*
X21859000Y-7605000D02*
X21829000Y-7635000D01*
X21829000Y-8113000D02*
X21859000Y-8143000D01*
X21859000Y-8113000D02*
X21829000Y-8143000D01*
X21829000Y-8621000D02*
X21859000Y-8651000D01*
X21859000Y-8621000D02*
X21829000Y-8651000D01*
X21829000Y-9129000D02*
X21859000Y-9159000D01*
X21859000Y-9129000D02*
X21829000Y-9159000D01*
X21829000Y-9637000D02*
X21859000Y-9667000D01*
X21859000Y-9637000D02*
X21829000Y-9667000D01*
X21829000Y-10145000D02*
X21859000Y-10175000D01*
X21859000Y-10145000D02*
X21829000Y-10175000D01*
X21829000Y-11161000D02*
X21859000Y-11191000D01*
X21859000Y-11161000D02*
X21829000Y-11191000D01*
X21829000Y-11669000D02*
X21859000Y-11699000D01*
X21859000Y-11669000D02*
X21829000Y-11699000D01*
X21829000Y-13701000D02*
X21859000Y-13731000D01*
X21859000Y-13701000D02*
X21829000Y-13731000D01*
X21829000Y-14209000D02*
X21859000Y-14239000D01*
X21859000Y-14209000D02*
X21829000Y-14239000D01*
X21829000Y-14717000D02*
X21859000Y-14747000D01*
X21859000Y-14717000D02*
X21829000Y-14747000D01*
X21829000Y-15225000D02*
X21859000Y-15255000D01*
X21859000Y-15225000D02*
X21829000Y-15255000D01*
X21829000Y-17765000D02*
X21859000Y-17795000D01*
X21859000Y-17765000D02*
X21829000Y-17795000D01*
X21829000Y-18273000D02*
X21859000Y-18303000D01*
X21859000Y-18273000D02*
X21829000Y-18303000D01*
X22337000Y-5065000D02*
X22367000Y-5095000D01*
X22367000Y-5065000D02*
X22337000Y-5095000D01*
X22337000Y-5573000D02*
X22367000Y-5603000D01*
X22367000Y-5573000D02*
X22337000Y-5603000D01*
X22337000Y-6081000D02*
X22367000Y-6111000D01*
X22367000Y-6081000D02*
X22337000Y-6111000D01*
X22337000Y-7097000D02*
X22367000Y-7127000D01*
X22367000Y-7097000D02*
X22337000Y-7127000D01*
X22337000Y-7605000D02*
X22367000Y-7635000D01*
X22367000Y-7605000D02*
X22337000Y-7635000D01*
X22337000Y-8113000D02*
X22367000Y-8143000D01*
X22367000Y-8113000D02*
X22337000Y-8143000D01*
X22337000Y-8621000D02*
X22367000Y-8651000D01*
X22367000Y-8621000D02*
X22337000Y-8651000D01*
X22337000Y-9129000D02*
X22367000Y-9159000D01*
X22367000Y-9129000D02*
X22337000Y-9159000D01*
X22337000Y-9637000D02*
X22367000Y-9667000D01*
X22367000Y-9637000D02*
X22337000Y-9667000D01*
X22337000Y-10145000D02*
X22367000Y-10175000D01*
X22367000Y-10145000D02*
X22337000Y-10175000D01*
X22337000Y-11161000D02*
X22367000Y-11191000D01*
X22367000Y-11161000D02*
X22337000Y-11191000D01*
X22337000Y-11669000D02*
X22367000Y-11699000D01*
X22367000Y-11669000D02*
X22337000Y-11699000D01*
X22337000Y-13701000D02*
X22367000Y-13731000D01*
X22367000Y-13701000D02*
X22337000Y-13731000D01*
X22337000Y-14209000D02*
X22367000Y-14239000D01*
X22367000Y-14209000D02*
X22337000Y-14239000D01*
X22337000Y-15225000D02*
X22367000Y-15255000D01*
X22367000Y-15225000D02*
X22337000Y-15255000D01*
X22337000Y-15733000D02*
X22367000Y-15763000D01*
X22367000Y-15733000D02*
X22337000Y-15763000D01*
X22337000Y-17765000D02*
X22367000Y-17795000D01*
X22367000Y-17765000D02*
X22337000Y-17795000D01*
X22337000Y-18273000D02*
X22367000Y-18303000D01*
X22367000Y-18273000D02*
X22337000Y-18303000D01*
X22715000Y-16708140D02*
X22745000Y-16738140D01*
X22745000Y-16708140D02*
X22715000Y-16738140D01*
X22742000Y-15596140D02*
X22772000Y-15626140D01*
X22772000Y-15596140D02*
X22742000Y-15626140D01*
X22803000Y-11338000D02*
X22833000Y-11368000D01*
X22833000Y-11338000D02*
X22803000Y-11368000D01*
X22845000Y-5065000D02*
X22875000Y-5095000D01*
X22875000Y-5065000D02*
X22845000Y-5095000D01*
X22845000Y-5573000D02*
X22875000Y-5603000D01*
X22875000Y-5573000D02*
X22845000Y-5603000D01*
X22845000Y-6081000D02*
X22875000Y-6111000D01*
X22875000Y-6081000D02*
X22845000Y-6111000D01*
X22845000Y-7097000D02*
X22875000Y-7127000D01*
X22875000Y-7097000D02*
X22845000Y-7127000D01*
X22845000Y-7605000D02*
X22875000Y-7635000D01*
X22875000Y-7605000D02*
X22845000Y-7635000D01*
X22845000Y-8113000D02*
X22875000Y-8143000D01*
X22875000Y-8113000D02*
X22845000Y-8143000D01*
X22845000Y-8621000D02*
X22875000Y-8651000D01*
X22875000Y-8621000D02*
X22845000Y-8651000D01*
X22845000Y-9129000D02*
X22875000Y-9159000D01*
X22875000Y-9129000D02*
X22845000Y-9159000D01*
X22845000Y-9637000D02*
X22875000Y-9667000D01*
X22875000Y-9637000D02*
X22845000Y-9667000D01*
X22845000Y-10145000D02*
X22875000Y-10175000D01*
X22875000Y-10145000D02*
X22845000Y-10175000D01*
X22845000Y-11161000D02*
X22875000Y-11191000D01*
X22875000Y-11161000D02*
X22845000Y-11191000D01*
X22845000Y-17257000D02*
X22875000Y-17287000D01*
X22875000Y-17257000D02*
X22845000Y-17287000D01*
X22845000Y-17765000D02*
X22875000Y-17795000D01*
X22875000Y-17765000D02*
X22845000Y-17795000D01*
X22845000Y-18273000D02*
X22875000Y-18303000D01*
X22875000Y-18273000D02*
X22845000Y-18303000D01*
X23053000Y-13333000D02*
X23083000Y-13363000D01*
X23083000Y-13333000D02*
X23053000Y-13363000D01*
X23353000Y-5065000D02*
X23383000Y-5095000D01*
X23383000Y-5065000D02*
X23353000Y-5095000D01*
X23353000Y-5573000D02*
X23383000Y-5603000D01*
X23383000Y-5573000D02*
X23353000Y-5603000D01*
X23353000Y-6081000D02*
X23383000Y-6111000D01*
X23383000Y-6081000D02*
X23353000Y-6111000D01*
X23353000Y-6081000D02*
X23383000Y-6111000D01*
X23383000Y-6081000D02*
X23353000Y-6111000D01*
X23353000Y-7097000D02*
X23383000Y-7127000D01*
X23383000Y-7097000D02*
X23353000Y-7127000D01*
X23353000Y-7605000D02*
X23383000Y-7635000D01*
X23383000Y-7605000D02*
X23353000Y-7635000D01*
X23353000Y-8113000D02*
X23383000Y-8143000D01*
X23383000Y-8113000D02*
X23353000Y-8143000D01*
X23353000Y-8621000D02*
X23383000Y-8651000D01*
X23383000Y-8621000D02*
X23353000Y-8651000D01*
X23353000Y-9129000D02*
X23383000Y-9159000D01*
X23383000Y-9129000D02*
X23353000Y-9159000D01*
X23353000Y-9637000D02*
X23383000Y-9667000D01*
X23383000Y-9637000D02*
X23353000Y-9667000D01*
X23353000Y-10145000D02*
X23383000Y-10175000D01*
X23383000Y-10145000D02*
X23353000Y-10175000D01*
X23353000Y-13701000D02*
X23383000Y-13731000D01*
X23383000Y-13701000D02*
X23353000Y-13731000D01*
X23353000Y-14209000D02*
X23383000Y-14239000D01*
X23383000Y-14209000D02*
X23353000Y-14239000D01*
X23353000Y-14717000D02*
X23383000Y-14747000D01*
X23383000Y-14717000D02*
X23353000Y-14747000D01*
X23353000Y-17257000D02*
X23383000Y-17287000D01*
X23383000Y-17257000D02*
X23353000Y-17287000D01*
X23353000Y-17765000D02*
X23383000Y-17795000D01*
X23383000Y-17765000D02*
X23353000Y-17795000D01*
X23353000Y-18273000D02*
X23383000Y-18303000D01*
X23383000Y-18273000D02*
X23353000Y-18303000D01*
X23467750Y-17070750D02*
X23497750Y-17100750D01*
X23497750Y-17070750D02*
X23467750Y-17100750D01*
X23590000Y-12147000D02*
X23620000Y-12177000D01*
X23620000Y-12147000D02*
X23590000Y-12177000D01*
X23640000Y-15146000D02*
X23670000Y-15176000D01*
X23670000Y-15146000D02*
X23640000Y-15176000D01*
X23640000Y-15301000D02*
X23670000Y-15331000D01*
X23670000Y-15301000D02*
X23640000Y-15331000D01*
X23657000Y-14450000D02*
X23687000Y-14480000D01*
X23687000Y-14450000D02*
X23657000Y-14480000D01*
X23736500Y-15663500D02*
X23766500Y-15693500D01*
X23766500Y-15663500D02*
X23736500Y-15693500D01*
X23753000Y-13383000D02*
X23783000Y-13413000D01*
X23783000Y-13383000D02*
X23753000Y-13413000D01*
X23759000Y-13278000D02*
X23789000Y-13308000D01*
X23789000Y-13278000D02*
X23759000Y-13308000D01*
X23762000Y-12306000D02*
X23792000Y-12336000D01*
X23792000Y-12306000D02*
X23762000Y-12336000D01*
X23780000Y-6580000D02*
X23810000Y-6610000D01*
X23810000Y-6580000D02*
X23780000Y-6610000D01*
X23859000Y-13553000D02*
X23889000Y-13583000D01*
X23889000Y-13553000D02*
X23859000Y-13583000D01*
X23861000Y-5065000D02*
X23891000Y-5095000D01*
X23891000Y-5065000D02*
X23861000Y-5095000D01*
X23861000Y-5573000D02*
X23891000Y-5603000D01*
X23891000Y-5573000D02*
X23861000Y-5603000D01*
X23861000Y-6081000D02*
X23891000Y-6111000D01*
X23891000Y-6081000D02*
X23861000Y-6111000D01*
X23861000Y-11161000D02*
X23891000Y-11191000D01*
X23891000Y-11161000D02*
X23861000Y-11191000D01*
X23861000Y-12177000D02*
X23891000Y-12207000D01*
X23891000Y-12177000D02*
X23861000Y-12207000D01*
X23861000Y-13701000D02*
X23891000Y-13731000D01*
X23891000Y-13701000D02*
X23861000Y-13731000D01*
X23861000Y-14209000D02*
X23891000Y-14239000D01*
X23891000Y-14209000D02*
X23861000Y-14239000D01*
X23861000Y-17257000D02*
X23891000Y-17287000D01*
X23891000Y-17257000D02*
X23861000Y-17287000D01*
X23861000Y-17765000D02*
X23891000Y-17795000D01*
X23891000Y-17765000D02*
X23861000Y-17795000D01*
X23861000Y-18273000D02*
X23891000Y-18303000D01*
X23891000Y-18273000D02*
X23861000Y-18303000D01*
X24143000Y-14605000D02*
X24173000Y-14635000D01*
X24173000Y-14605000D02*
X24143000Y-14635000D01*
X24167000Y-6968000D02*
X24197000Y-6998000D01*
X24197000Y-6968000D02*
X24167000Y-6998000D01*
X24325000Y-13384000D02*
X24355000Y-13414000D01*
X24355000Y-13384000D02*
X24325000Y-13414000D01*
X24325000Y-14982000D02*
X24355000Y-15012000D01*
X24355000Y-14982000D02*
X24325000Y-15012000D01*
X24333000Y-10634000D02*
X24363000Y-10664000D01*
X24363000Y-10634000D02*
X24333000Y-10664000D01*
X24354000Y-15216000D02*
X24384000Y-15246000D01*
X24384000Y-15216000D02*
X24354000Y-15246000D01*
X24369000Y-5065000D02*
X24399000Y-5095000D01*
X24399000Y-5065000D02*
X24369000Y-5095000D01*
X24369000Y-5573000D02*
X24399000Y-5603000D01*
X24399000Y-5573000D02*
X24369000Y-5603000D01*
X24369000Y-6081000D02*
X24399000Y-6111000D01*
X24399000Y-6081000D02*
X24369000Y-6111000D01*
X24369000Y-6589000D02*
X24399000Y-6619000D01*
X24399000Y-6589000D02*
X24369000Y-6619000D01*
X24369000Y-7097000D02*
X24399000Y-7127000D01*
X24399000Y-7097000D02*
X24369000Y-7127000D01*
X24369000Y-7605000D02*
X24399000Y-7635000D01*
X24399000Y-7605000D02*
X24369000Y-7635000D01*
X24369000Y-8113000D02*
X24399000Y-8143000D01*
X24399000Y-8113000D02*
X24369000Y-8143000D01*
X24369000Y-8621000D02*
X24399000Y-8651000D01*
X24399000Y-8621000D02*
X24369000Y-8651000D01*
X24369000Y-9129000D02*
X24399000Y-9159000D01*
X24399000Y-9129000D02*
X24369000Y-9159000D01*
X24369000Y-9637000D02*
X24399000Y-9667000D01*
X24399000Y-9637000D02*
X24369000Y-9667000D01*
X24369000Y-10145000D02*
X24399000Y-10175000D01*
X24399000Y-10145000D02*
X24369000Y-10175000D01*
X24369000Y-16241000D02*
X24399000Y-16271000D01*
X24399000Y-16241000D02*
X24369000Y-16271000D01*
X24369000Y-16749000D02*
X24399000Y-16779000D01*
X24399000Y-16749000D02*
X24369000Y-16779000D01*
X24369000Y-17257000D02*
X24399000Y-17287000D01*
X24399000Y-17257000D02*
X24369000Y-17287000D01*
X24369000Y-17765000D02*
X24399000Y-17795000D01*
X24399000Y-17765000D02*
X24369000Y-17795000D01*
X24369000Y-18273000D02*
X24399000Y-18303000D01*
X24399000Y-18273000D02*
X24369000Y-18303000D01*
X24877000Y-5065000D02*
X24907000Y-5095000D01*
X24907000Y-5065000D02*
X24877000Y-5095000D01*
X24877000Y-6081000D02*
X24907000Y-6111000D01*
X24907000Y-6081000D02*
X24877000Y-6111000D01*
X24877000Y-6589000D02*
X24907000Y-6619000D01*
X24907000Y-6589000D02*
X24877000Y-6619000D01*
X24877000Y-7097000D02*
X24907000Y-7127000D01*
X24907000Y-7097000D02*
X24877000Y-7127000D01*
X24877000Y-7605000D02*
X24907000Y-7635000D01*
X24907000Y-7605000D02*
X24877000Y-7635000D01*
X24877000Y-8113000D02*
X24907000Y-8143000D01*
X24907000Y-8113000D02*
X24877000Y-8143000D01*
X24877000Y-8621000D02*
X24907000Y-8651000D01*
X24907000Y-8621000D02*
X24877000Y-8651000D01*
X24877000Y-9129000D02*
X24907000Y-9159000D01*
X24907000Y-9129000D02*
X24877000Y-9159000D01*
X24877000Y-9637000D02*
X24907000Y-9667000D01*
X24907000Y-9637000D02*
X24877000Y-9667000D01*
X24877000Y-10145000D02*
X24907000Y-10175000D01*
X24907000Y-10145000D02*
X24877000Y-10175000D01*
X24877000Y-10653000D02*
X24907000Y-10683000D01*
X24907000Y-10653000D02*
X24877000Y-10683000D01*
X24877000Y-14209000D02*
X24907000Y-14239000D01*
X24907000Y-14209000D02*
X24877000Y-14239000D01*
X24877000Y-14717000D02*
X24907000Y-14747000D01*
X24907000Y-14717000D02*
X24877000Y-14747000D01*
X24877000Y-16241000D02*
X24907000Y-16271000D01*
X24907000Y-16241000D02*
X24877000Y-16271000D01*
X24877000Y-16749000D02*
X24907000Y-16779000D01*
X24907000Y-16749000D02*
X24877000Y-16779000D01*
X24877000Y-17257000D02*
X24907000Y-17287000D01*
X24907000Y-17257000D02*
X24877000Y-17287000D01*
X24877000Y-18273000D02*
X24907000Y-18303000D01*
X24907000Y-18273000D02*
X24877000Y-18303000D01*
D13*
X13571000Y-14196000D02*
G75*
G02*
X13467000Y-14196000I-52000J0D01*
G01*
X13467000Y-14196000D02*
G75*
G02*
X13571000Y-14196000I52000J0D01*
G01*
X13571000Y-14473000D02*
G75*
G02*
X13467000Y-14473000I-52000J0D01*
G01*
X13467000Y-14473000D02*
G75*
G02*
X13571000Y-14473000I52000J0D01*
G01*
X13571000Y-14750000D02*
G75*
G02*
X13467000Y-14750000I-52000J0D01*
G01*
X13467000Y-14750000D02*
G75*
G02*
X13571000Y-14750000I52000J0D01*
G01*
X13571000Y-15027000D02*
G75*
G02*
X13467000Y-15027000I-52000J0D01*
G01*
X13467000Y-15027000D02*
G75*
G02*
X13571000Y-15027000I52000J0D01*
G01*
X13855000Y-14057500D02*
G75*
G02*
X13751000Y-14057500I-52000J0D01*
G01*
X13751000Y-14057500D02*
G75*
G02*
X13855000Y-14057500I52000J0D01*
G01*
X13855000Y-14334500D02*
G75*
G02*
X13751000Y-14334500I-52000J0D01*
G01*
X13751000Y-14334500D02*
G75*
G02*
X13855000Y-14334500I52000J0D01*
G01*
X13855000Y-14611500D02*
G75*
G02*
X13751000Y-14611500I-52000J0D01*
G01*
X13751000Y-14611500D02*
G75*
G02*
X13855000Y-14611500I52000J0D01*
G01*
X13855000Y-14888500D02*
G75*
G02*
X13751000Y-14888500I-52000J0D01*
G01*
X13751000Y-14888500D02*
G75*
G02*
X13855000Y-14888500I52000J0D01*
G01*
X13855000Y-15165500D02*
G75*
G02*
X13751000Y-15165500I-52000J0D01*
G01*
X13751000Y-15165500D02*
G75*
G02*
X13855000Y-15165500I52000J0D01*
G01*
D14*
X16728900Y-5928500D02*
X16728900Y-6033500D01*
X16676400Y-5981000D02*
X16781400Y-5981000D01*
X16843400Y-5674500D02*
X16843400Y-5779500D01*
X16790900Y-5727000D02*
X16895900Y-5727000D01*
X16843400Y-6182500D02*
X16843400Y-6287500D01*
X16790900Y-6235000D02*
X16895900Y-6235000D01*
X16957900Y-5928500D02*
X16957900Y-6033500D01*
X16905400Y-5981000D02*
X17010400Y-5981000D01*
X17072400Y-5674500D02*
X17072400Y-5779500D01*
X17019900Y-5727000D02*
X17124900Y-5727000D01*
X17072400Y-6182500D02*
X17072400Y-6287500D01*
X17019900Y-6235000D02*
X17124900Y-6235000D01*
X17186900Y-5928500D02*
X17186900Y-6033500D01*
X17134400Y-5981000D02*
X17239400Y-5981000D01*
X17301400Y-5674500D02*
X17301400Y-5779500D01*
X17248900Y-5727000D02*
X17353900Y-5727000D01*
X17301400Y-6182500D02*
X17301400Y-6287500D01*
X17248900Y-6235000D02*
X17353900Y-6235000D01*
X17415900Y-5928500D02*
X17415900Y-6033500D01*
X17363400Y-5981000D02*
X17468400Y-5981000D01*
X17530400Y-5674500D02*
X17530400Y-5779500D01*
X17477900Y-5727000D02*
X17582900Y-5727000D01*
X17530400Y-6182500D02*
X17530400Y-6287500D01*
X17477900Y-6235000D02*
X17582900Y-6235000D01*
X17644900Y-5928500D02*
X17644900Y-6033500D01*
X17592400Y-5981000D02*
X17697400Y-5981000D01*
X17759400Y-5674500D02*
X17759400Y-5779500D01*
X17706900Y-5727000D02*
X17811900Y-5727000D01*
X17759400Y-6182500D02*
X17759400Y-6287500D01*
X17706900Y-6235000D02*
X17811900Y-6235000D01*
D15*
X13547863Y-8732038D02*
X13547863Y-8654962D01*
X13470787Y-8654962D01*
X13470787Y-8732038D01*
X13547863Y-8732038D01*
X13547863Y-9009038D02*
X13547863Y-8931962D01*
X13470787Y-8931962D01*
X13470787Y-9009038D01*
X13547863Y-9009038D01*
X13547863Y-9286038D02*
X13547863Y-9208962D01*
X13470787Y-9208962D01*
X13470787Y-9286038D01*
X13547863Y-9286038D01*
X13547863Y-9563038D02*
X13547863Y-9485962D01*
X13470787Y-9485962D01*
X13470787Y-9563038D01*
X13547863Y-9563038D01*
X13831863Y-8593538D02*
X13831863Y-8516462D01*
X13754787Y-8516462D01*
X13754787Y-8593538D01*
X13831863Y-8593538D01*
X13831863Y-8870538D02*
X13831863Y-8793462D01*
X13754787Y-8793462D01*
X13754787Y-8870538D01*
X13831863Y-8870538D01*
X13831863Y-9147538D02*
X13831863Y-9070462D01*
X13754787Y-9070462D01*
X13754787Y-9147538D01*
X13831863Y-9147538D01*
X13831863Y-9424538D02*
X13831863Y-9347462D01*
X13754787Y-9347462D01*
X13754787Y-9424538D01*
X13831863Y-9424538D01*
X13831863Y-9701538D02*
X13831863Y-9624462D01*
X13754787Y-9624462D01*
X13754787Y-9701538D01*
X13831863Y-9701538D01*
D16*
X19438750Y-15384000D02*
X19503750Y-15319000D01*
X19438750Y-15254000D01*
X19373750Y-15319000D01*
X19438750Y-15384000D01*
X19438750Y-16144000D02*
X19503750Y-16079000D01*
X19438750Y-16014000D01*
X19373750Y-16079000D01*
X19438750Y-16144000D01*
X19438750Y-16654000D02*
X19503750Y-16589000D01*
X19438750Y-16524000D01*
X19373750Y-16589000D01*
X19438750Y-16654000D01*
X19439500Y-11942000D02*
X19504500Y-11877000D01*
X19439500Y-11812000D01*
X19374500Y-11877000D01*
X19439500Y-11942000D01*
X19439500Y-12702000D02*
X19504500Y-12637000D01*
X19439500Y-12572000D01*
X19374500Y-12637000D01*
X19439500Y-12702000D01*
X19439500Y-13212000D02*
X19504500Y-13147000D01*
X19439500Y-13082000D01*
X19374500Y-13147000D01*
X19439500Y-13212000D01*
X21468750Y-15384000D02*
X21533750Y-15319000D01*
X21468750Y-15254000D01*
X21403750Y-15319000D01*
X21468750Y-15384000D01*
X21468750Y-16404000D02*
X21533750Y-16339000D01*
X21468750Y-16274000D01*
X21403750Y-16339000D01*
X21468750Y-16404000D01*
X21468750Y-17424000D02*
X21533750Y-17359000D01*
X21468750Y-17294000D01*
X21403750Y-17359000D01*
X21468750Y-17424000D01*
X21469500Y-11942000D02*
X21534500Y-11877000D01*
X21469500Y-11812000D01*
X21404500Y-11877000D01*
X21469500Y-11942000D01*
X21469500Y-12962000D02*
X21534500Y-12897000D01*
X21469500Y-12832000D01*
X21404500Y-12897000D01*
X21469500Y-12962000D01*
X21469500Y-13982000D02*
X21534500Y-13917000D01*
X21469500Y-13852000D01*
X21404500Y-13917000D01*
X21469500Y-13982000D01*
D17*
X24925070Y-12903070D02*
X25074930Y-13052930D01*
X25074930Y-12903070D02*
X24925070Y-13052930D01*
X25074930Y-12978000D02*
G75*
G02*
X24925070Y-12978000I-74930J0D01*
G01*
X24925070Y-12978000D02*
G75*
G02*
X25074930Y-12978000I74930J0D01*
G01*
X24925070Y-15536070D02*
X25074930Y-15685930D01*
X25074930Y-15536070D02*
X24925070Y-15685930D01*
X25074930Y-15611000D02*
G75*
G02*
X24925070Y-15611000I-74930J0D01*
G01*
X24925070Y-15611000D02*
G75*
G02*
X25074930Y-15611000I74930J0D01*
G01*
D18*
X14372000Y-8220000D02*
X14532000Y-8380000D01*
X14532000Y-8220000D02*
X14372000Y-8380000D01*
X14452000Y-8220000D02*
X14452000Y-8380000D01*
X14372000Y-8300000D02*
X14532000Y-8300000D01*
X14389000Y-9983000D02*
X14549000Y-10143000D01*
X14549000Y-9983000D02*
X14389000Y-10143000D01*
X14469000Y-9983000D02*
X14469000Y-10143000D01*
X14389000Y-10063000D02*
X14549000Y-10063000D01*
X15429000Y-13909000D02*
X15589000Y-14069000D01*
X15589000Y-13909000D02*
X15429000Y-14069000D01*
X15509000Y-13909000D02*
X15509000Y-14069000D01*
X15429000Y-13989000D02*
X15589000Y-13989000D01*
X15429000Y-14884000D02*
X15589000Y-15044000D01*
X15589000Y-14884000D02*
X15429000Y-15044000D01*
X15509000Y-14884000D02*
X15509000Y-15044000D01*
X15429000Y-14964000D02*
X15589000Y-14964000D01*
X16455000Y-8325000D02*
X16615000Y-8485000D01*
X16615000Y-8325000D02*
X16455000Y-8485000D01*
X16535000Y-8325000D02*
X16535000Y-8485000D01*
X16455000Y-8405000D02*
X16615000Y-8405000D01*
X16989000Y-11325000D02*
X17149000Y-11485000D01*
X17149000Y-11325000D02*
X16989000Y-11485000D01*
X17069000Y-11325000D02*
X17069000Y-11485000D01*
X16989000Y-11405000D02*
X17149000Y-11405000D01*
X22269000Y-14635000D02*
X22429000Y-14795000D01*
X22429000Y-14635000D02*
X22269000Y-14795000D01*
X22349000Y-14635000D02*
X22349000Y-14795000D01*
X22269000Y-14715000D02*
X22429000Y-14715000D01*
D19*
X21213450Y-9267450D02*
X21378550Y-9432550D01*
X21378550Y-9267450D02*
X21213450Y-9432550D01*
X21354372Y-9408372D02*
X21354372Y-9291628D01*
X21237628Y-9291628D01*
X21237628Y-9408372D01*
X21354372Y-9408372D01*
X21213450Y-10334450D02*
X21378550Y-10499550D01*
X21378550Y-10334450D02*
X21213450Y-10499550D01*
X21354372Y-10475372D02*
X21354372Y-10358628D01*
X21237628Y-10358628D01*
X21237628Y-10475372D01*
X21354372Y-10475372D01*
X21214450Y-8168450D02*
X21379550Y-8333550D01*
X21379550Y-8168450D02*
X21214450Y-8333550D01*
X21355372Y-8309372D02*
X21355372Y-8192628D01*
X21238628Y-8192628D01*
X21238628Y-8309372D01*
X21355372Y-8309372D01*
X21223450Y-7035450D02*
X21388550Y-7200550D01*
X21388550Y-7035450D02*
X21223450Y-7200550D01*
X21364372Y-7176372D02*
X21364372Y-7059628D01*
X21247628Y-7059628D01*
X21247628Y-7176372D01*
X21364372Y-7176372D01*
D20*
X24660910Y-12638910D02*
X24831090Y-12809090D01*
X24831090Y-12638910D02*
X24660910Y-12809090D01*
X24746000Y-12809090D02*
X24831090Y-12724000D01*
X24746000Y-12638910D01*
X24660910Y-12724000D01*
X24746000Y-12809090D01*
X24660910Y-13146910D02*
X24831090Y-13317090D01*
X24831090Y-13146910D02*
X24660910Y-13317090D01*
X24746000Y-13317090D02*
X24831090Y-13232000D01*
X24746000Y-13146910D01*
X24660910Y-13232000D01*
X24746000Y-13317090D01*
X24660910Y-15271910D02*
X24831090Y-15442090D01*
X24831090Y-15271910D02*
X24660910Y-15442090D01*
X24746000Y-15442090D02*
X24831090Y-15357000D01*
X24746000Y-15271910D01*
X24660910Y-15357000D01*
X24746000Y-15442090D01*
X24660910Y-15779910D02*
X24831090Y-15950090D01*
X24831090Y-15779910D02*
X24660910Y-15950090D01*
X24746000Y-15950090D02*
X24831090Y-15865000D01*
X24746000Y-15779910D01*
X24660910Y-15865000D01*
X24746000Y-15950090D01*
X25168910Y-12638910D02*
X25339090Y-12809090D01*
X25339090Y-12638910D02*
X25168910Y-12809090D01*
X25254000Y-12809090D02*
X25339090Y-12724000D01*
X25254000Y-12638910D01*
X25168910Y-12724000D01*
X25254000Y-12809090D01*
X25168910Y-13146910D02*
X25339090Y-13317090D01*
X25339090Y-13146910D02*
X25168910Y-13317090D01*
X25254000Y-13317090D02*
X25339090Y-13232000D01*
X25254000Y-13146910D01*
X25168910Y-13232000D01*
X25254000Y-13317090D01*
X25168910Y-15271910D02*
X25339090Y-15442090D01*
X25339090Y-15271910D02*
X25168910Y-15442090D01*
X25254000Y-15442090D02*
X25339090Y-15357000D01*
X25254000Y-15271910D01*
X25168910Y-15357000D01*
X25254000Y-15442090D01*
X25168910Y-15779910D02*
X25339090Y-15950090D01*
X25339090Y-15779910D02*
X25168910Y-15950090D01*
X25254000Y-15950090D02*
X25339090Y-15865000D01*
X25254000Y-15779910D01*
X25168910Y-15865000D01*
X25254000Y-15950090D01*
D21*
X13500000Y-5440000D02*
X13500000Y-5760000D01*
X13340000Y-5600000D02*
X13660000Y-5600000D01*
X13660000Y-5600000D02*
G75*
G02*
X13340000Y-5600000I-160000J0D01*
G01*
X13340000Y-5600000D02*
G75*
G02*
X13660000Y-5600000I160000J0D01*
G01*
X13500000Y-11640000D02*
X13500000Y-11960000D01*
X13340000Y-11800000D02*
X13660000Y-11800000D01*
X13660000Y-11800000D02*
G75*
G02*
X13340000Y-11800000I-160000J0D01*
G01*
X13340000Y-11800000D02*
G75*
G02*
X13660000Y-11800000I160000J0D01*
G01*
X13500000Y-17640000D02*
X13500000Y-17960000D01*
X13340000Y-17800000D02*
X13660000Y-17800000D01*
X13660000Y-17800000D02*
G75*
G02*
X13340000Y-17800000I-160000J0D01*
G01*
X13340000Y-17800000D02*
G75*
G02*
X13660000Y-17800000I160000J0D01*
G01*
X13651325Y-7699000D02*
X13651325Y-8019000D01*
X13491325Y-7859000D02*
X13811325Y-7859000D01*
X13811325Y-7859000D02*
G75*
G02*
X13491325Y-7859000I-160000J0D01*
G01*
X13491325Y-7859000D02*
G75*
G02*
X13811325Y-7859000I160000J0D01*
G01*
X13651325Y-10199000D02*
X13651325Y-10519000D01*
X13491325Y-10359000D02*
X13811325Y-10359000D01*
X13811325Y-10359000D02*
G75*
G02*
X13491325Y-10359000I-160000J0D01*
G01*
X13491325Y-10359000D02*
G75*
G02*
X13811325Y-10359000I160000J0D01*
G01*
X13661000Y-13201500D02*
X13661000Y-13521500D01*
X13501000Y-13361500D02*
X13821000Y-13361500D01*
X13821000Y-13361500D02*
G75*
G02*
X13501000Y-13361500I-160000J0D01*
G01*
X13501000Y-13361500D02*
G75*
G02*
X13821000Y-13361500I160000J0D01*
G01*
X13661000Y-15701500D02*
X13661000Y-16021500D01*
X13501000Y-15861500D02*
X13821000Y-15861500D01*
X13821000Y-15861500D02*
G75*
G02*
X13501000Y-15861500I-160000J0D01*
G01*
X13501000Y-15861500D02*
G75*
G02*
X13821000Y-15861500I160000J0D01*
G01*
X16026500Y-5821000D02*
X16026500Y-6141000D01*
X15866500Y-5981000D02*
X16186500Y-5981000D01*
X16186500Y-5981000D02*
G75*
G02*
X15866500Y-5981000I-160000J0D01*
G01*
X15866500Y-5981000D02*
G75*
G02*
X16186500Y-5981000I160000J0D01*
G01*
X18500000Y-14440000D02*
X18500000Y-14760000D01*
X18340000Y-14600000D02*
X18660000Y-14600000D01*
X18660000Y-14600000D02*
G75*
G02*
X18340000Y-14600000I-160000J0D01*
G01*
X18340000Y-14600000D02*
G75*
G02*
X18660000Y-14600000I160000J0D01*
G01*
X18500000Y-17640000D02*
X18500000Y-17960000D01*
X18340000Y-17800000D02*
X18660000Y-17800000D01*
X18660000Y-17800000D02*
G75*
G02*
X18340000Y-17800000I-160000J0D01*
G01*
X18340000Y-17800000D02*
G75*
G02*
X18660000Y-17800000I160000J0D01*
G01*
X18525500Y-5821000D02*
X18525500Y-6141000D01*
X18365500Y-5981000D02*
X18685500Y-5981000D01*
X18685500Y-5981000D02*
G75*
G02*
X18365500Y-5981000I-160000J0D01*
G01*
X18365500Y-5981000D02*
G75*
G02*
X18685500Y-5981000I160000J0D01*
G01*
X24900000Y-5440000D02*
X24900000Y-5760000D01*
X24740000Y-5600000D02*
X25060000Y-5600000D01*
X25060000Y-5600000D02*
G75*
G02*
X24740000Y-5600000I-160000J0D01*
G01*
X24740000Y-5600000D02*
G75*
G02*
X25060000Y-5600000I160000J0D01*
G01*
X24900000Y-11640000D02*
X24900000Y-11960000D01*
X24740000Y-11800000D02*
X25060000Y-11800000D01*
X25060000Y-11800000D02*
G75*
G02*
X24740000Y-11800000I-160000J0D01*
G01*
X24740000Y-11800000D02*
G75*
G02*
X25060000Y-11800000I160000J0D01*
G01*
X24900000Y-17640000D02*
X24900000Y-17960000D01*
X24740000Y-17800000D02*
X25060000Y-17800000D01*
X25060000Y-17800000D02*
G75*
G02*
X24740000Y-17800000I-160000J0D01*
G01*
X24740000Y-17800000D02*
G75*
G02*
X25060000Y-17800000I160000J0D01*
G01*
D11*
X12958277Y-19109984D02*
X12958277Y-18909984D01*
X12958277Y-18909984D02*
X13005896Y-18909984D01*
X13005896Y-18909984D02*
X13034467Y-18919508D01*
X13034467Y-18919508D02*
X13053515Y-18938555D01*
X13053515Y-18938555D02*
X13063039Y-18957603D01*
X13063039Y-18957603D02*
X13072562Y-18995698D01*
X13072562Y-18995698D02*
X13072562Y-19024270D01*
X13072562Y-19024270D02*
X13063039Y-19062365D01*
X13063039Y-19062365D02*
X13053515Y-19081412D01*
X13053515Y-19081412D02*
X13034467Y-19100460D01*
X13034467Y-19100460D02*
X13005896Y-19109984D01*
X13005896Y-19109984D02*
X12958277Y-19109984D01*
X13158277Y-19109984D02*
X13158277Y-18976650D01*
X13158277Y-19014746D02*
X13167801Y-18995698D01*
X13167801Y-18995698D02*
X13177324Y-18986174D01*
X13177324Y-18986174D02*
X13196372Y-18976650D01*
X13196372Y-18976650D02*
X13215420Y-18976650D01*
X13282086Y-19109984D02*
X13282086Y-18976650D01*
X13282086Y-18909984D02*
X13272562Y-18919508D01*
X13272562Y-18919508D02*
X13282086Y-18929031D01*
X13282086Y-18929031D02*
X13291610Y-18919508D01*
X13291610Y-18919508D02*
X13282086Y-18909984D01*
X13282086Y-18909984D02*
X13282086Y-18929031D01*
X13405896Y-19109984D02*
X13386848Y-19100460D01*
X13386848Y-19100460D02*
X13377324Y-19081412D01*
X13377324Y-19081412D02*
X13377324Y-18909984D01*
X13510658Y-19109984D02*
X13491610Y-19100460D01*
X13491610Y-19100460D02*
X13482086Y-19081412D01*
X13482086Y-19081412D02*
X13482086Y-18909984D01*
X13739229Y-19109984D02*
X13739229Y-18909984D01*
X13739229Y-18909984D02*
X13805896Y-19052841D01*
X13805896Y-19052841D02*
X13872562Y-18909984D01*
X13872562Y-18909984D02*
X13872562Y-19109984D01*
X14053515Y-19109984D02*
X14053515Y-19005222D01*
X14053515Y-19005222D02*
X14043991Y-18986174D01*
X14043991Y-18986174D02*
X14024943Y-18976650D01*
X14024943Y-18976650D02*
X13986848Y-18976650D01*
X13986848Y-18976650D02*
X13967801Y-18986174D01*
X14053515Y-19100460D02*
X14034467Y-19109984D01*
X14034467Y-19109984D02*
X13986848Y-19109984D01*
X13986848Y-19109984D02*
X13967801Y-19100460D01*
X13967801Y-19100460D02*
X13958277Y-19081412D01*
X13958277Y-19081412D02*
X13958277Y-19062365D01*
X13958277Y-19062365D02*
X13967801Y-19043317D01*
X13967801Y-19043317D02*
X13986848Y-19033793D01*
X13986848Y-19033793D02*
X14034467Y-19033793D01*
X14034467Y-19033793D02*
X14053515Y-19024270D01*
X14148753Y-18976650D02*
X14148753Y-19176650D01*
X14148753Y-18986174D02*
X14167801Y-18976650D01*
X14167801Y-18976650D02*
X14205896Y-18976650D01*
X14205896Y-18976650D02*
X14224943Y-18986174D01*
X14224943Y-18986174D02*
X14234467Y-18995698D01*
X14234467Y-18995698D02*
X14243991Y-19014746D01*
X14243991Y-19014746D02*
X14243991Y-19071889D01*
X14243991Y-19071889D02*
X14234467Y-19090936D01*
X14234467Y-19090936D02*
X14224943Y-19100460D01*
X14224943Y-19100460D02*
X14205896Y-19109984D01*
X14205896Y-19109984D02*
X14167801Y-19109984D01*
X14167801Y-19109984D02*
X14148753Y-19100460D01*
X14329705Y-19090936D02*
X14339229Y-19100460D01*
X14339229Y-19100460D02*
X14329705Y-19109984D01*
X14329705Y-19109984D02*
X14320182Y-19100460D01*
X14320182Y-19100460D02*
X14329705Y-19090936D01*
X14329705Y-19090936D02*
X14329705Y-19109984D01*
X14329705Y-18986174D02*
X14339229Y-18995698D01*
X14339229Y-18995698D02*
X14329705Y-19005222D01*
X14329705Y-19005222D02*
X14320182Y-18995698D01*
X14320182Y-18995698D02*
X14329705Y-18986174D01*
X14329705Y-18986174D02*
X14329705Y-19005222D01*
D12*
X12667500Y-19423500D02*
X12697500Y-19453500D01*
X12697500Y-19423500D02*
X12667500Y-19453500D01*
D11*
X12996372Y-19329984D02*
X13015420Y-19329984D01*
X13015420Y-19329984D02*
X13034467Y-19339508D01*
X13034467Y-19339508D02*
X13043991Y-19349031D01*
X13043991Y-19349031D02*
X13053515Y-19368079D01*
X13053515Y-19368079D02*
X13063039Y-19406174D01*
X13063039Y-19406174D02*
X13063039Y-19453793D01*
X13063039Y-19453793D02*
X13053515Y-19491889D01*
X13053515Y-19491889D02*
X13043991Y-19510936D01*
X13043991Y-19510936D02*
X13034467Y-19520460D01*
X13034467Y-19520460D02*
X13015420Y-19529984D01*
X13015420Y-19529984D02*
X12996372Y-19529984D01*
X12996372Y-19529984D02*
X12977324Y-19520460D01*
X12977324Y-19520460D02*
X12967801Y-19510936D01*
X12967801Y-19510936D02*
X12958277Y-19491889D01*
X12958277Y-19491889D02*
X12948753Y-19453793D01*
X12948753Y-19453793D02*
X12948753Y-19406174D01*
X12948753Y-19406174D02*
X12958277Y-19368079D01*
X12958277Y-19368079D02*
X12967801Y-19349031D01*
X12967801Y-19349031D02*
X12977324Y-19339508D01*
X12977324Y-19339508D02*
X12996372Y-19329984D01*
X13148753Y-19510936D02*
X13158277Y-19520460D01*
X13158277Y-19520460D02*
X13148753Y-19529984D01*
X13148753Y-19529984D02*
X13139229Y-19520460D01*
X13139229Y-19520460D02*
X13148753Y-19510936D01*
X13148753Y-19510936D02*
X13148753Y-19529984D01*
X13224943Y-19329984D02*
X13348753Y-19329984D01*
X13348753Y-19329984D02*
X13282086Y-19406174D01*
X13282086Y-19406174D02*
X13310658Y-19406174D01*
X13310658Y-19406174D02*
X13329705Y-19415698D01*
X13329705Y-19415698D02*
X13339229Y-19425222D01*
X13339229Y-19425222D02*
X13348753Y-19444270D01*
X13348753Y-19444270D02*
X13348753Y-19491889D01*
X13348753Y-19491889D02*
X13339229Y-19510936D01*
X13339229Y-19510936D02*
X13329705Y-19520460D01*
X13329705Y-19520460D02*
X13310658Y-19529984D01*
X13310658Y-19529984D02*
X13253515Y-19529984D01*
X13253515Y-19529984D02*
X13234467Y-19520460D01*
X13234467Y-19520460D02*
X13224943Y-19510936D01*
X13472562Y-19329984D02*
X13491610Y-19329984D01*
X13491610Y-19329984D02*
X13510658Y-19339508D01*
X13510658Y-19339508D02*
X13520182Y-19349031D01*
X13520182Y-19349031D02*
X13529705Y-19368079D01*
X13529705Y-19368079D02*
X13539229Y-19406174D01*
X13539229Y-19406174D02*
X13539229Y-19453793D01*
X13539229Y-19453793D02*
X13529705Y-19491889D01*
X13529705Y-19491889D02*
X13520182Y-19510936D01*
X13520182Y-19510936D02*
X13510658Y-19520460D01*
X13510658Y-19520460D02*
X13491610Y-19529984D01*
X13491610Y-19529984D02*
X13472562Y-19529984D01*
X13472562Y-19529984D02*
X13453515Y-19520460D01*
X13453515Y-19520460D02*
X13443991Y-19510936D01*
X13443991Y-19510936D02*
X13434467Y-19491889D01*
X13434467Y-19491889D02*
X13424943Y-19453793D01*
X13424943Y-19453793D02*
X13424943Y-19406174D01*
X13424943Y-19406174D02*
X13434467Y-19368079D01*
X13434467Y-19368079D02*
X13443991Y-19349031D01*
X13443991Y-19349031D02*
X13453515Y-19339508D01*
X13453515Y-19339508D02*
X13472562Y-19329984D01*
X13663039Y-19329984D02*
X13682086Y-19329984D01*
X13682086Y-19329984D02*
X13701134Y-19339508D01*
X13701134Y-19339508D02*
X13710658Y-19349031D01*
X13710658Y-19349031D02*
X13720182Y-19368079D01*
X13720182Y-19368079D02*
X13729705Y-19406174D01*
X13729705Y-19406174D02*
X13729705Y-19453793D01*
X13729705Y-19453793D02*
X13720182Y-19491889D01*
X13720182Y-19491889D02*
X13710658Y-19510936D01*
X13710658Y-19510936D02*
X13701134Y-19520460D01*
X13701134Y-19520460D02*
X13682086Y-19529984D01*
X13682086Y-19529984D02*
X13663039Y-19529984D01*
X13663039Y-19529984D02*
X13643991Y-19520460D01*
X13643991Y-19520460D02*
X13634467Y-19510936D01*
X13634467Y-19510936D02*
X13624943Y-19491889D01*
X13624943Y-19491889D02*
X13615420Y-19453793D01*
X13615420Y-19453793D02*
X13615420Y-19406174D01*
X13615420Y-19406174D02*
X13624943Y-19368079D01*
X13624943Y-19368079D02*
X13634467Y-19349031D01*
X13634467Y-19349031D02*
X13643991Y-19339508D01*
X13643991Y-19339508D02*
X13663039Y-19329984D01*
X13815420Y-19529984D02*
X13815420Y-19396650D01*
X13815420Y-19415698D02*
X13824943Y-19406174D01*
X13824943Y-19406174D02*
X13843991Y-19396650D01*
X13843991Y-19396650D02*
X13872563Y-19396650D01*
X13872563Y-19396650D02*
X13891610Y-19406174D01*
X13891610Y-19406174D02*
X13901134Y-19425222D01*
X13901134Y-19425222D02*
X13901134Y-19529984D01*
X13901134Y-19425222D02*
X13910658Y-19406174D01*
X13910658Y-19406174D02*
X13929705Y-19396650D01*
X13929705Y-19396650D02*
X13958277Y-19396650D01*
X13958277Y-19396650D02*
X13977324Y-19406174D01*
X13977324Y-19406174D02*
X13986848Y-19425222D01*
X13986848Y-19425222D02*
X13986848Y-19529984D01*
X14082086Y-19529984D02*
X14082086Y-19396650D01*
X14082086Y-19415698D02*
X14091610Y-19406174D01*
X14091610Y-19406174D02*
X14110658Y-19396650D01*
X14110658Y-19396650D02*
X14139229Y-19396650D01*
X14139229Y-19396650D02*
X14158277Y-19406174D01*
X14158277Y-19406174D02*
X14167801Y-19425222D01*
X14167801Y-19425222D02*
X14167801Y-19529984D01*
X14167801Y-19425222D02*
X14177324Y-19406174D01*
X14177324Y-19406174D02*
X14196372Y-19396650D01*
X14196372Y-19396650D02*
X14224943Y-19396650D01*
X14224943Y-19396650D02*
X14243991Y-19406174D01*
X14243991Y-19406174D02*
X14253515Y-19425222D01*
X14253515Y-19425222D02*
X14253515Y-19529984D01*
X14643991Y-19320460D02*
X14472563Y-19577603D01*
X14901134Y-19329984D02*
X14920182Y-19329984D01*
X14920182Y-19329984D02*
X14939229Y-19339508D01*
X14939229Y-19339508D02*
X14948753Y-19349031D01*
X14948753Y-19349031D02*
X14958277Y-19368079D01*
X14958277Y-19368079D02*
X14967801Y-19406174D01*
X14967801Y-19406174D02*
X14967801Y-19453793D01*
X14967801Y-19453793D02*
X14958277Y-19491889D01*
X14958277Y-19491889D02*
X14948753Y-19510936D01*
X14948753Y-19510936D02*
X14939229Y-19520460D01*
X14939229Y-19520460D02*
X14920182Y-19529984D01*
X14920182Y-19529984D02*
X14901134Y-19529984D01*
X14901134Y-19529984D02*
X14882086Y-19520460D01*
X14882086Y-19520460D02*
X14872563Y-19510936D01*
X14872563Y-19510936D02*
X14863039Y-19491889D01*
X14863039Y-19491889D02*
X14853515Y-19453793D01*
X14853515Y-19453793D02*
X14853515Y-19406174D01*
X14853515Y-19406174D02*
X14863039Y-19368079D01*
X14863039Y-19368079D02*
X14872563Y-19349031D01*
X14872563Y-19349031D02*
X14882086Y-19339508D01*
X14882086Y-19339508D02*
X14901134Y-19329984D01*
X15053515Y-19510936D02*
X15063039Y-19520460D01*
X15063039Y-19520460D02*
X15053515Y-19529984D01*
X15053515Y-19529984D02*
X15043991Y-19520460D01*
X15043991Y-19520460D02*
X15053515Y-19510936D01*
X15053515Y-19510936D02*
X15053515Y-19529984D01*
X15186848Y-19329984D02*
X15205896Y-19329984D01*
X15205896Y-19329984D02*
X15224944Y-19339508D01*
X15224944Y-19339508D02*
X15234467Y-19349031D01*
X15234467Y-19349031D02*
X15243991Y-19368079D01*
X15243991Y-19368079D02*
X15253515Y-19406174D01*
X15253515Y-19406174D02*
X15253515Y-19453793D01*
X15253515Y-19453793D02*
X15243991Y-19491889D01*
X15243991Y-19491889D02*
X15234467Y-19510936D01*
X15234467Y-19510936D02*
X15224944Y-19520460D01*
X15224944Y-19520460D02*
X15205896Y-19529984D01*
X15205896Y-19529984D02*
X15186848Y-19529984D01*
X15186848Y-19529984D02*
X15167801Y-19520460D01*
X15167801Y-19520460D02*
X15158277Y-19510936D01*
X15158277Y-19510936D02*
X15148753Y-19491889D01*
X15148753Y-19491889D02*
X15139229Y-19453793D01*
X15139229Y-19453793D02*
X15139229Y-19406174D01*
X15139229Y-19406174D02*
X15148753Y-19368079D01*
X15148753Y-19368079D02*
X15158277Y-19349031D01*
X15158277Y-19349031D02*
X15167801Y-19339508D01*
X15167801Y-19339508D02*
X15186848Y-19329984D01*
X15443991Y-19529984D02*
X15329706Y-19529984D01*
X15386848Y-19529984D02*
X15386848Y-19329984D01*
X15386848Y-19329984D02*
X15367801Y-19358555D01*
X15367801Y-19358555D02*
X15348753Y-19377603D01*
X15348753Y-19377603D02*
X15329706Y-19387127D01*
X15634467Y-19529984D02*
X15520182Y-19529984D01*
X15577325Y-19529984D02*
X15577325Y-19329984D01*
X15577325Y-19329984D02*
X15558277Y-19358555D01*
X15558277Y-19358555D02*
X15539229Y-19377603D01*
X15539229Y-19377603D02*
X15520182Y-19387127D01*
X15748753Y-19415698D02*
X15729706Y-19406174D01*
X15729706Y-19406174D02*
X15720182Y-19396650D01*
X15720182Y-19396650D02*
X15710658Y-19377603D01*
X15710658Y-19377603D02*
X15710658Y-19368079D01*
X15710658Y-19368079D02*
X15720182Y-19349031D01*
X15720182Y-19349031D02*
X15729706Y-19339508D01*
X15729706Y-19339508D02*
X15748753Y-19329984D01*
X15748753Y-19329984D02*
X15786848Y-19329984D01*
X15786848Y-19329984D02*
X15805896Y-19339508D01*
X15805896Y-19339508D02*
X15815420Y-19349031D01*
X15815420Y-19349031D02*
X15824944Y-19368079D01*
X15824944Y-19368079D02*
X15824944Y-19377603D01*
X15824944Y-19377603D02*
X15815420Y-19396650D01*
X15815420Y-19396650D02*
X15805896Y-19406174D01*
X15805896Y-19406174D02*
X15786848Y-19415698D01*
X15786848Y-19415698D02*
X15748753Y-19415698D01*
X15748753Y-19415698D02*
X15729706Y-19425222D01*
X15729706Y-19425222D02*
X15720182Y-19434746D01*
X15720182Y-19434746D02*
X15710658Y-19453793D01*
X15710658Y-19453793D02*
X15710658Y-19491889D01*
X15710658Y-19491889D02*
X15720182Y-19510936D01*
X15720182Y-19510936D02*
X15729706Y-19520460D01*
X15729706Y-19520460D02*
X15748753Y-19529984D01*
X15748753Y-19529984D02*
X15786848Y-19529984D01*
X15786848Y-19529984D02*
X15805896Y-19520460D01*
X15805896Y-19520460D02*
X15815420Y-19510936D01*
X15815420Y-19510936D02*
X15824944Y-19491889D01*
X15824944Y-19491889D02*
X15824944Y-19453793D01*
X15824944Y-19453793D02*
X15815420Y-19434746D01*
X15815420Y-19434746D02*
X15805896Y-19425222D01*
X15805896Y-19425222D02*
X15786848Y-19415698D01*
X15901134Y-19329984D02*
X15901134Y-19368079D01*
X15977325Y-19329984D02*
X15977325Y-19368079D01*
X16272563Y-19606174D02*
X16263039Y-19596650D01*
X16263039Y-19596650D02*
X16243991Y-19568079D01*
X16243991Y-19568079D02*
X16234468Y-19549031D01*
X16234468Y-19549031D02*
X16224944Y-19520460D01*
X16224944Y-19520460D02*
X16215420Y-19472841D01*
X16215420Y-19472841D02*
X16215420Y-19434746D01*
X16215420Y-19434746D02*
X16224944Y-19387127D01*
X16224944Y-19387127D02*
X16234468Y-19358555D01*
X16234468Y-19358555D02*
X16243991Y-19339508D01*
X16243991Y-19339508D02*
X16263039Y-19310936D01*
X16263039Y-19310936D02*
X16272563Y-19301412D01*
X16434468Y-19396650D02*
X16434468Y-19529984D01*
X16386848Y-19320460D02*
X16339229Y-19463317D01*
X16339229Y-19463317D02*
X16463039Y-19463317D01*
X16624944Y-19396650D02*
X16624944Y-19529984D01*
X16577325Y-19320460D02*
X16529706Y-19463317D01*
X16529706Y-19463317D02*
X16653515Y-19463317D01*
X16815420Y-19396650D02*
X16815420Y-19529984D01*
X16767801Y-19320460D02*
X16720182Y-19463317D01*
X16720182Y-19463317D02*
X16843991Y-19463317D01*
X17072563Y-19529984D02*
X17072563Y-19329984D01*
X17158277Y-19529984D02*
X17158277Y-19425222D01*
X17158277Y-19425222D02*
X17148753Y-19406174D01*
X17148753Y-19406174D02*
X17129706Y-19396650D01*
X17129706Y-19396650D02*
X17101134Y-19396650D01*
X17101134Y-19396650D02*
X17082087Y-19406174D01*
X17082087Y-19406174D02*
X17072563Y-19415698D01*
X17282087Y-19529984D02*
X17263039Y-19520460D01*
X17263039Y-19520460D02*
X17253515Y-19510936D01*
X17253515Y-19510936D02*
X17243992Y-19491889D01*
X17243992Y-19491889D02*
X17243992Y-19434746D01*
X17243992Y-19434746D02*
X17253515Y-19415698D01*
X17253515Y-19415698D02*
X17263039Y-19406174D01*
X17263039Y-19406174D02*
X17282087Y-19396650D01*
X17282087Y-19396650D02*
X17310658Y-19396650D01*
X17310658Y-19396650D02*
X17329706Y-19406174D01*
X17329706Y-19406174D02*
X17339230Y-19415698D01*
X17339230Y-19415698D02*
X17348753Y-19434746D01*
X17348753Y-19434746D02*
X17348753Y-19491889D01*
X17348753Y-19491889D02*
X17339230Y-19510936D01*
X17339230Y-19510936D02*
X17329706Y-19520460D01*
X17329706Y-19520460D02*
X17310658Y-19529984D01*
X17310658Y-19529984D02*
X17282087Y-19529984D01*
X17463039Y-19529984D02*
X17443992Y-19520460D01*
X17443992Y-19520460D02*
X17434468Y-19501412D01*
X17434468Y-19501412D02*
X17434468Y-19329984D01*
X17615420Y-19520460D02*
X17596373Y-19529984D01*
X17596373Y-19529984D02*
X17558277Y-19529984D01*
X17558277Y-19529984D02*
X17539230Y-19520460D01*
X17539230Y-19520460D02*
X17529706Y-19501412D01*
X17529706Y-19501412D02*
X17529706Y-19425222D01*
X17529706Y-19425222D02*
X17539230Y-19406174D01*
X17539230Y-19406174D02*
X17558277Y-19396650D01*
X17558277Y-19396650D02*
X17596373Y-19396650D01*
X17596373Y-19396650D02*
X17615420Y-19406174D01*
X17615420Y-19406174D02*
X17624944Y-19425222D01*
X17624944Y-19425222D02*
X17624944Y-19444270D01*
X17624944Y-19444270D02*
X17529706Y-19463317D01*
X17701134Y-19520460D02*
X17720182Y-19529984D01*
X17720182Y-19529984D02*
X17758277Y-19529984D01*
X17758277Y-19529984D02*
X17777325Y-19520460D01*
X17777325Y-19520460D02*
X17786849Y-19501412D01*
X17786849Y-19501412D02*
X17786849Y-19491889D01*
X17786849Y-19491889D02*
X17777325Y-19472841D01*
X17777325Y-19472841D02*
X17758277Y-19463317D01*
X17758277Y-19463317D02*
X17729706Y-19463317D01*
X17729706Y-19463317D02*
X17710658Y-19453793D01*
X17710658Y-19453793D02*
X17701134Y-19434746D01*
X17701134Y-19434746D02*
X17701134Y-19425222D01*
X17701134Y-19425222D02*
X17710658Y-19406174D01*
X17710658Y-19406174D02*
X17729706Y-19396650D01*
X17729706Y-19396650D02*
X17758277Y-19396650D01*
X17758277Y-19396650D02*
X17777325Y-19406174D01*
X17853515Y-19606174D02*
X17863039Y-19596650D01*
X17863039Y-19596650D02*
X17882087Y-19568079D01*
X17882087Y-19568079D02*
X17891611Y-19549031D01*
X17891611Y-19549031D02*
X17901134Y-19520460D01*
X17901134Y-19520460D02*
X17910658Y-19472841D01*
X17910658Y-19472841D02*
X17910658Y-19434746D01*
X17910658Y-19434746D02*
X17901134Y-19387127D01*
X17901134Y-19387127D02*
X17891611Y-19358555D01*
X17891611Y-19358555D02*
X17882087Y-19339508D01*
X17882087Y-19339508D02*
X17863039Y-19310936D01*
X17863039Y-19310936D02*
X17853515Y-19301412D01*
D13*
X12697500Y-19702500D02*
G75*
G02*
X12593500Y-19702500I-52000J0D01*
G01*
X12593500Y-19702500D02*
G75*
G02*
X12697500Y-19702500I52000J0D01*
G01*
D11*
X13063039Y-19793984D02*
X12948753Y-19793984D01*
X13005896Y-19793984D02*
X13005896Y-19593984D01*
X13005896Y-19593984D02*
X12986848Y-19622555D01*
X12986848Y-19622555D02*
X12967801Y-19641603D01*
X12967801Y-19641603D02*
X12948753Y-19651127D01*
X13148753Y-19774936D02*
X13158277Y-19784460D01*
X13158277Y-19784460D02*
X13148753Y-19793984D01*
X13148753Y-19793984D02*
X13139229Y-19784460D01*
X13139229Y-19784460D02*
X13148753Y-19774936D01*
X13148753Y-19774936D02*
X13148753Y-19793984D01*
X13282086Y-19593984D02*
X13301134Y-19593984D01*
X13301134Y-19593984D02*
X13320182Y-19603508D01*
X13320182Y-19603508D02*
X13329705Y-19613031D01*
X13329705Y-19613031D02*
X13339229Y-19632079D01*
X13339229Y-19632079D02*
X13348753Y-19670174D01*
X13348753Y-19670174D02*
X13348753Y-19717793D01*
X13348753Y-19717793D02*
X13339229Y-19755889D01*
X13339229Y-19755889D02*
X13329705Y-19774936D01*
X13329705Y-19774936D02*
X13320182Y-19784460D01*
X13320182Y-19784460D02*
X13301134Y-19793984D01*
X13301134Y-19793984D02*
X13282086Y-19793984D01*
X13282086Y-19793984D02*
X13263039Y-19784460D01*
X13263039Y-19784460D02*
X13253515Y-19774936D01*
X13253515Y-19774936D02*
X13243991Y-19755889D01*
X13243991Y-19755889D02*
X13234467Y-19717793D01*
X13234467Y-19717793D02*
X13234467Y-19670174D01*
X13234467Y-19670174D02*
X13243991Y-19632079D01*
X13243991Y-19632079D02*
X13253515Y-19613031D01*
X13253515Y-19613031D02*
X13263039Y-19603508D01*
X13263039Y-19603508D02*
X13282086Y-19593984D01*
X13520182Y-19660650D02*
X13520182Y-19793984D01*
X13472562Y-19584460D02*
X13424943Y-19727317D01*
X13424943Y-19727317D02*
X13548753Y-19727317D01*
X13663039Y-19593984D02*
X13682086Y-19593984D01*
X13682086Y-19593984D02*
X13701134Y-19603508D01*
X13701134Y-19603508D02*
X13710658Y-19613031D01*
X13710658Y-19613031D02*
X13720182Y-19632079D01*
X13720182Y-19632079D02*
X13729705Y-19670174D01*
X13729705Y-19670174D02*
X13729705Y-19717793D01*
X13729705Y-19717793D02*
X13720182Y-19755889D01*
X13720182Y-19755889D02*
X13710658Y-19774936D01*
X13710658Y-19774936D02*
X13701134Y-19784460D01*
X13701134Y-19784460D02*
X13682086Y-19793984D01*
X13682086Y-19793984D02*
X13663039Y-19793984D01*
X13663039Y-19793984D02*
X13643991Y-19784460D01*
X13643991Y-19784460D02*
X13634467Y-19774936D01*
X13634467Y-19774936D02*
X13624943Y-19755889D01*
X13624943Y-19755889D02*
X13615420Y-19717793D01*
X13615420Y-19717793D02*
X13615420Y-19670174D01*
X13615420Y-19670174D02*
X13624943Y-19632079D01*
X13624943Y-19632079D02*
X13634467Y-19613031D01*
X13634467Y-19613031D02*
X13643991Y-19603508D01*
X13643991Y-19603508D02*
X13663039Y-19593984D01*
X13815420Y-19793984D02*
X13815420Y-19660650D01*
X13815420Y-19679698D02*
X13824943Y-19670174D01*
X13824943Y-19670174D02*
X13843991Y-19660650D01*
X13843991Y-19660650D02*
X13872563Y-19660650D01*
X13872563Y-19660650D02*
X13891610Y-19670174D01*
X13891610Y-19670174D02*
X13901134Y-19689222D01*
X13901134Y-19689222D02*
X13901134Y-19793984D01*
X13901134Y-19689222D02*
X13910658Y-19670174D01*
X13910658Y-19670174D02*
X13929705Y-19660650D01*
X13929705Y-19660650D02*
X13958277Y-19660650D01*
X13958277Y-19660650D02*
X13977324Y-19670174D01*
X13977324Y-19670174D02*
X13986848Y-19689222D01*
X13986848Y-19689222D02*
X13986848Y-19793984D01*
X14082086Y-19793984D02*
X14082086Y-19660650D01*
X14082086Y-19679698D02*
X14091610Y-19670174D01*
X14091610Y-19670174D02*
X14110658Y-19660650D01*
X14110658Y-19660650D02*
X14139229Y-19660650D01*
X14139229Y-19660650D02*
X14158277Y-19670174D01*
X14158277Y-19670174D02*
X14167801Y-19689222D01*
X14167801Y-19689222D02*
X14167801Y-19793984D01*
X14167801Y-19689222D02*
X14177324Y-19670174D01*
X14177324Y-19670174D02*
X14196372Y-19660650D01*
X14196372Y-19660650D02*
X14224943Y-19660650D01*
X14224943Y-19660650D02*
X14243991Y-19670174D01*
X14243991Y-19670174D02*
X14253515Y-19689222D01*
X14253515Y-19689222D02*
X14253515Y-19793984D01*
X14643991Y-19584460D02*
X14472563Y-19841603D01*
X14901134Y-19593984D02*
X14920182Y-19593984D01*
X14920182Y-19593984D02*
X14939229Y-19603508D01*
X14939229Y-19603508D02*
X14948753Y-19613031D01*
X14948753Y-19613031D02*
X14958277Y-19632079D01*
X14958277Y-19632079D02*
X14967801Y-19670174D01*
X14967801Y-19670174D02*
X14967801Y-19717793D01*
X14967801Y-19717793D02*
X14958277Y-19755889D01*
X14958277Y-19755889D02*
X14948753Y-19774936D01*
X14948753Y-19774936D02*
X14939229Y-19784460D01*
X14939229Y-19784460D02*
X14920182Y-19793984D01*
X14920182Y-19793984D02*
X14901134Y-19793984D01*
X14901134Y-19793984D02*
X14882086Y-19784460D01*
X14882086Y-19784460D02*
X14872563Y-19774936D01*
X14872563Y-19774936D02*
X14863039Y-19755889D01*
X14863039Y-19755889D02*
X14853515Y-19717793D01*
X14853515Y-19717793D02*
X14853515Y-19670174D01*
X14853515Y-19670174D02*
X14863039Y-19632079D01*
X14863039Y-19632079D02*
X14872563Y-19613031D01*
X14872563Y-19613031D02*
X14882086Y-19603508D01*
X14882086Y-19603508D02*
X14901134Y-19593984D01*
X15053515Y-19774936D02*
X15063039Y-19784460D01*
X15063039Y-19784460D02*
X15053515Y-19793984D01*
X15053515Y-19793984D02*
X15043991Y-19784460D01*
X15043991Y-19784460D02*
X15053515Y-19774936D01*
X15053515Y-19774936D02*
X15053515Y-19793984D01*
X15186848Y-19593984D02*
X15205896Y-19593984D01*
X15205896Y-19593984D02*
X15224944Y-19603508D01*
X15224944Y-19603508D02*
X15234467Y-19613031D01*
X15234467Y-19613031D02*
X15243991Y-19632079D01*
X15243991Y-19632079D02*
X15253515Y-19670174D01*
X15253515Y-19670174D02*
X15253515Y-19717793D01*
X15253515Y-19717793D02*
X15243991Y-19755889D01*
X15243991Y-19755889D02*
X15234467Y-19774936D01*
X15234467Y-19774936D02*
X15224944Y-19784460D01*
X15224944Y-19784460D02*
X15205896Y-19793984D01*
X15205896Y-19793984D02*
X15186848Y-19793984D01*
X15186848Y-19793984D02*
X15167801Y-19784460D01*
X15167801Y-19784460D02*
X15158277Y-19774936D01*
X15158277Y-19774936D02*
X15148753Y-19755889D01*
X15148753Y-19755889D02*
X15139229Y-19717793D01*
X15139229Y-19717793D02*
X15139229Y-19670174D01*
X15139229Y-19670174D02*
X15148753Y-19632079D01*
X15148753Y-19632079D02*
X15158277Y-19613031D01*
X15158277Y-19613031D02*
X15167801Y-19603508D01*
X15167801Y-19603508D02*
X15186848Y-19593984D01*
X15424944Y-19660650D02*
X15424944Y-19793984D01*
X15377325Y-19584460D02*
X15329706Y-19727317D01*
X15329706Y-19727317D02*
X15453515Y-19727317D01*
X15567801Y-19593984D02*
X15586848Y-19593984D01*
X15586848Y-19593984D02*
X15605896Y-19603508D01*
X15605896Y-19603508D02*
X15615420Y-19613031D01*
X15615420Y-19613031D02*
X15624944Y-19632079D01*
X15624944Y-19632079D02*
X15634467Y-19670174D01*
X15634467Y-19670174D02*
X15634467Y-19717793D01*
X15634467Y-19717793D02*
X15624944Y-19755889D01*
X15624944Y-19755889D02*
X15615420Y-19774936D01*
X15615420Y-19774936D02*
X15605896Y-19784460D01*
X15605896Y-19784460D02*
X15586848Y-19793984D01*
X15586848Y-19793984D02*
X15567801Y-19793984D01*
X15567801Y-19793984D02*
X15548753Y-19784460D01*
X15548753Y-19784460D02*
X15539229Y-19774936D01*
X15539229Y-19774936D02*
X15529706Y-19755889D01*
X15529706Y-19755889D02*
X15520182Y-19717793D01*
X15520182Y-19717793D02*
X15520182Y-19670174D01*
X15520182Y-19670174D02*
X15529706Y-19632079D01*
X15529706Y-19632079D02*
X15539229Y-19613031D01*
X15539229Y-19613031D02*
X15548753Y-19603508D01*
X15548753Y-19603508D02*
X15567801Y-19593984D01*
X15729706Y-19793984D02*
X15767801Y-19793984D01*
X15767801Y-19793984D02*
X15786848Y-19784460D01*
X15786848Y-19784460D02*
X15796372Y-19774936D01*
X15796372Y-19774936D02*
X15815420Y-19746365D01*
X15815420Y-19746365D02*
X15824944Y-19708270D01*
X15824944Y-19708270D02*
X15824944Y-19632079D01*
X15824944Y-19632079D02*
X15815420Y-19613031D01*
X15815420Y-19613031D02*
X15805896Y-19603508D01*
X15805896Y-19603508D02*
X15786848Y-19593984D01*
X15786848Y-19593984D02*
X15748753Y-19593984D01*
X15748753Y-19593984D02*
X15729706Y-19603508D01*
X15729706Y-19603508D02*
X15720182Y-19613031D01*
X15720182Y-19613031D02*
X15710658Y-19632079D01*
X15710658Y-19632079D02*
X15710658Y-19679698D01*
X15710658Y-19679698D02*
X15720182Y-19698746D01*
X15720182Y-19698746D02*
X15729706Y-19708270D01*
X15729706Y-19708270D02*
X15748753Y-19717793D01*
X15748753Y-19717793D02*
X15786848Y-19717793D01*
X15786848Y-19717793D02*
X15805896Y-19708270D01*
X15805896Y-19708270D02*
X15815420Y-19698746D01*
X15815420Y-19698746D02*
X15824944Y-19679698D01*
X15901134Y-19593984D02*
X15901134Y-19632079D01*
X15977325Y-19593984D02*
X15977325Y-19632079D01*
X16272563Y-19870174D02*
X16263039Y-19860650D01*
X16263039Y-19860650D02*
X16243991Y-19832079D01*
X16243991Y-19832079D02*
X16234468Y-19813031D01*
X16234468Y-19813031D02*
X16224944Y-19784460D01*
X16224944Y-19784460D02*
X16215420Y-19736841D01*
X16215420Y-19736841D02*
X16215420Y-19698746D01*
X16215420Y-19698746D02*
X16224944Y-19651127D01*
X16224944Y-19651127D02*
X16234468Y-19622555D01*
X16234468Y-19622555D02*
X16243991Y-19603508D01*
X16243991Y-19603508D02*
X16263039Y-19574936D01*
X16263039Y-19574936D02*
X16272563Y-19565412D01*
X16358277Y-19793984D02*
X16396372Y-19793984D01*
X16396372Y-19793984D02*
X16415420Y-19784460D01*
X16415420Y-19784460D02*
X16424944Y-19774936D01*
X16424944Y-19774936D02*
X16443991Y-19746365D01*
X16443991Y-19746365D02*
X16453515Y-19708270D01*
X16453515Y-19708270D02*
X16453515Y-19632079D01*
X16453515Y-19632079D02*
X16443991Y-19613031D01*
X16443991Y-19613031D02*
X16434468Y-19603508D01*
X16434468Y-19603508D02*
X16415420Y-19593984D01*
X16415420Y-19593984D02*
X16377325Y-19593984D01*
X16377325Y-19593984D02*
X16358277Y-19603508D01*
X16358277Y-19603508D02*
X16348753Y-19613031D01*
X16348753Y-19613031D02*
X16339229Y-19632079D01*
X16339229Y-19632079D02*
X16339229Y-19679698D01*
X16339229Y-19679698D02*
X16348753Y-19698746D01*
X16348753Y-19698746D02*
X16358277Y-19708270D01*
X16358277Y-19708270D02*
X16377325Y-19717793D01*
X16377325Y-19717793D02*
X16415420Y-19717793D01*
X16415420Y-19717793D02*
X16434468Y-19708270D01*
X16434468Y-19708270D02*
X16443991Y-19698746D01*
X16443991Y-19698746D02*
X16453515Y-19679698D01*
X16691610Y-19793984D02*
X16691610Y-19593984D01*
X16777325Y-19793984D02*
X16777325Y-19689222D01*
X16777325Y-19689222D02*
X16767801Y-19670174D01*
X16767801Y-19670174D02*
X16748753Y-19660650D01*
X16748753Y-19660650D02*
X16720182Y-19660650D01*
X16720182Y-19660650D02*
X16701134Y-19670174D01*
X16701134Y-19670174D02*
X16691610Y-19679698D01*
X16901134Y-19793984D02*
X16882087Y-19784460D01*
X16882087Y-19784460D02*
X16872563Y-19774936D01*
X16872563Y-19774936D02*
X16863039Y-19755889D01*
X16863039Y-19755889D02*
X16863039Y-19698746D01*
X16863039Y-19698746D02*
X16872563Y-19679698D01*
X16872563Y-19679698D02*
X16882087Y-19670174D01*
X16882087Y-19670174D02*
X16901134Y-19660650D01*
X16901134Y-19660650D02*
X16929706Y-19660650D01*
X16929706Y-19660650D02*
X16948753Y-19670174D01*
X16948753Y-19670174D02*
X16958277Y-19679698D01*
X16958277Y-19679698D02*
X16967801Y-19698746D01*
X16967801Y-19698746D02*
X16967801Y-19755889D01*
X16967801Y-19755889D02*
X16958277Y-19774936D01*
X16958277Y-19774936D02*
X16948753Y-19784460D01*
X16948753Y-19784460D02*
X16929706Y-19793984D01*
X16929706Y-19793984D02*
X16901134Y-19793984D01*
X17082087Y-19793984D02*
X17063039Y-19784460D01*
X17063039Y-19784460D02*
X17053515Y-19765412D01*
X17053515Y-19765412D02*
X17053515Y-19593984D01*
X17234468Y-19784460D02*
X17215420Y-19793984D01*
X17215420Y-19793984D02*
X17177325Y-19793984D01*
X17177325Y-19793984D02*
X17158277Y-19784460D01*
X17158277Y-19784460D02*
X17148753Y-19765412D01*
X17148753Y-19765412D02*
X17148753Y-19689222D01*
X17148753Y-19689222D02*
X17158277Y-19670174D01*
X17158277Y-19670174D02*
X17177325Y-19660650D01*
X17177325Y-19660650D02*
X17215420Y-19660650D01*
X17215420Y-19660650D02*
X17234468Y-19670174D01*
X17234468Y-19670174D02*
X17243992Y-19689222D01*
X17243992Y-19689222D02*
X17243992Y-19708270D01*
X17243992Y-19708270D02*
X17148753Y-19727317D01*
X17320182Y-19784460D02*
X17339230Y-19793984D01*
X17339230Y-19793984D02*
X17377325Y-19793984D01*
X17377325Y-19793984D02*
X17396373Y-19784460D01*
X17396373Y-19784460D02*
X17405896Y-19765412D01*
X17405896Y-19765412D02*
X17405896Y-19755889D01*
X17405896Y-19755889D02*
X17396373Y-19736841D01*
X17396373Y-19736841D02*
X17377325Y-19727317D01*
X17377325Y-19727317D02*
X17348753Y-19727317D01*
X17348753Y-19727317D02*
X17329706Y-19717793D01*
X17329706Y-19717793D02*
X17320182Y-19698746D01*
X17320182Y-19698746D02*
X17320182Y-19689222D01*
X17320182Y-19689222D02*
X17329706Y-19670174D01*
X17329706Y-19670174D02*
X17348753Y-19660650D01*
X17348753Y-19660650D02*
X17377325Y-19660650D01*
X17377325Y-19660650D02*
X17396373Y-19670174D01*
X17472563Y-19870174D02*
X17482087Y-19860650D01*
X17482087Y-19860650D02*
X17501134Y-19832079D01*
X17501134Y-19832079D02*
X17510658Y-19813031D01*
X17510658Y-19813031D02*
X17520182Y-19784460D01*
X17520182Y-19784460D02*
X17529706Y-19736841D01*
X17529706Y-19736841D02*
X17529706Y-19698746D01*
X17529706Y-19698746D02*
X17520182Y-19651127D01*
X17520182Y-19651127D02*
X17510658Y-19622555D01*
X17510658Y-19622555D02*
X17501134Y-19603508D01*
X17501134Y-19603508D02*
X17482087Y-19574936D01*
X17482087Y-19574936D02*
X17472563Y-19565412D01*
D14*
X12645000Y-19914000D02*
X12645000Y-20019000D01*
X12592500Y-19966500D02*
X12697500Y-19966500D01*
D11*
X13063039Y-20057984D02*
X12948753Y-20057984D01*
X13005896Y-20057984D02*
X13005896Y-19857984D01*
X13005896Y-19857984D02*
X12986848Y-19886555D01*
X12986848Y-19886555D02*
X12967801Y-19905603D01*
X12967801Y-19905603D02*
X12948753Y-19915127D01*
X13148753Y-20038936D02*
X13158277Y-20048460D01*
X13158277Y-20048460D02*
X13148753Y-20057984D01*
X13148753Y-20057984D02*
X13139229Y-20048460D01*
X13139229Y-20048460D02*
X13148753Y-20038936D01*
X13148753Y-20038936D02*
X13148753Y-20057984D01*
X13282086Y-19857984D02*
X13301134Y-19857984D01*
X13301134Y-19857984D02*
X13320182Y-19867508D01*
X13320182Y-19867508D02*
X13329705Y-19877031D01*
X13329705Y-19877031D02*
X13339229Y-19896079D01*
X13339229Y-19896079D02*
X13348753Y-19934174D01*
X13348753Y-19934174D02*
X13348753Y-19981793D01*
X13348753Y-19981793D02*
X13339229Y-20019889D01*
X13339229Y-20019889D02*
X13329705Y-20038936D01*
X13329705Y-20038936D02*
X13320182Y-20048460D01*
X13320182Y-20048460D02*
X13301134Y-20057984D01*
X13301134Y-20057984D02*
X13282086Y-20057984D01*
X13282086Y-20057984D02*
X13263039Y-20048460D01*
X13263039Y-20048460D02*
X13253515Y-20038936D01*
X13253515Y-20038936D02*
X13243991Y-20019889D01*
X13243991Y-20019889D02*
X13234467Y-19981793D01*
X13234467Y-19981793D02*
X13234467Y-19934174D01*
X13234467Y-19934174D02*
X13243991Y-19896079D01*
X13243991Y-19896079D02*
X13253515Y-19877031D01*
X13253515Y-19877031D02*
X13263039Y-19867508D01*
X13263039Y-19867508D02*
X13282086Y-19857984D01*
X13529705Y-19857984D02*
X13434467Y-19857984D01*
X13434467Y-19857984D02*
X13424943Y-19953222D01*
X13424943Y-19953222D02*
X13434467Y-19943698D01*
X13434467Y-19943698D02*
X13453515Y-19934174D01*
X13453515Y-19934174D02*
X13501134Y-19934174D01*
X13501134Y-19934174D02*
X13520182Y-19943698D01*
X13520182Y-19943698D02*
X13529705Y-19953222D01*
X13529705Y-19953222D02*
X13539229Y-19972270D01*
X13539229Y-19972270D02*
X13539229Y-20019889D01*
X13539229Y-20019889D02*
X13529705Y-20038936D01*
X13529705Y-20038936D02*
X13520182Y-20048460D01*
X13520182Y-20048460D02*
X13501134Y-20057984D01*
X13501134Y-20057984D02*
X13453515Y-20057984D01*
X13453515Y-20057984D02*
X13434467Y-20048460D01*
X13434467Y-20048460D02*
X13424943Y-20038936D01*
X13663039Y-19857984D02*
X13682086Y-19857984D01*
X13682086Y-19857984D02*
X13701134Y-19867508D01*
X13701134Y-19867508D02*
X13710658Y-19877031D01*
X13710658Y-19877031D02*
X13720182Y-19896079D01*
X13720182Y-19896079D02*
X13729705Y-19934174D01*
X13729705Y-19934174D02*
X13729705Y-19981793D01*
X13729705Y-19981793D02*
X13720182Y-20019889D01*
X13720182Y-20019889D02*
X13710658Y-20038936D01*
X13710658Y-20038936D02*
X13701134Y-20048460D01*
X13701134Y-20048460D02*
X13682086Y-20057984D01*
X13682086Y-20057984D02*
X13663039Y-20057984D01*
X13663039Y-20057984D02*
X13643991Y-20048460D01*
X13643991Y-20048460D02*
X13634467Y-20038936D01*
X13634467Y-20038936D02*
X13624943Y-20019889D01*
X13624943Y-20019889D02*
X13615420Y-19981793D01*
X13615420Y-19981793D02*
X13615420Y-19934174D01*
X13615420Y-19934174D02*
X13624943Y-19896079D01*
X13624943Y-19896079D02*
X13634467Y-19877031D01*
X13634467Y-19877031D02*
X13643991Y-19867508D01*
X13643991Y-19867508D02*
X13663039Y-19857984D01*
X13815420Y-20057984D02*
X13815420Y-19924650D01*
X13815420Y-19943698D02*
X13824943Y-19934174D01*
X13824943Y-19934174D02*
X13843991Y-19924650D01*
X13843991Y-19924650D02*
X13872563Y-19924650D01*
X13872563Y-19924650D02*
X13891610Y-19934174D01*
X13891610Y-19934174D02*
X13901134Y-19953222D01*
X13901134Y-19953222D02*
X13901134Y-20057984D01*
X13901134Y-19953222D02*
X13910658Y-19934174D01*
X13910658Y-19934174D02*
X13929705Y-19924650D01*
X13929705Y-19924650D02*
X13958277Y-19924650D01*
X13958277Y-19924650D02*
X13977324Y-19934174D01*
X13977324Y-19934174D02*
X13986848Y-19953222D01*
X13986848Y-19953222D02*
X13986848Y-20057984D01*
X14082086Y-20057984D02*
X14082086Y-19924650D01*
X14082086Y-19943698D02*
X14091610Y-19934174D01*
X14091610Y-19934174D02*
X14110658Y-19924650D01*
X14110658Y-19924650D02*
X14139229Y-19924650D01*
X14139229Y-19924650D02*
X14158277Y-19934174D01*
X14158277Y-19934174D02*
X14167801Y-19953222D01*
X14167801Y-19953222D02*
X14167801Y-20057984D01*
X14167801Y-19953222D02*
X14177324Y-19934174D01*
X14177324Y-19934174D02*
X14196372Y-19924650D01*
X14196372Y-19924650D02*
X14224943Y-19924650D01*
X14224943Y-19924650D02*
X14243991Y-19934174D01*
X14243991Y-19934174D02*
X14253515Y-19953222D01*
X14253515Y-19953222D02*
X14253515Y-20057984D01*
X14643991Y-19848460D02*
X14472563Y-20105603D01*
X14901134Y-19857984D02*
X14920182Y-19857984D01*
X14920182Y-19857984D02*
X14939229Y-19867508D01*
X14939229Y-19867508D02*
X14948753Y-19877031D01*
X14948753Y-19877031D02*
X14958277Y-19896079D01*
X14958277Y-19896079D02*
X14967801Y-19934174D01*
X14967801Y-19934174D02*
X14967801Y-19981793D01*
X14967801Y-19981793D02*
X14958277Y-20019889D01*
X14958277Y-20019889D02*
X14948753Y-20038936D01*
X14948753Y-20038936D02*
X14939229Y-20048460D01*
X14939229Y-20048460D02*
X14920182Y-20057984D01*
X14920182Y-20057984D02*
X14901134Y-20057984D01*
X14901134Y-20057984D02*
X14882086Y-20048460D01*
X14882086Y-20048460D02*
X14872563Y-20038936D01*
X14872563Y-20038936D02*
X14863039Y-20019889D01*
X14863039Y-20019889D02*
X14853515Y-19981793D01*
X14853515Y-19981793D02*
X14853515Y-19934174D01*
X14853515Y-19934174D02*
X14863039Y-19896079D01*
X14863039Y-19896079D02*
X14872563Y-19877031D01*
X14872563Y-19877031D02*
X14882086Y-19867508D01*
X14882086Y-19867508D02*
X14901134Y-19857984D01*
X15053515Y-20038936D02*
X15063039Y-20048460D01*
X15063039Y-20048460D02*
X15053515Y-20057984D01*
X15053515Y-20057984D02*
X15043991Y-20048460D01*
X15043991Y-20048460D02*
X15053515Y-20038936D01*
X15053515Y-20038936D02*
X15053515Y-20057984D01*
X15186848Y-19857984D02*
X15205896Y-19857984D01*
X15205896Y-19857984D02*
X15224944Y-19867508D01*
X15224944Y-19867508D02*
X15234467Y-19877031D01*
X15234467Y-19877031D02*
X15243991Y-19896079D01*
X15243991Y-19896079D02*
X15253515Y-19934174D01*
X15253515Y-19934174D02*
X15253515Y-19981793D01*
X15253515Y-19981793D02*
X15243991Y-20019889D01*
X15243991Y-20019889D02*
X15234467Y-20038936D01*
X15234467Y-20038936D02*
X15224944Y-20048460D01*
X15224944Y-20048460D02*
X15205896Y-20057984D01*
X15205896Y-20057984D02*
X15186848Y-20057984D01*
X15186848Y-20057984D02*
X15167801Y-20048460D01*
X15167801Y-20048460D02*
X15158277Y-20038936D01*
X15158277Y-20038936D02*
X15148753Y-20019889D01*
X15148753Y-20019889D02*
X15139229Y-19981793D01*
X15139229Y-19981793D02*
X15139229Y-19934174D01*
X15139229Y-19934174D02*
X15148753Y-19896079D01*
X15148753Y-19896079D02*
X15158277Y-19877031D01*
X15158277Y-19877031D02*
X15167801Y-19867508D01*
X15167801Y-19867508D02*
X15186848Y-19857984D01*
X15424944Y-19924650D02*
X15424944Y-20057984D01*
X15377325Y-19848460D02*
X15329706Y-19991317D01*
X15329706Y-19991317D02*
X15453515Y-19991317D01*
X15634467Y-20057984D02*
X15520182Y-20057984D01*
X15577325Y-20057984D02*
X15577325Y-19857984D01*
X15577325Y-19857984D02*
X15558277Y-19886555D01*
X15558277Y-19886555D02*
X15539229Y-19905603D01*
X15539229Y-19905603D02*
X15520182Y-19915127D01*
X15701134Y-19857984D02*
X15824944Y-19857984D01*
X15824944Y-19857984D02*
X15758277Y-19934174D01*
X15758277Y-19934174D02*
X15786848Y-19934174D01*
X15786848Y-19934174D02*
X15805896Y-19943698D01*
X15805896Y-19943698D02*
X15815420Y-19953222D01*
X15815420Y-19953222D02*
X15824944Y-19972270D01*
X15824944Y-19972270D02*
X15824944Y-20019889D01*
X15824944Y-20019889D02*
X15815420Y-20038936D01*
X15815420Y-20038936D02*
X15805896Y-20048460D01*
X15805896Y-20048460D02*
X15786848Y-20057984D01*
X15786848Y-20057984D02*
X15729706Y-20057984D01*
X15729706Y-20057984D02*
X15710658Y-20048460D01*
X15710658Y-20048460D02*
X15701134Y-20038936D01*
X15901134Y-19857984D02*
X15901134Y-19896079D01*
X15977325Y-19857984D02*
X15977325Y-19896079D01*
X16272563Y-20134174D02*
X16263039Y-20124650D01*
X16263039Y-20124650D02*
X16243991Y-20096079D01*
X16243991Y-20096079D02*
X16234468Y-20077031D01*
X16234468Y-20077031D02*
X16224944Y-20048460D01*
X16224944Y-20048460D02*
X16215420Y-20000841D01*
X16215420Y-20000841D02*
X16215420Y-19962746D01*
X16215420Y-19962746D02*
X16224944Y-19915127D01*
X16224944Y-19915127D02*
X16234468Y-19886555D01*
X16234468Y-19886555D02*
X16243991Y-19867508D01*
X16243991Y-19867508D02*
X16263039Y-19838936D01*
X16263039Y-19838936D02*
X16272563Y-19829412D01*
X16453515Y-20057984D02*
X16339229Y-20057984D01*
X16396372Y-20057984D02*
X16396372Y-19857984D01*
X16396372Y-19857984D02*
X16377325Y-19886555D01*
X16377325Y-19886555D02*
X16358277Y-19905603D01*
X16358277Y-19905603D02*
X16339229Y-19915127D01*
X16634468Y-19857984D02*
X16539229Y-19857984D01*
X16539229Y-19857984D02*
X16529706Y-19953222D01*
X16529706Y-19953222D02*
X16539229Y-19943698D01*
X16539229Y-19943698D02*
X16558277Y-19934174D01*
X16558277Y-19934174D02*
X16605896Y-19934174D01*
X16605896Y-19934174D02*
X16624944Y-19943698D01*
X16624944Y-19943698D02*
X16634468Y-19953222D01*
X16634468Y-19953222D02*
X16643991Y-19972270D01*
X16643991Y-19972270D02*
X16643991Y-20019889D01*
X16643991Y-20019889D02*
X16634468Y-20038936D01*
X16634468Y-20038936D02*
X16624944Y-20048460D01*
X16624944Y-20048460D02*
X16605896Y-20057984D01*
X16605896Y-20057984D02*
X16558277Y-20057984D01*
X16558277Y-20057984D02*
X16539229Y-20048460D01*
X16539229Y-20048460D02*
X16529706Y-20038936D01*
X16882087Y-20057984D02*
X16882087Y-19857984D01*
X16967801Y-20057984D02*
X16967801Y-19953222D01*
X16967801Y-19953222D02*
X16958277Y-19934174D01*
X16958277Y-19934174D02*
X16939230Y-19924650D01*
X16939230Y-19924650D02*
X16910658Y-19924650D01*
X16910658Y-19924650D02*
X16891611Y-19934174D01*
X16891611Y-19934174D02*
X16882087Y-19943698D01*
X17091611Y-20057984D02*
X17072563Y-20048460D01*
X17072563Y-20048460D02*
X17063039Y-20038936D01*
X17063039Y-20038936D02*
X17053515Y-20019889D01*
X17053515Y-20019889D02*
X17053515Y-19962746D01*
X17053515Y-19962746D02*
X17063039Y-19943698D01*
X17063039Y-19943698D02*
X17072563Y-19934174D01*
X17072563Y-19934174D02*
X17091611Y-19924650D01*
X17091611Y-19924650D02*
X17120182Y-19924650D01*
X17120182Y-19924650D02*
X17139230Y-19934174D01*
X17139230Y-19934174D02*
X17148753Y-19943698D01*
X17148753Y-19943698D02*
X17158277Y-19962746D01*
X17158277Y-19962746D02*
X17158277Y-20019889D01*
X17158277Y-20019889D02*
X17148753Y-20038936D01*
X17148753Y-20038936D02*
X17139230Y-20048460D01*
X17139230Y-20048460D02*
X17120182Y-20057984D01*
X17120182Y-20057984D02*
X17091611Y-20057984D01*
X17272563Y-20057984D02*
X17253515Y-20048460D01*
X17253515Y-20048460D02*
X17243992Y-20029412D01*
X17243992Y-20029412D02*
X17243992Y-19857984D01*
X17424944Y-20048460D02*
X17405896Y-20057984D01*
X17405896Y-20057984D02*
X17367801Y-20057984D01*
X17367801Y-20057984D02*
X17348753Y-20048460D01*
X17348753Y-20048460D02*
X17339230Y-20029412D01*
X17339230Y-20029412D02*
X17339230Y-19953222D01*
X17339230Y-19953222D02*
X17348753Y-19934174D01*
X17348753Y-19934174D02*
X17367801Y-19924650D01*
X17367801Y-19924650D02*
X17405896Y-19924650D01*
X17405896Y-19924650D02*
X17424944Y-19934174D01*
X17424944Y-19934174D02*
X17434468Y-19953222D01*
X17434468Y-19953222D02*
X17434468Y-19972270D01*
X17434468Y-19972270D02*
X17339230Y-19991317D01*
X17510658Y-20048460D02*
X17529706Y-20057984D01*
X17529706Y-20057984D02*
X17567801Y-20057984D01*
X17567801Y-20057984D02*
X17586849Y-20048460D01*
X17586849Y-20048460D02*
X17596373Y-20029412D01*
X17596373Y-20029412D02*
X17596373Y-20019889D01*
X17596373Y-20019889D02*
X17586849Y-20000841D01*
X17586849Y-20000841D02*
X17567801Y-19991317D01*
X17567801Y-19991317D02*
X17539230Y-19991317D01*
X17539230Y-19991317D02*
X17520182Y-19981793D01*
X17520182Y-19981793D02*
X17510658Y-19962746D01*
X17510658Y-19962746D02*
X17510658Y-19953222D01*
X17510658Y-19953222D02*
X17520182Y-19934174D01*
X17520182Y-19934174D02*
X17539230Y-19924650D01*
X17539230Y-19924650D02*
X17567801Y-19924650D01*
X17567801Y-19924650D02*
X17586849Y-19934174D01*
X17663039Y-20134174D02*
X17672563Y-20124650D01*
X17672563Y-20124650D02*
X17691611Y-20096079D01*
X17691611Y-20096079D02*
X17701134Y-20077031D01*
X17701134Y-20077031D02*
X17710658Y-20048460D01*
X17710658Y-20048460D02*
X17720182Y-20000841D01*
X17720182Y-20000841D02*
X17720182Y-19962746D01*
X17720182Y-19962746D02*
X17710658Y-19915127D01*
X17710658Y-19915127D02*
X17701134Y-19886555D01*
X17701134Y-19886555D02*
X17691611Y-19867508D01*
X17691611Y-19867508D02*
X17672563Y-19838936D01*
X17672563Y-19838936D02*
X17663039Y-19829412D01*
D15*
X12681538Y-20269038D02*
X12681538Y-20191962D01*
X12604462Y-20191962D01*
X12604462Y-20269038D01*
X12681538Y-20269038D01*
D11*
X13063039Y-20321984D02*
X12948753Y-20321984D01*
X13005896Y-20321984D02*
X13005896Y-20121984D01*
X13005896Y-20121984D02*
X12986848Y-20150555D01*
X12986848Y-20150555D02*
X12967801Y-20169603D01*
X12967801Y-20169603D02*
X12948753Y-20179127D01*
X13148753Y-20302936D02*
X13158277Y-20312460D01*
X13158277Y-20312460D02*
X13148753Y-20321984D01*
X13148753Y-20321984D02*
X13139229Y-20312460D01*
X13139229Y-20312460D02*
X13148753Y-20302936D01*
X13148753Y-20302936D02*
X13148753Y-20321984D01*
X13282086Y-20121984D02*
X13301134Y-20121984D01*
X13301134Y-20121984D02*
X13320182Y-20131508D01*
X13320182Y-20131508D02*
X13329705Y-20141031D01*
X13329705Y-20141031D02*
X13339229Y-20160079D01*
X13339229Y-20160079D02*
X13348753Y-20198174D01*
X13348753Y-20198174D02*
X13348753Y-20245793D01*
X13348753Y-20245793D02*
X13339229Y-20283889D01*
X13339229Y-20283889D02*
X13329705Y-20302936D01*
X13329705Y-20302936D02*
X13320182Y-20312460D01*
X13320182Y-20312460D02*
X13301134Y-20321984D01*
X13301134Y-20321984D02*
X13282086Y-20321984D01*
X13282086Y-20321984D02*
X13263039Y-20312460D01*
X13263039Y-20312460D02*
X13253515Y-20302936D01*
X13253515Y-20302936D02*
X13243991Y-20283889D01*
X13243991Y-20283889D02*
X13234467Y-20245793D01*
X13234467Y-20245793D02*
X13234467Y-20198174D01*
X13234467Y-20198174D02*
X13243991Y-20160079D01*
X13243991Y-20160079D02*
X13253515Y-20141031D01*
X13253515Y-20141031D02*
X13263039Y-20131508D01*
X13263039Y-20131508D02*
X13282086Y-20121984D01*
X13443991Y-20321984D02*
X13482086Y-20321984D01*
X13482086Y-20321984D02*
X13501134Y-20312460D01*
X13501134Y-20312460D02*
X13510658Y-20302936D01*
X13510658Y-20302936D02*
X13529705Y-20274365D01*
X13529705Y-20274365D02*
X13539229Y-20236270D01*
X13539229Y-20236270D02*
X13539229Y-20160079D01*
X13539229Y-20160079D02*
X13529705Y-20141031D01*
X13529705Y-20141031D02*
X13520182Y-20131508D01*
X13520182Y-20131508D02*
X13501134Y-20121984D01*
X13501134Y-20121984D02*
X13463039Y-20121984D01*
X13463039Y-20121984D02*
X13443991Y-20131508D01*
X13443991Y-20131508D02*
X13434467Y-20141031D01*
X13434467Y-20141031D02*
X13424943Y-20160079D01*
X13424943Y-20160079D02*
X13424943Y-20207698D01*
X13424943Y-20207698D02*
X13434467Y-20226746D01*
X13434467Y-20226746D02*
X13443991Y-20236270D01*
X13443991Y-20236270D02*
X13463039Y-20245793D01*
X13463039Y-20245793D02*
X13501134Y-20245793D01*
X13501134Y-20245793D02*
X13520182Y-20236270D01*
X13520182Y-20236270D02*
X13529705Y-20226746D01*
X13529705Y-20226746D02*
X13539229Y-20207698D01*
X13663039Y-20121984D02*
X13682086Y-20121984D01*
X13682086Y-20121984D02*
X13701134Y-20131508D01*
X13701134Y-20131508D02*
X13710658Y-20141031D01*
X13710658Y-20141031D02*
X13720182Y-20160079D01*
X13720182Y-20160079D02*
X13729705Y-20198174D01*
X13729705Y-20198174D02*
X13729705Y-20245793D01*
X13729705Y-20245793D02*
X13720182Y-20283889D01*
X13720182Y-20283889D02*
X13710658Y-20302936D01*
X13710658Y-20302936D02*
X13701134Y-20312460D01*
X13701134Y-20312460D02*
X13682086Y-20321984D01*
X13682086Y-20321984D02*
X13663039Y-20321984D01*
X13663039Y-20321984D02*
X13643991Y-20312460D01*
X13643991Y-20312460D02*
X13634467Y-20302936D01*
X13634467Y-20302936D02*
X13624943Y-20283889D01*
X13624943Y-20283889D02*
X13615420Y-20245793D01*
X13615420Y-20245793D02*
X13615420Y-20198174D01*
X13615420Y-20198174D02*
X13624943Y-20160079D01*
X13624943Y-20160079D02*
X13634467Y-20141031D01*
X13634467Y-20141031D02*
X13643991Y-20131508D01*
X13643991Y-20131508D02*
X13663039Y-20121984D01*
X13815420Y-20321984D02*
X13815420Y-20188650D01*
X13815420Y-20207698D02*
X13824943Y-20198174D01*
X13824943Y-20198174D02*
X13843991Y-20188650D01*
X13843991Y-20188650D02*
X13872563Y-20188650D01*
X13872563Y-20188650D02*
X13891610Y-20198174D01*
X13891610Y-20198174D02*
X13901134Y-20217222D01*
X13901134Y-20217222D02*
X13901134Y-20321984D01*
X13901134Y-20217222D02*
X13910658Y-20198174D01*
X13910658Y-20198174D02*
X13929705Y-20188650D01*
X13929705Y-20188650D02*
X13958277Y-20188650D01*
X13958277Y-20188650D02*
X13977324Y-20198174D01*
X13977324Y-20198174D02*
X13986848Y-20217222D01*
X13986848Y-20217222D02*
X13986848Y-20321984D01*
X14082086Y-20321984D02*
X14082086Y-20188650D01*
X14082086Y-20207698D02*
X14091610Y-20198174D01*
X14091610Y-20198174D02*
X14110658Y-20188650D01*
X14110658Y-20188650D02*
X14139229Y-20188650D01*
X14139229Y-20188650D02*
X14158277Y-20198174D01*
X14158277Y-20198174D02*
X14167801Y-20217222D01*
X14167801Y-20217222D02*
X14167801Y-20321984D01*
X14167801Y-20217222D02*
X14177324Y-20198174D01*
X14177324Y-20198174D02*
X14196372Y-20188650D01*
X14196372Y-20188650D02*
X14224943Y-20188650D01*
X14224943Y-20188650D02*
X14243991Y-20198174D01*
X14243991Y-20198174D02*
X14253515Y-20217222D01*
X14253515Y-20217222D02*
X14253515Y-20321984D01*
X14643991Y-20112460D02*
X14472563Y-20369603D01*
X14901134Y-20121984D02*
X14920182Y-20121984D01*
X14920182Y-20121984D02*
X14939229Y-20131508D01*
X14939229Y-20131508D02*
X14948753Y-20141031D01*
X14948753Y-20141031D02*
X14958277Y-20160079D01*
X14958277Y-20160079D02*
X14967801Y-20198174D01*
X14967801Y-20198174D02*
X14967801Y-20245793D01*
X14967801Y-20245793D02*
X14958277Y-20283889D01*
X14958277Y-20283889D02*
X14948753Y-20302936D01*
X14948753Y-20302936D02*
X14939229Y-20312460D01*
X14939229Y-20312460D02*
X14920182Y-20321984D01*
X14920182Y-20321984D02*
X14901134Y-20321984D01*
X14901134Y-20321984D02*
X14882086Y-20312460D01*
X14882086Y-20312460D02*
X14872563Y-20302936D01*
X14872563Y-20302936D02*
X14863039Y-20283889D01*
X14863039Y-20283889D02*
X14853515Y-20245793D01*
X14853515Y-20245793D02*
X14853515Y-20198174D01*
X14853515Y-20198174D02*
X14863039Y-20160079D01*
X14863039Y-20160079D02*
X14872563Y-20141031D01*
X14872563Y-20141031D02*
X14882086Y-20131508D01*
X14882086Y-20131508D02*
X14901134Y-20121984D01*
X15053515Y-20302936D02*
X15063039Y-20312460D01*
X15063039Y-20312460D02*
X15053515Y-20321984D01*
X15053515Y-20321984D02*
X15043991Y-20312460D01*
X15043991Y-20312460D02*
X15053515Y-20302936D01*
X15053515Y-20302936D02*
X15053515Y-20321984D01*
X15186848Y-20121984D02*
X15205896Y-20121984D01*
X15205896Y-20121984D02*
X15224944Y-20131508D01*
X15224944Y-20131508D02*
X15234467Y-20141031D01*
X15234467Y-20141031D02*
X15243991Y-20160079D01*
X15243991Y-20160079D02*
X15253515Y-20198174D01*
X15253515Y-20198174D02*
X15253515Y-20245793D01*
X15253515Y-20245793D02*
X15243991Y-20283889D01*
X15243991Y-20283889D02*
X15234467Y-20302936D01*
X15234467Y-20302936D02*
X15224944Y-20312460D01*
X15224944Y-20312460D02*
X15205896Y-20321984D01*
X15205896Y-20321984D02*
X15186848Y-20321984D01*
X15186848Y-20321984D02*
X15167801Y-20312460D01*
X15167801Y-20312460D02*
X15158277Y-20302936D01*
X15158277Y-20302936D02*
X15148753Y-20283889D01*
X15148753Y-20283889D02*
X15139229Y-20245793D01*
X15139229Y-20245793D02*
X15139229Y-20198174D01*
X15139229Y-20198174D02*
X15148753Y-20160079D01*
X15148753Y-20160079D02*
X15158277Y-20141031D01*
X15158277Y-20141031D02*
X15167801Y-20131508D01*
X15167801Y-20131508D02*
X15186848Y-20121984D01*
X15424944Y-20188650D02*
X15424944Y-20321984D01*
X15377325Y-20112460D02*
X15329706Y-20255317D01*
X15329706Y-20255317D02*
X15453515Y-20255317D01*
X15520182Y-20141031D02*
X15529706Y-20131508D01*
X15529706Y-20131508D02*
X15548753Y-20121984D01*
X15548753Y-20121984D02*
X15596372Y-20121984D01*
X15596372Y-20121984D02*
X15615420Y-20131508D01*
X15615420Y-20131508D02*
X15624944Y-20141031D01*
X15624944Y-20141031D02*
X15634467Y-20160079D01*
X15634467Y-20160079D02*
X15634467Y-20179127D01*
X15634467Y-20179127D02*
X15624944Y-20207698D01*
X15624944Y-20207698D02*
X15510658Y-20321984D01*
X15510658Y-20321984D02*
X15634467Y-20321984D01*
X15729706Y-20321984D02*
X15767801Y-20321984D01*
X15767801Y-20321984D02*
X15786848Y-20312460D01*
X15786848Y-20312460D02*
X15796372Y-20302936D01*
X15796372Y-20302936D02*
X15815420Y-20274365D01*
X15815420Y-20274365D02*
X15824944Y-20236270D01*
X15824944Y-20236270D02*
X15824944Y-20160079D01*
X15824944Y-20160079D02*
X15815420Y-20141031D01*
X15815420Y-20141031D02*
X15805896Y-20131508D01*
X15805896Y-20131508D02*
X15786848Y-20121984D01*
X15786848Y-20121984D02*
X15748753Y-20121984D01*
X15748753Y-20121984D02*
X15729706Y-20131508D01*
X15729706Y-20131508D02*
X15720182Y-20141031D01*
X15720182Y-20141031D02*
X15710658Y-20160079D01*
X15710658Y-20160079D02*
X15710658Y-20207698D01*
X15710658Y-20207698D02*
X15720182Y-20226746D01*
X15720182Y-20226746D02*
X15729706Y-20236270D01*
X15729706Y-20236270D02*
X15748753Y-20245793D01*
X15748753Y-20245793D02*
X15786848Y-20245793D01*
X15786848Y-20245793D02*
X15805896Y-20236270D01*
X15805896Y-20236270D02*
X15815420Y-20226746D01*
X15815420Y-20226746D02*
X15824944Y-20207698D01*
X15901134Y-20121984D02*
X15901134Y-20160079D01*
X15977325Y-20121984D02*
X15977325Y-20160079D01*
X16272563Y-20398174D02*
X16263039Y-20388650D01*
X16263039Y-20388650D02*
X16243991Y-20360079D01*
X16243991Y-20360079D02*
X16234468Y-20341031D01*
X16234468Y-20341031D02*
X16224944Y-20312460D01*
X16224944Y-20312460D02*
X16215420Y-20264841D01*
X16215420Y-20264841D02*
X16215420Y-20226746D01*
X16215420Y-20226746D02*
X16224944Y-20179127D01*
X16224944Y-20179127D02*
X16234468Y-20150555D01*
X16234468Y-20150555D02*
X16243991Y-20131508D01*
X16243991Y-20131508D02*
X16263039Y-20102936D01*
X16263039Y-20102936D02*
X16272563Y-20093412D01*
X16358277Y-20321984D02*
X16396372Y-20321984D01*
X16396372Y-20321984D02*
X16415420Y-20312460D01*
X16415420Y-20312460D02*
X16424944Y-20302936D01*
X16424944Y-20302936D02*
X16443991Y-20274365D01*
X16443991Y-20274365D02*
X16453515Y-20236270D01*
X16453515Y-20236270D02*
X16453515Y-20160079D01*
X16453515Y-20160079D02*
X16443991Y-20141031D01*
X16443991Y-20141031D02*
X16434468Y-20131508D01*
X16434468Y-20131508D02*
X16415420Y-20121984D01*
X16415420Y-20121984D02*
X16377325Y-20121984D01*
X16377325Y-20121984D02*
X16358277Y-20131508D01*
X16358277Y-20131508D02*
X16348753Y-20141031D01*
X16348753Y-20141031D02*
X16339229Y-20160079D01*
X16339229Y-20160079D02*
X16339229Y-20207698D01*
X16339229Y-20207698D02*
X16348753Y-20226746D01*
X16348753Y-20226746D02*
X16358277Y-20236270D01*
X16358277Y-20236270D02*
X16377325Y-20245793D01*
X16377325Y-20245793D02*
X16415420Y-20245793D01*
X16415420Y-20245793D02*
X16434468Y-20236270D01*
X16434468Y-20236270D02*
X16443991Y-20226746D01*
X16443991Y-20226746D02*
X16453515Y-20207698D01*
X16691610Y-20321984D02*
X16691610Y-20121984D01*
X16777325Y-20321984D02*
X16777325Y-20217222D01*
X16777325Y-20217222D02*
X16767801Y-20198174D01*
X16767801Y-20198174D02*
X16748753Y-20188650D01*
X16748753Y-20188650D02*
X16720182Y-20188650D01*
X16720182Y-20188650D02*
X16701134Y-20198174D01*
X16701134Y-20198174D02*
X16691610Y-20207698D01*
X16901134Y-20321984D02*
X16882087Y-20312460D01*
X16882087Y-20312460D02*
X16872563Y-20302936D01*
X16872563Y-20302936D02*
X16863039Y-20283889D01*
X16863039Y-20283889D02*
X16863039Y-20226746D01*
X16863039Y-20226746D02*
X16872563Y-20207698D01*
X16872563Y-20207698D02*
X16882087Y-20198174D01*
X16882087Y-20198174D02*
X16901134Y-20188650D01*
X16901134Y-20188650D02*
X16929706Y-20188650D01*
X16929706Y-20188650D02*
X16948753Y-20198174D01*
X16948753Y-20198174D02*
X16958277Y-20207698D01*
X16958277Y-20207698D02*
X16967801Y-20226746D01*
X16967801Y-20226746D02*
X16967801Y-20283889D01*
X16967801Y-20283889D02*
X16958277Y-20302936D01*
X16958277Y-20302936D02*
X16948753Y-20312460D01*
X16948753Y-20312460D02*
X16929706Y-20321984D01*
X16929706Y-20321984D02*
X16901134Y-20321984D01*
X17082087Y-20321984D02*
X17063039Y-20312460D01*
X17063039Y-20312460D02*
X17053515Y-20293412D01*
X17053515Y-20293412D02*
X17053515Y-20121984D01*
X17234468Y-20312460D02*
X17215420Y-20321984D01*
X17215420Y-20321984D02*
X17177325Y-20321984D01*
X17177325Y-20321984D02*
X17158277Y-20312460D01*
X17158277Y-20312460D02*
X17148753Y-20293412D01*
X17148753Y-20293412D02*
X17148753Y-20217222D01*
X17148753Y-20217222D02*
X17158277Y-20198174D01*
X17158277Y-20198174D02*
X17177325Y-20188650D01*
X17177325Y-20188650D02*
X17215420Y-20188650D01*
X17215420Y-20188650D02*
X17234468Y-20198174D01*
X17234468Y-20198174D02*
X17243992Y-20217222D01*
X17243992Y-20217222D02*
X17243992Y-20236270D01*
X17243992Y-20236270D02*
X17148753Y-20255317D01*
X17320182Y-20312460D02*
X17339230Y-20321984D01*
X17339230Y-20321984D02*
X17377325Y-20321984D01*
X17377325Y-20321984D02*
X17396373Y-20312460D01*
X17396373Y-20312460D02*
X17405896Y-20293412D01*
X17405896Y-20293412D02*
X17405896Y-20283889D01*
X17405896Y-20283889D02*
X17396373Y-20264841D01*
X17396373Y-20264841D02*
X17377325Y-20255317D01*
X17377325Y-20255317D02*
X17348753Y-20255317D01*
X17348753Y-20255317D02*
X17329706Y-20245793D01*
X17329706Y-20245793D02*
X17320182Y-20226746D01*
X17320182Y-20226746D02*
X17320182Y-20217222D01*
X17320182Y-20217222D02*
X17329706Y-20198174D01*
X17329706Y-20198174D02*
X17348753Y-20188650D01*
X17348753Y-20188650D02*
X17377325Y-20188650D01*
X17377325Y-20188650D02*
X17396373Y-20198174D01*
X17472563Y-20398174D02*
X17482087Y-20388650D01*
X17482087Y-20388650D02*
X17501134Y-20360079D01*
X17501134Y-20360079D02*
X17510658Y-20341031D01*
X17510658Y-20341031D02*
X17520182Y-20312460D01*
X17520182Y-20312460D02*
X17529706Y-20264841D01*
X17529706Y-20264841D02*
X17529706Y-20226746D01*
X17529706Y-20226746D02*
X17520182Y-20179127D01*
X17520182Y-20179127D02*
X17510658Y-20150555D01*
X17510658Y-20150555D02*
X17501134Y-20131508D01*
X17501134Y-20131508D02*
X17482087Y-20102936D01*
X17482087Y-20102936D02*
X17472563Y-20093412D01*
D16*
X12632500Y-20559500D02*
X12697500Y-20494500D01*
X12632500Y-20429500D01*
X12567500Y-20494500D01*
X12632500Y-20559500D01*
D11*
X13063039Y-20585984D02*
X12948753Y-20585984D01*
X13005896Y-20585984D02*
X13005896Y-20385984D01*
X13005896Y-20385984D02*
X12986848Y-20414555D01*
X12986848Y-20414555D02*
X12967801Y-20433603D01*
X12967801Y-20433603D02*
X12948753Y-20443127D01*
X13148753Y-20566936D02*
X13158277Y-20576460D01*
X13158277Y-20576460D02*
X13148753Y-20585984D01*
X13148753Y-20585984D02*
X13139229Y-20576460D01*
X13139229Y-20576460D02*
X13148753Y-20566936D01*
X13148753Y-20566936D02*
X13148753Y-20585984D01*
X13224943Y-20385984D02*
X13348753Y-20385984D01*
X13348753Y-20385984D02*
X13282086Y-20462174D01*
X13282086Y-20462174D02*
X13310658Y-20462174D01*
X13310658Y-20462174D02*
X13329705Y-20471698D01*
X13329705Y-20471698D02*
X13339229Y-20481222D01*
X13339229Y-20481222D02*
X13348753Y-20500270D01*
X13348753Y-20500270D02*
X13348753Y-20547889D01*
X13348753Y-20547889D02*
X13339229Y-20566936D01*
X13339229Y-20566936D02*
X13329705Y-20576460D01*
X13329705Y-20576460D02*
X13310658Y-20585984D01*
X13310658Y-20585984D02*
X13253515Y-20585984D01*
X13253515Y-20585984D02*
X13234467Y-20576460D01*
X13234467Y-20576460D02*
X13224943Y-20566936D01*
X13472562Y-20385984D02*
X13491610Y-20385984D01*
X13491610Y-20385984D02*
X13510658Y-20395508D01*
X13510658Y-20395508D02*
X13520182Y-20405031D01*
X13520182Y-20405031D02*
X13529705Y-20424079D01*
X13529705Y-20424079D02*
X13539229Y-20462174D01*
X13539229Y-20462174D02*
X13539229Y-20509793D01*
X13539229Y-20509793D02*
X13529705Y-20547889D01*
X13529705Y-20547889D02*
X13520182Y-20566936D01*
X13520182Y-20566936D02*
X13510658Y-20576460D01*
X13510658Y-20576460D02*
X13491610Y-20585984D01*
X13491610Y-20585984D02*
X13472562Y-20585984D01*
X13472562Y-20585984D02*
X13453515Y-20576460D01*
X13453515Y-20576460D02*
X13443991Y-20566936D01*
X13443991Y-20566936D02*
X13434467Y-20547889D01*
X13434467Y-20547889D02*
X13424943Y-20509793D01*
X13424943Y-20509793D02*
X13424943Y-20462174D01*
X13424943Y-20462174D02*
X13434467Y-20424079D01*
X13434467Y-20424079D02*
X13443991Y-20405031D01*
X13443991Y-20405031D02*
X13453515Y-20395508D01*
X13453515Y-20395508D02*
X13472562Y-20385984D01*
X13663039Y-20385984D02*
X13682086Y-20385984D01*
X13682086Y-20385984D02*
X13701134Y-20395508D01*
X13701134Y-20395508D02*
X13710658Y-20405031D01*
X13710658Y-20405031D02*
X13720182Y-20424079D01*
X13720182Y-20424079D02*
X13729705Y-20462174D01*
X13729705Y-20462174D02*
X13729705Y-20509793D01*
X13729705Y-20509793D02*
X13720182Y-20547889D01*
X13720182Y-20547889D02*
X13710658Y-20566936D01*
X13710658Y-20566936D02*
X13701134Y-20576460D01*
X13701134Y-20576460D02*
X13682086Y-20585984D01*
X13682086Y-20585984D02*
X13663039Y-20585984D01*
X13663039Y-20585984D02*
X13643991Y-20576460D01*
X13643991Y-20576460D02*
X13634467Y-20566936D01*
X13634467Y-20566936D02*
X13624943Y-20547889D01*
X13624943Y-20547889D02*
X13615420Y-20509793D01*
X13615420Y-20509793D02*
X13615420Y-20462174D01*
X13615420Y-20462174D02*
X13624943Y-20424079D01*
X13624943Y-20424079D02*
X13634467Y-20405031D01*
X13634467Y-20405031D02*
X13643991Y-20395508D01*
X13643991Y-20395508D02*
X13663039Y-20385984D01*
X13815420Y-20585984D02*
X13815420Y-20452650D01*
X13815420Y-20471698D02*
X13824943Y-20462174D01*
X13824943Y-20462174D02*
X13843991Y-20452650D01*
X13843991Y-20452650D02*
X13872563Y-20452650D01*
X13872563Y-20452650D02*
X13891610Y-20462174D01*
X13891610Y-20462174D02*
X13901134Y-20481222D01*
X13901134Y-20481222D02*
X13901134Y-20585984D01*
X13901134Y-20481222D02*
X13910658Y-20462174D01*
X13910658Y-20462174D02*
X13929705Y-20452650D01*
X13929705Y-20452650D02*
X13958277Y-20452650D01*
X13958277Y-20452650D02*
X13977324Y-20462174D01*
X13977324Y-20462174D02*
X13986848Y-20481222D01*
X13986848Y-20481222D02*
X13986848Y-20585984D01*
X14082086Y-20585984D02*
X14082086Y-20452650D01*
X14082086Y-20471698D02*
X14091610Y-20462174D01*
X14091610Y-20462174D02*
X14110658Y-20452650D01*
X14110658Y-20452650D02*
X14139229Y-20452650D01*
X14139229Y-20452650D02*
X14158277Y-20462174D01*
X14158277Y-20462174D02*
X14167801Y-20481222D01*
X14167801Y-20481222D02*
X14167801Y-20585984D01*
X14167801Y-20481222D02*
X14177324Y-20462174D01*
X14177324Y-20462174D02*
X14196372Y-20452650D01*
X14196372Y-20452650D02*
X14224943Y-20452650D01*
X14224943Y-20452650D02*
X14243991Y-20462174D01*
X14243991Y-20462174D02*
X14253515Y-20481222D01*
X14253515Y-20481222D02*
X14253515Y-20585984D01*
X14643991Y-20376460D02*
X14472563Y-20633603D01*
X14901134Y-20385984D02*
X14920182Y-20385984D01*
X14920182Y-20385984D02*
X14939229Y-20395508D01*
X14939229Y-20395508D02*
X14948753Y-20405031D01*
X14948753Y-20405031D02*
X14958277Y-20424079D01*
X14958277Y-20424079D02*
X14967801Y-20462174D01*
X14967801Y-20462174D02*
X14967801Y-20509793D01*
X14967801Y-20509793D02*
X14958277Y-20547889D01*
X14958277Y-20547889D02*
X14948753Y-20566936D01*
X14948753Y-20566936D02*
X14939229Y-20576460D01*
X14939229Y-20576460D02*
X14920182Y-20585984D01*
X14920182Y-20585984D02*
X14901134Y-20585984D01*
X14901134Y-20585984D02*
X14882086Y-20576460D01*
X14882086Y-20576460D02*
X14872563Y-20566936D01*
X14872563Y-20566936D02*
X14863039Y-20547889D01*
X14863039Y-20547889D02*
X14853515Y-20509793D01*
X14853515Y-20509793D02*
X14853515Y-20462174D01*
X14853515Y-20462174D02*
X14863039Y-20424079D01*
X14863039Y-20424079D02*
X14872563Y-20405031D01*
X14872563Y-20405031D02*
X14882086Y-20395508D01*
X14882086Y-20395508D02*
X14901134Y-20385984D01*
X15053515Y-20566936D02*
X15063039Y-20576460D01*
X15063039Y-20576460D02*
X15053515Y-20585984D01*
X15053515Y-20585984D02*
X15043991Y-20576460D01*
X15043991Y-20576460D02*
X15053515Y-20566936D01*
X15053515Y-20566936D02*
X15053515Y-20585984D01*
X15186848Y-20385984D02*
X15205896Y-20385984D01*
X15205896Y-20385984D02*
X15224944Y-20395508D01*
X15224944Y-20395508D02*
X15234467Y-20405031D01*
X15234467Y-20405031D02*
X15243991Y-20424079D01*
X15243991Y-20424079D02*
X15253515Y-20462174D01*
X15253515Y-20462174D02*
X15253515Y-20509793D01*
X15253515Y-20509793D02*
X15243991Y-20547889D01*
X15243991Y-20547889D02*
X15234467Y-20566936D01*
X15234467Y-20566936D02*
X15224944Y-20576460D01*
X15224944Y-20576460D02*
X15205896Y-20585984D01*
X15205896Y-20585984D02*
X15186848Y-20585984D01*
X15186848Y-20585984D02*
X15167801Y-20576460D01*
X15167801Y-20576460D02*
X15158277Y-20566936D01*
X15158277Y-20566936D02*
X15148753Y-20547889D01*
X15148753Y-20547889D02*
X15139229Y-20509793D01*
X15139229Y-20509793D02*
X15139229Y-20462174D01*
X15139229Y-20462174D02*
X15148753Y-20424079D01*
X15148753Y-20424079D02*
X15158277Y-20405031D01*
X15158277Y-20405031D02*
X15167801Y-20395508D01*
X15167801Y-20395508D02*
X15186848Y-20385984D01*
X15434467Y-20385984D02*
X15339229Y-20385984D01*
X15339229Y-20385984D02*
X15329706Y-20481222D01*
X15329706Y-20481222D02*
X15339229Y-20471698D01*
X15339229Y-20471698D02*
X15358277Y-20462174D01*
X15358277Y-20462174D02*
X15405896Y-20462174D01*
X15405896Y-20462174D02*
X15424944Y-20471698D01*
X15424944Y-20471698D02*
X15434467Y-20481222D01*
X15434467Y-20481222D02*
X15443991Y-20500270D01*
X15443991Y-20500270D02*
X15443991Y-20547889D01*
X15443991Y-20547889D02*
X15434467Y-20566936D01*
X15434467Y-20566936D02*
X15424944Y-20576460D01*
X15424944Y-20576460D02*
X15405896Y-20585984D01*
X15405896Y-20585984D02*
X15358277Y-20585984D01*
X15358277Y-20585984D02*
X15339229Y-20576460D01*
X15339229Y-20576460D02*
X15329706Y-20566936D01*
X15634467Y-20585984D02*
X15520182Y-20585984D01*
X15577325Y-20585984D02*
X15577325Y-20385984D01*
X15577325Y-20385984D02*
X15558277Y-20414555D01*
X15558277Y-20414555D02*
X15539229Y-20433603D01*
X15539229Y-20433603D02*
X15520182Y-20443127D01*
X15710658Y-20405031D02*
X15720182Y-20395508D01*
X15720182Y-20395508D02*
X15739229Y-20385984D01*
X15739229Y-20385984D02*
X15786848Y-20385984D01*
X15786848Y-20385984D02*
X15805896Y-20395508D01*
X15805896Y-20395508D02*
X15815420Y-20405031D01*
X15815420Y-20405031D02*
X15824944Y-20424079D01*
X15824944Y-20424079D02*
X15824944Y-20443127D01*
X15824944Y-20443127D02*
X15815420Y-20471698D01*
X15815420Y-20471698D02*
X15701134Y-20585984D01*
X15701134Y-20585984D02*
X15824944Y-20585984D01*
X15901134Y-20385984D02*
X15901134Y-20424079D01*
X15977325Y-20385984D02*
X15977325Y-20424079D01*
X16272563Y-20662174D02*
X16263039Y-20652650D01*
X16263039Y-20652650D02*
X16243991Y-20624079D01*
X16243991Y-20624079D02*
X16234468Y-20605031D01*
X16234468Y-20605031D02*
X16224944Y-20576460D01*
X16224944Y-20576460D02*
X16215420Y-20528841D01*
X16215420Y-20528841D02*
X16215420Y-20490746D01*
X16215420Y-20490746D02*
X16224944Y-20443127D01*
X16224944Y-20443127D02*
X16234468Y-20414555D01*
X16234468Y-20414555D02*
X16243991Y-20395508D01*
X16243991Y-20395508D02*
X16263039Y-20366936D01*
X16263039Y-20366936D02*
X16272563Y-20357412D01*
X16453515Y-20585984D02*
X16339229Y-20585984D01*
X16396372Y-20585984D02*
X16396372Y-20385984D01*
X16396372Y-20385984D02*
X16377325Y-20414555D01*
X16377325Y-20414555D02*
X16358277Y-20433603D01*
X16358277Y-20433603D02*
X16339229Y-20443127D01*
X16529706Y-20405031D02*
X16539229Y-20395508D01*
X16539229Y-20395508D02*
X16558277Y-20385984D01*
X16558277Y-20385984D02*
X16605896Y-20385984D01*
X16605896Y-20385984D02*
X16624944Y-20395508D01*
X16624944Y-20395508D02*
X16634468Y-20405031D01*
X16634468Y-20405031D02*
X16643991Y-20424079D01*
X16643991Y-20424079D02*
X16643991Y-20443127D01*
X16643991Y-20443127D02*
X16634468Y-20471698D01*
X16634468Y-20471698D02*
X16520182Y-20585984D01*
X16520182Y-20585984D02*
X16643991Y-20585984D01*
X16882087Y-20585984D02*
X16882087Y-20385984D01*
X16967801Y-20585984D02*
X16967801Y-20481222D01*
X16967801Y-20481222D02*
X16958277Y-20462174D01*
X16958277Y-20462174D02*
X16939230Y-20452650D01*
X16939230Y-20452650D02*
X16910658Y-20452650D01*
X16910658Y-20452650D02*
X16891611Y-20462174D01*
X16891611Y-20462174D02*
X16882087Y-20471698D01*
X17091611Y-20585984D02*
X17072563Y-20576460D01*
X17072563Y-20576460D02*
X17063039Y-20566936D01*
X17063039Y-20566936D02*
X17053515Y-20547889D01*
X17053515Y-20547889D02*
X17053515Y-20490746D01*
X17053515Y-20490746D02*
X17063039Y-20471698D01*
X17063039Y-20471698D02*
X17072563Y-20462174D01*
X17072563Y-20462174D02*
X17091611Y-20452650D01*
X17091611Y-20452650D02*
X17120182Y-20452650D01*
X17120182Y-20452650D02*
X17139230Y-20462174D01*
X17139230Y-20462174D02*
X17148753Y-20471698D01*
X17148753Y-20471698D02*
X17158277Y-20490746D01*
X17158277Y-20490746D02*
X17158277Y-20547889D01*
X17158277Y-20547889D02*
X17148753Y-20566936D01*
X17148753Y-20566936D02*
X17139230Y-20576460D01*
X17139230Y-20576460D02*
X17120182Y-20585984D01*
X17120182Y-20585984D02*
X17091611Y-20585984D01*
X17272563Y-20585984D02*
X17253515Y-20576460D01*
X17253515Y-20576460D02*
X17243992Y-20557412D01*
X17243992Y-20557412D02*
X17243992Y-20385984D01*
X17424944Y-20576460D02*
X17405896Y-20585984D01*
X17405896Y-20585984D02*
X17367801Y-20585984D01*
X17367801Y-20585984D02*
X17348753Y-20576460D01*
X17348753Y-20576460D02*
X17339230Y-20557412D01*
X17339230Y-20557412D02*
X17339230Y-20481222D01*
X17339230Y-20481222D02*
X17348753Y-20462174D01*
X17348753Y-20462174D02*
X17367801Y-20452650D01*
X17367801Y-20452650D02*
X17405896Y-20452650D01*
X17405896Y-20452650D02*
X17424944Y-20462174D01*
X17424944Y-20462174D02*
X17434468Y-20481222D01*
X17434468Y-20481222D02*
X17434468Y-20500270D01*
X17434468Y-20500270D02*
X17339230Y-20519317D01*
X17510658Y-20576460D02*
X17529706Y-20585984D01*
X17529706Y-20585984D02*
X17567801Y-20585984D01*
X17567801Y-20585984D02*
X17586849Y-20576460D01*
X17586849Y-20576460D02*
X17596373Y-20557412D01*
X17596373Y-20557412D02*
X17596373Y-20547889D01*
X17596373Y-20547889D02*
X17586849Y-20528841D01*
X17586849Y-20528841D02*
X17567801Y-20519317D01*
X17567801Y-20519317D02*
X17539230Y-20519317D01*
X17539230Y-20519317D02*
X17520182Y-20509793D01*
X17520182Y-20509793D02*
X17510658Y-20490746D01*
X17510658Y-20490746D02*
X17510658Y-20481222D01*
X17510658Y-20481222D02*
X17520182Y-20462174D01*
X17520182Y-20462174D02*
X17539230Y-20452650D01*
X17539230Y-20452650D02*
X17567801Y-20452650D01*
X17567801Y-20452650D02*
X17586849Y-20462174D01*
X17663039Y-20662174D02*
X17672563Y-20652650D01*
X17672563Y-20652650D02*
X17691611Y-20624079D01*
X17691611Y-20624079D02*
X17701134Y-20605031D01*
X17701134Y-20605031D02*
X17710658Y-20576460D01*
X17710658Y-20576460D02*
X17720182Y-20528841D01*
X17720182Y-20528841D02*
X17720182Y-20490746D01*
X17720182Y-20490746D02*
X17710658Y-20443127D01*
X17710658Y-20443127D02*
X17701134Y-20414555D01*
X17701134Y-20414555D02*
X17691611Y-20395508D01*
X17691611Y-20395508D02*
X17672563Y-20366936D01*
X17672563Y-20366936D02*
X17663039Y-20357412D01*
D17*
X12547640Y-20683570D02*
X12697500Y-20833430D01*
X12697500Y-20683570D02*
X12547640Y-20833430D01*
X12697500Y-20758500D02*
G75*
G02*
X12547640Y-20758500I-74930J0D01*
G01*
X12547640Y-20758500D02*
G75*
G02*
X12697500Y-20758500I74930J0D01*
G01*
D11*
X13063039Y-20849984D02*
X12948753Y-20849984D01*
X13005896Y-20849984D02*
X13005896Y-20649984D01*
X13005896Y-20649984D02*
X12986848Y-20678555D01*
X12986848Y-20678555D02*
X12967801Y-20697603D01*
X12967801Y-20697603D02*
X12948753Y-20707127D01*
X13148753Y-20830936D02*
X13158277Y-20840460D01*
X13158277Y-20840460D02*
X13148753Y-20849984D01*
X13148753Y-20849984D02*
X13139229Y-20840460D01*
X13139229Y-20840460D02*
X13148753Y-20830936D01*
X13148753Y-20830936D02*
X13148753Y-20849984D01*
X13329705Y-20716650D02*
X13329705Y-20849984D01*
X13282086Y-20640460D02*
X13234467Y-20783317D01*
X13234467Y-20783317D02*
X13358277Y-20783317D01*
X13443991Y-20849984D02*
X13482086Y-20849984D01*
X13482086Y-20849984D02*
X13501134Y-20840460D01*
X13501134Y-20840460D02*
X13510658Y-20830936D01*
X13510658Y-20830936D02*
X13529705Y-20802365D01*
X13529705Y-20802365D02*
X13539229Y-20764270D01*
X13539229Y-20764270D02*
X13539229Y-20688079D01*
X13539229Y-20688079D02*
X13529705Y-20669031D01*
X13529705Y-20669031D02*
X13520182Y-20659508D01*
X13520182Y-20659508D02*
X13501134Y-20649984D01*
X13501134Y-20649984D02*
X13463039Y-20649984D01*
X13463039Y-20649984D02*
X13443991Y-20659508D01*
X13443991Y-20659508D02*
X13434467Y-20669031D01*
X13434467Y-20669031D02*
X13424943Y-20688079D01*
X13424943Y-20688079D02*
X13424943Y-20735698D01*
X13424943Y-20735698D02*
X13434467Y-20754746D01*
X13434467Y-20754746D02*
X13443991Y-20764270D01*
X13443991Y-20764270D02*
X13463039Y-20773793D01*
X13463039Y-20773793D02*
X13501134Y-20773793D01*
X13501134Y-20773793D02*
X13520182Y-20764270D01*
X13520182Y-20764270D02*
X13529705Y-20754746D01*
X13529705Y-20754746D02*
X13539229Y-20735698D01*
X13634467Y-20849984D02*
X13672562Y-20849984D01*
X13672562Y-20849984D02*
X13691610Y-20840460D01*
X13691610Y-20840460D02*
X13701134Y-20830936D01*
X13701134Y-20830936D02*
X13720182Y-20802365D01*
X13720182Y-20802365D02*
X13729705Y-20764270D01*
X13729705Y-20764270D02*
X13729705Y-20688079D01*
X13729705Y-20688079D02*
X13720182Y-20669031D01*
X13720182Y-20669031D02*
X13710658Y-20659508D01*
X13710658Y-20659508D02*
X13691610Y-20649984D01*
X13691610Y-20649984D02*
X13653515Y-20649984D01*
X13653515Y-20649984D02*
X13634467Y-20659508D01*
X13634467Y-20659508D02*
X13624943Y-20669031D01*
X13624943Y-20669031D02*
X13615420Y-20688079D01*
X13615420Y-20688079D02*
X13615420Y-20735698D01*
X13615420Y-20735698D02*
X13624943Y-20754746D01*
X13624943Y-20754746D02*
X13634467Y-20764270D01*
X13634467Y-20764270D02*
X13653515Y-20773793D01*
X13653515Y-20773793D02*
X13691610Y-20773793D01*
X13691610Y-20773793D02*
X13710658Y-20764270D01*
X13710658Y-20764270D02*
X13720182Y-20754746D01*
X13720182Y-20754746D02*
X13729705Y-20735698D01*
X13815420Y-20849984D02*
X13815420Y-20716650D01*
X13815420Y-20735698D02*
X13824943Y-20726174D01*
X13824943Y-20726174D02*
X13843991Y-20716650D01*
X13843991Y-20716650D02*
X13872563Y-20716650D01*
X13872563Y-20716650D02*
X13891610Y-20726174D01*
X13891610Y-20726174D02*
X13901134Y-20745222D01*
X13901134Y-20745222D02*
X13901134Y-20849984D01*
X13901134Y-20745222D02*
X13910658Y-20726174D01*
X13910658Y-20726174D02*
X13929705Y-20716650D01*
X13929705Y-20716650D02*
X13958277Y-20716650D01*
X13958277Y-20716650D02*
X13977324Y-20726174D01*
X13977324Y-20726174D02*
X13986848Y-20745222D01*
X13986848Y-20745222D02*
X13986848Y-20849984D01*
X14082086Y-20849984D02*
X14082086Y-20716650D01*
X14082086Y-20735698D02*
X14091610Y-20726174D01*
X14091610Y-20726174D02*
X14110658Y-20716650D01*
X14110658Y-20716650D02*
X14139229Y-20716650D01*
X14139229Y-20716650D02*
X14158277Y-20726174D01*
X14158277Y-20726174D02*
X14167801Y-20745222D01*
X14167801Y-20745222D02*
X14167801Y-20849984D01*
X14167801Y-20745222D02*
X14177324Y-20726174D01*
X14177324Y-20726174D02*
X14196372Y-20716650D01*
X14196372Y-20716650D02*
X14224943Y-20716650D01*
X14224943Y-20716650D02*
X14243991Y-20726174D01*
X14243991Y-20726174D02*
X14253515Y-20745222D01*
X14253515Y-20745222D02*
X14253515Y-20849984D01*
X14643991Y-20640460D02*
X14472563Y-20897603D01*
X14901134Y-20649984D02*
X14920182Y-20649984D01*
X14920182Y-20649984D02*
X14939229Y-20659508D01*
X14939229Y-20659508D02*
X14948753Y-20669031D01*
X14948753Y-20669031D02*
X14958277Y-20688079D01*
X14958277Y-20688079D02*
X14967801Y-20726174D01*
X14967801Y-20726174D02*
X14967801Y-20773793D01*
X14967801Y-20773793D02*
X14958277Y-20811889D01*
X14958277Y-20811889D02*
X14948753Y-20830936D01*
X14948753Y-20830936D02*
X14939229Y-20840460D01*
X14939229Y-20840460D02*
X14920182Y-20849984D01*
X14920182Y-20849984D02*
X14901134Y-20849984D01*
X14901134Y-20849984D02*
X14882086Y-20840460D01*
X14882086Y-20840460D02*
X14872563Y-20830936D01*
X14872563Y-20830936D02*
X14863039Y-20811889D01*
X14863039Y-20811889D02*
X14853515Y-20773793D01*
X14853515Y-20773793D02*
X14853515Y-20726174D01*
X14853515Y-20726174D02*
X14863039Y-20688079D01*
X14863039Y-20688079D02*
X14872563Y-20669031D01*
X14872563Y-20669031D02*
X14882086Y-20659508D01*
X14882086Y-20659508D02*
X14901134Y-20649984D01*
X15053515Y-20830936D02*
X15063039Y-20840460D01*
X15063039Y-20840460D02*
X15053515Y-20849984D01*
X15053515Y-20849984D02*
X15043991Y-20840460D01*
X15043991Y-20840460D02*
X15053515Y-20830936D01*
X15053515Y-20830936D02*
X15053515Y-20849984D01*
X15186848Y-20649984D02*
X15205896Y-20649984D01*
X15205896Y-20649984D02*
X15224944Y-20659508D01*
X15224944Y-20659508D02*
X15234467Y-20669031D01*
X15234467Y-20669031D02*
X15243991Y-20688079D01*
X15243991Y-20688079D02*
X15253515Y-20726174D01*
X15253515Y-20726174D02*
X15253515Y-20773793D01*
X15253515Y-20773793D02*
X15243991Y-20811889D01*
X15243991Y-20811889D02*
X15234467Y-20830936D01*
X15234467Y-20830936D02*
X15224944Y-20840460D01*
X15224944Y-20840460D02*
X15205896Y-20849984D01*
X15205896Y-20849984D02*
X15186848Y-20849984D01*
X15186848Y-20849984D02*
X15167801Y-20840460D01*
X15167801Y-20840460D02*
X15158277Y-20830936D01*
X15158277Y-20830936D02*
X15148753Y-20811889D01*
X15148753Y-20811889D02*
X15139229Y-20773793D01*
X15139229Y-20773793D02*
X15139229Y-20726174D01*
X15139229Y-20726174D02*
X15148753Y-20688079D01*
X15148753Y-20688079D02*
X15158277Y-20669031D01*
X15158277Y-20669031D02*
X15167801Y-20659508D01*
X15167801Y-20659508D02*
X15186848Y-20649984D01*
X15434467Y-20649984D02*
X15339229Y-20649984D01*
X15339229Y-20649984D02*
X15329706Y-20745222D01*
X15329706Y-20745222D02*
X15339229Y-20735698D01*
X15339229Y-20735698D02*
X15358277Y-20726174D01*
X15358277Y-20726174D02*
X15405896Y-20726174D01*
X15405896Y-20726174D02*
X15424944Y-20735698D01*
X15424944Y-20735698D02*
X15434467Y-20745222D01*
X15434467Y-20745222D02*
X15443991Y-20764270D01*
X15443991Y-20764270D02*
X15443991Y-20811889D01*
X15443991Y-20811889D02*
X15434467Y-20830936D01*
X15434467Y-20830936D02*
X15424944Y-20840460D01*
X15424944Y-20840460D02*
X15405896Y-20849984D01*
X15405896Y-20849984D02*
X15358277Y-20849984D01*
X15358277Y-20849984D02*
X15339229Y-20840460D01*
X15339229Y-20840460D02*
X15329706Y-20830936D01*
X15539229Y-20849984D02*
X15577325Y-20849984D01*
X15577325Y-20849984D02*
X15596372Y-20840460D01*
X15596372Y-20840460D02*
X15605896Y-20830936D01*
X15605896Y-20830936D02*
X15624944Y-20802365D01*
X15624944Y-20802365D02*
X15634467Y-20764270D01*
X15634467Y-20764270D02*
X15634467Y-20688079D01*
X15634467Y-20688079D02*
X15624944Y-20669031D01*
X15624944Y-20669031D02*
X15615420Y-20659508D01*
X15615420Y-20659508D02*
X15596372Y-20649984D01*
X15596372Y-20649984D02*
X15558277Y-20649984D01*
X15558277Y-20649984D02*
X15539229Y-20659508D01*
X15539229Y-20659508D02*
X15529706Y-20669031D01*
X15529706Y-20669031D02*
X15520182Y-20688079D01*
X15520182Y-20688079D02*
X15520182Y-20735698D01*
X15520182Y-20735698D02*
X15529706Y-20754746D01*
X15529706Y-20754746D02*
X15539229Y-20764270D01*
X15539229Y-20764270D02*
X15558277Y-20773793D01*
X15558277Y-20773793D02*
X15596372Y-20773793D01*
X15596372Y-20773793D02*
X15615420Y-20764270D01*
X15615420Y-20764270D02*
X15624944Y-20754746D01*
X15624944Y-20754746D02*
X15634467Y-20735698D01*
X15758277Y-20649984D02*
X15777325Y-20649984D01*
X15777325Y-20649984D02*
X15796372Y-20659508D01*
X15796372Y-20659508D02*
X15805896Y-20669031D01*
X15805896Y-20669031D02*
X15815420Y-20688079D01*
X15815420Y-20688079D02*
X15824944Y-20726174D01*
X15824944Y-20726174D02*
X15824944Y-20773793D01*
X15824944Y-20773793D02*
X15815420Y-20811889D01*
X15815420Y-20811889D02*
X15805896Y-20830936D01*
X15805896Y-20830936D02*
X15796372Y-20840460D01*
X15796372Y-20840460D02*
X15777325Y-20849984D01*
X15777325Y-20849984D02*
X15758277Y-20849984D01*
X15758277Y-20849984D02*
X15739229Y-20840460D01*
X15739229Y-20840460D02*
X15729706Y-20830936D01*
X15729706Y-20830936D02*
X15720182Y-20811889D01*
X15720182Y-20811889D02*
X15710658Y-20773793D01*
X15710658Y-20773793D02*
X15710658Y-20726174D01*
X15710658Y-20726174D02*
X15720182Y-20688079D01*
X15720182Y-20688079D02*
X15729706Y-20669031D01*
X15729706Y-20669031D02*
X15739229Y-20659508D01*
X15739229Y-20659508D02*
X15758277Y-20649984D01*
X15901134Y-20649984D02*
X15901134Y-20688079D01*
X15977325Y-20649984D02*
X15977325Y-20688079D01*
X16272563Y-20926174D02*
X16263039Y-20916650D01*
X16263039Y-20916650D02*
X16243991Y-20888079D01*
X16243991Y-20888079D02*
X16234468Y-20869031D01*
X16234468Y-20869031D02*
X16224944Y-20840460D01*
X16224944Y-20840460D02*
X16215420Y-20792841D01*
X16215420Y-20792841D02*
X16215420Y-20754746D01*
X16215420Y-20754746D02*
X16224944Y-20707127D01*
X16224944Y-20707127D02*
X16234468Y-20678555D01*
X16234468Y-20678555D02*
X16243991Y-20659508D01*
X16243991Y-20659508D02*
X16263039Y-20630936D01*
X16263039Y-20630936D02*
X16272563Y-20621412D01*
X16339229Y-20669031D02*
X16348753Y-20659508D01*
X16348753Y-20659508D02*
X16367801Y-20649984D01*
X16367801Y-20649984D02*
X16415420Y-20649984D01*
X16415420Y-20649984D02*
X16434468Y-20659508D01*
X16434468Y-20659508D02*
X16443991Y-20669031D01*
X16443991Y-20669031D02*
X16453515Y-20688079D01*
X16453515Y-20688079D02*
X16453515Y-20707127D01*
X16453515Y-20707127D02*
X16443991Y-20735698D01*
X16443991Y-20735698D02*
X16329706Y-20849984D01*
X16329706Y-20849984D02*
X16453515Y-20849984D01*
X16691610Y-20849984D02*
X16691610Y-20649984D01*
X16777325Y-20849984D02*
X16777325Y-20745222D01*
X16777325Y-20745222D02*
X16767801Y-20726174D01*
X16767801Y-20726174D02*
X16748753Y-20716650D01*
X16748753Y-20716650D02*
X16720182Y-20716650D01*
X16720182Y-20716650D02*
X16701134Y-20726174D01*
X16701134Y-20726174D02*
X16691610Y-20735698D01*
X16901134Y-20849984D02*
X16882087Y-20840460D01*
X16882087Y-20840460D02*
X16872563Y-20830936D01*
X16872563Y-20830936D02*
X16863039Y-20811889D01*
X16863039Y-20811889D02*
X16863039Y-20754746D01*
X16863039Y-20754746D02*
X16872563Y-20735698D01*
X16872563Y-20735698D02*
X16882087Y-20726174D01*
X16882087Y-20726174D02*
X16901134Y-20716650D01*
X16901134Y-20716650D02*
X16929706Y-20716650D01*
X16929706Y-20716650D02*
X16948753Y-20726174D01*
X16948753Y-20726174D02*
X16958277Y-20735698D01*
X16958277Y-20735698D02*
X16967801Y-20754746D01*
X16967801Y-20754746D02*
X16967801Y-20811889D01*
X16967801Y-20811889D02*
X16958277Y-20830936D01*
X16958277Y-20830936D02*
X16948753Y-20840460D01*
X16948753Y-20840460D02*
X16929706Y-20849984D01*
X16929706Y-20849984D02*
X16901134Y-20849984D01*
X17082087Y-20849984D02*
X17063039Y-20840460D01*
X17063039Y-20840460D02*
X17053515Y-20821412D01*
X17053515Y-20821412D02*
X17053515Y-20649984D01*
X17234468Y-20840460D02*
X17215420Y-20849984D01*
X17215420Y-20849984D02*
X17177325Y-20849984D01*
X17177325Y-20849984D02*
X17158277Y-20840460D01*
X17158277Y-20840460D02*
X17148753Y-20821412D01*
X17148753Y-20821412D02*
X17148753Y-20745222D01*
X17148753Y-20745222D02*
X17158277Y-20726174D01*
X17158277Y-20726174D02*
X17177325Y-20716650D01*
X17177325Y-20716650D02*
X17215420Y-20716650D01*
X17215420Y-20716650D02*
X17234468Y-20726174D01*
X17234468Y-20726174D02*
X17243992Y-20745222D01*
X17243992Y-20745222D02*
X17243992Y-20764270D01*
X17243992Y-20764270D02*
X17148753Y-20783317D01*
X17320182Y-20840460D02*
X17339230Y-20849984D01*
X17339230Y-20849984D02*
X17377325Y-20849984D01*
X17377325Y-20849984D02*
X17396373Y-20840460D01*
X17396373Y-20840460D02*
X17405896Y-20821412D01*
X17405896Y-20821412D02*
X17405896Y-20811889D01*
X17405896Y-20811889D02*
X17396373Y-20792841D01*
X17396373Y-20792841D02*
X17377325Y-20783317D01*
X17377325Y-20783317D02*
X17348753Y-20783317D01*
X17348753Y-20783317D02*
X17329706Y-20773793D01*
X17329706Y-20773793D02*
X17320182Y-20754746D01*
X17320182Y-20754746D02*
X17320182Y-20745222D01*
X17320182Y-20745222D02*
X17329706Y-20726174D01*
X17329706Y-20726174D02*
X17348753Y-20716650D01*
X17348753Y-20716650D02*
X17377325Y-20716650D01*
X17377325Y-20716650D02*
X17396373Y-20726174D01*
X17472563Y-20926174D02*
X17482087Y-20916650D01*
X17482087Y-20916650D02*
X17501134Y-20888079D01*
X17501134Y-20888079D02*
X17510658Y-20869031D01*
X17510658Y-20869031D02*
X17520182Y-20840460D01*
X17520182Y-20840460D02*
X17529706Y-20792841D01*
X17529706Y-20792841D02*
X17529706Y-20754746D01*
X17529706Y-20754746D02*
X17520182Y-20707127D01*
X17520182Y-20707127D02*
X17510658Y-20678555D01*
X17510658Y-20678555D02*
X17501134Y-20659508D01*
X17501134Y-20659508D02*
X17482087Y-20630936D01*
X17482087Y-20630936D02*
X17472563Y-20621412D01*
D18*
X12537500Y-20948360D02*
X12697500Y-21108360D01*
X12697500Y-20948360D02*
X12537500Y-21108360D01*
X12617500Y-20948360D02*
X12617500Y-21108360D01*
X12537500Y-21028360D02*
X12697500Y-21028360D01*
D11*
X13063039Y-21119844D02*
X12948753Y-21119844D01*
X13005896Y-21119844D02*
X13005896Y-20919844D01*
X13005896Y-20919844D02*
X12986848Y-20948415D01*
X12986848Y-20948415D02*
X12967801Y-20967463D01*
X12967801Y-20967463D02*
X12948753Y-20976987D01*
X13148753Y-21100796D02*
X13158277Y-21110320D01*
X13158277Y-21110320D02*
X13148753Y-21119844D01*
X13148753Y-21119844D02*
X13139229Y-21110320D01*
X13139229Y-21110320D02*
X13148753Y-21100796D01*
X13148753Y-21100796D02*
X13148753Y-21119844D01*
X13329705Y-20919844D02*
X13291610Y-20919844D01*
X13291610Y-20919844D02*
X13272562Y-20929368D01*
X13272562Y-20929368D02*
X13263039Y-20938891D01*
X13263039Y-20938891D02*
X13243991Y-20967463D01*
X13243991Y-20967463D02*
X13234467Y-21005558D01*
X13234467Y-21005558D02*
X13234467Y-21081749D01*
X13234467Y-21081749D02*
X13243991Y-21100796D01*
X13243991Y-21100796D02*
X13253515Y-21110320D01*
X13253515Y-21110320D02*
X13272562Y-21119844D01*
X13272562Y-21119844D02*
X13310658Y-21119844D01*
X13310658Y-21119844D02*
X13329705Y-21110320D01*
X13329705Y-21110320D02*
X13339229Y-21100796D01*
X13339229Y-21100796D02*
X13348753Y-21081749D01*
X13348753Y-21081749D02*
X13348753Y-21034130D01*
X13348753Y-21034130D02*
X13339229Y-21015082D01*
X13339229Y-21015082D02*
X13329705Y-21005558D01*
X13329705Y-21005558D02*
X13310658Y-20996034D01*
X13310658Y-20996034D02*
X13272562Y-20996034D01*
X13272562Y-20996034D02*
X13253515Y-21005558D01*
X13253515Y-21005558D02*
X13243991Y-21015082D01*
X13243991Y-21015082D02*
X13234467Y-21034130D01*
X13472562Y-20919844D02*
X13491610Y-20919844D01*
X13491610Y-20919844D02*
X13510658Y-20929368D01*
X13510658Y-20929368D02*
X13520182Y-20938891D01*
X13520182Y-20938891D02*
X13529705Y-20957939D01*
X13529705Y-20957939D02*
X13539229Y-20996034D01*
X13539229Y-20996034D02*
X13539229Y-21043653D01*
X13539229Y-21043653D02*
X13529705Y-21081749D01*
X13529705Y-21081749D02*
X13520182Y-21100796D01*
X13520182Y-21100796D02*
X13510658Y-21110320D01*
X13510658Y-21110320D02*
X13491610Y-21119844D01*
X13491610Y-21119844D02*
X13472562Y-21119844D01*
X13472562Y-21119844D02*
X13453515Y-21110320D01*
X13453515Y-21110320D02*
X13443991Y-21100796D01*
X13443991Y-21100796D02*
X13434467Y-21081749D01*
X13434467Y-21081749D02*
X13424943Y-21043653D01*
X13424943Y-21043653D02*
X13424943Y-20996034D01*
X13424943Y-20996034D02*
X13434467Y-20957939D01*
X13434467Y-20957939D02*
X13443991Y-20938891D01*
X13443991Y-20938891D02*
X13453515Y-20929368D01*
X13453515Y-20929368D02*
X13472562Y-20919844D01*
X13663039Y-20919844D02*
X13682086Y-20919844D01*
X13682086Y-20919844D02*
X13701134Y-20929368D01*
X13701134Y-20929368D02*
X13710658Y-20938891D01*
X13710658Y-20938891D02*
X13720182Y-20957939D01*
X13720182Y-20957939D02*
X13729705Y-20996034D01*
X13729705Y-20996034D02*
X13729705Y-21043653D01*
X13729705Y-21043653D02*
X13720182Y-21081749D01*
X13720182Y-21081749D02*
X13710658Y-21100796D01*
X13710658Y-21100796D02*
X13701134Y-21110320D01*
X13701134Y-21110320D02*
X13682086Y-21119844D01*
X13682086Y-21119844D02*
X13663039Y-21119844D01*
X13663039Y-21119844D02*
X13643991Y-21110320D01*
X13643991Y-21110320D02*
X13634467Y-21100796D01*
X13634467Y-21100796D02*
X13624943Y-21081749D01*
X13624943Y-21081749D02*
X13615420Y-21043653D01*
X13615420Y-21043653D02*
X13615420Y-20996034D01*
X13615420Y-20996034D02*
X13624943Y-20957939D01*
X13624943Y-20957939D02*
X13634467Y-20938891D01*
X13634467Y-20938891D02*
X13643991Y-20929368D01*
X13643991Y-20929368D02*
X13663039Y-20919844D01*
X13815420Y-21119844D02*
X13815420Y-20986510D01*
X13815420Y-21005558D02*
X13824943Y-20996034D01*
X13824943Y-20996034D02*
X13843991Y-20986510D01*
X13843991Y-20986510D02*
X13872563Y-20986510D01*
X13872563Y-20986510D02*
X13891610Y-20996034D01*
X13891610Y-20996034D02*
X13901134Y-21015082D01*
X13901134Y-21015082D02*
X13901134Y-21119844D01*
X13901134Y-21015082D02*
X13910658Y-20996034D01*
X13910658Y-20996034D02*
X13929705Y-20986510D01*
X13929705Y-20986510D02*
X13958277Y-20986510D01*
X13958277Y-20986510D02*
X13977324Y-20996034D01*
X13977324Y-20996034D02*
X13986848Y-21015082D01*
X13986848Y-21015082D02*
X13986848Y-21119844D01*
X14082086Y-21119844D02*
X14082086Y-20986510D01*
X14082086Y-21005558D02*
X14091610Y-20996034D01*
X14091610Y-20996034D02*
X14110658Y-20986510D01*
X14110658Y-20986510D02*
X14139229Y-20986510D01*
X14139229Y-20986510D02*
X14158277Y-20996034D01*
X14158277Y-20996034D02*
X14167801Y-21015082D01*
X14167801Y-21015082D02*
X14167801Y-21119844D01*
X14167801Y-21015082D02*
X14177324Y-20996034D01*
X14177324Y-20996034D02*
X14196372Y-20986510D01*
X14196372Y-20986510D02*
X14224943Y-20986510D01*
X14224943Y-20986510D02*
X14243991Y-20996034D01*
X14243991Y-20996034D02*
X14253515Y-21015082D01*
X14253515Y-21015082D02*
X14253515Y-21119844D01*
X14643991Y-20910320D02*
X14472563Y-21167463D01*
X14901134Y-20919844D02*
X14920182Y-20919844D01*
X14920182Y-20919844D02*
X14939229Y-20929368D01*
X14939229Y-20929368D02*
X14948753Y-20938891D01*
X14948753Y-20938891D02*
X14958277Y-20957939D01*
X14958277Y-20957939D02*
X14967801Y-20996034D01*
X14967801Y-20996034D02*
X14967801Y-21043653D01*
X14967801Y-21043653D02*
X14958277Y-21081749D01*
X14958277Y-21081749D02*
X14948753Y-21100796D01*
X14948753Y-21100796D02*
X14939229Y-21110320D01*
X14939229Y-21110320D02*
X14920182Y-21119844D01*
X14920182Y-21119844D02*
X14901134Y-21119844D01*
X14901134Y-21119844D02*
X14882086Y-21110320D01*
X14882086Y-21110320D02*
X14872563Y-21100796D01*
X14872563Y-21100796D02*
X14863039Y-21081749D01*
X14863039Y-21081749D02*
X14853515Y-21043653D01*
X14853515Y-21043653D02*
X14853515Y-20996034D01*
X14853515Y-20996034D02*
X14863039Y-20957939D01*
X14863039Y-20957939D02*
X14872563Y-20938891D01*
X14872563Y-20938891D02*
X14882086Y-20929368D01*
X14882086Y-20929368D02*
X14901134Y-20919844D01*
X15053515Y-21100796D02*
X15063039Y-21110320D01*
X15063039Y-21110320D02*
X15053515Y-21119844D01*
X15053515Y-21119844D02*
X15043991Y-21110320D01*
X15043991Y-21110320D02*
X15053515Y-21100796D01*
X15053515Y-21100796D02*
X15053515Y-21119844D01*
X15186848Y-20919844D02*
X15205896Y-20919844D01*
X15205896Y-20919844D02*
X15224944Y-20929368D01*
X15224944Y-20929368D02*
X15234467Y-20938891D01*
X15234467Y-20938891D02*
X15243991Y-20957939D01*
X15243991Y-20957939D02*
X15253515Y-20996034D01*
X15253515Y-20996034D02*
X15253515Y-21043653D01*
X15253515Y-21043653D02*
X15243991Y-21081749D01*
X15243991Y-21081749D02*
X15234467Y-21100796D01*
X15234467Y-21100796D02*
X15224944Y-21110320D01*
X15224944Y-21110320D02*
X15205896Y-21119844D01*
X15205896Y-21119844D02*
X15186848Y-21119844D01*
X15186848Y-21119844D02*
X15167801Y-21110320D01*
X15167801Y-21110320D02*
X15158277Y-21100796D01*
X15158277Y-21100796D02*
X15148753Y-21081749D01*
X15148753Y-21081749D02*
X15139229Y-21043653D01*
X15139229Y-21043653D02*
X15139229Y-20996034D01*
X15139229Y-20996034D02*
X15148753Y-20957939D01*
X15148753Y-20957939D02*
X15158277Y-20938891D01*
X15158277Y-20938891D02*
X15167801Y-20929368D01*
X15167801Y-20929368D02*
X15186848Y-20919844D01*
X15424944Y-20919844D02*
X15386848Y-20919844D01*
X15386848Y-20919844D02*
X15367801Y-20929368D01*
X15367801Y-20929368D02*
X15358277Y-20938891D01*
X15358277Y-20938891D02*
X15339229Y-20967463D01*
X15339229Y-20967463D02*
X15329706Y-21005558D01*
X15329706Y-21005558D02*
X15329706Y-21081749D01*
X15329706Y-21081749D02*
X15339229Y-21100796D01*
X15339229Y-21100796D02*
X15348753Y-21110320D01*
X15348753Y-21110320D02*
X15367801Y-21119844D01*
X15367801Y-21119844D02*
X15405896Y-21119844D01*
X15405896Y-21119844D02*
X15424944Y-21110320D01*
X15424944Y-21110320D02*
X15434467Y-21100796D01*
X15434467Y-21100796D02*
X15443991Y-21081749D01*
X15443991Y-21081749D02*
X15443991Y-21034130D01*
X15443991Y-21034130D02*
X15434467Y-21015082D01*
X15434467Y-21015082D02*
X15424944Y-21005558D01*
X15424944Y-21005558D02*
X15405896Y-20996034D01*
X15405896Y-20996034D02*
X15367801Y-20996034D01*
X15367801Y-20996034D02*
X15348753Y-21005558D01*
X15348753Y-21005558D02*
X15339229Y-21015082D01*
X15339229Y-21015082D02*
X15329706Y-21034130D01*
X15510658Y-20919844D02*
X15634467Y-20919844D01*
X15634467Y-20919844D02*
X15567801Y-20996034D01*
X15567801Y-20996034D02*
X15596372Y-20996034D01*
X15596372Y-20996034D02*
X15615420Y-21005558D01*
X15615420Y-21005558D02*
X15624944Y-21015082D01*
X15624944Y-21015082D02*
X15634467Y-21034130D01*
X15634467Y-21034130D02*
X15634467Y-21081749D01*
X15634467Y-21081749D02*
X15624944Y-21100796D01*
X15624944Y-21100796D02*
X15615420Y-21110320D01*
X15615420Y-21110320D02*
X15596372Y-21119844D01*
X15596372Y-21119844D02*
X15539229Y-21119844D01*
X15539229Y-21119844D02*
X15520182Y-21110320D01*
X15520182Y-21110320D02*
X15510658Y-21100796D01*
X15758277Y-20919844D02*
X15777325Y-20919844D01*
X15777325Y-20919844D02*
X15796372Y-20929368D01*
X15796372Y-20929368D02*
X15805896Y-20938891D01*
X15805896Y-20938891D02*
X15815420Y-20957939D01*
X15815420Y-20957939D02*
X15824944Y-20996034D01*
X15824944Y-20996034D02*
X15824944Y-21043653D01*
X15824944Y-21043653D02*
X15815420Y-21081749D01*
X15815420Y-21081749D02*
X15805896Y-21100796D01*
X15805896Y-21100796D02*
X15796372Y-21110320D01*
X15796372Y-21110320D02*
X15777325Y-21119844D01*
X15777325Y-21119844D02*
X15758277Y-21119844D01*
X15758277Y-21119844D02*
X15739229Y-21110320D01*
X15739229Y-21110320D02*
X15729706Y-21100796D01*
X15729706Y-21100796D02*
X15720182Y-21081749D01*
X15720182Y-21081749D02*
X15710658Y-21043653D01*
X15710658Y-21043653D02*
X15710658Y-20996034D01*
X15710658Y-20996034D02*
X15720182Y-20957939D01*
X15720182Y-20957939D02*
X15729706Y-20938891D01*
X15729706Y-20938891D02*
X15739229Y-20929368D01*
X15739229Y-20929368D02*
X15758277Y-20919844D01*
X15901134Y-20919844D02*
X15901134Y-20957939D01*
X15977325Y-20919844D02*
X15977325Y-20957939D01*
X16272563Y-21196034D02*
X16263039Y-21186510D01*
X16263039Y-21186510D02*
X16243991Y-21157939D01*
X16243991Y-21157939D02*
X16234468Y-21138891D01*
X16234468Y-21138891D02*
X16224944Y-21110320D01*
X16224944Y-21110320D02*
X16215420Y-21062701D01*
X16215420Y-21062701D02*
X16215420Y-21024606D01*
X16215420Y-21024606D02*
X16224944Y-20976987D01*
X16224944Y-20976987D02*
X16234468Y-20948415D01*
X16234468Y-20948415D02*
X16243991Y-20929368D01*
X16243991Y-20929368D02*
X16263039Y-20900796D01*
X16263039Y-20900796D02*
X16272563Y-20891272D01*
X16329706Y-20919844D02*
X16463039Y-20919844D01*
X16463039Y-20919844D02*
X16377325Y-21119844D01*
X16691610Y-21119844D02*
X16691610Y-20919844D01*
X16777325Y-21119844D02*
X16777325Y-21015082D01*
X16777325Y-21015082D02*
X16767801Y-20996034D01*
X16767801Y-20996034D02*
X16748753Y-20986510D01*
X16748753Y-20986510D02*
X16720182Y-20986510D01*
X16720182Y-20986510D02*
X16701134Y-20996034D01*
X16701134Y-20996034D02*
X16691610Y-21005558D01*
X16901134Y-21119844D02*
X16882087Y-21110320D01*
X16882087Y-21110320D02*
X16872563Y-21100796D01*
X16872563Y-21100796D02*
X16863039Y-21081749D01*
X16863039Y-21081749D02*
X16863039Y-21024606D01*
X16863039Y-21024606D02*
X16872563Y-21005558D01*
X16872563Y-21005558D02*
X16882087Y-20996034D01*
X16882087Y-20996034D02*
X16901134Y-20986510D01*
X16901134Y-20986510D02*
X16929706Y-20986510D01*
X16929706Y-20986510D02*
X16948753Y-20996034D01*
X16948753Y-20996034D02*
X16958277Y-21005558D01*
X16958277Y-21005558D02*
X16967801Y-21024606D01*
X16967801Y-21024606D02*
X16967801Y-21081749D01*
X16967801Y-21081749D02*
X16958277Y-21100796D01*
X16958277Y-21100796D02*
X16948753Y-21110320D01*
X16948753Y-21110320D02*
X16929706Y-21119844D01*
X16929706Y-21119844D02*
X16901134Y-21119844D01*
X17082087Y-21119844D02*
X17063039Y-21110320D01*
X17063039Y-21110320D02*
X17053515Y-21091272D01*
X17053515Y-21091272D02*
X17053515Y-20919844D01*
X17234468Y-21110320D02*
X17215420Y-21119844D01*
X17215420Y-21119844D02*
X17177325Y-21119844D01*
X17177325Y-21119844D02*
X17158277Y-21110320D01*
X17158277Y-21110320D02*
X17148753Y-21091272D01*
X17148753Y-21091272D02*
X17148753Y-21015082D01*
X17148753Y-21015082D02*
X17158277Y-20996034D01*
X17158277Y-20996034D02*
X17177325Y-20986510D01*
X17177325Y-20986510D02*
X17215420Y-20986510D01*
X17215420Y-20986510D02*
X17234468Y-20996034D01*
X17234468Y-20996034D02*
X17243992Y-21015082D01*
X17243992Y-21015082D02*
X17243992Y-21034130D01*
X17243992Y-21034130D02*
X17148753Y-21053177D01*
X17320182Y-21110320D02*
X17339230Y-21119844D01*
X17339230Y-21119844D02*
X17377325Y-21119844D01*
X17377325Y-21119844D02*
X17396373Y-21110320D01*
X17396373Y-21110320D02*
X17405896Y-21091272D01*
X17405896Y-21091272D02*
X17405896Y-21081749D01*
X17405896Y-21081749D02*
X17396373Y-21062701D01*
X17396373Y-21062701D02*
X17377325Y-21053177D01*
X17377325Y-21053177D02*
X17348753Y-21053177D01*
X17348753Y-21053177D02*
X17329706Y-21043653D01*
X17329706Y-21043653D02*
X17320182Y-21024606D01*
X17320182Y-21024606D02*
X17320182Y-21015082D01*
X17320182Y-21015082D02*
X17329706Y-20996034D01*
X17329706Y-20996034D02*
X17348753Y-20986510D01*
X17348753Y-20986510D02*
X17377325Y-20986510D01*
X17377325Y-20986510D02*
X17396373Y-20996034D01*
X17472563Y-21196034D02*
X17482087Y-21186510D01*
X17482087Y-21186510D02*
X17501134Y-21157939D01*
X17501134Y-21157939D02*
X17510658Y-21138891D01*
X17510658Y-21138891D02*
X17520182Y-21110320D01*
X17520182Y-21110320D02*
X17529706Y-21062701D01*
X17529706Y-21062701D02*
X17529706Y-21024606D01*
X17529706Y-21024606D02*
X17520182Y-20976987D01*
X17520182Y-20976987D02*
X17510658Y-20948415D01*
X17510658Y-20948415D02*
X17501134Y-20929368D01*
X17501134Y-20929368D02*
X17482087Y-20900796D01*
X17482087Y-20900796D02*
X17472563Y-20891272D01*
D19*
X12532400Y-21225810D02*
X12697500Y-21390910D01*
X12697500Y-21225810D02*
X12532400Y-21390910D01*
X12673322Y-21366732D02*
X12673322Y-21249988D01*
X12556578Y-21249988D01*
X12556578Y-21366732D01*
X12673322Y-21366732D01*
D11*
X13063039Y-21399844D02*
X12948753Y-21399844D01*
X13005896Y-21399844D02*
X13005896Y-21199844D01*
X13005896Y-21199844D02*
X12986848Y-21228415D01*
X12986848Y-21228415D02*
X12967801Y-21247463D01*
X12967801Y-21247463D02*
X12948753Y-21256987D01*
X13148753Y-21380796D02*
X13158277Y-21390320D01*
X13158277Y-21390320D02*
X13148753Y-21399844D01*
X13148753Y-21399844D02*
X13139229Y-21390320D01*
X13139229Y-21390320D02*
X13148753Y-21380796D01*
X13148753Y-21380796D02*
X13148753Y-21399844D01*
X13329705Y-21199844D02*
X13291610Y-21199844D01*
X13291610Y-21199844D02*
X13272562Y-21209368D01*
X13272562Y-21209368D02*
X13263039Y-21218891D01*
X13263039Y-21218891D02*
X13243991Y-21247463D01*
X13243991Y-21247463D02*
X13234467Y-21285558D01*
X13234467Y-21285558D02*
X13234467Y-21361749D01*
X13234467Y-21361749D02*
X13243991Y-21380796D01*
X13243991Y-21380796D02*
X13253515Y-21390320D01*
X13253515Y-21390320D02*
X13272562Y-21399844D01*
X13272562Y-21399844D02*
X13310658Y-21399844D01*
X13310658Y-21399844D02*
X13329705Y-21390320D01*
X13329705Y-21390320D02*
X13339229Y-21380796D01*
X13339229Y-21380796D02*
X13348753Y-21361749D01*
X13348753Y-21361749D02*
X13348753Y-21314130D01*
X13348753Y-21314130D02*
X13339229Y-21295082D01*
X13339229Y-21295082D02*
X13329705Y-21285558D01*
X13329705Y-21285558D02*
X13310658Y-21276034D01*
X13310658Y-21276034D02*
X13272562Y-21276034D01*
X13272562Y-21276034D02*
X13253515Y-21285558D01*
X13253515Y-21285558D02*
X13243991Y-21295082D01*
X13243991Y-21295082D02*
X13234467Y-21314130D01*
X13529705Y-21199844D02*
X13434467Y-21199844D01*
X13434467Y-21199844D02*
X13424943Y-21295082D01*
X13424943Y-21295082D02*
X13434467Y-21285558D01*
X13434467Y-21285558D02*
X13453515Y-21276034D01*
X13453515Y-21276034D02*
X13501134Y-21276034D01*
X13501134Y-21276034D02*
X13520182Y-21285558D01*
X13520182Y-21285558D02*
X13529705Y-21295082D01*
X13529705Y-21295082D02*
X13539229Y-21314130D01*
X13539229Y-21314130D02*
X13539229Y-21361749D01*
X13539229Y-21361749D02*
X13529705Y-21380796D01*
X13529705Y-21380796D02*
X13520182Y-21390320D01*
X13520182Y-21390320D02*
X13501134Y-21399844D01*
X13501134Y-21399844D02*
X13453515Y-21399844D01*
X13453515Y-21399844D02*
X13434467Y-21390320D01*
X13434467Y-21390320D02*
X13424943Y-21380796D01*
X13729705Y-21399844D02*
X13615420Y-21399844D01*
X13672562Y-21399844D02*
X13672562Y-21199844D01*
X13672562Y-21199844D02*
X13653515Y-21228415D01*
X13653515Y-21228415D02*
X13634467Y-21247463D01*
X13634467Y-21247463D02*
X13615420Y-21256987D01*
X13815420Y-21399844D02*
X13815420Y-21266510D01*
X13815420Y-21285558D02*
X13824943Y-21276034D01*
X13824943Y-21276034D02*
X13843991Y-21266510D01*
X13843991Y-21266510D02*
X13872563Y-21266510D01*
X13872563Y-21266510D02*
X13891610Y-21276034D01*
X13891610Y-21276034D02*
X13901134Y-21295082D01*
X13901134Y-21295082D02*
X13901134Y-21399844D01*
X13901134Y-21295082D02*
X13910658Y-21276034D01*
X13910658Y-21276034D02*
X13929705Y-21266510D01*
X13929705Y-21266510D02*
X13958277Y-21266510D01*
X13958277Y-21266510D02*
X13977324Y-21276034D01*
X13977324Y-21276034D02*
X13986848Y-21295082D01*
X13986848Y-21295082D02*
X13986848Y-21399844D01*
X14082086Y-21399844D02*
X14082086Y-21266510D01*
X14082086Y-21285558D02*
X14091610Y-21276034D01*
X14091610Y-21276034D02*
X14110658Y-21266510D01*
X14110658Y-21266510D02*
X14139229Y-21266510D01*
X14139229Y-21266510D02*
X14158277Y-21276034D01*
X14158277Y-21276034D02*
X14167801Y-21295082D01*
X14167801Y-21295082D02*
X14167801Y-21399844D01*
X14167801Y-21295082D02*
X14177324Y-21276034D01*
X14177324Y-21276034D02*
X14196372Y-21266510D01*
X14196372Y-21266510D02*
X14224943Y-21266510D01*
X14224943Y-21266510D02*
X14243991Y-21276034D01*
X14243991Y-21276034D02*
X14253515Y-21295082D01*
X14253515Y-21295082D02*
X14253515Y-21399844D01*
X14643991Y-21190320D02*
X14472563Y-21447463D01*
X14901134Y-21199844D02*
X14920182Y-21199844D01*
X14920182Y-21199844D02*
X14939229Y-21209368D01*
X14939229Y-21209368D02*
X14948753Y-21218891D01*
X14948753Y-21218891D02*
X14958277Y-21237939D01*
X14958277Y-21237939D02*
X14967801Y-21276034D01*
X14967801Y-21276034D02*
X14967801Y-21323653D01*
X14967801Y-21323653D02*
X14958277Y-21361749D01*
X14958277Y-21361749D02*
X14948753Y-21380796D01*
X14948753Y-21380796D02*
X14939229Y-21390320D01*
X14939229Y-21390320D02*
X14920182Y-21399844D01*
X14920182Y-21399844D02*
X14901134Y-21399844D01*
X14901134Y-21399844D02*
X14882086Y-21390320D01*
X14882086Y-21390320D02*
X14872563Y-21380796D01*
X14872563Y-21380796D02*
X14863039Y-21361749D01*
X14863039Y-21361749D02*
X14853515Y-21323653D01*
X14853515Y-21323653D02*
X14853515Y-21276034D01*
X14853515Y-21276034D02*
X14863039Y-21237939D01*
X14863039Y-21237939D02*
X14872563Y-21218891D01*
X14872563Y-21218891D02*
X14882086Y-21209368D01*
X14882086Y-21209368D02*
X14901134Y-21199844D01*
X15053515Y-21380796D02*
X15063039Y-21390320D01*
X15063039Y-21390320D02*
X15053515Y-21399844D01*
X15053515Y-21399844D02*
X15043991Y-21390320D01*
X15043991Y-21390320D02*
X15053515Y-21380796D01*
X15053515Y-21380796D02*
X15053515Y-21399844D01*
X15186848Y-21199844D02*
X15205896Y-21199844D01*
X15205896Y-21199844D02*
X15224944Y-21209368D01*
X15224944Y-21209368D02*
X15234467Y-21218891D01*
X15234467Y-21218891D02*
X15243991Y-21237939D01*
X15243991Y-21237939D02*
X15253515Y-21276034D01*
X15253515Y-21276034D02*
X15253515Y-21323653D01*
X15253515Y-21323653D02*
X15243991Y-21361749D01*
X15243991Y-21361749D02*
X15234467Y-21380796D01*
X15234467Y-21380796D02*
X15224944Y-21390320D01*
X15224944Y-21390320D02*
X15205896Y-21399844D01*
X15205896Y-21399844D02*
X15186848Y-21399844D01*
X15186848Y-21399844D02*
X15167801Y-21390320D01*
X15167801Y-21390320D02*
X15158277Y-21380796D01*
X15158277Y-21380796D02*
X15148753Y-21361749D01*
X15148753Y-21361749D02*
X15139229Y-21323653D01*
X15139229Y-21323653D02*
X15139229Y-21276034D01*
X15139229Y-21276034D02*
X15148753Y-21237939D01*
X15148753Y-21237939D02*
X15158277Y-21218891D01*
X15158277Y-21218891D02*
X15167801Y-21209368D01*
X15167801Y-21209368D02*
X15186848Y-21199844D01*
X15424944Y-21199844D02*
X15386848Y-21199844D01*
X15386848Y-21199844D02*
X15367801Y-21209368D01*
X15367801Y-21209368D02*
X15358277Y-21218891D01*
X15358277Y-21218891D02*
X15339229Y-21247463D01*
X15339229Y-21247463D02*
X15329706Y-21285558D01*
X15329706Y-21285558D02*
X15329706Y-21361749D01*
X15329706Y-21361749D02*
X15339229Y-21380796D01*
X15339229Y-21380796D02*
X15348753Y-21390320D01*
X15348753Y-21390320D02*
X15367801Y-21399844D01*
X15367801Y-21399844D02*
X15405896Y-21399844D01*
X15405896Y-21399844D02*
X15424944Y-21390320D01*
X15424944Y-21390320D02*
X15434467Y-21380796D01*
X15434467Y-21380796D02*
X15443991Y-21361749D01*
X15443991Y-21361749D02*
X15443991Y-21314130D01*
X15443991Y-21314130D02*
X15434467Y-21295082D01*
X15434467Y-21295082D02*
X15424944Y-21285558D01*
X15424944Y-21285558D02*
X15405896Y-21276034D01*
X15405896Y-21276034D02*
X15367801Y-21276034D01*
X15367801Y-21276034D02*
X15348753Y-21285558D01*
X15348753Y-21285558D02*
X15339229Y-21295082D01*
X15339229Y-21295082D02*
X15329706Y-21314130D01*
X15624944Y-21199844D02*
X15529706Y-21199844D01*
X15529706Y-21199844D02*
X15520182Y-21295082D01*
X15520182Y-21295082D02*
X15529706Y-21285558D01*
X15529706Y-21285558D02*
X15548753Y-21276034D01*
X15548753Y-21276034D02*
X15596372Y-21276034D01*
X15596372Y-21276034D02*
X15615420Y-21285558D01*
X15615420Y-21285558D02*
X15624944Y-21295082D01*
X15624944Y-21295082D02*
X15634467Y-21314130D01*
X15634467Y-21314130D02*
X15634467Y-21361749D01*
X15634467Y-21361749D02*
X15624944Y-21380796D01*
X15624944Y-21380796D02*
X15615420Y-21390320D01*
X15615420Y-21390320D02*
X15596372Y-21399844D01*
X15596372Y-21399844D02*
X15548753Y-21399844D01*
X15548753Y-21399844D02*
X15529706Y-21390320D01*
X15529706Y-21390320D02*
X15520182Y-21380796D01*
X15758277Y-21199844D02*
X15777325Y-21199844D01*
X15777325Y-21199844D02*
X15796372Y-21209368D01*
X15796372Y-21209368D02*
X15805896Y-21218891D01*
X15805896Y-21218891D02*
X15815420Y-21237939D01*
X15815420Y-21237939D02*
X15824944Y-21276034D01*
X15824944Y-21276034D02*
X15824944Y-21323653D01*
X15824944Y-21323653D02*
X15815420Y-21361749D01*
X15815420Y-21361749D02*
X15805896Y-21380796D01*
X15805896Y-21380796D02*
X15796372Y-21390320D01*
X15796372Y-21390320D02*
X15777325Y-21399844D01*
X15777325Y-21399844D02*
X15758277Y-21399844D01*
X15758277Y-21399844D02*
X15739229Y-21390320D01*
X15739229Y-21390320D02*
X15729706Y-21380796D01*
X15729706Y-21380796D02*
X15720182Y-21361749D01*
X15720182Y-21361749D02*
X15710658Y-21323653D01*
X15710658Y-21323653D02*
X15710658Y-21276034D01*
X15710658Y-21276034D02*
X15720182Y-21237939D01*
X15720182Y-21237939D02*
X15729706Y-21218891D01*
X15729706Y-21218891D02*
X15739229Y-21209368D01*
X15739229Y-21209368D02*
X15758277Y-21199844D01*
X15901134Y-21199844D02*
X15901134Y-21237939D01*
X15977325Y-21199844D02*
X15977325Y-21237939D01*
X16272563Y-21476034D02*
X16263039Y-21466510D01*
X16263039Y-21466510D02*
X16243991Y-21437939D01*
X16243991Y-21437939D02*
X16234468Y-21418891D01*
X16234468Y-21418891D02*
X16224944Y-21390320D01*
X16224944Y-21390320D02*
X16215420Y-21342701D01*
X16215420Y-21342701D02*
X16215420Y-21304606D01*
X16215420Y-21304606D02*
X16224944Y-21256987D01*
X16224944Y-21256987D02*
X16234468Y-21228415D01*
X16234468Y-21228415D02*
X16243991Y-21209368D01*
X16243991Y-21209368D02*
X16263039Y-21180796D01*
X16263039Y-21180796D02*
X16272563Y-21171272D01*
X16434468Y-21266510D02*
X16434468Y-21399844D01*
X16386848Y-21190320D02*
X16339229Y-21333177D01*
X16339229Y-21333177D02*
X16463039Y-21333177D01*
X16691610Y-21399844D02*
X16691610Y-21199844D01*
X16777325Y-21399844D02*
X16777325Y-21295082D01*
X16777325Y-21295082D02*
X16767801Y-21276034D01*
X16767801Y-21276034D02*
X16748753Y-21266510D01*
X16748753Y-21266510D02*
X16720182Y-21266510D01*
X16720182Y-21266510D02*
X16701134Y-21276034D01*
X16701134Y-21276034D02*
X16691610Y-21285558D01*
X16901134Y-21399844D02*
X16882087Y-21390320D01*
X16882087Y-21390320D02*
X16872563Y-21380796D01*
X16872563Y-21380796D02*
X16863039Y-21361749D01*
X16863039Y-21361749D02*
X16863039Y-21304606D01*
X16863039Y-21304606D02*
X16872563Y-21285558D01*
X16872563Y-21285558D02*
X16882087Y-21276034D01*
X16882087Y-21276034D02*
X16901134Y-21266510D01*
X16901134Y-21266510D02*
X16929706Y-21266510D01*
X16929706Y-21266510D02*
X16948753Y-21276034D01*
X16948753Y-21276034D02*
X16958277Y-21285558D01*
X16958277Y-21285558D02*
X16967801Y-21304606D01*
X16967801Y-21304606D02*
X16967801Y-21361749D01*
X16967801Y-21361749D02*
X16958277Y-21380796D01*
X16958277Y-21380796D02*
X16948753Y-21390320D01*
X16948753Y-21390320D02*
X16929706Y-21399844D01*
X16929706Y-21399844D02*
X16901134Y-21399844D01*
X17082087Y-21399844D02*
X17063039Y-21390320D01*
X17063039Y-21390320D02*
X17053515Y-21371272D01*
X17053515Y-21371272D02*
X17053515Y-21199844D01*
X17234468Y-21390320D02*
X17215420Y-21399844D01*
X17215420Y-21399844D02*
X17177325Y-21399844D01*
X17177325Y-21399844D02*
X17158277Y-21390320D01*
X17158277Y-21390320D02*
X17148753Y-21371272D01*
X17148753Y-21371272D02*
X17148753Y-21295082D01*
X17148753Y-21295082D02*
X17158277Y-21276034D01*
X17158277Y-21276034D02*
X17177325Y-21266510D01*
X17177325Y-21266510D02*
X17215420Y-21266510D01*
X17215420Y-21266510D02*
X17234468Y-21276034D01*
X17234468Y-21276034D02*
X17243992Y-21295082D01*
X17243992Y-21295082D02*
X17243992Y-21314130D01*
X17243992Y-21314130D02*
X17148753Y-21333177D01*
X17320182Y-21390320D02*
X17339230Y-21399844D01*
X17339230Y-21399844D02*
X17377325Y-21399844D01*
X17377325Y-21399844D02*
X17396373Y-21390320D01*
X17396373Y-21390320D02*
X17405896Y-21371272D01*
X17405896Y-21371272D02*
X17405896Y-21361749D01*
X17405896Y-21361749D02*
X17396373Y-21342701D01*
X17396373Y-21342701D02*
X17377325Y-21333177D01*
X17377325Y-21333177D02*
X17348753Y-21333177D01*
X17348753Y-21333177D02*
X17329706Y-21323653D01*
X17329706Y-21323653D02*
X17320182Y-21304606D01*
X17320182Y-21304606D02*
X17320182Y-21295082D01*
X17320182Y-21295082D02*
X17329706Y-21276034D01*
X17329706Y-21276034D02*
X17348753Y-21266510D01*
X17348753Y-21266510D02*
X17377325Y-21266510D01*
X17377325Y-21266510D02*
X17396373Y-21276034D01*
X17472563Y-21476034D02*
X17482087Y-21466510D01*
X17482087Y-21466510D02*
X17501134Y-21437939D01*
X17501134Y-21437939D02*
X17510658Y-21418891D01*
X17510658Y-21418891D02*
X17520182Y-21390320D01*
X17520182Y-21390320D02*
X17529706Y-21342701D01*
X17529706Y-21342701D02*
X17529706Y-21304606D01*
X17529706Y-21304606D02*
X17520182Y-21256987D01*
X17520182Y-21256987D02*
X17510658Y-21228415D01*
X17510658Y-21228415D02*
X17501134Y-21209368D01*
X17501134Y-21209368D02*
X17482087Y-21180796D01*
X17482087Y-21180796D02*
X17472563Y-21171272D01*
D20*
X12527320Y-21508370D02*
X12697500Y-21678550D01*
X12697500Y-21508370D02*
X12527320Y-21678550D01*
X12612410Y-21678550D02*
X12697500Y-21593460D01*
X12612410Y-21508370D01*
X12527320Y-21593460D01*
X12612410Y-21678550D01*
D11*
X13063039Y-21684944D02*
X12948753Y-21684944D01*
X13005896Y-21684944D02*
X13005896Y-21484944D01*
X13005896Y-21484944D02*
X12986848Y-21513515D01*
X12986848Y-21513515D02*
X12967801Y-21532563D01*
X12967801Y-21532563D02*
X12948753Y-21542087D01*
X13148753Y-21665896D02*
X13158277Y-21675420D01*
X13158277Y-21675420D02*
X13148753Y-21684944D01*
X13148753Y-21684944D02*
X13139229Y-21675420D01*
X13139229Y-21675420D02*
X13148753Y-21665896D01*
X13148753Y-21665896D02*
X13148753Y-21684944D01*
X13224943Y-21484944D02*
X13358277Y-21484944D01*
X13358277Y-21484944D02*
X13272562Y-21684944D01*
X13472562Y-21484944D02*
X13491610Y-21484944D01*
X13491610Y-21484944D02*
X13510658Y-21494468D01*
X13510658Y-21494468D02*
X13520182Y-21503991D01*
X13520182Y-21503991D02*
X13529705Y-21523039D01*
X13529705Y-21523039D02*
X13539229Y-21561134D01*
X13539229Y-21561134D02*
X13539229Y-21608753D01*
X13539229Y-21608753D02*
X13529705Y-21646849D01*
X13529705Y-21646849D02*
X13520182Y-21665896D01*
X13520182Y-21665896D02*
X13510658Y-21675420D01*
X13510658Y-21675420D02*
X13491610Y-21684944D01*
X13491610Y-21684944D02*
X13472562Y-21684944D01*
X13472562Y-21684944D02*
X13453515Y-21675420D01*
X13453515Y-21675420D02*
X13443991Y-21665896D01*
X13443991Y-21665896D02*
X13434467Y-21646849D01*
X13434467Y-21646849D02*
X13424943Y-21608753D01*
X13424943Y-21608753D02*
X13424943Y-21561134D01*
X13424943Y-21561134D02*
X13434467Y-21523039D01*
X13434467Y-21523039D02*
X13443991Y-21503991D01*
X13443991Y-21503991D02*
X13453515Y-21494468D01*
X13453515Y-21494468D02*
X13472562Y-21484944D01*
X13615420Y-21503991D02*
X13624943Y-21494468D01*
X13624943Y-21494468D02*
X13643991Y-21484944D01*
X13643991Y-21484944D02*
X13691610Y-21484944D01*
X13691610Y-21484944D02*
X13710658Y-21494468D01*
X13710658Y-21494468D02*
X13720182Y-21503991D01*
X13720182Y-21503991D02*
X13729705Y-21523039D01*
X13729705Y-21523039D02*
X13729705Y-21542087D01*
X13729705Y-21542087D02*
X13720182Y-21570658D01*
X13720182Y-21570658D02*
X13605896Y-21684944D01*
X13605896Y-21684944D02*
X13729705Y-21684944D01*
X13815420Y-21684944D02*
X13815420Y-21551610D01*
X13815420Y-21570658D02*
X13824943Y-21561134D01*
X13824943Y-21561134D02*
X13843991Y-21551610D01*
X13843991Y-21551610D02*
X13872563Y-21551610D01*
X13872563Y-21551610D02*
X13891610Y-21561134D01*
X13891610Y-21561134D02*
X13901134Y-21580182D01*
X13901134Y-21580182D02*
X13901134Y-21684944D01*
X13901134Y-21580182D02*
X13910658Y-21561134D01*
X13910658Y-21561134D02*
X13929705Y-21551610D01*
X13929705Y-21551610D02*
X13958277Y-21551610D01*
X13958277Y-21551610D02*
X13977324Y-21561134D01*
X13977324Y-21561134D02*
X13986848Y-21580182D01*
X13986848Y-21580182D02*
X13986848Y-21684944D01*
X14082086Y-21684944D02*
X14082086Y-21551610D01*
X14082086Y-21570658D02*
X14091610Y-21561134D01*
X14091610Y-21561134D02*
X14110658Y-21551610D01*
X14110658Y-21551610D02*
X14139229Y-21551610D01*
X14139229Y-21551610D02*
X14158277Y-21561134D01*
X14158277Y-21561134D02*
X14167801Y-21580182D01*
X14167801Y-21580182D02*
X14167801Y-21684944D01*
X14167801Y-21580182D02*
X14177324Y-21561134D01*
X14177324Y-21561134D02*
X14196372Y-21551610D01*
X14196372Y-21551610D02*
X14224943Y-21551610D01*
X14224943Y-21551610D02*
X14243991Y-21561134D01*
X14243991Y-21561134D02*
X14253515Y-21580182D01*
X14253515Y-21580182D02*
X14253515Y-21684944D01*
X14643991Y-21475420D02*
X14472563Y-21732563D01*
X14901134Y-21484944D02*
X14920182Y-21484944D01*
X14920182Y-21484944D02*
X14939229Y-21494468D01*
X14939229Y-21494468D02*
X14948753Y-21503991D01*
X14948753Y-21503991D02*
X14958277Y-21523039D01*
X14958277Y-21523039D02*
X14967801Y-21561134D01*
X14967801Y-21561134D02*
X14967801Y-21608753D01*
X14967801Y-21608753D02*
X14958277Y-21646849D01*
X14958277Y-21646849D02*
X14948753Y-21665896D01*
X14948753Y-21665896D02*
X14939229Y-21675420D01*
X14939229Y-21675420D02*
X14920182Y-21684944D01*
X14920182Y-21684944D02*
X14901134Y-21684944D01*
X14901134Y-21684944D02*
X14882086Y-21675420D01*
X14882086Y-21675420D02*
X14872563Y-21665896D01*
X14872563Y-21665896D02*
X14863039Y-21646849D01*
X14863039Y-21646849D02*
X14853515Y-21608753D01*
X14853515Y-21608753D02*
X14853515Y-21561134D01*
X14853515Y-21561134D02*
X14863039Y-21523039D01*
X14863039Y-21523039D02*
X14872563Y-21503991D01*
X14872563Y-21503991D02*
X14882086Y-21494468D01*
X14882086Y-21494468D02*
X14901134Y-21484944D01*
X15053515Y-21665896D02*
X15063039Y-21675420D01*
X15063039Y-21675420D02*
X15053515Y-21684944D01*
X15053515Y-21684944D02*
X15043991Y-21675420D01*
X15043991Y-21675420D02*
X15053515Y-21665896D01*
X15053515Y-21665896D02*
X15053515Y-21684944D01*
X15186848Y-21484944D02*
X15205896Y-21484944D01*
X15205896Y-21484944D02*
X15224944Y-21494468D01*
X15224944Y-21494468D02*
X15234467Y-21503991D01*
X15234467Y-21503991D02*
X15243991Y-21523039D01*
X15243991Y-21523039D02*
X15253515Y-21561134D01*
X15253515Y-21561134D02*
X15253515Y-21608753D01*
X15253515Y-21608753D02*
X15243991Y-21646849D01*
X15243991Y-21646849D02*
X15234467Y-21665896D01*
X15234467Y-21665896D02*
X15224944Y-21675420D01*
X15224944Y-21675420D02*
X15205896Y-21684944D01*
X15205896Y-21684944D02*
X15186848Y-21684944D01*
X15186848Y-21684944D02*
X15167801Y-21675420D01*
X15167801Y-21675420D02*
X15158277Y-21665896D01*
X15158277Y-21665896D02*
X15148753Y-21646849D01*
X15148753Y-21646849D02*
X15139229Y-21608753D01*
X15139229Y-21608753D02*
X15139229Y-21561134D01*
X15139229Y-21561134D02*
X15148753Y-21523039D01*
X15148753Y-21523039D02*
X15158277Y-21503991D01*
X15158277Y-21503991D02*
X15167801Y-21494468D01*
X15167801Y-21494468D02*
X15186848Y-21484944D01*
X15424944Y-21484944D02*
X15386848Y-21484944D01*
X15386848Y-21484944D02*
X15367801Y-21494468D01*
X15367801Y-21494468D02*
X15358277Y-21503991D01*
X15358277Y-21503991D02*
X15339229Y-21532563D01*
X15339229Y-21532563D02*
X15329706Y-21570658D01*
X15329706Y-21570658D02*
X15329706Y-21646849D01*
X15329706Y-21646849D02*
X15339229Y-21665896D01*
X15339229Y-21665896D02*
X15348753Y-21675420D01*
X15348753Y-21675420D02*
X15367801Y-21684944D01*
X15367801Y-21684944D02*
X15405896Y-21684944D01*
X15405896Y-21684944D02*
X15424944Y-21675420D01*
X15424944Y-21675420D02*
X15434467Y-21665896D01*
X15434467Y-21665896D02*
X15443991Y-21646849D01*
X15443991Y-21646849D02*
X15443991Y-21599230D01*
X15443991Y-21599230D02*
X15434467Y-21580182D01*
X15434467Y-21580182D02*
X15424944Y-21570658D01*
X15424944Y-21570658D02*
X15405896Y-21561134D01*
X15405896Y-21561134D02*
X15367801Y-21561134D01*
X15367801Y-21561134D02*
X15348753Y-21570658D01*
X15348753Y-21570658D02*
X15339229Y-21580182D01*
X15339229Y-21580182D02*
X15329706Y-21599230D01*
X15510658Y-21484944D02*
X15643991Y-21484944D01*
X15643991Y-21484944D02*
X15558277Y-21684944D01*
X15758277Y-21484944D02*
X15777325Y-21484944D01*
X15777325Y-21484944D02*
X15796372Y-21494468D01*
X15796372Y-21494468D02*
X15805896Y-21503991D01*
X15805896Y-21503991D02*
X15815420Y-21523039D01*
X15815420Y-21523039D02*
X15824944Y-21561134D01*
X15824944Y-21561134D02*
X15824944Y-21608753D01*
X15824944Y-21608753D02*
X15815420Y-21646849D01*
X15815420Y-21646849D02*
X15805896Y-21665896D01*
X15805896Y-21665896D02*
X15796372Y-21675420D01*
X15796372Y-21675420D02*
X15777325Y-21684944D01*
X15777325Y-21684944D02*
X15758277Y-21684944D01*
X15758277Y-21684944D02*
X15739229Y-21675420D01*
X15739229Y-21675420D02*
X15729706Y-21665896D01*
X15729706Y-21665896D02*
X15720182Y-21646849D01*
X15720182Y-21646849D02*
X15710658Y-21608753D01*
X15710658Y-21608753D02*
X15710658Y-21561134D01*
X15710658Y-21561134D02*
X15720182Y-21523039D01*
X15720182Y-21523039D02*
X15729706Y-21503991D01*
X15729706Y-21503991D02*
X15739229Y-21494468D01*
X15739229Y-21494468D02*
X15758277Y-21484944D01*
X15901134Y-21484944D02*
X15901134Y-21523039D01*
X15977325Y-21484944D02*
X15977325Y-21523039D01*
X16272563Y-21761134D02*
X16263039Y-21751610D01*
X16263039Y-21751610D02*
X16243991Y-21723039D01*
X16243991Y-21723039D02*
X16234468Y-21703991D01*
X16234468Y-21703991D02*
X16224944Y-21675420D01*
X16224944Y-21675420D02*
X16215420Y-21627801D01*
X16215420Y-21627801D02*
X16215420Y-21589706D01*
X16215420Y-21589706D02*
X16224944Y-21542087D01*
X16224944Y-21542087D02*
X16234468Y-21513515D01*
X16234468Y-21513515D02*
X16243991Y-21494468D01*
X16243991Y-21494468D02*
X16263039Y-21465896D01*
X16263039Y-21465896D02*
X16272563Y-21456372D01*
X16377325Y-21570658D02*
X16358277Y-21561134D01*
X16358277Y-21561134D02*
X16348753Y-21551610D01*
X16348753Y-21551610D02*
X16339229Y-21532563D01*
X16339229Y-21532563D02*
X16339229Y-21523039D01*
X16339229Y-21523039D02*
X16348753Y-21503991D01*
X16348753Y-21503991D02*
X16358277Y-21494468D01*
X16358277Y-21494468D02*
X16377325Y-21484944D01*
X16377325Y-21484944D02*
X16415420Y-21484944D01*
X16415420Y-21484944D02*
X16434468Y-21494468D01*
X16434468Y-21494468D02*
X16443991Y-21503991D01*
X16443991Y-21503991D02*
X16453515Y-21523039D01*
X16453515Y-21523039D02*
X16453515Y-21532563D01*
X16453515Y-21532563D02*
X16443991Y-21551610D01*
X16443991Y-21551610D02*
X16434468Y-21561134D01*
X16434468Y-21561134D02*
X16415420Y-21570658D01*
X16415420Y-21570658D02*
X16377325Y-21570658D01*
X16377325Y-21570658D02*
X16358277Y-21580182D01*
X16358277Y-21580182D02*
X16348753Y-21589706D01*
X16348753Y-21589706D02*
X16339229Y-21608753D01*
X16339229Y-21608753D02*
X16339229Y-21646849D01*
X16339229Y-21646849D02*
X16348753Y-21665896D01*
X16348753Y-21665896D02*
X16358277Y-21675420D01*
X16358277Y-21675420D02*
X16377325Y-21684944D01*
X16377325Y-21684944D02*
X16415420Y-21684944D01*
X16415420Y-21684944D02*
X16434468Y-21675420D01*
X16434468Y-21675420D02*
X16443991Y-21665896D01*
X16443991Y-21665896D02*
X16453515Y-21646849D01*
X16453515Y-21646849D02*
X16453515Y-21608753D01*
X16453515Y-21608753D02*
X16443991Y-21589706D01*
X16443991Y-21589706D02*
X16434468Y-21580182D01*
X16434468Y-21580182D02*
X16415420Y-21570658D01*
X16691610Y-21684944D02*
X16691610Y-21484944D01*
X16777325Y-21684944D02*
X16777325Y-21580182D01*
X16777325Y-21580182D02*
X16767801Y-21561134D01*
X16767801Y-21561134D02*
X16748753Y-21551610D01*
X16748753Y-21551610D02*
X16720182Y-21551610D01*
X16720182Y-21551610D02*
X16701134Y-21561134D01*
X16701134Y-21561134D02*
X16691610Y-21570658D01*
X16901134Y-21684944D02*
X16882087Y-21675420D01*
X16882087Y-21675420D02*
X16872563Y-21665896D01*
X16872563Y-21665896D02*
X16863039Y-21646849D01*
X16863039Y-21646849D02*
X16863039Y-21589706D01*
X16863039Y-21589706D02*
X16872563Y-21570658D01*
X16872563Y-21570658D02*
X16882087Y-21561134D01*
X16882087Y-21561134D02*
X16901134Y-21551610D01*
X16901134Y-21551610D02*
X16929706Y-21551610D01*
X16929706Y-21551610D02*
X16948753Y-21561134D01*
X16948753Y-21561134D02*
X16958277Y-21570658D01*
X16958277Y-21570658D02*
X16967801Y-21589706D01*
X16967801Y-21589706D02*
X16967801Y-21646849D01*
X16967801Y-21646849D02*
X16958277Y-21665896D01*
X16958277Y-21665896D02*
X16948753Y-21675420D01*
X16948753Y-21675420D02*
X16929706Y-21684944D01*
X16929706Y-21684944D02*
X16901134Y-21684944D01*
X17082087Y-21684944D02*
X17063039Y-21675420D01*
X17063039Y-21675420D02*
X17053515Y-21656372D01*
X17053515Y-21656372D02*
X17053515Y-21484944D01*
X17234468Y-21675420D02*
X17215420Y-21684944D01*
X17215420Y-21684944D02*
X17177325Y-21684944D01*
X17177325Y-21684944D02*
X17158277Y-21675420D01*
X17158277Y-21675420D02*
X17148753Y-21656372D01*
X17148753Y-21656372D02*
X17148753Y-21580182D01*
X17148753Y-21580182D02*
X17158277Y-21561134D01*
X17158277Y-21561134D02*
X17177325Y-21551610D01*
X17177325Y-21551610D02*
X17215420Y-21551610D01*
X17215420Y-21551610D02*
X17234468Y-21561134D01*
X17234468Y-21561134D02*
X17243992Y-21580182D01*
X17243992Y-21580182D02*
X17243992Y-21599230D01*
X17243992Y-21599230D02*
X17148753Y-21618277D01*
X17320182Y-21675420D02*
X17339230Y-21684944D01*
X17339230Y-21684944D02*
X17377325Y-21684944D01*
X17377325Y-21684944D02*
X17396373Y-21675420D01*
X17396373Y-21675420D02*
X17405896Y-21656372D01*
X17405896Y-21656372D02*
X17405896Y-21646849D01*
X17405896Y-21646849D02*
X17396373Y-21627801D01*
X17396373Y-21627801D02*
X17377325Y-21618277D01*
X17377325Y-21618277D02*
X17348753Y-21618277D01*
X17348753Y-21618277D02*
X17329706Y-21608753D01*
X17329706Y-21608753D02*
X17320182Y-21589706D01*
X17320182Y-21589706D02*
X17320182Y-21580182D01*
X17320182Y-21580182D02*
X17329706Y-21561134D01*
X17329706Y-21561134D02*
X17348753Y-21551610D01*
X17348753Y-21551610D02*
X17377325Y-21551610D01*
X17377325Y-21551610D02*
X17396373Y-21561134D01*
X17472563Y-21761134D02*
X17482087Y-21751610D01*
X17482087Y-21751610D02*
X17501134Y-21723039D01*
X17501134Y-21723039D02*
X17510658Y-21703991D01*
X17510658Y-21703991D02*
X17520182Y-21675420D01*
X17520182Y-21675420D02*
X17529706Y-21627801D01*
X17529706Y-21627801D02*
X17529706Y-21589706D01*
X17529706Y-21589706D02*
X17520182Y-21542087D01*
X17520182Y-21542087D02*
X17510658Y-21513515D01*
X17510658Y-21513515D02*
X17501134Y-21494468D01*
X17501134Y-21494468D02*
X17482087Y-21465896D01*
X17482087Y-21465896D02*
X17472563Y-21456372D01*
X12597500Y-21783640D02*
X12597500Y-21983640D01*
X12497500Y-21883640D02*
X12697500Y-21883640D01*
X12697500Y-21883640D02*
G75*
G02*
X12497500Y-21883640I-100000J0D01*
G01*
X12497500Y-21883640D02*
G75*
G02*
X12697500Y-21883640I100000J0D01*
G01*
X12939229Y-21775124D02*
X13063039Y-21775124D01*
X13063039Y-21775124D02*
X12996372Y-21851314D01*
X12996372Y-21851314D02*
X13024943Y-21851314D01*
X13024943Y-21851314D02*
X13043991Y-21860838D01*
X13043991Y-21860838D02*
X13053515Y-21870362D01*
X13053515Y-21870362D02*
X13063039Y-21889410D01*
X13063039Y-21889410D02*
X13063039Y-21937029D01*
X13063039Y-21937029D02*
X13053515Y-21956076D01*
X13053515Y-21956076D02*
X13043991Y-21965600D01*
X13043991Y-21965600D02*
X13024943Y-21975124D01*
X13024943Y-21975124D02*
X12967801Y-21975124D01*
X12967801Y-21975124D02*
X12948753Y-21965600D01*
X12948753Y-21965600D02*
X12939229Y-21956076D01*
X13148753Y-21956076D02*
X13158277Y-21965600D01*
X13158277Y-21965600D02*
X13148753Y-21975124D01*
X13148753Y-21975124D02*
X13139229Y-21965600D01*
X13139229Y-21965600D02*
X13148753Y-21956076D01*
X13148753Y-21956076D02*
X13148753Y-21975124D01*
X13234467Y-21794171D02*
X13243991Y-21784648D01*
X13243991Y-21784648D02*
X13263039Y-21775124D01*
X13263039Y-21775124D02*
X13310658Y-21775124D01*
X13310658Y-21775124D02*
X13329705Y-21784648D01*
X13329705Y-21784648D02*
X13339229Y-21794171D01*
X13339229Y-21794171D02*
X13348753Y-21813219D01*
X13348753Y-21813219D02*
X13348753Y-21832267D01*
X13348753Y-21832267D02*
X13339229Y-21860838D01*
X13339229Y-21860838D02*
X13224943Y-21975124D01*
X13224943Y-21975124D02*
X13348753Y-21975124D01*
X13472562Y-21775124D02*
X13491610Y-21775124D01*
X13491610Y-21775124D02*
X13510658Y-21784648D01*
X13510658Y-21784648D02*
X13520182Y-21794171D01*
X13520182Y-21794171D02*
X13529705Y-21813219D01*
X13529705Y-21813219D02*
X13539229Y-21851314D01*
X13539229Y-21851314D02*
X13539229Y-21898933D01*
X13539229Y-21898933D02*
X13529705Y-21937029D01*
X13529705Y-21937029D02*
X13520182Y-21956076D01*
X13520182Y-21956076D02*
X13510658Y-21965600D01*
X13510658Y-21965600D02*
X13491610Y-21975124D01*
X13491610Y-21975124D02*
X13472562Y-21975124D01*
X13472562Y-21975124D02*
X13453515Y-21965600D01*
X13453515Y-21965600D02*
X13443991Y-21956076D01*
X13443991Y-21956076D02*
X13434467Y-21937029D01*
X13434467Y-21937029D02*
X13424943Y-21898933D01*
X13424943Y-21898933D02*
X13424943Y-21851314D01*
X13424943Y-21851314D02*
X13434467Y-21813219D01*
X13434467Y-21813219D02*
X13443991Y-21794171D01*
X13443991Y-21794171D02*
X13453515Y-21784648D01*
X13453515Y-21784648D02*
X13472562Y-21775124D01*
X13663039Y-21775124D02*
X13682086Y-21775124D01*
X13682086Y-21775124D02*
X13701134Y-21784648D01*
X13701134Y-21784648D02*
X13710658Y-21794171D01*
X13710658Y-21794171D02*
X13720182Y-21813219D01*
X13720182Y-21813219D02*
X13729705Y-21851314D01*
X13729705Y-21851314D02*
X13729705Y-21898933D01*
X13729705Y-21898933D02*
X13720182Y-21937029D01*
X13720182Y-21937029D02*
X13710658Y-21956076D01*
X13710658Y-21956076D02*
X13701134Y-21965600D01*
X13701134Y-21965600D02*
X13682086Y-21975124D01*
X13682086Y-21975124D02*
X13663039Y-21975124D01*
X13663039Y-21975124D02*
X13643991Y-21965600D01*
X13643991Y-21965600D02*
X13634467Y-21956076D01*
X13634467Y-21956076D02*
X13624943Y-21937029D01*
X13624943Y-21937029D02*
X13615420Y-21898933D01*
X13615420Y-21898933D02*
X13615420Y-21851314D01*
X13615420Y-21851314D02*
X13624943Y-21813219D01*
X13624943Y-21813219D02*
X13634467Y-21794171D01*
X13634467Y-21794171D02*
X13643991Y-21784648D01*
X13643991Y-21784648D02*
X13663039Y-21775124D01*
X13815420Y-21975124D02*
X13815420Y-21841790D01*
X13815420Y-21860838D02*
X13824943Y-21851314D01*
X13824943Y-21851314D02*
X13843991Y-21841790D01*
X13843991Y-21841790D02*
X13872563Y-21841790D01*
X13872563Y-21841790D02*
X13891610Y-21851314D01*
X13891610Y-21851314D02*
X13901134Y-21870362D01*
X13901134Y-21870362D02*
X13901134Y-21975124D01*
X13901134Y-21870362D02*
X13910658Y-21851314D01*
X13910658Y-21851314D02*
X13929705Y-21841790D01*
X13929705Y-21841790D02*
X13958277Y-21841790D01*
X13958277Y-21841790D02*
X13977324Y-21851314D01*
X13977324Y-21851314D02*
X13986848Y-21870362D01*
X13986848Y-21870362D02*
X13986848Y-21975124D01*
X14082086Y-21975124D02*
X14082086Y-21841790D01*
X14082086Y-21860838D02*
X14091610Y-21851314D01*
X14091610Y-21851314D02*
X14110658Y-21841790D01*
X14110658Y-21841790D02*
X14139229Y-21841790D01*
X14139229Y-21841790D02*
X14158277Y-21851314D01*
X14158277Y-21851314D02*
X14167801Y-21870362D01*
X14167801Y-21870362D02*
X14167801Y-21975124D01*
X14167801Y-21870362D02*
X14177324Y-21851314D01*
X14177324Y-21851314D02*
X14196372Y-21841790D01*
X14196372Y-21841790D02*
X14224943Y-21841790D01*
X14224943Y-21841790D02*
X14243991Y-21851314D01*
X14243991Y-21851314D02*
X14253515Y-21870362D01*
X14253515Y-21870362D02*
X14253515Y-21975124D01*
X14643991Y-21765600D02*
X14472563Y-22022743D01*
X14901134Y-21775124D02*
X14920182Y-21775124D01*
X14920182Y-21775124D02*
X14939229Y-21784648D01*
X14939229Y-21784648D02*
X14948753Y-21794171D01*
X14948753Y-21794171D02*
X14958277Y-21813219D01*
X14958277Y-21813219D02*
X14967801Y-21851314D01*
X14967801Y-21851314D02*
X14967801Y-21898933D01*
X14967801Y-21898933D02*
X14958277Y-21937029D01*
X14958277Y-21937029D02*
X14948753Y-21956076D01*
X14948753Y-21956076D02*
X14939229Y-21965600D01*
X14939229Y-21965600D02*
X14920182Y-21975124D01*
X14920182Y-21975124D02*
X14901134Y-21975124D01*
X14901134Y-21975124D02*
X14882086Y-21965600D01*
X14882086Y-21965600D02*
X14872563Y-21956076D01*
X14872563Y-21956076D02*
X14863039Y-21937029D01*
X14863039Y-21937029D02*
X14853515Y-21898933D01*
X14853515Y-21898933D02*
X14853515Y-21851314D01*
X14853515Y-21851314D02*
X14863039Y-21813219D01*
X14863039Y-21813219D02*
X14872563Y-21794171D01*
X14872563Y-21794171D02*
X14882086Y-21784648D01*
X14882086Y-21784648D02*
X14901134Y-21775124D01*
X15053515Y-21956076D02*
X15063039Y-21965600D01*
X15063039Y-21965600D02*
X15053515Y-21975124D01*
X15053515Y-21975124D02*
X15043991Y-21965600D01*
X15043991Y-21965600D02*
X15053515Y-21956076D01*
X15053515Y-21956076D02*
X15053515Y-21975124D01*
X15253515Y-21975124D02*
X15139229Y-21975124D01*
X15196372Y-21975124D02*
X15196372Y-21775124D01*
X15196372Y-21775124D02*
X15177325Y-21803695D01*
X15177325Y-21803695D02*
X15158277Y-21822743D01*
X15158277Y-21822743D02*
X15139229Y-21832267D01*
X15329706Y-21794171D02*
X15339229Y-21784648D01*
X15339229Y-21784648D02*
X15358277Y-21775124D01*
X15358277Y-21775124D02*
X15405896Y-21775124D01*
X15405896Y-21775124D02*
X15424944Y-21784648D01*
X15424944Y-21784648D02*
X15434467Y-21794171D01*
X15434467Y-21794171D02*
X15443991Y-21813219D01*
X15443991Y-21813219D02*
X15443991Y-21832267D01*
X15443991Y-21832267D02*
X15434467Y-21860838D01*
X15434467Y-21860838D02*
X15320182Y-21975124D01*
X15320182Y-21975124D02*
X15443991Y-21975124D01*
X15615420Y-21775124D02*
X15577325Y-21775124D01*
X15577325Y-21775124D02*
X15558277Y-21784648D01*
X15558277Y-21784648D02*
X15548753Y-21794171D01*
X15548753Y-21794171D02*
X15529706Y-21822743D01*
X15529706Y-21822743D02*
X15520182Y-21860838D01*
X15520182Y-21860838D02*
X15520182Y-21937029D01*
X15520182Y-21937029D02*
X15529706Y-21956076D01*
X15529706Y-21956076D02*
X15539229Y-21965600D01*
X15539229Y-21965600D02*
X15558277Y-21975124D01*
X15558277Y-21975124D02*
X15596372Y-21975124D01*
X15596372Y-21975124D02*
X15615420Y-21965600D01*
X15615420Y-21965600D02*
X15624944Y-21956076D01*
X15624944Y-21956076D02*
X15634467Y-21937029D01*
X15634467Y-21937029D02*
X15634467Y-21889410D01*
X15634467Y-21889410D02*
X15624944Y-21870362D01*
X15624944Y-21870362D02*
X15615420Y-21860838D01*
X15615420Y-21860838D02*
X15596372Y-21851314D01*
X15596372Y-21851314D02*
X15558277Y-21851314D01*
X15558277Y-21851314D02*
X15539229Y-21860838D01*
X15539229Y-21860838D02*
X15529706Y-21870362D01*
X15529706Y-21870362D02*
X15520182Y-21889410D01*
X15758277Y-21775124D02*
X15777325Y-21775124D01*
X15777325Y-21775124D02*
X15796372Y-21784648D01*
X15796372Y-21784648D02*
X15805896Y-21794171D01*
X15805896Y-21794171D02*
X15815420Y-21813219D01*
X15815420Y-21813219D02*
X15824944Y-21851314D01*
X15824944Y-21851314D02*
X15824944Y-21898933D01*
X15824944Y-21898933D02*
X15815420Y-21937029D01*
X15815420Y-21937029D02*
X15805896Y-21956076D01*
X15805896Y-21956076D02*
X15796372Y-21965600D01*
X15796372Y-21965600D02*
X15777325Y-21975124D01*
X15777325Y-21975124D02*
X15758277Y-21975124D01*
X15758277Y-21975124D02*
X15739229Y-21965600D01*
X15739229Y-21965600D02*
X15729706Y-21956076D01*
X15729706Y-21956076D02*
X15720182Y-21937029D01*
X15720182Y-21937029D02*
X15710658Y-21898933D01*
X15710658Y-21898933D02*
X15710658Y-21851314D01*
X15710658Y-21851314D02*
X15720182Y-21813219D01*
X15720182Y-21813219D02*
X15729706Y-21794171D01*
X15729706Y-21794171D02*
X15739229Y-21784648D01*
X15739229Y-21784648D02*
X15758277Y-21775124D01*
X15901134Y-21775124D02*
X15901134Y-21813219D01*
X15977325Y-21775124D02*
X15977325Y-21813219D01*
X16272563Y-22051314D02*
X16263039Y-22041790D01*
X16263039Y-22041790D02*
X16243991Y-22013219D01*
X16243991Y-22013219D02*
X16234468Y-21994171D01*
X16234468Y-21994171D02*
X16224944Y-21965600D01*
X16224944Y-21965600D02*
X16215420Y-21917981D01*
X16215420Y-21917981D02*
X16215420Y-21879886D01*
X16215420Y-21879886D02*
X16224944Y-21832267D01*
X16224944Y-21832267D02*
X16234468Y-21803695D01*
X16234468Y-21803695D02*
X16243991Y-21784648D01*
X16243991Y-21784648D02*
X16263039Y-21756076D01*
X16263039Y-21756076D02*
X16272563Y-21746552D01*
X16453515Y-21975124D02*
X16339229Y-21975124D01*
X16396372Y-21975124D02*
X16396372Y-21775124D01*
X16396372Y-21775124D02*
X16377325Y-21803695D01*
X16377325Y-21803695D02*
X16358277Y-21822743D01*
X16358277Y-21822743D02*
X16339229Y-21832267D01*
X16624944Y-21841790D02*
X16624944Y-21975124D01*
X16577325Y-21765600D02*
X16529706Y-21908457D01*
X16529706Y-21908457D02*
X16653515Y-21908457D01*
X16882087Y-21975124D02*
X16882087Y-21775124D01*
X16967801Y-21975124D02*
X16967801Y-21870362D01*
X16967801Y-21870362D02*
X16958277Y-21851314D01*
X16958277Y-21851314D02*
X16939230Y-21841790D01*
X16939230Y-21841790D02*
X16910658Y-21841790D01*
X16910658Y-21841790D02*
X16891611Y-21851314D01*
X16891611Y-21851314D02*
X16882087Y-21860838D01*
X17091611Y-21975124D02*
X17072563Y-21965600D01*
X17072563Y-21965600D02*
X17063039Y-21956076D01*
X17063039Y-21956076D02*
X17053515Y-21937029D01*
X17053515Y-21937029D02*
X17053515Y-21879886D01*
X17053515Y-21879886D02*
X17063039Y-21860838D01*
X17063039Y-21860838D02*
X17072563Y-21851314D01*
X17072563Y-21851314D02*
X17091611Y-21841790D01*
X17091611Y-21841790D02*
X17120182Y-21841790D01*
X17120182Y-21841790D02*
X17139230Y-21851314D01*
X17139230Y-21851314D02*
X17148753Y-21860838D01*
X17148753Y-21860838D02*
X17158277Y-21879886D01*
X17158277Y-21879886D02*
X17158277Y-21937029D01*
X17158277Y-21937029D02*
X17148753Y-21956076D01*
X17148753Y-21956076D02*
X17139230Y-21965600D01*
X17139230Y-21965600D02*
X17120182Y-21975124D01*
X17120182Y-21975124D02*
X17091611Y-21975124D01*
X17272563Y-21975124D02*
X17253515Y-21965600D01*
X17253515Y-21965600D02*
X17243992Y-21946552D01*
X17243992Y-21946552D02*
X17243992Y-21775124D01*
X17424944Y-21965600D02*
X17405896Y-21975124D01*
X17405896Y-21975124D02*
X17367801Y-21975124D01*
X17367801Y-21975124D02*
X17348753Y-21965600D01*
X17348753Y-21965600D02*
X17339230Y-21946552D01*
X17339230Y-21946552D02*
X17339230Y-21870362D01*
X17339230Y-21870362D02*
X17348753Y-21851314D01*
X17348753Y-21851314D02*
X17367801Y-21841790D01*
X17367801Y-21841790D02*
X17405896Y-21841790D01*
X17405896Y-21841790D02*
X17424944Y-21851314D01*
X17424944Y-21851314D02*
X17434468Y-21870362D01*
X17434468Y-21870362D02*
X17434468Y-21889410D01*
X17434468Y-21889410D02*
X17339230Y-21908457D01*
X17510658Y-21965600D02*
X17529706Y-21975124D01*
X17529706Y-21975124D02*
X17567801Y-21975124D01*
X17567801Y-21975124D02*
X17586849Y-21965600D01*
X17586849Y-21965600D02*
X17596373Y-21946552D01*
X17596373Y-21946552D02*
X17596373Y-21937029D01*
X17596373Y-21937029D02*
X17586849Y-21917981D01*
X17586849Y-21917981D02*
X17567801Y-21908457D01*
X17567801Y-21908457D02*
X17539230Y-21908457D01*
X17539230Y-21908457D02*
X17520182Y-21898933D01*
X17520182Y-21898933D02*
X17510658Y-21879886D01*
X17510658Y-21879886D02*
X17510658Y-21870362D01*
X17510658Y-21870362D02*
X17520182Y-21851314D01*
X17520182Y-21851314D02*
X17539230Y-21841790D01*
X17539230Y-21841790D02*
X17567801Y-21841790D01*
X17567801Y-21841790D02*
X17586849Y-21851314D01*
X17663039Y-22051314D02*
X17672563Y-22041790D01*
X17672563Y-22041790D02*
X17691611Y-22013219D01*
X17691611Y-22013219D02*
X17701134Y-21994171D01*
X17701134Y-21994171D02*
X17710658Y-21965600D01*
X17710658Y-21965600D02*
X17720182Y-21917981D01*
X17720182Y-21917981D02*
X17720182Y-21879886D01*
X17720182Y-21879886D02*
X17710658Y-21832267D01*
X17710658Y-21832267D02*
X17701134Y-21803695D01*
X17701134Y-21803695D02*
X17691611Y-21784648D01*
X17691611Y-21784648D02*
X17672563Y-21756076D01*
X17672563Y-21756076D02*
X17663039Y-21746552D01*
M02*
