%TF.GenerationSoftware,KiCad,Pcbnew,8.0.6*%
%TF.CreationDate,2025-05-15T16:07:21-04:00*%
%TF.ProjectId,2 - COLD_TPC_P25M5,32202d20-434f-44c4-945f-5450435f5032,rev?*%
%TF.SameCoordinates,Original*%
%TF.FileFunction,Copper,L8,Inr*%
%TF.FilePolarity,Positive*%
%FSLAX46Y46*%
G04 Gerber Fmt 4.6, Leading zero omitted, Abs format (unit mm)*
G04 Created by KiCad (PCBNEW 8.0.6) date 2025-05-15 16:07:21*
%MOMM*%
%LPD*%
G01*
G04 APERTURE LIST*
%TA.AperFunction,ComponentPad*%
%ADD10C,2.800000*%
%TD*%
%TA.AperFunction,ComponentPad*%
%ADD11C,6.400000*%
%TD*%
%TA.AperFunction,ComponentPad*%
%ADD12R,2.000000X2.000000*%
%TD*%
%TA.AperFunction,ComponentPad*%
%ADD13C,2.000000*%
%TD*%
%TA.AperFunction,ComponentPad*%
%ADD14C,2.159000*%
%TD*%
%TA.AperFunction,ComponentPad*%
%ADD15C,1.560000*%
%TD*%
%TA.AperFunction,ComponentPad*%
%ADD16C,4.216000*%
%TD*%
%TA.AperFunction,ComponentPad*%
%ADD17C,1.575000*%
%TD*%
%TA.AperFunction,ComponentPad*%
%ADD18C,1.635000*%
%TD*%
%TA.AperFunction,ComponentPad*%
%ADD19C,2.006600*%
%TD*%
%TA.AperFunction,ComponentPad*%
%ADD20C,2.209800*%
%TD*%
%TA.AperFunction,ViaPad*%
%ADD21C,0.600000*%
%TD*%
G04 APERTURE END LIST*
D10*
%TO.N,/SEC_PWR_RTN*%
%TO.C,+12V_RTN1*%
X155090000Y-149640000D03*
%TD*%
D11*
%TO.N,CHASSIS*%
%TO.C,H5*%
X135000000Y-56000000D03*
%TD*%
%TO.N,CHASSIS*%
%TO.C,H7*%
X249000000Y-118000000D03*
%TD*%
%TO.N,CHASSIS*%
%TO.C,H6*%
X249000000Y-178000000D03*
%TD*%
%TO.N,CHASSIS*%
%TO.C,H3*%
X185000000Y-146000000D03*
%TD*%
D12*
%TO.N,/SiPM/SiPM_LV_Supply/SiPM_LV1/V_POS*%
%TO.C,U4*%
X194395000Y-131470000D03*
D13*
%TO.N,/SiPM/SiPM_LV_Supply/SiPM_LV1/V_RTN*%
X194395000Y-126370000D03*
%TO.N,/SiPM/SiPM_LV_Supply/SiPM_LV/V_Out_RTN*%
X214695000Y-139170000D03*
%TO.N,/SiPM/SiPM_LV_Supply/SiPM_LV1/TRIM*%
X214695000Y-128970000D03*
%TO.N,/SiPM/M5V*%
X214695000Y-118770000D03*
%TO.N,/SiPM/SiPM_LV_Supply/SiPM_LV/Enable*%
X194395000Y-118770000D03*
%TD*%
D14*
%TO.N,Net-(P1-Pad1)*%
%TO.C,P1*%
X212960000Y-93500000D03*
%TD*%
D10*
%TO.N,/P_SEC_TELEM_PWR*%
%TO.C,+5V1*%
X144520000Y-83000000D03*
%TD*%
D14*
%TO.N,Net-(M6-Pad3)*%
%TO.C,P4*%
X213060000Y-71180000D03*
%TD*%
%TO.N,Net-(P3-Pad1)*%
%TO.C,P3*%
X212970000Y-82510000D03*
%TD*%
D15*
%TO.N,/SEC_PWR_RTN*%
%TO.C,J1*%
X138030000Y-140575000D03*
X138030000Y-143345000D03*
%TO.N,unconnected-(J1-Pad3)*%
X138030000Y-146115000D03*
%TO.N,/SEC_PWR_RTN*%
X138030000Y-148885000D03*
X138030000Y-151655000D03*
%TO.N,/SEC_PWR_IN*%
X135190000Y-141960000D03*
X135190000Y-144730000D03*
X135190000Y-147500000D03*
X135190000Y-150270000D03*
D16*
%TO.N,CHASSIS*%
X136610000Y-133615000D03*
X136610000Y-158615000D03*
%TD*%
D10*
%TO.N,/SiPM/SiPM_LV_Supply/SiPM_LV/Enable*%
%TO.C,V_{EN}1*%
X170690000Y-114050000D03*
%TD*%
D17*
%TO.N,/SiPM_LV_Enable-*%
%TO.C,J3*%
X168434000Y-62350000D03*
%TO.N,/SiPM_LV_Enable+*%
X170724000Y-62350000D03*
%TO.N,/P2p5V_TELEM*%
X173014000Y-62350000D03*
%TO.N,/M5p0V_Telem*%
X175304000Y-62350000D03*
%TO.N,/P2p5_I_MON*%
X177594000Y-62350000D03*
%TO.N,/SEC_PWR_TELEM_RTN*%
X167289000Y-59810000D03*
X169579000Y-59810000D03*
X171869000Y-59810000D03*
X174159000Y-59810000D03*
X176449000Y-59810000D03*
%TO.N,/TEMP_TELEM*%
X168434000Y-57270000D03*
%TO.N,/SEC_PWR_TELEM_RTN*%
X170724000Y-57270000D03*
X173014000Y-57270000D03*
X175304000Y-57270000D03*
%TO.N,/M5V_I_MON*%
X177594000Y-57270000D03*
D16*
%TO.N,CHASSIS*%
X185255000Y-59810000D03*
X160265000Y-59810000D03*
%TD*%
D18*
%TO.N,/SEC_PWR_TELEM_RTN*%
%TO.C,J2*%
X137933250Y-96630000D03*
X137933250Y-93860000D03*
%TO.N,unconnected-(J2-Pad3)*%
X137933250Y-91090000D03*
%TO.N,/SEC_PWR_TELEM_RTN*%
X137933250Y-88320000D03*
X137933250Y-85550000D03*
%TO.N,/N_SEC_TELEM_PWR*%
X135093250Y-95245000D03*
X135093250Y-92475000D03*
%TO.N,/P_SEC_TELEM_PWR*%
X135093250Y-89705000D03*
X135093250Y-86935000D03*
D16*
%TO.N,CHASSIS*%
X136513250Y-78590000D03*
X136513250Y-103590000D03*
%TD*%
D11*
%TO.N,CHASSIS*%
%TO.C,H8*%
X135000000Y-118000000D03*
%TD*%
D14*
%TO.N,Net-(M5-Pad3)*%
%TO.C,P2*%
X212960000Y-104170000D03*
%TD*%
D11*
%TO.N,CHASSIS*%
%TO.C,H4*%
X185000000Y-178000000D03*
%TD*%
D19*
%TO.N,/SiPM/SiPM_LV_m5p0V*%
%TO.C,J5*%
X250000000Y-129780000D03*
D20*
%TO.N,/SiPM/SiPM_LV_Supply/SiPM_LV/V_Out_RTN*%
X252540000Y-127240000D03*
X247460000Y-127240000D03*
X247460000Y-132320000D03*
X252540000Y-132320000D03*
%TD*%
D10*
%TO.N,/SEC_PWR_IN*%
%TO.C,+12V1*%
X155090000Y-139890000D03*
%TD*%
%TO.N,/N_SEC_TELEM_PWR*%
%TO.C,-5V1*%
X144690000Y-100630000D03*
%TD*%
D19*
%TO.N,/SiPM/SiPM_LV_p2p5V*%
%TO.C,J4*%
X250000000Y-156110000D03*
D20*
%TO.N,/SiPM/SiPM_LV_Supply/SiPM_LV/V_Out_RTN*%
X252540000Y-153570000D03*
X247460000Y-153570000D03*
X247460000Y-158650000D03*
X252540000Y-158650000D03*
%TD*%
D11*
%TO.N,CHASSIS*%
%TO.C,H2*%
X135000000Y-178000000D03*
%TD*%
%TO.N,CHASSIS*%
%TO.C,H1*%
X249000000Y-56000000D03*
%TD*%
D12*
%TO.N,/SiPM/SiPM_LV_Supply/SiPM_LV/V_POS*%
%TO.C,U3*%
X194387500Y-165890000D03*
D13*
%TO.N,/SiPM/SiPM_LV_Supply/SiPM_LV/V_RTN*%
X194387500Y-160790000D03*
%TO.N,/SiPM/SiPM_LV_Supply/SiPM_LV/V_Out*%
X214687500Y-173590000D03*
%TO.N,/SiPM/SiPM_LV_Supply/SiPM_LV/TRIM*%
X214687500Y-163390000D03*
%TO.N,/SiPM/SiPM_LV_Supply/SiPM_LV/V_Out_RTN*%
X214687500Y-153190000D03*
%TO.N,/SiPM/SiPM_LV_Supply/SiPM_LV/Enable*%
X194387500Y-153190000D03*
%TD*%
D10*
%TO.N,/SEC_PWR_TELEM_RTN*%
%TO.C,Telem_RTN1*%
X165350000Y-84050000D03*
%TD*%
%TO.N,/SiPM/SiPM_LV_Supply/SiPM_LV/V_Out_RTN*%
%TO.C,V_{OUT_RTN}1*%
X223490000Y-147150000D03*
%TD*%
D21*
%TO.N,/SiPM/pV3p3*%
X237680000Y-133980000D03*
X181240000Y-105120000D03*
X181240000Y-76390000D03*
X243400000Y-133990000D03*
X243480000Y-106490000D03*
X181240000Y-72460000D03*
X172310000Y-72450000D03*
X181234150Y-85760000D03*
X243400000Y-149970000D03*
X236550000Y-151610000D03*
X158970000Y-77145000D03*
%TO.N,/SEC_PWR_RTN*%
X154017500Y-158820000D03*
X177800000Y-152400000D03*
X147320000Y-152400000D03*
X213360000Y-111760000D03*
X218440000Y-177800000D03*
X243840000Y-177800000D03*
X147320000Y-167640000D03*
X238760000Y-121920000D03*
X223520000Y-142240000D03*
X152400000Y-137160000D03*
X233680000Y-177800000D03*
X147320000Y-162560000D03*
X147320000Y-132080000D03*
X152635000Y-126775000D03*
X152747500Y-160090000D03*
X218440000Y-116840000D03*
X151365000Y-125505000D03*
X198120000Y-111760000D03*
X208280000Y-182880000D03*
X238760000Y-177800000D03*
X248920000Y-182880000D03*
X193040000Y-177800000D03*
X198120000Y-177800000D03*
X157480000Y-162560000D03*
X172720000Y-172720000D03*
X177800000Y-177800000D03*
X178250000Y-112050000D03*
X142240000Y-157480000D03*
X157480000Y-177800000D03*
X198120000Y-147320000D03*
X182880000Y-152400000D03*
X153905000Y-125505000D03*
X172720000Y-182880000D03*
X152400000Y-147320000D03*
X152400000Y-142240000D03*
X233680000Y-172720000D03*
X238760000Y-182880000D03*
X167640000Y-172720000D03*
X152400000Y-177800000D03*
X152400000Y-152400000D03*
X167640000Y-147320000D03*
X152747500Y-158820000D03*
X155175000Y-124235000D03*
X147320000Y-121920000D03*
X167640000Y-142240000D03*
X167640000Y-137160000D03*
X187960000Y-182880000D03*
X155287500Y-161360000D03*
X132080000Y-182880000D03*
X223520000Y-111760000D03*
X157480000Y-147320000D03*
X172720000Y-152400000D03*
X151365000Y-126775000D03*
X157480000Y-152400000D03*
X198120000Y-182880000D03*
X167640000Y-157480000D03*
X208280000Y-111760000D03*
X187960000Y-157480000D03*
X228600000Y-182880000D03*
X142240000Y-152400000D03*
X208280000Y-177800000D03*
X132080000Y-172720000D03*
X137160000Y-172720000D03*
X248920000Y-162560000D03*
X233680000Y-147320000D03*
X162560000Y-147320000D03*
X132080000Y-127000000D03*
X151477500Y-161360000D03*
X187960000Y-172720000D03*
X233680000Y-137160000D03*
X147320000Y-157480000D03*
X182880000Y-172720000D03*
X218440000Y-137160000D03*
X151477500Y-160090000D03*
X218440000Y-147320000D03*
X142240000Y-182880000D03*
X243840000Y-172720000D03*
X157480000Y-157480000D03*
X193040000Y-147320000D03*
X157480000Y-121920000D03*
X228600000Y-177800000D03*
X147320000Y-177800000D03*
X177800000Y-182880000D03*
X233680000Y-142240000D03*
X142240000Y-167640000D03*
X137160000Y-162560000D03*
X154017500Y-160090000D03*
X180140000Y-112050000D03*
X137160000Y-127000000D03*
X177800000Y-116840000D03*
X177800000Y-147320000D03*
X162560000Y-121920000D03*
X152747500Y-161360000D03*
X223520000Y-182880000D03*
X142240000Y-137160000D03*
X213360000Y-177800000D03*
X218440000Y-152400000D03*
X152400000Y-121920000D03*
X132080000Y-162560000D03*
X162560000Y-182880000D03*
X203200000Y-111760000D03*
X147320000Y-172720000D03*
X142240000Y-147320000D03*
X203200000Y-147320000D03*
X162560000Y-142240000D03*
X203200000Y-182880000D03*
X172720000Y-142240000D03*
X162560000Y-172720000D03*
X157480000Y-182880000D03*
X137160000Y-167640000D03*
X213360000Y-182880000D03*
X152400000Y-182880000D03*
X154017500Y-161360000D03*
X155175000Y-126775000D03*
X147320000Y-182880000D03*
X162560000Y-162560000D03*
X157480000Y-137160000D03*
X147320000Y-137160000D03*
X167640000Y-152400000D03*
X132080000Y-167640000D03*
X228600000Y-111760000D03*
X142240000Y-142240000D03*
X172720000Y-111760000D03*
X153905000Y-126775000D03*
X248920000Y-172720000D03*
X172720000Y-147320000D03*
X223520000Y-177800000D03*
X243840000Y-182880000D03*
X137160000Y-182880000D03*
X218440000Y-111760000D03*
X167640000Y-182880000D03*
X155287500Y-160090000D03*
X218440000Y-182880000D03*
X203200000Y-177800000D03*
X142240000Y-162560000D03*
X153905000Y-124235000D03*
X162560000Y-137160000D03*
X177800000Y-142240000D03*
X223520000Y-152400000D03*
X248920000Y-142240000D03*
X172720000Y-137160000D03*
X223520000Y-116840000D03*
X208280000Y-147320000D03*
X152635000Y-124235000D03*
X238760000Y-172720000D03*
X147320000Y-142240000D03*
X184980000Y-117850000D03*
X142240000Y-177800000D03*
X223520000Y-157480000D03*
X151477500Y-158820000D03*
X152635000Y-125505000D03*
X248920000Y-147320000D03*
X142240000Y-172720000D03*
X218440000Y-142240000D03*
X182880000Y-182880000D03*
X233680000Y-182880000D03*
X167640000Y-121920000D03*
X238760000Y-142240000D03*
X228600000Y-172720000D03*
X243840000Y-162560000D03*
X193040000Y-182880000D03*
X162560000Y-157480000D03*
X243840000Y-167640000D03*
X223520000Y-137160000D03*
X151365000Y-124235000D03*
X182880000Y-116840000D03*
X162560000Y-152400000D03*
X157480000Y-172720000D03*
X142240000Y-132080000D03*
X172720000Y-162560000D03*
X187960000Y-152400000D03*
X147320000Y-127000000D03*
X238760000Y-137160000D03*
X142240000Y-127000000D03*
X142240000Y-121920000D03*
X157480000Y-142240000D03*
X147320000Y-147320000D03*
X177800000Y-172720000D03*
X155175000Y-125505000D03*
X155287500Y-158820000D03*
X248920000Y-167640000D03*
%TO.N,CHASSIS*%
X214040000Y-148430000D03*
X214078000Y-144272000D03*
%TO.N,/SEC_PWR_TELEM_RTN*%
X198120000Y-50800000D03*
X132080000Y-60960000D03*
X152400000Y-55880000D03*
X203200000Y-96520000D03*
X147320000Y-76200000D03*
X203200000Y-86360000D03*
X228600000Y-101600000D03*
X223520000Y-60960000D03*
X243840000Y-91440000D03*
X223520000Y-50800000D03*
X248920000Y-66040000D03*
X198774150Y-80690000D03*
X208280000Y-50800000D03*
X228600000Y-60960000D03*
X238760000Y-60960000D03*
X243840000Y-50800000D03*
X243840000Y-60960000D03*
X213360000Y-55880000D03*
X157480000Y-66040000D03*
X248920000Y-101600000D03*
X157480000Y-71120000D03*
X157480000Y-116840000D03*
X152400000Y-116840000D03*
X203200000Y-106680000D03*
X218440000Y-101600000D03*
X238760000Y-111760000D03*
X233680000Y-91440000D03*
X147320000Y-50800000D03*
X248920000Y-91440000D03*
X218440000Y-86360000D03*
X177434150Y-80580000D03*
X228600000Y-86360000D03*
X223520000Y-101600000D03*
X198120000Y-106680000D03*
X172720000Y-81280000D03*
X142240000Y-71120000D03*
X142240000Y-76200000D03*
X162560000Y-86360000D03*
X162560000Y-76200000D03*
X153260000Y-94345000D03*
X218440000Y-60960000D03*
X198120000Y-101600000D03*
X193040000Y-60960000D03*
X162560000Y-111760000D03*
X233680000Y-50800000D03*
X147320000Y-60960000D03*
X243840000Y-86360000D03*
X147320000Y-106680000D03*
X172720000Y-96520000D03*
X218440000Y-91440000D03*
X233680000Y-60960000D03*
X233680000Y-101600000D03*
X147320000Y-66040000D03*
X152400000Y-111760000D03*
X218440000Y-81280000D03*
X228600000Y-55880000D03*
X203200000Y-101600000D03*
X236550000Y-153160000D03*
X213360000Y-50800000D03*
X223520000Y-76200000D03*
X228600000Y-71120000D03*
X223520000Y-86360000D03*
X218440000Y-50800000D03*
X162560000Y-81280000D03*
X147320000Y-116840000D03*
X248920000Y-81280000D03*
X243840000Y-55880000D03*
X203200000Y-91440000D03*
X152240000Y-77120000D03*
X223520000Y-81280000D03*
X243840000Y-101600000D03*
X194129150Y-97274800D03*
X198120000Y-76200000D03*
X137160000Y-71120000D03*
X152400000Y-66040000D03*
X233680000Y-86360000D03*
X178250000Y-107630000D03*
X233680000Y-55880000D03*
X208280000Y-60960000D03*
X236050000Y-121620000D03*
X132080000Y-71120000D03*
X142240000Y-106680000D03*
X243690000Y-152310000D03*
X203200000Y-60960000D03*
X137160000Y-60960000D03*
X172310000Y-70370000D03*
X176630000Y-85760000D03*
X142240000Y-50800000D03*
X168540000Y-106950000D03*
X159900000Y-106580000D03*
X243840000Y-96520000D03*
X150980000Y-101385000D03*
X157480000Y-111760000D03*
X193040000Y-55880000D03*
X150680000Y-81065000D03*
X203200000Y-55880000D03*
X213360000Y-60960000D03*
X132080000Y-66040000D03*
X162560000Y-106680000D03*
X193040000Y-50800000D03*
X233680000Y-60960000D03*
X193040000Y-71120000D03*
X198120000Y-71120000D03*
X243840000Y-71120000D03*
X155600000Y-89765000D03*
X223520000Y-91440000D03*
X177800000Y-96520000D03*
X228600000Y-91440000D03*
X142240000Y-91440000D03*
X162560000Y-66040000D03*
X248920000Y-76200000D03*
X142240000Y-96520000D03*
X233680000Y-71120000D03*
X237740000Y-132930000D03*
X142240000Y-66040000D03*
X238760000Y-55880000D03*
X172720000Y-91440000D03*
X142240000Y-60960000D03*
X223520000Y-96520000D03*
X248920000Y-106680000D03*
X182880000Y-96520000D03*
X193184150Y-80420000D03*
X152400000Y-106680000D03*
X152400000Y-50800000D03*
X198120000Y-60960000D03*
X228600000Y-96520000D03*
X248920000Y-86360000D03*
X152400000Y-71120000D03*
X243840000Y-66040000D03*
X142240000Y-111760000D03*
X233680000Y-76200000D03*
X172720000Y-106680000D03*
X180140000Y-107630000D03*
X248920000Y-50800000D03*
X198120000Y-55880000D03*
X177800000Y-71120000D03*
X233680000Y-96520000D03*
X230680000Y-133480000D03*
X162560000Y-91440000D03*
X147320000Y-91440000D03*
X203200000Y-71120000D03*
X161820000Y-94695000D03*
X198120000Y-86360000D03*
X142240000Y-55880000D03*
X203200000Y-76200000D03*
X183380000Y-99790000D03*
X137160000Y-66040000D03*
X147320000Y-55880000D03*
X233680000Y-81280000D03*
X238760000Y-50800000D03*
X218440000Y-71120000D03*
X243840000Y-81280000D03*
X218440000Y-55880000D03*
X228600000Y-50800000D03*
X198120000Y-91440000D03*
X248920000Y-96520000D03*
X208280000Y-55880000D03*
X218440000Y-96520000D03*
X195264150Y-91120000D03*
X248920000Y-60960000D03*
X177800000Y-76200000D03*
X162560000Y-116840000D03*
X223520000Y-55880000D03*
X196164150Y-85750000D03*
X147320000Y-111760000D03*
X152400000Y-60960000D03*
X193040000Y-76200000D03*
X187960000Y-76200000D03*
X142240000Y-116840000D03*
X147320000Y-71120000D03*
X162560000Y-71120000D03*
X228600000Y-76200000D03*
X172720000Y-86360000D03*
X147320000Y-96520000D03*
X203200000Y-50800000D03*
X223520000Y-71120000D03*
X228600000Y-81280000D03*
X243840000Y-76200000D03*
X236720000Y-144650000D03*
X218440000Y-76200000D03*
X248920000Y-71120000D03*
%TO.N,/SEC_PWR_IN*%
X152667500Y-166300000D03*
X155115000Y-133150000D03*
X155207500Y-167570000D03*
X153845000Y-130610000D03*
X151305000Y-130610000D03*
X155207500Y-165030000D03*
X153937500Y-165030000D03*
X152667500Y-167570000D03*
X151305000Y-131880000D03*
X153937500Y-167570000D03*
X153845000Y-131880000D03*
X152575000Y-131880000D03*
X151397500Y-167570000D03*
X151397500Y-166300000D03*
X152575000Y-130610000D03*
X152667500Y-165030000D03*
X151305000Y-133150000D03*
X155207500Y-166300000D03*
X153845000Y-133150000D03*
X155115000Y-131880000D03*
X152575000Y-133150000D03*
X151397500Y-165030000D03*
X153937500Y-166300000D03*
X160020000Y-130140000D03*
X160160000Y-120700000D03*
X155115000Y-130610000D03*
%TO.N,Net-(M2-Pad1)*%
X189080000Y-115560000D03*
X173770000Y-117510000D03*
%TO.N,/P2p5V_TELEM*%
X174310000Y-91820000D03*
%TO.N,/M5p0V_Telem*%
X175350000Y-79240000D03*
%TO.N,/TEMP_TELEM*%
X163910000Y-76580000D03*
X168570000Y-102120000D03*
X168570000Y-76570000D03*
%TO.N,Net-(C2-Pad2)*%
X241820000Y-69830000D03*
X187017482Y-69884549D03*
X241580000Y-146200000D03*
%TO.N,/SiPM/P2p5V*%
X187654150Y-84480000D03*
X228180000Y-113530000D03*
X184894150Y-87030000D03*
X182270000Y-113530000D03*
X237515000Y-156785000D03*
%TO.N,/SiPM/M5V*%
X192540000Y-114820000D03*
X179230000Y-90580000D03*
X193394150Y-91130000D03*
X179234150Y-80580000D03*
%TO.N,Net-(U9-OUT)*%
X238740000Y-135680000D03*
%TO.N,Net-(C31-Pad2)*%
X237950000Y-65950000D03*
X237770000Y-123210000D03*
X187000000Y-68050000D03*
%TO.N,/SiPM/SiPM_LV_Supply/SiPM_LV/Enable*%
X184990000Y-119200000D03*
X190600000Y-121430000D03*
X172390000Y-120700000D03*
%TO.N,/P_SEC_TELEM_PWR*%
X203440000Y-93510000D03*
X188670000Y-100170000D03*
X203400000Y-82510200D03*
X167220000Y-88200000D03*
X158971400Y-88205000D03*
X167220000Y-100870000D03*
%TO.N,/SiPM/SiPM_LV_Supply/SiPM_LV_Enable*%
X186280000Y-95110000D03*
X171750000Y-74110000D03*
X186260000Y-74110000D03*
%TO.N,/SiPM/nV3p3*%
X164690000Y-93100000D03*
X164690000Y-101940000D03*
X189480000Y-93100000D03*
X191304150Y-85750000D03*
%TO.N,/N_SEC_TELEM_PWR*%
X156660000Y-95925000D03*
%TO.N,/SiPM/SiPM_LV_Supply/SiPM_LV/V_Out_RTN*%
X227570000Y-156111400D03*
X234827500Y-170857500D03*
X227300000Y-167231400D03*
%TD*%
M02*
