%TF.GenerationSoftware,KiCad,Pcbnew,8.0.6*%
%TF.CreationDate,2024-12-30T11:40:09-05:00*%
%TF.ProjectId,SiPM_HV_Board,5369504d-5f48-4565-9f42-6f6172642e6b,rev?*%
%TF.SameCoordinates,Original*%
%TF.FileFunction,Copper,L1,Top*%
%TF.FilePolarity,Positive*%
%FSLAX46Y46*%
G04 Gerber Fmt 4.6, Leading zero omitted, Abs format (unit mm)*
G04 Created by KiCad (PCBNEW 8.0.6) date 2024-12-30 11:40:09*
%MOMM*%
%LPD*%
G01*
G04 APERTURE LIST*
G04 Aperture macros list*
%AMRoundRect*
0 Rectangle with rounded corners*
0 $1 Rounding radius*
0 $2 $3 $4 $5 $6 $7 $8 $9 X,Y pos of 4 corners*
0 Add a 4 corners polygon primitive as box body*
4,1,4,$2,$3,$4,$5,$6,$7,$8,$9,$2,$3,0*
0 Add four circle primitives for the rounded corners*
1,1,$1+$1,$2,$3*
1,1,$1+$1,$4,$5*
1,1,$1+$1,$6,$7*
1,1,$1+$1,$8,$9*
0 Add four rect primitives between the rounded corners*
20,1,$1+$1,$2,$3,$4,$5,0*
20,1,$1+$1,$4,$5,$6,$7,0*
20,1,$1+$1,$6,$7,$8,$9,0*
20,1,$1+$1,$8,$9,$2,$3,0*%
G04 Aperture macros list end*
%TA.AperFunction,ComponentPad*%
%ADD10C,2.006600*%
%TD*%
%TA.AperFunction,ComponentPad*%
%ADD11C,2.209800*%
%TD*%
%TA.AperFunction,SMDPad,CuDef*%
%ADD12RoundRect,0.200000X0.200000X0.275000X-0.200000X0.275000X-0.200000X-0.275000X0.200000X-0.275000X0*%
%TD*%
%TA.AperFunction,ComponentPad*%
%ADD13C,6.400000*%
%TD*%
%TA.AperFunction,SMDPad,CuDef*%
%ADD14RoundRect,0.225000X0.225000X0.250000X-0.225000X0.250000X-0.225000X-0.250000X0.225000X-0.250000X0*%
%TD*%
%TA.AperFunction,SMDPad,CuDef*%
%ADD15RoundRect,0.225000X-0.225000X-0.250000X0.225000X-0.250000X0.225000X0.250000X-0.225000X0.250000X0*%
%TD*%
%TA.AperFunction,SMDPad,CuDef*%
%ADD16RoundRect,0.200000X-0.275000X0.200000X-0.275000X-0.200000X0.275000X-0.200000X0.275000X0.200000X0*%
%TD*%
%TA.AperFunction,SMDPad,CuDef*%
%ADD17RoundRect,0.200000X-0.200000X-0.275000X0.200000X-0.275000X0.200000X0.275000X-0.200000X0.275000X0*%
%TD*%
%TA.AperFunction,SMDPad,CuDef*%
%ADD18RoundRect,0.250000X-1.025000X0.787500X-1.025000X-0.787500X1.025000X-0.787500X1.025000X0.787500X0*%
%TD*%
%TA.AperFunction,ComponentPad*%
%ADD19R,2.200000X2.200000*%
%TD*%
%TA.AperFunction,ComponentPad*%
%ADD20O,2.200000X2.200000*%
%TD*%
%TA.AperFunction,SMDPad,CuDef*%
%ADD21RoundRect,0.200000X0.275000X-0.200000X0.275000X0.200000X-0.275000X0.200000X-0.275000X-0.200000X0*%
%TD*%
%TA.AperFunction,ComponentPad*%
%ADD22C,2.800000*%
%TD*%
%TA.AperFunction,SMDPad,CuDef*%
%ADD23RoundRect,0.250000X-0.650000X0.325000X-0.650000X-0.325000X0.650000X-0.325000X0.650000X0.325000X0*%
%TD*%
%TA.AperFunction,SMDPad,CuDef*%
%ADD24RoundRect,0.250000X-0.275000X0.312500X-0.275000X-0.312500X0.275000X-0.312500X0.275000X0.312500X0*%
%TD*%
%TA.AperFunction,SMDPad,CuDef*%
%ADD25R,0.889000X1.016000*%
%TD*%
%TA.AperFunction,SMDPad,CuDef*%
%ADD26R,3.200000X1.000000*%
%TD*%
%TA.AperFunction,ComponentPad*%
%ADD27C,2.159000*%
%TD*%
%TA.AperFunction,ComponentPad*%
%ADD28C,1.524000*%
%TD*%
%TA.AperFunction,SMDPad,CuDef*%
%ADD29RoundRect,0.250000X0.450000X0.425000X-0.450000X0.425000X-0.450000X-0.425000X0.450000X-0.425000X0*%
%TD*%
%TA.AperFunction,SMDPad,CuDef*%
%ADD30RoundRect,0.020000X2.680000X-0.980000X2.680000X0.980000X-2.680000X0.980000X-2.680000X-0.980000X0*%
%TD*%
%TA.AperFunction,SMDPad,CuDef*%
%ADD31R,5.400000X2.000000*%
%TD*%
%TA.AperFunction,ComponentPad*%
%ADD32C,2.100000*%
%TD*%
%TA.AperFunction,SMDPad,CuDef*%
%ADD33R,0.350800X1.161200*%
%TD*%
%TA.AperFunction,SMDPad,CuDef*%
%ADD34RoundRect,0.250000X0.650000X-0.325000X0.650000X0.325000X-0.650000X0.325000X-0.650000X-0.325000X0*%
%TD*%
%TA.AperFunction,SMDPad,CuDef*%
%ADD35RoundRect,0.237500X-0.250000X-0.237500X0.250000X-0.237500X0.250000X0.237500X-0.250000X0.237500X0*%
%TD*%
%TA.AperFunction,ComponentPad*%
%ADD36C,1.635000*%
%TD*%
%TA.AperFunction,ComponentPad*%
%ADD37C,4.216000*%
%TD*%
%TA.AperFunction,SMDPad,CuDef*%
%ADD38R,0.457200X1.219200*%
%TD*%
%TA.AperFunction,SMDPad,CuDef*%
%ADD39O,0.457200X1.219200*%
%TD*%
%TA.AperFunction,ComponentPad*%
%ADD40C,2.400000*%
%TD*%
%TA.AperFunction,ComponentPad*%
%ADD41O,2.400000X2.400000*%
%TD*%
%TA.AperFunction,SMDPad,CuDef*%
%ADD42RoundRect,0.225000X-0.250000X0.225000X-0.250000X-0.225000X0.250000X-0.225000X0.250000X0.225000X0*%
%TD*%
%TA.AperFunction,SMDPad,CuDef*%
%ADD43R,1.651000X0.558800*%
%TD*%
%TA.AperFunction,SMDPad,CuDef*%
%ADD44R,0.558800X1.473200*%
%TD*%
%TA.AperFunction,ViaPad*%
%ADD45C,0.600000*%
%TD*%
%TA.AperFunction,Conductor*%
%ADD46C,0.200000*%
%TD*%
%TA.AperFunction,Conductor*%
%ADD47C,0.400000*%
%TD*%
%TA.AperFunction,Conductor*%
%ADD48C,0.600000*%
%TD*%
%TA.AperFunction,Conductor*%
%ADD49C,0.300000*%
%TD*%
G04 APERTURE END LIST*
D10*
%TO.P,P_Out1,1,SIGNAL*%
%TO.N,/SiPM_HV_Block/SiPM_HV_OUT*%
X235363000Y-99430000D03*
D11*
%TO.P,P_Out1,2,GND*%
%TO.N,/SiPM_HV_Block/SiPM_HV_RTN*%
X237903000Y-96890000D03*
%TO.P,P_Out1,3,GND*%
X232823000Y-96890000D03*
%TO.P,P_Out1,4,GND*%
X232823000Y-101970000D03*
%TO.P,P_Out1,5,GND*%
X237903000Y-101970000D03*
%TD*%
D12*
%TO.P,R25,1*%
%TO.N,Net-(P1-Pad1)*%
X179355000Y-70860000D03*
%TO.P,R25,2*%
%TO.N,/SEC_PWR_TELEM*%
X177705000Y-70860000D03*
%TD*%
D13*
%TO.P,H4,1,1*%
%TO.N,CHASSIS*%
X228320000Y-127580000D03*
%TD*%
D14*
%TO.P,C10,1*%
%TO.N,/SiPM_HV_Block/SiPM_HV_RTN*%
X212135000Y-124195000D03*
%TO.P,C10,2*%
%TO.N,CHASSIS*%
X210585000Y-124195000D03*
%TD*%
D15*
%TO.P,C11,1*%
%TO.N,/V3p3*%
X93166100Y-84370000D03*
%TO.P,C11,2*%
%TO.N,/SEC_PWR_TELEM_RTN*%
X94716100Y-84370000D03*
%TD*%
D16*
%TO.P,R6,1*%
%TO.N,Net-(C3-Pad2)*%
X123990000Y-120845000D03*
%TO.P,R6,2*%
%TO.N,/SiPM_HV_Block/V_RTN*%
X123990000Y-122495000D03*
%TD*%
D17*
%TO.P,R1,1*%
%TO.N,/HV_Enable*%
X110408200Y-95823200D03*
%TO.P,R1,2*%
%TO.N,Net-(M1-Pad1)*%
X112058200Y-95823200D03*
%TD*%
D18*
%TO.P,C1,1*%
%TO.N,Net-(C1-Pad1)*%
X80940000Y-116437500D03*
%TO.P,C1,2*%
%TO.N,/SEC_PWR_RTN*%
X80940000Y-122662500D03*
%TD*%
D19*
%TO.P,D1,1,K*%
%TO.N,/SEC_PWR_RTN*%
X229775000Y-121655000D03*
D20*
%TO.P,D1,2,A*%
%TO.N,/SiPM_HV_Block/SiPM_HV_RTN*%
X229775000Y-111495000D03*
%TD*%
D21*
%TO.P,R7,1*%
%TO.N,Net-(M2-Pad1)*%
X126230000Y-94485000D03*
%TO.P,R7,2*%
%TO.N,/SiPM_HV_Block/V_RTN*%
X126230000Y-92835000D03*
%TD*%
D14*
%TO.P,C16,1*%
%TO.N,/SEC_PWR_TELEM*%
X168900000Y-63420000D03*
%TO.P,C16,2*%
%TO.N,/SEC_PWR_TELEM_RTN*%
X167350000Y-63420000D03*
%TD*%
D22*
%TO.P,V_{SET}1,1,1*%
%TO.N,/SiPM_HV_Block/REM_ADJ*%
X89250000Y-74900000D03*
%TD*%
D18*
%TO.P,C3,1*%
%TO.N,/SiPM_HV_Block/V_POS*%
X123980000Y-111675000D03*
%TO.P,C3,2*%
%TO.N,Net-(C3-Pad2)*%
X123980000Y-117900000D03*
%TD*%
D13*
%TO.P,H3,1,1*%
%TO.N,CHASSIS*%
X148320000Y-127580000D03*
%TD*%
D16*
%TO.P,R3,1*%
%TO.N,/SEC_PWR_TELEM*%
X116745000Y-72570000D03*
%TO.P,R3,2*%
%TO.N,Net-(Q1-Pad1)*%
X116745000Y-74220000D03*
%TD*%
D23*
%TO.P,CY2,1*%
%TO.N,Net-(CY2-Pad1)*%
X105270000Y-117775000D03*
%TO.P,CY2,2*%
%TO.N,CHASSIS*%
X105270000Y-120725000D03*
%TD*%
D13*
%TO.P,H2,1,1*%
%TO.N,CHASSIS*%
X76320000Y-127580000D03*
%TD*%
D22*
%TO.P,V_{OUT_RTN}1,1,1*%
%TO.N,/SiPM_HV_Block/SiPM_HV_RTN*%
X231140000Y-88900000D03*
%TD*%
D24*
%TO.P,C14,1*%
%TO.N,/SEC_PWR_TELEM*%
X97720400Y-74129350D03*
%TO.P,C14,2*%
%TO.N,/SEC_PWR_TELEM_RTN*%
X97720400Y-75904350D03*
%TD*%
D17*
%TO.P,R5,1*%
%TO.N,/SiPM_HV_Block/V_POS*%
X125435000Y-101570000D03*
%TO.P,R5,2*%
%TO.N,/SiPM_HV_Block/Enable*%
X127085000Y-101570000D03*
%TD*%
D25*
%TO.P,U4,1,SET*%
%TO.N,Net-(U4-SET)*%
X105746800Y-74064350D03*
%TO.P,U4,2,OUT*%
%TO.N,/V3p3*%
X103435400Y-74064350D03*
%TO.P,U4,3,IN*%
%TO.N,/SEC_PWR_TELEM*%
X101124000Y-74064350D03*
D26*
%TO.P,U4,4,TAB*%
%TO.N,/V3p3*%
X103435400Y-81056850D03*
%TD*%
D27*
%TO.P,P2,1,1*%
%TO.N,Net-(M3-Pad3)*%
X191410000Y-67580000D03*
%TD*%
D28*
%TO.P,U1,1,PWR_IN_RTN*%
%TO.N,/SiPM_HV_Block/V_RTN*%
X133020000Y-117780000D03*
%TO.P,U1,2,PWR_IN*%
%TO.N,/SiPM_HV_Block/V_POS*%
X133020000Y-112700000D03*
%TO.P,U1,3,I_OUT_MON*%
%TO.N,/SiPM_HV_Block/Curr_Mon*%
X133020000Y-107620000D03*
%TO.P,U1,4,ENABLE*%
%TO.N,/SiPM_HV_Block/Enable*%
X133020000Y-102540000D03*
%TO.P,U1,5,SIG_GND*%
%TO.N,/SEC_PWR_TELEM_RTN*%
X133020000Y-97460000D03*
%TO.P,U1,6,REM_ADJ*%
%TO.N,/SiPM_HV_Block/REM_ADJ*%
X133020000Y-92380000D03*
%TO.P,U1,7,5V_REF*%
%TO.N,unconnected-(U1-5V_REF-Pad7)*%
X133020000Y-87300000D03*
%TO.P,U1,8,HV_RTN*%
%TO.N,/SiPM_HV_Block/SiPM_HV_RTN*%
X214320000Y-87300000D03*
%TO.P,U1,9,HV_RTN*%
X214320000Y-89800000D03*
%TO.P,U1,10,HV_OUT*%
%TO.N,/SiPM_HV_Block/SiPM_HV_OUT*%
X214320000Y-108600000D03*
%TO.P,U1,11,HV_OUT*%
X214320000Y-111100000D03*
%TD*%
D29*
%TO.P,C12,1*%
%TO.N,/V3p3*%
X97890000Y-81060000D03*
%TO.P,C12,2*%
%TO.N,/SEC_PWR_TELEM_RTN*%
X95190000Y-81060000D03*
%TD*%
D30*
%TO.P,L1,1*%
%TO.N,/SEC_PWR_RTN*%
X87540000Y-112940000D03*
%TO.P,L1,2*%
%TO.N,Net-(C1-Pad1)*%
X87540000Y-116440000D03*
%TO.P,L1,3*%
%TO.N,Net-(CY2-Pad1)*%
X95160000Y-116440000D03*
D31*
%TO.P,L1,4*%
%TO.N,Net-(CY1-Pad1)*%
X95160000Y-112940000D03*
%TD*%
D32*
%TO.P,J2,1*%
%TO.N,/SEC_PWR_RTN*%
X64110000Y-109480000D03*
%TO.P,J2,2*%
%TO.N,/SEC_PWR_IN*%
X64110000Y-112980000D03*
%TO.P,J2,3*%
%TO.N,/SEC_PWR_RTN*%
X64110000Y-116480000D03*
%TO.P,J2,4*%
%TO.N,/SEC_PWR_IN*%
X64110000Y-119980000D03*
%TD*%
D21*
%TO.P,R11,1*%
%TO.N,/SEC_PWR_RTN*%
X114610000Y-103750000D03*
%TO.P,R11,2*%
%TO.N,/SEC_PWR_TELEM_RTN*%
X114610000Y-102100000D03*
%TD*%
D22*
%TO.P,V_{EN}1,1,1*%
%TO.N,/SiPM_HV_Block/Enable*%
X117980000Y-100350000D03*
%TD*%
D13*
%TO.P,H6,1,1*%
%TO.N,CHASSIS*%
X228320000Y-67580000D03*
%TD*%
D17*
%TO.P,R2,1*%
%TO.N,Net-(M1-Pad1)*%
X116656600Y-95823200D03*
%TO.P,R2,2*%
%TO.N,/SEC_PWR_TELEM_RTN*%
X118306600Y-95823200D03*
%TD*%
D33*
%TO.P,M2,1,1*%
%TO.N,Net-(M2-Pad1)*%
X126580000Y-105110000D03*
%TO.P,M2,2,2*%
%TO.N,/SiPM_HV_Block/V_RTN*%
X127579998Y-105110000D03*
%TO.P,M2,3,3*%
%TO.N,/SiPM_HV_Block/Enable*%
X127079999Y-103760000D03*
%TD*%
%TO.P,M3,1,1*%
%TO.N,Net-(M3-Pad1)*%
X178815001Y-65750000D03*
%TO.P,M3,2,2*%
%TO.N,/SEC_PWR_TELEM_RTN*%
X179814999Y-65750000D03*
%TO.P,M3,3,3*%
%TO.N,Net-(M3-Pad3)*%
X179315000Y-64400000D03*
%TD*%
D34*
%TO.P,CY3,1*%
%TO.N,Net-(CY1-Pad1)*%
X101370000Y-111590000D03*
%TO.P,CY3,2*%
%TO.N,/SEC_PWR_RTN*%
X101370000Y-108640000D03*
%TD*%
D16*
%TO.P,R16,1*%
%TO.N,Net-(U4-SET)*%
X109975400Y-76731850D03*
%TO.P,R16,2*%
%TO.N,/SEC_PWR_TELEM_RTN*%
X109975400Y-78381850D03*
%TD*%
D13*
%TO.P,H1,1,1*%
%TO.N,CHASSIS*%
X76320000Y-67580000D03*
%TD*%
D34*
%TO.P,CY1,1*%
%TO.N,Net-(CY1-Pad1)*%
X105350000Y-111585000D03*
%TO.P,CY1,2*%
%TO.N,CHASSIS*%
X105350000Y-108635000D03*
%TD*%
D18*
%TO.P,C2,1*%
%TO.N,/SiPM_HV_Block/V_POS*%
X116700000Y-111637500D03*
%TO.P,C2,2*%
%TO.N,/SiPM_HV_Block/V_RTN*%
X116700000Y-117862500D03*
%TD*%
D35*
%TO.P,L2,1,1*%
%TO.N,Net-(CY1-Pad1)*%
X108995000Y-111590000D03*
%TO.P,L2,2,2*%
%TO.N,/SiPM_HV_Block/V_POS*%
X110820000Y-111590000D03*
%TD*%
D36*
%TO.P,J3,1*%
%TO.N,/HV_CURR_MON*%
X66880000Y-89730000D03*
%TO.P,J3,2*%
%TO.N,/HV_Enable+*%
X66880000Y-86960000D03*
%TO.P,J3,3*%
%TO.N,unconnected-(J3-Pad3)*%
X66880000Y-84190000D03*
%TO.P,J3,4*%
%TO.N,/SEC_PWR_TELEM_RTN*%
X66880000Y-81420000D03*
%TO.P,J3,5*%
X66880000Y-78650000D03*
%TO.P,J3,6*%
X64040000Y-88345000D03*
%TO.P,J3,7*%
%TO.N,/HV_Enable-*%
X64040000Y-85575000D03*
%TO.P,J3,8*%
%TO.N,/SET_HV*%
X64040000Y-82805000D03*
%TO.P,J3,9*%
%TO.N,/HV_VOLT_MON*%
X64040000Y-80035000D03*
D37*
%TO.P,J3,S1*%
%TO.N,CHASSIS*%
X65460000Y-71690000D03*
%TO.P,J3,S2*%
X65460000Y-96690000D03*
%TD*%
D38*
%TO.P,U5,1,OUT*%
%TO.N,Net-(U5-OUT)*%
X168894999Y-68340000D03*
D39*
%TO.P,U5,2,V-*%
%TO.N,/SEC_PWR_TELEM_RTN*%
X169845000Y-68340000D03*
%TO.P,U5,3,+IN*%
%TO.N,Net-(U2B-+INB)*%
X170795001Y-68340000D03*
%TO.P,U5,4,-IN*%
%TO.N,Net-(U5--IN)*%
X170795001Y-65720000D03*
%TO.P,U5,5,V+*%
%TO.N,/SEC_PWR_TELEM*%
X168894999Y-65720000D03*
%TD*%
D33*
%TO.P,M1,1,1*%
%TO.N,Net-(M1-Pad1)*%
X117032401Y-93617200D03*
%TO.P,M1,2,2*%
%TO.N,/SEC_PWR_TELEM_RTN*%
X118032399Y-93617200D03*
%TO.P,M1,3,3*%
%TO.N,Net-(M1-Pad3)*%
X117532400Y-92267200D03*
%TD*%
D12*
%TO.P,R26,1*%
%TO.N,/SEC_PWR_TELEM_RTN*%
X110235000Y-82490000D03*
%TO.P,R26,2*%
%TO.N,/V3p3*%
X108585000Y-82490000D03*
%TD*%
D27*
%TO.P,P1,1,1*%
%TO.N,Net-(P1-Pad1)*%
X207410000Y-67580000D03*
%TD*%
D14*
%TO.P,C15,1*%
%TO.N,/V3p3*%
X76702200Y-83732800D03*
%TO.P,C15,2*%
%TO.N,/SEC_PWR_TELEM_RTN*%
X75152200Y-83732800D03*
%TD*%
D16*
%TO.P,R17,1*%
%TO.N,Net-(U3-R)*%
X76435200Y-91235000D03*
%TO.P,R17,2*%
%TO.N,/HV_Enable*%
X76435200Y-92885000D03*
%TD*%
D13*
%TO.P,H5,1,1*%
%TO.N,CHASSIS*%
X148320000Y-67580000D03*
%TD*%
D23*
%TO.P,CY4,1*%
%TO.N,Net-(CY2-Pad1)*%
X101210000Y-117805000D03*
%TO.P,CY4,2*%
%TO.N,/SEC_PWR_RTN*%
X101210000Y-120755000D03*
%TD*%
D12*
%TO.P,R24,1*%
%TO.N,/SEC_PWR_TELEM_RTN*%
X180170000Y-67740000D03*
%TO.P,R24,2*%
%TO.N,Net-(M3-Pad1)*%
X178520000Y-67740000D03*
%TD*%
D40*
%TO.P,R20,1*%
%TO.N,/SiPM_HV_Block/SiPM_HV_OUT*%
X178340000Y-79110000D03*
D41*
%TO.P,R20,2*%
%TO.N,Net-(U2B-+INB)*%
X163100000Y-79110000D03*
%TD*%
D35*
%TO.P,L3,1,1*%
%TO.N,Net-(CY2-Pad1)*%
X109075000Y-117850000D03*
%TO.P,L3,2,2*%
%TO.N,/SiPM_HV_Block/V_RTN*%
X110900000Y-117850000D03*
%TD*%
D32*
%TO.P,J1,1*%
%TO.N,/SEC_PWR_TELEM_RTN*%
X97720400Y-68895600D03*
%TO.P,J1,2*%
%TO.N,/SEC_PWR_TELEM*%
X93910400Y-68895600D03*
%TO.P,J1,3*%
%TO.N,/SEC_PWR_TELEM_RTN*%
X90100400Y-68895600D03*
%TD*%
D42*
%TO.P,C13,1*%
%TO.N,Net-(U4-SET)*%
X111690400Y-76781850D03*
%TO.P,C13,2*%
%TO.N,/SEC_PWR_TELEM_RTN*%
X111690400Y-78331850D03*
%TD*%
D43*
%TO.P,Q1,1,1*%
%TO.N,Net-(Q1-Pad1)*%
X119970800Y-89270000D03*
%TO.P,Q1,2,2*%
%TO.N,Net-(M1-Pad3)*%
X119970800Y-90540000D03*
%TO.P,Q1,3,3*%
%TO.N,/SiPM_HV_Block/V_RTN*%
X126219200Y-90540000D03*
%TO.P,Q1,4,4*%
%TO.N,Net-(M2-Pad1)*%
X126219200Y-89270000D03*
%TD*%
D44*
%TO.P,U3,1,VCC*%
%TO.N,/V3p3*%
X76420001Y-86704600D03*
%TO.P,U3,2,GND*%
%TO.N,/SEC_PWR_TELEM_RTN*%
X75470000Y-86704600D03*
%TO.P,U3,3,A*%
%TO.N,/HV_Enable+*%
X74519999Y-86704600D03*
%TO.P,U3,4,B*%
%TO.N,/HV_Enable-*%
X74519999Y-89092200D03*
%TO.P,U3,5,R*%
%TO.N,Net-(U3-R)*%
X76420001Y-89092200D03*
%TD*%
D17*
%TO.P,F1,1*%
%TO.N,/SEC_PWR_IN*%
X73575000Y-116470000D03*
%TO.P,F1,2*%
%TO.N,Net-(C1-Pad1)*%
X75225000Y-116470000D03*
%TD*%
D16*
%TO.P,R4,1*%
%TO.N,/SiPM_HV_Block/V_POS*%
X126238000Y-84874600D03*
%TO.P,R4,2*%
%TO.N,Net-(M2-Pad1)*%
X126238000Y-86524600D03*
%TD*%
D19*
%TO.P,D2,1,K*%
%TO.N,/SiPM_HV_Block/SiPM_HV_RTN*%
X235430000Y-111570000D03*
D20*
%TO.P,D2,2,A*%
%TO.N,/SEC_PWR_RTN*%
X235430000Y-121730000D03*
%TD*%
D45*
%TO.N,/SEC_PWR_RTN*%
X229140000Y-105780000D03*
X234220000Y-131180000D03*
X69120000Y-126100000D03*
X97060000Y-123560000D03*
X79280000Y-105780000D03*
X224060000Y-77840000D03*
X183420000Y-123560000D03*
X213900000Y-77840000D03*
X203740000Y-131180000D03*
X64040000Y-131180000D03*
X58960000Y-105780000D03*
X69120000Y-110860000D03*
X188500000Y-131180000D03*
X91980000Y-131180000D03*
X127540000Y-115940000D03*
X112300000Y-131180000D03*
X86900000Y-123560000D03*
X127540000Y-118480000D03*
X213900000Y-131180000D03*
X168180000Y-131180000D03*
X229140000Y-100700000D03*
X203740000Y-123560000D03*
X127540000Y-113400000D03*
X97060000Y-131180000D03*
X152940000Y-123560000D03*
X117380000Y-121020000D03*
X64040000Y-105780000D03*
X193580000Y-123560000D03*
X193580000Y-77840000D03*
X64040000Y-126100000D03*
X208820000Y-131180000D03*
X158020000Y-131180000D03*
X89440000Y-105780000D03*
X229140000Y-77840000D03*
X163100000Y-131180000D03*
X69120000Y-131180000D03*
X218980000Y-77840000D03*
X158020000Y-123560000D03*
X198660000Y-77840000D03*
X109760000Y-105780000D03*
X81820000Y-131180000D03*
X86900000Y-131180000D03*
X132620000Y-131180000D03*
X208820000Y-77840000D03*
X218980000Y-123560000D03*
X74200000Y-105780000D03*
X142780000Y-131180000D03*
X84360000Y-105780000D03*
X224060000Y-131180000D03*
X188500000Y-123560000D03*
X80930000Y-125110000D03*
X157690000Y-80770000D03*
X173260000Y-123560000D03*
X142780000Y-123560000D03*
X122460000Y-105780000D03*
X69120000Y-105780000D03*
X79280000Y-110860000D03*
X69120000Y-121020000D03*
X229140000Y-95620000D03*
X203740000Y-77840000D03*
X183420000Y-131180000D03*
X178340000Y-131180000D03*
X234220000Y-126100000D03*
X58960000Y-131180000D03*
X198660000Y-131180000D03*
X127540000Y-123560000D03*
X132620000Y-123560000D03*
X193580000Y-131180000D03*
X84360000Y-126100000D03*
X122460000Y-131180000D03*
X111520000Y-107480000D03*
X137700000Y-123560000D03*
X94520000Y-105780000D03*
X168180000Y-123560000D03*
X188500000Y-77840000D03*
X163100000Y-123560000D03*
X107220000Y-131180000D03*
X102140000Y-131180000D03*
X114610000Y-105600000D03*
X152940000Y-131180000D03*
X101400000Y-107080000D03*
X178340000Y-123560000D03*
X117380000Y-123560000D03*
X91980000Y-123560000D03*
X74200000Y-121020000D03*
X69120000Y-115940000D03*
X183420000Y-77840000D03*
X101220000Y-122410000D03*
X198660000Y-123560000D03*
X74200000Y-110860000D03*
X127540000Y-131180000D03*
X122460000Y-123560000D03*
X173260000Y-131180000D03*
X117380000Y-131180000D03*
X137700000Y-131180000D03*
X218980000Y-131180000D03*
%TO.N,/SiPM_HV_Block/V_POS*%
X126238000Y-83820000D03*
X125300000Y-103290000D03*
%TO.N,/SiPM_HV_Block/V_RTN*%
X128430000Y-105110000D03*
X128160000Y-90550000D03*
%TO.N,/SiPM_HV_Block/SiPM_HV_RTN*%
X214230000Y-124190000D03*
%TO.N,CHASSIS*%
X207853278Y-124184243D03*
X105370000Y-107100000D03*
X105270000Y-122420000D03*
%TO.N,/SEC_PWR_TELEM*%
X175625000Y-70340000D03*
X168885000Y-64500000D03*
%TO.N,/SEC_PWR_TELEM_RTN*%
X132080000Y-68580000D03*
X121920000Y-71120000D03*
X101600000Y-99060000D03*
X154940000Y-66040000D03*
X201200000Y-72760000D03*
X191040000Y-72760000D03*
X201200000Y-67680000D03*
X114610000Y-100240000D03*
X127000000Y-71120000D03*
X208820000Y-72760000D03*
X142240000Y-66040000D03*
X213900000Y-65140000D03*
X101600000Y-101600000D03*
X91440000Y-101600000D03*
X119380000Y-76200000D03*
X79970000Y-76100000D03*
X110835400Y-79935600D03*
X160020000Y-71120000D03*
X175800000Y-62600000D03*
X76200000Y-101600000D03*
X86360000Y-101600000D03*
X81280000Y-99060000D03*
X193580000Y-72760000D03*
X91500000Y-83100000D03*
X71120000Y-96520000D03*
X127000000Y-63500000D03*
X111760000Y-83820000D03*
X160020000Y-66040000D03*
X76200000Y-76200000D03*
X154940000Y-71120000D03*
X106680000Y-71120000D03*
X137160000Y-63500000D03*
X116840000Y-68580000D03*
X71120000Y-99060000D03*
X211360000Y-72760000D03*
X127000000Y-66040000D03*
X120840000Y-97500000D03*
X121920000Y-63500000D03*
X154940000Y-63500000D03*
X106680000Y-91440000D03*
X201200000Y-62600000D03*
X116840000Y-66040000D03*
X71120000Y-76200000D03*
X101600000Y-88900000D03*
X86360000Y-99060000D03*
X137160000Y-66040000D03*
X96520000Y-71120000D03*
X137160000Y-71120000D03*
X198660000Y-72760000D03*
X91440000Y-99060000D03*
X154940000Y-68580000D03*
X116840000Y-88900000D03*
X93620000Y-81060000D03*
X119380000Y-83820000D03*
X173260000Y-70220000D03*
X116840000Y-71120000D03*
X165100000Y-68580000D03*
X97720000Y-77260000D03*
X111760000Y-88900000D03*
X166205000Y-63420000D03*
X116840000Y-63500000D03*
X173260000Y-72760000D03*
X183420000Y-72760000D03*
X111760000Y-63500000D03*
X66040000Y-66040000D03*
X111760000Y-71120000D03*
X75165200Y-84799600D03*
X198660000Y-67680000D03*
X96520000Y-99060000D03*
X111760000Y-68580000D03*
X71120000Y-101600000D03*
X213900000Y-62600000D03*
X111760000Y-93980000D03*
X188500000Y-72760000D03*
X101600000Y-66040000D03*
X71120000Y-71120000D03*
X81280000Y-101600000D03*
X119361200Y-95823200D03*
X137160000Y-68580000D03*
X142240000Y-68580000D03*
X82000000Y-84370000D03*
X86360000Y-71120000D03*
X142240000Y-71120000D03*
X76200000Y-96520000D03*
X165100000Y-66040000D03*
X76200000Y-99060000D03*
X79280000Y-75300000D03*
X121920000Y-66040000D03*
X101600000Y-91440000D03*
X180880000Y-72760000D03*
X213900000Y-70220000D03*
X96520000Y-91440000D03*
X132080000Y-71120000D03*
X169845000Y-70040000D03*
X132080000Y-63500000D03*
X106680000Y-93980000D03*
X213900000Y-72760000D03*
X142240000Y-63500000D03*
X206280000Y-72760000D03*
X196120000Y-72760000D03*
X165100000Y-71120000D03*
X127000000Y-68580000D03*
X173260000Y-62600000D03*
X203740000Y-72760000D03*
X181750000Y-67807000D03*
X96520000Y-101600000D03*
X106680000Y-66040000D03*
X96670000Y-83160000D03*
X132080000Y-66040000D03*
X198660000Y-62600000D03*
X180880000Y-65140000D03*
X160020000Y-68580000D03*
X213900000Y-67680000D03*
X160020000Y-63500000D03*
X175800000Y-72760000D03*
X91440000Y-71120000D03*
X106680000Y-83820000D03*
X121920000Y-73660000D03*
X183420000Y-70220000D03*
X121920000Y-68580000D03*
X71120000Y-66040000D03*
X173260000Y-65140000D03*
X175800000Y-65140000D03*
X106680000Y-101600000D03*
X111760000Y-66040000D03*
X183420000Y-65140000D03*
X121920000Y-76200000D03*
X178340000Y-72760000D03*
X96520000Y-88900000D03*
X185960000Y-65140000D03*
X81280000Y-71120000D03*
X185960000Y-72760000D03*
X101600000Y-71120000D03*
%TO.N,/HV_VOLT_MON*%
X88790000Y-90350000D03*
%TO.N,Net-(M2-Pad1)*%
X127965200Y-86512400D03*
X127914400Y-94488000D03*
%TO.N,Net-(M3-Pad1)*%
X176875000Y-67760000D03*
%TO.N,/SiPM_HV_Block/REM_ADJ*%
X85243644Y-77896215D03*
%TO.N,Net-(U2B-+INB)*%
X170635000Y-71670000D03*
%TO.N,/V3p3*%
X108490000Y-81015000D03*
X91431100Y-84390000D03*
X105950000Y-81015000D03*
X76689200Y-84799600D03*
X107220000Y-81015000D03*
%TO.N,Net-(U5-OUT)*%
X168905000Y-69650000D03*
%TO.N,Net-(U5--IN)*%
X170535000Y-64290000D03*
%TO.N,/SEC_PWR_RTN*%
X119920000Y-105780000D03*
X117380000Y-105780000D03*
%TD*%
D46*
%TO.N,/SEC_PWR_RTN*%
X80930000Y-122672500D02*
X80940000Y-122662500D01*
D47*
X78430000Y-113000000D02*
X74910000Y-109480000D01*
D46*
X114610000Y-103750000D02*
X114610000Y-105600000D01*
D47*
X101210000Y-120755000D02*
X101210000Y-122400000D01*
X80930000Y-125110000D02*
X80930000Y-122672500D01*
X74910000Y-109480000D02*
X64110000Y-109480000D01*
X87480000Y-113000000D02*
X87540000Y-112940000D01*
X78430000Y-113000000D02*
X87480000Y-113000000D01*
X101370000Y-108640000D02*
X101370000Y-107110000D01*
D46*
X101370000Y-107110000D02*
X101400000Y-107080000D01*
X101210000Y-122400000D02*
X101220000Y-122410000D01*
D47*
%TO.N,Net-(C1-Pad1)*%
X75225000Y-116470000D02*
X87510000Y-116470000D01*
D46*
X87510000Y-116470000D02*
X87540000Y-116440000D01*
D47*
%TO.N,/SiPM_HV_Block/V_POS*%
X110905000Y-111675000D02*
X110820000Y-111590000D01*
D46*
X125300000Y-102560000D02*
X125300000Y-103290000D01*
X126238000Y-84874600D02*
X126238000Y-83820000D01*
D47*
X123980000Y-111675000D02*
X110905000Y-111675000D01*
D46*
X125435000Y-102425000D02*
X125300000Y-102560000D01*
D47*
X123980000Y-111675000D02*
X131995000Y-111675000D01*
X131995000Y-111675000D02*
X133020000Y-112700000D01*
D46*
X125435000Y-101570000D02*
X125435000Y-102425000D01*
D47*
%TO.N,/SiPM_HV_Block/V_RTN*%
X116700000Y-117862500D02*
X110912500Y-117862500D01*
X121332500Y-122495000D02*
X116700000Y-117862500D01*
D46*
X126230000Y-92835000D02*
X126230000Y-91680000D01*
D47*
X110912500Y-117862500D02*
X110900000Y-117850000D01*
D46*
X126230000Y-90550800D02*
X126219200Y-90540000D01*
D47*
X123990000Y-122495000D02*
X121332500Y-122495000D01*
D46*
X128150000Y-90540000D02*
X128160000Y-90550000D01*
D47*
X123990000Y-122495000D02*
X128305000Y-122495000D01*
D46*
X126219200Y-90540000D02*
X128150000Y-90540000D01*
D47*
X128305000Y-122495000D02*
X133020000Y-117780000D01*
D46*
X126230000Y-91680000D02*
X126230000Y-90550800D01*
X128430000Y-105110000D02*
X127579998Y-105110000D01*
D47*
%TO.N,Net-(C3-Pad2)*%
X123980000Y-117900000D02*
X123980000Y-120835000D01*
D46*
X123980000Y-120835000D02*
X123990000Y-120845000D01*
D48*
%TO.N,/SiPM_HV_Block/SiPM_HV_OUT*%
X214320000Y-111100000D02*
X214320000Y-108600000D01*
X235363000Y-105272000D02*
X235363000Y-99430000D01*
D47*
X231680000Y-79110000D02*
X235363000Y-82793000D01*
D48*
X214320000Y-108600000D02*
X232035000Y-108600000D01*
D47*
X178340000Y-79110000D02*
X231680000Y-79110000D01*
X235363000Y-82793000D02*
X235363000Y-99430000D01*
D48*
X232035000Y-108600000D02*
X235363000Y-105272000D01*
D46*
%TO.N,/SiPM_HV_Block/SiPM_HV_RTN*%
X214225000Y-124195000D02*
X214230000Y-124190000D01*
D48*
X214320000Y-87300000D02*
X214320000Y-89800000D01*
D46*
X212135000Y-124195000D02*
X214225000Y-124195000D01*
%TO.N,CHASSIS*%
X210585000Y-124195000D02*
X207855000Y-124195000D01*
X105350000Y-107120000D02*
X105370000Y-107100000D01*
X207855000Y-124195000D02*
X207840000Y-124180000D01*
D47*
X105350000Y-108635000D02*
X105350000Y-107120000D01*
X105270000Y-122420000D02*
X105270000Y-120725000D01*
D49*
%TO.N,/SEC_PWR_TELEM*%
X116745000Y-72570000D02*
X101670000Y-72570000D01*
D47*
X93910400Y-68895600D02*
X93910400Y-70319350D01*
D46*
X97785400Y-74064350D02*
X97720400Y-74129350D01*
D49*
X101124000Y-73116000D02*
X101124000Y-74064350D01*
X101670000Y-72570000D02*
X101124000Y-73116000D01*
D46*
X177705000Y-70860000D02*
X176145000Y-70860000D01*
X176145000Y-70860000D02*
X175625000Y-70340000D01*
X168894999Y-65720000D02*
X168894999Y-63425001D01*
X168894999Y-63425001D02*
X168900000Y-63420000D01*
D47*
X93910400Y-70319350D02*
X97720400Y-74129350D01*
X101124000Y-74064350D02*
X97785400Y-74064350D01*
D46*
%TO.N,/SEC_PWR_TELEM_RTN*%
X180170000Y-67740000D02*
X181683000Y-67740000D01*
X110835400Y-81889600D02*
X110835400Y-79935600D01*
X167350000Y-63420000D02*
X166205000Y-63420000D01*
X109975400Y-78381850D02*
X109975400Y-79075600D01*
X179814999Y-65750000D02*
X179814999Y-66694999D01*
X118306600Y-95823200D02*
X119361200Y-95823200D01*
X118446800Y-95823200D02*
X118306600Y-95823200D01*
X111690400Y-79080600D02*
X110835400Y-79935600D01*
D47*
X97720400Y-75904350D02*
X97720400Y-77259600D01*
D46*
X180170000Y-67050000D02*
X180170000Y-67740000D01*
X75470000Y-86704600D02*
X75470000Y-85714000D01*
X118306600Y-94768600D02*
X118446800Y-95823200D01*
X97720400Y-77259600D02*
X97720000Y-77260000D01*
X111690400Y-78331850D02*
X111690400Y-79080600D01*
X181683000Y-67740000D02*
X181750000Y-67807000D01*
X169845000Y-70040000D02*
X169845000Y-68340000D01*
X180099000Y-67680000D02*
X180170000Y-67740000D01*
X118032399Y-93617200D02*
X118032399Y-94494399D01*
X114610000Y-102100000D02*
X114610000Y-100240000D01*
X75152200Y-85396200D02*
X75152200Y-83732800D01*
X179814999Y-66694999D02*
X180170000Y-67050000D01*
X110235000Y-82490000D02*
X110835400Y-81889600D01*
X94716100Y-84370000D02*
X96120000Y-84370000D01*
X75470000Y-85714000D02*
X75152200Y-85396200D01*
X96120000Y-84370000D02*
X96670000Y-83820000D01*
D47*
X95190000Y-81060000D02*
X93620000Y-81060000D01*
D46*
X118032399Y-94494399D02*
X118306600Y-94768600D01*
X96670000Y-83820000D02*
X96670000Y-83160000D01*
X109975400Y-79075600D02*
X110835400Y-79935600D01*
%TO.N,Net-(U4-SET)*%
X109975400Y-76731850D02*
X111640400Y-76731850D01*
X105746800Y-74064350D02*
X108197900Y-74064350D01*
X111640400Y-76731850D02*
X111690400Y-76781850D01*
X109975400Y-75841850D02*
X109975400Y-76731850D01*
X108197900Y-74064350D02*
X109975400Y-75841850D01*
D47*
%TO.N,/SEC_PWR_IN*%
X70065000Y-119980000D02*
X73575000Y-116470000D01*
X70085000Y-112980000D02*
X73575000Y-116470000D01*
X64110000Y-119980000D02*
X70065000Y-119980000D01*
X64110000Y-112980000D02*
X70085000Y-112980000D01*
D46*
%TO.N,/HV_Enable-*%
X71939400Y-89092200D02*
X74519999Y-89092200D01*
X64040000Y-86069600D02*
X66427600Y-88457200D01*
X64040000Y-85575000D02*
X64040000Y-86069600D01*
X71304400Y-88457200D02*
X71939400Y-89092200D01*
X66427600Y-88457200D02*
X71304400Y-88457200D01*
%TO.N,/HV_Enable+*%
X72244200Y-86704600D02*
X74519999Y-86704600D01*
X71988800Y-86960000D02*
X72244200Y-86704600D01*
X66880000Y-86960000D02*
X71988800Y-86960000D01*
%TO.N,/HV_VOLT_MON*%
X87835000Y-80035000D02*
X88790000Y-80990000D01*
X88790000Y-80990000D02*
X88790000Y-90350000D01*
X64040000Y-80035000D02*
X87835000Y-80035000D01*
%TO.N,Net-(M3-Pad3)*%
X191410000Y-64270000D02*
X191410000Y-67580000D01*
X180110000Y-62730000D02*
X189870000Y-62730000D01*
X179315000Y-64400000D02*
X179315000Y-63525000D01*
X179315000Y-63525000D02*
X180110000Y-62730000D01*
X189870000Y-62730000D02*
X191410000Y-64270000D01*
%TO.N,Net-(P1-Pad1)*%
X206410000Y-70940000D02*
X207410000Y-69940000D01*
X179355000Y-70860000D02*
X179435000Y-70940000D01*
X207410000Y-69940000D02*
X207410000Y-67580000D01*
X179435000Y-70940000D02*
X206410000Y-70940000D01*
%TO.N,Net-(M1-Pad1)*%
X117032401Y-94595999D02*
X116656600Y-94971800D01*
X116656600Y-94971800D02*
X116656600Y-95823200D01*
X117032401Y-93617200D02*
X117032401Y-94595999D01*
X112058200Y-95823200D02*
X116656600Y-95823200D01*
D49*
%TO.N,Net-(M1-Pad3)*%
X117532400Y-92267200D02*
X117532400Y-91251200D01*
X117532400Y-91251200D02*
X118243600Y-90540000D01*
X118243600Y-90540000D02*
X119970800Y-90540000D01*
D46*
%TO.N,Net-(M2-Pad1)*%
X126238000Y-86512400D02*
X126250200Y-86512400D01*
X126230000Y-94485000D02*
X127911400Y-94485000D01*
X126219200Y-86543400D02*
X126238000Y-86524600D01*
X124130000Y-100010000D02*
X126230000Y-97910000D01*
X125330000Y-105110000D02*
X126580000Y-105110000D01*
X127911400Y-94485000D02*
X127914400Y-94488000D01*
X126238000Y-94488000D02*
X126230000Y-94485000D01*
X124130000Y-103910000D02*
X125330000Y-105110000D01*
X124130000Y-103910000D02*
X124130000Y-100010000D01*
X126238000Y-86524600D02*
X126238000Y-86512400D01*
X126238000Y-86524600D02*
X127953000Y-86524600D01*
X126230000Y-97910000D02*
X126238000Y-94488000D01*
X126219200Y-89270000D02*
X126219200Y-86543400D01*
X126250200Y-86512400D02*
X126238000Y-86524600D01*
X127953000Y-86524600D02*
X127965200Y-86512400D01*
%TO.N,/SiPM_HV_Block/Enable*%
X127085000Y-101570000D02*
X132050000Y-101570000D01*
X127079999Y-101575001D02*
X127085000Y-101570000D01*
X127079999Y-103760000D02*
X127079999Y-101575001D01*
X132050000Y-101570000D02*
X133020000Y-102540000D01*
%TO.N,Net-(M3-Pad1)*%
X178815001Y-65750000D02*
X178815001Y-66709999D01*
X178520000Y-67005000D02*
X178520000Y-67740000D01*
X176875000Y-67760000D02*
X178500000Y-67760000D01*
X178500000Y-67760000D02*
X178520000Y-67740000D01*
X178815001Y-66709999D02*
X178520000Y-67005000D01*
D49*
%TO.N,Net-(Q1-Pad1)*%
X119970800Y-89270000D02*
X118430000Y-89270000D01*
X116745000Y-87585000D02*
X116745000Y-74220000D01*
X118430000Y-89270000D02*
X116745000Y-87585000D01*
D46*
%TO.N,/HV_Enable*%
X76435200Y-94465200D02*
X76435200Y-92885000D01*
X77793200Y-95823200D02*
X76435200Y-94465200D01*
X110408200Y-95823200D02*
X77793200Y-95823200D01*
%TO.N,Net-(U2B-+INB)*%
X170795001Y-71509999D02*
X170635000Y-71670000D01*
X170795001Y-68340000D02*
X170795001Y-71509999D01*
%TO.N,Net-(U3-R)*%
X76420001Y-91219801D02*
X76435200Y-91235000D01*
X76420001Y-89092200D02*
X76420001Y-91219801D01*
%TO.N,/V3p3*%
X76420001Y-85678399D02*
X76702200Y-85396200D01*
D47*
X103435400Y-80989600D02*
X103435400Y-74064350D01*
X103435400Y-81056850D02*
X97893150Y-81056850D01*
D46*
X93166100Y-84370000D02*
X91451100Y-84370000D01*
X91451100Y-84370000D02*
X91431100Y-84390000D01*
D47*
X103435400Y-81040400D02*
X103410000Y-81015000D01*
X108490000Y-82395000D02*
X108585000Y-82490000D01*
X108448150Y-81056850D02*
X108490000Y-81015000D01*
D46*
X76420001Y-86704600D02*
X76420001Y-85678399D01*
D47*
X103435400Y-81056850D02*
X103435400Y-81040400D01*
D46*
X76702200Y-85396200D02*
X76702200Y-83732800D01*
D47*
X103435400Y-81056850D02*
X108448150Y-81056850D01*
X103410000Y-81015000D02*
X103435400Y-80989600D01*
X108490000Y-81015000D02*
X108490000Y-82395000D01*
X97893150Y-81056850D02*
X97890000Y-81060000D01*
D46*
%TO.N,Net-(U5-OUT)*%
X168894999Y-68340000D02*
X168894999Y-69639999D01*
X168894999Y-69639999D02*
X168905000Y-69650000D01*
%TO.N,Net-(U5--IN)*%
X170795001Y-65720000D02*
X170795001Y-64550001D01*
X170795001Y-64550001D02*
X170535000Y-64290000D01*
D47*
%TO.N,Net-(CY1-Pad1)*%
X95160000Y-112940000D02*
X98350000Y-112940000D01*
X98350000Y-112940000D02*
X99700000Y-111590000D01*
X99700000Y-111590000D02*
X108995000Y-111590000D01*
%TO.N,Net-(CY2-Pad1)*%
X101210000Y-117805000D02*
X109030000Y-117805000D01*
D46*
X109030000Y-117805000D02*
X109075000Y-117850000D01*
D47*
X99675000Y-117805000D02*
X101210000Y-117805000D01*
X98310000Y-116440000D02*
X99675000Y-117805000D01*
X95160000Y-116440000D02*
X98310000Y-116440000D01*
%TD*%
M02*
