%TF.GenerationSoftware,KiCad,Pcbnew,8.0.6*%
%TF.CreationDate,2025-03-03T14:32:59-05:00*%
%TF.ProjectId,SiPM_Bias_Board,5369504d-5f42-4696-9173-5f426f617264,rev?*%
%TF.SameCoordinates,Original*%
%TF.FileFunction,Copper,L3,Inr*%
%TF.FilePolarity,Positive*%
%FSLAX46Y46*%
G04 Gerber Fmt 4.6, Leading zero omitted, Abs format (unit mm)*
G04 Created by KiCad (PCBNEW 8.0.6) date 2025-03-03 14:32:59*
%MOMM*%
%LPD*%
G01*
G04 APERTURE LIST*
%TA.AperFunction,ComponentPad*%
%ADD10C,6.400000*%
%TD*%
%TA.AperFunction,ComponentPad*%
%ADD11R,2.200000X2.200000*%
%TD*%
%TA.AperFunction,ComponentPad*%
%ADD12O,2.200000X2.200000*%
%TD*%
%TA.AperFunction,ComponentPad*%
%ADD13C,2.800000*%
%TD*%
%TA.AperFunction,ComponentPad*%
%ADD14C,2.006600*%
%TD*%
%TA.AperFunction,ComponentPad*%
%ADD15C,2.209800*%
%TD*%
%TA.AperFunction,ComponentPad*%
%ADD16C,2.159000*%
%TD*%
%TA.AperFunction,ComponentPad*%
%ADD17C,1.524000*%
%TD*%
%TA.AperFunction,ComponentPad*%
%ADD18C,2.100000*%
%TD*%
%TA.AperFunction,ComponentPad*%
%ADD19C,1.635000*%
%TD*%
%TA.AperFunction,ComponentPad*%
%ADD20C,4.216000*%
%TD*%
%TA.AperFunction,ComponentPad*%
%ADD21C,2.400000*%
%TD*%
%TA.AperFunction,ComponentPad*%
%ADD22O,2.400000X2.400000*%
%TD*%
%TA.AperFunction,ViaPad*%
%ADD23C,0.600000*%
%TD*%
%TA.AperFunction,Conductor*%
%ADD24C,0.200000*%
%TD*%
G04 APERTURE END LIST*
D10*
%TO.N,CHASSIS*%
%TO.C,H4*%
X228320000Y-127580000D03*
%TD*%
D11*
%TO.N,/SEC_PWR_RTN*%
%TO.C,D1*%
X229775000Y-121655000D03*
D12*
%TO.N,/SiPM_HV_Block/SiPM_HV_RTN*%
X229775000Y-111495000D03*
%TD*%
D13*
%TO.N,/SEC_PWR_TELEM_RTN*%
%TO.C,GND*%
X103820000Y-90060000D03*
%TD*%
%TO.N,/SiPM_HV_Block/REM_ADJ*%
%TO.C,V_{SET}*%
X90910000Y-75270000D03*
%TD*%
D10*
%TO.N,CHASSIS*%
%TO.C,H3*%
X148320000Y-127580000D03*
%TD*%
D14*
%TO.N,/SiPM_HV_Block/SiPM_HV_OUT*%
%TO.C,P_Out*%
X235363000Y-99430000D03*
D15*
%TO.N,/SiPM_HV_Block/SiPM_HV_RTN*%
X237903000Y-96890000D03*
%TO.N,unconnected-(P_Out1-GND-Pad3)*%
X232823000Y-96890000D03*
%TO.N,unconnected-(P_Out1-GND-Pad4)*%
X232823000Y-101970000D03*
%TO.N,unconnected-(P_Out1-GND-Pad5)*%
X237903000Y-101970000D03*
%TD*%
D10*
%TO.N,CHASSIS*%
%TO.C,H2*%
X76320000Y-127580000D03*
%TD*%
D13*
%TO.N,/SiPM_HV_Block/SiPM_HV_RTN*%
%TO.C,V_{OUT_RTN}1*%
X231140000Y-88900000D03*
%TD*%
D16*
%TO.N,Net-(M3-Pad3)*%
%TO.C,P2*%
X191410000Y-67580000D03*
%TD*%
D17*
%TO.N,/SiPM_HV_Block/V_RTN*%
%TO.C,U1*%
X133020000Y-117780000D03*
%TO.N,/SiPM_HV_Block/V_POS*%
X133020000Y-112700000D03*
%TO.N,/SiPM_HV_Block/Curr_Mon*%
X133020000Y-107620000D03*
%TO.N,/SiPM_HV_Block/Enable*%
X133020000Y-102540000D03*
%TO.N,/SEC_PWR_TELEM_RTN*%
X133020000Y-97460000D03*
%TO.N,/SiPM_HV_Block/REM_ADJ*%
X133020000Y-92380000D03*
%TO.N,unconnected-(U1-5V_REF-Pad7)*%
X133020000Y-87300000D03*
%TO.N,/SiPM_HV_Block/SiPM_HV_RTN*%
X214320000Y-87300000D03*
X214320000Y-89800000D03*
%TO.N,/SiPM_HV_Block/SiPM_HV_OUT*%
X214320000Y-108600000D03*
X214320000Y-111100000D03*
%TD*%
D18*
%TO.N,/SEC_PWR_RTN*%
%TO.C,J2*%
X64110000Y-109480000D03*
%TO.N,/SEC_PWR_IN*%
X64110000Y-112980000D03*
%TO.N,/SEC_PWR_RTN*%
X64110000Y-116480000D03*
%TO.N,/SEC_PWR_IN*%
X64110000Y-119980000D03*
%TD*%
D13*
%TO.N,/SiPM_HV_Block/Enable*%
%TO.C,V_{EN}*%
X117980000Y-100350000D03*
%TD*%
D10*
%TO.N,CHASSIS*%
%TO.C,H6*%
X228320000Y-67580000D03*
%TD*%
D13*
%TO.N,/SEC_PWR_RTN*%
%TO.C,GND*%
X80970000Y-106880000D03*
%TD*%
D10*
%TO.N,CHASSIS*%
%TO.C,H1*%
X76320000Y-67580000D03*
%TD*%
D19*
%TO.N,/HV_CURR_MON*%
%TO.C,J3*%
X66880000Y-89730000D03*
%TO.N,/HV_Enable+*%
X66880000Y-86960000D03*
%TO.N,unconnected-(J3-Pad3)*%
X66880000Y-84190000D03*
%TO.N,/SEC_PWR_TELEM_RTN*%
X66880000Y-81420000D03*
X66880000Y-78650000D03*
X64040000Y-88345000D03*
%TO.N,/HV_Enable-*%
X64040000Y-85575000D03*
%TO.N,/HV_VOLT_MON*%
X64040000Y-82805000D03*
%TO.N,/SET_HV*%
X64040000Y-80035000D03*
D20*
%TO.N,CHASSIS*%
X65460000Y-71690000D03*
X65460000Y-96690000D03*
%TD*%
D16*
%TO.N,Net-(P1-Pad1)*%
%TO.C,P1*%
X207410000Y-67580000D03*
%TD*%
D10*
%TO.N,CHASSIS*%
%TO.C,H5*%
X148320000Y-67580000D03*
%TD*%
D21*
%TO.N,/SiPM_HV_Block/SiPM_HV_OUT*%
%TO.C,R20*%
X178340000Y-79110000D03*
D22*
%TO.N,Net-(U5-+IN)*%
X163100000Y-79110000D03*
%TD*%
D18*
%TO.N,/SEC_PWR_TELEM_RTN*%
%TO.C,J1*%
X97720400Y-68895600D03*
%TO.N,/SEC_PWR_TELEM*%
X93910400Y-68895600D03*
%TO.N,/SEC_PWR_TELEM_RTN*%
X90100400Y-68895600D03*
%TD*%
D13*
%TO.N,CHASSIS*%
%TO.C,Chassis*%
X66520000Y-128550000D03*
%TD*%
D11*
%TO.N,/SiPM_HV_Block/SiPM_HV_RTN*%
%TO.C,D2*%
X235430000Y-111570000D03*
D12*
%TO.N,/SEC_PWR_RTN*%
X235430000Y-121730000D03*
%TD*%
D23*
%TO.N,/SEC_PWR_RTN*%
X229140000Y-105780000D03*
X234220000Y-131180000D03*
X69120000Y-126100000D03*
X97060000Y-123560000D03*
X224060000Y-77840000D03*
X183420000Y-123560000D03*
X213900000Y-77840000D03*
X203740000Y-131180000D03*
X64040000Y-131180000D03*
X58960000Y-105780000D03*
X69120000Y-110860000D03*
X188500000Y-131180000D03*
X91980000Y-131180000D03*
X127540000Y-115940000D03*
X112300000Y-131180000D03*
X86900000Y-123560000D03*
X127540000Y-118480000D03*
X213900000Y-131180000D03*
X168180000Y-131180000D03*
X229140000Y-100700000D03*
X203740000Y-123560000D03*
X127540000Y-113400000D03*
X97060000Y-131180000D03*
X152940000Y-123560000D03*
X117380000Y-121020000D03*
X64040000Y-105780000D03*
X193580000Y-123560000D03*
X193580000Y-77840000D03*
X64040000Y-126100000D03*
X208820000Y-131180000D03*
X158020000Y-131180000D03*
X89440000Y-105780000D03*
X229140000Y-77840000D03*
X163100000Y-131180000D03*
X69120000Y-131180000D03*
X218980000Y-77840000D03*
X158020000Y-123560000D03*
X198660000Y-77840000D03*
X109760000Y-105780000D03*
X81820000Y-131180000D03*
X86900000Y-131180000D03*
X132620000Y-131180000D03*
X208820000Y-77840000D03*
X218980000Y-123560000D03*
X74200000Y-105780000D03*
X142780000Y-131180000D03*
X224060000Y-131180000D03*
X114610000Y-104910000D03*
X188500000Y-123560000D03*
X80930000Y-125110000D03*
X157690000Y-80770000D03*
X173260000Y-123560000D03*
X142780000Y-123560000D03*
X69120000Y-105780000D03*
X79280000Y-110860000D03*
X69120000Y-121020000D03*
X229140000Y-95620000D03*
X203740000Y-77840000D03*
X183420000Y-131180000D03*
X178340000Y-131180000D03*
X234220000Y-126100000D03*
X58960000Y-131180000D03*
X198660000Y-131180000D03*
X127540000Y-123560000D03*
X132620000Y-123560000D03*
X193580000Y-131180000D03*
X84360000Y-126100000D03*
X122460000Y-131180000D03*
X111520000Y-107480000D03*
X137700000Y-123560000D03*
X94520000Y-105780000D03*
X168180000Y-123560000D03*
X188500000Y-77840000D03*
X163100000Y-123560000D03*
X107220000Y-131180000D03*
X102140000Y-131180000D03*
X152940000Y-131180000D03*
X101400000Y-107080000D03*
X178340000Y-123560000D03*
X117380000Y-123560000D03*
X91980000Y-123560000D03*
X74200000Y-121020000D03*
X69120000Y-115940000D03*
X183420000Y-77840000D03*
X101220000Y-122410000D03*
X198660000Y-123560000D03*
X74200000Y-110860000D03*
X127540000Y-131180000D03*
X122460000Y-123560000D03*
X173260000Y-131180000D03*
X117380000Y-131180000D03*
X137700000Y-131180000D03*
X218980000Y-131180000D03*
%TO.N,/SiPM_HV_Block/V_POS*%
X126238000Y-83820000D03*
X125300000Y-103290000D03*
%TO.N,/SiPM_HV_Block/V_RTN*%
X128430000Y-105110000D03*
X128160000Y-90550000D03*
%TO.N,/SiPM_HV_Block/SiPM_HV_RTN*%
X214230000Y-124190000D03*
%TO.N,CHASSIS*%
X207853278Y-124184243D03*
X105370000Y-107100000D03*
X105270000Y-122420000D03*
%TO.N,/SEC_PWR_TELEM*%
X175625000Y-70340000D03*
X168885000Y-64500000D03*
X89890000Y-80100000D03*
%TO.N,/SEC_PWR_TELEM_RTN*%
X121920000Y-71120000D03*
X101600000Y-99060000D03*
X154940000Y-66040000D03*
X201200000Y-72760000D03*
X191040000Y-72760000D03*
X201200000Y-67680000D03*
X114610000Y-100240000D03*
X127000000Y-71120000D03*
X208820000Y-72760000D03*
X83390000Y-82530000D03*
X142240000Y-66040000D03*
X213900000Y-65140000D03*
X101600000Y-101600000D03*
X91440000Y-101600000D03*
X119380000Y-76200000D03*
X110835400Y-79935600D03*
X160020000Y-71120000D03*
X175800000Y-62600000D03*
X76200000Y-101600000D03*
X86360000Y-101600000D03*
X81280000Y-99060000D03*
X193580000Y-72760000D03*
X71120000Y-96520000D03*
X111760000Y-83820000D03*
X160020000Y-66040000D03*
X76200000Y-76200000D03*
X154940000Y-71120000D03*
X106680000Y-71120000D03*
X71120000Y-99060000D03*
X211360000Y-72760000D03*
X127000000Y-66040000D03*
X120840000Y-97500000D03*
X201200000Y-62600000D03*
X116840000Y-66040000D03*
X71120000Y-76200000D03*
X86360000Y-99060000D03*
X137160000Y-66040000D03*
X137160000Y-71120000D03*
X198660000Y-72760000D03*
X91440000Y-99060000D03*
X116840000Y-88900000D03*
X93620000Y-81060000D03*
X119380000Y-83820000D03*
X173260000Y-70220000D03*
X83970000Y-74510000D03*
X116840000Y-71120000D03*
X97720000Y-77260000D03*
X111760000Y-88900000D03*
X166205000Y-63420000D03*
X173260000Y-72760000D03*
X183420000Y-72760000D03*
X66040000Y-66040000D03*
X111760000Y-71120000D03*
X75120000Y-85120000D03*
X198660000Y-67680000D03*
X96520000Y-99060000D03*
X71120000Y-101600000D03*
X213900000Y-62600000D03*
X111760000Y-93980000D03*
X188500000Y-72760000D03*
X101600000Y-66040000D03*
X71120000Y-71120000D03*
X81280000Y-101600000D03*
X119361200Y-95823200D03*
X93800000Y-88630000D03*
X86360000Y-71120000D03*
X142240000Y-71120000D03*
X76200000Y-96520000D03*
X165100000Y-66040000D03*
X76200000Y-99060000D03*
X79280000Y-75300000D03*
X121920000Y-66040000D03*
X180880000Y-72760000D03*
X213900000Y-70220000D03*
X132080000Y-71120000D03*
X169845000Y-70040000D03*
X106680000Y-93980000D03*
X213900000Y-72760000D03*
X206280000Y-72760000D03*
X196120000Y-72760000D03*
X165100000Y-71120000D03*
X173260000Y-62600000D03*
X203740000Y-72760000D03*
X181750000Y-67807000D03*
X96520000Y-101600000D03*
X106680000Y-66040000D03*
X132080000Y-66040000D03*
X198660000Y-62600000D03*
X180880000Y-65140000D03*
X213900000Y-67680000D03*
X175800000Y-72760000D03*
X91440000Y-71120000D03*
X106680000Y-83820000D03*
X121920000Y-73660000D03*
X183420000Y-70220000D03*
X71120000Y-66040000D03*
X173260000Y-65140000D03*
X175800000Y-65140000D03*
X106680000Y-101600000D03*
X111760000Y-66040000D03*
X183420000Y-65140000D03*
X121920000Y-76200000D03*
X178340000Y-72760000D03*
X96520000Y-88900000D03*
X185960000Y-65140000D03*
X81280000Y-71120000D03*
X185960000Y-72760000D03*
X84480000Y-80770000D03*
X101600000Y-71120000D03*
%TO.N,/HV_VOLT_MON*%
X88790000Y-90350000D03*
%TO.N,Net-(M2-Pad1)*%
X127965200Y-86512400D03*
X127914400Y-94488000D03*
%TO.N,Net-(M3-Pad1)*%
X176875000Y-67760000D03*
%TO.N,/V3p3*%
X108490000Y-81015000D03*
X89600000Y-88630000D03*
X76680000Y-85110000D03*
%TO.N,Net-(U5-OUT)*%
X168905000Y-69650000D03*
%TO.N,Net-(U5--IN)*%
X170535000Y-64290000D03*
%TO.N,Net-(U5-+IN)*%
X170635000Y-71670000D03*
%TD*%
D24*
%TO.N,/SiPM_HV_Block/REM_ADJ*%
X135180000Y-90220000D02*
X133020000Y-92380000D01*
X135180000Y-76570000D02*
X135180000Y-90220000D01*
X90830000Y-75330000D02*
X133940000Y-75330000D01*
X133940000Y-75330000D02*
X135180000Y-76570000D01*
%TD*%
%TA.AperFunction,Conductor*%
%TO.N,/SEC_PWR_TELEM*%
G36*
X172556267Y-61984685D02*
G01*
X172602022Y-62037489D01*
X172611966Y-62106647D01*
X172594221Y-62154973D01*
X172534211Y-62250475D01*
X172474631Y-62420745D01*
X172474630Y-62420750D01*
X172454435Y-62599996D01*
X172454435Y-62600003D01*
X172474630Y-62779249D01*
X172474631Y-62779254D01*
X172534211Y-62949523D01*
X172610213Y-63070478D01*
X172630184Y-63102262D01*
X172757738Y-63229816D01*
X172910478Y-63325789D01*
X173080745Y-63385368D01*
X173080750Y-63385369D01*
X173259996Y-63405565D01*
X173260000Y-63405565D01*
X173260004Y-63405565D01*
X173439249Y-63385369D01*
X173439252Y-63385368D01*
X173439255Y-63385368D01*
X173609522Y-63325789D01*
X173762262Y-63229816D01*
X173889816Y-63102262D01*
X173985789Y-62949522D01*
X174045368Y-62779255D01*
X174061663Y-62634631D01*
X174065565Y-62600003D01*
X174065565Y-62599996D01*
X174045369Y-62420750D01*
X174045368Y-62420745D01*
X173985788Y-62250475D01*
X173925779Y-62154973D01*
X173906778Y-62087736D01*
X173927145Y-62020901D01*
X173980413Y-61975686D01*
X174030772Y-61965000D01*
X175029228Y-61965000D01*
X175096267Y-61984685D01*
X175142022Y-62037489D01*
X175151966Y-62106647D01*
X175134221Y-62154973D01*
X175074211Y-62250475D01*
X175014631Y-62420745D01*
X175014630Y-62420750D01*
X174994435Y-62599996D01*
X174994435Y-62600003D01*
X175014630Y-62779249D01*
X175014631Y-62779254D01*
X175074211Y-62949523D01*
X175150213Y-63070478D01*
X175170184Y-63102262D01*
X175297738Y-63229816D01*
X175450478Y-63325789D01*
X175620745Y-63385368D01*
X175620750Y-63385369D01*
X175799996Y-63405565D01*
X175800000Y-63405565D01*
X175800004Y-63405565D01*
X175979249Y-63385369D01*
X175979252Y-63385368D01*
X175979255Y-63385368D01*
X176149522Y-63325789D01*
X176302262Y-63229816D01*
X176429816Y-63102262D01*
X176525789Y-62949522D01*
X176585368Y-62779255D01*
X176601663Y-62634631D01*
X176605565Y-62600003D01*
X176605565Y-62599996D01*
X176585369Y-62420750D01*
X176585368Y-62420745D01*
X176525788Y-62250475D01*
X176465779Y-62154973D01*
X176446778Y-62087736D01*
X176467145Y-62020901D01*
X176520413Y-61975686D01*
X176570772Y-61965000D01*
X197889228Y-61965000D01*
X197956267Y-61984685D01*
X198002022Y-62037489D01*
X198011966Y-62106647D01*
X197994221Y-62154973D01*
X197934211Y-62250475D01*
X197874631Y-62420745D01*
X197874630Y-62420750D01*
X197854435Y-62599996D01*
X197854435Y-62600003D01*
X197874630Y-62779249D01*
X197874631Y-62779254D01*
X197934211Y-62949523D01*
X198010213Y-63070478D01*
X198030184Y-63102262D01*
X198157738Y-63229816D01*
X198310478Y-63325789D01*
X198480745Y-63385368D01*
X198480750Y-63385369D01*
X198659996Y-63405565D01*
X198660000Y-63405565D01*
X198660004Y-63405565D01*
X198839249Y-63385369D01*
X198839252Y-63385368D01*
X198839255Y-63385368D01*
X199009522Y-63325789D01*
X199162262Y-63229816D01*
X199289816Y-63102262D01*
X199385789Y-62949522D01*
X199445368Y-62779255D01*
X199461663Y-62634631D01*
X199465565Y-62600003D01*
X199465565Y-62599996D01*
X199445369Y-62420750D01*
X199445368Y-62420745D01*
X199385788Y-62250475D01*
X199325779Y-62154973D01*
X199306778Y-62087736D01*
X199327145Y-62020901D01*
X199380413Y-61975686D01*
X199430772Y-61965000D01*
X200429228Y-61965000D01*
X200496267Y-61984685D01*
X200542022Y-62037489D01*
X200551966Y-62106647D01*
X200534221Y-62154973D01*
X200474211Y-62250475D01*
X200414631Y-62420745D01*
X200414630Y-62420750D01*
X200394435Y-62599996D01*
X200394435Y-62600003D01*
X200414630Y-62779249D01*
X200414631Y-62779254D01*
X200474211Y-62949523D01*
X200550213Y-63070478D01*
X200570184Y-63102262D01*
X200697738Y-63229816D01*
X200850478Y-63325789D01*
X201020745Y-63385368D01*
X201020750Y-63385369D01*
X201199996Y-63405565D01*
X201200000Y-63405565D01*
X201200004Y-63405565D01*
X201379249Y-63385369D01*
X201379252Y-63385368D01*
X201379255Y-63385368D01*
X201549522Y-63325789D01*
X201702262Y-63229816D01*
X201829816Y-63102262D01*
X201925789Y-62949522D01*
X201985368Y-62779255D01*
X202001663Y-62634631D01*
X202005565Y-62600003D01*
X202005565Y-62599996D01*
X201985369Y-62420750D01*
X201985368Y-62420745D01*
X201925788Y-62250475D01*
X201865779Y-62154973D01*
X201846778Y-62087736D01*
X201867145Y-62020901D01*
X201920413Y-61975686D01*
X201970772Y-61965000D01*
X213129228Y-61965000D01*
X213196267Y-61984685D01*
X213242022Y-62037489D01*
X213251966Y-62106647D01*
X213234221Y-62154973D01*
X213174211Y-62250475D01*
X213114631Y-62420745D01*
X213114630Y-62420750D01*
X213094435Y-62599996D01*
X213094435Y-62600003D01*
X213114630Y-62779249D01*
X213114631Y-62779254D01*
X213174211Y-62949523D01*
X213250213Y-63070478D01*
X213270184Y-63102262D01*
X213397738Y-63229816D01*
X213550478Y-63325789D01*
X213720745Y-63385368D01*
X213720750Y-63385369D01*
X213899996Y-63405565D01*
X213900000Y-63405565D01*
X213900004Y-63405565D01*
X214079249Y-63385369D01*
X214079252Y-63385368D01*
X214079255Y-63385368D01*
X214249522Y-63325789D01*
X214402262Y-63229816D01*
X214529816Y-63102262D01*
X214625789Y-62949522D01*
X214685368Y-62779255D01*
X214701663Y-62634631D01*
X214705565Y-62600003D01*
X214705565Y-62599996D01*
X214685369Y-62420750D01*
X214685368Y-62420745D01*
X214625788Y-62250475D01*
X214565779Y-62154973D01*
X214546778Y-62087736D01*
X214567145Y-62020901D01*
X214620413Y-61975686D01*
X214670772Y-61965000D01*
X215046000Y-61965000D01*
X215113039Y-61984685D01*
X215158794Y-62037489D01*
X215170000Y-62089000D01*
X215170000Y-72636000D01*
X215150315Y-72703039D01*
X215097511Y-72748794D01*
X215046000Y-72760000D01*
X214816378Y-72760000D01*
X214749339Y-72740315D01*
X214703584Y-72687511D01*
X214693158Y-72649883D01*
X214685369Y-72580749D01*
X214685368Y-72580745D01*
X214641497Y-72455369D01*
X214625789Y-72410478D01*
X214529816Y-72257738D01*
X214402262Y-72130184D01*
X214249523Y-72034211D01*
X214079254Y-71974631D01*
X214079249Y-71974630D01*
X213900004Y-71954435D01*
X213899996Y-71954435D01*
X213720750Y-71974630D01*
X213720745Y-71974631D01*
X213550476Y-72034211D01*
X213397737Y-72130184D01*
X213270184Y-72257737D01*
X213174211Y-72410476D01*
X213114631Y-72580745D01*
X213114630Y-72580749D01*
X213106842Y-72649883D01*
X213079776Y-72714297D01*
X213022182Y-72753852D01*
X212983622Y-72760000D01*
X212276378Y-72760000D01*
X212209339Y-72740315D01*
X212163584Y-72687511D01*
X212153158Y-72649883D01*
X212145369Y-72580749D01*
X212145368Y-72580745D01*
X212101497Y-72455369D01*
X212085789Y-72410478D01*
X211989816Y-72257738D01*
X211862262Y-72130184D01*
X211709523Y-72034211D01*
X211539254Y-71974631D01*
X211539249Y-71974630D01*
X211360004Y-71954435D01*
X211359996Y-71954435D01*
X211180750Y-71974630D01*
X211180745Y-71974631D01*
X211010476Y-72034211D01*
X210857737Y-72130184D01*
X210730184Y-72257737D01*
X210634211Y-72410476D01*
X210574631Y-72580745D01*
X210574630Y-72580749D01*
X210566842Y-72649883D01*
X210539776Y-72714297D01*
X210482182Y-72753852D01*
X210443622Y-72760000D01*
X209736378Y-72760000D01*
X209669339Y-72740315D01*
X209623584Y-72687511D01*
X209613158Y-72649883D01*
X209605369Y-72580749D01*
X209605368Y-72580745D01*
X209561497Y-72455369D01*
X209545789Y-72410478D01*
X209449816Y-72257738D01*
X209322262Y-72130184D01*
X209169523Y-72034211D01*
X208999254Y-71974631D01*
X208999249Y-71974630D01*
X208820004Y-71954435D01*
X208819996Y-71954435D01*
X208640750Y-71974630D01*
X208640745Y-71974631D01*
X208470476Y-72034211D01*
X208317737Y-72130184D01*
X208190184Y-72257737D01*
X208094211Y-72410476D01*
X208034631Y-72580745D01*
X208034630Y-72580749D01*
X208026842Y-72649883D01*
X207999776Y-72714297D01*
X207942182Y-72753852D01*
X207903622Y-72760000D01*
X207196378Y-72760000D01*
X207129339Y-72740315D01*
X207083584Y-72687511D01*
X207073158Y-72649883D01*
X207065369Y-72580749D01*
X207065368Y-72580745D01*
X207021497Y-72455369D01*
X207005789Y-72410478D01*
X206909816Y-72257738D01*
X206782262Y-72130184D01*
X206629523Y-72034211D01*
X206459254Y-71974631D01*
X206459249Y-71974630D01*
X206280004Y-71954435D01*
X206279996Y-71954435D01*
X206100750Y-71974630D01*
X206100745Y-71974631D01*
X205930476Y-72034211D01*
X205777737Y-72130184D01*
X205650184Y-72257737D01*
X205554211Y-72410476D01*
X205494631Y-72580745D01*
X205494630Y-72580749D01*
X205486842Y-72649883D01*
X205459776Y-72714297D01*
X205402182Y-72753852D01*
X205363622Y-72760000D01*
X204656378Y-72760000D01*
X204589339Y-72740315D01*
X204543584Y-72687511D01*
X204533158Y-72649883D01*
X204525369Y-72580749D01*
X204525368Y-72580745D01*
X204481497Y-72455369D01*
X204465789Y-72410478D01*
X204369816Y-72257738D01*
X204242262Y-72130184D01*
X204089523Y-72034211D01*
X203919254Y-71974631D01*
X203919249Y-71974630D01*
X203740004Y-71954435D01*
X203739996Y-71954435D01*
X203560750Y-71974630D01*
X203560745Y-71974631D01*
X203390476Y-72034211D01*
X203237737Y-72130184D01*
X203110184Y-72257737D01*
X203014211Y-72410476D01*
X202954631Y-72580745D01*
X202954630Y-72580749D01*
X202946842Y-72649883D01*
X202919776Y-72714297D01*
X202862182Y-72753852D01*
X202823622Y-72760000D01*
X202116378Y-72760000D01*
X202049339Y-72740315D01*
X202003584Y-72687511D01*
X201993158Y-72649883D01*
X201985369Y-72580749D01*
X201985368Y-72580745D01*
X201941497Y-72455369D01*
X201925789Y-72410478D01*
X201829816Y-72257738D01*
X201702262Y-72130184D01*
X201549523Y-72034211D01*
X201379254Y-71974631D01*
X201379249Y-71974630D01*
X201200004Y-71954435D01*
X201199996Y-71954435D01*
X201020750Y-71974630D01*
X201020745Y-71974631D01*
X200850476Y-72034211D01*
X200697737Y-72130184D01*
X200570184Y-72257737D01*
X200474211Y-72410476D01*
X200414631Y-72580745D01*
X200414630Y-72580749D01*
X200406842Y-72649883D01*
X200379776Y-72714297D01*
X200322182Y-72753852D01*
X200283622Y-72760000D01*
X199576378Y-72760000D01*
X199509339Y-72740315D01*
X199463584Y-72687511D01*
X199453158Y-72649883D01*
X199445369Y-72580749D01*
X199445368Y-72580745D01*
X199401497Y-72455369D01*
X199385789Y-72410478D01*
X199289816Y-72257738D01*
X199162262Y-72130184D01*
X199009523Y-72034211D01*
X198839254Y-71974631D01*
X198839249Y-71974630D01*
X198660004Y-71954435D01*
X198659996Y-71954435D01*
X198480750Y-71974630D01*
X198480745Y-71974631D01*
X198310476Y-72034211D01*
X198157737Y-72130184D01*
X198030184Y-72257737D01*
X197934211Y-72410476D01*
X197874631Y-72580745D01*
X197874630Y-72580749D01*
X197866842Y-72649883D01*
X197839776Y-72714297D01*
X197782182Y-72753852D01*
X197743622Y-72760000D01*
X197036378Y-72760000D01*
X196969339Y-72740315D01*
X196923584Y-72687511D01*
X196913158Y-72649883D01*
X196905369Y-72580749D01*
X196905368Y-72580745D01*
X196861497Y-72455369D01*
X196845789Y-72410478D01*
X196749816Y-72257738D01*
X196622262Y-72130184D01*
X196469523Y-72034211D01*
X196299254Y-71974631D01*
X196299249Y-71974630D01*
X196120004Y-71954435D01*
X196119996Y-71954435D01*
X195940750Y-71974630D01*
X195940745Y-71974631D01*
X195770476Y-72034211D01*
X195617737Y-72130184D01*
X195490184Y-72257737D01*
X195394211Y-72410476D01*
X195334631Y-72580745D01*
X195334630Y-72580749D01*
X195326842Y-72649883D01*
X195299776Y-72714297D01*
X195242182Y-72753852D01*
X195203622Y-72760000D01*
X194496378Y-72760000D01*
X194429339Y-72740315D01*
X194383584Y-72687511D01*
X194373158Y-72649883D01*
X194365369Y-72580749D01*
X194365368Y-72580745D01*
X194321497Y-72455369D01*
X194305789Y-72410478D01*
X194209816Y-72257738D01*
X194082262Y-72130184D01*
X193929523Y-72034211D01*
X193759254Y-71974631D01*
X193759249Y-71974630D01*
X193580004Y-71954435D01*
X193579996Y-71954435D01*
X193400750Y-71974630D01*
X193400745Y-71974631D01*
X193230476Y-72034211D01*
X193077737Y-72130184D01*
X192950184Y-72257737D01*
X192854211Y-72410476D01*
X192794631Y-72580745D01*
X192794630Y-72580749D01*
X192786842Y-72649883D01*
X192759776Y-72714297D01*
X192702182Y-72753852D01*
X192663622Y-72760000D01*
X191956378Y-72760000D01*
X191889339Y-72740315D01*
X191843584Y-72687511D01*
X191833158Y-72649883D01*
X191825369Y-72580749D01*
X191825368Y-72580745D01*
X191781497Y-72455369D01*
X191765789Y-72410478D01*
X191669816Y-72257738D01*
X191542262Y-72130184D01*
X191389523Y-72034211D01*
X191219254Y-71974631D01*
X191219249Y-71974630D01*
X191040004Y-71954435D01*
X191039996Y-71954435D01*
X190860750Y-71974630D01*
X190860745Y-71974631D01*
X190690476Y-72034211D01*
X190537737Y-72130184D01*
X190410184Y-72257737D01*
X190314211Y-72410476D01*
X190254631Y-72580745D01*
X190254630Y-72580749D01*
X190246842Y-72649883D01*
X190219776Y-72714297D01*
X190162182Y-72753852D01*
X190123622Y-72760000D01*
X189416378Y-72760000D01*
X189349339Y-72740315D01*
X189303584Y-72687511D01*
X189293158Y-72649883D01*
X189285369Y-72580749D01*
X189285368Y-72580745D01*
X189241497Y-72455369D01*
X189225789Y-72410478D01*
X189129816Y-72257738D01*
X189002262Y-72130184D01*
X188849523Y-72034211D01*
X188679254Y-71974631D01*
X188679249Y-71974630D01*
X188500004Y-71954435D01*
X188499996Y-71954435D01*
X188320750Y-71974630D01*
X188320745Y-71974631D01*
X188150476Y-72034211D01*
X187997737Y-72130184D01*
X187870184Y-72257737D01*
X187774211Y-72410476D01*
X187714631Y-72580745D01*
X187714630Y-72580749D01*
X187706842Y-72649883D01*
X187679776Y-72714297D01*
X187622182Y-72753852D01*
X187583622Y-72760000D01*
X186876378Y-72760000D01*
X186809339Y-72740315D01*
X186763584Y-72687511D01*
X186753158Y-72649883D01*
X186745369Y-72580749D01*
X186745368Y-72580745D01*
X186701497Y-72455369D01*
X186685789Y-72410478D01*
X186589816Y-72257738D01*
X186462262Y-72130184D01*
X186309523Y-72034211D01*
X186139254Y-71974631D01*
X186139249Y-71974630D01*
X185960004Y-71954435D01*
X185959996Y-71954435D01*
X185780750Y-71974630D01*
X185780745Y-71974631D01*
X185610476Y-72034211D01*
X185457737Y-72130184D01*
X185330184Y-72257737D01*
X185234211Y-72410476D01*
X185174631Y-72580745D01*
X185174630Y-72580749D01*
X185166842Y-72649883D01*
X185139776Y-72714297D01*
X185082182Y-72753852D01*
X185043622Y-72760000D01*
X184336378Y-72760000D01*
X184269339Y-72740315D01*
X184223584Y-72687511D01*
X184213158Y-72649883D01*
X184205369Y-72580749D01*
X184205368Y-72580745D01*
X184161497Y-72455369D01*
X184145789Y-72410478D01*
X184049816Y-72257738D01*
X183922262Y-72130184D01*
X183769523Y-72034211D01*
X183599254Y-71974631D01*
X183599249Y-71974630D01*
X183420004Y-71954435D01*
X183419996Y-71954435D01*
X183240750Y-71974630D01*
X183240745Y-71974631D01*
X183070476Y-72034211D01*
X182917737Y-72130184D01*
X182790184Y-72257737D01*
X182694211Y-72410476D01*
X182634631Y-72580745D01*
X182634630Y-72580749D01*
X182626842Y-72649883D01*
X182599776Y-72714297D01*
X182542182Y-72753852D01*
X182503622Y-72760000D01*
X181796378Y-72760000D01*
X181729339Y-72740315D01*
X181683584Y-72687511D01*
X181673158Y-72649883D01*
X181665369Y-72580749D01*
X181665368Y-72580745D01*
X181621497Y-72455369D01*
X181605789Y-72410478D01*
X181509816Y-72257738D01*
X181382262Y-72130184D01*
X181229523Y-72034211D01*
X181059254Y-71974631D01*
X181059249Y-71974630D01*
X180880004Y-71954435D01*
X180879996Y-71954435D01*
X180700750Y-71974630D01*
X180700745Y-71974631D01*
X180530476Y-72034211D01*
X180377737Y-72130184D01*
X180250184Y-72257737D01*
X180154211Y-72410476D01*
X180094631Y-72580745D01*
X180094630Y-72580749D01*
X180086842Y-72649883D01*
X180059776Y-72714297D01*
X180002182Y-72753852D01*
X179963622Y-72760000D01*
X179256378Y-72760000D01*
X179189339Y-72740315D01*
X179143584Y-72687511D01*
X179133158Y-72649883D01*
X179125369Y-72580749D01*
X179125368Y-72580745D01*
X179081497Y-72455369D01*
X179065789Y-72410478D01*
X178969816Y-72257738D01*
X178842262Y-72130184D01*
X178689523Y-72034211D01*
X178519254Y-71974631D01*
X178519249Y-71974630D01*
X178340004Y-71954435D01*
X178339996Y-71954435D01*
X178160750Y-71974630D01*
X178160745Y-71974631D01*
X177990476Y-72034211D01*
X177837737Y-72130184D01*
X177710184Y-72257737D01*
X177614211Y-72410476D01*
X177554631Y-72580745D01*
X177554630Y-72580749D01*
X177546842Y-72649883D01*
X177519776Y-72714297D01*
X177462182Y-72753852D01*
X177423622Y-72760000D01*
X176716378Y-72760000D01*
X176649339Y-72740315D01*
X176603584Y-72687511D01*
X176593158Y-72649883D01*
X176585369Y-72580749D01*
X176585368Y-72580745D01*
X176541497Y-72455369D01*
X176525789Y-72410478D01*
X176429816Y-72257738D01*
X176302262Y-72130184D01*
X176149523Y-72034211D01*
X175979254Y-71974631D01*
X175979249Y-71974630D01*
X175800004Y-71954435D01*
X175799996Y-71954435D01*
X175620750Y-71974630D01*
X175620745Y-71974631D01*
X175450476Y-72034211D01*
X175297737Y-72130184D01*
X175170184Y-72257737D01*
X175074211Y-72410476D01*
X175014631Y-72580745D01*
X175014630Y-72580749D01*
X175006842Y-72649883D01*
X174979776Y-72714297D01*
X174922182Y-72753852D01*
X174883622Y-72760000D01*
X174176378Y-72760000D01*
X174109339Y-72740315D01*
X174063584Y-72687511D01*
X174053158Y-72649883D01*
X174045369Y-72580749D01*
X174045368Y-72580745D01*
X174001497Y-72455369D01*
X173985789Y-72410478D01*
X173889816Y-72257738D01*
X173762262Y-72130184D01*
X173609523Y-72034211D01*
X173439254Y-71974631D01*
X173439249Y-71974630D01*
X173260004Y-71954435D01*
X173259996Y-71954435D01*
X173080750Y-71974630D01*
X173080745Y-71974631D01*
X172910476Y-72034211D01*
X172757737Y-72130184D01*
X172630184Y-72257737D01*
X172534211Y-72410476D01*
X172474631Y-72580745D01*
X172474630Y-72580749D01*
X172466842Y-72649883D01*
X172439776Y-72714297D01*
X172382182Y-72753852D01*
X172343622Y-72760000D01*
X87659000Y-72760000D01*
X87591961Y-72740315D01*
X87546206Y-72687511D01*
X87535000Y-72636000D01*
X87535000Y-71119996D01*
X90634435Y-71119996D01*
X90634435Y-71120003D01*
X90654630Y-71299249D01*
X90654631Y-71299254D01*
X90714211Y-71469523D01*
X90727546Y-71490745D01*
X90810184Y-71622262D01*
X90937738Y-71749816D01*
X91090478Y-71845789D01*
X91260745Y-71905368D01*
X91260750Y-71905369D01*
X91439996Y-71925565D01*
X91440000Y-71925565D01*
X91440004Y-71925565D01*
X91619249Y-71905369D01*
X91619252Y-71905368D01*
X91619255Y-71905368D01*
X91789522Y-71845789D01*
X91942262Y-71749816D01*
X92069816Y-71622262D01*
X92165789Y-71469522D01*
X92225368Y-71299255D01*
X92226909Y-71285578D01*
X92245565Y-71120003D01*
X92245565Y-71119996D01*
X100794435Y-71119996D01*
X100794435Y-71120003D01*
X100814630Y-71299249D01*
X100814631Y-71299254D01*
X100874211Y-71469523D01*
X100887546Y-71490745D01*
X100970184Y-71622262D01*
X101097738Y-71749816D01*
X101250478Y-71845789D01*
X101420745Y-71905368D01*
X101420750Y-71905369D01*
X101599996Y-71925565D01*
X101600000Y-71925565D01*
X101600004Y-71925565D01*
X101779249Y-71905369D01*
X101779252Y-71905368D01*
X101779255Y-71905368D01*
X101949522Y-71845789D01*
X102102262Y-71749816D01*
X102229816Y-71622262D01*
X102325789Y-71469522D01*
X102385368Y-71299255D01*
X102386909Y-71285578D01*
X102405565Y-71120003D01*
X102405565Y-71119996D01*
X105874435Y-71119996D01*
X105874435Y-71120003D01*
X105894630Y-71299249D01*
X105894631Y-71299254D01*
X105954211Y-71469523D01*
X105967546Y-71490745D01*
X106050184Y-71622262D01*
X106177738Y-71749816D01*
X106330478Y-71845789D01*
X106500745Y-71905368D01*
X106500750Y-71905369D01*
X106679996Y-71925565D01*
X106680000Y-71925565D01*
X106680004Y-71925565D01*
X106859249Y-71905369D01*
X106859252Y-71905368D01*
X106859255Y-71905368D01*
X107029522Y-71845789D01*
X107182262Y-71749816D01*
X107309816Y-71622262D01*
X107405789Y-71469522D01*
X107465368Y-71299255D01*
X107466909Y-71285578D01*
X107485565Y-71120003D01*
X107485565Y-71119996D01*
X110954435Y-71119996D01*
X110954435Y-71120003D01*
X110974630Y-71299249D01*
X110974631Y-71299254D01*
X111034211Y-71469523D01*
X111047546Y-71490745D01*
X111130184Y-71622262D01*
X111257738Y-71749816D01*
X111410478Y-71845789D01*
X111580745Y-71905368D01*
X111580750Y-71905369D01*
X111759996Y-71925565D01*
X111760000Y-71925565D01*
X111760004Y-71925565D01*
X111939249Y-71905369D01*
X111939252Y-71905368D01*
X111939255Y-71905368D01*
X112109522Y-71845789D01*
X112262262Y-71749816D01*
X112389816Y-71622262D01*
X112485789Y-71469522D01*
X112545368Y-71299255D01*
X112546909Y-71285578D01*
X112565565Y-71120003D01*
X112565565Y-71119996D01*
X116034435Y-71119996D01*
X116034435Y-71120003D01*
X116054630Y-71299249D01*
X116054631Y-71299254D01*
X116114211Y-71469523D01*
X116127546Y-71490745D01*
X116210184Y-71622262D01*
X116337738Y-71749816D01*
X116490478Y-71845789D01*
X116660745Y-71905368D01*
X116660750Y-71905369D01*
X116839996Y-71925565D01*
X116840000Y-71925565D01*
X116840004Y-71925565D01*
X117019249Y-71905369D01*
X117019252Y-71905368D01*
X117019255Y-71905368D01*
X117189522Y-71845789D01*
X117342262Y-71749816D01*
X117469816Y-71622262D01*
X117565789Y-71469522D01*
X117625368Y-71299255D01*
X117626909Y-71285578D01*
X117645565Y-71120003D01*
X117645565Y-71119996D01*
X121114435Y-71119996D01*
X121114435Y-71120003D01*
X121134630Y-71299249D01*
X121134631Y-71299254D01*
X121194211Y-71469523D01*
X121207546Y-71490745D01*
X121290184Y-71622262D01*
X121417738Y-71749816D01*
X121570478Y-71845789D01*
X121740745Y-71905368D01*
X121740750Y-71905369D01*
X121919996Y-71925565D01*
X121920000Y-71925565D01*
X121920004Y-71925565D01*
X122099249Y-71905369D01*
X122099252Y-71905368D01*
X122099255Y-71905368D01*
X122269522Y-71845789D01*
X122422262Y-71749816D01*
X122549816Y-71622262D01*
X122645789Y-71469522D01*
X122705368Y-71299255D01*
X122706909Y-71285578D01*
X122725565Y-71120003D01*
X122725565Y-71119996D01*
X126194435Y-71119996D01*
X126194435Y-71120003D01*
X126214630Y-71299249D01*
X126214631Y-71299254D01*
X126274211Y-71469523D01*
X126287546Y-71490745D01*
X126370184Y-71622262D01*
X126497738Y-71749816D01*
X126650478Y-71845789D01*
X126820745Y-71905368D01*
X126820750Y-71905369D01*
X126999996Y-71925565D01*
X127000000Y-71925565D01*
X127000004Y-71925565D01*
X127179249Y-71905369D01*
X127179252Y-71905368D01*
X127179255Y-71905368D01*
X127349522Y-71845789D01*
X127502262Y-71749816D01*
X127629816Y-71622262D01*
X127725789Y-71469522D01*
X127785368Y-71299255D01*
X127786909Y-71285578D01*
X127805565Y-71120003D01*
X127805565Y-71119996D01*
X131274435Y-71119996D01*
X131274435Y-71120003D01*
X131294630Y-71299249D01*
X131294631Y-71299254D01*
X131354211Y-71469523D01*
X131367546Y-71490745D01*
X131450184Y-71622262D01*
X131577738Y-71749816D01*
X131730478Y-71845789D01*
X131900745Y-71905368D01*
X131900750Y-71905369D01*
X132079996Y-71925565D01*
X132080000Y-71925565D01*
X132080004Y-71925565D01*
X132259249Y-71905369D01*
X132259252Y-71905368D01*
X132259255Y-71905368D01*
X132429522Y-71845789D01*
X132582262Y-71749816D01*
X132709816Y-71622262D01*
X132805789Y-71469522D01*
X132865368Y-71299255D01*
X132866909Y-71285578D01*
X132885565Y-71120003D01*
X132885565Y-71119996D01*
X136354435Y-71119996D01*
X136354435Y-71120003D01*
X136374630Y-71299249D01*
X136374631Y-71299254D01*
X136434211Y-71469523D01*
X136447546Y-71490745D01*
X136530184Y-71622262D01*
X136657738Y-71749816D01*
X136810478Y-71845789D01*
X136980745Y-71905368D01*
X136980750Y-71905369D01*
X137159996Y-71925565D01*
X137160000Y-71925565D01*
X137160004Y-71925565D01*
X137339249Y-71905369D01*
X137339252Y-71905368D01*
X137339255Y-71905368D01*
X137509522Y-71845789D01*
X137662262Y-71749816D01*
X137789816Y-71622262D01*
X137885789Y-71469522D01*
X137945368Y-71299255D01*
X137946909Y-71285578D01*
X137965565Y-71120003D01*
X137965565Y-71119996D01*
X141434435Y-71119996D01*
X141434435Y-71120003D01*
X141454630Y-71299249D01*
X141454631Y-71299254D01*
X141514211Y-71469523D01*
X141527546Y-71490745D01*
X141610184Y-71622262D01*
X141737738Y-71749816D01*
X141890478Y-71845789D01*
X142060745Y-71905368D01*
X142060750Y-71905369D01*
X142239996Y-71925565D01*
X142240000Y-71925565D01*
X142240004Y-71925565D01*
X142419249Y-71905369D01*
X142419252Y-71905368D01*
X142419255Y-71905368D01*
X142589522Y-71845789D01*
X142742262Y-71749816D01*
X142869816Y-71622262D01*
X142965789Y-71469522D01*
X143025368Y-71299255D01*
X143026909Y-71285578D01*
X143045565Y-71120003D01*
X143045565Y-71119996D01*
X143025369Y-70940750D01*
X143025368Y-70940745D01*
X143005733Y-70884631D01*
X142965789Y-70770478D01*
X142869816Y-70617738D01*
X142742262Y-70490184D01*
X142730663Y-70482896D01*
X142589523Y-70394211D01*
X142419254Y-70334631D01*
X142419249Y-70334630D01*
X142240004Y-70314435D01*
X142239996Y-70314435D01*
X142060750Y-70334630D01*
X142060745Y-70334631D01*
X141890476Y-70394211D01*
X141737737Y-70490184D01*
X141610184Y-70617737D01*
X141514211Y-70770476D01*
X141454631Y-70940745D01*
X141454630Y-70940750D01*
X141434435Y-71119996D01*
X137965565Y-71119996D01*
X137945369Y-70940750D01*
X137945368Y-70940745D01*
X137925733Y-70884631D01*
X137885789Y-70770478D01*
X137789816Y-70617738D01*
X137662262Y-70490184D01*
X137650663Y-70482896D01*
X137509523Y-70394211D01*
X137339254Y-70334631D01*
X137339249Y-70334630D01*
X137160004Y-70314435D01*
X137159996Y-70314435D01*
X136980750Y-70334630D01*
X136980745Y-70334631D01*
X136810476Y-70394211D01*
X136657737Y-70490184D01*
X136530184Y-70617737D01*
X136434211Y-70770476D01*
X136374631Y-70940745D01*
X136374630Y-70940750D01*
X136354435Y-71119996D01*
X132885565Y-71119996D01*
X132865369Y-70940750D01*
X132865368Y-70940745D01*
X132845733Y-70884631D01*
X132805789Y-70770478D01*
X132709816Y-70617738D01*
X132582262Y-70490184D01*
X132570663Y-70482896D01*
X132429523Y-70394211D01*
X132259254Y-70334631D01*
X132259249Y-70334630D01*
X132080004Y-70314435D01*
X132079996Y-70314435D01*
X131900750Y-70334630D01*
X131900745Y-70334631D01*
X131730476Y-70394211D01*
X131577737Y-70490184D01*
X131450184Y-70617737D01*
X131354211Y-70770476D01*
X131294631Y-70940745D01*
X131294630Y-70940750D01*
X131274435Y-71119996D01*
X127805565Y-71119996D01*
X127785369Y-70940750D01*
X127785368Y-70940745D01*
X127765733Y-70884631D01*
X127725789Y-70770478D01*
X127629816Y-70617738D01*
X127502262Y-70490184D01*
X127490663Y-70482896D01*
X127349523Y-70394211D01*
X127179254Y-70334631D01*
X127179249Y-70334630D01*
X127000004Y-70314435D01*
X126999996Y-70314435D01*
X126820750Y-70334630D01*
X126820745Y-70334631D01*
X126650476Y-70394211D01*
X126497737Y-70490184D01*
X126370184Y-70617737D01*
X126274211Y-70770476D01*
X126214631Y-70940745D01*
X126214630Y-70940750D01*
X126194435Y-71119996D01*
X122725565Y-71119996D01*
X122705369Y-70940750D01*
X122705368Y-70940745D01*
X122685733Y-70884631D01*
X122645789Y-70770478D01*
X122549816Y-70617738D01*
X122422262Y-70490184D01*
X122410663Y-70482896D01*
X122269523Y-70394211D01*
X122099254Y-70334631D01*
X122099249Y-70334630D01*
X121920004Y-70314435D01*
X121919996Y-70314435D01*
X121740750Y-70334630D01*
X121740745Y-70334631D01*
X121570476Y-70394211D01*
X121417737Y-70490184D01*
X121290184Y-70617737D01*
X121194211Y-70770476D01*
X121134631Y-70940745D01*
X121134630Y-70940750D01*
X121114435Y-71119996D01*
X117645565Y-71119996D01*
X117625369Y-70940750D01*
X117625368Y-70940745D01*
X117605733Y-70884631D01*
X117565789Y-70770478D01*
X117469816Y-70617738D01*
X117342262Y-70490184D01*
X117330663Y-70482896D01*
X117189523Y-70394211D01*
X117019254Y-70334631D01*
X117019249Y-70334630D01*
X116840004Y-70314435D01*
X116839996Y-70314435D01*
X116660750Y-70334630D01*
X116660745Y-70334631D01*
X116490476Y-70394211D01*
X116337737Y-70490184D01*
X116210184Y-70617737D01*
X116114211Y-70770476D01*
X116054631Y-70940745D01*
X116054630Y-70940750D01*
X116034435Y-71119996D01*
X112565565Y-71119996D01*
X112545369Y-70940750D01*
X112545368Y-70940745D01*
X112525733Y-70884631D01*
X112485789Y-70770478D01*
X112389816Y-70617738D01*
X112262262Y-70490184D01*
X112250663Y-70482896D01*
X112109523Y-70394211D01*
X111939254Y-70334631D01*
X111939249Y-70334630D01*
X111760004Y-70314435D01*
X111759996Y-70314435D01*
X111580750Y-70334630D01*
X111580745Y-70334631D01*
X111410476Y-70394211D01*
X111257737Y-70490184D01*
X111130184Y-70617737D01*
X111034211Y-70770476D01*
X110974631Y-70940745D01*
X110974630Y-70940750D01*
X110954435Y-71119996D01*
X107485565Y-71119996D01*
X107465369Y-70940750D01*
X107465368Y-70940745D01*
X107445733Y-70884631D01*
X107405789Y-70770478D01*
X107309816Y-70617738D01*
X107182262Y-70490184D01*
X107170663Y-70482896D01*
X107029523Y-70394211D01*
X106859254Y-70334631D01*
X106859249Y-70334630D01*
X106680004Y-70314435D01*
X106679996Y-70314435D01*
X106500750Y-70334630D01*
X106500745Y-70334631D01*
X106330476Y-70394211D01*
X106177737Y-70490184D01*
X106050184Y-70617737D01*
X105954211Y-70770476D01*
X105894631Y-70940745D01*
X105894630Y-70940750D01*
X105874435Y-71119996D01*
X102405565Y-71119996D01*
X102385369Y-70940750D01*
X102385368Y-70940745D01*
X102365733Y-70884631D01*
X102325789Y-70770478D01*
X102229816Y-70617738D01*
X102102262Y-70490184D01*
X102090663Y-70482896D01*
X101949523Y-70394211D01*
X101779254Y-70334631D01*
X101779249Y-70334630D01*
X101600004Y-70314435D01*
X101599996Y-70314435D01*
X101420750Y-70334630D01*
X101420745Y-70334631D01*
X101250476Y-70394211D01*
X101097737Y-70490184D01*
X100970184Y-70617737D01*
X100874211Y-70770476D01*
X100814631Y-70940745D01*
X100814630Y-70940750D01*
X100794435Y-71119996D01*
X92245565Y-71119996D01*
X92225369Y-70940750D01*
X92225368Y-70940745D01*
X92205733Y-70884631D01*
X92165789Y-70770478D01*
X92069816Y-70617738D01*
X91942262Y-70490184D01*
X91930663Y-70482896D01*
X91789523Y-70394211D01*
X91619254Y-70334631D01*
X91619249Y-70334630D01*
X91440004Y-70314435D01*
X91439996Y-70314435D01*
X91260750Y-70334630D01*
X91260742Y-70334632D01*
X91093167Y-70393269D01*
X91023388Y-70396830D01*
X90979201Y-70371518D01*
X90981395Y-70422550D01*
X90946179Y-70482896D01*
X90938344Y-70489700D01*
X90937741Y-70490180D01*
X90810184Y-70617737D01*
X90714211Y-70770476D01*
X90654631Y-70940745D01*
X90654630Y-70940750D01*
X90634435Y-71119996D01*
X87535000Y-71119996D01*
X87535000Y-68895600D01*
X88545106Y-68895600D01*
X88564253Y-69138897D01*
X88564253Y-69138900D01*
X88564254Y-69138902D01*
X88592038Y-69254630D01*
X88621230Y-69376219D01*
X88714622Y-69601689D01*
X88842137Y-69809773D01*
X88842138Y-69809776D01*
X88842141Y-69809779D01*
X89000641Y-69995359D01*
X89075763Y-70059519D01*
X89186223Y-70153861D01*
X89186226Y-70153862D01*
X89394310Y-70281377D01*
X89619781Y-70374769D01*
X89619778Y-70374769D01*
X89619784Y-70374770D01*
X89619788Y-70374772D01*
X89857098Y-70431746D01*
X90100400Y-70450894D01*
X90343702Y-70431746D01*
X90581012Y-70374772D01*
X90677924Y-70334630D01*
X90810990Y-70279513D01*
X90811600Y-70280985D01*
X90873387Y-70269375D01*
X90931203Y-70292832D01*
X90936940Y-70230532D01*
X90979943Y-70175464D01*
X90987404Y-70170511D01*
X91014579Y-70153859D01*
X91200159Y-69995359D01*
X91358659Y-69809779D01*
X91486177Y-69601689D01*
X91579572Y-69376212D01*
X91636546Y-69138902D01*
X91655694Y-68895600D01*
X92355607Y-68895600D01*
X92374748Y-69138819D01*
X92431703Y-69376057D01*
X92525068Y-69601461D01*
X92648904Y-69803541D01*
X93271089Y-69181355D01*
X93290068Y-69227174D01*
X93366674Y-69341824D01*
X93464176Y-69439326D01*
X93578826Y-69515932D01*
X93624642Y-69534909D01*
X93002457Y-70157094D01*
X93204538Y-70280931D01*
X93429942Y-70374296D01*
X93667180Y-70431251D01*
X93667179Y-70431251D01*
X93910400Y-70450392D01*
X94153619Y-70431251D01*
X94390857Y-70374296D01*
X94616261Y-70280931D01*
X94818341Y-70157095D01*
X94818341Y-70157094D01*
X94196157Y-69534909D01*
X94241974Y-69515932D01*
X94356624Y-69439326D01*
X94454126Y-69341824D01*
X94530732Y-69227174D01*
X94549709Y-69181356D01*
X95171894Y-69803541D01*
X95171895Y-69803541D01*
X95295731Y-69601461D01*
X95389096Y-69376057D01*
X95446051Y-69138819D01*
X95465192Y-68895600D01*
X96165106Y-68895600D01*
X96184253Y-69138897D01*
X96184253Y-69138900D01*
X96184254Y-69138902D01*
X96212038Y-69254630D01*
X96241230Y-69376219D01*
X96334622Y-69601689D01*
X96462137Y-69809773D01*
X96462138Y-69809776D01*
X96462141Y-69809779D01*
X96620641Y-69995359D01*
X96695763Y-70059519D01*
X96806223Y-70153861D01*
X96806226Y-70153862D01*
X97014310Y-70281377D01*
X97239781Y-70374769D01*
X97239778Y-70374769D01*
X97239784Y-70374770D01*
X97239788Y-70374772D01*
X97477098Y-70431746D01*
X97720400Y-70450894D01*
X97963702Y-70431746D01*
X98201012Y-70374772D01*
X98426489Y-70281377D01*
X98634579Y-70153859D01*
X98820159Y-69995359D01*
X98978659Y-69809779D01*
X99106177Y-69601689D01*
X99199572Y-69376212D01*
X99256546Y-69138902D01*
X99275694Y-68895600D01*
X99256546Y-68652298D01*
X99199572Y-68414988D01*
X99195762Y-68405789D01*
X99106177Y-68189510D01*
X98978662Y-67981426D01*
X98978661Y-67981423D01*
X98942641Y-67939249D01*
X98820159Y-67795841D01*
X98684522Y-67679996D01*
X98634576Y-67637338D01*
X98634573Y-67637337D01*
X98541007Y-67579999D01*
X144614422Y-67579999D01*
X144614422Y-67580000D01*
X144634722Y-67967339D01*
X144670875Y-68195600D01*
X144695398Y-68350433D01*
X144786764Y-68691418D01*
X144795788Y-68725094D01*
X144934787Y-69087197D01*
X145110877Y-69432793D01*
X145322122Y-69758082D01*
X145340494Y-69780769D01*
X145566219Y-70059516D01*
X145840484Y-70333781D01*
X145985105Y-70450893D01*
X146141917Y-70577877D01*
X146467206Y-70789122D01*
X146467211Y-70789125D01*
X146812806Y-70965214D01*
X147174913Y-71104214D01*
X147549567Y-71204602D01*
X147932662Y-71265278D01*
X148298576Y-71284455D01*
X148319999Y-71285578D01*
X148320000Y-71285578D01*
X148320001Y-71285578D01*
X148340301Y-71284514D01*
X148707338Y-71265278D01*
X149090433Y-71204602D01*
X149406188Y-71119996D01*
X154134435Y-71119996D01*
X154134435Y-71120003D01*
X154154630Y-71299249D01*
X154154631Y-71299254D01*
X154214211Y-71469523D01*
X154227546Y-71490745D01*
X154310184Y-71622262D01*
X154437738Y-71749816D01*
X154590478Y-71845789D01*
X154760745Y-71905368D01*
X154760750Y-71905369D01*
X154939996Y-71925565D01*
X154940000Y-71925565D01*
X154940004Y-71925565D01*
X155119249Y-71905369D01*
X155119252Y-71905368D01*
X155119255Y-71905368D01*
X155289522Y-71845789D01*
X155442262Y-71749816D01*
X155569816Y-71622262D01*
X155665789Y-71469522D01*
X155725368Y-71299255D01*
X155726909Y-71285578D01*
X155745565Y-71120003D01*
X155745565Y-71119996D01*
X159214435Y-71119996D01*
X159214435Y-71120003D01*
X159234630Y-71299249D01*
X159234631Y-71299254D01*
X159294211Y-71469523D01*
X159307546Y-71490745D01*
X159390184Y-71622262D01*
X159517738Y-71749816D01*
X159670478Y-71845789D01*
X159840745Y-71905368D01*
X159840750Y-71905369D01*
X160019996Y-71925565D01*
X160020000Y-71925565D01*
X160020004Y-71925565D01*
X160199249Y-71905369D01*
X160199252Y-71905368D01*
X160199255Y-71905368D01*
X160369522Y-71845789D01*
X160522262Y-71749816D01*
X160649816Y-71622262D01*
X160745789Y-71469522D01*
X160805368Y-71299255D01*
X160806909Y-71285578D01*
X160825565Y-71120003D01*
X160825565Y-71119996D01*
X164294435Y-71119996D01*
X164294435Y-71120003D01*
X164314630Y-71299249D01*
X164314631Y-71299254D01*
X164374211Y-71469523D01*
X164387546Y-71490745D01*
X164470184Y-71622262D01*
X164597738Y-71749816D01*
X164750478Y-71845789D01*
X164920745Y-71905368D01*
X164920750Y-71905369D01*
X165099996Y-71925565D01*
X165100000Y-71925565D01*
X165100004Y-71925565D01*
X165279249Y-71905369D01*
X165279252Y-71905368D01*
X165279255Y-71905368D01*
X165449522Y-71845789D01*
X165602262Y-71749816D01*
X165729816Y-71622262D01*
X165825789Y-71469522D01*
X165885368Y-71299255D01*
X165886909Y-71285578D01*
X165905565Y-71120003D01*
X165905565Y-71119996D01*
X165885369Y-70940750D01*
X165885368Y-70940745D01*
X165865733Y-70884631D01*
X165825789Y-70770478D01*
X165729816Y-70617738D01*
X165602262Y-70490184D01*
X165590663Y-70482896D01*
X165449523Y-70394211D01*
X165279254Y-70334631D01*
X165279249Y-70334630D01*
X165100004Y-70314435D01*
X165099996Y-70314435D01*
X164920750Y-70334630D01*
X164920745Y-70334631D01*
X164750476Y-70394211D01*
X164597737Y-70490184D01*
X164470184Y-70617737D01*
X164374211Y-70770476D01*
X164314631Y-70940745D01*
X164314630Y-70940750D01*
X164294435Y-71119996D01*
X160825565Y-71119996D01*
X160805369Y-70940750D01*
X160805368Y-70940745D01*
X160785733Y-70884631D01*
X160745789Y-70770478D01*
X160649816Y-70617738D01*
X160522262Y-70490184D01*
X160510663Y-70482896D01*
X160369523Y-70394211D01*
X160199254Y-70334631D01*
X160199249Y-70334630D01*
X160020004Y-70314435D01*
X160019996Y-70314435D01*
X159840750Y-70334630D01*
X159840745Y-70334631D01*
X159670476Y-70394211D01*
X159517737Y-70490184D01*
X159390184Y-70617737D01*
X159294211Y-70770476D01*
X159234631Y-70940745D01*
X159234630Y-70940750D01*
X159214435Y-71119996D01*
X155745565Y-71119996D01*
X155725369Y-70940750D01*
X155725368Y-70940745D01*
X155705733Y-70884631D01*
X155665789Y-70770478D01*
X155569816Y-70617738D01*
X155442262Y-70490184D01*
X155430663Y-70482896D01*
X155289523Y-70394211D01*
X155119254Y-70334631D01*
X155119249Y-70334630D01*
X154940004Y-70314435D01*
X154939996Y-70314435D01*
X154760750Y-70334630D01*
X154760745Y-70334631D01*
X154590476Y-70394211D01*
X154437737Y-70490184D01*
X154310184Y-70617737D01*
X154214211Y-70770476D01*
X154154631Y-70940745D01*
X154154630Y-70940750D01*
X154134435Y-71119996D01*
X149406188Y-71119996D01*
X149465087Y-71104214D01*
X149827194Y-70965214D01*
X150172789Y-70789125D01*
X150498084Y-70577876D01*
X150799516Y-70333781D01*
X151073781Y-70059516D01*
X151317876Y-69758084D01*
X151388069Y-69649996D01*
X168099435Y-69649996D01*
X168099435Y-69650003D01*
X168119630Y-69829249D01*
X168119631Y-69829254D01*
X168179211Y-69999523D01*
X168253500Y-70117752D01*
X168275184Y-70152262D01*
X168402738Y-70279816D01*
X168489977Y-70334632D01*
X168553854Y-70374769D01*
X168555478Y-70375789D01*
X168689113Y-70422550D01*
X168725745Y-70435368D01*
X168725750Y-70435369D01*
X168904996Y-70455565D01*
X168905000Y-70455565D01*
X168905003Y-70455565D01*
X168984505Y-70446606D01*
X169066378Y-70437382D01*
X169135199Y-70449436D01*
X169185254Y-70494629D01*
X169215184Y-70542262D01*
X169342738Y-70669816D01*
X169495478Y-70765789D01*
X169663519Y-70824589D01*
X169665745Y-70825368D01*
X169665750Y-70825369D01*
X169844996Y-70845565D01*
X169845000Y-70845565D01*
X169845004Y-70845565D01*
X170031175Y-70824589D01*
X170031321Y-70825888D01*
X170093692Y-70829708D01*
X170150051Y-70871004D01*
X170175137Y-70936215D01*
X170160985Y-71004637D01*
X170136499Y-71034097D01*
X170137662Y-71035260D01*
X170005184Y-71167737D01*
X169909211Y-71320476D01*
X169849631Y-71490745D01*
X169849630Y-71490750D01*
X169829435Y-71669996D01*
X169829435Y-71670003D01*
X169849630Y-71849249D01*
X169849631Y-71849254D01*
X169909211Y-72019523D01*
X170005184Y-72172262D01*
X170132738Y-72299816D01*
X170285478Y-72395789D01*
X170327457Y-72410478D01*
X170455745Y-72455368D01*
X170455750Y-72455369D01*
X170634996Y-72475565D01*
X170635000Y-72475565D01*
X170635004Y-72475565D01*
X170814249Y-72455369D01*
X170814252Y-72455368D01*
X170814255Y-72455368D01*
X170984522Y-72395789D01*
X171137262Y-72299816D01*
X171264816Y-72172262D01*
X171360789Y-72019522D01*
X171420368Y-71849255D01*
X171440565Y-71670000D01*
X171435186Y-71622262D01*
X171420369Y-71490750D01*
X171420368Y-71490745D01*
X171360788Y-71320476D01*
X171264815Y-71167737D01*
X171137262Y-71040184D01*
X170984523Y-70944211D01*
X170814254Y-70884631D01*
X170814249Y-70884630D01*
X170635004Y-70864435D01*
X170634996Y-70864435D01*
X170448825Y-70885411D01*
X170448679Y-70884115D01*
X170386286Y-70880284D01*
X170329934Y-70838977D01*
X170304860Y-70773761D01*
X170319025Y-70705343D01*
X170343508Y-70675910D01*
X170342338Y-70674740D01*
X170399341Y-70617737D01*
X170474816Y-70542262D01*
X170570789Y-70389522D01*
X170630109Y-70219996D01*
X172454435Y-70219996D01*
X172454435Y-70220003D01*
X172474630Y-70399249D01*
X172474631Y-70399254D01*
X172534211Y-70569523D01*
X172564507Y-70617738D01*
X172630184Y-70722262D01*
X172757738Y-70849816D01*
X172814387Y-70885411D01*
X172907966Y-70944211D01*
X172910478Y-70945789D01*
X173078656Y-71004637D01*
X173080745Y-71005368D01*
X173080750Y-71005369D01*
X173259996Y-71025565D01*
X173260000Y-71025565D01*
X173260004Y-71025565D01*
X173439249Y-71005369D01*
X173439252Y-71005368D01*
X173439255Y-71005368D01*
X173609522Y-70945789D01*
X173762262Y-70849816D01*
X173889816Y-70722262D01*
X173985789Y-70569522D01*
X174045368Y-70399255D01*
X174045369Y-70399249D01*
X174065565Y-70220003D01*
X174065565Y-70219996D01*
X182614435Y-70219996D01*
X182614435Y-70220003D01*
X182634630Y-70399249D01*
X182634631Y-70399254D01*
X182694211Y-70569523D01*
X182724507Y-70617738D01*
X182790184Y-70722262D01*
X182917738Y-70849816D01*
X182974387Y-70885411D01*
X183067966Y-70944211D01*
X183070478Y-70945789D01*
X183238656Y-71004637D01*
X183240745Y-71005368D01*
X183240750Y-71005369D01*
X183419996Y-71025565D01*
X183420000Y-71025565D01*
X183420004Y-71025565D01*
X183599249Y-71005369D01*
X183599252Y-71005368D01*
X183599255Y-71005368D01*
X183769522Y-70945789D01*
X183922262Y-70849816D01*
X184049816Y-70722262D01*
X184145789Y-70569522D01*
X184205368Y-70399255D01*
X184205369Y-70399249D01*
X184225565Y-70220003D01*
X184225565Y-70219996D01*
X184205369Y-70040750D01*
X184205368Y-70040745D01*
X184145788Y-69870476D01*
X184089419Y-69780766D01*
X184049816Y-69717738D01*
X183922262Y-69590184D01*
X183838795Y-69537738D01*
X183769523Y-69494211D01*
X183599254Y-69434631D01*
X183599249Y-69434630D01*
X183420004Y-69414435D01*
X183419996Y-69414435D01*
X183240750Y-69434630D01*
X183240745Y-69434631D01*
X183070476Y-69494211D01*
X182917737Y-69590184D01*
X182790184Y-69717737D01*
X182694211Y-69870476D01*
X182634631Y-70040745D01*
X182634630Y-70040750D01*
X182614435Y-70219996D01*
X174065565Y-70219996D01*
X174045369Y-70040750D01*
X174045368Y-70040745D01*
X173985788Y-69870476D01*
X173929419Y-69780766D01*
X173889816Y-69717738D01*
X173762262Y-69590184D01*
X173678795Y-69537738D01*
X173609523Y-69494211D01*
X173439254Y-69434631D01*
X173439249Y-69434630D01*
X173260004Y-69414435D01*
X173259996Y-69414435D01*
X173080750Y-69434630D01*
X173080745Y-69434631D01*
X172910476Y-69494211D01*
X172757737Y-69590184D01*
X172630184Y-69717737D01*
X172534211Y-69870476D01*
X172474631Y-70040745D01*
X172474630Y-70040750D01*
X172454435Y-70219996D01*
X170630109Y-70219996D01*
X170630368Y-70219255D01*
X170637736Y-70153861D01*
X170650565Y-70040003D01*
X170650565Y-70039996D01*
X170630369Y-69860750D01*
X170630368Y-69860745D01*
X170594445Y-69758084D01*
X170570789Y-69690478D01*
X170545352Y-69649996D01*
X170474815Y-69537737D01*
X170347262Y-69410184D01*
X170194523Y-69314211D01*
X170024254Y-69254631D01*
X170024249Y-69254630D01*
X169845004Y-69234435D01*
X169844996Y-69234435D01*
X169683621Y-69252617D01*
X169614799Y-69240562D01*
X169564744Y-69195369D01*
X169545590Y-69164886D01*
X169534816Y-69147738D01*
X169407262Y-69020184D01*
X169318712Y-68964544D01*
X169254523Y-68924211D01*
X169084254Y-68864631D01*
X169084249Y-68864630D01*
X168905004Y-68844435D01*
X168904996Y-68844435D01*
X168725750Y-68864630D01*
X168725745Y-68864631D01*
X168555476Y-68924211D01*
X168402737Y-69020184D01*
X168275184Y-69147737D01*
X168179211Y-69300476D01*
X168119631Y-69470745D01*
X168119630Y-69470750D01*
X168099435Y-69649996D01*
X151388069Y-69649996D01*
X151529125Y-69432789D01*
X151705214Y-69087194D01*
X151844214Y-68725087D01*
X151944602Y-68350433D01*
X152005278Y-67967338D01*
X152016145Y-67759996D01*
X176069435Y-67759996D01*
X176069435Y-67760003D01*
X176089630Y-67939249D01*
X176089631Y-67939254D01*
X176149211Y-68109523D01*
X176199471Y-68189510D01*
X176245184Y-68262262D01*
X176372738Y-68389816D01*
X176447538Y-68436816D01*
X176525121Y-68485565D01*
X176525478Y-68485789D01*
X176659796Y-68532789D01*
X176695745Y-68545368D01*
X176695750Y-68545369D01*
X176874996Y-68565565D01*
X176875000Y-68565565D01*
X176875004Y-68565565D01*
X177054249Y-68545369D01*
X177054252Y-68545368D01*
X177054255Y-68545368D01*
X177224522Y-68485789D01*
X177377262Y-68389816D01*
X177504816Y-68262262D01*
X177600789Y-68109522D01*
X177660368Y-67939255D01*
X177669382Y-67859254D01*
X177675270Y-67806996D01*
X180944435Y-67806996D01*
X180944435Y-67807003D01*
X180964630Y-67986249D01*
X180964631Y-67986254D01*
X181024211Y-68156523D01*
X181044939Y-68189511D01*
X181120184Y-68309262D01*
X181247738Y-68436816D01*
X181400478Y-68532789D01*
X181570745Y-68592368D01*
X181570750Y-68592369D01*
X181749996Y-68612565D01*
X181750000Y-68612565D01*
X181750004Y-68612565D01*
X181929249Y-68592369D01*
X181929252Y-68592368D01*
X181929255Y-68592368D01*
X182099522Y-68532789D01*
X182252262Y-68436816D01*
X182379816Y-68309262D01*
X182475789Y-68156522D01*
X182535368Y-67986255D01*
X182535912Y-67981426D01*
X182555565Y-67807003D01*
X182555565Y-67806996D01*
X182535369Y-67627750D01*
X182535368Y-67627745D01*
X182494105Y-67509822D01*
X182475789Y-67457478D01*
X182379816Y-67304738D01*
X182252262Y-67177184D01*
X182177462Y-67130184D01*
X182099523Y-67081211D01*
X181929254Y-67021631D01*
X181929249Y-67021630D01*
X181750004Y-67001435D01*
X181749996Y-67001435D01*
X181570750Y-67021630D01*
X181570745Y-67021631D01*
X181400476Y-67081211D01*
X181247737Y-67177184D01*
X181120184Y-67304737D01*
X181024211Y-67457476D01*
X180964631Y-67627745D01*
X180964630Y-67627750D01*
X180944435Y-67806996D01*
X177675270Y-67806996D01*
X177680565Y-67760003D01*
X177680565Y-67759996D01*
X177660369Y-67580750D01*
X177660368Y-67580745D01*
X177635551Y-67509822D01*
X177600789Y-67410478D01*
X177568728Y-67359454D01*
X177504815Y-67257737D01*
X177377262Y-67130184D01*
X177224523Y-67034211D01*
X177054254Y-66974631D01*
X177054249Y-66974630D01*
X176875004Y-66954435D01*
X176874996Y-66954435D01*
X176695750Y-66974630D01*
X176695745Y-66974631D01*
X176525476Y-67034211D01*
X176372737Y-67130184D01*
X176245184Y-67257737D01*
X176149211Y-67410476D01*
X176089631Y-67580745D01*
X176089630Y-67580750D01*
X176069435Y-67759996D01*
X152016145Y-67759996D01*
X152025578Y-67580000D01*
X152005278Y-67192662D01*
X151958803Y-66899230D01*
X186841800Y-66899230D01*
X186841800Y-69780769D01*
X186876315Y-69954287D01*
X186876318Y-69954299D01*
X186944022Y-70117752D01*
X186944023Y-70117754D01*
X187042322Y-70264868D01*
X187042325Y-70264872D01*
X187167427Y-70389974D01*
X187167431Y-70389977D01*
X187314543Y-70488275D01*
X187314544Y-70488275D01*
X187314545Y-70488276D01*
X187314547Y-70488277D01*
X187329885Y-70494630D01*
X187478005Y-70555983D01*
X187651530Y-70590499D01*
X187651534Y-70590500D01*
X187651535Y-70590500D01*
X187828466Y-70590500D01*
X187828467Y-70590499D01*
X188001995Y-70555983D01*
X188165457Y-70488275D01*
X188312569Y-70389977D01*
X188437677Y-70264869D01*
X188535975Y-70117757D01*
X188603683Y-69954295D01*
X188638200Y-69780765D01*
X188638200Y-67580000D01*
X189825114Y-67580000D01*
X189844627Y-67827934D01*
X189902684Y-68069759D01*
X189997855Y-68299523D01*
X190127796Y-68511568D01*
X190127797Y-68511570D01*
X190182530Y-68575653D01*
X190289316Y-68700684D01*
X190435706Y-68825713D01*
X190478429Y-68862202D01*
X190478431Y-68862203D01*
X190690476Y-68992144D01*
X190920240Y-69087315D01*
X190920241Y-69087315D01*
X190920243Y-69087316D01*
X191162069Y-69145373D01*
X191410000Y-69164886D01*
X191657931Y-69145373D01*
X191899757Y-69087316D01*
X192129523Y-68992144D01*
X192341573Y-68862200D01*
X192530684Y-68700684D01*
X192692200Y-68511573D01*
X192822144Y-68299523D01*
X192917316Y-68069757D01*
X192975373Y-67827931D01*
X192994886Y-67580000D01*
X192975373Y-67332069D01*
X192917316Y-67090243D01*
X192894107Y-67034211D01*
X192838196Y-66899230D01*
X194161800Y-66899230D01*
X194161800Y-69780769D01*
X194196315Y-69954287D01*
X194196318Y-69954299D01*
X194264022Y-70117752D01*
X194264023Y-70117754D01*
X194362322Y-70264868D01*
X194362325Y-70264872D01*
X194487427Y-70389974D01*
X194487431Y-70389977D01*
X194634543Y-70488275D01*
X194634544Y-70488275D01*
X194634545Y-70488276D01*
X194634547Y-70488277D01*
X194649885Y-70494630D01*
X194798005Y-70555983D01*
X194971530Y-70590499D01*
X194971534Y-70590500D01*
X194971535Y-70590500D01*
X195148466Y-70590500D01*
X195148467Y-70590499D01*
X195321995Y-70555983D01*
X195485457Y-70488275D01*
X195632569Y-70389977D01*
X195757677Y-70264869D01*
X195855975Y-70117757D01*
X195923683Y-69954295D01*
X195958200Y-69780765D01*
X195958200Y-67679996D01*
X197854435Y-67679996D01*
X197854435Y-67680003D01*
X197874630Y-67859249D01*
X197874631Y-67859254D01*
X197934211Y-68029523D01*
X197984478Y-68109522D01*
X198030184Y-68182262D01*
X198157738Y-68309816D01*
X198222370Y-68350427D01*
X198285055Y-68389815D01*
X198310478Y-68405789D01*
X198480745Y-68465368D01*
X198480750Y-68465369D01*
X198659996Y-68485565D01*
X198660000Y-68485565D01*
X198660004Y-68485565D01*
X198839249Y-68465369D01*
X198839252Y-68465368D01*
X198839255Y-68465368D01*
X199009522Y-68405789D01*
X199162262Y-68309816D01*
X199289816Y-68182262D01*
X199385789Y-68029522D01*
X199445368Y-67859255D01*
X199448897Y-67827934D01*
X199465565Y-67680003D01*
X199465565Y-67679996D01*
X200394435Y-67679996D01*
X200394435Y-67680003D01*
X200414630Y-67859249D01*
X200414631Y-67859254D01*
X200474211Y-68029523D01*
X200524478Y-68109522D01*
X200570184Y-68182262D01*
X200697738Y-68309816D01*
X200762370Y-68350427D01*
X200825055Y-68389815D01*
X200850478Y-68405789D01*
X201020745Y-68465368D01*
X201020750Y-68465369D01*
X201199996Y-68485565D01*
X201200000Y-68485565D01*
X201200004Y-68485565D01*
X201379249Y-68465369D01*
X201379252Y-68465368D01*
X201379255Y-68465368D01*
X201549522Y-68405789D01*
X201702262Y-68309816D01*
X201829816Y-68182262D01*
X201925789Y-68029522D01*
X201985368Y-67859255D01*
X201988897Y-67827934D01*
X202005565Y-67680003D01*
X202005565Y-67679996D01*
X201985369Y-67500750D01*
X201985368Y-67500745D01*
X201970228Y-67457478D01*
X201925789Y-67330478D01*
X201909615Y-67304738D01*
X201829815Y-67177737D01*
X201702262Y-67050184D01*
X201549523Y-66954211D01*
X201392397Y-66899230D01*
X202841800Y-66899230D01*
X202841800Y-69780769D01*
X202876315Y-69954287D01*
X202876318Y-69954299D01*
X202944022Y-70117752D01*
X202944023Y-70117754D01*
X203042322Y-70264868D01*
X203042325Y-70264872D01*
X203167427Y-70389974D01*
X203167431Y-70389977D01*
X203314543Y-70488275D01*
X203314544Y-70488275D01*
X203314545Y-70488276D01*
X203314547Y-70488277D01*
X203329885Y-70494630D01*
X203478005Y-70555983D01*
X203651530Y-70590499D01*
X203651534Y-70590500D01*
X203651535Y-70590500D01*
X203828466Y-70590500D01*
X203828467Y-70590499D01*
X204001995Y-70555983D01*
X204165457Y-70488275D01*
X204312569Y-70389977D01*
X204437677Y-70264869D01*
X204535975Y-70117757D01*
X204603683Y-69954295D01*
X204638200Y-69780765D01*
X204638200Y-67580000D01*
X205825114Y-67580000D01*
X205844627Y-67827934D01*
X205902684Y-68069759D01*
X205997855Y-68299523D01*
X206127796Y-68511568D01*
X206127797Y-68511570D01*
X206182530Y-68575653D01*
X206289316Y-68700684D01*
X206435706Y-68825713D01*
X206478429Y-68862202D01*
X206478431Y-68862203D01*
X206690476Y-68992144D01*
X206920240Y-69087315D01*
X206920241Y-69087315D01*
X206920243Y-69087316D01*
X207162069Y-69145373D01*
X207410000Y-69164886D01*
X207657931Y-69145373D01*
X207899757Y-69087316D01*
X208129523Y-68992144D01*
X208341573Y-68862200D01*
X208530684Y-68700684D01*
X208692200Y-68511573D01*
X208822144Y-68299523D01*
X208917316Y-68069757D01*
X208975373Y-67827931D01*
X208994886Y-67580000D01*
X208975373Y-67332069D01*
X208917316Y-67090243D01*
X208894107Y-67034211D01*
X208838196Y-66899230D01*
X210161800Y-66899230D01*
X210161800Y-69780769D01*
X210196315Y-69954287D01*
X210196318Y-69954299D01*
X210264022Y-70117752D01*
X210264023Y-70117754D01*
X210362322Y-70264868D01*
X210362325Y-70264872D01*
X210487427Y-70389974D01*
X210487431Y-70389977D01*
X210634543Y-70488275D01*
X210634544Y-70488275D01*
X210634545Y-70488276D01*
X210634547Y-70488277D01*
X210649885Y-70494630D01*
X210798005Y-70555983D01*
X210971530Y-70590499D01*
X210971534Y-70590500D01*
X210971535Y-70590500D01*
X211148466Y-70590500D01*
X211148467Y-70590499D01*
X211321995Y-70555983D01*
X211485457Y-70488275D01*
X211632569Y-70389977D01*
X211757677Y-70264869D01*
X211787660Y-70219996D01*
X213094435Y-70219996D01*
X213094435Y-70220003D01*
X213114630Y-70399249D01*
X213114631Y-70399254D01*
X213174211Y-70569523D01*
X213204507Y-70617738D01*
X213270184Y-70722262D01*
X213397738Y-70849816D01*
X213454387Y-70885411D01*
X213547966Y-70944211D01*
X213550478Y-70945789D01*
X213718656Y-71004637D01*
X213720745Y-71005368D01*
X213720750Y-71005369D01*
X213899996Y-71025565D01*
X213900000Y-71025565D01*
X213900004Y-71025565D01*
X214079249Y-71005369D01*
X214079252Y-71005368D01*
X214079255Y-71005368D01*
X214249522Y-70945789D01*
X214402262Y-70849816D01*
X214529816Y-70722262D01*
X214625789Y-70569522D01*
X214685368Y-70399255D01*
X214685369Y-70399249D01*
X214705565Y-70220003D01*
X214705565Y-70219996D01*
X214685369Y-70040750D01*
X214685368Y-70040745D01*
X214625788Y-69870476D01*
X214569419Y-69780766D01*
X214529816Y-69717738D01*
X214402262Y-69590184D01*
X214318795Y-69537738D01*
X214249523Y-69494211D01*
X214079254Y-69434631D01*
X214079249Y-69434630D01*
X213900004Y-69414435D01*
X213899996Y-69414435D01*
X213720750Y-69434630D01*
X213720745Y-69434631D01*
X213550476Y-69494211D01*
X213397737Y-69590184D01*
X213270184Y-69717737D01*
X213174211Y-69870476D01*
X213114631Y-70040745D01*
X213114630Y-70040750D01*
X213094435Y-70219996D01*
X211787660Y-70219996D01*
X211855975Y-70117757D01*
X211923683Y-69954295D01*
X211958200Y-69780765D01*
X211958200Y-67679996D01*
X213094435Y-67679996D01*
X213094435Y-67680003D01*
X213114630Y-67859249D01*
X213114631Y-67859254D01*
X213174211Y-68029523D01*
X213224478Y-68109522D01*
X213270184Y-68182262D01*
X213397738Y-68309816D01*
X213462370Y-68350427D01*
X213525055Y-68389815D01*
X213550478Y-68405789D01*
X213720745Y-68465368D01*
X213720750Y-68465369D01*
X213899996Y-68485565D01*
X213900000Y-68485565D01*
X213900004Y-68485565D01*
X214079249Y-68465369D01*
X214079252Y-68465368D01*
X214079255Y-68465368D01*
X214249522Y-68405789D01*
X214402262Y-68309816D01*
X214529816Y-68182262D01*
X214625789Y-68029522D01*
X214685368Y-67859255D01*
X214688897Y-67827934D01*
X214705565Y-67680003D01*
X214705565Y-67679996D01*
X214685369Y-67500750D01*
X214685368Y-67500745D01*
X214670228Y-67457478D01*
X214625789Y-67330478D01*
X214609615Y-67304738D01*
X214529815Y-67177737D01*
X214402262Y-67050184D01*
X214249523Y-66954211D01*
X214079254Y-66894631D01*
X214079249Y-66894630D01*
X213900004Y-66874435D01*
X213899996Y-66874435D01*
X213720750Y-66894630D01*
X213720745Y-66894631D01*
X213550476Y-66954211D01*
X213397737Y-67050184D01*
X213270184Y-67177737D01*
X213174211Y-67330476D01*
X213114631Y-67500745D01*
X213114630Y-67500750D01*
X213094435Y-67679996D01*
X211958200Y-67679996D01*
X211958200Y-66899235D01*
X211923683Y-66725705D01*
X211891675Y-66648431D01*
X211855977Y-66562247D01*
X211855976Y-66562245D01*
X211757677Y-66415131D01*
X211757674Y-66415127D01*
X211632572Y-66290025D01*
X211632568Y-66290022D01*
X211485454Y-66191723D01*
X211485452Y-66191722D01*
X211321999Y-66124018D01*
X211321987Y-66124015D01*
X211148469Y-66089500D01*
X211148465Y-66089500D01*
X210971535Y-66089500D01*
X210971530Y-66089500D01*
X210798012Y-66124015D01*
X210798000Y-66124018D01*
X210634547Y-66191722D01*
X210634545Y-66191723D01*
X210487431Y-66290022D01*
X210487427Y-66290025D01*
X210362325Y-66415127D01*
X210362322Y-66415131D01*
X210264023Y-66562245D01*
X210264022Y-66562247D01*
X210196318Y-66725700D01*
X210196315Y-66725712D01*
X210161800Y-66899230D01*
X208838196Y-66899230D01*
X208822144Y-66860476D01*
X208692203Y-66648431D01*
X208692202Y-66648429D01*
X208618595Y-66562247D01*
X208530684Y-66459316D01*
X208405653Y-66352530D01*
X208341570Y-66297797D01*
X208341568Y-66297796D01*
X208129523Y-66167855D01*
X207899759Y-66072684D01*
X207657934Y-66014627D01*
X207410000Y-65995114D01*
X207162065Y-66014627D01*
X206920240Y-66072684D01*
X206690476Y-66167855D01*
X206478431Y-66297796D01*
X206478429Y-66297797D01*
X206289316Y-66459316D01*
X206127797Y-66648429D01*
X206127796Y-66648431D01*
X205997855Y-66860476D01*
X205902684Y-67090240D01*
X205844627Y-67332065D01*
X205825114Y-67580000D01*
X204638200Y-67580000D01*
X204638200Y-66899235D01*
X204603683Y-66725705D01*
X204571675Y-66648431D01*
X204535977Y-66562247D01*
X204535976Y-66562245D01*
X204437677Y-66415131D01*
X204437674Y-66415127D01*
X204312572Y-66290025D01*
X204312568Y-66290022D01*
X204165454Y-66191723D01*
X204165452Y-66191722D01*
X204001999Y-66124018D01*
X204001987Y-66124015D01*
X203828469Y-66089500D01*
X203828465Y-66089500D01*
X203651535Y-66089500D01*
X203651530Y-66089500D01*
X203478012Y-66124015D01*
X203478000Y-66124018D01*
X203314547Y-66191722D01*
X203314545Y-66191723D01*
X203167431Y-66290022D01*
X203167427Y-66290025D01*
X203042325Y-66415127D01*
X203042322Y-66415131D01*
X202944023Y-66562245D01*
X202944022Y-66562247D01*
X202876318Y-66725700D01*
X202876315Y-66725712D01*
X202841800Y-66899230D01*
X201392397Y-66899230D01*
X201379254Y-66894631D01*
X201379249Y-66894630D01*
X201200004Y-66874435D01*
X201199996Y-66874435D01*
X201020750Y-66894630D01*
X201020745Y-66894631D01*
X200850476Y-66954211D01*
X200697737Y-67050184D01*
X200570184Y-67177737D01*
X200474211Y-67330476D01*
X200414631Y-67500745D01*
X200414630Y-67500750D01*
X200394435Y-67679996D01*
X199465565Y-67679996D01*
X199445369Y-67500750D01*
X199445368Y-67500745D01*
X199430228Y-67457478D01*
X199385789Y-67330478D01*
X199369615Y-67304738D01*
X199289815Y-67177737D01*
X199162262Y-67050184D01*
X199009523Y-66954211D01*
X198839254Y-66894631D01*
X198839249Y-66894630D01*
X198660004Y-66874435D01*
X198659996Y-66874435D01*
X198480750Y-66894630D01*
X198480745Y-66894631D01*
X198310476Y-66954211D01*
X198157737Y-67050184D01*
X198030184Y-67177737D01*
X197934211Y-67330476D01*
X197874631Y-67500745D01*
X197874630Y-67500750D01*
X197854435Y-67679996D01*
X195958200Y-67679996D01*
X195958200Y-66899235D01*
X195923683Y-66725705D01*
X195891675Y-66648431D01*
X195855977Y-66562247D01*
X195855976Y-66562245D01*
X195757677Y-66415131D01*
X195757674Y-66415127D01*
X195632572Y-66290025D01*
X195632568Y-66290022D01*
X195485454Y-66191723D01*
X195485452Y-66191722D01*
X195321999Y-66124018D01*
X195321987Y-66124015D01*
X195148469Y-66089500D01*
X195148465Y-66089500D01*
X194971535Y-66089500D01*
X194971530Y-66089500D01*
X194798012Y-66124015D01*
X194798000Y-66124018D01*
X194634547Y-66191722D01*
X194634545Y-66191723D01*
X194487431Y-66290022D01*
X194487427Y-66290025D01*
X194362325Y-66415127D01*
X194362322Y-66415131D01*
X194264023Y-66562245D01*
X194264022Y-66562247D01*
X194196318Y-66725700D01*
X194196315Y-66725712D01*
X194161800Y-66899230D01*
X192838196Y-66899230D01*
X192822144Y-66860476D01*
X192692203Y-66648431D01*
X192692202Y-66648429D01*
X192618595Y-66562247D01*
X192530684Y-66459316D01*
X192405653Y-66352530D01*
X192341570Y-66297797D01*
X192341568Y-66297796D01*
X192129523Y-66167855D01*
X191899759Y-66072684D01*
X191657934Y-66014627D01*
X191410000Y-65995114D01*
X191162065Y-66014627D01*
X190920240Y-66072684D01*
X190690476Y-66167855D01*
X190478431Y-66297796D01*
X190478429Y-66297797D01*
X190289316Y-66459316D01*
X190127797Y-66648429D01*
X190127796Y-66648431D01*
X189997855Y-66860476D01*
X189902684Y-67090240D01*
X189844627Y-67332065D01*
X189825114Y-67580000D01*
X188638200Y-67580000D01*
X188638200Y-66899235D01*
X188603683Y-66725705D01*
X188571675Y-66648431D01*
X188535977Y-66562247D01*
X188535976Y-66562245D01*
X188437677Y-66415131D01*
X188437674Y-66415127D01*
X188312572Y-66290025D01*
X188312568Y-66290022D01*
X188165454Y-66191723D01*
X188165452Y-66191722D01*
X188001999Y-66124018D01*
X188001987Y-66124015D01*
X187828469Y-66089500D01*
X187828465Y-66089500D01*
X187651535Y-66089500D01*
X187651530Y-66089500D01*
X187478012Y-66124015D01*
X187478000Y-66124018D01*
X187314547Y-66191722D01*
X187314545Y-66191723D01*
X187167431Y-66290022D01*
X187167427Y-66290025D01*
X187042325Y-66415127D01*
X187042322Y-66415131D01*
X186944023Y-66562245D01*
X186944022Y-66562247D01*
X186876318Y-66725700D01*
X186876315Y-66725712D01*
X186841800Y-66899230D01*
X151958803Y-66899230D01*
X151944602Y-66809567D01*
X151844214Y-66434913D01*
X151705214Y-66072806D01*
X151688497Y-66039996D01*
X154134435Y-66039996D01*
X154134435Y-66040003D01*
X154154630Y-66219249D01*
X154154631Y-66219254D01*
X154214211Y-66389523D01*
X154310184Y-66542262D01*
X154437738Y-66669816D01*
X154590478Y-66765789D01*
X154715597Y-66809570D01*
X154760745Y-66825368D01*
X154760750Y-66825369D01*
X154939996Y-66845565D01*
X154940000Y-66845565D01*
X154940004Y-66845565D01*
X155119249Y-66825369D01*
X155119252Y-66825368D01*
X155119255Y-66825368D01*
X155289522Y-66765789D01*
X155442262Y-66669816D01*
X155569816Y-66542262D01*
X155665789Y-66389522D01*
X155725368Y-66219255D01*
X155728470Y-66191723D01*
X155745565Y-66040003D01*
X155745565Y-66039996D01*
X159214435Y-66039996D01*
X159214435Y-66040003D01*
X159234630Y-66219249D01*
X159234631Y-66219254D01*
X159294211Y-66389523D01*
X159390184Y-66542262D01*
X159517738Y-66669816D01*
X159670478Y-66765789D01*
X159795597Y-66809570D01*
X159840745Y-66825368D01*
X159840750Y-66825369D01*
X160019996Y-66845565D01*
X160020000Y-66845565D01*
X160020004Y-66845565D01*
X160199249Y-66825369D01*
X160199252Y-66825368D01*
X160199255Y-66825368D01*
X160369522Y-66765789D01*
X160522262Y-66669816D01*
X160649816Y-66542262D01*
X160745789Y-66389522D01*
X160805368Y-66219255D01*
X160808470Y-66191723D01*
X160825565Y-66040003D01*
X160825565Y-66039996D01*
X164294435Y-66039996D01*
X164294435Y-66040003D01*
X164314630Y-66219249D01*
X164314631Y-66219254D01*
X164374211Y-66389523D01*
X164470184Y-66542262D01*
X164597738Y-66669816D01*
X164750478Y-66765789D01*
X164875597Y-66809570D01*
X164920745Y-66825368D01*
X164920750Y-66825369D01*
X165099996Y-66845565D01*
X165100000Y-66845565D01*
X165100004Y-66845565D01*
X165279249Y-66825369D01*
X165279252Y-66825368D01*
X165279255Y-66825368D01*
X165449522Y-66765789D01*
X165602262Y-66669816D01*
X165729816Y-66542262D01*
X165825789Y-66389522D01*
X165885368Y-66219255D01*
X165888470Y-66191723D01*
X165905565Y-66040003D01*
X165905565Y-66039996D01*
X165885369Y-65860750D01*
X165885368Y-65860745D01*
X165825789Y-65690478D01*
X165729816Y-65537738D01*
X165602262Y-65410184D01*
X165589104Y-65401916D01*
X165449523Y-65314211D01*
X165279254Y-65254631D01*
X165279249Y-65254630D01*
X165100004Y-65234435D01*
X165099996Y-65234435D01*
X164920750Y-65254630D01*
X164920745Y-65254631D01*
X164750476Y-65314211D01*
X164597737Y-65410184D01*
X164470184Y-65537737D01*
X164374211Y-65690476D01*
X164314631Y-65860745D01*
X164314630Y-65860750D01*
X164294435Y-66039996D01*
X160825565Y-66039996D01*
X160805369Y-65860750D01*
X160805368Y-65860745D01*
X160745789Y-65690478D01*
X160649816Y-65537738D01*
X160522262Y-65410184D01*
X160509104Y-65401916D01*
X160369523Y-65314211D01*
X160199254Y-65254631D01*
X160199249Y-65254630D01*
X160020004Y-65234435D01*
X160019996Y-65234435D01*
X159840750Y-65254630D01*
X159840745Y-65254631D01*
X159670476Y-65314211D01*
X159517737Y-65410184D01*
X159390184Y-65537737D01*
X159294211Y-65690476D01*
X159234631Y-65860745D01*
X159234630Y-65860750D01*
X159214435Y-66039996D01*
X155745565Y-66039996D01*
X155725369Y-65860750D01*
X155725368Y-65860745D01*
X155665789Y-65690478D01*
X155569816Y-65537738D01*
X155442262Y-65410184D01*
X155429104Y-65401916D01*
X155289523Y-65314211D01*
X155119254Y-65254631D01*
X155119249Y-65254630D01*
X154940004Y-65234435D01*
X154939996Y-65234435D01*
X154760750Y-65254630D01*
X154760745Y-65254631D01*
X154590476Y-65314211D01*
X154437737Y-65410184D01*
X154310184Y-65537737D01*
X154214211Y-65690476D01*
X154154631Y-65860745D01*
X154154630Y-65860750D01*
X154134435Y-66039996D01*
X151688497Y-66039996D01*
X151529125Y-65727211D01*
X151529122Y-65727206D01*
X151317877Y-65401917D01*
X151105777Y-65139996D01*
X172454435Y-65139996D01*
X172454435Y-65140003D01*
X172474630Y-65319249D01*
X172474631Y-65319254D01*
X172534211Y-65489523D01*
X172564507Y-65537738D01*
X172630184Y-65642262D01*
X172757738Y-65769816D01*
X172848080Y-65826582D01*
X172902450Y-65860745D01*
X172910478Y-65865789D01*
X173080745Y-65925368D01*
X173080750Y-65925369D01*
X173259996Y-65945565D01*
X173260000Y-65945565D01*
X173260004Y-65945565D01*
X173439249Y-65925369D01*
X173439252Y-65925368D01*
X173439255Y-65925368D01*
X173609522Y-65865789D01*
X173762262Y-65769816D01*
X173889816Y-65642262D01*
X173985789Y-65489522D01*
X174045368Y-65319255D01*
X174045369Y-65319249D01*
X174065565Y-65140003D01*
X174065565Y-65139996D01*
X174994435Y-65139996D01*
X174994435Y-65140003D01*
X175014630Y-65319249D01*
X175014631Y-65319254D01*
X175074211Y-65489523D01*
X175104507Y-65537738D01*
X175170184Y-65642262D01*
X175297738Y-65769816D01*
X175388080Y-65826582D01*
X175442450Y-65860745D01*
X175450478Y-65865789D01*
X175620745Y-65925368D01*
X175620750Y-65925369D01*
X175799996Y-65945565D01*
X175800000Y-65945565D01*
X175800004Y-65945565D01*
X175979249Y-65925369D01*
X175979252Y-65925368D01*
X175979255Y-65925368D01*
X176149522Y-65865789D01*
X176302262Y-65769816D01*
X176429816Y-65642262D01*
X176525789Y-65489522D01*
X176585368Y-65319255D01*
X176585369Y-65319249D01*
X176605565Y-65140003D01*
X176605565Y-65139996D01*
X180074435Y-65139996D01*
X180074435Y-65140003D01*
X180094630Y-65319249D01*
X180094631Y-65319254D01*
X180154211Y-65489523D01*
X180184507Y-65537738D01*
X180250184Y-65642262D01*
X180377738Y-65769816D01*
X180468080Y-65826582D01*
X180522450Y-65860745D01*
X180530478Y-65865789D01*
X180700745Y-65925368D01*
X180700750Y-65925369D01*
X180879996Y-65945565D01*
X180880000Y-65945565D01*
X180880004Y-65945565D01*
X181059249Y-65925369D01*
X181059252Y-65925368D01*
X181059255Y-65925368D01*
X181229522Y-65865789D01*
X181382262Y-65769816D01*
X181509816Y-65642262D01*
X181605789Y-65489522D01*
X181665368Y-65319255D01*
X181665369Y-65319249D01*
X181685565Y-65140003D01*
X181685565Y-65139996D01*
X182614435Y-65139996D01*
X182614435Y-65140003D01*
X182634630Y-65319249D01*
X182634631Y-65319254D01*
X182694211Y-65489523D01*
X182724507Y-65537738D01*
X182790184Y-65642262D01*
X182917738Y-65769816D01*
X183008080Y-65826582D01*
X183062450Y-65860745D01*
X183070478Y-65865789D01*
X183240745Y-65925368D01*
X183240750Y-65925369D01*
X183419996Y-65945565D01*
X183420000Y-65945565D01*
X183420004Y-65945565D01*
X183599249Y-65925369D01*
X183599252Y-65925368D01*
X183599255Y-65925368D01*
X183769522Y-65865789D01*
X183922262Y-65769816D01*
X184049816Y-65642262D01*
X184145789Y-65489522D01*
X184205368Y-65319255D01*
X184205369Y-65319249D01*
X184225565Y-65140003D01*
X184225565Y-65139996D01*
X185154435Y-65139996D01*
X185154435Y-65140003D01*
X185174630Y-65319249D01*
X185174631Y-65319254D01*
X185234211Y-65489523D01*
X185264507Y-65537738D01*
X185330184Y-65642262D01*
X185457738Y-65769816D01*
X185548080Y-65826582D01*
X185602450Y-65860745D01*
X185610478Y-65865789D01*
X185780745Y-65925368D01*
X185780750Y-65925369D01*
X185959996Y-65945565D01*
X185960000Y-65945565D01*
X185960004Y-65945565D01*
X186139249Y-65925369D01*
X186139252Y-65925368D01*
X186139255Y-65925368D01*
X186309522Y-65865789D01*
X186462262Y-65769816D01*
X186589816Y-65642262D01*
X186685789Y-65489522D01*
X186745368Y-65319255D01*
X186745369Y-65319249D01*
X186765565Y-65140003D01*
X186765565Y-65139996D01*
X213094435Y-65139996D01*
X213094435Y-65140003D01*
X213114630Y-65319249D01*
X213114631Y-65319254D01*
X213174211Y-65489523D01*
X213204507Y-65537738D01*
X213270184Y-65642262D01*
X213397738Y-65769816D01*
X213488080Y-65826582D01*
X213542450Y-65860745D01*
X213550478Y-65865789D01*
X213720745Y-65925368D01*
X213720750Y-65925369D01*
X213899996Y-65945565D01*
X213900000Y-65945565D01*
X213900004Y-65945565D01*
X214079249Y-65925369D01*
X214079252Y-65925368D01*
X214079255Y-65925368D01*
X214249522Y-65865789D01*
X214402262Y-65769816D01*
X214529816Y-65642262D01*
X214625789Y-65489522D01*
X214685368Y-65319255D01*
X214685369Y-65319249D01*
X214705565Y-65140003D01*
X214705565Y-65139996D01*
X214685369Y-64960750D01*
X214685368Y-64960745D01*
X214625788Y-64790476D01*
X214586582Y-64728080D01*
X214529816Y-64637738D01*
X214402262Y-64510184D01*
X214337124Y-64469255D01*
X214249523Y-64414211D01*
X214079254Y-64354631D01*
X214079249Y-64354630D01*
X213900004Y-64334435D01*
X213899996Y-64334435D01*
X213720750Y-64354630D01*
X213720745Y-64354631D01*
X213550476Y-64414211D01*
X213397737Y-64510184D01*
X213270184Y-64637737D01*
X213174211Y-64790476D01*
X213114631Y-64960745D01*
X213114630Y-64960750D01*
X213094435Y-65139996D01*
X186765565Y-65139996D01*
X186745369Y-64960750D01*
X186745368Y-64960745D01*
X186685788Y-64790476D01*
X186646582Y-64728080D01*
X186589816Y-64637738D01*
X186462262Y-64510184D01*
X186397124Y-64469255D01*
X186309523Y-64414211D01*
X186139254Y-64354631D01*
X186139249Y-64354630D01*
X185960004Y-64334435D01*
X185959996Y-64334435D01*
X185780750Y-64354630D01*
X185780745Y-64354631D01*
X185610476Y-64414211D01*
X185457737Y-64510184D01*
X185330184Y-64637737D01*
X185234211Y-64790476D01*
X185174631Y-64960745D01*
X185174630Y-64960750D01*
X185154435Y-65139996D01*
X184225565Y-65139996D01*
X184205369Y-64960750D01*
X184205368Y-64960745D01*
X184145788Y-64790476D01*
X184106582Y-64728080D01*
X184049816Y-64637738D01*
X183922262Y-64510184D01*
X183857124Y-64469255D01*
X183769523Y-64414211D01*
X183599254Y-64354631D01*
X183599249Y-64354630D01*
X183420004Y-64334435D01*
X183419996Y-64334435D01*
X183240750Y-64354630D01*
X183240745Y-64354631D01*
X183070476Y-64414211D01*
X182917737Y-64510184D01*
X182790184Y-64637737D01*
X182694211Y-64790476D01*
X182634631Y-64960745D01*
X182634630Y-64960750D01*
X182614435Y-65139996D01*
X181685565Y-65139996D01*
X181665369Y-64960750D01*
X181665368Y-64960745D01*
X181605788Y-64790476D01*
X181566582Y-64728080D01*
X181509816Y-64637738D01*
X181382262Y-64510184D01*
X181317124Y-64469255D01*
X181229523Y-64414211D01*
X181059254Y-64354631D01*
X181059249Y-64354630D01*
X180880004Y-64334435D01*
X180879996Y-64334435D01*
X180700750Y-64354630D01*
X180700745Y-64354631D01*
X180530476Y-64414211D01*
X180377737Y-64510184D01*
X180250184Y-64637737D01*
X180154211Y-64790476D01*
X180094631Y-64960745D01*
X180094630Y-64960750D01*
X180074435Y-65139996D01*
X176605565Y-65139996D01*
X176585369Y-64960750D01*
X176585368Y-64960745D01*
X176525788Y-64790476D01*
X176486582Y-64728080D01*
X176429816Y-64637738D01*
X176302262Y-64510184D01*
X176237124Y-64469255D01*
X176149523Y-64414211D01*
X175979254Y-64354631D01*
X175979249Y-64354630D01*
X175800004Y-64334435D01*
X175799996Y-64334435D01*
X175620750Y-64354630D01*
X175620745Y-64354631D01*
X175450476Y-64414211D01*
X175297737Y-64510184D01*
X175170184Y-64637737D01*
X175074211Y-64790476D01*
X175014631Y-64960745D01*
X175014630Y-64960750D01*
X174994435Y-65139996D01*
X174065565Y-65139996D01*
X174045369Y-64960750D01*
X174045368Y-64960745D01*
X173985788Y-64790476D01*
X173946582Y-64728080D01*
X173889816Y-64637738D01*
X173762262Y-64510184D01*
X173697124Y-64469255D01*
X173609523Y-64414211D01*
X173439254Y-64354631D01*
X173439249Y-64354630D01*
X173260004Y-64334435D01*
X173259996Y-64334435D01*
X173080750Y-64354630D01*
X173080745Y-64354631D01*
X172910476Y-64414211D01*
X172757737Y-64510184D01*
X172630184Y-64637737D01*
X172534211Y-64790476D01*
X172474631Y-64960745D01*
X172474630Y-64960750D01*
X172454435Y-65139996D01*
X151105777Y-65139996D01*
X151073784Y-65100488D01*
X151073781Y-65100484D01*
X150799516Y-64826219D01*
X150566762Y-64637738D01*
X150498082Y-64582122D01*
X150172793Y-64370877D01*
X150014055Y-64289996D01*
X169729435Y-64289996D01*
X169729435Y-64290003D01*
X169749630Y-64469249D01*
X169749631Y-64469254D01*
X169809211Y-64639523D01*
X169904062Y-64790476D01*
X169905184Y-64792262D01*
X170032738Y-64919816D01*
X170185478Y-65015789D01*
X170355745Y-65075368D01*
X170355750Y-65075369D01*
X170534996Y-65095565D01*
X170535000Y-65095565D01*
X170535004Y-65095565D01*
X170714249Y-65075369D01*
X170714252Y-65075368D01*
X170714255Y-65075368D01*
X170884522Y-65015789D01*
X171037262Y-64919816D01*
X171164816Y-64792262D01*
X171260789Y-64639522D01*
X171320368Y-64469255D01*
X171326570Y-64414211D01*
X171340565Y-64290003D01*
X171340565Y-64289996D01*
X171320369Y-64110750D01*
X171320368Y-64110745D01*
X171299048Y-64049815D01*
X171260789Y-63940478D01*
X171164816Y-63787738D01*
X171037262Y-63660184D01*
X170884523Y-63564211D01*
X170714254Y-63504631D01*
X170714249Y-63504630D01*
X170535004Y-63484435D01*
X170534996Y-63484435D01*
X170355750Y-63504630D01*
X170355745Y-63504631D01*
X170185476Y-63564211D01*
X170032737Y-63660184D01*
X169905184Y-63787737D01*
X169809211Y-63940476D01*
X169749631Y-64110745D01*
X169749630Y-64110750D01*
X169729435Y-64289996D01*
X150014055Y-64289996D01*
X149827197Y-64194787D01*
X149465094Y-64055788D01*
X149465087Y-64055786D01*
X149090433Y-63955398D01*
X149090429Y-63955397D01*
X149090428Y-63955397D01*
X148707339Y-63894722D01*
X148320001Y-63874422D01*
X148319999Y-63874422D01*
X147932660Y-63894722D01*
X147549572Y-63955397D01*
X147549570Y-63955397D01*
X147174905Y-64055788D01*
X146812802Y-64194787D01*
X146467206Y-64370877D01*
X146141917Y-64582122D01*
X145840488Y-64826215D01*
X145840480Y-64826222D01*
X145566222Y-65100480D01*
X145566215Y-65100488D01*
X145322122Y-65401917D01*
X145110877Y-65727206D01*
X144934787Y-66072802D01*
X144795788Y-66434905D01*
X144695397Y-66809570D01*
X144695397Y-66809572D01*
X144634722Y-67192660D01*
X144614422Y-67579999D01*
X98541007Y-67579999D01*
X98426489Y-67509822D01*
X98201018Y-67416430D01*
X98201021Y-67416430D01*
X98095392Y-67391070D01*
X97963702Y-67359454D01*
X97963700Y-67359453D01*
X97963697Y-67359453D01*
X97720400Y-67340306D01*
X97477102Y-67359453D01*
X97477098Y-67359454D01*
X97264580Y-67410476D01*
X97239780Y-67416430D01*
X97014310Y-67509822D01*
X96806226Y-67637337D01*
X96806223Y-67637338D01*
X96620641Y-67795841D01*
X96462138Y-67981423D01*
X96462137Y-67981426D01*
X96334622Y-68189510D01*
X96241230Y-68414980D01*
X96241228Y-68414987D01*
X96241228Y-68414988D01*
X96232972Y-68449376D01*
X96184253Y-68652302D01*
X96165106Y-68895600D01*
X95465192Y-68895600D01*
X95446051Y-68652380D01*
X95389096Y-68415142D01*
X95295731Y-68189738D01*
X95171894Y-67987657D01*
X94549709Y-68609842D01*
X94530732Y-68564026D01*
X94454126Y-68449376D01*
X94356624Y-68351874D01*
X94241974Y-68275268D01*
X94196156Y-68256289D01*
X94818341Y-67634104D01*
X94616261Y-67510268D01*
X94390857Y-67416903D01*
X94153619Y-67359948D01*
X94153620Y-67359948D01*
X93910400Y-67340807D01*
X93667180Y-67359948D01*
X93429942Y-67416903D01*
X93204538Y-67510268D01*
X93002457Y-67634104D01*
X93624643Y-68256289D01*
X93578826Y-68275268D01*
X93464176Y-68351874D01*
X93366674Y-68449376D01*
X93290068Y-68564026D01*
X93271090Y-68609843D01*
X92648904Y-67987657D01*
X92525068Y-68189738D01*
X92431703Y-68415142D01*
X92374748Y-68652380D01*
X92355607Y-68895600D01*
X91655694Y-68895600D01*
X91636546Y-68652298D01*
X91579572Y-68414988D01*
X91575762Y-68405789D01*
X91486177Y-68189510D01*
X91358662Y-67981426D01*
X91358661Y-67981423D01*
X91322641Y-67939249D01*
X91200159Y-67795841D01*
X91064522Y-67679996D01*
X91014576Y-67637338D01*
X91014573Y-67637337D01*
X90806489Y-67509822D01*
X90581018Y-67416430D01*
X90581021Y-67416430D01*
X90475392Y-67391070D01*
X90343702Y-67359454D01*
X90343700Y-67359453D01*
X90343697Y-67359453D01*
X90100400Y-67340306D01*
X89857102Y-67359453D01*
X89857098Y-67359454D01*
X89644580Y-67410476D01*
X89619780Y-67416430D01*
X89394310Y-67509822D01*
X89186226Y-67637337D01*
X89186223Y-67637338D01*
X89000641Y-67795841D01*
X88842138Y-67981423D01*
X88842137Y-67981426D01*
X88714622Y-68189510D01*
X88621230Y-68414980D01*
X88621228Y-68414987D01*
X88621228Y-68414988D01*
X88612972Y-68449376D01*
X88564253Y-68652302D01*
X88545106Y-68895600D01*
X87535000Y-68895600D01*
X87535000Y-66039996D01*
X100794435Y-66039996D01*
X100794435Y-66040003D01*
X100814630Y-66219249D01*
X100814631Y-66219254D01*
X100874211Y-66389523D01*
X100970184Y-66542262D01*
X101097738Y-66669816D01*
X101250478Y-66765789D01*
X101375597Y-66809570D01*
X101420745Y-66825368D01*
X101420750Y-66825369D01*
X101599996Y-66845565D01*
X101600000Y-66845565D01*
X101600004Y-66845565D01*
X101779249Y-66825369D01*
X101779252Y-66825368D01*
X101779255Y-66825368D01*
X101949522Y-66765789D01*
X102102262Y-66669816D01*
X102229816Y-66542262D01*
X102325789Y-66389522D01*
X102385368Y-66219255D01*
X102388470Y-66191723D01*
X102405565Y-66040003D01*
X102405565Y-66039996D01*
X105874435Y-66039996D01*
X105874435Y-66040003D01*
X105894630Y-66219249D01*
X105894631Y-66219254D01*
X105954211Y-66389523D01*
X106050184Y-66542262D01*
X106177738Y-66669816D01*
X106330478Y-66765789D01*
X106455597Y-66809570D01*
X106500745Y-66825368D01*
X106500750Y-66825369D01*
X106679996Y-66845565D01*
X106680000Y-66845565D01*
X106680004Y-66845565D01*
X106859249Y-66825369D01*
X106859252Y-66825368D01*
X106859255Y-66825368D01*
X107029522Y-66765789D01*
X107182262Y-66669816D01*
X107309816Y-66542262D01*
X107405789Y-66389522D01*
X107465368Y-66219255D01*
X107468470Y-66191723D01*
X107485565Y-66040003D01*
X107485565Y-66039996D01*
X110954435Y-66039996D01*
X110954435Y-66040003D01*
X110974630Y-66219249D01*
X110974631Y-66219254D01*
X111034211Y-66389523D01*
X111130184Y-66542262D01*
X111257738Y-66669816D01*
X111410478Y-66765789D01*
X111535597Y-66809570D01*
X111580745Y-66825368D01*
X111580750Y-66825369D01*
X111759996Y-66845565D01*
X111760000Y-66845565D01*
X111760004Y-66845565D01*
X111939249Y-66825369D01*
X111939252Y-66825368D01*
X111939255Y-66825368D01*
X112109522Y-66765789D01*
X112262262Y-66669816D01*
X112389816Y-66542262D01*
X112485789Y-66389522D01*
X112545368Y-66219255D01*
X112548470Y-66191723D01*
X112565565Y-66040003D01*
X112565565Y-66039996D01*
X116034435Y-66039996D01*
X116034435Y-66040003D01*
X116054630Y-66219249D01*
X116054631Y-66219254D01*
X116114211Y-66389523D01*
X116210184Y-66542262D01*
X116337738Y-66669816D01*
X116490478Y-66765789D01*
X116615597Y-66809570D01*
X116660745Y-66825368D01*
X116660750Y-66825369D01*
X116839996Y-66845565D01*
X116840000Y-66845565D01*
X116840004Y-66845565D01*
X117019249Y-66825369D01*
X117019252Y-66825368D01*
X117019255Y-66825368D01*
X117189522Y-66765789D01*
X117342262Y-66669816D01*
X117469816Y-66542262D01*
X117565789Y-66389522D01*
X117625368Y-66219255D01*
X117628470Y-66191723D01*
X117645565Y-66040003D01*
X117645565Y-66039996D01*
X121114435Y-66039996D01*
X121114435Y-66040003D01*
X121134630Y-66219249D01*
X121134631Y-66219254D01*
X121194211Y-66389523D01*
X121290184Y-66542262D01*
X121417738Y-66669816D01*
X121570478Y-66765789D01*
X121695597Y-66809570D01*
X121740745Y-66825368D01*
X121740750Y-66825369D01*
X121919996Y-66845565D01*
X121920000Y-66845565D01*
X121920004Y-66845565D01*
X122099249Y-66825369D01*
X122099252Y-66825368D01*
X122099255Y-66825368D01*
X122269522Y-66765789D01*
X122422262Y-66669816D01*
X122549816Y-66542262D01*
X122645789Y-66389522D01*
X122705368Y-66219255D01*
X122708470Y-66191723D01*
X122725565Y-66040003D01*
X122725565Y-66039996D01*
X126194435Y-66039996D01*
X126194435Y-66040003D01*
X126214630Y-66219249D01*
X126214631Y-66219254D01*
X126274211Y-66389523D01*
X126370184Y-66542262D01*
X126497738Y-66669816D01*
X126650478Y-66765789D01*
X126775597Y-66809570D01*
X126820745Y-66825368D01*
X126820750Y-66825369D01*
X126999996Y-66845565D01*
X127000000Y-66845565D01*
X127000004Y-66845565D01*
X127179249Y-66825369D01*
X127179252Y-66825368D01*
X127179255Y-66825368D01*
X127349522Y-66765789D01*
X127502262Y-66669816D01*
X127629816Y-66542262D01*
X127725789Y-66389522D01*
X127785368Y-66219255D01*
X127788470Y-66191723D01*
X127805565Y-66040003D01*
X127805565Y-66039996D01*
X131274435Y-66039996D01*
X131274435Y-66040003D01*
X131294630Y-66219249D01*
X131294631Y-66219254D01*
X131354211Y-66389523D01*
X131450184Y-66542262D01*
X131577738Y-66669816D01*
X131730478Y-66765789D01*
X131855597Y-66809570D01*
X131900745Y-66825368D01*
X131900750Y-66825369D01*
X132079996Y-66845565D01*
X132080000Y-66845565D01*
X132080004Y-66845565D01*
X132259249Y-66825369D01*
X132259252Y-66825368D01*
X132259255Y-66825368D01*
X132429522Y-66765789D01*
X132582262Y-66669816D01*
X132709816Y-66542262D01*
X132805789Y-66389522D01*
X132865368Y-66219255D01*
X132868470Y-66191723D01*
X132885565Y-66040003D01*
X132885565Y-66039996D01*
X136354435Y-66039996D01*
X136354435Y-66040003D01*
X136374630Y-66219249D01*
X136374631Y-66219254D01*
X136434211Y-66389523D01*
X136530184Y-66542262D01*
X136657738Y-66669816D01*
X136810478Y-66765789D01*
X136935597Y-66809570D01*
X136980745Y-66825368D01*
X136980750Y-66825369D01*
X137159996Y-66845565D01*
X137160000Y-66845565D01*
X137160004Y-66845565D01*
X137339249Y-66825369D01*
X137339252Y-66825368D01*
X137339255Y-66825368D01*
X137509522Y-66765789D01*
X137662262Y-66669816D01*
X137789816Y-66542262D01*
X137885789Y-66389522D01*
X137945368Y-66219255D01*
X137948470Y-66191723D01*
X137965565Y-66040003D01*
X137965565Y-66039996D01*
X141434435Y-66039996D01*
X141434435Y-66040003D01*
X141454630Y-66219249D01*
X141454631Y-66219254D01*
X141514211Y-66389523D01*
X141610184Y-66542262D01*
X141737738Y-66669816D01*
X141890478Y-66765789D01*
X142015597Y-66809570D01*
X142060745Y-66825368D01*
X142060750Y-66825369D01*
X142239996Y-66845565D01*
X142240000Y-66845565D01*
X142240004Y-66845565D01*
X142419249Y-66825369D01*
X142419252Y-66825368D01*
X142419255Y-66825368D01*
X142589522Y-66765789D01*
X142742262Y-66669816D01*
X142869816Y-66542262D01*
X142965789Y-66389522D01*
X143025368Y-66219255D01*
X143028470Y-66191723D01*
X143045565Y-66040003D01*
X143045565Y-66039996D01*
X143025369Y-65860750D01*
X143025368Y-65860745D01*
X142965789Y-65690478D01*
X142869816Y-65537738D01*
X142742262Y-65410184D01*
X142729104Y-65401916D01*
X142589523Y-65314211D01*
X142419254Y-65254631D01*
X142419249Y-65254630D01*
X142240004Y-65234435D01*
X142239996Y-65234435D01*
X142060750Y-65254630D01*
X142060745Y-65254631D01*
X141890476Y-65314211D01*
X141737737Y-65410184D01*
X141610184Y-65537737D01*
X141514211Y-65690476D01*
X141454631Y-65860745D01*
X141454630Y-65860750D01*
X141434435Y-66039996D01*
X137965565Y-66039996D01*
X137945369Y-65860750D01*
X137945368Y-65860745D01*
X137885789Y-65690478D01*
X137789816Y-65537738D01*
X137662262Y-65410184D01*
X137649104Y-65401916D01*
X137509523Y-65314211D01*
X137339254Y-65254631D01*
X137339249Y-65254630D01*
X137160004Y-65234435D01*
X137159996Y-65234435D01*
X136980750Y-65254630D01*
X136980745Y-65254631D01*
X136810476Y-65314211D01*
X136657737Y-65410184D01*
X136530184Y-65537737D01*
X136434211Y-65690476D01*
X136374631Y-65860745D01*
X136374630Y-65860750D01*
X136354435Y-66039996D01*
X132885565Y-66039996D01*
X132865369Y-65860750D01*
X132865368Y-65860745D01*
X132805789Y-65690478D01*
X132709816Y-65537738D01*
X132582262Y-65410184D01*
X132569104Y-65401916D01*
X132429523Y-65314211D01*
X132259254Y-65254631D01*
X132259249Y-65254630D01*
X132080004Y-65234435D01*
X132079996Y-65234435D01*
X131900750Y-65254630D01*
X131900745Y-65254631D01*
X131730476Y-65314211D01*
X131577737Y-65410184D01*
X131450184Y-65537737D01*
X131354211Y-65690476D01*
X131294631Y-65860745D01*
X131294630Y-65860750D01*
X131274435Y-66039996D01*
X127805565Y-66039996D01*
X127785369Y-65860750D01*
X127785368Y-65860745D01*
X127725789Y-65690478D01*
X127629816Y-65537738D01*
X127502262Y-65410184D01*
X127489104Y-65401916D01*
X127349523Y-65314211D01*
X127179254Y-65254631D01*
X127179249Y-65254630D01*
X127000004Y-65234435D01*
X126999996Y-65234435D01*
X126820750Y-65254630D01*
X126820745Y-65254631D01*
X126650476Y-65314211D01*
X126497737Y-65410184D01*
X126370184Y-65537737D01*
X126274211Y-65690476D01*
X126214631Y-65860745D01*
X126214630Y-65860750D01*
X126194435Y-66039996D01*
X122725565Y-66039996D01*
X122705369Y-65860750D01*
X122705368Y-65860745D01*
X122645789Y-65690478D01*
X122549816Y-65537738D01*
X122422262Y-65410184D01*
X122409104Y-65401916D01*
X122269523Y-65314211D01*
X122099254Y-65254631D01*
X122099249Y-65254630D01*
X121920004Y-65234435D01*
X121919996Y-65234435D01*
X121740750Y-65254630D01*
X121740745Y-65254631D01*
X121570476Y-65314211D01*
X121417737Y-65410184D01*
X121290184Y-65537737D01*
X121194211Y-65690476D01*
X121134631Y-65860745D01*
X121134630Y-65860750D01*
X121114435Y-66039996D01*
X117645565Y-66039996D01*
X117625369Y-65860750D01*
X117625368Y-65860745D01*
X117565789Y-65690478D01*
X117469816Y-65537738D01*
X117342262Y-65410184D01*
X117329104Y-65401916D01*
X117189523Y-65314211D01*
X117019254Y-65254631D01*
X117019249Y-65254630D01*
X116840004Y-65234435D01*
X116839996Y-65234435D01*
X116660750Y-65254630D01*
X116660745Y-65254631D01*
X116490476Y-65314211D01*
X116337737Y-65410184D01*
X116210184Y-65537737D01*
X116114211Y-65690476D01*
X116054631Y-65860745D01*
X116054630Y-65860750D01*
X116034435Y-66039996D01*
X112565565Y-66039996D01*
X112545369Y-65860750D01*
X112545368Y-65860745D01*
X112485789Y-65690478D01*
X112389816Y-65537738D01*
X112262262Y-65410184D01*
X112249104Y-65401916D01*
X112109523Y-65314211D01*
X111939254Y-65254631D01*
X111939249Y-65254630D01*
X111760004Y-65234435D01*
X111759996Y-65234435D01*
X111580750Y-65254630D01*
X111580745Y-65254631D01*
X111410476Y-65314211D01*
X111257737Y-65410184D01*
X111130184Y-65537737D01*
X111034211Y-65690476D01*
X110974631Y-65860745D01*
X110974630Y-65860750D01*
X110954435Y-66039996D01*
X107485565Y-66039996D01*
X107465369Y-65860750D01*
X107465368Y-65860745D01*
X107405789Y-65690478D01*
X107309816Y-65537738D01*
X107182262Y-65410184D01*
X107169104Y-65401916D01*
X107029523Y-65314211D01*
X106859254Y-65254631D01*
X106859249Y-65254630D01*
X106680004Y-65234435D01*
X106679996Y-65234435D01*
X106500750Y-65254630D01*
X106500745Y-65254631D01*
X106330476Y-65314211D01*
X106177737Y-65410184D01*
X106050184Y-65537737D01*
X105954211Y-65690476D01*
X105894631Y-65860745D01*
X105894630Y-65860750D01*
X105874435Y-66039996D01*
X102405565Y-66039996D01*
X102385369Y-65860750D01*
X102385368Y-65860745D01*
X102325789Y-65690478D01*
X102229816Y-65537738D01*
X102102262Y-65410184D01*
X102089104Y-65401916D01*
X101949523Y-65314211D01*
X101779254Y-65254631D01*
X101779249Y-65254630D01*
X101600004Y-65234435D01*
X101599996Y-65234435D01*
X101420750Y-65254630D01*
X101420745Y-65254631D01*
X101250476Y-65314211D01*
X101097737Y-65410184D01*
X100970184Y-65537737D01*
X100874211Y-65690476D01*
X100814631Y-65860745D01*
X100814630Y-65860750D01*
X100794435Y-66039996D01*
X87535000Y-66039996D01*
X87535000Y-63419996D01*
X165399435Y-63419996D01*
X165399435Y-63420003D01*
X165419630Y-63599249D01*
X165419631Y-63599254D01*
X165479211Y-63769523D01*
X165545124Y-63874422D01*
X165575184Y-63922262D01*
X165702738Y-64049816D01*
X165855478Y-64145789D01*
X165995506Y-64194787D01*
X166025745Y-64205368D01*
X166025750Y-64205369D01*
X166204996Y-64225565D01*
X166205000Y-64225565D01*
X166205004Y-64225565D01*
X166384249Y-64205369D01*
X166384252Y-64205368D01*
X166384255Y-64205368D01*
X166554522Y-64145789D01*
X166707262Y-64049816D01*
X166834816Y-63922262D01*
X166930789Y-63769522D01*
X166990368Y-63599255D01*
X166990369Y-63599249D01*
X167010565Y-63420003D01*
X167010565Y-63419996D01*
X166990369Y-63240750D01*
X166990368Y-63240745D01*
X166986543Y-63229815D01*
X166930789Y-63070478D01*
X166834816Y-62917738D01*
X166707262Y-62790184D01*
X166689859Y-62779249D01*
X166554523Y-62694211D01*
X166384254Y-62634631D01*
X166384249Y-62634630D01*
X166205004Y-62614435D01*
X166204996Y-62614435D01*
X166025750Y-62634630D01*
X166025745Y-62634631D01*
X165855476Y-62694211D01*
X165702737Y-62790184D01*
X165575184Y-62917737D01*
X165479211Y-63070476D01*
X165419631Y-63240745D01*
X165419630Y-63240750D01*
X165399435Y-63419996D01*
X87535000Y-63419996D01*
X87535000Y-62089000D01*
X87554685Y-62021961D01*
X87607489Y-61976206D01*
X87659000Y-61965000D01*
X172489228Y-61965000D01*
X172556267Y-61984685D01*
G37*
%TD.AperFunction*%
%TD*%
%TA.AperFunction,Conductor*%
%TO.N,/SiPM_HV_Block/SiPM_HV_RTN*%
G36*
X239243039Y-84844685D02*
G01*
X239288794Y-84897489D01*
X239300000Y-84949000D01*
X239300000Y-100797616D01*
X239280315Y-100864655D01*
X239227511Y-100910410D01*
X239158353Y-100920354D01*
X239094797Y-100891329D01*
X239081710Y-100878148D01*
X239070157Y-100864621D01*
X239041699Y-100831301D01*
X238849548Y-100667188D01*
X238849546Y-100667186D01*
X238849544Y-100667185D01*
X238849542Y-100667184D01*
X238634090Y-100535154D01*
X238400630Y-100438452D01*
X238154912Y-100379461D01*
X238154913Y-100379461D01*
X237903000Y-100359636D01*
X237651087Y-100379461D01*
X237405369Y-100438452D01*
X237171909Y-100535154D01*
X236956457Y-100667184D01*
X236956455Y-100667185D01*
X236764301Y-100831301D01*
X236600185Y-101023455D01*
X236600184Y-101023457D01*
X236468154Y-101238909D01*
X236371452Y-101472369D01*
X236312461Y-101718087D01*
X236292636Y-101970000D01*
X236312461Y-102221912D01*
X236371452Y-102467630D01*
X236468154Y-102701090D01*
X236600184Y-102916542D01*
X236600185Y-102916544D01*
X236600186Y-102916546D01*
X236600188Y-102916548D01*
X236764301Y-103108699D01*
X236956452Y-103272812D01*
X236956454Y-103272813D01*
X236956455Y-103272814D01*
X236956457Y-103272815D01*
X237171909Y-103404845D01*
X237405369Y-103501547D01*
X237466798Y-103516294D01*
X237651084Y-103560538D01*
X237903000Y-103580364D01*
X238154916Y-103560538D01*
X238400630Y-103501547D01*
X238634090Y-103404845D01*
X238849548Y-103272812D01*
X239041699Y-103108699D01*
X239081711Y-103061850D01*
X239140216Y-103023659D01*
X239210084Y-103023159D01*
X239269130Y-103060513D01*
X239298609Y-103123859D01*
X239300000Y-103142383D01*
X239300000Y-128516000D01*
X239280315Y-128583039D01*
X239227511Y-128628794D01*
X239176000Y-128640000D01*
X232028613Y-128640000D01*
X231961574Y-128620315D01*
X231915819Y-128567511D01*
X231905875Y-128498353D01*
X231908838Y-128483907D01*
X231915454Y-128459214D01*
X231944602Y-128350433D01*
X232005278Y-127967338D01*
X232025578Y-127580000D01*
X232005278Y-127192662D01*
X231944602Y-126809567D01*
X231844214Y-126434913D01*
X231715651Y-126099996D01*
X233414435Y-126099996D01*
X233414435Y-126100003D01*
X233434630Y-126279249D01*
X233434631Y-126279254D01*
X233494211Y-126449523D01*
X233590184Y-126602262D01*
X233717738Y-126729816D01*
X233808080Y-126786582D01*
X233844665Y-126809570D01*
X233870478Y-126825789D01*
X234040745Y-126885368D01*
X234040750Y-126885369D01*
X234219996Y-126905565D01*
X234220000Y-126905565D01*
X234220004Y-126905565D01*
X234399249Y-126885369D01*
X234399252Y-126885368D01*
X234399255Y-126885368D01*
X234569522Y-126825789D01*
X234722262Y-126729816D01*
X234849816Y-126602262D01*
X234945789Y-126449522D01*
X235005368Y-126279255D01*
X235025565Y-126100000D01*
X235005368Y-125920745D01*
X234945789Y-125750478D01*
X234931169Y-125727211D01*
X234849815Y-125597737D01*
X234722262Y-125470184D01*
X234569523Y-125374211D01*
X234399254Y-125314631D01*
X234399249Y-125314630D01*
X234220004Y-125294435D01*
X234219996Y-125294435D01*
X234040750Y-125314630D01*
X234040745Y-125314631D01*
X233870476Y-125374211D01*
X233717737Y-125470184D01*
X233590184Y-125597737D01*
X233494211Y-125750476D01*
X233434631Y-125920745D01*
X233434630Y-125920750D01*
X233414435Y-126099996D01*
X231715651Y-126099996D01*
X231705214Y-126072806D01*
X231529125Y-125727211D01*
X231529122Y-125727206D01*
X231317877Y-125401917D01*
X231073784Y-125100488D01*
X231073781Y-125100484D01*
X230799516Y-124826219D01*
X230498084Y-124582124D01*
X230498082Y-124582122D01*
X230172793Y-124370877D01*
X229827197Y-124194787D01*
X229465094Y-124055788D01*
X229465087Y-124055786D01*
X229090433Y-123955398D01*
X229090429Y-123955397D01*
X229090428Y-123955397D01*
X228707339Y-123894722D01*
X228320001Y-123874422D01*
X228319999Y-123874422D01*
X227932660Y-123894722D01*
X227549572Y-123955397D01*
X227549570Y-123955397D01*
X227174905Y-124055788D01*
X226812802Y-124194787D01*
X226467206Y-124370877D01*
X226141917Y-124582122D01*
X225840488Y-124826215D01*
X225840480Y-124826222D01*
X225566222Y-125100480D01*
X225566215Y-125100488D01*
X225322122Y-125401917D01*
X225110877Y-125727206D01*
X224934787Y-126072802D01*
X224795788Y-126434905D01*
X224695397Y-126809570D01*
X224695397Y-126809572D01*
X224634722Y-127192660D01*
X224614422Y-127579999D01*
X224614422Y-127580000D01*
X224634722Y-127967339D01*
X224695397Y-128350427D01*
X224695398Y-128350434D01*
X224731162Y-128483907D01*
X224729499Y-128553757D01*
X224690336Y-128611619D01*
X224626108Y-128639123D01*
X224611387Y-128640000D01*
X208944000Y-128640000D01*
X208876961Y-128620315D01*
X208831206Y-128567511D01*
X208820000Y-128516000D01*
X208820000Y-123559996D01*
X218174435Y-123559996D01*
X218174435Y-123560003D01*
X218194630Y-123739249D01*
X218194631Y-123739254D01*
X218254211Y-123909523D01*
X218346115Y-124055786D01*
X218350184Y-124062262D01*
X218477738Y-124189816D01*
X218630478Y-124285789D01*
X218800745Y-124345368D01*
X218800750Y-124345369D01*
X218979996Y-124365565D01*
X218980000Y-124365565D01*
X218980004Y-124365565D01*
X219159249Y-124345369D01*
X219159252Y-124345368D01*
X219159255Y-124345368D01*
X219329522Y-124285789D01*
X219482262Y-124189816D01*
X219609816Y-124062262D01*
X219705789Y-123909522D01*
X219765368Y-123739255D01*
X219785565Y-123560000D01*
X219765368Y-123380745D01*
X219705789Y-123210478D01*
X219698449Y-123198797D01*
X219609815Y-123057737D01*
X219482262Y-122930184D01*
X219329523Y-122834211D01*
X219159254Y-122774631D01*
X219159249Y-122774630D01*
X218980004Y-122754435D01*
X218979996Y-122754435D01*
X218800750Y-122774630D01*
X218800745Y-122774631D01*
X218630476Y-122834211D01*
X218477737Y-122930184D01*
X218350184Y-123057737D01*
X218254211Y-123210476D01*
X218194631Y-123380745D01*
X218194630Y-123380750D01*
X218174435Y-123559996D01*
X208820000Y-123559996D01*
X208820000Y-120507135D01*
X228174500Y-120507135D01*
X228174500Y-122802870D01*
X228174501Y-122802876D01*
X228180908Y-122862483D01*
X228231202Y-122997328D01*
X228231206Y-122997335D01*
X228317452Y-123112544D01*
X228317455Y-123112547D01*
X228432664Y-123198793D01*
X228432671Y-123198797D01*
X228567517Y-123249091D01*
X228567516Y-123249091D01*
X228574444Y-123249835D01*
X228627127Y-123255500D01*
X230922872Y-123255499D01*
X230982483Y-123249091D01*
X231117331Y-123198796D01*
X231232546Y-123112546D01*
X231318796Y-122997331D01*
X231369091Y-122862483D01*
X231375500Y-122802873D01*
X231375500Y-121730000D01*
X233824551Y-121730000D01*
X233844317Y-121981151D01*
X233903126Y-122226110D01*
X233999533Y-122458859D01*
X234131160Y-122673653D01*
X234131161Y-122673656D01*
X234131164Y-122673659D01*
X234294776Y-122865224D01*
X234443066Y-122991875D01*
X234486343Y-123028838D01*
X234486346Y-123028839D01*
X234701140Y-123160466D01*
X234930569Y-123255498D01*
X234933889Y-123256873D01*
X235178852Y-123315683D01*
X235430000Y-123335449D01*
X235681148Y-123315683D01*
X235926111Y-123256873D01*
X236158859Y-123160466D01*
X236373659Y-123028836D01*
X236565224Y-122865224D01*
X236728836Y-122673659D01*
X236860466Y-122458859D01*
X236956873Y-122226111D01*
X237015683Y-121981148D01*
X237035449Y-121730000D01*
X237015683Y-121478852D01*
X236956873Y-121233889D01*
X236860466Y-121001141D01*
X236860466Y-121001140D01*
X236728839Y-120786346D01*
X236728838Y-120786343D01*
X236691875Y-120743066D01*
X236565224Y-120594776D01*
X236392805Y-120447516D01*
X236373656Y-120431161D01*
X236373653Y-120431160D01*
X236158859Y-120299533D01*
X235926110Y-120203126D01*
X235681151Y-120144317D01*
X235430000Y-120124551D01*
X235178848Y-120144317D01*
X234933889Y-120203126D01*
X234701140Y-120299533D01*
X234486346Y-120431160D01*
X234486343Y-120431161D01*
X234294776Y-120594776D01*
X234131161Y-120786343D01*
X234131160Y-120786346D01*
X233999533Y-121001140D01*
X233903126Y-121233889D01*
X233844317Y-121478848D01*
X233824551Y-121730000D01*
X231375500Y-121730000D01*
X231375499Y-120507128D01*
X231369091Y-120447517D01*
X231362990Y-120431160D01*
X231318797Y-120312671D01*
X231318793Y-120312664D01*
X231232547Y-120197455D01*
X231232544Y-120197452D01*
X231117335Y-120111206D01*
X231117328Y-120111202D01*
X230982482Y-120060908D01*
X230982483Y-120060908D01*
X230922883Y-120054501D01*
X230922881Y-120054500D01*
X230922873Y-120054500D01*
X230922864Y-120054500D01*
X228627129Y-120054500D01*
X228627123Y-120054501D01*
X228567516Y-120060908D01*
X228432671Y-120111202D01*
X228432664Y-120111206D01*
X228317455Y-120197452D01*
X228317452Y-120197455D01*
X228231206Y-120312664D01*
X228231202Y-120312671D01*
X228180908Y-120447517D01*
X228174501Y-120507116D01*
X228174501Y-120507123D01*
X228174500Y-120507135D01*
X208820000Y-120507135D01*
X208820000Y-108599997D01*
X213052677Y-108599997D01*
X213052677Y-108600002D01*
X213071929Y-108820062D01*
X213071930Y-108820070D01*
X213129104Y-109033445D01*
X213129105Y-109033447D01*
X213129106Y-109033450D01*
X213222466Y-109233662D01*
X213222468Y-109233666D01*
X213349170Y-109414615D01*
X213349175Y-109414621D01*
X213505378Y-109570824D01*
X213505384Y-109570829D01*
X213686333Y-109697531D01*
X213686335Y-109697532D01*
X213686338Y-109697534D01*
X213772299Y-109737618D01*
X213824738Y-109783790D01*
X213843890Y-109850984D01*
X213823674Y-109917865D01*
X213772299Y-109962382D01*
X213686340Y-110002465D01*
X213686338Y-110002466D01*
X213505377Y-110129175D01*
X213349175Y-110285377D01*
X213222466Y-110466338D01*
X213222465Y-110466340D01*
X213129107Y-110666548D01*
X213129104Y-110666554D01*
X213071930Y-110879929D01*
X213071929Y-110879937D01*
X213052677Y-111099997D01*
X213052677Y-111100002D01*
X213071929Y-111320062D01*
X213071930Y-111320070D01*
X213129104Y-111533445D01*
X213129105Y-111533447D01*
X213129106Y-111533450D01*
X213222466Y-111733662D01*
X213222468Y-111733666D01*
X213349170Y-111914615D01*
X213349175Y-111914621D01*
X213505378Y-112070824D01*
X213505384Y-112070829D01*
X213686333Y-112197531D01*
X213686335Y-112197532D01*
X213686338Y-112197534D01*
X213886550Y-112290894D01*
X214099932Y-112348070D01*
X214257123Y-112361822D01*
X214319998Y-112367323D01*
X214320000Y-112367323D01*
X214320002Y-112367323D01*
X214375017Y-112362509D01*
X214540068Y-112348070D01*
X214753450Y-112290894D01*
X214953662Y-112197534D01*
X215134620Y-112070826D01*
X215290826Y-111914620D01*
X215417534Y-111733662D01*
X215510894Y-111533450D01*
X215568070Y-111320068D01*
X215587323Y-111100000D01*
X215568070Y-110879932D01*
X215510894Y-110666550D01*
X215417534Y-110466339D01*
X215290826Y-110285380D01*
X215134620Y-110129174D01*
X215134616Y-110129171D01*
X215134615Y-110129170D01*
X214953666Y-110002468D01*
X214953658Y-110002464D01*
X214867701Y-109962382D01*
X214815261Y-109916210D01*
X214796109Y-109849017D01*
X214816324Y-109782136D01*
X214867701Y-109737618D01*
X214953662Y-109697534D01*
X215134620Y-109570826D01*
X215290826Y-109414620D01*
X215417534Y-109233662D01*
X215510894Y-109033450D01*
X215568070Y-108820068D01*
X215587323Y-108600000D01*
X215568070Y-108379932D01*
X215510894Y-108166550D01*
X215417534Y-107966339D01*
X215290826Y-107785380D01*
X215134620Y-107629174D01*
X215134616Y-107629171D01*
X215134615Y-107629170D01*
X214953666Y-107502468D01*
X214953662Y-107502466D01*
X214953660Y-107502465D01*
X214753450Y-107409106D01*
X214753447Y-107409105D01*
X214753445Y-107409104D01*
X214540070Y-107351930D01*
X214540062Y-107351929D01*
X214320002Y-107332677D01*
X214319998Y-107332677D01*
X214099937Y-107351929D01*
X214099929Y-107351930D01*
X213886554Y-107409104D01*
X213886548Y-107409107D01*
X213686340Y-107502465D01*
X213686338Y-107502466D01*
X213505377Y-107629175D01*
X213349175Y-107785377D01*
X213222466Y-107966338D01*
X213222465Y-107966340D01*
X213129107Y-108166548D01*
X213129104Y-108166554D01*
X213071930Y-108379929D01*
X213071929Y-108379937D01*
X213052677Y-108599997D01*
X208820000Y-108599997D01*
X208820000Y-105779996D01*
X228334435Y-105779996D01*
X228334435Y-105780003D01*
X228354630Y-105959249D01*
X228354631Y-105959254D01*
X228414211Y-106129523D01*
X228510184Y-106282262D01*
X228637738Y-106409816D01*
X228790478Y-106505789D01*
X228960745Y-106565368D01*
X228960750Y-106565369D01*
X229139996Y-106585565D01*
X229140000Y-106585565D01*
X229140004Y-106585565D01*
X229319249Y-106565369D01*
X229319252Y-106565368D01*
X229319255Y-106565368D01*
X229489522Y-106505789D01*
X229642262Y-106409816D01*
X229769816Y-106282262D01*
X229865789Y-106129522D01*
X229925368Y-105959255D01*
X229945565Y-105780000D01*
X229925368Y-105600745D01*
X229865789Y-105430478D01*
X229769816Y-105277738D01*
X229642262Y-105150184D01*
X229489523Y-105054211D01*
X229319254Y-104994631D01*
X229319249Y-104994630D01*
X229140004Y-104974435D01*
X229139996Y-104974435D01*
X228960750Y-104994630D01*
X228960745Y-104994631D01*
X228790476Y-105054211D01*
X228637737Y-105150184D01*
X228510184Y-105277737D01*
X228414211Y-105430476D01*
X228354631Y-105600745D01*
X228354630Y-105600750D01*
X228334435Y-105779996D01*
X208820000Y-105779996D01*
X208820000Y-101970000D01*
X231212636Y-101970000D01*
X231232461Y-102221912D01*
X231291452Y-102467630D01*
X231388154Y-102701090D01*
X231520184Y-102916542D01*
X231520185Y-102916544D01*
X231520186Y-102916546D01*
X231520188Y-102916548D01*
X231684301Y-103108699D01*
X231876452Y-103272812D01*
X231876454Y-103272813D01*
X231876455Y-103272814D01*
X231876457Y-103272815D01*
X232091909Y-103404845D01*
X232325369Y-103501547D01*
X232386798Y-103516294D01*
X232571084Y-103560538D01*
X232823000Y-103580364D01*
X233074916Y-103560538D01*
X233320630Y-103501547D01*
X233554090Y-103404845D01*
X233769548Y-103272812D01*
X233961699Y-103108699D01*
X234125812Y-102916548D01*
X234257845Y-102701090D01*
X234354547Y-102467630D01*
X234413538Y-102221916D01*
X234433364Y-101970000D01*
X234413538Y-101718084D01*
X234369294Y-101533798D01*
X234354547Y-101472369D01*
X234257845Y-101238909D01*
X234125815Y-101023457D01*
X234125814Y-101023455D01*
X234125813Y-101023454D01*
X234125812Y-101023452D01*
X233961699Y-100831301D01*
X233769548Y-100667188D01*
X233769546Y-100667186D01*
X233769544Y-100667185D01*
X233769542Y-100667184D01*
X233554090Y-100535154D01*
X233320630Y-100438452D01*
X233074912Y-100379461D01*
X233074913Y-100379461D01*
X232823000Y-100359636D01*
X232571087Y-100379461D01*
X232325369Y-100438452D01*
X232091909Y-100535154D01*
X231876457Y-100667184D01*
X231876455Y-100667185D01*
X231684301Y-100831301D01*
X231520185Y-101023455D01*
X231520184Y-101023457D01*
X231388154Y-101238909D01*
X231291452Y-101472369D01*
X231232461Y-101718087D01*
X231212636Y-101970000D01*
X208820000Y-101970000D01*
X208820000Y-100699996D01*
X228334435Y-100699996D01*
X228334435Y-100700003D01*
X228354630Y-100879249D01*
X228354631Y-100879254D01*
X228414211Y-101049523D01*
X228510184Y-101202262D01*
X228637738Y-101329816D01*
X228790478Y-101425789D01*
X228923596Y-101472369D01*
X228960745Y-101485368D01*
X228960750Y-101485369D01*
X229139996Y-101505565D01*
X229140000Y-101505565D01*
X229140004Y-101505565D01*
X229319249Y-101485369D01*
X229319252Y-101485368D01*
X229319255Y-101485368D01*
X229489522Y-101425789D01*
X229642262Y-101329816D01*
X229769816Y-101202262D01*
X229865789Y-101049522D01*
X229925368Y-100879255D01*
X229930771Y-100831301D01*
X229945565Y-100700003D01*
X229945565Y-100699996D01*
X229925369Y-100520750D01*
X229925368Y-100520745D01*
X229875931Y-100379462D01*
X229865789Y-100350478D01*
X229769816Y-100197738D01*
X229642262Y-100070184D01*
X229489523Y-99974211D01*
X229319254Y-99914631D01*
X229319249Y-99914630D01*
X229140004Y-99894435D01*
X229139996Y-99894435D01*
X228960750Y-99914630D01*
X228960745Y-99914631D01*
X228790476Y-99974211D01*
X228637737Y-100070184D01*
X228510184Y-100197737D01*
X228414211Y-100350476D01*
X228354631Y-100520745D01*
X228354630Y-100520750D01*
X228334435Y-100699996D01*
X208820000Y-100699996D01*
X208820000Y-99430000D01*
X233854550Y-99430000D01*
X233873122Y-99665977D01*
X233928378Y-99896136D01*
X234018960Y-100114822D01*
X234142634Y-100316640D01*
X234142635Y-100316641D01*
X234142636Y-100316643D01*
X234142638Y-100316645D01*
X234296365Y-100496635D01*
X234476355Y-100650362D01*
X234476357Y-100650363D01*
X234476358Y-100650364D01*
X234476359Y-100650365D01*
X234678177Y-100774039D01*
X234816421Y-100831301D01*
X234896863Y-100864621D01*
X235127026Y-100919878D01*
X235363000Y-100938450D01*
X235598974Y-100919878D01*
X235829137Y-100864621D01*
X236047822Y-100774039D01*
X236249645Y-100650362D01*
X236429635Y-100496635D01*
X236583362Y-100316645D01*
X236707039Y-100114822D01*
X236797621Y-99896137D01*
X236852878Y-99665974D01*
X236871450Y-99430000D01*
X236852878Y-99194026D01*
X236797621Y-98963863D01*
X236707039Y-98745178D01*
X236707039Y-98745177D01*
X236583365Y-98543359D01*
X236583364Y-98543358D01*
X236583363Y-98543357D01*
X236583362Y-98543355D01*
X236429635Y-98363365D01*
X236249645Y-98209638D01*
X236249643Y-98209636D01*
X236249641Y-98209635D01*
X236249640Y-98209634D01*
X236047822Y-98085960D01*
X235829136Y-97995378D01*
X235598977Y-97940122D01*
X235363000Y-97921550D01*
X235127022Y-97940122D01*
X234896863Y-97995378D01*
X234678177Y-98085960D01*
X234476359Y-98209634D01*
X234476358Y-98209635D01*
X234296365Y-98363365D01*
X234142635Y-98543358D01*
X234142634Y-98543359D01*
X234018960Y-98745177D01*
X233928378Y-98963863D01*
X233873122Y-99194022D01*
X233854550Y-99430000D01*
X208820000Y-99430000D01*
X208820000Y-96890000D01*
X231212636Y-96890000D01*
X231232461Y-97141912D01*
X231291452Y-97387630D01*
X231388154Y-97621090D01*
X231520184Y-97836542D01*
X231520185Y-97836544D01*
X231520186Y-97836546D01*
X231520188Y-97836548D01*
X231684301Y-98028699D01*
X231876452Y-98192812D01*
X231876454Y-98192813D01*
X231876455Y-98192814D01*
X231876457Y-98192815D01*
X232091909Y-98324845D01*
X232325369Y-98421547D01*
X232386798Y-98436294D01*
X232571084Y-98480538D01*
X232823000Y-98500364D01*
X233074916Y-98480538D01*
X233320630Y-98421547D01*
X233554090Y-98324845D01*
X233769548Y-98192812D01*
X233961699Y-98028699D01*
X234125812Y-97836548D01*
X234257845Y-97621090D01*
X234354547Y-97387630D01*
X234413538Y-97141916D01*
X234433364Y-96890000D01*
X234413538Y-96638084D01*
X234369294Y-96453798D01*
X234354547Y-96392369D01*
X234257845Y-96158909D01*
X234125815Y-95943457D01*
X234125814Y-95943455D01*
X234125813Y-95943454D01*
X234125812Y-95943452D01*
X233961699Y-95751301D01*
X233769548Y-95587188D01*
X233769546Y-95587186D01*
X233769544Y-95587185D01*
X233769542Y-95587184D01*
X233554090Y-95455154D01*
X233320630Y-95358452D01*
X233074912Y-95299461D01*
X233074913Y-95299461D01*
X232823000Y-95279636D01*
X232571087Y-95299461D01*
X232325369Y-95358452D01*
X232091909Y-95455154D01*
X231876457Y-95587184D01*
X231876455Y-95587185D01*
X231684301Y-95751301D01*
X231520185Y-95943455D01*
X231520184Y-95943457D01*
X231388154Y-96158909D01*
X231291452Y-96392369D01*
X231232461Y-96638087D01*
X231212636Y-96890000D01*
X208820000Y-96890000D01*
X208820000Y-95619996D01*
X228334435Y-95619996D01*
X228334435Y-95620003D01*
X228354630Y-95799249D01*
X228354631Y-95799254D01*
X228414211Y-95969523D01*
X228510184Y-96122262D01*
X228637738Y-96249816D01*
X228790478Y-96345789D01*
X228923596Y-96392369D01*
X228960745Y-96405368D01*
X228960750Y-96405369D01*
X229139996Y-96425565D01*
X229140000Y-96425565D01*
X229140004Y-96425565D01*
X229319249Y-96405369D01*
X229319252Y-96405368D01*
X229319255Y-96405368D01*
X229489522Y-96345789D01*
X229642262Y-96249816D01*
X229769816Y-96122262D01*
X229865789Y-95969522D01*
X229925368Y-95799255D01*
X229945565Y-95620000D01*
X229926991Y-95455154D01*
X229925369Y-95440750D01*
X229925368Y-95440745D01*
X229875931Y-95299462D01*
X229865789Y-95270478D01*
X229769816Y-95117738D01*
X229642262Y-94990184D01*
X229489523Y-94894211D01*
X229319254Y-94834631D01*
X229319249Y-94834630D01*
X229140004Y-94814435D01*
X229139996Y-94814435D01*
X228960750Y-94834630D01*
X228960745Y-94834631D01*
X228790476Y-94894211D01*
X228637737Y-94990184D01*
X228510184Y-95117737D01*
X228414211Y-95270476D01*
X228354631Y-95440745D01*
X228354630Y-95440750D01*
X228334435Y-95619996D01*
X208820000Y-95619996D01*
X208820000Y-84949000D01*
X208839685Y-84881961D01*
X208892489Y-84836206D01*
X208944000Y-84825000D01*
X239176000Y-84825000D01*
X239243039Y-84844685D01*
G37*
%TD.AperFunction*%
%TD*%
%TA.AperFunction,Conductor*%
%TO.N,/V3p3*%
G36*
X96864464Y-77224685D02*
G01*
X96910219Y-77277489D01*
X96920645Y-77315117D01*
X96934630Y-77439249D01*
X96934631Y-77439254D01*
X96994211Y-77609523D01*
X97090184Y-77762262D01*
X97217738Y-77889816D01*
X97370478Y-77985789D01*
X97540745Y-78045368D01*
X97540750Y-78045369D01*
X97719996Y-78065565D01*
X97720000Y-78065565D01*
X97720004Y-78065565D01*
X97899249Y-78045369D01*
X97899252Y-78045368D01*
X97899255Y-78045368D01*
X98069522Y-77985789D01*
X98222262Y-77889816D01*
X98349816Y-77762262D01*
X98445789Y-77609522D01*
X98505368Y-77439255D01*
X98519355Y-77315117D01*
X98546421Y-77250703D01*
X98604016Y-77211148D01*
X98642575Y-77205000D01*
X119161000Y-77205000D01*
X119228039Y-77224685D01*
X119273794Y-77277489D01*
X119285000Y-77329000D01*
X119285000Y-82917167D01*
X119265315Y-82984206D01*
X119212511Y-83029961D01*
X119201954Y-83034209D01*
X119030478Y-83094210D01*
X118877737Y-83190184D01*
X118750184Y-83317737D01*
X118654211Y-83470476D01*
X118594631Y-83640745D01*
X118594630Y-83640750D01*
X118574435Y-83819996D01*
X118574435Y-83820003D01*
X118594630Y-83999249D01*
X118594631Y-83999254D01*
X118654211Y-84169523D01*
X118745266Y-84314435D01*
X118750184Y-84322262D01*
X118877738Y-84449816D01*
X119030476Y-84545788D01*
X119030478Y-84545789D01*
X119201954Y-84605791D01*
X119258730Y-84646513D01*
X119284478Y-84711466D01*
X119285000Y-84722833D01*
X119285000Y-94915423D01*
X119265315Y-94982462D01*
X119212511Y-95028217D01*
X119188602Y-95036312D01*
X119181950Y-95037830D01*
X119011678Y-95097410D01*
X118858937Y-95193384D01*
X118731384Y-95320937D01*
X118635411Y-95473676D01*
X118575831Y-95643945D01*
X118575830Y-95643950D01*
X118555635Y-95823196D01*
X118555635Y-95823203D01*
X118575830Y-96002449D01*
X118575831Y-96002454D01*
X118635411Y-96172723D01*
X118731384Y-96325462D01*
X118858938Y-96453016D01*
X119011678Y-96548989D01*
X119181945Y-96608568D01*
X119181951Y-96608568D01*
X119188585Y-96610083D01*
X119249565Y-96644188D01*
X119282427Y-96705847D01*
X119285000Y-96730976D01*
X119285000Y-98671000D01*
X119265315Y-98738039D01*
X119212511Y-98783794D01*
X119161000Y-98795000D01*
X119115354Y-98795000D01*
X119048315Y-98775315D01*
X119041044Y-98770268D01*
X119038992Y-98768732D01*
X119010113Y-98747113D01*
X119010110Y-98747111D01*
X119010107Y-98747109D01*
X118771518Y-98616830D01*
X118771519Y-98616830D01*
X118721920Y-98598330D01*
X118516801Y-98521825D01*
X118516794Y-98521823D01*
X118516793Y-98521823D01*
X118251167Y-98464040D01*
X118251160Y-98464039D01*
X117980001Y-98444645D01*
X117979999Y-98444645D01*
X117708839Y-98464039D01*
X117708832Y-98464040D01*
X117443206Y-98521823D01*
X117443202Y-98521824D01*
X117443199Y-98521825D01*
X117346916Y-98557737D01*
X117188480Y-98616830D01*
X116949892Y-98747109D01*
X116918956Y-98770268D01*
X116853491Y-98794684D01*
X116844646Y-98795000D01*
X102443347Y-98795000D01*
X102376308Y-98775315D01*
X102330553Y-98722511D01*
X102326310Y-98711966D01*
X102325789Y-98710478D01*
X102229816Y-98557738D01*
X102102262Y-98430184D01*
X101949523Y-98334211D01*
X101779254Y-98274631D01*
X101779249Y-98274630D01*
X101600004Y-98254435D01*
X101599996Y-98254435D01*
X101420750Y-98274630D01*
X101420745Y-98274631D01*
X101250476Y-98334211D01*
X101097737Y-98430184D01*
X100970184Y-98557737D01*
X100874212Y-98710475D01*
X100874211Y-98710478D01*
X100873692Y-98711958D01*
X100873100Y-98712784D01*
X100871193Y-98716746D01*
X100870498Y-98716411D01*
X100832971Y-98768732D01*
X100768018Y-98794478D01*
X100756653Y-98795000D01*
X97363347Y-98795000D01*
X97296308Y-98775315D01*
X97250553Y-98722511D01*
X97246310Y-98711966D01*
X97245789Y-98710478D01*
X97149816Y-98557738D01*
X97022262Y-98430184D01*
X96869523Y-98334211D01*
X96699254Y-98274631D01*
X96699249Y-98274630D01*
X96520004Y-98254435D01*
X96519996Y-98254435D01*
X96340750Y-98274630D01*
X96340745Y-98274631D01*
X96170476Y-98334211D01*
X96017737Y-98430184D01*
X95890184Y-98557737D01*
X95794212Y-98710475D01*
X95794211Y-98710478D01*
X95793692Y-98711958D01*
X95793100Y-98712784D01*
X95791193Y-98716746D01*
X95790498Y-98716411D01*
X95752971Y-98768732D01*
X95688018Y-98794478D01*
X95676653Y-98795000D01*
X92283347Y-98795000D01*
X92216308Y-98775315D01*
X92170553Y-98722511D01*
X92166310Y-98711966D01*
X92165789Y-98710478D01*
X92069816Y-98557738D01*
X91942262Y-98430184D01*
X91789523Y-98334211D01*
X91619254Y-98274631D01*
X91619249Y-98274630D01*
X91440004Y-98254435D01*
X91439996Y-98254435D01*
X91260750Y-98274630D01*
X91260745Y-98274631D01*
X91090476Y-98334211D01*
X90937737Y-98430184D01*
X90810184Y-98557737D01*
X90714212Y-98710475D01*
X90714211Y-98710478D01*
X90713692Y-98711958D01*
X90713100Y-98712784D01*
X90711193Y-98716746D01*
X90710498Y-98716411D01*
X90672971Y-98768732D01*
X90608018Y-98794478D01*
X90596653Y-98795000D01*
X87203347Y-98795000D01*
X87136308Y-98775315D01*
X87090553Y-98722511D01*
X87086310Y-98711966D01*
X87085789Y-98710478D01*
X86989816Y-98557738D01*
X86862262Y-98430184D01*
X86709523Y-98334211D01*
X86539254Y-98274631D01*
X86539249Y-98274630D01*
X86360004Y-98254435D01*
X86359996Y-98254435D01*
X86180750Y-98274630D01*
X86180745Y-98274631D01*
X86010476Y-98334211D01*
X85857737Y-98430184D01*
X85730184Y-98557737D01*
X85634212Y-98710475D01*
X85634211Y-98710478D01*
X85633692Y-98711958D01*
X85633100Y-98712784D01*
X85631193Y-98716746D01*
X85630498Y-98716411D01*
X85592971Y-98768732D01*
X85528018Y-98794478D01*
X85516653Y-98795000D01*
X82123347Y-98795000D01*
X82056308Y-98775315D01*
X82010553Y-98722511D01*
X82006310Y-98711966D01*
X82005789Y-98710478D01*
X81909816Y-98557738D01*
X81782262Y-98430184D01*
X81629523Y-98334211D01*
X81459254Y-98274631D01*
X81459249Y-98274630D01*
X81280004Y-98254435D01*
X81279996Y-98254435D01*
X81100750Y-98274630D01*
X81100745Y-98274631D01*
X80930476Y-98334211D01*
X80777737Y-98430184D01*
X80650184Y-98557737D01*
X80554212Y-98710475D01*
X80554211Y-98710478D01*
X80553692Y-98711958D01*
X80553100Y-98712784D01*
X80551193Y-98716746D01*
X80550498Y-98716411D01*
X80512971Y-98768732D01*
X80448018Y-98794478D01*
X80436653Y-98795000D01*
X77043347Y-98795000D01*
X76976308Y-98775315D01*
X76930553Y-98722511D01*
X76926310Y-98711966D01*
X76925789Y-98710478D01*
X76829816Y-98557738D01*
X76702262Y-98430184D01*
X76549523Y-98334211D01*
X76379254Y-98274631D01*
X76379249Y-98274630D01*
X76200004Y-98254435D01*
X76199996Y-98254435D01*
X76020750Y-98274630D01*
X76020745Y-98274631D01*
X75850476Y-98334211D01*
X75697737Y-98430184D01*
X75570184Y-98557737D01*
X75474212Y-98710475D01*
X75474211Y-98710478D01*
X75473692Y-98711958D01*
X75473100Y-98712784D01*
X75471193Y-98716746D01*
X75470498Y-98716411D01*
X75432971Y-98768732D01*
X75368018Y-98794478D01*
X75356653Y-98795000D01*
X71963347Y-98795000D01*
X71896308Y-98775315D01*
X71850553Y-98722511D01*
X71846310Y-98711966D01*
X71845789Y-98710478D01*
X71749816Y-98557738D01*
X71622262Y-98430184D01*
X71469523Y-98334211D01*
X71299254Y-98274631D01*
X71299249Y-98274630D01*
X71120004Y-98254435D01*
X71119996Y-98254435D01*
X70940750Y-98274630D01*
X70940745Y-98274631D01*
X70770476Y-98334211D01*
X70617737Y-98430184D01*
X70490184Y-98557737D01*
X70394212Y-98710475D01*
X70394211Y-98710478D01*
X70393692Y-98711958D01*
X70393100Y-98712784D01*
X70391193Y-98716746D01*
X70390498Y-98716411D01*
X70352971Y-98768732D01*
X70288018Y-98794478D01*
X70276653Y-98795000D01*
X69244000Y-98795000D01*
X69176961Y-98775315D01*
X69131206Y-98722511D01*
X69120000Y-98671000D01*
X69120000Y-96519996D01*
X70314435Y-96519996D01*
X70314435Y-96520003D01*
X70334630Y-96699249D01*
X70334631Y-96699254D01*
X70394211Y-96869523D01*
X70490184Y-97022262D01*
X70617738Y-97149816D01*
X70770478Y-97245789D01*
X70940745Y-97305368D01*
X70940750Y-97305369D01*
X71119996Y-97325565D01*
X71120000Y-97325565D01*
X71120004Y-97325565D01*
X71299249Y-97305369D01*
X71299252Y-97305368D01*
X71299255Y-97305368D01*
X71469522Y-97245789D01*
X71622262Y-97149816D01*
X71749816Y-97022262D01*
X71845789Y-96869522D01*
X71905368Y-96699255D01*
X71911573Y-96644188D01*
X71925565Y-96520003D01*
X71925565Y-96519996D01*
X75394435Y-96519996D01*
X75394435Y-96520003D01*
X75414630Y-96699249D01*
X75414631Y-96699254D01*
X75474211Y-96869523D01*
X75570184Y-97022262D01*
X75697738Y-97149816D01*
X75850478Y-97245789D01*
X76020745Y-97305368D01*
X76020750Y-97305369D01*
X76199996Y-97325565D01*
X76200000Y-97325565D01*
X76200004Y-97325565D01*
X76379249Y-97305369D01*
X76379252Y-97305368D01*
X76379255Y-97305368D01*
X76549522Y-97245789D01*
X76702262Y-97149816D01*
X76829816Y-97022262D01*
X76925789Y-96869522D01*
X76985368Y-96699255D01*
X76991573Y-96644188D01*
X77005565Y-96520003D01*
X77005565Y-96519996D01*
X76985369Y-96340750D01*
X76985368Y-96340745D01*
X76980020Y-96325462D01*
X76925789Y-96170478D01*
X76829816Y-96017738D01*
X76702262Y-95890184D01*
X76549523Y-95794211D01*
X76379254Y-95734631D01*
X76379249Y-95734630D01*
X76200004Y-95714435D01*
X76199996Y-95714435D01*
X76020750Y-95734630D01*
X76020745Y-95734631D01*
X75850476Y-95794211D01*
X75697737Y-95890184D01*
X75570184Y-96017737D01*
X75474211Y-96170476D01*
X75414631Y-96340745D01*
X75414630Y-96340750D01*
X75394435Y-96519996D01*
X71925565Y-96519996D01*
X71905369Y-96340750D01*
X71905368Y-96340745D01*
X71900020Y-96325462D01*
X71845789Y-96170478D01*
X71749816Y-96017738D01*
X71622262Y-95890184D01*
X71469523Y-95794211D01*
X71299254Y-95734631D01*
X71299249Y-95734630D01*
X71120004Y-95714435D01*
X71119996Y-95714435D01*
X70940750Y-95734630D01*
X70940745Y-95734631D01*
X70770476Y-95794211D01*
X70617737Y-95890184D01*
X70490184Y-96017737D01*
X70394211Y-96170476D01*
X70334631Y-96340745D01*
X70334630Y-96340750D01*
X70314435Y-96519996D01*
X69120000Y-96519996D01*
X69120000Y-93979996D01*
X105874435Y-93979996D01*
X105874435Y-93980003D01*
X105894630Y-94159249D01*
X105894631Y-94159254D01*
X105954211Y-94329523D01*
X106050184Y-94482262D01*
X106177738Y-94609816D01*
X106330478Y-94705789D01*
X106500745Y-94765368D01*
X106500750Y-94765369D01*
X106679996Y-94785565D01*
X106680000Y-94785565D01*
X106680004Y-94785565D01*
X106859249Y-94765369D01*
X106859252Y-94765368D01*
X106859255Y-94765368D01*
X107029522Y-94705789D01*
X107182262Y-94609816D01*
X107309816Y-94482262D01*
X107405789Y-94329522D01*
X107465368Y-94159255D01*
X107485565Y-93980000D01*
X107485565Y-93979996D01*
X110954435Y-93979996D01*
X110954435Y-93980003D01*
X110974630Y-94159249D01*
X110974631Y-94159254D01*
X111034211Y-94329523D01*
X111130184Y-94482262D01*
X111257738Y-94609816D01*
X111410478Y-94705789D01*
X111580745Y-94765368D01*
X111580750Y-94765369D01*
X111759996Y-94785565D01*
X111760000Y-94785565D01*
X111760004Y-94785565D01*
X111939249Y-94765369D01*
X111939252Y-94765368D01*
X111939255Y-94765368D01*
X112109522Y-94705789D01*
X112262262Y-94609816D01*
X112389816Y-94482262D01*
X112485789Y-94329522D01*
X112545368Y-94159255D01*
X112565565Y-93980000D01*
X112545368Y-93800745D01*
X112485789Y-93630478D01*
X112389816Y-93477738D01*
X112262262Y-93350184D01*
X112109523Y-93254211D01*
X111939254Y-93194631D01*
X111939249Y-93194630D01*
X111760004Y-93174435D01*
X111759996Y-93174435D01*
X111580750Y-93194630D01*
X111580745Y-93194631D01*
X111410476Y-93254211D01*
X111257737Y-93350184D01*
X111130184Y-93477737D01*
X111034211Y-93630476D01*
X110974631Y-93800745D01*
X110974630Y-93800750D01*
X110954435Y-93979996D01*
X107485565Y-93979996D01*
X107465368Y-93800745D01*
X107405789Y-93630478D01*
X107309816Y-93477738D01*
X107182262Y-93350184D01*
X107029523Y-93254211D01*
X106859254Y-93194631D01*
X106859249Y-93194630D01*
X106680004Y-93174435D01*
X106679996Y-93174435D01*
X106500750Y-93194630D01*
X106500745Y-93194631D01*
X106330476Y-93254211D01*
X106177737Y-93350184D01*
X106050184Y-93477737D01*
X105954211Y-93630476D01*
X105894631Y-93800745D01*
X105894630Y-93800750D01*
X105874435Y-93979996D01*
X69120000Y-93979996D01*
X69120000Y-90349996D01*
X87984435Y-90349996D01*
X87984435Y-90350003D01*
X88004630Y-90529249D01*
X88004631Y-90529254D01*
X88064211Y-90699523D01*
X88159713Y-90851513D01*
X88160184Y-90852262D01*
X88287738Y-90979816D01*
X88440478Y-91075789D01*
X88481414Y-91090113D01*
X88610745Y-91135368D01*
X88610750Y-91135369D01*
X88789996Y-91155565D01*
X88790000Y-91155565D01*
X88790004Y-91155565D01*
X88969249Y-91135369D01*
X88969252Y-91135368D01*
X88969255Y-91135368D01*
X89139522Y-91075789D01*
X89292262Y-90979816D01*
X89419816Y-90852262D01*
X89515789Y-90699522D01*
X89575368Y-90529255D01*
X89595565Y-90350000D01*
X89593442Y-90331160D01*
X89575369Y-90170750D01*
X89575368Y-90170745D01*
X89536617Y-90060001D01*
X89536616Y-90059998D01*
X101914645Y-90059998D01*
X101914645Y-90060001D01*
X101934039Y-90331160D01*
X101934040Y-90331167D01*
X101977130Y-90529249D01*
X101991825Y-90596801D01*
X102068330Y-90801920D01*
X102086830Y-90851519D01*
X102217109Y-91090107D01*
X102217110Y-91090108D01*
X102217113Y-91090113D01*
X102380029Y-91307742D01*
X102380033Y-91307746D01*
X102380038Y-91307752D01*
X102572247Y-91499961D01*
X102572253Y-91499966D01*
X102572258Y-91499971D01*
X102789887Y-91662887D01*
X102789891Y-91662889D01*
X102789892Y-91662890D01*
X103028481Y-91793169D01*
X103028480Y-91793169D01*
X103028484Y-91793170D01*
X103028487Y-91793172D01*
X103283199Y-91888175D01*
X103548840Y-91945961D01*
X103800605Y-91963967D01*
X103819999Y-91965355D01*
X103820000Y-91965355D01*
X103820001Y-91965355D01*
X103838100Y-91964060D01*
X104091160Y-91945961D01*
X104356801Y-91888175D01*
X104611513Y-91793172D01*
X104611517Y-91793169D01*
X104611519Y-91793169D01*
X104730813Y-91728029D01*
X104850113Y-91662887D01*
X105067742Y-91499971D01*
X105259971Y-91307742D01*
X105422887Y-91090113D01*
X105553172Y-90851513D01*
X105648175Y-90596801D01*
X105705961Y-90331160D01*
X105725355Y-90060000D01*
X105705961Y-89788840D01*
X105648175Y-89523199D01*
X105553172Y-89268487D01*
X105553170Y-89268484D01*
X105553169Y-89268480D01*
X105422890Y-89029892D01*
X105422889Y-89029891D01*
X105422887Y-89029887D01*
X105325651Y-88899996D01*
X110954435Y-88899996D01*
X110954435Y-88900003D01*
X110974630Y-89079249D01*
X110974631Y-89079254D01*
X111034211Y-89249523D01*
X111100982Y-89355788D01*
X111130184Y-89402262D01*
X111257738Y-89529816D01*
X111348080Y-89586582D01*
X111407966Y-89624211D01*
X111410478Y-89625789D01*
X111580745Y-89685368D01*
X111580750Y-89685369D01*
X111759996Y-89705565D01*
X111760000Y-89705565D01*
X111760004Y-89705565D01*
X111939249Y-89685369D01*
X111939252Y-89685368D01*
X111939255Y-89685368D01*
X112109522Y-89625789D01*
X112262262Y-89529816D01*
X112389816Y-89402262D01*
X112485789Y-89249522D01*
X112545368Y-89079255D01*
X112550930Y-89029891D01*
X112565565Y-88900003D01*
X112565565Y-88899996D01*
X116034435Y-88899996D01*
X116034435Y-88900003D01*
X116054630Y-89079249D01*
X116054631Y-89079254D01*
X116114211Y-89249523D01*
X116180982Y-89355788D01*
X116210184Y-89402262D01*
X116337738Y-89529816D01*
X116428080Y-89586582D01*
X116487966Y-89624211D01*
X116490478Y-89625789D01*
X116660745Y-89685368D01*
X116660750Y-89685369D01*
X116839996Y-89705565D01*
X116840000Y-89705565D01*
X116840004Y-89705565D01*
X117019249Y-89685369D01*
X117019252Y-89685368D01*
X117019255Y-89685368D01*
X117189522Y-89625789D01*
X117342262Y-89529816D01*
X117469816Y-89402262D01*
X117565789Y-89249522D01*
X117625368Y-89079255D01*
X117630930Y-89029891D01*
X117645565Y-88900003D01*
X117645565Y-88899996D01*
X117625369Y-88720750D01*
X117625368Y-88720745D01*
X117593615Y-88630000D01*
X117565789Y-88550478D01*
X117469816Y-88397738D01*
X117342262Y-88270184D01*
X117281211Y-88231823D01*
X117189523Y-88174211D01*
X117019254Y-88114631D01*
X117019249Y-88114630D01*
X116840004Y-88094435D01*
X116839996Y-88094435D01*
X116660750Y-88114630D01*
X116660745Y-88114631D01*
X116490476Y-88174211D01*
X116337737Y-88270184D01*
X116210184Y-88397737D01*
X116114211Y-88550476D01*
X116054631Y-88720745D01*
X116054630Y-88720750D01*
X116034435Y-88899996D01*
X112565565Y-88899996D01*
X112545369Y-88720750D01*
X112545368Y-88720745D01*
X112513615Y-88630000D01*
X112485789Y-88550478D01*
X112389816Y-88397738D01*
X112262262Y-88270184D01*
X112201211Y-88231823D01*
X112109523Y-88174211D01*
X111939254Y-88114631D01*
X111939249Y-88114630D01*
X111760004Y-88094435D01*
X111759996Y-88094435D01*
X111580750Y-88114630D01*
X111580745Y-88114631D01*
X111410476Y-88174211D01*
X111257737Y-88270184D01*
X111130184Y-88397737D01*
X111034211Y-88550476D01*
X110974631Y-88720745D01*
X110974630Y-88720750D01*
X110954435Y-88899996D01*
X105325651Y-88899996D01*
X105259971Y-88812258D01*
X105259966Y-88812253D01*
X105259961Y-88812247D01*
X105067752Y-88620038D01*
X105067746Y-88620033D01*
X105067742Y-88620029D01*
X104850113Y-88457113D01*
X104850108Y-88457110D01*
X104850107Y-88457109D01*
X104611518Y-88326830D01*
X104611519Y-88326830D01*
X104561920Y-88308330D01*
X104356801Y-88231825D01*
X104356794Y-88231823D01*
X104356793Y-88231823D01*
X104091167Y-88174040D01*
X104091160Y-88174039D01*
X103820001Y-88154645D01*
X103819999Y-88154645D01*
X103548839Y-88174039D01*
X103548832Y-88174040D01*
X103283206Y-88231823D01*
X103283202Y-88231824D01*
X103283199Y-88231825D01*
X103180355Y-88270184D01*
X103028480Y-88326830D01*
X102789892Y-88457109D01*
X102789891Y-88457110D01*
X102572259Y-88620028D01*
X102572247Y-88620038D01*
X102380038Y-88812247D01*
X102380028Y-88812259D01*
X102217110Y-89029891D01*
X102217109Y-89029892D01*
X102086830Y-89268480D01*
X102054266Y-89355788D01*
X101991825Y-89523199D01*
X101991824Y-89523202D01*
X101991823Y-89523206D01*
X101934040Y-89788832D01*
X101934039Y-89788839D01*
X101914645Y-90059998D01*
X89536616Y-90059998D01*
X89515789Y-90000478D01*
X89419816Y-89847738D01*
X89292262Y-89720184D01*
X89268996Y-89705565D01*
X89139523Y-89624211D01*
X88969254Y-89564631D01*
X88969249Y-89564630D01*
X88790004Y-89544435D01*
X88789996Y-89544435D01*
X88610750Y-89564630D01*
X88610745Y-89564631D01*
X88440476Y-89624211D01*
X88287737Y-89720184D01*
X88160184Y-89847737D01*
X88064211Y-90000476D01*
X88004631Y-90170745D01*
X88004630Y-90170750D01*
X87984435Y-90349996D01*
X69120000Y-90349996D01*
X69120000Y-88629996D01*
X92994435Y-88629996D01*
X92994435Y-88630003D01*
X93014630Y-88809249D01*
X93014631Y-88809254D01*
X93074211Y-88979523D01*
X93136877Y-89079254D01*
X93170184Y-89132262D01*
X93297738Y-89259816D01*
X93450478Y-89355789D01*
X93583290Y-89402262D01*
X93620745Y-89415368D01*
X93620750Y-89415369D01*
X93799996Y-89435565D01*
X93800000Y-89435565D01*
X93800004Y-89435565D01*
X93979249Y-89415369D01*
X93979252Y-89415368D01*
X93979255Y-89415368D01*
X94149522Y-89355789D01*
X94302262Y-89259816D01*
X94429816Y-89132262D01*
X94525789Y-88979522D01*
X94553616Y-88899996D01*
X95714435Y-88899996D01*
X95714435Y-88900003D01*
X95734630Y-89079249D01*
X95734631Y-89079254D01*
X95794211Y-89249523D01*
X95860982Y-89355788D01*
X95890184Y-89402262D01*
X96017738Y-89529816D01*
X96108080Y-89586582D01*
X96167966Y-89624211D01*
X96170478Y-89625789D01*
X96340745Y-89685368D01*
X96340750Y-89685369D01*
X96519996Y-89705565D01*
X96520000Y-89705565D01*
X96520004Y-89705565D01*
X96699249Y-89685369D01*
X96699252Y-89685368D01*
X96699255Y-89685368D01*
X96869522Y-89625789D01*
X97022262Y-89529816D01*
X97149816Y-89402262D01*
X97245789Y-89249522D01*
X97305368Y-89079255D01*
X97310930Y-89029891D01*
X97325565Y-88900003D01*
X97325565Y-88899996D01*
X97305369Y-88720750D01*
X97305368Y-88720745D01*
X97273615Y-88630000D01*
X97245789Y-88550478D01*
X97149816Y-88397738D01*
X97022262Y-88270184D01*
X96961211Y-88231823D01*
X96869523Y-88174211D01*
X96699254Y-88114631D01*
X96699249Y-88114630D01*
X96520004Y-88094435D01*
X96519996Y-88094435D01*
X96340750Y-88114630D01*
X96340745Y-88114631D01*
X96170476Y-88174211D01*
X96017737Y-88270184D01*
X95890184Y-88397737D01*
X95794211Y-88550476D01*
X95734631Y-88720745D01*
X95734630Y-88720750D01*
X95714435Y-88899996D01*
X94553616Y-88899996D01*
X94585368Y-88809255D01*
X94605565Y-88630000D01*
X94604441Y-88620028D01*
X94585369Y-88450750D01*
X94585368Y-88450745D01*
X94542008Y-88326830D01*
X94525789Y-88280478D01*
X94429816Y-88127738D01*
X94302262Y-88000184D01*
X94149523Y-87904211D01*
X93979254Y-87844631D01*
X93979249Y-87844630D01*
X93800004Y-87824435D01*
X93799996Y-87824435D01*
X93620750Y-87844630D01*
X93620745Y-87844631D01*
X93450476Y-87904211D01*
X93297737Y-88000184D01*
X93170184Y-88127737D01*
X93074211Y-88280476D01*
X93014631Y-88450745D01*
X93014630Y-88450750D01*
X92994435Y-88629996D01*
X69120000Y-88629996D01*
X69120000Y-85119996D01*
X74314435Y-85119996D01*
X74314435Y-85120003D01*
X74334630Y-85299249D01*
X74334631Y-85299254D01*
X74394211Y-85469523D01*
X74490184Y-85622262D01*
X74617738Y-85749816D01*
X74770478Y-85845789D01*
X74940745Y-85905368D01*
X74940750Y-85905369D01*
X75119996Y-85925565D01*
X75120000Y-85925565D01*
X75120004Y-85925565D01*
X75299249Y-85905369D01*
X75299252Y-85905368D01*
X75299255Y-85905368D01*
X75469522Y-85845789D01*
X75622262Y-85749816D01*
X75749816Y-85622262D01*
X75845789Y-85469522D01*
X75905368Y-85299255D01*
X75925565Y-85120000D01*
X75905368Y-84940745D01*
X75845789Y-84770478D01*
X75749816Y-84617738D01*
X75622262Y-84490184D01*
X75558017Y-84449816D01*
X75469523Y-84394211D01*
X75299254Y-84334631D01*
X75299249Y-84334630D01*
X75120004Y-84314435D01*
X75119996Y-84314435D01*
X74940750Y-84334630D01*
X74940745Y-84334631D01*
X74770476Y-84394211D01*
X74617737Y-84490184D01*
X74490184Y-84617737D01*
X74394211Y-84770476D01*
X74334631Y-84940745D01*
X74334630Y-84940750D01*
X74314435Y-85119996D01*
X69120000Y-85119996D01*
X69120000Y-83819996D01*
X105874435Y-83819996D01*
X105874435Y-83820003D01*
X105894630Y-83999249D01*
X105894631Y-83999254D01*
X105954211Y-84169523D01*
X106045266Y-84314435D01*
X106050184Y-84322262D01*
X106177738Y-84449816D01*
X106330478Y-84545789D01*
X106500745Y-84605368D01*
X106500750Y-84605369D01*
X106679996Y-84625565D01*
X106680000Y-84625565D01*
X106680004Y-84625565D01*
X106859249Y-84605369D01*
X106859252Y-84605368D01*
X106859255Y-84605368D01*
X107029522Y-84545789D01*
X107182262Y-84449816D01*
X107309816Y-84322262D01*
X107405789Y-84169522D01*
X107465368Y-83999255D01*
X107485565Y-83820000D01*
X107485565Y-83819996D01*
X110954435Y-83819996D01*
X110954435Y-83820003D01*
X110974630Y-83999249D01*
X110974631Y-83999254D01*
X111034211Y-84169523D01*
X111125266Y-84314435D01*
X111130184Y-84322262D01*
X111257738Y-84449816D01*
X111410478Y-84545789D01*
X111580745Y-84605368D01*
X111580750Y-84605369D01*
X111759996Y-84625565D01*
X111760000Y-84625565D01*
X111760004Y-84625565D01*
X111939249Y-84605369D01*
X111939252Y-84605368D01*
X111939255Y-84605368D01*
X112109522Y-84545789D01*
X112262262Y-84449816D01*
X112389816Y-84322262D01*
X112485789Y-84169522D01*
X112545368Y-83999255D01*
X112565565Y-83820000D01*
X112545368Y-83640745D01*
X112485789Y-83470478D01*
X112389816Y-83317738D01*
X112262262Y-83190184D01*
X112213930Y-83159815D01*
X112109523Y-83094211D01*
X111939254Y-83034631D01*
X111939249Y-83034630D01*
X111760004Y-83014435D01*
X111759996Y-83014435D01*
X111580750Y-83034630D01*
X111580745Y-83034631D01*
X111410476Y-83094211D01*
X111257737Y-83190184D01*
X111130184Y-83317737D01*
X111034211Y-83470476D01*
X110974631Y-83640745D01*
X110974630Y-83640750D01*
X110954435Y-83819996D01*
X107485565Y-83819996D01*
X107465368Y-83640745D01*
X107405789Y-83470478D01*
X107309816Y-83317738D01*
X107182262Y-83190184D01*
X107133930Y-83159815D01*
X107029523Y-83094211D01*
X106859254Y-83034631D01*
X106859249Y-83034630D01*
X106680004Y-83014435D01*
X106679996Y-83014435D01*
X106500750Y-83034630D01*
X106500745Y-83034631D01*
X106330476Y-83094211D01*
X106177737Y-83190184D01*
X106050184Y-83317737D01*
X105954211Y-83470476D01*
X105894631Y-83640745D01*
X105894630Y-83640750D01*
X105874435Y-83819996D01*
X69120000Y-83819996D01*
X69120000Y-82529996D01*
X82584435Y-82529996D01*
X82584435Y-82530003D01*
X82604630Y-82709249D01*
X82604631Y-82709254D01*
X82664211Y-82879523D01*
X82758738Y-83029961D01*
X82760184Y-83032262D01*
X82887738Y-83159816D01*
X83040478Y-83255789D01*
X83210745Y-83315368D01*
X83210750Y-83315369D01*
X83389996Y-83335565D01*
X83390000Y-83335565D01*
X83390004Y-83335565D01*
X83569249Y-83315369D01*
X83569252Y-83315368D01*
X83569255Y-83315368D01*
X83739522Y-83255789D01*
X83892262Y-83159816D01*
X84019816Y-83032262D01*
X84115789Y-82879522D01*
X84175368Y-82709255D01*
X84195565Y-82530000D01*
X84175368Y-82350745D01*
X84115789Y-82180478D01*
X84019816Y-82027738D01*
X83892262Y-81900184D01*
X83739523Y-81804211D01*
X83569254Y-81744631D01*
X83569249Y-81744630D01*
X83390004Y-81724435D01*
X83389996Y-81724435D01*
X83210750Y-81744630D01*
X83210745Y-81744631D01*
X83040476Y-81804211D01*
X82887737Y-81900184D01*
X82760184Y-82027737D01*
X82664211Y-82180476D01*
X82604631Y-82350745D01*
X82604630Y-82350750D01*
X82584435Y-82529996D01*
X69120000Y-82529996D01*
X69120000Y-80769996D01*
X83674435Y-80769996D01*
X83674435Y-80770003D01*
X83694630Y-80949249D01*
X83694631Y-80949254D01*
X83754211Y-81119523D01*
X83829444Y-81239254D01*
X83850184Y-81272262D01*
X83977738Y-81399816D01*
X84130478Y-81495789D01*
X84300745Y-81555368D01*
X84300750Y-81555369D01*
X84479996Y-81575565D01*
X84480000Y-81575565D01*
X84480004Y-81575565D01*
X84659249Y-81555369D01*
X84659252Y-81555368D01*
X84659255Y-81555368D01*
X84829522Y-81495789D01*
X84982262Y-81399816D01*
X85109816Y-81272262D01*
X85205789Y-81119522D01*
X85226618Y-81059996D01*
X92814435Y-81059996D01*
X92814435Y-81060003D01*
X92834630Y-81239249D01*
X92834631Y-81239254D01*
X92894211Y-81409523D01*
X92948416Y-81495789D01*
X92990184Y-81562262D01*
X93117738Y-81689816D01*
X93270478Y-81785789D01*
X93440745Y-81845368D01*
X93440750Y-81845369D01*
X93619996Y-81865565D01*
X93620000Y-81865565D01*
X93620004Y-81865565D01*
X93799249Y-81845369D01*
X93799252Y-81845368D01*
X93799255Y-81845368D01*
X93969522Y-81785789D01*
X94122262Y-81689816D01*
X94249816Y-81562262D01*
X94345789Y-81409522D01*
X94405368Y-81239255D01*
X94405369Y-81239249D01*
X94425565Y-81060003D01*
X94425565Y-81059996D01*
X94405369Y-80880750D01*
X94405368Y-80880745D01*
X94366618Y-80770003D01*
X94345789Y-80710478D01*
X94249816Y-80557738D01*
X94122262Y-80430184D01*
X94106812Y-80420476D01*
X93969523Y-80334211D01*
X93799254Y-80274631D01*
X93799249Y-80274630D01*
X93620004Y-80254435D01*
X93619996Y-80254435D01*
X93440750Y-80274630D01*
X93440745Y-80274631D01*
X93270476Y-80334211D01*
X93117737Y-80430184D01*
X92990184Y-80557737D01*
X92894211Y-80710476D01*
X92834631Y-80880745D01*
X92834630Y-80880750D01*
X92814435Y-81059996D01*
X85226618Y-81059996D01*
X85265368Y-80949255D01*
X85272566Y-80885369D01*
X85285565Y-80770003D01*
X85285565Y-80769996D01*
X85265369Y-80590750D01*
X85265368Y-80590745D01*
X85205788Y-80420476D01*
X85151584Y-80334211D01*
X85109816Y-80267738D01*
X84982262Y-80140184D01*
X84941942Y-80114849D01*
X84918304Y-80099996D01*
X89084435Y-80099996D01*
X89084435Y-80100003D01*
X89104630Y-80279249D01*
X89104631Y-80279254D01*
X89164211Y-80449523D01*
X89260184Y-80602262D01*
X89387738Y-80729816D01*
X89540478Y-80825789D01*
X89697533Y-80880745D01*
X89710745Y-80885368D01*
X89710750Y-80885369D01*
X89889996Y-80905565D01*
X89890000Y-80905565D01*
X89890004Y-80905565D01*
X90069249Y-80885369D01*
X90069252Y-80885368D01*
X90069255Y-80885368D01*
X90239522Y-80825789D01*
X90392262Y-80729816D01*
X90519816Y-80602262D01*
X90615789Y-80449522D01*
X90675368Y-80279255D01*
X90678165Y-80254435D01*
X90695565Y-80100003D01*
X90695565Y-80099996D01*
X90677042Y-79935596D01*
X110029835Y-79935596D01*
X110029835Y-79935603D01*
X110050030Y-80114849D01*
X110050031Y-80114854D01*
X110109611Y-80285123D01*
X110194660Y-80420476D01*
X110205584Y-80437862D01*
X110333138Y-80565416D01*
X110485878Y-80661389D01*
X110626161Y-80710476D01*
X110656145Y-80720968D01*
X110656150Y-80720969D01*
X110835396Y-80741165D01*
X110835400Y-80741165D01*
X110835404Y-80741165D01*
X111014649Y-80720969D01*
X111014652Y-80720968D01*
X111014655Y-80720968D01*
X111184922Y-80661389D01*
X111337662Y-80565416D01*
X111465216Y-80437862D01*
X111561189Y-80285122D01*
X111620768Y-80114855D01*
X111620769Y-80114849D01*
X111640965Y-79935603D01*
X111640965Y-79935596D01*
X111620769Y-79756350D01*
X111620768Y-79756345D01*
X111565269Y-79597738D01*
X111561189Y-79586078D01*
X111465216Y-79433338D01*
X111337662Y-79305784D01*
X111319600Y-79294435D01*
X111184923Y-79209811D01*
X111014654Y-79150231D01*
X111014649Y-79150230D01*
X110835404Y-79130035D01*
X110835396Y-79130035D01*
X110656150Y-79150230D01*
X110656145Y-79150231D01*
X110485876Y-79209811D01*
X110333137Y-79305784D01*
X110205584Y-79433337D01*
X110109611Y-79586076D01*
X110050031Y-79756345D01*
X110050030Y-79756350D01*
X110029835Y-79935596D01*
X90677042Y-79935596D01*
X90675369Y-79920750D01*
X90675368Y-79920745D01*
X90615789Y-79750478D01*
X90519816Y-79597738D01*
X90392262Y-79470184D01*
X90333622Y-79433338D01*
X90239523Y-79374211D01*
X90069254Y-79314631D01*
X90069249Y-79314630D01*
X89890004Y-79294435D01*
X89889996Y-79294435D01*
X89710750Y-79314630D01*
X89710745Y-79314631D01*
X89540476Y-79374211D01*
X89387737Y-79470184D01*
X89260184Y-79597737D01*
X89164211Y-79750476D01*
X89104631Y-79920745D01*
X89104630Y-79920750D01*
X89084435Y-80099996D01*
X84918304Y-80099996D01*
X84829523Y-80044211D01*
X84659254Y-79984631D01*
X84659249Y-79984630D01*
X84480004Y-79964435D01*
X84479996Y-79964435D01*
X84300750Y-79984630D01*
X84300745Y-79984631D01*
X84130476Y-80044211D01*
X83977737Y-80140184D01*
X83850184Y-80267737D01*
X83754211Y-80420476D01*
X83694631Y-80590745D01*
X83694630Y-80590750D01*
X83674435Y-80769996D01*
X69120000Y-80769996D01*
X69120000Y-77329000D01*
X69139685Y-77261961D01*
X69192489Y-77216206D01*
X69244000Y-77205000D01*
X96797425Y-77205000D01*
X96864464Y-77224685D01*
G37*
%TD.AperFunction*%
%TD*%
%TA.AperFunction,Conductor*%
%TO.N,/SiPM_HV_Block/V_POS*%
G36*
X130073615Y-82050685D02*
G01*
X130119370Y-82103489D01*
X130130576Y-82155223D01*
X130116758Y-89824211D01*
X130080000Y-110225000D01*
X135671000Y-110225000D01*
X135738039Y-110244685D01*
X135783794Y-110297489D01*
X135795000Y-110349000D01*
X135795000Y-121531000D01*
X135775315Y-121598039D01*
X135722511Y-121643794D01*
X135671000Y-121655000D01*
X123854159Y-121655000D01*
X123787120Y-121635315D01*
X123741365Y-121582511D01*
X123730159Y-121530841D01*
X123733038Y-119285565D01*
X123734071Y-118479996D01*
X126734435Y-118479996D01*
X126734435Y-118480003D01*
X126754630Y-118659249D01*
X126754631Y-118659254D01*
X126814211Y-118829523D01*
X126844377Y-118877531D01*
X126910184Y-118982262D01*
X127037738Y-119109816D01*
X127190478Y-119205789D01*
X127360745Y-119265368D01*
X127360750Y-119265369D01*
X127539996Y-119285565D01*
X127540000Y-119285565D01*
X127540004Y-119285565D01*
X127719249Y-119265369D01*
X127719252Y-119265368D01*
X127719255Y-119265368D01*
X127889522Y-119205789D01*
X128042262Y-119109816D01*
X128169816Y-118982262D01*
X128265789Y-118829522D01*
X128325368Y-118659255D01*
X128325369Y-118659249D01*
X128345565Y-118480003D01*
X128345565Y-118479996D01*
X128325369Y-118300750D01*
X128325368Y-118300745D01*
X128265789Y-118130478D01*
X128169816Y-117977738D01*
X128042262Y-117850184D01*
X127930561Y-117779997D01*
X131752677Y-117779997D01*
X131752677Y-117780002D01*
X131771929Y-118000062D01*
X131771930Y-118000070D01*
X131829104Y-118213445D01*
X131829105Y-118213447D01*
X131829106Y-118213450D01*
X131922466Y-118413662D01*
X131922468Y-118413666D01*
X132049170Y-118594615D01*
X132049175Y-118594621D01*
X132205378Y-118750824D01*
X132205384Y-118750829D01*
X132386333Y-118877531D01*
X132386335Y-118877532D01*
X132386338Y-118877534D01*
X132586550Y-118970894D01*
X132799932Y-119028070D01*
X132957123Y-119041822D01*
X133019998Y-119047323D01*
X133020000Y-119047323D01*
X133020002Y-119047323D01*
X133075017Y-119042509D01*
X133240068Y-119028070D01*
X133453450Y-118970894D01*
X133653662Y-118877534D01*
X133834620Y-118750826D01*
X133990826Y-118594620D01*
X134117534Y-118413662D01*
X134210894Y-118213450D01*
X134268070Y-118000068D01*
X134287323Y-117780000D01*
X134268070Y-117559932D01*
X134210894Y-117346550D01*
X134117534Y-117146339D01*
X133990826Y-116965380D01*
X133834620Y-116809174D01*
X133834616Y-116809171D01*
X133834615Y-116809170D01*
X133653666Y-116682468D01*
X133653662Y-116682466D01*
X133617896Y-116665788D01*
X133453450Y-116589106D01*
X133453447Y-116589105D01*
X133453445Y-116589104D01*
X133240070Y-116531930D01*
X133240062Y-116531929D01*
X133020002Y-116512677D01*
X133019998Y-116512677D01*
X132799937Y-116531929D01*
X132799929Y-116531930D01*
X132586554Y-116589104D01*
X132586548Y-116589107D01*
X132386340Y-116682465D01*
X132386338Y-116682466D01*
X132205377Y-116809175D01*
X132049175Y-116965377D01*
X131922466Y-117146338D01*
X131922465Y-117146340D01*
X131829107Y-117346548D01*
X131829104Y-117346554D01*
X131771930Y-117559929D01*
X131771929Y-117559937D01*
X131752677Y-117779997D01*
X127930561Y-117779997D01*
X127889523Y-117754211D01*
X127719254Y-117694631D01*
X127719249Y-117694630D01*
X127540004Y-117674435D01*
X127539996Y-117674435D01*
X127360750Y-117694630D01*
X127360745Y-117694631D01*
X127190476Y-117754211D01*
X127037737Y-117850184D01*
X126910184Y-117977737D01*
X126814211Y-118130476D01*
X126754631Y-118300745D01*
X126754630Y-118300750D01*
X126734435Y-118479996D01*
X123734071Y-118479996D01*
X123737327Y-115939996D01*
X126734435Y-115939996D01*
X126734435Y-115940003D01*
X126754630Y-116119249D01*
X126754631Y-116119254D01*
X126814211Y-116289523D01*
X126910184Y-116442262D01*
X127037738Y-116569816D01*
X127190478Y-116665789D01*
X127238144Y-116682468D01*
X127360745Y-116725368D01*
X127360750Y-116725369D01*
X127539996Y-116745565D01*
X127540000Y-116745565D01*
X127540004Y-116745565D01*
X127719249Y-116725369D01*
X127719252Y-116725368D01*
X127719255Y-116725368D01*
X127889522Y-116665789D01*
X128042262Y-116569816D01*
X128169816Y-116442262D01*
X128265789Y-116289522D01*
X128325368Y-116119255D01*
X128345565Y-115940000D01*
X128325368Y-115760745D01*
X128265789Y-115590478D01*
X128169816Y-115437738D01*
X128042262Y-115310184D01*
X127889523Y-115214211D01*
X127719254Y-115154631D01*
X127719249Y-115154630D01*
X127540004Y-115134435D01*
X127539996Y-115134435D01*
X127360750Y-115154630D01*
X127360745Y-115154631D01*
X127190476Y-115214211D01*
X127037737Y-115310184D01*
X126910184Y-115437737D01*
X126814211Y-115590476D01*
X126754631Y-115760745D01*
X126754630Y-115760750D01*
X126734435Y-115939996D01*
X123737327Y-115939996D01*
X123740584Y-113399996D01*
X126734435Y-113399996D01*
X126734435Y-113400003D01*
X126754630Y-113579249D01*
X126754631Y-113579254D01*
X126814211Y-113749523D01*
X126902746Y-113890424D01*
X126910184Y-113902262D01*
X127037738Y-114029816D01*
X127190478Y-114125789D01*
X127360745Y-114185368D01*
X127360750Y-114185369D01*
X127539996Y-114205565D01*
X127540000Y-114205565D01*
X127540004Y-114205565D01*
X127719249Y-114185369D01*
X127719252Y-114185368D01*
X127719255Y-114185368D01*
X127889522Y-114125789D01*
X128042262Y-114029816D01*
X128169816Y-113902262D01*
X128265789Y-113749522D01*
X128325368Y-113579255D01*
X128345565Y-113400000D01*
X128338062Y-113333411D01*
X128325369Y-113220750D01*
X128325368Y-113220745D01*
X128265788Y-113050476D01*
X128169815Y-112897737D01*
X128042262Y-112770184D01*
X127930564Y-112699999D01*
X131753179Y-112699999D01*
X131753179Y-112700000D01*
X131772424Y-112919976D01*
X131772426Y-112919986D01*
X131829575Y-113133270D01*
X131829580Y-113133284D01*
X131922898Y-113333405D01*
X131922901Y-113333411D01*
X131968258Y-113398187D01*
X131968259Y-113398188D01*
X132639000Y-112727447D01*
X132639000Y-112750160D01*
X132664964Y-112847061D01*
X132715124Y-112933940D01*
X132786060Y-113004876D01*
X132872939Y-113055036D01*
X132969840Y-113081000D01*
X132992553Y-113081000D01*
X132321810Y-113751740D01*
X132386590Y-113797099D01*
X132386592Y-113797100D01*
X132586715Y-113890419D01*
X132586729Y-113890424D01*
X132800013Y-113947573D01*
X132800023Y-113947575D01*
X133019999Y-113966821D01*
X133020001Y-113966821D01*
X133239976Y-113947575D01*
X133239986Y-113947573D01*
X133453270Y-113890424D01*
X133453284Y-113890419D01*
X133653407Y-113797100D01*
X133653417Y-113797094D01*
X133718188Y-113751741D01*
X133047448Y-113081000D01*
X133070160Y-113081000D01*
X133167061Y-113055036D01*
X133253940Y-113004876D01*
X133324876Y-112933940D01*
X133375036Y-112847061D01*
X133401000Y-112750160D01*
X133401000Y-112727447D01*
X134071741Y-113398188D01*
X134117094Y-113333417D01*
X134117100Y-113333407D01*
X134210419Y-113133284D01*
X134210424Y-113133270D01*
X134267573Y-112919986D01*
X134267575Y-112919976D01*
X134286821Y-112700000D01*
X134286821Y-112699999D01*
X134267575Y-112480023D01*
X134267573Y-112480013D01*
X134210424Y-112266729D01*
X134210420Y-112266720D01*
X134117096Y-112066586D01*
X134071741Y-112001811D01*
X134071740Y-112001810D01*
X133401000Y-112672551D01*
X133401000Y-112649840D01*
X133375036Y-112552939D01*
X133324876Y-112466060D01*
X133253940Y-112395124D01*
X133167061Y-112344964D01*
X133070160Y-112319000D01*
X133047448Y-112319000D01*
X133718188Y-111648259D01*
X133718187Y-111648258D01*
X133653411Y-111602901D01*
X133653405Y-111602898D01*
X133453284Y-111509580D01*
X133453270Y-111509575D01*
X133239986Y-111452426D01*
X133239976Y-111452424D01*
X133020001Y-111433179D01*
X133019999Y-111433179D01*
X132800023Y-111452424D01*
X132800013Y-111452426D01*
X132586729Y-111509575D01*
X132586720Y-111509579D01*
X132386590Y-111602901D01*
X132321811Y-111648258D01*
X132992553Y-112319000D01*
X132969840Y-112319000D01*
X132872939Y-112344964D01*
X132786060Y-112395124D01*
X132715124Y-112466060D01*
X132664964Y-112552939D01*
X132639000Y-112649840D01*
X132639000Y-112672553D01*
X131968258Y-112001811D01*
X131922901Y-112066590D01*
X131829579Y-112266720D01*
X131829575Y-112266729D01*
X131772426Y-112480013D01*
X131772424Y-112480023D01*
X131753179Y-112699999D01*
X127930564Y-112699999D01*
X127889523Y-112674211D01*
X127719254Y-112614631D01*
X127719249Y-112614630D01*
X127540004Y-112594435D01*
X127539996Y-112594435D01*
X127360750Y-112614630D01*
X127360745Y-112614631D01*
X127190476Y-112674211D01*
X127037737Y-112770184D01*
X126910184Y-112897737D01*
X126814211Y-113050476D01*
X126754631Y-113220745D01*
X126754630Y-113220750D01*
X126734435Y-113399996D01*
X123740584Y-113399996D01*
X123751212Y-105109996D01*
X127624435Y-105109996D01*
X127624435Y-105110003D01*
X127644630Y-105289249D01*
X127644631Y-105289254D01*
X127704211Y-105459523D01*
X127800184Y-105612262D01*
X127927738Y-105739816D01*
X128080478Y-105835789D01*
X128250745Y-105895368D01*
X128250750Y-105895369D01*
X128429996Y-105915565D01*
X128430000Y-105915565D01*
X128430004Y-105915565D01*
X128609249Y-105895369D01*
X128609252Y-105895368D01*
X128609255Y-105895368D01*
X128779522Y-105835789D01*
X128932262Y-105739816D01*
X129059816Y-105612262D01*
X129155789Y-105459522D01*
X129215368Y-105289255D01*
X129235565Y-105110000D01*
X129215368Y-104930745D01*
X129155789Y-104760478D01*
X129059816Y-104607738D01*
X128932262Y-104480184D01*
X128779523Y-104384211D01*
X128609254Y-104324631D01*
X128609249Y-104324630D01*
X128430004Y-104304435D01*
X128429996Y-104304435D01*
X128250750Y-104324630D01*
X128250745Y-104324631D01*
X128080476Y-104384211D01*
X127927737Y-104480184D01*
X127800184Y-104607737D01*
X127704211Y-104760476D01*
X127644631Y-104930745D01*
X127644630Y-104930750D01*
X127624435Y-105109996D01*
X123751212Y-105109996D01*
X123764830Y-94487996D01*
X127108835Y-94487996D01*
X127108835Y-94488003D01*
X127129030Y-94667249D01*
X127129031Y-94667254D01*
X127188611Y-94837523D01*
X127284584Y-94990262D01*
X127412138Y-95117816D01*
X127564878Y-95213789D01*
X127735145Y-95273368D01*
X127735150Y-95273369D01*
X127914396Y-95293565D01*
X127914400Y-95293565D01*
X127914404Y-95293565D01*
X128093649Y-95273369D01*
X128093652Y-95273368D01*
X128093655Y-95273368D01*
X128263922Y-95213789D01*
X128416662Y-95117816D01*
X128544216Y-94990262D01*
X128640189Y-94837522D01*
X128699768Y-94667255D01*
X128719965Y-94488000D01*
X128699768Y-94308745D01*
X128640189Y-94138478D01*
X128544216Y-93985738D01*
X128416662Y-93858184D01*
X128263923Y-93762211D01*
X128093654Y-93702631D01*
X128093649Y-93702630D01*
X127914404Y-93682435D01*
X127914396Y-93682435D01*
X127735150Y-93702630D01*
X127735145Y-93702631D01*
X127564876Y-93762211D01*
X127412137Y-93858184D01*
X127284584Y-93985737D01*
X127188611Y-94138476D01*
X127129031Y-94308745D01*
X127129030Y-94308750D01*
X127108835Y-94487996D01*
X123764830Y-94487996D01*
X123769879Y-90549996D01*
X127354435Y-90549996D01*
X127354435Y-90550003D01*
X127374630Y-90729249D01*
X127374631Y-90729254D01*
X127434211Y-90899523D01*
X127530184Y-91052262D01*
X127657738Y-91179816D01*
X127810478Y-91275789D01*
X127980745Y-91335368D01*
X127980750Y-91335369D01*
X128159996Y-91355565D01*
X128160000Y-91355565D01*
X128160004Y-91355565D01*
X128339249Y-91335369D01*
X128339252Y-91335368D01*
X128339255Y-91335368D01*
X128509522Y-91275789D01*
X128662262Y-91179816D01*
X128789816Y-91052262D01*
X128885789Y-90899522D01*
X128945368Y-90729255D01*
X128965565Y-90550000D01*
X128945368Y-90370745D01*
X128885789Y-90200478D01*
X128789816Y-90047738D01*
X128662262Y-89920184D01*
X128509523Y-89824211D01*
X128339254Y-89764631D01*
X128339249Y-89764630D01*
X128160004Y-89744435D01*
X128159996Y-89744435D01*
X127980750Y-89764630D01*
X127980745Y-89764631D01*
X127810476Y-89824211D01*
X127657737Y-89920184D01*
X127530184Y-90047737D01*
X127434211Y-90200476D01*
X127374631Y-90370745D01*
X127374630Y-90370750D01*
X127354435Y-90549996D01*
X123769879Y-90549996D01*
X123775055Y-86512396D01*
X127159635Y-86512396D01*
X127159635Y-86512403D01*
X127179830Y-86691649D01*
X127179831Y-86691654D01*
X127239411Y-86861923D01*
X127335384Y-87014662D01*
X127462938Y-87142216D01*
X127615678Y-87238189D01*
X127785945Y-87297768D01*
X127785950Y-87297769D01*
X127965196Y-87317965D01*
X127965200Y-87317965D01*
X127965204Y-87317965D01*
X128144449Y-87297769D01*
X128144452Y-87297768D01*
X128144455Y-87297768D01*
X128314722Y-87238189D01*
X128467462Y-87142216D01*
X128595016Y-87014662D01*
X128690989Y-86861922D01*
X128750568Y-86691655D01*
X128750569Y-86691649D01*
X128770765Y-86512403D01*
X128770765Y-86512396D01*
X128750569Y-86333150D01*
X128750568Y-86333145D01*
X128690988Y-86162876D01*
X128651782Y-86100480D01*
X128595016Y-86010138D01*
X128467462Y-85882584D01*
X128314723Y-85786611D01*
X128144454Y-85727031D01*
X128144449Y-85727030D01*
X127965204Y-85706835D01*
X127965196Y-85706835D01*
X127785950Y-85727030D01*
X127785945Y-85727031D01*
X127615676Y-85786611D01*
X127462937Y-85882584D01*
X127335384Y-86010137D01*
X127239411Y-86162876D01*
X127179831Y-86333145D01*
X127179830Y-86333150D01*
X127159635Y-86512396D01*
X123775055Y-86512396D01*
X123780641Y-82154840D01*
X123800412Y-82087827D01*
X123853274Y-82042140D01*
X123904641Y-82031000D01*
X130006576Y-82031000D01*
X130073615Y-82050685D01*
G37*
%TD.AperFunction*%
%TD*%
M02*
