%TF.GenerationSoftware,KiCad,Pcbnew,8.0.6*%
%TF.CreationDate,2025-03-03T14:32:59-05:00*%
%TF.ProjectId,SiPM_Bias_Board,5369504d-5f42-4696-9173-5f426f617264,rev?*%
%TF.SameCoordinates,Original*%
%TF.FileFunction,Soldermask,Bot*%
%TF.FilePolarity,Negative*%
%FSLAX46Y46*%
G04 Gerber Fmt 4.6, Leading zero omitted, Abs format (unit mm)*
G04 Created by KiCad (PCBNEW 8.0.6) date 2025-03-03 14:32:59*
%MOMM*%
%LPD*%
G01*
G04 APERTURE LIST*
G04 Aperture macros list*
%AMRoundRect*
0 Rectangle with rounded corners*
0 $1 Rounding radius*
0 $2 $3 $4 $5 $6 $7 $8 $9 X,Y pos of 4 corners*
0 Add a 4 corners polygon primitive as box body*
4,1,4,$2,$3,$4,$5,$6,$7,$8,$9,$2,$3,0*
0 Add four circle primitives for the rounded corners*
1,1,$1+$1,$2,$3*
1,1,$1+$1,$4,$5*
1,1,$1+$1,$6,$7*
1,1,$1+$1,$8,$9*
0 Add four rect primitives between the rounded corners*
20,1,$1+$1,$2,$3,$4,$5,0*
20,1,$1+$1,$4,$5,$6,$7,0*
20,1,$1+$1,$6,$7,$8,$9,0*
20,1,$1+$1,$8,$9,$2,$3,0*%
G04 Aperture macros list end*
%ADD10C,6.400000*%
%ADD11R,2.200000X2.200000*%
%ADD12O,2.200000X2.200000*%
%ADD13C,2.800000*%
%ADD14C,2.006600*%
%ADD15C,2.209800*%
%ADD16C,1.295400*%
%ADD17C,2.159000*%
%ADD18C,1.524000*%
%ADD19C,2.304000*%
%ADD20C,1.839000*%
%ADD21C,4.420000*%
%ADD22C,2.400000*%
%ADD23O,2.400000X2.400000*%
%ADD24RoundRect,0.200000X-0.275000X0.200000X-0.275000X-0.200000X0.275000X-0.200000X0.275000X0.200000X0*%
%ADD25RoundRect,0.225000X0.250000X-0.225000X0.250000X0.225000X-0.250000X0.225000X-0.250000X-0.225000X0*%
%ADD26R,1.981200X0.558800*%
%ADD27RoundRect,0.225000X-0.250000X0.225000X-0.250000X-0.225000X0.250000X-0.225000X0.250000X0.225000X0*%
%ADD28RoundRect,0.200000X0.200000X0.275000X-0.200000X0.275000X-0.200000X-0.275000X0.200000X-0.275000X0*%
%ADD29RoundRect,0.200000X0.275000X-0.200000X0.275000X0.200000X-0.275000X0.200000X-0.275000X-0.200000X0*%
%ADD30RoundRect,0.200000X-0.200000X-0.275000X0.200000X-0.275000X0.200000X0.275000X-0.200000X0.275000X0*%
%ADD31RoundRect,0.225000X0.225000X0.250000X-0.225000X0.250000X-0.225000X-0.250000X0.225000X-0.250000X0*%
G04 APERTURE END LIST*
D10*
%TO.C,H4*%
X228320000Y-127580000D03*
%TD*%
D11*
%TO.C,D1*%
X229775000Y-121655000D03*
D12*
X229775000Y-111495000D03*
%TD*%
D13*
%TO.C,GND*%
X103820000Y-90060000D03*
%TD*%
%TO.C,V_{SET}*%
X90910000Y-75270000D03*
%TD*%
D10*
%TO.C,H3*%
X148320000Y-127580000D03*
%TD*%
D14*
%TO.C,P_Out*%
X235363000Y-99430000D03*
D15*
X237903000Y-96890000D03*
X232823000Y-96890000D03*
X232823000Y-101970000D03*
X237903000Y-101970000D03*
%TD*%
D10*
%TO.C,H2*%
X76320000Y-127580000D03*
%TD*%
D13*
%TO.C,V_{OUT_RTN}1*%
X231140000Y-88900000D03*
%TD*%
D16*
%TO.C,P2*%
X187740000Y-68340000D03*
X195060000Y-68340000D03*
D17*
X191410000Y-67580000D03*
%TD*%
D18*
%TO.C,U1*%
X133020000Y-117780000D03*
X133020000Y-112700000D03*
X133020000Y-107620000D03*
X133020000Y-102540000D03*
X133020000Y-97460000D03*
X133020000Y-92380000D03*
X133020000Y-87300000D03*
X214320000Y-87300000D03*
X214320000Y-89800000D03*
X214320000Y-108600000D03*
X214320000Y-111100000D03*
%TD*%
D19*
%TO.C,J2*%
X64110000Y-109480000D03*
X64110000Y-112980000D03*
X64110000Y-116480000D03*
X64110000Y-119980000D03*
%TD*%
D13*
%TO.C,V_{EN}*%
X117980000Y-100350000D03*
%TD*%
D10*
%TO.C,H6*%
X228320000Y-67580000D03*
%TD*%
D13*
%TO.C,GND*%
X80970000Y-106880000D03*
%TD*%
D10*
%TO.C,H1*%
X76320000Y-67580000D03*
%TD*%
D20*
%TO.C,J3*%
X66880000Y-89730000D03*
X66880000Y-86960000D03*
X66880000Y-84190000D03*
X66880000Y-81420000D03*
X66880000Y-78650000D03*
X64040000Y-88345000D03*
X64040000Y-85575000D03*
X64040000Y-82805000D03*
X64040000Y-80035000D03*
D21*
X65460000Y-71690000D03*
X65460000Y-96690000D03*
%TD*%
D16*
%TO.C,P1*%
X203740000Y-68340000D03*
X211060000Y-68340000D03*
D17*
X207410000Y-67580000D03*
%TD*%
D10*
%TO.C,H5*%
X148320000Y-67580000D03*
%TD*%
D22*
%TO.C,R20*%
X178340000Y-79110000D03*
D23*
X163100000Y-79110000D03*
%TD*%
D19*
%TO.C,J1*%
X97720400Y-68895600D03*
X93910400Y-68895600D03*
X90100400Y-68895600D03*
%TD*%
D13*
%TO.C,Chassis*%
X66520000Y-128550000D03*
%TD*%
D11*
%TO.C,D2*%
X235430000Y-111570000D03*
D12*
X235430000Y-121730000D03*
%TD*%
D24*
%TO.C,R19*%
X91660000Y-88175000D03*
X91660000Y-89825000D03*
%TD*%
D25*
%TO.C,C9*%
X218345000Y-100205000D03*
X218345000Y-98655000D03*
%TD*%
D26*
%TO.C,U6*%
X84166200Y-87515000D03*
X84166200Y-86245000D03*
X84166200Y-84975000D03*
X84166200Y-83705000D03*
X89093800Y-83705000D03*
X89093800Y-84975000D03*
X89093800Y-86245000D03*
X89093800Y-87515000D03*
%TD*%
D25*
%TO.C,C7*%
X214535000Y-100205000D03*
X214535000Y-98655000D03*
%TD*%
D27*
%TO.C,C6*%
X135460000Y-114300000D03*
X135460000Y-115850000D03*
%TD*%
D24*
%TO.C,R9*%
X81720000Y-86065000D03*
X81720000Y-87715000D03*
%TD*%
D25*
%TO.C,C8*%
X216440000Y-100205000D03*
X216440000Y-98655000D03*
%TD*%
D28*
%TO.C,R8*%
X81705000Y-90330000D03*
X80055000Y-90330000D03*
%TD*%
D29*
%TO.C,R27*%
X232600000Y-117235000D03*
X232600000Y-115585000D03*
%TD*%
D27*
%TO.C,C4*%
X139700000Y-114300000D03*
X139700000Y-115850000D03*
%TD*%
%TO.C,C5*%
X137570000Y-114300000D03*
X137570000Y-115850000D03*
%TD*%
D24*
%TO.C,R21*%
X159590000Y-79125000D03*
X159590000Y-80775000D03*
%TD*%
D30*
%TO.C,R23*%
X173840000Y-67760000D03*
X175490000Y-67760000D03*
%TD*%
%TO.C,R13*%
X112835000Y-107480000D03*
X114485000Y-107480000D03*
%TD*%
D28*
%TO.C,R12*%
X88325000Y-92410000D03*
X86675000Y-92410000D03*
%TD*%
D24*
%TO.C,R18*%
X91660000Y-84785000D03*
X91660000Y-86435000D03*
%TD*%
D27*
%TO.C,C17*%
X168205000Y-66145000D03*
X168205000Y-67695000D03*
%TD*%
D31*
%TO.C,C19*%
X87805000Y-80770000D03*
X86255000Y-80770000D03*
%TD*%
D24*
%TO.C,R22*%
X169885000Y-66105000D03*
X169885000Y-67755000D03*
%TD*%
D28*
%TO.C,R28*%
X119434999Y-107480001D03*
X117785001Y-107479999D03*
%TD*%
M02*
