%TF.GenerationSoftware,KiCad,Pcbnew,8.0.6*%
%TF.CreationDate,2025-03-03T14:32:59-05:00*%
%TF.ProjectId,SiPM_Bias_Board,5369504d-5f42-4696-9173-5f426f617264,rev?*%
%TF.SameCoordinates,Original*%
%TF.FileFunction,Paste,Bot*%
%TF.FilePolarity,Positive*%
%FSLAX46Y46*%
G04 Gerber Fmt 4.6, Leading zero omitted, Abs format (unit mm)*
G04 Created by KiCad (PCBNEW 8.0.6) date 2025-03-03 14:32:59*
%MOMM*%
%LPD*%
G01*
G04 APERTURE LIST*
G04 Aperture macros list*
%AMRoundRect*
0 Rectangle with rounded corners*
0 $1 Rounding radius*
0 $2 $3 $4 $5 $6 $7 $8 $9 X,Y pos of 4 corners*
0 Add a 4 corners polygon primitive as box body*
4,1,4,$2,$3,$4,$5,$6,$7,$8,$9,$2,$3,0*
0 Add four circle primitives for the rounded corners*
1,1,$1+$1,$2,$3*
1,1,$1+$1,$4,$5*
1,1,$1+$1,$6,$7*
1,1,$1+$1,$8,$9*
0 Add four rect primitives between the rounded corners*
20,1,$1+$1,$2,$3,$4,$5,0*
20,1,$1+$1,$4,$5,$6,$7,0*
20,1,$1+$1,$6,$7,$8,$9,0*
20,1,$1+$1,$8,$9,$2,$3,0*%
G04 Aperture macros list end*
%ADD10RoundRect,0.200000X-0.275000X0.200000X-0.275000X-0.200000X0.275000X-0.200000X0.275000X0.200000X0*%
%ADD11RoundRect,0.225000X0.250000X-0.225000X0.250000X0.225000X-0.250000X0.225000X-0.250000X-0.225000X0*%
%ADD12R,1.981200X0.558800*%
%ADD13RoundRect,0.225000X-0.250000X0.225000X-0.250000X-0.225000X0.250000X-0.225000X0.250000X0.225000X0*%
%ADD14RoundRect,0.200000X0.200000X0.275000X-0.200000X0.275000X-0.200000X-0.275000X0.200000X-0.275000X0*%
%ADD15RoundRect,0.200000X0.275000X-0.200000X0.275000X0.200000X-0.275000X0.200000X-0.275000X-0.200000X0*%
%ADD16RoundRect,0.200000X-0.200000X-0.275000X0.200000X-0.275000X0.200000X0.275000X-0.200000X0.275000X0*%
%ADD17RoundRect,0.225000X0.225000X0.250000X-0.225000X0.250000X-0.225000X-0.250000X0.225000X-0.250000X0*%
G04 APERTURE END LIST*
D10*
%TO.C,R19*%
X91660000Y-88175000D03*
X91660000Y-89825000D03*
%TD*%
D11*
%TO.C,C9*%
X218345000Y-100205000D03*
X218345000Y-98655000D03*
%TD*%
D12*
%TO.C,U6*%
X84166200Y-87515000D03*
X84166200Y-86245000D03*
X84166200Y-84975000D03*
X84166200Y-83705000D03*
X89093800Y-83705000D03*
X89093800Y-84975000D03*
X89093800Y-86245000D03*
X89093800Y-87515000D03*
%TD*%
D11*
%TO.C,C7*%
X214535000Y-100205000D03*
X214535000Y-98655000D03*
%TD*%
D13*
%TO.C,C6*%
X135460000Y-114300000D03*
X135460000Y-115850000D03*
%TD*%
D10*
%TO.C,R9*%
X81720000Y-86065000D03*
X81720000Y-87715000D03*
%TD*%
D11*
%TO.C,C8*%
X216440000Y-100205000D03*
X216440000Y-98655000D03*
%TD*%
D14*
%TO.C,R8*%
X81705000Y-90330000D03*
X80055000Y-90330000D03*
%TD*%
D15*
%TO.C,R27*%
X232600000Y-117235000D03*
X232600000Y-115585000D03*
%TD*%
D13*
%TO.C,C4*%
X139700000Y-114300000D03*
X139700000Y-115850000D03*
%TD*%
%TO.C,C5*%
X137570000Y-114300000D03*
X137570000Y-115850000D03*
%TD*%
D10*
%TO.C,R21*%
X159590000Y-79125000D03*
X159590000Y-80775000D03*
%TD*%
D16*
%TO.C,R23*%
X173840000Y-67760000D03*
X175490000Y-67760000D03*
%TD*%
%TO.C,R13*%
X112835000Y-107480000D03*
X114485000Y-107480000D03*
%TD*%
D14*
%TO.C,R12*%
X88325000Y-92410000D03*
X86675000Y-92410000D03*
%TD*%
D10*
%TO.C,R18*%
X91660000Y-84785000D03*
X91660000Y-86435000D03*
%TD*%
D13*
%TO.C,C17*%
X168205000Y-66145000D03*
X168205000Y-67695000D03*
%TD*%
D17*
%TO.C,C19*%
X87805000Y-80770000D03*
X86255000Y-80770000D03*
%TD*%
D10*
%TO.C,R22*%
X169885000Y-66105000D03*
X169885000Y-67755000D03*
%TD*%
D14*
%TO.C,R28*%
X119434999Y-107480001D03*
X117785001Y-107479999D03*
%TD*%
M02*
