M48
; DRILL file {KiCad 8.0.6} date 2025-03-03T14:33:02-0500
; FORMAT={-:-/ absolute / inch / decimal}
; #@! TF.CreationDate,2025-03-03T14:33:02-05:00
; #@! TF.GenerationSoftware,Kicad,Pcbnew,8.0.6
; #@! TF.FileFunction,Plated,1,6,PTH
FMAT,2
INCH
; #@! TA.AperFunction,Plated,PTH,ViaDrill
T1C0.0118
; #@! TA.AperFunction,Plated,PTH,ComponentDrill
T2C0.0300
; #@! TA.AperFunction,Plated,PTH,ComponentDrill
T3C0.0429
; #@! TA.AperFunction,Plated,PTH,ComponentDrill
T4C0.0433
; #@! TA.AperFunction,Plated,PTH,ComponentDrill
T5C0.0472
; #@! TA.AperFunction,Plated,PTH,ComponentDrill
T6C0.0551
; #@! TA.AperFunction,Plated,PTH,ComponentDrill
T7C0.0590
; #@! TA.AperFunction,Plated,PTH,ComponentDrill
T8C0.0630
; #@! TA.AperFunction,Plated,PTH,ComponentDrill
T9C0.0650
; #@! TA.AperFunction,Plated,PTH,ComponentDrill
T10C0.0670
; #@! TA.AperFunction,Plated,PTH,ComponentDrill
T11C0.1260
%
G90
G05
T1
X2.3213Y-4.1646
X2.3213Y-5.1646
X2.5213Y-4.1646
X2.5213Y-4.9646
X2.5213Y-5.1646
X2.6Y-2.6
X2.7213Y-4.1646
X2.7213Y-4.3646
X2.7213Y-4.5646
X2.7213Y-4.7646
X2.7213Y-4.9646
X2.7213Y-5.1646
X2.8Y-2.6
X2.8Y-2.8
X2.8Y-3.0
X2.8Y-3.8
X2.8Y-3.9
X2.8Y-4.0
X2.9213Y-4.1646
X2.9213Y-4.3646
X2.9213Y-4.7646
X2.9575Y-3.3512
X3.0Y-3.0
X3.0Y-3.8
X3.0Y-3.9
X3.0Y-4.0
X3.0189Y-3.3508
X3.1213Y-2.9646
X3.1213Y-4.3646
X3.1862Y-4.9256
X3.2Y-2.8
X3.2Y-3.9
X3.2Y-4.0
X3.2213Y-5.1646
X3.2831Y-3.2492
X3.3059Y-2.9335
X3.3213Y-4.9646
X3.326Y-3.1799
X3.4Y-2.8
X3.4Y-3.9
X3.4Y-4.0
X3.4213Y-4.8646
X3.4213Y-5.1646
X3.4957Y-3.5571
X3.5213Y-4.1646
X3.5276Y-3.4894
X3.539Y-3.1535
X3.6Y-2.8
X3.6Y-3.9
X3.6Y-4.0
X3.6213Y-4.8646
X3.6213Y-5.1646
X3.6858Y-3.1913
X3.6929Y-3.4894
X3.7213Y-4.1646
X3.8Y-3.5
X3.8Y-3.9
X3.8Y-4.0
X3.8213Y-4.8646
X3.8213Y-5.1646
X3.8472Y-3.0417
X3.985Y-4.8193
X3.9921Y-4.2157
X4.0Y-2.6
X4.0Y-2.8
X4.0Y-3.9
X4.0Y-4.0
X4.0213Y-5.1646
X4.1445Y-4.8197
X4.1484Y-4.2165
X4.2Y-2.6
X4.2Y-2.8
X4.2Y-3.3
X4.2Y-3.7
X4.2Y-4.0
X4.2213Y-5.1646
X4.2713Y-3.1896
X4.3213Y-4.1646
X4.3636Y-3.1471
X4.3906Y-4.2315
X4.4Y-2.6
X4.4Y-2.8
X4.4Y-3.3
X4.4Y-3.5
X4.4Y-3.7
X4.4213Y-5.1646
X4.5122Y-3.9465
X4.5122Y-4.1303
X4.6Y-2.6
X4.6Y-2.8
X4.6Y-3.5
X4.6213Y-4.7646
X4.6213Y-4.8646
X4.6213Y-5.1646
X4.6993Y-3.7726
X4.7Y-3.0
X4.7Y-3.3
X4.7575Y-3.8386
X4.8Y-2.6
X4.8Y-2.8
X4.8Y-2.9
X4.8Y-3.0
X4.8213Y-4.8646
X4.8213Y-5.1646
X4.9331Y-4.0665
X4.97Y-3.3
X5.0Y-2.6
X5.0Y-2.8
X5.0213Y-4.4646
X5.0213Y-4.5646
X5.0213Y-4.6646
X5.0213Y-4.8646
X5.0213Y-5.1646
X5.036Y-3.72
X5.038Y-3.406
X5.0457Y-3.565
X5.0563Y-4.1382
X5.2Y-2.6
X5.2Y-2.8
X5.2213Y-4.8646
X5.2213Y-5.1646
X5.4Y-2.6
X5.4Y-2.8
X5.4213Y-4.8646
X5.4213Y-5.1646
X5.6Y-2.6
X5.6Y-2.8
X5.6213Y-4.8646
X5.6213Y-5.1646
X6.0213Y-4.8646
X6.0213Y-5.1646
X6.1Y-2.6
X6.1Y-2.8
X6.2083Y-3.1799
X6.2213Y-4.8646
X6.2213Y-5.1646
X6.3Y-2.6
X6.3Y-2.8
X6.4213Y-4.8646
X6.4213Y-5.1646
X6.5Y-2.6
X6.5Y-2.8
X6.5435Y-2.4969
X6.6213Y-4.8646
X6.6213Y-5.1646
X6.649Y-2.5394
X6.6498Y-2.7421
X6.6868Y-2.7575
X6.714Y-2.5311
X6.7179Y-2.8217
X6.8213Y-2.4646
X6.8213Y-2.5646
X6.8213Y-2.7646
X6.8213Y-2.8646
X6.8213Y-4.8646
X6.8213Y-5.1646
X6.9144Y-2.7693
X6.9213Y-2.4646
X6.9213Y-2.5646
X6.9213Y-2.8646
X6.9636Y-2.6677
X7.0213Y-2.8646
X7.0213Y-4.8646
X7.0213Y-5.1646
X7.1213Y-2.5646
X7.1213Y-2.8646
X7.1555Y-2.6696
X7.2213Y-2.5646
X7.2213Y-2.7646
X7.2213Y-2.8646
X7.2213Y-3.0646
X7.2213Y-4.8646
X7.2213Y-5.1646
X7.3213Y-2.5646
X7.3213Y-2.8646
X7.4213Y-2.8646
X7.4213Y-3.0646
X7.4213Y-4.8646
X7.4213Y-5.1646
X7.5213Y-2.8646
X7.6213Y-2.8646
X7.6213Y-3.0646
X7.6213Y-4.8646
X7.6213Y-5.1646
X7.7213Y-2.8646
X7.8213Y-2.4646
X7.8213Y-2.6646
X7.8213Y-2.8646
X7.8213Y-3.0646
X7.8213Y-4.8646
X7.8213Y-5.1646
X7.9213Y-2.4646
X7.9213Y-2.6646
X7.9213Y-2.8646
X8.0213Y-2.8646
X8.0213Y-3.0646
X8.0213Y-4.8646
X8.0213Y-5.1646
X8.1213Y-2.8646
X8.1832Y-4.8891
X8.2213Y-2.8646
X8.2213Y-3.0646
X8.2213Y-5.1646
X8.3213Y-2.8646
X8.4213Y-2.4646
X8.4213Y-2.5646
X8.4213Y-2.6646
X8.4213Y-2.7646
X8.4213Y-2.8646
X8.4213Y-3.0646
X8.4213Y-5.1646
X8.4343Y-4.8894
X8.6213Y-3.0646
X8.6213Y-4.8646
X8.6213Y-5.1646
X8.8213Y-3.0646
X8.8213Y-5.1646
X9.0213Y-3.0646
X9.0213Y-3.7646
X9.0213Y-3.9646
X9.0213Y-4.1646
X9.2213Y-4.9646
X9.2213Y-5.1646
T2
X5.237Y-3.437
X5.237Y-3.637
X5.237Y-3.837
X5.237Y-4.037
X5.237Y-4.237
X5.237Y-4.437
X5.237Y-4.637
X8.4378Y-3.437
X8.4378Y-3.5354
X8.4378Y-4.2756
X8.4378Y-4.374
T3
X2.5213Y-3.151
X2.5213Y-3.26
X2.5213Y-3.3691
X2.5213Y-3.4781
X2.6331Y-3.0965
X2.6331Y-3.2055
X2.6331Y-3.3146
X2.6331Y-3.4236
X2.6331Y-3.5327
T4
X9.0463Y-4.3896
X9.0463Y-4.7896
X9.2689Y-4.3925
X9.2689Y-4.7925
T5
X6.4213Y-3.1146
X7.0213Y-3.1146
T6
X2.524Y-4.3102
X2.524Y-4.448
X2.524Y-4.5858
X2.524Y-4.7236
X3.5473Y-2.7124
X3.6973Y-2.7124
X3.8473Y-2.7124
T7
X9.2663Y-3.9146
T8
X2.6189Y-5.061
X3.1878Y-4.2079
X3.5791Y-2.9634
X4.0874Y-3.5457
X4.6449Y-3.9508
X9.1Y-3.5
T9
X7.5358Y-2.6606
X8.1657Y-2.6606
T10
X9.1663Y-3.8146
X9.1663Y-4.0146
X9.3663Y-3.8146
X9.3663Y-4.0146
T11
X2.5772Y-2.8224
X2.5772Y-3.8067
X3.0047Y-2.6606
X3.0047Y-5.0228
X5.8394Y-2.6606
X5.8394Y-5.0228
X8.989Y-2.6606
X8.989Y-5.0228
M30
