%TF.GenerationSoftware,KiCad,Pcbnew,8.0.6*%
%TF.CreationDate,2025-03-03T14:32:59-05:00*%
%TF.ProjectId,SiPM_Bias_Board,5369504d-5f42-4696-9173-5f426f617264,rev?*%
%TF.SameCoordinates,Original*%
%TF.FileFunction,Soldermask,Top*%
%TF.FilePolarity,Negative*%
%FSLAX46Y46*%
G04 Gerber Fmt 4.6, Leading zero omitted, Abs format (unit mm)*
G04 Created by KiCad (PCBNEW 8.0.6) date 2025-03-03 14:32:59*
%MOMM*%
%LPD*%
G01*
G04 APERTURE LIST*
G04 Aperture macros list*
%AMRoundRect*
0 Rectangle with rounded corners*
0 $1 Rounding radius*
0 $2 $3 $4 $5 $6 $7 $8 $9 X,Y pos of 4 corners*
0 Add a 4 corners polygon primitive as box body*
4,1,4,$2,$3,$4,$5,$6,$7,$8,$9,$2,$3,0*
0 Add four circle primitives for the rounded corners*
1,1,$1+$1,$2,$3*
1,1,$1+$1,$4,$5*
1,1,$1+$1,$6,$7*
1,1,$1+$1,$8,$9*
0 Add four rect primitives between the rounded corners*
20,1,$1+$1,$2,$3,$4,$5,0*
20,1,$1+$1,$4,$5,$6,$7,0*
20,1,$1+$1,$6,$7,$8,$9,0*
20,1,$1+$1,$8,$9,$2,$3,0*%
G04 Aperture macros list end*
%ADD10RoundRect,0.200000X0.200000X0.275000X-0.200000X0.275000X-0.200000X-0.275000X0.200000X-0.275000X0*%
%ADD11RoundRect,0.225000X0.250000X-0.225000X0.250000X0.225000X-0.250000X0.225000X-0.250000X-0.225000X0*%
%ADD12C,6.400000*%
%ADD13RoundRect,0.225000X0.225000X0.250000X-0.225000X0.250000X-0.225000X-0.250000X0.225000X-0.250000X0*%
%ADD14RoundRect,0.225000X-0.225000X-0.250000X0.225000X-0.250000X0.225000X0.250000X-0.225000X0.250000X0*%
%ADD15RoundRect,0.200000X-0.275000X0.200000X-0.275000X-0.200000X0.275000X-0.200000X0.275000X0.200000X0*%
%ADD16RoundRect,0.200000X-0.200000X-0.275000X0.200000X-0.275000X0.200000X0.275000X-0.200000X0.275000X0*%
%ADD17RoundRect,0.250000X-1.025000X0.787500X-1.025000X-0.787500X1.025000X-0.787500X1.025000X0.787500X0*%
%ADD18R,2.200000X2.200000*%
%ADD19O,2.200000X2.200000*%
%ADD20RoundRect,0.200000X0.275000X-0.200000X0.275000X0.200000X-0.275000X0.200000X-0.275000X-0.200000X0*%
%ADD21C,2.800000*%
%ADD22C,2.006600*%
%ADD23C,2.209800*%
%ADD24RoundRect,0.250000X-0.650000X0.325000X-0.650000X-0.325000X0.650000X-0.325000X0.650000X0.325000X0*%
%ADD25RoundRect,0.250000X-0.275000X0.312500X-0.275000X-0.312500X0.275000X-0.312500X0.275000X0.312500X0*%
%ADD26R,0.889000X1.016000*%
%ADD27R,3.200000X1.000000*%
%ADD28C,1.295400*%
%ADD29C,2.159000*%
%ADD30C,1.524000*%
%ADD31RoundRect,0.250000X0.450000X0.425000X-0.450000X0.425000X-0.450000X-0.425000X0.450000X-0.425000X0*%
%ADD32RoundRect,0.020000X2.680000X-0.980000X2.680000X0.980000X-2.680000X0.980000X-2.680000X-0.980000X0*%
%ADD33R,5.400000X2.000000*%
%ADD34C,2.304000*%
%ADD35R,0.350800X1.161200*%
%ADD36RoundRect,0.250000X0.650000X-0.325000X0.650000X0.325000X-0.650000X0.325000X-0.650000X-0.325000X0*%
%ADD37RoundRect,0.237500X-0.250000X-0.237500X0.250000X-0.237500X0.250000X0.237500X-0.250000X0.237500X0*%
%ADD38C,1.839000*%
%ADD39C,4.420000*%
%ADD40R,0.457200X1.219200*%
%ADD41O,0.457200X1.219200*%
%ADD42R,1.219200X0.457200*%
%ADD43O,1.219200X0.457200*%
%ADD44C,2.400000*%
%ADD45O,2.400000X2.400000*%
%ADD46RoundRect,0.225000X-0.250000X0.225000X-0.250000X-0.225000X0.250000X-0.225000X0.250000X0.225000X0*%
%ADD47R,1.651000X0.558800*%
%ADD48R,0.558800X1.473200*%
G04 APERTURE END LIST*
D10*
%TO.C,R25*%
X179355000Y-70860000D03*
X177705000Y-70860000D03*
%TD*%
D11*
%TO.C,C18*%
X112950000Y-103725000D03*
X112950000Y-102175000D03*
%TD*%
D12*
%TO.C,H4*%
X228320000Y-127580000D03*
%TD*%
D13*
%TO.C,C10*%
X212135000Y-124195000D03*
X210585000Y-124195000D03*
%TD*%
D14*
%TO.C,C11*%
X90745000Y-88630000D03*
X92295000Y-88630000D03*
%TD*%
D15*
%TO.C,R6*%
X123990000Y-120845000D03*
X123990000Y-122495000D03*
%TD*%
D16*
%TO.C,R1*%
X110408200Y-95823200D03*
X112058200Y-95823200D03*
%TD*%
D17*
%TO.C,C1*%
X80940000Y-116437500D03*
X80940000Y-122662500D03*
%TD*%
D18*
%TO.C,D1*%
X229775000Y-121655000D03*
D19*
X229775000Y-111495000D03*
%TD*%
D20*
%TO.C,R7*%
X126230000Y-94485000D03*
X126230000Y-92835000D03*
%TD*%
D21*
%TO.C,GND*%
X103820000Y-90060000D03*
%TD*%
D13*
%TO.C,C16*%
X168900000Y-63420000D03*
X167350000Y-63420000D03*
%TD*%
D21*
%TO.C,V_{SET}*%
X90910000Y-75270000D03*
%TD*%
D17*
%TO.C,C3*%
X123980000Y-111675000D03*
X123980000Y-117900000D03*
%TD*%
D12*
%TO.C,H3*%
X148320000Y-127580000D03*
%TD*%
D22*
%TO.C,P_Out*%
X235363000Y-99430000D03*
D23*
X237903000Y-96890000D03*
X232823000Y-96890000D03*
X232823000Y-101970000D03*
X237903000Y-101970000D03*
%TD*%
D15*
%TO.C,R3*%
X116745000Y-72570000D03*
X116745000Y-74220000D03*
%TD*%
D24*
%TO.C,CY2*%
X105270000Y-117775000D03*
X105270000Y-120725000D03*
%TD*%
D12*
%TO.C,H2*%
X76320000Y-127580000D03*
%TD*%
D21*
%TO.C,V_{OUT_RTN}1*%
X231140000Y-88900000D03*
%TD*%
D25*
%TO.C,C14*%
X97720400Y-74129350D03*
X97720400Y-75904350D03*
%TD*%
D16*
%TO.C,R5*%
X125435000Y-101570000D03*
X127085000Y-101570000D03*
%TD*%
D26*
%TO.C,U4*%
X105746800Y-74064350D03*
X103435400Y-74064350D03*
X101124000Y-74064350D03*
D27*
X103435400Y-81056850D03*
%TD*%
D28*
%TO.C,P2*%
X187740000Y-68340000D03*
X195060000Y-68340000D03*
D29*
X191410000Y-67580000D03*
%TD*%
D30*
%TO.C,U1*%
X133020000Y-117780000D03*
X133020000Y-112700000D03*
X133020000Y-107620000D03*
X133020000Y-102540000D03*
X133020000Y-97460000D03*
X133020000Y-92380000D03*
X133020000Y-87300000D03*
X214320000Y-87300000D03*
X214320000Y-89800000D03*
X214320000Y-108600000D03*
X214320000Y-111100000D03*
%TD*%
D16*
%TO.C,R15*%
X85285000Y-76220000D03*
X86935000Y-76220000D03*
%TD*%
D31*
%TO.C,C12*%
X97890000Y-81060000D03*
X95190000Y-81060000D03*
%TD*%
D32*
%TO.C,L1*%
X87540000Y-112940000D03*
X87540000Y-116440000D03*
X95160000Y-116440000D03*
D33*
X95160000Y-112940000D03*
%TD*%
D34*
%TO.C,J2*%
X64110000Y-109480000D03*
X64110000Y-112980000D03*
X64110000Y-116480000D03*
X64110000Y-119980000D03*
%TD*%
D10*
%TO.C,R14*%
X86925000Y-77980000D03*
X85275000Y-77980000D03*
%TD*%
D20*
%TO.C,R11*%
X114610000Y-103750000D03*
X114610000Y-102100000D03*
%TD*%
D21*
%TO.C,V_{EN}*%
X117980000Y-100350000D03*
%TD*%
D12*
%TO.C,H6*%
X228320000Y-67580000D03*
%TD*%
D21*
%TO.C,GND*%
X80970000Y-106880000D03*
%TD*%
D16*
%TO.C,R2*%
X116656600Y-95823200D03*
X118306600Y-95823200D03*
%TD*%
D35*
%TO.C,M2*%
X126580000Y-105110000D03*
X127579998Y-105110000D03*
X127079999Y-103760000D03*
%TD*%
%TO.C,M3*%
X178815001Y-65750000D03*
X179814999Y-65750000D03*
X179315000Y-64400000D03*
%TD*%
D36*
%TO.C,CY3*%
X101370000Y-111590000D03*
X101370000Y-108640000D03*
%TD*%
D15*
%TO.C,R16*%
X109975400Y-76731850D03*
X109975400Y-78381850D03*
%TD*%
D12*
%TO.C,H1*%
X76320000Y-67580000D03*
%TD*%
D36*
%TO.C,CY1*%
X105350000Y-111585000D03*
X105350000Y-108635000D03*
%TD*%
D17*
%TO.C,C2*%
X116700000Y-111637500D03*
X116700000Y-117862500D03*
%TD*%
D37*
%TO.C,L2*%
X108995000Y-111590000D03*
X110820000Y-111590000D03*
%TD*%
D38*
%TO.C,J3*%
X66880000Y-89730000D03*
X66880000Y-86960000D03*
X66880000Y-84190000D03*
X66880000Y-81420000D03*
X66880000Y-78650000D03*
X64040000Y-88345000D03*
X64040000Y-85575000D03*
X64040000Y-82805000D03*
X64040000Y-80035000D03*
D39*
X65460000Y-71690000D03*
X65460000Y-96690000D03*
%TD*%
D40*
%TO.C,U5*%
X168894999Y-68340000D03*
D41*
X169845000Y-68340000D03*
X170795001Y-68340000D03*
X170795001Y-65720000D03*
X168894999Y-65720000D03*
%TD*%
D35*
%TO.C,M1*%
X117032401Y-93617200D03*
X118032399Y-93617200D03*
X117532400Y-92267200D03*
%TD*%
D42*
%TO.C,U7*%
X85720000Y-79819999D03*
D43*
X85720000Y-80770000D03*
X85720000Y-81720001D03*
X88340000Y-81720001D03*
X88340000Y-79819999D03*
%TD*%
D10*
%TO.C,R26*%
X110235000Y-82490000D03*
X108585000Y-82490000D03*
%TD*%
D28*
%TO.C,P1*%
X203740000Y-68340000D03*
X211060000Y-68340000D03*
D29*
X207410000Y-67580000D03*
%TD*%
D13*
%TO.C,C15*%
X76675000Y-83960000D03*
X75125000Y-83960000D03*
%TD*%
D15*
%TO.C,R17*%
X76435200Y-91235000D03*
X76435200Y-92885000D03*
%TD*%
D12*
%TO.C,H5*%
X148320000Y-67580000D03*
%TD*%
D24*
%TO.C,CY4*%
X101210000Y-117805000D03*
X101210000Y-120755000D03*
%TD*%
D10*
%TO.C,R24*%
X180170000Y-67740000D03*
X178520000Y-67740000D03*
%TD*%
D44*
%TO.C,R20*%
X178340000Y-79110000D03*
D45*
X163100000Y-79110000D03*
%TD*%
D37*
%TO.C,L3*%
X109075000Y-117850000D03*
X110900000Y-117850000D03*
%TD*%
D34*
%TO.C,J1*%
X97720400Y-68895600D03*
X93910400Y-68895600D03*
X90100400Y-68895600D03*
%TD*%
D46*
%TO.C,C13*%
X111690400Y-76781850D03*
X111690400Y-78331850D03*
%TD*%
D47*
%TO.C,Q1*%
X119970800Y-89270000D03*
X119970800Y-90540000D03*
X126219200Y-90540000D03*
X126219200Y-89270000D03*
%TD*%
D16*
%TO.C,R10*%
X85275000Y-74510000D03*
X86925000Y-74510000D03*
%TD*%
D48*
%TO.C,U3*%
X76420001Y-86704600D03*
X75470000Y-86704600D03*
X74519999Y-86704600D03*
X74519999Y-89092200D03*
X76420001Y-89092200D03*
%TD*%
D16*
%TO.C,F1*%
X73575000Y-116470000D03*
X75225000Y-116470000D03*
%TD*%
D21*
%TO.C,Chassis*%
X66520000Y-128550000D03*
%TD*%
D15*
%TO.C,R4*%
X126238000Y-84874600D03*
X126238000Y-86524600D03*
%TD*%
D18*
%TO.C,D2*%
X235430000Y-111570000D03*
D19*
X235430000Y-121730000D03*
%TD*%
M02*
