%TF.GenerationSoftware,KiCad,Pcbnew,8.0.6*%
%TF.CreationDate,2025-03-03T14:33:04-05:00*%
%TF.ProjectId,SiPM_Bias_Board,5369504d-5f42-4696-9173-5f426f617264,rev?*%
%TF.SameCoordinates,Original*%
%TF.FileFunction,Drillmap*%
%TF.FilePolarity,Positive*%
%FSLAX45Y45*%
G04 Gerber Fmt 4.5, Leading zero omitted, Abs format (unit mm)*
G04 Created by KiCad (PCBNEW 8.0.6) date 2025-03-03 14:33:04*
%MOMM*%
%LPD*%
G01*
G04 APERTURE LIST*
%ADD10C,0.050000*%
%ADD11C,0.200000*%
%ADD12C,0.129540*%
%ADD13C,0.100000*%
G04 APERTURE END LIST*
D10*
X23993500Y-6196500D02*
X23993500Y-13245000D01*
X23865599Y-13371228D02*
X5769000Y-13372000D01*
X5578500Y-6260000D02*
X5578500Y-13181500D01*
X5769000Y-13372000D02*
G75*
G02*
X5578500Y-13181500I0J190500D01*
G01*
X5578500Y-6260000D02*
G75*
G02*
X5769017Y-6071235I192380J-3640D01*
G01*
X23993500Y-13245000D02*
G75*
G02*
X23865599Y-13371228I-127660J1440D01*
G01*
X5769017Y-6071235D02*
X23865597Y-6070403D01*
X23865597Y-6070403D02*
G75*
G02*
X23992983Y-6196524I-4837J-132277D01*
G01*
D11*
D12*
X18709230Y-6769230D02*
X18838770Y-6898770D01*
X18838770Y-6769230D02*
X18709230Y-6898770D01*
D13*
X18709230Y-6698770D02*
X18709230Y-6969230D01*
X18838770Y-6969230D02*
G75*
G02*
X18709230Y-6969230I-64770J0D01*
G01*
X18838770Y-6969230D02*
X18838770Y-6698770D01*
X18838770Y-6698770D02*
G75*
G03*
X18709230Y-6698770I-64770J0D01*
G01*
D12*
X19441230Y-6769230D02*
X19570770Y-6898770D01*
X19570770Y-6769230D02*
X19441230Y-6898770D01*
D13*
X19441230Y-6698770D02*
X19441230Y-6969230D01*
X19570770Y-6969230D02*
G75*
G02*
X19441230Y-6969230I-64770J0D01*
G01*
X19570770Y-6969230D02*
X19570770Y-6698770D01*
X19570770Y-6698770D02*
G75*
G03*
X19441230Y-6698770I-64770J0D01*
G01*
D12*
X20309230Y-6769230D02*
X20438770Y-6898770D01*
X20438770Y-6769230D02*
X20309230Y-6898770D01*
D13*
X20309230Y-6698770D02*
X20309230Y-6969230D01*
X20438770Y-6969230D02*
G75*
G02*
X20309230Y-6969230I-64770J0D01*
G01*
X20438770Y-6969230D02*
X20438770Y-6698770D01*
X20438770Y-6698770D02*
G75*
G03*
X20309230Y-6698770I-64770J0D01*
G01*
D12*
X21041230Y-6769230D02*
X21170770Y-6898770D01*
X21170770Y-6769230D02*
X21041230Y-6898770D01*
D13*
X21041230Y-6698770D02*
X21041230Y-6969230D01*
X21170770Y-6969230D02*
G75*
G02*
X21041230Y-6969230I-64770J0D01*
G01*
X21170770Y-6969230D02*
X21170770Y-6698770D01*
X21170770Y-6698770D02*
G75*
G03*
X21041230Y-6698770I-64770J0D01*
G01*
D11*
X5836777Y-13685984D02*
X5836777Y-13485984D01*
X5836777Y-13485984D02*
X5884396Y-13485984D01*
X5884396Y-13485984D02*
X5912967Y-13495508D01*
X5912967Y-13495508D02*
X5932015Y-13514555D01*
X5932015Y-13514555D02*
X5941539Y-13533603D01*
X5941539Y-13533603D02*
X5951062Y-13571698D01*
X5951062Y-13571698D02*
X5951062Y-13600269D01*
X5951062Y-13600269D02*
X5941539Y-13638365D01*
X5941539Y-13638365D02*
X5932015Y-13657412D01*
X5932015Y-13657412D02*
X5912967Y-13676460D01*
X5912967Y-13676460D02*
X5884396Y-13685984D01*
X5884396Y-13685984D02*
X5836777Y-13685984D01*
X6036777Y-13685984D02*
X6036777Y-13552650D01*
X6036777Y-13590746D02*
X6046301Y-13571698D01*
X6046301Y-13571698D02*
X6055824Y-13562174D01*
X6055824Y-13562174D02*
X6074872Y-13552650D01*
X6074872Y-13552650D02*
X6093920Y-13552650D01*
X6160586Y-13685984D02*
X6160586Y-13552650D01*
X6160586Y-13485984D02*
X6151062Y-13495508D01*
X6151062Y-13495508D02*
X6160586Y-13505031D01*
X6160586Y-13505031D02*
X6170110Y-13495508D01*
X6170110Y-13495508D02*
X6160586Y-13485984D01*
X6160586Y-13485984D02*
X6160586Y-13505031D01*
X6284396Y-13685984D02*
X6265348Y-13676460D01*
X6265348Y-13676460D02*
X6255824Y-13657412D01*
X6255824Y-13657412D02*
X6255824Y-13485984D01*
X6389158Y-13685984D02*
X6370110Y-13676460D01*
X6370110Y-13676460D02*
X6360586Y-13657412D01*
X6360586Y-13657412D02*
X6360586Y-13485984D01*
X6617729Y-13685984D02*
X6617729Y-13485984D01*
X6617729Y-13485984D02*
X6684396Y-13628841D01*
X6684396Y-13628841D02*
X6751062Y-13485984D01*
X6751062Y-13485984D02*
X6751062Y-13685984D01*
X6932015Y-13685984D02*
X6932015Y-13581222D01*
X6932015Y-13581222D02*
X6922491Y-13562174D01*
X6922491Y-13562174D02*
X6903443Y-13552650D01*
X6903443Y-13552650D02*
X6865348Y-13552650D01*
X6865348Y-13552650D02*
X6846301Y-13562174D01*
X6932015Y-13676460D02*
X6912967Y-13685984D01*
X6912967Y-13685984D02*
X6865348Y-13685984D01*
X6865348Y-13685984D02*
X6846301Y-13676460D01*
X6846301Y-13676460D02*
X6836777Y-13657412D01*
X6836777Y-13657412D02*
X6836777Y-13638365D01*
X6836777Y-13638365D02*
X6846301Y-13619317D01*
X6846301Y-13619317D02*
X6865348Y-13609793D01*
X6865348Y-13609793D02*
X6912967Y-13609793D01*
X6912967Y-13609793D02*
X6932015Y-13600269D01*
X7027253Y-13552650D02*
X7027253Y-13752650D01*
X7027253Y-13562174D02*
X7046301Y-13552650D01*
X7046301Y-13552650D02*
X7084396Y-13552650D01*
X7084396Y-13552650D02*
X7103443Y-13562174D01*
X7103443Y-13562174D02*
X7112967Y-13571698D01*
X7112967Y-13571698D02*
X7122491Y-13590746D01*
X7122491Y-13590746D02*
X7122491Y-13647888D01*
X7122491Y-13647888D02*
X7112967Y-13666936D01*
X7112967Y-13666936D02*
X7103443Y-13676460D01*
X7103443Y-13676460D02*
X7084396Y-13685984D01*
X7084396Y-13685984D02*
X7046301Y-13685984D01*
X7046301Y-13685984D02*
X7027253Y-13676460D01*
X7208205Y-13666936D02*
X7217729Y-13676460D01*
X7217729Y-13676460D02*
X7208205Y-13685984D01*
X7208205Y-13685984D02*
X7198682Y-13676460D01*
X7198682Y-13676460D02*
X7208205Y-13666936D01*
X7208205Y-13666936D02*
X7208205Y-13685984D01*
X7208205Y-13562174D02*
X7217729Y-13571698D01*
X7217729Y-13571698D02*
X7208205Y-13581222D01*
X7208205Y-13581222D02*
X7198682Y-13571698D01*
X7198682Y-13571698D02*
X7208205Y-13562174D01*
X7208205Y-13562174D02*
X7208205Y-13581222D01*
D12*
X5446460Y-13949730D02*
X5576000Y-14079270D01*
X5576000Y-13949730D02*
X5446460Y-14079270D01*
D11*
X5941539Y-14105984D02*
X5827253Y-14105984D01*
X5884396Y-14105984D02*
X5884396Y-13905984D01*
X5884396Y-13905984D02*
X5865348Y-13934555D01*
X5865348Y-13934555D02*
X5846301Y-13953603D01*
X5846301Y-13953603D02*
X5827253Y-13963127D01*
X6027253Y-14086936D02*
X6036777Y-14096460D01*
X6036777Y-14096460D02*
X6027253Y-14105984D01*
X6027253Y-14105984D02*
X6017729Y-14096460D01*
X6017729Y-14096460D02*
X6027253Y-14086936D01*
X6027253Y-14086936D02*
X6027253Y-14105984D01*
X6112967Y-13925031D02*
X6122491Y-13915508D01*
X6122491Y-13915508D02*
X6141539Y-13905984D01*
X6141539Y-13905984D02*
X6189158Y-13905984D01*
X6189158Y-13905984D02*
X6208205Y-13915508D01*
X6208205Y-13915508D02*
X6217729Y-13925031D01*
X6217729Y-13925031D02*
X6227253Y-13944079D01*
X6227253Y-13944079D02*
X6227253Y-13963127D01*
X6227253Y-13963127D02*
X6217729Y-13991698D01*
X6217729Y-13991698D02*
X6103443Y-14105984D01*
X6103443Y-14105984D02*
X6227253Y-14105984D01*
X6322491Y-14105984D02*
X6360586Y-14105984D01*
X6360586Y-14105984D02*
X6379634Y-14096460D01*
X6379634Y-14096460D02*
X6389158Y-14086936D01*
X6389158Y-14086936D02*
X6408205Y-14058365D01*
X6408205Y-14058365D02*
X6417729Y-14020269D01*
X6417729Y-14020269D02*
X6417729Y-13944079D01*
X6417729Y-13944079D02*
X6408205Y-13925031D01*
X6408205Y-13925031D02*
X6398682Y-13915508D01*
X6398682Y-13915508D02*
X6379634Y-13905984D01*
X6379634Y-13905984D02*
X6341539Y-13905984D01*
X6341539Y-13905984D02*
X6322491Y-13915508D01*
X6322491Y-13915508D02*
X6312967Y-13925031D01*
X6312967Y-13925031D02*
X6303443Y-13944079D01*
X6303443Y-13944079D02*
X6303443Y-13991698D01*
X6303443Y-13991698D02*
X6312967Y-14010746D01*
X6312967Y-14010746D02*
X6322491Y-14020269D01*
X6322491Y-14020269D02*
X6341539Y-14029793D01*
X6341539Y-14029793D02*
X6379634Y-14029793D01*
X6379634Y-14029793D02*
X6398682Y-14020269D01*
X6398682Y-14020269D02*
X6408205Y-14010746D01*
X6408205Y-14010746D02*
X6417729Y-13991698D01*
X6598682Y-13905984D02*
X6503443Y-13905984D01*
X6503443Y-13905984D02*
X6493920Y-14001222D01*
X6493920Y-14001222D02*
X6503443Y-13991698D01*
X6503443Y-13991698D02*
X6522491Y-13982174D01*
X6522491Y-13982174D02*
X6570110Y-13982174D01*
X6570110Y-13982174D02*
X6589158Y-13991698D01*
X6589158Y-13991698D02*
X6598682Y-14001222D01*
X6598682Y-14001222D02*
X6608205Y-14020269D01*
X6608205Y-14020269D02*
X6608205Y-14067888D01*
X6608205Y-14067888D02*
X6598682Y-14086936D01*
X6598682Y-14086936D02*
X6589158Y-14096460D01*
X6589158Y-14096460D02*
X6570110Y-14105984D01*
X6570110Y-14105984D02*
X6522491Y-14105984D01*
X6522491Y-14105984D02*
X6503443Y-14096460D01*
X6503443Y-14096460D02*
X6493920Y-14086936D01*
X6693920Y-14105984D02*
X6693920Y-13972650D01*
X6693920Y-13991698D02*
X6703443Y-13982174D01*
X6703443Y-13982174D02*
X6722491Y-13972650D01*
X6722491Y-13972650D02*
X6751063Y-13972650D01*
X6751063Y-13972650D02*
X6770110Y-13982174D01*
X6770110Y-13982174D02*
X6779634Y-14001222D01*
X6779634Y-14001222D02*
X6779634Y-14105984D01*
X6779634Y-14001222D02*
X6789158Y-13982174D01*
X6789158Y-13982174D02*
X6808205Y-13972650D01*
X6808205Y-13972650D02*
X6836777Y-13972650D01*
X6836777Y-13972650D02*
X6855824Y-13982174D01*
X6855824Y-13982174D02*
X6865348Y-14001222D01*
X6865348Y-14001222D02*
X6865348Y-14105984D01*
X6960586Y-14105984D02*
X6960586Y-13972650D01*
X6960586Y-13991698D02*
X6970110Y-13982174D01*
X6970110Y-13982174D02*
X6989158Y-13972650D01*
X6989158Y-13972650D02*
X7017729Y-13972650D01*
X7017729Y-13972650D02*
X7036777Y-13982174D01*
X7036777Y-13982174D02*
X7046301Y-14001222D01*
X7046301Y-14001222D02*
X7046301Y-14105984D01*
X7046301Y-14001222D02*
X7055824Y-13982174D01*
X7055824Y-13982174D02*
X7074872Y-13972650D01*
X7074872Y-13972650D02*
X7103443Y-13972650D01*
X7103443Y-13972650D02*
X7122491Y-13982174D01*
X7122491Y-13982174D02*
X7132015Y-14001222D01*
X7132015Y-14001222D02*
X7132015Y-14105984D01*
X7522491Y-13896460D02*
X7351063Y-14153603D01*
X7779634Y-13905984D02*
X7798682Y-13905984D01*
X7798682Y-13905984D02*
X7817729Y-13915508D01*
X7817729Y-13915508D02*
X7827253Y-13925031D01*
X7827253Y-13925031D02*
X7836777Y-13944079D01*
X7836777Y-13944079D02*
X7846301Y-13982174D01*
X7846301Y-13982174D02*
X7846301Y-14029793D01*
X7846301Y-14029793D02*
X7836777Y-14067888D01*
X7836777Y-14067888D02*
X7827253Y-14086936D01*
X7827253Y-14086936D02*
X7817729Y-14096460D01*
X7817729Y-14096460D02*
X7798682Y-14105984D01*
X7798682Y-14105984D02*
X7779634Y-14105984D01*
X7779634Y-14105984D02*
X7760586Y-14096460D01*
X7760586Y-14096460D02*
X7751063Y-14086936D01*
X7751063Y-14086936D02*
X7741539Y-14067888D01*
X7741539Y-14067888D02*
X7732015Y-14029793D01*
X7732015Y-14029793D02*
X7732015Y-13982174D01*
X7732015Y-13982174D02*
X7741539Y-13944079D01*
X7741539Y-13944079D02*
X7751063Y-13925031D01*
X7751063Y-13925031D02*
X7760586Y-13915508D01*
X7760586Y-13915508D02*
X7779634Y-13905984D01*
X7932015Y-14086936D02*
X7941539Y-14096460D01*
X7941539Y-14096460D02*
X7932015Y-14105984D01*
X7932015Y-14105984D02*
X7922491Y-14096460D01*
X7922491Y-14096460D02*
X7932015Y-14086936D01*
X7932015Y-14086936D02*
X7932015Y-14105984D01*
X8065348Y-13905984D02*
X8084396Y-13905984D01*
X8084396Y-13905984D02*
X8103444Y-13915508D01*
X8103444Y-13915508D02*
X8112967Y-13925031D01*
X8112967Y-13925031D02*
X8122491Y-13944079D01*
X8122491Y-13944079D02*
X8132015Y-13982174D01*
X8132015Y-13982174D02*
X8132015Y-14029793D01*
X8132015Y-14029793D02*
X8122491Y-14067888D01*
X8122491Y-14067888D02*
X8112967Y-14086936D01*
X8112967Y-14086936D02*
X8103444Y-14096460D01*
X8103444Y-14096460D02*
X8084396Y-14105984D01*
X8084396Y-14105984D02*
X8065348Y-14105984D01*
X8065348Y-14105984D02*
X8046301Y-14096460D01*
X8046301Y-14096460D02*
X8036777Y-14086936D01*
X8036777Y-14086936D02*
X8027253Y-14067888D01*
X8027253Y-14067888D02*
X8017729Y-14029793D01*
X8017729Y-14029793D02*
X8017729Y-13982174D01*
X8017729Y-13982174D02*
X8027253Y-13944079D01*
X8027253Y-13944079D02*
X8036777Y-13925031D01*
X8036777Y-13925031D02*
X8046301Y-13915508D01*
X8046301Y-13915508D02*
X8065348Y-13905984D01*
X8312967Y-13905984D02*
X8217729Y-13905984D01*
X8217729Y-13905984D02*
X8208206Y-14001222D01*
X8208206Y-14001222D02*
X8217729Y-13991698D01*
X8217729Y-13991698D02*
X8236777Y-13982174D01*
X8236777Y-13982174D02*
X8284396Y-13982174D01*
X8284396Y-13982174D02*
X8303444Y-13991698D01*
X8303444Y-13991698D02*
X8312967Y-14001222D01*
X8312967Y-14001222D02*
X8322491Y-14020269D01*
X8322491Y-14020269D02*
X8322491Y-14067888D01*
X8322491Y-14067888D02*
X8312967Y-14086936D01*
X8312967Y-14086936D02*
X8303444Y-14096460D01*
X8303444Y-14096460D02*
X8284396Y-14105984D01*
X8284396Y-14105984D02*
X8236777Y-14105984D01*
X8236777Y-14105984D02*
X8217729Y-14096460D01*
X8217729Y-14096460D02*
X8208206Y-14086936D01*
X8512968Y-14105984D02*
X8398682Y-14105984D01*
X8455825Y-14105984D02*
X8455825Y-13905984D01*
X8455825Y-13905984D02*
X8436777Y-13934555D01*
X8436777Y-13934555D02*
X8417729Y-13953603D01*
X8417729Y-13953603D02*
X8398682Y-13963127D01*
X8636777Y-13905984D02*
X8655825Y-13905984D01*
X8655825Y-13905984D02*
X8674872Y-13915508D01*
X8674872Y-13915508D02*
X8684396Y-13925031D01*
X8684396Y-13925031D02*
X8693920Y-13944079D01*
X8693920Y-13944079D02*
X8703444Y-13982174D01*
X8703444Y-13982174D02*
X8703444Y-14029793D01*
X8703444Y-14029793D02*
X8693920Y-14067888D01*
X8693920Y-14067888D02*
X8684396Y-14086936D01*
X8684396Y-14086936D02*
X8674872Y-14096460D01*
X8674872Y-14096460D02*
X8655825Y-14105984D01*
X8655825Y-14105984D02*
X8636777Y-14105984D01*
X8636777Y-14105984D02*
X8617729Y-14096460D01*
X8617729Y-14096460D02*
X8608206Y-14086936D01*
X8608206Y-14086936D02*
X8598682Y-14067888D01*
X8598682Y-14067888D02*
X8589158Y-14029793D01*
X8589158Y-14029793D02*
X8589158Y-13982174D01*
X8589158Y-13982174D02*
X8598682Y-13944079D01*
X8598682Y-13944079D02*
X8608206Y-13925031D01*
X8608206Y-13925031D02*
X8617729Y-13915508D01*
X8617729Y-13915508D02*
X8636777Y-13905984D01*
X8779634Y-13905984D02*
X8779634Y-13944079D01*
X8855825Y-13905984D02*
X8855825Y-13944079D01*
X9151063Y-14182174D02*
X9141539Y-14172650D01*
X9141539Y-14172650D02*
X9122491Y-14144079D01*
X9122491Y-14144079D02*
X9112968Y-14125031D01*
X9112968Y-14125031D02*
X9103444Y-14096460D01*
X9103444Y-14096460D02*
X9093920Y-14048841D01*
X9093920Y-14048841D02*
X9093920Y-14010746D01*
X9093920Y-14010746D02*
X9103444Y-13963127D01*
X9103444Y-13963127D02*
X9112968Y-13934555D01*
X9112968Y-13934555D02*
X9122491Y-13915508D01*
X9122491Y-13915508D02*
X9141539Y-13886936D01*
X9141539Y-13886936D02*
X9151063Y-13877412D01*
X9265349Y-13905984D02*
X9284396Y-13905984D01*
X9284396Y-13905984D02*
X9303444Y-13915508D01*
X9303444Y-13915508D02*
X9312968Y-13925031D01*
X9312968Y-13925031D02*
X9322491Y-13944079D01*
X9322491Y-13944079D02*
X9332015Y-13982174D01*
X9332015Y-13982174D02*
X9332015Y-14029793D01*
X9332015Y-14029793D02*
X9322491Y-14067888D01*
X9322491Y-14067888D02*
X9312968Y-14086936D01*
X9312968Y-14086936D02*
X9303444Y-14096460D01*
X9303444Y-14096460D02*
X9284396Y-14105984D01*
X9284396Y-14105984D02*
X9265349Y-14105984D01*
X9265349Y-14105984D02*
X9246301Y-14096460D01*
X9246301Y-14096460D02*
X9236777Y-14086936D01*
X9236777Y-14086936D02*
X9227253Y-14067888D01*
X9227253Y-14067888D02*
X9217730Y-14029793D01*
X9217730Y-14029793D02*
X9217730Y-13982174D01*
X9217730Y-13982174D02*
X9227253Y-13944079D01*
X9227253Y-13944079D02*
X9236777Y-13925031D01*
X9236777Y-13925031D02*
X9246301Y-13915508D01*
X9246301Y-13915508D02*
X9265349Y-13905984D01*
X9570111Y-14105984D02*
X9570111Y-13905984D01*
X9655825Y-14105984D02*
X9655825Y-14001222D01*
X9655825Y-14001222D02*
X9646301Y-13982174D01*
X9646301Y-13982174D02*
X9627253Y-13972650D01*
X9627253Y-13972650D02*
X9598682Y-13972650D01*
X9598682Y-13972650D02*
X9579634Y-13982174D01*
X9579634Y-13982174D02*
X9570111Y-13991698D01*
X9779634Y-14105984D02*
X9760587Y-14096460D01*
X9760587Y-14096460D02*
X9751063Y-14086936D01*
X9751063Y-14086936D02*
X9741539Y-14067888D01*
X9741539Y-14067888D02*
X9741539Y-14010746D01*
X9741539Y-14010746D02*
X9751063Y-13991698D01*
X9751063Y-13991698D02*
X9760587Y-13982174D01*
X9760587Y-13982174D02*
X9779634Y-13972650D01*
X9779634Y-13972650D02*
X9808206Y-13972650D01*
X9808206Y-13972650D02*
X9827253Y-13982174D01*
X9827253Y-13982174D02*
X9836777Y-13991698D01*
X9836777Y-13991698D02*
X9846301Y-14010746D01*
X9846301Y-14010746D02*
X9846301Y-14067888D01*
X9846301Y-14067888D02*
X9836777Y-14086936D01*
X9836777Y-14086936D02*
X9827253Y-14096460D01*
X9827253Y-14096460D02*
X9808206Y-14105984D01*
X9808206Y-14105984D02*
X9779634Y-14105984D01*
X9960587Y-14105984D02*
X9941539Y-14096460D01*
X9941539Y-14096460D02*
X9932015Y-14077412D01*
X9932015Y-14077412D02*
X9932015Y-13905984D01*
X10112968Y-14096460D02*
X10093920Y-14105984D01*
X10093920Y-14105984D02*
X10055825Y-14105984D01*
X10055825Y-14105984D02*
X10036777Y-14096460D01*
X10036777Y-14096460D02*
X10027253Y-14077412D01*
X10027253Y-14077412D02*
X10027253Y-14001222D01*
X10027253Y-14001222D02*
X10036777Y-13982174D01*
X10036777Y-13982174D02*
X10055825Y-13972650D01*
X10055825Y-13972650D02*
X10093920Y-13972650D01*
X10093920Y-13972650D02*
X10112968Y-13982174D01*
X10112968Y-13982174D02*
X10122492Y-14001222D01*
X10122492Y-14001222D02*
X10122492Y-14020269D01*
X10122492Y-14020269D02*
X10027253Y-14039317D01*
X10198682Y-14096460D02*
X10217730Y-14105984D01*
X10217730Y-14105984D02*
X10255825Y-14105984D01*
X10255825Y-14105984D02*
X10274873Y-14096460D01*
X10274873Y-14096460D02*
X10284396Y-14077412D01*
X10284396Y-14077412D02*
X10284396Y-14067888D01*
X10284396Y-14067888D02*
X10274873Y-14048841D01*
X10274873Y-14048841D02*
X10255825Y-14039317D01*
X10255825Y-14039317D02*
X10227253Y-14039317D01*
X10227253Y-14039317D02*
X10208206Y-14029793D01*
X10208206Y-14029793D02*
X10198682Y-14010746D01*
X10198682Y-14010746D02*
X10198682Y-14001222D01*
X10198682Y-14001222D02*
X10208206Y-13982174D01*
X10208206Y-13982174D02*
X10227253Y-13972650D01*
X10227253Y-13972650D02*
X10255825Y-13972650D01*
X10255825Y-13972650D02*
X10274873Y-13982174D01*
X10522492Y-14029793D02*
X10674873Y-14029793D01*
X10598682Y-14105984D02*
X10598682Y-13953603D01*
X11008206Y-13972650D02*
X11008206Y-14105984D01*
X10960587Y-13896460D02*
X10912968Y-14039317D01*
X10912968Y-14039317D02*
X11036777Y-14039317D01*
X11255825Y-14096460D02*
X11274873Y-14105984D01*
X11274873Y-14105984D02*
X11312968Y-14105984D01*
X11312968Y-14105984D02*
X11332015Y-14096460D01*
X11332015Y-14096460D02*
X11341539Y-14077412D01*
X11341539Y-14077412D02*
X11341539Y-14067888D01*
X11341539Y-14067888D02*
X11332015Y-14048841D01*
X11332015Y-14048841D02*
X11312968Y-14039317D01*
X11312968Y-14039317D02*
X11284396Y-14039317D01*
X11284396Y-14039317D02*
X11265349Y-14029793D01*
X11265349Y-14029793D02*
X11255825Y-14010746D01*
X11255825Y-14010746D02*
X11255825Y-14001222D01*
X11255825Y-14001222D02*
X11265349Y-13982174D01*
X11265349Y-13982174D02*
X11284396Y-13972650D01*
X11284396Y-13972650D02*
X11312968Y-13972650D01*
X11312968Y-13972650D02*
X11332015Y-13982174D01*
X11455825Y-14105984D02*
X11436777Y-14096460D01*
X11436777Y-14096460D02*
X11427254Y-14077412D01*
X11427254Y-14077412D02*
X11427254Y-13905984D01*
X11560587Y-14105984D02*
X11541539Y-14096460D01*
X11541539Y-14096460D02*
X11532015Y-14086936D01*
X11532015Y-14086936D02*
X11522492Y-14067888D01*
X11522492Y-14067888D02*
X11522492Y-14010746D01*
X11522492Y-14010746D02*
X11532015Y-13991698D01*
X11532015Y-13991698D02*
X11541539Y-13982174D01*
X11541539Y-13982174D02*
X11560587Y-13972650D01*
X11560587Y-13972650D02*
X11589158Y-13972650D01*
X11589158Y-13972650D02*
X11608206Y-13982174D01*
X11608206Y-13982174D02*
X11617730Y-13991698D01*
X11617730Y-13991698D02*
X11627254Y-14010746D01*
X11627254Y-14010746D02*
X11627254Y-14067888D01*
X11627254Y-14067888D02*
X11617730Y-14086936D01*
X11617730Y-14086936D02*
X11608206Y-14096460D01*
X11608206Y-14096460D02*
X11589158Y-14105984D01*
X11589158Y-14105984D02*
X11560587Y-14105984D01*
X11684396Y-13972650D02*
X11760587Y-13972650D01*
X11712968Y-13905984D02*
X11712968Y-14077412D01*
X11712968Y-14077412D02*
X11722492Y-14096460D01*
X11722492Y-14096460D02*
X11741539Y-14105984D01*
X11741539Y-14105984D02*
X11760587Y-14105984D01*
X11817730Y-14096460D02*
X11836777Y-14105984D01*
X11836777Y-14105984D02*
X11874873Y-14105984D01*
X11874873Y-14105984D02*
X11893920Y-14096460D01*
X11893920Y-14096460D02*
X11903444Y-14077412D01*
X11903444Y-14077412D02*
X11903444Y-14067888D01*
X11903444Y-14067888D02*
X11893920Y-14048841D01*
X11893920Y-14048841D02*
X11874873Y-14039317D01*
X11874873Y-14039317D02*
X11846301Y-14039317D01*
X11846301Y-14039317D02*
X11827254Y-14029793D01*
X11827254Y-14029793D02*
X11817730Y-14010746D01*
X11817730Y-14010746D02*
X11817730Y-14001222D01*
X11817730Y-14001222D02*
X11827254Y-13982174D01*
X11827254Y-13982174D02*
X11846301Y-13972650D01*
X11846301Y-13972650D02*
X11874873Y-13972650D01*
X11874873Y-13972650D02*
X11893920Y-13982174D01*
X11970111Y-14182174D02*
X11979635Y-14172650D01*
X11979635Y-14172650D02*
X11998682Y-14144079D01*
X11998682Y-14144079D02*
X12008206Y-14125031D01*
X12008206Y-14125031D02*
X12017730Y-14096460D01*
X12017730Y-14096460D02*
X12027254Y-14048841D01*
X12027254Y-14048841D02*
X12027254Y-14010746D01*
X12027254Y-14010746D02*
X12017730Y-13963127D01*
X12017730Y-13963127D02*
X12008206Y-13934555D01*
X12008206Y-13934555D02*
X11998682Y-13915508D01*
X11998682Y-13915508D02*
X11979635Y-13886936D01*
X11979635Y-13886936D02*
X11970111Y-13877412D01*
X12332016Y-14182174D02*
X12322492Y-14172650D01*
X12322492Y-14172650D02*
X12303444Y-14144079D01*
X12303444Y-14144079D02*
X12293920Y-14125031D01*
X12293920Y-14125031D02*
X12284396Y-14096460D01*
X12284396Y-14096460D02*
X12274873Y-14048841D01*
X12274873Y-14048841D02*
X12274873Y-14010746D01*
X12274873Y-14010746D02*
X12284396Y-13963127D01*
X12284396Y-13963127D02*
X12293920Y-13934555D01*
X12293920Y-13934555D02*
X12303444Y-13915508D01*
X12303444Y-13915508D02*
X12322492Y-13886936D01*
X12322492Y-13886936D02*
X12332016Y-13877412D01*
X12408206Y-13972650D02*
X12408206Y-14105984D01*
X12408206Y-13991698D02*
X12417730Y-13982174D01*
X12417730Y-13982174D02*
X12436777Y-13972650D01*
X12436777Y-13972650D02*
X12465349Y-13972650D01*
X12465349Y-13972650D02*
X12484396Y-13982174D01*
X12484396Y-13982174D02*
X12493920Y-14001222D01*
X12493920Y-14001222D02*
X12493920Y-14105984D01*
X12617730Y-14105984D02*
X12598682Y-14096460D01*
X12598682Y-14096460D02*
X12589158Y-14086936D01*
X12589158Y-14086936D02*
X12579635Y-14067888D01*
X12579635Y-14067888D02*
X12579635Y-14010746D01*
X12579635Y-14010746D02*
X12589158Y-13991698D01*
X12589158Y-13991698D02*
X12598682Y-13982174D01*
X12598682Y-13982174D02*
X12617730Y-13972650D01*
X12617730Y-13972650D02*
X12646301Y-13972650D01*
X12646301Y-13972650D02*
X12665349Y-13982174D01*
X12665349Y-13982174D02*
X12674873Y-13991698D01*
X12674873Y-13991698D02*
X12684396Y-14010746D01*
X12684396Y-14010746D02*
X12684396Y-14067888D01*
X12684396Y-14067888D02*
X12674873Y-14086936D01*
X12674873Y-14086936D02*
X12665349Y-14096460D01*
X12665349Y-14096460D02*
X12646301Y-14105984D01*
X12646301Y-14105984D02*
X12617730Y-14105984D01*
X12741539Y-13972650D02*
X12817730Y-13972650D01*
X12770111Y-13905984D02*
X12770111Y-14077412D01*
X12770111Y-14077412D02*
X12779635Y-14096460D01*
X12779635Y-14096460D02*
X12798682Y-14105984D01*
X12798682Y-14105984D02*
X12817730Y-14105984D01*
X13036777Y-13972650D02*
X13036777Y-14172650D01*
X13036777Y-13982174D02*
X13055825Y-13972650D01*
X13055825Y-13972650D02*
X13093920Y-13972650D01*
X13093920Y-13972650D02*
X13112968Y-13982174D01*
X13112968Y-13982174D02*
X13122492Y-13991698D01*
X13122492Y-13991698D02*
X13132016Y-14010746D01*
X13132016Y-14010746D02*
X13132016Y-14067888D01*
X13132016Y-14067888D02*
X13122492Y-14086936D01*
X13122492Y-14086936D02*
X13112968Y-14096460D01*
X13112968Y-14096460D02*
X13093920Y-14105984D01*
X13093920Y-14105984D02*
X13055825Y-14105984D01*
X13055825Y-14105984D02*
X13036777Y-14096460D01*
X13246301Y-14105984D02*
X13227254Y-14096460D01*
X13227254Y-14096460D02*
X13217730Y-14077412D01*
X13217730Y-14077412D02*
X13217730Y-13905984D01*
X13408206Y-14105984D02*
X13408206Y-14001222D01*
X13408206Y-14001222D02*
X13398682Y-13982174D01*
X13398682Y-13982174D02*
X13379635Y-13972650D01*
X13379635Y-13972650D02*
X13341539Y-13972650D01*
X13341539Y-13972650D02*
X13322492Y-13982174D01*
X13408206Y-14096460D02*
X13389158Y-14105984D01*
X13389158Y-14105984D02*
X13341539Y-14105984D01*
X13341539Y-14105984D02*
X13322492Y-14096460D01*
X13322492Y-14096460D02*
X13312968Y-14077412D01*
X13312968Y-14077412D02*
X13312968Y-14058365D01*
X13312968Y-14058365D02*
X13322492Y-14039317D01*
X13322492Y-14039317D02*
X13341539Y-14029793D01*
X13341539Y-14029793D02*
X13389158Y-14029793D01*
X13389158Y-14029793D02*
X13408206Y-14020269D01*
X13474873Y-13972650D02*
X13551063Y-13972650D01*
X13503444Y-13905984D02*
X13503444Y-14077412D01*
X13503444Y-14077412D02*
X13512968Y-14096460D01*
X13512968Y-14096460D02*
X13532016Y-14105984D01*
X13532016Y-14105984D02*
X13551063Y-14105984D01*
X13693920Y-14096460D02*
X13674873Y-14105984D01*
X13674873Y-14105984D02*
X13636777Y-14105984D01*
X13636777Y-14105984D02*
X13617730Y-14096460D01*
X13617730Y-14096460D02*
X13608206Y-14077412D01*
X13608206Y-14077412D02*
X13608206Y-14001222D01*
X13608206Y-14001222D02*
X13617730Y-13982174D01*
X13617730Y-13982174D02*
X13636777Y-13972650D01*
X13636777Y-13972650D02*
X13674873Y-13972650D01*
X13674873Y-13972650D02*
X13693920Y-13982174D01*
X13693920Y-13982174D02*
X13703444Y-14001222D01*
X13703444Y-14001222D02*
X13703444Y-14020269D01*
X13703444Y-14020269D02*
X13608206Y-14039317D01*
X13874873Y-14105984D02*
X13874873Y-13905984D01*
X13874873Y-14096460D02*
X13855825Y-14105984D01*
X13855825Y-14105984D02*
X13817730Y-14105984D01*
X13817730Y-14105984D02*
X13798682Y-14096460D01*
X13798682Y-14096460D02*
X13789158Y-14086936D01*
X13789158Y-14086936D02*
X13779635Y-14067888D01*
X13779635Y-14067888D02*
X13779635Y-14010746D01*
X13779635Y-14010746D02*
X13789158Y-13991698D01*
X13789158Y-13991698D02*
X13798682Y-13982174D01*
X13798682Y-13982174D02*
X13817730Y-13972650D01*
X13817730Y-13972650D02*
X13855825Y-13972650D01*
X13855825Y-13972650D02*
X13874873Y-13982174D01*
X13951063Y-14182174D02*
X13960587Y-14172650D01*
X13960587Y-14172650D02*
X13979635Y-14144079D01*
X13979635Y-14144079D02*
X13989158Y-14125031D01*
X13989158Y-14125031D02*
X13998682Y-14096460D01*
X13998682Y-14096460D02*
X14008206Y-14048841D01*
X14008206Y-14048841D02*
X14008206Y-14010746D01*
X14008206Y-14010746D02*
X13998682Y-13963127D01*
X13998682Y-13963127D02*
X13989158Y-13934555D01*
X13989158Y-13934555D02*
X13979635Y-13915508D01*
X13979635Y-13915508D02*
X13960587Y-13886936D01*
X13960587Y-13886936D02*
X13951063Y-13877412D01*
M02*
