%TF.GenerationSoftware,KiCad,Pcbnew,8.0.6*%
%TF.CreationDate,2025-03-03T14:32:59-05:00*%
%TF.ProjectId,SiPM_Bias_Board,5369504d-5f42-4696-9173-5f426f617264,rev?*%
%TF.SameCoordinates,Original*%
%TF.FileFunction,Copper,L2,Inr*%
%TF.FilePolarity,Positive*%
%FSLAX46Y46*%
G04 Gerber Fmt 4.6, Leading zero omitted, Abs format (unit mm)*
G04 Created by KiCad (PCBNEW 8.0.6) date 2025-03-03 14:32:59*
%MOMM*%
%LPD*%
G01*
G04 APERTURE LIST*
%TA.AperFunction,ComponentPad*%
%ADD10C,6.400000*%
%TD*%
%TA.AperFunction,ComponentPad*%
%ADD11R,2.200000X2.200000*%
%TD*%
%TA.AperFunction,ComponentPad*%
%ADD12O,2.200000X2.200000*%
%TD*%
%TA.AperFunction,ComponentPad*%
%ADD13C,2.800000*%
%TD*%
%TA.AperFunction,ComponentPad*%
%ADD14C,2.006600*%
%TD*%
%TA.AperFunction,ComponentPad*%
%ADD15C,2.209800*%
%TD*%
%TA.AperFunction,ComponentPad*%
%ADD16C,2.159000*%
%TD*%
%TA.AperFunction,ComponentPad*%
%ADD17C,1.524000*%
%TD*%
%TA.AperFunction,ComponentPad*%
%ADD18C,2.100000*%
%TD*%
%TA.AperFunction,ComponentPad*%
%ADD19C,1.635000*%
%TD*%
%TA.AperFunction,ComponentPad*%
%ADD20C,4.216000*%
%TD*%
%TA.AperFunction,ComponentPad*%
%ADD21C,2.400000*%
%TD*%
%TA.AperFunction,ComponentPad*%
%ADD22O,2.400000X2.400000*%
%TD*%
%TA.AperFunction,ViaPad*%
%ADD23C,0.600000*%
%TD*%
G04 APERTURE END LIST*
D10*
%TO.N,CHASSIS*%
%TO.C,H4*%
X228320000Y-127580000D03*
%TD*%
D11*
%TO.N,/SEC_PWR_RTN*%
%TO.C,D1*%
X229775000Y-121655000D03*
D12*
%TO.N,/SiPM_HV_Block/SiPM_HV_RTN*%
X229775000Y-111495000D03*
%TD*%
D13*
%TO.N,/SEC_PWR_TELEM_RTN*%
%TO.C,GND*%
X103820000Y-90060000D03*
%TD*%
%TO.N,/SiPM_HV_Block/REM_ADJ*%
%TO.C,V_{SET}*%
X90910000Y-75270000D03*
%TD*%
D10*
%TO.N,CHASSIS*%
%TO.C,H3*%
X148320000Y-127580000D03*
%TD*%
D14*
%TO.N,/SiPM_HV_Block/SiPM_HV_OUT*%
%TO.C,P_Out*%
X235363000Y-99430000D03*
D15*
%TO.N,/SiPM_HV_Block/SiPM_HV_RTN*%
X237903000Y-96890000D03*
%TO.N,unconnected-(P_Out1-GND-Pad3)*%
X232823000Y-96890000D03*
%TO.N,unconnected-(P_Out1-GND-Pad4)*%
X232823000Y-101970000D03*
%TO.N,unconnected-(P_Out1-GND-Pad5)*%
X237903000Y-101970000D03*
%TD*%
D10*
%TO.N,CHASSIS*%
%TO.C,H2*%
X76320000Y-127580000D03*
%TD*%
D13*
%TO.N,/SiPM_HV_Block/SiPM_HV_RTN*%
%TO.C,V_{OUT_RTN}1*%
X231140000Y-88900000D03*
%TD*%
D16*
%TO.N,Net-(M3-Pad3)*%
%TO.C,P2*%
X191410000Y-67580000D03*
%TD*%
D17*
%TO.N,/SiPM_HV_Block/V_RTN*%
%TO.C,U1*%
X133020000Y-117780000D03*
%TO.N,/SiPM_HV_Block/V_POS*%
X133020000Y-112700000D03*
%TO.N,/SiPM_HV_Block/Curr_Mon*%
X133020000Y-107620000D03*
%TO.N,/SiPM_HV_Block/Enable*%
X133020000Y-102540000D03*
%TO.N,/SEC_PWR_TELEM_RTN*%
X133020000Y-97460000D03*
%TO.N,/SiPM_HV_Block/REM_ADJ*%
X133020000Y-92380000D03*
%TO.N,unconnected-(U1-5V_REF-Pad7)*%
X133020000Y-87300000D03*
%TO.N,/SiPM_HV_Block/SiPM_HV_RTN*%
X214320000Y-87300000D03*
X214320000Y-89800000D03*
%TO.N,/SiPM_HV_Block/SiPM_HV_OUT*%
X214320000Y-108600000D03*
X214320000Y-111100000D03*
%TD*%
D18*
%TO.N,/SEC_PWR_RTN*%
%TO.C,J2*%
X64110000Y-109480000D03*
%TO.N,/SEC_PWR_IN*%
X64110000Y-112980000D03*
%TO.N,/SEC_PWR_RTN*%
X64110000Y-116480000D03*
%TO.N,/SEC_PWR_IN*%
X64110000Y-119980000D03*
%TD*%
D13*
%TO.N,/SiPM_HV_Block/Enable*%
%TO.C,V_{EN}*%
X117980000Y-100350000D03*
%TD*%
D10*
%TO.N,CHASSIS*%
%TO.C,H6*%
X228320000Y-67580000D03*
%TD*%
D13*
%TO.N,/SEC_PWR_RTN*%
%TO.C,GND*%
X80970000Y-106880000D03*
%TD*%
D10*
%TO.N,CHASSIS*%
%TO.C,H1*%
X76320000Y-67580000D03*
%TD*%
D19*
%TO.N,/HV_CURR_MON*%
%TO.C,J3*%
X66880000Y-89730000D03*
%TO.N,/HV_Enable+*%
X66880000Y-86960000D03*
%TO.N,unconnected-(J3-Pad3)*%
X66880000Y-84190000D03*
%TO.N,/SEC_PWR_TELEM_RTN*%
X66880000Y-81420000D03*
X66880000Y-78650000D03*
X64040000Y-88345000D03*
%TO.N,/HV_Enable-*%
X64040000Y-85575000D03*
%TO.N,/HV_VOLT_MON*%
X64040000Y-82805000D03*
%TO.N,/SET_HV*%
X64040000Y-80035000D03*
D20*
%TO.N,CHASSIS*%
X65460000Y-71690000D03*
X65460000Y-96690000D03*
%TD*%
D16*
%TO.N,Net-(P1-Pad1)*%
%TO.C,P1*%
X207410000Y-67580000D03*
%TD*%
D10*
%TO.N,CHASSIS*%
%TO.C,H5*%
X148320000Y-67580000D03*
%TD*%
D21*
%TO.N,/SiPM_HV_Block/SiPM_HV_OUT*%
%TO.C,R20*%
X178340000Y-79110000D03*
D22*
%TO.N,Net-(U5-+IN)*%
X163100000Y-79110000D03*
%TD*%
D18*
%TO.N,/SEC_PWR_TELEM_RTN*%
%TO.C,J1*%
X97720400Y-68895600D03*
%TO.N,/SEC_PWR_TELEM*%
X93910400Y-68895600D03*
%TO.N,/SEC_PWR_TELEM_RTN*%
X90100400Y-68895600D03*
%TD*%
D13*
%TO.N,CHASSIS*%
%TO.C,Chassis*%
X66520000Y-128550000D03*
%TD*%
D11*
%TO.N,/SiPM_HV_Block/SiPM_HV_RTN*%
%TO.C,D2*%
X235430000Y-111570000D03*
D12*
%TO.N,/SEC_PWR_RTN*%
X235430000Y-121730000D03*
%TD*%
D23*
%TO.N,/SEC_PWR_RTN*%
X229140000Y-105780000D03*
X234220000Y-131180000D03*
X69120000Y-126100000D03*
X97060000Y-123560000D03*
X224060000Y-77840000D03*
X183420000Y-123560000D03*
X213900000Y-77840000D03*
X203740000Y-131180000D03*
X64040000Y-131180000D03*
X58960000Y-105780000D03*
X69120000Y-110860000D03*
X188500000Y-131180000D03*
X91980000Y-131180000D03*
X127540000Y-115940000D03*
X112300000Y-131180000D03*
X86900000Y-123560000D03*
X127540000Y-118480000D03*
X213900000Y-131180000D03*
X168180000Y-131180000D03*
X229140000Y-100700000D03*
X203740000Y-123560000D03*
X127540000Y-113400000D03*
X97060000Y-131180000D03*
X152940000Y-123560000D03*
X117380000Y-121020000D03*
X64040000Y-105780000D03*
X193580000Y-123560000D03*
X193580000Y-77840000D03*
X64040000Y-126100000D03*
X208820000Y-131180000D03*
X158020000Y-131180000D03*
X89440000Y-105780000D03*
X229140000Y-77840000D03*
X163100000Y-131180000D03*
X69120000Y-131180000D03*
X218980000Y-77840000D03*
X158020000Y-123560000D03*
X198660000Y-77840000D03*
X109760000Y-105780000D03*
X81820000Y-131180000D03*
X86900000Y-131180000D03*
X132620000Y-131180000D03*
X208820000Y-77840000D03*
X218980000Y-123560000D03*
X74200000Y-105780000D03*
X142780000Y-131180000D03*
X224060000Y-131180000D03*
X114610000Y-104910000D03*
X188500000Y-123560000D03*
X80930000Y-125110000D03*
X157690000Y-80770000D03*
X173260000Y-123560000D03*
X142780000Y-123560000D03*
X69120000Y-105780000D03*
X79280000Y-110860000D03*
X69120000Y-121020000D03*
X229140000Y-95620000D03*
X203740000Y-77840000D03*
X183420000Y-131180000D03*
X178340000Y-131180000D03*
X234220000Y-126100000D03*
X58960000Y-131180000D03*
X198660000Y-131180000D03*
X127540000Y-123560000D03*
X132620000Y-123560000D03*
X193580000Y-131180000D03*
X84360000Y-126100000D03*
X122460000Y-131180000D03*
X111520000Y-107480000D03*
X137700000Y-123560000D03*
X94520000Y-105780000D03*
X168180000Y-123560000D03*
X188500000Y-77840000D03*
X163100000Y-123560000D03*
X107220000Y-131180000D03*
X102140000Y-131180000D03*
X152940000Y-131180000D03*
X101400000Y-107080000D03*
X178340000Y-123560000D03*
X117380000Y-123560000D03*
X91980000Y-123560000D03*
X74200000Y-121020000D03*
X69120000Y-115940000D03*
X183420000Y-77840000D03*
X101220000Y-122410000D03*
X198660000Y-123560000D03*
X74200000Y-110860000D03*
X127540000Y-131180000D03*
X122460000Y-123560000D03*
X173260000Y-131180000D03*
X117380000Y-131180000D03*
X137700000Y-131180000D03*
X218980000Y-131180000D03*
%TO.N,/SiPM_HV_Block/V_POS*%
X126238000Y-83820000D03*
X125300000Y-103290000D03*
%TO.N,/SiPM_HV_Block/V_RTN*%
X128430000Y-105110000D03*
X128160000Y-90550000D03*
%TO.N,/SiPM_HV_Block/SiPM_HV_RTN*%
X214230000Y-124190000D03*
%TO.N,CHASSIS*%
X207853278Y-124184243D03*
X105370000Y-107100000D03*
X105270000Y-122420000D03*
%TO.N,/SEC_PWR_TELEM*%
X175625000Y-70340000D03*
X168885000Y-64500000D03*
X89890000Y-80100000D03*
%TO.N,/SEC_PWR_TELEM_RTN*%
X121920000Y-71120000D03*
X101600000Y-99060000D03*
X154940000Y-66040000D03*
X201200000Y-72760000D03*
X191040000Y-72760000D03*
X201200000Y-67680000D03*
X114610000Y-100240000D03*
X127000000Y-71120000D03*
X208820000Y-72760000D03*
X83390000Y-82530000D03*
X142240000Y-66040000D03*
X213900000Y-65140000D03*
X101600000Y-101600000D03*
X91440000Y-101600000D03*
X119380000Y-76200000D03*
X110835400Y-79935600D03*
X160020000Y-71120000D03*
X175800000Y-62600000D03*
X76200000Y-101600000D03*
X86360000Y-101600000D03*
X81280000Y-99060000D03*
X193580000Y-72760000D03*
X71120000Y-96520000D03*
X111760000Y-83820000D03*
X160020000Y-66040000D03*
X76200000Y-76200000D03*
X154940000Y-71120000D03*
X106680000Y-71120000D03*
X71120000Y-99060000D03*
X211360000Y-72760000D03*
X127000000Y-66040000D03*
X120840000Y-97500000D03*
X201200000Y-62600000D03*
X116840000Y-66040000D03*
X71120000Y-76200000D03*
X86360000Y-99060000D03*
X137160000Y-66040000D03*
X137160000Y-71120000D03*
X198660000Y-72760000D03*
X91440000Y-99060000D03*
X116840000Y-88900000D03*
X93620000Y-81060000D03*
X119380000Y-83820000D03*
X173260000Y-70220000D03*
X83970000Y-74510000D03*
X116840000Y-71120000D03*
X97720000Y-77260000D03*
X111760000Y-88900000D03*
X166205000Y-63420000D03*
X173260000Y-72760000D03*
X183420000Y-72760000D03*
X66040000Y-66040000D03*
X111760000Y-71120000D03*
X75120000Y-85120000D03*
X198660000Y-67680000D03*
X96520000Y-99060000D03*
X71120000Y-101600000D03*
X213900000Y-62600000D03*
X111760000Y-93980000D03*
X188500000Y-72760000D03*
X101600000Y-66040000D03*
X71120000Y-71120000D03*
X81280000Y-101600000D03*
X119361200Y-95823200D03*
X93800000Y-88630000D03*
X86360000Y-71120000D03*
X142240000Y-71120000D03*
X76200000Y-96520000D03*
X165100000Y-66040000D03*
X76200000Y-99060000D03*
X79280000Y-75300000D03*
X121920000Y-66040000D03*
X180880000Y-72760000D03*
X213900000Y-70220000D03*
X132080000Y-71120000D03*
X169845000Y-70040000D03*
X106680000Y-93980000D03*
X213900000Y-72760000D03*
X206280000Y-72760000D03*
X196120000Y-72760000D03*
X165100000Y-71120000D03*
X173260000Y-62600000D03*
X203740000Y-72760000D03*
X181750000Y-67807000D03*
X96520000Y-101600000D03*
X106680000Y-66040000D03*
X132080000Y-66040000D03*
X198660000Y-62600000D03*
X180880000Y-65140000D03*
X213900000Y-67680000D03*
X175800000Y-72760000D03*
X91440000Y-71120000D03*
X106680000Y-83820000D03*
X121920000Y-73660000D03*
X183420000Y-70220000D03*
X71120000Y-66040000D03*
X173260000Y-65140000D03*
X175800000Y-65140000D03*
X106680000Y-101600000D03*
X111760000Y-66040000D03*
X183420000Y-65140000D03*
X121920000Y-76200000D03*
X178340000Y-72760000D03*
X96520000Y-88900000D03*
X185960000Y-65140000D03*
X81280000Y-71120000D03*
X185960000Y-72760000D03*
X84480000Y-80770000D03*
X101600000Y-71120000D03*
%TO.N,/HV_VOLT_MON*%
X88790000Y-90350000D03*
%TO.N,Net-(M2-Pad1)*%
X127965200Y-86512400D03*
X127914400Y-94488000D03*
%TO.N,Net-(M3-Pad1)*%
X176875000Y-67760000D03*
%TO.N,/V3p3*%
X108490000Y-81015000D03*
X89600000Y-88630000D03*
X76680000Y-85110000D03*
%TO.N,Net-(U5-OUT)*%
X168905000Y-69650000D03*
%TO.N,Net-(U5--IN)*%
X170535000Y-64290000D03*
%TO.N,Net-(U5-+IN)*%
X170635000Y-71670000D03*
%TD*%
%TA.AperFunction,Conductor*%
%TO.N,/SEC_PWR_TELEM_RTN*%
G36*
X215113035Y-61225291D02*
G01*
X215158792Y-61278093D01*
X215170000Y-61329610D01*
X215170000Y-73906000D01*
X215150315Y-73973039D01*
X215097511Y-74018794D01*
X215046000Y-74030000D01*
X113570000Y-74030000D01*
X113570000Y-71669996D01*
X169829435Y-71669996D01*
X169829435Y-71670003D01*
X169849630Y-71849249D01*
X169849631Y-71849254D01*
X169909211Y-72019523D01*
X170005184Y-72172262D01*
X170132738Y-72299816D01*
X170285478Y-72395789D01*
X170455745Y-72455368D01*
X170455750Y-72455369D01*
X170634996Y-72475565D01*
X170635000Y-72475565D01*
X170635004Y-72475565D01*
X170814249Y-72455369D01*
X170814252Y-72455368D01*
X170814255Y-72455368D01*
X170984522Y-72395789D01*
X171137262Y-72299816D01*
X171264816Y-72172262D01*
X171360789Y-72019522D01*
X171420368Y-71849255D01*
X171440565Y-71670000D01*
X171420368Y-71490745D01*
X171360789Y-71320478D01*
X171264816Y-71167738D01*
X171137262Y-71040184D01*
X170984523Y-70944211D01*
X170814254Y-70884631D01*
X170814249Y-70884630D01*
X170635004Y-70864435D01*
X170634996Y-70864435D01*
X170455750Y-70884630D01*
X170455745Y-70884631D01*
X170285476Y-70944211D01*
X170132737Y-71040184D01*
X170005184Y-71167737D01*
X169909211Y-71320476D01*
X169849631Y-71490745D01*
X169849630Y-71490750D01*
X169829435Y-71669996D01*
X113570000Y-71669996D01*
X113570000Y-67580000D01*
X144614422Y-67580000D01*
X144634722Y-67967338D01*
X144695398Y-68350433D01*
X144738574Y-68511570D01*
X144795788Y-68725094D01*
X144934787Y-69087197D01*
X145110877Y-69432793D01*
X145322122Y-69758082D01*
X145481006Y-69954287D01*
X145566219Y-70059516D01*
X145840484Y-70333781D01*
X145840488Y-70333784D01*
X146141917Y-70577877D01*
X146313837Y-70689523D01*
X146467211Y-70789125D01*
X146812806Y-70965214D01*
X147174913Y-71104214D01*
X147549567Y-71204602D01*
X147932662Y-71265278D01*
X148298576Y-71284455D01*
X148319999Y-71285578D01*
X148320000Y-71285578D01*
X148320001Y-71285578D01*
X148340301Y-71284514D01*
X148707338Y-71265278D01*
X149090433Y-71204602D01*
X149465087Y-71104214D01*
X149827194Y-70965214D01*
X150172789Y-70789125D01*
X150498084Y-70577876D01*
X150799516Y-70333781D01*
X151073781Y-70059516D01*
X151317876Y-69758084D01*
X151388069Y-69649996D01*
X168099435Y-69649996D01*
X168099435Y-69650003D01*
X168119630Y-69829249D01*
X168119631Y-69829254D01*
X168179211Y-69999523D01*
X168253500Y-70117752D01*
X168275184Y-70152262D01*
X168402738Y-70279816D01*
X168555478Y-70375789D01*
X168725745Y-70435368D01*
X168725750Y-70435369D01*
X168904996Y-70455565D01*
X168905000Y-70455565D01*
X168905004Y-70455565D01*
X169084249Y-70435369D01*
X169084252Y-70435368D01*
X169084255Y-70435368D01*
X169254522Y-70375789D01*
X169311486Y-70339996D01*
X174819435Y-70339996D01*
X174819435Y-70340003D01*
X174839630Y-70519249D01*
X174839631Y-70519254D01*
X174899211Y-70689523D01*
X174961794Y-70789122D01*
X174995184Y-70842262D01*
X175122738Y-70969816D01*
X175275478Y-71065789D01*
X175445745Y-71125368D01*
X175445750Y-71125369D01*
X175624996Y-71145565D01*
X175625000Y-71145565D01*
X175625004Y-71145565D01*
X175804249Y-71125369D01*
X175804252Y-71125368D01*
X175804255Y-71125368D01*
X175974522Y-71065789D01*
X176127262Y-70969816D01*
X176254816Y-70842262D01*
X176350789Y-70689522D01*
X176410368Y-70519255D01*
X176410369Y-70519249D01*
X176430565Y-70340003D01*
X176430565Y-70339996D01*
X176410369Y-70160750D01*
X176410368Y-70160745D01*
X176353954Y-69999523D01*
X176350789Y-69990478D01*
X176254816Y-69837738D01*
X176127262Y-69710184D01*
X176031480Y-69650000D01*
X175974523Y-69614211D01*
X175804254Y-69554631D01*
X175804249Y-69554630D01*
X175625004Y-69534435D01*
X175624996Y-69534435D01*
X175445750Y-69554630D01*
X175445745Y-69554631D01*
X175275476Y-69614211D01*
X175122737Y-69710184D01*
X174995184Y-69837737D01*
X174899211Y-69990476D01*
X174839631Y-70160745D01*
X174839630Y-70160750D01*
X174819435Y-70339996D01*
X169311486Y-70339996D01*
X169407262Y-70279816D01*
X169534816Y-70152262D01*
X169630789Y-69999522D01*
X169690368Y-69829255D01*
X169695831Y-69780769D01*
X169710565Y-69650003D01*
X169710565Y-69649996D01*
X169690369Y-69470750D01*
X169690368Y-69470745D01*
X169630788Y-69300476D01*
X169534815Y-69147737D01*
X169407262Y-69020184D01*
X169254523Y-68924211D01*
X169084254Y-68864631D01*
X169084249Y-68864630D01*
X168905004Y-68844435D01*
X168904996Y-68844435D01*
X168725750Y-68864630D01*
X168725745Y-68864631D01*
X168555476Y-68924211D01*
X168402737Y-69020184D01*
X168275184Y-69147737D01*
X168179211Y-69300476D01*
X168119631Y-69470745D01*
X168119630Y-69470750D01*
X168099435Y-69649996D01*
X151388069Y-69649996D01*
X151529125Y-69432789D01*
X151705214Y-69087194D01*
X151844214Y-68725087D01*
X151944602Y-68350433D01*
X152005278Y-67967338D01*
X152016145Y-67759996D01*
X176069435Y-67759996D01*
X176069435Y-67760003D01*
X176089630Y-67939249D01*
X176089631Y-67939254D01*
X176149211Y-68109523D01*
X176245184Y-68262262D01*
X176372738Y-68389816D01*
X176525478Y-68485789D01*
X176695745Y-68545368D01*
X176695750Y-68545369D01*
X176874996Y-68565565D01*
X176875000Y-68565565D01*
X176875004Y-68565565D01*
X177054249Y-68545369D01*
X177054252Y-68545368D01*
X177054255Y-68545368D01*
X177224522Y-68485789D01*
X177377262Y-68389816D01*
X177504816Y-68262262D01*
X177600789Y-68109522D01*
X177660368Y-67939255D01*
X177680565Y-67760000D01*
X177660368Y-67580745D01*
X177600789Y-67410478D01*
X177504816Y-67257738D01*
X177377262Y-67130184D01*
X177224523Y-67034211D01*
X177054254Y-66974631D01*
X177054249Y-66974630D01*
X176875004Y-66954435D01*
X176874996Y-66954435D01*
X176695750Y-66974630D01*
X176695745Y-66974631D01*
X176525476Y-67034211D01*
X176372737Y-67130184D01*
X176245184Y-67257737D01*
X176149211Y-67410476D01*
X176089631Y-67580745D01*
X176089630Y-67580750D01*
X176069435Y-67759996D01*
X152016145Y-67759996D01*
X152025578Y-67580000D01*
X152005278Y-67192662D01*
X151958803Y-66899230D01*
X186841800Y-66899230D01*
X186841800Y-69780769D01*
X186876315Y-69954287D01*
X186876318Y-69954299D01*
X186944022Y-70117752D01*
X186944023Y-70117754D01*
X187042322Y-70264868D01*
X187042325Y-70264872D01*
X187167427Y-70389974D01*
X187167431Y-70389977D01*
X187314543Y-70488275D01*
X187314544Y-70488275D01*
X187314545Y-70488276D01*
X187314547Y-70488277D01*
X187478000Y-70555981D01*
X187478005Y-70555983D01*
X187651530Y-70590499D01*
X187651534Y-70590500D01*
X187651535Y-70590500D01*
X187828466Y-70590500D01*
X187828467Y-70590499D01*
X188001995Y-70555983D01*
X188165457Y-70488275D01*
X188312569Y-70389977D01*
X188437677Y-70264869D01*
X188535975Y-70117757D01*
X188603683Y-69954295D01*
X188638200Y-69780765D01*
X188638200Y-67580000D01*
X189825114Y-67580000D01*
X189844627Y-67827934D01*
X189902684Y-68069759D01*
X189997855Y-68299523D01*
X190127796Y-68511568D01*
X190127797Y-68511570D01*
X190182530Y-68575653D01*
X190289316Y-68700684D01*
X190435706Y-68825713D01*
X190478429Y-68862202D01*
X190478431Y-68862203D01*
X190690476Y-68992144D01*
X190920240Y-69087315D01*
X190920241Y-69087315D01*
X190920243Y-69087316D01*
X191162069Y-69145373D01*
X191410000Y-69164886D01*
X191657931Y-69145373D01*
X191899757Y-69087316D01*
X192129523Y-68992144D01*
X192341573Y-68862200D01*
X192530684Y-68700684D01*
X192692200Y-68511573D01*
X192822144Y-68299523D01*
X192917316Y-68069757D01*
X192975373Y-67827931D01*
X192994886Y-67580000D01*
X192975373Y-67332069D01*
X192917316Y-67090243D01*
X192894107Y-67034211D01*
X192838196Y-66899230D01*
X194161800Y-66899230D01*
X194161800Y-69780769D01*
X194196315Y-69954287D01*
X194196318Y-69954299D01*
X194264022Y-70117752D01*
X194264023Y-70117754D01*
X194362322Y-70264868D01*
X194362325Y-70264872D01*
X194487427Y-70389974D01*
X194487431Y-70389977D01*
X194634543Y-70488275D01*
X194634544Y-70488275D01*
X194634545Y-70488276D01*
X194634547Y-70488277D01*
X194798000Y-70555981D01*
X194798005Y-70555983D01*
X194971530Y-70590499D01*
X194971534Y-70590500D01*
X194971535Y-70590500D01*
X195148466Y-70590500D01*
X195148467Y-70590499D01*
X195321995Y-70555983D01*
X195485457Y-70488275D01*
X195632569Y-70389977D01*
X195757677Y-70264869D01*
X195855975Y-70117757D01*
X195923683Y-69954295D01*
X195958200Y-69780765D01*
X195958200Y-66899235D01*
X195958199Y-66899230D01*
X202841800Y-66899230D01*
X202841800Y-69780769D01*
X202876315Y-69954287D01*
X202876318Y-69954299D01*
X202944022Y-70117752D01*
X202944023Y-70117754D01*
X203042322Y-70264868D01*
X203042325Y-70264872D01*
X203167427Y-70389974D01*
X203167431Y-70389977D01*
X203314543Y-70488275D01*
X203314544Y-70488275D01*
X203314545Y-70488276D01*
X203314547Y-70488277D01*
X203478000Y-70555981D01*
X203478005Y-70555983D01*
X203651530Y-70590499D01*
X203651534Y-70590500D01*
X203651535Y-70590500D01*
X203828466Y-70590500D01*
X203828467Y-70590499D01*
X204001995Y-70555983D01*
X204165457Y-70488275D01*
X204312569Y-70389977D01*
X204437677Y-70264869D01*
X204535975Y-70117757D01*
X204603683Y-69954295D01*
X204638200Y-69780765D01*
X204638200Y-67580000D01*
X205825114Y-67580000D01*
X205844627Y-67827934D01*
X205902684Y-68069759D01*
X205997855Y-68299523D01*
X206127796Y-68511568D01*
X206127797Y-68511570D01*
X206182530Y-68575653D01*
X206289316Y-68700684D01*
X206435706Y-68825713D01*
X206478429Y-68862202D01*
X206478431Y-68862203D01*
X206690476Y-68992144D01*
X206920240Y-69087315D01*
X206920241Y-69087315D01*
X206920243Y-69087316D01*
X207162069Y-69145373D01*
X207410000Y-69164886D01*
X207657931Y-69145373D01*
X207899757Y-69087316D01*
X208129523Y-68992144D01*
X208341573Y-68862200D01*
X208530684Y-68700684D01*
X208692200Y-68511573D01*
X208822144Y-68299523D01*
X208917316Y-68069757D01*
X208975373Y-67827931D01*
X208994886Y-67580000D01*
X208975373Y-67332069D01*
X208917316Y-67090243D01*
X208894107Y-67034211D01*
X208838196Y-66899230D01*
X210161800Y-66899230D01*
X210161800Y-69780769D01*
X210196315Y-69954287D01*
X210196318Y-69954299D01*
X210264022Y-70117752D01*
X210264023Y-70117754D01*
X210362322Y-70264868D01*
X210362325Y-70264872D01*
X210487427Y-70389974D01*
X210487431Y-70389977D01*
X210634543Y-70488275D01*
X210634544Y-70488275D01*
X210634545Y-70488276D01*
X210634547Y-70488277D01*
X210798000Y-70555981D01*
X210798005Y-70555983D01*
X210971530Y-70590499D01*
X210971534Y-70590500D01*
X210971535Y-70590500D01*
X211148466Y-70590500D01*
X211148467Y-70590499D01*
X211321995Y-70555983D01*
X211485457Y-70488275D01*
X211632569Y-70389977D01*
X211757677Y-70264869D01*
X211855975Y-70117757D01*
X211923683Y-69954295D01*
X211958200Y-69780765D01*
X211958200Y-66899235D01*
X211923683Y-66725705D01*
X211891675Y-66648431D01*
X211855977Y-66562247D01*
X211855976Y-66562245D01*
X211757677Y-66415131D01*
X211757674Y-66415127D01*
X211632572Y-66290025D01*
X211632568Y-66290022D01*
X211485454Y-66191723D01*
X211485452Y-66191722D01*
X211321999Y-66124018D01*
X211321987Y-66124015D01*
X211148469Y-66089500D01*
X211148465Y-66089500D01*
X210971535Y-66089500D01*
X210971530Y-66089500D01*
X210798012Y-66124015D01*
X210798000Y-66124018D01*
X210634547Y-66191722D01*
X210634545Y-66191723D01*
X210487431Y-66290022D01*
X210487427Y-66290025D01*
X210362325Y-66415127D01*
X210362322Y-66415131D01*
X210264023Y-66562245D01*
X210264022Y-66562247D01*
X210196318Y-66725700D01*
X210196315Y-66725712D01*
X210161800Y-66899230D01*
X208838196Y-66899230D01*
X208822144Y-66860476D01*
X208692203Y-66648431D01*
X208692202Y-66648429D01*
X208618595Y-66562247D01*
X208530684Y-66459316D01*
X208405653Y-66352530D01*
X208341570Y-66297797D01*
X208341568Y-66297796D01*
X208129523Y-66167855D01*
X207899759Y-66072684D01*
X207657934Y-66014627D01*
X207410000Y-65995114D01*
X207162065Y-66014627D01*
X206920240Y-66072684D01*
X206690476Y-66167855D01*
X206478431Y-66297796D01*
X206478429Y-66297797D01*
X206289316Y-66459316D01*
X206127797Y-66648429D01*
X206127796Y-66648431D01*
X205997855Y-66860476D01*
X205902684Y-67090240D01*
X205844627Y-67332065D01*
X205825114Y-67580000D01*
X204638200Y-67580000D01*
X204638200Y-66899235D01*
X204603683Y-66725705D01*
X204571675Y-66648431D01*
X204535977Y-66562247D01*
X204535976Y-66562245D01*
X204437677Y-66415131D01*
X204437674Y-66415127D01*
X204312572Y-66290025D01*
X204312568Y-66290022D01*
X204165454Y-66191723D01*
X204165452Y-66191722D01*
X204001999Y-66124018D01*
X204001987Y-66124015D01*
X203828469Y-66089500D01*
X203828465Y-66089500D01*
X203651535Y-66089500D01*
X203651530Y-66089500D01*
X203478012Y-66124015D01*
X203478000Y-66124018D01*
X203314547Y-66191722D01*
X203314545Y-66191723D01*
X203167431Y-66290022D01*
X203167427Y-66290025D01*
X203042325Y-66415127D01*
X203042322Y-66415131D01*
X202944023Y-66562245D01*
X202944022Y-66562247D01*
X202876318Y-66725700D01*
X202876315Y-66725712D01*
X202841800Y-66899230D01*
X195958199Y-66899230D01*
X195923683Y-66725705D01*
X195891675Y-66648431D01*
X195855977Y-66562247D01*
X195855976Y-66562245D01*
X195757677Y-66415131D01*
X195757674Y-66415127D01*
X195632572Y-66290025D01*
X195632568Y-66290022D01*
X195485454Y-66191723D01*
X195485452Y-66191722D01*
X195321999Y-66124018D01*
X195321987Y-66124015D01*
X195148469Y-66089500D01*
X195148465Y-66089500D01*
X194971535Y-66089500D01*
X194971530Y-66089500D01*
X194798012Y-66124015D01*
X194798000Y-66124018D01*
X194634547Y-66191722D01*
X194634545Y-66191723D01*
X194487431Y-66290022D01*
X194487427Y-66290025D01*
X194362325Y-66415127D01*
X194362322Y-66415131D01*
X194264023Y-66562245D01*
X194264022Y-66562247D01*
X194196318Y-66725700D01*
X194196315Y-66725712D01*
X194161800Y-66899230D01*
X192838196Y-66899230D01*
X192822144Y-66860476D01*
X192692203Y-66648431D01*
X192692202Y-66648429D01*
X192618595Y-66562247D01*
X192530684Y-66459316D01*
X192405653Y-66352530D01*
X192341570Y-66297797D01*
X192341568Y-66297796D01*
X192129523Y-66167855D01*
X191899759Y-66072684D01*
X191657934Y-66014627D01*
X191410000Y-65995114D01*
X191162065Y-66014627D01*
X190920240Y-66072684D01*
X190690476Y-66167855D01*
X190478431Y-66297796D01*
X190478429Y-66297797D01*
X190289316Y-66459316D01*
X190127797Y-66648429D01*
X190127796Y-66648431D01*
X189997855Y-66860476D01*
X189902684Y-67090240D01*
X189844627Y-67332065D01*
X189825114Y-67580000D01*
X188638200Y-67580000D01*
X188638200Y-66899235D01*
X188603683Y-66725705D01*
X188571675Y-66648431D01*
X188535977Y-66562247D01*
X188535976Y-66562245D01*
X188437677Y-66415131D01*
X188437674Y-66415127D01*
X188312572Y-66290025D01*
X188312568Y-66290022D01*
X188165454Y-66191723D01*
X188165452Y-66191722D01*
X188001999Y-66124018D01*
X188001987Y-66124015D01*
X187828469Y-66089500D01*
X187828465Y-66089500D01*
X187651535Y-66089500D01*
X187651530Y-66089500D01*
X187478012Y-66124015D01*
X187478000Y-66124018D01*
X187314547Y-66191722D01*
X187314545Y-66191723D01*
X187167431Y-66290022D01*
X187167427Y-66290025D01*
X187042325Y-66415127D01*
X187042322Y-66415131D01*
X186944023Y-66562245D01*
X186944022Y-66562247D01*
X186876318Y-66725700D01*
X186876315Y-66725712D01*
X186841800Y-66899230D01*
X151958803Y-66899230D01*
X151944602Y-66809567D01*
X151844214Y-66434913D01*
X151705214Y-66072806D01*
X151529125Y-65727211D01*
X151317876Y-65401916D01*
X151073781Y-65100484D01*
X150799516Y-64826219D01*
X150618031Y-64679255D01*
X150498082Y-64582122D01*
X150371619Y-64499996D01*
X168079435Y-64499996D01*
X168079435Y-64500003D01*
X168099630Y-64679249D01*
X168099631Y-64679254D01*
X168159211Y-64849523D01*
X168255184Y-65002262D01*
X168382738Y-65129816D01*
X168535478Y-65225789D01*
X168705745Y-65285368D01*
X168705750Y-65285369D01*
X168884996Y-65305565D01*
X168885000Y-65305565D01*
X168885004Y-65305565D01*
X169064249Y-65285369D01*
X169064252Y-65285368D01*
X169064255Y-65285368D01*
X169234522Y-65225789D01*
X169387262Y-65129816D01*
X169514816Y-65002262D01*
X169610789Y-64849522D01*
X169618945Y-64826215D01*
X169630826Y-64792260D01*
X169643918Y-64754844D01*
X169684638Y-64698069D01*
X169749590Y-64672321D01*
X169818152Y-64685777D01*
X169865952Y-64729826D01*
X169905182Y-64792260D01*
X169905184Y-64792262D01*
X170032738Y-64919816D01*
X170185478Y-65015789D01*
X170355745Y-65075368D01*
X170355750Y-65075369D01*
X170534996Y-65095565D01*
X170535000Y-65095565D01*
X170535004Y-65095565D01*
X170714249Y-65075369D01*
X170714252Y-65075368D01*
X170714255Y-65075368D01*
X170884522Y-65015789D01*
X171037262Y-64919816D01*
X171164816Y-64792262D01*
X171260789Y-64639522D01*
X171320368Y-64469255D01*
X171320369Y-64469249D01*
X171340565Y-64290003D01*
X171340565Y-64289996D01*
X171320369Y-64110750D01*
X171320368Y-64110745D01*
X171260789Y-63940478D01*
X171164816Y-63787738D01*
X171037262Y-63660184D01*
X170884523Y-63564211D01*
X170714254Y-63504631D01*
X170714249Y-63504630D01*
X170535004Y-63484435D01*
X170534996Y-63484435D01*
X170355750Y-63504630D01*
X170355745Y-63504631D01*
X170185476Y-63564211D01*
X170032737Y-63660184D01*
X169905184Y-63787737D01*
X169809209Y-63940480D01*
X169776081Y-64035155D01*
X169735360Y-64091931D01*
X169670407Y-64117678D01*
X169601845Y-64104222D01*
X169554046Y-64060172D01*
X169514815Y-63997737D01*
X169387262Y-63870184D01*
X169234523Y-63774211D01*
X169064254Y-63714631D01*
X169064249Y-63714630D01*
X168885004Y-63694435D01*
X168884996Y-63694435D01*
X168705750Y-63714630D01*
X168705745Y-63714631D01*
X168535476Y-63774211D01*
X168382737Y-63870184D01*
X168255184Y-63997737D01*
X168159211Y-64150476D01*
X168099631Y-64320745D01*
X168099630Y-64320750D01*
X168079435Y-64499996D01*
X150371619Y-64499996D01*
X150172793Y-64370877D01*
X149827197Y-64194787D01*
X149465094Y-64055788D01*
X149465087Y-64055786D01*
X149090433Y-63955398D01*
X149090429Y-63955397D01*
X149090428Y-63955397D01*
X148707339Y-63894722D01*
X148320001Y-63874422D01*
X148319999Y-63874422D01*
X147932660Y-63894722D01*
X147549572Y-63955397D01*
X147549570Y-63955397D01*
X147174905Y-64055788D01*
X146812802Y-64194787D01*
X146467206Y-64370877D01*
X146141917Y-64582122D01*
X145840488Y-64826215D01*
X145840480Y-64826222D01*
X145566222Y-65100480D01*
X145566215Y-65100488D01*
X145322122Y-65401917D01*
X145110877Y-65727206D01*
X144934787Y-66072802D01*
X144795788Y-66434905D01*
X144695397Y-66809570D01*
X144695397Y-66809572D01*
X144669255Y-66974631D01*
X144634722Y-67192662D01*
X144614422Y-67580000D01*
X113570000Y-67580000D01*
X113570000Y-61210276D01*
X215045999Y-61205611D01*
X215113035Y-61225291D01*
G37*
%TD.AperFunction*%
%TD*%
%TA.AperFunction,Conductor*%
%TO.N,/SEC_PWR_TELEM_RTN*%
G36*
X113570000Y-74030000D02*
G01*
X122460000Y-74030000D01*
X122460000Y-102481000D01*
X122440315Y-102548039D01*
X122387511Y-102593794D01*
X122336000Y-102605000D01*
X56409500Y-102605000D01*
X56342461Y-102585315D01*
X56296706Y-102532511D01*
X56285500Y-102481000D01*
X56285500Y-100349998D01*
X116074645Y-100349998D01*
X116074645Y-100350001D01*
X116094039Y-100621160D01*
X116094040Y-100621167D01*
X116151823Y-100886793D01*
X116151825Y-100886801D01*
X116228330Y-101091920D01*
X116246830Y-101141519D01*
X116377109Y-101380107D01*
X116377110Y-101380108D01*
X116377113Y-101380113D01*
X116540029Y-101597742D01*
X116540033Y-101597746D01*
X116540038Y-101597752D01*
X116732247Y-101789961D01*
X116732253Y-101789966D01*
X116732258Y-101789971D01*
X116949887Y-101952887D01*
X116949891Y-101952889D01*
X116949892Y-101952890D01*
X117188481Y-102083169D01*
X117188480Y-102083169D01*
X117188484Y-102083170D01*
X117188487Y-102083172D01*
X117443199Y-102178175D01*
X117708840Y-102235961D01*
X117960605Y-102253967D01*
X117979999Y-102255355D01*
X117980000Y-102255355D01*
X117980001Y-102255355D01*
X117998100Y-102254060D01*
X118251160Y-102235961D01*
X118516801Y-102178175D01*
X118771513Y-102083172D01*
X118771517Y-102083169D01*
X118771519Y-102083169D01*
X118890813Y-102018029D01*
X119010113Y-101952887D01*
X119227742Y-101789971D01*
X119419971Y-101597742D01*
X119582887Y-101380113D01*
X119713172Y-101141513D01*
X119808175Y-100886801D01*
X119865961Y-100621160D01*
X119885355Y-100350000D01*
X119865961Y-100078840D01*
X119808175Y-99813199D01*
X119713172Y-99558487D01*
X119713170Y-99558484D01*
X119713169Y-99558480D01*
X119582890Y-99319892D01*
X119582889Y-99319891D01*
X119582887Y-99319887D01*
X119419971Y-99102258D01*
X119419966Y-99102253D01*
X119419961Y-99102247D01*
X119227752Y-98910038D01*
X119227746Y-98910033D01*
X119227742Y-98910029D01*
X119010113Y-98747113D01*
X119010108Y-98747110D01*
X119010107Y-98747109D01*
X118771518Y-98616830D01*
X118771519Y-98616830D01*
X118721920Y-98598330D01*
X118516801Y-98521825D01*
X118516794Y-98521823D01*
X118516793Y-98521823D01*
X118251167Y-98464040D01*
X118251160Y-98464039D01*
X117980001Y-98444645D01*
X117979999Y-98444645D01*
X117708839Y-98464039D01*
X117708832Y-98464040D01*
X117443206Y-98521823D01*
X117443202Y-98521824D01*
X117443199Y-98521825D01*
X117315843Y-98569326D01*
X117188480Y-98616830D01*
X116949892Y-98747109D01*
X116949891Y-98747110D01*
X116732259Y-98910028D01*
X116732247Y-98910038D01*
X116540038Y-99102247D01*
X116540028Y-99102259D01*
X116377110Y-99319891D01*
X116377109Y-99319892D01*
X116246830Y-99558480D01*
X116199326Y-99685843D01*
X116151825Y-99813199D01*
X116151824Y-99813202D01*
X116151823Y-99813206D01*
X116094040Y-100078832D01*
X116094039Y-100078839D01*
X116074645Y-100349998D01*
X56285500Y-100349998D01*
X56285500Y-96690000D01*
X62846732Y-96690000D01*
X62865785Y-97004989D01*
X62865785Y-97004994D01*
X62865786Y-97004995D01*
X62922669Y-97315396D01*
X62922670Y-97315400D01*
X62922671Y-97315404D01*
X63016545Y-97616659D01*
X63016549Y-97616670D01*
X63016550Y-97616673D01*
X63016552Y-97616678D01*
X63146066Y-97904446D01*
X63309326Y-98174510D01*
X63503943Y-98422920D01*
X63727079Y-98646056D01*
X63975489Y-98840673D01*
X63975492Y-98840675D01*
X63975495Y-98840677D01*
X64245554Y-99003934D01*
X64533322Y-99133448D01*
X64533332Y-99133451D01*
X64533340Y-99133454D01*
X64734176Y-99196036D01*
X64834604Y-99227331D01*
X65145005Y-99284214D01*
X65460000Y-99303268D01*
X65774995Y-99284214D01*
X66085396Y-99227331D01*
X66386678Y-99133448D01*
X66674446Y-99003934D01*
X66944505Y-98840677D01*
X67192917Y-98646059D01*
X67416059Y-98422917D01*
X67610677Y-98174505D01*
X67773934Y-97904446D01*
X67903448Y-97616678D01*
X67997331Y-97315396D01*
X68054214Y-97004995D01*
X68073268Y-96690000D01*
X68054214Y-96375005D01*
X67997331Y-96064604D01*
X67903448Y-95763322D01*
X67773934Y-95475554D01*
X67610677Y-95205495D01*
X67610675Y-95205492D01*
X67610673Y-95205489D01*
X67416056Y-94957079D01*
X67192920Y-94733943D01*
X66944510Y-94539326D01*
X66674446Y-94376066D01*
X66386678Y-94246552D01*
X66386673Y-94246550D01*
X66386670Y-94246549D01*
X66386659Y-94246545D01*
X66085404Y-94152671D01*
X66085400Y-94152670D01*
X66085396Y-94152669D01*
X65774995Y-94095786D01*
X65774994Y-94095785D01*
X65774989Y-94095785D01*
X65460000Y-94076732D01*
X65145010Y-94095785D01*
X65145005Y-94095786D01*
X64834604Y-94152669D01*
X64834601Y-94152669D01*
X64834595Y-94152671D01*
X64533340Y-94246545D01*
X64533329Y-94246549D01*
X64245553Y-94376066D01*
X63975489Y-94539326D01*
X63727079Y-94733943D01*
X63503943Y-94957079D01*
X63309326Y-95205489D01*
X63146066Y-95475553D01*
X63016549Y-95763329D01*
X63016545Y-95763340D01*
X62922671Y-96064595D01*
X62865785Y-96375010D01*
X62846732Y-96690000D01*
X56285500Y-96690000D01*
X56285500Y-80034998D01*
X62716965Y-80034998D01*
X62716965Y-80035001D01*
X62737064Y-80264737D01*
X62737066Y-80264748D01*
X62796751Y-80487497D01*
X62796753Y-80487501D01*
X62796754Y-80487505D01*
X62850266Y-80602262D01*
X62894218Y-80696518D01*
X62894220Y-80696522D01*
X63026496Y-80885432D01*
X63189567Y-81048503D01*
X63378477Y-81180779D01*
X63378479Y-81180780D01*
X63378482Y-81180782D01*
X63587495Y-81278246D01*
X63612689Y-81284996D01*
X63669521Y-81300225D01*
X63729181Y-81336590D01*
X63759710Y-81399437D01*
X63751415Y-81468813D01*
X63706930Y-81522691D01*
X63669521Y-81539775D01*
X63587499Y-81561752D01*
X63587493Y-81561755D01*
X63378484Y-81659217D01*
X63378482Y-81659218D01*
X63189566Y-81791497D01*
X63026497Y-81954566D01*
X62894218Y-82143482D01*
X62894217Y-82143484D01*
X62796755Y-82352493D01*
X62796751Y-82352502D01*
X62737066Y-82575251D01*
X62737064Y-82575262D01*
X62716965Y-82804998D01*
X62716965Y-82805001D01*
X62737064Y-83034737D01*
X62737066Y-83034748D01*
X62796751Y-83257497D01*
X62796753Y-83257501D01*
X62796754Y-83257505D01*
X62835020Y-83339566D01*
X62894218Y-83466518D01*
X62894220Y-83466522D01*
X63026496Y-83655432D01*
X63189567Y-83818503D01*
X63378477Y-83950779D01*
X63378479Y-83950780D01*
X63378482Y-83950782D01*
X63587495Y-84048246D01*
X63612689Y-84054996D01*
X63669521Y-84070225D01*
X63729181Y-84106590D01*
X63759710Y-84169437D01*
X63751415Y-84238813D01*
X63706930Y-84292691D01*
X63669521Y-84309775D01*
X63587499Y-84331752D01*
X63587493Y-84331755D01*
X63378484Y-84429217D01*
X63378482Y-84429218D01*
X63189566Y-84561497D01*
X63026497Y-84724566D01*
X62894218Y-84913482D01*
X62894217Y-84913484D01*
X62796755Y-85122493D01*
X62796751Y-85122502D01*
X62737066Y-85345251D01*
X62737064Y-85345262D01*
X62716965Y-85574998D01*
X62716965Y-85575001D01*
X62737064Y-85804737D01*
X62737066Y-85804748D01*
X62796751Y-86027497D01*
X62796753Y-86027501D01*
X62796754Y-86027505D01*
X62835020Y-86109566D01*
X62894218Y-86236518D01*
X62894220Y-86236522D01*
X63026496Y-86425432D01*
X63189567Y-86588503D01*
X63378477Y-86720779D01*
X63378479Y-86720780D01*
X63378482Y-86720782D01*
X63587495Y-86818246D01*
X63670487Y-86840483D01*
X63730146Y-86876847D01*
X63760676Y-86939694D01*
X63752382Y-87009070D01*
X63707897Y-87062948D01*
X63670487Y-87080033D01*
X63587672Y-87102223D01*
X63587665Y-87102226D01*
X63378740Y-87199649D01*
X63301961Y-87253409D01*
X63873847Y-87825294D01*
X63829638Y-87837141D01*
X63705362Y-87908891D01*
X63603891Y-88010362D01*
X63532141Y-88134638D01*
X63520295Y-88178847D01*
X62948409Y-87606961D01*
X62894649Y-87683740D01*
X62797226Y-87892665D01*
X62797222Y-87892674D01*
X62737560Y-88115339D01*
X62737558Y-88115350D01*
X62717467Y-88344998D01*
X62717467Y-88345001D01*
X62737558Y-88574649D01*
X62737560Y-88574660D01*
X62797222Y-88797325D01*
X62797226Y-88797334D01*
X62894652Y-89006265D01*
X62894653Y-89006267D01*
X62948408Y-89083037D01*
X62948409Y-89083038D01*
X63520294Y-88511152D01*
X63532141Y-88555362D01*
X63603891Y-88679638D01*
X63705362Y-88781109D01*
X63829638Y-88852859D01*
X63873847Y-88864704D01*
X63301960Y-89436590D01*
X63378737Y-89490348D01*
X63587665Y-89587773D01*
X63587674Y-89587777D01*
X63810339Y-89647439D01*
X63810350Y-89647441D01*
X64039998Y-89667533D01*
X64040002Y-89667533D01*
X64269649Y-89647441D01*
X64269660Y-89647439D01*
X64492325Y-89587777D01*
X64492334Y-89587773D01*
X64701264Y-89490348D01*
X64778038Y-89436590D01*
X64206152Y-88864705D01*
X64250362Y-88852859D01*
X64374638Y-88781109D01*
X64476109Y-88679638D01*
X64547859Y-88555362D01*
X64559705Y-88511152D01*
X65131590Y-89083038D01*
X65185348Y-89006264D01*
X65282773Y-88797334D01*
X65282777Y-88797325D01*
X65342439Y-88574660D01*
X65342441Y-88574649D01*
X65362533Y-88345001D01*
X65362533Y-88344998D01*
X65342441Y-88115350D01*
X65342439Y-88115339D01*
X65282777Y-87892674D01*
X65282773Y-87892665D01*
X65185348Y-87683736D01*
X65131589Y-87606961D01*
X64559704Y-88178846D01*
X64547859Y-88134638D01*
X64476109Y-88010362D01*
X64374638Y-87908891D01*
X64250362Y-87837141D01*
X64206152Y-87825295D01*
X64778038Y-87253409D01*
X64778037Y-87253408D01*
X64701267Y-87199653D01*
X64701265Y-87199652D01*
X64492334Y-87102226D01*
X64492328Y-87102223D01*
X64409512Y-87080033D01*
X64349852Y-87043668D01*
X64319323Y-86980821D01*
X64327618Y-86911445D01*
X64372103Y-86857567D01*
X64409511Y-86840483D01*
X64456059Y-86828011D01*
X64492495Y-86818249D01*
X64492496Y-86818248D01*
X64492505Y-86818246D01*
X64701518Y-86720782D01*
X64890431Y-86588504D01*
X65053504Y-86425431D01*
X65185782Y-86236518D01*
X65283246Y-86027505D01*
X65342935Y-85804743D01*
X65363035Y-85575000D01*
X65358764Y-85526188D01*
X65355855Y-85492935D01*
X65342935Y-85345257D01*
X65283246Y-85122495D01*
X65185782Y-84913483D01*
X65053504Y-84724569D01*
X65053502Y-84724566D01*
X64890432Y-84561496D01*
X64701522Y-84429220D01*
X64701518Y-84429218D01*
X64681186Y-84419737D01*
X64492505Y-84331754D01*
X64492501Y-84331753D01*
X64492497Y-84331751D01*
X64410479Y-84309775D01*
X64350818Y-84273410D01*
X64320289Y-84210563D01*
X64322748Y-84189998D01*
X65556965Y-84189998D01*
X65556965Y-84190001D01*
X65577064Y-84419737D01*
X65577066Y-84419748D01*
X65636751Y-84642497D01*
X65636753Y-84642501D01*
X65636754Y-84642505D01*
X65675020Y-84724566D01*
X65734218Y-84851518D01*
X65734220Y-84851522D01*
X65866496Y-85040432D01*
X66029567Y-85203503D01*
X66218477Y-85335779D01*
X66218479Y-85335780D01*
X66218482Y-85335782D01*
X66427495Y-85433246D01*
X66452689Y-85439996D01*
X66509521Y-85455225D01*
X66569181Y-85491590D01*
X66599710Y-85554437D01*
X66591415Y-85623813D01*
X66546930Y-85677691D01*
X66509521Y-85694775D01*
X66427499Y-85716752D01*
X66427493Y-85716755D01*
X66218484Y-85814217D01*
X66218482Y-85814218D01*
X66029566Y-85946497D01*
X65866497Y-86109566D01*
X65734218Y-86298482D01*
X65734217Y-86298484D01*
X65636755Y-86507493D01*
X65636751Y-86507502D01*
X65577066Y-86730251D01*
X65577064Y-86730262D01*
X65556965Y-86959998D01*
X65556965Y-86960001D01*
X65577064Y-87189737D01*
X65577066Y-87189748D01*
X65636751Y-87412497D01*
X65636753Y-87412501D01*
X65636754Y-87412505D01*
X65727430Y-87606961D01*
X65734218Y-87621518D01*
X65734220Y-87621522D01*
X65866496Y-87810432D01*
X66029567Y-87973503D01*
X66218477Y-88105779D01*
X66218479Y-88105780D01*
X66218482Y-88105782D01*
X66427495Y-88203246D01*
X66452689Y-88209996D01*
X66509521Y-88225225D01*
X66569181Y-88261590D01*
X66599710Y-88324437D01*
X66591415Y-88393813D01*
X66546930Y-88447691D01*
X66509521Y-88464775D01*
X66427499Y-88486752D01*
X66427493Y-88486755D01*
X66218484Y-88584217D01*
X66218482Y-88584218D01*
X66029566Y-88716497D01*
X65866497Y-88879566D01*
X65734218Y-89068482D01*
X65734217Y-89068484D01*
X65636755Y-89277493D01*
X65636751Y-89277502D01*
X65577066Y-89500251D01*
X65577064Y-89500262D01*
X65556965Y-89729998D01*
X65556965Y-89730001D01*
X65577064Y-89959737D01*
X65577066Y-89959748D01*
X65636751Y-90182497D01*
X65636753Y-90182501D01*
X65636754Y-90182505D01*
X65688442Y-90293351D01*
X65734218Y-90391518D01*
X65734220Y-90391522D01*
X65866496Y-90580432D01*
X66029567Y-90743503D01*
X66218477Y-90875779D01*
X66218479Y-90875780D01*
X66218482Y-90875782D01*
X66427495Y-90973246D01*
X66427501Y-90973247D01*
X66427502Y-90973248D01*
X66481114Y-90987613D01*
X66650257Y-91032935D01*
X66814359Y-91047292D01*
X66879998Y-91053035D01*
X66880000Y-91053035D01*
X66880002Y-91053035D01*
X66937435Y-91048010D01*
X67109743Y-91032935D01*
X67332505Y-90973246D01*
X67541518Y-90875782D01*
X67730431Y-90743504D01*
X67893504Y-90580431D01*
X68025782Y-90391518D01*
X68045144Y-90349996D01*
X87984435Y-90349996D01*
X87984435Y-90350003D01*
X88004630Y-90529249D01*
X88004631Y-90529254D01*
X88064211Y-90699523D01*
X88107836Y-90768951D01*
X88160184Y-90852262D01*
X88287738Y-90979816D01*
X88440478Y-91075789D01*
X88610745Y-91135368D01*
X88610750Y-91135369D01*
X88789996Y-91155565D01*
X88790000Y-91155565D01*
X88790004Y-91155565D01*
X88969249Y-91135369D01*
X88969252Y-91135368D01*
X88969255Y-91135368D01*
X89139522Y-91075789D01*
X89292262Y-90979816D01*
X89419816Y-90852262D01*
X89515789Y-90699522D01*
X89575368Y-90529255D01*
X89585544Y-90438942D01*
X89595565Y-90350003D01*
X89595565Y-90349996D01*
X89575369Y-90170750D01*
X89575368Y-90170745D01*
X89536616Y-90059998D01*
X101915147Y-90059998D01*
X101915147Y-90060001D01*
X101934536Y-90331090D01*
X101934537Y-90331097D01*
X101992305Y-90596654D01*
X102087285Y-90851306D01*
X102087287Y-90851310D01*
X102217532Y-91089835D01*
X102217537Y-91089843D01*
X102311321Y-91215123D01*
X102311322Y-91215124D01*
X103104153Y-90422293D01*
X103111049Y-90438942D01*
X103198599Y-90569970D01*
X103310030Y-90681401D01*
X103441058Y-90768951D01*
X103457705Y-90775846D01*
X102664874Y-91568676D01*
X102790163Y-91662466D01*
X102790164Y-91662467D01*
X103028689Y-91792712D01*
X103028693Y-91792714D01*
X103283345Y-91887694D01*
X103548902Y-91945462D01*
X103548909Y-91945463D01*
X103819999Y-91964853D01*
X103820001Y-91964853D01*
X104091090Y-91945463D01*
X104091097Y-91945462D01*
X104356654Y-91887694D01*
X104611306Y-91792714D01*
X104611310Y-91792712D01*
X104849844Y-91662462D01*
X104975123Y-91568677D01*
X104975124Y-91568676D01*
X104182294Y-90775846D01*
X104198942Y-90768951D01*
X104329970Y-90681401D01*
X104441401Y-90569970D01*
X104528951Y-90438942D01*
X104535846Y-90422294D01*
X105328676Y-91215124D01*
X105328677Y-91215123D01*
X105422462Y-91089844D01*
X105552712Y-90851310D01*
X105552714Y-90851306D01*
X105647694Y-90596654D01*
X105705462Y-90331097D01*
X105705463Y-90331090D01*
X105724853Y-90060001D01*
X105724853Y-90059998D01*
X105705463Y-89788909D01*
X105705462Y-89788902D01*
X105647694Y-89523345D01*
X105552714Y-89268693D01*
X105552712Y-89268689D01*
X105422467Y-89030164D01*
X105422466Y-89030163D01*
X105328676Y-88904874D01*
X104535846Y-89697704D01*
X104528951Y-89681058D01*
X104441401Y-89550030D01*
X104329970Y-89438599D01*
X104198942Y-89351049D01*
X104182294Y-89344153D01*
X104975124Y-88551322D01*
X104975123Y-88551321D01*
X104849843Y-88457537D01*
X104849835Y-88457532D01*
X104611310Y-88327287D01*
X104611306Y-88327285D01*
X104356654Y-88232305D01*
X104091097Y-88174537D01*
X104091090Y-88174536D01*
X103820001Y-88155147D01*
X103819999Y-88155147D01*
X103548909Y-88174536D01*
X103548902Y-88174537D01*
X103283345Y-88232305D01*
X103028693Y-88327285D01*
X103028689Y-88327287D01*
X102790164Y-88457532D01*
X102790156Y-88457537D01*
X102664875Y-88551321D01*
X102664874Y-88551322D01*
X103457705Y-89344153D01*
X103441058Y-89351049D01*
X103310030Y-89438599D01*
X103198599Y-89550030D01*
X103111049Y-89681058D01*
X103104153Y-89697705D01*
X102311322Y-88904874D01*
X102311321Y-88904875D01*
X102217537Y-89030156D01*
X102217532Y-89030164D01*
X102087287Y-89268689D01*
X102087285Y-89268693D01*
X101992305Y-89523345D01*
X101934537Y-89788902D01*
X101934536Y-89788909D01*
X101915147Y-90059998D01*
X89536616Y-90059998D01*
X89515789Y-90000478D01*
X89490193Y-89959743D01*
X89419815Y-89847737D01*
X89292262Y-89720184D01*
X89139523Y-89624211D01*
X88969254Y-89564631D01*
X88969249Y-89564630D01*
X88790004Y-89544435D01*
X88789996Y-89544435D01*
X88610750Y-89564630D01*
X88610745Y-89564631D01*
X88440476Y-89624211D01*
X88287737Y-89720184D01*
X88160184Y-89847737D01*
X88064211Y-90000476D01*
X88004631Y-90170745D01*
X88004630Y-90170750D01*
X87984435Y-90349996D01*
X68045144Y-90349996D01*
X68123246Y-90182505D01*
X68182935Y-89959743D01*
X68203035Y-89730000D01*
X68182935Y-89500257D01*
X68123246Y-89277495D01*
X68025782Y-89068483D01*
X67893504Y-88879569D01*
X67893502Y-88879566D01*
X67730432Y-88716496D01*
X67606897Y-88629996D01*
X88794435Y-88629996D01*
X88794435Y-88630003D01*
X88814630Y-88809249D01*
X88814631Y-88809254D01*
X88874211Y-88979523D01*
X88939254Y-89083037D01*
X88970184Y-89132262D01*
X89097738Y-89259816D01*
X89250478Y-89355789D01*
X89420745Y-89415368D01*
X89420750Y-89415369D01*
X89599996Y-89435565D01*
X89600000Y-89435565D01*
X89600004Y-89435565D01*
X89779249Y-89415369D01*
X89779252Y-89415368D01*
X89779255Y-89415368D01*
X89949522Y-89355789D01*
X90102262Y-89259816D01*
X90229816Y-89132262D01*
X90325789Y-88979522D01*
X90385368Y-88809255D01*
X90386711Y-88797334D01*
X90405565Y-88630003D01*
X90405565Y-88629996D01*
X90385369Y-88450750D01*
X90385368Y-88450745D01*
X90365447Y-88393813D01*
X90325789Y-88280478D01*
X90301806Y-88242310D01*
X90247038Y-88155147D01*
X90229816Y-88127738D01*
X90102262Y-88000184D01*
X90059801Y-87973504D01*
X89949523Y-87904211D01*
X89779254Y-87844631D01*
X89779249Y-87844630D01*
X89600004Y-87824435D01*
X89599996Y-87824435D01*
X89420750Y-87844630D01*
X89420745Y-87844631D01*
X89250476Y-87904211D01*
X89097737Y-88000184D01*
X88970184Y-88127737D01*
X88874211Y-88280476D01*
X88814631Y-88450745D01*
X88814630Y-88450750D01*
X88794435Y-88629996D01*
X67606897Y-88629996D01*
X67541522Y-88584220D01*
X67541518Y-88584218D01*
X67470970Y-88551321D01*
X67332505Y-88486754D01*
X67332501Y-88486753D01*
X67332497Y-88486751D01*
X67250479Y-88464775D01*
X67190818Y-88428410D01*
X67160289Y-88365563D01*
X67168584Y-88296188D01*
X67213069Y-88242310D01*
X67250479Y-88225225D01*
X67293955Y-88213575D01*
X67332505Y-88203246D01*
X67541518Y-88105782D01*
X67730431Y-87973504D01*
X67893504Y-87810431D01*
X68025782Y-87621518D01*
X68123246Y-87412505D01*
X68182935Y-87189743D01*
X68203035Y-86960000D01*
X68201258Y-86939694D01*
X68194073Y-86857567D01*
X68182935Y-86730257D01*
X68123246Y-86507495D01*
X68025782Y-86298483D01*
X67893504Y-86109569D01*
X67893502Y-86109566D01*
X67730432Y-85946496D01*
X67541522Y-85814220D01*
X67541518Y-85814218D01*
X67521186Y-85804737D01*
X67332505Y-85716754D01*
X67332501Y-85716753D01*
X67332497Y-85716751D01*
X67250479Y-85694775D01*
X67190818Y-85658410D01*
X67160289Y-85595563D01*
X67168584Y-85526188D01*
X67213069Y-85472310D01*
X67250479Y-85455225D01*
X67293955Y-85443575D01*
X67332505Y-85433246D01*
X67541518Y-85335782D01*
X67730431Y-85203504D01*
X67823939Y-85109996D01*
X75874435Y-85109996D01*
X75874435Y-85110003D01*
X75894630Y-85289249D01*
X75894631Y-85289254D01*
X75954211Y-85459523D01*
X75987835Y-85513035D01*
X76050184Y-85612262D01*
X76177738Y-85739816D01*
X76268080Y-85796582D01*
X76281076Y-85804748D01*
X76330478Y-85835789D01*
X76500745Y-85895368D01*
X76500750Y-85895369D01*
X76679996Y-85915565D01*
X76680000Y-85915565D01*
X76680004Y-85915565D01*
X76859249Y-85895369D01*
X76859252Y-85895368D01*
X76859255Y-85895368D01*
X77029522Y-85835789D01*
X77182262Y-85739816D01*
X77309816Y-85612262D01*
X77405789Y-85459522D01*
X77465368Y-85289255D01*
X77475030Y-85203503D01*
X77485565Y-85110003D01*
X77485565Y-85109996D01*
X77465369Y-84930750D01*
X77465368Y-84930745D01*
X77405788Y-84760476D01*
X77331662Y-84642506D01*
X77309816Y-84607738D01*
X77182262Y-84480184D01*
X77029523Y-84384211D01*
X76859254Y-84324631D01*
X76859249Y-84324630D01*
X76680004Y-84304435D01*
X76679996Y-84304435D01*
X76500750Y-84324630D01*
X76500745Y-84324631D01*
X76330476Y-84384211D01*
X76177737Y-84480184D01*
X76050184Y-84607737D01*
X75954211Y-84760476D01*
X75894631Y-84930745D01*
X75894630Y-84930750D01*
X75874435Y-85109996D01*
X67823939Y-85109996D01*
X67893504Y-85040431D01*
X68025782Y-84851518D01*
X68123246Y-84642505D01*
X68182935Y-84419743D01*
X68203035Y-84190000D01*
X68198764Y-84141188D01*
X68195855Y-84107935D01*
X68182935Y-83960257D01*
X68123246Y-83737495D01*
X68025782Y-83528483D01*
X67893504Y-83339569D01*
X67893502Y-83339566D01*
X67730432Y-83176496D01*
X67541522Y-83044220D01*
X67541518Y-83044218D01*
X67521186Y-83034737D01*
X67332505Y-82946754D01*
X67332502Y-82946753D01*
X67332500Y-82946752D01*
X67249512Y-82924516D01*
X67189852Y-82888151D01*
X67159323Y-82825304D01*
X67167618Y-82755928D01*
X67212103Y-82702050D01*
X67249514Y-82684966D01*
X67332323Y-82662778D01*
X67332334Y-82662773D01*
X67541264Y-82565348D01*
X67618038Y-82511590D01*
X67046152Y-81939705D01*
X67090362Y-81927859D01*
X67214638Y-81856109D01*
X67316109Y-81754638D01*
X67387859Y-81630362D01*
X67399705Y-81586152D01*
X67971590Y-82158038D01*
X68025348Y-82081264D01*
X68122773Y-81872334D01*
X68122777Y-81872325D01*
X68182439Y-81649660D01*
X68182441Y-81649649D01*
X68202533Y-81420001D01*
X68202533Y-81419998D01*
X68182441Y-81190350D01*
X68182439Y-81190339D01*
X68135457Y-81014996D01*
X107684435Y-81014996D01*
X107684435Y-81015003D01*
X107704630Y-81194249D01*
X107704631Y-81194254D01*
X107764211Y-81364523D01*
X107829741Y-81468813D01*
X107860184Y-81517262D01*
X107987738Y-81644816D01*
X108140478Y-81740789D01*
X108285390Y-81791496D01*
X108310745Y-81800368D01*
X108310750Y-81800369D01*
X108489996Y-81820565D01*
X108490000Y-81820565D01*
X108490004Y-81820565D01*
X108669249Y-81800369D01*
X108669252Y-81800368D01*
X108669255Y-81800368D01*
X108839522Y-81740789D01*
X108992262Y-81644816D01*
X109119816Y-81517262D01*
X109215789Y-81364522D01*
X109275368Y-81194255D01*
X109275808Y-81190350D01*
X109295565Y-81015003D01*
X109295565Y-81014996D01*
X109275369Y-80835750D01*
X109275368Y-80835745D01*
X109226650Y-80696518D01*
X109215789Y-80665478D01*
X109119816Y-80512738D01*
X108992262Y-80385184D01*
X108839523Y-80289211D01*
X108669254Y-80229631D01*
X108669249Y-80229630D01*
X108490004Y-80209435D01*
X108489996Y-80209435D01*
X108310750Y-80229630D01*
X108310745Y-80229631D01*
X108140476Y-80289211D01*
X107987737Y-80385184D01*
X107860184Y-80512737D01*
X107764211Y-80665476D01*
X107704631Y-80835745D01*
X107704630Y-80835750D01*
X107684435Y-81014996D01*
X68135457Y-81014996D01*
X68122777Y-80967674D01*
X68122773Y-80967665D01*
X68025348Y-80758736D01*
X67971589Y-80681961D01*
X67399704Y-81253846D01*
X67387859Y-81209638D01*
X67316109Y-81085362D01*
X67214638Y-80983891D01*
X67090362Y-80912141D01*
X67046152Y-80900295D01*
X67618038Y-80328409D01*
X67618037Y-80328408D01*
X67541267Y-80274653D01*
X67541265Y-80274652D01*
X67332334Y-80177226D01*
X67332325Y-80177222D01*
X67248548Y-80154775D01*
X67188887Y-80118410D01*
X67179942Y-80099996D01*
X89084435Y-80099996D01*
X89084435Y-80100003D01*
X89104630Y-80279249D01*
X89104631Y-80279254D01*
X89164211Y-80449523D01*
X89203932Y-80512738D01*
X89260184Y-80602262D01*
X89387738Y-80729816D01*
X89540478Y-80825789D01*
X89681115Y-80875000D01*
X89710745Y-80885368D01*
X89710750Y-80885369D01*
X89889996Y-80905565D01*
X89890000Y-80905565D01*
X89890004Y-80905565D01*
X90069249Y-80885369D01*
X90069252Y-80885368D01*
X90069255Y-80885368D01*
X90239522Y-80825789D01*
X90392262Y-80729816D01*
X90519816Y-80602262D01*
X90615789Y-80449522D01*
X90675368Y-80279255D01*
X90680959Y-80229632D01*
X90695565Y-80100003D01*
X90695565Y-80099996D01*
X90675369Y-79920750D01*
X90675368Y-79920745D01*
X90634955Y-79805251D01*
X90615789Y-79750478D01*
X90610204Y-79741590D01*
X90519815Y-79597737D01*
X90392262Y-79470184D01*
X90239523Y-79374211D01*
X90069254Y-79314631D01*
X90069249Y-79314630D01*
X89890004Y-79294435D01*
X89889996Y-79294435D01*
X89710750Y-79314630D01*
X89710745Y-79314631D01*
X89540476Y-79374211D01*
X89387737Y-79470184D01*
X89260184Y-79597737D01*
X89164211Y-79750476D01*
X89104631Y-79920745D01*
X89104630Y-79920750D01*
X89084435Y-80099996D01*
X67179942Y-80099996D01*
X67158358Y-80055564D01*
X67166652Y-79986188D01*
X67211138Y-79932310D01*
X67248548Y-79915225D01*
X67332325Y-79892777D01*
X67332334Y-79892773D01*
X67541264Y-79795348D01*
X67618038Y-79741590D01*
X67046152Y-79169705D01*
X67090362Y-79157859D01*
X67214638Y-79086109D01*
X67316109Y-78984638D01*
X67387859Y-78860362D01*
X67399705Y-78816152D01*
X67971590Y-79388038D01*
X68025348Y-79311264D01*
X68122773Y-79102334D01*
X68122777Y-79102325D01*
X68182439Y-78879660D01*
X68182441Y-78879649D01*
X68202533Y-78650001D01*
X68202533Y-78649998D01*
X68182441Y-78420350D01*
X68182439Y-78420339D01*
X68122777Y-78197674D01*
X68122773Y-78197665D01*
X68025348Y-77988736D01*
X67971589Y-77911961D01*
X67399704Y-78483846D01*
X67387859Y-78439638D01*
X67316109Y-78315362D01*
X67214638Y-78213891D01*
X67090362Y-78142141D01*
X67046152Y-78130295D01*
X67618038Y-77558409D01*
X67618037Y-77558408D01*
X67541267Y-77504653D01*
X67541265Y-77504652D01*
X67332334Y-77407226D01*
X67332325Y-77407222D01*
X67109660Y-77347560D01*
X67109649Y-77347558D01*
X66880002Y-77327467D01*
X66879998Y-77327467D01*
X66650350Y-77347558D01*
X66650339Y-77347560D01*
X66427674Y-77407222D01*
X66427665Y-77407226D01*
X66218740Y-77504649D01*
X66141961Y-77558409D01*
X66713847Y-78130294D01*
X66669638Y-78142141D01*
X66545362Y-78213891D01*
X66443891Y-78315362D01*
X66372141Y-78439638D01*
X66360295Y-78483847D01*
X65788409Y-77911961D01*
X65734649Y-77988740D01*
X65637226Y-78197665D01*
X65637222Y-78197674D01*
X65577560Y-78420339D01*
X65577558Y-78420350D01*
X65557467Y-78649998D01*
X65557467Y-78650001D01*
X65577558Y-78879649D01*
X65577560Y-78879660D01*
X65637222Y-79102325D01*
X65637226Y-79102334D01*
X65734652Y-79311265D01*
X65734653Y-79311267D01*
X65788408Y-79388037D01*
X65788409Y-79388038D01*
X66360294Y-78816152D01*
X66372141Y-78860362D01*
X66443891Y-78984638D01*
X66545362Y-79086109D01*
X66669638Y-79157859D01*
X66713847Y-79169704D01*
X66141960Y-79741590D01*
X66218737Y-79795348D01*
X66427665Y-79892773D01*
X66427674Y-79892777D01*
X66511451Y-79915225D01*
X66571112Y-79951590D01*
X66601641Y-80014437D01*
X66593346Y-80083812D01*
X66548861Y-80137690D01*
X66511451Y-80154775D01*
X66427674Y-80177222D01*
X66427665Y-80177226D01*
X66218740Y-80274649D01*
X66141961Y-80328409D01*
X66713847Y-80900294D01*
X66669638Y-80912141D01*
X66545362Y-80983891D01*
X66443891Y-81085362D01*
X66372141Y-81209638D01*
X66360295Y-81253847D01*
X65788409Y-80681961D01*
X65734649Y-80758740D01*
X65637226Y-80967665D01*
X65637222Y-80967674D01*
X65577560Y-81190339D01*
X65577558Y-81190350D01*
X65557467Y-81419998D01*
X65557467Y-81420001D01*
X65577558Y-81649649D01*
X65577560Y-81649660D01*
X65637222Y-81872325D01*
X65637226Y-81872334D01*
X65734652Y-82081265D01*
X65734653Y-82081267D01*
X65788408Y-82158037D01*
X65788409Y-82158038D01*
X66360294Y-81586152D01*
X66372141Y-81630362D01*
X66443891Y-81754638D01*
X66545362Y-81856109D01*
X66669638Y-81927859D01*
X66713847Y-81939704D01*
X66141960Y-82511590D01*
X66218737Y-82565348D01*
X66427665Y-82662773D01*
X66427674Y-82662777D01*
X66510486Y-82684966D01*
X66570146Y-82721330D01*
X66600676Y-82784177D01*
X66592382Y-82853553D01*
X66547897Y-82907431D01*
X66510487Y-82924516D01*
X66427500Y-82946752D01*
X66427493Y-82946755D01*
X66218484Y-83044217D01*
X66218482Y-83044218D01*
X66029566Y-83176497D01*
X65866497Y-83339566D01*
X65734218Y-83528482D01*
X65734217Y-83528484D01*
X65636755Y-83737493D01*
X65636751Y-83737502D01*
X65577066Y-83960251D01*
X65577064Y-83960262D01*
X65556965Y-84189998D01*
X64322748Y-84189998D01*
X64328584Y-84141188D01*
X64373069Y-84087310D01*
X64410479Y-84070225D01*
X64453955Y-84058575D01*
X64492505Y-84048246D01*
X64701518Y-83950782D01*
X64890431Y-83818504D01*
X65053504Y-83655431D01*
X65185782Y-83466518D01*
X65283246Y-83257505D01*
X65342935Y-83034743D01*
X65363035Y-82805000D01*
X65342935Y-82575257D01*
X65283246Y-82352495D01*
X65185782Y-82143483D01*
X65053504Y-81954569D01*
X65053502Y-81954566D01*
X64890432Y-81791496D01*
X64701522Y-81659220D01*
X64701518Y-81659218D01*
X64670633Y-81644816D01*
X64492505Y-81561754D01*
X64492501Y-81561753D01*
X64492497Y-81561751D01*
X64410479Y-81539775D01*
X64350818Y-81503410D01*
X64320289Y-81440563D01*
X64328584Y-81371188D01*
X64373069Y-81317310D01*
X64410479Y-81300225D01*
X64453955Y-81288575D01*
X64492505Y-81278246D01*
X64701518Y-81180782D01*
X64890431Y-81048504D01*
X65053504Y-80885431D01*
X65185782Y-80696518D01*
X65283246Y-80487505D01*
X65342935Y-80264743D01*
X65363035Y-80035000D01*
X65358764Y-79986188D01*
X65357292Y-79969359D01*
X65342935Y-79805257D01*
X65283246Y-79582495D01*
X65185782Y-79373483D01*
X65053504Y-79184569D01*
X65053502Y-79184566D01*
X64890432Y-79021496D01*
X64701522Y-78889220D01*
X64701518Y-78889218D01*
X64639636Y-78860362D01*
X64492505Y-78791754D01*
X64492501Y-78791753D01*
X64492497Y-78791751D01*
X64269748Y-78732066D01*
X64269744Y-78732065D01*
X64269743Y-78732065D01*
X64269742Y-78732064D01*
X64269737Y-78732064D01*
X64040002Y-78711965D01*
X64039998Y-78711965D01*
X63810262Y-78732064D01*
X63810251Y-78732066D01*
X63587502Y-78791751D01*
X63587493Y-78791755D01*
X63378484Y-78889217D01*
X63378482Y-78889218D01*
X63189566Y-79021497D01*
X63026497Y-79184566D01*
X62894218Y-79373482D01*
X62894217Y-79373484D01*
X62796755Y-79582493D01*
X62796751Y-79582502D01*
X62737066Y-79805251D01*
X62737064Y-79805262D01*
X62716965Y-80034998D01*
X56285500Y-80034998D01*
X56285500Y-75269998D01*
X89004645Y-75269998D01*
X89004645Y-75270001D01*
X89024039Y-75541160D01*
X89024040Y-75541167D01*
X89081823Y-75806793D01*
X89081825Y-75806801D01*
X89158330Y-76011920D01*
X89176830Y-76061519D01*
X89307109Y-76300107D01*
X89307110Y-76300108D01*
X89307113Y-76300113D01*
X89470029Y-76517742D01*
X89470033Y-76517746D01*
X89470038Y-76517752D01*
X89662247Y-76709961D01*
X89662253Y-76709966D01*
X89662258Y-76709971D01*
X89879887Y-76872887D01*
X89879891Y-76872889D01*
X89879892Y-76872890D01*
X90118481Y-77003169D01*
X90118480Y-77003169D01*
X90118484Y-77003170D01*
X90118487Y-77003172D01*
X90373199Y-77098175D01*
X90638840Y-77155961D01*
X90890605Y-77173967D01*
X90909999Y-77175355D01*
X90910000Y-77175355D01*
X90910001Y-77175355D01*
X90928100Y-77174060D01*
X91181160Y-77155961D01*
X91446801Y-77098175D01*
X91701513Y-77003172D01*
X91701517Y-77003169D01*
X91701519Y-77003169D01*
X91820813Y-76938029D01*
X91940113Y-76872887D01*
X92157742Y-76709971D01*
X92349971Y-76517742D01*
X92512887Y-76300113D01*
X92643172Y-76061513D01*
X92738175Y-75806801D01*
X92795961Y-75541160D01*
X92815355Y-75270000D01*
X92795961Y-74998840D01*
X92738175Y-74733199D01*
X92643172Y-74478487D01*
X92643170Y-74478484D01*
X92643169Y-74478480D01*
X92512890Y-74239892D01*
X92512889Y-74239891D01*
X92512887Y-74239887D01*
X92349971Y-74022258D01*
X92349966Y-74022253D01*
X92349961Y-74022247D01*
X92157752Y-73830038D01*
X92157746Y-73830033D01*
X92157742Y-73830029D01*
X91940113Y-73667113D01*
X91940108Y-73667110D01*
X91940107Y-73667109D01*
X91701518Y-73536830D01*
X91701519Y-73536830D01*
X91651920Y-73518330D01*
X91446801Y-73441825D01*
X91446794Y-73441823D01*
X91446793Y-73441823D01*
X91181167Y-73384040D01*
X91181160Y-73384039D01*
X90910001Y-73364645D01*
X90909999Y-73364645D01*
X90638839Y-73384039D01*
X90638832Y-73384040D01*
X90373206Y-73441823D01*
X90373202Y-73441824D01*
X90373199Y-73441825D01*
X90245843Y-73489326D01*
X90118480Y-73536830D01*
X89879892Y-73667109D01*
X89879891Y-73667110D01*
X89662259Y-73830028D01*
X89662247Y-73830038D01*
X89470038Y-74022247D01*
X89470028Y-74022259D01*
X89307110Y-74239891D01*
X89307109Y-74239892D01*
X89176830Y-74478480D01*
X89129326Y-74605843D01*
X89081825Y-74733199D01*
X89081824Y-74733202D01*
X89081823Y-74733206D01*
X89024040Y-74998832D01*
X89024039Y-74998839D01*
X89004645Y-75269998D01*
X56285500Y-75269998D01*
X56285500Y-71690000D01*
X62846732Y-71690000D01*
X62865785Y-72004989D01*
X62865785Y-72004994D01*
X62865786Y-72004995D01*
X62922669Y-72315396D01*
X62922670Y-72315400D01*
X62922671Y-72315404D01*
X63016545Y-72616659D01*
X63016549Y-72616670D01*
X63016550Y-72616673D01*
X63016552Y-72616678D01*
X63146066Y-72904446D01*
X63309326Y-73174510D01*
X63503943Y-73422920D01*
X63727079Y-73646056D01*
X63975489Y-73840673D01*
X63975492Y-73840675D01*
X63975495Y-73840677D01*
X64245554Y-74003934D01*
X64533322Y-74133448D01*
X64533332Y-74133451D01*
X64533340Y-74133454D01*
X64734176Y-74196036D01*
X64834604Y-74227331D01*
X65145005Y-74284214D01*
X65460000Y-74303268D01*
X65774995Y-74284214D01*
X66085396Y-74227331D01*
X66386678Y-74133448D01*
X66674446Y-74003934D01*
X66944505Y-73840677D01*
X67192917Y-73646059D01*
X67416059Y-73422917D01*
X67610677Y-73174505D01*
X67773934Y-72904446D01*
X67903448Y-72616678D01*
X67997331Y-72315396D01*
X68054214Y-72004995D01*
X68073268Y-71690000D01*
X68054214Y-71375005D01*
X67997331Y-71064604D01*
X67903448Y-70763322D01*
X67773934Y-70475554D01*
X67610677Y-70205495D01*
X67610675Y-70205492D01*
X67610673Y-70205489D01*
X67416056Y-69957079D01*
X67192920Y-69733943D01*
X66944510Y-69539326D01*
X66674446Y-69376066D01*
X66598363Y-69341824D01*
X66386678Y-69246552D01*
X66386673Y-69246550D01*
X66386670Y-69246549D01*
X66386659Y-69246545D01*
X66085404Y-69152671D01*
X66085400Y-69152670D01*
X66085396Y-69152669D01*
X65774995Y-69095786D01*
X65774994Y-69095785D01*
X65774989Y-69095785D01*
X65460000Y-69076732D01*
X65145010Y-69095785D01*
X65145005Y-69095786D01*
X64834604Y-69152669D01*
X64834601Y-69152669D01*
X64834595Y-69152671D01*
X64533340Y-69246545D01*
X64533329Y-69246549D01*
X64245553Y-69376066D01*
X63975489Y-69539326D01*
X63727079Y-69733943D01*
X63503943Y-69957079D01*
X63309326Y-70205489D01*
X63146066Y-70475553D01*
X63016549Y-70763329D01*
X63016545Y-70763340D01*
X62922671Y-71064595D01*
X62922669Y-71064601D01*
X62922669Y-71064604D01*
X62885894Y-71265277D01*
X62865785Y-71375010D01*
X62846732Y-71690000D01*
X56285500Y-71690000D01*
X56285500Y-67579999D01*
X72614422Y-67579999D01*
X72614422Y-67580000D01*
X72634722Y-67967339D01*
X72670875Y-68195600D01*
X72695398Y-68350433D01*
X72786764Y-68691418D01*
X72795788Y-68725094D01*
X72934787Y-69087197D01*
X73110877Y-69432793D01*
X73322122Y-69758082D01*
X73322124Y-69758084D01*
X73566219Y-70059516D01*
X73840484Y-70333781D01*
X73985105Y-70450893D01*
X74141917Y-70577877D01*
X74467206Y-70789122D01*
X74467211Y-70789125D01*
X74812806Y-70965214D01*
X75174913Y-71104214D01*
X75549567Y-71204602D01*
X75932662Y-71265278D01*
X76298576Y-71284455D01*
X76319999Y-71285578D01*
X76320000Y-71285578D01*
X76320001Y-71285578D01*
X76340301Y-71284514D01*
X76707338Y-71265278D01*
X77090433Y-71204602D01*
X77465087Y-71104214D01*
X77827194Y-70965214D01*
X78172789Y-70789125D01*
X78498084Y-70577876D01*
X78799516Y-70333781D01*
X79073781Y-70059516D01*
X79317876Y-69758084D01*
X79529125Y-69432789D01*
X79705214Y-69087194D01*
X79778760Y-68895600D01*
X88545607Y-68895600D01*
X88564748Y-69138819D01*
X88621703Y-69376057D01*
X88715068Y-69601461D01*
X88838904Y-69803541D01*
X89461089Y-69181355D01*
X89480068Y-69227174D01*
X89556674Y-69341824D01*
X89654176Y-69439326D01*
X89768826Y-69515932D01*
X89814642Y-69534909D01*
X89192457Y-70157094D01*
X89394538Y-70280931D01*
X89619942Y-70374296D01*
X89857180Y-70431251D01*
X89857179Y-70431251D01*
X90100400Y-70450392D01*
X90343619Y-70431251D01*
X90580857Y-70374296D01*
X90806261Y-70280931D01*
X91008341Y-70157095D01*
X91008341Y-70157094D01*
X90386157Y-69534909D01*
X90431974Y-69515932D01*
X90546624Y-69439326D01*
X90644126Y-69341824D01*
X90720732Y-69227174D01*
X90739709Y-69181356D01*
X91361894Y-69803541D01*
X91361895Y-69803541D01*
X91485731Y-69601461D01*
X91579096Y-69376057D01*
X91636051Y-69138819D01*
X91655192Y-68895600D01*
X92355106Y-68895600D01*
X92374253Y-69138897D01*
X92374253Y-69138900D01*
X92374254Y-69138902D01*
X92400723Y-69249153D01*
X92431230Y-69376219D01*
X92524622Y-69601689D01*
X92652137Y-69809773D01*
X92652138Y-69809776D01*
X92652141Y-69809779D01*
X92810641Y-69995359D01*
X92885763Y-70059519D01*
X92996223Y-70153861D01*
X92996226Y-70153862D01*
X93204310Y-70281377D01*
X93429781Y-70374769D01*
X93429778Y-70374769D01*
X93429784Y-70374770D01*
X93429788Y-70374772D01*
X93667098Y-70431746D01*
X93910400Y-70450894D01*
X94153702Y-70431746D01*
X94391012Y-70374772D01*
X94616489Y-70281377D01*
X94824579Y-70153859D01*
X95010159Y-69995359D01*
X95168659Y-69809779D01*
X95296177Y-69601689D01*
X95389572Y-69376212D01*
X95446546Y-69138902D01*
X95465694Y-68895600D01*
X96165607Y-68895600D01*
X96184748Y-69138819D01*
X96241703Y-69376057D01*
X96335068Y-69601461D01*
X96458904Y-69803541D01*
X97081089Y-69181355D01*
X97100068Y-69227174D01*
X97176674Y-69341824D01*
X97274176Y-69439326D01*
X97388826Y-69515932D01*
X97434642Y-69534909D01*
X96812457Y-70157094D01*
X97014538Y-70280931D01*
X97239942Y-70374296D01*
X97477180Y-70431251D01*
X97477179Y-70431251D01*
X97720400Y-70450392D01*
X97963619Y-70431251D01*
X98200857Y-70374296D01*
X98426261Y-70280931D01*
X98628341Y-70157095D01*
X98628341Y-70157094D01*
X98006157Y-69534909D01*
X98051974Y-69515932D01*
X98166624Y-69439326D01*
X98264126Y-69341824D01*
X98340732Y-69227174D01*
X98359709Y-69181356D01*
X98981894Y-69803541D01*
X98981895Y-69803541D01*
X99105731Y-69601461D01*
X99199096Y-69376057D01*
X99256051Y-69138819D01*
X99275192Y-68895600D01*
X99256051Y-68652380D01*
X99199096Y-68415142D01*
X99105731Y-68189738D01*
X98981894Y-67987657D01*
X98359709Y-68609842D01*
X98340732Y-68564026D01*
X98264126Y-68449376D01*
X98166624Y-68351874D01*
X98051974Y-68275268D01*
X98006156Y-68256289D01*
X98628341Y-67634104D01*
X98426261Y-67510268D01*
X98200857Y-67416903D01*
X97963619Y-67359948D01*
X97963620Y-67359948D01*
X97720400Y-67340807D01*
X97477180Y-67359948D01*
X97239942Y-67416903D01*
X97014538Y-67510268D01*
X96812457Y-67634104D01*
X97434643Y-68256289D01*
X97388826Y-68275268D01*
X97274176Y-68351874D01*
X97176674Y-68449376D01*
X97100068Y-68564026D01*
X97081090Y-68609843D01*
X96458904Y-67987657D01*
X96335068Y-68189738D01*
X96241703Y-68415142D01*
X96184748Y-68652380D01*
X96165607Y-68895600D01*
X95465694Y-68895600D01*
X95446546Y-68652298D01*
X95389572Y-68414988D01*
X95362830Y-68350427D01*
X95296177Y-68189510D01*
X95168662Y-67981426D01*
X95168661Y-67981423D01*
X95132853Y-67939497D01*
X95010159Y-67795841D01*
X94887463Y-67691049D01*
X94824576Y-67637338D01*
X94824573Y-67637337D01*
X94616489Y-67509822D01*
X94391018Y-67416430D01*
X94391021Y-67416430D01*
X94285392Y-67391070D01*
X94153702Y-67359454D01*
X94153700Y-67359453D01*
X94153697Y-67359453D01*
X93910400Y-67340306D01*
X93667102Y-67359453D01*
X93429780Y-67416430D01*
X93204310Y-67509822D01*
X92996226Y-67637337D01*
X92996223Y-67637338D01*
X92810641Y-67795841D01*
X92652138Y-67981423D01*
X92652137Y-67981426D01*
X92524622Y-68189510D01*
X92431230Y-68414980D01*
X92374253Y-68652302D01*
X92355106Y-68895600D01*
X91655192Y-68895600D01*
X91636051Y-68652380D01*
X91579096Y-68415142D01*
X91485731Y-68189738D01*
X91361894Y-67987657D01*
X90739709Y-68609842D01*
X90720732Y-68564026D01*
X90644126Y-68449376D01*
X90546624Y-68351874D01*
X90431974Y-68275268D01*
X90386156Y-68256289D01*
X91008341Y-67634104D01*
X90806261Y-67510268D01*
X90580857Y-67416903D01*
X90343619Y-67359948D01*
X90343620Y-67359948D01*
X90100400Y-67340807D01*
X89857180Y-67359948D01*
X89619942Y-67416903D01*
X89394538Y-67510268D01*
X89192457Y-67634104D01*
X89814643Y-68256289D01*
X89768826Y-68275268D01*
X89654176Y-68351874D01*
X89556674Y-68449376D01*
X89480068Y-68564026D01*
X89461090Y-68609843D01*
X88838904Y-67987657D01*
X88715068Y-68189738D01*
X88621703Y-68415142D01*
X88564748Y-68652380D01*
X88545607Y-68895600D01*
X79778760Y-68895600D01*
X79844214Y-68725087D01*
X79944602Y-68350433D01*
X80005278Y-67967338D01*
X80025578Y-67580000D01*
X80005278Y-67192662D01*
X79944602Y-66809567D01*
X79844214Y-66434913D01*
X79705214Y-66072806D01*
X79529125Y-65727211D01*
X79317876Y-65401916D01*
X79073781Y-65100484D01*
X78799516Y-64826219D01*
X78498084Y-64582124D01*
X78498082Y-64582122D01*
X78172793Y-64370877D01*
X77827197Y-64194787D01*
X77465094Y-64055788D01*
X77465087Y-64055786D01*
X77090433Y-63955398D01*
X77090429Y-63955397D01*
X77090428Y-63955397D01*
X76707339Y-63894722D01*
X76320001Y-63874422D01*
X76319999Y-63874422D01*
X75932660Y-63894722D01*
X75549572Y-63955397D01*
X75549570Y-63955397D01*
X75174905Y-64055788D01*
X74812802Y-64194787D01*
X74467206Y-64370877D01*
X74141917Y-64582122D01*
X73840488Y-64826215D01*
X73840480Y-64826222D01*
X73566222Y-65100480D01*
X73566215Y-65100488D01*
X73322122Y-65401917D01*
X73110877Y-65727206D01*
X72934787Y-66072802D01*
X72795788Y-66434905D01*
X72695397Y-66809570D01*
X72695397Y-66809572D01*
X72634722Y-67192660D01*
X72614422Y-67579999D01*
X56285500Y-67579999D01*
X56285500Y-62614505D01*
X56286071Y-62602616D01*
X56305522Y-62400681D01*
X56308813Y-62381862D01*
X56358386Y-62187918D01*
X56364529Y-62169829D01*
X56368173Y-62161317D01*
X56443307Y-61985796D01*
X56452145Y-61968885D01*
X56558266Y-61799125D01*
X56569591Y-61783780D01*
X56700538Y-61632325D01*
X56714081Y-61618907D01*
X56866731Y-61489370D01*
X56882184Y-61478184D01*
X57052910Y-61373640D01*
X57069921Y-61364950D01*
X57254669Y-61287876D01*
X57272809Y-61281901D01*
X57467208Y-61234120D01*
X57486041Y-61231006D01*
X57689407Y-61213310D01*
X57700112Y-61212844D01*
X113570000Y-61210275D01*
X113570000Y-74030000D01*
G37*
%TD.AperFunction*%
%TD*%
%TA.AperFunction,Conductor*%
%TO.N,/SEC_PWR_RTN*%
G36*
X239377539Y-74684685D02*
G01*
X239423294Y-74737489D01*
X239434500Y-74789000D01*
X239434500Y-95876965D01*
X239414815Y-95944004D01*
X239362011Y-95989759D01*
X239292853Y-95999703D01*
X239229297Y-95970678D01*
X239209221Y-95947005D01*
X239208680Y-95947399D01*
X239205814Y-95943455D01*
X239205813Y-95943454D01*
X239205812Y-95943452D01*
X239041699Y-95751301D01*
X238849548Y-95587188D01*
X238849546Y-95587186D01*
X238849544Y-95587185D01*
X238849542Y-95587184D01*
X238634090Y-95455154D01*
X238400630Y-95358452D01*
X238154912Y-95299461D01*
X238154913Y-95299461D01*
X237903000Y-95279636D01*
X237651087Y-95299461D01*
X237405369Y-95358452D01*
X237171909Y-95455154D01*
X236956457Y-95587184D01*
X236956455Y-95587185D01*
X236764301Y-95751301D01*
X236600185Y-95943455D01*
X236600184Y-95943457D01*
X236468154Y-96158909D01*
X236371452Y-96392369D01*
X236312461Y-96638087D01*
X236292636Y-96890000D01*
X236312461Y-97141912D01*
X236371452Y-97387630D01*
X236468154Y-97621090D01*
X236600184Y-97836542D01*
X236600185Y-97836544D01*
X236600186Y-97836546D01*
X236600188Y-97836548D01*
X236764301Y-98028699D01*
X236956452Y-98192812D01*
X236956454Y-98192813D01*
X236956455Y-98192814D01*
X236956457Y-98192815D01*
X237171909Y-98324845D01*
X237405369Y-98421547D01*
X237444032Y-98430829D01*
X237651084Y-98480538D01*
X237903000Y-98500364D01*
X238154916Y-98480538D01*
X238400630Y-98421547D01*
X238634090Y-98324845D01*
X238849548Y-98192812D01*
X239041699Y-98028699D01*
X239205812Y-97836548D01*
X239205816Y-97836540D01*
X239208680Y-97832601D01*
X239209974Y-97833541D01*
X239256576Y-97791373D01*
X239325505Y-97779945D01*
X239389669Y-97807597D01*
X239428699Y-97865550D01*
X239434500Y-97903034D01*
X239434500Y-100956965D01*
X239414815Y-101024004D01*
X239362011Y-101069759D01*
X239292853Y-101079703D01*
X239229297Y-101050678D01*
X239209221Y-101027005D01*
X239208680Y-101027399D01*
X239205814Y-101023455D01*
X239205813Y-101023454D01*
X239205812Y-101023452D01*
X239041699Y-100831301D01*
X238849548Y-100667188D01*
X238849546Y-100667186D01*
X238849544Y-100667185D01*
X238849542Y-100667184D01*
X238634090Y-100535154D01*
X238400630Y-100438452D01*
X238154912Y-100379461D01*
X238154913Y-100379461D01*
X237903000Y-100359636D01*
X237651087Y-100379461D01*
X237405369Y-100438452D01*
X237171909Y-100535154D01*
X236956457Y-100667184D01*
X236956455Y-100667185D01*
X236764301Y-100831301D01*
X236600185Y-101023455D01*
X236600184Y-101023457D01*
X236468154Y-101238909D01*
X236371452Y-101472369D01*
X236312461Y-101718087D01*
X236292636Y-101970000D01*
X236312461Y-102221912D01*
X236371452Y-102467630D01*
X236468154Y-102701090D01*
X236600184Y-102916542D01*
X236600185Y-102916544D01*
X236600186Y-102916546D01*
X236600188Y-102916548D01*
X236764301Y-103108699D01*
X236956452Y-103272812D01*
X236956454Y-103272813D01*
X236956455Y-103272814D01*
X236956457Y-103272815D01*
X237171909Y-103404845D01*
X237405369Y-103501547D01*
X237444032Y-103510829D01*
X237651084Y-103560538D01*
X237903000Y-103580364D01*
X238154916Y-103560538D01*
X238400630Y-103501547D01*
X238634090Y-103404845D01*
X238849548Y-103272812D01*
X239041699Y-103108699D01*
X239205812Y-102916548D01*
X239205816Y-102916540D01*
X239208680Y-102912601D01*
X239209974Y-102913541D01*
X239256576Y-102871373D01*
X239325505Y-102859945D01*
X239389669Y-102887597D01*
X239428699Y-102945550D01*
X239434500Y-102983034D01*
X239434500Y-132437889D01*
X239433766Y-132451362D01*
X239419417Y-132582642D01*
X239414463Y-132606293D01*
X239376449Y-132727442D01*
X239367004Y-132749682D01*
X239306216Y-132861160D01*
X239292636Y-132881146D01*
X239211385Y-132978715D01*
X239194186Y-132995688D01*
X239095555Y-133075647D01*
X239075393Y-133088963D01*
X238963121Y-133148280D01*
X238940757Y-133157432D01*
X238819125Y-133193844D01*
X238795411Y-133198486D01*
X238662959Y-133211200D01*
X238650879Y-133211767D01*
X238584271Y-133211642D01*
X238582108Y-133211781D01*
X57694880Y-133219499D01*
X57685146Y-133219117D01*
X57480015Y-133202973D01*
X57460797Y-133199929D01*
X57265475Y-133153037D01*
X57246969Y-133147024D01*
X57061384Y-133070152D01*
X57044047Y-133061318D01*
X56872778Y-132956363D01*
X56857037Y-132944926D01*
X56704290Y-132814468D01*
X56690531Y-132800709D01*
X56560073Y-132647962D01*
X56548636Y-132632221D01*
X56443681Y-132460952D01*
X56434847Y-132443615D01*
X56412538Y-132389757D01*
X56357973Y-132258024D01*
X56351964Y-132239531D01*
X56305069Y-132044197D01*
X56302026Y-132024984D01*
X56285882Y-131819853D01*
X56285500Y-131810124D01*
X56285500Y-128549998D01*
X64614645Y-128549998D01*
X64614645Y-128550001D01*
X64634039Y-128821160D01*
X64634040Y-128821167D01*
X64691823Y-129086793D01*
X64691825Y-129086801D01*
X64768330Y-129291920D01*
X64786830Y-129341519D01*
X64917109Y-129580107D01*
X64917110Y-129580108D01*
X64917113Y-129580113D01*
X65080029Y-129797742D01*
X65080033Y-129797746D01*
X65080038Y-129797752D01*
X65272247Y-129989961D01*
X65272253Y-129989966D01*
X65272258Y-129989971D01*
X65489887Y-130152887D01*
X65489891Y-130152889D01*
X65489892Y-130152890D01*
X65728481Y-130283169D01*
X65728480Y-130283169D01*
X65728484Y-130283170D01*
X65728487Y-130283172D01*
X65983199Y-130378175D01*
X66248840Y-130435961D01*
X66500605Y-130453967D01*
X66519999Y-130455355D01*
X66520000Y-130455355D01*
X66520001Y-130455355D01*
X66538100Y-130454060D01*
X66791160Y-130435961D01*
X67056801Y-130378175D01*
X67311513Y-130283172D01*
X67311517Y-130283169D01*
X67311519Y-130283169D01*
X67430813Y-130218029D01*
X67550113Y-130152887D01*
X67767742Y-129989971D01*
X67959971Y-129797742D01*
X68122887Y-129580113D01*
X68253172Y-129341513D01*
X68348175Y-129086801D01*
X68405961Y-128821160D01*
X68425355Y-128550000D01*
X68405961Y-128278840D01*
X68348175Y-128013199D01*
X68253172Y-127758487D01*
X68253170Y-127758484D01*
X68253169Y-127758480D01*
X68155711Y-127579999D01*
X72614422Y-127579999D01*
X72614422Y-127580000D01*
X72634722Y-127967339D01*
X72695397Y-128350427D01*
X72695397Y-128350429D01*
X72795788Y-128725094D01*
X72934787Y-129087197D01*
X73110877Y-129432793D01*
X73322122Y-129758082D01*
X73538401Y-130025164D01*
X73566219Y-130059516D01*
X73840484Y-130333781D01*
X73966666Y-130435961D01*
X74141917Y-130577877D01*
X74467206Y-130789122D01*
X74467211Y-130789125D01*
X74812806Y-130965214D01*
X75174913Y-131104214D01*
X75549567Y-131204602D01*
X75932662Y-131265278D01*
X76298576Y-131284455D01*
X76319999Y-131285578D01*
X76320000Y-131285578D01*
X76320001Y-131285578D01*
X76340301Y-131284514D01*
X76707338Y-131265278D01*
X77090433Y-131204602D01*
X77465087Y-131104214D01*
X77827194Y-130965214D01*
X78172789Y-130789125D01*
X78498084Y-130577876D01*
X78799516Y-130333781D01*
X79073781Y-130059516D01*
X79317876Y-129758084D01*
X79529125Y-129432789D01*
X79705214Y-129087194D01*
X79844214Y-128725087D01*
X79944602Y-128350433D01*
X80005278Y-127967338D01*
X80025578Y-127580000D01*
X80025578Y-127579999D01*
X144614422Y-127579999D01*
X144614422Y-127580000D01*
X144634722Y-127967339D01*
X144695397Y-128350427D01*
X144695397Y-128350429D01*
X144795788Y-128725094D01*
X144934787Y-129087197D01*
X145110877Y-129432793D01*
X145322122Y-129758082D01*
X145538401Y-130025164D01*
X145566219Y-130059516D01*
X145840484Y-130333781D01*
X145966666Y-130435961D01*
X146141917Y-130577877D01*
X146467206Y-130789122D01*
X146467211Y-130789125D01*
X146812806Y-130965214D01*
X147174913Y-131104214D01*
X147549567Y-131204602D01*
X147932662Y-131265278D01*
X148298576Y-131284455D01*
X148319999Y-131285578D01*
X148320000Y-131285578D01*
X148320001Y-131285578D01*
X148340301Y-131284514D01*
X148707338Y-131265278D01*
X149090433Y-131204602D01*
X149465087Y-131104214D01*
X149827194Y-130965214D01*
X150172789Y-130789125D01*
X150498084Y-130577876D01*
X150799516Y-130333781D01*
X151073781Y-130059516D01*
X151317876Y-129758084D01*
X151529125Y-129432789D01*
X151705214Y-129087194D01*
X151844214Y-128725087D01*
X151944602Y-128350433D01*
X152005278Y-127967338D01*
X152025578Y-127580000D01*
X152025578Y-127579999D01*
X224614422Y-127579999D01*
X224614422Y-127580000D01*
X224634722Y-127967339D01*
X224695397Y-128350427D01*
X224695397Y-128350429D01*
X224795788Y-128725094D01*
X224934787Y-129087197D01*
X225110877Y-129432793D01*
X225322122Y-129758082D01*
X225538401Y-130025164D01*
X225566219Y-130059516D01*
X225840484Y-130333781D01*
X225966666Y-130435961D01*
X226141917Y-130577877D01*
X226467206Y-130789122D01*
X226467211Y-130789125D01*
X226812806Y-130965214D01*
X227174913Y-131104214D01*
X227549567Y-131204602D01*
X227932662Y-131265278D01*
X228298576Y-131284455D01*
X228319999Y-131285578D01*
X228320000Y-131285578D01*
X228320001Y-131285578D01*
X228340301Y-131284514D01*
X228707338Y-131265278D01*
X229090433Y-131204602D01*
X229465087Y-131104214D01*
X229827194Y-130965214D01*
X230172789Y-130789125D01*
X230498084Y-130577876D01*
X230799516Y-130333781D01*
X231073781Y-130059516D01*
X231317876Y-129758084D01*
X231529125Y-129432789D01*
X231705214Y-129087194D01*
X231844214Y-128725087D01*
X231944602Y-128350433D01*
X232005278Y-127967338D01*
X232025578Y-127580000D01*
X232005278Y-127192662D01*
X231944602Y-126809567D01*
X231844214Y-126434913D01*
X231705214Y-126072806D01*
X231529125Y-125727211D01*
X231317876Y-125401916D01*
X231073781Y-125100484D01*
X230799516Y-124826219D01*
X230498084Y-124582124D01*
X230498082Y-124582122D01*
X230172793Y-124370877D01*
X229827197Y-124194787D01*
X229465094Y-124055788D01*
X229465087Y-124055786D01*
X229090433Y-123955398D01*
X229090429Y-123955397D01*
X229090428Y-123955397D01*
X228707339Y-123894722D01*
X228320001Y-123874422D01*
X228319999Y-123874422D01*
X227932660Y-123894722D01*
X227549572Y-123955397D01*
X227549570Y-123955397D01*
X227174905Y-124055788D01*
X226812802Y-124194787D01*
X226467206Y-124370877D01*
X226141917Y-124582122D01*
X225840488Y-124826215D01*
X225840480Y-124826222D01*
X225566222Y-125100480D01*
X225566215Y-125100488D01*
X225322122Y-125401917D01*
X225110877Y-125727206D01*
X224934787Y-126072802D01*
X224795788Y-126434905D01*
X224695397Y-126809570D01*
X224695397Y-126809572D01*
X224634722Y-127192660D01*
X224614422Y-127579999D01*
X152025578Y-127579999D01*
X152005278Y-127192662D01*
X151944602Y-126809567D01*
X151844214Y-126434913D01*
X151705214Y-126072806D01*
X151529125Y-125727211D01*
X151317876Y-125401916D01*
X151073781Y-125100484D01*
X150799516Y-124826219D01*
X150498084Y-124582124D01*
X150498082Y-124582122D01*
X150172793Y-124370877D01*
X149827197Y-124194787D01*
X149799719Y-124184239D01*
X207047713Y-124184239D01*
X207047713Y-124184246D01*
X207067908Y-124363492D01*
X207067909Y-124363497D01*
X207127489Y-124533766D01*
X207157875Y-124582124D01*
X207223462Y-124686505D01*
X207351016Y-124814059D01*
X207503756Y-124910032D01*
X207520206Y-124915788D01*
X207674023Y-124969611D01*
X207674028Y-124969612D01*
X207853274Y-124989808D01*
X207853278Y-124989808D01*
X207853282Y-124989808D01*
X208032527Y-124969612D01*
X208032530Y-124969611D01*
X208032533Y-124969611D01*
X208202800Y-124910032D01*
X208355540Y-124814059D01*
X208483094Y-124686505D01*
X208579067Y-124533765D01*
X208638646Y-124363498D01*
X208658194Y-124190003D01*
X208658195Y-124189996D01*
X213424435Y-124189996D01*
X213424435Y-124190003D01*
X213444630Y-124369249D01*
X213444631Y-124369251D01*
X213504211Y-124539523D01*
X213596567Y-124686505D01*
X213600184Y-124692262D01*
X213727738Y-124819816D01*
X213818080Y-124876582D01*
X213871315Y-124910032D01*
X213880478Y-124915789D01*
X214034295Y-124969612D01*
X214050745Y-124975368D01*
X214050750Y-124975369D01*
X214229996Y-124995565D01*
X214230000Y-124995565D01*
X214230004Y-124995565D01*
X214409249Y-124975369D01*
X214409252Y-124975368D01*
X214409255Y-124975368D01*
X214579522Y-124915789D01*
X214732262Y-124819816D01*
X214859816Y-124692262D01*
X214955789Y-124539522D01*
X215015368Y-124369255D01*
X215015368Y-124369253D01*
X215015369Y-124369251D01*
X215015369Y-124369249D01*
X215035565Y-124190003D01*
X215035565Y-124189996D01*
X215015369Y-124010750D01*
X215015368Y-124010745D01*
X214974770Y-123894722D01*
X214955789Y-123840478D01*
X214952170Y-123834719D01*
X214859815Y-123687737D01*
X214732262Y-123560184D01*
X214579523Y-123464211D01*
X214409254Y-123404631D01*
X214409249Y-123404630D01*
X214230004Y-123384435D01*
X214229996Y-123384435D01*
X214050750Y-123404630D01*
X214050745Y-123404631D01*
X213880476Y-123464211D01*
X213727737Y-123560184D01*
X213600184Y-123687737D01*
X213504211Y-123840476D01*
X213444631Y-124010745D01*
X213444630Y-124010750D01*
X213424435Y-124189996D01*
X208658195Y-124189996D01*
X208658843Y-124184246D01*
X208658843Y-124184239D01*
X208638647Y-124004993D01*
X208638646Y-124004988D01*
X208581081Y-123840478D01*
X208579067Y-123834721D01*
X208483094Y-123681981D01*
X208355540Y-123554427D01*
X208202801Y-123458454D01*
X208032532Y-123398874D01*
X208032527Y-123398873D01*
X207853282Y-123378678D01*
X207853274Y-123378678D01*
X207674028Y-123398873D01*
X207674023Y-123398874D01*
X207503754Y-123458454D01*
X207351015Y-123554427D01*
X207223462Y-123681980D01*
X207127489Y-123834719D01*
X207067909Y-124004988D01*
X207067908Y-124004993D01*
X207047713Y-124184239D01*
X149799719Y-124184239D01*
X149465094Y-124055788D01*
X149465087Y-124055786D01*
X149090433Y-123955398D01*
X149090429Y-123955397D01*
X149090428Y-123955397D01*
X148707339Y-123894722D01*
X148320001Y-123874422D01*
X148319999Y-123874422D01*
X147932660Y-123894722D01*
X147549572Y-123955397D01*
X147549570Y-123955397D01*
X147174905Y-124055788D01*
X146812802Y-124194787D01*
X146467206Y-124370877D01*
X146141917Y-124582122D01*
X145840488Y-124826215D01*
X145840480Y-124826222D01*
X145566222Y-125100480D01*
X145566215Y-125100488D01*
X145322122Y-125401917D01*
X145110877Y-125727206D01*
X144934787Y-126072802D01*
X144795788Y-126434905D01*
X144695397Y-126809570D01*
X144695397Y-126809572D01*
X144634722Y-127192660D01*
X144614422Y-127579999D01*
X80025578Y-127579999D01*
X80005278Y-127192662D01*
X79944602Y-126809567D01*
X79844214Y-126434913D01*
X79705214Y-126072806D01*
X79529125Y-125727211D01*
X79317876Y-125401916D01*
X79073781Y-125100484D01*
X78799516Y-124826219D01*
X78498084Y-124582124D01*
X78498082Y-124582122D01*
X78172793Y-124370877D01*
X77827197Y-124194787D01*
X77465094Y-124055788D01*
X77465087Y-124055786D01*
X77090433Y-123955398D01*
X77090429Y-123955397D01*
X77090428Y-123955397D01*
X76707339Y-123894722D01*
X76320001Y-123874422D01*
X76319999Y-123874422D01*
X75932660Y-123894722D01*
X75549572Y-123955397D01*
X75549570Y-123955397D01*
X75174905Y-124055788D01*
X74812802Y-124194787D01*
X74467206Y-124370877D01*
X74141917Y-124582122D01*
X73840488Y-124826215D01*
X73840480Y-124826222D01*
X73566222Y-125100480D01*
X73566215Y-125100488D01*
X73322122Y-125401917D01*
X73110877Y-125727206D01*
X72934787Y-126072802D01*
X72795788Y-126434905D01*
X72695397Y-126809570D01*
X72695397Y-126809572D01*
X72634722Y-127192660D01*
X72614422Y-127579999D01*
X68155711Y-127579999D01*
X68122890Y-127519892D01*
X68122889Y-127519891D01*
X68122887Y-127519887D01*
X67959971Y-127302258D01*
X67959966Y-127302253D01*
X67959961Y-127302247D01*
X67767752Y-127110038D01*
X67767746Y-127110033D01*
X67767742Y-127110029D01*
X67550113Y-126947113D01*
X67550108Y-126947110D01*
X67550107Y-126947109D01*
X67311518Y-126816830D01*
X67311519Y-126816830D01*
X67261920Y-126798330D01*
X67056801Y-126721825D01*
X67056794Y-126721823D01*
X67056793Y-126721823D01*
X66791167Y-126664040D01*
X66791160Y-126664039D01*
X66520001Y-126644645D01*
X66519999Y-126644645D01*
X66248839Y-126664039D01*
X66248832Y-126664040D01*
X65983206Y-126721823D01*
X65983202Y-126721824D01*
X65983199Y-126721825D01*
X65855843Y-126769326D01*
X65728480Y-126816830D01*
X65489892Y-126947109D01*
X65489891Y-126947110D01*
X65272259Y-127110028D01*
X65272247Y-127110038D01*
X65080038Y-127302247D01*
X65080028Y-127302259D01*
X64917110Y-127519891D01*
X64917109Y-127519892D01*
X64786830Y-127758480D01*
X64739326Y-127885843D01*
X64691825Y-128013199D01*
X64691824Y-128013202D01*
X64691823Y-128013206D01*
X64634040Y-128278832D01*
X64634039Y-128278839D01*
X64614645Y-128549998D01*
X56285500Y-128549998D01*
X56285500Y-122419996D01*
X104464435Y-122419996D01*
X104464435Y-122420003D01*
X104484630Y-122599249D01*
X104484631Y-122599254D01*
X104544211Y-122769523D01*
X104640184Y-122922262D01*
X104767738Y-123049816D01*
X104858080Y-123106582D01*
X104867005Y-123112190D01*
X104920478Y-123145789D01*
X105070689Y-123198350D01*
X105090745Y-123205368D01*
X105090750Y-123205369D01*
X105269996Y-123225565D01*
X105270000Y-123225565D01*
X105270004Y-123225565D01*
X105449249Y-123205369D01*
X105449252Y-123205368D01*
X105449255Y-123205368D01*
X105619522Y-123145789D01*
X105772262Y-123049816D01*
X105899816Y-122922262D01*
X105995789Y-122769522D01*
X106055368Y-122599255D01*
X106055369Y-122599249D01*
X106075565Y-122420003D01*
X106075565Y-122419996D01*
X106055369Y-122240750D01*
X106055368Y-122240745D01*
X105995788Y-122070476D01*
X105899815Y-121917737D01*
X105772262Y-121790184D01*
X105619523Y-121694211D01*
X105449254Y-121634631D01*
X105449249Y-121634630D01*
X105270004Y-121614435D01*
X105269996Y-121614435D01*
X105090750Y-121634630D01*
X105090745Y-121634631D01*
X104920476Y-121694211D01*
X104767737Y-121790184D01*
X104640184Y-121917737D01*
X104544211Y-122070476D01*
X104484631Y-122240745D01*
X104484630Y-122240750D01*
X104464435Y-122419996D01*
X56285500Y-122419996D01*
X56285500Y-119980000D01*
X62554706Y-119980000D01*
X62573853Y-120223297D01*
X62573853Y-120223300D01*
X62573854Y-120223302D01*
X62595366Y-120312906D01*
X62630830Y-120460619D01*
X62724222Y-120686089D01*
X62851737Y-120894173D01*
X62851738Y-120894176D01*
X62851741Y-120894179D01*
X63010241Y-121079759D01*
X63153897Y-121202453D01*
X63195823Y-121238261D01*
X63195826Y-121238262D01*
X63403910Y-121365777D01*
X63629381Y-121459169D01*
X63629378Y-121459169D01*
X63629384Y-121459170D01*
X63629388Y-121459172D01*
X63866698Y-121516146D01*
X64110000Y-121535294D01*
X64353302Y-121516146D01*
X64590612Y-121459172D01*
X64816089Y-121365777D01*
X65024179Y-121238259D01*
X65209759Y-121079759D01*
X65368259Y-120894179D01*
X65495777Y-120686089D01*
X65569893Y-120507155D01*
X228175000Y-120507155D01*
X228175000Y-121405000D01*
X229284252Y-121405000D01*
X229262482Y-121442708D01*
X229225000Y-121582591D01*
X229225000Y-121727409D01*
X229262482Y-121867292D01*
X229284252Y-121905000D01*
X228175000Y-121905000D01*
X228175000Y-122802844D01*
X228181401Y-122862372D01*
X228181403Y-122862379D01*
X228231645Y-122997086D01*
X228231649Y-122997093D01*
X228317809Y-123112187D01*
X228317812Y-123112190D01*
X228432906Y-123198350D01*
X228432913Y-123198354D01*
X228567620Y-123248596D01*
X228567627Y-123248598D01*
X228627155Y-123254999D01*
X228627172Y-123255000D01*
X229525000Y-123255000D01*
X229525000Y-122145747D01*
X229562708Y-122167518D01*
X229702591Y-122205000D01*
X229847409Y-122205000D01*
X229987292Y-122167518D01*
X230025000Y-122145747D01*
X230025000Y-123255000D01*
X230922828Y-123255000D01*
X230922844Y-123254999D01*
X230982372Y-123248598D01*
X230982379Y-123248596D01*
X231117086Y-123198354D01*
X231117093Y-123198350D01*
X231232187Y-123112190D01*
X231232190Y-123112187D01*
X231318350Y-122997093D01*
X231318354Y-122997086D01*
X231368596Y-122862379D01*
X231368598Y-122862372D01*
X231374999Y-122802844D01*
X231375000Y-122802827D01*
X231375000Y-121905000D01*
X230265748Y-121905000D01*
X230287518Y-121867292D01*
X230325000Y-121727409D01*
X230325000Y-121582591D01*
X230297510Y-121479999D01*
X233844728Y-121479999D01*
X233844729Y-121480000D01*
X234939252Y-121480000D01*
X234917482Y-121517708D01*
X234880000Y-121657591D01*
X234880000Y-121802409D01*
X234917482Y-121942292D01*
X234939252Y-121980000D01*
X233844728Y-121980000D01*
X233844811Y-121981067D01*
X233903603Y-122225956D01*
X233999980Y-122458631D01*
X234131568Y-122673362D01*
X234131571Y-122673367D01*
X234295130Y-122864869D01*
X234486632Y-123028428D01*
X234486637Y-123028431D01*
X234701368Y-123160019D01*
X234934043Y-123256396D01*
X235178932Y-123315188D01*
X235179999Y-123315271D01*
X235180000Y-123315271D01*
X235180000Y-122220747D01*
X235217708Y-122242518D01*
X235357591Y-122280000D01*
X235502409Y-122280000D01*
X235642292Y-122242518D01*
X235680000Y-122220747D01*
X235680000Y-123315271D01*
X235681067Y-123315188D01*
X235925956Y-123256396D01*
X236158631Y-123160019D01*
X236373362Y-123028431D01*
X236373367Y-123028428D01*
X236564869Y-122864869D01*
X236728428Y-122673367D01*
X236728431Y-122673362D01*
X236860019Y-122458631D01*
X236956396Y-122225956D01*
X237015188Y-121981067D01*
X237015272Y-121980000D01*
X235920748Y-121980000D01*
X235942518Y-121942292D01*
X235980000Y-121802409D01*
X235980000Y-121657591D01*
X235942518Y-121517708D01*
X235920748Y-121480000D01*
X237015271Y-121480000D01*
X237015271Y-121479999D01*
X237015188Y-121478932D01*
X236956396Y-121234043D01*
X236860019Y-121001368D01*
X236728431Y-120786637D01*
X236728428Y-120786632D01*
X236564869Y-120595130D01*
X236373367Y-120431571D01*
X236373362Y-120431568D01*
X236158631Y-120299980D01*
X235925956Y-120203603D01*
X235681064Y-120144811D01*
X235680000Y-120144726D01*
X235680000Y-121239252D01*
X235642292Y-121217482D01*
X235502409Y-121180000D01*
X235357591Y-121180000D01*
X235217708Y-121217482D01*
X235180000Y-121239252D01*
X235180000Y-120144726D01*
X235178935Y-120144811D01*
X234934043Y-120203603D01*
X234701368Y-120299980D01*
X234486637Y-120431568D01*
X234486632Y-120431571D01*
X234295130Y-120595130D01*
X234131571Y-120786632D01*
X234131568Y-120786637D01*
X233999980Y-121001368D01*
X233903603Y-121234043D01*
X233844811Y-121478932D01*
X233844728Y-121479999D01*
X230297510Y-121479999D01*
X230287518Y-121442708D01*
X230265748Y-121405000D01*
X231375000Y-121405000D01*
X231375000Y-120507172D01*
X231374999Y-120507155D01*
X231368598Y-120447627D01*
X231368596Y-120447620D01*
X231318354Y-120312913D01*
X231318350Y-120312906D01*
X231232190Y-120197812D01*
X231232187Y-120197809D01*
X231117093Y-120111649D01*
X231117086Y-120111645D01*
X230982379Y-120061403D01*
X230982372Y-120061401D01*
X230922844Y-120055000D01*
X230025000Y-120055000D01*
X230025000Y-121164252D01*
X229987292Y-121142482D01*
X229847409Y-121105000D01*
X229702591Y-121105000D01*
X229562708Y-121142482D01*
X229525000Y-121164252D01*
X229525000Y-120055000D01*
X228627155Y-120055000D01*
X228567627Y-120061401D01*
X228567620Y-120061403D01*
X228432913Y-120111645D01*
X228432906Y-120111649D01*
X228317812Y-120197809D01*
X228317809Y-120197812D01*
X228231649Y-120312906D01*
X228231645Y-120312913D01*
X228181403Y-120447620D01*
X228181401Y-120447627D01*
X228175000Y-120507155D01*
X65569893Y-120507155D01*
X65589172Y-120460612D01*
X65646146Y-120223302D01*
X65665294Y-119980000D01*
X65646146Y-119736698D01*
X65589172Y-119499388D01*
X65495777Y-119273911D01*
X65495777Y-119273910D01*
X65368262Y-119065826D01*
X65368261Y-119065823D01*
X65332453Y-119023897D01*
X65209759Y-118880241D01*
X65058231Y-118750824D01*
X65024176Y-118721738D01*
X65024173Y-118721737D01*
X64816089Y-118594222D01*
X64590618Y-118500830D01*
X64590621Y-118500830D01*
X64484992Y-118475470D01*
X64353302Y-118443854D01*
X64353300Y-118443853D01*
X64353297Y-118443853D01*
X64110000Y-118424706D01*
X63866702Y-118443853D01*
X63629380Y-118500830D01*
X63403910Y-118594222D01*
X63195826Y-118721737D01*
X63195823Y-118721738D01*
X63010241Y-118880241D01*
X62851738Y-119065823D01*
X62851737Y-119065826D01*
X62724222Y-119273910D01*
X62630830Y-119499380D01*
X62573853Y-119736702D01*
X62554706Y-119980000D01*
X56285500Y-119980000D01*
X56285500Y-116480000D01*
X62555207Y-116480000D01*
X62574348Y-116723219D01*
X62631303Y-116960457D01*
X62724668Y-117185861D01*
X62848504Y-117387941D01*
X63470689Y-116765755D01*
X63489668Y-116811574D01*
X63566274Y-116926224D01*
X63663776Y-117023726D01*
X63778426Y-117100332D01*
X63824242Y-117119309D01*
X63202057Y-117741494D01*
X63404138Y-117865331D01*
X63629542Y-117958696D01*
X63866780Y-118015651D01*
X63866779Y-118015651D01*
X64110000Y-118034792D01*
X64353219Y-118015651D01*
X64590457Y-117958696D01*
X64815861Y-117865331D01*
X64955112Y-117779997D01*
X131752677Y-117779997D01*
X131752677Y-117780002D01*
X131771929Y-118000062D01*
X131771930Y-118000070D01*
X131829104Y-118213445D01*
X131829105Y-118213447D01*
X131829106Y-118213450D01*
X131922466Y-118413662D01*
X131922468Y-118413666D01*
X132049170Y-118594615D01*
X132049175Y-118594621D01*
X132205378Y-118750824D01*
X132205384Y-118750829D01*
X132386333Y-118877531D01*
X132386335Y-118877532D01*
X132386338Y-118877534D01*
X132586550Y-118970894D01*
X132799932Y-119028070D01*
X132957123Y-119041822D01*
X133019998Y-119047323D01*
X133020000Y-119047323D01*
X133020002Y-119047323D01*
X133075017Y-119042509D01*
X133240068Y-119028070D01*
X133453450Y-118970894D01*
X133653662Y-118877534D01*
X133834620Y-118750826D01*
X133990826Y-118594620D01*
X134117534Y-118413662D01*
X134210894Y-118213450D01*
X134268070Y-118000068D01*
X134287323Y-117780000D01*
X134268070Y-117559932D01*
X134210894Y-117346550D01*
X134117534Y-117146339D01*
X133990826Y-116965380D01*
X133834620Y-116809174D01*
X133834616Y-116809171D01*
X133834615Y-116809170D01*
X133653666Y-116682468D01*
X133653662Y-116682466D01*
X133653660Y-116682465D01*
X133453450Y-116589106D01*
X133453447Y-116589105D01*
X133453445Y-116589104D01*
X133240070Y-116531930D01*
X133240062Y-116531929D01*
X133020002Y-116512677D01*
X133019998Y-116512677D01*
X132799937Y-116531929D01*
X132799929Y-116531930D01*
X132586554Y-116589104D01*
X132586548Y-116589107D01*
X132386340Y-116682465D01*
X132386338Y-116682466D01*
X132205377Y-116809175D01*
X132049175Y-116965377D01*
X131922466Y-117146338D01*
X131922465Y-117146340D01*
X131829107Y-117346548D01*
X131829104Y-117346554D01*
X131771930Y-117559929D01*
X131771929Y-117559937D01*
X131752677Y-117779997D01*
X64955112Y-117779997D01*
X65017941Y-117741495D01*
X65017941Y-117741494D01*
X64395757Y-117119309D01*
X64441574Y-117100332D01*
X64556224Y-117023726D01*
X64653726Y-116926224D01*
X64730332Y-116811574D01*
X64749309Y-116765756D01*
X65371494Y-117387941D01*
X65371495Y-117387941D01*
X65495331Y-117185861D01*
X65588696Y-116960457D01*
X65645651Y-116723219D01*
X65664792Y-116480000D01*
X65645651Y-116236780D01*
X65588696Y-115999542D01*
X65495331Y-115774138D01*
X65371494Y-115572057D01*
X64749309Y-116194242D01*
X64730332Y-116148426D01*
X64653726Y-116033776D01*
X64556224Y-115936274D01*
X64441574Y-115859668D01*
X64395756Y-115840689D01*
X65017941Y-115218504D01*
X64815861Y-115094668D01*
X64590457Y-115001303D01*
X64353219Y-114944348D01*
X64353220Y-114944348D01*
X64110000Y-114925207D01*
X63866780Y-114944348D01*
X63629542Y-115001303D01*
X63404138Y-115094668D01*
X63202057Y-115218504D01*
X63824243Y-115840689D01*
X63778426Y-115859668D01*
X63663776Y-115936274D01*
X63566274Y-116033776D01*
X63489668Y-116148426D01*
X63470690Y-116194243D01*
X62848504Y-115572057D01*
X62724668Y-115774138D01*
X62631303Y-115999542D01*
X62574348Y-116236780D01*
X62555207Y-116480000D01*
X56285500Y-116480000D01*
X56285500Y-112980000D01*
X62554706Y-112980000D01*
X62573853Y-113223297D01*
X62573853Y-113223300D01*
X62573854Y-113223302D01*
X62600350Y-113333666D01*
X62630830Y-113460619D01*
X62724222Y-113686089D01*
X62851737Y-113894173D01*
X62851738Y-113894176D01*
X62851741Y-113894179D01*
X63010241Y-114079759D01*
X63153897Y-114202453D01*
X63195823Y-114238261D01*
X63195826Y-114238262D01*
X63403910Y-114365777D01*
X63629381Y-114459169D01*
X63629378Y-114459169D01*
X63629384Y-114459170D01*
X63629388Y-114459172D01*
X63866698Y-114516146D01*
X64110000Y-114535294D01*
X64353302Y-114516146D01*
X64590612Y-114459172D01*
X64816089Y-114365777D01*
X65024179Y-114238259D01*
X65209759Y-114079759D01*
X65368259Y-113894179D01*
X65495777Y-113686089D01*
X65589172Y-113460612D01*
X65646146Y-113223302D01*
X65665294Y-112980000D01*
X65646146Y-112736698D01*
X65637335Y-112699997D01*
X131752677Y-112699997D01*
X131752677Y-112700002D01*
X131771929Y-112920062D01*
X131771930Y-112920070D01*
X131829104Y-113133445D01*
X131829105Y-113133447D01*
X131829106Y-113133450D01*
X131846383Y-113170500D01*
X131922466Y-113333662D01*
X131922468Y-113333666D01*
X132049170Y-113514615D01*
X132049175Y-113514621D01*
X132205378Y-113670824D01*
X132205384Y-113670829D01*
X132386333Y-113797531D01*
X132386335Y-113797532D01*
X132386338Y-113797534D01*
X132586550Y-113890894D01*
X132799932Y-113948070D01*
X132957123Y-113961822D01*
X133019998Y-113967323D01*
X133020000Y-113967323D01*
X133020002Y-113967323D01*
X133075017Y-113962509D01*
X133240068Y-113948070D01*
X133453450Y-113890894D01*
X133653662Y-113797534D01*
X133834620Y-113670826D01*
X133990826Y-113514620D01*
X134117534Y-113333662D01*
X134210894Y-113133450D01*
X134268070Y-112920068D01*
X134284112Y-112736698D01*
X134287323Y-112700002D01*
X134287323Y-112699997D01*
X134268070Y-112479937D01*
X134268070Y-112479932D01*
X134210894Y-112266550D01*
X134117534Y-112066339D01*
X134011300Y-111914620D01*
X133990827Y-111885381D01*
X133985687Y-111880241D01*
X133834620Y-111729174D01*
X133834616Y-111729171D01*
X133834615Y-111729170D01*
X133653666Y-111602468D01*
X133653662Y-111602466D01*
X133635983Y-111594222D01*
X133453450Y-111509106D01*
X133453447Y-111509105D01*
X133453445Y-111509104D01*
X133240070Y-111451930D01*
X133240062Y-111451929D01*
X133020002Y-111432677D01*
X133019998Y-111432677D01*
X132799937Y-111451929D01*
X132799929Y-111451930D01*
X132586554Y-111509104D01*
X132586548Y-111509107D01*
X132386340Y-111602465D01*
X132386338Y-111602466D01*
X132205377Y-111729175D01*
X132049175Y-111885377D01*
X131922466Y-112066338D01*
X131922465Y-112066340D01*
X131829107Y-112266548D01*
X131829104Y-112266554D01*
X131771930Y-112479929D01*
X131771929Y-112479937D01*
X131752677Y-112699997D01*
X65637335Y-112699997D01*
X65589172Y-112499388D01*
X65589169Y-112499380D01*
X65495777Y-112273910D01*
X65368262Y-112065826D01*
X65368261Y-112065823D01*
X65304450Y-111991110D01*
X65209759Y-111880241D01*
X65087063Y-111775449D01*
X65024176Y-111721738D01*
X65024173Y-111721737D01*
X64816089Y-111594222D01*
X64590618Y-111500830D01*
X64590621Y-111500830D01*
X64386936Y-111451929D01*
X64353302Y-111443854D01*
X64353300Y-111443853D01*
X64353297Y-111443853D01*
X64110000Y-111424706D01*
X63866702Y-111443853D01*
X63629380Y-111500830D01*
X63403910Y-111594222D01*
X63195826Y-111721737D01*
X63195823Y-111721738D01*
X63010241Y-111880241D01*
X62851738Y-112065823D01*
X62851737Y-112065826D01*
X62724222Y-112273910D01*
X62630830Y-112499380D01*
X62573853Y-112736702D01*
X62554706Y-112980000D01*
X56285500Y-112980000D01*
X56285500Y-109480000D01*
X62555207Y-109480000D01*
X62574348Y-109723219D01*
X62631303Y-109960457D01*
X62724668Y-110185861D01*
X62848504Y-110387941D01*
X63470689Y-109765755D01*
X63489668Y-109811574D01*
X63566274Y-109926224D01*
X63663776Y-110023726D01*
X63778426Y-110100332D01*
X63824242Y-110119309D01*
X63202057Y-110741494D01*
X63404138Y-110865331D01*
X63629542Y-110958696D01*
X63866780Y-111015651D01*
X63866779Y-111015651D01*
X64110000Y-111034792D01*
X64353219Y-111015651D01*
X64590457Y-110958696D01*
X64815861Y-110865331D01*
X65017941Y-110741495D01*
X65017941Y-110741494D01*
X64395757Y-110119309D01*
X64441574Y-110100332D01*
X64556224Y-110023726D01*
X64653726Y-109926224D01*
X64730332Y-109811574D01*
X64749309Y-109765756D01*
X65371494Y-110387941D01*
X65371495Y-110387941D01*
X65495331Y-110185861D01*
X65588696Y-109960457D01*
X65645651Y-109723219D01*
X65664792Y-109480000D01*
X65645651Y-109236780D01*
X65588696Y-108999542D01*
X65495331Y-108774138D01*
X65371494Y-108572057D01*
X64749309Y-109194242D01*
X64730332Y-109148426D01*
X64653726Y-109033776D01*
X64556224Y-108936274D01*
X64441574Y-108859668D01*
X64395756Y-108840689D01*
X65017941Y-108218504D01*
X64815861Y-108094668D01*
X64590457Y-108001303D01*
X64353219Y-107944348D01*
X64353220Y-107944348D01*
X64110000Y-107925207D01*
X63866780Y-107944348D01*
X63629542Y-108001303D01*
X63404138Y-108094668D01*
X63202057Y-108218504D01*
X63824243Y-108840689D01*
X63778426Y-108859668D01*
X63663776Y-108936274D01*
X63566274Y-109033776D01*
X63489668Y-109148426D01*
X63470690Y-109194243D01*
X62848504Y-108572057D01*
X62724668Y-108774138D01*
X62631303Y-108999542D01*
X62574348Y-109236780D01*
X62555207Y-109480000D01*
X56285500Y-109480000D01*
X56285500Y-106879998D01*
X79065147Y-106879998D01*
X79065147Y-106880001D01*
X79084536Y-107151090D01*
X79084537Y-107151097D01*
X79142305Y-107416654D01*
X79237285Y-107671306D01*
X79237287Y-107671310D01*
X79367532Y-107909835D01*
X79367537Y-107909843D01*
X79461321Y-108035123D01*
X79461322Y-108035124D01*
X80254153Y-107242293D01*
X80261049Y-107258942D01*
X80348599Y-107389970D01*
X80460030Y-107501401D01*
X80591058Y-107588951D01*
X80607705Y-107595846D01*
X79814874Y-108388676D01*
X79940163Y-108482466D01*
X79940164Y-108482467D01*
X80178689Y-108612712D01*
X80178693Y-108612714D01*
X80433345Y-108707694D01*
X80698902Y-108765462D01*
X80698909Y-108765463D01*
X80969999Y-108784853D01*
X80970001Y-108784853D01*
X81241090Y-108765463D01*
X81241097Y-108765462D01*
X81506654Y-108707694D01*
X81761306Y-108612714D01*
X81761310Y-108612712D01*
X81999844Y-108482462D01*
X82125123Y-108388677D01*
X82125124Y-108388676D01*
X81332294Y-107595846D01*
X81348942Y-107588951D01*
X81479970Y-107501401D01*
X81591401Y-107389970D01*
X81678951Y-107258942D01*
X81685846Y-107242294D01*
X82478676Y-108035124D01*
X82478677Y-108035123D01*
X82572462Y-107909844D01*
X82702712Y-107671310D01*
X82702714Y-107671306D01*
X82797694Y-107416654D01*
X82855462Y-107151097D01*
X82855463Y-107151090D01*
X82859118Y-107099996D01*
X104564435Y-107099996D01*
X104564435Y-107100003D01*
X104584630Y-107279249D01*
X104584631Y-107279254D01*
X104644211Y-107449523D01*
X104677477Y-107502465D01*
X104740184Y-107602262D01*
X104867738Y-107729816D01*
X105020478Y-107825789D01*
X105061291Y-107840070D01*
X105190745Y-107885368D01*
X105190750Y-107885369D01*
X105369996Y-107905565D01*
X105370000Y-107905565D01*
X105370004Y-107905565D01*
X105549249Y-107885369D01*
X105549252Y-107885368D01*
X105549255Y-107885368D01*
X105719522Y-107825789D01*
X105872262Y-107729816D01*
X105982081Y-107619997D01*
X131752677Y-107619997D01*
X131752677Y-107620002D01*
X131771929Y-107840062D01*
X131771930Y-107840070D01*
X131829104Y-108053445D01*
X131829105Y-108053447D01*
X131829106Y-108053450D01*
X131881844Y-108166548D01*
X131922466Y-108253662D01*
X131922468Y-108253666D01*
X132049170Y-108434615D01*
X132049175Y-108434621D01*
X132205378Y-108590824D01*
X132205384Y-108590829D01*
X132386333Y-108717531D01*
X132386335Y-108717532D01*
X132386338Y-108717534D01*
X132586550Y-108810894D01*
X132799932Y-108868070D01*
X132957123Y-108881822D01*
X133019998Y-108887323D01*
X133020000Y-108887323D01*
X133020002Y-108887323D01*
X133075017Y-108882509D01*
X133240068Y-108868070D01*
X133453450Y-108810894D01*
X133653662Y-108717534D01*
X133821522Y-108599997D01*
X213052677Y-108599997D01*
X213052677Y-108600002D01*
X213071929Y-108820062D01*
X213071930Y-108820070D01*
X213129104Y-109033445D01*
X213129105Y-109033447D01*
X213129106Y-109033450D01*
X213172471Y-109126446D01*
X213222466Y-109233662D01*
X213222468Y-109233666D01*
X213349170Y-109414615D01*
X213349175Y-109414621D01*
X213505378Y-109570824D01*
X213505384Y-109570829D01*
X213686333Y-109697531D01*
X213686335Y-109697532D01*
X213686338Y-109697534D01*
X213741420Y-109723219D01*
X213772299Y-109737618D01*
X213824738Y-109783790D01*
X213843890Y-109850984D01*
X213823674Y-109917865D01*
X213772299Y-109962382D01*
X213686340Y-110002465D01*
X213686338Y-110002466D01*
X213505377Y-110129175D01*
X213349175Y-110285377D01*
X213222466Y-110466338D01*
X213222465Y-110466340D01*
X213129107Y-110666548D01*
X213129104Y-110666554D01*
X213071930Y-110879929D01*
X213071929Y-110879937D01*
X213052677Y-111099997D01*
X213052677Y-111100002D01*
X213071929Y-111320062D01*
X213071930Y-111320070D01*
X213129104Y-111533445D01*
X213129105Y-111533447D01*
X213129106Y-111533450D01*
X213216905Y-111721737D01*
X213222466Y-111733662D01*
X213222468Y-111733666D01*
X213349170Y-111914615D01*
X213349175Y-111914621D01*
X213505378Y-112070824D01*
X213505384Y-112070829D01*
X213686333Y-112197531D01*
X213686335Y-112197532D01*
X213686338Y-112197534D01*
X213886550Y-112290894D01*
X214099932Y-112348070D01*
X214257123Y-112361822D01*
X214319998Y-112367323D01*
X214320000Y-112367323D01*
X214320002Y-112367323D01*
X214375017Y-112362509D01*
X214540068Y-112348070D01*
X214753450Y-112290894D01*
X214953662Y-112197534D01*
X215134620Y-112070826D01*
X215290826Y-111914620D01*
X215417534Y-111733662D01*
X215510894Y-111533450D01*
X215521197Y-111495000D01*
X228169551Y-111495000D01*
X228189317Y-111746151D01*
X228248126Y-111991110D01*
X228344533Y-112223859D01*
X228476160Y-112438653D01*
X228476161Y-112438656D01*
X228476164Y-112438659D01*
X228639776Y-112630224D01*
X228764441Y-112736698D01*
X228831343Y-112793838D01*
X228831346Y-112793839D01*
X229046140Y-112925466D01*
X229177798Y-112980000D01*
X229278889Y-113021873D01*
X229523852Y-113080683D01*
X229775000Y-113100449D01*
X230026148Y-113080683D01*
X230271111Y-113021873D01*
X230503859Y-112925466D01*
X230718659Y-112793836D01*
X230910224Y-112630224D01*
X231073836Y-112438659D01*
X231205466Y-112223859D01*
X231301873Y-111991111D01*
X231360683Y-111746148D01*
X231380449Y-111495000D01*
X231360683Y-111243852D01*
X231301873Y-110998889D01*
X231252600Y-110879932D01*
X231205466Y-110766140D01*
X231073839Y-110551346D01*
X231073838Y-110551343D01*
X231001237Y-110466339D01*
X230963483Y-110422135D01*
X233829500Y-110422135D01*
X233829500Y-112717870D01*
X233829501Y-112717876D01*
X233835908Y-112777483D01*
X233886202Y-112912328D01*
X233886206Y-112912335D01*
X233972452Y-113027544D01*
X233972455Y-113027547D01*
X234087664Y-113113793D01*
X234087671Y-113113797D01*
X234222517Y-113164091D01*
X234222516Y-113164091D01*
X234229444Y-113164835D01*
X234282127Y-113170500D01*
X236577872Y-113170499D01*
X236637483Y-113164091D01*
X236772331Y-113113796D01*
X236887546Y-113027546D01*
X236973796Y-112912331D01*
X237024091Y-112777483D01*
X237030500Y-112717873D01*
X237030499Y-110422128D01*
X237024091Y-110362517D01*
X236973796Y-110227669D01*
X236973795Y-110227668D01*
X236973793Y-110227664D01*
X236887547Y-110112455D01*
X236887544Y-110112452D01*
X236772335Y-110026206D01*
X236772328Y-110026202D01*
X236637482Y-109975908D01*
X236637483Y-109975908D01*
X236577883Y-109969501D01*
X236577881Y-109969500D01*
X236577873Y-109969500D01*
X236577864Y-109969500D01*
X234282129Y-109969500D01*
X234282123Y-109969501D01*
X234222516Y-109975908D01*
X234087671Y-110026202D01*
X234087664Y-110026206D01*
X233972455Y-110112452D01*
X233972452Y-110112455D01*
X233886206Y-110227664D01*
X233886202Y-110227671D01*
X233835908Y-110362517D01*
X233829501Y-110422116D01*
X233829501Y-110422123D01*
X233829500Y-110422135D01*
X230963483Y-110422135D01*
X230910224Y-110359776D01*
X230755541Y-110227664D01*
X230718656Y-110196161D01*
X230718653Y-110196160D01*
X230503859Y-110064533D01*
X230271110Y-109968126D01*
X230026151Y-109909317D01*
X229775000Y-109889551D01*
X229523848Y-109909317D01*
X229278889Y-109968126D01*
X229046140Y-110064533D01*
X228831346Y-110196160D01*
X228831343Y-110196161D01*
X228639776Y-110359776D01*
X228476161Y-110551343D01*
X228476160Y-110551346D01*
X228344533Y-110766140D01*
X228248126Y-110998889D01*
X228189317Y-111243848D01*
X228169551Y-111495000D01*
X215521197Y-111495000D01*
X215568070Y-111320068D01*
X215587323Y-111100000D01*
X215568070Y-110879932D01*
X215510894Y-110666550D01*
X215417534Y-110466339D01*
X215290826Y-110285380D01*
X215134620Y-110129174D01*
X215134616Y-110129171D01*
X215134615Y-110129170D01*
X214953666Y-110002468D01*
X214953658Y-110002464D01*
X214867701Y-109962382D01*
X214815261Y-109916210D01*
X214796109Y-109849017D01*
X214816324Y-109782136D01*
X214867701Y-109737618D01*
X214953662Y-109697534D01*
X215134620Y-109570826D01*
X215290826Y-109414620D01*
X215417534Y-109233662D01*
X215510894Y-109033450D01*
X215568070Y-108820068D01*
X215587323Y-108600000D01*
X215586520Y-108590826D01*
X215577040Y-108482462D01*
X215568070Y-108379932D01*
X215510894Y-108166550D01*
X215417534Y-107966339D01*
X215329119Y-107840068D01*
X215290827Y-107785381D01*
X215235261Y-107729815D01*
X215134620Y-107629174D01*
X215134616Y-107629171D01*
X215134615Y-107629170D01*
X214953666Y-107502468D01*
X214953662Y-107502466D01*
X214951378Y-107501401D01*
X214753450Y-107409106D01*
X214753447Y-107409105D01*
X214753445Y-107409104D01*
X214540070Y-107351930D01*
X214540062Y-107351929D01*
X214320002Y-107332677D01*
X214319998Y-107332677D01*
X214099937Y-107351929D01*
X214099929Y-107351930D01*
X213886554Y-107409104D01*
X213886548Y-107409107D01*
X213686340Y-107502465D01*
X213686338Y-107502466D01*
X213505377Y-107629175D01*
X213349175Y-107785377D01*
X213222466Y-107966338D01*
X213222465Y-107966340D01*
X213129107Y-108166548D01*
X213129104Y-108166554D01*
X213071930Y-108379929D01*
X213071929Y-108379937D01*
X213052677Y-108599997D01*
X133821522Y-108599997D01*
X133834620Y-108590826D01*
X133990826Y-108434620D01*
X134117534Y-108253662D01*
X134210894Y-108053450D01*
X134268070Y-107840068D01*
X134286520Y-107629175D01*
X134287323Y-107620002D01*
X134287323Y-107619997D01*
X134280103Y-107537474D01*
X134268070Y-107399932D01*
X134210894Y-107186550D01*
X134117534Y-106986339D01*
X133990826Y-106805380D01*
X133834620Y-106649174D01*
X133834616Y-106649171D01*
X133834615Y-106649170D01*
X133653666Y-106522468D01*
X133653662Y-106522466D01*
X133541542Y-106470184D01*
X133453450Y-106429106D01*
X133453447Y-106429105D01*
X133453445Y-106429104D01*
X133240070Y-106371930D01*
X133240062Y-106371929D01*
X133020002Y-106352677D01*
X133019998Y-106352677D01*
X132799937Y-106371929D01*
X132799929Y-106371930D01*
X132586554Y-106429104D01*
X132586548Y-106429107D01*
X132386340Y-106522465D01*
X132386338Y-106522466D01*
X132205377Y-106649175D01*
X132049175Y-106805377D01*
X131922466Y-106986338D01*
X131922465Y-106986340D01*
X131829107Y-107186548D01*
X131829104Y-107186554D01*
X131771930Y-107399929D01*
X131771929Y-107399937D01*
X131752677Y-107619997D01*
X105982081Y-107619997D01*
X105999816Y-107602262D01*
X106095789Y-107449522D01*
X106155368Y-107279255D01*
X106157657Y-107258942D01*
X106175565Y-107100003D01*
X106175565Y-107099996D01*
X106155369Y-106920750D01*
X106155368Y-106920745D01*
X106095788Y-106750476D01*
X106006835Y-106608909D01*
X105999816Y-106597738D01*
X105872262Y-106470184D01*
X105719523Y-106374211D01*
X105549254Y-106314631D01*
X105549249Y-106314630D01*
X105370004Y-106294435D01*
X105369996Y-106294435D01*
X105190750Y-106314630D01*
X105190745Y-106314631D01*
X105020476Y-106374211D01*
X104867737Y-106470184D01*
X104740184Y-106597737D01*
X104644211Y-106750476D01*
X104584631Y-106920745D01*
X104584630Y-106920750D01*
X104564435Y-107099996D01*
X82859118Y-107099996D01*
X82874853Y-106880001D01*
X82874853Y-106879998D01*
X82855463Y-106608909D01*
X82855462Y-106608902D01*
X82797694Y-106343345D01*
X82702714Y-106088693D01*
X82702712Y-106088689D01*
X82572467Y-105850164D01*
X82572466Y-105850163D01*
X82478676Y-105724874D01*
X81685846Y-106517704D01*
X81678951Y-106501058D01*
X81591401Y-106370030D01*
X81479970Y-106258599D01*
X81348942Y-106171049D01*
X81332294Y-106164153D01*
X82125124Y-105371322D01*
X82125123Y-105371321D01*
X81999843Y-105277537D01*
X81999835Y-105277532D01*
X81761310Y-105147287D01*
X81761306Y-105147285D01*
X81661330Y-105109996D01*
X127624435Y-105109996D01*
X127624435Y-105110003D01*
X127644630Y-105289249D01*
X127644631Y-105289254D01*
X127704211Y-105459523D01*
X127800184Y-105612262D01*
X127927738Y-105739816D01*
X128080478Y-105835789D01*
X128250745Y-105895368D01*
X128250750Y-105895369D01*
X128429996Y-105915565D01*
X128430000Y-105915565D01*
X128430004Y-105915565D01*
X128609249Y-105895369D01*
X128609252Y-105895368D01*
X128609255Y-105895368D01*
X128779522Y-105835789D01*
X128932262Y-105739816D01*
X129059816Y-105612262D01*
X129155789Y-105459522D01*
X129215368Y-105289255D01*
X129215369Y-105289249D01*
X129235565Y-105110003D01*
X129235565Y-105109996D01*
X129215369Y-104930750D01*
X129215368Y-104930745D01*
X129155788Y-104760476D01*
X129059815Y-104607737D01*
X128932262Y-104480184D01*
X128779523Y-104384211D01*
X128609254Y-104324631D01*
X128609249Y-104324630D01*
X128430004Y-104304435D01*
X128429996Y-104304435D01*
X128250750Y-104324630D01*
X128250745Y-104324631D01*
X128080476Y-104384211D01*
X127927737Y-104480184D01*
X127800184Y-104607737D01*
X127704211Y-104760476D01*
X127644631Y-104930745D01*
X127644630Y-104930750D01*
X127624435Y-105109996D01*
X81661330Y-105109996D01*
X81506654Y-105052305D01*
X81241097Y-104994537D01*
X81241090Y-104994536D01*
X80970001Y-104975147D01*
X80969999Y-104975147D01*
X80698909Y-104994536D01*
X80698902Y-104994537D01*
X80433345Y-105052305D01*
X80178693Y-105147285D01*
X80178689Y-105147287D01*
X79940164Y-105277532D01*
X79940156Y-105277537D01*
X79814875Y-105371321D01*
X79814874Y-105371322D01*
X80607705Y-106164153D01*
X80591058Y-106171049D01*
X80460030Y-106258599D01*
X80348599Y-106370030D01*
X80261049Y-106501058D01*
X80254153Y-106517705D01*
X79461322Y-105724874D01*
X79461321Y-105724875D01*
X79367537Y-105850156D01*
X79367532Y-105850164D01*
X79237287Y-106088689D01*
X79237285Y-106088693D01*
X79142305Y-106343345D01*
X79084537Y-106608902D01*
X79084536Y-106608909D01*
X79065147Y-106879998D01*
X56285500Y-106879998D01*
X56285500Y-103364000D01*
X56305185Y-103296961D01*
X56313223Y-103289996D01*
X124494435Y-103289996D01*
X124494435Y-103290003D01*
X124514630Y-103469249D01*
X124514631Y-103469254D01*
X124574211Y-103639523D01*
X124667549Y-103788069D01*
X124670184Y-103792262D01*
X124797738Y-103919816D01*
X124950478Y-104015789D01*
X125120745Y-104075368D01*
X125120750Y-104075369D01*
X125299996Y-104095565D01*
X125300000Y-104095565D01*
X125300004Y-104095565D01*
X125479249Y-104075369D01*
X125479252Y-104075368D01*
X125479255Y-104075368D01*
X125649522Y-104015789D01*
X125802262Y-103919816D01*
X125929816Y-103792262D01*
X126025789Y-103639522D01*
X126085368Y-103469255D01*
X126085369Y-103469249D01*
X126105565Y-103290003D01*
X126105565Y-103289996D01*
X126085369Y-103110750D01*
X126085368Y-103110745D01*
X126037326Y-102973450D01*
X126025789Y-102940478D01*
X125929816Y-102787738D01*
X125802262Y-102660184D01*
X125649523Y-102564211D01*
X125580324Y-102539997D01*
X131752677Y-102539997D01*
X131752677Y-102540002D01*
X131771929Y-102760062D01*
X131771930Y-102760070D01*
X131829104Y-102973445D01*
X131829105Y-102973447D01*
X131829106Y-102973450D01*
X131893130Y-103110750D01*
X131922466Y-103173662D01*
X131922468Y-103173666D01*
X132049170Y-103354615D01*
X132049175Y-103354621D01*
X132205378Y-103510824D01*
X132205384Y-103510829D01*
X132386333Y-103637531D01*
X132386335Y-103637532D01*
X132386338Y-103637534D01*
X132586550Y-103730894D01*
X132799932Y-103788070D01*
X132957123Y-103801822D01*
X133019998Y-103807323D01*
X133020000Y-103807323D01*
X133020002Y-103807323D01*
X133075017Y-103802509D01*
X133240068Y-103788070D01*
X133453450Y-103730894D01*
X133653662Y-103637534D01*
X133834620Y-103510826D01*
X133990826Y-103354620D01*
X134117534Y-103173662D01*
X134210894Y-102973450D01*
X134268070Y-102760068D01*
X134287323Y-102540000D01*
X134281001Y-102467743D01*
X134268070Y-102319937D01*
X134268070Y-102319932D01*
X134210894Y-102106550D01*
X134147220Y-101970000D01*
X231212636Y-101970000D01*
X231232461Y-102221912D01*
X231291452Y-102467630D01*
X231388154Y-102701090D01*
X231520184Y-102916542D01*
X231520185Y-102916544D01*
X231520186Y-102916546D01*
X231520188Y-102916548D01*
X231684301Y-103108699D01*
X231876452Y-103272812D01*
X231876454Y-103272813D01*
X231876455Y-103272814D01*
X231876457Y-103272815D01*
X232091909Y-103404845D01*
X232325369Y-103501547D01*
X232364032Y-103510829D01*
X232571084Y-103560538D01*
X232823000Y-103580364D01*
X233074916Y-103560538D01*
X233320630Y-103501547D01*
X233554090Y-103404845D01*
X233769548Y-103272812D01*
X233961699Y-103108699D01*
X234125812Y-102916548D01*
X234257845Y-102701090D01*
X234354547Y-102467630D01*
X234413538Y-102221916D01*
X234433364Y-101970000D01*
X234413538Y-101718084D01*
X234354547Y-101472370D01*
X234342162Y-101442468D01*
X234257845Y-101238909D01*
X234125815Y-101023457D01*
X234125814Y-101023455D01*
X234125813Y-101023454D01*
X234125812Y-101023452D01*
X233961699Y-100831301D01*
X233769548Y-100667188D01*
X233769546Y-100667186D01*
X233769544Y-100667185D01*
X233769542Y-100667184D01*
X233554090Y-100535154D01*
X233320630Y-100438452D01*
X233074912Y-100379461D01*
X233074913Y-100379461D01*
X232823000Y-100359636D01*
X232571087Y-100379461D01*
X232325369Y-100438452D01*
X232091909Y-100535154D01*
X231876457Y-100667184D01*
X231876455Y-100667185D01*
X231684301Y-100831301D01*
X231520185Y-101023455D01*
X231520184Y-101023457D01*
X231388154Y-101238909D01*
X231291452Y-101472369D01*
X231232461Y-101718087D01*
X231212636Y-101970000D01*
X134147220Y-101970000D01*
X134117534Y-101906339D01*
X134036053Y-101789971D01*
X133990827Y-101725381D01*
X133983530Y-101718084D01*
X133834620Y-101569174D01*
X133834616Y-101569171D01*
X133834615Y-101569170D01*
X133653666Y-101442468D01*
X133653662Y-101442466D01*
X133607081Y-101420745D01*
X133453450Y-101349106D01*
X133453447Y-101349105D01*
X133453445Y-101349104D01*
X133240070Y-101291930D01*
X133240062Y-101291929D01*
X133020002Y-101272677D01*
X133019998Y-101272677D01*
X132799937Y-101291929D01*
X132799929Y-101291930D01*
X132586554Y-101349104D01*
X132586548Y-101349107D01*
X132386340Y-101442465D01*
X132386338Y-101442466D01*
X132205377Y-101569175D01*
X132049175Y-101725377D01*
X131922466Y-101906338D01*
X131922465Y-101906340D01*
X131829107Y-102106548D01*
X131829104Y-102106554D01*
X131771930Y-102319929D01*
X131771929Y-102319937D01*
X131752677Y-102539997D01*
X125580324Y-102539997D01*
X125479254Y-102504631D01*
X125479249Y-102504630D01*
X125300004Y-102484435D01*
X125299996Y-102484435D01*
X125120750Y-102504630D01*
X125120745Y-102504631D01*
X124950476Y-102564211D01*
X124797737Y-102660184D01*
X124670184Y-102787737D01*
X124574211Y-102940476D01*
X124514631Y-103110745D01*
X124514630Y-103110750D01*
X124494435Y-103289996D01*
X56313223Y-103289996D01*
X56357989Y-103251206D01*
X56409500Y-103240000D01*
X123095000Y-103240000D01*
X123095000Y-99430000D01*
X233854550Y-99430000D01*
X233873122Y-99665977D01*
X233928378Y-99896136D01*
X234018960Y-100114822D01*
X234142634Y-100316640D01*
X234142635Y-100316641D01*
X234142636Y-100316643D01*
X234142638Y-100316645D01*
X234296365Y-100496635D01*
X234476355Y-100650362D01*
X234476357Y-100650363D01*
X234476358Y-100650364D01*
X234476359Y-100650365D01*
X234678177Y-100774039D01*
X234727418Y-100794435D01*
X234896863Y-100864621D01*
X235127026Y-100919878D01*
X235363000Y-100938450D01*
X235598974Y-100919878D01*
X235829137Y-100864621D01*
X236047822Y-100774039D01*
X236249645Y-100650362D01*
X236429635Y-100496635D01*
X236583362Y-100316645D01*
X236707039Y-100114822D01*
X236797621Y-99896137D01*
X236852878Y-99665974D01*
X236871450Y-99430000D01*
X236852878Y-99194026D01*
X236797621Y-98963863D01*
X236707039Y-98745178D01*
X236707039Y-98745177D01*
X236583365Y-98543359D01*
X236583364Y-98543358D01*
X236583363Y-98543357D01*
X236583362Y-98543355D01*
X236429635Y-98363365D01*
X236249645Y-98209638D01*
X236249643Y-98209636D01*
X236249641Y-98209635D01*
X236249640Y-98209634D01*
X236047822Y-98085960D01*
X235829136Y-97995378D01*
X235598977Y-97940122D01*
X235363000Y-97921550D01*
X235127022Y-97940122D01*
X234896863Y-97995378D01*
X234678177Y-98085960D01*
X234476359Y-98209634D01*
X234476358Y-98209635D01*
X234296365Y-98363365D01*
X234142635Y-98543358D01*
X234142634Y-98543359D01*
X234018960Y-98745177D01*
X233928378Y-98963863D01*
X233873122Y-99194022D01*
X233854550Y-99430000D01*
X123095000Y-99430000D01*
X123095000Y-97459997D01*
X131752677Y-97459997D01*
X131752677Y-97460002D01*
X131771929Y-97680062D01*
X131771930Y-97680070D01*
X131829104Y-97893445D01*
X131829105Y-97893447D01*
X131829106Y-97893450D01*
X131918875Y-98085960D01*
X131922466Y-98093662D01*
X131922468Y-98093666D01*
X132049170Y-98274615D01*
X132049175Y-98274621D01*
X132205378Y-98430824D01*
X132205384Y-98430829D01*
X132386333Y-98557531D01*
X132386335Y-98557532D01*
X132386338Y-98557534D01*
X132586550Y-98650894D01*
X132799932Y-98708070D01*
X132957123Y-98721822D01*
X133019998Y-98727323D01*
X133020000Y-98727323D01*
X133020002Y-98727323D01*
X133075017Y-98722509D01*
X133240068Y-98708070D01*
X133453450Y-98650894D01*
X133653662Y-98557534D01*
X133834620Y-98430826D01*
X133990826Y-98274620D01*
X134117534Y-98093662D01*
X134210894Y-97893450D01*
X134268070Y-97680068D01*
X134287323Y-97460000D01*
X134281001Y-97387743D01*
X134268070Y-97239937D01*
X134268070Y-97239932D01*
X134210894Y-97026550D01*
X134147220Y-96890000D01*
X231212636Y-96890000D01*
X231232461Y-97141912D01*
X231291452Y-97387630D01*
X231388154Y-97621090D01*
X231520184Y-97836542D01*
X231520185Y-97836544D01*
X231520186Y-97836546D01*
X231520188Y-97836548D01*
X231684301Y-98028699D01*
X231876452Y-98192812D01*
X231876454Y-98192813D01*
X231876455Y-98192814D01*
X231876457Y-98192815D01*
X232091909Y-98324845D01*
X232325369Y-98421547D01*
X232364032Y-98430829D01*
X232571084Y-98480538D01*
X232823000Y-98500364D01*
X233074916Y-98480538D01*
X233320630Y-98421547D01*
X233554090Y-98324845D01*
X233769548Y-98192812D01*
X233961699Y-98028699D01*
X234125812Y-97836548D01*
X234257845Y-97621090D01*
X234354547Y-97387630D01*
X234413538Y-97141916D01*
X234433364Y-96890000D01*
X234413538Y-96638084D01*
X234354547Y-96392370D01*
X234347355Y-96375005D01*
X234257845Y-96158909D01*
X234125815Y-95943457D01*
X234125814Y-95943455D01*
X234125813Y-95943454D01*
X234125812Y-95943452D01*
X233961699Y-95751301D01*
X233769548Y-95587188D01*
X233769546Y-95587186D01*
X233769544Y-95587185D01*
X233769542Y-95587184D01*
X233554090Y-95455154D01*
X233320630Y-95358452D01*
X233074912Y-95299461D01*
X233074913Y-95299461D01*
X232823000Y-95279636D01*
X232571087Y-95299461D01*
X232325369Y-95358452D01*
X232091909Y-95455154D01*
X231876457Y-95587184D01*
X231876455Y-95587185D01*
X231684301Y-95751301D01*
X231520185Y-95943455D01*
X231520184Y-95943457D01*
X231388154Y-96158909D01*
X231291452Y-96392369D01*
X231232461Y-96638087D01*
X231212636Y-96890000D01*
X134147220Y-96890000D01*
X134117534Y-96826339D01*
X134054180Y-96735859D01*
X133990827Y-96645381D01*
X133954014Y-96608568D01*
X133834620Y-96489174D01*
X133834616Y-96489171D01*
X133834615Y-96489170D01*
X133653666Y-96362468D01*
X133653662Y-96362466D01*
X133574306Y-96325462D01*
X133453450Y-96269106D01*
X133453447Y-96269105D01*
X133453445Y-96269104D01*
X133240070Y-96211930D01*
X133240062Y-96211929D01*
X133020002Y-96192677D01*
X133019998Y-96192677D01*
X132799937Y-96211929D01*
X132799929Y-96211930D01*
X132586554Y-96269104D01*
X132586548Y-96269107D01*
X132386340Y-96362465D01*
X132386338Y-96362466D01*
X132205377Y-96489175D01*
X132049175Y-96645377D01*
X131922466Y-96826338D01*
X131922465Y-96826340D01*
X131829107Y-97026548D01*
X131829104Y-97026554D01*
X131771930Y-97239929D01*
X131771929Y-97239937D01*
X131752677Y-97459997D01*
X123095000Y-97459997D01*
X123095000Y-94487996D01*
X127108835Y-94487996D01*
X127108835Y-94488003D01*
X127129030Y-94667249D01*
X127129031Y-94667254D01*
X127188611Y-94837523D01*
X127263736Y-94957083D01*
X127284584Y-94990262D01*
X127412138Y-95117816D01*
X127502480Y-95174582D01*
X127532403Y-95193384D01*
X127564878Y-95213789D01*
X127735145Y-95273368D01*
X127735150Y-95273369D01*
X127914396Y-95293565D01*
X127914400Y-95293565D01*
X127914404Y-95293565D01*
X128093649Y-95273369D01*
X128093652Y-95273368D01*
X128093655Y-95273368D01*
X128263922Y-95213789D01*
X128416662Y-95117816D01*
X128544216Y-94990262D01*
X128640189Y-94837522D01*
X128699768Y-94667255D01*
X128706240Y-94609816D01*
X128719965Y-94488003D01*
X128719965Y-94487996D01*
X128699769Y-94308750D01*
X128699768Y-94308745D01*
X128647459Y-94159255D01*
X128640189Y-94138478D01*
X128544216Y-93985738D01*
X128416662Y-93858184D01*
X128263923Y-93762211D01*
X128093654Y-93702631D01*
X128093649Y-93702630D01*
X127914404Y-93682435D01*
X127914396Y-93682435D01*
X127735150Y-93702630D01*
X127735145Y-93702631D01*
X127564876Y-93762211D01*
X127412137Y-93858184D01*
X127284584Y-93985737D01*
X127188611Y-94138476D01*
X127129031Y-94308745D01*
X127129030Y-94308750D01*
X127108835Y-94487996D01*
X123095000Y-94487996D01*
X123095000Y-92379997D01*
X131752677Y-92379997D01*
X131752677Y-92380002D01*
X131771929Y-92600062D01*
X131771930Y-92600070D01*
X131829104Y-92813445D01*
X131829105Y-92813447D01*
X131829106Y-92813450D01*
X131922466Y-93013662D01*
X131922468Y-93013666D01*
X132049170Y-93194615D01*
X132049175Y-93194621D01*
X132205378Y-93350824D01*
X132205384Y-93350829D01*
X132386333Y-93477531D01*
X132386335Y-93477532D01*
X132386338Y-93477534D01*
X132586550Y-93570894D01*
X132799932Y-93628070D01*
X132957123Y-93641822D01*
X133019998Y-93647323D01*
X133020000Y-93647323D01*
X133020002Y-93647323D01*
X133075017Y-93642509D01*
X133240068Y-93628070D01*
X133453450Y-93570894D01*
X133653662Y-93477534D01*
X133834620Y-93350826D01*
X133990826Y-93194620D01*
X134117534Y-93013662D01*
X134210894Y-92813450D01*
X134268070Y-92600068D01*
X134287323Y-92380000D01*
X134268070Y-92159932D01*
X134210894Y-91946550D01*
X134117534Y-91746339D01*
X133990826Y-91565380D01*
X133834620Y-91409174D01*
X133834616Y-91409171D01*
X133834615Y-91409170D01*
X133653666Y-91282468D01*
X133653662Y-91282466D01*
X133639341Y-91275788D01*
X133453450Y-91189106D01*
X133453447Y-91189105D01*
X133453445Y-91189104D01*
X133240070Y-91131930D01*
X133240062Y-91131929D01*
X133020002Y-91112677D01*
X133019998Y-91112677D01*
X132799937Y-91131929D01*
X132799929Y-91131930D01*
X132586554Y-91189104D01*
X132586548Y-91189107D01*
X132386340Y-91282465D01*
X132386338Y-91282466D01*
X132205377Y-91409175D01*
X132049175Y-91565377D01*
X131922466Y-91746338D01*
X131922465Y-91746340D01*
X131829107Y-91946548D01*
X131829104Y-91946554D01*
X131771930Y-92159929D01*
X131771929Y-92159937D01*
X131752677Y-92379997D01*
X123095000Y-92379997D01*
X123095000Y-90549996D01*
X127354435Y-90549996D01*
X127354435Y-90550003D01*
X127374630Y-90729249D01*
X127374631Y-90729254D01*
X127434211Y-90899523D01*
X127518040Y-91032935D01*
X127530184Y-91052262D01*
X127657738Y-91179816D01*
X127810478Y-91275789D01*
X127980745Y-91335368D01*
X127980750Y-91335369D01*
X128159996Y-91355565D01*
X128160000Y-91355565D01*
X128160004Y-91355565D01*
X128339249Y-91335369D01*
X128339252Y-91335368D01*
X128339255Y-91335368D01*
X128509522Y-91275789D01*
X128662262Y-91179816D01*
X128789816Y-91052262D01*
X128885789Y-90899522D01*
X128945368Y-90729255D01*
X128956194Y-90633172D01*
X128965565Y-90550003D01*
X128965565Y-90549996D01*
X128945369Y-90370750D01*
X128945368Y-90370745D01*
X128897326Y-90233450D01*
X128885789Y-90200478D01*
X128867106Y-90170745D01*
X128846582Y-90138080D01*
X128789816Y-90047738D01*
X128662262Y-89920184D01*
X128509523Y-89824211D01*
X128339254Y-89764631D01*
X128339249Y-89764630D01*
X128160004Y-89744435D01*
X128159996Y-89744435D01*
X127980750Y-89764630D01*
X127980745Y-89764631D01*
X127810476Y-89824211D01*
X127657737Y-89920184D01*
X127530184Y-90047737D01*
X127434211Y-90200476D01*
X127374631Y-90370745D01*
X127374630Y-90370750D01*
X127354435Y-90549996D01*
X123095000Y-90549996D01*
X123095000Y-86512396D01*
X127159635Y-86512396D01*
X127159635Y-86512403D01*
X127179830Y-86691649D01*
X127179831Y-86691654D01*
X127239411Y-86861923D01*
X127322806Y-86994645D01*
X127335384Y-87014662D01*
X127462938Y-87142216D01*
X127615678Y-87238189D01*
X127784062Y-87297109D01*
X127785945Y-87297768D01*
X127785950Y-87297769D01*
X127965196Y-87317965D01*
X127965200Y-87317965D01*
X127965204Y-87317965D01*
X128124675Y-87299997D01*
X131752677Y-87299997D01*
X131752677Y-87300002D01*
X131771929Y-87520062D01*
X131771930Y-87520070D01*
X131829104Y-87733445D01*
X131829105Y-87733447D01*
X131829106Y-87733450D01*
X131892729Y-87869891D01*
X131922466Y-87933662D01*
X131922468Y-87933666D01*
X132049170Y-88114615D01*
X132049175Y-88114621D01*
X132205378Y-88270824D01*
X132205384Y-88270829D01*
X132386333Y-88397531D01*
X132386335Y-88397532D01*
X132386338Y-88397534D01*
X132586550Y-88490894D01*
X132799932Y-88548070D01*
X132957123Y-88561822D01*
X133019998Y-88567323D01*
X133020000Y-88567323D01*
X133020002Y-88567323D01*
X133075017Y-88562509D01*
X133240068Y-88548070D01*
X133453450Y-88490894D01*
X133653662Y-88397534D01*
X133834620Y-88270826D01*
X133990826Y-88114620D01*
X134117534Y-87933662D01*
X134210894Y-87733450D01*
X134268070Y-87520068D01*
X134287323Y-87300000D01*
X134287323Y-87299997D01*
X213052677Y-87299997D01*
X213052677Y-87300002D01*
X213071929Y-87520062D01*
X213071930Y-87520070D01*
X213129104Y-87733445D01*
X213129105Y-87733447D01*
X213129106Y-87733450D01*
X213192729Y-87869891D01*
X213222466Y-87933662D01*
X213222468Y-87933666D01*
X213349170Y-88114615D01*
X213349175Y-88114621D01*
X213505378Y-88270824D01*
X213505384Y-88270829D01*
X213686333Y-88397531D01*
X213686335Y-88397532D01*
X213686338Y-88397534D01*
X213749668Y-88427065D01*
X213772299Y-88437618D01*
X213824738Y-88483790D01*
X213843890Y-88550984D01*
X213823674Y-88617865D01*
X213772299Y-88662382D01*
X213686340Y-88702465D01*
X213686338Y-88702466D01*
X213505377Y-88829175D01*
X213349175Y-88985377D01*
X213222466Y-89166338D01*
X213222465Y-89166340D01*
X213129107Y-89366548D01*
X213129104Y-89366554D01*
X213071930Y-89579929D01*
X213071929Y-89579937D01*
X213052677Y-89799997D01*
X213052677Y-89800002D01*
X213071929Y-90020062D01*
X213071930Y-90020070D01*
X213129104Y-90233445D01*
X213129105Y-90233447D01*
X213129106Y-90233450D01*
X213193130Y-90370750D01*
X213222466Y-90433662D01*
X213222468Y-90433666D01*
X213349170Y-90614615D01*
X213349175Y-90614621D01*
X213505378Y-90770824D01*
X213505384Y-90770829D01*
X213686333Y-90897531D01*
X213686335Y-90897532D01*
X213686338Y-90897534D01*
X213886550Y-90990894D01*
X214099932Y-91048070D01*
X214257123Y-91061822D01*
X214319998Y-91067323D01*
X214320000Y-91067323D01*
X214320002Y-91067323D01*
X214375017Y-91062509D01*
X214540068Y-91048070D01*
X214753450Y-90990894D01*
X214953662Y-90897534D01*
X215134620Y-90770826D01*
X215290826Y-90614620D01*
X215417534Y-90433662D01*
X215510894Y-90233450D01*
X215568070Y-90020068D01*
X215587323Y-89800000D01*
X215568070Y-89579932D01*
X215510894Y-89366550D01*
X215417534Y-89166339D01*
X215290826Y-88985380D01*
X215205444Y-88899998D01*
X229234645Y-88899998D01*
X229234645Y-88900001D01*
X229254039Y-89171160D01*
X229254040Y-89171167D01*
X229311556Y-89435565D01*
X229311825Y-89436801D01*
X229381726Y-89624211D01*
X229406830Y-89691519D01*
X229537109Y-89930107D01*
X229537110Y-89930108D01*
X229537113Y-89930113D01*
X229700029Y-90147742D01*
X229700033Y-90147746D01*
X229700038Y-90147752D01*
X229892247Y-90339961D01*
X229892253Y-90339966D01*
X229892258Y-90339971D01*
X230109887Y-90502887D01*
X230109891Y-90502889D01*
X230109892Y-90502890D01*
X230348481Y-90633169D01*
X230348480Y-90633169D01*
X230348484Y-90633170D01*
X230348487Y-90633172D01*
X230603199Y-90728175D01*
X230868840Y-90785961D01*
X231120605Y-90803967D01*
X231139999Y-90805355D01*
X231140000Y-90805355D01*
X231140001Y-90805355D01*
X231158100Y-90804060D01*
X231411160Y-90785961D01*
X231676801Y-90728175D01*
X231931513Y-90633172D01*
X231931517Y-90633169D01*
X231931519Y-90633169D01*
X232121823Y-90529255D01*
X232170113Y-90502887D01*
X232387742Y-90339971D01*
X232579971Y-90147742D01*
X232742887Y-89930113D01*
X232873172Y-89691513D01*
X232968175Y-89436801D01*
X233025961Y-89171160D01*
X233045355Y-88900000D01*
X233025961Y-88628840D01*
X232968175Y-88363199D01*
X232873172Y-88108487D01*
X232873170Y-88108484D01*
X232873169Y-88108480D01*
X232742890Y-87869892D01*
X232742889Y-87869891D01*
X232742887Y-87869887D01*
X232579971Y-87652258D01*
X232579966Y-87652253D01*
X232579961Y-87652247D01*
X232387752Y-87460038D01*
X232387746Y-87460033D01*
X232387742Y-87460029D01*
X232170113Y-87297113D01*
X232170108Y-87297110D01*
X232170107Y-87297109D01*
X231931518Y-87166830D01*
X231931519Y-87166830D01*
X231865523Y-87142215D01*
X231676801Y-87071825D01*
X231676794Y-87071823D01*
X231676793Y-87071823D01*
X231411167Y-87014040D01*
X231411160Y-87014039D01*
X231140001Y-86994645D01*
X231139999Y-86994645D01*
X230868839Y-87014039D01*
X230868832Y-87014040D01*
X230603206Y-87071823D01*
X230603202Y-87071824D01*
X230603199Y-87071825D01*
X230522957Y-87101754D01*
X230348480Y-87166830D01*
X230109892Y-87297109D01*
X230109891Y-87297110D01*
X229892259Y-87460028D01*
X229892247Y-87460038D01*
X229700038Y-87652247D01*
X229700028Y-87652259D01*
X229537110Y-87869891D01*
X229537109Y-87869892D01*
X229406830Y-88108480D01*
X229360825Y-88231825D01*
X229311825Y-88363199D01*
X229311824Y-88363202D01*
X229311823Y-88363206D01*
X229254040Y-88628832D01*
X229254039Y-88628839D01*
X229234645Y-88899998D01*
X215205444Y-88899998D01*
X215134620Y-88829174D01*
X215134616Y-88829171D01*
X215134615Y-88829170D01*
X214953666Y-88702468D01*
X214953658Y-88702464D01*
X214867701Y-88662382D01*
X214815261Y-88616210D01*
X214796109Y-88549017D01*
X214816324Y-88482136D01*
X214867701Y-88437618D01*
X214890332Y-88427065D01*
X214953662Y-88397534D01*
X215134620Y-88270826D01*
X215290826Y-88114620D01*
X215417534Y-87933662D01*
X215510894Y-87733450D01*
X215568070Y-87520068D01*
X215587323Y-87300000D01*
X215587070Y-87297113D01*
X215568070Y-87079937D01*
X215568070Y-87079932D01*
X215510894Y-86866550D01*
X215417534Y-86666339D01*
X215309748Y-86512403D01*
X215290827Y-86485381D01*
X215230877Y-86425431D01*
X215134620Y-86329174D01*
X215134616Y-86329171D01*
X215134615Y-86329170D01*
X214953666Y-86202468D01*
X214953662Y-86202466D01*
X214953660Y-86202465D01*
X214753450Y-86109106D01*
X214753447Y-86109105D01*
X214753445Y-86109104D01*
X214540070Y-86051930D01*
X214540062Y-86051929D01*
X214320002Y-86032677D01*
X214319998Y-86032677D01*
X214099937Y-86051929D01*
X214099929Y-86051930D01*
X213886554Y-86109104D01*
X213886548Y-86109107D01*
X213686340Y-86202465D01*
X213686338Y-86202466D01*
X213505377Y-86329175D01*
X213349175Y-86485377D01*
X213222466Y-86666338D01*
X213222465Y-86666340D01*
X213129107Y-86866548D01*
X213129104Y-86866554D01*
X213071930Y-87079929D01*
X213071929Y-87079937D01*
X213052677Y-87299997D01*
X134287323Y-87299997D01*
X134287070Y-87297113D01*
X134268070Y-87079937D01*
X134268070Y-87079932D01*
X134210894Y-86866550D01*
X134117534Y-86666339D01*
X134009748Y-86512403D01*
X133990827Y-86485381D01*
X133930877Y-86425431D01*
X133834620Y-86329174D01*
X133834616Y-86329171D01*
X133834615Y-86329170D01*
X133653666Y-86202468D01*
X133653662Y-86202466D01*
X133653660Y-86202465D01*
X133453450Y-86109106D01*
X133453447Y-86109105D01*
X133453445Y-86109104D01*
X133240070Y-86051930D01*
X133240062Y-86051929D01*
X133020002Y-86032677D01*
X133019998Y-86032677D01*
X132799937Y-86051929D01*
X132799929Y-86051930D01*
X132586554Y-86109104D01*
X132586548Y-86109107D01*
X132386340Y-86202465D01*
X132386338Y-86202466D01*
X132205377Y-86329175D01*
X132049175Y-86485377D01*
X131922466Y-86666338D01*
X131922465Y-86666340D01*
X131829107Y-86866548D01*
X131829104Y-86866554D01*
X131771930Y-87079929D01*
X131771929Y-87079937D01*
X131752677Y-87299997D01*
X128124675Y-87299997D01*
X128144449Y-87297769D01*
X128144452Y-87297768D01*
X128144455Y-87297768D01*
X128314722Y-87238189D01*
X128467462Y-87142216D01*
X128595016Y-87014662D01*
X128690989Y-86861922D01*
X128750568Y-86691655D01*
X128750569Y-86691649D01*
X128770765Y-86512403D01*
X128770765Y-86512396D01*
X128750569Y-86333150D01*
X128750568Y-86333145D01*
X128690988Y-86162876D01*
X128651782Y-86100480D01*
X128595016Y-86010138D01*
X128467462Y-85882584D01*
X128314723Y-85786611D01*
X128144454Y-85727031D01*
X128144449Y-85727030D01*
X127965204Y-85706835D01*
X127965196Y-85706835D01*
X127785950Y-85727030D01*
X127785945Y-85727031D01*
X127615676Y-85786611D01*
X127462937Y-85882584D01*
X127335384Y-86010137D01*
X127239411Y-86162876D01*
X127179831Y-86333145D01*
X127179830Y-86333150D01*
X127159635Y-86512396D01*
X123095000Y-86512396D01*
X123095000Y-83819996D01*
X125432435Y-83819996D01*
X125432435Y-83820003D01*
X125452630Y-83999249D01*
X125452631Y-83999254D01*
X125512211Y-84169523D01*
X125603266Y-84314435D01*
X125608184Y-84322262D01*
X125735738Y-84449816D01*
X125888478Y-84545789D01*
X126058745Y-84605368D01*
X126058750Y-84605369D01*
X126237996Y-84625565D01*
X126238000Y-84625565D01*
X126238004Y-84625565D01*
X126417249Y-84605369D01*
X126417252Y-84605368D01*
X126417255Y-84605368D01*
X126587522Y-84545789D01*
X126740262Y-84449816D01*
X126867816Y-84322262D01*
X126963789Y-84169522D01*
X127023368Y-83999255D01*
X127043565Y-83820000D01*
X127043396Y-83818504D01*
X127023369Y-83640750D01*
X127023368Y-83640745D01*
X126963788Y-83470476D01*
X126867815Y-83317737D01*
X126740262Y-83190184D01*
X126587523Y-83094211D01*
X126417254Y-83034631D01*
X126417249Y-83034630D01*
X126238004Y-83014435D01*
X126237996Y-83014435D01*
X126058750Y-83034630D01*
X126058745Y-83034631D01*
X125888476Y-83094211D01*
X125735737Y-83190184D01*
X125608184Y-83317737D01*
X125512211Y-83470476D01*
X125452631Y-83640745D01*
X125452630Y-83640750D01*
X125432435Y-83819996D01*
X123095000Y-83819996D01*
X123095000Y-79109995D01*
X161394732Y-79109995D01*
X161394732Y-79110004D01*
X161413777Y-79364154D01*
X161444881Y-79500431D01*
X161470492Y-79612637D01*
X161563607Y-79849888D01*
X161691041Y-80070612D01*
X161849950Y-80269877D01*
X162036783Y-80443232D01*
X162247366Y-80586805D01*
X162247371Y-80586807D01*
X162247372Y-80586808D01*
X162247373Y-80586809D01*
X162369328Y-80645538D01*
X162476992Y-80697387D01*
X162476993Y-80697387D01*
X162476996Y-80697389D01*
X162720542Y-80772513D01*
X162972565Y-80810500D01*
X163227435Y-80810500D01*
X163479458Y-80772513D01*
X163723004Y-80697389D01*
X163952634Y-80586805D01*
X164163217Y-80443232D01*
X164350050Y-80269877D01*
X164508959Y-80070612D01*
X164636393Y-79849888D01*
X164729508Y-79612637D01*
X164786222Y-79364157D01*
X164805268Y-79110000D01*
X164805268Y-79109995D01*
X176634732Y-79109995D01*
X176634732Y-79110004D01*
X176653777Y-79364154D01*
X176684881Y-79500431D01*
X176710492Y-79612637D01*
X176803607Y-79849888D01*
X176931041Y-80070612D01*
X177089950Y-80269877D01*
X177276783Y-80443232D01*
X177487366Y-80586805D01*
X177487371Y-80586807D01*
X177487372Y-80586808D01*
X177487373Y-80586809D01*
X177609328Y-80645538D01*
X177716992Y-80697387D01*
X177716993Y-80697387D01*
X177716996Y-80697389D01*
X177960542Y-80772513D01*
X178212565Y-80810500D01*
X178467435Y-80810500D01*
X178719458Y-80772513D01*
X178963004Y-80697389D01*
X179192634Y-80586805D01*
X179403217Y-80443232D01*
X179590050Y-80269877D01*
X179748959Y-80070612D01*
X179876393Y-79849888D01*
X179969508Y-79612637D01*
X180026222Y-79364157D01*
X180045268Y-79110000D01*
X180044706Y-79102505D01*
X180026222Y-78855845D01*
X179993382Y-78711965D01*
X179969508Y-78607363D01*
X179876393Y-78370112D01*
X179748959Y-78149388D01*
X179590050Y-77950123D01*
X179403217Y-77776768D01*
X179192634Y-77633195D01*
X179192630Y-77633193D01*
X179192627Y-77633191D01*
X179192626Y-77633190D01*
X178963006Y-77522612D01*
X178963008Y-77522612D01*
X178719466Y-77447489D01*
X178719462Y-77447488D01*
X178719458Y-77447487D01*
X178598231Y-77429214D01*
X178467440Y-77409500D01*
X178467435Y-77409500D01*
X178212565Y-77409500D01*
X178212559Y-77409500D01*
X178055609Y-77433157D01*
X177960542Y-77447487D01*
X177960539Y-77447488D01*
X177960533Y-77447489D01*
X177716992Y-77522612D01*
X177487373Y-77633190D01*
X177487372Y-77633191D01*
X177276782Y-77776768D01*
X177089952Y-77950121D01*
X177089950Y-77950123D01*
X176931041Y-78149388D01*
X176803608Y-78370109D01*
X176710492Y-78607362D01*
X176710490Y-78607369D01*
X176653777Y-78855845D01*
X176634732Y-79109995D01*
X164805268Y-79109995D01*
X164804706Y-79102505D01*
X164786222Y-78855845D01*
X164753382Y-78711965D01*
X164729508Y-78607363D01*
X164636393Y-78370112D01*
X164508959Y-78149388D01*
X164350050Y-77950123D01*
X164163217Y-77776768D01*
X163952634Y-77633195D01*
X163952630Y-77633193D01*
X163952627Y-77633191D01*
X163952626Y-77633190D01*
X163723006Y-77522612D01*
X163723008Y-77522612D01*
X163479466Y-77447489D01*
X163479462Y-77447488D01*
X163479458Y-77447487D01*
X163358231Y-77429214D01*
X163227440Y-77409500D01*
X163227435Y-77409500D01*
X162972565Y-77409500D01*
X162972559Y-77409500D01*
X162815609Y-77433157D01*
X162720542Y-77447487D01*
X162720539Y-77447488D01*
X162720533Y-77447489D01*
X162476992Y-77522612D01*
X162247373Y-77633190D01*
X162247372Y-77633191D01*
X162036782Y-77776768D01*
X161849952Y-77950121D01*
X161849950Y-77950123D01*
X161691041Y-78149388D01*
X161563608Y-78370109D01*
X161470492Y-78607362D01*
X161470490Y-78607369D01*
X161413777Y-78855845D01*
X161394732Y-79109995D01*
X123095000Y-79109995D01*
X123095000Y-74789000D01*
X123114685Y-74721961D01*
X123167489Y-74676206D01*
X123219000Y-74665000D01*
X239310500Y-74665000D01*
X239377539Y-74684685D01*
G37*
%TD.AperFunction*%
%TD*%
M02*
