%TF.GenerationSoftware,KiCad,Pcbnew,9.0.3*%
%TF.CreationDate,2025-09-16T12:03:33-04:00*%
%TF.ProjectId,6_COLD_TPC_HV,365f434f-4c44-45f5-9450-435f48562e6b,rev?*%
%TF.SameCoordinates,Original*%
%TF.FileFunction,AssemblyDrawing,Bot*%
%FSLAX46Y46*%
G04 Gerber Fmt 4.6, Leading zero omitted, Abs format (unit mm)*
G04 Created by KiCad (PCBNEW 9.0.3) date 2025-09-16 12:03:33*
%MOMM*%
%LPD*%
G01*
G04 APERTURE LIST*
%ADD10C,0.150000*%
%ADD11C,0.060000*%
%ADD12C,0.080000*%
%ADD13C,0.040000*%
%ADD14C,0.100000*%
%ADD15C,0.025400*%
G04 APERTURE END LIST*
D10*
X262963390Y-134774286D02*
X262915771Y-134679048D01*
X262915771Y-134679048D02*
X262868152Y-134631429D01*
X262868152Y-134631429D02*
X262772914Y-134583810D01*
X262772914Y-134583810D02*
X262725295Y-134583810D01*
X262725295Y-134583810D02*
X262630057Y-134631429D01*
X262630057Y-134631429D02*
X262582438Y-134679048D01*
X262582438Y-134679048D02*
X262534819Y-134774286D01*
X262534819Y-134774286D02*
X262534819Y-134964762D01*
X262534819Y-134964762D02*
X262582438Y-135060000D01*
X262582438Y-135060000D02*
X262630057Y-135107619D01*
X262630057Y-135107619D02*
X262725295Y-135155238D01*
X262725295Y-135155238D02*
X262772914Y-135155238D01*
X262772914Y-135155238D02*
X262868152Y-135107619D01*
X262868152Y-135107619D02*
X262915771Y-135060000D01*
X262915771Y-135060000D02*
X262963390Y-134964762D01*
X262963390Y-134964762D02*
X262963390Y-134774286D01*
X262963390Y-134774286D02*
X263011009Y-134679048D01*
X263011009Y-134679048D02*
X263058628Y-134631429D01*
X263058628Y-134631429D02*
X263153866Y-134583810D01*
X263153866Y-134583810D02*
X263344342Y-134583810D01*
X263344342Y-134583810D02*
X263439580Y-134631429D01*
X263439580Y-134631429D02*
X263487200Y-134679048D01*
X263487200Y-134679048D02*
X263534819Y-134774286D01*
X263534819Y-134774286D02*
X263534819Y-134964762D01*
X263534819Y-134964762D02*
X263487200Y-135060000D01*
X263487200Y-135060000D02*
X263439580Y-135107619D01*
X263439580Y-135107619D02*
X263344342Y-135155238D01*
X263344342Y-135155238D02*
X263153866Y-135155238D01*
X263153866Y-135155238D02*
X263058628Y-135107619D01*
X263058628Y-135107619D02*
X263011009Y-135060000D01*
X263011009Y-135060000D02*
X262963390Y-134964762D01*
X263439580Y-135583810D02*
X263487200Y-135631429D01*
X263487200Y-135631429D02*
X263534819Y-135583810D01*
X263534819Y-135583810D02*
X263487200Y-135536191D01*
X263487200Y-135536191D02*
X263439580Y-135583810D01*
X263439580Y-135583810D02*
X263534819Y-135583810D01*
X262534819Y-136250476D02*
X262534819Y-136345714D01*
X262534819Y-136345714D02*
X262582438Y-136440952D01*
X262582438Y-136440952D02*
X262630057Y-136488571D01*
X262630057Y-136488571D02*
X262725295Y-136536190D01*
X262725295Y-136536190D02*
X262915771Y-136583809D01*
X262915771Y-136583809D02*
X263153866Y-136583809D01*
X263153866Y-136583809D02*
X263344342Y-136536190D01*
X263344342Y-136536190D02*
X263439580Y-136488571D01*
X263439580Y-136488571D02*
X263487200Y-136440952D01*
X263487200Y-136440952D02*
X263534819Y-136345714D01*
X263534819Y-136345714D02*
X263534819Y-136250476D01*
X263534819Y-136250476D02*
X263487200Y-136155238D01*
X263487200Y-136155238D02*
X263439580Y-136107619D01*
X263439580Y-136107619D02*
X263344342Y-136060000D01*
X263344342Y-136060000D02*
X263153866Y-136012381D01*
X263153866Y-136012381D02*
X262915771Y-136012381D01*
X262915771Y-136012381D02*
X262725295Y-136060000D01*
X262725295Y-136060000D02*
X262630057Y-136107619D01*
X262630057Y-136107619D02*
X262582438Y-136155238D01*
X262582438Y-136155238D02*
X262534819Y-136250476D01*
X262534819Y-137440952D02*
X262534819Y-137250476D01*
X262534819Y-137250476D02*
X262582438Y-137155238D01*
X262582438Y-137155238D02*
X262630057Y-137107619D01*
X262630057Y-137107619D02*
X262772914Y-137012381D01*
X262772914Y-137012381D02*
X262963390Y-136964762D01*
X262963390Y-136964762D02*
X263344342Y-136964762D01*
X263344342Y-136964762D02*
X263439580Y-137012381D01*
X263439580Y-137012381D02*
X263487200Y-137060000D01*
X263487200Y-137060000D02*
X263534819Y-137155238D01*
X263534819Y-137155238D02*
X263534819Y-137345714D01*
X263534819Y-137345714D02*
X263487200Y-137440952D01*
X263487200Y-137440952D02*
X263439580Y-137488571D01*
X263439580Y-137488571D02*
X263344342Y-137536190D01*
X263344342Y-137536190D02*
X263106247Y-137536190D01*
X263106247Y-137536190D02*
X263011009Y-137488571D01*
X263011009Y-137488571D02*
X262963390Y-137440952D01*
X262963390Y-137440952D02*
X262915771Y-137345714D01*
X262915771Y-137345714D02*
X262915771Y-137155238D01*
X262915771Y-137155238D02*
X262963390Y-137060000D01*
X262963390Y-137060000D02*
X263011009Y-137012381D01*
X263011009Y-137012381D02*
X263106247Y-136964762D01*
X263534819Y-137964762D02*
X262534819Y-137964762D01*
X263534819Y-138536190D02*
X262963390Y-138107619D01*
X262534819Y-138536190D02*
X263106247Y-137964762D01*
D11*
X264691927Y-136302857D02*
X264501451Y-136169524D01*
X264691927Y-136074286D02*
X264291927Y-136074286D01*
X264291927Y-136074286D02*
X264291927Y-136226667D01*
X264291927Y-136226667D02*
X264310975Y-136264762D01*
X264310975Y-136264762D02*
X264330022Y-136283809D01*
X264330022Y-136283809D02*
X264368118Y-136302857D01*
X264368118Y-136302857D02*
X264425260Y-136302857D01*
X264425260Y-136302857D02*
X264463356Y-136283809D01*
X264463356Y-136283809D02*
X264482403Y-136264762D01*
X264482403Y-136264762D02*
X264501451Y-136226667D01*
X264501451Y-136226667D02*
X264501451Y-136074286D01*
X264330022Y-136455238D02*
X264310975Y-136474286D01*
X264310975Y-136474286D02*
X264291927Y-136512381D01*
X264291927Y-136512381D02*
X264291927Y-136607619D01*
X264291927Y-136607619D02*
X264310975Y-136645714D01*
X264310975Y-136645714D02*
X264330022Y-136664762D01*
X264330022Y-136664762D02*
X264368118Y-136683809D01*
X264368118Y-136683809D02*
X264406213Y-136683809D01*
X264406213Y-136683809D02*
X264463356Y-136664762D01*
X264463356Y-136664762D02*
X264691927Y-136436190D01*
X264691927Y-136436190D02*
X264691927Y-136683809D01*
X264291927Y-136817142D02*
X264291927Y-137064761D01*
X264291927Y-137064761D02*
X264444308Y-136931428D01*
X264444308Y-136931428D02*
X264444308Y-136988571D01*
X264444308Y-136988571D02*
X264463356Y-137026666D01*
X264463356Y-137026666D02*
X264482403Y-137045714D01*
X264482403Y-137045714D02*
X264520499Y-137064761D01*
X264520499Y-137064761D02*
X264615737Y-137064761D01*
X264615737Y-137064761D02*
X264653832Y-137045714D01*
X264653832Y-137045714D02*
X264672880Y-137026666D01*
X264672880Y-137026666D02*
X264691927Y-136988571D01*
X264691927Y-136988571D02*
X264691927Y-136874285D01*
X264691927Y-136874285D02*
X264672880Y-136836190D01*
X264672880Y-136836190D02*
X264653832Y-136817142D01*
D10*
X188789819Y-146267143D02*
X188789819Y-146362381D01*
X188789819Y-146362381D02*
X188837438Y-146457619D01*
X188837438Y-146457619D02*
X188885057Y-146505238D01*
X188885057Y-146505238D02*
X188980295Y-146552857D01*
X188980295Y-146552857D02*
X189170771Y-146600476D01*
X189170771Y-146600476D02*
X189408866Y-146600476D01*
X189408866Y-146600476D02*
X189599342Y-146552857D01*
X189599342Y-146552857D02*
X189694580Y-146505238D01*
X189694580Y-146505238D02*
X189742200Y-146457619D01*
X189742200Y-146457619D02*
X189789819Y-146362381D01*
X189789819Y-146362381D02*
X189789819Y-146267143D01*
X189789819Y-146267143D02*
X189742200Y-146171905D01*
X189742200Y-146171905D02*
X189694580Y-146124286D01*
X189694580Y-146124286D02*
X189599342Y-146076667D01*
X189599342Y-146076667D02*
X189408866Y-146029048D01*
X189408866Y-146029048D02*
X189170771Y-146029048D01*
X189170771Y-146029048D02*
X188980295Y-146076667D01*
X188980295Y-146076667D02*
X188885057Y-146124286D01*
X188885057Y-146124286D02*
X188837438Y-146171905D01*
X188837438Y-146171905D02*
X188789819Y-146267143D01*
X189694580Y-147029048D02*
X189742200Y-147076667D01*
X189742200Y-147076667D02*
X189789819Y-147029048D01*
X189789819Y-147029048D02*
X189742200Y-146981429D01*
X189742200Y-146981429D02*
X189694580Y-147029048D01*
X189694580Y-147029048D02*
X189789819Y-147029048D01*
X189789819Y-148029047D02*
X189789819Y-147457619D01*
X189789819Y-147743333D02*
X188789819Y-147743333D01*
X188789819Y-147743333D02*
X188932676Y-147648095D01*
X188932676Y-147648095D02*
X189027914Y-147552857D01*
X189027914Y-147552857D02*
X189075533Y-147457619D01*
X189123152Y-148886190D02*
X189789819Y-148886190D01*
X189123152Y-148457619D02*
X189646961Y-148457619D01*
X189646961Y-148457619D02*
X189742200Y-148505238D01*
X189742200Y-148505238D02*
X189789819Y-148600476D01*
X189789819Y-148600476D02*
X189789819Y-148743333D01*
X189789819Y-148743333D02*
X189742200Y-148838571D01*
X189742200Y-148838571D02*
X189694580Y-148886190D01*
X189266009Y-149695714D02*
X189266009Y-149362381D01*
X189789819Y-149362381D02*
X188789819Y-149362381D01*
X188789819Y-149362381D02*
X188789819Y-149838571D01*
D12*
X187834530Y-147588571D02*
X187858340Y-147564762D01*
X187858340Y-147564762D02*
X187882149Y-147493333D01*
X187882149Y-147493333D02*
X187882149Y-147445714D01*
X187882149Y-147445714D02*
X187858340Y-147374286D01*
X187858340Y-147374286D02*
X187810720Y-147326667D01*
X187810720Y-147326667D02*
X187763101Y-147302857D01*
X187763101Y-147302857D02*
X187667863Y-147279048D01*
X187667863Y-147279048D02*
X187596435Y-147279048D01*
X187596435Y-147279048D02*
X187501197Y-147302857D01*
X187501197Y-147302857D02*
X187453578Y-147326667D01*
X187453578Y-147326667D02*
X187405959Y-147374286D01*
X187405959Y-147374286D02*
X187382149Y-147445714D01*
X187382149Y-147445714D02*
X187382149Y-147493333D01*
X187382149Y-147493333D02*
X187405959Y-147564762D01*
X187405959Y-147564762D02*
X187429768Y-147588571D01*
X187382149Y-147755238D02*
X187382149Y-148064762D01*
X187382149Y-148064762D02*
X187572625Y-147898095D01*
X187572625Y-147898095D02*
X187572625Y-147969524D01*
X187572625Y-147969524D02*
X187596435Y-148017143D01*
X187596435Y-148017143D02*
X187620244Y-148040952D01*
X187620244Y-148040952D02*
X187667863Y-148064762D01*
X187667863Y-148064762D02*
X187786911Y-148064762D01*
X187786911Y-148064762D02*
X187834530Y-148040952D01*
X187834530Y-148040952D02*
X187858340Y-148017143D01*
X187858340Y-148017143D02*
X187882149Y-147969524D01*
X187882149Y-147969524D02*
X187882149Y-147826667D01*
X187882149Y-147826667D02*
X187858340Y-147779048D01*
X187858340Y-147779048D02*
X187834530Y-147755238D01*
X187382149Y-148493333D02*
X187382149Y-148398095D01*
X187382149Y-148398095D02*
X187405959Y-148350476D01*
X187405959Y-148350476D02*
X187429768Y-148326666D01*
X187429768Y-148326666D02*
X187501197Y-148279047D01*
X187501197Y-148279047D02*
X187596435Y-148255238D01*
X187596435Y-148255238D02*
X187786911Y-148255238D01*
X187786911Y-148255238D02*
X187834530Y-148279047D01*
X187834530Y-148279047D02*
X187858340Y-148302857D01*
X187858340Y-148302857D02*
X187882149Y-148350476D01*
X187882149Y-148350476D02*
X187882149Y-148445714D01*
X187882149Y-148445714D02*
X187858340Y-148493333D01*
X187858340Y-148493333D02*
X187834530Y-148517142D01*
X187834530Y-148517142D02*
X187786911Y-148540952D01*
X187786911Y-148540952D02*
X187667863Y-148540952D01*
X187667863Y-148540952D02*
X187620244Y-148517142D01*
X187620244Y-148517142D02*
X187596435Y-148493333D01*
X187596435Y-148493333D02*
X187572625Y-148445714D01*
X187572625Y-148445714D02*
X187572625Y-148350476D01*
X187572625Y-148350476D02*
X187596435Y-148302857D01*
X187596435Y-148302857D02*
X187620244Y-148279047D01*
X187620244Y-148279047D02*
X187667863Y-148255238D01*
D10*
X256154819Y-145399761D02*
X256154819Y-144828333D01*
X256154819Y-145114047D02*
X255154819Y-145114047D01*
X255154819Y-145114047D02*
X255297676Y-145018809D01*
X255297676Y-145018809D02*
X255392914Y-144923571D01*
X255392914Y-144923571D02*
X255440533Y-144828333D01*
X255488152Y-146256904D02*
X256154819Y-146256904D01*
X255488152Y-145828333D02*
X256011961Y-145828333D01*
X256011961Y-145828333D02*
X256107200Y-145875952D01*
X256107200Y-145875952D02*
X256154819Y-145971190D01*
X256154819Y-145971190D02*
X256154819Y-146114047D01*
X256154819Y-146114047D02*
X256107200Y-146209285D01*
X256107200Y-146209285D02*
X256059580Y-146256904D01*
X255631009Y-147066428D02*
X255631009Y-146733095D01*
X256154819Y-146733095D02*
X255154819Y-146733095D01*
X255154819Y-146733095D02*
X255154819Y-147209285D01*
D11*
X257273832Y-145737857D02*
X257292880Y-145718809D01*
X257292880Y-145718809D02*
X257311927Y-145661667D01*
X257311927Y-145661667D02*
X257311927Y-145623571D01*
X257311927Y-145623571D02*
X257292880Y-145566428D01*
X257292880Y-145566428D02*
X257254784Y-145528333D01*
X257254784Y-145528333D02*
X257216689Y-145509286D01*
X257216689Y-145509286D02*
X257140499Y-145490238D01*
X257140499Y-145490238D02*
X257083356Y-145490238D01*
X257083356Y-145490238D02*
X257007165Y-145509286D01*
X257007165Y-145509286D02*
X256969070Y-145528333D01*
X256969070Y-145528333D02*
X256930975Y-145566428D01*
X256930975Y-145566428D02*
X256911927Y-145623571D01*
X256911927Y-145623571D02*
X256911927Y-145661667D01*
X256911927Y-145661667D02*
X256930975Y-145718809D01*
X256930975Y-145718809D02*
X256950022Y-145737857D01*
X256911927Y-145871190D02*
X256911927Y-146118809D01*
X256911927Y-146118809D02*
X257064308Y-145985476D01*
X257064308Y-145985476D02*
X257064308Y-146042619D01*
X257064308Y-146042619D02*
X257083356Y-146080714D01*
X257083356Y-146080714D02*
X257102403Y-146099762D01*
X257102403Y-146099762D02*
X257140499Y-146118809D01*
X257140499Y-146118809D02*
X257235737Y-146118809D01*
X257235737Y-146118809D02*
X257273832Y-146099762D01*
X257273832Y-146099762D02*
X257292880Y-146080714D01*
X257292880Y-146080714D02*
X257311927Y-146042619D01*
X257311927Y-146042619D02*
X257311927Y-145928333D01*
X257311927Y-145928333D02*
X257292880Y-145890238D01*
X257292880Y-145890238D02*
X257273832Y-145871190D01*
X256911927Y-146252142D02*
X256911927Y-146499761D01*
X256911927Y-146499761D02*
X257064308Y-146366428D01*
X257064308Y-146366428D02*
X257064308Y-146423571D01*
X257064308Y-146423571D02*
X257083356Y-146461666D01*
X257083356Y-146461666D02*
X257102403Y-146480714D01*
X257102403Y-146480714D02*
X257140499Y-146499761D01*
X257140499Y-146499761D02*
X257235737Y-146499761D01*
X257235737Y-146499761D02*
X257273832Y-146480714D01*
X257273832Y-146480714D02*
X257292880Y-146461666D01*
X257292880Y-146461666D02*
X257311927Y-146423571D01*
X257311927Y-146423571D02*
X257311927Y-146309285D01*
X257311927Y-146309285D02*
X257292880Y-146271190D01*
X257292880Y-146271190D02*
X257273832Y-146252142D01*
D10*
X159674819Y-132260952D02*
X159674819Y-132356190D01*
X159674819Y-132356190D02*
X159722438Y-132451428D01*
X159722438Y-132451428D02*
X159770057Y-132499047D01*
X159770057Y-132499047D02*
X159865295Y-132546666D01*
X159865295Y-132546666D02*
X160055771Y-132594285D01*
X160055771Y-132594285D02*
X160293866Y-132594285D01*
X160293866Y-132594285D02*
X160484342Y-132546666D01*
X160484342Y-132546666D02*
X160579580Y-132499047D01*
X160579580Y-132499047D02*
X160627200Y-132451428D01*
X160627200Y-132451428D02*
X160674819Y-132356190D01*
X160674819Y-132356190D02*
X160674819Y-132260952D01*
X160674819Y-132260952D02*
X160627200Y-132165714D01*
X160627200Y-132165714D02*
X160579580Y-132118095D01*
X160579580Y-132118095D02*
X160484342Y-132070476D01*
X160484342Y-132070476D02*
X160293866Y-132022857D01*
X160293866Y-132022857D02*
X160055771Y-132022857D01*
X160055771Y-132022857D02*
X159865295Y-132070476D01*
X159865295Y-132070476D02*
X159770057Y-132118095D01*
X159770057Y-132118095D02*
X159722438Y-132165714D01*
X159722438Y-132165714D02*
X159674819Y-132260952D01*
X160579580Y-133022857D02*
X160627200Y-133070476D01*
X160627200Y-133070476D02*
X160674819Y-133022857D01*
X160674819Y-133022857D02*
X160627200Y-132975238D01*
X160627200Y-132975238D02*
X160579580Y-133022857D01*
X160579580Y-133022857D02*
X160674819Y-133022857D01*
X159674819Y-133689523D02*
X159674819Y-133784761D01*
X159674819Y-133784761D02*
X159722438Y-133879999D01*
X159722438Y-133879999D02*
X159770057Y-133927618D01*
X159770057Y-133927618D02*
X159865295Y-133975237D01*
X159865295Y-133975237D02*
X160055771Y-134022856D01*
X160055771Y-134022856D02*
X160293866Y-134022856D01*
X160293866Y-134022856D02*
X160484342Y-133975237D01*
X160484342Y-133975237D02*
X160579580Y-133927618D01*
X160579580Y-133927618D02*
X160627200Y-133879999D01*
X160627200Y-133879999D02*
X160674819Y-133784761D01*
X160674819Y-133784761D02*
X160674819Y-133689523D01*
X160674819Y-133689523D02*
X160627200Y-133594285D01*
X160627200Y-133594285D02*
X160579580Y-133546666D01*
X160579580Y-133546666D02*
X160484342Y-133499047D01*
X160484342Y-133499047D02*
X160293866Y-133451428D01*
X160293866Y-133451428D02*
X160055771Y-133451428D01*
X160055771Y-133451428D02*
X159865295Y-133499047D01*
X159865295Y-133499047D02*
X159770057Y-133546666D01*
X159770057Y-133546666D02*
X159722438Y-133594285D01*
X159722438Y-133594285D02*
X159674819Y-133689523D01*
X160674819Y-134975237D02*
X160674819Y-134403809D01*
X160674819Y-134689523D02*
X159674819Y-134689523D01*
X159674819Y-134689523D02*
X159817676Y-134594285D01*
X159817676Y-134594285D02*
X159912914Y-134499047D01*
X159912914Y-134499047D02*
X159960533Y-134403809D01*
X160008152Y-135832380D02*
X160674819Y-135832380D01*
X160008152Y-135403809D02*
X160531961Y-135403809D01*
X160531961Y-135403809D02*
X160627200Y-135451428D01*
X160627200Y-135451428D02*
X160674819Y-135546666D01*
X160674819Y-135546666D02*
X160674819Y-135689523D01*
X160674819Y-135689523D02*
X160627200Y-135784761D01*
X160627200Y-135784761D02*
X160579580Y-135832380D01*
X160151009Y-136641904D02*
X160151009Y-136308571D01*
X160674819Y-136308571D02*
X159674819Y-136308571D01*
X159674819Y-136308571D02*
X159674819Y-136784761D01*
D11*
X161793832Y-134122857D02*
X161812880Y-134103809D01*
X161812880Y-134103809D02*
X161831927Y-134046667D01*
X161831927Y-134046667D02*
X161831927Y-134008571D01*
X161831927Y-134008571D02*
X161812880Y-133951428D01*
X161812880Y-133951428D02*
X161774784Y-133913333D01*
X161774784Y-133913333D02*
X161736689Y-133894286D01*
X161736689Y-133894286D02*
X161660499Y-133875238D01*
X161660499Y-133875238D02*
X161603356Y-133875238D01*
X161603356Y-133875238D02*
X161527165Y-133894286D01*
X161527165Y-133894286D02*
X161489070Y-133913333D01*
X161489070Y-133913333D02*
X161450975Y-133951428D01*
X161450975Y-133951428D02*
X161431927Y-134008571D01*
X161431927Y-134008571D02*
X161431927Y-134046667D01*
X161431927Y-134046667D02*
X161450975Y-134103809D01*
X161450975Y-134103809D02*
X161470022Y-134122857D01*
X161831927Y-134503809D02*
X161831927Y-134275238D01*
X161831927Y-134389524D02*
X161431927Y-134389524D01*
X161431927Y-134389524D02*
X161489070Y-134351428D01*
X161489070Y-134351428D02*
X161527165Y-134313333D01*
X161527165Y-134313333D02*
X161546213Y-134275238D01*
X161603356Y-134732380D02*
X161584308Y-134694285D01*
X161584308Y-134694285D02*
X161565260Y-134675238D01*
X161565260Y-134675238D02*
X161527165Y-134656190D01*
X161527165Y-134656190D02*
X161508118Y-134656190D01*
X161508118Y-134656190D02*
X161470022Y-134675238D01*
X161470022Y-134675238D02*
X161450975Y-134694285D01*
X161450975Y-134694285D02*
X161431927Y-134732380D01*
X161431927Y-134732380D02*
X161431927Y-134808571D01*
X161431927Y-134808571D02*
X161450975Y-134846666D01*
X161450975Y-134846666D02*
X161470022Y-134865714D01*
X161470022Y-134865714D02*
X161508118Y-134884761D01*
X161508118Y-134884761D02*
X161527165Y-134884761D01*
X161527165Y-134884761D02*
X161565260Y-134865714D01*
X161565260Y-134865714D02*
X161584308Y-134846666D01*
X161584308Y-134846666D02*
X161603356Y-134808571D01*
X161603356Y-134808571D02*
X161603356Y-134732380D01*
X161603356Y-134732380D02*
X161622403Y-134694285D01*
X161622403Y-134694285D02*
X161641451Y-134675238D01*
X161641451Y-134675238D02*
X161679546Y-134656190D01*
X161679546Y-134656190D02*
X161755737Y-134656190D01*
X161755737Y-134656190D02*
X161793832Y-134675238D01*
X161793832Y-134675238D02*
X161812880Y-134694285D01*
X161812880Y-134694285D02*
X161831927Y-134732380D01*
X161831927Y-134732380D02*
X161831927Y-134808571D01*
X161831927Y-134808571D02*
X161812880Y-134846666D01*
X161812880Y-134846666D02*
X161793832Y-134865714D01*
X161793832Y-134865714D02*
X161755737Y-134884761D01*
X161755737Y-134884761D02*
X161679546Y-134884761D01*
X161679546Y-134884761D02*
X161641451Y-134865714D01*
X161641451Y-134865714D02*
X161622403Y-134846666D01*
X161622403Y-134846666D02*
X161603356Y-134808571D01*
D10*
X132184819Y-132567143D02*
X132184819Y-132662381D01*
X132184819Y-132662381D02*
X132232438Y-132757619D01*
X132232438Y-132757619D02*
X132280057Y-132805238D01*
X132280057Y-132805238D02*
X132375295Y-132852857D01*
X132375295Y-132852857D02*
X132565771Y-132900476D01*
X132565771Y-132900476D02*
X132803866Y-132900476D01*
X132803866Y-132900476D02*
X132994342Y-132852857D01*
X132994342Y-132852857D02*
X133089580Y-132805238D01*
X133089580Y-132805238D02*
X133137200Y-132757619D01*
X133137200Y-132757619D02*
X133184819Y-132662381D01*
X133184819Y-132662381D02*
X133184819Y-132567143D01*
X133184819Y-132567143D02*
X133137200Y-132471905D01*
X133137200Y-132471905D02*
X133089580Y-132424286D01*
X133089580Y-132424286D02*
X132994342Y-132376667D01*
X132994342Y-132376667D02*
X132803866Y-132329048D01*
X132803866Y-132329048D02*
X132565771Y-132329048D01*
X132565771Y-132329048D02*
X132375295Y-132376667D01*
X132375295Y-132376667D02*
X132280057Y-132424286D01*
X132280057Y-132424286D02*
X132232438Y-132471905D01*
X132232438Y-132471905D02*
X132184819Y-132567143D01*
X133089580Y-133329048D02*
X133137200Y-133376667D01*
X133137200Y-133376667D02*
X133184819Y-133329048D01*
X133184819Y-133329048D02*
X133137200Y-133281429D01*
X133137200Y-133281429D02*
X133089580Y-133329048D01*
X133089580Y-133329048D02*
X133184819Y-133329048D01*
X133184819Y-134329047D02*
X133184819Y-133757619D01*
X133184819Y-134043333D02*
X132184819Y-134043333D01*
X132184819Y-134043333D02*
X132327676Y-133948095D01*
X132327676Y-133948095D02*
X132422914Y-133852857D01*
X132422914Y-133852857D02*
X132470533Y-133757619D01*
X132518152Y-135186190D02*
X133184819Y-135186190D01*
X132518152Y-134757619D02*
X133041961Y-134757619D01*
X133041961Y-134757619D02*
X133137200Y-134805238D01*
X133137200Y-134805238D02*
X133184819Y-134900476D01*
X133184819Y-134900476D02*
X133184819Y-135043333D01*
X133184819Y-135043333D02*
X133137200Y-135138571D01*
X133137200Y-135138571D02*
X133089580Y-135186190D01*
X132661009Y-135995714D02*
X132661009Y-135662381D01*
X133184819Y-135662381D02*
X132184819Y-135662381D01*
X132184819Y-135662381D02*
X132184819Y-136138571D01*
D11*
X134303832Y-133952857D02*
X134322880Y-133933809D01*
X134322880Y-133933809D02*
X134341927Y-133876667D01*
X134341927Y-133876667D02*
X134341927Y-133838571D01*
X134341927Y-133838571D02*
X134322880Y-133781428D01*
X134322880Y-133781428D02*
X134284784Y-133743333D01*
X134284784Y-133743333D02*
X134246689Y-133724286D01*
X134246689Y-133724286D02*
X134170499Y-133705238D01*
X134170499Y-133705238D02*
X134113356Y-133705238D01*
X134113356Y-133705238D02*
X134037165Y-133724286D01*
X134037165Y-133724286D02*
X133999070Y-133743333D01*
X133999070Y-133743333D02*
X133960975Y-133781428D01*
X133960975Y-133781428D02*
X133941927Y-133838571D01*
X133941927Y-133838571D02*
X133941927Y-133876667D01*
X133941927Y-133876667D02*
X133960975Y-133933809D01*
X133960975Y-133933809D02*
X133980022Y-133952857D01*
X134341927Y-134333809D02*
X134341927Y-134105238D01*
X134341927Y-134219524D02*
X133941927Y-134219524D01*
X133941927Y-134219524D02*
X133999070Y-134181428D01*
X133999070Y-134181428D02*
X134037165Y-134143333D01*
X134037165Y-134143333D02*
X134056213Y-134105238D01*
X134075260Y-134676666D02*
X134341927Y-134676666D01*
X133922880Y-134581428D02*
X134208594Y-134486190D01*
X134208594Y-134486190D02*
X134208594Y-134733809D01*
D10*
X194184819Y-123018571D02*
X194184819Y-122447143D01*
X194184819Y-122732857D02*
X193184819Y-122732857D01*
X193184819Y-122732857D02*
X193327676Y-122637619D01*
X193327676Y-122637619D02*
X193422914Y-122542381D01*
X193422914Y-122542381D02*
X193470533Y-122447143D01*
X193184819Y-123637619D02*
X193184819Y-123732857D01*
X193184819Y-123732857D02*
X193232438Y-123828095D01*
X193232438Y-123828095D02*
X193280057Y-123875714D01*
X193280057Y-123875714D02*
X193375295Y-123923333D01*
X193375295Y-123923333D02*
X193565771Y-123970952D01*
X193565771Y-123970952D02*
X193803866Y-123970952D01*
X193803866Y-123970952D02*
X193994342Y-123923333D01*
X193994342Y-123923333D02*
X194089580Y-123875714D01*
X194089580Y-123875714D02*
X194137200Y-123828095D01*
X194137200Y-123828095D02*
X194184819Y-123732857D01*
X194184819Y-123732857D02*
X194184819Y-123637619D01*
X194184819Y-123637619D02*
X194137200Y-123542381D01*
X194137200Y-123542381D02*
X194089580Y-123494762D01*
X194089580Y-123494762D02*
X193994342Y-123447143D01*
X193994342Y-123447143D02*
X193803866Y-123399524D01*
X193803866Y-123399524D02*
X193565771Y-123399524D01*
X193565771Y-123399524D02*
X193375295Y-123447143D01*
X193375295Y-123447143D02*
X193280057Y-123494762D01*
X193280057Y-123494762D02*
X193232438Y-123542381D01*
X193232438Y-123542381D02*
X193184819Y-123637619D01*
X193184819Y-124590000D02*
X193184819Y-124685238D01*
X193184819Y-124685238D02*
X193232438Y-124780476D01*
X193232438Y-124780476D02*
X193280057Y-124828095D01*
X193280057Y-124828095D02*
X193375295Y-124875714D01*
X193375295Y-124875714D02*
X193565771Y-124923333D01*
X193565771Y-124923333D02*
X193803866Y-124923333D01*
X193803866Y-124923333D02*
X193994342Y-124875714D01*
X193994342Y-124875714D02*
X194089580Y-124828095D01*
X194089580Y-124828095D02*
X194137200Y-124780476D01*
X194137200Y-124780476D02*
X194184819Y-124685238D01*
X194184819Y-124685238D02*
X194184819Y-124590000D01*
X194184819Y-124590000D02*
X194137200Y-124494762D01*
X194137200Y-124494762D02*
X194089580Y-124447143D01*
X194089580Y-124447143D02*
X193994342Y-124399524D01*
X193994342Y-124399524D02*
X193803866Y-124351905D01*
X193803866Y-124351905D02*
X193565771Y-124351905D01*
X193565771Y-124351905D02*
X193375295Y-124399524D01*
X193375295Y-124399524D02*
X193280057Y-124447143D01*
X193280057Y-124447143D02*
X193232438Y-124494762D01*
X193232438Y-124494762D02*
X193184819Y-124590000D01*
X194184819Y-125351905D02*
X193184819Y-125351905D01*
X193803866Y-125447143D02*
X194184819Y-125732857D01*
X193518152Y-125732857D02*
X193899104Y-125351905D01*
D11*
X192481927Y-123832857D02*
X192291451Y-123699524D01*
X192481927Y-123604286D02*
X192081927Y-123604286D01*
X192081927Y-123604286D02*
X192081927Y-123756667D01*
X192081927Y-123756667D02*
X192100975Y-123794762D01*
X192100975Y-123794762D02*
X192120022Y-123813809D01*
X192120022Y-123813809D02*
X192158118Y-123832857D01*
X192158118Y-123832857D02*
X192215260Y-123832857D01*
X192215260Y-123832857D02*
X192253356Y-123813809D01*
X192253356Y-123813809D02*
X192272403Y-123794762D01*
X192272403Y-123794762D02*
X192291451Y-123756667D01*
X192291451Y-123756667D02*
X192291451Y-123604286D01*
X192081927Y-123966190D02*
X192081927Y-124213809D01*
X192081927Y-124213809D02*
X192234308Y-124080476D01*
X192234308Y-124080476D02*
X192234308Y-124137619D01*
X192234308Y-124137619D02*
X192253356Y-124175714D01*
X192253356Y-124175714D02*
X192272403Y-124194762D01*
X192272403Y-124194762D02*
X192310499Y-124213809D01*
X192310499Y-124213809D02*
X192405737Y-124213809D01*
X192405737Y-124213809D02*
X192443832Y-124194762D01*
X192443832Y-124194762D02*
X192462880Y-124175714D01*
X192462880Y-124175714D02*
X192481927Y-124137619D01*
X192481927Y-124137619D02*
X192481927Y-124023333D01*
X192481927Y-124023333D02*
X192462880Y-123985238D01*
X192462880Y-123985238D02*
X192443832Y-123966190D01*
X192253356Y-124442380D02*
X192234308Y-124404285D01*
X192234308Y-124404285D02*
X192215260Y-124385238D01*
X192215260Y-124385238D02*
X192177165Y-124366190D01*
X192177165Y-124366190D02*
X192158118Y-124366190D01*
X192158118Y-124366190D02*
X192120022Y-124385238D01*
X192120022Y-124385238D02*
X192100975Y-124404285D01*
X192100975Y-124404285D02*
X192081927Y-124442380D01*
X192081927Y-124442380D02*
X192081927Y-124518571D01*
X192081927Y-124518571D02*
X192100975Y-124556666D01*
X192100975Y-124556666D02*
X192120022Y-124575714D01*
X192120022Y-124575714D02*
X192158118Y-124594761D01*
X192158118Y-124594761D02*
X192177165Y-124594761D01*
X192177165Y-124594761D02*
X192215260Y-124575714D01*
X192215260Y-124575714D02*
X192234308Y-124556666D01*
X192234308Y-124556666D02*
X192253356Y-124518571D01*
X192253356Y-124518571D02*
X192253356Y-124442380D01*
X192253356Y-124442380D02*
X192272403Y-124404285D01*
X192272403Y-124404285D02*
X192291451Y-124385238D01*
X192291451Y-124385238D02*
X192329546Y-124366190D01*
X192329546Y-124366190D02*
X192405737Y-124366190D01*
X192405737Y-124366190D02*
X192443832Y-124385238D01*
X192443832Y-124385238D02*
X192462880Y-124404285D01*
X192462880Y-124404285D02*
X192481927Y-124442380D01*
X192481927Y-124442380D02*
X192481927Y-124518571D01*
X192481927Y-124518571D02*
X192462880Y-124556666D01*
X192462880Y-124556666D02*
X192443832Y-124575714D01*
X192443832Y-124575714D02*
X192405737Y-124594761D01*
X192405737Y-124594761D02*
X192329546Y-124594761D01*
X192329546Y-124594761D02*
X192291451Y-124575714D01*
X192291451Y-124575714D02*
X192272403Y-124556666D01*
X192272403Y-124556666D02*
X192253356Y-124518571D01*
D10*
X262601418Y-137874104D02*
X262125228Y-137874104D01*
X262696656Y-138159819D02*
X262363323Y-137159819D01*
X262363323Y-137159819D02*
X262029990Y-138159819D01*
X261696656Y-138159819D02*
X261696656Y-137159819D01*
X261696656Y-137159819D02*
X261458561Y-137159819D01*
X261458561Y-137159819D02*
X261315704Y-137207438D01*
X261315704Y-137207438D02*
X261220466Y-137302676D01*
X261220466Y-137302676D02*
X261172847Y-137397914D01*
X261172847Y-137397914D02*
X261125228Y-137588390D01*
X261125228Y-137588390D02*
X261125228Y-137731247D01*
X261125228Y-137731247D02*
X261172847Y-137921723D01*
X261172847Y-137921723D02*
X261220466Y-138016961D01*
X261220466Y-138016961D02*
X261315704Y-138112200D01*
X261315704Y-138112200D02*
X261458561Y-138159819D01*
X261458561Y-138159819D02*
X261696656Y-138159819D01*
X260220466Y-137159819D02*
X260696656Y-137159819D01*
X260696656Y-137159819D02*
X260744275Y-137636009D01*
X260744275Y-137636009D02*
X260696656Y-137588390D01*
X260696656Y-137588390D02*
X260601418Y-137540771D01*
X260601418Y-137540771D02*
X260363323Y-137540771D01*
X260363323Y-137540771D02*
X260268085Y-137588390D01*
X260268085Y-137588390D02*
X260220466Y-137636009D01*
X260220466Y-137636009D02*
X260172847Y-137731247D01*
X260172847Y-137731247D02*
X260172847Y-137969342D01*
X260172847Y-137969342D02*
X260220466Y-138064580D01*
X260220466Y-138064580D02*
X260268085Y-138112200D01*
X260268085Y-138112200D02*
X260363323Y-138159819D01*
X260363323Y-138159819D02*
X260601418Y-138159819D01*
X260601418Y-138159819D02*
X260696656Y-138112200D01*
X260696656Y-138112200D02*
X260744275Y-138064580D01*
X259696656Y-138159819D02*
X259506180Y-138159819D01*
X259506180Y-138159819D02*
X259410942Y-138112200D01*
X259410942Y-138112200D02*
X259363323Y-138064580D01*
X259363323Y-138064580D02*
X259268085Y-137921723D01*
X259268085Y-137921723D02*
X259220466Y-137731247D01*
X259220466Y-137731247D02*
X259220466Y-137350295D01*
X259220466Y-137350295D02*
X259268085Y-137255057D01*
X259268085Y-137255057D02*
X259315704Y-137207438D01*
X259315704Y-137207438D02*
X259410942Y-137159819D01*
X259410942Y-137159819D02*
X259601418Y-137159819D01*
X259601418Y-137159819D02*
X259696656Y-137207438D01*
X259696656Y-137207438D02*
X259744275Y-137255057D01*
X259744275Y-137255057D02*
X259791894Y-137350295D01*
X259791894Y-137350295D02*
X259791894Y-137588390D01*
X259791894Y-137588390D02*
X259744275Y-137683628D01*
X259744275Y-137683628D02*
X259696656Y-137731247D01*
X259696656Y-137731247D02*
X259601418Y-137778866D01*
X259601418Y-137778866D02*
X259410942Y-137778866D01*
X259410942Y-137778866D02*
X259315704Y-137731247D01*
X259315704Y-137731247D02*
X259268085Y-137683628D01*
X259268085Y-137683628D02*
X259220466Y-137588390D01*
X258601418Y-137159819D02*
X258506180Y-137159819D01*
X258506180Y-137159819D02*
X258410942Y-137207438D01*
X258410942Y-137207438D02*
X258363323Y-137255057D01*
X258363323Y-137255057D02*
X258315704Y-137350295D01*
X258315704Y-137350295D02*
X258268085Y-137540771D01*
X258268085Y-137540771D02*
X258268085Y-137778866D01*
X258268085Y-137778866D02*
X258315704Y-137969342D01*
X258315704Y-137969342D02*
X258363323Y-138064580D01*
X258363323Y-138064580D02*
X258410942Y-138112200D01*
X258410942Y-138112200D02*
X258506180Y-138159819D01*
X258506180Y-138159819D02*
X258601418Y-138159819D01*
X258601418Y-138159819D02*
X258696656Y-138112200D01*
X258696656Y-138112200D02*
X258744275Y-138064580D01*
X258744275Y-138064580D02*
X258791894Y-137969342D01*
X258791894Y-137969342D02*
X258839513Y-137778866D01*
X258839513Y-137778866D02*
X258839513Y-137540771D01*
X258839513Y-137540771D02*
X258791894Y-137350295D01*
X258791894Y-137350295D02*
X258744275Y-137255057D01*
X258744275Y-137255057D02*
X258696656Y-137207438D01*
X258696656Y-137207438D02*
X258601418Y-137159819D01*
X257553799Y-137159819D02*
X257553799Y-137874104D01*
X257553799Y-137874104D02*
X257601418Y-138016961D01*
X257601418Y-138016961D02*
X257696656Y-138112200D01*
X257696656Y-138112200D02*
X257839513Y-138159819D01*
X257839513Y-138159819D02*
X257934751Y-138159819D01*
X256506180Y-138159819D02*
X256839513Y-137683628D01*
X257077608Y-138159819D02*
X257077608Y-137159819D01*
X257077608Y-137159819D02*
X256696656Y-137159819D01*
X256696656Y-137159819D02*
X256601418Y-137207438D01*
X256601418Y-137207438D02*
X256553799Y-137255057D01*
X256553799Y-137255057D02*
X256506180Y-137350295D01*
X256506180Y-137350295D02*
X256506180Y-137493152D01*
X256506180Y-137493152D02*
X256553799Y-137588390D01*
X256553799Y-137588390D02*
X256601418Y-137636009D01*
X256601418Y-137636009D02*
X256696656Y-137683628D01*
X256696656Y-137683628D02*
X257077608Y-137683628D01*
X256172846Y-137159819D02*
X255506180Y-137159819D01*
X255506180Y-137159819D02*
X256172846Y-138159819D01*
X256172846Y-138159819D02*
X255506180Y-138159819D01*
X255125227Y-137778866D02*
X254363323Y-137778866D01*
X253315704Y-138159819D02*
X253649037Y-137683628D01*
X253887132Y-138159819D02*
X253887132Y-137159819D01*
X253887132Y-137159819D02*
X253506180Y-137159819D01*
X253506180Y-137159819D02*
X253410942Y-137207438D01*
X253410942Y-137207438D02*
X253363323Y-137255057D01*
X253363323Y-137255057D02*
X253315704Y-137350295D01*
X253315704Y-137350295D02*
X253315704Y-137493152D01*
X253315704Y-137493152D02*
X253363323Y-137588390D01*
X253363323Y-137588390D02*
X253410942Y-137636009D01*
X253410942Y-137636009D02*
X253506180Y-137683628D01*
X253506180Y-137683628D02*
X253887132Y-137683628D01*
X252410942Y-138159819D02*
X252887132Y-138159819D01*
X252887132Y-138159819D02*
X252887132Y-137159819D01*
X258315704Y-137159819D02*
X258315704Y-137969342D01*
X258315704Y-137969342D02*
X258268085Y-138064580D01*
X258268085Y-138064580D02*
X258220466Y-138112200D01*
X258220466Y-138112200D02*
X258125228Y-138159819D01*
X258125228Y-138159819D02*
X257934752Y-138159819D01*
X257934752Y-138159819D02*
X257839514Y-138112200D01*
X257839514Y-138112200D02*
X257791895Y-138064580D01*
X257791895Y-138064580D02*
X257744276Y-137969342D01*
X257744276Y-137969342D02*
X257744276Y-137159819D01*
X257125228Y-137588390D02*
X257220466Y-137540771D01*
X257220466Y-137540771D02*
X257268085Y-137493152D01*
X257268085Y-137493152D02*
X257315704Y-137397914D01*
X257315704Y-137397914D02*
X257315704Y-137350295D01*
X257315704Y-137350295D02*
X257268085Y-137255057D01*
X257268085Y-137255057D02*
X257220466Y-137207438D01*
X257220466Y-137207438D02*
X257125228Y-137159819D01*
X257125228Y-137159819D02*
X256934752Y-137159819D01*
X256934752Y-137159819D02*
X256839514Y-137207438D01*
X256839514Y-137207438D02*
X256791895Y-137255057D01*
X256791895Y-137255057D02*
X256744276Y-137350295D01*
X256744276Y-137350295D02*
X256744276Y-137397914D01*
X256744276Y-137397914D02*
X256791895Y-137493152D01*
X256791895Y-137493152D02*
X256839514Y-137540771D01*
X256839514Y-137540771D02*
X256934752Y-137588390D01*
X256934752Y-137588390D02*
X257125228Y-137588390D01*
X257125228Y-137588390D02*
X257220466Y-137636009D01*
X257220466Y-137636009D02*
X257268085Y-137683628D01*
X257268085Y-137683628D02*
X257315704Y-137778866D01*
X257315704Y-137778866D02*
X257315704Y-137969342D01*
X257315704Y-137969342D02*
X257268085Y-138064580D01*
X257268085Y-138064580D02*
X257220466Y-138112200D01*
X257220466Y-138112200D02*
X257125228Y-138159819D01*
X257125228Y-138159819D02*
X256934752Y-138159819D01*
X256934752Y-138159819D02*
X256839514Y-138112200D01*
X256839514Y-138112200D02*
X256791895Y-138064580D01*
X256791895Y-138064580D02*
X256744276Y-137969342D01*
X256744276Y-137969342D02*
X256744276Y-137778866D01*
X256744276Y-137778866D02*
X256791895Y-137683628D01*
X256791895Y-137683628D02*
X256839514Y-137636009D01*
X256839514Y-137636009D02*
X256934752Y-137588390D01*
X259166699Y-134734119D02*
X259166699Y-134972214D01*
X259404794Y-134876976D02*
X259166699Y-134972214D01*
X259166699Y-134972214D02*
X258928604Y-134876976D01*
X259309556Y-135162690D02*
X259166699Y-134972214D01*
X259166699Y-134972214D02*
X259023842Y-135162690D01*
X259166699Y-134734119D02*
X259166699Y-134972214D01*
X259404794Y-134876976D02*
X259166699Y-134972214D01*
X259166699Y-134972214D02*
X258928604Y-134876976D01*
X259309556Y-135162690D02*
X259166699Y-134972214D01*
X259166699Y-134972214D02*
X259023842Y-135162690D01*
X215342856Y-139284819D02*
X215247618Y-139284819D01*
X215247618Y-139284819D02*
X215152380Y-139332438D01*
X215152380Y-139332438D02*
X215104761Y-139380057D01*
X215104761Y-139380057D02*
X215057142Y-139475295D01*
X215057142Y-139475295D02*
X215009523Y-139665771D01*
X215009523Y-139665771D02*
X215009523Y-139903866D01*
X215009523Y-139903866D02*
X215057142Y-140094342D01*
X215057142Y-140094342D02*
X215104761Y-140189580D01*
X215104761Y-140189580D02*
X215152380Y-140237200D01*
X215152380Y-140237200D02*
X215247618Y-140284819D01*
X215247618Y-140284819D02*
X215342856Y-140284819D01*
X215342856Y-140284819D02*
X215438094Y-140237200D01*
X215438094Y-140237200D02*
X215485713Y-140189580D01*
X215485713Y-140189580D02*
X215533332Y-140094342D01*
X215533332Y-140094342D02*
X215580951Y-139903866D01*
X215580951Y-139903866D02*
X215580951Y-139665771D01*
X215580951Y-139665771D02*
X215533332Y-139475295D01*
X215533332Y-139475295D02*
X215485713Y-139380057D01*
X215485713Y-139380057D02*
X215438094Y-139332438D01*
X215438094Y-139332438D02*
X215342856Y-139284819D01*
X214580951Y-140189580D02*
X214533332Y-140237200D01*
X214533332Y-140237200D02*
X214580951Y-140284819D01*
X214580951Y-140284819D02*
X214628570Y-140237200D01*
X214628570Y-140237200D02*
X214580951Y-140189580D01*
X214580951Y-140189580D02*
X214580951Y-140284819D01*
X213580952Y-140284819D02*
X214152380Y-140284819D01*
X213866666Y-140284819D02*
X213866666Y-139284819D01*
X213866666Y-139284819D02*
X213961904Y-139427676D01*
X213961904Y-139427676D02*
X214057142Y-139522914D01*
X214057142Y-139522914D02*
X214152380Y-139570533D01*
X212723809Y-139618152D02*
X212723809Y-140284819D01*
X213152380Y-139618152D02*
X213152380Y-140141961D01*
X213152380Y-140141961D02*
X213104761Y-140237200D01*
X213104761Y-140237200D02*
X213009523Y-140284819D01*
X213009523Y-140284819D02*
X212866666Y-140284819D01*
X212866666Y-140284819D02*
X212771428Y-140237200D01*
X212771428Y-140237200D02*
X212723809Y-140189580D01*
X211914285Y-139761009D02*
X212247618Y-139761009D01*
X212247618Y-140284819D02*
X212247618Y-139284819D01*
X212247618Y-139284819D02*
X211771428Y-139284819D01*
D11*
X213957142Y-138543832D02*
X213976190Y-138562880D01*
X213976190Y-138562880D02*
X214033332Y-138581927D01*
X214033332Y-138581927D02*
X214071428Y-138581927D01*
X214071428Y-138581927D02*
X214128571Y-138562880D01*
X214128571Y-138562880D02*
X214166666Y-138524784D01*
X214166666Y-138524784D02*
X214185713Y-138486689D01*
X214185713Y-138486689D02*
X214204761Y-138410499D01*
X214204761Y-138410499D02*
X214204761Y-138353356D01*
X214204761Y-138353356D02*
X214185713Y-138277165D01*
X214185713Y-138277165D02*
X214166666Y-138239070D01*
X214166666Y-138239070D02*
X214128571Y-138200975D01*
X214128571Y-138200975D02*
X214071428Y-138181927D01*
X214071428Y-138181927D02*
X214033332Y-138181927D01*
X214033332Y-138181927D02*
X213976190Y-138200975D01*
X213976190Y-138200975D02*
X213957142Y-138220022D01*
X213804761Y-138220022D02*
X213785713Y-138200975D01*
X213785713Y-138200975D02*
X213747618Y-138181927D01*
X213747618Y-138181927D02*
X213652380Y-138181927D01*
X213652380Y-138181927D02*
X213614285Y-138200975D01*
X213614285Y-138200975D02*
X213595237Y-138220022D01*
X213595237Y-138220022D02*
X213576190Y-138258118D01*
X213576190Y-138258118D02*
X213576190Y-138296213D01*
X213576190Y-138296213D02*
X213595237Y-138353356D01*
X213595237Y-138353356D02*
X213823809Y-138581927D01*
X213823809Y-138581927D02*
X213576190Y-138581927D01*
X213214285Y-138181927D02*
X213404761Y-138181927D01*
X213404761Y-138181927D02*
X213423809Y-138372403D01*
X213423809Y-138372403D02*
X213404761Y-138353356D01*
X213404761Y-138353356D02*
X213366666Y-138334308D01*
X213366666Y-138334308D02*
X213271428Y-138334308D01*
X213271428Y-138334308D02*
X213233333Y-138353356D01*
X213233333Y-138353356D02*
X213214285Y-138372403D01*
X213214285Y-138372403D02*
X213195238Y-138410499D01*
X213195238Y-138410499D02*
X213195238Y-138505737D01*
X213195238Y-138505737D02*
X213214285Y-138543832D01*
X213214285Y-138543832D02*
X213233333Y-138562880D01*
X213233333Y-138562880D02*
X213271428Y-138581927D01*
X213271428Y-138581927D02*
X213366666Y-138581927D01*
X213366666Y-138581927D02*
X213404761Y-138562880D01*
X213404761Y-138562880D02*
X213423809Y-138543832D01*
D10*
X179834819Y-131117143D02*
X179834819Y-131212381D01*
X179834819Y-131212381D02*
X179882438Y-131307619D01*
X179882438Y-131307619D02*
X179930057Y-131355238D01*
X179930057Y-131355238D02*
X180025295Y-131402857D01*
X180025295Y-131402857D02*
X180215771Y-131450476D01*
X180215771Y-131450476D02*
X180453866Y-131450476D01*
X180453866Y-131450476D02*
X180644342Y-131402857D01*
X180644342Y-131402857D02*
X180739580Y-131355238D01*
X180739580Y-131355238D02*
X180787200Y-131307619D01*
X180787200Y-131307619D02*
X180834819Y-131212381D01*
X180834819Y-131212381D02*
X180834819Y-131117143D01*
X180834819Y-131117143D02*
X180787200Y-131021905D01*
X180787200Y-131021905D02*
X180739580Y-130974286D01*
X180739580Y-130974286D02*
X180644342Y-130926667D01*
X180644342Y-130926667D02*
X180453866Y-130879048D01*
X180453866Y-130879048D02*
X180215771Y-130879048D01*
X180215771Y-130879048D02*
X180025295Y-130926667D01*
X180025295Y-130926667D02*
X179930057Y-130974286D01*
X179930057Y-130974286D02*
X179882438Y-131021905D01*
X179882438Y-131021905D02*
X179834819Y-131117143D01*
X180739580Y-131879048D02*
X180787200Y-131926667D01*
X180787200Y-131926667D02*
X180834819Y-131879048D01*
X180834819Y-131879048D02*
X180787200Y-131831429D01*
X180787200Y-131831429D02*
X180739580Y-131879048D01*
X180739580Y-131879048D02*
X180834819Y-131879048D01*
X180834819Y-132879047D02*
X180834819Y-132307619D01*
X180834819Y-132593333D02*
X179834819Y-132593333D01*
X179834819Y-132593333D02*
X179977676Y-132498095D01*
X179977676Y-132498095D02*
X180072914Y-132402857D01*
X180072914Y-132402857D02*
X180120533Y-132307619D01*
X180168152Y-133736190D02*
X180834819Y-133736190D01*
X180168152Y-133307619D02*
X180691961Y-133307619D01*
X180691961Y-133307619D02*
X180787200Y-133355238D01*
X180787200Y-133355238D02*
X180834819Y-133450476D01*
X180834819Y-133450476D02*
X180834819Y-133593333D01*
X180834819Y-133593333D02*
X180787200Y-133688571D01*
X180787200Y-133688571D02*
X180739580Y-133736190D01*
X180311009Y-134545714D02*
X180311009Y-134212381D01*
X180834819Y-134212381D02*
X179834819Y-134212381D01*
X179834819Y-134212381D02*
X179834819Y-134688571D01*
D11*
X181953832Y-132502857D02*
X181972880Y-132483809D01*
X181972880Y-132483809D02*
X181991927Y-132426667D01*
X181991927Y-132426667D02*
X181991927Y-132388571D01*
X181991927Y-132388571D02*
X181972880Y-132331428D01*
X181972880Y-132331428D02*
X181934784Y-132293333D01*
X181934784Y-132293333D02*
X181896689Y-132274286D01*
X181896689Y-132274286D02*
X181820499Y-132255238D01*
X181820499Y-132255238D02*
X181763356Y-132255238D01*
X181763356Y-132255238D02*
X181687165Y-132274286D01*
X181687165Y-132274286D02*
X181649070Y-132293333D01*
X181649070Y-132293333D02*
X181610975Y-132331428D01*
X181610975Y-132331428D02*
X181591927Y-132388571D01*
X181591927Y-132388571D02*
X181591927Y-132426667D01*
X181591927Y-132426667D02*
X181610975Y-132483809D01*
X181610975Y-132483809D02*
X181630022Y-132502857D01*
X181991927Y-132883809D02*
X181991927Y-132655238D01*
X181991927Y-132769524D02*
X181591927Y-132769524D01*
X181591927Y-132769524D02*
X181649070Y-132731428D01*
X181649070Y-132731428D02*
X181687165Y-132693333D01*
X181687165Y-132693333D02*
X181706213Y-132655238D01*
X181591927Y-133226666D02*
X181591927Y-133150476D01*
X181591927Y-133150476D02*
X181610975Y-133112380D01*
X181610975Y-133112380D02*
X181630022Y-133093333D01*
X181630022Y-133093333D02*
X181687165Y-133055238D01*
X181687165Y-133055238D02*
X181763356Y-133036190D01*
X181763356Y-133036190D02*
X181915737Y-133036190D01*
X181915737Y-133036190D02*
X181953832Y-133055238D01*
X181953832Y-133055238D02*
X181972880Y-133074285D01*
X181972880Y-133074285D02*
X181991927Y-133112380D01*
X181991927Y-133112380D02*
X181991927Y-133188571D01*
X181991927Y-133188571D02*
X181972880Y-133226666D01*
X181972880Y-133226666D02*
X181953832Y-133245714D01*
X181953832Y-133245714D02*
X181915737Y-133264761D01*
X181915737Y-133264761D02*
X181820499Y-133264761D01*
X181820499Y-133264761D02*
X181782403Y-133245714D01*
X181782403Y-133245714D02*
X181763356Y-133226666D01*
X181763356Y-133226666D02*
X181744308Y-133188571D01*
X181744308Y-133188571D02*
X181744308Y-133112380D01*
X181744308Y-133112380D02*
X181763356Y-133074285D01*
X181763356Y-133074285D02*
X181782403Y-133055238D01*
X181782403Y-133055238D02*
X181820499Y-133036190D01*
D10*
X164494819Y-133794761D02*
X164494819Y-133223333D01*
X164494819Y-133509047D02*
X163494819Y-133509047D01*
X163494819Y-133509047D02*
X163637676Y-133413809D01*
X163637676Y-133413809D02*
X163732914Y-133318571D01*
X163732914Y-133318571D02*
X163780533Y-133223333D01*
X163828152Y-134651904D02*
X164494819Y-134651904D01*
X163828152Y-134223333D02*
X164351961Y-134223333D01*
X164351961Y-134223333D02*
X164447200Y-134270952D01*
X164447200Y-134270952D02*
X164494819Y-134366190D01*
X164494819Y-134366190D02*
X164494819Y-134509047D01*
X164494819Y-134509047D02*
X164447200Y-134604285D01*
X164447200Y-134604285D02*
X164399580Y-134651904D01*
X163971009Y-135461428D02*
X163971009Y-135128095D01*
X164494819Y-135128095D02*
X163494819Y-135128095D01*
X163494819Y-135128095D02*
X163494819Y-135604285D01*
D11*
X165613832Y-134132857D02*
X165632880Y-134113809D01*
X165632880Y-134113809D02*
X165651927Y-134056667D01*
X165651927Y-134056667D02*
X165651927Y-134018571D01*
X165651927Y-134018571D02*
X165632880Y-133961428D01*
X165632880Y-133961428D02*
X165594784Y-133923333D01*
X165594784Y-133923333D02*
X165556689Y-133904286D01*
X165556689Y-133904286D02*
X165480499Y-133885238D01*
X165480499Y-133885238D02*
X165423356Y-133885238D01*
X165423356Y-133885238D02*
X165347165Y-133904286D01*
X165347165Y-133904286D02*
X165309070Y-133923333D01*
X165309070Y-133923333D02*
X165270975Y-133961428D01*
X165270975Y-133961428D02*
X165251927Y-134018571D01*
X165251927Y-134018571D02*
X165251927Y-134056667D01*
X165251927Y-134056667D02*
X165270975Y-134113809D01*
X165270975Y-134113809D02*
X165290022Y-134132857D01*
X165290022Y-134285238D02*
X165270975Y-134304286D01*
X165270975Y-134304286D02*
X165251927Y-134342381D01*
X165251927Y-134342381D02*
X165251927Y-134437619D01*
X165251927Y-134437619D02*
X165270975Y-134475714D01*
X165270975Y-134475714D02*
X165290022Y-134494762D01*
X165290022Y-134494762D02*
X165328118Y-134513809D01*
X165328118Y-134513809D02*
X165366213Y-134513809D01*
X165366213Y-134513809D02*
X165423356Y-134494762D01*
X165423356Y-134494762D02*
X165651927Y-134266190D01*
X165651927Y-134266190D02*
X165651927Y-134513809D01*
X165651927Y-134894761D02*
X165651927Y-134666190D01*
X165651927Y-134780476D02*
X165251927Y-134780476D01*
X165251927Y-134780476D02*
X165309070Y-134742380D01*
X165309070Y-134742380D02*
X165347165Y-134704285D01*
X165347165Y-134704285D02*
X165366213Y-134666190D01*
D10*
X201249819Y-144387143D02*
X201249819Y-144482381D01*
X201249819Y-144482381D02*
X201297438Y-144577619D01*
X201297438Y-144577619D02*
X201345057Y-144625238D01*
X201345057Y-144625238D02*
X201440295Y-144672857D01*
X201440295Y-144672857D02*
X201630771Y-144720476D01*
X201630771Y-144720476D02*
X201868866Y-144720476D01*
X201868866Y-144720476D02*
X202059342Y-144672857D01*
X202059342Y-144672857D02*
X202154580Y-144625238D01*
X202154580Y-144625238D02*
X202202200Y-144577619D01*
X202202200Y-144577619D02*
X202249819Y-144482381D01*
X202249819Y-144482381D02*
X202249819Y-144387143D01*
X202249819Y-144387143D02*
X202202200Y-144291905D01*
X202202200Y-144291905D02*
X202154580Y-144244286D01*
X202154580Y-144244286D02*
X202059342Y-144196667D01*
X202059342Y-144196667D02*
X201868866Y-144149048D01*
X201868866Y-144149048D02*
X201630771Y-144149048D01*
X201630771Y-144149048D02*
X201440295Y-144196667D01*
X201440295Y-144196667D02*
X201345057Y-144244286D01*
X201345057Y-144244286D02*
X201297438Y-144291905D01*
X201297438Y-144291905D02*
X201249819Y-144387143D01*
X202154580Y-145149048D02*
X202202200Y-145196667D01*
X202202200Y-145196667D02*
X202249819Y-145149048D01*
X202249819Y-145149048D02*
X202202200Y-145101429D01*
X202202200Y-145101429D02*
X202154580Y-145149048D01*
X202154580Y-145149048D02*
X202249819Y-145149048D01*
X202249819Y-146149047D02*
X202249819Y-145577619D01*
X202249819Y-145863333D02*
X201249819Y-145863333D01*
X201249819Y-145863333D02*
X201392676Y-145768095D01*
X201392676Y-145768095D02*
X201487914Y-145672857D01*
X201487914Y-145672857D02*
X201535533Y-145577619D01*
X201583152Y-147006190D02*
X202249819Y-147006190D01*
X201583152Y-146577619D02*
X202106961Y-146577619D01*
X202106961Y-146577619D02*
X202202200Y-146625238D01*
X202202200Y-146625238D02*
X202249819Y-146720476D01*
X202249819Y-146720476D02*
X202249819Y-146863333D01*
X202249819Y-146863333D02*
X202202200Y-146958571D01*
X202202200Y-146958571D02*
X202154580Y-147006190D01*
X201726009Y-147815714D02*
X201726009Y-147482381D01*
X202249819Y-147482381D02*
X201249819Y-147482381D01*
X201249819Y-147482381D02*
X201249819Y-147958571D01*
D12*
X200294530Y-145708571D02*
X200318340Y-145684762D01*
X200318340Y-145684762D02*
X200342149Y-145613333D01*
X200342149Y-145613333D02*
X200342149Y-145565714D01*
X200342149Y-145565714D02*
X200318340Y-145494286D01*
X200318340Y-145494286D02*
X200270720Y-145446667D01*
X200270720Y-145446667D02*
X200223101Y-145422857D01*
X200223101Y-145422857D02*
X200127863Y-145399048D01*
X200127863Y-145399048D02*
X200056435Y-145399048D01*
X200056435Y-145399048D02*
X199961197Y-145422857D01*
X199961197Y-145422857D02*
X199913578Y-145446667D01*
X199913578Y-145446667D02*
X199865959Y-145494286D01*
X199865959Y-145494286D02*
X199842149Y-145565714D01*
X199842149Y-145565714D02*
X199842149Y-145613333D01*
X199842149Y-145613333D02*
X199865959Y-145684762D01*
X199865959Y-145684762D02*
X199889768Y-145708571D01*
X199842149Y-145875238D02*
X199842149Y-146184762D01*
X199842149Y-146184762D02*
X200032625Y-146018095D01*
X200032625Y-146018095D02*
X200032625Y-146089524D01*
X200032625Y-146089524D02*
X200056435Y-146137143D01*
X200056435Y-146137143D02*
X200080244Y-146160952D01*
X200080244Y-146160952D02*
X200127863Y-146184762D01*
X200127863Y-146184762D02*
X200246911Y-146184762D01*
X200246911Y-146184762D02*
X200294530Y-146160952D01*
X200294530Y-146160952D02*
X200318340Y-146137143D01*
X200318340Y-146137143D02*
X200342149Y-146089524D01*
X200342149Y-146089524D02*
X200342149Y-145946667D01*
X200342149Y-145946667D02*
X200318340Y-145899048D01*
X200318340Y-145899048D02*
X200294530Y-145875238D01*
X199842149Y-146637142D02*
X199842149Y-146399047D01*
X199842149Y-146399047D02*
X200080244Y-146375238D01*
X200080244Y-146375238D02*
X200056435Y-146399047D01*
X200056435Y-146399047D02*
X200032625Y-146446666D01*
X200032625Y-146446666D02*
X200032625Y-146565714D01*
X200032625Y-146565714D02*
X200056435Y-146613333D01*
X200056435Y-146613333D02*
X200080244Y-146637142D01*
X200080244Y-146637142D02*
X200127863Y-146660952D01*
X200127863Y-146660952D02*
X200246911Y-146660952D01*
X200246911Y-146660952D02*
X200294530Y-146637142D01*
X200294530Y-146637142D02*
X200318340Y-146613333D01*
X200318340Y-146613333D02*
X200342149Y-146565714D01*
X200342149Y-146565714D02*
X200342149Y-146446666D01*
X200342149Y-146446666D02*
X200318340Y-146399047D01*
X200318340Y-146399047D02*
X200294530Y-146375238D01*
D10*
X256310057Y-144558810D02*
X256262438Y-144606429D01*
X256262438Y-144606429D02*
X256214819Y-144701667D01*
X256214819Y-144701667D02*
X256214819Y-144939762D01*
X256214819Y-144939762D02*
X256262438Y-145035000D01*
X256262438Y-145035000D02*
X256310057Y-145082619D01*
X256310057Y-145082619D02*
X256405295Y-145130238D01*
X256405295Y-145130238D02*
X256500533Y-145130238D01*
X256500533Y-145130238D02*
X256643390Y-145082619D01*
X256643390Y-145082619D02*
X257214819Y-144511191D01*
X257214819Y-144511191D02*
X257214819Y-145130238D01*
X256548152Y-145987381D02*
X257214819Y-145987381D01*
X256167200Y-145749286D02*
X256881485Y-145511191D01*
X256881485Y-145511191D02*
X256881485Y-146130238D01*
X257119580Y-146511191D02*
X257167200Y-146558810D01*
X257167200Y-146558810D02*
X257214819Y-146511191D01*
X257214819Y-146511191D02*
X257167200Y-146463572D01*
X257167200Y-146463572D02*
X257119580Y-146511191D01*
X257119580Y-146511191D02*
X257214819Y-146511191D01*
X257214819Y-147035000D02*
X257214819Y-147225476D01*
X257214819Y-147225476D02*
X257167200Y-147320714D01*
X257167200Y-147320714D02*
X257119580Y-147368333D01*
X257119580Y-147368333D02*
X256976723Y-147463571D01*
X256976723Y-147463571D02*
X256786247Y-147511190D01*
X256786247Y-147511190D02*
X256405295Y-147511190D01*
X256405295Y-147511190D02*
X256310057Y-147463571D01*
X256310057Y-147463571D02*
X256262438Y-147415952D01*
X256262438Y-147415952D02*
X256214819Y-147320714D01*
X256214819Y-147320714D02*
X256214819Y-147130238D01*
X256214819Y-147130238D02*
X256262438Y-147035000D01*
X256262438Y-147035000D02*
X256310057Y-146987381D01*
X256310057Y-146987381D02*
X256405295Y-146939762D01*
X256405295Y-146939762D02*
X256643390Y-146939762D01*
X256643390Y-146939762D02*
X256738628Y-146987381D01*
X256738628Y-146987381D02*
X256786247Y-147035000D01*
X256786247Y-147035000D02*
X256833866Y-147130238D01*
X256833866Y-147130238D02*
X256833866Y-147320714D01*
X256833866Y-147320714D02*
X256786247Y-147415952D01*
X256786247Y-147415952D02*
X256738628Y-147463571D01*
X256738628Y-147463571D02*
X256643390Y-147511190D01*
D11*
X255511927Y-145777857D02*
X255321451Y-145644524D01*
X255511927Y-145549286D02*
X255111927Y-145549286D01*
X255111927Y-145549286D02*
X255111927Y-145701667D01*
X255111927Y-145701667D02*
X255130975Y-145739762D01*
X255130975Y-145739762D02*
X255150022Y-145758809D01*
X255150022Y-145758809D02*
X255188118Y-145777857D01*
X255188118Y-145777857D02*
X255245260Y-145777857D01*
X255245260Y-145777857D02*
X255283356Y-145758809D01*
X255283356Y-145758809D02*
X255302403Y-145739762D01*
X255302403Y-145739762D02*
X255321451Y-145701667D01*
X255321451Y-145701667D02*
X255321451Y-145549286D01*
X255111927Y-145911190D02*
X255111927Y-146158809D01*
X255111927Y-146158809D02*
X255264308Y-146025476D01*
X255264308Y-146025476D02*
X255264308Y-146082619D01*
X255264308Y-146082619D02*
X255283356Y-146120714D01*
X255283356Y-146120714D02*
X255302403Y-146139762D01*
X255302403Y-146139762D02*
X255340499Y-146158809D01*
X255340499Y-146158809D02*
X255435737Y-146158809D01*
X255435737Y-146158809D02*
X255473832Y-146139762D01*
X255473832Y-146139762D02*
X255492880Y-146120714D01*
X255492880Y-146120714D02*
X255511927Y-146082619D01*
X255511927Y-146082619D02*
X255511927Y-145968333D01*
X255511927Y-145968333D02*
X255492880Y-145930238D01*
X255492880Y-145930238D02*
X255473832Y-145911190D01*
X255150022Y-146311190D02*
X255130975Y-146330238D01*
X255130975Y-146330238D02*
X255111927Y-146368333D01*
X255111927Y-146368333D02*
X255111927Y-146463571D01*
X255111927Y-146463571D02*
X255130975Y-146501666D01*
X255130975Y-146501666D02*
X255150022Y-146520714D01*
X255150022Y-146520714D02*
X255188118Y-146539761D01*
X255188118Y-146539761D02*
X255226213Y-146539761D01*
X255226213Y-146539761D02*
X255283356Y-146520714D01*
X255283356Y-146520714D02*
X255511927Y-146292142D01*
X255511927Y-146292142D02*
X255511927Y-146539761D01*
D10*
X260050057Y-142918810D02*
X260002438Y-142966429D01*
X260002438Y-142966429D02*
X259954819Y-143061667D01*
X259954819Y-143061667D02*
X259954819Y-143299762D01*
X259954819Y-143299762D02*
X260002438Y-143395000D01*
X260002438Y-143395000D02*
X260050057Y-143442619D01*
X260050057Y-143442619D02*
X260145295Y-143490238D01*
X260145295Y-143490238D02*
X260240533Y-143490238D01*
X260240533Y-143490238D02*
X260383390Y-143442619D01*
X260383390Y-143442619D02*
X260954819Y-142871191D01*
X260954819Y-142871191D02*
X260954819Y-143490238D01*
X260288152Y-144347381D02*
X260954819Y-144347381D01*
X259907200Y-144109286D02*
X260621485Y-143871191D01*
X260621485Y-143871191D02*
X260621485Y-144490238D01*
X260859580Y-144871191D02*
X260907200Y-144918810D01*
X260907200Y-144918810D02*
X260954819Y-144871191D01*
X260954819Y-144871191D02*
X260907200Y-144823572D01*
X260907200Y-144823572D02*
X260859580Y-144871191D01*
X260859580Y-144871191D02*
X260954819Y-144871191D01*
X260954819Y-145395000D02*
X260954819Y-145585476D01*
X260954819Y-145585476D02*
X260907200Y-145680714D01*
X260907200Y-145680714D02*
X260859580Y-145728333D01*
X260859580Y-145728333D02*
X260716723Y-145823571D01*
X260716723Y-145823571D02*
X260526247Y-145871190D01*
X260526247Y-145871190D02*
X260145295Y-145871190D01*
X260145295Y-145871190D02*
X260050057Y-145823571D01*
X260050057Y-145823571D02*
X260002438Y-145775952D01*
X260002438Y-145775952D02*
X259954819Y-145680714D01*
X259954819Y-145680714D02*
X259954819Y-145490238D01*
X259954819Y-145490238D02*
X260002438Y-145395000D01*
X260002438Y-145395000D02*
X260050057Y-145347381D01*
X260050057Y-145347381D02*
X260145295Y-145299762D01*
X260145295Y-145299762D02*
X260383390Y-145299762D01*
X260383390Y-145299762D02*
X260478628Y-145347381D01*
X260478628Y-145347381D02*
X260526247Y-145395000D01*
X260526247Y-145395000D02*
X260573866Y-145490238D01*
X260573866Y-145490238D02*
X260573866Y-145680714D01*
X260573866Y-145680714D02*
X260526247Y-145775952D01*
X260526247Y-145775952D02*
X260478628Y-145823571D01*
X260478628Y-145823571D02*
X260383390Y-145871190D01*
D11*
X259251927Y-144137857D02*
X259061451Y-144004524D01*
X259251927Y-143909286D02*
X258851927Y-143909286D01*
X258851927Y-143909286D02*
X258851927Y-144061667D01*
X258851927Y-144061667D02*
X258870975Y-144099762D01*
X258870975Y-144099762D02*
X258890022Y-144118809D01*
X258890022Y-144118809D02*
X258928118Y-144137857D01*
X258928118Y-144137857D02*
X258985260Y-144137857D01*
X258985260Y-144137857D02*
X259023356Y-144118809D01*
X259023356Y-144118809D02*
X259042403Y-144099762D01*
X259042403Y-144099762D02*
X259061451Y-144061667D01*
X259061451Y-144061667D02*
X259061451Y-143909286D01*
X258851927Y-144271190D02*
X258851927Y-144518809D01*
X258851927Y-144518809D02*
X259004308Y-144385476D01*
X259004308Y-144385476D02*
X259004308Y-144442619D01*
X259004308Y-144442619D02*
X259023356Y-144480714D01*
X259023356Y-144480714D02*
X259042403Y-144499762D01*
X259042403Y-144499762D02*
X259080499Y-144518809D01*
X259080499Y-144518809D02*
X259175737Y-144518809D01*
X259175737Y-144518809D02*
X259213832Y-144499762D01*
X259213832Y-144499762D02*
X259232880Y-144480714D01*
X259232880Y-144480714D02*
X259251927Y-144442619D01*
X259251927Y-144442619D02*
X259251927Y-144328333D01*
X259251927Y-144328333D02*
X259232880Y-144290238D01*
X259232880Y-144290238D02*
X259213832Y-144271190D01*
X258851927Y-144766428D02*
X258851927Y-144804523D01*
X258851927Y-144804523D02*
X258870975Y-144842619D01*
X258870975Y-144842619D02*
X258890022Y-144861666D01*
X258890022Y-144861666D02*
X258928118Y-144880714D01*
X258928118Y-144880714D02*
X259004308Y-144899761D01*
X259004308Y-144899761D02*
X259099546Y-144899761D01*
X259099546Y-144899761D02*
X259175737Y-144880714D01*
X259175737Y-144880714D02*
X259213832Y-144861666D01*
X259213832Y-144861666D02*
X259232880Y-144842619D01*
X259232880Y-144842619D02*
X259251927Y-144804523D01*
X259251927Y-144804523D02*
X259251927Y-144766428D01*
X259251927Y-144766428D02*
X259232880Y-144728333D01*
X259232880Y-144728333D02*
X259213832Y-144709285D01*
X259213832Y-144709285D02*
X259175737Y-144690238D01*
X259175737Y-144690238D02*
X259099546Y-144671190D01*
X259099546Y-144671190D02*
X259004308Y-144671190D01*
X259004308Y-144671190D02*
X258928118Y-144690238D01*
X258928118Y-144690238D02*
X258890022Y-144709285D01*
X258890022Y-144709285D02*
X258870975Y-144728333D01*
X258870975Y-144728333D02*
X258851927Y-144766428D01*
D10*
X264024819Y-136499047D02*
X264024819Y-136022857D01*
X264024819Y-136022857D02*
X263024819Y-136022857D01*
X263024819Y-136689524D02*
X263024819Y-137260952D01*
X264024819Y-136975238D02*
X263024819Y-136975238D01*
X263929580Y-138165714D02*
X263977200Y-138118095D01*
X263977200Y-138118095D02*
X264024819Y-137975238D01*
X264024819Y-137975238D02*
X264024819Y-137880000D01*
X264024819Y-137880000D02*
X263977200Y-137737143D01*
X263977200Y-137737143D02*
X263881961Y-137641905D01*
X263881961Y-137641905D02*
X263786723Y-137594286D01*
X263786723Y-137594286D02*
X263596247Y-137546667D01*
X263596247Y-137546667D02*
X263453390Y-137546667D01*
X263453390Y-137546667D02*
X263262914Y-137594286D01*
X263262914Y-137594286D02*
X263167676Y-137641905D01*
X263167676Y-137641905D02*
X263072438Y-137737143D01*
X263072438Y-137737143D02*
X263024819Y-137880000D01*
X263024819Y-137880000D02*
X263024819Y-137975238D01*
X263024819Y-137975238D02*
X263072438Y-138118095D01*
X263072438Y-138118095D02*
X263120057Y-138165714D01*
X263120057Y-138546667D02*
X263072438Y-138594286D01*
X263072438Y-138594286D02*
X263024819Y-138689524D01*
X263024819Y-138689524D02*
X263024819Y-138927619D01*
X263024819Y-138927619D02*
X263072438Y-139022857D01*
X263072438Y-139022857D02*
X263120057Y-139070476D01*
X263120057Y-139070476D02*
X263215295Y-139118095D01*
X263215295Y-139118095D02*
X263310533Y-139118095D01*
X263310533Y-139118095D02*
X263453390Y-139070476D01*
X263453390Y-139070476D02*
X264024819Y-138499048D01*
X264024819Y-138499048D02*
X264024819Y-139118095D01*
X263024819Y-139737143D02*
X263024819Y-139832381D01*
X263024819Y-139832381D02*
X263072438Y-139927619D01*
X263072438Y-139927619D02*
X263120057Y-139975238D01*
X263120057Y-139975238D02*
X263215295Y-140022857D01*
X263215295Y-140022857D02*
X263405771Y-140070476D01*
X263405771Y-140070476D02*
X263643866Y-140070476D01*
X263643866Y-140070476D02*
X263834342Y-140022857D01*
X263834342Y-140022857D02*
X263929580Y-139975238D01*
X263929580Y-139975238D02*
X263977200Y-139927619D01*
X263977200Y-139927619D02*
X264024819Y-139832381D01*
X264024819Y-139832381D02*
X264024819Y-139737143D01*
X264024819Y-139737143D02*
X263977200Y-139641905D01*
X263977200Y-139641905D02*
X263929580Y-139594286D01*
X263929580Y-139594286D02*
X263834342Y-139546667D01*
X263834342Y-139546667D02*
X263643866Y-139499048D01*
X263643866Y-139499048D02*
X263405771Y-139499048D01*
X263405771Y-139499048D02*
X263215295Y-139546667D01*
X263215295Y-139546667D02*
X263120057Y-139594286D01*
X263120057Y-139594286D02*
X263072438Y-139641905D01*
X263072438Y-139641905D02*
X263024819Y-139737143D01*
X263024819Y-140975238D02*
X263024819Y-140499048D01*
X263024819Y-140499048D02*
X263501009Y-140451429D01*
X263501009Y-140451429D02*
X263453390Y-140499048D01*
X263453390Y-140499048D02*
X263405771Y-140594286D01*
X263405771Y-140594286D02*
X263405771Y-140832381D01*
X263405771Y-140832381D02*
X263453390Y-140927619D01*
X263453390Y-140927619D02*
X263501009Y-140975238D01*
X263501009Y-140975238D02*
X263596247Y-141022857D01*
X263596247Y-141022857D02*
X263834342Y-141022857D01*
X263834342Y-141022857D02*
X263929580Y-140975238D01*
X263929580Y-140975238D02*
X263977200Y-140927619D01*
X263977200Y-140927619D02*
X264024819Y-140832381D01*
X264024819Y-140832381D02*
X264024819Y-140594286D01*
X264024819Y-140594286D02*
X263977200Y-140499048D01*
X263977200Y-140499048D02*
X263929580Y-140451429D01*
X263024819Y-141641905D02*
X263024819Y-141737143D01*
X263024819Y-141737143D02*
X263072438Y-141832381D01*
X263072438Y-141832381D02*
X263120057Y-141880000D01*
X263120057Y-141880000D02*
X263215295Y-141927619D01*
X263215295Y-141927619D02*
X263405771Y-141975238D01*
X263405771Y-141975238D02*
X263643866Y-141975238D01*
X263643866Y-141975238D02*
X263834342Y-141927619D01*
X263834342Y-141927619D02*
X263929580Y-141880000D01*
X263929580Y-141880000D02*
X263977200Y-141832381D01*
X263977200Y-141832381D02*
X264024819Y-141737143D01*
X264024819Y-141737143D02*
X264024819Y-141641905D01*
X264024819Y-141641905D02*
X263977200Y-141546667D01*
X263977200Y-141546667D02*
X263929580Y-141499048D01*
X263929580Y-141499048D02*
X263834342Y-141451429D01*
X263834342Y-141451429D02*
X263643866Y-141403810D01*
X263643866Y-141403810D02*
X263405771Y-141403810D01*
X263405771Y-141403810D02*
X263215295Y-141451429D01*
X263215295Y-141451429D02*
X263120057Y-141499048D01*
X263120057Y-141499048D02*
X263072438Y-141546667D01*
X263072438Y-141546667D02*
X263024819Y-141641905D01*
X264024819Y-142403810D02*
X263024819Y-142403810D01*
X263501009Y-142403810D02*
X263501009Y-142975238D01*
X264024819Y-142975238D02*
X263024819Y-142975238D01*
X263024819Y-143308572D02*
X264024819Y-143641905D01*
X264024819Y-143641905D02*
X263024819Y-143975238D01*
X263929580Y-144880000D02*
X263977200Y-144832381D01*
X263977200Y-144832381D02*
X264024819Y-144689524D01*
X264024819Y-144689524D02*
X264024819Y-144594286D01*
X264024819Y-144594286D02*
X263977200Y-144451429D01*
X263977200Y-144451429D02*
X263881961Y-144356191D01*
X263881961Y-144356191D02*
X263786723Y-144308572D01*
X263786723Y-144308572D02*
X263596247Y-144260953D01*
X263596247Y-144260953D02*
X263453390Y-144260953D01*
X263453390Y-144260953D02*
X263262914Y-144308572D01*
X263262914Y-144308572D02*
X263167676Y-144356191D01*
X263167676Y-144356191D02*
X263072438Y-144451429D01*
X263072438Y-144451429D02*
X263024819Y-144594286D01*
X263024819Y-144594286D02*
X263024819Y-144689524D01*
X263024819Y-144689524D02*
X263072438Y-144832381D01*
X263072438Y-144832381D02*
X263120057Y-144880000D01*
X263977200Y-145260953D02*
X264024819Y-145403810D01*
X264024819Y-145403810D02*
X264024819Y-145641905D01*
X264024819Y-145641905D02*
X263977200Y-145737143D01*
X263977200Y-145737143D02*
X263929580Y-145784762D01*
X263929580Y-145784762D02*
X263834342Y-145832381D01*
X263834342Y-145832381D02*
X263739104Y-145832381D01*
X263739104Y-145832381D02*
X263643866Y-145784762D01*
X263643866Y-145784762D02*
X263596247Y-145737143D01*
X263596247Y-145737143D02*
X263548628Y-145641905D01*
X263548628Y-145641905D02*
X263501009Y-145451429D01*
X263501009Y-145451429D02*
X263453390Y-145356191D01*
X263453390Y-145356191D02*
X263405771Y-145308572D01*
X263405771Y-145308572D02*
X263310533Y-145260953D01*
X263310533Y-145260953D02*
X263215295Y-145260953D01*
X263215295Y-145260953D02*
X263120057Y-145308572D01*
X263120057Y-145308572D02*
X263072438Y-145356191D01*
X263072438Y-145356191D02*
X263024819Y-145451429D01*
X263024819Y-145451429D02*
X263024819Y-145689524D01*
X263024819Y-145689524D02*
X263072438Y-145832381D01*
X263024819Y-146737143D02*
X263024819Y-146260953D01*
X263024819Y-146260953D02*
X263501009Y-146213334D01*
X263501009Y-146213334D02*
X263453390Y-146260953D01*
X263453390Y-146260953D02*
X263405771Y-146356191D01*
X263405771Y-146356191D02*
X263405771Y-146594286D01*
X263405771Y-146594286D02*
X263453390Y-146689524D01*
X263453390Y-146689524D02*
X263501009Y-146737143D01*
X263501009Y-146737143D02*
X263596247Y-146784762D01*
X263596247Y-146784762D02*
X263834342Y-146784762D01*
X263834342Y-146784762D02*
X263929580Y-146737143D01*
X263929580Y-146737143D02*
X263977200Y-146689524D01*
X263977200Y-146689524D02*
X264024819Y-146594286D01*
X264024819Y-146594286D02*
X264024819Y-146356191D01*
X264024819Y-146356191D02*
X263977200Y-146260953D01*
X263977200Y-146260953D02*
X263929580Y-146213334D01*
X263643866Y-147213334D02*
X263643866Y-147975239D01*
X263024819Y-148308572D02*
X263024819Y-148880000D01*
X264024819Y-148594286D02*
X263024819Y-148594286D01*
X264024819Y-149784762D02*
X263548628Y-149451429D01*
X264024819Y-149213334D02*
X263024819Y-149213334D01*
X263024819Y-149213334D02*
X263024819Y-149594286D01*
X263024819Y-149594286D02*
X263072438Y-149689524D01*
X263072438Y-149689524D02*
X263120057Y-149737143D01*
X263120057Y-149737143D02*
X263215295Y-149784762D01*
X263215295Y-149784762D02*
X263358152Y-149784762D01*
X263358152Y-149784762D02*
X263453390Y-149737143D01*
X263453390Y-149737143D02*
X263501009Y-149689524D01*
X263501009Y-149689524D02*
X263548628Y-149594286D01*
X263548628Y-149594286D02*
X263548628Y-149213334D01*
X264024819Y-150213334D02*
X263024819Y-150213334D01*
X263024819Y-150213334D02*
X263739104Y-150546667D01*
X263739104Y-150546667D02*
X263024819Y-150880000D01*
X263024819Y-150880000D02*
X264024819Y-150880000D01*
X264024819Y-151356191D02*
X263024819Y-151356191D01*
X263024819Y-151356191D02*
X263024819Y-151737143D01*
X263024819Y-151737143D02*
X263072438Y-151832381D01*
X263072438Y-151832381D02*
X263120057Y-151880000D01*
X263120057Y-151880000D02*
X263215295Y-151927619D01*
X263215295Y-151927619D02*
X263358152Y-151927619D01*
X263358152Y-151927619D02*
X263453390Y-151880000D01*
X263453390Y-151880000D02*
X263501009Y-151832381D01*
X263501009Y-151832381D02*
X263548628Y-151737143D01*
X263548628Y-151737143D02*
X263548628Y-151356191D01*
X263501009Y-152689524D02*
X263548628Y-152832381D01*
X263548628Y-152832381D02*
X263596247Y-152880000D01*
X263596247Y-152880000D02*
X263691485Y-152927619D01*
X263691485Y-152927619D02*
X263834342Y-152927619D01*
X263834342Y-152927619D02*
X263929580Y-152880000D01*
X263929580Y-152880000D02*
X263977200Y-152832381D01*
X263977200Y-152832381D02*
X264024819Y-152737143D01*
X264024819Y-152737143D02*
X264024819Y-152356191D01*
X264024819Y-152356191D02*
X263024819Y-152356191D01*
X263024819Y-152356191D02*
X263024819Y-152689524D01*
X263024819Y-152689524D02*
X263072438Y-152784762D01*
X263072438Y-152784762D02*
X263120057Y-152832381D01*
X263120057Y-152832381D02*
X263215295Y-152880000D01*
X263215295Y-152880000D02*
X263310533Y-152880000D01*
X263310533Y-152880000D02*
X263405771Y-152832381D01*
X263405771Y-152832381D02*
X263453390Y-152784762D01*
X263453390Y-152784762D02*
X263501009Y-152689524D01*
X263501009Y-152689524D02*
X263501009Y-152356191D01*
X263501009Y-153689524D02*
X263501009Y-153356191D01*
X264024819Y-153356191D02*
X263024819Y-153356191D01*
X263024819Y-153356191D02*
X263024819Y-153832381D01*
X263024819Y-144118095D02*
X263834342Y-144118095D01*
X263834342Y-144118095D02*
X263929580Y-144165714D01*
X263929580Y-144165714D02*
X263977200Y-144213333D01*
X263977200Y-144213333D02*
X264024819Y-144308571D01*
X264024819Y-144308571D02*
X264024819Y-144499047D01*
X264024819Y-144499047D02*
X263977200Y-144594285D01*
X263977200Y-144594285D02*
X263929580Y-144641904D01*
X263929580Y-144641904D02*
X263834342Y-144689523D01*
X263834342Y-144689523D02*
X263024819Y-144689523D01*
X264024819Y-145213333D02*
X264024819Y-145403809D01*
X264024819Y-145403809D02*
X263977200Y-145499047D01*
X263977200Y-145499047D02*
X263929580Y-145546666D01*
X263929580Y-145546666D02*
X263786723Y-145641904D01*
X263786723Y-145641904D02*
X263596247Y-145689523D01*
X263596247Y-145689523D02*
X263215295Y-145689523D01*
X263215295Y-145689523D02*
X263120057Y-145641904D01*
X263120057Y-145641904D02*
X263072438Y-145594285D01*
X263072438Y-145594285D02*
X263024819Y-145499047D01*
X263024819Y-145499047D02*
X263024819Y-145308571D01*
X263024819Y-145308571D02*
X263072438Y-145213333D01*
X263072438Y-145213333D02*
X263120057Y-145165714D01*
X263120057Y-145165714D02*
X263215295Y-145118095D01*
X263215295Y-145118095D02*
X263453390Y-145118095D01*
X263453390Y-145118095D02*
X263548628Y-145165714D01*
X263548628Y-145165714D02*
X263596247Y-145213333D01*
X263596247Y-145213333D02*
X263643866Y-145308571D01*
X263643866Y-145308571D02*
X263643866Y-145499047D01*
X263643866Y-145499047D02*
X263596247Y-145594285D01*
X263596247Y-145594285D02*
X263548628Y-145641904D01*
X263548628Y-145641904D02*
X263453390Y-145689523D01*
X217864819Y-115687143D02*
X217864819Y-115782381D01*
X217864819Y-115782381D02*
X217912438Y-115877619D01*
X217912438Y-115877619D02*
X217960057Y-115925238D01*
X217960057Y-115925238D02*
X218055295Y-115972857D01*
X218055295Y-115972857D02*
X218245771Y-116020476D01*
X218245771Y-116020476D02*
X218483866Y-116020476D01*
X218483866Y-116020476D02*
X218674342Y-115972857D01*
X218674342Y-115972857D02*
X218769580Y-115925238D01*
X218769580Y-115925238D02*
X218817200Y-115877619D01*
X218817200Y-115877619D02*
X218864819Y-115782381D01*
X218864819Y-115782381D02*
X218864819Y-115687143D01*
X218864819Y-115687143D02*
X218817200Y-115591905D01*
X218817200Y-115591905D02*
X218769580Y-115544286D01*
X218769580Y-115544286D02*
X218674342Y-115496667D01*
X218674342Y-115496667D02*
X218483866Y-115449048D01*
X218483866Y-115449048D02*
X218245771Y-115449048D01*
X218245771Y-115449048D02*
X218055295Y-115496667D01*
X218055295Y-115496667D02*
X217960057Y-115544286D01*
X217960057Y-115544286D02*
X217912438Y-115591905D01*
X217912438Y-115591905D02*
X217864819Y-115687143D01*
X218769580Y-116449048D02*
X218817200Y-116496667D01*
X218817200Y-116496667D02*
X218864819Y-116449048D01*
X218864819Y-116449048D02*
X218817200Y-116401429D01*
X218817200Y-116401429D02*
X218769580Y-116449048D01*
X218769580Y-116449048D02*
X218864819Y-116449048D01*
X218864819Y-117449047D02*
X218864819Y-116877619D01*
X218864819Y-117163333D02*
X217864819Y-117163333D01*
X217864819Y-117163333D02*
X218007676Y-117068095D01*
X218007676Y-117068095D02*
X218102914Y-116972857D01*
X218102914Y-116972857D02*
X218150533Y-116877619D01*
X218198152Y-118306190D02*
X218864819Y-118306190D01*
X218198152Y-117877619D02*
X218721961Y-117877619D01*
X218721961Y-117877619D02*
X218817200Y-117925238D01*
X218817200Y-117925238D02*
X218864819Y-118020476D01*
X218864819Y-118020476D02*
X218864819Y-118163333D01*
X218864819Y-118163333D02*
X218817200Y-118258571D01*
X218817200Y-118258571D02*
X218769580Y-118306190D01*
X218341009Y-119115714D02*
X218341009Y-118782381D01*
X218864819Y-118782381D02*
X217864819Y-118782381D01*
X217864819Y-118782381D02*
X217864819Y-119258571D01*
D11*
X217123832Y-117072857D02*
X217142880Y-117053809D01*
X217142880Y-117053809D02*
X217161927Y-116996667D01*
X217161927Y-116996667D02*
X217161927Y-116958571D01*
X217161927Y-116958571D02*
X217142880Y-116901428D01*
X217142880Y-116901428D02*
X217104784Y-116863333D01*
X217104784Y-116863333D02*
X217066689Y-116844286D01*
X217066689Y-116844286D02*
X216990499Y-116825238D01*
X216990499Y-116825238D02*
X216933356Y-116825238D01*
X216933356Y-116825238D02*
X216857165Y-116844286D01*
X216857165Y-116844286D02*
X216819070Y-116863333D01*
X216819070Y-116863333D02*
X216780975Y-116901428D01*
X216780975Y-116901428D02*
X216761927Y-116958571D01*
X216761927Y-116958571D02*
X216761927Y-116996667D01*
X216761927Y-116996667D02*
X216780975Y-117053809D01*
X216780975Y-117053809D02*
X216800022Y-117072857D01*
X216800022Y-117225238D02*
X216780975Y-117244286D01*
X216780975Y-117244286D02*
X216761927Y-117282381D01*
X216761927Y-117282381D02*
X216761927Y-117377619D01*
X216761927Y-117377619D02*
X216780975Y-117415714D01*
X216780975Y-117415714D02*
X216800022Y-117434762D01*
X216800022Y-117434762D02*
X216838118Y-117453809D01*
X216838118Y-117453809D02*
X216876213Y-117453809D01*
X216876213Y-117453809D02*
X216933356Y-117434762D01*
X216933356Y-117434762D02*
X217161927Y-117206190D01*
X217161927Y-117206190D02*
X217161927Y-117453809D01*
X216761927Y-117796666D02*
X216761927Y-117720476D01*
X216761927Y-117720476D02*
X216780975Y-117682380D01*
X216780975Y-117682380D02*
X216800022Y-117663333D01*
X216800022Y-117663333D02*
X216857165Y-117625238D01*
X216857165Y-117625238D02*
X216933356Y-117606190D01*
X216933356Y-117606190D02*
X217085737Y-117606190D01*
X217085737Y-117606190D02*
X217123832Y-117625238D01*
X217123832Y-117625238D02*
X217142880Y-117644285D01*
X217142880Y-117644285D02*
X217161927Y-117682380D01*
X217161927Y-117682380D02*
X217161927Y-117758571D01*
X217161927Y-117758571D02*
X217142880Y-117796666D01*
X217142880Y-117796666D02*
X217123832Y-117815714D01*
X217123832Y-117815714D02*
X217085737Y-117834761D01*
X217085737Y-117834761D02*
X216990499Y-117834761D01*
X216990499Y-117834761D02*
X216952403Y-117815714D01*
X216952403Y-117815714D02*
X216933356Y-117796666D01*
X216933356Y-117796666D02*
X216914308Y-117758571D01*
X216914308Y-117758571D02*
X216914308Y-117682380D01*
X216914308Y-117682380D02*
X216933356Y-117644285D01*
X216933356Y-117644285D02*
X216952403Y-117625238D01*
X216952403Y-117625238D02*
X216990499Y-117606190D01*
D10*
X178044819Y-131049524D02*
X178044819Y-131668571D01*
X178044819Y-131668571D02*
X178425771Y-131335238D01*
X178425771Y-131335238D02*
X178425771Y-131478095D01*
X178425771Y-131478095D02*
X178473390Y-131573333D01*
X178473390Y-131573333D02*
X178521009Y-131620952D01*
X178521009Y-131620952D02*
X178616247Y-131668571D01*
X178616247Y-131668571D02*
X178854342Y-131668571D01*
X178854342Y-131668571D02*
X178949580Y-131620952D01*
X178949580Y-131620952D02*
X178997200Y-131573333D01*
X178997200Y-131573333D02*
X179044819Y-131478095D01*
X179044819Y-131478095D02*
X179044819Y-131192381D01*
X179044819Y-131192381D02*
X178997200Y-131097143D01*
X178997200Y-131097143D02*
X178949580Y-131049524D01*
X178044819Y-132001905D02*
X178044819Y-132620952D01*
X178044819Y-132620952D02*
X178425771Y-132287619D01*
X178425771Y-132287619D02*
X178425771Y-132430476D01*
X178425771Y-132430476D02*
X178473390Y-132525714D01*
X178473390Y-132525714D02*
X178521009Y-132573333D01*
X178521009Y-132573333D02*
X178616247Y-132620952D01*
X178616247Y-132620952D02*
X178854342Y-132620952D01*
X178854342Y-132620952D02*
X178949580Y-132573333D01*
X178949580Y-132573333D02*
X178997200Y-132525714D01*
X178997200Y-132525714D02*
X179044819Y-132430476D01*
X179044819Y-132430476D02*
X179044819Y-132144762D01*
X179044819Y-132144762D02*
X178997200Y-132049524D01*
X178997200Y-132049524D02*
X178949580Y-132001905D01*
X178044819Y-133240000D02*
X178044819Y-133335238D01*
X178044819Y-133335238D02*
X178092438Y-133430476D01*
X178092438Y-133430476D02*
X178140057Y-133478095D01*
X178140057Y-133478095D02*
X178235295Y-133525714D01*
X178235295Y-133525714D02*
X178425771Y-133573333D01*
X178425771Y-133573333D02*
X178663866Y-133573333D01*
X178663866Y-133573333D02*
X178854342Y-133525714D01*
X178854342Y-133525714D02*
X178949580Y-133478095D01*
X178949580Y-133478095D02*
X178997200Y-133430476D01*
X178997200Y-133430476D02*
X179044819Y-133335238D01*
X179044819Y-133335238D02*
X179044819Y-133240000D01*
X179044819Y-133240000D02*
X178997200Y-133144762D01*
X178997200Y-133144762D02*
X178949580Y-133097143D01*
X178949580Y-133097143D02*
X178854342Y-133049524D01*
X178854342Y-133049524D02*
X178663866Y-133001905D01*
X178663866Y-133001905D02*
X178425771Y-133001905D01*
X178425771Y-133001905D02*
X178235295Y-133049524D01*
X178235295Y-133049524D02*
X178140057Y-133097143D01*
X178140057Y-133097143D02*
X178092438Y-133144762D01*
X178092438Y-133144762D02*
X178044819Y-133240000D01*
X179044819Y-134001905D02*
X178044819Y-134001905D01*
X178663866Y-134097143D02*
X179044819Y-134382857D01*
X178378152Y-134382857D02*
X178759104Y-134001905D01*
D11*
X180201927Y-132482857D02*
X180011451Y-132349524D01*
X180201927Y-132254286D02*
X179801927Y-132254286D01*
X179801927Y-132254286D02*
X179801927Y-132406667D01*
X179801927Y-132406667D02*
X179820975Y-132444762D01*
X179820975Y-132444762D02*
X179840022Y-132463809D01*
X179840022Y-132463809D02*
X179878118Y-132482857D01*
X179878118Y-132482857D02*
X179935260Y-132482857D01*
X179935260Y-132482857D02*
X179973356Y-132463809D01*
X179973356Y-132463809D02*
X179992403Y-132444762D01*
X179992403Y-132444762D02*
X180011451Y-132406667D01*
X180011451Y-132406667D02*
X180011451Y-132254286D01*
X180201927Y-132863809D02*
X180201927Y-132635238D01*
X180201927Y-132749524D02*
X179801927Y-132749524D01*
X179801927Y-132749524D02*
X179859070Y-132711428D01*
X179859070Y-132711428D02*
X179897165Y-132673333D01*
X179897165Y-132673333D02*
X179916213Y-132635238D01*
X179840022Y-133016190D02*
X179820975Y-133035238D01*
X179820975Y-133035238D02*
X179801927Y-133073333D01*
X179801927Y-133073333D02*
X179801927Y-133168571D01*
X179801927Y-133168571D02*
X179820975Y-133206666D01*
X179820975Y-133206666D02*
X179840022Y-133225714D01*
X179840022Y-133225714D02*
X179878118Y-133244761D01*
X179878118Y-133244761D02*
X179916213Y-133244761D01*
X179916213Y-133244761D02*
X179973356Y-133225714D01*
X179973356Y-133225714D02*
X180201927Y-132997142D01*
X180201927Y-132997142D02*
X180201927Y-133244761D01*
D10*
X161574819Y-132737143D02*
X161574819Y-132832381D01*
X161574819Y-132832381D02*
X161622438Y-132927619D01*
X161622438Y-132927619D02*
X161670057Y-132975238D01*
X161670057Y-132975238D02*
X161765295Y-133022857D01*
X161765295Y-133022857D02*
X161955771Y-133070476D01*
X161955771Y-133070476D02*
X162193866Y-133070476D01*
X162193866Y-133070476D02*
X162384342Y-133022857D01*
X162384342Y-133022857D02*
X162479580Y-132975238D01*
X162479580Y-132975238D02*
X162527200Y-132927619D01*
X162527200Y-132927619D02*
X162574819Y-132832381D01*
X162574819Y-132832381D02*
X162574819Y-132737143D01*
X162574819Y-132737143D02*
X162527200Y-132641905D01*
X162527200Y-132641905D02*
X162479580Y-132594286D01*
X162479580Y-132594286D02*
X162384342Y-132546667D01*
X162384342Y-132546667D02*
X162193866Y-132499048D01*
X162193866Y-132499048D02*
X161955771Y-132499048D01*
X161955771Y-132499048D02*
X161765295Y-132546667D01*
X161765295Y-132546667D02*
X161670057Y-132594286D01*
X161670057Y-132594286D02*
X161622438Y-132641905D01*
X161622438Y-132641905D02*
X161574819Y-132737143D01*
X162479580Y-133499048D02*
X162527200Y-133546667D01*
X162527200Y-133546667D02*
X162574819Y-133499048D01*
X162574819Y-133499048D02*
X162527200Y-133451429D01*
X162527200Y-133451429D02*
X162479580Y-133499048D01*
X162479580Y-133499048D02*
X162574819Y-133499048D01*
X162574819Y-134499047D02*
X162574819Y-133927619D01*
X162574819Y-134213333D02*
X161574819Y-134213333D01*
X161574819Y-134213333D02*
X161717676Y-134118095D01*
X161717676Y-134118095D02*
X161812914Y-134022857D01*
X161812914Y-134022857D02*
X161860533Y-133927619D01*
X161908152Y-135356190D02*
X162574819Y-135356190D01*
X161908152Y-134927619D02*
X162431961Y-134927619D01*
X162431961Y-134927619D02*
X162527200Y-134975238D01*
X162527200Y-134975238D02*
X162574819Y-135070476D01*
X162574819Y-135070476D02*
X162574819Y-135213333D01*
X162574819Y-135213333D02*
X162527200Y-135308571D01*
X162527200Y-135308571D02*
X162479580Y-135356190D01*
X162051009Y-136165714D02*
X162051009Y-135832381D01*
X162574819Y-135832381D02*
X161574819Y-135832381D01*
X161574819Y-135832381D02*
X161574819Y-136308571D01*
D11*
X163693832Y-134122857D02*
X163712880Y-134103809D01*
X163712880Y-134103809D02*
X163731927Y-134046667D01*
X163731927Y-134046667D02*
X163731927Y-134008571D01*
X163731927Y-134008571D02*
X163712880Y-133951428D01*
X163712880Y-133951428D02*
X163674784Y-133913333D01*
X163674784Y-133913333D02*
X163636689Y-133894286D01*
X163636689Y-133894286D02*
X163560499Y-133875238D01*
X163560499Y-133875238D02*
X163503356Y-133875238D01*
X163503356Y-133875238D02*
X163427165Y-133894286D01*
X163427165Y-133894286D02*
X163389070Y-133913333D01*
X163389070Y-133913333D02*
X163350975Y-133951428D01*
X163350975Y-133951428D02*
X163331927Y-134008571D01*
X163331927Y-134008571D02*
X163331927Y-134046667D01*
X163331927Y-134046667D02*
X163350975Y-134103809D01*
X163350975Y-134103809D02*
X163370022Y-134122857D01*
X163370022Y-134275238D02*
X163350975Y-134294286D01*
X163350975Y-134294286D02*
X163331927Y-134332381D01*
X163331927Y-134332381D02*
X163331927Y-134427619D01*
X163331927Y-134427619D02*
X163350975Y-134465714D01*
X163350975Y-134465714D02*
X163370022Y-134484762D01*
X163370022Y-134484762D02*
X163408118Y-134503809D01*
X163408118Y-134503809D02*
X163446213Y-134503809D01*
X163446213Y-134503809D02*
X163503356Y-134484762D01*
X163503356Y-134484762D02*
X163731927Y-134256190D01*
X163731927Y-134256190D02*
X163731927Y-134503809D01*
X163331927Y-134751428D02*
X163331927Y-134789523D01*
X163331927Y-134789523D02*
X163350975Y-134827619D01*
X163350975Y-134827619D02*
X163370022Y-134846666D01*
X163370022Y-134846666D02*
X163408118Y-134865714D01*
X163408118Y-134865714D02*
X163484308Y-134884761D01*
X163484308Y-134884761D02*
X163579546Y-134884761D01*
X163579546Y-134884761D02*
X163655737Y-134865714D01*
X163655737Y-134865714D02*
X163693832Y-134846666D01*
X163693832Y-134846666D02*
X163712880Y-134827619D01*
X163712880Y-134827619D02*
X163731927Y-134789523D01*
X163731927Y-134789523D02*
X163731927Y-134751428D01*
X163731927Y-134751428D02*
X163712880Y-134713333D01*
X163712880Y-134713333D02*
X163693832Y-134694285D01*
X163693832Y-134694285D02*
X163655737Y-134675238D01*
X163655737Y-134675238D02*
X163579546Y-134656190D01*
X163579546Y-134656190D02*
X163484308Y-134656190D01*
X163484308Y-134656190D02*
X163408118Y-134675238D01*
X163408118Y-134675238D02*
X163370022Y-134694285D01*
X163370022Y-134694285D02*
X163350975Y-134713333D01*
X163350975Y-134713333D02*
X163331927Y-134751428D01*
D10*
X266834819Y-144794761D02*
X266834819Y-144223333D01*
X266834819Y-144509047D02*
X265834819Y-144509047D01*
X265834819Y-144509047D02*
X265977676Y-144413809D01*
X265977676Y-144413809D02*
X266072914Y-144318571D01*
X266072914Y-144318571D02*
X266120533Y-144223333D01*
X266168152Y-145651904D02*
X266834819Y-145651904D01*
X266168152Y-145223333D02*
X266691961Y-145223333D01*
X266691961Y-145223333D02*
X266787200Y-145270952D01*
X266787200Y-145270952D02*
X266834819Y-145366190D01*
X266834819Y-145366190D02*
X266834819Y-145509047D01*
X266834819Y-145509047D02*
X266787200Y-145604285D01*
X266787200Y-145604285D02*
X266739580Y-145651904D01*
X266311009Y-146461428D02*
X266311009Y-146128095D01*
X266834819Y-146128095D02*
X265834819Y-146128095D01*
X265834819Y-146128095D02*
X265834819Y-146604285D01*
D13*
X267643439Y-145222857D02*
X267655820Y-145210476D01*
X267655820Y-145210476D02*
X267668200Y-145173333D01*
X267668200Y-145173333D02*
X267668200Y-145148571D01*
X267668200Y-145148571D02*
X267655820Y-145111428D01*
X267655820Y-145111428D02*
X267631058Y-145086666D01*
X267631058Y-145086666D02*
X267606296Y-145074285D01*
X267606296Y-145074285D02*
X267556772Y-145061904D01*
X267556772Y-145061904D02*
X267519629Y-145061904D01*
X267519629Y-145061904D02*
X267470105Y-145074285D01*
X267470105Y-145074285D02*
X267445343Y-145086666D01*
X267445343Y-145086666D02*
X267420581Y-145111428D01*
X267420581Y-145111428D02*
X267408200Y-145148571D01*
X267408200Y-145148571D02*
X267408200Y-145173333D01*
X267408200Y-145173333D02*
X267420581Y-145210476D01*
X267420581Y-145210476D02*
X267432962Y-145222857D01*
X267432962Y-145321904D02*
X267420581Y-145334285D01*
X267420581Y-145334285D02*
X267408200Y-145359047D01*
X267408200Y-145359047D02*
X267408200Y-145420952D01*
X267408200Y-145420952D02*
X267420581Y-145445714D01*
X267420581Y-145445714D02*
X267432962Y-145458095D01*
X267432962Y-145458095D02*
X267457724Y-145470476D01*
X267457724Y-145470476D02*
X267482486Y-145470476D01*
X267482486Y-145470476D02*
X267519629Y-145458095D01*
X267519629Y-145458095D02*
X267668200Y-145309523D01*
X267668200Y-145309523D02*
X267668200Y-145470476D01*
X267668200Y-145594285D02*
X267668200Y-145643809D01*
X267668200Y-145643809D02*
X267655820Y-145668571D01*
X267655820Y-145668571D02*
X267643439Y-145680952D01*
X267643439Y-145680952D02*
X267606296Y-145705714D01*
X267606296Y-145705714D02*
X267556772Y-145718095D01*
X267556772Y-145718095D02*
X267457724Y-145718095D01*
X267457724Y-145718095D02*
X267432962Y-145705714D01*
X267432962Y-145705714D02*
X267420581Y-145693333D01*
X267420581Y-145693333D02*
X267408200Y-145668571D01*
X267408200Y-145668571D02*
X267408200Y-145619047D01*
X267408200Y-145619047D02*
X267420581Y-145594285D01*
X267420581Y-145594285D02*
X267432962Y-145581904D01*
X267432962Y-145581904D02*
X267457724Y-145569523D01*
X267457724Y-145569523D02*
X267519629Y-145569523D01*
X267519629Y-145569523D02*
X267544391Y-145581904D01*
X267544391Y-145581904D02*
X267556772Y-145594285D01*
X267556772Y-145594285D02*
X267569153Y-145619047D01*
X267569153Y-145619047D02*
X267569153Y-145668571D01*
X267569153Y-145668571D02*
X267556772Y-145693333D01*
X267556772Y-145693333D02*
X267544391Y-145705714D01*
X267544391Y-145705714D02*
X267519629Y-145718095D01*
D10*
X168254819Y-133010476D02*
X168254819Y-132439048D01*
X168254819Y-132724762D02*
X167254819Y-132724762D01*
X167254819Y-132724762D02*
X167397676Y-132629524D01*
X167397676Y-132629524D02*
X167492914Y-132534286D01*
X167492914Y-132534286D02*
X167540533Y-132439048D01*
X168159580Y-133439048D02*
X168207200Y-133486667D01*
X168207200Y-133486667D02*
X168254819Y-133439048D01*
X168254819Y-133439048D02*
X168207200Y-133391429D01*
X168207200Y-133391429D02*
X168159580Y-133439048D01*
X168159580Y-133439048D02*
X168254819Y-133439048D01*
X167254819Y-134105714D02*
X167254819Y-134200952D01*
X167254819Y-134200952D02*
X167302438Y-134296190D01*
X167302438Y-134296190D02*
X167350057Y-134343809D01*
X167350057Y-134343809D02*
X167445295Y-134391428D01*
X167445295Y-134391428D02*
X167635771Y-134439047D01*
X167635771Y-134439047D02*
X167873866Y-134439047D01*
X167873866Y-134439047D02*
X168064342Y-134391428D01*
X168064342Y-134391428D02*
X168159580Y-134343809D01*
X168159580Y-134343809D02*
X168207200Y-134296190D01*
X168207200Y-134296190D02*
X168254819Y-134200952D01*
X168254819Y-134200952D02*
X168254819Y-134105714D01*
X168254819Y-134105714D02*
X168207200Y-134010476D01*
X168207200Y-134010476D02*
X168159580Y-133962857D01*
X168159580Y-133962857D02*
X168064342Y-133915238D01*
X168064342Y-133915238D02*
X167873866Y-133867619D01*
X167873866Y-133867619D02*
X167635771Y-133867619D01*
X167635771Y-133867619D02*
X167445295Y-133915238D01*
X167445295Y-133915238D02*
X167350057Y-133962857D01*
X167350057Y-133962857D02*
X167302438Y-134010476D01*
X167302438Y-134010476D02*
X167254819Y-134105714D01*
X167588152Y-135296190D02*
X168254819Y-135296190D01*
X167588152Y-134867619D02*
X168111961Y-134867619D01*
X168111961Y-134867619D02*
X168207200Y-134915238D01*
X168207200Y-134915238D02*
X168254819Y-135010476D01*
X168254819Y-135010476D02*
X168254819Y-135153333D01*
X168254819Y-135153333D02*
X168207200Y-135248571D01*
X168207200Y-135248571D02*
X168159580Y-135296190D01*
X167731009Y-136105714D02*
X167731009Y-135772381D01*
X168254819Y-135772381D02*
X167254819Y-135772381D01*
X167254819Y-135772381D02*
X167254819Y-136248571D01*
D12*
X169559530Y-133998571D02*
X169583340Y-133974762D01*
X169583340Y-133974762D02*
X169607149Y-133903333D01*
X169607149Y-133903333D02*
X169607149Y-133855714D01*
X169607149Y-133855714D02*
X169583340Y-133784286D01*
X169583340Y-133784286D02*
X169535720Y-133736667D01*
X169535720Y-133736667D02*
X169488101Y-133712857D01*
X169488101Y-133712857D02*
X169392863Y-133689048D01*
X169392863Y-133689048D02*
X169321435Y-133689048D01*
X169321435Y-133689048D02*
X169226197Y-133712857D01*
X169226197Y-133712857D02*
X169178578Y-133736667D01*
X169178578Y-133736667D02*
X169130959Y-133784286D01*
X169130959Y-133784286D02*
X169107149Y-133855714D01*
X169107149Y-133855714D02*
X169107149Y-133903333D01*
X169107149Y-133903333D02*
X169130959Y-133974762D01*
X169130959Y-133974762D02*
X169154768Y-133998571D01*
X169607149Y-134474762D02*
X169607149Y-134189048D01*
X169607149Y-134331905D02*
X169107149Y-134331905D01*
X169107149Y-134331905D02*
X169178578Y-134284286D01*
X169178578Y-134284286D02*
X169226197Y-134236667D01*
X169226197Y-134236667D02*
X169250006Y-134189048D01*
X169107149Y-134641428D02*
X169107149Y-134974761D01*
X169107149Y-134974761D02*
X169607149Y-134760476D01*
D10*
X133964819Y-132100952D02*
X133964819Y-132196190D01*
X133964819Y-132196190D02*
X134012438Y-132291428D01*
X134012438Y-132291428D02*
X134060057Y-132339047D01*
X134060057Y-132339047D02*
X134155295Y-132386666D01*
X134155295Y-132386666D02*
X134345771Y-132434285D01*
X134345771Y-132434285D02*
X134583866Y-132434285D01*
X134583866Y-132434285D02*
X134774342Y-132386666D01*
X134774342Y-132386666D02*
X134869580Y-132339047D01*
X134869580Y-132339047D02*
X134917200Y-132291428D01*
X134917200Y-132291428D02*
X134964819Y-132196190D01*
X134964819Y-132196190D02*
X134964819Y-132100952D01*
X134964819Y-132100952D02*
X134917200Y-132005714D01*
X134917200Y-132005714D02*
X134869580Y-131958095D01*
X134869580Y-131958095D02*
X134774342Y-131910476D01*
X134774342Y-131910476D02*
X134583866Y-131862857D01*
X134583866Y-131862857D02*
X134345771Y-131862857D01*
X134345771Y-131862857D02*
X134155295Y-131910476D01*
X134155295Y-131910476D02*
X134060057Y-131958095D01*
X134060057Y-131958095D02*
X134012438Y-132005714D01*
X134012438Y-132005714D02*
X133964819Y-132100952D01*
X134869580Y-132862857D02*
X134917200Y-132910476D01*
X134917200Y-132910476D02*
X134964819Y-132862857D01*
X134964819Y-132862857D02*
X134917200Y-132815238D01*
X134917200Y-132815238D02*
X134869580Y-132862857D01*
X134869580Y-132862857D02*
X134964819Y-132862857D01*
X133964819Y-133529523D02*
X133964819Y-133624761D01*
X133964819Y-133624761D02*
X134012438Y-133719999D01*
X134012438Y-133719999D02*
X134060057Y-133767618D01*
X134060057Y-133767618D02*
X134155295Y-133815237D01*
X134155295Y-133815237D02*
X134345771Y-133862856D01*
X134345771Y-133862856D02*
X134583866Y-133862856D01*
X134583866Y-133862856D02*
X134774342Y-133815237D01*
X134774342Y-133815237D02*
X134869580Y-133767618D01*
X134869580Y-133767618D02*
X134917200Y-133719999D01*
X134917200Y-133719999D02*
X134964819Y-133624761D01*
X134964819Y-133624761D02*
X134964819Y-133529523D01*
X134964819Y-133529523D02*
X134917200Y-133434285D01*
X134917200Y-133434285D02*
X134869580Y-133386666D01*
X134869580Y-133386666D02*
X134774342Y-133339047D01*
X134774342Y-133339047D02*
X134583866Y-133291428D01*
X134583866Y-133291428D02*
X134345771Y-133291428D01*
X134345771Y-133291428D02*
X134155295Y-133339047D01*
X134155295Y-133339047D02*
X134060057Y-133386666D01*
X134060057Y-133386666D02*
X134012438Y-133434285D01*
X134012438Y-133434285D02*
X133964819Y-133529523D01*
X134964819Y-134815237D02*
X134964819Y-134243809D01*
X134964819Y-134529523D02*
X133964819Y-134529523D01*
X133964819Y-134529523D02*
X134107676Y-134434285D01*
X134107676Y-134434285D02*
X134202914Y-134339047D01*
X134202914Y-134339047D02*
X134250533Y-134243809D01*
X134298152Y-135672380D02*
X134964819Y-135672380D01*
X134298152Y-135243809D02*
X134821961Y-135243809D01*
X134821961Y-135243809D02*
X134917200Y-135291428D01*
X134917200Y-135291428D02*
X134964819Y-135386666D01*
X134964819Y-135386666D02*
X134964819Y-135529523D01*
X134964819Y-135529523D02*
X134917200Y-135624761D01*
X134917200Y-135624761D02*
X134869580Y-135672380D01*
X134441009Y-136481904D02*
X134441009Y-136148571D01*
X134964819Y-136148571D02*
X133964819Y-136148571D01*
X133964819Y-136148571D02*
X133964819Y-136624761D01*
D11*
X136083832Y-133962857D02*
X136102880Y-133943809D01*
X136102880Y-133943809D02*
X136121927Y-133886667D01*
X136121927Y-133886667D02*
X136121927Y-133848571D01*
X136121927Y-133848571D02*
X136102880Y-133791428D01*
X136102880Y-133791428D02*
X136064784Y-133753333D01*
X136064784Y-133753333D02*
X136026689Y-133734286D01*
X136026689Y-133734286D02*
X135950499Y-133715238D01*
X135950499Y-133715238D02*
X135893356Y-133715238D01*
X135893356Y-133715238D02*
X135817165Y-133734286D01*
X135817165Y-133734286D02*
X135779070Y-133753333D01*
X135779070Y-133753333D02*
X135740975Y-133791428D01*
X135740975Y-133791428D02*
X135721927Y-133848571D01*
X135721927Y-133848571D02*
X135721927Y-133886667D01*
X135721927Y-133886667D02*
X135740975Y-133943809D01*
X135740975Y-133943809D02*
X135760022Y-133962857D01*
X136121927Y-134343809D02*
X136121927Y-134115238D01*
X136121927Y-134229524D02*
X135721927Y-134229524D01*
X135721927Y-134229524D02*
X135779070Y-134191428D01*
X135779070Y-134191428D02*
X135817165Y-134153333D01*
X135817165Y-134153333D02*
X135836213Y-134115238D01*
X135721927Y-134705714D02*
X135721927Y-134515238D01*
X135721927Y-134515238D02*
X135912403Y-134496190D01*
X135912403Y-134496190D02*
X135893356Y-134515238D01*
X135893356Y-134515238D02*
X135874308Y-134553333D01*
X135874308Y-134553333D02*
X135874308Y-134648571D01*
X135874308Y-134648571D02*
X135893356Y-134686666D01*
X135893356Y-134686666D02*
X135912403Y-134705714D01*
X135912403Y-134705714D02*
X135950499Y-134724761D01*
X135950499Y-134724761D02*
X136045737Y-134724761D01*
X136045737Y-134724761D02*
X136083832Y-134705714D01*
X136083832Y-134705714D02*
X136102880Y-134686666D01*
X136102880Y-134686666D02*
X136121927Y-134648571D01*
X136121927Y-134648571D02*
X136121927Y-134553333D01*
X136121927Y-134553333D02*
X136102880Y-134515238D01*
X136102880Y-134515238D02*
X136083832Y-134496190D01*
D10*
X131444819Y-133604761D02*
X131444819Y-133033333D01*
X131444819Y-133319047D02*
X130444819Y-133319047D01*
X130444819Y-133319047D02*
X130587676Y-133223809D01*
X130587676Y-133223809D02*
X130682914Y-133128571D01*
X130682914Y-133128571D02*
X130730533Y-133033333D01*
X130778152Y-134461904D02*
X131444819Y-134461904D01*
X130778152Y-134033333D02*
X131301961Y-134033333D01*
X131301961Y-134033333D02*
X131397200Y-134080952D01*
X131397200Y-134080952D02*
X131444819Y-134176190D01*
X131444819Y-134176190D02*
X131444819Y-134319047D01*
X131444819Y-134319047D02*
X131397200Y-134414285D01*
X131397200Y-134414285D02*
X131349580Y-134461904D01*
X130921009Y-135271428D02*
X130921009Y-134938095D01*
X131444819Y-134938095D02*
X130444819Y-134938095D01*
X130444819Y-134938095D02*
X130444819Y-135414285D01*
D11*
X132563832Y-133942857D02*
X132582880Y-133923809D01*
X132582880Y-133923809D02*
X132601927Y-133866667D01*
X132601927Y-133866667D02*
X132601927Y-133828571D01*
X132601927Y-133828571D02*
X132582880Y-133771428D01*
X132582880Y-133771428D02*
X132544784Y-133733333D01*
X132544784Y-133733333D02*
X132506689Y-133714286D01*
X132506689Y-133714286D02*
X132430499Y-133695238D01*
X132430499Y-133695238D02*
X132373356Y-133695238D01*
X132373356Y-133695238D02*
X132297165Y-133714286D01*
X132297165Y-133714286D02*
X132259070Y-133733333D01*
X132259070Y-133733333D02*
X132220975Y-133771428D01*
X132220975Y-133771428D02*
X132201927Y-133828571D01*
X132201927Y-133828571D02*
X132201927Y-133866667D01*
X132201927Y-133866667D02*
X132220975Y-133923809D01*
X132220975Y-133923809D02*
X132240022Y-133942857D01*
X132601927Y-134323809D02*
X132601927Y-134095238D01*
X132601927Y-134209524D02*
X132201927Y-134209524D01*
X132201927Y-134209524D02*
X132259070Y-134171428D01*
X132259070Y-134171428D02*
X132297165Y-134133333D01*
X132297165Y-134133333D02*
X132316213Y-134095238D01*
X132240022Y-134476190D02*
X132220975Y-134495238D01*
X132220975Y-134495238D02*
X132201927Y-134533333D01*
X132201927Y-134533333D02*
X132201927Y-134628571D01*
X132201927Y-134628571D02*
X132220975Y-134666666D01*
X132220975Y-134666666D02*
X132240022Y-134685714D01*
X132240022Y-134685714D02*
X132278118Y-134704761D01*
X132278118Y-134704761D02*
X132316213Y-134704761D01*
X132316213Y-134704761D02*
X132373356Y-134685714D01*
X132373356Y-134685714D02*
X132601927Y-134457142D01*
X132601927Y-134457142D02*
X132601927Y-134704761D01*
D10*
X267914819Y-144794761D02*
X267914819Y-144223333D01*
X267914819Y-144509047D02*
X266914819Y-144509047D01*
X266914819Y-144509047D02*
X267057676Y-144413809D01*
X267057676Y-144413809D02*
X267152914Y-144318571D01*
X267152914Y-144318571D02*
X267200533Y-144223333D01*
X266914819Y-145413809D02*
X266914819Y-145509047D01*
X266914819Y-145509047D02*
X266962438Y-145604285D01*
X266962438Y-145604285D02*
X267010057Y-145651904D01*
X267010057Y-145651904D02*
X267105295Y-145699523D01*
X267105295Y-145699523D02*
X267295771Y-145747142D01*
X267295771Y-145747142D02*
X267533866Y-145747142D01*
X267533866Y-145747142D02*
X267724342Y-145699523D01*
X267724342Y-145699523D02*
X267819580Y-145651904D01*
X267819580Y-145651904D02*
X267867200Y-145604285D01*
X267867200Y-145604285D02*
X267914819Y-145509047D01*
X267914819Y-145509047D02*
X267914819Y-145413809D01*
X267914819Y-145413809D02*
X267867200Y-145318571D01*
X267867200Y-145318571D02*
X267819580Y-145270952D01*
X267819580Y-145270952D02*
X267724342Y-145223333D01*
X267724342Y-145223333D02*
X267533866Y-145175714D01*
X267533866Y-145175714D02*
X267295771Y-145175714D01*
X267295771Y-145175714D02*
X267105295Y-145223333D01*
X267105295Y-145223333D02*
X267010057Y-145270952D01*
X267010057Y-145270952D02*
X266962438Y-145318571D01*
X266962438Y-145318571D02*
X266914819Y-145413809D01*
X267914819Y-146175714D02*
X266914819Y-146175714D01*
X267533866Y-146270952D02*
X267914819Y-146556666D01*
X267248152Y-146556666D02*
X267629104Y-146175714D01*
D13*
X266408200Y-145222857D02*
X266284391Y-145136190D01*
X266408200Y-145074285D02*
X266148200Y-145074285D01*
X266148200Y-145074285D02*
X266148200Y-145173333D01*
X266148200Y-145173333D02*
X266160581Y-145198095D01*
X266160581Y-145198095D02*
X266172962Y-145210476D01*
X266172962Y-145210476D02*
X266197724Y-145222857D01*
X266197724Y-145222857D02*
X266234867Y-145222857D01*
X266234867Y-145222857D02*
X266259629Y-145210476D01*
X266259629Y-145210476D02*
X266272010Y-145198095D01*
X266272010Y-145198095D02*
X266284391Y-145173333D01*
X266284391Y-145173333D02*
X266284391Y-145074285D01*
X266172962Y-145321904D02*
X266160581Y-145334285D01*
X266160581Y-145334285D02*
X266148200Y-145359047D01*
X266148200Y-145359047D02*
X266148200Y-145420952D01*
X266148200Y-145420952D02*
X266160581Y-145445714D01*
X266160581Y-145445714D02*
X266172962Y-145458095D01*
X266172962Y-145458095D02*
X266197724Y-145470476D01*
X266197724Y-145470476D02*
X266222486Y-145470476D01*
X266222486Y-145470476D02*
X266259629Y-145458095D01*
X266259629Y-145458095D02*
X266408200Y-145309523D01*
X266408200Y-145309523D02*
X266408200Y-145470476D01*
X266234867Y-145693333D02*
X266408200Y-145693333D01*
X266135820Y-145631428D02*
X266321534Y-145569523D01*
X266321534Y-145569523D02*
X266321534Y-145730476D01*
D10*
X179883333Y-132114819D02*
X180359523Y-132114819D01*
X180359523Y-132114819D02*
X180359523Y-131114819D01*
X179692856Y-131114819D02*
X179121428Y-131114819D01*
X179407142Y-132114819D02*
X179407142Y-131114819D01*
X178883332Y-131114819D02*
X178264285Y-131114819D01*
X178264285Y-131114819D02*
X178597618Y-131495771D01*
X178597618Y-131495771D02*
X178454761Y-131495771D01*
X178454761Y-131495771D02*
X178359523Y-131543390D01*
X178359523Y-131543390D02*
X178311904Y-131591009D01*
X178311904Y-131591009D02*
X178264285Y-131686247D01*
X178264285Y-131686247D02*
X178264285Y-131924342D01*
X178264285Y-131924342D02*
X178311904Y-132019580D01*
X178311904Y-132019580D02*
X178359523Y-132067200D01*
X178359523Y-132067200D02*
X178454761Y-132114819D01*
X178454761Y-132114819D02*
X178740475Y-132114819D01*
X178740475Y-132114819D02*
X178835713Y-132067200D01*
X178835713Y-132067200D02*
X178883332Y-132019580D01*
X177645237Y-131114819D02*
X177549999Y-131114819D01*
X177549999Y-131114819D02*
X177454761Y-131162438D01*
X177454761Y-131162438D02*
X177407142Y-131210057D01*
X177407142Y-131210057D02*
X177359523Y-131305295D01*
X177359523Y-131305295D02*
X177311904Y-131495771D01*
X177311904Y-131495771D02*
X177311904Y-131733866D01*
X177311904Y-131733866D02*
X177359523Y-131924342D01*
X177359523Y-131924342D02*
X177407142Y-132019580D01*
X177407142Y-132019580D02*
X177454761Y-132067200D01*
X177454761Y-132067200D02*
X177549999Y-132114819D01*
X177549999Y-132114819D02*
X177645237Y-132114819D01*
X177645237Y-132114819D02*
X177740475Y-132067200D01*
X177740475Y-132067200D02*
X177788094Y-132019580D01*
X177788094Y-132019580D02*
X177835713Y-131924342D01*
X177835713Y-131924342D02*
X177883332Y-131733866D01*
X177883332Y-131733866D02*
X177883332Y-131495771D01*
X177883332Y-131495771D02*
X177835713Y-131305295D01*
X177835713Y-131305295D02*
X177788094Y-131210057D01*
X177788094Y-131210057D02*
X177740475Y-131162438D01*
X177740475Y-131162438D02*
X177645237Y-131114819D01*
X176740475Y-131543390D02*
X176835713Y-131495771D01*
X176835713Y-131495771D02*
X176883332Y-131448152D01*
X176883332Y-131448152D02*
X176930951Y-131352914D01*
X176930951Y-131352914D02*
X176930951Y-131305295D01*
X176930951Y-131305295D02*
X176883332Y-131210057D01*
X176883332Y-131210057D02*
X176835713Y-131162438D01*
X176835713Y-131162438D02*
X176740475Y-131114819D01*
X176740475Y-131114819D02*
X176549999Y-131114819D01*
X176549999Y-131114819D02*
X176454761Y-131162438D01*
X176454761Y-131162438D02*
X176407142Y-131210057D01*
X176407142Y-131210057D02*
X176359523Y-131305295D01*
X176359523Y-131305295D02*
X176359523Y-131352914D01*
X176359523Y-131352914D02*
X176407142Y-131448152D01*
X176407142Y-131448152D02*
X176454761Y-131495771D01*
X176454761Y-131495771D02*
X176549999Y-131543390D01*
X176549999Y-131543390D02*
X176740475Y-131543390D01*
X176740475Y-131543390D02*
X176835713Y-131591009D01*
X176835713Y-131591009D02*
X176883332Y-131638628D01*
X176883332Y-131638628D02*
X176930951Y-131733866D01*
X176930951Y-131733866D02*
X176930951Y-131924342D01*
X176930951Y-131924342D02*
X176883332Y-132019580D01*
X176883332Y-132019580D02*
X176835713Y-132067200D01*
X176835713Y-132067200D02*
X176740475Y-132114819D01*
X176740475Y-132114819D02*
X176549999Y-132114819D01*
X176549999Y-132114819D02*
X176454761Y-132067200D01*
X176454761Y-132067200D02*
X176407142Y-132019580D01*
X176407142Y-132019580D02*
X176359523Y-131924342D01*
X176359523Y-131924342D02*
X176359523Y-131733866D01*
X176359523Y-131733866D02*
X176407142Y-131638628D01*
X176407142Y-131638628D02*
X176454761Y-131591009D01*
X176454761Y-131591009D02*
X176549999Y-131543390D01*
X175740475Y-131114819D02*
X175645237Y-131114819D01*
X175645237Y-131114819D02*
X175549999Y-131162438D01*
X175549999Y-131162438D02*
X175502380Y-131210057D01*
X175502380Y-131210057D02*
X175454761Y-131305295D01*
X175454761Y-131305295D02*
X175407142Y-131495771D01*
X175407142Y-131495771D02*
X175407142Y-131733866D01*
X175407142Y-131733866D02*
X175454761Y-131924342D01*
X175454761Y-131924342D02*
X175502380Y-132019580D01*
X175502380Y-132019580D02*
X175549999Y-132067200D01*
X175549999Y-132067200D02*
X175645237Y-132114819D01*
X175645237Y-132114819D02*
X175740475Y-132114819D01*
X175740475Y-132114819D02*
X175835713Y-132067200D01*
X175835713Y-132067200D02*
X175883332Y-132019580D01*
X175883332Y-132019580D02*
X175930951Y-131924342D01*
X175930951Y-131924342D02*
X175978570Y-131733866D01*
X175978570Y-131733866D02*
X175978570Y-131495771D01*
X175978570Y-131495771D02*
X175930951Y-131305295D01*
X175930951Y-131305295D02*
X175883332Y-131210057D01*
X175883332Y-131210057D02*
X175835713Y-131162438D01*
X175835713Y-131162438D02*
X175740475Y-131114819D01*
X174978570Y-131591009D02*
X174645237Y-131591009D01*
X174502380Y-132114819D02*
X174978570Y-132114819D01*
X174978570Y-132114819D02*
X174978570Y-131114819D01*
X174978570Y-131114819D02*
X174502380Y-131114819D01*
X174121427Y-132067200D02*
X173978570Y-132114819D01*
X173978570Y-132114819D02*
X173740475Y-132114819D01*
X173740475Y-132114819D02*
X173645237Y-132067200D01*
X173645237Y-132067200D02*
X173597618Y-132019580D01*
X173597618Y-132019580D02*
X173549999Y-131924342D01*
X173549999Y-131924342D02*
X173549999Y-131829104D01*
X173549999Y-131829104D02*
X173597618Y-131733866D01*
X173597618Y-131733866D02*
X173645237Y-131686247D01*
X173645237Y-131686247D02*
X173740475Y-131638628D01*
X173740475Y-131638628D02*
X173930951Y-131591009D01*
X173930951Y-131591009D02*
X174026189Y-131543390D01*
X174026189Y-131543390D02*
X174073808Y-131495771D01*
X174073808Y-131495771D02*
X174121427Y-131400533D01*
X174121427Y-131400533D02*
X174121427Y-131305295D01*
X174121427Y-131305295D02*
X174073808Y-131210057D01*
X174073808Y-131210057D02*
X174026189Y-131162438D01*
X174026189Y-131162438D02*
X173930951Y-131114819D01*
X173930951Y-131114819D02*
X173692856Y-131114819D01*
X173692856Y-131114819D02*
X173549999Y-131162438D01*
X173264284Y-131114819D02*
X172692856Y-131114819D01*
X172978570Y-132114819D02*
X172978570Y-131114819D01*
X172359522Y-131733866D02*
X171597618Y-131733866D01*
X171121427Y-132114819D02*
X171121427Y-131114819D01*
X171121427Y-131114819D02*
X170740475Y-131114819D01*
X170740475Y-131114819D02*
X170645237Y-131162438D01*
X170645237Y-131162438D02*
X170597618Y-131210057D01*
X170597618Y-131210057D02*
X170549999Y-131305295D01*
X170549999Y-131305295D02*
X170549999Y-131448152D01*
X170549999Y-131448152D02*
X170597618Y-131543390D01*
X170597618Y-131543390D02*
X170645237Y-131591009D01*
X170645237Y-131591009D02*
X170740475Y-131638628D01*
X170740475Y-131638628D02*
X171121427Y-131638628D01*
X169788094Y-131591009D02*
X169645237Y-131638628D01*
X169645237Y-131638628D02*
X169597618Y-131686247D01*
X169597618Y-131686247D02*
X169549999Y-131781485D01*
X169549999Y-131781485D02*
X169549999Y-131924342D01*
X169549999Y-131924342D02*
X169597618Y-132019580D01*
X169597618Y-132019580D02*
X169645237Y-132067200D01*
X169645237Y-132067200D02*
X169740475Y-132114819D01*
X169740475Y-132114819D02*
X170121427Y-132114819D01*
X170121427Y-132114819D02*
X170121427Y-131114819D01*
X170121427Y-131114819D02*
X169788094Y-131114819D01*
X169788094Y-131114819D02*
X169692856Y-131162438D01*
X169692856Y-131162438D02*
X169645237Y-131210057D01*
X169645237Y-131210057D02*
X169597618Y-131305295D01*
X169597618Y-131305295D02*
X169597618Y-131400533D01*
X169597618Y-131400533D02*
X169645237Y-131495771D01*
X169645237Y-131495771D02*
X169692856Y-131543390D01*
X169692856Y-131543390D02*
X169788094Y-131591009D01*
X169788094Y-131591009D02*
X170121427Y-131591009D01*
X168788094Y-131591009D02*
X169121427Y-131591009D01*
X169121427Y-132114819D02*
X169121427Y-131114819D01*
X169121427Y-131114819D02*
X168645237Y-131114819D01*
X175311904Y-131114819D02*
X175311904Y-131924342D01*
X175311904Y-131924342D02*
X175264285Y-132019580D01*
X175264285Y-132019580D02*
X175216666Y-132067200D01*
X175216666Y-132067200D02*
X175121428Y-132114819D01*
X175121428Y-132114819D02*
X174930952Y-132114819D01*
X174930952Y-132114819D02*
X174835714Y-132067200D01*
X174835714Y-132067200D02*
X174788095Y-132019580D01*
X174788095Y-132019580D02*
X174740476Y-131924342D01*
X174740476Y-131924342D02*
X174740476Y-131114819D01*
X174359523Y-131114819D02*
X173740476Y-131114819D01*
X173740476Y-131114819D02*
X174073809Y-131495771D01*
X174073809Y-131495771D02*
X173930952Y-131495771D01*
X173930952Y-131495771D02*
X173835714Y-131543390D01*
X173835714Y-131543390D02*
X173788095Y-131591009D01*
X173788095Y-131591009D02*
X173740476Y-131686247D01*
X173740476Y-131686247D02*
X173740476Y-131924342D01*
X173740476Y-131924342D02*
X173788095Y-132019580D01*
X173788095Y-132019580D02*
X173835714Y-132067200D01*
X173835714Y-132067200D02*
X173930952Y-132114819D01*
X173930952Y-132114819D02*
X174216666Y-132114819D01*
X174216666Y-132114819D02*
X174311904Y-132067200D01*
X174311904Y-132067200D02*
X174359523Y-132019580D01*
D14*
%TO.C,R23*%
X264097500Y-135760000D02*
X264922500Y-135760000D01*
X264097500Y-137360000D02*
X264097500Y-135760000D01*
X264922500Y-135760000D02*
X264922500Y-137360000D01*
X264922500Y-137360000D02*
X264097500Y-137360000D01*
%TO.C,C36*%
X187030000Y-146910000D02*
X188280000Y-146910000D01*
X187030000Y-148910000D02*
X187030000Y-146910000D01*
X188280000Y-146910000D02*
X188280000Y-148910000D01*
X188280000Y-148910000D02*
X187030000Y-148910000D01*
%TO.C,C33*%
X256730000Y-145195000D02*
X257530000Y-145195000D01*
X256730000Y-146795000D02*
X256730000Y-145195000D01*
X257530000Y-145195000D02*
X257530000Y-146795000D01*
X257530000Y-146795000D02*
X256730000Y-146795000D01*
%TO.C,C18*%
X161250000Y-133580000D02*
X162050000Y-133580000D01*
X161250000Y-135180000D02*
X161250000Y-133580000D01*
X162050000Y-133580000D02*
X162050000Y-135180000D01*
X162050000Y-135180000D02*
X161250000Y-135180000D01*
%TO.C,C14*%
X133760000Y-133410000D02*
X134560000Y-133410000D01*
X133760000Y-135010000D02*
X133760000Y-133410000D01*
X134560000Y-133410000D02*
X134560000Y-135010000D01*
X134560000Y-135010000D02*
X133760000Y-135010000D01*
%TO.C,R38*%
X191887500Y-123290000D02*
X192712500Y-123290000D01*
X191887500Y-124890000D02*
X191887500Y-123290000D01*
X192712500Y-123290000D02*
X192712500Y-124890000D01*
X192712500Y-124890000D02*
X191887500Y-124890000D01*
D15*
%TO.C,U8*%
X254455000Y-135546000D02*
X255559900Y-135546000D01*
X254455000Y-136054000D02*
X254455000Y-135546000D01*
X254455000Y-136816000D02*
X255559900Y-136816000D01*
X254455000Y-137324000D02*
X254455000Y-136816000D01*
X254455000Y-138086000D02*
X255559900Y-138086000D01*
X254455000Y-138594000D02*
X254455000Y-138086000D01*
X254455000Y-139356000D02*
X255559900Y-139356000D01*
X254455000Y-139864000D02*
X254455000Y-139356000D01*
X255559900Y-135203100D02*
X259547700Y-135203100D01*
X255559900Y-135546000D02*
X255559900Y-136054000D01*
X255559900Y-136054000D02*
X254455000Y-136054000D01*
X255559900Y-136816000D02*
X255559900Y-137324000D01*
X255559900Y-137324000D02*
X254455000Y-137324000D01*
X255559900Y-138086000D02*
X255559900Y-138594000D01*
X255559900Y-138594000D02*
X254455000Y-138594000D01*
X255559900Y-139356000D02*
X255559900Y-139864000D01*
X255559900Y-139864000D02*
X254455000Y-139864000D01*
X255559900Y-140206900D02*
X255559900Y-135203100D01*
X259547700Y-135203100D02*
X259547700Y-140206900D01*
X259547700Y-135546000D02*
X260652600Y-135546000D01*
X259547700Y-136054000D02*
X259547700Y-135546000D01*
X259547700Y-136816000D02*
X260652600Y-136816000D01*
X259547700Y-137324000D02*
X259547700Y-136816000D01*
X259547700Y-138086000D02*
X260652600Y-138086000D01*
X259547700Y-138594000D02*
X259547700Y-138086000D01*
X259547700Y-139356000D02*
X260652600Y-139356000D01*
X259547700Y-139864000D02*
X259547700Y-139356000D01*
X259547700Y-140206900D02*
X255559900Y-140206900D01*
X260652600Y-135546000D02*
X260652600Y-136054000D01*
X260652600Y-136054000D02*
X259547700Y-136054000D01*
X260652600Y-136816000D02*
X260652600Y-137324000D01*
X260652600Y-137324000D02*
X259547700Y-137324000D01*
X260652600Y-138086000D02*
X260652600Y-138594000D01*
X260652600Y-138594000D02*
X259547700Y-138594000D01*
X260652600Y-139356000D02*
X260652600Y-139864000D01*
X260652600Y-139864000D02*
X259547700Y-139864000D01*
X257858600Y-135203100D02*
G75*
G02*
X257249000Y-135203100I-304800J0D01*
G01*
D14*
%TO.C,C25*%
X212900000Y-138000000D02*
X214500000Y-138000000D01*
X212900000Y-138800000D02*
X212900000Y-138000000D01*
X214500000Y-138000000D02*
X214500000Y-138800000D01*
X214500000Y-138800000D02*
X212900000Y-138800000D01*
%TO.C,C16*%
X181410000Y-131960000D02*
X182210000Y-131960000D01*
X181410000Y-133560000D02*
X181410000Y-131960000D01*
X182210000Y-131960000D02*
X182210000Y-133560000D01*
X182210000Y-133560000D02*
X181410000Y-133560000D01*
%TO.C,C21*%
X165070000Y-133590000D02*
X165870000Y-133590000D01*
X165070000Y-135190000D02*
X165070000Y-133590000D01*
X165870000Y-133590000D02*
X165870000Y-135190000D01*
X165870000Y-135190000D02*
X165070000Y-135190000D01*
%TO.C,C35*%
X199490000Y-145030000D02*
X200740000Y-145030000D01*
X199490000Y-147030000D02*
X199490000Y-145030000D01*
X200740000Y-145030000D02*
X200740000Y-147030000D01*
X200740000Y-147030000D02*
X199490000Y-147030000D01*
%TO.C,R32*%
X254917500Y-145235000D02*
X255742500Y-145235000D01*
X254917500Y-146835000D02*
X254917500Y-145235000D01*
X255742500Y-145235000D02*
X255742500Y-146835000D01*
X255742500Y-146835000D02*
X254917500Y-146835000D01*
%TO.C,R30*%
X258657500Y-143595000D02*
X259482500Y-143595000D01*
X258657500Y-145195000D02*
X258657500Y-143595000D01*
X259482500Y-143595000D02*
X259482500Y-145195000D01*
X259482500Y-145195000D02*
X258657500Y-145195000D01*
D15*
%TO.C,U9*%
X262122200Y-144067200D02*
X265017800Y-144067200D01*
X262122200Y-145692800D02*
X262122200Y-144067200D01*
X265017800Y-144067200D02*
X265017800Y-145692800D01*
X265017800Y-145692800D02*
X262122200Y-145692800D01*
X262122200Y-144575200D02*
G75*
G02*
X262122200Y-145184800I0J-304800D01*
G01*
X262620001Y-144321200D02*
X262620001Y-144321200D01*
X262620001Y-144321200D01*
X262620001Y-144321200D01*
X262620001Y-144321200D01*
X262620001Y-144321200D01*
X262620001Y-144321201D01*
X262620001Y-144321201D01*
X262620001Y-144321201D01*
X262620001Y-144321201D01*
X262620001Y-144321201D01*
X262620001Y-144321201D01*
X262620001Y-144321201D01*
X262620000Y-144321201D01*
X262620000Y-144321201D01*
X262620000Y-144321201D01*
X262620000Y-144321201D01*
X262620000Y-144321201D01*
X262620000Y-144321201D01*
X262620000Y-144321201D01*
X262620000Y-144321201D01*
X262620000Y-144321201D01*
X262620000Y-144321201D01*
X262620000Y-144321201D01*
X262620000Y-144321201D01*
X262619999Y-144321201D01*
X262619999Y-144321201D01*
X262619999Y-144321201D01*
X262619999Y-144321201D01*
X262619999Y-144321201D01*
X262619999Y-144321201D01*
X262619999Y-144321200D01*
X262619999Y-144321200D01*
X262619999Y-144321200D01*
X262619999Y-144321200D01*
X262619999Y-144321200D01*
X262619999Y-144321200D01*
X262619999Y-144321200D02*
X262619999Y-144321200D01*
X262619999Y-144321200D01*
X262619999Y-144321200D01*
X262619999Y-144321200D01*
X262619999Y-144321200D01*
X262619999Y-144321200D01*
X262619999Y-144321199D01*
X262619999Y-144321199D01*
X262619999Y-144321199D01*
X262619999Y-144321199D01*
X262619999Y-144321199D01*
X262620000Y-144321199D01*
X262620000Y-144321199D01*
X262620000Y-144321199D01*
X262620000Y-144321199D01*
X262620000Y-144321199D01*
X262620000Y-144321199D01*
X262620000Y-144321199D01*
X262620000Y-144321199D01*
X262620000Y-144321199D01*
X262620000Y-144321199D01*
X262620000Y-144321199D01*
X262620000Y-144321199D01*
X262620001Y-144321199D01*
X262620001Y-144321199D01*
X262620001Y-144321199D01*
X262620001Y-144321199D01*
X262620001Y-144321199D01*
X262620001Y-144321199D01*
X262620001Y-144321200D01*
X262620001Y-144321200D01*
X262620001Y-144321200D01*
X262620001Y-144321200D01*
X262620001Y-144321200D01*
X262620001Y-144321200D01*
X262620001Y-144321200D01*
D14*
%TO.C,C26*%
X216580000Y-116530000D02*
X217380000Y-116530000D01*
X216580000Y-118130000D02*
X216580000Y-116530000D01*
X217380000Y-116530000D02*
X217380000Y-118130000D01*
X217380000Y-118130000D02*
X216580000Y-118130000D01*
%TO.C,R12*%
X179607500Y-131940000D02*
X180432500Y-131940000D01*
X179607500Y-133540000D02*
X179607500Y-131940000D01*
X180432500Y-131940000D02*
X180432500Y-133540000D01*
X180432500Y-133540000D02*
X179607500Y-133540000D01*
%TO.C,C20*%
X163150000Y-133580000D02*
X163950000Y-133580000D01*
X163150000Y-135180000D02*
X163150000Y-133580000D01*
X163950000Y-133580000D02*
X163950000Y-135180000D01*
X163950000Y-135180000D02*
X163150000Y-135180000D01*
%TO.C,C29*%
X267280000Y-144865000D02*
X267820000Y-144865000D01*
X267280000Y-145915000D02*
X267280000Y-144865000D01*
X267820000Y-144865000D02*
X267820000Y-145915000D01*
X267820000Y-145915000D02*
X267280000Y-145915000D01*
%TO.C,C17*%
X168755000Y-133320000D02*
X168755000Y-135320000D01*
X168755000Y-135320000D02*
X169692500Y-135320000D01*
X169692500Y-135320000D02*
X170005000Y-135007500D01*
X170005000Y-133320000D02*
X168755000Y-133320000D01*
X170005000Y-135007500D02*
X170005000Y-133320000D01*
%TO.C,C15*%
X135540000Y-133420000D02*
X136340000Y-133420000D01*
X135540000Y-135020000D02*
X135540000Y-133420000D01*
X136340000Y-133420000D02*
X136340000Y-135020000D01*
X136340000Y-135020000D02*
X135540000Y-135020000D01*
%TO.C,C12*%
X132020000Y-133400000D02*
X132820000Y-133400000D01*
X132020000Y-135000000D02*
X132020000Y-133400000D01*
X132820000Y-133400000D02*
X132820000Y-135000000D01*
X132820000Y-135000000D02*
X132020000Y-135000000D01*
%TO.C,R24*%
X266020000Y-144865000D02*
X266560000Y-144865000D01*
X266020000Y-145915000D02*
X266020000Y-144865000D01*
X266560000Y-144865000D02*
X266560000Y-145915000D01*
X266560000Y-145915000D02*
X266020000Y-145915000D01*
D15*
%TO.C,U3*%
X171197200Y-129805800D02*
X177902800Y-129805800D01*
X171197200Y-133514200D02*
X171197200Y-129805800D01*
X171819500Y-133514200D02*
X172657700Y-133514200D01*
X171819500Y-135304900D02*
X171819500Y-133514200D01*
X172657700Y-133514200D02*
X172657700Y-135304900D01*
X172657700Y-135304900D02*
X171819500Y-135304900D01*
X172975200Y-128015100D02*
X176124800Y-128015100D01*
X172975200Y-129805800D02*
X172975200Y-128015100D01*
X174130900Y-133514200D02*
X174969100Y-133514200D01*
X174130900Y-135304900D02*
X174130900Y-133514200D01*
X174969100Y-133514200D02*
X174969100Y-135304900D01*
X174969100Y-135304900D02*
X174130900Y-135304900D01*
X176124800Y-128015100D02*
X176124800Y-129805800D01*
X176124800Y-129805800D02*
X172975200Y-129805800D01*
X176442300Y-133514200D02*
X177280500Y-133514200D01*
X176442300Y-135304900D02*
X176442300Y-133514200D01*
X177280500Y-133514200D02*
X177280500Y-135304900D01*
X177280500Y-135304900D02*
X176442300Y-135304900D01*
X177902800Y-129805800D02*
X177902800Y-133514200D01*
X177902800Y-133514200D02*
X171197200Y-133514200D01*
X177775800Y-133260200D02*
G75*
G02*
X177521800Y-133260200I-127000J0D01*
G01*
X177521800Y-133260200D02*
G75*
G02*
X177775800Y-133260200I127000J0D01*
G01*
%TD*%
M02*
