%TF.GenerationSoftware,KiCad,Pcbnew,9.0.3*%
%TF.CreationDate,2025-09-16T12:03:33-04:00*%
%TF.ProjectId,6_COLD_TPC_HV,365f434f-4c44-45f5-9450-435f48562e6b,rev?*%
%TF.SameCoordinates,Original*%
%TF.FileFunction,Copper,L3,Inr*%
%TF.FilePolarity,Positive*%
%FSLAX46Y46*%
G04 Gerber Fmt 4.6, Leading zero omitted, Abs format (unit mm)*
G04 Created by KiCad (PCBNEW 9.0.3) date 2025-09-16 12:03:33*
%MOMM*%
%LPD*%
G01*
G04 APERTURE LIST*
%TA.AperFunction,ComponentPad*%
%ADD10C,2.800000*%
%TD*%
%TA.AperFunction,ComponentPad*%
%ADD11C,6.400000*%
%TD*%
%TA.AperFunction,ComponentPad*%
%ADD12C,2.159000*%
%TD*%
%TA.AperFunction,ComponentPad*%
%ADD13C,1.575000*%
%TD*%
%TA.AperFunction,ComponentPad*%
%ADD14C,4.216000*%
%TD*%
%TA.AperFunction,ComponentPad*%
%ADD15C,1.650000*%
%TD*%
%TA.AperFunction,ComponentPad*%
%ADD16C,2.000000*%
%TD*%
%TA.AperFunction,ComponentPad*%
%ADD17R,1.447800X1.447800*%
%TD*%
%TA.AperFunction,ComponentPad*%
%ADD18C,1.447800*%
%TD*%
%TA.AperFunction,ComponentPad*%
%ADD19C,1.635000*%
%TD*%
%TA.AperFunction,ComponentPad*%
%ADD20C,1.560000*%
%TD*%
%TA.AperFunction,ComponentPad*%
%ADD21R,2.000000X2.000000*%
%TD*%
%TA.AperFunction,ViaPad*%
%ADD22C,0.600000*%
%TD*%
%TA.AperFunction,Conductor*%
%ADD23C,1.000000*%
%TD*%
G04 APERTURE END LIST*
D10*
%TO.N,/V_TELEM_RTN*%
%TO.C,GND1*%
X104730000Y-118410000D03*
%TD*%
D11*
%TO.N,GNDPWR*%
%TO.C,H3*%
X270000000Y-58000000D03*
%TD*%
%TO.N,GNDPWR*%
%TO.C,H2*%
X90000000Y-105000000D03*
%TD*%
D12*
%TO.N,Net-(P1-Pad1)*%
%TO.C,P1*%
X240000000Y-132049800D03*
%TD*%
D11*
%TO.N,GNDPWR*%
%TO.C,H6*%
X170000000Y-58000000D03*
%TD*%
D13*
%TO.N,/TEMP_0_Telem*%
%TO.C,J3*%
X247536000Y-153630000D03*
%TO.N,/TEMP_1_Telem*%
X245246000Y-153630000D03*
%TO.N,unconnected-(J3-Pad3)*%
X242956000Y-153630000D03*
%TO.N,/HV_I_MON_Telem*%
X240666000Y-153630000D03*
%TO.N,/HV_MON_Telem*%
X238376000Y-153630000D03*
%TO.N,/V3p3_RTN*%
X248681000Y-156170000D03*
X246391000Y-156170000D03*
X244101000Y-156170000D03*
X241811000Y-156170000D03*
X239521000Y-156170000D03*
%TO.N,unconnected-(J3-Pad11)*%
X247536000Y-158710000D03*
%TO.N,unconnected-(J3-Pad12)*%
X245246000Y-158710000D03*
%TO.N,unconnected-(J3-Pad13)*%
X242956000Y-158710000D03*
%TO.N,unconnected-(J3-Pad14)*%
X240666000Y-158710000D03*
%TO.N,unconnected-(J3-Pad15)*%
X238376000Y-158710000D03*
D14*
%TO.N,GNDPWR*%
X230715000Y-156170000D03*
X255705000Y-156170000D03*
%TD*%
D10*
%TO.N,/V3p3*%
%TO.C,V_{3.3V}1*%
X181560000Y-125020000D03*
%TD*%
D15*
%TO.N,/HV_SET_INT*%
%TO.C,J5*%
X197400000Y-117660000D03*
%TO.N,/Main_DCDC_Converter/HV_SET*%
X194860000Y-117660000D03*
%TO.N,/HV_SET_EXT*%
X192320000Y-117660000D03*
%TD*%
D11*
%TO.N,GNDPWR*%
%TO.C,H9*%
X270000000Y-105000000D03*
%TD*%
D16*
%TO.N,/Main_DCDC_Converter/V_RTN*%
%TO.C,U1*%
X160560000Y-72745000D03*
%TO.N,/Main_DCDC_Converter/V_IN*%
X160560000Y-77845000D03*
%TO.N,/HV_I_MON*%
X160560000Y-82945000D03*
%TO.N,/HV_EN*%
X160560000Y-88045000D03*
%TO.N,/V3p3_RTN*%
X160560000Y-93145000D03*
%TO.N,N/C*%
X160560000Y-98245000D03*
%TO.N,/5V_REF*%
X160560000Y-103345000D03*
%TO.N,/Main_DCDC_Converter/V_RTN*%
X163060000Y-72745000D03*
%TO.N,/Main_DCDC_Converter/V_IN*%
X163060000Y-77845000D03*
%TO.N,unconnected-(U1-NC-Pad10)*%
X163060000Y-82945000D03*
%TO.N,/Main_DCDC_Converter/V_RTN*%
X163060000Y-88045000D03*
%TO.N,Net-(U1-V_MODE)*%
X163060000Y-93145000D03*
%TO.N,/Main_DCDC_Converter/HV_SET*%
X163060000Y-98245000D03*
%TO.N,/HV_MON*%
X163060000Y-103345000D03*
%TO.N,/HV_RTN*%
X206260000Y-99445000D03*
X208760000Y-99445000D03*
%TD*%
D11*
%TO.N,GNDPWR*%
%TO.C,H8*%
X170000000Y-162000000D03*
%TD*%
%TO.N,GNDPWR*%
%TO.C,H4*%
X220000000Y-162000000D03*
%TD*%
D17*
%TO.N,/HV_RTN*%
%TO.C,J6*%
X265779999Y-75009999D03*
D18*
X265779999Y-77010000D03*
X267780000Y-75009999D03*
X267780000Y-77010000D03*
%TD*%
D11*
%TO.N,GNDPWR*%
%TO.C,H7*%
X270000000Y-162000000D03*
%TD*%
D19*
%TO.N,/SYNC_n+*%
%TO.C,J4*%
X199440000Y-156690000D03*
%TO.N,/Enable-*%
X196670000Y-156690000D03*
%TO.N,unconnected-(J4-Pad3)*%
X193900000Y-156690000D03*
%TO.N,/SCLK+*%
X191130000Y-156690000D03*
%TO.N,/Data_In-*%
X188360000Y-156690000D03*
%TO.N,/SYNC_n-*%
X198055000Y-159530000D03*
%TO.N,/Enable+*%
X195285000Y-159530000D03*
%TO.N,/SCLK-*%
X192515000Y-159530000D03*
%TO.N,/Data_In+*%
X189745000Y-159530000D03*
D14*
%TO.N,GNDPWR*%
X181400000Y-158110000D03*
X206400000Y-158110000D03*
%TD*%
D20*
%TO.N,/V_TELEM_RTN*%
%TO.C,J2*%
X94880000Y-128120000D03*
X94880000Y-130890000D03*
%TO.N,unconnected-(J2-Pad3)*%
X94880000Y-133660000D03*
%TO.N,/V_TELEM_RTN*%
X94880000Y-136430000D03*
X94880000Y-139200000D03*
%TO.N,/V_TELEM_IN*%
X92040000Y-129505000D03*
X92040000Y-132275000D03*
X92040000Y-135045000D03*
X92040000Y-137815000D03*
D14*
%TO.N,GNDPWR*%
X93460000Y-121160000D03*
X93460000Y-146160000D03*
%TD*%
D21*
%TO.N,/Telemetry_DCDC_Converter/V_POS*%
%TO.C,U4*%
X138247500Y-136930000D03*
D16*
%TO.N,/Telemetry_DCDC_Converter/V_RTN*%
X138247500Y-131830000D03*
%TO.N,/P5V*%
X158547500Y-144630000D03*
%TO.N,unconnected-(U4-COMMON-Pad4)*%
X158547500Y-134430000D03*
%TO.N,/V3p3_RTN*%
X158547500Y-124230000D03*
%TO.N,unconnected-(U4-REMOTE-Pad6)*%
X138247500Y-124230000D03*
%TD*%
D10*
%TO.N,/V3p3_RTN*%
%TO.C,V_{GND}1*%
X167490000Y-124990000D03*
%TD*%
%TO.N,/HV_SET_EXT*%
%TO.C,HV_SET_{-EXT}1*%
X181130000Y-117680000D03*
%TD*%
D11*
%TO.N,GNDPWR*%
%TO.C,H5*%
X90000000Y-162000000D03*
%TD*%
%TO.N,GNDPWR*%
%TO.C,H1*%
X90000000Y-58000000D03*
%TD*%
D20*
%TO.N,/V_SEC_RTN*%
%TO.C,J1*%
X94830000Y-72880000D03*
X94830000Y-75650000D03*
%TO.N,unconnected-(J1-Pad3)*%
X94830000Y-78420000D03*
%TO.N,/V_SEC_RTN*%
X94830000Y-81190000D03*
X94830000Y-83960000D03*
%TO.N,/V_SEC_IN*%
X91990000Y-74265000D03*
X91990000Y-77035000D03*
X91990000Y-79805000D03*
X91990000Y-82575000D03*
D14*
%TO.N,GNDPWR*%
X93410000Y-65920000D03*
X93410000Y-90920000D03*
%TD*%
D10*
%TO.N,/V_SEC_RTN*%
%TO.C,GND2*%
X111060000Y-98240000D03*
%TD*%
D12*
%TO.N,Net-(M3-Pad3)*%
%TO.C,P2*%
X240000000Y-115620000D03*
%TD*%
D10*
%TO.N,/HV_EN*%
%TO.C,V_{EN}1*%
X148590000Y-88075000D03*
%TD*%
D22*
%TO.N,/V_SEC_RTN*%
X101572000Y-81869000D03*
X273050000Y-95250000D03*
X254000000Y-88900000D03*
X184150000Y-57150000D03*
X266700000Y-95250000D03*
X228600000Y-57150000D03*
X254000000Y-76200000D03*
X133350000Y-88900000D03*
X146050000Y-63500000D03*
X146050000Y-101600000D03*
X120650000Y-101600000D03*
X228600000Y-63500000D03*
X139700000Y-95250000D03*
X120650000Y-82550000D03*
X203200000Y-63500000D03*
X133350000Y-57150000D03*
X234950000Y-57150000D03*
X266700000Y-69850000D03*
X133350000Y-63500000D03*
X260350000Y-63500000D03*
X152400000Y-95250000D03*
X101600000Y-88900000D03*
X137668000Y-74168000D03*
X222250000Y-63500000D03*
X139700000Y-74168000D03*
X273050000Y-63500000D03*
X254000000Y-69850000D03*
X209550000Y-57150000D03*
X131572000Y-74168000D03*
X101600000Y-101600000D03*
X133350000Y-95250000D03*
X114300000Y-88900000D03*
X100556000Y-81869000D03*
X254000000Y-82550000D03*
X132730000Y-99745000D03*
X177800000Y-57150000D03*
X247650000Y-57150000D03*
X241300000Y-57150000D03*
X152400000Y-101600000D03*
X120650000Y-95250000D03*
X215900000Y-63500000D03*
X127000000Y-63500000D03*
X102588000Y-81869000D03*
X139700000Y-101600000D03*
X260350000Y-57150000D03*
X139700000Y-82550000D03*
X152400000Y-63500000D03*
X95250000Y-57150000D03*
X146360000Y-105350000D03*
X120650000Y-63500000D03*
X114300000Y-101600000D03*
X254000000Y-95250000D03*
X260350000Y-76200000D03*
X146050000Y-82550000D03*
X254000000Y-101600000D03*
X139700000Y-63500000D03*
X139700000Y-57150000D03*
X260350000Y-88900000D03*
X152400000Y-88900000D03*
X209550000Y-63500000D03*
X254000000Y-63500000D03*
X100556000Y-82885000D03*
X254000000Y-57150000D03*
X234950000Y-63500000D03*
X120650000Y-57150000D03*
X273050000Y-76200000D03*
X135636000Y-74168000D03*
X215900000Y-57150000D03*
X129540000Y-74168000D03*
X114300000Y-63500000D03*
X266700000Y-88900000D03*
X260350000Y-95250000D03*
X102588000Y-82885000D03*
X273050000Y-88900000D03*
X247650000Y-63500000D03*
X152400000Y-82550000D03*
X146050000Y-95250000D03*
X107950000Y-101600000D03*
X107950000Y-95250000D03*
X260350000Y-69850000D03*
X101572000Y-82885000D03*
X114300000Y-82550000D03*
X158750000Y-63500000D03*
X101600000Y-57150000D03*
X146050000Y-57150000D03*
X241300000Y-63500000D03*
X127000000Y-95250000D03*
X127000000Y-57150000D03*
X158750000Y-57150000D03*
X88900000Y-95250000D03*
X184150000Y-63500000D03*
X260350000Y-82550000D03*
X127000000Y-101600000D03*
X107950000Y-88900000D03*
X260350000Y-101600000D03*
X114300000Y-57150000D03*
X196850000Y-57150000D03*
X266700000Y-63500000D03*
X266700000Y-82550000D03*
X114300000Y-95250000D03*
X133604000Y-74168000D03*
X190500000Y-57150000D03*
X273050000Y-82550000D03*
X196850000Y-63500000D03*
X144390000Y-105350000D03*
X127000000Y-88900000D03*
X95250000Y-95250000D03*
X139700000Y-88900000D03*
X152400000Y-57150000D03*
X190500000Y-63500000D03*
X273050000Y-69850000D03*
X165100000Y-63500000D03*
X177800000Y-63500000D03*
X203200000Y-57150000D03*
X120650000Y-88900000D03*
X165100000Y-57150000D03*
X101600000Y-95250000D03*
X107950000Y-57150000D03*
X222250000Y-57150000D03*
%TO.N,GNDPWR*%
X152908000Y-119070000D03*
X127780000Y-66095000D03*
X127770000Y-82395000D03*
%TO.N,/V3p3*%
X198385000Y-144740000D03*
X216980000Y-114810000D03*
X263560000Y-147630000D03*
X174550000Y-126740000D03*
X189205000Y-146580000D03*
X215935000Y-138383800D03*
%TO.N,/V3p3_RTN*%
X218895000Y-127873800D03*
X227840000Y-117770000D03*
X157660000Y-119080000D03*
X211565000Y-138393800D03*
X180910000Y-130470000D03*
X217605000Y-149123800D03*
X258380000Y-146770000D03*
X217735000Y-112490000D03*
X198775000Y-147000000D03*
X161115000Y-113270000D03*
X215090000Y-124100000D03*
X264510000Y-134640000D03*
X263570000Y-142250000D03*
X211155000Y-131183800D03*
X208935000Y-144593800D03*
X193915000Y-136350000D03*
X216980000Y-119770000D03*
X189455000Y-149310000D03*
%TO.N,/V_TELEM_RTN*%
X260350000Y-158750000D03*
X102000000Y-131000000D03*
X127000000Y-165100000D03*
X114300000Y-114300000D03*
X107950000Y-158750000D03*
X190500000Y-114300000D03*
X146050000Y-114300000D03*
X192300000Y-126260000D03*
X127000000Y-158750000D03*
X184150000Y-146050000D03*
X171450000Y-120650000D03*
X273050000Y-158750000D03*
X152400000Y-158750000D03*
X222250000Y-127000000D03*
X177800000Y-146050000D03*
X139700000Y-120650000D03*
X190500000Y-120650000D03*
X101600000Y-114300000D03*
X127000000Y-133350000D03*
X100000000Y-131000000D03*
X273050000Y-133350000D03*
X144400000Y-110600000D03*
X209550000Y-127000000D03*
X120650000Y-133350000D03*
X139700000Y-165100000D03*
X241300000Y-139700000D03*
X273050000Y-139700000D03*
X273050000Y-146050000D03*
X133350000Y-158750000D03*
X234950000Y-139700000D03*
X114300000Y-158750000D03*
X101600000Y-152400000D03*
X254000000Y-120650000D03*
X139700000Y-158750000D03*
X146050000Y-165100000D03*
X158750000Y-114300000D03*
X100000000Y-132000000D03*
X196850000Y-133350000D03*
X234950000Y-120650000D03*
X254000000Y-114300000D03*
X228600000Y-146050000D03*
X101600000Y-127000000D03*
X133350000Y-127000000D03*
X203200000Y-127000000D03*
X234950000Y-133350000D03*
X133350000Y-146050000D03*
X101000000Y-131000000D03*
X266700000Y-127000000D03*
X95250000Y-158750000D03*
X215900000Y-158750000D03*
X102000000Y-132000000D03*
X266700000Y-158750000D03*
X146050000Y-120650000D03*
X101600000Y-120650000D03*
X177800000Y-120650000D03*
X133350000Y-152400000D03*
X266700000Y-152400000D03*
X120650000Y-114300000D03*
X171450000Y-139700000D03*
X266700000Y-165100000D03*
X273050000Y-120650000D03*
X101000000Y-132000000D03*
X171450000Y-146050000D03*
X215900000Y-127000000D03*
X114300000Y-165100000D03*
X241300000Y-146050000D03*
X260350000Y-127000000D03*
X165100000Y-120650000D03*
X215900000Y-152400000D03*
X171450000Y-114300000D03*
X228600000Y-127000000D03*
X165100000Y-158750000D03*
X107950000Y-152400000D03*
X158750000Y-158750000D03*
X215900000Y-165100000D03*
X127000000Y-114300000D03*
X209550000Y-139700000D03*
X228600000Y-139700000D03*
X146360000Y-110600000D03*
X254000000Y-127000000D03*
X165100000Y-139700000D03*
X234950000Y-127000000D03*
X120650000Y-152400000D03*
X107950000Y-120650000D03*
X133350000Y-120650000D03*
X190500000Y-139700000D03*
X177800000Y-139700000D03*
X260350000Y-165100000D03*
X133350000Y-165100000D03*
X133350000Y-139700000D03*
X196850000Y-127000000D03*
X95250000Y-152400000D03*
X165100000Y-165100000D03*
X120650000Y-158750000D03*
X190500000Y-133350000D03*
X152400000Y-165100000D03*
X260350000Y-114300000D03*
X107950000Y-165100000D03*
X184150000Y-114300000D03*
X203200000Y-114300000D03*
X273050000Y-114300000D03*
X203200000Y-133350000D03*
X228600000Y-120650000D03*
X165100000Y-114300000D03*
X273050000Y-152400000D03*
X158750000Y-165100000D03*
X101600000Y-158750000D03*
X203200000Y-146050000D03*
X273050000Y-127000000D03*
X114300000Y-152400000D03*
X101600000Y-165100000D03*
X260350000Y-120650000D03*
X177800000Y-114300000D03*
X222250000Y-139700000D03*
X127000000Y-152400000D03*
X203200000Y-120650000D03*
X140500000Y-114475000D03*
X114300000Y-133350000D03*
X266700000Y-114300000D03*
X209550000Y-133350000D03*
X234950000Y-146050000D03*
X152400000Y-114300000D03*
X184150000Y-139700000D03*
X196850000Y-114300000D03*
X203200000Y-139700000D03*
X165100000Y-146050000D03*
X228600000Y-133350000D03*
X266700000Y-120650000D03*
X95250000Y-165100000D03*
X209550000Y-152400000D03*
X146050000Y-158750000D03*
X120650000Y-165100000D03*
X184150000Y-120650000D03*
X88900000Y-152400000D03*
X107950000Y-114300000D03*
%TO.N,/P5V*%
X129950000Y-117870000D03*
X262450000Y-137070000D03*
X254360000Y-150400000D03*
X130040000Y-144630000D03*
X192365000Y-136340000D03*
%TO.N,/5V_REF*%
X173720000Y-100945000D03*
X204240000Y-122350000D03*
X202320000Y-100950000D03*
%TO.N,/HV_I_MON_Telem*%
X240331193Y-147760234D03*
X220625000Y-147778800D03*
%TO.N,/HV_MON_Telem*%
X224130000Y-129170000D03*
X224130000Y-152390000D03*
%TO.N,/TEMP_0_Telem*%
X247610000Y-109880000D03*
X219470000Y-109500000D03*
%TO.N,/Enable_SIG*%
X201380000Y-152530000D03*
X142910000Y-117340000D03*
X142910000Y-152530000D03*
%TO.N,/HV_MON*%
X185780000Y-128650000D03*
X185710000Y-103320000D03*
X213060000Y-128650000D03*
%TO.N,/HV_I_MON*%
X166640000Y-104760000D03*
X207130000Y-146440000D03*
X207130000Y-104760000D03*
X166630000Y-85230000D03*
%TO.N,/Main_DCDC_Converter/HV_SET*%
X194920000Y-98220000D03*
X194910000Y-112380000D03*
%TD*%
D23*
%TO.N,/HV_RTN*%
X267780000Y-75009999D02*
X267780000Y-77010000D01*
X208760000Y-99445000D02*
X208760000Y-81190000D01*
X214940001Y-75009999D02*
X267780000Y-75009999D01*
X265779999Y-75009999D02*
X265779999Y-77010000D01*
X208760000Y-81190000D02*
X214940001Y-75009999D01*
X265779999Y-77010000D02*
X267780000Y-77010000D01*
%TD*%
%TA.AperFunction,Conductor*%
%TO.N,/V3p3*%
G36*
X247111491Y-110509685D02*
G01*
X247113343Y-110510898D01*
X247230814Y-110589390D01*
X247230827Y-110589397D01*
X247376498Y-110649735D01*
X247376503Y-110649737D01*
X247531153Y-110680499D01*
X247531156Y-110680500D01*
X247531158Y-110680500D01*
X247688844Y-110680500D01*
X247688845Y-110680499D01*
X247843497Y-110649737D01*
X247989179Y-110589394D01*
X248029445Y-110562489D01*
X248106657Y-110510898D01*
X248173334Y-110490020D01*
X248175548Y-110490000D01*
X272926000Y-110490000D01*
X272993039Y-110509685D01*
X273038794Y-110562489D01*
X273050000Y-110614000D01*
X273050000Y-113382052D01*
X273030315Y-113449091D01*
X272977511Y-113494846D01*
X272950192Y-113503669D01*
X272816508Y-113530261D01*
X272816498Y-113530264D01*
X272670827Y-113590602D01*
X272670814Y-113590609D01*
X272539711Y-113678210D01*
X272539707Y-113678213D01*
X272428213Y-113789707D01*
X272428210Y-113789711D01*
X272340609Y-113920814D01*
X272340602Y-113920827D01*
X272280264Y-114066498D01*
X272280261Y-114066510D01*
X272249500Y-114221153D01*
X272249500Y-114378846D01*
X272280261Y-114533489D01*
X272280264Y-114533501D01*
X272340602Y-114679172D01*
X272340609Y-114679185D01*
X272428210Y-114810288D01*
X272428213Y-114810292D01*
X272539707Y-114921786D01*
X272539711Y-114921789D01*
X272670814Y-115009390D01*
X272670827Y-115009397D01*
X272816498Y-115069735D01*
X272816503Y-115069737D01*
X272868130Y-115080006D01*
X272950191Y-115096330D01*
X273012102Y-115128715D01*
X273046677Y-115189431D01*
X273050000Y-115217947D01*
X273050000Y-119732052D01*
X273030315Y-119799091D01*
X272977511Y-119844846D01*
X272950192Y-119853669D01*
X272816508Y-119880261D01*
X272816498Y-119880264D01*
X272670827Y-119940602D01*
X272670814Y-119940609D01*
X272539711Y-120028210D01*
X272539707Y-120028213D01*
X272428213Y-120139707D01*
X272428210Y-120139711D01*
X272340609Y-120270814D01*
X272340602Y-120270827D01*
X272280264Y-120416498D01*
X272280261Y-120416510D01*
X272249500Y-120571153D01*
X272249500Y-120728846D01*
X272280261Y-120883489D01*
X272280264Y-120883501D01*
X272340602Y-121029172D01*
X272340609Y-121029185D01*
X272428210Y-121160288D01*
X272428213Y-121160292D01*
X272539707Y-121271786D01*
X272539711Y-121271789D01*
X272670814Y-121359390D01*
X272670827Y-121359397D01*
X272816498Y-121419735D01*
X272816503Y-121419737D01*
X272868130Y-121430006D01*
X272950191Y-121446330D01*
X273012102Y-121478715D01*
X273046677Y-121539431D01*
X273050000Y-121567947D01*
X273050000Y-126082052D01*
X273030315Y-126149091D01*
X272977511Y-126194846D01*
X272950192Y-126203669D01*
X272816508Y-126230261D01*
X272816498Y-126230264D01*
X272670827Y-126290602D01*
X272670814Y-126290609D01*
X272539711Y-126378210D01*
X272539707Y-126378213D01*
X272428213Y-126489707D01*
X272428210Y-126489711D01*
X272340609Y-126620814D01*
X272340602Y-126620827D01*
X272280264Y-126766498D01*
X272280261Y-126766510D01*
X272249500Y-126921153D01*
X272249500Y-127078846D01*
X272280261Y-127233489D01*
X272280264Y-127233501D01*
X272340602Y-127379172D01*
X272340609Y-127379185D01*
X272428210Y-127510288D01*
X272428213Y-127510292D01*
X272539707Y-127621786D01*
X272539711Y-127621789D01*
X272670814Y-127709390D01*
X272670827Y-127709397D01*
X272816498Y-127769735D01*
X272816503Y-127769737D01*
X272868130Y-127780006D01*
X272950191Y-127796330D01*
X273012102Y-127828715D01*
X273046677Y-127889431D01*
X273050000Y-127917947D01*
X273050000Y-132432052D01*
X273030315Y-132499091D01*
X272977511Y-132544846D01*
X272950192Y-132553669D01*
X272816508Y-132580261D01*
X272816498Y-132580264D01*
X272670827Y-132640602D01*
X272670814Y-132640609D01*
X272539711Y-132728210D01*
X272539707Y-132728213D01*
X272428213Y-132839707D01*
X272428210Y-132839711D01*
X272340609Y-132970814D01*
X272340602Y-132970827D01*
X272280264Y-133116498D01*
X272280261Y-133116510D01*
X272249500Y-133271153D01*
X272249500Y-133428846D01*
X272280261Y-133583489D01*
X272280264Y-133583501D01*
X272340602Y-133729172D01*
X272340609Y-133729185D01*
X272428210Y-133860288D01*
X272428213Y-133860292D01*
X272539707Y-133971786D01*
X272539711Y-133971789D01*
X272670814Y-134059390D01*
X272670827Y-134059397D01*
X272816498Y-134119735D01*
X272816503Y-134119737D01*
X272866625Y-134129707D01*
X272950191Y-134146330D01*
X273012102Y-134178715D01*
X273046677Y-134239431D01*
X273050000Y-134267947D01*
X273050000Y-138782052D01*
X273030315Y-138849091D01*
X272977511Y-138894846D01*
X272950192Y-138903669D01*
X272816508Y-138930261D01*
X272816498Y-138930264D01*
X272670827Y-138990602D01*
X272670814Y-138990609D01*
X272539711Y-139078210D01*
X272539707Y-139078213D01*
X272428213Y-139189707D01*
X272428210Y-139189711D01*
X272340609Y-139320814D01*
X272340602Y-139320827D01*
X272280264Y-139466498D01*
X272280261Y-139466510D01*
X272249500Y-139621153D01*
X272249500Y-139778846D01*
X272280261Y-139933489D01*
X272280264Y-139933501D01*
X272340602Y-140079172D01*
X272340609Y-140079185D01*
X272428210Y-140210288D01*
X272428213Y-140210292D01*
X272539707Y-140321786D01*
X272539711Y-140321789D01*
X272670814Y-140409390D01*
X272670827Y-140409397D01*
X272816498Y-140469735D01*
X272816503Y-140469737D01*
X272868130Y-140480006D01*
X272950191Y-140496330D01*
X273012102Y-140528715D01*
X273046677Y-140589431D01*
X273050000Y-140617947D01*
X273050000Y-145132052D01*
X273030315Y-145199091D01*
X272977511Y-145244846D01*
X272950192Y-145253669D01*
X272816508Y-145280261D01*
X272816498Y-145280264D01*
X272670827Y-145340602D01*
X272670814Y-145340609D01*
X272539711Y-145428210D01*
X272539707Y-145428213D01*
X272428213Y-145539707D01*
X272428210Y-145539711D01*
X272340609Y-145670814D01*
X272340602Y-145670827D01*
X272280264Y-145816498D01*
X272280261Y-145816510D01*
X272249500Y-145971153D01*
X272249500Y-146128846D01*
X272280261Y-146283489D01*
X272280264Y-146283501D01*
X272340602Y-146429172D01*
X272340609Y-146429185D01*
X272428210Y-146560288D01*
X272428213Y-146560292D01*
X272539707Y-146671786D01*
X272539711Y-146671789D01*
X272670814Y-146759390D01*
X272670827Y-146759397D01*
X272770070Y-146800504D01*
X272816503Y-146819737D01*
X272868130Y-146830006D01*
X272950191Y-146846330D01*
X273012102Y-146878715D01*
X273046677Y-146939431D01*
X273050000Y-146967947D01*
X273050000Y-151006000D01*
X273030315Y-151073039D01*
X272977511Y-151118794D01*
X272926000Y-151130000D01*
X255061441Y-151130000D01*
X254994402Y-151110315D01*
X254948647Y-151057511D01*
X254938703Y-150988353D01*
X254967728Y-150924797D01*
X254973760Y-150918319D01*
X254981786Y-150910292D01*
X254981789Y-150910289D01*
X255069394Y-150779179D01*
X255129737Y-150633497D01*
X255160500Y-150478842D01*
X255160500Y-150321158D01*
X255160500Y-150321155D01*
X255160499Y-150321153D01*
X255129738Y-150166510D01*
X255129737Y-150166503D01*
X255093797Y-150079735D01*
X255069397Y-150020827D01*
X255069390Y-150020814D01*
X254981789Y-149889711D01*
X254981786Y-149889707D01*
X254870292Y-149778213D01*
X254870288Y-149778210D01*
X254739185Y-149690609D01*
X254739172Y-149690602D01*
X254593501Y-149630264D01*
X254593489Y-149630261D01*
X254438845Y-149599500D01*
X254438842Y-149599500D01*
X254281158Y-149599500D01*
X254281155Y-149599500D01*
X254126510Y-149630261D01*
X254126498Y-149630264D01*
X253980827Y-149690602D01*
X253980814Y-149690609D01*
X253849711Y-149778210D01*
X253849707Y-149778213D01*
X253738213Y-149889707D01*
X253738210Y-149889711D01*
X253650609Y-150020814D01*
X253650602Y-150020827D01*
X253590264Y-150166498D01*
X253590261Y-150166510D01*
X253559500Y-150321153D01*
X253559500Y-150478846D01*
X253590261Y-150633489D01*
X253590264Y-150633501D01*
X253650602Y-150779172D01*
X253650609Y-150779185D01*
X253738210Y-150910288D01*
X253738213Y-150910292D01*
X253746240Y-150918319D01*
X253779725Y-150979642D01*
X253774741Y-151049334D01*
X253732869Y-151105267D01*
X253667405Y-151129684D01*
X253658559Y-151130000D01*
X149349000Y-151130000D01*
X149281961Y-151110315D01*
X149236206Y-151057511D01*
X149225000Y-151006000D01*
X149225000Y-149231153D01*
X188654500Y-149231153D01*
X188654500Y-149388846D01*
X188685261Y-149543489D01*
X188685264Y-149543501D01*
X188745602Y-149689172D01*
X188745609Y-149689185D01*
X188833210Y-149820288D01*
X188833213Y-149820292D01*
X188944707Y-149931786D01*
X188944711Y-149931789D01*
X189075814Y-150019390D01*
X189075827Y-150019397D01*
X189221498Y-150079735D01*
X189221503Y-150079737D01*
X189376153Y-150110499D01*
X189376156Y-150110500D01*
X189376158Y-150110500D01*
X189533844Y-150110500D01*
X189533845Y-150110499D01*
X189688497Y-150079737D01*
X189801166Y-150033067D01*
X189834172Y-150019397D01*
X189834172Y-150019396D01*
X189834179Y-150019394D01*
X189965289Y-149931789D01*
X190076789Y-149820289D01*
X190164394Y-149689179D01*
X190224737Y-149543497D01*
X190255500Y-149388842D01*
X190255500Y-149231158D01*
X190255500Y-149231155D01*
X190255499Y-149231153D01*
X190224738Y-149076505D01*
X190224737Y-149076502D01*
X190211669Y-149044953D01*
X216804500Y-149044953D01*
X216804500Y-149202646D01*
X216835261Y-149357289D01*
X216835264Y-149357301D01*
X216895602Y-149502972D01*
X216895609Y-149502985D01*
X216983210Y-149634088D01*
X216983213Y-149634092D01*
X217094707Y-149745586D01*
X217094711Y-149745589D01*
X217225814Y-149833190D01*
X217225827Y-149833197D01*
X217362256Y-149889707D01*
X217371503Y-149893537D01*
X217526153Y-149924299D01*
X217526156Y-149924300D01*
X217526158Y-149924300D01*
X217683844Y-149924300D01*
X217683845Y-149924299D01*
X217838497Y-149893537D01*
X217984179Y-149833194D01*
X218115289Y-149745589D01*
X218226789Y-149634089D01*
X218314394Y-149502979D01*
X218374737Y-149357297D01*
X218405500Y-149202642D01*
X218405500Y-149044958D01*
X218405500Y-149044955D01*
X218405499Y-149044953D01*
X218374737Y-148890303D01*
X218337213Y-148799711D01*
X218314397Y-148744627D01*
X218314390Y-148744614D01*
X218226789Y-148613511D01*
X218226786Y-148613507D01*
X218115292Y-148502013D01*
X218115288Y-148502010D01*
X217984185Y-148414409D01*
X217984172Y-148414402D01*
X217838501Y-148354064D01*
X217838489Y-148354061D01*
X217683845Y-148323300D01*
X217683842Y-148323300D01*
X217526158Y-148323300D01*
X217526155Y-148323300D01*
X217371510Y-148354061D01*
X217371498Y-148354064D01*
X217225827Y-148414402D01*
X217225814Y-148414409D01*
X217094711Y-148502010D01*
X217094707Y-148502013D01*
X216983213Y-148613507D01*
X216983210Y-148613511D01*
X216895609Y-148744614D01*
X216895602Y-148744627D01*
X216835264Y-148890298D01*
X216835261Y-148890310D01*
X216804500Y-149044953D01*
X190211669Y-149044953D01*
X190164397Y-148930827D01*
X190164390Y-148930814D01*
X190076789Y-148799711D01*
X190076786Y-148799707D01*
X189965292Y-148688213D01*
X189965288Y-148688210D01*
X189834185Y-148600609D01*
X189834172Y-148600602D01*
X189688501Y-148540264D01*
X189688489Y-148540261D01*
X189533845Y-148509500D01*
X189533842Y-148509500D01*
X189376158Y-148509500D01*
X189376155Y-148509500D01*
X189221510Y-148540261D01*
X189221498Y-148540264D01*
X189075827Y-148600602D01*
X189075814Y-148600609D01*
X188944711Y-148688210D01*
X188944707Y-148688213D01*
X188833213Y-148799707D01*
X188833210Y-148799711D01*
X188745609Y-148930814D01*
X188745602Y-148930827D01*
X188685264Y-149076498D01*
X188685261Y-149076510D01*
X188654500Y-149231153D01*
X149225000Y-149231153D01*
X149225000Y-146921153D01*
X197974500Y-146921153D01*
X197974500Y-147078846D01*
X198005261Y-147233489D01*
X198005264Y-147233501D01*
X198065602Y-147379172D01*
X198065609Y-147379185D01*
X198153210Y-147510288D01*
X198153213Y-147510292D01*
X198264707Y-147621786D01*
X198264711Y-147621789D01*
X198395814Y-147709390D01*
X198395827Y-147709397D01*
X198541498Y-147769735D01*
X198541503Y-147769737D01*
X198696153Y-147800499D01*
X198696156Y-147800500D01*
X198696158Y-147800500D01*
X198853844Y-147800500D01*
X198853845Y-147800499D01*
X199008497Y-147769737D01*
X199154179Y-147709394D01*
X199168308Y-147699953D01*
X219824500Y-147699953D01*
X219824500Y-147857646D01*
X219855261Y-148012289D01*
X219855264Y-148012301D01*
X219915602Y-148157972D01*
X219915609Y-148157985D01*
X220003210Y-148289088D01*
X220003213Y-148289092D01*
X220114707Y-148400586D01*
X220114711Y-148400589D01*
X220245814Y-148488190D01*
X220245827Y-148488197D01*
X220371530Y-148540264D01*
X220391503Y-148548537D01*
X220546153Y-148579299D01*
X220546156Y-148579300D01*
X220546158Y-148579300D01*
X220703844Y-148579300D01*
X220703845Y-148579299D01*
X220858497Y-148548537D01*
X221004179Y-148488194D01*
X221135289Y-148400589D01*
X221246789Y-148289089D01*
X221334394Y-148157979D01*
X221394737Y-148012297D01*
X221425500Y-147857642D01*
X221425500Y-147699958D01*
X221425500Y-147699955D01*
X221425407Y-147699488D01*
X221425407Y-147699487D01*
X221421807Y-147681387D01*
X239530693Y-147681387D01*
X239530693Y-147839080D01*
X239561454Y-147993723D01*
X239561457Y-147993735D01*
X239621795Y-148139406D01*
X239621802Y-148139419D01*
X239709403Y-148270522D01*
X239709406Y-148270526D01*
X239820900Y-148382020D01*
X239820904Y-148382023D01*
X239952007Y-148469624D01*
X239952020Y-148469631D01*
X240048274Y-148509500D01*
X240097696Y-148529971D01*
X240252346Y-148560733D01*
X240252349Y-148560734D01*
X240252351Y-148560734D01*
X240410037Y-148560734D01*
X240410038Y-148560733D01*
X240564690Y-148529971D01*
X240710372Y-148469628D01*
X240841482Y-148382023D01*
X240952982Y-148270523D01*
X241040587Y-148139413D01*
X241100930Y-147993731D01*
X241131693Y-147839076D01*
X241131693Y-147681392D01*
X241131693Y-147681389D01*
X241131692Y-147681387D01*
X241119837Y-147621789D01*
X241100930Y-147526737D01*
X241081320Y-147479394D01*
X241040590Y-147381061D01*
X241040583Y-147381048D01*
X240952982Y-147249945D01*
X240952979Y-147249941D01*
X240841485Y-147138447D01*
X240841481Y-147138444D01*
X240710378Y-147050843D01*
X240710365Y-147050836D01*
X240564694Y-146990498D01*
X240564682Y-146990495D01*
X240410038Y-146959734D01*
X240410035Y-146959734D01*
X240252351Y-146959734D01*
X240252348Y-146959734D01*
X240097703Y-146990495D01*
X240097691Y-146990498D01*
X239952020Y-147050836D01*
X239952007Y-147050843D01*
X239820904Y-147138444D01*
X239820900Y-147138447D01*
X239709406Y-147249941D01*
X239709403Y-147249945D01*
X239621802Y-147381048D01*
X239621795Y-147381061D01*
X239561457Y-147526732D01*
X239561454Y-147526744D01*
X239530693Y-147681387D01*
X221421807Y-147681387D01*
X221394738Y-147545308D01*
X221394737Y-147545307D01*
X221394737Y-147545303D01*
X221380234Y-147510289D01*
X221334397Y-147399627D01*
X221334390Y-147399614D01*
X221246789Y-147268511D01*
X221246786Y-147268507D01*
X221135292Y-147157013D01*
X221135288Y-147157010D01*
X221004185Y-147069409D01*
X221004172Y-147069402D01*
X220858501Y-147009064D01*
X220858489Y-147009061D01*
X220703845Y-146978300D01*
X220703842Y-146978300D01*
X220546158Y-146978300D01*
X220546155Y-146978300D01*
X220391510Y-147009061D01*
X220391498Y-147009064D01*
X220245827Y-147069402D01*
X220245814Y-147069409D01*
X220114711Y-147157010D01*
X220114707Y-147157013D01*
X220003213Y-147268507D01*
X220003210Y-147268511D01*
X219915609Y-147399614D01*
X219915602Y-147399627D01*
X219855264Y-147545298D01*
X219855261Y-147545310D01*
X219824500Y-147699953D01*
X199168308Y-147699953D01*
X199285289Y-147621789D01*
X199285292Y-147621786D01*
X199300894Y-147606185D01*
X199396786Y-147510292D01*
X199396789Y-147510289D01*
X199484394Y-147379179D01*
X199544737Y-147233497D01*
X199575500Y-147078842D01*
X199575500Y-146921158D01*
X199575500Y-146921155D01*
X199575499Y-146921153D01*
X199544737Y-146766503D01*
X199541791Y-146759390D01*
X199484397Y-146620827D01*
X199484390Y-146620814D01*
X199396789Y-146489711D01*
X199396786Y-146489707D01*
X199285292Y-146378213D01*
X199285288Y-146378210D01*
X199154185Y-146290609D01*
X199154172Y-146290602D01*
X199008501Y-146230264D01*
X199008489Y-146230261D01*
X198853845Y-146199500D01*
X198853842Y-146199500D01*
X198696158Y-146199500D01*
X198696155Y-146199500D01*
X198541510Y-146230261D01*
X198541498Y-146230264D01*
X198395827Y-146290602D01*
X198395814Y-146290609D01*
X198264711Y-146378210D01*
X198264707Y-146378213D01*
X198153213Y-146489707D01*
X198153210Y-146489711D01*
X198065609Y-146620814D01*
X198065602Y-146620827D01*
X198005264Y-146766498D01*
X198005261Y-146766510D01*
X197974500Y-146921153D01*
X149225000Y-146921153D01*
X149225000Y-144511902D01*
X157047000Y-144511902D01*
X157047000Y-144748097D01*
X157083946Y-144981368D01*
X157156933Y-145205996D01*
X157252879Y-145394299D01*
X157264157Y-145416433D01*
X157402983Y-145607510D01*
X157569990Y-145774517D01*
X157761067Y-145913343D01*
X157860491Y-145964002D01*
X157971503Y-146020566D01*
X157971505Y-146020566D01*
X157971508Y-146020568D01*
X158091912Y-146059689D01*
X158196131Y-146093553D01*
X158429403Y-146130500D01*
X158429408Y-146130500D01*
X158665597Y-146130500D01*
X158898868Y-146093553D01*
X159123492Y-146020568D01*
X159220474Y-145971153D01*
X164299500Y-145971153D01*
X164299500Y-146128846D01*
X164330261Y-146283489D01*
X164330264Y-146283501D01*
X164390602Y-146429172D01*
X164390609Y-146429185D01*
X164478210Y-146560288D01*
X164478213Y-146560292D01*
X164589707Y-146671786D01*
X164589711Y-146671789D01*
X164720814Y-146759390D01*
X164720827Y-146759397D01*
X164820070Y-146800504D01*
X164866503Y-146819737D01*
X165000194Y-146846330D01*
X165021153Y-146850499D01*
X165021156Y-146850500D01*
X165021158Y-146850500D01*
X165178844Y-146850500D01*
X165178845Y-146850499D01*
X165333497Y-146819737D01*
X165479179Y-146759394D01*
X165610289Y-146671789D01*
X165721789Y-146560289D01*
X165809394Y-146429179D01*
X165869737Y-146283497D01*
X165900500Y-146128842D01*
X165900500Y-145971158D01*
X165900500Y-145971155D01*
X165900499Y-145971153D01*
X170649500Y-145971153D01*
X170649500Y-146128846D01*
X170680261Y-146283489D01*
X170680264Y-146283501D01*
X170740602Y-146429172D01*
X170740609Y-146429185D01*
X170828210Y-146560288D01*
X170828213Y-146560292D01*
X170939707Y-146671786D01*
X170939711Y-146671789D01*
X171070814Y-146759390D01*
X171070827Y-146759397D01*
X171170070Y-146800504D01*
X171216503Y-146819737D01*
X171350194Y-146846330D01*
X171371153Y-146850499D01*
X171371156Y-146850500D01*
X171371158Y-146850500D01*
X171528844Y-146850500D01*
X171528845Y-146850499D01*
X171683497Y-146819737D01*
X171829179Y-146759394D01*
X171960289Y-146671789D01*
X172071789Y-146560289D01*
X172159394Y-146429179D01*
X172219737Y-146283497D01*
X172250500Y-146128842D01*
X172250500Y-145971158D01*
X172250500Y-145971155D01*
X172250499Y-145971153D01*
X176999500Y-145971153D01*
X176999500Y-146128846D01*
X177030261Y-146283489D01*
X177030264Y-146283501D01*
X177090602Y-146429172D01*
X177090609Y-146429185D01*
X177178210Y-146560288D01*
X177178213Y-146560292D01*
X177289707Y-146671786D01*
X177289711Y-146671789D01*
X177420814Y-146759390D01*
X177420827Y-146759397D01*
X177520070Y-146800504D01*
X177566503Y-146819737D01*
X177700194Y-146846330D01*
X177721153Y-146850499D01*
X177721156Y-146850500D01*
X177721158Y-146850500D01*
X177878844Y-146850500D01*
X177878845Y-146850499D01*
X178033497Y-146819737D01*
X178179179Y-146759394D01*
X178310289Y-146671789D01*
X178421789Y-146560289D01*
X178509394Y-146429179D01*
X178569737Y-146283497D01*
X178600500Y-146128842D01*
X178600500Y-145971158D01*
X178600500Y-145971155D01*
X178600499Y-145971153D01*
X183349500Y-145971153D01*
X183349500Y-146128846D01*
X183380261Y-146283489D01*
X183380264Y-146283501D01*
X183440602Y-146429172D01*
X183440609Y-146429185D01*
X183528210Y-146560288D01*
X183528213Y-146560292D01*
X183639707Y-146671786D01*
X183639711Y-146671789D01*
X183770814Y-146759390D01*
X183770827Y-146759397D01*
X183870070Y-146800504D01*
X183916503Y-146819737D01*
X184050194Y-146846330D01*
X184071153Y-146850499D01*
X184071156Y-146850500D01*
X184071158Y-146850500D01*
X184228844Y-146850500D01*
X184228845Y-146850499D01*
X184383497Y-146819737D01*
X184529179Y-146759394D01*
X184660289Y-146671789D01*
X184771789Y-146560289D01*
X184859394Y-146429179D01*
X184919737Y-146283497D01*
X184950500Y-146128842D01*
X184950500Y-145971158D01*
X184950500Y-145971155D01*
X184950499Y-145971153D01*
X202399500Y-145971153D01*
X202399500Y-146128846D01*
X202430261Y-146283489D01*
X202430264Y-146283501D01*
X202490602Y-146429172D01*
X202490609Y-146429185D01*
X202578210Y-146560288D01*
X202578213Y-146560292D01*
X202689707Y-146671786D01*
X202689711Y-146671789D01*
X202820814Y-146759390D01*
X202820827Y-146759397D01*
X202920070Y-146800504D01*
X202966503Y-146819737D01*
X203100194Y-146846330D01*
X203121153Y-146850499D01*
X203121156Y-146850500D01*
X203121158Y-146850500D01*
X203278844Y-146850500D01*
X203278845Y-146850499D01*
X203433497Y-146819737D01*
X203579179Y-146759394D01*
X203710289Y-146671789D01*
X203821789Y-146560289D01*
X203909394Y-146429179D01*
X203930505Y-146378213D01*
X203937571Y-146361153D01*
X206329500Y-146361153D01*
X206329500Y-146518846D01*
X206360261Y-146673489D01*
X206360264Y-146673501D01*
X206420602Y-146819172D01*
X206420609Y-146819185D01*
X206508210Y-146950288D01*
X206508213Y-146950292D01*
X206619707Y-147061786D01*
X206619711Y-147061789D01*
X206750814Y-147149390D01*
X206750827Y-147149397D01*
X206896498Y-147209735D01*
X206896503Y-147209737D01*
X207015912Y-147233489D01*
X207051153Y-147240499D01*
X207051156Y-147240500D01*
X207051158Y-147240500D01*
X207208844Y-147240500D01*
X207208845Y-147240499D01*
X207363497Y-147209737D01*
X207509179Y-147149394D01*
X207640289Y-147061789D01*
X207751789Y-146950289D01*
X207839394Y-146819179D01*
X207899737Y-146673497D01*
X207930500Y-146518842D01*
X207930500Y-146361158D01*
X207930500Y-146361155D01*
X207930499Y-146361153D01*
X207915051Y-146283492D01*
X207899737Y-146206503D01*
X207875592Y-146148211D01*
X207839397Y-146060827D01*
X207839391Y-146060816D01*
X207821444Y-146033956D01*
X207821443Y-146033955D01*
X207779480Y-145971153D01*
X227799500Y-145971153D01*
X227799500Y-146128846D01*
X227830261Y-146283489D01*
X227830264Y-146283501D01*
X227890602Y-146429172D01*
X227890609Y-146429185D01*
X227978210Y-146560288D01*
X227978213Y-146560292D01*
X228089707Y-146671786D01*
X228089711Y-146671789D01*
X228220814Y-146759390D01*
X228220827Y-146759397D01*
X228320070Y-146800504D01*
X228366503Y-146819737D01*
X228500194Y-146846330D01*
X228521153Y-146850499D01*
X228521156Y-146850500D01*
X228521158Y-146850500D01*
X228678844Y-146850500D01*
X228678845Y-146850499D01*
X228833497Y-146819737D01*
X228979179Y-146759394D01*
X229110289Y-146671789D01*
X229221789Y-146560289D01*
X229309394Y-146429179D01*
X229369737Y-146283497D01*
X229400500Y-146128842D01*
X229400500Y-145971158D01*
X229400500Y-145971155D01*
X229400499Y-145971153D01*
X234149500Y-145971153D01*
X234149500Y-146128846D01*
X234180261Y-146283489D01*
X234180264Y-146283501D01*
X234240602Y-146429172D01*
X234240609Y-146429185D01*
X234328210Y-146560288D01*
X234328213Y-146560292D01*
X234439707Y-146671786D01*
X234439711Y-146671789D01*
X234570814Y-146759390D01*
X234570827Y-146759397D01*
X234670070Y-146800504D01*
X234716503Y-146819737D01*
X234850194Y-146846330D01*
X234871153Y-146850499D01*
X234871156Y-146850500D01*
X234871158Y-146850500D01*
X235028844Y-146850500D01*
X235028845Y-146850499D01*
X235183497Y-146819737D01*
X235329179Y-146759394D01*
X235460289Y-146671789D01*
X235571789Y-146560289D01*
X235659394Y-146429179D01*
X235719737Y-146283497D01*
X235750500Y-146128842D01*
X235750500Y-145971158D01*
X235750500Y-145971155D01*
X235750499Y-145971153D01*
X240499500Y-145971153D01*
X240499500Y-146128846D01*
X240530261Y-146283489D01*
X240530264Y-146283501D01*
X240590602Y-146429172D01*
X240590609Y-146429185D01*
X240678210Y-146560288D01*
X240678213Y-146560292D01*
X240789707Y-146671786D01*
X240789711Y-146671789D01*
X240920814Y-146759390D01*
X240920827Y-146759397D01*
X241020070Y-146800504D01*
X241066503Y-146819737D01*
X241200194Y-146846330D01*
X241221153Y-146850499D01*
X241221156Y-146850500D01*
X241221158Y-146850500D01*
X241378844Y-146850500D01*
X241378845Y-146850499D01*
X241533497Y-146819737D01*
X241679179Y-146759394D01*
X241781309Y-146691153D01*
X257579500Y-146691153D01*
X257579500Y-146848846D01*
X257610261Y-147003489D01*
X257610264Y-147003501D01*
X257670602Y-147149172D01*
X257670609Y-147149185D01*
X257758210Y-147280288D01*
X257758213Y-147280292D01*
X257869707Y-147391786D01*
X257869711Y-147391789D01*
X258000814Y-147479390D01*
X258000827Y-147479397D01*
X258146498Y-147539735D01*
X258146503Y-147539737D01*
X258301153Y-147570499D01*
X258301156Y-147570500D01*
X258301158Y-147570500D01*
X258458844Y-147570500D01*
X258458845Y-147570499D01*
X258613497Y-147539737D01*
X258759179Y-147479394D01*
X258890289Y-147391789D01*
X259001789Y-147280289D01*
X259089394Y-147149179D01*
X259149737Y-147003497D01*
X259180500Y-146848842D01*
X259180500Y-146691158D01*
X259180500Y-146691155D01*
X259180499Y-146691153D01*
X259166509Y-146620821D01*
X259149737Y-146536503D01*
X259142423Y-146518846D01*
X259089397Y-146390827D01*
X259089390Y-146390814D01*
X259001789Y-146259711D01*
X259001786Y-146259707D01*
X258890292Y-146148213D01*
X258890288Y-146148210D01*
X258759185Y-146060609D01*
X258759172Y-146060602D01*
X258613501Y-146000264D01*
X258613489Y-146000261D01*
X258458845Y-145969500D01*
X258458842Y-145969500D01*
X258301158Y-145969500D01*
X258301155Y-145969500D01*
X258146510Y-146000261D01*
X258146498Y-146000264D01*
X258000827Y-146060602D01*
X258000814Y-146060609D01*
X257869711Y-146148210D01*
X257869707Y-146148213D01*
X257758213Y-146259707D01*
X257758210Y-146259711D01*
X257670609Y-146390814D01*
X257670602Y-146390827D01*
X257610264Y-146536498D01*
X257610261Y-146536510D01*
X257579500Y-146691153D01*
X241781309Y-146691153D01*
X241810289Y-146671789D01*
X241810292Y-146671786D01*
X241884694Y-146597385D01*
X241921786Y-146560292D01*
X241921789Y-146560289D01*
X242009394Y-146429179D01*
X242069737Y-146283497D01*
X242100500Y-146128842D01*
X242100500Y-145971158D01*
X242100500Y-145971155D01*
X242100499Y-145971153D01*
X242089000Y-145913343D01*
X242069737Y-145816503D01*
X242034156Y-145730602D01*
X242009397Y-145670827D01*
X242009390Y-145670814D01*
X241921789Y-145539711D01*
X241921786Y-145539707D01*
X241810292Y-145428213D01*
X241810288Y-145428210D01*
X241679185Y-145340609D01*
X241679172Y-145340602D01*
X241533501Y-145280264D01*
X241533489Y-145280261D01*
X241378845Y-145249500D01*
X241378842Y-145249500D01*
X241221158Y-145249500D01*
X241221155Y-145249500D01*
X241066510Y-145280261D01*
X241066498Y-145280264D01*
X240920827Y-145340602D01*
X240920814Y-145340609D01*
X240789711Y-145428210D01*
X240789707Y-145428213D01*
X240678213Y-145539707D01*
X240678210Y-145539711D01*
X240590609Y-145670814D01*
X240590602Y-145670827D01*
X240530264Y-145816498D01*
X240530261Y-145816510D01*
X240499500Y-145971153D01*
X235750499Y-145971153D01*
X235739000Y-145913343D01*
X235719737Y-145816503D01*
X235684156Y-145730602D01*
X235659397Y-145670827D01*
X235659390Y-145670814D01*
X235571789Y-145539711D01*
X235571786Y-145539707D01*
X235460292Y-145428213D01*
X235460288Y-145428210D01*
X235329185Y-145340609D01*
X235329172Y-145340602D01*
X235183501Y-145280264D01*
X235183489Y-145280261D01*
X235028845Y-145249500D01*
X235028842Y-145249500D01*
X234871158Y-145249500D01*
X234871155Y-145249500D01*
X234716510Y-145280261D01*
X234716498Y-145280264D01*
X234570827Y-145340602D01*
X234570814Y-145340609D01*
X234439711Y-145428210D01*
X234439707Y-145428213D01*
X234328213Y-145539707D01*
X234328210Y-145539711D01*
X234240609Y-145670814D01*
X234240602Y-145670827D01*
X234180264Y-145816498D01*
X234180261Y-145816510D01*
X234149500Y-145971153D01*
X229400499Y-145971153D01*
X229389000Y-145913343D01*
X229369737Y-145816503D01*
X229334156Y-145730602D01*
X229309397Y-145670827D01*
X229309390Y-145670814D01*
X229221789Y-145539711D01*
X229221786Y-145539707D01*
X229110292Y-145428213D01*
X229110288Y-145428210D01*
X228979185Y-145340609D01*
X228979172Y-145340602D01*
X228833501Y-145280264D01*
X228833489Y-145280261D01*
X228678845Y-145249500D01*
X228678842Y-145249500D01*
X228521158Y-145249500D01*
X228521155Y-145249500D01*
X228366510Y-145280261D01*
X228366498Y-145280264D01*
X228220827Y-145340602D01*
X228220814Y-145340609D01*
X228089711Y-145428210D01*
X228089707Y-145428213D01*
X227978213Y-145539707D01*
X227978210Y-145539711D01*
X227890609Y-145670814D01*
X227890602Y-145670827D01*
X227830264Y-145816498D01*
X227830261Y-145816510D01*
X227799500Y-145971153D01*
X207779480Y-145971153D01*
X207751789Y-145929711D01*
X207751786Y-145929707D01*
X207640292Y-145818213D01*
X207640288Y-145818210D01*
X207509185Y-145730609D01*
X207509172Y-145730602D01*
X207363501Y-145670264D01*
X207363489Y-145670261D01*
X207208845Y-145639500D01*
X207208842Y-145639500D01*
X207051158Y-145639500D01*
X207051155Y-145639500D01*
X206896510Y-145670261D01*
X206896498Y-145670264D01*
X206750827Y-145730602D01*
X206750814Y-145730609D01*
X206619711Y-145818210D01*
X206619707Y-145818213D01*
X206508213Y-145929707D01*
X206508210Y-145929711D01*
X206420609Y-146060814D01*
X206420602Y-146060827D01*
X206360264Y-146206498D01*
X206360261Y-146206510D01*
X206329500Y-146361153D01*
X203937571Y-146361153D01*
X203959745Y-146307621D01*
X203959747Y-146307614D01*
X203969737Y-146283497D01*
X204000500Y-146128842D01*
X204000500Y-145971158D01*
X204000500Y-145971155D01*
X204000499Y-145971153D01*
X203989000Y-145913343D01*
X203969737Y-145816503D01*
X203934156Y-145730602D01*
X203909397Y-145670827D01*
X203909390Y-145670814D01*
X203821789Y-145539711D01*
X203821786Y-145539707D01*
X203710292Y-145428213D01*
X203710288Y-145428210D01*
X203579185Y-145340609D01*
X203579172Y-145340602D01*
X203433501Y-145280264D01*
X203433489Y-145280261D01*
X203278845Y-145249500D01*
X203278842Y-145249500D01*
X203121158Y-145249500D01*
X203121155Y-145249500D01*
X202966510Y-145280261D01*
X202966498Y-145280264D01*
X202820827Y-145340602D01*
X202820814Y-145340609D01*
X202689711Y-145428210D01*
X202689707Y-145428213D01*
X202578213Y-145539707D01*
X202578210Y-145539711D01*
X202490609Y-145670814D01*
X202490602Y-145670827D01*
X202430264Y-145816498D01*
X202430261Y-145816510D01*
X202399500Y-145971153D01*
X184950499Y-145971153D01*
X184939000Y-145913343D01*
X184919737Y-145816503D01*
X184884156Y-145730602D01*
X184859397Y-145670827D01*
X184859390Y-145670814D01*
X184771789Y-145539711D01*
X184771786Y-145539707D01*
X184660292Y-145428213D01*
X184660288Y-145428210D01*
X184529185Y-145340609D01*
X184529172Y-145340602D01*
X184383501Y-145280264D01*
X184383489Y-145280261D01*
X184228845Y-145249500D01*
X184228842Y-145249500D01*
X184071158Y-145249500D01*
X184071155Y-145249500D01*
X183916510Y-145280261D01*
X183916498Y-145280264D01*
X183770827Y-145340602D01*
X183770814Y-145340609D01*
X183639711Y-145428210D01*
X183639707Y-145428213D01*
X183528213Y-145539707D01*
X183528210Y-145539711D01*
X183440609Y-145670814D01*
X183440602Y-145670827D01*
X183380264Y-145816498D01*
X183380261Y-145816510D01*
X183349500Y-145971153D01*
X178600499Y-145971153D01*
X178589000Y-145913343D01*
X178569737Y-145816503D01*
X178534156Y-145730602D01*
X178509397Y-145670827D01*
X178509390Y-145670814D01*
X178421789Y-145539711D01*
X178421786Y-145539707D01*
X178310292Y-145428213D01*
X178310288Y-145428210D01*
X178179185Y-145340609D01*
X178179172Y-145340602D01*
X178033501Y-145280264D01*
X178033489Y-145280261D01*
X177878845Y-145249500D01*
X177878842Y-145249500D01*
X177721158Y-145249500D01*
X177721155Y-145249500D01*
X177566510Y-145280261D01*
X177566498Y-145280264D01*
X177420827Y-145340602D01*
X177420814Y-145340609D01*
X177289711Y-145428210D01*
X177289707Y-145428213D01*
X177178213Y-145539707D01*
X177178210Y-145539711D01*
X177090609Y-145670814D01*
X177090602Y-145670827D01*
X177030264Y-145816498D01*
X177030261Y-145816510D01*
X176999500Y-145971153D01*
X172250499Y-145971153D01*
X172239000Y-145913343D01*
X172219737Y-145816503D01*
X172184156Y-145730602D01*
X172159397Y-145670827D01*
X172159390Y-145670814D01*
X172071789Y-145539711D01*
X172071786Y-145539707D01*
X171960292Y-145428213D01*
X171960288Y-145428210D01*
X171829185Y-145340609D01*
X171829172Y-145340602D01*
X171683501Y-145280264D01*
X171683489Y-145280261D01*
X171528845Y-145249500D01*
X171528842Y-145249500D01*
X171371158Y-145249500D01*
X171371155Y-145249500D01*
X171216510Y-145280261D01*
X171216498Y-145280264D01*
X171070827Y-145340602D01*
X171070814Y-145340609D01*
X170939711Y-145428210D01*
X170939707Y-145428213D01*
X170828213Y-145539707D01*
X170828210Y-145539711D01*
X170740609Y-145670814D01*
X170740602Y-145670827D01*
X170680264Y-145816498D01*
X170680261Y-145816510D01*
X170649500Y-145971153D01*
X165900499Y-145971153D01*
X165889000Y-145913343D01*
X165869737Y-145816503D01*
X165834156Y-145730602D01*
X165809397Y-145670827D01*
X165809390Y-145670814D01*
X165721789Y-145539711D01*
X165721786Y-145539707D01*
X165610292Y-145428213D01*
X165610288Y-145428210D01*
X165479185Y-145340609D01*
X165479172Y-145340602D01*
X165333501Y-145280264D01*
X165333489Y-145280261D01*
X165178845Y-145249500D01*
X165178842Y-145249500D01*
X165021158Y-145249500D01*
X165021155Y-145249500D01*
X164866510Y-145280261D01*
X164866498Y-145280264D01*
X164720827Y-145340602D01*
X164720814Y-145340609D01*
X164589711Y-145428210D01*
X164589707Y-145428213D01*
X164478213Y-145539707D01*
X164478210Y-145539711D01*
X164390609Y-145670814D01*
X164390602Y-145670827D01*
X164330264Y-145816498D01*
X164330261Y-145816510D01*
X164299500Y-145971153D01*
X159220474Y-145971153D01*
X159333933Y-145913343D01*
X159525010Y-145774517D01*
X159692017Y-145607510D01*
X159830843Y-145416433D01*
X159938068Y-145205992D01*
X160011053Y-144981368D01*
X160035455Y-144827301D01*
X160048000Y-144748097D01*
X160048000Y-144514953D01*
X208134500Y-144514953D01*
X208134500Y-144672646D01*
X208165261Y-144827289D01*
X208165264Y-144827301D01*
X208225602Y-144972972D01*
X208225609Y-144972985D01*
X208313210Y-145104088D01*
X208313213Y-145104092D01*
X208424707Y-145215586D01*
X208424711Y-145215589D01*
X208555814Y-145303190D01*
X208555827Y-145303197D01*
X208646142Y-145340606D01*
X208701503Y-145363537D01*
X208856153Y-145394299D01*
X208856156Y-145394300D01*
X208856158Y-145394300D01*
X209013844Y-145394300D01*
X209013845Y-145394299D01*
X209168497Y-145363537D01*
X209314179Y-145303194D01*
X209445289Y-145215589D01*
X209556789Y-145104089D01*
X209644394Y-144972979D01*
X209704737Y-144827297D01*
X209735500Y-144672642D01*
X209735500Y-144514958D01*
X209735500Y-144514955D01*
X209735499Y-144514953D01*
X209704738Y-144360310D01*
X209704737Y-144360303D01*
X209670908Y-144278631D01*
X209644397Y-144214627D01*
X209644390Y-144214614D01*
X209556789Y-144083511D01*
X209556786Y-144083507D01*
X209445292Y-143972013D01*
X209445288Y-143972010D01*
X209314185Y-143884409D01*
X209314172Y-143884402D01*
X209168501Y-143824064D01*
X209168489Y-143824061D01*
X209013845Y-143793300D01*
X209013842Y-143793300D01*
X208856158Y-143793300D01*
X208856155Y-143793300D01*
X208701510Y-143824061D01*
X208701498Y-143824064D01*
X208555827Y-143884402D01*
X208555814Y-143884409D01*
X208424711Y-143972010D01*
X208424707Y-143972013D01*
X208313213Y-144083507D01*
X208313210Y-144083511D01*
X208225609Y-144214614D01*
X208225602Y-144214627D01*
X208165264Y-144360298D01*
X208165261Y-144360310D01*
X208134500Y-144514953D01*
X160048000Y-144514953D01*
X160048000Y-144511902D01*
X160011053Y-144278631D01*
X159938066Y-144054003D01*
X159851653Y-143884409D01*
X159830843Y-143843567D01*
X159692017Y-143652490D01*
X159525010Y-143485483D01*
X159333933Y-143346657D01*
X159123496Y-143239433D01*
X158898868Y-143166446D01*
X158665597Y-143129500D01*
X158665592Y-143129500D01*
X158429408Y-143129500D01*
X158429403Y-143129500D01*
X158196131Y-143166446D01*
X157971503Y-143239433D01*
X157761066Y-143346657D01*
X157652050Y-143425862D01*
X157569990Y-143485483D01*
X157569988Y-143485485D01*
X157569987Y-143485485D01*
X157402985Y-143652487D01*
X157402985Y-143652488D01*
X157402983Y-143652490D01*
X157343362Y-143734550D01*
X157264157Y-143843566D01*
X157156933Y-144054003D01*
X157083946Y-144278631D01*
X157047000Y-144511902D01*
X149225000Y-144511902D01*
X149225000Y-142171153D01*
X262769500Y-142171153D01*
X262769500Y-142328846D01*
X262800261Y-142483489D01*
X262800264Y-142483501D01*
X262860602Y-142629172D01*
X262860609Y-142629185D01*
X262948210Y-142760288D01*
X262948213Y-142760292D01*
X263059707Y-142871786D01*
X263059711Y-142871789D01*
X263190814Y-142959390D01*
X263190827Y-142959397D01*
X263336498Y-143019735D01*
X263336503Y-143019737D01*
X263491153Y-143050499D01*
X263491156Y-143050500D01*
X263491158Y-143050500D01*
X263648844Y-143050500D01*
X263648845Y-143050499D01*
X263803497Y-143019737D01*
X263949179Y-142959394D01*
X264080289Y-142871789D01*
X264191789Y-142760289D01*
X264279394Y-142629179D01*
X264339737Y-142483497D01*
X264370500Y-142328842D01*
X264370500Y-142171158D01*
X264370500Y-142171155D01*
X264370499Y-142171153D01*
X264339738Y-142016510D01*
X264339737Y-142016503D01*
X264339735Y-142016498D01*
X264279397Y-141870827D01*
X264279390Y-141870814D01*
X264191789Y-141739711D01*
X264191786Y-141739707D01*
X264080292Y-141628213D01*
X264080288Y-141628210D01*
X263949185Y-141540609D01*
X263949172Y-141540602D01*
X263803501Y-141480264D01*
X263803489Y-141480261D01*
X263648845Y-141449500D01*
X263648842Y-141449500D01*
X263491158Y-141449500D01*
X263491155Y-141449500D01*
X263336510Y-141480261D01*
X263336498Y-141480264D01*
X263190827Y-141540602D01*
X263190814Y-141540609D01*
X263059711Y-141628210D01*
X263059707Y-141628213D01*
X262948213Y-141739707D01*
X262948210Y-141739711D01*
X262860609Y-141870814D01*
X262860602Y-141870827D01*
X262800264Y-142016498D01*
X262800261Y-142016510D01*
X262769500Y-142171153D01*
X149225000Y-142171153D01*
X149225000Y-139621153D01*
X164299500Y-139621153D01*
X164299500Y-139778846D01*
X164330261Y-139933489D01*
X164330264Y-139933501D01*
X164390602Y-140079172D01*
X164390609Y-140079185D01*
X164478210Y-140210288D01*
X164478213Y-140210292D01*
X164589707Y-140321786D01*
X164589711Y-140321789D01*
X164720814Y-140409390D01*
X164720827Y-140409397D01*
X164866498Y-140469735D01*
X164866503Y-140469737D01*
X165000194Y-140496330D01*
X165021153Y-140500499D01*
X165021156Y-140500500D01*
X165021158Y-140500500D01*
X165178844Y-140500500D01*
X165178845Y-140500499D01*
X165333497Y-140469737D01*
X165479179Y-140409394D01*
X165610289Y-140321789D01*
X165721789Y-140210289D01*
X165809394Y-140079179D01*
X165869737Y-139933497D01*
X165900500Y-139778842D01*
X165900500Y-139621158D01*
X165900500Y-139621155D01*
X165900499Y-139621153D01*
X170649500Y-139621153D01*
X170649500Y-139778846D01*
X170680261Y-139933489D01*
X170680264Y-139933501D01*
X170740602Y-140079172D01*
X170740609Y-140079185D01*
X170828210Y-140210288D01*
X170828213Y-140210292D01*
X170939707Y-140321786D01*
X170939711Y-140321789D01*
X171070814Y-140409390D01*
X171070827Y-140409397D01*
X171216498Y-140469735D01*
X171216503Y-140469737D01*
X171350194Y-140496330D01*
X171371153Y-140500499D01*
X171371156Y-140500500D01*
X171371158Y-140500500D01*
X171528844Y-140500500D01*
X171528845Y-140500499D01*
X171683497Y-140469737D01*
X171829179Y-140409394D01*
X171960289Y-140321789D01*
X172071789Y-140210289D01*
X172159394Y-140079179D01*
X172219737Y-139933497D01*
X172250500Y-139778842D01*
X172250500Y-139621158D01*
X172250500Y-139621155D01*
X172250499Y-139621153D01*
X176999500Y-139621153D01*
X176999500Y-139778846D01*
X177030261Y-139933489D01*
X177030264Y-139933501D01*
X177090602Y-140079172D01*
X177090609Y-140079185D01*
X177178210Y-140210288D01*
X177178213Y-140210292D01*
X177289707Y-140321786D01*
X177289711Y-140321789D01*
X177420814Y-140409390D01*
X177420827Y-140409397D01*
X177566498Y-140469735D01*
X177566503Y-140469737D01*
X177700194Y-140496330D01*
X177721153Y-140500499D01*
X177721156Y-140500500D01*
X177721158Y-140500500D01*
X177878844Y-140500500D01*
X177878845Y-140500499D01*
X178033497Y-140469737D01*
X178179179Y-140409394D01*
X178310289Y-140321789D01*
X178421789Y-140210289D01*
X178509394Y-140079179D01*
X178569737Y-139933497D01*
X178600500Y-139778842D01*
X178600500Y-139621158D01*
X178600500Y-139621155D01*
X178600499Y-139621153D01*
X183349500Y-139621153D01*
X183349500Y-139778846D01*
X183380261Y-139933489D01*
X183380264Y-139933501D01*
X183440602Y-140079172D01*
X183440609Y-140079185D01*
X183528210Y-140210288D01*
X183528213Y-140210292D01*
X183639707Y-140321786D01*
X183639711Y-140321789D01*
X183770814Y-140409390D01*
X183770827Y-140409397D01*
X183916498Y-140469735D01*
X183916503Y-140469737D01*
X184050194Y-140496330D01*
X184071153Y-140500499D01*
X184071156Y-140500500D01*
X184071158Y-140500500D01*
X184228844Y-140500500D01*
X184228845Y-140500499D01*
X184383497Y-140469737D01*
X184529179Y-140409394D01*
X184660289Y-140321789D01*
X184771789Y-140210289D01*
X184859394Y-140079179D01*
X184919737Y-139933497D01*
X184950500Y-139778842D01*
X184950500Y-139621158D01*
X184950500Y-139621155D01*
X184950499Y-139621153D01*
X189699500Y-139621153D01*
X189699500Y-139778846D01*
X189730261Y-139933489D01*
X189730264Y-139933501D01*
X189790602Y-140079172D01*
X189790609Y-140079185D01*
X189878210Y-140210288D01*
X189878213Y-140210292D01*
X189989707Y-140321786D01*
X189989711Y-140321789D01*
X190120814Y-140409390D01*
X190120827Y-140409397D01*
X190266498Y-140469735D01*
X190266503Y-140469737D01*
X190400194Y-140496330D01*
X190421153Y-140500499D01*
X190421156Y-140500500D01*
X190421158Y-140500500D01*
X190578844Y-140500500D01*
X190578845Y-140500499D01*
X190733497Y-140469737D01*
X190879179Y-140409394D01*
X191010289Y-140321789D01*
X191121789Y-140210289D01*
X191209394Y-140079179D01*
X191269737Y-139933497D01*
X191300500Y-139778842D01*
X191300500Y-139621158D01*
X191300500Y-139621155D01*
X191300499Y-139621153D01*
X202399500Y-139621153D01*
X202399500Y-139778846D01*
X202430261Y-139933489D01*
X202430264Y-139933501D01*
X202490602Y-140079172D01*
X202490609Y-140079185D01*
X202578210Y-140210288D01*
X202578213Y-140210292D01*
X202689707Y-140321786D01*
X202689711Y-140321789D01*
X202820814Y-140409390D01*
X202820827Y-140409397D01*
X202966498Y-140469735D01*
X202966503Y-140469737D01*
X203100194Y-140496330D01*
X203121153Y-140500499D01*
X203121156Y-140500500D01*
X203121158Y-140500500D01*
X203278844Y-140500500D01*
X203278845Y-140500499D01*
X203433497Y-140469737D01*
X203579179Y-140409394D01*
X203710289Y-140321789D01*
X203821789Y-140210289D01*
X203909394Y-140079179D01*
X203969737Y-139933497D01*
X204000500Y-139778842D01*
X204000500Y-139621158D01*
X204000500Y-139621155D01*
X204000499Y-139621153D01*
X208749500Y-139621153D01*
X208749500Y-139778846D01*
X208780261Y-139933489D01*
X208780264Y-139933501D01*
X208840602Y-140079172D01*
X208840609Y-140079185D01*
X208928210Y-140210288D01*
X208928213Y-140210292D01*
X209039707Y-140321786D01*
X209039711Y-140321789D01*
X209170814Y-140409390D01*
X209170827Y-140409397D01*
X209316498Y-140469735D01*
X209316503Y-140469737D01*
X209450194Y-140496330D01*
X209471153Y-140500499D01*
X209471156Y-140500500D01*
X209471158Y-140500500D01*
X209628844Y-140500500D01*
X209628845Y-140500499D01*
X209783497Y-140469737D01*
X209929179Y-140409394D01*
X210060289Y-140321789D01*
X210171789Y-140210289D01*
X210259394Y-140079179D01*
X210319737Y-139933497D01*
X210350500Y-139778842D01*
X210350500Y-139621158D01*
X210350500Y-139621155D01*
X210350499Y-139621153D01*
X221449500Y-139621153D01*
X221449500Y-139778846D01*
X221480261Y-139933489D01*
X221480264Y-139933501D01*
X221540602Y-140079172D01*
X221540609Y-140079185D01*
X221628210Y-140210288D01*
X221628213Y-140210292D01*
X221739707Y-140321786D01*
X221739711Y-140321789D01*
X221870814Y-140409390D01*
X221870827Y-140409397D01*
X222016498Y-140469735D01*
X222016503Y-140469737D01*
X222150194Y-140496330D01*
X222171153Y-140500499D01*
X222171156Y-140500500D01*
X222171158Y-140500500D01*
X222328844Y-140500500D01*
X222328845Y-140500499D01*
X222483497Y-140469737D01*
X222629179Y-140409394D01*
X222760289Y-140321789D01*
X222871789Y-140210289D01*
X222959394Y-140079179D01*
X223019737Y-139933497D01*
X223050500Y-139778842D01*
X223050500Y-139621158D01*
X223050500Y-139621155D01*
X223050499Y-139621153D01*
X227799500Y-139621153D01*
X227799500Y-139778846D01*
X227830261Y-139933489D01*
X227830264Y-139933501D01*
X227890602Y-140079172D01*
X227890609Y-140079185D01*
X227978210Y-140210288D01*
X227978213Y-140210292D01*
X228089707Y-140321786D01*
X228089711Y-140321789D01*
X228220814Y-140409390D01*
X228220827Y-140409397D01*
X228366498Y-140469735D01*
X228366503Y-140469737D01*
X228500194Y-140496330D01*
X228521153Y-140500499D01*
X228521156Y-140500500D01*
X228521158Y-140500500D01*
X228678844Y-140500500D01*
X228678845Y-140500499D01*
X228833497Y-140469737D01*
X228979179Y-140409394D01*
X229110289Y-140321789D01*
X229221789Y-140210289D01*
X229309394Y-140079179D01*
X229369737Y-139933497D01*
X229400500Y-139778842D01*
X229400500Y-139621158D01*
X229400500Y-139621155D01*
X229400499Y-139621153D01*
X234149500Y-139621153D01*
X234149500Y-139778846D01*
X234180261Y-139933489D01*
X234180264Y-139933501D01*
X234240602Y-140079172D01*
X234240609Y-140079185D01*
X234328210Y-140210288D01*
X234328213Y-140210292D01*
X234439707Y-140321786D01*
X234439711Y-140321789D01*
X234570814Y-140409390D01*
X234570827Y-140409397D01*
X234716498Y-140469735D01*
X234716503Y-140469737D01*
X234850194Y-140496330D01*
X234871153Y-140500499D01*
X234871156Y-140500500D01*
X234871158Y-140500500D01*
X235028844Y-140500500D01*
X235028845Y-140500499D01*
X235183497Y-140469737D01*
X235329179Y-140409394D01*
X235460289Y-140321789D01*
X235571789Y-140210289D01*
X235659394Y-140079179D01*
X235719737Y-139933497D01*
X235750500Y-139778842D01*
X235750500Y-139621158D01*
X235750500Y-139621155D01*
X235750499Y-139621153D01*
X240499500Y-139621153D01*
X240499500Y-139778846D01*
X240530261Y-139933489D01*
X240530264Y-139933501D01*
X240590602Y-140079172D01*
X240590609Y-140079185D01*
X240678210Y-140210288D01*
X240678213Y-140210292D01*
X240789707Y-140321786D01*
X240789711Y-140321789D01*
X240920814Y-140409390D01*
X240920827Y-140409397D01*
X241066498Y-140469735D01*
X241066503Y-140469737D01*
X241200194Y-140496330D01*
X241221153Y-140500499D01*
X241221156Y-140500500D01*
X241221158Y-140500500D01*
X241378844Y-140500500D01*
X241378845Y-140500499D01*
X241533497Y-140469737D01*
X241679179Y-140409394D01*
X241810289Y-140321789D01*
X241921789Y-140210289D01*
X242009394Y-140079179D01*
X242069737Y-139933497D01*
X242100500Y-139778842D01*
X242100500Y-139621158D01*
X242100500Y-139621155D01*
X242100499Y-139621153D01*
X242069738Y-139466510D01*
X242069737Y-139466503D01*
X242069735Y-139466498D01*
X242009397Y-139320827D01*
X242009390Y-139320814D01*
X241921789Y-139189711D01*
X241921786Y-139189707D01*
X241810292Y-139078213D01*
X241810288Y-139078210D01*
X241679185Y-138990609D01*
X241679172Y-138990602D01*
X241533501Y-138930264D01*
X241533489Y-138930261D01*
X241378845Y-138899500D01*
X241378842Y-138899500D01*
X241221158Y-138899500D01*
X241221155Y-138899500D01*
X241066510Y-138930261D01*
X241066498Y-138930264D01*
X240920827Y-138990602D01*
X240920814Y-138990609D01*
X240789711Y-139078210D01*
X240789707Y-139078213D01*
X240678213Y-139189707D01*
X240678210Y-139189711D01*
X240590609Y-139320814D01*
X240590602Y-139320827D01*
X240530264Y-139466498D01*
X240530261Y-139466510D01*
X240499500Y-139621153D01*
X235750499Y-139621153D01*
X235719738Y-139466510D01*
X235719737Y-139466503D01*
X235719735Y-139466498D01*
X235659397Y-139320827D01*
X235659390Y-139320814D01*
X235571789Y-139189711D01*
X235571786Y-139189707D01*
X235460292Y-139078213D01*
X235460288Y-139078210D01*
X235329185Y-138990609D01*
X235329172Y-138990602D01*
X235183501Y-138930264D01*
X235183489Y-138930261D01*
X235028845Y-138899500D01*
X235028842Y-138899500D01*
X234871158Y-138899500D01*
X234871155Y-138899500D01*
X234716510Y-138930261D01*
X234716498Y-138930264D01*
X234570827Y-138990602D01*
X234570814Y-138990609D01*
X234439711Y-139078210D01*
X234439707Y-139078213D01*
X234328213Y-139189707D01*
X234328210Y-139189711D01*
X234240609Y-139320814D01*
X234240602Y-139320827D01*
X234180264Y-139466498D01*
X234180261Y-139466510D01*
X234149500Y-139621153D01*
X229400499Y-139621153D01*
X229369738Y-139466510D01*
X229369737Y-139466503D01*
X229369735Y-139466498D01*
X229309397Y-139320827D01*
X229309390Y-139320814D01*
X229221789Y-139189711D01*
X229221786Y-139189707D01*
X229110292Y-139078213D01*
X229110288Y-139078210D01*
X228979185Y-138990609D01*
X228979172Y-138990602D01*
X228833501Y-138930264D01*
X228833489Y-138930261D01*
X228678845Y-138899500D01*
X228678842Y-138899500D01*
X228521158Y-138899500D01*
X228521155Y-138899500D01*
X228366510Y-138930261D01*
X228366498Y-138930264D01*
X228220827Y-138990602D01*
X228220814Y-138990609D01*
X228089711Y-139078210D01*
X228089707Y-139078213D01*
X227978213Y-139189707D01*
X227978210Y-139189711D01*
X227890609Y-139320814D01*
X227890602Y-139320827D01*
X227830264Y-139466498D01*
X227830261Y-139466510D01*
X227799500Y-139621153D01*
X223050499Y-139621153D01*
X223019738Y-139466510D01*
X223019737Y-139466503D01*
X223019735Y-139466498D01*
X222959397Y-139320827D01*
X222959390Y-139320814D01*
X222871789Y-139189711D01*
X222871786Y-139189707D01*
X222760292Y-139078213D01*
X222760288Y-139078210D01*
X222629185Y-138990609D01*
X222629172Y-138990602D01*
X222483501Y-138930264D01*
X222483489Y-138930261D01*
X222328845Y-138899500D01*
X222328842Y-138899500D01*
X222171158Y-138899500D01*
X222171155Y-138899500D01*
X222016510Y-138930261D01*
X222016498Y-138930264D01*
X221870827Y-138990602D01*
X221870814Y-138990609D01*
X221739711Y-139078210D01*
X221739707Y-139078213D01*
X221628213Y-139189707D01*
X221628210Y-139189711D01*
X221540609Y-139320814D01*
X221540602Y-139320827D01*
X221480264Y-139466498D01*
X221480261Y-139466510D01*
X221449500Y-139621153D01*
X210350499Y-139621153D01*
X210319738Y-139466510D01*
X210319737Y-139466503D01*
X210319735Y-139466498D01*
X210259397Y-139320827D01*
X210259390Y-139320814D01*
X210171789Y-139189711D01*
X210171786Y-139189707D01*
X210060292Y-139078213D01*
X210060288Y-139078210D01*
X209929185Y-138990609D01*
X209929172Y-138990602D01*
X209783501Y-138930264D01*
X209783489Y-138930261D01*
X209628845Y-138899500D01*
X209628842Y-138899500D01*
X209471158Y-138899500D01*
X209471155Y-138899500D01*
X209316510Y-138930261D01*
X209316498Y-138930264D01*
X209170827Y-138990602D01*
X209170814Y-138990609D01*
X209039711Y-139078210D01*
X209039707Y-139078213D01*
X208928213Y-139189707D01*
X208928210Y-139189711D01*
X208840609Y-139320814D01*
X208840602Y-139320827D01*
X208780264Y-139466498D01*
X208780261Y-139466510D01*
X208749500Y-139621153D01*
X204000499Y-139621153D01*
X203969738Y-139466510D01*
X203969737Y-139466503D01*
X203969735Y-139466498D01*
X203909397Y-139320827D01*
X203909390Y-139320814D01*
X203821789Y-139189711D01*
X203821786Y-139189707D01*
X203710292Y-139078213D01*
X203710288Y-139078210D01*
X203579185Y-138990609D01*
X203579172Y-138990602D01*
X203433501Y-138930264D01*
X203433489Y-138930261D01*
X203278845Y-138899500D01*
X203278842Y-138899500D01*
X203121158Y-138899500D01*
X203121155Y-138899500D01*
X202966510Y-138930261D01*
X202966498Y-138930264D01*
X202820827Y-138990602D01*
X202820814Y-138990609D01*
X202689711Y-139078210D01*
X202689707Y-139078213D01*
X202578213Y-139189707D01*
X202578210Y-139189711D01*
X202490609Y-139320814D01*
X202490602Y-139320827D01*
X202430264Y-139466498D01*
X202430261Y-139466510D01*
X202399500Y-139621153D01*
X191300499Y-139621153D01*
X191269738Y-139466510D01*
X191269737Y-139466503D01*
X191269735Y-139466498D01*
X191209397Y-139320827D01*
X191209390Y-139320814D01*
X191121789Y-139189711D01*
X191121786Y-139189707D01*
X191010292Y-139078213D01*
X191010288Y-139078210D01*
X190879185Y-138990609D01*
X190879172Y-138990602D01*
X190733501Y-138930264D01*
X190733489Y-138930261D01*
X190578845Y-138899500D01*
X190578842Y-138899500D01*
X190421158Y-138899500D01*
X190421155Y-138899500D01*
X190266510Y-138930261D01*
X190266498Y-138930264D01*
X190120827Y-138990602D01*
X190120814Y-138990609D01*
X189989711Y-139078210D01*
X189989707Y-139078213D01*
X189878213Y-139189707D01*
X189878210Y-139189711D01*
X189790609Y-139320814D01*
X189790602Y-139320827D01*
X189730264Y-139466498D01*
X189730261Y-139466510D01*
X189699500Y-139621153D01*
X184950499Y-139621153D01*
X184919738Y-139466510D01*
X184919737Y-139466503D01*
X184919735Y-139466498D01*
X184859397Y-139320827D01*
X184859390Y-139320814D01*
X184771789Y-139189711D01*
X184771786Y-139189707D01*
X184660292Y-139078213D01*
X184660288Y-139078210D01*
X184529185Y-138990609D01*
X184529172Y-138990602D01*
X184383501Y-138930264D01*
X184383489Y-138930261D01*
X184228845Y-138899500D01*
X184228842Y-138899500D01*
X184071158Y-138899500D01*
X184071155Y-138899500D01*
X183916510Y-138930261D01*
X183916498Y-138930264D01*
X183770827Y-138990602D01*
X183770814Y-138990609D01*
X183639711Y-139078210D01*
X183639707Y-139078213D01*
X183528213Y-139189707D01*
X183528210Y-139189711D01*
X183440609Y-139320814D01*
X183440602Y-139320827D01*
X183380264Y-139466498D01*
X183380261Y-139466510D01*
X183349500Y-139621153D01*
X178600499Y-139621153D01*
X178569738Y-139466510D01*
X178569737Y-139466503D01*
X178569735Y-139466498D01*
X178509397Y-139320827D01*
X178509390Y-139320814D01*
X178421789Y-139189711D01*
X178421786Y-139189707D01*
X178310292Y-139078213D01*
X178310288Y-139078210D01*
X178179185Y-138990609D01*
X178179172Y-138990602D01*
X178033501Y-138930264D01*
X178033489Y-138930261D01*
X177878845Y-138899500D01*
X177878842Y-138899500D01*
X177721158Y-138899500D01*
X177721155Y-138899500D01*
X177566510Y-138930261D01*
X177566498Y-138930264D01*
X177420827Y-138990602D01*
X177420814Y-138990609D01*
X177289711Y-139078210D01*
X177289707Y-139078213D01*
X177178213Y-139189707D01*
X177178210Y-139189711D01*
X177090609Y-139320814D01*
X177090602Y-139320827D01*
X177030264Y-139466498D01*
X177030261Y-139466510D01*
X176999500Y-139621153D01*
X172250499Y-139621153D01*
X172219738Y-139466510D01*
X172219737Y-139466503D01*
X172219735Y-139466498D01*
X172159397Y-139320827D01*
X172159390Y-139320814D01*
X172071789Y-139189711D01*
X172071786Y-139189707D01*
X171960292Y-139078213D01*
X171960288Y-139078210D01*
X171829185Y-138990609D01*
X171829172Y-138990602D01*
X171683501Y-138930264D01*
X171683489Y-138930261D01*
X171528845Y-138899500D01*
X171528842Y-138899500D01*
X171371158Y-138899500D01*
X171371155Y-138899500D01*
X171216510Y-138930261D01*
X171216498Y-138930264D01*
X171070827Y-138990602D01*
X171070814Y-138990609D01*
X170939711Y-139078210D01*
X170939707Y-139078213D01*
X170828213Y-139189707D01*
X170828210Y-139189711D01*
X170740609Y-139320814D01*
X170740602Y-139320827D01*
X170680264Y-139466498D01*
X170680261Y-139466510D01*
X170649500Y-139621153D01*
X165900499Y-139621153D01*
X165869738Y-139466510D01*
X165869737Y-139466503D01*
X165869735Y-139466498D01*
X165809397Y-139320827D01*
X165809390Y-139320814D01*
X165721789Y-139189711D01*
X165721786Y-139189707D01*
X165610292Y-139078213D01*
X165610288Y-139078210D01*
X165479185Y-138990609D01*
X165479172Y-138990602D01*
X165333501Y-138930264D01*
X165333489Y-138930261D01*
X165178845Y-138899500D01*
X165178842Y-138899500D01*
X165021158Y-138899500D01*
X165021155Y-138899500D01*
X164866510Y-138930261D01*
X164866498Y-138930264D01*
X164720827Y-138990602D01*
X164720814Y-138990609D01*
X164589711Y-139078210D01*
X164589707Y-139078213D01*
X164478213Y-139189707D01*
X164478210Y-139189711D01*
X164390609Y-139320814D01*
X164390602Y-139320827D01*
X164330264Y-139466498D01*
X164330261Y-139466510D01*
X164299500Y-139621153D01*
X149225000Y-139621153D01*
X149225000Y-138314953D01*
X210764500Y-138314953D01*
X210764500Y-138472646D01*
X210795261Y-138627289D01*
X210795264Y-138627301D01*
X210855602Y-138772972D01*
X210855609Y-138772985D01*
X210943210Y-138904088D01*
X210943213Y-138904092D01*
X211054707Y-139015586D01*
X211054711Y-139015589D01*
X211185814Y-139103190D01*
X211185827Y-139103197D01*
X211331498Y-139163535D01*
X211331503Y-139163537D01*
X211463068Y-139189707D01*
X211486153Y-139194299D01*
X211486156Y-139194300D01*
X211486158Y-139194300D01*
X211643844Y-139194300D01*
X211643845Y-139194299D01*
X211798497Y-139163537D01*
X211944179Y-139103194D01*
X212075289Y-139015589D01*
X212186789Y-138904089D01*
X212274394Y-138772979D01*
X212334737Y-138627297D01*
X212365500Y-138472642D01*
X212365500Y-138314958D01*
X212365500Y-138314955D01*
X212365499Y-138314953D01*
X212334738Y-138160310D01*
X212334737Y-138160303D01*
X212334735Y-138160298D01*
X212274397Y-138014627D01*
X212274390Y-138014614D01*
X212186789Y-137883511D01*
X212186786Y-137883507D01*
X212075292Y-137772013D01*
X212075288Y-137772010D01*
X211944185Y-137684409D01*
X211944172Y-137684402D01*
X211798501Y-137624064D01*
X211798489Y-137624061D01*
X211643845Y-137593300D01*
X211643842Y-137593300D01*
X211486158Y-137593300D01*
X211486155Y-137593300D01*
X211331510Y-137624061D01*
X211331498Y-137624064D01*
X211185827Y-137684402D01*
X211185814Y-137684409D01*
X211054711Y-137772010D01*
X211054707Y-137772013D01*
X210943213Y-137883507D01*
X210943210Y-137883511D01*
X210855609Y-138014614D01*
X210855602Y-138014627D01*
X210795264Y-138160298D01*
X210795261Y-138160310D01*
X210764500Y-138314953D01*
X149225000Y-138314953D01*
X149225000Y-136261153D01*
X191564500Y-136261153D01*
X191564500Y-136418846D01*
X191595261Y-136573489D01*
X191595264Y-136573501D01*
X191655602Y-136719172D01*
X191655609Y-136719185D01*
X191743210Y-136850288D01*
X191743213Y-136850292D01*
X191854707Y-136961786D01*
X191854711Y-136961789D01*
X191985814Y-137049390D01*
X191985827Y-137049397D01*
X192131498Y-137109735D01*
X192131503Y-137109737D01*
X192286153Y-137140499D01*
X192286156Y-137140500D01*
X192286158Y-137140500D01*
X192443844Y-137140500D01*
X192443845Y-137140499D01*
X192598497Y-137109737D01*
X192711166Y-137063067D01*
X192744172Y-137049397D01*
X192744172Y-137049396D01*
X192744179Y-137049394D01*
X192875289Y-136961789D01*
X192986789Y-136850289D01*
X193033557Y-136780296D01*
X193087169Y-136735491D01*
X193156494Y-136726784D01*
X193219521Y-136756938D01*
X193239761Y-136780296D01*
X193293210Y-136860288D01*
X193293213Y-136860292D01*
X193404707Y-136971786D01*
X193404711Y-136971789D01*
X193535814Y-137059390D01*
X193535827Y-137059397D01*
X193657363Y-137109738D01*
X193681503Y-137119737D01*
X193827823Y-137148842D01*
X193836153Y-137150499D01*
X193836156Y-137150500D01*
X193836158Y-137150500D01*
X193993844Y-137150500D01*
X193993845Y-137150499D01*
X194148497Y-137119737D01*
X194294179Y-137059394D01*
X194396309Y-136991153D01*
X261649500Y-136991153D01*
X261649500Y-137148846D01*
X261680261Y-137303489D01*
X261680264Y-137303501D01*
X261740602Y-137449172D01*
X261740609Y-137449185D01*
X261828210Y-137580288D01*
X261828213Y-137580292D01*
X261939707Y-137691786D01*
X261939711Y-137691789D01*
X262070814Y-137779390D01*
X262070827Y-137779397D01*
X262216498Y-137839735D01*
X262216503Y-137839737D01*
X262371153Y-137870499D01*
X262371156Y-137870500D01*
X262371158Y-137870500D01*
X262528844Y-137870500D01*
X262528845Y-137870499D01*
X262683497Y-137839737D01*
X262829179Y-137779394D01*
X262960289Y-137691789D01*
X263071789Y-137580289D01*
X263159394Y-137449179D01*
X263219737Y-137303497D01*
X263250500Y-137148842D01*
X263250500Y-136991158D01*
X263250500Y-136991155D01*
X263250499Y-136991153D01*
X263244658Y-136961789D01*
X263219737Y-136836503D01*
X263219735Y-136836498D01*
X263159397Y-136690827D01*
X263159390Y-136690814D01*
X263071789Y-136559711D01*
X263071786Y-136559707D01*
X262960292Y-136448213D01*
X262960288Y-136448210D01*
X262829185Y-136360609D01*
X262829172Y-136360602D01*
X262683501Y-136300264D01*
X262683489Y-136300261D01*
X262528845Y-136269500D01*
X262528842Y-136269500D01*
X262371158Y-136269500D01*
X262371155Y-136269500D01*
X262216510Y-136300261D01*
X262216498Y-136300264D01*
X262070827Y-136360602D01*
X262070814Y-136360609D01*
X261939711Y-136448210D01*
X261939707Y-136448213D01*
X261828213Y-136559707D01*
X261828210Y-136559711D01*
X261740609Y-136690814D01*
X261740602Y-136690827D01*
X261680264Y-136836498D01*
X261680261Y-136836510D01*
X261649500Y-136991153D01*
X194396309Y-136991153D01*
X194425289Y-136971789D01*
X194435292Y-136961786D01*
X194499694Y-136897385D01*
X194536786Y-136860292D01*
X194536789Y-136860289D01*
X194624394Y-136729179D01*
X194684737Y-136583497D01*
X194715500Y-136428842D01*
X194715500Y-136271158D01*
X194715500Y-136271155D01*
X194715499Y-136271153D01*
X194713510Y-136261153D01*
X194684737Y-136116503D01*
X194680593Y-136106498D01*
X194624397Y-135970827D01*
X194624390Y-135970814D01*
X194536789Y-135839711D01*
X194536786Y-135839707D01*
X194425289Y-135728210D01*
X194294185Y-135640609D01*
X194294172Y-135640602D01*
X194271787Y-135631330D01*
X238509500Y-135631330D01*
X238509500Y-135808269D01*
X238544015Y-135981787D01*
X238544018Y-135981799D01*
X238611722Y-136145252D01*
X238611723Y-136145254D01*
X238710022Y-136292368D01*
X238710025Y-136292372D01*
X238835127Y-136417474D01*
X238835131Y-136417477D01*
X238982243Y-136515775D01*
X238982244Y-136515775D01*
X238982245Y-136515776D01*
X238982247Y-136515777D01*
X239121606Y-136573501D01*
X239145705Y-136583483D01*
X239319230Y-136617999D01*
X239319234Y-136618000D01*
X239319235Y-136618000D01*
X242200766Y-136618000D01*
X242200767Y-136617999D01*
X242374295Y-136583483D01*
X242537757Y-136515775D01*
X242684869Y-136417477D01*
X242809977Y-136292369D01*
X242908275Y-136145257D01*
X242975983Y-135981795D01*
X243010500Y-135808265D01*
X243010500Y-135631335D01*
X242975983Y-135457805D01*
X242908275Y-135294343D01*
X242809977Y-135147231D01*
X242809974Y-135147227D01*
X242684872Y-135022125D01*
X242684868Y-135022122D01*
X242537754Y-134923823D01*
X242537752Y-134923822D01*
X242374299Y-134856118D01*
X242374287Y-134856115D01*
X242200769Y-134821600D01*
X242200765Y-134821600D01*
X239319235Y-134821600D01*
X239319230Y-134821600D01*
X239145712Y-134856115D01*
X239145700Y-134856118D01*
X238982247Y-134923822D01*
X238982245Y-134923823D01*
X238835131Y-135022122D01*
X238835127Y-135022125D01*
X238710025Y-135147227D01*
X238710022Y-135147231D01*
X238611723Y-135294345D01*
X238611722Y-135294347D01*
X238544018Y-135457800D01*
X238544015Y-135457812D01*
X238509500Y-135631330D01*
X194271787Y-135631330D01*
X194148501Y-135580264D01*
X194148489Y-135580261D01*
X193993845Y-135549500D01*
X193993842Y-135549500D01*
X193836158Y-135549500D01*
X193836155Y-135549500D01*
X193681510Y-135580261D01*
X193681498Y-135580264D01*
X193535827Y-135640602D01*
X193535814Y-135640609D01*
X193404711Y-135728210D01*
X193404707Y-135728213D01*
X193293213Y-135839707D01*
X193293208Y-135839713D01*
X193246441Y-135909704D01*
X193192828Y-135954509D01*
X193123503Y-135963215D01*
X193060476Y-135933059D01*
X193040238Y-135909702D01*
X192986792Y-135829715D01*
X192986786Y-135829707D01*
X192875292Y-135718213D01*
X192875288Y-135718210D01*
X192744185Y-135630609D01*
X192744172Y-135630602D01*
X192598501Y-135570264D01*
X192598489Y-135570261D01*
X192443845Y-135539500D01*
X192443842Y-135539500D01*
X192286158Y-135539500D01*
X192286155Y-135539500D01*
X192131510Y-135570261D01*
X192131498Y-135570264D01*
X191985827Y-135630602D01*
X191985814Y-135630609D01*
X191854711Y-135718210D01*
X191854707Y-135718213D01*
X191743213Y-135829707D01*
X191743210Y-135829711D01*
X191655609Y-135960814D01*
X191655602Y-135960827D01*
X191595264Y-136106498D01*
X191595261Y-136106510D01*
X191564500Y-136261153D01*
X149225000Y-136261153D01*
X149225000Y-134311902D01*
X157047000Y-134311902D01*
X157047000Y-134548097D01*
X157083946Y-134781368D01*
X157156933Y-135005996D01*
X157230454Y-135150288D01*
X157264157Y-135216433D01*
X157402983Y-135407510D01*
X157569990Y-135574517D01*
X157761067Y-135713343D01*
X157860491Y-135764002D01*
X157971503Y-135820566D01*
X157971505Y-135820566D01*
X157971508Y-135820568D01*
X158091912Y-135859689D01*
X158196131Y-135893553D01*
X158429403Y-135930500D01*
X158429408Y-135930500D01*
X158665597Y-135930500D01*
X158898868Y-135893553D01*
X159123492Y-135820568D01*
X159333933Y-135713343D01*
X159525010Y-135574517D01*
X159692017Y-135407510D01*
X159830843Y-135216433D01*
X159938068Y-135005992D01*
X160011053Y-134781368D01*
X160045931Y-134561153D01*
X263709500Y-134561153D01*
X263709500Y-134718846D01*
X263740261Y-134873489D01*
X263740264Y-134873501D01*
X263800602Y-135019172D01*
X263800609Y-135019185D01*
X263888210Y-135150288D01*
X263888213Y-135150292D01*
X263999707Y-135261786D01*
X263999711Y-135261789D01*
X264130814Y-135349390D01*
X264130827Y-135349397D01*
X264271129Y-135407511D01*
X264276503Y-135409737D01*
X264431153Y-135440499D01*
X264431156Y-135440500D01*
X264431158Y-135440500D01*
X264588844Y-135440500D01*
X264588845Y-135440499D01*
X264743497Y-135409737D01*
X264889179Y-135349394D01*
X265020289Y-135261789D01*
X265131789Y-135150289D01*
X265219394Y-135019179D01*
X265279737Y-134873497D01*
X265310500Y-134718842D01*
X265310500Y-134561158D01*
X265310500Y-134561155D01*
X265310499Y-134561153D01*
X265279738Y-134406510D01*
X265279737Y-134406503D01*
X265240555Y-134311908D01*
X265219397Y-134260827D01*
X265219390Y-134260814D01*
X265131789Y-134129711D01*
X265131786Y-134129707D01*
X265020292Y-134018213D01*
X265020288Y-134018210D01*
X264889185Y-133930609D01*
X264889172Y-133930602D01*
X264743501Y-133870264D01*
X264743489Y-133870261D01*
X264588845Y-133839500D01*
X264588842Y-133839500D01*
X264431158Y-133839500D01*
X264431155Y-133839500D01*
X264276510Y-133870261D01*
X264276498Y-133870264D01*
X264130827Y-133930602D01*
X264130814Y-133930609D01*
X263999711Y-134018210D01*
X263999707Y-134018213D01*
X263888213Y-134129707D01*
X263888210Y-134129711D01*
X263800609Y-134260814D01*
X263800602Y-134260827D01*
X263740264Y-134406498D01*
X263740261Y-134406510D01*
X263709500Y-134561153D01*
X160045931Y-134561153D01*
X160048000Y-134548092D01*
X160048000Y-134311908D01*
X160048000Y-134311902D01*
X160011053Y-134078631D01*
X159943350Y-133870264D01*
X159938068Y-133854008D01*
X159938066Y-133854005D01*
X159938066Y-133854003D01*
X159881502Y-133742991D01*
X159830843Y-133643567D01*
X159692017Y-133452490D01*
X159525010Y-133285483D01*
X159505287Y-133271153D01*
X189699500Y-133271153D01*
X189699500Y-133428846D01*
X189730261Y-133583489D01*
X189730264Y-133583501D01*
X189790602Y-133729172D01*
X189790609Y-133729185D01*
X189878210Y-133860288D01*
X189878213Y-133860292D01*
X189989707Y-133971786D01*
X189989711Y-133971789D01*
X190120814Y-134059390D01*
X190120827Y-134059397D01*
X190266498Y-134119735D01*
X190266503Y-134119737D01*
X190400194Y-134146330D01*
X190421153Y-134150499D01*
X190421156Y-134150500D01*
X190421158Y-134150500D01*
X190578844Y-134150500D01*
X190578845Y-134150499D01*
X190733497Y-134119737D01*
X190879179Y-134059394D01*
X191010289Y-133971789D01*
X191121789Y-133860289D01*
X191209394Y-133729179D01*
X191269737Y-133583497D01*
X191300500Y-133428842D01*
X191300500Y-133271158D01*
X191300500Y-133271155D01*
X191300499Y-133271153D01*
X196049500Y-133271153D01*
X196049500Y-133428846D01*
X196080261Y-133583489D01*
X196080264Y-133583501D01*
X196140602Y-133729172D01*
X196140609Y-133729185D01*
X196228210Y-133860288D01*
X196228213Y-133860292D01*
X196339707Y-133971786D01*
X196339711Y-133971789D01*
X196470814Y-134059390D01*
X196470827Y-134059397D01*
X196616498Y-134119735D01*
X196616503Y-134119737D01*
X196750194Y-134146330D01*
X196771153Y-134150499D01*
X196771156Y-134150500D01*
X196771158Y-134150500D01*
X196928844Y-134150500D01*
X196928845Y-134150499D01*
X197083497Y-134119737D01*
X197229179Y-134059394D01*
X197360289Y-133971789D01*
X197471789Y-133860289D01*
X197559394Y-133729179D01*
X197619737Y-133583497D01*
X197650500Y-133428842D01*
X197650500Y-133271158D01*
X197650500Y-133271155D01*
X197650499Y-133271153D01*
X202399500Y-133271153D01*
X202399500Y-133428846D01*
X202430261Y-133583489D01*
X202430264Y-133583501D01*
X202490602Y-133729172D01*
X202490609Y-133729185D01*
X202578210Y-133860288D01*
X202578213Y-133860292D01*
X202689707Y-133971786D01*
X202689711Y-133971789D01*
X202820814Y-134059390D01*
X202820827Y-134059397D01*
X202966498Y-134119735D01*
X202966503Y-134119737D01*
X203100194Y-134146330D01*
X203121153Y-134150499D01*
X203121156Y-134150500D01*
X203121158Y-134150500D01*
X203278844Y-134150500D01*
X203278845Y-134150499D01*
X203433497Y-134119737D01*
X203579179Y-134059394D01*
X203710289Y-133971789D01*
X203821789Y-133860289D01*
X203909394Y-133729179D01*
X203969737Y-133583497D01*
X204000500Y-133428842D01*
X204000500Y-133271158D01*
X204000500Y-133271155D01*
X204000499Y-133271153D01*
X208749500Y-133271153D01*
X208749500Y-133428846D01*
X208780261Y-133583489D01*
X208780264Y-133583501D01*
X208840602Y-133729172D01*
X208840609Y-133729185D01*
X208928210Y-133860288D01*
X208928213Y-133860292D01*
X209039707Y-133971786D01*
X209039711Y-133971789D01*
X209170814Y-134059390D01*
X209170827Y-134059397D01*
X209316498Y-134119735D01*
X209316503Y-134119737D01*
X209450194Y-134146330D01*
X209471153Y-134150499D01*
X209471156Y-134150500D01*
X209471158Y-134150500D01*
X209628844Y-134150500D01*
X209628845Y-134150499D01*
X209783497Y-134119737D01*
X209929179Y-134059394D01*
X210060289Y-133971789D01*
X210171789Y-133860289D01*
X210259394Y-133729179D01*
X210319737Y-133583497D01*
X210350500Y-133428842D01*
X210350500Y-133271158D01*
X210350500Y-133271155D01*
X210350499Y-133271153D01*
X227799500Y-133271153D01*
X227799500Y-133428846D01*
X227830261Y-133583489D01*
X227830264Y-133583501D01*
X227890602Y-133729172D01*
X227890609Y-133729185D01*
X227978210Y-133860288D01*
X227978213Y-133860292D01*
X228089707Y-133971786D01*
X228089711Y-133971789D01*
X228220814Y-134059390D01*
X228220827Y-134059397D01*
X228366498Y-134119735D01*
X228366503Y-134119737D01*
X228500194Y-134146330D01*
X228521153Y-134150499D01*
X228521156Y-134150500D01*
X228521158Y-134150500D01*
X228678844Y-134150500D01*
X228678845Y-134150499D01*
X228833497Y-134119737D01*
X228979179Y-134059394D01*
X229110289Y-133971789D01*
X229221789Y-133860289D01*
X229309394Y-133729179D01*
X229369737Y-133583497D01*
X229400500Y-133428842D01*
X229400500Y-133271158D01*
X229400500Y-133271155D01*
X229400499Y-133271153D01*
X234149500Y-133271153D01*
X234149500Y-133428846D01*
X234180261Y-133583489D01*
X234180264Y-133583501D01*
X234240602Y-133729172D01*
X234240609Y-133729185D01*
X234328210Y-133860288D01*
X234328213Y-133860292D01*
X234439707Y-133971786D01*
X234439711Y-133971789D01*
X234570814Y-134059390D01*
X234570827Y-134059397D01*
X234716498Y-134119735D01*
X234716503Y-134119737D01*
X234850194Y-134146330D01*
X234871153Y-134150499D01*
X234871156Y-134150500D01*
X234871158Y-134150500D01*
X235028844Y-134150500D01*
X235028845Y-134150499D01*
X235183497Y-134119737D01*
X235329179Y-134059394D01*
X235460289Y-133971789D01*
X235571789Y-133860289D01*
X235659394Y-133729179D01*
X235719737Y-133583497D01*
X235750500Y-133428842D01*
X235750500Y-133271158D01*
X235750500Y-133271155D01*
X235750499Y-133271153D01*
X235719738Y-133116510D01*
X235719737Y-133116503D01*
X235687814Y-133039433D01*
X235659397Y-132970827D01*
X235659390Y-132970814D01*
X235571789Y-132839711D01*
X235571786Y-132839707D01*
X235460292Y-132728213D01*
X235460288Y-132728210D01*
X235329185Y-132640609D01*
X235329172Y-132640602D01*
X235183501Y-132580264D01*
X235183489Y-132580261D01*
X235028845Y-132549500D01*
X235028842Y-132549500D01*
X234871158Y-132549500D01*
X234871155Y-132549500D01*
X234716510Y-132580261D01*
X234716498Y-132580264D01*
X234570827Y-132640602D01*
X234570814Y-132640609D01*
X234439711Y-132728210D01*
X234439707Y-132728213D01*
X234328213Y-132839707D01*
X234328210Y-132839711D01*
X234240609Y-132970814D01*
X234240602Y-132970827D01*
X234180264Y-133116498D01*
X234180261Y-133116510D01*
X234149500Y-133271153D01*
X229400499Y-133271153D01*
X229369738Y-133116510D01*
X229369737Y-133116503D01*
X229337814Y-133039433D01*
X229309397Y-132970827D01*
X229309390Y-132970814D01*
X229221789Y-132839711D01*
X229221786Y-132839707D01*
X229110292Y-132728213D01*
X229110288Y-132728210D01*
X228979185Y-132640609D01*
X228979172Y-132640602D01*
X228833501Y-132580264D01*
X228833489Y-132580261D01*
X228678845Y-132549500D01*
X228678842Y-132549500D01*
X228521158Y-132549500D01*
X228521155Y-132549500D01*
X228366510Y-132580261D01*
X228366498Y-132580264D01*
X228220827Y-132640602D01*
X228220814Y-132640609D01*
X228089711Y-132728210D01*
X228089707Y-132728213D01*
X227978213Y-132839707D01*
X227978210Y-132839711D01*
X227890609Y-132970814D01*
X227890602Y-132970827D01*
X227830264Y-133116498D01*
X227830261Y-133116510D01*
X227799500Y-133271153D01*
X210350499Y-133271153D01*
X210319738Y-133116510D01*
X210319737Y-133116503D01*
X210287814Y-133039433D01*
X210259397Y-132970827D01*
X210259390Y-132970814D01*
X210171789Y-132839711D01*
X210171786Y-132839707D01*
X210060292Y-132728213D01*
X210060288Y-132728210D01*
X209929185Y-132640609D01*
X209929172Y-132640602D01*
X209783501Y-132580264D01*
X209783489Y-132580261D01*
X209628845Y-132549500D01*
X209628842Y-132549500D01*
X209471158Y-132549500D01*
X209471155Y-132549500D01*
X209316510Y-132580261D01*
X209316498Y-132580264D01*
X209170827Y-132640602D01*
X209170814Y-132640609D01*
X209039711Y-132728210D01*
X209039707Y-132728213D01*
X208928213Y-132839707D01*
X208928210Y-132839711D01*
X208840609Y-132970814D01*
X208840602Y-132970827D01*
X208780264Y-133116498D01*
X208780261Y-133116510D01*
X208749500Y-133271153D01*
X204000499Y-133271153D01*
X203969738Y-133116510D01*
X203969737Y-133116503D01*
X203937814Y-133039433D01*
X203909397Y-132970827D01*
X203909390Y-132970814D01*
X203821789Y-132839711D01*
X203821786Y-132839707D01*
X203710292Y-132728213D01*
X203710288Y-132728210D01*
X203579185Y-132640609D01*
X203579172Y-132640602D01*
X203433501Y-132580264D01*
X203433489Y-132580261D01*
X203278845Y-132549500D01*
X203278842Y-132549500D01*
X203121158Y-132549500D01*
X203121155Y-132549500D01*
X202966510Y-132580261D01*
X202966498Y-132580264D01*
X202820827Y-132640602D01*
X202820814Y-132640609D01*
X202689711Y-132728210D01*
X202689707Y-132728213D01*
X202578213Y-132839707D01*
X202578210Y-132839711D01*
X202490609Y-132970814D01*
X202490602Y-132970827D01*
X202430264Y-133116498D01*
X202430261Y-133116510D01*
X202399500Y-133271153D01*
X197650499Y-133271153D01*
X197619738Y-133116510D01*
X197619737Y-133116503D01*
X197587814Y-133039433D01*
X197559397Y-132970827D01*
X197559390Y-132970814D01*
X197471789Y-132839711D01*
X197471786Y-132839707D01*
X197360292Y-132728213D01*
X197360288Y-132728210D01*
X197229185Y-132640609D01*
X197229172Y-132640602D01*
X197083501Y-132580264D01*
X197083489Y-132580261D01*
X196928845Y-132549500D01*
X196928842Y-132549500D01*
X196771158Y-132549500D01*
X196771155Y-132549500D01*
X196616510Y-132580261D01*
X196616498Y-132580264D01*
X196470827Y-132640602D01*
X196470814Y-132640609D01*
X196339711Y-132728210D01*
X196339707Y-132728213D01*
X196228213Y-132839707D01*
X196228210Y-132839711D01*
X196140609Y-132970814D01*
X196140602Y-132970827D01*
X196080264Y-133116498D01*
X196080261Y-133116510D01*
X196049500Y-133271153D01*
X191300499Y-133271153D01*
X191269738Y-133116510D01*
X191269737Y-133116503D01*
X191237814Y-133039433D01*
X191209397Y-132970827D01*
X191209390Y-132970814D01*
X191121789Y-132839711D01*
X191121786Y-132839707D01*
X191010292Y-132728213D01*
X191010288Y-132728210D01*
X190879185Y-132640609D01*
X190879172Y-132640602D01*
X190733501Y-132580264D01*
X190733489Y-132580261D01*
X190578845Y-132549500D01*
X190578842Y-132549500D01*
X190421158Y-132549500D01*
X190421155Y-132549500D01*
X190266510Y-132580261D01*
X190266498Y-132580264D01*
X190120827Y-132640602D01*
X190120814Y-132640609D01*
X189989711Y-132728210D01*
X189989707Y-132728213D01*
X189878213Y-132839707D01*
X189878210Y-132839711D01*
X189790609Y-132970814D01*
X189790602Y-132970827D01*
X189730264Y-133116498D01*
X189730261Y-133116510D01*
X189699500Y-133271153D01*
X159505287Y-133271153D01*
X159333933Y-133146657D01*
X159123496Y-133039433D01*
X158898868Y-132966446D01*
X158665597Y-132929500D01*
X158665592Y-132929500D01*
X158429408Y-132929500D01*
X158429403Y-132929500D01*
X158196131Y-132966446D01*
X157971503Y-133039433D01*
X157761066Y-133146657D01*
X157652050Y-133225862D01*
X157569990Y-133285483D01*
X157569988Y-133285485D01*
X157569987Y-133285485D01*
X157402985Y-133452487D01*
X157402985Y-133452488D01*
X157402983Y-133452490D01*
X157358261Y-133514044D01*
X157264157Y-133643566D01*
X157156933Y-133854003D01*
X157083946Y-134078631D01*
X157047000Y-134311902D01*
X149225000Y-134311902D01*
X149225000Y-130391153D01*
X180109500Y-130391153D01*
X180109500Y-130548846D01*
X180140261Y-130703489D01*
X180140264Y-130703501D01*
X180200602Y-130849172D01*
X180200609Y-130849185D01*
X180288210Y-130980288D01*
X180288213Y-130980292D01*
X180399707Y-131091786D01*
X180399711Y-131091789D01*
X180530814Y-131179390D01*
X180530827Y-131179397D01*
X180632945Y-131221695D01*
X180676503Y-131239737D01*
X180791674Y-131262646D01*
X180831153Y-131270499D01*
X180831156Y-131270500D01*
X180831158Y-131270500D01*
X180988844Y-131270500D01*
X180988845Y-131270499D01*
X181143497Y-131239737D01*
X181289179Y-131179394D01*
X181400588Y-131104953D01*
X210354500Y-131104953D01*
X210354500Y-131262646D01*
X210385261Y-131417289D01*
X210385264Y-131417301D01*
X210445602Y-131562972D01*
X210445609Y-131562985D01*
X210533210Y-131694088D01*
X210533213Y-131694092D01*
X210644707Y-131805586D01*
X210644711Y-131805589D01*
X210775814Y-131893190D01*
X210775827Y-131893197D01*
X210921498Y-131953535D01*
X210921503Y-131953537D01*
X211076153Y-131984299D01*
X211076156Y-131984300D01*
X211076158Y-131984300D01*
X211233844Y-131984300D01*
X211233845Y-131984299D01*
X211388497Y-131953537D01*
X211456303Y-131925451D01*
X238420000Y-131925451D01*
X238420000Y-132174148D01*
X238458905Y-132419785D01*
X238535754Y-132656307D01*
X238535755Y-132656310D01*
X238648665Y-132877904D01*
X238794837Y-133079094D01*
X238794841Y-133079099D01*
X238970700Y-133254958D01*
X238970705Y-133254962D01*
X239012717Y-133285485D01*
X239171899Y-133401137D01*
X239316754Y-133474944D01*
X239393489Y-133514044D01*
X239393492Y-133514045D01*
X239511753Y-133552469D01*
X239630016Y-133590895D01*
X239875651Y-133629800D01*
X239875652Y-133629800D01*
X240124348Y-133629800D01*
X240124349Y-133629800D01*
X240369984Y-133590895D01*
X240606510Y-133514044D01*
X240828101Y-133401137D01*
X241029301Y-133254957D01*
X241205157Y-133079101D01*
X241351337Y-132877901D01*
X241464244Y-132656310D01*
X241541095Y-132419784D01*
X241580000Y-132174149D01*
X241580000Y-131925451D01*
X241541095Y-131679816D01*
X241464244Y-131443290D01*
X241464244Y-131443289D01*
X241425144Y-131366554D01*
X241351337Y-131221699D01*
X241266518Y-131104955D01*
X241205162Y-131020505D01*
X241205158Y-131020500D01*
X241029299Y-130844641D01*
X241029294Y-130844637D01*
X240828104Y-130698465D01*
X240828103Y-130698464D01*
X240828101Y-130698463D01*
X240757109Y-130662290D01*
X240606510Y-130585555D01*
X240606507Y-130585554D01*
X240369985Y-130508705D01*
X240247166Y-130489252D01*
X240124349Y-130469800D01*
X239875651Y-130469800D01*
X239793772Y-130482768D01*
X239630014Y-130508705D01*
X239393492Y-130585554D01*
X239393489Y-130585555D01*
X239171895Y-130698465D01*
X238970705Y-130844637D01*
X238970700Y-130844641D01*
X238794841Y-131020500D01*
X238794837Y-131020505D01*
X238648665Y-131221695D01*
X238535755Y-131443289D01*
X238535754Y-131443292D01*
X238458905Y-131679814D01*
X238420000Y-131925451D01*
X211456303Y-131925451D01*
X211534179Y-131893194D01*
X211534185Y-131893190D01*
X211647498Y-131817477D01*
X211654368Y-131812885D01*
X211665289Y-131805589D01*
X211776789Y-131694089D01*
X211864394Y-131562979D01*
X211924737Y-131417297D01*
X211955500Y-131262642D01*
X211955500Y-131104958D01*
X211955500Y-131104955D01*
X211955499Y-131104953D01*
X211924737Y-130950303D01*
X211882853Y-130849185D01*
X211864397Y-130804627D01*
X211864390Y-130804614D01*
X211776789Y-130673511D01*
X211776786Y-130673507D01*
X211665292Y-130562013D01*
X211665288Y-130562010D01*
X211534185Y-130474409D01*
X211534172Y-130474402D01*
X211388501Y-130414064D01*
X211388489Y-130414061D01*
X211233845Y-130383300D01*
X211233842Y-130383300D01*
X211076158Y-130383300D01*
X211076155Y-130383300D01*
X210921510Y-130414061D01*
X210921498Y-130414064D01*
X210775827Y-130474402D01*
X210775814Y-130474409D01*
X210644711Y-130562010D01*
X210644707Y-130562013D01*
X210533213Y-130673507D01*
X210533210Y-130673511D01*
X210445609Y-130804614D01*
X210445602Y-130804627D01*
X210385264Y-130950298D01*
X210385261Y-130950310D01*
X210354500Y-131104953D01*
X181400588Y-131104953D01*
X181420289Y-131091789D01*
X181420292Y-131091786D01*
X181500894Y-131011185D01*
X181531786Y-130980292D01*
X181531789Y-130980289D01*
X181619394Y-130849179D01*
X181679737Y-130703497D01*
X181710500Y-130548842D01*
X181710500Y-130391158D01*
X181710500Y-130391155D01*
X181710499Y-130391153D01*
X181679738Y-130236510D01*
X181679737Y-130236503D01*
X181679735Y-130236498D01*
X181619397Y-130090827D01*
X181619390Y-130090814D01*
X181531789Y-129959711D01*
X181531786Y-129959707D01*
X181420292Y-129848213D01*
X181420288Y-129848210D01*
X181289185Y-129760609D01*
X181289172Y-129760602D01*
X181143501Y-129700264D01*
X181143489Y-129700261D01*
X180988845Y-129669500D01*
X180988842Y-129669500D01*
X180831158Y-129669500D01*
X180831155Y-129669500D01*
X180676510Y-129700261D01*
X180676498Y-129700264D01*
X180530827Y-129760602D01*
X180530814Y-129760609D01*
X180399711Y-129848210D01*
X180399707Y-129848213D01*
X180288213Y-129959707D01*
X180288210Y-129959711D01*
X180200609Y-130090814D01*
X180200602Y-130090827D01*
X180140264Y-130236498D01*
X180140261Y-130236510D01*
X180109500Y-130391153D01*
X149225000Y-130391153D01*
X149225000Y-128571153D01*
X184979500Y-128571153D01*
X184979500Y-128728846D01*
X185010261Y-128883489D01*
X185010264Y-128883501D01*
X185070602Y-129029172D01*
X185070609Y-129029185D01*
X185158210Y-129160288D01*
X185158213Y-129160292D01*
X185269707Y-129271786D01*
X185269711Y-129271789D01*
X185400814Y-129359390D01*
X185400827Y-129359397D01*
X185546498Y-129419735D01*
X185546503Y-129419737D01*
X185701153Y-129450499D01*
X185701156Y-129450500D01*
X185701158Y-129450500D01*
X185858844Y-129450500D01*
X185858845Y-129450499D01*
X186013497Y-129419737D01*
X186159179Y-129359394D01*
X186290289Y-129271789D01*
X186401789Y-129160289D01*
X186489394Y-129029179D01*
X186549737Y-128883497D01*
X186580500Y-128728842D01*
X186580500Y-128571158D01*
X186580500Y-128571155D01*
X186580499Y-128571153D01*
X212259500Y-128571153D01*
X212259500Y-128728846D01*
X212290261Y-128883489D01*
X212290264Y-128883501D01*
X212350602Y-129029172D01*
X212350609Y-129029185D01*
X212438210Y-129160288D01*
X212438213Y-129160292D01*
X212549707Y-129271786D01*
X212549711Y-129271789D01*
X212680814Y-129359390D01*
X212680827Y-129359397D01*
X212826498Y-129419735D01*
X212826503Y-129419737D01*
X212981153Y-129450499D01*
X212981156Y-129450500D01*
X212981158Y-129450500D01*
X213138844Y-129450500D01*
X213138845Y-129450499D01*
X213293497Y-129419737D01*
X213439179Y-129359394D01*
X213570289Y-129271789D01*
X213681789Y-129160289D01*
X213727984Y-129091153D01*
X223329500Y-129091153D01*
X223329500Y-129248846D01*
X223360261Y-129403489D01*
X223360264Y-129403501D01*
X223420602Y-129549172D01*
X223420609Y-129549185D01*
X223508210Y-129680288D01*
X223508213Y-129680292D01*
X223619707Y-129791786D01*
X223619711Y-129791789D01*
X223750814Y-129879390D01*
X223750827Y-129879397D01*
X223896498Y-129939735D01*
X223896503Y-129939737D01*
X224051153Y-129970499D01*
X224051156Y-129970500D01*
X224051158Y-129970500D01*
X224208844Y-129970500D01*
X224208845Y-129970499D01*
X224363497Y-129939737D01*
X224509179Y-129879394D01*
X224640289Y-129791789D01*
X224751789Y-129680289D01*
X224839394Y-129549179D01*
X224899737Y-129403497D01*
X224930500Y-129248842D01*
X224930500Y-129091158D01*
X224930500Y-129091155D01*
X224930499Y-129091153D01*
X224918172Y-129029181D01*
X224899737Y-128936503D01*
X224877783Y-128883501D01*
X224839397Y-128790827D01*
X224839390Y-128790814D01*
X224751789Y-128659711D01*
X224751786Y-128659707D01*
X224640292Y-128548213D01*
X224640288Y-128548210D01*
X224509185Y-128460609D01*
X224509172Y-128460602D01*
X224410674Y-128419804D01*
X224363501Y-128400264D01*
X224363489Y-128400261D01*
X224208845Y-128369500D01*
X224208842Y-128369500D01*
X224051158Y-128369500D01*
X224051155Y-128369500D01*
X223896510Y-128400261D01*
X223896498Y-128400264D01*
X223750827Y-128460602D01*
X223750814Y-128460609D01*
X223619711Y-128548210D01*
X223619707Y-128548213D01*
X223508213Y-128659707D01*
X223508210Y-128659711D01*
X223420609Y-128790814D01*
X223420602Y-128790827D01*
X223360264Y-128936498D01*
X223360261Y-128936510D01*
X223329500Y-129091153D01*
X213727984Y-129091153D01*
X213769394Y-129029179D01*
X213829737Y-128883497D01*
X213860500Y-128728842D01*
X213860500Y-128571158D01*
X213860500Y-128571155D01*
X213860499Y-128571153D01*
X213855936Y-128548213D01*
X213829737Y-128416503D01*
X213823010Y-128400263D01*
X213769397Y-128270827D01*
X213769390Y-128270814D01*
X213681789Y-128139711D01*
X213681786Y-128139707D01*
X213570292Y-128028213D01*
X213570288Y-128028210D01*
X213439185Y-127940609D01*
X213439172Y-127940602D01*
X213293501Y-127880264D01*
X213293489Y-127880261D01*
X213138845Y-127849500D01*
X213138842Y-127849500D01*
X212981158Y-127849500D01*
X212981155Y-127849500D01*
X212826510Y-127880261D01*
X212826498Y-127880264D01*
X212680827Y-127940602D01*
X212680814Y-127940609D01*
X212549711Y-128028210D01*
X212549707Y-128028213D01*
X212438213Y-128139707D01*
X212438210Y-128139711D01*
X212350609Y-128270814D01*
X212350602Y-128270827D01*
X212290264Y-128416498D01*
X212290261Y-128416510D01*
X212259500Y-128571153D01*
X186580499Y-128571153D01*
X186575936Y-128548213D01*
X186549737Y-128416503D01*
X186543010Y-128400263D01*
X186489397Y-128270827D01*
X186489390Y-128270814D01*
X186401789Y-128139711D01*
X186401786Y-128139707D01*
X186290292Y-128028213D01*
X186290288Y-128028210D01*
X186159185Y-127940609D01*
X186159172Y-127940602D01*
X186013501Y-127880264D01*
X186013489Y-127880261D01*
X185858845Y-127849500D01*
X185858842Y-127849500D01*
X185701158Y-127849500D01*
X185701155Y-127849500D01*
X185546510Y-127880261D01*
X185546498Y-127880264D01*
X185400827Y-127940602D01*
X185400814Y-127940609D01*
X185269711Y-128028210D01*
X185269707Y-128028213D01*
X185158213Y-128139707D01*
X185158210Y-128139711D01*
X185070609Y-128270814D01*
X185070602Y-128270827D01*
X185010264Y-128416498D01*
X185010261Y-128416510D01*
X184979500Y-128571153D01*
X149225000Y-128571153D01*
X149225000Y-124111902D01*
X157047000Y-124111902D01*
X157047000Y-124348097D01*
X157083946Y-124581368D01*
X157156933Y-124805996D01*
X157205086Y-124900500D01*
X157264157Y-125016433D01*
X157402983Y-125207510D01*
X157569990Y-125374517D01*
X157761067Y-125513343D01*
X157834192Y-125550602D01*
X157971503Y-125620566D01*
X157971505Y-125620566D01*
X157971508Y-125620568D01*
X158025814Y-125638213D01*
X158196131Y-125693553D01*
X158429403Y-125730500D01*
X158429408Y-125730500D01*
X158665597Y-125730500D01*
X158898868Y-125693553D01*
X159123492Y-125620568D01*
X159333933Y-125513343D01*
X159525010Y-125374517D01*
X159692017Y-125207510D01*
X159830843Y-125016433D01*
X159907777Y-124865441D01*
X165589500Y-124865441D01*
X165589500Y-125114558D01*
X165589501Y-125114575D01*
X165601736Y-125207512D01*
X165622018Y-125361565D01*
X165648260Y-125459500D01*
X165686498Y-125602207D01*
X165781830Y-125832361D01*
X165781837Y-125832376D01*
X165906400Y-126048126D01*
X166058060Y-126245774D01*
X166058066Y-126245781D01*
X166234218Y-126421933D01*
X166234225Y-126421939D01*
X166431873Y-126573599D01*
X166647623Y-126698162D01*
X166647638Y-126698169D01*
X166746825Y-126739253D01*
X166877793Y-126793502D01*
X167118435Y-126857982D01*
X167365435Y-126890500D01*
X167365442Y-126890500D01*
X167614558Y-126890500D01*
X167614565Y-126890500D01*
X167861565Y-126857982D01*
X168102207Y-126793502D01*
X168332373Y-126698164D01*
X168548127Y-126573599D01*
X168745776Y-126421938D01*
X168921938Y-126245776D01*
X168971525Y-126181153D01*
X191499500Y-126181153D01*
X191499500Y-126338846D01*
X191530261Y-126493489D01*
X191530264Y-126493501D01*
X191590602Y-126639172D01*
X191590609Y-126639185D01*
X191678210Y-126770288D01*
X191678213Y-126770292D01*
X191789707Y-126881786D01*
X191789711Y-126881789D01*
X191920814Y-126969390D01*
X191920827Y-126969397D01*
X192066498Y-127029735D01*
X192066503Y-127029737D01*
X192221153Y-127060499D01*
X192221156Y-127060500D01*
X192221158Y-127060500D01*
X192378844Y-127060500D01*
X192378845Y-127060499D01*
X192533497Y-127029737D01*
X192679179Y-126969394D01*
X192751377Y-126921153D01*
X196049500Y-126921153D01*
X196049500Y-127078846D01*
X196080261Y-127233489D01*
X196080264Y-127233501D01*
X196140602Y-127379172D01*
X196140609Y-127379185D01*
X196228210Y-127510288D01*
X196228213Y-127510292D01*
X196339707Y-127621786D01*
X196339711Y-127621789D01*
X196470814Y-127709390D01*
X196470827Y-127709397D01*
X196616498Y-127769735D01*
X196616503Y-127769737D01*
X196743272Y-127794953D01*
X196771153Y-127800499D01*
X196771156Y-127800500D01*
X196771158Y-127800500D01*
X196928844Y-127800500D01*
X196928845Y-127800499D01*
X197083497Y-127769737D01*
X197229179Y-127709394D01*
X197360289Y-127621789D01*
X197471789Y-127510289D01*
X197559394Y-127379179D01*
X197619737Y-127233497D01*
X197650500Y-127078842D01*
X197650500Y-126921158D01*
X197650500Y-126921155D01*
X197650499Y-126921153D01*
X202399500Y-126921153D01*
X202399500Y-127078846D01*
X202430261Y-127233489D01*
X202430264Y-127233501D01*
X202490602Y-127379172D01*
X202490609Y-127379185D01*
X202578210Y-127510288D01*
X202578213Y-127510292D01*
X202689707Y-127621786D01*
X202689711Y-127621789D01*
X202820814Y-127709390D01*
X202820827Y-127709397D01*
X202966498Y-127769735D01*
X202966503Y-127769737D01*
X203093272Y-127794953D01*
X203121153Y-127800499D01*
X203121156Y-127800500D01*
X203121158Y-127800500D01*
X203278844Y-127800500D01*
X203278845Y-127800499D01*
X203433497Y-127769737D01*
X203579179Y-127709394D01*
X203710289Y-127621789D01*
X203821789Y-127510289D01*
X203909394Y-127379179D01*
X203969737Y-127233497D01*
X204000500Y-127078842D01*
X204000500Y-126921158D01*
X204000500Y-126921155D01*
X204000499Y-126921153D01*
X208749500Y-126921153D01*
X208749500Y-127078846D01*
X208780261Y-127233489D01*
X208780264Y-127233501D01*
X208840602Y-127379172D01*
X208840609Y-127379185D01*
X208928210Y-127510288D01*
X208928213Y-127510292D01*
X209039707Y-127621786D01*
X209039711Y-127621789D01*
X209170814Y-127709390D01*
X209170827Y-127709397D01*
X209316498Y-127769735D01*
X209316503Y-127769737D01*
X209443272Y-127794953D01*
X209471153Y-127800499D01*
X209471156Y-127800500D01*
X209471158Y-127800500D01*
X209628844Y-127800500D01*
X209628845Y-127800499D01*
X209783497Y-127769737D01*
X209929179Y-127709394D01*
X210060289Y-127621789D01*
X210171789Y-127510289D01*
X210259394Y-127379179D01*
X210319737Y-127233497D01*
X210350500Y-127078842D01*
X210350500Y-126921158D01*
X210350500Y-126921155D01*
X210350499Y-126921153D01*
X215099500Y-126921153D01*
X215099500Y-127078846D01*
X215130261Y-127233489D01*
X215130264Y-127233501D01*
X215190602Y-127379172D01*
X215190609Y-127379185D01*
X215278210Y-127510288D01*
X215278213Y-127510292D01*
X215389707Y-127621786D01*
X215389711Y-127621789D01*
X215520814Y-127709390D01*
X215520827Y-127709397D01*
X215666498Y-127769735D01*
X215666503Y-127769737D01*
X215793272Y-127794953D01*
X215821153Y-127800499D01*
X215821156Y-127800500D01*
X215821158Y-127800500D01*
X215978844Y-127800500D01*
X215978845Y-127800499D01*
X216006727Y-127794953D01*
X218094500Y-127794953D01*
X218094500Y-127952646D01*
X218125261Y-128107289D01*
X218125264Y-128107301D01*
X218185602Y-128252972D01*
X218185609Y-128252985D01*
X218273210Y-128384088D01*
X218273213Y-128384092D01*
X218384707Y-128495586D01*
X218384711Y-128495589D01*
X218515814Y-128583190D01*
X218515827Y-128583197D01*
X218661498Y-128643535D01*
X218661503Y-128643537D01*
X218753292Y-128661795D01*
X218816153Y-128674299D01*
X218816156Y-128674300D01*
X218816158Y-128674300D01*
X218973844Y-128674300D01*
X218973845Y-128674299D01*
X219128497Y-128643537D01*
X219274179Y-128583194D01*
X219405289Y-128495589D01*
X219516789Y-128384089D01*
X219565405Y-128311330D01*
X238509500Y-128311330D01*
X238509500Y-128488269D01*
X238544015Y-128661787D01*
X238544018Y-128661799D01*
X238611722Y-128825252D01*
X238611723Y-128825254D01*
X238710022Y-128972368D01*
X238710025Y-128972372D01*
X238835127Y-129097474D01*
X238835131Y-129097477D01*
X238982243Y-129195775D01*
X238982244Y-129195775D01*
X238982245Y-129195776D01*
X238982247Y-129195777D01*
X239110358Y-129248842D01*
X239145705Y-129263483D01*
X239319230Y-129297999D01*
X239319234Y-129298000D01*
X239319235Y-129298000D01*
X242200766Y-129298000D01*
X242200767Y-129297999D01*
X242374295Y-129263483D01*
X242537757Y-129195775D01*
X242684869Y-129097477D01*
X242809977Y-128972369D01*
X242908275Y-128825257D01*
X242975983Y-128661795D01*
X243010500Y-128488265D01*
X243010500Y-128311335D01*
X242975983Y-128137805D01*
X242930588Y-128028211D01*
X242908277Y-127974347D01*
X242908276Y-127974345D01*
X242893774Y-127952642D01*
X242809977Y-127827231D01*
X242809974Y-127827227D01*
X242684872Y-127702125D01*
X242684868Y-127702122D01*
X242537754Y-127603823D01*
X242537752Y-127603822D01*
X242374299Y-127536118D01*
X242374287Y-127536115D01*
X242200769Y-127501600D01*
X242200765Y-127501600D01*
X239319235Y-127501600D01*
X239319230Y-127501600D01*
X239145712Y-127536115D01*
X239145700Y-127536118D01*
X238982247Y-127603822D01*
X238982245Y-127603823D01*
X238835131Y-127702122D01*
X238835127Y-127702125D01*
X238710025Y-127827227D01*
X238710022Y-127827231D01*
X238611723Y-127974345D01*
X238611722Y-127974347D01*
X238544018Y-128137800D01*
X238544015Y-128137812D01*
X238509500Y-128311330D01*
X219565405Y-128311330D01*
X219604394Y-128252979D01*
X219664737Y-128107297D01*
X219695500Y-127952642D01*
X219695500Y-127794958D01*
X219695500Y-127794955D01*
X219695499Y-127794953D01*
X219677034Y-127702123D01*
X219664737Y-127640303D01*
X219657067Y-127621786D01*
X219604397Y-127494627D01*
X219604390Y-127494614D01*
X219516789Y-127363511D01*
X219516786Y-127363507D01*
X219405292Y-127252013D01*
X219405288Y-127252010D01*
X219274185Y-127164409D01*
X219274172Y-127164402D01*
X219128501Y-127104064D01*
X219128489Y-127104061D01*
X218973845Y-127073300D01*
X218973842Y-127073300D01*
X218816158Y-127073300D01*
X218816155Y-127073300D01*
X218661510Y-127104061D01*
X218661498Y-127104064D01*
X218515827Y-127164402D01*
X218515814Y-127164409D01*
X218384711Y-127252010D01*
X218384707Y-127252013D01*
X218273213Y-127363507D01*
X218273210Y-127363511D01*
X218185609Y-127494614D01*
X218185602Y-127494627D01*
X218125264Y-127640298D01*
X218125261Y-127640310D01*
X218094500Y-127794953D01*
X216006727Y-127794953D01*
X216133497Y-127769737D01*
X216279179Y-127709394D01*
X216279186Y-127709388D01*
X216279190Y-127709387D01*
X216314541Y-127685766D01*
X216314545Y-127685764D01*
X216382588Y-127640298D01*
X216410289Y-127621789D01*
X216521789Y-127510289D01*
X216609394Y-127379179D01*
X216669737Y-127233497D01*
X216700500Y-127078842D01*
X216700500Y-126921158D01*
X216700500Y-126921155D01*
X216700499Y-126921153D01*
X221449500Y-126921153D01*
X221449500Y-127078846D01*
X221480261Y-127233489D01*
X221480264Y-127233501D01*
X221540602Y-127379172D01*
X221540609Y-127379185D01*
X221628210Y-127510288D01*
X221628213Y-127510292D01*
X221739707Y-127621786D01*
X221739711Y-127621789D01*
X221870814Y-127709390D01*
X221870827Y-127709397D01*
X222016498Y-127769735D01*
X222016503Y-127769737D01*
X222143272Y-127794953D01*
X222171153Y-127800499D01*
X222171156Y-127800500D01*
X222171158Y-127800500D01*
X222328844Y-127800500D01*
X222328845Y-127800499D01*
X222483497Y-127769737D01*
X222629179Y-127709394D01*
X222760289Y-127621789D01*
X222871789Y-127510289D01*
X222959394Y-127379179D01*
X223019737Y-127233497D01*
X223050500Y-127078842D01*
X223050500Y-126921158D01*
X223050500Y-126921155D01*
X223050499Y-126921153D01*
X227799500Y-126921153D01*
X227799500Y-127078846D01*
X227830261Y-127233489D01*
X227830264Y-127233501D01*
X227890602Y-127379172D01*
X227890609Y-127379185D01*
X227978210Y-127510288D01*
X227978213Y-127510292D01*
X228089707Y-127621786D01*
X228089711Y-127621789D01*
X228220814Y-127709390D01*
X228220827Y-127709397D01*
X228366498Y-127769735D01*
X228366503Y-127769737D01*
X228493272Y-127794953D01*
X228521153Y-127800499D01*
X228521156Y-127800500D01*
X228521158Y-127800500D01*
X228678844Y-127800500D01*
X228678845Y-127800499D01*
X228833497Y-127769737D01*
X228979179Y-127709394D01*
X229110289Y-127621789D01*
X229221789Y-127510289D01*
X229309394Y-127379179D01*
X229369737Y-127233497D01*
X229400500Y-127078842D01*
X229400500Y-126921158D01*
X229400500Y-126921155D01*
X229400499Y-126921153D01*
X234149500Y-126921153D01*
X234149500Y-127078846D01*
X234180261Y-127233489D01*
X234180264Y-127233501D01*
X234240602Y-127379172D01*
X234240609Y-127379185D01*
X234328210Y-127510288D01*
X234328213Y-127510292D01*
X234439707Y-127621786D01*
X234439711Y-127621789D01*
X234570814Y-127709390D01*
X234570827Y-127709397D01*
X234716498Y-127769735D01*
X234716503Y-127769737D01*
X234843272Y-127794953D01*
X234871153Y-127800499D01*
X234871156Y-127800500D01*
X234871158Y-127800500D01*
X235028844Y-127800500D01*
X235028845Y-127800499D01*
X235183497Y-127769737D01*
X235329179Y-127709394D01*
X235460289Y-127621789D01*
X235571789Y-127510289D01*
X235659394Y-127379179D01*
X235719737Y-127233497D01*
X235750500Y-127078842D01*
X235750500Y-126921158D01*
X235750500Y-126921155D01*
X235750499Y-126921153D01*
X253199500Y-126921153D01*
X253199500Y-127078846D01*
X253230261Y-127233489D01*
X253230264Y-127233501D01*
X253290602Y-127379172D01*
X253290609Y-127379185D01*
X253378210Y-127510288D01*
X253378213Y-127510292D01*
X253489707Y-127621786D01*
X253489711Y-127621789D01*
X253620814Y-127709390D01*
X253620827Y-127709397D01*
X253766498Y-127769735D01*
X253766503Y-127769737D01*
X253893272Y-127794953D01*
X253921153Y-127800499D01*
X253921156Y-127800500D01*
X253921158Y-127800500D01*
X254078844Y-127800500D01*
X254078845Y-127800499D01*
X254233497Y-127769737D01*
X254379179Y-127709394D01*
X254510289Y-127621789D01*
X254621789Y-127510289D01*
X254709394Y-127379179D01*
X254769737Y-127233497D01*
X254800500Y-127078842D01*
X254800500Y-126921158D01*
X254800500Y-126921155D01*
X254800499Y-126921153D01*
X259549500Y-126921153D01*
X259549500Y-127078846D01*
X259580261Y-127233489D01*
X259580264Y-127233501D01*
X259640602Y-127379172D01*
X259640609Y-127379185D01*
X259728210Y-127510288D01*
X259728213Y-127510292D01*
X259839707Y-127621786D01*
X259839711Y-127621789D01*
X259970814Y-127709390D01*
X259970827Y-127709397D01*
X260116498Y-127769735D01*
X260116503Y-127769737D01*
X260243272Y-127794953D01*
X260271153Y-127800499D01*
X260271156Y-127800500D01*
X260271158Y-127800500D01*
X260428844Y-127800500D01*
X260428845Y-127800499D01*
X260583497Y-127769737D01*
X260729179Y-127709394D01*
X260860289Y-127621789D01*
X260971789Y-127510289D01*
X261059394Y-127379179D01*
X261119737Y-127233497D01*
X261150500Y-127078842D01*
X261150500Y-126921158D01*
X261150500Y-126921155D01*
X261150499Y-126921153D01*
X265899500Y-126921153D01*
X265899500Y-127078846D01*
X265930261Y-127233489D01*
X265930264Y-127233501D01*
X265990602Y-127379172D01*
X265990609Y-127379185D01*
X266078210Y-127510288D01*
X266078213Y-127510292D01*
X266189707Y-127621786D01*
X266189711Y-127621789D01*
X266320814Y-127709390D01*
X266320827Y-127709397D01*
X266466498Y-127769735D01*
X266466503Y-127769737D01*
X266593272Y-127794953D01*
X266621153Y-127800499D01*
X266621156Y-127800500D01*
X266621158Y-127800500D01*
X266778844Y-127800500D01*
X266778845Y-127800499D01*
X266933497Y-127769737D01*
X267079179Y-127709394D01*
X267210289Y-127621789D01*
X267321789Y-127510289D01*
X267409394Y-127379179D01*
X267469737Y-127233497D01*
X267500500Y-127078842D01*
X267500500Y-126921158D01*
X267500500Y-126921155D01*
X267500499Y-126921153D01*
X267475107Y-126793501D01*
X267469737Y-126766503D01*
X267469735Y-126766498D01*
X267409397Y-126620827D01*
X267409390Y-126620814D01*
X267321789Y-126489711D01*
X267321786Y-126489707D01*
X267210292Y-126378213D01*
X267210288Y-126378210D01*
X267079185Y-126290609D01*
X267079172Y-126290602D01*
X266933501Y-126230264D01*
X266933489Y-126230261D01*
X266778845Y-126199500D01*
X266778842Y-126199500D01*
X266621158Y-126199500D01*
X266621155Y-126199500D01*
X266466510Y-126230261D01*
X266466498Y-126230264D01*
X266320827Y-126290602D01*
X266320814Y-126290609D01*
X266189711Y-126378210D01*
X266189707Y-126378213D01*
X266078213Y-126489707D01*
X266078210Y-126489711D01*
X265990609Y-126620814D01*
X265990602Y-126620827D01*
X265930264Y-126766498D01*
X265930261Y-126766510D01*
X265899500Y-126921153D01*
X261150499Y-126921153D01*
X261125107Y-126793501D01*
X261119737Y-126766503D01*
X261119735Y-126766498D01*
X261059397Y-126620827D01*
X261059390Y-126620814D01*
X260971789Y-126489711D01*
X260971786Y-126489707D01*
X260860292Y-126378213D01*
X260860288Y-126378210D01*
X260729185Y-126290609D01*
X260729172Y-126290602D01*
X260583501Y-126230264D01*
X260583489Y-126230261D01*
X260428845Y-126199500D01*
X260428842Y-126199500D01*
X260271158Y-126199500D01*
X260271155Y-126199500D01*
X260116510Y-126230261D01*
X260116498Y-126230264D01*
X259970827Y-126290602D01*
X259970814Y-126290609D01*
X259839711Y-126378210D01*
X259839707Y-126378213D01*
X259728213Y-126489707D01*
X259728210Y-126489711D01*
X259640609Y-126620814D01*
X259640602Y-126620827D01*
X259580264Y-126766498D01*
X259580261Y-126766510D01*
X259549500Y-126921153D01*
X254800499Y-126921153D01*
X254775107Y-126793501D01*
X254769737Y-126766503D01*
X254769735Y-126766498D01*
X254709397Y-126620827D01*
X254709390Y-126620814D01*
X254621789Y-126489711D01*
X254621786Y-126489707D01*
X254510292Y-126378213D01*
X254510288Y-126378210D01*
X254379185Y-126290609D01*
X254379172Y-126290602D01*
X254233501Y-126230264D01*
X254233489Y-126230261D01*
X254078845Y-126199500D01*
X254078842Y-126199500D01*
X253921158Y-126199500D01*
X253921155Y-126199500D01*
X253766510Y-126230261D01*
X253766498Y-126230264D01*
X253620827Y-126290602D01*
X253620814Y-126290609D01*
X253489711Y-126378210D01*
X253489707Y-126378213D01*
X253378213Y-126489707D01*
X253378210Y-126489711D01*
X253290609Y-126620814D01*
X253290602Y-126620827D01*
X253230264Y-126766498D01*
X253230261Y-126766510D01*
X253199500Y-126921153D01*
X235750499Y-126921153D01*
X235725107Y-126793501D01*
X235719737Y-126766503D01*
X235719735Y-126766498D01*
X235659397Y-126620827D01*
X235659390Y-126620814D01*
X235571789Y-126489711D01*
X235571786Y-126489707D01*
X235460292Y-126378213D01*
X235460288Y-126378210D01*
X235329185Y-126290609D01*
X235329172Y-126290602D01*
X235183501Y-126230264D01*
X235183489Y-126230261D01*
X235028845Y-126199500D01*
X235028842Y-126199500D01*
X234871158Y-126199500D01*
X234871155Y-126199500D01*
X234716510Y-126230261D01*
X234716498Y-126230264D01*
X234570827Y-126290602D01*
X234570814Y-126290609D01*
X234439711Y-126378210D01*
X234439707Y-126378213D01*
X234328213Y-126489707D01*
X234328210Y-126489711D01*
X234240609Y-126620814D01*
X234240602Y-126620827D01*
X234180264Y-126766498D01*
X234180261Y-126766510D01*
X234149500Y-126921153D01*
X229400499Y-126921153D01*
X229375107Y-126793501D01*
X229369737Y-126766503D01*
X229369735Y-126766498D01*
X229309397Y-126620827D01*
X229309390Y-126620814D01*
X229221789Y-126489711D01*
X229221786Y-126489707D01*
X229110292Y-126378213D01*
X229110288Y-126378210D01*
X228979185Y-126290609D01*
X228979172Y-126290602D01*
X228833501Y-126230264D01*
X228833489Y-126230261D01*
X228678845Y-126199500D01*
X228678842Y-126199500D01*
X228521158Y-126199500D01*
X228521155Y-126199500D01*
X228366510Y-126230261D01*
X228366498Y-126230264D01*
X228220827Y-126290602D01*
X228220814Y-126290609D01*
X228089711Y-126378210D01*
X228089707Y-126378213D01*
X227978213Y-126489707D01*
X227978210Y-126489711D01*
X227890609Y-126620814D01*
X227890602Y-126620827D01*
X227830264Y-126766498D01*
X227830261Y-126766510D01*
X227799500Y-126921153D01*
X223050499Y-126921153D01*
X223025107Y-126793501D01*
X223019737Y-126766503D01*
X223019735Y-126766498D01*
X222959397Y-126620827D01*
X222959390Y-126620814D01*
X222871789Y-126489711D01*
X222871786Y-126489707D01*
X222760292Y-126378213D01*
X222760288Y-126378210D01*
X222629185Y-126290609D01*
X222629172Y-126290602D01*
X222483501Y-126230264D01*
X222483489Y-126230261D01*
X222328845Y-126199500D01*
X222328842Y-126199500D01*
X222171158Y-126199500D01*
X222171155Y-126199500D01*
X222016510Y-126230261D01*
X222016498Y-126230264D01*
X221870827Y-126290602D01*
X221870814Y-126290609D01*
X221739711Y-126378210D01*
X221739707Y-126378213D01*
X221628213Y-126489707D01*
X221628210Y-126489711D01*
X221540609Y-126620814D01*
X221540602Y-126620827D01*
X221480264Y-126766498D01*
X221480261Y-126766510D01*
X221449500Y-126921153D01*
X216700499Y-126921153D01*
X216675107Y-126793501D01*
X216669737Y-126766503D01*
X216669735Y-126766498D01*
X216609397Y-126620827D01*
X216609390Y-126620814D01*
X216521789Y-126489711D01*
X216521786Y-126489707D01*
X216410292Y-126378213D01*
X216410288Y-126378210D01*
X216279185Y-126290609D01*
X216279172Y-126290602D01*
X216133501Y-126230264D01*
X216133489Y-126230261D01*
X215978845Y-126199500D01*
X215978842Y-126199500D01*
X215821158Y-126199500D01*
X215821155Y-126199500D01*
X215666510Y-126230261D01*
X215666498Y-126230264D01*
X215520827Y-126290602D01*
X215520814Y-126290609D01*
X215389711Y-126378210D01*
X215389707Y-126378213D01*
X215278213Y-126489707D01*
X215278210Y-126489711D01*
X215190609Y-126620814D01*
X215190602Y-126620827D01*
X215130264Y-126766498D01*
X215130261Y-126766510D01*
X215099500Y-126921153D01*
X210350499Y-126921153D01*
X210325107Y-126793501D01*
X210319737Y-126766503D01*
X210319735Y-126766498D01*
X210259397Y-126620827D01*
X210259390Y-126620814D01*
X210171789Y-126489711D01*
X210171786Y-126489707D01*
X210060292Y-126378213D01*
X210060288Y-126378210D01*
X209929185Y-126290609D01*
X209929172Y-126290602D01*
X209783501Y-126230264D01*
X209783489Y-126230261D01*
X209628845Y-126199500D01*
X209628842Y-126199500D01*
X209471158Y-126199500D01*
X209471155Y-126199500D01*
X209316510Y-126230261D01*
X209316498Y-126230264D01*
X209170827Y-126290602D01*
X209170814Y-126290609D01*
X209039711Y-126378210D01*
X209039707Y-126378213D01*
X208928213Y-126489707D01*
X208928210Y-126489711D01*
X208840609Y-126620814D01*
X208840602Y-126620827D01*
X208780264Y-126766498D01*
X208780261Y-126766510D01*
X208749500Y-126921153D01*
X204000499Y-126921153D01*
X203975107Y-126793501D01*
X203969737Y-126766503D01*
X203969735Y-126766498D01*
X203909397Y-126620827D01*
X203909390Y-126620814D01*
X203821789Y-126489711D01*
X203821786Y-126489707D01*
X203710292Y-126378213D01*
X203710288Y-126378210D01*
X203579185Y-126290609D01*
X203579172Y-126290602D01*
X203433501Y-126230264D01*
X203433489Y-126230261D01*
X203278845Y-126199500D01*
X203278842Y-126199500D01*
X203121158Y-126199500D01*
X203121155Y-126199500D01*
X202966510Y-126230261D01*
X202966498Y-126230264D01*
X202820827Y-126290602D01*
X202820814Y-126290609D01*
X202689711Y-126378210D01*
X202689707Y-126378213D01*
X202578213Y-126489707D01*
X202578210Y-126489711D01*
X202490609Y-126620814D01*
X202490602Y-126620827D01*
X202430264Y-126766498D01*
X202430261Y-126766510D01*
X202399500Y-126921153D01*
X197650499Y-126921153D01*
X197625107Y-126793501D01*
X197619737Y-126766503D01*
X197619735Y-126766498D01*
X197559397Y-126620827D01*
X197559390Y-126620814D01*
X197471789Y-126489711D01*
X197471786Y-126489707D01*
X197360292Y-126378213D01*
X197360288Y-126378210D01*
X197229185Y-126290609D01*
X197229172Y-126290602D01*
X197083501Y-126230264D01*
X197083489Y-126230261D01*
X196928845Y-126199500D01*
X196928842Y-126199500D01*
X196771158Y-126199500D01*
X196771155Y-126199500D01*
X196616510Y-126230261D01*
X196616498Y-126230264D01*
X196470827Y-126290602D01*
X196470814Y-126290609D01*
X196339711Y-126378210D01*
X196339707Y-126378213D01*
X196228213Y-126489707D01*
X196228210Y-126489711D01*
X196140609Y-126620814D01*
X196140602Y-126620827D01*
X196080264Y-126766498D01*
X196080261Y-126766510D01*
X196049500Y-126921153D01*
X192751377Y-126921153D01*
X192810289Y-126881789D01*
X192834096Y-126857982D01*
X192864694Y-126827385D01*
X192921786Y-126770292D01*
X192921789Y-126770289D01*
X193009394Y-126639179D01*
X193069737Y-126493497D01*
X193100500Y-126338842D01*
X193100500Y-126181158D01*
X193100500Y-126181155D01*
X193100499Y-126181153D01*
X193069738Y-126026510D01*
X193069737Y-126026503D01*
X193069735Y-126026498D01*
X193009397Y-125880827D01*
X193009390Y-125880814D01*
X192921789Y-125749711D01*
X192921786Y-125749707D01*
X192810292Y-125638213D01*
X192810288Y-125638210D01*
X192679185Y-125550609D01*
X192679172Y-125550602D01*
X192533501Y-125490264D01*
X192533489Y-125490261D01*
X192378845Y-125459500D01*
X192378842Y-125459500D01*
X192221158Y-125459500D01*
X192221155Y-125459500D01*
X192066510Y-125490261D01*
X192066498Y-125490264D01*
X191920827Y-125550602D01*
X191920814Y-125550609D01*
X191789711Y-125638210D01*
X191789707Y-125638213D01*
X191678213Y-125749707D01*
X191678210Y-125749711D01*
X191590609Y-125880814D01*
X191590602Y-125880827D01*
X191530264Y-126026498D01*
X191530261Y-126026510D01*
X191499500Y-126181153D01*
X168971525Y-126181153D01*
X169073599Y-126048127D01*
X169198164Y-125832373D01*
X169293502Y-125602207D01*
X169357982Y-125361565D01*
X169390500Y-125114565D01*
X169390500Y-124865435D01*
X169357982Y-124618435D01*
X169293502Y-124377793D01*
X169239253Y-124246825D01*
X169198169Y-124147638D01*
X169198162Y-124147623D01*
X169157426Y-124077066D01*
X169125145Y-124021153D01*
X214289500Y-124021153D01*
X214289500Y-124178846D01*
X214320261Y-124333489D01*
X214320264Y-124333501D01*
X214380602Y-124479172D01*
X214380609Y-124479185D01*
X214468210Y-124610288D01*
X214468213Y-124610292D01*
X214579707Y-124721786D01*
X214579711Y-124721789D01*
X214710814Y-124809390D01*
X214710827Y-124809397D01*
X214846090Y-124865424D01*
X214856503Y-124869737D01*
X215011153Y-124900499D01*
X215011156Y-124900500D01*
X215011158Y-124900500D01*
X215168844Y-124900500D01*
X215168845Y-124900499D01*
X215323497Y-124869737D01*
X215469179Y-124809394D01*
X215600289Y-124721789D01*
X215711789Y-124610289D01*
X215799394Y-124479179D01*
X215859737Y-124333497D01*
X215890500Y-124178842D01*
X215890500Y-124021158D01*
X215890500Y-124021155D01*
X215890499Y-124021153D01*
X215872740Y-123931873D01*
X215859737Y-123866503D01*
X215859735Y-123866498D01*
X215799397Y-123720827D01*
X215799390Y-123720814D01*
X215711789Y-123589711D01*
X215711786Y-123589707D01*
X215600292Y-123478213D01*
X215600288Y-123478210D01*
X215469185Y-123390609D01*
X215469172Y-123390602D01*
X215323501Y-123330264D01*
X215323489Y-123330261D01*
X215168845Y-123299500D01*
X215168842Y-123299500D01*
X215011158Y-123299500D01*
X215011155Y-123299500D01*
X214856510Y-123330261D01*
X214856498Y-123330264D01*
X214710827Y-123390602D01*
X214710814Y-123390609D01*
X214579711Y-123478210D01*
X214579707Y-123478213D01*
X214468213Y-123589707D01*
X214468210Y-123589711D01*
X214380609Y-123720814D01*
X214380602Y-123720827D01*
X214320264Y-123866498D01*
X214320261Y-123866510D01*
X214289500Y-124021153D01*
X169125145Y-124021153D01*
X169073599Y-123931873D01*
X168921939Y-123734225D01*
X168921933Y-123734218D01*
X168745781Y-123558066D01*
X168745774Y-123558060D01*
X168548126Y-123406400D01*
X168332376Y-123281837D01*
X168332361Y-123281830D01*
X168102207Y-123186498D01*
X167861561Y-123122017D01*
X167614575Y-123089501D01*
X167614570Y-123089500D01*
X167614565Y-123089500D01*
X167365435Y-123089500D01*
X167365429Y-123089500D01*
X167365424Y-123089501D01*
X167118438Y-123122017D01*
X166877792Y-123186498D01*
X166647638Y-123281830D01*
X166647623Y-123281837D01*
X166431873Y-123406400D01*
X166234225Y-123558060D01*
X166234218Y-123558066D01*
X166058066Y-123734218D01*
X166058060Y-123734225D01*
X165906400Y-123931873D01*
X165781837Y-124147623D01*
X165781830Y-124147638D01*
X165686498Y-124377792D01*
X165622017Y-124618438D01*
X165589501Y-124865424D01*
X165589500Y-124865441D01*
X159907777Y-124865441D01*
X159938068Y-124805992D01*
X160011053Y-124581368D01*
X160027239Y-124479172D01*
X160048000Y-124348097D01*
X160048000Y-124111902D01*
X160011053Y-123878631D01*
X159959777Y-123720821D01*
X159938068Y-123654008D01*
X159938066Y-123654005D01*
X159938066Y-123654003D01*
X159830842Y-123443566D01*
X159803840Y-123406401D01*
X159692017Y-123252490D01*
X159525010Y-123085483D01*
X159333933Y-122946657D01*
X159123496Y-122839433D01*
X158898868Y-122766446D01*
X158665597Y-122729500D01*
X158665592Y-122729500D01*
X158429408Y-122729500D01*
X158429403Y-122729500D01*
X158196131Y-122766446D01*
X157971503Y-122839433D01*
X157761066Y-122946657D01*
X157652050Y-123025862D01*
X157569990Y-123085483D01*
X157569988Y-123085485D01*
X157569987Y-123085485D01*
X157402985Y-123252487D01*
X157402985Y-123252488D01*
X157402983Y-123252490D01*
X157381662Y-123281836D01*
X157264157Y-123443566D01*
X157156933Y-123654003D01*
X157083946Y-123878631D01*
X157047000Y-124111902D01*
X149225000Y-124111902D01*
X149225000Y-122271153D01*
X203439500Y-122271153D01*
X203439500Y-122428846D01*
X203470261Y-122583489D01*
X203470264Y-122583501D01*
X203530602Y-122729172D01*
X203530609Y-122729185D01*
X203618210Y-122860288D01*
X203618213Y-122860292D01*
X203729707Y-122971786D01*
X203729711Y-122971789D01*
X203860814Y-123059390D01*
X203860827Y-123059397D01*
X203933506Y-123089501D01*
X204006503Y-123119737D01*
X204161153Y-123150499D01*
X204161156Y-123150500D01*
X204161158Y-123150500D01*
X204318844Y-123150500D01*
X204318845Y-123150499D01*
X204473497Y-123119737D01*
X204619179Y-123059394D01*
X204750289Y-122971789D01*
X204861789Y-122860289D01*
X204949394Y-122729179D01*
X205009737Y-122583497D01*
X205040500Y-122428842D01*
X205040500Y-122271158D01*
X205040500Y-122271155D01*
X205040499Y-122271153D01*
X205009738Y-122116510D01*
X205009737Y-122116503D01*
X205009735Y-122116498D01*
X204949397Y-121970827D01*
X204949390Y-121970814D01*
X204861789Y-121839711D01*
X204861786Y-121839707D01*
X204750292Y-121728213D01*
X204750288Y-121728210D01*
X204619185Y-121640609D01*
X204619172Y-121640602D01*
X204473501Y-121580264D01*
X204473489Y-121580261D01*
X204318845Y-121549500D01*
X204318842Y-121549500D01*
X204161158Y-121549500D01*
X204161155Y-121549500D01*
X204006510Y-121580261D01*
X204006498Y-121580264D01*
X203860827Y-121640602D01*
X203860814Y-121640609D01*
X203729711Y-121728210D01*
X203729707Y-121728213D01*
X203618213Y-121839707D01*
X203618210Y-121839711D01*
X203530609Y-121970814D01*
X203530602Y-121970827D01*
X203470264Y-122116498D01*
X203470261Y-122116510D01*
X203439500Y-122271153D01*
X149225000Y-122271153D01*
X149225000Y-120571153D01*
X164299500Y-120571153D01*
X164299500Y-120728846D01*
X164330261Y-120883489D01*
X164330264Y-120883501D01*
X164390602Y-121029172D01*
X164390609Y-121029185D01*
X164478210Y-121160288D01*
X164478213Y-121160292D01*
X164589707Y-121271786D01*
X164589711Y-121271789D01*
X164720814Y-121359390D01*
X164720827Y-121359397D01*
X164866498Y-121419735D01*
X164866503Y-121419737D01*
X165000194Y-121446330D01*
X165021153Y-121450499D01*
X165021156Y-121450500D01*
X165021158Y-121450500D01*
X165178844Y-121450500D01*
X165178845Y-121450499D01*
X165333497Y-121419737D01*
X165479179Y-121359394D01*
X165610289Y-121271789D01*
X165721789Y-121160289D01*
X165809394Y-121029179D01*
X165869737Y-120883497D01*
X165900500Y-120728842D01*
X165900500Y-120571158D01*
X165900500Y-120571155D01*
X165900499Y-120571153D01*
X170649500Y-120571153D01*
X170649500Y-120728846D01*
X170680261Y-120883489D01*
X170680264Y-120883501D01*
X170740602Y-121029172D01*
X170740609Y-121029185D01*
X170828210Y-121160288D01*
X170828213Y-121160292D01*
X170939707Y-121271786D01*
X170939711Y-121271789D01*
X171070814Y-121359390D01*
X171070827Y-121359397D01*
X171216498Y-121419735D01*
X171216503Y-121419737D01*
X171350194Y-121446330D01*
X171371153Y-121450499D01*
X171371156Y-121450500D01*
X171371158Y-121450500D01*
X171528844Y-121450500D01*
X171528845Y-121450499D01*
X171683497Y-121419737D01*
X171829179Y-121359394D01*
X171960289Y-121271789D01*
X172071789Y-121160289D01*
X172159394Y-121029179D01*
X172219737Y-120883497D01*
X172250500Y-120728842D01*
X172250500Y-120571158D01*
X172250500Y-120571155D01*
X172250499Y-120571153D01*
X176999500Y-120571153D01*
X176999500Y-120728846D01*
X177030261Y-120883489D01*
X177030264Y-120883501D01*
X177090602Y-121029172D01*
X177090609Y-121029185D01*
X177178210Y-121160288D01*
X177178213Y-121160292D01*
X177289707Y-121271786D01*
X177289711Y-121271789D01*
X177420814Y-121359390D01*
X177420827Y-121359397D01*
X177566498Y-121419735D01*
X177566503Y-121419737D01*
X177700194Y-121446330D01*
X177721153Y-121450499D01*
X177721156Y-121450500D01*
X177721158Y-121450500D01*
X177878844Y-121450500D01*
X177878845Y-121450499D01*
X178033497Y-121419737D01*
X178179179Y-121359394D01*
X178310289Y-121271789D01*
X178421789Y-121160289D01*
X178509394Y-121029179D01*
X178569737Y-120883497D01*
X178600500Y-120728842D01*
X178600500Y-120571158D01*
X178600500Y-120571155D01*
X178600499Y-120571153D01*
X183349500Y-120571153D01*
X183349500Y-120728846D01*
X183380261Y-120883489D01*
X183380264Y-120883501D01*
X183440602Y-121029172D01*
X183440609Y-121029185D01*
X183528210Y-121160288D01*
X183528213Y-121160292D01*
X183639707Y-121271786D01*
X183639711Y-121271789D01*
X183770814Y-121359390D01*
X183770827Y-121359397D01*
X183916498Y-121419735D01*
X183916503Y-121419737D01*
X184050194Y-121446330D01*
X184071153Y-121450499D01*
X184071156Y-121450500D01*
X184071158Y-121450500D01*
X184228844Y-121450500D01*
X184228845Y-121450499D01*
X184383497Y-121419737D01*
X184529179Y-121359394D01*
X184660289Y-121271789D01*
X184771789Y-121160289D01*
X184859394Y-121029179D01*
X184919737Y-120883497D01*
X184950500Y-120728842D01*
X184950500Y-120571158D01*
X184950500Y-120571155D01*
X184950499Y-120571153D01*
X189699500Y-120571153D01*
X189699500Y-120728846D01*
X189730261Y-120883489D01*
X189730264Y-120883501D01*
X189790602Y-121029172D01*
X189790609Y-121029185D01*
X189878210Y-121160288D01*
X189878213Y-121160292D01*
X189989707Y-121271786D01*
X189989711Y-121271789D01*
X190120814Y-121359390D01*
X190120827Y-121359397D01*
X190266498Y-121419735D01*
X190266503Y-121419737D01*
X190400194Y-121446330D01*
X190421153Y-121450499D01*
X190421156Y-121450500D01*
X190421158Y-121450500D01*
X190578844Y-121450500D01*
X190578845Y-121450499D01*
X190733497Y-121419737D01*
X190879179Y-121359394D01*
X191010289Y-121271789D01*
X191121789Y-121160289D01*
X191209394Y-121029179D01*
X191269737Y-120883497D01*
X191300500Y-120728842D01*
X191300500Y-120571158D01*
X191300500Y-120571155D01*
X191300499Y-120571153D01*
X202399500Y-120571153D01*
X202399500Y-120728846D01*
X202430261Y-120883489D01*
X202430264Y-120883501D01*
X202490602Y-121029172D01*
X202490609Y-121029185D01*
X202578210Y-121160288D01*
X202578213Y-121160292D01*
X202689707Y-121271786D01*
X202689711Y-121271789D01*
X202820814Y-121359390D01*
X202820827Y-121359397D01*
X202966498Y-121419735D01*
X202966503Y-121419737D01*
X203100194Y-121446330D01*
X203121153Y-121450499D01*
X203121156Y-121450500D01*
X203121158Y-121450500D01*
X203278844Y-121450500D01*
X203278845Y-121450499D01*
X203433497Y-121419737D01*
X203579179Y-121359394D01*
X203710289Y-121271789D01*
X203821789Y-121160289D01*
X203909394Y-121029179D01*
X203969737Y-120883497D01*
X204000500Y-120728842D01*
X204000500Y-120571158D01*
X204000500Y-120571155D01*
X204000499Y-120571153D01*
X227799500Y-120571153D01*
X227799500Y-120728846D01*
X227830261Y-120883489D01*
X227830264Y-120883501D01*
X227890602Y-121029172D01*
X227890609Y-121029185D01*
X227978210Y-121160288D01*
X227978213Y-121160292D01*
X228089707Y-121271786D01*
X228089711Y-121271789D01*
X228220814Y-121359390D01*
X228220827Y-121359397D01*
X228366498Y-121419735D01*
X228366503Y-121419737D01*
X228500194Y-121446330D01*
X228521153Y-121450499D01*
X228521156Y-121450500D01*
X228521158Y-121450500D01*
X228678844Y-121450500D01*
X228678845Y-121450499D01*
X228833497Y-121419737D01*
X228979179Y-121359394D01*
X229110289Y-121271789D01*
X229221789Y-121160289D01*
X229309394Y-121029179D01*
X229369737Y-120883497D01*
X229400500Y-120728842D01*
X229400500Y-120571158D01*
X229400500Y-120571155D01*
X229400499Y-120571153D01*
X234149500Y-120571153D01*
X234149500Y-120728846D01*
X234180261Y-120883489D01*
X234180264Y-120883501D01*
X234240602Y-121029172D01*
X234240609Y-121029185D01*
X234328210Y-121160288D01*
X234328213Y-121160292D01*
X234439707Y-121271786D01*
X234439711Y-121271789D01*
X234570814Y-121359390D01*
X234570827Y-121359397D01*
X234716498Y-121419735D01*
X234716503Y-121419737D01*
X234850194Y-121446330D01*
X234871153Y-121450499D01*
X234871156Y-121450500D01*
X234871158Y-121450500D01*
X235028844Y-121450500D01*
X235028845Y-121450499D01*
X235183497Y-121419737D01*
X235329179Y-121359394D01*
X235460289Y-121271789D01*
X235571789Y-121160289D01*
X235659394Y-121029179D01*
X235719737Y-120883497D01*
X235750500Y-120728842D01*
X235750500Y-120571158D01*
X235750500Y-120571155D01*
X235750499Y-120571153D01*
X253199500Y-120571153D01*
X253199500Y-120728846D01*
X253230261Y-120883489D01*
X253230264Y-120883501D01*
X253290602Y-121029172D01*
X253290609Y-121029185D01*
X253378210Y-121160288D01*
X253378213Y-121160292D01*
X253489707Y-121271786D01*
X253489711Y-121271789D01*
X253620814Y-121359390D01*
X253620827Y-121359397D01*
X253766498Y-121419735D01*
X253766503Y-121419737D01*
X253900194Y-121446330D01*
X253921153Y-121450499D01*
X253921156Y-121450500D01*
X253921158Y-121450500D01*
X254078844Y-121450500D01*
X254078845Y-121450499D01*
X254233497Y-121419737D01*
X254379179Y-121359394D01*
X254510289Y-121271789D01*
X254621789Y-121160289D01*
X254709394Y-121029179D01*
X254769737Y-120883497D01*
X254800500Y-120728842D01*
X254800500Y-120571158D01*
X254800500Y-120571155D01*
X254800499Y-120571153D01*
X259549500Y-120571153D01*
X259549500Y-120728846D01*
X259580261Y-120883489D01*
X259580264Y-120883501D01*
X259640602Y-121029172D01*
X259640609Y-121029185D01*
X259728210Y-121160288D01*
X259728213Y-121160292D01*
X259839707Y-121271786D01*
X259839711Y-121271789D01*
X259970814Y-121359390D01*
X259970827Y-121359397D01*
X260116498Y-121419735D01*
X260116503Y-121419737D01*
X260250194Y-121446330D01*
X260271153Y-121450499D01*
X260271156Y-121450500D01*
X260271158Y-121450500D01*
X260428844Y-121450500D01*
X260428845Y-121450499D01*
X260583497Y-121419737D01*
X260729179Y-121359394D01*
X260860289Y-121271789D01*
X260971789Y-121160289D01*
X261059394Y-121029179D01*
X261119737Y-120883497D01*
X261150500Y-120728842D01*
X261150500Y-120571158D01*
X261150500Y-120571155D01*
X261150499Y-120571153D01*
X265899500Y-120571153D01*
X265899500Y-120728846D01*
X265930261Y-120883489D01*
X265930264Y-120883501D01*
X265990602Y-121029172D01*
X265990609Y-121029185D01*
X266078210Y-121160288D01*
X266078213Y-121160292D01*
X266189707Y-121271786D01*
X266189711Y-121271789D01*
X266320814Y-121359390D01*
X266320827Y-121359397D01*
X266466498Y-121419735D01*
X266466503Y-121419737D01*
X266600194Y-121446330D01*
X266621153Y-121450499D01*
X266621156Y-121450500D01*
X266621158Y-121450500D01*
X266778844Y-121450500D01*
X266778845Y-121450499D01*
X266933497Y-121419737D01*
X267079179Y-121359394D01*
X267210289Y-121271789D01*
X267321789Y-121160289D01*
X267409394Y-121029179D01*
X267469737Y-120883497D01*
X267500500Y-120728842D01*
X267500500Y-120571158D01*
X267500500Y-120571155D01*
X267500499Y-120571153D01*
X267494250Y-120539737D01*
X267469737Y-120416503D01*
X267413316Y-120280289D01*
X267409397Y-120270827D01*
X267409390Y-120270814D01*
X267321789Y-120139711D01*
X267321786Y-120139707D01*
X267210292Y-120028213D01*
X267210288Y-120028210D01*
X267079185Y-119940609D01*
X267079172Y-119940602D01*
X266933501Y-119880264D01*
X266933489Y-119880261D01*
X266778845Y-119849500D01*
X266778842Y-119849500D01*
X266621158Y-119849500D01*
X266621155Y-119849500D01*
X266466510Y-119880261D01*
X266466498Y-119880264D01*
X266320827Y-119940602D01*
X266320814Y-119940609D01*
X266189711Y-120028210D01*
X266189707Y-120028213D01*
X266078213Y-120139707D01*
X266078210Y-120139711D01*
X265990609Y-120270814D01*
X265990602Y-120270827D01*
X265930264Y-120416498D01*
X265930261Y-120416510D01*
X265899500Y-120571153D01*
X261150499Y-120571153D01*
X261144250Y-120539737D01*
X261119737Y-120416503D01*
X261063316Y-120280289D01*
X261059397Y-120270827D01*
X261059390Y-120270814D01*
X260971789Y-120139711D01*
X260971786Y-120139707D01*
X260860292Y-120028213D01*
X260860288Y-120028210D01*
X260729185Y-119940609D01*
X260729172Y-119940602D01*
X260583501Y-119880264D01*
X260583489Y-119880261D01*
X260428845Y-119849500D01*
X260428842Y-119849500D01*
X260271158Y-119849500D01*
X260271155Y-119849500D01*
X260116510Y-119880261D01*
X260116498Y-119880264D01*
X259970827Y-119940602D01*
X259970814Y-119940609D01*
X259839711Y-120028210D01*
X259839707Y-120028213D01*
X259728213Y-120139707D01*
X259728210Y-120139711D01*
X259640609Y-120270814D01*
X259640602Y-120270827D01*
X259580264Y-120416498D01*
X259580261Y-120416510D01*
X259549500Y-120571153D01*
X254800499Y-120571153D01*
X254794250Y-120539737D01*
X254769737Y-120416503D01*
X254713316Y-120280289D01*
X254709397Y-120270827D01*
X254709390Y-120270814D01*
X254621789Y-120139711D01*
X254621786Y-120139707D01*
X254510292Y-120028213D01*
X254510288Y-120028210D01*
X254379185Y-119940609D01*
X254379172Y-119940602D01*
X254233501Y-119880264D01*
X254233489Y-119880261D01*
X254078845Y-119849500D01*
X254078842Y-119849500D01*
X253921158Y-119849500D01*
X253921155Y-119849500D01*
X253766510Y-119880261D01*
X253766498Y-119880264D01*
X253620827Y-119940602D01*
X253620814Y-119940609D01*
X253489711Y-120028210D01*
X253489707Y-120028213D01*
X253378213Y-120139707D01*
X253378210Y-120139711D01*
X253290609Y-120270814D01*
X253290602Y-120270827D01*
X253230264Y-120416498D01*
X253230261Y-120416510D01*
X253199500Y-120571153D01*
X235750499Y-120571153D01*
X235744250Y-120539737D01*
X235719737Y-120416503D01*
X235663316Y-120280289D01*
X235659397Y-120270827D01*
X235659390Y-120270814D01*
X235571789Y-120139711D01*
X235571786Y-120139707D01*
X235460292Y-120028213D01*
X235460288Y-120028210D01*
X235329185Y-119940609D01*
X235329172Y-119940602D01*
X235183501Y-119880264D01*
X235183489Y-119880261D01*
X235028845Y-119849500D01*
X235028842Y-119849500D01*
X234871158Y-119849500D01*
X234871155Y-119849500D01*
X234716510Y-119880261D01*
X234716498Y-119880264D01*
X234570827Y-119940602D01*
X234570814Y-119940609D01*
X234439711Y-120028210D01*
X234439707Y-120028213D01*
X234328213Y-120139707D01*
X234328210Y-120139711D01*
X234240609Y-120270814D01*
X234240602Y-120270827D01*
X234180264Y-120416498D01*
X234180261Y-120416510D01*
X234149500Y-120571153D01*
X229400499Y-120571153D01*
X229394250Y-120539737D01*
X229369737Y-120416503D01*
X229313316Y-120280289D01*
X229309397Y-120270827D01*
X229309390Y-120270814D01*
X229221789Y-120139711D01*
X229221786Y-120139707D01*
X229110292Y-120028213D01*
X229110288Y-120028210D01*
X228979185Y-119940609D01*
X228979172Y-119940602D01*
X228833501Y-119880264D01*
X228833489Y-119880261D01*
X228678845Y-119849500D01*
X228678842Y-119849500D01*
X228521158Y-119849500D01*
X228521155Y-119849500D01*
X228366510Y-119880261D01*
X228366498Y-119880264D01*
X228220827Y-119940602D01*
X228220814Y-119940609D01*
X228089711Y-120028210D01*
X228089707Y-120028213D01*
X227978213Y-120139707D01*
X227978210Y-120139711D01*
X227890609Y-120270814D01*
X227890602Y-120270827D01*
X227830264Y-120416498D01*
X227830261Y-120416510D01*
X227799500Y-120571153D01*
X204000499Y-120571153D01*
X203994250Y-120539737D01*
X203969737Y-120416503D01*
X203913316Y-120280289D01*
X203909397Y-120270827D01*
X203909390Y-120270814D01*
X203821789Y-120139711D01*
X203821786Y-120139707D01*
X203710292Y-120028213D01*
X203710288Y-120028210D01*
X203579185Y-119940609D01*
X203579172Y-119940602D01*
X203433501Y-119880264D01*
X203433489Y-119880261D01*
X203278845Y-119849500D01*
X203278842Y-119849500D01*
X203121158Y-119849500D01*
X203121155Y-119849500D01*
X202966510Y-119880261D01*
X202966498Y-119880264D01*
X202820827Y-119940602D01*
X202820814Y-119940609D01*
X202689711Y-120028210D01*
X202689707Y-120028213D01*
X202578213Y-120139707D01*
X202578210Y-120139711D01*
X202490609Y-120270814D01*
X202490602Y-120270827D01*
X202430264Y-120416498D01*
X202430261Y-120416510D01*
X202399500Y-120571153D01*
X191300499Y-120571153D01*
X191294250Y-120539737D01*
X191269737Y-120416503D01*
X191213316Y-120280289D01*
X191209397Y-120270827D01*
X191209390Y-120270814D01*
X191121789Y-120139711D01*
X191121786Y-120139707D01*
X191010292Y-120028213D01*
X191010288Y-120028210D01*
X190879185Y-119940609D01*
X190879172Y-119940602D01*
X190733501Y-119880264D01*
X190733489Y-119880261D01*
X190578845Y-119849500D01*
X190578842Y-119849500D01*
X190421158Y-119849500D01*
X190421155Y-119849500D01*
X190266510Y-119880261D01*
X190266498Y-119880264D01*
X190120827Y-119940602D01*
X190120814Y-119940609D01*
X189989711Y-120028210D01*
X189989707Y-120028213D01*
X189878213Y-120139707D01*
X189878210Y-120139711D01*
X189790609Y-120270814D01*
X189790602Y-120270827D01*
X189730264Y-120416498D01*
X189730261Y-120416510D01*
X189699500Y-120571153D01*
X184950499Y-120571153D01*
X184944250Y-120539737D01*
X184919737Y-120416503D01*
X184863316Y-120280289D01*
X184859397Y-120270827D01*
X184859390Y-120270814D01*
X184771789Y-120139711D01*
X184771786Y-120139707D01*
X184660292Y-120028213D01*
X184660288Y-120028210D01*
X184529185Y-119940609D01*
X184529172Y-119940602D01*
X184383501Y-119880264D01*
X184383489Y-119880261D01*
X184228845Y-119849500D01*
X184228842Y-119849500D01*
X184071158Y-119849500D01*
X184071155Y-119849500D01*
X183916510Y-119880261D01*
X183916498Y-119880264D01*
X183770827Y-119940602D01*
X183770814Y-119940609D01*
X183639711Y-120028210D01*
X183639707Y-120028213D01*
X183528213Y-120139707D01*
X183528210Y-120139711D01*
X183440609Y-120270814D01*
X183440602Y-120270827D01*
X183380264Y-120416498D01*
X183380261Y-120416510D01*
X183349500Y-120571153D01*
X178600499Y-120571153D01*
X178594250Y-120539737D01*
X178569737Y-120416503D01*
X178513316Y-120280289D01*
X178509397Y-120270827D01*
X178509390Y-120270814D01*
X178421789Y-120139711D01*
X178421786Y-120139707D01*
X178310292Y-120028213D01*
X178310288Y-120028210D01*
X178179185Y-119940609D01*
X178179172Y-119940602D01*
X178033501Y-119880264D01*
X178033489Y-119880261D01*
X177878845Y-119849500D01*
X177878842Y-119849500D01*
X177721158Y-119849500D01*
X177721155Y-119849500D01*
X177566510Y-119880261D01*
X177566498Y-119880264D01*
X177420827Y-119940602D01*
X177420814Y-119940609D01*
X177289711Y-120028210D01*
X177289707Y-120028213D01*
X177178213Y-120139707D01*
X177178210Y-120139711D01*
X177090609Y-120270814D01*
X177090602Y-120270827D01*
X177030264Y-120416498D01*
X177030261Y-120416510D01*
X176999500Y-120571153D01*
X172250499Y-120571153D01*
X172244250Y-120539737D01*
X172219737Y-120416503D01*
X172163316Y-120280289D01*
X172159397Y-120270827D01*
X172159390Y-120270814D01*
X172071789Y-120139711D01*
X172071786Y-120139707D01*
X171960292Y-120028213D01*
X171960288Y-120028210D01*
X171829185Y-119940609D01*
X171829172Y-119940602D01*
X171683501Y-119880264D01*
X171683489Y-119880261D01*
X171528845Y-119849500D01*
X171528842Y-119849500D01*
X171371158Y-119849500D01*
X171371155Y-119849500D01*
X171216510Y-119880261D01*
X171216498Y-119880264D01*
X171070827Y-119940602D01*
X171070814Y-119940609D01*
X170939711Y-120028210D01*
X170939707Y-120028213D01*
X170828213Y-120139707D01*
X170828210Y-120139711D01*
X170740609Y-120270814D01*
X170740602Y-120270827D01*
X170680264Y-120416498D01*
X170680261Y-120416510D01*
X170649500Y-120571153D01*
X165900499Y-120571153D01*
X165894250Y-120539737D01*
X165869737Y-120416503D01*
X165813316Y-120280289D01*
X165809397Y-120270827D01*
X165809390Y-120270814D01*
X165721789Y-120139711D01*
X165721786Y-120139707D01*
X165610292Y-120028213D01*
X165610288Y-120028210D01*
X165479185Y-119940609D01*
X165479172Y-119940602D01*
X165333501Y-119880264D01*
X165333489Y-119880261D01*
X165178845Y-119849500D01*
X165178842Y-119849500D01*
X165021158Y-119849500D01*
X165021155Y-119849500D01*
X164866510Y-119880261D01*
X164866498Y-119880264D01*
X164720827Y-119940602D01*
X164720814Y-119940609D01*
X164589711Y-120028210D01*
X164589707Y-120028213D01*
X164478213Y-120139707D01*
X164478210Y-120139711D01*
X164390609Y-120270814D01*
X164390602Y-120270827D01*
X164330264Y-120416498D01*
X164330261Y-120416510D01*
X164299500Y-120571153D01*
X149225000Y-120571153D01*
X149225000Y-118991153D01*
X152107500Y-118991153D01*
X152107500Y-119148846D01*
X152138261Y-119303489D01*
X152138264Y-119303501D01*
X152198602Y-119449172D01*
X152198609Y-119449185D01*
X152286210Y-119580288D01*
X152286213Y-119580292D01*
X152397707Y-119691786D01*
X152397711Y-119691789D01*
X152528814Y-119779390D01*
X152528827Y-119779397D01*
X152674498Y-119839735D01*
X152674503Y-119839737D01*
X152789302Y-119862572D01*
X152829153Y-119870499D01*
X152829156Y-119870500D01*
X152829158Y-119870500D01*
X152986844Y-119870500D01*
X152986845Y-119870499D01*
X153141497Y-119839737D01*
X153254166Y-119793067D01*
X153287172Y-119779397D01*
X153287172Y-119779396D01*
X153287179Y-119779394D01*
X153418289Y-119691789D01*
X153529789Y-119580289D01*
X153617394Y-119449179D01*
X153677737Y-119303497D01*
X153708500Y-119148842D01*
X153708500Y-119001153D01*
X156859500Y-119001153D01*
X156859500Y-119158846D01*
X156890261Y-119313489D01*
X156890264Y-119313501D01*
X156950602Y-119459172D01*
X156950609Y-119459185D01*
X157038210Y-119590288D01*
X157038213Y-119590292D01*
X157149707Y-119701786D01*
X157149711Y-119701789D01*
X157280814Y-119789390D01*
X157280827Y-119789397D01*
X157402363Y-119839738D01*
X157426503Y-119849737D01*
X157579967Y-119880263D01*
X157581153Y-119880499D01*
X157581156Y-119880500D01*
X157581158Y-119880500D01*
X157738844Y-119880500D01*
X157738845Y-119880499D01*
X157893497Y-119849737D01*
X158039179Y-119789394D01*
X158170289Y-119701789D01*
X158180925Y-119691153D01*
X216179500Y-119691153D01*
X216179500Y-119848846D01*
X216210261Y-120003489D01*
X216210264Y-120003501D01*
X216270602Y-120149172D01*
X216270609Y-120149185D01*
X216358210Y-120280288D01*
X216358213Y-120280292D01*
X216469707Y-120391786D01*
X216469711Y-120391789D01*
X216600814Y-120479390D01*
X216600827Y-120479397D01*
X216746498Y-120539735D01*
X216746503Y-120539737D01*
X216901153Y-120570499D01*
X216901156Y-120570500D01*
X216901158Y-120570500D01*
X217058844Y-120570500D01*
X217058845Y-120570499D01*
X217213497Y-120539737D01*
X217359179Y-120479394D01*
X217359186Y-120479388D01*
X217359190Y-120479387D01*
X217385262Y-120461966D01*
X217385266Y-120461964D01*
X217453309Y-120416498D01*
X217490289Y-120391789D01*
X217601789Y-120280289D01*
X217689394Y-120149179D01*
X217749737Y-120003497D01*
X217780500Y-119848842D01*
X217780500Y-119691158D01*
X217780500Y-119691155D01*
X217780499Y-119691153D01*
X217760436Y-119590289D01*
X217749737Y-119536503D01*
X217749735Y-119536498D01*
X217689397Y-119390827D01*
X217689390Y-119390814D01*
X217604878Y-119264334D01*
X217604877Y-119264332D01*
X217604876Y-119264331D01*
X217601788Y-119259709D01*
X217543609Y-119201530D01*
X238509500Y-119201530D01*
X238509500Y-119378469D01*
X238544015Y-119551987D01*
X238544018Y-119551999D01*
X238611722Y-119715452D01*
X238611723Y-119715454D01*
X238710022Y-119862568D01*
X238710025Y-119862572D01*
X238835127Y-119987674D01*
X238835131Y-119987677D01*
X238982243Y-120085975D01*
X238982244Y-120085975D01*
X238982245Y-120085976D01*
X238982247Y-120085977D01*
X239134814Y-120149172D01*
X239145705Y-120153683D01*
X239319230Y-120188199D01*
X239319234Y-120188200D01*
X239319235Y-120188200D01*
X242200766Y-120188200D01*
X242200767Y-120188199D01*
X242374295Y-120153683D01*
X242537757Y-120085975D01*
X242684869Y-119987677D01*
X242809977Y-119862569D01*
X242908275Y-119715457D01*
X242975983Y-119551995D01*
X243010500Y-119378465D01*
X243010500Y-119201535D01*
X242975983Y-119028005D01*
X242964863Y-119001158D01*
X242908277Y-118864547D01*
X242908276Y-118864545D01*
X242896225Y-118846510D01*
X242809977Y-118717431D01*
X242809974Y-118717427D01*
X242684872Y-118592325D01*
X242684868Y-118592322D01*
X242537754Y-118494023D01*
X242537752Y-118494022D01*
X242374299Y-118426318D01*
X242374287Y-118426315D01*
X242200769Y-118391800D01*
X242200765Y-118391800D01*
X239319235Y-118391800D01*
X239319230Y-118391800D01*
X239145712Y-118426315D01*
X239145700Y-118426318D01*
X238982247Y-118494022D01*
X238982245Y-118494023D01*
X238835131Y-118592322D01*
X238835127Y-118592325D01*
X238710025Y-118717427D01*
X238710022Y-118717431D01*
X238611723Y-118864545D01*
X238611722Y-118864547D01*
X238544018Y-119028000D01*
X238544015Y-119028012D01*
X238509500Y-119201530D01*
X217543609Y-119201530D01*
X217490292Y-119148213D01*
X217490288Y-119148210D01*
X217359185Y-119060609D01*
X217359172Y-119060602D01*
X217213501Y-119000264D01*
X217213489Y-119000261D01*
X217058845Y-118969500D01*
X217058842Y-118969500D01*
X216901158Y-118969500D01*
X216901155Y-118969500D01*
X216746510Y-119000261D01*
X216746498Y-119000264D01*
X216600827Y-119060602D01*
X216600814Y-119060609D01*
X216469711Y-119148210D01*
X216469707Y-119148213D01*
X216358213Y-119259707D01*
X216358210Y-119259711D01*
X216270609Y-119390814D01*
X216270602Y-119390827D01*
X216210264Y-119536498D01*
X216210261Y-119536510D01*
X216179500Y-119691153D01*
X158180925Y-119691153D01*
X158281789Y-119590289D01*
X158369394Y-119459179D01*
X158429737Y-119313497D01*
X158460500Y-119158842D01*
X158460500Y-119001158D01*
X158460500Y-119001155D01*
X158460499Y-119001153D01*
X158450893Y-118952862D01*
X158429737Y-118846503D01*
X158384847Y-118738127D01*
X158369397Y-118700827D01*
X158369390Y-118700814D01*
X158281789Y-118569711D01*
X158281786Y-118569707D01*
X158170292Y-118458213D01*
X158170288Y-118458210D01*
X158039185Y-118370609D01*
X158039172Y-118370602D01*
X157893501Y-118310264D01*
X157893489Y-118310261D01*
X157738845Y-118279500D01*
X157738842Y-118279500D01*
X157581158Y-118279500D01*
X157581155Y-118279500D01*
X157426510Y-118310261D01*
X157426498Y-118310264D01*
X157280827Y-118370602D01*
X157280814Y-118370609D01*
X157149711Y-118458210D01*
X157149707Y-118458213D01*
X157038213Y-118569707D01*
X157038210Y-118569711D01*
X156950609Y-118700814D01*
X156950602Y-118700827D01*
X156890264Y-118846498D01*
X156890261Y-118846510D01*
X156859500Y-119001153D01*
X153708500Y-119001153D01*
X153708500Y-118991158D01*
X153708500Y-118991155D01*
X153708499Y-118991153D01*
X153683315Y-118864545D01*
X153677737Y-118836503D01*
X153636989Y-118738127D01*
X153617397Y-118690827D01*
X153617390Y-118690814D01*
X153529789Y-118559711D01*
X153529786Y-118559707D01*
X153418292Y-118448213D01*
X153418288Y-118448210D01*
X153287185Y-118360609D01*
X153287172Y-118360602D01*
X153141501Y-118300264D01*
X153141489Y-118300261D01*
X152986845Y-118269500D01*
X152986842Y-118269500D01*
X152829158Y-118269500D01*
X152829155Y-118269500D01*
X152674510Y-118300261D01*
X152674498Y-118300264D01*
X152528827Y-118360602D01*
X152528814Y-118360609D01*
X152397711Y-118448210D01*
X152397707Y-118448213D01*
X152286213Y-118559707D01*
X152286210Y-118559711D01*
X152198609Y-118690814D01*
X152198602Y-118690827D01*
X152138264Y-118836498D01*
X152138261Y-118836510D01*
X152107500Y-118991153D01*
X149225000Y-118991153D01*
X149225000Y-117555441D01*
X179229500Y-117555441D01*
X179229500Y-117804558D01*
X179229501Y-117804575D01*
X179255689Y-118003497D01*
X179262018Y-118051565D01*
X179311544Y-118236398D01*
X179326498Y-118292207D01*
X179421830Y-118522361D01*
X179421837Y-118522376D01*
X179546400Y-118738126D01*
X179698060Y-118935774D01*
X179698066Y-118935781D01*
X179874218Y-119111933D01*
X179874225Y-119111939D01*
X180071873Y-119263599D01*
X180287623Y-119388162D01*
X180287638Y-119388169D01*
X180386825Y-119429253D01*
X180517793Y-119483502D01*
X180758435Y-119547982D01*
X181005435Y-119580500D01*
X181005442Y-119580500D01*
X181254558Y-119580500D01*
X181254565Y-119580500D01*
X181501565Y-119547982D01*
X181742207Y-119483502D01*
X181972373Y-119388164D01*
X182188127Y-119263599D01*
X182385776Y-119111938D01*
X182561938Y-118935776D01*
X182713599Y-118738127D01*
X182838164Y-118522373D01*
X182933502Y-118292207D01*
X182997982Y-118051565D01*
X183030500Y-117804565D01*
X183030500Y-117555675D01*
X190994500Y-117555675D01*
X190994500Y-117764324D01*
X191027137Y-117970389D01*
X191091612Y-118168820D01*
X191160485Y-118303990D01*
X191186330Y-118354714D01*
X191308965Y-118523505D01*
X191456495Y-118671035D01*
X191625286Y-118793670D01*
X191709341Y-118836498D01*
X191811179Y-118888387D01*
X191811181Y-118888387D01*
X191811184Y-118888389D01*
X191917545Y-118922948D01*
X192009610Y-118952862D01*
X192215676Y-118985500D01*
X192215681Y-118985500D01*
X192424324Y-118985500D01*
X192630389Y-118952862D01*
X192828816Y-118888389D01*
X193014714Y-118793670D01*
X193183505Y-118671035D01*
X193331035Y-118523505D01*
X193453670Y-118354714D01*
X193479515Y-118303990D01*
X193527489Y-118253194D01*
X193595310Y-118236398D01*
X193661445Y-118258935D01*
X193700485Y-118303990D01*
X193726328Y-118354712D01*
X193778353Y-118426317D01*
X193848965Y-118523505D01*
X193996495Y-118671035D01*
X194165286Y-118793670D01*
X194249341Y-118836498D01*
X194351179Y-118888387D01*
X194351181Y-118888387D01*
X194351184Y-118888389D01*
X194457545Y-118922948D01*
X194549610Y-118952862D01*
X194755676Y-118985500D01*
X194755681Y-118985500D01*
X194964324Y-118985500D01*
X195170389Y-118952862D01*
X195368816Y-118888389D01*
X195554714Y-118793670D01*
X195723505Y-118671035D01*
X195871035Y-118523505D01*
X195993670Y-118354714D01*
X196019515Y-118303990D01*
X196067489Y-118253194D01*
X196135310Y-118236398D01*
X196201445Y-118258935D01*
X196240485Y-118303990D01*
X196266328Y-118354712D01*
X196318353Y-118426317D01*
X196388965Y-118523505D01*
X196536495Y-118671035D01*
X196705286Y-118793670D01*
X196789341Y-118836498D01*
X196891179Y-118888387D01*
X196891181Y-118888387D01*
X196891184Y-118888389D01*
X196997545Y-118922948D01*
X197089610Y-118952862D01*
X197295676Y-118985500D01*
X197295681Y-118985500D01*
X197504324Y-118985500D01*
X197710389Y-118952862D01*
X197908816Y-118888389D01*
X198094714Y-118793670D01*
X198263505Y-118671035D01*
X198411035Y-118523505D01*
X198533670Y-118354714D01*
X198628389Y-118168816D01*
X198692862Y-117970389D01*
X198725500Y-117764324D01*
X198725500Y-117691153D01*
X227039500Y-117691153D01*
X227039500Y-117848846D01*
X227070261Y-118003489D01*
X227070264Y-118003501D01*
X227130602Y-118149172D01*
X227130609Y-118149185D01*
X227218210Y-118280288D01*
X227218213Y-118280292D01*
X227329707Y-118391786D01*
X227329711Y-118391789D01*
X227460814Y-118479390D01*
X227460827Y-118479397D01*
X227606498Y-118539735D01*
X227606503Y-118539737D01*
X227761153Y-118570499D01*
X227761156Y-118570500D01*
X227761158Y-118570500D01*
X227918844Y-118570500D01*
X227918845Y-118570499D01*
X228073497Y-118539737D01*
X228219179Y-118479394D01*
X228350289Y-118391789D01*
X228461789Y-118280289D01*
X228549394Y-118149179D01*
X228609737Y-118003497D01*
X228640500Y-117848842D01*
X228640500Y-117691158D01*
X228640500Y-117691155D01*
X228640499Y-117691153D01*
X228609737Y-117536503D01*
X228609735Y-117536498D01*
X228549397Y-117390827D01*
X228549390Y-117390814D01*
X228461789Y-117259711D01*
X228461786Y-117259707D01*
X228350292Y-117148213D01*
X228350288Y-117148210D01*
X228219185Y-117060609D01*
X228219172Y-117060602D01*
X228073501Y-117000264D01*
X228073489Y-117000261D01*
X227918845Y-116969500D01*
X227918842Y-116969500D01*
X227761158Y-116969500D01*
X227761155Y-116969500D01*
X227606510Y-117000261D01*
X227606498Y-117000264D01*
X227460827Y-117060602D01*
X227460814Y-117060609D01*
X227329711Y-117148210D01*
X227329707Y-117148213D01*
X227218213Y-117259707D01*
X227218210Y-117259711D01*
X227130609Y-117390814D01*
X227130602Y-117390827D01*
X227070264Y-117536498D01*
X227070261Y-117536510D01*
X227039500Y-117691153D01*
X198725500Y-117691153D01*
X198725500Y-117555675D01*
X198692862Y-117349610D01*
X198628387Y-117151179D01*
X198551492Y-117000264D01*
X198533670Y-116965286D01*
X198411035Y-116796495D01*
X198263505Y-116648965D01*
X198094714Y-116526330D01*
X197908820Y-116431612D01*
X197710389Y-116367137D01*
X197504324Y-116334500D01*
X197504319Y-116334500D01*
X197295681Y-116334500D01*
X197295676Y-116334500D01*
X197089610Y-116367137D01*
X196891179Y-116431612D01*
X196705285Y-116526330D01*
X196536493Y-116648966D01*
X196388966Y-116796493D01*
X196266330Y-116965285D01*
X196240485Y-117016010D01*
X196192510Y-117066806D01*
X196124690Y-117083601D01*
X196058555Y-117061064D01*
X196019515Y-117016010D01*
X196011492Y-117000264D01*
X195993670Y-116965286D01*
X195871035Y-116796495D01*
X195723505Y-116648965D01*
X195554714Y-116526330D01*
X195368820Y-116431612D01*
X195170389Y-116367137D01*
X194964324Y-116334500D01*
X194964319Y-116334500D01*
X194755681Y-116334500D01*
X194755676Y-116334500D01*
X194549610Y-116367137D01*
X194351179Y-116431612D01*
X194165285Y-116526330D01*
X193996493Y-116648966D01*
X193848966Y-116796493D01*
X193726330Y-116965285D01*
X193700485Y-117016010D01*
X193652510Y-117066806D01*
X193584690Y-117083601D01*
X193518555Y-117061064D01*
X193479515Y-117016010D01*
X193471492Y-117000264D01*
X193453670Y-116965286D01*
X193331035Y-116796495D01*
X193183505Y-116648965D01*
X193014714Y-116526330D01*
X192828820Y-116431612D01*
X192630389Y-116367137D01*
X192424324Y-116334500D01*
X192424319Y-116334500D01*
X192215681Y-116334500D01*
X192215676Y-116334500D01*
X192009610Y-116367137D01*
X191811179Y-116431612D01*
X191625285Y-116526330D01*
X191456493Y-116648966D01*
X191308966Y-116796493D01*
X191186330Y-116965285D01*
X191091612Y-117151179D01*
X191027137Y-117349610D01*
X190994500Y-117555675D01*
X183030500Y-117555675D01*
X183030500Y-117555435D01*
X183028008Y-117536510D01*
X183003403Y-117349611D01*
X182997982Y-117308435D01*
X182933502Y-117067793D01*
X182838164Y-116837627D01*
X182830967Y-116825162D01*
X182713599Y-116621873D01*
X182561939Y-116424225D01*
X182561933Y-116424218D01*
X182385781Y-116248066D01*
X182385774Y-116248060D01*
X182188126Y-116096400D01*
X181972376Y-115971837D01*
X181972361Y-115971830D01*
X181742207Y-115876498D01*
X181501561Y-115812017D01*
X181254575Y-115779501D01*
X181254570Y-115779500D01*
X181254565Y-115779500D01*
X181005435Y-115779500D01*
X181005429Y-115779500D01*
X181005424Y-115779501D01*
X180758438Y-115812017D01*
X180517792Y-115876498D01*
X180287638Y-115971830D01*
X180287623Y-115971837D01*
X180071873Y-116096400D01*
X179874225Y-116248060D01*
X179874218Y-116248066D01*
X179698066Y-116424218D01*
X179698060Y-116424225D01*
X179546400Y-116621873D01*
X179421837Y-116837623D01*
X179421830Y-116837638D01*
X179326498Y-117067792D01*
X179262017Y-117308438D01*
X179229501Y-117555424D01*
X179229500Y-117555441D01*
X149225000Y-117555441D01*
X149225000Y-115495651D01*
X238420000Y-115495651D01*
X238420000Y-115744349D01*
X238425568Y-115779501D01*
X238458905Y-115989985D01*
X238535754Y-116226507D01*
X238535755Y-116226510D01*
X238607410Y-116367138D01*
X238640261Y-116431612D01*
X238648665Y-116448104D01*
X238794837Y-116649294D01*
X238794841Y-116649299D01*
X238970700Y-116825158D01*
X238970705Y-116825162D01*
X239146194Y-116952661D01*
X239171899Y-116971337D01*
X239316754Y-117045144D01*
X239393489Y-117084244D01*
X239393492Y-117084245D01*
X239511753Y-117122669D01*
X239630016Y-117161095D01*
X239875651Y-117200000D01*
X239875652Y-117200000D01*
X240124348Y-117200000D01*
X240124349Y-117200000D01*
X240369984Y-117161095D01*
X240606510Y-117084244D01*
X240828101Y-116971337D01*
X241029301Y-116825157D01*
X241205157Y-116649301D01*
X241351337Y-116448101D01*
X241464244Y-116226510D01*
X241541095Y-115989984D01*
X241580000Y-115744349D01*
X241580000Y-115495651D01*
X241541095Y-115250016D01*
X241464244Y-115013490D01*
X241464244Y-115013489D01*
X241417518Y-114921786D01*
X241351337Y-114791899D01*
X241269446Y-114679185D01*
X241205162Y-114590705D01*
X241205158Y-114590700D01*
X241029299Y-114414841D01*
X241029294Y-114414837D01*
X240892408Y-114315384D01*
X240828104Y-114268665D01*
X240828103Y-114268664D01*
X240828101Y-114268663D01*
X240734858Y-114221153D01*
X253199500Y-114221153D01*
X253199500Y-114378846D01*
X253230261Y-114533489D01*
X253230264Y-114533501D01*
X253290602Y-114679172D01*
X253290609Y-114679185D01*
X253378210Y-114810288D01*
X253378213Y-114810292D01*
X253489707Y-114921786D01*
X253489711Y-114921789D01*
X253620814Y-115009390D01*
X253620827Y-115009397D01*
X253766498Y-115069735D01*
X253766503Y-115069737D01*
X253900194Y-115096330D01*
X253921153Y-115100499D01*
X253921156Y-115100500D01*
X253921158Y-115100500D01*
X254078844Y-115100500D01*
X254078845Y-115100499D01*
X254233497Y-115069737D01*
X254346166Y-115023067D01*
X254379172Y-115009397D01*
X254379172Y-115009396D01*
X254379179Y-115009394D01*
X254510289Y-114921789D01*
X254621789Y-114810289D01*
X254709394Y-114679179D01*
X254769737Y-114533497D01*
X254800500Y-114378842D01*
X254800500Y-114221158D01*
X254800500Y-114221155D01*
X254800499Y-114221153D01*
X259549500Y-114221153D01*
X259549500Y-114378846D01*
X259580261Y-114533489D01*
X259580264Y-114533501D01*
X259640602Y-114679172D01*
X259640609Y-114679185D01*
X259728210Y-114810288D01*
X259728213Y-114810292D01*
X259839707Y-114921786D01*
X259839711Y-114921789D01*
X259970814Y-115009390D01*
X259970827Y-115009397D01*
X260116498Y-115069735D01*
X260116503Y-115069737D01*
X260250194Y-115096330D01*
X260271153Y-115100499D01*
X260271156Y-115100500D01*
X260271158Y-115100500D01*
X260428844Y-115100500D01*
X260428845Y-115100499D01*
X260583497Y-115069737D01*
X260696166Y-115023067D01*
X260729172Y-115009397D01*
X260729172Y-115009396D01*
X260729179Y-115009394D01*
X260860289Y-114921789D01*
X260971789Y-114810289D01*
X261059394Y-114679179D01*
X261119737Y-114533497D01*
X261150500Y-114378842D01*
X261150500Y-114221158D01*
X261150500Y-114221155D01*
X261150499Y-114221153D01*
X265899500Y-114221153D01*
X265899500Y-114378846D01*
X265930261Y-114533489D01*
X265930264Y-114533501D01*
X265990602Y-114679172D01*
X265990609Y-114679185D01*
X266078210Y-114810288D01*
X266078213Y-114810292D01*
X266189707Y-114921786D01*
X266189711Y-114921789D01*
X266320814Y-115009390D01*
X266320827Y-115009397D01*
X266466498Y-115069735D01*
X266466503Y-115069737D01*
X266600194Y-115096330D01*
X266621153Y-115100499D01*
X266621156Y-115100500D01*
X266621158Y-115100500D01*
X266778844Y-115100500D01*
X266778845Y-115100499D01*
X266933497Y-115069737D01*
X267046166Y-115023067D01*
X267079172Y-115009397D01*
X267079172Y-115009396D01*
X267079179Y-115009394D01*
X267210289Y-114921789D01*
X267321789Y-114810289D01*
X267409394Y-114679179D01*
X267469737Y-114533497D01*
X267500500Y-114378842D01*
X267500500Y-114221158D01*
X267500500Y-114221155D01*
X267500499Y-114221153D01*
X267469737Y-114066503D01*
X267458650Y-114039737D01*
X267409397Y-113920827D01*
X267409390Y-113920814D01*
X267321789Y-113789711D01*
X267321786Y-113789707D01*
X267210292Y-113678213D01*
X267210288Y-113678210D01*
X267079185Y-113590609D01*
X267079172Y-113590602D01*
X266933501Y-113530264D01*
X266933489Y-113530261D01*
X266778845Y-113499500D01*
X266778842Y-113499500D01*
X266621158Y-113499500D01*
X266621155Y-113499500D01*
X266466510Y-113530261D01*
X266466498Y-113530264D01*
X266320827Y-113590602D01*
X266320814Y-113590609D01*
X266189711Y-113678210D01*
X266189707Y-113678213D01*
X266078213Y-113789707D01*
X266078210Y-113789711D01*
X265990609Y-113920814D01*
X265990602Y-113920827D01*
X265930264Y-114066498D01*
X265930261Y-114066510D01*
X265899500Y-114221153D01*
X261150499Y-114221153D01*
X261119737Y-114066503D01*
X261108650Y-114039737D01*
X261059397Y-113920827D01*
X261059390Y-113920814D01*
X260971789Y-113789711D01*
X260971786Y-113789707D01*
X260860292Y-113678213D01*
X260860288Y-113678210D01*
X260729185Y-113590609D01*
X260729172Y-113590602D01*
X260583501Y-113530264D01*
X260583489Y-113530261D01*
X260428845Y-113499500D01*
X260428842Y-113499500D01*
X260271158Y-113499500D01*
X260271155Y-113499500D01*
X260116510Y-113530261D01*
X260116498Y-113530264D01*
X259970827Y-113590602D01*
X259970814Y-113590609D01*
X259839711Y-113678210D01*
X259839707Y-113678213D01*
X259728213Y-113789707D01*
X259728210Y-113789711D01*
X259640609Y-113920814D01*
X259640602Y-113920827D01*
X259580264Y-114066498D01*
X259580261Y-114066510D01*
X259549500Y-114221153D01*
X254800499Y-114221153D01*
X254769737Y-114066503D01*
X254758650Y-114039737D01*
X254709397Y-113920827D01*
X254709390Y-113920814D01*
X254621789Y-113789711D01*
X254621786Y-113789707D01*
X254510292Y-113678213D01*
X254510288Y-113678210D01*
X254379185Y-113590609D01*
X254379172Y-113590602D01*
X254233501Y-113530264D01*
X254233489Y-113530261D01*
X254078845Y-113499500D01*
X254078842Y-113499500D01*
X253921158Y-113499500D01*
X253921155Y-113499500D01*
X253766510Y-113530261D01*
X253766498Y-113530264D01*
X253620827Y-113590602D01*
X253620814Y-113590609D01*
X253489711Y-113678210D01*
X253489707Y-113678213D01*
X253378213Y-113789707D01*
X253378210Y-113789711D01*
X253290609Y-113920814D01*
X253290602Y-113920827D01*
X253230264Y-114066498D01*
X253230261Y-114066510D01*
X253199500Y-114221153D01*
X240734858Y-114221153D01*
X240606510Y-114155755D01*
X240606507Y-114155754D01*
X240369985Y-114078905D01*
X240247166Y-114059452D01*
X240124349Y-114040000D01*
X239875651Y-114040000D01*
X239793772Y-114052968D01*
X239630014Y-114078905D01*
X239393492Y-114155754D01*
X239393489Y-114155755D01*
X239171895Y-114268665D01*
X238970705Y-114414837D01*
X238970700Y-114414841D01*
X238794841Y-114590700D01*
X238794837Y-114590705D01*
X238648665Y-114791895D01*
X238535755Y-115013489D01*
X238535754Y-115013492D01*
X238458905Y-115250014D01*
X238458905Y-115250016D01*
X238420000Y-115495651D01*
X149225000Y-115495651D01*
X149225000Y-114221153D01*
X151599500Y-114221153D01*
X151599500Y-114378846D01*
X151630261Y-114533489D01*
X151630264Y-114533501D01*
X151690602Y-114679172D01*
X151690609Y-114679185D01*
X151778210Y-114810288D01*
X151778213Y-114810292D01*
X151889707Y-114921786D01*
X151889711Y-114921789D01*
X152020814Y-115009390D01*
X152020827Y-115009397D01*
X152166498Y-115069735D01*
X152166503Y-115069737D01*
X152300194Y-115096330D01*
X152321153Y-115100499D01*
X152321156Y-115100500D01*
X152321158Y-115100500D01*
X152478844Y-115100500D01*
X152478845Y-115100499D01*
X152633497Y-115069737D01*
X152746166Y-115023067D01*
X152779172Y-115009397D01*
X152779172Y-115009396D01*
X152779179Y-115009394D01*
X152910289Y-114921789D01*
X153021789Y-114810289D01*
X153109394Y-114679179D01*
X153169737Y-114533497D01*
X153200500Y-114378842D01*
X153200500Y-114221158D01*
X153200500Y-114221155D01*
X153200499Y-114221153D01*
X157949500Y-114221153D01*
X157949500Y-114378846D01*
X157980261Y-114533489D01*
X157980264Y-114533501D01*
X158040602Y-114679172D01*
X158040609Y-114679185D01*
X158128210Y-114810288D01*
X158128213Y-114810292D01*
X158239707Y-114921786D01*
X158239711Y-114921789D01*
X158370814Y-115009390D01*
X158370827Y-115009397D01*
X158516498Y-115069735D01*
X158516503Y-115069737D01*
X158650194Y-115096330D01*
X158671153Y-115100499D01*
X158671156Y-115100500D01*
X158671158Y-115100500D01*
X158828844Y-115100500D01*
X158828845Y-115100499D01*
X158983497Y-115069737D01*
X159096166Y-115023067D01*
X159129172Y-115009397D01*
X159129172Y-115009396D01*
X159129179Y-115009394D01*
X159260289Y-114921789D01*
X159371789Y-114810289D01*
X159459394Y-114679179D01*
X159519737Y-114533497D01*
X159550500Y-114378842D01*
X159550500Y-114221158D01*
X159550500Y-114221155D01*
X159550499Y-114221153D01*
X164299500Y-114221153D01*
X164299500Y-114378846D01*
X164330261Y-114533489D01*
X164330264Y-114533501D01*
X164390602Y-114679172D01*
X164390609Y-114679185D01*
X164478210Y-114810288D01*
X164478213Y-114810292D01*
X164589707Y-114921786D01*
X164589711Y-114921789D01*
X164720814Y-115009390D01*
X164720827Y-115009397D01*
X164866498Y-115069735D01*
X164866503Y-115069737D01*
X165000194Y-115096330D01*
X165021153Y-115100499D01*
X165021156Y-115100500D01*
X165021158Y-115100500D01*
X165178844Y-115100500D01*
X165178845Y-115100499D01*
X165333497Y-115069737D01*
X165446166Y-115023067D01*
X165479172Y-115009397D01*
X165479172Y-115009396D01*
X165479179Y-115009394D01*
X165610289Y-114921789D01*
X165721789Y-114810289D01*
X165809394Y-114679179D01*
X165869737Y-114533497D01*
X165900500Y-114378842D01*
X165900500Y-114221158D01*
X165900500Y-114221155D01*
X165900499Y-114221153D01*
X170649500Y-114221153D01*
X170649500Y-114378846D01*
X170680261Y-114533489D01*
X170680264Y-114533501D01*
X170740602Y-114679172D01*
X170740609Y-114679185D01*
X170828210Y-114810288D01*
X170828213Y-114810292D01*
X170939707Y-114921786D01*
X170939711Y-114921789D01*
X171070814Y-115009390D01*
X171070827Y-115009397D01*
X171216498Y-115069735D01*
X171216503Y-115069737D01*
X171350194Y-115096330D01*
X171371153Y-115100499D01*
X171371156Y-115100500D01*
X171371158Y-115100500D01*
X171528844Y-115100500D01*
X171528845Y-115100499D01*
X171683497Y-115069737D01*
X171796166Y-115023067D01*
X171829172Y-115009397D01*
X171829172Y-115009396D01*
X171829179Y-115009394D01*
X171960289Y-114921789D01*
X172071789Y-114810289D01*
X172159394Y-114679179D01*
X172219737Y-114533497D01*
X172250500Y-114378842D01*
X172250500Y-114221158D01*
X172250500Y-114221155D01*
X172250499Y-114221153D01*
X176999500Y-114221153D01*
X176999500Y-114378846D01*
X177030261Y-114533489D01*
X177030264Y-114533501D01*
X177090602Y-114679172D01*
X177090609Y-114679185D01*
X177178210Y-114810288D01*
X177178213Y-114810292D01*
X177289707Y-114921786D01*
X177289711Y-114921789D01*
X177420814Y-115009390D01*
X177420827Y-115009397D01*
X177566498Y-115069735D01*
X177566503Y-115069737D01*
X177700194Y-115096330D01*
X177721153Y-115100499D01*
X177721156Y-115100500D01*
X177721158Y-115100500D01*
X177878844Y-115100500D01*
X177878845Y-115100499D01*
X178033497Y-115069737D01*
X178146166Y-115023067D01*
X178179172Y-115009397D01*
X178179172Y-115009396D01*
X178179179Y-115009394D01*
X178310289Y-114921789D01*
X178421789Y-114810289D01*
X178509394Y-114679179D01*
X178569737Y-114533497D01*
X178600500Y-114378842D01*
X178600500Y-114221158D01*
X178600500Y-114221155D01*
X178600499Y-114221153D01*
X183349500Y-114221153D01*
X183349500Y-114378846D01*
X183380261Y-114533489D01*
X183380264Y-114533501D01*
X183440602Y-114679172D01*
X183440609Y-114679185D01*
X183528210Y-114810288D01*
X183528213Y-114810292D01*
X183639707Y-114921786D01*
X183639711Y-114921789D01*
X183770814Y-115009390D01*
X183770827Y-115009397D01*
X183916498Y-115069735D01*
X183916503Y-115069737D01*
X184050194Y-115096330D01*
X184071153Y-115100499D01*
X184071156Y-115100500D01*
X184071158Y-115100500D01*
X184228844Y-115100500D01*
X184228845Y-115100499D01*
X184383497Y-115069737D01*
X184496166Y-115023067D01*
X184529172Y-115009397D01*
X184529172Y-115009396D01*
X184529179Y-115009394D01*
X184660289Y-114921789D01*
X184771789Y-114810289D01*
X184859394Y-114679179D01*
X184919737Y-114533497D01*
X184950500Y-114378842D01*
X184950500Y-114221158D01*
X184950500Y-114221155D01*
X184950499Y-114221153D01*
X189699500Y-114221153D01*
X189699500Y-114378846D01*
X189730261Y-114533489D01*
X189730264Y-114533501D01*
X189790602Y-114679172D01*
X189790609Y-114679185D01*
X189878210Y-114810288D01*
X189878213Y-114810292D01*
X189989707Y-114921786D01*
X189989711Y-114921789D01*
X190120814Y-115009390D01*
X190120827Y-115009397D01*
X190266498Y-115069735D01*
X190266503Y-115069737D01*
X190400194Y-115096330D01*
X190421153Y-115100499D01*
X190421156Y-115100500D01*
X190421158Y-115100500D01*
X190578844Y-115100500D01*
X190578845Y-115100499D01*
X190733497Y-115069737D01*
X190846166Y-115023067D01*
X190879172Y-115009397D01*
X190879172Y-115009396D01*
X190879179Y-115009394D01*
X191010289Y-114921789D01*
X191121789Y-114810289D01*
X191209394Y-114679179D01*
X191269737Y-114533497D01*
X191300500Y-114378842D01*
X191300500Y-114221158D01*
X191300500Y-114221155D01*
X191300499Y-114221153D01*
X196049500Y-114221153D01*
X196049500Y-114378846D01*
X196080261Y-114533489D01*
X196080264Y-114533501D01*
X196140602Y-114679172D01*
X196140609Y-114679185D01*
X196228210Y-114810288D01*
X196228213Y-114810292D01*
X196339707Y-114921786D01*
X196339711Y-114921789D01*
X196470814Y-115009390D01*
X196470827Y-115009397D01*
X196616498Y-115069735D01*
X196616503Y-115069737D01*
X196750194Y-115096330D01*
X196771153Y-115100499D01*
X196771156Y-115100500D01*
X196771158Y-115100500D01*
X196928844Y-115100500D01*
X196928845Y-115100499D01*
X197083497Y-115069737D01*
X197196166Y-115023067D01*
X197229172Y-115009397D01*
X197229172Y-115009396D01*
X197229179Y-115009394D01*
X197360289Y-114921789D01*
X197471789Y-114810289D01*
X197559394Y-114679179D01*
X197619737Y-114533497D01*
X197650500Y-114378842D01*
X197650500Y-114221158D01*
X197650500Y-114221155D01*
X197650499Y-114221153D01*
X202399500Y-114221153D01*
X202399500Y-114378846D01*
X202430261Y-114533489D01*
X202430264Y-114533501D01*
X202490602Y-114679172D01*
X202490609Y-114679185D01*
X202578210Y-114810288D01*
X202578213Y-114810292D01*
X202689707Y-114921786D01*
X202689711Y-114921789D01*
X202820814Y-115009390D01*
X202820827Y-115009397D01*
X202966498Y-115069735D01*
X202966503Y-115069737D01*
X203100194Y-115096330D01*
X203121153Y-115100499D01*
X203121156Y-115100500D01*
X203121158Y-115100500D01*
X203278844Y-115100500D01*
X203278845Y-115100499D01*
X203433497Y-115069737D01*
X203546166Y-115023067D01*
X203579172Y-115009397D01*
X203579172Y-115009396D01*
X203579179Y-115009394D01*
X203710289Y-114921789D01*
X203821789Y-114810289D01*
X203909394Y-114679179D01*
X203969737Y-114533497D01*
X204000500Y-114378842D01*
X204000500Y-114221158D01*
X204000500Y-114221155D01*
X204000499Y-114221153D01*
X203969737Y-114066503D01*
X203958650Y-114039737D01*
X203909397Y-113920827D01*
X203909390Y-113920814D01*
X203821789Y-113789711D01*
X203821786Y-113789707D01*
X203710292Y-113678213D01*
X203710288Y-113678210D01*
X203579185Y-113590609D01*
X203579172Y-113590602D01*
X203433501Y-113530264D01*
X203433489Y-113530261D01*
X203278845Y-113499500D01*
X203278842Y-113499500D01*
X203121158Y-113499500D01*
X203121155Y-113499500D01*
X202966510Y-113530261D01*
X202966498Y-113530264D01*
X202820827Y-113590602D01*
X202820814Y-113590609D01*
X202689711Y-113678210D01*
X202689707Y-113678213D01*
X202578213Y-113789707D01*
X202578210Y-113789711D01*
X202490609Y-113920814D01*
X202490602Y-113920827D01*
X202430264Y-114066498D01*
X202430261Y-114066510D01*
X202399500Y-114221153D01*
X197650499Y-114221153D01*
X197619737Y-114066503D01*
X197608650Y-114039737D01*
X197559397Y-113920827D01*
X197559390Y-113920814D01*
X197471789Y-113789711D01*
X197471786Y-113789707D01*
X197360292Y-113678213D01*
X197360288Y-113678210D01*
X197229185Y-113590609D01*
X197229172Y-113590602D01*
X197083501Y-113530264D01*
X197083489Y-113530261D01*
X196928845Y-113499500D01*
X196928842Y-113499500D01*
X196771158Y-113499500D01*
X196771155Y-113499500D01*
X196616510Y-113530261D01*
X196616498Y-113530264D01*
X196470827Y-113590602D01*
X196470814Y-113590609D01*
X196339711Y-113678210D01*
X196339707Y-113678213D01*
X196228213Y-113789707D01*
X196228210Y-113789711D01*
X196140609Y-113920814D01*
X196140602Y-113920827D01*
X196080264Y-114066498D01*
X196080261Y-114066510D01*
X196049500Y-114221153D01*
X191300499Y-114221153D01*
X191269737Y-114066503D01*
X191258650Y-114039737D01*
X191209397Y-113920827D01*
X191209390Y-113920814D01*
X191121789Y-113789711D01*
X191121786Y-113789707D01*
X191010292Y-113678213D01*
X191010288Y-113678210D01*
X190879185Y-113590609D01*
X190879172Y-113590602D01*
X190733501Y-113530264D01*
X190733489Y-113530261D01*
X190578845Y-113499500D01*
X190578842Y-113499500D01*
X190421158Y-113499500D01*
X190421155Y-113499500D01*
X190266510Y-113530261D01*
X190266498Y-113530264D01*
X190120827Y-113590602D01*
X190120814Y-113590609D01*
X189989711Y-113678210D01*
X189989707Y-113678213D01*
X189878213Y-113789707D01*
X189878210Y-113789711D01*
X189790609Y-113920814D01*
X189790602Y-113920827D01*
X189730264Y-114066498D01*
X189730261Y-114066510D01*
X189699500Y-114221153D01*
X184950499Y-114221153D01*
X184919737Y-114066503D01*
X184908650Y-114039737D01*
X184859397Y-113920827D01*
X184859390Y-113920814D01*
X184771789Y-113789711D01*
X184771786Y-113789707D01*
X184660292Y-113678213D01*
X184660288Y-113678210D01*
X184529185Y-113590609D01*
X184529172Y-113590602D01*
X184383501Y-113530264D01*
X184383489Y-113530261D01*
X184228845Y-113499500D01*
X184228842Y-113499500D01*
X184071158Y-113499500D01*
X184071155Y-113499500D01*
X183916510Y-113530261D01*
X183916498Y-113530264D01*
X183770827Y-113590602D01*
X183770814Y-113590609D01*
X183639711Y-113678210D01*
X183639707Y-113678213D01*
X183528213Y-113789707D01*
X183528210Y-113789711D01*
X183440609Y-113920814D01*
X183440602Y-113920827D01*
X183380264Y-114066498D01*
X183380261Y-114066510D01*
X183349500Y-114221153D01*
X178600499Y-114221153D01*
X178569737Y-114066503D01*
X178558650Y-114039737D01*
X178509397Y-113920827D01*
X178509390Y-113920814D01*
X178421789Y-113789711D01*
X178421786Y-113789707D01*
X178310292Y-113678213D01*
X178310288Y-113678210D01*
X178179185Y-113590609D01*
X178179172Y-113590602D01*
X178033501Y-113530264D01*
X178033489Y-113530261D01*
X177878845Y-113499500D01*
X177878842Y-113499500D01*
X177721158Y-113499500D01*
X177721155Y-113499500D01*
X177566510Y-113530261D01*
X177566498Y-113530264D01*
X177420827Y-113590602D01*
X177420814Y-113590609D01*
X177289711Y-113678210D01*
X177289707Y-113678213D01*
X177178213Y-113789707D01*
X177178210Y-113789711D01*
X177090609Y-113920814D01*
X177090602Y-113920827D01*
X177030264Y-114066498D01*
X177030261Y-114066510D01*
X176999500Y-114221153D01*
X172250499Y-114221153D01*
X172219737Y-114066503D01*
X172208650Y-114039737D01*
X172159397Y-113920827D01*
X172159390Y-113920814D01*
X172071789Y-113789711D01*
X172071786Y-113789707D01*
X171960292Y-113678213D01*
X171960288Y-113678210D01*
X171829185Y-113590609D01*
X171829172Y-113590602D01*
X171683501Y-113530264D01*
X171683489Y-113530261D01*
X171528845Y-113499500D01*
X171528842Y-113499500D01*
X171371158Y-113499500D01*
X171371155Y-113499500D01*
X171216510Y-113530261D01*
X171216498Y-113530264D01*
X171070827Y-113590602D01*
X171070814Y-113590609D01*
X170939711Y-113678210D01*
X170939707Y-113678213D01*
X170828213Y-113789707D01*
X170828210Y-113789711D01*
X170740609Y-113920814D01*
X170740602Y-113920827D01*
X170680264Y-114066498D01*
X170680261Y-114066510D01*
X170649500Y-114221153D01*
X165900499Y-114221153D01*
X165869737Y-114066503D01*
X165858650Y-114039737D01*
X165809397Y-113920827D01*
X165809390Y-113920814D01*
X165721789Y-113789711D01*
X165721786Y-113789707D01*
X165610292Y-113678213D01*
X165610288Y-113678210D01*
X165479185Y-113590609D01*
X165479172Y-113590602D01*
X165333501Y-113530264D01*
X165333489Y-113530261D01*
X165178845Y-113499500D01*
X165178842Y-113499500D01*
X165021158Y-113499500D01*
X165021155Y-113499500D01*
X164866510Y-113530261D01*
X164866498Y-113530264D01*
X164720827Y-113590602D01*
X164720814Y-113590609D01*
X164589711Y-113678210D01*
X164589707Y-113678213D01*
X164478213Y-113789707D01*
X164478210Y-113789711D01*
X164390609Y-113920814D01*
X164390602Y-113920827D01*
X164330264Y-114066498D01*
X164330261Y-114066510D01*
X164299500Y-114221153D01*
X159550499Y-114221153D01*
X159519737Y-114066503D01*
X159508650Y-114039737D01*
X159459397Y-113920827D01*
X159459390Y-113920814D01*
X159371789Y-113789711D01*
X159371786Y-113789707D01*
X159260292Y-113678213D01*
X159260288Y-113678210D01*
X159129185Y-113590609D01*
X159129172Y-113590602D01*
X158983501Y-113530264D01*
X158983489Y-113530261D01*
X158828845Y-113499500D01*
X158828842Y-113499500D01*
X158671158Y-113499500D01*
X158671155Y-113499500D01*
X158516510Y-113530261D01*
X158516498Y-113530264D01*
X158370827Y-113590602D01*
X158370814Y-113590609D01*
X158239711Y-113678210D01*
X158239707Y-113678213D01*
X158128213Y-113789707D01*
X158128210Y-113789711D01*
X158040609Y-113920814D01*
X158040602Y-113920827D01*
X157980264Y-114066498D01*
X157980261Y-114066510D01*
X157949500Y-114221153D01*
X153200499Y-114221153D01*
X153169737Y-114066503D01*
X153158650Y-114039737D01*
X153109397Y-113920827D01*
X153109390Y-113920814D01*
X153021789Y-113789711D01*
X153021786Y-113789707D01*
X152910292Y-113678213D01*
X152910288Y-113678210D01*
X152779185Y-113590609D01*
X152779172Y-113590602D01*
X152633501Y-113530264D01*
X152633489Y-113530261D01*
X152478845Y-113499500D01*
X152478842Y-113499500D01*
X152321158Y-113499500D01*
X152321155Y-113499500D01*
X152166510Y-113530261D01*
X152166498Y-113530264D01*
X152020827Y-113590602D01*
X152020814Y-113590609D01*
X151889711Y-113678210D01*
X151889707Y-113678213D01*
X151778213Y-113789707D01*
X151778210Y-113789711D01*
X151690609Y-113920814D01*
X151690602Y-113920827D01*
X151630264Y-114066498D01*
X151630261Y-114066510D01*
X151599500Y-114221153D01*
X149225000Y-114221153D01*
X149225000Y-113191153D01*
X160314500Y-113191153D01*
X160314500Y-113348846D01*
X160345261Y-113503489D01*
X160345264Y-113503501D01*
X160405602Y-113649172D01*
X160405609Y-113649185D01*
X160493210Y-113780288D01*
X160493213Y-113780292D01*
X160604707Y-113891786D01*
X160604711Y-113891789D01*
X160735814Y-113979390D01*
X160735827Y-113979397D01*
X160881498Y-114039735D01*
X160881503Y-114039737D01*
X161016039Y-114066498D01*
X161036153Y-114070499D01*
X161036156Y-114070500D01*
X161036158Y-114070500D01*
X161193844Y-114070500D01*
X161193845Y-114070499D01*
X161348497Y-114039737D01*
X161494179Y-113979394D01*
X161625289Y-113891789D01*
X161736789Y-113780289D01*
X161824394Y-113649179D01*
X161884737Y-113503497D01*
X161915500Y-113348842D01*
X161915500Y-113191158D01*
X161915500Y-113191155D01*
X161915499Y-113191153D01*
X161895258Y-113089397D01*
X161884737Y-113036503D01*
X161869737Y-113000289D01*
X161824397Y-112890827D01*
X161824390Y-112890814D01*
X161736789Y-112759711D01*
X161736786Y-112759707D01*
X161625292Y-112648213D01*
X161625288Y-112648210D01*
X161494185Y-112560609D01*
X161494172Y-112560602D01*
X161348501Y-112500264D01*
X161348489Y-112500261D01*
X161193845Y-112469500D01*
X161193842Y-112469500D01*
X161036158Y-112469500D01*
X161036155Y-112469500D01*
X160881510Y-112500261D01*
X160881498Y-112500264D01*
X160735827Y-112560602D01*
X160735814Y-112560609D01*
X160604711Y-112648210D01*
X160604707Y-112648213D01*
X160493213Y-112759707D01*
X160493210Y-112759711D01*
X160405609Y-112890814D01*
X160405602Y-112890827D01*
X160345264Y-113036498D01*
X160345261Y-113036510D01*
X160314500Y-113191153D01*
X149225000Y-113191153D01*
X149225000Y-112301153D01*
X194109500Y-112301153D01*
X194109500Y-112458846D01*
X194140261Y-112613489D01*
X194140264Y-112613501D01*
X194200602Y-112759172D01*
X194200609Y-112759185D01*
X194288210Y-112890288D01*
X194288213Y-112890292D01*
X194399707Y-113001786D01*
X194399711Y-113001789D01*
X194530814Y-113089390D01*
X194530827Y-113089397D01*
X194676498Y-113149735D01*
X194676503Y-113149737D01*
X194831153Y-113180499D01*
X194831156Y-113180500D01*
X194831158Y-113180500D01*
X194988844Y-113180500D01*
X194988845Y-113180499D01*
X195143497Y-113149737D01*
X195289179Y-113089394D01*
X195420289Y-113001789D01*
X195531789Y-112890289D01*
X195619394Y-112759179D01*
X195679737Y-112613497D01*
X195710500Y-112458842D01*
X195710500Y-112411153D01*
X216934500Y-112411153D01*
X216934500Y-112568846D01*
X216965261Y-112723489D01*
X216965264Y-112723501D01*
X217025602Y-112869172D01*
X217025609Y-112869185D01*
X217113210Y-113000288D01*
X217113213Y-113000292D01*
X217224707Y-113111786D01*
X217224711Y-113111789D01*
X217355814Y-113199390D01*
X217355827Y-113199397D01*
X217501498Y-113259735D01*
X217501503Y-113259737D01*
X217656153Y-113290499D01*
X217656156Y-113290500D01*
X217656158Y-113290500D01*
X217813844Y-113290500D01*
X217813845Y-113290499D01*
X217968497Y-113259737D01*
X218114179Y-113199394D01*
X218245289Y-113111789D01*
X218356789Y-113000289D01*
X218444394Y-112869179D01*
X218504737Y-112723497D01*
X218535500Y-112568842D01*
X218535500Y-112411158D01*
X218535500Y-112411155D01*
X218535499Y-112411153D01*
X218504738Y-112256510D01*
X218504737Y-112256503D01*
X218459172Y-112146498D01*
X218444397Y-112110827D01*
X218444390Y-112110814D01*
X218356789Y-111979711D01*
X218356786Y-111979707D01*
X218258609Y-111881530D01*
X238509500Y-111881530D01*
X238509500Y-112058469D01*
X238544015Y-112231987D01*
X238544018Y-112231999D01*
X238611722Y-112395452D01*
X238611723Y-112395454D01*
X238710022Y-112542568D01*
X238710025Y-112542572D01*
X238835127Y-112667674D01*
X238835131Y-112667677D01*
X238982243Y-112765975D01*
X238982244Y-112765975D01*
X238982245Y-112765976D01*
X238982247Y-112765977D01*
X239145700Y-112833681D01*
X239145705Y-112833683D01*
X239319230Y-112868199D01*
X239319234Y-112868200D01*
X239319235Y-112868200D01*
X242200766Y-112868200D01*
X242200767Y-112868199D01*
X242374295Y-112833683D01*
X242537757Y-112765975D01*
X242684869Y-112667677D01*
X242809977Y-112542569D01*
X242908275Y-112395457D01*
X242975983Y-112231995D01*
X243010500Y-112058465D01*
X243010500Y-111881535D01*
X242975983Y-111708005D01*
X242960490Y-111670602D01*
X242908277Y-111544547D01*
X242908276Y-111544545D01*
X242809977Y-111397431D01*
X242809974Y-111397427D01*
X242684872Y-111272325D01*
X242684868Y-111272322D01*
X242537754Y-111174023D01*
X242537752Y-111174022D01*
X242374299Y-111106318D01*
X242374287Y-111106315D01*
X242200769Y-111071800D01*
X242200765Y-111071800D01*
X239319235Y-111071800D01*
X239319230Y-111071800D01*
X239145712Y-111106315D01*
X239145700Y-111106318D01*
X238982247Y-111174022D01*
X238982245Y-111174023D01*
X238835131Y-111272322D01*
X238835127Y-111272325D01*
X238710025Y-111397427D01*
X238710022Y-111397431D01*
X238611723Y-111544545D01*
X238611722Y-111544547D01*
X238544018Y-111708000D01*
X238544015Y-111708012D01*
X238509500Y-111881530D01*
X218258609Y-111881530D01*
X218245292Y-111868213D01*
X218245288Y-111868210D01*
X218114185Y-111780609D01*
X218114172Y-111780602D01*
X217968501Y-111720264D01*
X217968489Y-111720261D01*
X217813845Y-111689500D01*
X217813842Y-111689500D01*
X217656158Y-111689500D01*
X217656155Y-111689500D01*
X217501510Y-111720261D01*
X217501498Y-111720264D01*
X217355827Y-111780602D01*
X217355814Y-111780609D01*
X217224711Y-111868210D01*
X217224707Y-111868213D01*
X217113213Y-111979707D01*
X217113210Y-111979711D01*
X217025609Y-112110814D01*
X217025602Y-112110827D01*
X216965264Y-112256498D01*
X216965261Y-112256510D01*
X216934500Y-112411153D01*
X195710500Y-112411153D01*
X195710500Y-112301158D01*
X195710500Y-112301155D01*
X195710499Y-112301153D01*
X195701619Y-112256510D01*
X195679737Y-112146503D01*
X195664954Y-112110814D01*
X195619397Y-112000827D01*
X195619390Y-112000814D01*
X195531789Y-111869711D01*
X195531786Y-111869707D01*
X195420292Y-111758213D01*
X195420288Y-111758210D01*
X195289185Y-111670609D01*
X195289172Y-111670602D01*
X195143501Y-111610264D01*
X195143489Y-111610261D01*
X194988845Y-111579500D01*
X194988842Y-111579500D01*
X194831158Y-111579500D01*
X194831155Y-111579500D01*
X194676510Y-111610261D01*
X194676498Y-111610264D01*
X194530827Y-111670602D01*
X194530814Y-111670609D01*
X194399711Y-111758210D01*
X194399707Y-111758213D01*
X194288213Y-111869707D01*
X194288210Y-111869711D01*
X194200609Y-112000814D01*
X194200602Y-112000827D01*
X194140264Y-112146498D01*
X194140261Y-112146510D01*
X194109500Y-112301153D01*
X149225000Y-112301153D01*
X149225000Y-110614000D01*
X149244685Y-110546961D01*
X149297489Y-110501206D01*
X149349000Y-110490000D01*
X247044452Y-110490000D01*
X247111491Y-110509685D01*
G37*
%TD.AperFunction*%
%TD*%
M02*
