%TF.GenerationSoftware,KiCad,Pcbnew,9.0.3*%
%TF.CreationDate,2025-09-16T12:03:33-04:00*%
%TF.ProjectId,6_COLD_TPC_HV,365f434f-4c44-45f5-9450-435f48562e6b,rev?*%
%TF.SameCoordinates,Original*%
%TF.FileFunction,Legend,Bot*%
%TF.FilePolarity,Positive*%
%FSLAX46Y46*%
G04 Gerber Fmt 4.6, Leading zero omitted, Abs format (unit mm)*
G04 Created by KiCad (PCBNEW 9.0.3) date 2025-09-16 12:03:33*
%MOMM*%
%LPD*%
G01*
G04 APERTURE LIST*
%ADD10C,0.150000*%
%ADD11C,0.508000*%
%ADD12C,0.100000*%
%ADD13C,0.120000*%
%ADD14C,0.152400*%
G04 APERTURE END LIST*
D10*
X266256033Y-136109999D02*
X265922700Y-135876666D01*
X266256033Y-135709999D02*
X265556033Y-135709999D01*
X265556033Y-135709999D02*
X265556033Y-135976666D01*
X265556033Y-135976666D02*
X265589366Y-136043333D01*
X265589366Y-136043333D02*
X265622700Y-136076666D01*
X265622700Y-136076666D02*
X265689366Y-136109999D01*
X265689366Y-136109999D02*
X265789366Y-136109999D01*
X265789366Y-136109999D02*
X265856033Y-136076666D01*
X265856033Y-136076666D02*
X265889366Y-136043333D01*
X265889366Y-136043333D02*
X265922700Y-135976666D01*
X265922700Y-135976666D02*
X265922700Y-135709999D01*
X265622700Y-136376666D02*
X265589366Y-136409999D01*
X265589366Y-136409999D02*
X265556033Y-136476666D01*
X265556033Y-136476666D02*
X265556033Y-136643333D01*
X265556033Y-136643333D02*
X265589366Y-136709999D01*
X265589366Y-136709999D02*
X265622700Y-136743333D01*
X265622700Y-136743333D02*
X265689366Y-136776666D01*
X265689366Y-136776666D02*
X265756033Y-136776666D01*
X265756033Y-136776666D02*
X265856033Y-136743333D01*
X265856033Y-136743333D02*
X266256033Y-136343333D01*
X266256033Y-136343333D02*
X266256033Y-136776666D01*
X265556033Y-137010000D02*
X265556033Y-137443333D01*
X265556033Y-137443333D02*
X265822700Y-137210000D01*
X265822700Y-137210000D02*
X265822700Y-137310000D01*
X265822700Y-137310000D02*
X265856033Y-137376666D01*
X265856033Y-137376666D02*
X265889366Y-137410000D01*
X265889366Y-137410000D02*
X265956033Y-137443333D01*
X265956033Y-137443333D02*
X266122700Y-137443333D01*
X266122700Y-137443333D02*
X266189366Y-137410000D01*
X266189366Y-137410000D02*
X266222700Y-137376666D01*
X266222700Y-137376666D02*
X266256033Y-137310000D01*
X266256033Y-137310000D02*
X266256033Y-137110000D01*
X266256033Y-137110000D02*
X266222700Y-137043333D01*
X266222700Y-137043333D02*
X266189366Y-137010000D01*
X186224366Y-147459999D02*
X186257700Y-147426666D01*
X186257700Y-147426666D02*
X186291033Y-147326666D01*
X186291033Y-147326666D02*
X186291033Y-147259999D01*
X186291033Y-147259999D02*
X186257700Y-147159999D01*
X186257700Y-147159999D02*
X186191033Y-147093333D01*
X186191033Y-147093333D02*
X186124366Y-147059999D01*
X186124366Y-147059999D02*
X185991033Y-147026666D01*
X185991033Y-147026666D02*
X185891033Y-147026666D01*
X185891033Y-147026666D02*
X185757700Y-147059999D01*
X185757700Y-147059999D02*
X185691033Y-147093333D01*
X185691033Y-147093333D02*
X185624366Y-147159999D01*
X185624366Y-147159999D02*
X185591033Y-147259999D01*
X185591033Y-147259999D02*
X185591033Y-147326666D01*
X185591033Y-147326666D02*
X185624366Y-147426666D01*
X185624366Y-147426666D02*
X185657700Y-147459999D01*
X185591033Y-147693333D02*
X185591033Y-148126666D01*
X185591033Y-148126666D02*
X185857700Y-147893333D01*
X185857700Y-147893333D02*
X185857700Y-147993333D01*
X185857700Y-147993333D02*
X185891033Y-148059999D01*
X185891033Y-148059999D02*
X185924366Y-148093333D01*
X185924366Y-148093333D02*
X185991033Y-148126666D01*
X185991033Y-148126666D02*
X186157700Y-148126666D01*
X186157700Y-148126666D02*
X186224366Y-148093333D01*
X186224366Y-148093333D02*
X186257700Y-148059999D01*
X186257700Y-148059999D02*
X186291033Y-147993333D01*
X186291033Y-147993333D02*
X186291033Y-147793333D01*
X186291033Y-147793333D02*
X186257700Y-147726666D01*
X186257700Y-147726666D02*
X186224366Y-147693333D01*
X185591033Y-148726666D02*
X185591033Y-148593333D01*
X185591033Y-148593333D02*
X185624366Y-148526666D01*
X185624366Y-148526666D02*
X185657700Y-148493333D01*
X185657700Y-148493333D02*
X185757700Y-148426666D01*
X185757700Y-148426666D02*
X185891033Y-148393333D01*
X185891033Y-148393333D02*
X186157700Y-148393333D01*
X186157700Y-148393333D02*
X186224366Y-148426666D01*
X186224366Y-148426666D02*
X186257700Y-148460000D01*
X186257700Y-148460000D02*
X186291033Y-148526666D01*
X186291033Y-148526666D02*
X186291033Y-148660000D01*
X186291033Y-148660000D02*
X186257700Y-148726666D01*
X186257700Y-148726666D02*
X186224366Y-148760000D01*
X186224366Y-148760000D02*
X186157700Y-148793333D01*
X186157700Y-148793333D02*
X185991033Y-148793333D01*
X185991033Y-148793333D02*
X185924366Y-148760000D01*
X185924366Y-148760000D02*
X185891033Y-148726666D01*
X185891033Y-148726666D02*
X185857700Y-148660000D01*
X185857700Y-148660000D02*
X185857700Y-148526666D01*
X185857700Y-148526666D02*
X185891033Y-148460000D01*
X185891033Y-148460000D02*
X185924366Y-148426666D01*
X185924366Y-148426666D02*
X185991033Y-148393333D01*
X257339366Y-142874999D02*
X257372700Y-142841666D01*
X257372700Y-142841666D02*
X257406033Y-142741666D01*
X257406033Y-142741666D02*
X257406033Y-142674999D01*
X257406033Y-142674999D02*
X257372700Y-142574999D01*
X257372700Y-142574999D02*
X257306033Y-142508333D01*
X257306033Y-142508333D02*
X257239366Y-142474999D01*
X257239366Y-142474999D02*
X257106033Y-142441666D01*
X257106033Y-142441666D02*
X257006033Y-142441666D01*
X257006033Y-142441666D02*
X256872700Y-142474999D01*
X256872700Y-142474999D02*
X256806033Y-142508333D01*
X256806033Y-142508333D02*
X256739366Y-142574999D01*
X256739366Y-142574999D02*
X256706033Y-142674999D01*
X256706033Y-142674999D02*
X256706033Y-142741666D01*
X256706033Y-142741666D02*
X256739366Y-142841666D01*
X256739366Y-142841666D02*
X256772700Y-142874999D01*
X256706033Y-143108333D02*
X256706033Y-143541666D01*
X256706033Y-143541666D02*
X256972700Y-143308333D01*
X256972700Y-143308333D02*
X256972700Y-143408333D01*
X256972700Y-143408333D02*
X257006033Y-143474999D01*
X257006033Y-143474999D02*
X257039366Y-143508333D01*
X257039366Y-143508333D02*
X257106033Y-143541666D01*
X257106033Y-143541666D02*
X257272700Y-143541666D01*
X257272700Y-143541666D02*
X257339366Y-143508333D01*
X257339366Y-143508333D02*
X257372700Y-143474999D01*
X257372700Y-143474999D02*
X257406033Y-143408333D01*
X257406033Y-143408333D02*
X257406033Y-143208333D01*
X257406033Y-143208333D02*
X257372700Y-143141666D01*
X257372700Y-143141666D02*
X257339366Y-143108333D01*
X256706033Y-143775000D02*
X256706033Y-144208333D01*
X256706033Y-144208333D02*
X256972700Y-143975000D01*
X256972700Y-143975000D02*
X256972700Y-144075000D01*
X256972700Y-144075000D02*
X257006033Y-144141666D01*
X257006033Y-144141666D02*
X257039366Y-144175000D01*
X257039366Y-144175000D02*
X257106033Y-144208333D01*
X257106033Y-144208333D02*
X257272700Y-144208333D01*
X257272700Y-144208333D02*
X257339366Y-144175000D01*
X257339366Y-144175000D02*
X257372700Y-144141666D01*
X257372700Y-144141666D02*
X257406033Y-144075000D01*
X257406033Y-144075000D02*
X257406033Y-143875000D01*
X257406033Y-143875000D02*
X257372700Y-143808333D01*
X257372700Y-143808333D02*
X257339366Y-143775000D01*
X160629366Y-133889999D02*
X160662700Y-133856666D01*
X160662700Y-133856666D02*
X160696033Y-133756666D01*
X160696033Y-133756666D02*
X160696033Y-133689999D01*
X160696033Y-133689999D02*
X160662700Y-133589999D01*
X160662700Y-133589999D02*
X160596033Y-133523333D01*
X160596033Y-133523333D02*
X160529366Y-133489999D01*
X160529366Y-133489999D02*
X160396033Y-133456666D01*
X160396033Y-133456666D02*
X160296033Y-133456666D01*
X160296033Y-133456666D02*
X160162700Y-133489999D01*
X160162700Y-133489999D02*
X160096033Y-133523333D01*
X160096033Y-133523333D02*
X160029366Y-133589999D01*
X160029366Y-133589999D02*
X159996033Y-133689999D01*
X159996033Y-133689999D02*
X159996033Y-133756666D01*
X159996033Y-133756666D02*
X160029366Y-133856666D01*
X160029366Y-133856666D02*
X160062700Y-133889999D01*
X160696033Y-134556666D02*
X160696033Y-134156666D01*
X160696033Y-134356666D02*
X159996033Y-134356666D01*
X159996033Y-134356666D02*
X160096033Y-134289999D01*
X160096033Y-134289999D02*
X160162700Y-134223333D01*
X160162700Y-134223333D02*
X160196033Y-134156666D01*
X160296033Y-134956666D02*
X160262700Y-134890000D01*
X160262700Y-134890000D02*
X160229366Y-134856666D01*
X160229366Y-134856666D02*
X160162700Y-134823333D01*
X160162700Y-134823333D02*
X160129366Y-134823333D01*
X160129366Y-134823333D02*
X160062700Y-134856666D01*
X160062700Y-134856666D02*
X160029366Y-134890000D01*
X160029366Y-134890000D02*
X159996033Y-134956666D01*
X159996033Y-134956666D02*
X159996033Y-135090000D01*
X159996033Y-135090000D02*
X160029366Y-135156666D01*
X160029366Y-135156666D02*
X160062700Y-135190000D01*
X160062700Y-135190000D02*
X160129366Y-135223333D01*
X160129366Y-135223333D02*
X160162700Y-135223333D01*
X160162700Y-135223333D02*
X160229366Y-135190000D01*
X160229366Y-135190000D02*
X160262700Y-135156666D01*
X160262700Y-135156666D02*
X160296033Y-135090000D01*
X160296033Y-135090000D02*
X160296033Y-134956666D01*
X160296033Y-134956666D02*
X160329366Y-134890000D01*
X160329366Y-134890000D02*
X160362700Y-134856666D01*
X160362700Y-134856666D02*
X160429366Y-134823333D01*
X160429366Y-134823333D02*
X160562700Y-134823333D01*
X160562700Y-134823333D02*
X160629366Y-134856666D01*
X160629366Y-134856666D02*
X160662700Y-134890000D01*
X160662700Y-134890000D02*
X160696033Y-134956666D01*
X160696033Y-134956666D02*
X160696033Y-135090000D01*
X160696033Y-135090000D02*
X160662700Y-135156666D01*
X160662700Y-135156666D02*
X160629366Y-135190000D01*
X160629366Y-135190000D02*
X160562700Y-135223333D01*
X160562700Y-135223333D02*
X160429366Y-135223333D01*
X160429366Y-135223333D02*
X160362700Y-135190000D01*
X160362700Y-135190000D02*
X160329366Y-135156666D01*
X160329366Y-135156666D02*
X160296033Y-135090000D01*
X134439366Y-130929999D02*
X134472700Y-130896666D01*
X134472700Y-130896666D02*
X134506033Y-130796666D01*
X134506033Y-130796666D02*
X134506033Y-130729999D01*
X134506033Y-130729999D02*
X134472700Y-130629999D01*
X134472700Y-130629999D02*
X134406033Y-130563333D01*
X134406033Y-130563333D02*
X134339366Y-130529999D01*
X134339366Y-130529999D02*
X134206033Y-130496666D01*
X134206033Y-130496666D02*
X134106033Y-130496666D01*
X134106033Y-130496666D02*
X133972700Y-130529999D01*
X133972700Y-130529999D02*
X133906033Y-130563333D01*
X133906033Y-130563333D02*
X133839366Y-130629999D01*
X133839366Y-130629999D02*
X133806033Y-130729999D01*
X133806033Y-130729999D02*
X133806033Y-130796666D01*
X133806033Y-130796666D02*
X133839366Y-130896666D01*
X133839366Y-130896666D02*
X133872700Y-130929999D01*
X134506033Y-131596666D02*
X134506033Y-131196666D01*
X134506033Y-131396666D02*
X133806033Y-131396666D01*
X133806033Y-131396666D02*
X133906033Y-131329999D01*
X133906033Y-131329999D02*
X133972700Y-131263333D01*
X133972700Y-131263333D02*
X134006033Y-131196666D01*
X134039366Y-132196666D02*
X134506033Y-132196666D01*
X133772700Y-132030000D02*
X134272700Y-131863333D01*
X134272700Y-131863333D02*
X134272700Y-132296666D01*
X191186033Y-123639999D02*
X190852700Y-123406666D01*
X191186033Y-123239999D02*
X190486033Y-123239999D01*
X190486033Y-123239999D02*
X190486033Y-123506666D01*
X190486033Y-123506666D02*
X190519366Y-123573333D01*
X190519366Y-123573333D02*
X190552700Y-123606666D01*
X190552700Y-123606666D02*
X190619366Y-123639999D01*
X190619366Y-123639999D02*
X190719366Y-123639999D01*
X190719366Y-123639999D02*
X190786033Y-123606666D01*
X190786033Y-123606666D02*
X190819366Y-123573333D01*
X190819366Y-123573333D02*
X190852700Y-123506666D01*
X190852700Y-123506666D02*
X190852700Y-123239999D01*
X190486033Y-123873333D02*
X190486033Y-124306666D01*
X190486033Y-124306666D02*
X190752700Y-124073333D01*
X190752700Y-124073333D02*
X190752700Y-124173333D01*
X190752700Y-124173333D02*
X190786033Y-124239999D01*
X190786033Y-124239999D02*
X190819366Y-124273333D01*
X190819366Y-124273333D02*
X190886033Y-124306666D01*
X190886033Y-124306666D02*
X191052700Y-124306666D01*
X191052700Y-124306666D02*
X191119366Y-124273333D01*
X191119366Y-124273333D02*
X191152700Y-124239999D01*
X191152700Y-124239999D02*
X191186033Y-124173333D01*
X191186033Y-124173333D02*
X191186033Y-123973333D01*
X191186033Y-123973333D02*
X191152700Y-123906666D01*
X191152700Y-123906666D02*
X191119366Y-123873333D01*
X190786033Y-124706666D02*
X190752700Y-124640000D01*
X190752700Y-124640000D02*
X190719366Y-124606666D01*
X190719366Y-124606666D02*
X190652700Y-124573333D01*
X190652700Y-124573333D02*
X190619366Y-124573333D01*
X190619366Y-124573333D02*
X190552700Y-124606666D01*
X190552700Y-124606666D02*
X190519366Y-124640000D01*
X190519366Y-124640000D02*
X190486033Y-124706666D01*
X190486033Y-124706666D02*
X190486033Y-124840000D01*
X190486033Y-124840000D02*
X190519366Y-124906666D01*
X190519366Y-124906666D02*
X190552700Y-124940000D01*
X190552700Y-124940000D02*
X190619366Y-124973333D01*
X190619366Y-124973333D02*
X190652700Y-124973333D01*
X190652700Y-124973333D02*
X190719366Y-124940000D01*
X190719366Y-124940000D02*
X190752700Y-124906666D01*
X190752700Y-124906666D02*
X190786033Y-124840000D01*
X190786033Y-124840000D02*
X190786033Y-124706666D01*
X190786033Y-124706666D02*
X190819366Y-124640000D01*
X190819366Y-124640000D02*
X190852700Y-124606666D01*
X190852700Y-124606666D02*
X190919366Y-124573333D01*
X190919366Y-124573333D02*
X191052700Y-124573333D01*
X191052700Y-124573333D02*
X191119366Y-124606666D01*
X191119366Y-124606666D02*
X191152700Y-124640000D01*
X191152700Y-124640000D02*
X191186033Y-124706666D01*
X191186033Y-124706666D02*
X191186033Y-124840000D01*
X191186033Y-124840000D02*
X191152700Y-124906666D01*
X191152700Y-124906666D02*
X191119366Y-124940000D01*
X191119366Y-124940000D02*
X191052700Y-124973333D01*
X191052700Y-124973333D02*
X190919366Y-124973333D01*
X190919366Y-124973333D02*
X190852700Y-124940000D01*
X190852700Y-124940000D02*
X190819366Y-124906666D01*
X190819366Y-124906666D02*
X190786033Y-124840000D01*
X258315704Y-137159819D02*
X258315704Y-137969342D01*
X258315704Y-137969342D02*
X258268085Y-138064580D01*
X258268085Y-138064580D02*
X258220466Y-138112200D01*
X258220466Y-138112200D02*
X258125228Y-138159819D01*
X258125228Y-138159819D02*
X257934752Y-138159819D01*
X257934752Y-138159819D02*
X257839514Y-138112200D01*
X257839514Y-138112200D02*
X257791895Y-138064580D01*
X257791895Y-138064580D02*
X257744276Y-137969342D01*
X257744276Y-137969342D02*
X257744276Y-137159819D01*
X257125228Y-137588390D02*
X257220466Y-137540771D01*
X257220466Y-137540771D02*
X257268085Y-137493152D01*
X257268085Y-137493152D02*
X257315704Y-137397914D01*
X257315704Y-137397914D02*
X257315704Y-137350295D01*
X257315704Y-137350295D02*
X257268085Y-137255057D01*
X257268085Y-137255057D02*
X257220466Y-137207438D01*
X257220466Y-137207438D02*
X257125228Y-137159819D01*
X257125228Y-137159819D02*
X256934752Y-137159819D01*
X256934752Y-137159819D02*
X256839514Y-137207438D01*
X256839514Y-137207438D02*
X256791895Y-137255057D01*
X256791895Y-137255057D02*
X256744276Y-137350295D01*
X256744276Y-137350295D02*
X256744276Y-137397914D01*
X256744276Y-137397914D02*
X256791895Y-137493152D01*
X256791895Y-137493152D02*
X256839514Y-137540771D01*
X256839514Y-137540771D02*
X256934752Y-137588390D01*
X256934752Y-137588390D02*
X257125228Y-137588390D01*
X257125228Y-137588390D02*
X257220466Y-137636009D01*
X257220466Y-137636009D02*
X257268085Y-137683628D01*
X257268085Y-137683628D02*
X257315704Y-137778866D01*
X257315704Y-137778866D02*
X257315704Y-137969342D01*
X257315704Y-137969342D02*
X257268085Y-138064580D01*
X257268085Y-138064580D02*
X257220466Y-138112200D01*
X257220466Y-138112200D02*
X257125228Y-138159819D01*
X257125228Y-138159819D02*
X256934752Y-138159819D01*
X256934752Y-138159819D02*
X256839514Y-138112200D01*
X256839514Y-138112200D02*
X256791895Y-138064580D01*
X256791895Y-138064580D02*
X256744276Y-137969342D01*
X256744276Y-137969342D02*
X256744276Y-137778866D01*
X256744276Y-137778866D02*
X256791895Y-137683628D01*
X256791895Y-137683628D02*
X256839514Y-137636009D01*
X256839514Y-137636009D02*
X256934752Y-137588390D01*
X260271599Y-133553019D02*
X260271599Y-133791114D01*
X260509694Y-133695876D02*
X260271599Y-133791114D01*
X260271599Y-133791114D02*
X260033504Y-133695876D01*
X260414456Y-133981590D02*
X260271599Y-133791114D01*
X260271599Y-133791114D02*
X260128742Y-133981590D01*
X260271599Y-133553019D02*
X260271599Y-133791114D01*
X260509694Y-133695876D02*
X260271599Y-133791114D01*
X260271599Y-133791114D02*
X260033504Y-133695876D01*
X260414456Y-133981590D02*
X260271599Y-133791114D01*
X260271599Y-133791114D02*
X260128742Y-133981590D01*
X214150000Y-137219366D02*
X214183333Y-137252700D01*
X214183333Y-137252700D02*
X214283333Y-137286033D01*
X214283333Y-137286033D02*
X214350000Y-137286033D01*
X214350000Y-137286033D02*
X214450000Y-137252700D01*
X214450000Y-137252700D02*
X214516667Y-137186033D01*
X214516667Y-137186033D02*
X214550000Y-137119366D01*
X214550000Y-137119366D02*
X214583333Y-136986033D01*
X214583333Y-136986033D02*
X214583333Y-136886033D01*
X214583333Y-136886033D02*
X214550000Y-136752700D01*
X214550000Y-136752700D02*
X214516667Y-136686033D01*
X214516667Y-136686033D02*
X214450000Y-136619366D01*
X214450000Y-136619366D02*
X214350000Y-136586033D01*
X214350000Y-136586033D02*
X214283333Y-136586033D01*
X214283333Y-136586033D02*
X214183333Y-136619366D01*
X214183333Y-136619366D02*
X214150000Y-136652700D01*
X213883333Y-136652700D02*
X213850000Y-136619366D01*
X213850000Y-136619366D02*
X213783333Y-136586033D01*
X213783333Y-136586033D02*
X213616667Y-136586033D01*
X213616667Y-136586033D02*
X213550000Y-136619366D01*
X213550000Y-136619366D02*
X213516667Y-136652700D01*
X213516667Y-136652700D02*
X213483333Y-136719366D01*
X213483333Y-136719366D02*
X213483333Y-136786033D01*
X213483333Y-136786033D02*
X213516667Y-136886033D01*
X213516667Y-136886033D02*
X213916667Y-137286033D01*
X213916667Y-137286033D02*
X213483333Y-137286033D01*
X212850000Y-136586033D02*
X213183333Y-136586033D01*
X213183333Y-136586033D02*
X213216666Y-136919366D01*
X213216666Y-136919366D02*
X213183333Y-136886033D01*
X213183333Y-136886033D02*
X213116666Y-136852700D01*
X213116666Y-136852700D02*
X212950000Y-136852700D01*
X212950000Y-136852700D02*
X212883333Y-136886033D01*
X212883333Y-136886033D02*
X212850000Y-136919366D01*
X212850000Y-136919366D02*
X212816666Y-136986033D01*
X212816666Y-136986033D02*
X212816666Y-137152700D01*
X212816666Y-137152700D02*
X212850000Y-137219366D01*
X212850000Y-137219366D02*
X212883333Y-137252700D01*
X212883333Y-137252700D02*
X212950000Y-137286033D01*
X212950000Y-137286033D02*
X213116666Y-137286033D01*
X213116666Y-137286033D02*
X213183333Y-137252700D01*
X213183333Y-137252700D02*
X213216666Y-137219366D01*
X184969366Y-132399999D02*
X185002700Y-132366666D01*
X185002700Y-132366666D02*
X185036033Y-132266666D01*
X185036033Y-132266666D02*
X185036033Y-132199999D01*
X185036033Y-132199999D02*
X185002700Y-132099999D01*
X185002700Y-132099999D02*
X184936033Y-132033333D01*
X184936033Y-132033333D02*
X184869366Y-131999999D01*
X184869366Y-131999999D02*
X184736033Y-131966666D01*
X184736033Y-131966666D02*
X184636033Y-131966666D01*
X184636033Y-131966666D02*
X184502700Y-131999999D01*
X184502700Y-131999999D02*
X184436033Y-132033333D01*
X184436033Y-132033333D02*
X184369366Y-132099999D01*
X184369366Y-132099999D02*
X184336033Y-132199999D01*
X184336033Y-132199999D02*
X184336033Y-132266666D01*
X184336033Y-132266666D02*
X184369366Y-132366666D01*
X184369366Y-132366666D02*
X184402700Y-132399999D01*
X185036033Y-133066666D02*
X185036033Y-132666666D01*
X185036033Y-132866666D02*
X184336033Y-132866666D01*
X184336033Y-132866666D02*
X184436033Y-132799999D01*
X184436033Y-132799999D02*
X184502700Y-132733333D01*
X184502700Y-132733333D02*
X184536033Y-132666666D01*
X184336033Y-133666666D02*
X184336033Y-133533333D01*
X184336033Y-133533333D02*
X184369366Y-133466666D01*
X184369366Y-133466666D02*
X184402700Y-133433333D01*
X184402700Y-133433333D02*
X184502700Y-133366666D01*
X184502700Y-133366666D02*
X184636033Y-133333333D01*
X184636033Y-133333333D02*
X184902700Y-133333333D01*
X184902700Y-133333333D02*
X184969366Y-133366666D01*
X184969366Y-133366666D02*
X185002700Y-133400000D01*
X185002700Y-133400000D02*
X185036033Y-133466666D01*
X185036033Y-133466666D02*
X185036033Y-133600000D01*
X185036033Y-133600000D02*
X185002700Y-133666666D01*
X185002700Y-133666666D02*
X184969366Y-133700000D01*
X184969366Y-133700000D02*
X184902700Y-133733333D01*
X184902700Y-133733333D02*
X184736033Y-133733333D01*
X184736033Y-133733333D02*
X184669366Y-133700000D01*
X184669366Y-133700000D02*
X184636033Y-133666666D01*
X184636033Y-133666666D02*
X184602700Y-133600000D01*
X184602700Y-133600000D02*
X184602700Y-133466666D01*
X184602700Y-133466666D02*
X184636033Y-133400000D01*
X184636033Y-133400000D02*
X184669366Y-133366666D01*
X184669366Y-133366666D02*
X184736033Y-133333333D01*
X165719366Y-131299999D02*
X165752700Y-131266666D01*
X165752700Y-131266666D02*
X165786033Y-131166666D01*
X165786033Y-131166666D02*
X165786033Y-131099999D01*
X165786033Y-131099999D02*
X165752700Y-130999999D01*
X165752700Y-130999999D02*
X165686033Y-130933333D01*
X165686033Y-130933333D02*
X165619366Y-130899999D01*
X165619366Y-130899999D02*
X165486033Y-130866666D01*
X165486033Y-130866666D02*
X165386033Y-130866666D01*
X165386033Y-130866666D02*
X165252700Y-130899999D01*
X165252700Y-130899999D02*
X165186033Y-130933333D01*
X165186033Y-130933333D02*
X165119366Y-130999999D01*
X165119366Y-130999999D02*
X165086033Y-131099999D01*
X165086033Y-131099999D02*
X165086033Y-131166666D01*
X165086033Y-131166666D02*
X165119366Y-131266666D01*
X165119366Y-131266666D02*
X165152700Y-131299999D01*
X165152700Y-131566666D02*
X165119366Y-131599999D01*
X165119366Y-131599999D02*
X165086033Y-131666666D01*
X165086033Y-131666666D02*
X165086033Y-131833333D01*
X165086033Y-131833333D02*
X165119366Y-131899999D01*
X165119366Y-131899999D02*
X165152700Y-131933333D01*
X165152700Y-131933333D02*
X165219366Y-131966666D01*
X165219366Y-131966666D02*
X165286033Y-131966666D01*
X165286033Y-131966666D02*
X165386033Y-131933333D01*
X165386033Y-131933333D02*
X165786033Y-131533333D01*
X165786033Y-131533333D02*
X165786033Y-131966666D01*
X165786033Y-132633333D02*
X165786033Y-132233333D01*
X165786033Y-132433333D02*
X165086033Y-132433333D01*
X165086033Y-132433333D02*
X165186033Y-132366666D01*
X165186033Y-132366666D02*
X165252700Y-132300000D01*
X165252700Y-132300000D02*
X165286033Y-132233333D01*
X202184366Y-145579999D02*
X202217700Y-145546666D01*
X202217700Y-145546666D02*
X202251033Y-145446666D01*
X202251033Y-145446666D02*
X202251033Y-145379999D01*
X202251033Y-145379999D02*
X202217700Y-145279999D01*
X202217700Y-145279999D02*
X202151033Y-145213333D01*
X202151033Y-145213333D02*
X202084366Y-145179999D01*
X202084366Y-145179999D02*
X201951033Y-145146666D01*
X201951033Y-145146666D02*
X201851033Y-145146666D01*
X201851033Y-145146666D02*
X201717700Y-145179999D01*
X201717700Y-145179999D02*
X201651033Y-145213333D01*
X201651033Y-145213333D02*
X201584366Y-145279999D01*
X201584366Y-145279999D02*
X201551033Y-145379999D01*
X201551033Y-145379999D02*
X201551033Y-145446666D01*
X201551033Y-145446666D02*
X201584366Y-145546666D01*
X201584366Y-145546666D02*
X201617700Y-145579999D01*
X201551033Y-145813333D02*
X201551033Y-146246666D01*
X201551033Y-146246666D02*
X201817700Y-146013333D01*
X201817700Y-146013333D02*
X201817700Y-146113333D01*
X201817700Y-146113333D02*
X201851033Y-146179999D01*
X201851033Y-146179999D02*
X201884366Y-146213333D01*
X201884366Y-146213333D02*
X201951033Y-146246666D01*
X201951033Y-146246666D02*
X202117700Y-146246666D01*
X202117700Y-146246666D02*
X202184366Y-146213333D01*
X202184366Y-146213333D02*
X202217700Y-146179999D01*
X202217700Y-146179999D02*
X202251033Y-146113333D01*
X202251033Y-146113333D02*
X202251033Y-145913333D01*
X202251033Y-145913333D02*
X202217700Y-145846666D01*
X202217700Y-145846666D02*
X202184366Y-145813333D01*
X201551033Y-146880000D02*
X201551033Y-146546666D01*
X201551033Y-146546666D02*
X201884366Y-146513333D01*
X201884366Y-146513333D02*
X201851033Y-146546666D01*
X201851033Y-146546666D02*
X201817700Y-146613333D01*
X201817700Y-146613333D02*
X201817700Y-146780000D01*
X201817700Y-146780000D02*
X201851033Y-146846666D01*
X201851033Y-146846666D02*
X201884366Y-146880000D01*
X201884366Y-146880000D02*
X201951033Y-146913333D01*
X201951033Y-146913333D02*
X202117700Y-146913333D01*
X202117700Y-146913333D02*
X202184366Y-146880000D01*
X202184366Y-146880000D02*
X202217700Y-146846666D01*
X202217700Y-146846666D02*
X202251033Y-146780000D01*
X202251033Y-146780000D02*
X202251033Y-146613333D01*
X202251033Y-146613333D02*
X202217700Y-146546666D01*
X202217700Y-146546666D02*
X202184366Y-146513333D01*
X255646033Y-142874999D02*
X255312700Y-142641666D01*
X255646033Y-142474999D02*
X254946033Y-142474999D01*
X254946033Y-142474999D02*
X254946033Y-142741666D01*
X254946033Y-142741666D02*
X254979366Y-142808333D01*
X254979366Y-142808333D02*
X255012700Y-142841666D01*
X255012700Y-142841666D02*
X255079366Y-142874999D01*
X255079366Y-142874999D02*
X255179366Y-142874999D01*
X255179366Y-142874999D02*
X255246033Y-142841666D01*
X255246033Y-142841666D02*
X255279366Y-142808333D01*
X255279366Y-142808333D02*
X255312700Y-142741666D01*
X255312700Y-142741666D02*
X255312700Y-142474999D01*
X254946033Y-143108333D02*
X254946033Y-143541666D01*
X254946033Y-143541666D02*
X255212700Y-143308333D01*
X255212700Y-143308333D02*
X255212700Y-143408333D01*
X255212700Y-143408333D02*
X255246033Y-143474999D01*
X255246033Y-143474999D02*
X255279366Y-143508333D01*
X255279366Y-143508333D02*
X255346033Y-143541666D01*
X255346033Y-143541666D02*
X255512700Y-143541666D01*
X255512700Y-143541666D02*
X255579366Y-143508333D01*
X255579366Y-143508333D02*
X255612700Y-143474999D01*
X255612700Y-143474999D02*
X255646033Y-143408333D01*
X255646033Y-143408333D02*
X255646033Y-143208333D01*
X255646033Y-143208333D02*
X255612700Y-143141666D01*
X255612700Y-143141666D02*
X255579366Y-143108333D01*
X255012700Y-143808333D02*
X254979366Y-143841666D01*
X254979366Y-143841666D02*
X254946033Y-143908333D01*
X254946033Y-143908333D02*
X254946033Y-144075000D01*
X254946033Y-144075000D02*
X254979366Y-144141666D01*
X254979366Y-144141666D02*
X255012700Y-144175000D01*
X255012700Y-144175000D02*
X255079366Y-144208333D01*
X255079366Y-144208333D02*
X255146033Y-144208333D01*
X255146033Y-144208333D02*
X255246033Y-144175000D01*
X255246033Y-144175000D02*
X255646033Y-143775000D01*
X255646033Y-143775000D02*
X255646033Y-144208333D01*
X259510000Y-142621033D02*
X259743333Y-142287700D01*
X259910000Y-142621033D02*
X259910000Y-141921033D01*
X259910000Y-141921033D02*
X259643333Y-141921033D01*
X259643333Y-141921033D02*
X259576667Y-141954366D01*
X259576667Y-141954366D02*
X259543333Y-141987700D01*
X259543333Y-141987700D02*
X259510000Y-142054366D01*
X259510000Y-142054366D02*
X259510000Y-142154366D01*
X259510000Y-142154366D02*
X259543333Y-142221033D01*
X259543333Y-142221033D02*
X259576667Y-142254366D01*
X259576667Y-142254366D02*
X259643333Y-142287700D01*
X259643333Y-142287700D02*
X259910000Y-142287700D01*
X259276667Y-141921033D02*
X258843333Y-141921033D01*
X258843333Y-141921033D02*
X259076667Y-142187700D01*
X259076667Y-142187700D02*
X258976667Y-142187700D01*
X258976667Y-142187700D02*
X258910000Y-142221033D01*
X258910000Y-142221033D02*
X258876667Y-142254366D01*
X258876667Y-142254366D02*
X258843333Y-142321033D01*
X258843333Y-142321033D02*
X258843333Y-142487700D01*
X258843333Y-142487700D02*
X258876667Y-142554366D01*
X258876667Y-142554366D02*
X258910000Y-142587700D01*
X258910000Y-142587700D02*
X258976667Y-142621033D01*
X258976667Y-142621033D02*
X259176667Y-142621033D01*
X259176667Y-142621033D02*
X259243333Y-142587700D01*
X259243333Y-142587700D02*
X259276667Y-142554366D01*
X258410000Y-141921033D02*
X258343333Y-141921033D01*
X258343333Y-141921033D02*
X258276666Y-141954366D01*
X258276666Y-141954366D02*
X258243333Y-141987700D01*
X258243333Y-141987700D02*
X258210000Y-142054366D01*
X258210000Y-142054366D02*
X258176666Y-142187700D01*
X258176666Y-142187700D02*
X258176666Y-142354366D01*
X258176666Y-142354366D02*
X258210000Y-142487700D01*
X258210000Y-142487700D02*
X258243333Y-142554366D01*
X258243333Y-142554366D02*
X258276666Y-142587700D01*
X258276666Y-142587700D02*
X258343333Y-142621033D01*
X258343333Y-142621033D02*
X258410000Y-142621033D01*
X258410000Y-142621033D02*
X258476666Y-142587700D01*
X258476666Y-142587700D02*
X258510000Y-142554366D01*
X258510000Y-142554366D02*
X258543333Y-142487700D01*
X258543333Y-142487700D02*
X258576666Y-142354366D01*
X258576666Y-142354366D02*
X258576666Y-142187700D01*
X258576666Y-142187700D02*
X258543333Y-142054366D01*
X258543333Y-142054366D02*
X258510000Y-141987700D01*
X258510000Y-141987700D02*
X258476666Y-141954366D01*
X258476666Y-141954366D02*
X258410000Y-141921033D01*
X263024819Y-144118095D02*
X263834342Y-144118095D01*
X263834342Y-144118095D02*
X263929580Y-144165714D01*
X263929580Y-144165714D02*
X263977200Y-144213333D01*
X263977200Y-144213333D02*
X264024819Y-144308571D01*
X264024819Y-144308571D02*
X264024819Y-144499047D01*
X264024819Y-144499047D02*
X263977200Y-144594285D01*
X263977200Y-144594285D02*
X263929580Y-144641904D01*
X263929580Y-144641904D02*
X263834342Y-144689523D01*
X263834342Y-144689523D02*
X263024819Y-144689523D01*
X264024819Y-145213333D02*
X264024819Y-145403809D01*
X264024819Y-145403809D02*
X263977200Y-145499047D01*
X263977200Y-145499047D02*
X263929580Y-145546666D01*
X263929580Y-145546666D02*
X263786723Y-145641904D01*
X263786723Y-145641904D02*
X263596247Y-145689523D01*
X263596247Y-145689523D02*
X263215295Y-145689523D01*
X263215295Y-145689523D02*
X263120057Y-145641904D01*
X263120057Y-145641904D02*
X263072438Y-145594285D01*
X263072438Y-145594285D02*
X263024819Y-145499047D01*
X263024819Y-145499047D02*
X263024819Y-145308571D01*
X263024819Y-145308571D02*
X263072438Y-145213333D01*
X263072438Y-145213333D02*
X263120057Y-145165714D01*
X263120057Y-145165714D02*
X263215295Y-145118095D01*
X263215295Y-145118095D02*
X263453390Y-145118095D01*
X263453390Y-145118095D02*
X263548628Y-145165714D01*
X263548628Y-145165714D02*
X263596247Y-145213333D01*
X263596247Y-145213333D02*
X263643866Y-145308571D01*
X263643866Y-145308571D02*
X263643866Y-145499047D01*
X263643866Y-145499047D02*
X263596247Y-145594285D01*
X263596247Y-145594285D02*
X263548628Y-145641904D01*
X263548628Y-145641904D02*
X263453390Y-145689523D01*
X215799366Y-116879999D02*
X215832700Y-116846666D01*
X215832700Y-116846666D02*
X215866033Y-116746666D01*
X215866033Y-116746666D02*
X215866033Y-116679999D01*
X215866033Y-116679999D02*
X215832700Y-116579999D01*
X215832700Y-116579999D02*
X215766033Y-116513333D01*
X215766033Y-116513333D02*
X215699366Y-116479999D01*
X215699366Y-116479999D02*
X215566033Y-116446666D01*
X215566033Y-116446666D02*
X215466033Y-116446666D01*
X215466033Y-116446666D02*
X215332700Y-116479999D01*
X215332700Y-116479999D02*
X215266033Y-116513333D01*
X215266033Y-116513333D02*
X215199366Y-116579999D01*
X215199366Y-116579999D02*
X215166033Y-116679999D01*
X215166033Y-116679999D02*
X215166033Y-116746666D01*
X215166033Y-116746666D02*
X215199366Y-116846666D01*
X215199366Y-116846666D02*
X215232700Y-116879999D01*
X215232700Y-117146666D02*
X215199366Y-117179999D01*
X215199366Y-117179999D02*
X215166033Y-117246666D01*
X215166033Y-117246666D02*
X215166033Y-117413333D01*
X215166033Y-117413333D02*
X215199366Y-117479999D01*
X215199366Y-117479999D02*
X215232700Y-117513333D01*
X215232700Y-117513333D02*
X215299366Y-117546666D01*
X215299366Y-117546666D02*
X215366033Y-117546666D01*
X215366033Y-117546666D02*
X215466033Y-117513333D01*
X215466033Y-117513333D02*
X215866033Y-117113333D01*
X215866033Y-117113333D02*
X215866033Y-117546666D01*
X215166033Y-118146666D02*
X215166033Y-118013333D01*
X215166033Y-118013333D02*
X215199366Y-117946666D01*
X215199366Y-117946666D02*
X215232700Y-117913333D01*
X215232700Y-117913333D02*
X215332700Y-117846666D01*
X215332700Y-117846666D02*
X215466033Y-117813333D01*
X215466033Y-117813333D02*
X215732700Y-117813333D01*
X215732700Y-117813333D02*
X215799366Y-117846666D01*
X215799366Y-117846666D02*
X215832700Y-117880000D01*
X215832700Y-117880000D02*
X215866033Y-117946666D01*
X215866033Y-117946666D02*
X215866033Y-118080000D01*
X215866033Y-118080000D02*
X215832700Y-118146666D01*
X215832700Y-118146666D02*
X215799366Y-118180000D01*
X215799366Y-118180000D02*
X215732700Y-118213333D01*
X215732700Y-118213333D02*
X215566033Y-118213333D01*
X215566033Y-118213333D02*
X215499366Y-118180000D01*
X215499366Y-118180000D02*
X215466033Y-118146666D01*
X215466033Y-118146666D02*
X215432700Y-118080000D01*
X215432700Y-118080000D02*
X215432700Y-117946666D01*
X215432700Y-117946666D02*
X215466033Y-117880000D01*
X215466033Y-117880000D02*
X215499366Y-117846666D01*
X215499366Y-117846666D02*
X215566033Y-117813333D01*
X183706033Y-132399999D02*
X183372700Y-132166666D01*
X183706033Y-131999999D02*
X183006033Y-131999999D01*
X183006033Y-131999999D02*
X183006033Y-132266666D01*
X183006033Y-132266666D02*
X183039366Y-132333333D01*
X183039366Y-132333333D02*
X183072700Y-132366666D01*
X183072700Y-132366666D02*
X183139366Y-132399999D01*
X183139366Y-132399999D02*
X183239366Y-132399999D01*
X183239366Y-132399999D02*
X183306033Y-132366666D01*
X183306033Y-132366666D02*
X183339366Y-132333333D01*
X183339366Y-132333333D02*
X183372700Y-132266666D01*
X183372700Y-132266666D02*
X183372700Y-131999999D01*
X183706033Y-133066666D02*
X183706033Y-132666666D01*
X183706033Y-132866666D02*
X183006033Y-132866666D01*
X183006033Y-132866666D02*
X183106033Y-132799999D01*
X183106033Y-132799999D02*
X183172700Y-132733333D01*
X183172700Y-132733333D02*
X183206033Y-132666666D01*
X183072700Y-133333333D02*
X183039366Y-133366666D01*
X183039366Y-133366666D02*
X183006033Y-133433333D01*
X183006033Y-133433333D02*
X183006033Y-133600000D01*
X183006033Y-133600000D02*
X183039366Y-133666666D01*
X183039366Y-133666666D02*
X183072700Y-133700000D01*
X183072700Y-133700000D02*
X183139366Y-133733333D01*
X183139366Y-133733333D02*
X183206033Y-133733333D01*
X183206033Y-133733333D02*
X183306033Y-133700000D01*
X183306033Y-133700000D02*
X183706033Y-133300000D01*
X183706033Y-133300000D02*
X183706033Y-133733333D01*
X163819366Y-131289999D02*
X163852700Y-131256666D01*
X163852700Y-131256666D02*
X163886033Y-131156666D01*
X163886033Y-131156666D02*
X163886033Y-131089999D01*
X163886033Y-131089999D02*
X163852700Y-130989999D01*
X163852700Y-130989999D02*
X163786033Y-130923333D01*
X163786033Y-130923333D02*
X163719366Y-130889999D01*
X163719366Y-130889999D02*
X163586033Y-130856666D01*
X163586033Y-130856666D02*
X163486033Y-130856666D01*
X163486033Y-130856666D02*
X163352700Y-130889999D01*
X163352700Y-130889999D02*
X163286033Y-130923333D01*
X163286033Y-130923333D02*
X163219366Y-130989999D01*
X163219366Y-130989999D02*
X163186033Y-131089999D01*
X163186033Y-131089999D02*
X163186033Y-131156666D01*
X163186033Y-131156666D02*
X163219366Y-131256666D01*
X163219366Y-131256666D02*
X163252700Y-131289999D01*
X163252700Y-131556666D02*
X163219366Y-131589999D01*
X163219366Y-131589999D02*
X163186033Y-131656666D01*
X163186033Y-131656666D02*
X163186033Y-131823333D01*
X163186033Y-131823333D02*
X163219366Y-131889999D01*
X163219366Y-131889999D02*
X163252700Y-131923333D01*
X163252700Y-131923333D02*
X163319366Y-131956666D01*
X163319366Y-131956666D02*
X163386033Y-131956666D01*
X163386033Y-131956666D02*
X163486033Y-131923333D01*
X163486033Y-131923333D02*
X163886033Y-131523333D01*
X163886033Y-131523333D02*
X163886033Y-131956666D01*
X163186033Y-132390000D02*
X163186033Y-132456666D01*
X163186033Y-132456666D02*
X163219366Y-132523333D01*
X163219366Y-132523333D02*
X163252700Y-132556666D01*
X163252700Y-132556666D02*
X163319366Y-132590000D01*
X163319366Y-132590000D02*
X163452700Y-132623333D01*
X163452700Y-132623333D02*
X163619366Y-132623333D01*
X163619366Y-132623333D02*
X163752700Y-132590000D01*
X163752700Y-132590000D02*
X163819366Y-132556666D01*
X163819366Y-132556666D02*
X163852700Y-132523333D01*
X163852700Y-132523333D02*
X163886033Y-132456666D01*
X163886033Y-132456666D02*
X163886033Y-132390000D01*
X163886033Y-132390000D02*
X163852700Y-132323333D01*
X163852700Y-132323333D02*
X163819366Y-132290000D01*
X163819366Y-132290000D02*
X163752700Y-132256666D01*
X163752700Y-132256666D02*
X163619366Y-132223333D01*
X163619366Y-132223333D02*
X163452700Y-132223333D01*
X163452700Y-132223333D02*
X163319366Y-132256666D01*
X163319366Y-132256666D02*
X163252700Y-132290000D01*
X163252700Y-132290000D02*
X163219366Y-132323333D01*
X163219366Y-132323333D02*
X163186033Y-132390000D01*
X267809366Y-147169999D02*
X267842700Y-147136666D01*
X267842700Y-147136666D02*
X267876033Y-147036666D01*
X267876033Y-147036666D02*
X267876033Y-146969999D01*
X267876033Y-146969999D02*
X267842700Y-146869999D01*
X267842700Y-146869999D02*
X267776033Y-146803333D01*
X267776033Y-146803333D02*
X267709366Y-146769999D01*
X267709366Y-146769999D02*
X267576033Y-146736666D01*
X267576033Y-146736666D02*
X267476033Y-146736666D01*
X267476033Y-146736666D02*
X267342700Y-146769999D01*
X267342700Y-146769999D02*
X267276033Y-146803333D01*
X267276033Y-146803333D02*
X267209366Y-146869999D01*
X267209366Y-146869999D02*
X267176033Y-146969999D01*
X267176033Y-146969999D02*
X267176033Y-147036666D01*
X267176033Y-147036666D02*
X267209366Y-147136666D01*
X267209366Y-147136666D02*
X267242700Y-147169999D01*
X267242700Y-147436666D02*
X267209366Y-147469999D01*
X267209366Y-147469999D02*
X267176033Y-147536666D01*
X267176033Y-147536666D02*
X267176033Y-147703333D01*
X267176033Y-147703333D02*
X267209366Y-147769999D01*
X267209366Y-147769999D02*
X267242700Y-147803333D01*
X267242700Y-147803333D02*
X267309366Y-147836666D01*
X267309366Y-147836666D02*
X267376033Y-147836666D01*
X267376033Y-147836666D02*
X267476033Y-147803333D01*
X267476033Y-147803333D02*
X267876033Y-147403333D01*
X267876033Y-147403333D02*
X267876033Y-147836666D01*
X267876033Y-148170000D02*
X267876033Y-148303333D01*
X267876033Y-148303333D02*
X267842700Y-148370000D01*
X267842700Y-148370000D02*
X267809366Y-148403333D01*
X267809366Y-148403333D02*
X267709366Y-148470000D01*
X267709366Y-148470000D02*
X267576033Y-148503333D01*
X267576033Y-148503333D02*
X267309366Y-148503333D01*
X267309366Y-148503333D02*
X267242700Y-148470000D01*
X267242700Y-148470000D02*
X267209366Y-148436666D01*
X267209366Y-148436666D02*
X267176033Y-148370000D01*
X267176033Y-148370000D02*
X267176033Y-148236666D01*
X267176033Y-148236666D02*
X267209366Y-148170000D01*
X267209366Y-148170000D02*
X267242700Y-148136666D01*
X267242700Y-148136666D02*
X267309366Y-148103333D01*
X267309366Y-148103333D02*
X267476033Y-148103333D01*
X267476033Y-148103333D02*
X267542700Y-148136666D01*
X267542700Y-148136666D02*
X267576033Y-148170000D01*
X267576033Y-148170000D02*
X267609366Y-148236666D01*
X267609366Y-148236666D02*
X267609366Y-148370000D01*
X267609366Y-148370000D02*
X267576033Y-148436666D01*
X267576033Y-148436666D02*
X267542700Y-148470000D01*
X267542700Y-148470000D02*
X267476033Y-148503333D01*
X169627735Y-137147856D02*
X169663450Y-137112142D01*
X169663450Y-137112142D02*
X169699164Y-137004999D01*
X169699164Y-137004999D02*
X169699164Y-136933571D01*
X169699164Y-136933571D02*
X169663450Y-136826428D01*
X169663450Y-136826428D02*
X169592021Y-136754999D01*
X169592021Y-136754999D02*
X169520592Y-136719285D01*
X169520592Y-136719285D02*
X169377735Y-136683571D01*
X169377735Y-136683571D02*
X169270592Y-136683571D01*
X169270592Y-136683571D02*
X169127735Y-136719285D01*
X169127735Y-136719285D02*
X169056307Y-136754999D01*
X169056307Y-136754999D02*
X168984878Y-136826428D01*
X168984878Y-136826428D02*
X168949164Y-136933571D01*
X168949164Y-136933571D02*
X168949164Y-137004999D01*
X168949164Y-137004999D02*
X168984878Y-137112142D01*
X168984878Y-137112142D02*
X169020592Y-137147856D01*
X169699164Y-137862142D02*
X169699164Y-137433571D01*
X169699164Y-137647856D02*
X168949164Y-137647856D01*
X168949164Y-137647856D02*
X169056307Y-137576428D01*
X169056307Y-137576428D02*
X169127735Y-137504999D01*
X169127735Y-137504999D02*
X169163450Y-137433571D01*
X168949164Y-138112142D02*
X168949164Y-138612142D01*
X168949164Y-138612142D02*
X169699164Y-138290714D01*
X136259366Y-131039999D02*
X136292700Y-131006666D01*
X136292700Y-131006666D02*
X136326033Y-130906666D01*
X136326033Y-130906666D02*
X136326033Y-130839999D01*
X136326033Y-130839999D02*
X136292700Y-130739999D01*
X136292700Y-130739999D02*
X136226033Y-130673333D01*
X136226033Y-130673333D02*
X136159366Y-130639999D01*
X136159366Y-130639999D02*
X136026033Y-130606666D01*
X136026033Y-130606666D02*
X135926033Y-130606666D01*
X135926033Y-130606666D02*
X135792700Y-130639999D01*
X135792700Y-130639999D02*
X135726033Y-130673333D01*
X135726033Y-130673333D02*
X135659366Y-130739999D01*
X135659366Y-130739999D02*
X135626033Y-130839999D01*
X135626033Y-130839999D02*
X135626033Y-130906666D01*
X135626033Y-130906666D02*
X135659366Y-131006666D01*
X135659366Y-131006666D02*
X135692700Y-131039999D01*
X136326033Y-131706666D02*
X136326033Y-131306666D01*
X136326033Y-131506666D02*
X135626033Y-131506666D01*
X135626033Y-131506666D02*
X135726033Y-131439999D01*
X135726033Y-131439999D02*
X135792700Y-131373333D01*
X135792700Y-131373333D02*
X135826033Y-131306666D01*
X135626033Y-132340000D02*
X135626033Y-132006666D01*
X135626033Y-132006666D02*
X135959366Y-131973333D01*
X135959366Y-131973333D02*
X135926033Y-132006666D01*
X135926033Y-132006666D02*
X135892700Y-132073333D01*
X135892700Y-132073333D02*
X135892700Y-132240000D01*
X135892700Y-132240000D02*
X135926033Y-132306666D01*
X135926033Y-132306666D02*
X135959366Y-132340000D01*
X135959366Y-132340000D02*
X136026033Y-132373333D01*
X136026033Y-132373333D02*
X136192700Y-132373333D01*
X136192700Y-132373333D02*
X136259366Y-132340000D01*
X136259366Y-132340000D02*
X136292700Y-132306666D01*
X136292700Y-132306666D02*
X136326033Y-132240000D01*
X136326033Y-132240000D02*
X136326033Y-132073333D01*
X136326033Y-132073333D02*
X136292700Y-132006666D01*
X136292700Y-132006666D02*
X136259366Y-131973333D01*
X132609366Y-130479999D02*
X132642700Y-130446666D01*
X132642700Y-130446666D02*
X132676033Y-130346666D01*
X132676033Y-130346666D02*
X132676033Y-130279999D01*
X132676033Y-130279999D02*
X132642700Y-130179999D01*
X132642700Y-130179999D02*
X132576033Y-130113333D01*
X132576033Y-130113333D02*
X132509366Y-130079999D01*
X132509366Y-130079999D02*
X132376033Y-130046666D01*
X132376033Y-130046666D02*
X132276033Y-130046666D01*
X132276033Y-130046666D02*
X132142700Y-130079999D01*
X132142700Y-130079999D02*
X132076033Y-130113333D01*
X132076033Y-130113333D02*
X132009366Y-130179999D01*
X132009366Y-130179999D02*
X131976033Y-130279999D01*
X131976033Y-130279999D02*
X131976033Y-130346666D01*
X131976033Y-130346666D02*
X132009366Y-130446666D01*
X132009366Y-130446666D02*
X132042700Y-130479999D01*
X132676033Y-131146666D02*
X132676033Y-130746666D01*
X132676033Y-130946666D02*
X131976033Y-130946666D01*
X131976033Y-130946666D02*
X132076033Y-130879999D01*
X132076033Y-130879999D02*
X132142700Y-130813333D01*
X132142700Y-130813333D02*
X132176033Y-130746666D01*
X132042700Y-131413333D02*
X132009366Y-131446666D01*
X132009366Y-131446666D02*
X131976033Y-131513333D01*
X131976033Y-131513333D02*
X131976033Y-131680000D01*
X131976033Y-131680000D02*
X132009366Y-131746666D01*
X132009366Y-131746666D02*
X132042700Y-131780000D01*
X132042700Y-131780000D02*
X132109366Y-131813333D01*
X132109366Y-131813333D02*
X132176033Y-131813333D01*
X132176033Y-131813333D02*
X132276033Y-131780000D01*
X132276033Y-131780000D02*
X132676033Y-131380000D01*
X132676033Y-131380000D02*
X132676033Y-131813333D01*
X266646033Y-147189999D02*
X266312700Y-146956666D01*
X266646033Y-146789999D02*
X265946033Y-146789999D01*
X265946033Y-146789999D02*
X265946033Y-147056666D01*
X265946033Y-147056666D02*
X265979366Y-147123333D01*
X265979366Y-147123333D02*
X266012700Y-147156666D01*
X266012700Y-147156666D02*
X266079366Y-147189999D01*
X266079366Y-147189999D02*
X266179366Y-147189999D01*
X266179366Y-147189999D02*
X266246033Y-147156666D01*
X266246033Y-147156666D02*
X266279366Y-147123333D01*
X266279366Y-147123333D02*
X266312700Y-147056666D01*
X266312700Y-147056666D02*
X266312700Y-146789999D01*
X266012700Y-147456666D02*
X265979366Y-147489999D01*
X265979366Y-147489999D02*
X265946033Y-147556666D01*
X265946033Y-147556666D02*
X265946033Y-147723333D01*
X265946033Y-147723333D02*
X265979366Y-147789999D01*
X265979366Y-147789999D02*
X266012700Y-147823333D01*
X266012700Y-147823333D02*
X266079366Y-147856666D01*
X266079366Y-147856666D02*
X266146033Y-147856666D01*
X266146033Y-147856666D02*
X266246033Y-147823333D01*
X266246033Y-147823333D02*
X266646033Y-147423333D01*
X266646033Y-147423333D02*
X266646033Y-147856666D01*
X266179366Y-148456666D02*
X266646033Y-148456666D01*
X265912700Y-148290000D02*
X266412700Y-148123333D01*
X266412700Y-148123333D02*
X266412700Y-148556666D01*
X175311904Y-131114819D02*
X175311904Y-131924342D01*
X175311904Y-131924342D02*
X175264285Y-132019580D01*
X175264285Y-132019580D02*
X175216666Y-132067200D01*
X175216666Y-132067200D02*
X175121428Y-132114819D01*
X175121428Y-132114819D02*
X174930952Y-132114819D01*
X174930952Y-132114819D02*
X174835714Y-132067200D01*
X174835714Y-132067200D02*
X174788095Y-132019580D01*
X174788095Y-132019580D02*
X174740476Y-131924342D01*
X174740476Y-131924342D02*
X174740476Y-131114819D01*
X174359523Y-131114819D02*
X173740476Y-131114819D01*
X173740476Y-131114819D02*
X174073809Y-131495771D01*
X174073809Y-131495771D02*
X173930952Y-131495771D01*
X173930952Y-131495771D02*
X173835714Y-131543390D01*
X173835714Y-131543390D02*
X173788095Y-131591009D01*
X173788095Y-131591009D02*
X173740476Y-131686247D01*
X173740476Y-131686247D02*
X173740476Y-131924342D01*
X173740476Y-131924342D02*
X173788095Y-132019580D01*
X173788095Y-132019580D02*
X173835714Y-132067200D01*
X173835714Y-132067200D02*
X173930952Y-132114819D01*
X173930952Y-132114819D02*
X174216666Y-132114819D01*
X174216666Y-132114819D02*
X174311904Y-132067200D01*
X174311904Y-132067200D02*
X174359523Y-132019580D01*
D11*
%TO.C,P1*%
X240381000Y-137485400D02*
G75*
G02*
X239619000Y-137485400I-381000J0D01*
G01*
X239619000Y-137485400D02*
G75*
G02*
X240381000Y-137485400I381000J0D01*
G01*
%TO.C,U1*%
D12*
X157258000Y-68935000D02*
X251858000Y-68935000D01*
X251858000Y-107635000D01*
X157258000Y-107635000D01*
X157258000Y-68935000D01*
D11*
%TO.C,P2*%
X240381000Y-121055600D02*
G75*
G02*
X239619000Y-121055600I-381000J0D01*
G01*
X239619000Y-121055600D02*
G75*
G02*
X240381000Y-121055600I381000J0D01*
G01*
D13*
%TO.C,R23*%
X263987500Y-136322742D02*
X263987500Y-136797258D01*
X265032500Y-136322742D02*
X265032500Y-136797258D01*
%TO.C,C36*%
X186920000Y-148171252D02*
X186920000Y-147648748D01*
X188390000Y-148171252D02*
X188390000Y-147648748D01*
%TO.C,C33*%
X256620000Y-145854420D02*
X256620000Y-146135580D01*
X257640000Y-145854420D02*
X257640000Y-146135580D01*
%TO.C,C18*%
X161140000Y-134239420D02*
X161140000Y-134520580D01*
X162160000Y-134239420D02*
X162160000Y-134520580D01*
%TO.C,C14*%
X133650000Y-134069420D02*
X133650000Y-134350580D01*
X134670000Y-134069420D02*
X134670000Y-134350580D01*
%TO.C,R38*%
X191777500Y-124327258D02*
X191777500Y-123852742D01*
X192822500Y-124327258D02*
X192822500Y-123852742D01*
D14*
%TO.C,U8*%
X255432900Y-135076100D02*
X259674700Y-135076100D01*
X259674700Y-140333900D02*
X255432900Y-140333900D01*
D13*
%TO.C,C25*%
X213559420Y-137890000D02*
X213840580Y-137890000D01*
X213559420Y-138910000D02*
X213840580Y-138910000D01*
%TO.C,C16*%
X181300000Y-132619420D02*
X181300000Y-132900580D01*
X182320000Y-132619420D02*
X182320000Y-132900580D01*
%TO.C,C21*%
X164960000Y-134249420D02*
X164960000Y-134530580D01*
X165980000Y-134249420D02*
X165980000Y-134530580D01*
%TO.C,C35*%
X199380000Y-146291252D02*
X199380000Y-145768748D01*
X200850000Y-146291252D02*
X200850000Y-145768748D01*
%TO.C,R32*%
X254807500Y-146272258D02*
X254807500Y-145797742D01*
X255852500Y-146272258D02*
X255852500Y-145797742D01*
%TO.C,R30*%
X258547500Y-144632258D02*
X258547500Y-144157742D01*
X259592500Y-144632258D02*
X259592500Y-144157742D01*
D14*
%TO.C,U9*%
X261995200Y-145819800D02*
X261995200Y-143940200D01*
X263958661Y-145819800D02*
X263181339Y-145819800D01*
X265144800Y-143940200D02*
X265144800Y-145819800D01*
D13*
%TO.C,C26*%
X216470000Y-117470580D02*
X216470000Y-117189420D01*
X217490000Y-117470580D02*
X217490000Y-117189420D01*
%TO.C,R12*%
X179497500Y-132502742D02*
X179497500Y-132977258D01*
X180542500Y-132502742D02*
X180542500Y-132977258D01*
%TO.C,C20*%
X163040000Y-134239420D02*
X163040000Y-134520580D01*
X164060000Y-134239420D02*
X164060000Y-134520580D01*
%TO.C,C29*%
X267170000Y-145236359D02*
X267170000Y-145543641D01*
X267930000Y-145236359D02*
X267930000Y-145543641D01*
%TO.C,C17*%
X168595000Y-133320000D02*
X168595000Y-136030000D01*
X168595000Y-136030000D02*
X170165000Y-136030000D01*
X170165000Y-136030000D02*
X170165000Y-133320000D01*
%TO.C,C15*%
X135430000Y-134079420D02*
X135430000Y-134360580D01*
X136450000Y-134079420D02*
X136450000Y-134360580D01*
%TO.C,C12*%
X131910000Y-134059420D02*
X131910000Y-134340580D01*
X132930000Y-134059420D02*
X132930000Y-134340580D01*
%TO.C,R24*%
X265910000Y-145543641D02*
X265910000Y-145236359D01*
X266670000Y-145543641D02*
X266670000Y-145236359D01*
D14*
%TO.C,U3*%
X171070200Y-129678800D02*
X178029800Y-129678800D01*
X171070200Y-133641200D02*
X171070200Y-129678800D01*
X178029800Y-129678800D02*
X178029800Y-133641200D01*
X178029800Y-133641200D02*
X171070200Y-133641200D01*
X179299800Y-135304900D02*
G75*
G02*
X179045800Y-135304900I-127000J0D01*
G01*
X179045800Y-135304900D02*
G75*
G02*
X179299800Y-135304900I127000J0D01*
G01*
%TD*%
M02*
