%TF.GenerationSoftware,KiCad,Pcbnew,9.0.3*%
%TF.CreationDate,2025-09-16T12:03:33-04:00*%
%TF.ProjectId,6_COLD_TPC_HV,365f434f-4c44-45f5-9450-435f48562e6b,rev?*%
%TF.SameCoordinates,Original*%
%TF.FileFunction,Other,User*%
%FSLAX46Y46*%
G04 Gerber Fmt 4.6, Leading zero omitted, Abs format (unit mm)*
G04 Created by KiCad (PCBNEW 9.0.3) date 2025-09-16 12:03:33*
%MOMM*%
%LPD*%
G01*
G04 APERTURE LIST*
%ADD10C,0.050000*%
%ADD11C,0.152400*%
G04 APERTURE END LIST*
D10*
%TO.C,R23*%
X263780000Y-135080000D02*
X265240000Y-135080000D01*
X263780000Y-138040000D02*
X263780000Y-135080000D01*
X265240000Y-135080000D02*
X265240000Y-138040000D01*
X265240000Y-138040000D02*
X263780000Y-138040000D01*
%TO.C,C36*%
X186675000Y-146210000D02*
X188635000Y-146210000D01*
X186675000Y-149610000D02*
X186675000Y-146210000D01*
X188635000Y-146210000D02*
X188635000Y-149610000D01*
X188635000Y-149610000D02*
X186675000Y-149610000D01*
%TO.C,C33*%
X256400000Y-144515000D02*
X257860000Y-144515000D01*
X256400000Y-147475000D02*
X256400000Y-144515000D01*
X257860000Y-144515000D02*
X257860000Y-147475000D01*
X257860000Y-147475000D02*
X256400000Y-147475000D01*
%TO.C,C18*%
X160920000Y-132900000D02*
X162380000Y-132900000D01*
X160920000Y-135860000D02*
X160920000Y-132900000D01*
X162380000Y-132900000D02*
X162380000Y-135860000D01*
X162380000Y-135860000D02*
X160920000Y-135860000D01*
%TO.C,C14*%
X133430000Y-132730000D02*
X134890000Y-132730000D01*
X133430000Y-135690000D02*
X133430000Y-132730000D01*
X134890000Y-132730000D02*
X134890000Y-135690000D01*
X134890000Y-135690000D02*
X133430000Y-135690000D01*
%TO.C,R38*%
X191570000Y-122610000D02*
X193030000Y-122610000D01*
X191570000Y-125570000D02*
X191570000Y-122610000D01*
X193030000Y-122610000D02*
X193030000Y-125570000D01*
X193030000Y-125570000D02*
X191570000Y-125570000D01*
D11*
%TO.C,U8*%
X253845400Y-135266600D02*
X253845400Y-140143400D01*
X253845400Y-135266600D02*
X255305900Y-135266600D01*
X253845400Y-140143400D02*
X255305900Y-140143400D01*
X255305900Y-134949100D02*
X255305900Y-135266600D01*
X255305900Y-140143400D02*
X255305900Y-140460900D01*
X255305900Y-140460900D02*
X259801700Y-140460900D01*
X259801700Y-134949100D02*
X255305900Y-134949100D01*
X259801700Y-135266600D02*
X259801700Y-134949100D01*
X259801700Y-140460900D02*
X259801700Y-140143400D01*
X261262200Y-135266600D02*
X259801700Y-135266600D01*
X261262200Y-140143400D02*
X259801700Y-140143400D01*
X261262200Y-140143400D02*
X261262200Y-135266600D01*
D10*
%TO.C,C25*%
X212220000Y-137670000D02*
X215180000Y-137670000D01*
X212220000Y-139130000D02*
X212220000Y-137670000D01*
X215180000Y-137670000D02*
X215180000Y-139130000D01*
X215180000Y-139130000D02*
X212220000Y-139130000D01*
%TO.C,C16*%
X181080000Y-131280000D02*
X182540000Y-131280000D01*
X181080000Y-134240000D02*
X181080000Y-131280000D01*
X182540000Y-131280000D02*
X182540000Y-134240000D01*
X182540000Y-134240000D02*
X181080000Y-134240000D01*
%TO.C,C21*%
X164740000Y-132910000D02*
X166200000Y-132910000D01*
X164740000Y-135870000D02*
X164740000Y-132910000D01*
X166200000Y-132910000D02*
X166200000Y-135870000D01*
X166200000Y-135870000D02*
X164740000Y-135870000D01*
%TO.C,C35*%
X199135000Y-144330000D02*
X201095000Y-144330000D01*
X199135000Y-147730000D02*
X199135000Y-144330000D01*
X201095000Y-144330000D02*
X201095000Y-147730000D01*
X201095000Y-147730000D02*
X199135000Y-147730000D01*
%TO.C,R32*%
X254600000Y-144555000D02*
X256060000Y-144555000D01*
X254600000Y-147515000D02*
X254600000Y-144555000D01*
X256060000Y-144555000D02*
X256060000Y-147515000D01*
X256060000Y-147515000D02*
X254600000Y-147515000D01*
%TO.C,R30*%
X258340000Y-142915000D02*
X259800000Y-142915000D01*
X258340000Y-145875000D02*
X258340000Y-142915000D01*
X259800000Y-142915000D02*
X259800000Y-145875000D01*
X259800000Y-145875000D02*
X258340000Y-145875000D01*
D11*
%TO.C,U9*%
X261868200Y-143813200D02*
X261868200Y-145946800D01*
X261868200Y-145946800D02*
X262137400Y-145946800D01*
X262137400Y-142706400D02*
X262137400Y-143813200D01*
X262137400Y-143813200D02*
X261868200Y-143813200D01*
X262137400Y-147053600D02*
X262137400Y-145946800D01*
X262137400Y-147053600D02*
X265002600Y-147053600D01*
X265002600Y-142706400D02*
X262137400Y-142706400D01*
X265002600Y-142706400D02*
X265002600Y-143813200D01*
X265002600Y-145946800D02*
X265271800Y-145946800D01*
X265002600Y-147053600D02*
X265002600Y-145946800D01*
X265271800Y-143813200D02*
X265002600Y-143813200D01*
X265271800Y-145946800D02*
X265271800Y-143813200D01*
D10*
%TO.C,C26*%
X216250000Y-115850000D02*
X217710000Y-115850000D01*
X216250000Y-118810000D02*
X216250000Y-115850000D01*
X217710000Y-115850000D02*
X217710000Y-118810000D01*
X217710000Y-118810000D02*
X216250000Y-118810000D01*
%TO.C,R12*%
X179290000Y-131260000D02*
X180750000Y-131260000D01*
X179290000Y-134220000D02*
X179290000Y-131260000D01*
X180750000Y-131260000D02*
X180750000Y-134220000D01*
X180750000Y-134220000D02*
X179290000Y-134220000D01*
%TO.C,C20*%
X162820000Y-132900000D02*
X164280000Y-132900000D01*
X162820000Y-135860000D02*
X162820000Y-132900000D01*
X164280000Y-132900000D02*
X164280000Y-135860000D01*
X164280000Y-135860000D02*
X162820000Y-135860000D01*
%TO.C,C29*%
X267080000Y-144460000D02*
X268020000Y-144460000D01*
X267080000Y-146320000D02*
X267080000Y-144460000D01*
X268020000Y-144460000D02*
X268020000Y-146320000D01*
X268020000Y-146320000D02*
X267080000Y-146320000D01*
%TO.C,C17*%
X168500000Y-132620000D02*
X170260000Y-132620000D01*
X168500000Y-136020000D02*
X168500000Y-132620000D01*
X170260000Y-132620000D02*
X170260000Y-136020000D01*
X170260000Y-136020000D02*
X168500000Y-136020000D01*
%TO.C,C15*%
X135210000Y-132740000D02*
X136670000Y-132740000D01*
X135210000Y-135700000D02*
X135210000Y-132740000D01*
X136670000Y-132740000D02*
X136670000Y-135700000D01*
X136670000Y-135700000D02*
X135210000Y-135700000D01*
%TO.C,C12*%
X131690000Y-132720000D02*
X133150000Y-132720000D01*
X131690000Y-135680000D02*
X131690000Y-132720000D01*
X133150000Y-132720000D02*
X133150000Y-135680000D01*
X133150000Y-135680000D02*
X131690000Y-135680000D01*
%TO.C,R24*%
X265820000Y-144460000D02*
X266760000Y-144460000D01*
X265820000Y-146320000D02*
X265820000Y-144460000D01*
X266760000Y-144460000D02*
X266760000Y-146320000D01*
X266760000Y-146320000D02*
X265820000Y-146320000D01*
D11*
%TO.C,U3*%
X170943200Y-129551800D02*
X170943200Y-133768200D01*
X170943200Y-133768200D02*
X171565500Y-133768200D01*
X171565500Y-133768200D02*
X171565500Y-135914500D01*
X171565500Y-135914500D02*
X177534500Y-135914500D01*
X172721200Y-127405500D02*
X172721200Y-129551800D01*
X172721200Y-129551800D02*
X170943200Y-129551800D01*
X176378800Y-127405500D02*
X172721200Y-127405500D01*
X176378800Y-129551800D02*
X176378800Y-127405500D01*
X177534500Y-133768200D02*
X178156800Y-133768200D01*
X177534500Y-135914500D02*
X177534500Y-133768200D01*
X178156800Y-129551800D02*
X176378800Y-129551800D01*
X178156800Y-133768200D02*
X178156800Y-129551800D01*
%TD*%
M02*
