%TF.GenerationSoftware,KiCad,Pcbnew,8.0.6*%
%TF.CreationDate,2025-02-28T11:45:46-05:00*%
%TF.ProjectId,PM5V_Telemetry_Cold_TPC,504d3556-5f54-4656-9c65-6d657472795f,rev?*%
%TF.SameCoordinates,Original*%
%TF.FileFunction,Copper,L2,Inr*%
%TF.FilePolarity,Positive*%
%FSLAX46Y46*%
G04 Gerber Fmt 4.6, Leading zero omitted, Abs format (unit mm)*
G04 Created by KiCad (PCBNEW 8.0.6) date 2025-02-28 11:45:46*
%MOMM*%
%LPD*%
G01*
G04 APERTURE LIST*
%TA.AperFunction,ComponentPad*%
%ADD10C,6.400000*%
%TD*%
%TA.AperFunction,ComponentPad*%
%ADD11C,1.560000*%
%TD*%
%TA.AperFunction,ComponentPad*%
%ADD12C,4.216000*%
%TD*%
%TA.AperFunction,ComponentPad*%
%ADD13R,2.000000X2.000000*%
%TD*%
%TA.AperFunction,ComponentPad*%
%ADD14C,2.000000*%
%TD*%
%TA.AperFunction,ViaPad*%
%ADD15C,0.600000*%
%TD*%
G04 APERTURE END LIST*
D10*
%TO.N,GNDPWR*%
%TO.C,H3*%
X208000000Y-33000000D03*
%TD*%
%TO.N,GNDPWR*%
%TO.C,H1*%
X95000000Y-33000000D03*
%TD*%
D11*
%TO.N,/V_SEC_RTN*%
%TO.C,J1*%
X99920000Y-69275000D03*
X99920000Y-72045000D03*
%TO.N,unconnected-(J1-Pad3)*%
X99920000Y-74815000D03*
%TO.N,/V_SEC_RTN*%
X99920000Y-77585000D03*
X99920000Y-80355000D03*
%TO.N,/V_SEC_IN*%
X97080000Y-70660000D03*
X97080000Y-73430000D03*
X97080000Y-76200000D03*
X97080000Y-78970000D03*
D12*
%TO.N,GNDPWR*%
X98500000Y-62315000D03*
X98500000Y-87315000D03*
%TD*%
D10*
%TO.N,GNDPWR*%
%TO.C,H2*%
X95000000Y-120000000D03*
%TD*%
D11*
%TO.N,/PM_5V_RTN*%
%TO.C,J2*%
X204940000Y-61360000D03*
X204940000Y-58590000D03*
%TO.N,unconnected-(J2-Pad3)*%
X204940000Y-55820000D03*
%TO.N,/PM_5V_RTN*%
X204940000Y-53050000D03*
X204940000Y-50280000D03*
%TO.N,/M5_OUT*%
X207780000Y-59975000D03*
X207780000Y-57205000D03*
%TO.N,/P5_OUT*%
X207780000Y-54435000D03*
X207780000Y-51665000D03*
D12*
%TO.N,GNDPWR*%
X206360000Y-68320000D03*
X206360000Y-43320000D03*
%TD*%
D10*
%TO.N,GNDPWR*%
%TO.C,H4*%
X208000000Y-120000000D03*
%TD*%
D13*
%TO.N,/Main_Converter1/V_POS*%
%TO.C,U2*%
X150235600Y-99020000D03*
D14*
%TO.N,/Main_Converter1/V_RTN*%
X150235600Y-93920000D03*
%TO.N,/PM_5V_RTN*%
X170535600Y-106720000D03*
%TO.N,/Main_Converter1/trim*%
X170535600Y-96520000D03*
%TO.N,/M5_OUT*%
X170535600Y-86320000D03*
%TO.N,unconnected-(U2-REMOTE-Pad6)*%
X150235600Y-86320000D03*
%TD*%
D13*
%TO.N,/Main_Converter/V_POS*%
%TO.C,U1*%
X150268100Y-57775000D03*
D14*
%TO.N,/Main_Converter/V_RTN*%
X150268100Y-52675000D03*
%TO.N,/P5_OUT*%
X170568100Y-65475000D03*
%TO.N,/Main_Converter/trim*%
X170568100Y-55275000D03*
%TO.N,/PM_5V_RTN*%
X170568100Y-45075000D03*
%TO.N,unconnected-(U1-REMOTE-Pad6)*%
X150268100Y-45075000D03*
%TD*%
D11*
%TO.N,/PM_5V_RTN*%
%TO.C,J3*%
X204980000Y-104350000D03*
X204980000Y-101580000D03*
%TO.N,unconnected-(J3-Pad3)*%
X204980000Y-98810000D03*
%TO.N,/PM_5V_RTN*%
X204980000Y-96040000D03*
X204980000Y-93270000D03*
%TO.N,/M5_OUT*%
X207820000Y-102965000D03*
X207820000Y-100195000D03*
%TO.N,/P5_OUT*%
X207820000Y-97425000D03*
X207820000Y-94655000D03*
D12*
%TO.N,GNDPWR*%
X206400000Y-111310000D03*
X206400000Y-86310000D03*
%TD*%
D15*
%TO.N,/V_SEC_RTN*%
X111506000Y-88646000D03*
X112776000Y-48006000D03*
X111506000Y-46736000D03*
X111506000Y-89916000D03*
X112776000Y-89916000D03*
X114046000Y-46736000D03*
X114046000Y-48006000D03*
X112776000Y-46736000D03*
X114046000Y-88646000D03*
X114046000Y-89916000D03*
X112776000Y-88646000D03*
X111506000Y-48006000D03*
%TO.N,/P5_OUT*%
X194564000Y-74422000D03*
X181474300Y-71950000D03*
%TO.N,/PM_5V_RTN*%
X179238100Y-82080000D03*
X185868900Y-82427600D03*
X186468100Y-67620000D03*
X192928100Y-77790000D03*
X184188100Y-69560000D03*
X170318100Y-40230000D03*
X170483000Y-111506000D03*
X183418100Y-79770000D03*
%TO.N,GNDPWR*%
X165868100Y-40220000D03*
X166035500Y-111481000D03*
%TO.N,/M5_OUT*%
X186401900Y-78450000D03*
X177378100Y-82030000D03*
%TO.N,Net-(D1-Pad2)*%
X185758100Y-61370000D03*
%TO.N,Net-(D1-Pad1)*%
X188828100Y-62770000D03*
%TO.N,Net-(D2-Pad1)*%
X185818100Y-91830000D03*
%TO.N,Net-(D2-Pad2)*%
X190508100Y-91840000D03*
%TO.N,/V_SEC_IN*%
X110870000Y-76520000D03*
X104660000Y-100910000D03*
X103390000Y-100910000D03*
X103390000Y-99640000D03*
X110870000Y-77790000D03*
X102120000Y-99640000D03*
X113410000Y-77790000D03*
X104660000Y-99640000D03*
X112140000Y-77790000D03*
X113410000Y-76520000D03*
X102120000Y-100910000D03*
X112140000Y-76520000D03*
%TD*%
%TA.AperFunction,Conductor*%
%TO.N,/V_SEC_RTN*%
G36*
X209552443Y-25900596D02*
G01*
X210004096Y-25918341D01*
X210013766Y-25919102D01*
X210460230Y-25971945D01*
X210469835Y-25973466D01*
X210910763Y-26061172D01*
X210920223Y-26063443D01*
X211352897Y-26185470D01*
X211362157Y-26188478D01*
X211783937Y-26344081D01*
X211792933Y-26347807D01*
X212201203Y-26536022D01*
X212209866Y-26540437D01*
X212602108Y-26760104D01*
X212610410Y-26765191D01*
X212984199Y-27014948D01*
X212992073Y-27020668D01*
X213345128Y-27298995D01*
X213352519Y-27305308D01*
X213682649Y-27610477D01*
X213689528Y-27617356D01*
X213994686Y-27947474D01*
X214001009Y-27954877D01*
X214279328Y-28307923D01*
X214285051Y-28315800D01*
X214534808Y-28689589D01*
X214539895Y-28697891D01*
X214759562Y-29090133D01*
X214763983Y-29098808D01*
X214952192Y-29507067D01*
X214955918Y-29516062D01*
X215111521Y-29937842D01*
X215114529Y-29947102D01*
X215236555Y-30379772D01*
X215238828Y-30389240D01*
X215326532Y-30830159D01*
X215328055Y-30839775D01*
X215380895Y-31286214D01*
X215381659Y-31295921D01*
X215399404Y-31747556D01*
X215399500Y-31752424D01*
X215399500Y-120647575D01*
X215399404Y-120652443D01*
X215381659Y-121104078D01*
X215380895Y-121113785D01*
X215328055Y-121560224D01*
X215326532Y-121569840D01*
X215238828Y-122010759D01*
X215236555Y-122020227D01*
X215114529Y-122452897D01*
X215111521Y-122462157D01*
X214955918Y-122883937D01*
X214952192Y-122892932D01*
X214763983Y-123301191D01*
X214759562Y-123309866D01*
X214539895Y-123702108D01*
X214534808Y-123710410D01*
X214285051Y-124084199D01*
X214279328Y-124092076D01*
X214001009Y-124445122D01*
X213994686Y-124452525D01*
X213689528Y-124782643D01*
X213682643Y-124789528D01*
X213352525Y-125094686D01*
X213345122Y-125101009D01*
X212992076Y-125379328D01*
X212984199Y-125385051D01*
X212610410Y-125634808D01*
X212602108Y-125639895D01*
X212209866Y-125859562D01*
X212201191Y-125863983D01*
X211792932Y-126052192D01*
X211783937Y-126055918D01*
X211362157Y-126211521D01*
X211352897Y-126214529D01*
X210920227Y-126336555D01*
X210910759Y-126338828D01*
X210469840Y-126426532D01*
X210460224Y-126428055D01*
X210013785Y-126480895D01*
X210004078Y-126481659D01*
X209552443Y-126499404D01*
X209547575Y-126499500D01*
X95252425Y-126499500D01*
X95247557Y-126499404D01*
X94795921Y-126481659D01*
X94786214Y-126480895D01*
X94339775Y-126428055D01*
X94330159Y-126426532D01*
X93889240Y-126338828D01*
X93879772Y-126336555D01*
X93447102Y-126214529D01*
X93437842Y-126211521D01*
X93016062Y-126055918D01*
X93007067Y-126052192D01*
X92598808Y-125863983D01*
X92590133Y-125859562D01*
X92197891Y-125639895D01*
X92189589Y-125634808D01*
X91815800Y-125385051D01*
X91807923Y-125379328D01*
X91454877Y-125101009D01*
X91447474Y-125094686D01*
X91117350Y-124789522D01*
X91110477Y-124782649D01*
X90805308Y-124452519D01*
X90798990Y-124445122D01*
X90520671Y-124092076D01*
X90514948Y-124084199D01*
X90265191Y-123710410D01*
X90260104Y-123702108D01*
X90040437Y-123309866D01*
X90036022Y-123301203D01*
X89847807Y-122892932D01*
X89844081Y-122883937D01*
X89688478Y-122462157D01*
X89685470Y-122452897D01*
X89655111Y-122345253D01*
X89563443Y-122020223D01*
X89561171Y-122010759D01*
X89473466Y-121569835D01*
X89471944Y-121560224D01*
X89465668Y-121507197D01*
X89419102Y-121113766D01*
X89418341Y-121104096D01*
X89400596Y-120652443D01*
X89400500Y-120647575D01*
X89400500Y-119999999D01*
X91294422Y-119999999D01*
X91294422Y-120000000D01*
X91314722Y-120387339D01*
X91375397Y-120770427D01*
X91375397Y-120770429D01*
X91475788Y-121145094D01*
X91614787Y-121507197D01*
X91790877Y-121852793D01*
X92002122Y-122178082D01*
X92002124Y-122178084D01*
X92246219Y-122479516D01*
X92520484Y-122753781D01*
X92520488Y-122753784D01*
X92821917Y-122997877D01*
X93147206Y-123209122D01*
X93147211Y-123209125D01*
X93492806Y-123385214D01*
X93854913Y-123524214D01*
X94229567Y-123624602D01*
X94612662Y-123685278D01*
X94978576Y-123704455D01*
X94999999Y-123705578D01*
X95000000Y-123705578D01*
X95000001Y-123705578D01*
X95020301Y-123704514D01*
X95387338Y-123685278D01*
X95770433Y-123624602D01*
X96145087Y-123524214D01*
X96507194Y-123385214D01*
X96852789Y-123209125D01*
X97178084Y-122997876D01*
X97479516Y-122753781D01*
X97753781Y-122479516D01*
X97997876Y-122178084D01*
X98209125Y-121852789D01*
X98385214Y-121507194D01*
X98524214Y-121145087D01*
X98624602Y-120770433D01*
X98685278Y-120387338D01*
X98705578Y-120000000D01*
X98705578Y-119999999D01*
X204294422Y-119999999D01*
X204294422Y-120000000D01*
X204314722Y-120387339D01*
X204375397Y-120770427D01*
X204375397Y-120770429D01*
X204475788Y-121145094D01*
X204614787Y-121507197D01*
X204790877Y-121852793D01*
X205002122Y-122178082D01*
X205002124Y-122178084D01*
X205246219Y-122479516D01*
X205520484Y-122753781D01*
X205520488Y-122753784D01*
X205821917Y-122997877D01*
X206147206Y-123209122D01*
X206147211Y-123209125D01*
X206492806Y-123385214D01*
X206854913Y-123524214D01*
X207229567Y-123624602D01*
X207612662Y-123685278D01*
X207978576Y-123704455D01*
X207999999Y-123705578D01*
X208000000Y-123705578D01*
X208000001Y-123705578D01*
X208020301Y-123704514D01*
X208387338Y-123685278D01*
X208770433Y-123624602D01*
X209145087Y-123524214D01*
X209507194Y-123385214D01*
X209852789Y-123209125D01*
X210178084Y-122997876D01*
X210479516Y-122753781D01*
X210753781Y-122479516D01*
X210997876Y-122178084D01*
X211209125Y-121852789D01*
X211385214Y-121507194D01*
X211524214Y-121145087D01*
X211624602Y-120770433D01*
X211685278Y-120387338D01*
X211705578Y-120000000D01*
X211685278Y-119612662D01*
X211624602Y-119229567D01*
X211524214Y-118854913D01*
X211385214Y-118492806D01*
X211209125Y-118147211D01*
X210997876Y-117821916D01*
X210753781Y-117520484D01*
X210479516Y-117246219D01*
X210178084Y-117002124D01*
X210178082Y-117002122D01*
X209852793Y-116790877D01*
X209507197Y-116614787D01*
X209145094Y-116475788D01*
X209145087Y-116475786D01*
X208770433Y-116375398D01*
X208770429Y-116375397D01*
X208770428Y-116375397D01*
X208387339Y-116314722D01*
X208000001Y-116294422D01*
X207999999Y-116294422D01*
X207612660Y-116314722D01*
X207229572Y-116375397D01*
X207229570Y-116375397D01*
X206854905Y-116475788D01*
X206492802Y-116614787D01*
X206147206Y-116790877D01*
X205821917Y-117002122D01*
X205520488Y-117246215D01*
X205520480Y-117246222D01*
X205246222Y-117520480D01*
X205246215Y-117520488D01*
X205002122Y-117821917D01*
X204790877Y-118147206D01*
X204614787Y-118492802D01*
X204475788Y-118854905D01*
X204375397Y-119229570D01*
X204375397Y-119229572D01*
X204314722Y-119612660D01*
X204294422Y-119999999D01*
X98705578Y-119999999D01*
X98685278Y-119612662D01*
X98624602Y-119229567D01*
X98524214Y-118854913D01*
X98385214Y-118492806D01*
X98209125Y-118147211D01*
X97997876Y-117821916D01*
X97753781Y-117520484D01*
X97479516Y-117246219D01*
X97178084Y-117002124D01*
X97178082Y-117002122D01*
X96852793Y-116790877D01*
X96507197Y-116614787D01*
X96145094Y-116475788D01*
X96145087Y-116475786D01*
X95770433Y-116375398D01*
X95770429Y-116375397D01*
X95770428Y-116375397D01*
X95387339Y-116314722D01*
X95000001Y-116294422D01*
X94999999Y-116294422D01*
X94612660Y-116314722D01*
X94229572Y-116375397D01*
X94229570Y-116375397D01*
X93854905Y-116475788D01*
X93492802Y-116614787D01*
X93147206Y-116790877D01*
X92821917Y-117002122D01*
X92520488Y-117246215D01*
X92520480Y-117246222D01*
X92246222Y-117520480D01*
X92246215Y-117520488D01*
X92002122Y-117821917D01*
X91790877Y-118147206D01*
X91614787Y-118492802D01*
X91475788Y-118854905D01*
X91375397Y-119229570D01*
X91375397Y-119229572D01*
X91314722Y-119612660D01*
X91294422Y-119999999D01*
X89400500Y-119999999D01*
X89400500Y-111480996D01*
X165229935Y-111480996D01*
X165229935Y-111481003D01*
X165250130Y-111660249D01*
X165250131Y-111660254D01*
X165309711Y-111830523D01*
X165325420Y-111855523D01*
X165405684Y-111983262D01*
X165533238Y-112110816D01*
X165685978Y-112206789D01*
X165757424Y-112231789D01*
X165856245Y-112266368D01*
X165856250Y-112266369D01*
X166035496Y-112286565D01*
X166035500Y-112286565D01*
X166035504Y-112286565D01*
X166214749Y-112266369D01*
X166214752Y-112266368D01*
X166214755Y-112266368D01*
X166385022Y-112206789D01*
X166537762Y-112110816D01*
X166665316Y-111983262D01*
X166761289Y-111830522D01*
X166820868Y-111660255D01*
X166824841Y-111624995D01*
X166838249Y-111505996D01*
X169677435Y-111505996D01*
X169677435Y-111506003D01*
X169697630Y-111685249D01*
X169697631Y-111685254D01*
X169757211Y-111855523D01*
X169807399Y-111935396D01*
X169853184Y-112008262D01*
X169980738Y-112135816D01*
X170133478Y-112231789D01*
X170232299Y-112266368D01*
X170303745Y-112291368D01*
X170303750Y-112291369D01*
X170482996Y-112311565D01*
X170483000Y-112311565D01*
X170483004Y-112311565D01*
X170662249Y-112291369D01*
X170662252Y-112291368D01*
X170662255Y-112291368D01*
X170832522Y-112231789D01*
X170985262Y-112135816D01*
X171112816Y-112008262D01*
X171208789Y-111855522D01*
X171268368Y-111685255D01*
X171271185Y-111660254D01*
X171288565Y-111506003D01*
X171288565Y-111505996D01*
X171268369Y-111326750D01*
X171268368Y-111326745D01*
X171262509Y-111310000D01*
X203786732Y-111310000D01*
X203805785Y-111624989D01*
X203805785Y-111624994D01*
X203805786Y-111624995D01*
X203862669Y-111935396D01*
X203862670Y-111935400D01*
X203862671Y-111935404D01*
X203956545Y-112236659D01*
X203956549Y-112236670D01*
X203956550Y-112236673D01*
X203956552Y-112236678D01*
X203990256Y-112311565D01*
X204086066Y-112524446D01*
X204249326Y-112794510D01*
X204443943Y-113042920D01*
X204667079Y-113266056D01*
X204915489Y-113460673D01*
X204915492Y-113460675D01*
X204915495Y-113460677D01*
X205185554Y-113623934D01*
X205473322Y-113753448D01*
X205473332Y-113753451D01*
X205473340Y-113753454D01*
X205674176Y-113816036D01*
X205774604Y-113847331D01*
X206085005Y-113904214D01*
X206400000Y-113923268D01*
X206714995Y-113904214D01*
X207025396Y-113847331D01*
X207326678Y-113753448D01*
X207614446Y-113623934D01*
X207884505Y-113460677D01*
X208132917Y-113266059D01*
X208356059Y-113042917D01*
X208550677Y-112794505D01*
X208713934Y-112524446D01*
X208843448Y-112236678D01*
X208844972Y-112231789D01*
X208922415Y-111983262D01*
X208937331Y-111935396D01*
X208994214Y-111624995D01*
X209013268Y-111310000D01*
X208994214Y-110995005D01*
X208937331Y-110684604D01*
X208843448Y-110383322D01*
X208713934Y-110095554D01*
X208550677Y-109825495D01*
X208550675Y-109825492D01*
X208550673Y-109825489D01*
X208356056Y-109577079D01*
X208132920Y-109353943D01*
X207884510Y-109159326D01*
X207614446Y-108996066D01*
X207326678Y-108866552D01*
X207326673Y-108866550D01*
X207326670Y-108866549D01*
X207326659Y-108866545D01*
X207025404Y-108772671D01*
X207025400Y-108772670D01*
X207025396Y-108772669D01*
X206714995Y-108715786D01*
X206714994Y-108715785D01*
X206714989Y-108715785D01*
X206400000Y-108696732D01*
X206085010Y-108715785D01*
X206085005Y-108715786D01*
X205774604Y-108772669D01*
X205774601Y-108772669D01*
X205774595Y-108772671D01*
X205473340Y-108866545D01*
X205473329Y-108866549D01*
X205185553Y-108996066D01*
X204915489Y-109159326D01*
X204667079Y-109353943D01*
X204443943Y-109577079D01*
X204249326Y-109825489D01*
X204086066Y-110095553D01*
X203956549Y-110383329D01*
X203956545Y-110383340D01*
X203862671Y-110684595D01*
X203862669Y-110684601D01*
X203862669Y-110684604D01*
X203832142Y-110851184D01*
X203805785Y-110995010D01*
X203786732Y-111310000D01*
X171262509Y-111310000D01*
X171208788Y-111156476D01*
X171112815Y-111003737D01*
X170985262Y-110876184D01*
X170832523Y-110780211D01*
X170662254Y-110720631D01*
X170662249Y-110720630D01*
X170483004Y-110700435D01*
X170482996Y-110700435D01*
X170303750Y-110720630D01*
X170303745Y-110720631D01*
X170133476Y-110780211D01*
X169980737Y-110876184D01*
X169853184Y-111003737D01*
X169757211Y-111156476D01*
X169697631Y-111326745D01*
X169697630Y-111326750D01*
X169677435Y-111505996D01*
X166838249Y-111505996D01*
X166841065Y-111481003D01*
X166841065Y-111480996D01*
X166820869Y-111301750D01*
X166820868Y-111301745D01*
X166761288Y-111131476D01*
X166722082Y-111069080D01*
X166665316Y-110978738D01*
X166537762Y-110851184D01*
X166385023Y-110755211D01*
X166214754Y-110695631D01*
X166214749Y-110695630D01*
X166035504Y-110675435D01*
X166035496Y-110675435D01*
X165856250Y-110695630D01*
X165856245Y-110695631D01*
X165685976Y-110755211D01*
X165533237Y-110851184D01*
X165405684Y-110978737D01*
X165309711Y-111131476D01*
X165250131Y-111301745D01*
X165250130Y-111301750D01*
X165229935Y-111480996D01*
X89400500Y-111480996D01*
X89400500Y-106719994D01*
X169029957Y-106719994D01*
X169029957Y-106720005D01*
X169050490Y-106967812D01*
X169050492Y-106967824D01*
X169111536Y-107208881D01*
X169211426Y-107436606D01*
X169347433Y-107644782D01*
X169347436Y-107644785D01*
X169515856Y-107827738D01*
X169712091Y-107980474D01*
X169930790Y-108098828D01*
X170165986Y-108179571D01*
X170411265Y-108220500D01*
X170659935Y-108220500D01*
X170905214Y-108179571D01*
X171140410Y-108098828D01*
X171359109Y-107980474D01*
X171555344Y-107827738D01*
X171723764Y-107644785D01*
X171859773Y-107436607D01*
X171959663Y-107208881D01*
X172020708Y-106967821D01*
X172041243Y-106720000D01*
X172020708Y-106472179D01*
X171959663Y-106231119D01*
X171859773Y-106003393D01*
X171723766Y-105795217D01*
X171702157Y-105771744D01*
X171555344Y-105612262D01*
X171359109Y-105459526D01*
X171359107Y-105459525D01*
X171359106Y-105459524D01*
X171140411Y-105341172D01*
X171140402Y-105341169D01*
X170905216Y-105260429D01*
X170659935Y-105219500D01*
X170411265Y-105219500D01*
X170165983Y-105260429D01*
X169930797Y-105341169D01*
X169930788Y-105341172D01*
X169712093Y-105459524D01*
X169515857Y-105612261D01*
X169347433Y-105795217D01*
X169211426Y-106003393D01*
X169111536Y-106231118D01*
X169050492Y-106472175D01*
X169050490Y-106472187D01*
X169029957Y-106719994D01*
X89400500Y-106719994D01*
X89400500Y-99639996D01*
X101314435Y-99639996D01*
X101314435Y-99640003D01*
X101334630Y-99819249D01*
X101334631Y-99819254D01*
X101394211Y-99989523D01*
X101490184Y-100142262D01*
X101490185Y-100142263D01*
X101535241Y-100187320D01*
X101568725Y-100248643D01*
X101563740Y-100318335D01*
X101535241Y-100362680D01*
X101490184Y-100407737D01*
X101394211Y-100560476D01*
X101334631Y-100730745D01*
X101334630Y-100730750D01*
X101314435Y-100909996D01*
X101314435Y-100910003D01*
X101334630Y-101089249D01*
X101334631Y-101089254D01*
X101394211Y-101259523D01*
X101455329Y-101356791D01*
X101490184Y-101412262D01*
X101617738Y-101539816D01*
X101681692Y-101580001D01*
X101759375Y-101628813D01*
X101770478Y-101635789D01*
X101904516Y-101682691D01*
X101940745Y-101695368D01*
X101940750Y-101695369D01*
X102119996Y-101715565D01*
X102120000Y-101715565D01*
X102120004Y-101715565D01*
X102299249Y-101695369D01*
X102299252Y-101695368D01*
X102299255Y-101695368D01*
X102469522Y-101635789D01*
X102622262Y-101539816D01*
X102667319Y-101494759D01*
X102728642Y-101461274D01*
X102798334Y-101466258D01*
X102842681Y-101494759D01*
X102887738Y-101539816D01*
X102951692Y-101580001D01*
X103029375Y-101628813D01*
X103040478Y-101635789D01*
X103174516Y-101682691D01*
X103210745Y-101695368D01*
X103210750Y-101695369D01*
X103389996Y-101715565D01*
X103390000Y-101715565D01*
X103390004Y-101715565D01*
X103569249Y-101695369D01*
X103569252Y-101695368D01*
X103569255Y-101695368D01*
X103739522Y-101635789D01*
X103892262Y-101539816D01*
X103937319Y-101494759D01*
X103998642Y-101461274D01*
X104068334Y-101466258D01*
X104112681Y-101494759D01*
X104157738Y-101539816D01*
X104221692Y-101580001D01*
X104299375Y-101628813D01*
X104310478Y-101635789D01*
X104444516Y-101682691D01*
X104480745Y-101695368D01*
X104480750Y-101695369D01*
X104659996Y-101715565D01*
X104660000Y-101715565D01*
X104660004Y-101715565D01*
X104839249Y-101695369D01*
X104839252Y-101695368D01*
X104839255Y-101695368D01*
X105009522Y-101635789D01*
X105162262Y-101539816D01*
X105289816Y-101412262D01*
X105385789Y-101259522D01*
X105445368Y-101089255D01*
X105453033Y-101021228D01*
X105465565Y-100910003D01*
X105465565Y-100909996D01*
X105445369Y-100730750D01*
X105445368Y-100730745D01*
X105411734Y-100634625D01*
X105385789Y-100560478D01*
X105289816Y-100407738D01*
X105244758Y-100362680D01*
X105211274Y-100301358D01*
X105216258Y-100231666D01*
X105244759Y-100187319D01*
X105257641Y-100174437D01*
X105289816Y-100142262D01*
X105385789Y-99989522D01*
X105445368Y-99819255D01*
X105448138Y-99794670D01*
X105465565Y-99640003D01*
X105465565Y-99639996D01*
X105445369Y-99460750D01*
X105445368Y-99460745D01*
X105413184Y-99368768D01*
X105385789Y-99290478D01*
X105360122Y-99249630D01*
X105335431Y-99210334D01*
X105289816Y-99137738D01*
X105162262Y-99010184D01*
X105125569Y-98987128D01*
X105009523Y-98914211D01*
X104839254Y-98854631D01*
X104839249Y-98854630D01*
X104660004Y-98834435D01*
X104659996Y-98834435D01*
X104480750Y-98854630D01*
X104480745Y-98854631D01*
X104310476Y-98914211D01*
X104157737Y-99010184D01*
X104112680Y-99055241D01*
X104051357Y-99088725D01*
X103981665Y-99083740D01*
X103937320Y-99055241D01*
X103892263Y-99010185D01*
X103892262Y-99010184D01*
X103739523Y-98914211D01*
X103569254Y-98854631D01*
X103569249Y-98854630D01*
X103390004Y-98834435D01*
X103389996Y-98834435D01*
X103210750Y-98854630D01*
X103210745Y-98854631D01*
X103040476Y-98914211D01*
X102887737Y-99010184D01*
X102842680Y-99055241D01*
X102781357Y-99088725D01*
X102711665Y-99083740D01*
X102667320Y-99055241D01*
X102622263Y-99010185D01*
X102622262Y-99010184D01*
X102469523Y-98914211D01*
X102299254Y-98854631D01*
X102299249Y-98854630D01*
X102120004Y-98834435D01*
X102119996Y-98834435D01*
X101940750Y-98854630D01*
X101940745Y-98854631D01*
X101770476Y-98914211D01*
X101617737Y-99010184D01*
X101490184Y-99137737D01*
X101394211Y-99290476D01*
X101334631Y-99460745D01*
X101334630Y-99460750D01*
X101314435Y-99639996D01*
X89400500Y-99639996D01*
X89400500Y-97972135D01*
X148735100Y-97972135D01*
X148735100Y-100067870D01*
X148735101Y-100067876D01*
X148741508Y-100127483D01*
X148791802Y-100262328D01*
X148791806Y-100262335D01*
X148878052Y-100377544D01*
X148878055Y-100377547D01*
X148993264Y-100463793D01*
X148993271Y-100463797D01*
X149128117Y-100514091D01*
X149128116Y-100514091D01*
X149135044Y-100514835D01*
X149187727Y-100520500D01*
X151283472Y-100520499D01*
X151343083Y-100514091D01*
X151477931Y-100463796D01*
X151593146Y-100377546D01*
X151679396Y-100262331D01*
X151729691Y-100127483D01*
X151736100Y-100067873D01*
X151736099Y-97972128D01*
X151729691Y-97912517D01*
X151724585Y-97898828D01*
X151679397Y-97777671D01*
X151679393Y-97777664D01*
X151593147Y-97662455D01*
X151593144Y-97662452D01*
X151477935Y-97576206D01*
X151477928Y-97576202D01*
X151343082Y-97525908D01*
X151343083Y-97525908D01*
X151283483Y-97519501D01*
X151283481Y-97519500D01*
X151283473Y-97519500D01*
X151283464Y-97519500D01*
X149187729Y-97519500D01*
X149187723Y-97519501D01*
X149128116Y-97525908D01*
X148993271Y-97576202D01*
X148993264Y-97576206D01*
X148878055Y-97662452D01*
X148878052Y-97662455D01*
X148791806Y-97777664D01*
X148791802Y-97777671D01*
X148741508Y-97912517D01*
X148735101Y-97972116D01*
X148735101Y-97972123D01*
X148735100Y-97972135D01*
X89400500Y-97972135D01*
X89400500Y-96519994D01*
X169029957Y-96519994D01*
X169029957Y-96520005D01*
X169050490Y-96767812D01*
X169050492Y-96767824D01*
X169111536Y-97008881D01*
X169211426Y-97236606D01*
X169347433Y-97444782D01*
X169347436Y-97444785D01*
X169515856Y-97627738D01*
X169712091Y-97780474D01*
X169930790Y-97898828D01*
X170165986Y-97979571D01*
X170411265Y-98020500D01*
X170659935Y-98020500D01*
X170905214Y-97979571D01*
X171140410Y-97898828D01*
X171359109Y-97780474D01*
X171555344Y-97627738D01*
X171723764Y-97444785D01*
X171859773Y-97236607D01*
X171959663Y-97008881D01*
X172020708Y-96767821D01*
X172020709Y-96767812D01*
X172041243Y-96520005D01*
X172041243Y-96519994D01*
X172020709Y-96272187D01*
X172020707Y-96272175D01*
X171959663Y-96031118D01*
X171859773Y-95803393D01*
X171723766Y-95595217D01*
X171618836Y-95481233D01*
X171555344Y-95412262D01*
X171359109Y-95259526D01*
X171359107Y-95259525D01*
X171359106Y-95259524D01*
X171140411Y-95141172D01*
X171140402Y-95141169D01*
X170905216Y-95060429D01*
X170659935Y-95019500D01*
X170411265Y-95019500D01*
X170165983Y-95060429D01*
X169930797Y-95141169D01*
X169930788Y-95141172D01*
X169712093Y-95259524D01*
X169515857Y-95412261D01*
X169347433Y-95595217D01*
X169211426Y-95803393D01*
X169111536Y-96031118D01*
X169050492Y-96272175D01*
X169050490Y-96272187D01*
X169029957Y-96519994D01*
X89400500Y-96519994D01*
X89400500Y-93919994D01*
X148729957Y-93919994D01*
X148729957Y-93920005D01*
X148750490Y-94167812D01*
X148750492Y-94167824D01*
X148811536Y-94408881D01*
X148911426Y-94636606D01*
X149047433Y-94844782D01*
X149047436Y-94844785D01*
X149215856Y-95027738D01*
X149412091Y-95180474D01*
X149412093Y-95180475D01*
X149628705Y-95297700D01*
X149630790Y-95298828D01*
X149865986Y-95379571D01*
X150111265Y-95420500D01*
X150359935Y-95420500D01*
X150605214Y-95379571D01*
X150840410Y-95298828D01*
X151059109Y-95180474D01*
X151255344Y-95027738D01*
X151423764Y-94844785D01*
X151559773Y-94636607D01*
X151659663Y-94408881D01*
X151720708Y-94167821D01*
X151726640Y-94096233D01*
X151741243Y-93920005D01*
X151741243Y-93919994D01*
X151720709Y-93672187D01*
X151720707Y-93672175D01*
X151659663Y-93431118D01*
X151588989Y-93269998D01*
X203694609Y-93269998D01*
X203694609Y-93270001D01*
X203714136Y-93493200D01*
X203714137Y-93493208D01*
X203772126Y-93709625D01*
X203772127Y-93709627D01*
X203772128Y-93709630D01*
X203827683Y-93828768D01*
X203866819Y-93912696D01*
X203866821Y-93912700D01*
X203995329Y-94096228D01*
X203995334Y-94096234D01*
X204153765Y-94254665D01*
X204153771Y-94254670D01*
X204337299Y-94383178D01*
X204337301Y-94383179D01*
X204337304Y-94383181D01*
X204540370Y-94477872D01*
X204754414Y-94535225D01*
X204814074Y-94571590D01*
X204844603Y-94634437D01*
X204836308Y-94703813D01*
X204791823Y-94757691D01*
X204754415Y-94774774D01*
X204705230Y-94787953D01*
X204540374Y-94832126D01*
X204540368Y-94832129D01*
X204337306Y-94926818D01*
X204337304Y-94926819D01*
X204153764Y-95055334D01*
X203995334Y-95213764D01*
X203866819Y-95397304D01*
X203866818Y-95397306D01*
X203772129Y-95600368D01*
X203772126Y-95600374D01*
X203714137Y-95816791D01*
X203714136Y-95816799D01*
X203694609Y-96039998D01*
X203694609Y-96040001D01*
X203714136Y-96263200D01*
X203714137Y-96263208D01*
X203772126Y-96479625D01*
X203772127Y-96479627D01*
X203772128Y-96479630D01*
X203827683Y-96598768D01*
X203866819Y-96682696D01*
X203866821Y-96682700D01*
X203995329Y-96866228D01*
X203995334Y-96866234D01*
X204153765Y-97024665D01*
X204153771Y-97024670D01*
X204337299Y-97153178D01*
X204337301Y-97153179D01*
X204337304Y-97153181D01*
X204540370Y-97247872D01*
X204754414Y-97305225D01*
X204814074Y-97341590D01*
X204844603Y-97404437D01*
X204836308Y-97473813D01*
X204791823Y-97527691D01*
X204754415Y-97544774D01*
X204705230Y-97557953D01*
X204540374Y-97602126D01*
X204540368Y-97602129D01*
X204337306Y-97696818D01*
X204337304Y-97696819D01*
X204153764Y-97825334D01*
X203995334Y-97983764D01*
X203866819Y-98167304D01*
X203866818Y-98167306D01*
X203772129Y-98370368D01*
X203772126Y-98370374D01*
X203714137Y-98586791D01*
X203714136Y-98586799D01*
X203694609Y-98809998D01*
X203694609Y-98810001D01*
X203714136Y-99033200D01*
X203714137Y-99033208D01*
X203772126Y-99249625D01*
X203772127Y-99249627D01*
X203772128Y-99249630D01*
X203827683Y-99368768D01*
X203866819Y-99452696D01*
X203866821Y-99452700D01*
X203995329Y-99636228D01*
X203995334Y-99636234D01*
X204153765Y-99794665D01*
X204153771Y-99794670D01*
X204337299Y-99923178D01*
X204337301Y-99923179D01*
X204337304Y-99923181D01*
X204540370Y-100017872D01*
X204754414Y-100075225D01*
X204814074Y-100111590D01*
X204844603Y-100174437D01*
X204836308Y-100243813D01*
X204791823Y-100297691D01*
X204754415Y-100314774D01*
X204705230Y-100327953D01*
X204540374Y-100372126D01*
X204540368Y-100372129D01*
X204337306Y-100466818D01*
X204337304Y-100466819D01*
X204153764Y-100595334D01*
X203995334Y-100753764D01*
X203866819Y-100937304D01*
X203866818Y-100937306D01*
X203772129Y-101140368D01*
X203772126Y-101140374D01*
X203714137Y-101356791D01*
X203714136Y-101356799D01*
X203694609Y-101579998D01*
X203694609Y-101580001D01*
X203714136Y-101803200D01*
X203714137Y-101803208D01*
X203772126Y-102019625D01*
X203772127Y-102019627D01*
X203772128Y-102019630D01*
X203827683Y-102138768D01*
X203866819Y-102222696D01*
X203866821Y-102222700D01*
X203995329Y-102406228D01*
X203995334Y-102406234D01*
X204153765Y-102564665D01*
X204153771Y-102564670D01*
X204337299Y-102693178D01*
X204337301Y-102693179D01*
X204337304Y-102693181D01*
X204540370Y-102787872D01*
X204754414Y-102845225D01*
X204814074Y-102881590D01*
X204844603Y-102944437D01*
X204836308Y-103013813D01*
X204791823Y-103067691D01*
X204754415Y-103084774D01*
X204705230Y-103097953D01*
X204540374Y-103142126D01*
X204540368Y-103142129D01*
X204337306Y-103236818D01*
X204337304Y-103236819D01*
X204153764Y-103365334D01*
X203995334Y-103523764D01*
X203866819Y-103707304D01*
X203866818Y-103707306D01*
X203772129Y-103910368D01*
X203772126Y-103910374D01*
X203714137Y-104126791D01*
X203714136Y-104126799D01*
X203694609Y-104349998D01*
X203694609Y-104350001D01*
X203714136Y-104573200D01*
X203714137Y-104573208D01*
X203772126Y-104789625D01*
X203772127Y-104789627D01*
X203772128Y-104789630D01*
X203866819Y-104992696D01*
X203866821Y-104992700D01*
X203995329Y-105176228D01*
X203995334Y-105176234D01*
X204153765Y-105334665D01*
X204153771Y-105334670D01*
X204337299Y-105463178D01*
X204337301Y-105463179D01*
X204337304Y-105463181D01*
X204540370Y-105557872D01*
X204756794Y-105615863D01*
X204916226Y-105629811D01*
X204979998Y-105635391D01*
X204980000Y-105635391D01*
X204980002Y-105635391D01*
X205035801Y-105630509D01*
X205203206Y-105615863D01*
X205419630Y-105557872D01*
X205622696Y-105463181D01*
X205806233Y-105334667D01*
X205964667Y-105176233D01*
X206093181Y-104992696D01*
X206187872Y-104789630D01*
X206245863Y-104573206D01*
X206265391Y-104350000D01*
X206245863Y-104126794D01*
X206187872Y-103910370D01*
X206093181Y-103707305D01*
X205964667Y-103523767D01*
X205806233Y-103365333D01*
X205806229Y-103365330D01*
X205806228Y-103365329D01*
X205622700Y-103236821D01*
X205622696Y-103236819D01*
X205518449Y-103188208D01*
X205419630Y-103142128D01*
X205419626Y-103142127D01*
X205419622Y-103142125D01*
X205257884Y-103098788D01*
X205205585Y-103084774D01*
X205145925Y-103048410D01*
X205115396Y-102985563D01*
X205123691Y-102916188D01*
X205168176Y-102862310D01*
X205205584Y-102845225D01*
X205419630Y-102787872D01*
X205622696Y-102693181D01*
X205806233Y-102564667D01*
X205964667Y-102406233D01*
X206093181Y-102222696D01*
X206187872Y-102019630D01*
X206245863Y-101803206D01*
X206265391Y-101580000D01*
X206245863Y-101356794D01*
X206187872Y-101140370D01*
X206093181Y-100937305D01*
X205964667Y-100753767D01*
X205806233Y-100595333D01*
X205806229Y-100595330D01*
X205806228Y-100595329D01*
X205622700Y-100466821D01*
X205622696Y-100466819D01*
X205518449Y-100418208D01*
X205419630Y-100372128D01*
X205419626Y-100372127D01*
X205419622Y-100372125D01*
X205257884Y-100328788D01*
X205205585Y-100314774D01*
X205145925Y-100278410D01*
X205115396Y-100215563D01*
X205123691Y-100146188D01*
X205168176Y-100092310D01*
X205205584Y-100075225D01*
X205419630Y-100017872D01*
X205622696Y-99923181D01*
X205806233Y-99794667D01*
X205964667Y-99636233D01*
X206093181Y-99452696D01*
X206187872Y-99249630D01*
X206245863Y-99033206D01*
X206265391Y-98810000D01*
X206245863Y-98586794D01*
X206187872Y-98370370D01*
X206093181Y-98167305D01*
X205964667Y-97983767D01*
X205806233Y-97825333D01*
X205806229Y-97825330D01*
X205806228Y-97825329D01*
X205622700Y-97696821D01*
X205622696Y-97696819D01*
X205549002Y-97662455D01*
X205419630Y-97602128D01*
X205419626Y-97602127D01*
X205419622Y-97602125D01*
X205257884Y-97558788D01*
X205205585Y-97544774D01*
X205145925Y-97508410D01*
X205115396Y-97445563D01*
X205123691Y-97376188D01*
X205168176Y-97322310D01*
X205205584Y-97305225D01*
X205419630Y-97247872D01*
X205622696Y-97153181D01*
X205806233Y-97024667D01*
X205964667Y-96866233D01*
X206093181Y-96682696D01*
X206187872Y-96479630D01*
X206245863Y-96263206D01*
X206265391Y-96040000D01*
X206245863Y-95816794D01*
X206187872Y-95600370D01*
X206093181Y-95397305D01*
X205964667Y-95213767D01*
X205806233Y-95055333D01*
X205806229Y-95055330D01*
X205806228Y-95055329D01*
X205622700Y-94926821D01*
X205622696Y-94926819D01*
X205518449Y-94878208D01*
X205419630Y-94832128D01*
X205419626Y-94832127D01*
X205419622Y-94832125D01*
X205257884Y-94788788D01*
X205205585Y-94774774D01*
X205145925Y-94738410D01*
X205115396Y-94675563D01*
X205117855Y-94654998D01*
X206534609Y-94654998D01*
X206534609Y-94655001D01*
X206554136Y-94878200D01*
X206554137Y-94878208D01*
X206612126Y-95094625D01*
X206612127Y-95094627D01*
X206612128Y-95094630D01*
X206667683Y-95213768D01*
X206706819Y-95297696D01*
X206706821Y-95297700D01*
X206835329Y-95481228D01*
X206835334Y-95481234D01*
X206993765Y-95639665D01*
X206993771Y-95639670D01*
X207177299Y-95768178D01*
X207177301Y-95768179D01*
X207177304Y-95768181D01*
X207380370Y-95862872D01*
X207594414Y-95920225D01*
X207654074Y-95956590D01*
X207684603Y-96019437D01*
X207676308Y-96088813D01*
X207631823Y-96142691D01*
X207594415Y-96159774D01*
X207545230Y-96172953D01*
X207380374Y-96217126D01*
X207380368Y-96217129D01*
X207177306Y-96311818D01*
X207177304Y-96311819D01*
X206993764Y-96440334D01*
X206835334Y-96598764D01*
X206706819Y-96782304D01*
X206706818Y-96782306D01*
X206612129Y-96985368D01*
X206612126Y-96985374D01*
X206554137Y-97201791D01*
X206554136Y-97201799D01*
X206534609Y-97424998D01*
X206534609Y-97425001D01*
X206554136Y-97648200D01*
X206554137Y-97648208D01*
X206612126Y-97864625D01*
X206612127Y-97864627D01*
X206612128Y-97864630D01*
X206667683Y-97983768D01*
X206706819Y-98067696D01*
X206706821Y-98067700D01*
X206835329Y-98251228D01*
X206835334Y-98251234D01*
X206993765Y-98409665D01*
X206993771Y-98409670D01*
X207177299Y-98538178D01*
X207177301Y-98538179D01*
X207177304Y-98538181D01*
X207380370Y-98632872D01*
X207594414Y-98690225D01*
X207654074Y-98726590D01*
X207684603Y-98789437D01*
X207676308Y-98858813D01*
X207631823Y-98912691D01*
X207594415Y-98929774D01*
X207545230Y-98942953D01*
X207380374Y-98987126D01*
X207380368Y-98987129D01*
X207177306Y-99081818D01*
X207177304Y-99081819D01*
X206993764Y-99210334D01*
X206835334Y-99368764D01*
X206706819Y-99552304D01*
X206706818Y-99552306D01*
X206612129Y-99755368D01*
X206612126Y-99755374D01*
X206554137Y-99971791D01*
X206554136Y-99971799D01*
X206534609Y-100194998D01*
X206534609Y-100195001D01*
X206554136Y-100418200D01*
X206554137Y-100418208D01*
X206612126Y-100634625D01*
X206612127Y-100634627D01*
X206612128Y-100634630D01*
X206667683Y-100753768D01*
X206706819Y-100837696D01*
X206706821Y-100837700D01*
X206835329Y-101021228D01*
X206835334Y-101021234D01*
X206993765Y-101179665D01*
X206993771Y-101179670D01*
X207177299Y-101308178D01*
X207177301Y-101308179D01*
X207177304Y-101308181D01*
X207380370Y-101402872D01*
X207594414Y-101460225D01*
X207654074Y-101496590D01*
X207684603Y-101559437D01*
X207676308Y-101628813D01*
X207631823Y-101682691D01*
X207594415Y-101699774D01*
X207545230Y-101712953D01*
X207380374Y-101757126D01*
X207380368Y-101757129D01*
X207177306Y-101851818D01*
X207177304Y-101851819D01*
X206993764Y-101980334D01*
X206835334Y-102138764D01*
X206706819Y-102322304D01*
X206706818Y-102322306D01*
X206612129Y-102525368D01*
X206612126Y-102525374D01*
X206554137Y-102741791D01*
X206554136Y-102741799D01*
X206534609Y-102964998D01*
X206534609Y-102965001D01*
X206554136Y-103188200D01*
X206554137Y-103188208D01*
X206612126Y-103404625D01*
X206612127Y-103404627D01*
X206612128Y-103404630D01*
X206667683Y-103523768D01*
X206706819Y-103607696D01*
X206706821Y-103607700D01*
X206835329Y-103791228D01*
X206835334Y-103791234D01*
X206993765Y-103949665D01*
X206993771Y-103949670D01*
X207177299Y-104078178D01*
X207177301Y-104078179D01*
X207177304Y-104078181D01*
X207380370Y-104172872D01*
X207596794Y-104230863D01*
X207756226Y-104244811D01*
X207819998Y-104250391D01*
X207820000Y-104250391D01*
X207820002Y-104250391D01*
X207875801Y-104245509D01*
X208043206Y-104230863D01*
X208259630Y-104172872D01*
X208462696Y-104078181D01*
X208646233Y-103949667D01*
X208804667Y-103791233D01*
X208933181Y-103607696D01*
X209027872Y-103404630D01*
X209085863Y-103188206D01*
X209105391Y-102965000D01*
X209085863Y-102741794D01*
X209027872Y-102525370D01*
X208933181Y-102322305D01*
X208804667Y-102138767D01*
X208646233Y-101980333D01*
X208646229Y-101980330D01*
X208646228Y-101980329D01*
X208462700Y-101851821D01*
X208462696Y-101851819D01*
X208358449Y-101803208D01*
X208259630Y-101757128D01*
X208259626Y-101757127D01*
X208259622Y-101757125D01*
X208097884Y-101713788D01*
X208045585Y-101699774D01*
X207985925Y-101663410D01*
X207955396Y-101600563D01*
X207963691Y-101531188D01*
X208008176Y-101477310D01*
X208045584Y-101460225D01*
X208259630Y-101402872D01*
X208462696Y-101308181D01*
X208646233Y-101179667D01*
X208804667Y-101021233D01*
X208933181Y-100837696D01*
X209027872Y-100634630D01*
X209085863Y-100418206D01*
X209105391Y-100195000D01*
X209085863Y-99971794D01*
X209027872Y-99755370D01*
X208933181Y-99552305D01*
X208804667Y-99368767D01*
X208646233Y-99210333D01*
X208646229Y-99210330D01*
X208646228Y-99210329D01*
X208462700Y-99081821D01*
X208462696Y-99081819D01*
X208358449Y-99033208D01*
X208259630Y-98987128D01*
X208259626Y-98987127D01*
X208259622Y-98987125D01*
X208097884Y-98943788D01*
X208045585Y-98929774D01*
X207985925Y-98893410D01*
X207955396Y-98830563D01*
X207963691Y-98761188D01*
X208008176Y-98707310D01*
X208045584Y-98690225D01*
X208259630Y-98632872D01*
X208462696Y-98538181D01*
X208646233Y-98409667D01*
X208804667Y-98251233D01*
X208933181Y-98067696D01*
X209027872Y-97864630D01*
X209085863Y-97648206D01*
X209105391Y-97425000D01*
X209085863Y-97201794D01*
X209027872Y-96985370D01*
X208933181Y-96782305D01*
X208804667Y-96598767D01*
X208646233Y-96440333D01*
X208646229Y-96440330D01*
X208646228Y-96440329D01*
X208462700Y-96311821D01*
X208462696Y-96311819D01*
X208462694Y-96311818D01*
X208259630Y-96217128D01*
X208259626Y-96217127D01*
X208259622Y-96217125D01*
X208097884Y-96173788D01*
X208045585Y-96159774D01*
X207985925Y-96123410D01*
X207955396Y-96060563D01*
X207963691Y-95991188D01*
X208008176Y-95937310D01*
X208045584Y-95920225D01*
X208259630Y-95862872D01*
X208462696Y-95768181D01*
X208646233Y-95639667D01*
X208804667Y-95481233D01*
X208933181Y-95297696D01*
X209027872Y-95094630D01*
X209085863Y-94878206D01*
X209105391Y-94655000D01*
X209085863Y-94431794D01*
X209027872Y-94215370D01*
X208933181Y-94012305D01*
X208804667Y-93828767D01*
X208646233Y-93670333D01*
X208646229Y-93670330D01*
X208646228Y-93670329D01*
X208462700Y-93541821D01*
X208462696Y-93541819D01*
X208358449Y-93493208D01*
X208259630Y-93447128D01*
X208259627Y-93447127D01*
X208259625Y-93447126D01*
X208043208Y-93389137D01*
X208043200Y-93389136D01*
X207820002Y-93369609D01*
X207819998Y-93369609D01*
X207596799Y-93389136D01*
X207596791Y-93389137D01*
X207380374Y-93447126D01*
X207380368Y-93447129D01*
X207177306Y-93541818D01*
X207177304Y-93541819D01*
X206993764Y-93670334D01*
X206835334Y-93828764D01*
X206706819Y-94012304D01*
X206706818Y-94012306D01*
X206612129Y-94215368D01*
X206612126Y-94215374D01*
X206554137Y-94431791D01*
X206554136Y-94431799D01*
X206534609Y-94654998D01*
X205117855Y-94654998D01*
X205123691Y-94606188D01*
X205168176Y-94552310D01*
X205205584Y-94535225D01*
X205419630Y-94477872D01*
X205622696Y-94383181D01*
X205806233Y-94254667D01*
X205964667Y-94096233D01*
X206093181Y-93912696D01*
X206187872Y-93709630D01*
X206245863Y-93493206D01*
X206265391Y-93270000D01*
X206245863Y-93046794D01*
X206187872Y-92830370D01*
X206093181Y-92627305D01*
X205964667Y-92443767D01*
X205806233Y-92285333D01*
X205806229Y-92285330D01*
X205806228Y-92285329D01*
X205622700Y-92156821D01*
X205622696Y-92156819D01*
X205622694Y-92156818D01*
X205419630Y-92062128D01*
X205419627Y-92062127D01*
X205419625Y-92062126D01*
X205203208Y-92004137D01*
X205203200Y-92004136D01*
X204980002Y-91984609D01*
X204979998Y-91984609D01*
X204756799Y-92004136D01*
X204756791Y-92004137D01*
X204540374Y-92062126D01*
X204540368Y-92062129D01*
X204337306Y-92156818D01*
X204337304Y-92156819D01*
X204153764Y-92285334D01*
X203995334Y-92443764D01*
X203866819Y-92627304D01*
X203866818Y-92627306D01*
X203772129Y-92830368D01*
X203772126Y-92830374D01*
X203714137Y-93046791D01*
X203714136Y-93046799D01*
X203694609Y-93269998D01*
X151588989Y-93269998D01*
X151559773Y-93203393D01*
X151423766Y-92995217D01*
X151402157Y-92971744D01*
X151255344Y-92812262D01*
X151059109Y-92659526D01*
X151059107Y-92659525D01*
X151059106Y-92659524D01*
X150840411Y-92541172D01*
X150840402Y-92541169D01*
X150605216Y-92460429D01*
X150359935Y-92419500D01*
X150111265Y-92419500D01*
X149865983Y-92460429D01*
X149630797Y-92541169D01*
X149630788Y-92541172D01*
X149412093Y-92659524D01*
X149215857Y-92812261D01*
X149047433Y-92995217D01*
X148911426Y-93203393D01*
X148811536Y-93431118D01*
X148750492Y-93672175D01*
X148750490Y-93672187D01*
X148729957Y-93919994D01*
X89400500Y-93919994D01*
X89400500Y-91829996D01*
X185012535Y-91829996D01*
X185012535Y-91830003D01*
X185032730Y-92009249D01*
X185032731Y-92009254D01*
X185092311Y-92179523D01*
X185158797Y-92285334D01*
X185188284Y-92332262D01*
X185315838Y-92459816D01*
X185468578Y-92555789D01*
X185638845Y-92615368D01*
X185638850Y-92615369D01*
X185818096Y-92635565D01*
X185818100Y-92635565D01*
X185818104Y-92635565D01*
X185997349Y-92615369D01*
X185997352Y-92615368D01*
X185997355Y-92615368D01*
X186167622Y-92555789D01*
X186320362Y-92459816D01*
X186447916Y-92332262D01*
X186543889Y-92179522D01*
X186603468Y-92009255D01*
X186622538Y-91840003D01*
X186622539Y-91839996D01*
X189702535Y-91839996D01*
X189702535Y-91840003D01*
X189722730Y-92019249D01*
X189722731Y-92019254D01*
X189782311Y-92189523D01*
X189872001Y-92332262D01*
X189878284Y-92342262D01*
X190005838Y-92469816D01*
X190096180Y-92526582D01*
X190142661Y-92555788D01*
X190158578Y-92565789D01*
X190328845Y-92625368D01*
X190328850Y-92625369D01*
X190508096Y-92645565D01*
X190508100Y-92645565D01*
X190508104Y-92645565D01*
X190687349Y-92625369D01*
X190687352Y-92625368D01*
X190687355Y-92625368D01*
X190857622Y-92565789D01*
X191010362Y-92469816D01*
X191137916Y-92342262D01*
X191233889Y-92189522D01*
X191293468Y-92019255D01*
X191294595Y-92009254D01*
X191313665Y-91840003D01*
X191313665Y-91839996D01*
X191293469Y-91660750D01*
X191293468Y-91660745D01*
X191233888Y-91490476D01*
X191137915Y-91337737D01*
X191010362Y-91210184D01*
X190857623Y-91114211D01*
X190687354Y-91054631D01*
X190687349Y-91054630D01*
X190508104Y-91034435D01*
X190508096Y-91034435D01*
X190328850Y-91054630D01*
X190328845Y-91054631D01*
X190158576Y-91114211D01*
X190005837Y-91210184D01*
X189878284Y-91337737D01*
X189782311Y-91490476D01*
X189722731Y-91660745D01*
X189722730Y-91660750D01*
X189702535Y-91839996D01*
X186622539Y-91839996D01*
X186623665Y-91830003D01*
X186623665Y-91829996D01*
X186603469Y-91650750D01*
X186603468Y-91650745D01*
X186543888Y-91480476D01*
X186454199Y-91337738D01*
X186447916Y-91327738D01*
X186320362Y-91200184D01*
X186167623Y-91104211D01*
X185997354Y-91044631D01*
X185997349Y-91044630D01*
X185818104Y-91024435D01*
X185818096Y-91024435D01*
X185638850Y-91044630D01*
X185638845Y-91044631D01*
X185468576Y-91104211D01*
X185315837Y-91200184D01*
X185188284Y-91327737D01*
X185092311Y-91480476D01*
X185032731Y-91650745D01*
X185032730Y-91650750D01*
X185012535Y-91829996D01*
X89400500Y-91829996D01*
X89400500Y-87315000D01*
X95886732Y-87315000D01*
X95905785Y-87629989D01*
X95905785Y-87629994D01*
X95905786Y-87629995D01*
X95962669Y-87940396D01*
X95962670Y-87940400D01*
X95962671Y-87940404D01*
X96056545Y-88241659D01*
X96056549Y-88241670D01*
X96056550Y-88241673D01*
X96056552Y-88241678D01*
X96155114Y-88460673D01*
X96186066Y-88529446D01*
X96349326Y-88799510D01*
X96543943Y-89047920D01*
X96767079Y-89271056D01*
X97015489Y-89465673D01*
X97015492Y-89465675D01*
X97015495Y-89465677D01*
X97285554Y-89628934D01*
X97573322Y-89758448D01*
X97573332Y-89758451D01*
X97573340Y-89758454D01*
X97774176Y-89821036D01*
X97874604Y-89852331D01*
X98185005Y-89909214D01*
X98500000Y-89928268D01*
X98814995Y-89909214D01*
X99125396Y-89852331D01*
X99426678Y-89758448D01*
X99714446Y-89628934D01*
X99984505Y-89465677D01*
X100232917Y-89271059D01*
X100456059Y-89047917D01*
X100650677Y-88799505D01*
X100813934Y-88529446D01*
X100943448Y-88241678D01*
X101037331Y-87940396D01*
X101094214Y-87629995D01*
X101113268Y-87315000D01*
X101094214Y-87000005D01*
X101037331Y-86689604D01*
X100943448Y-86388322D01*
X100912696Y-86319994D01*
X148729957Y-86319994D01*
X148729957Y-86320005D01*
X148750490Y-86567812D01*
X148750492Y-86567824D01*
X148811536Y-86808881D01*
X148911426Y-87036606D01*
X149047433Y-87244782D01*
X149047436Y-87244785D01*
X149215856Y-87427738D01*
X149412091Y-87580474D01*
X149630790Y-87698828D01*
X149865986Y-87779571D01*
X150111265Y-87820500D01*
X150359935Y-87820500D01*
X150605214Y-87779571D01*
X150840410Y-87698828D01*
X151059109Y-87580474D01*
X151255344Y-87427738D01*
X151423764Y-87244785D01*
X151559773Y-87036607D01*
X151659663Y-86808881D01*
X151720708Y-86567821D01*
X151720709Y-86567812D01*
X151741243Y-86320005D01*
X151741243Y-86319994D01*
X169029957Y-86319994D01*
X169029957Y-86320005D01*
X169050490Y-86567812D01*
X169050492Y-86567824D01*
X169111536Y-86808881D01*
X169211426Y-87036606D01*
X169347433Y-87244782D01*
X169347436Y-87244785D01*
X169515856Y-87427738D01*
X169712091Y-87580474D01*
X169930790Y-87698828D01*
X170165986Y-87779571D01*
X170411265Y-87820500D01*
X170659935Y-87820500D01*
X170905214Y-87779571D01*
X171140410Y-87698828D01*
X171359109Y-87580474D01*
X171555344Y-87427738D01*
X171723764Y-87244785D01*
X171859773Y-87036607D01*
X171959663Y-86808881D01*
X172020708Y-86567821D01*
X172020709Y-86567812D01*
X172041243Y-86320005D01*
X172041243Y-86319994D01*
X172040415Y-86310000D01*
X203786732Y-86310000D01*
X203805785Y-86624989D01*
X203805785Y-86624994D01*
X203805786Y-86624995D01*
X203862669Y-86935396D01*
X203862670Y-86935400D01*
X203862671Y-86935404D01*
X203956545Y-87236659D01*
X203956549Y-87236670D01*
X203956550Y-87236673D01*
X203956552Y-87236678D01*
X203960201Y-87244785D01*
X204086066Y-87524446D01*
X204249326Y-87794510D01*
X204443943Y-88042920D01*
X204667079Y-88266056D01*
X204915489Y-88460673D01*
X204915492Y-88460675D01*
X204915495Y-88460677D01*
X205185554Y-88623934D01*
X205473322Y-88753448D01*
X205473332Y-88753451D01*
X205473340Y-88753454D01*
X205674176Y-88816036D01*
X205774604Y-88847331D01*
X206085005Y-88904214D01*
X206400000Y-88923268D01*
X206714995Y-88904214D01*
X207025396Y-88847331D01*
X207326678Y-88753448D01*
X207614446Y-88623934D01*
X207884505Y-88460677D01*
X208132917Y-88266059D01*
X208356059Y-88042917D01*
X208550677Y-87794505D01*
X208713934Y-87524446D01*
X208843448Y-87236678D01*
X208937331Y-86935396D01*
X208994214Y-86624995D01*
X209013268Y-86310000D01*
X208994214Y-85995005D01*
X208937331Y-85684604D01*
X208843448Y-85383322D01*
X208713934Y-85095554D01*
X208550677Y-84825495D01*
X208550675Y-84825492D01*
X208550673Y-84825489D01*
X208356056Y-84577079D01*
X208132920Y-84353943D01*
X207884510Y-84159326D01*
X207614446Y-83996066D01*
X207326678Y-83866552D01*
X207326673Y-83866550D01*
X207326670Y-83866549D01*
X207326659Y-83866545D01*
X207025404Y-83772671D01*
X207025400Y-83772670D01*
X207025396Y-83772669D01*
X206714995Y-83715786D01*
X206714994Y-83715785D01*
X206714989Y-83715785D01*
X206400000Y-83696732D01*
X206085010Y-83715785D01*
X206085005Y-83715786D01*
X205774604Y-83772669D01*
X205774601Y-83772669D01*
X205774595Y-83772671D01*
X205473340Y-83866545D01*
X205473329Y-83866549D01*
X205185553Y-83996066D01*
X204915489Y-84159326D01*
X204667079Y-84353943D01*
X204443943Y-84577079D01*
X204249326Y-84825489D01*
X204086066Y-85095553D01*
X203956549Y-85383329D01*
X203956545Y-85383340D01*
X203862671Y-85684595D01*
X203862669Y-85684601D01*
X203862669Y-85684604D01*
X203835819Y-85831119D01*
X203805785Y-85995010D01*
X203786732Y-86310000D01*
X172040415Y-86310000D01*
X172020709Y-86072187D01*
X172020707Y-86072175D01*
X171959663Y-85831118D01*
X171859773Y-85603393D01*
X171723766Y-85395217D01*
X171690371Y-85358941D01*
X171555344Y-85212262D01*
X171359109Y-85059526D01*
X171359107Y-85059525D01*
X171359106Y-85059524D01*
X171140411Y-84941172D01*
X171140402Y-84941169D01*
X170905216Y-84860429D01*
X170659935Y-84819500D01*
X170411265Y-84819500D01*
X170165983Y-84860429D01*
X169930797Y-84941169D01*
X169930788Y-84941172D01*
X169712093Y-85059524D01*
X169515857Y-85212261D01*
X169347433Y-85395217D01*
X169211426Y-85603393D01*
X169111536Y-85831118D01*
X169050492Y-86072175D01*
X169050490Y-86072187D01*
X169029957Y-86319994D01*
X151741243Y-86319994D01*
X151720709Y-86072187D01*
X151720707Y-86072175D01*
X151659663Y-85831118D01*
X151559773Y-85603393D01*
X151423766Y-85395217D01*
X151390371Y-85358941D01*
X151255344Y-85212262D01*
X151059109Y-85059526D01*
X151059107Y-85059525D01*
X151059106Y-85059524D01*
X150840411Y-84941172D01*
X150840402Y-84941169D01*
X150605216Y-84860429D01*
X150359935Y-84819500D01*
X150111265Y-84819500D01*
X149865983Y-84860429D01*
X149630797Y-84941169D01*
X149630788Y-84941172D01*
X149412093Y-85059524D01*
X149215857Y-85212261D01*
X149047433Y-85395217D01*
X148911426Y-85603393D01*
X148811536Y-85831118D01*
X148750492Y-86072175D01*
X148750490Y-86072187D01*
X148729957Y-86319994D01*
X100912696Y-86319994D01*
X100813934Y-86100554D01*
X100650677Y-85830495D01*
X100650675Y-85830492D01*
X100650673Y-85830489D01*
X100456056Y-85582079D01*
X100232920Y-85358943D01*
X99984510Y-85164326D01*
X99714446Y-85001066D01*
X99581360Y-84941169D01*
X99426678Y-84871552D01*
X99426673Y-84871550D01*
X99426670Y-84871549D01*
X99426659Y-84871545D01*
X99125404Y-84777671D01*
X99125400Y-84777670D01*
X99125396Y-84777669D01*
X98814995Y-84720786D01*
X98814994Y-84720785D01*
X98814989Y-84720785D01*
X98500000Y-84701732D01*
X98185010Y-84720785D01*
X98185005Y-84720786D01*
X97874604Y-84777669D01*
X97874601Y-84777669D01*
X97874595Y-84777671D01*
X97573340Y-84871545D01*
X97573329Y-84871549D01*
X97285553Y-85001066D01*
X97015489Y-85164326D01*
X96767079Y-85358943D01*
X96543943Y-85582079D01*
X96349326Y-85830489D01*
X96186066Y-86100553D01*
X96056549Y-86388329D01*
X96056545Y-86388340D01*
X95962671Y-86689595D01*
X95905785Y-87000010D01*
X95886732Y-87315000D01*
X89400500Y-87315000D01*
X89400500Y-82029996D01*
X176572535Y-82029996D01*
X176572535Y-82030003D01*
X176592730Y-82209249D01*
X176592731Y-82209254D01*
X176652311Y-82379523D01*
X176748284Y-82532262D01*
X176875838Y-82659816D01*
X177028578Y-82755789D01*
X177171467Y-82805788D01*
X177198845Y-82815368D01*
X177198850Y-82815369D01*
X177378096Y-82835565D01*
X177378100Y-82835565D01*
X177378104Y-82835565D01*
X177557349Y-82815369D01*
X177557352Y-82815368D01*
X177557355Y-82815368D01*
X177727622Y-82755789D01*
X177880362Y-82659816D01*
X178007916Y-82532262D01*
X178103889Y-82379522D01*
X178163468Y-82209255D01*
X178178031Y-82080003D01*
X178178032Y-82079996D01*
X178432535Y-82079996D01*
X178432535Y-82080003D01*
X178452730Y-82259249D01*
X178452731Y-82259254D01*
X178512311Y-82429523D01*
X178576867Y-82532262D01*
X178608284Y-82582262D01*
X178735838Y-82709816D01*
X178888578Y-82805789D01*
X178973673Y-82835565D01*
X179058845Y-82865368D01*
X179058850Y-82865369D01*
X179238096Y-82885565D01*
X179238100Y-82885565D01*
X179238104Y-82885565D01*
X179417349Y-82865369D01*
X179417352Y-82865368D01*
X179417355Y-82865368D01*
X179587622Y-82805789D01*
X179740362Y-82709816D01*
X179867916Y-82582262D01*
X179963889Y-82429522D01*
X179964563Y-82427596D01*
X185063335Y-82427596D01*
X185063335Y-82427603D01*
X185083530Y-82606849D01*
X185083531Y-82606854D01*
X185143111Y-82777123D01*
X185198560Y-82865369D01*
X185239084Y-82929862D01*
X185366638Y-83057416D01*
X185519378Y-83153389D01*
X185689645Y-83212968D01*
X185689650Y-83212969D01*
X185868896Y-83233165D01*
X185868900Y-83233165D01*
X185868904Y-83233165D01*
X186048149Y-83212969D01*
X186048152Y-83212968D01*
X186048155Y-83212968D01*
X186218422Y-83153389D01*
X186371162Y-83057416D01*
X186498716Y-82929862D01*
X186594689Y-82777122D01*
X186654268Y-82606855D01*
X186662673Y-82532262D01*
X186674465Y-82427603D01*
X186674465Y-82427596D01*
X186654269Y-82248350D01*
X186654268Y-82248345D01*
X186640588Y-82209249D01*
X186594689Y-82078078D01*
X186564481Y-82030003D01*
X186498715Y-81925337D01*
X186371162Y-81797784D01*
X186218423Y-81701811D01*
X186048154Y-81642231D01*
X186048149Y-81642230D01*
X185868904Y-81622035D01*
X185868896Y-81622035D01*
X185689650Y-81642230D01*
X185689645Y-81642231D01*
X185519376Y-81701811D01*
X185366637Y-81797784D01*
X185239084Y-81925337D01*
X185143111Y-82078076D01*
X185083531Y-82248345D01*
X185083530Y-82248350D01*
X185063335Y-82427596D01*
X179964563Y-82427596D01*
X180023468Y-82259255D01*
X180024697Y-82248350D01*
X180043665Y-82080003D01*
X180043665Y-82079996D01*
X180023469Y-81900750D01*
X180023468Y-81900745D01*
X179963888Y-81730476D01*
X179906968Y-81639889D01*
X179867916Y-81577738D01*
X179740362Y-81450184D01*
X179587623Y-81354211D01*
X179417354Y-81294631D01*
X179417349Y-81294630D01*
X179238104Y-81274435D01*
X179238096Y-81274435D01*
X179058850Y-81294630D01*
X179058845Y-81294631D01*
X178888576Y-81354211D01*
X178735837Y-81450184D01*
X178608284Y-81577737D01*
X178512311Y-81730476D01*
X178452731Y-81900745D01*
X178452730Y-81900750D01*
X178432535Y-82079996D01*
X178178032Y-82079996D01*
X178183665Y-82030003D01*
X178183665Y-82029996D01*
X178163469Y-81850750D01*
X178163468Y-81850745D01*
X178121384Y-81730476D01*
X178103889Y-81680478D01*
X178079857Y-81642232D01*
X178007915Y-81527737D01*
X177880362Y-81400184D01*
X177727623Y-81304211D01*
X177557354Y-81244631D01*
X177557349Y-81244630D01*
X177378104Y-81224435D01*
X177378096Y-81224435D01*
X177198850Y-81244630D01*
X177198845Y-81244631D01*
X177028576Y-81304211D01*
X176875837Y-81400184D01*
X176748284Y-81527737D01*
X176652311Y-81680476D01*
X176592731Y-81850745D01*
X176592730Y-81850750D01*
X176572535Y-82029996D01*
X89400500Y-82029996D01*
X89400500Y-70659998D01*
X95794609Y-70659998D01*
X95794609Y-70660001D01*
X95814136Y-70883200D01*
X95814137Y-70883208D01*
X95872126Y-71099625D01*
X95872127Y-71099627D01*
X95872128Y-71099630D01*
X95902439Y-71164632D01*
X95966819Y-71302696D01*
X95966821Y-71302700D01*
X96095329Y-71486228D01*
X96095334Y-71486234D01*
X96253765Y-71644665D01*
X96253771Y-71644670D01*
X96437299Y-71773178D01*
X96437301Y-71773179D01*
X96437304Y-71773181D01*
X96640370Y-71867872D01*
X96854414Y-71925225D01*
X96914074Y-71961590D01*
X96944603Y-72024437D01*
X96936308Y-72093813D01*
X96891823Y-72147691D01*
X96854415Y-72164774D01*
X96805230Y-72177953D01*
X96640374Y-72222126D01*
X96640368Y-72222129D01*
X96437306Y-72316818D01*
X96437304Y-72316819D01*
X96253764Y-72445334D01*
X96095334Y-72603764D01*
X95966819Y-72787304D01*
X95966818Y-72787306D01*
X95872129Y-72990368D01*
X95872126Y-72990374D01*
X95814137Y-73206791D01*
X95814136Y-73206799D01*
X95794609Y-73429998D01*
X95794609Y-73430001D01*
X95814136Y-73653200D01*
X95814137Y-73653208D01*
X95872126Y-73869625D01*
X95872127Y-73869627D01*
X95872128Y-73869630D01*
X95927683Y-73988768D01*
X95966819Y-74072696D01*
X95966821Y-74072700D01*
X96095329Y-74256228D01*
X96095334Y-74256234D01*
X96253765Y-74414665D01*
X96253771Y-74414670D01*
X96437299Y-74543178D01*
X96437301Y-74543179D01*
X96437304Y-74543181D01*
X96640370Y-74637872D01*
X96854414Y-74695225D01*
X96914074Y-74731590D01*
X96944603Y-74794437D01*
X96936308Y-74863813D01*
X96891823Y-74917691D01*
X96854415Y-74934774D01*
X96805230Y-74947953D01*
X96640374Y-74992126D01*
X96640368Y-74992129D01*
X96437306Y-75086818D01*
X96437304Y-75086819D01*
X96253764Y-75215334D01*
X96095334Y-75373764D01*
X95966819Y-75557304D01*
X95966818Y-75557306D01*
X95872129Y-75760368D01*
X95872126Y-75760374D01*
X95814137Y-75976791D01*
X95814136Y-75976799D01*
X95794609Y-76199998D01*
X95794609Y-76200001D01*
X95814136Y-76423200D01*
X95814137Y-76423208D01*
X95872126Y-76639625D01*
X95872127Y-76639627D01*
X95872128Y-76639630D01*
X95899929Y-76699249D01*
X95966819Y-76842696D01*
X95966821Y-76842700D01*
X96095329Y-77026228D01*
X96095334Y-77026234D01*
X96253765Y-77184665D01*
X96253771Y-77184670D01*
X96437299Y-77313178D01*
X96437301Y-77313179D01*
X96437304Y-77313181D01*
X96640370Y-77407872D01*
X96854414Y-77465225D01*
X96914074Y-77501590D01*
X96944603Y-77564437D01*
X96936308Y-77633813D01*
X96891823Y-77687691D01*
X96854415Y-77704774D01*
X96805230Y-77717953D01*
X96640374Y-77762126D01*
X96640368Y-77762129D01*
X96437306Y-77856818D01*
X96437304Y-77856819D01*
X96253764Y-77985334D01*
X96095334Y-78143764D01*
X95966819Y-78327304D01*
X95966818Y-78327306D01*
X95872129Y-78530368D01*
X95872126Y-78530374D01*
X95814137Y-78746791D01*
X95814136Y-78746799D01*
X95794609Y-78969998D01*
X95794609Y-78970001D01*
X95814136Y-79193200D01*
X95814137Y-79193208D01*
X95872126Y-79409625D01*
X95872127Y-79409627D01*
X95872128Y-79409630D01*
X95956583Y-79590745D01*
X95966819Y-79612696D01*
X95966821Y-79612700D01*
X96095329Y-79796228D01*
X96095334Y-79796234D01*
X96253765Y-79954665D01*
X96253771Y-79954670D01*
X96437299Y-80083178D01*
X96437301Y-80083179D01*
X96437304Y-80083181D01*
X96640370Y-80177872D01*
X96856794Y-80235863D01*
X97016226Y-80249811D01*
X97079998Y-80255391D01*
X97080000Y-80255391D01*
X97080002Y-80255391D01*
X97135801Y-80250509D01*
X97303206Y-80235863D01*
X97519630Y-80177872D01*
X97722696Y-80083181D01*
X97906233Y-79954667D01*
X98064667Y-79796233D01*
X98193181Y-79612696D01*
X98287872Y-79409630D01*
X98345863Y-79193206D01*
X98365391Y-78970000D01*
X98345863Y-78746794D01*
X98287872Y-78530370D01*
X98193181Y-78327305D01*
X98064667Y-78143767D01*
X97906233Y-77985333D01*
X97906229Y-77985330D01*
X97906228Y-77985329D01*
X97722700Y-77856821D01*
X97722696Y-77856819D01*
X97722694Y-77856818D01*
X97519630Y-77762128D01*
X97519626Y-77762127D01*
X97519622Y-77762125D01*
X97357884Y-77718788D01*
X97305585Y-77704774D01*
X97245925Y-77668410D01*
X97215396Y-77605563D01*
X97223691Y-77536188D01*
X97268176Y-77482310D01*
X97305584Y-77465225D01*
X97519630Y-77407872D01*
X97722696Y-77313181D01*
X97906233Y-77184667D01*
X98064667Y-77026233D01*
X98193181Y-76842696D01*
X98287872Y-76639630D01*
X98345863Y-76423206D01*
X98365391Y-76200000D01*
X98345863Y-75976794D01*
X98287872Y-75760370D01*
X98193181Y-75557305D01*
X98064667Y-75373767D01*
X97906233Y-75215333D01*
X97906229Y-75215330D01*
X97906228Y-75215329D01*
X97722700Y-75086821D01*
X97722696Y-75086819D01*
X97722694Y-75086818D01*
X97519630Y-74992128D01*
X97519626Y-74992127D01*
X97519622Y-74992125D01*
X97357884Y-74948788D01*
X97305585Y-74934774D01*
X97245925Y-74898410D01*
X97215396Y-74835563D01*
X97217855Y-74814998D01*
X98634609Y-74814998D01*
X98634609Y-74815001D01*
X98654136Y-75038200D01*
X98654137Y-75038208D01*
X98712126Y-75254625D01*
X98712127Y-75254627D01*
X98712128Y-75254630D01*
X98767683Y-75373768D01*
X98806819Y-75457696D01*
X98806821Y-75457700D01*
X98935329Y-75641228D01*
X98935334Y-75641234D01*
X99093765Y-75799665D01*
X99093771Y-75799670D01*
X99277299Y-75928178D01*
X99277301Y-75928179D01*
X99277304Y-75928181D01*
X99480370Y-76022872D01*
X99695379Y-76080484D01*
X99755039Y-76116848D01*
X99785568Y-76179695D01*
X99777273Y-76249070D01*
X99732788Y-76302948D01*
X99695379Y-76320033D01*
X99480547Y-76377597D01*
X99480540Y-76377600D01*
X99277556Y-76472253D01*
X99208887Y-76520334D01*
X99774260Y-77085707D01*
X99719288Y-77100437D01*
X99600713Y-77168896D01*
X99503896Y-77265713D01*
X99435437Y-77384288D01*
X99420707Y-77439260D01*
X98855334Y-76873887D01*
X98807253Y-76942556D01*
X98712600Y-77145540D01*
X98712596Y-77145549D01*
X98654632Y-77361875D01*
X98654630Y-77361886D01*
X98635111Y-77584997D01*
X98635111Y-77585002D01*
X98654630Y-77808113D01*
X98654632Y-77808124D01*
X98712596Y-78024450D01*
X98712600Y-78024459D01*
X98807252Y-78227443D01*
X98807253Y-78227445D01*
X98855334Y-78296112D01*
X99420707Y-77730739D01*
X99435437Y-77785712D01*
X99503896Y-77904287D01*
X99600713Y-78001104D01*
X99719288Y-78069563D01*
X99774259Y-78084292D01*
X99208886Y-78649664D01*
X99277555Y-78697746D01*
X99480540Y-78792399D01*
X99480546Y-78792402D01*
X99696344Y-78850225D01*
X99756004Y-78886590D01*
X99786533Y-78949437D01*
X99778238Y-79018813D01*
X99733753Y-79072690D01*
X99696344Y-79089775D01*
X99480546Y-79147597D01*
X99480540Y-79147600D01*
X99277556Y-79242253D01*
X99208887Y-79290334D01*
X99774260Y-79855707D01*
X99719288Y-79870437D01*
X99600713Y-79938896D01*
X99503896Y-80035713D01*
X99435437Y-80154288D01*
X99420707Y-80209260D01*
X98855334Y-79643887D01*
X98807253Y-79712556D01*
X98712600Y-79915540D01*
X98712596Y-79915549D01*
X98654632Y-80131875D01*
X98654630Y-80131886D01*
X98635111Y-80354997D01*
X98635111Y-80355002D01*
X98654630Y-80578113D01*
X98654632Y-80578124D01*
X98712596Y-80794450D01*
X98712600Y-80794459D01*
X98807252Y-80997443D01*
X98807253Y-80997445D01*
X98855334Y-81066112D01*
X99420707Y-80500739D01*
X99435437Y-80555712D01*
X99503896Y-80674287D01*
X99600713Y-80771104D01*
X99719288Y-80839563D01*
X99774259Y-80854292D01*
X99208886Y-81419664D01*
X99277555Y-81467746D01*
X99480540Y-81562399D01*
X99480549Y-81562403D01*
X99696875Y-81620367D01*
X99696886Y-81620369D01*
X99919998Y-81639889D01*
X99920002Y-81639889D01*
X100143113Y-81620369D01*
X100143124Y-81620367D01*
X100359450Y-81562403D01*
X100359459Y-81562399D01*
X100562445Y-81467746D01*
X100562451Y-81467742D01*
X100631112Y-81419665D01*
X100065739Y-80854292D01*
X100120712Y-80839563D01*
X100239287Y-80771104D01*
X100336104Y-80674287D01*
X100404563Y-80555712D01*
X100419292Y-80500739D01*
X100984665Y-81066112D01*
X101032742Y-80997451D01*
X101032746Y-80997445D01*
X101127399Y-80794459D01*
X101127403Y-80794450D01*
X101185367Y-80578124D01*
X101185369Y-80578113D01*
X101204889Y-80355002D01*
X101204889Y-80354997D01*
X101185369Y-80131886D01*
X101185367Y-80131875D01*
X101127403Y-79915549D01*
X101127399Y-79915540D01*
X101059531Y-79769996D01*
X182612535Y-79769996D01*
X182612535Y-79770003D01*
X182632730Y-79949249D01*
X182632731Y-79949254D01*
X182692311Y-80119523D01*
X182728975Y-80177873D01*
X182788284Y-80272262D01*
X182915838Y-80399816D01*
X183068578Y-80495789D01*
X183238845Y-80555368D01*
X183238850Y-80555369D01*
X183418096Y-80575565D01*
X183418100Y-80575565D01*
X183418104Y-80575565D01*
X183597349Y-80555369D01*
X183597352Y-80555368D01*
X183597355Y-80555368D01*
X183767622Y-80495789D01*
X183920362Y-80399816D01*
X184047916Y-80272262D01*
X184143889Y-80119522D01*
X184203468Y-79949255D01*
X184212349Y-79870437D01*
X184223665Y-79770003D01*
X184223665Y-79769996D01*
X184203469Y-79590750D01*
X184203468Y-79590745D01*
X184143888Y-79420476D01*
X184047915Y-79267737D01*
X183920362Y-79140184D01*
X183767623Y-79044211D01*
X183597354Y-78984631D01*
X183597349Y-78984630D01*
X183418104Y-78964435D01*
X183418096Y-78964435D01*
X183238850Y-78984630D01*
X183238845Y-78984631D01*
X183068576Y-79044211D01*
X182915837Y-79140184D01*
X182788284Y-79267737D01*
X182692311Y-79420476D01*
X182632731Y-79590745D01*
X182632730Y-79590750D01*
X182612535Y-79769996D01*
X101059531Y-79769996D01*
X101032747Y-79712557D01*
X101032746Y-79712555D01*
X100984664Y-79643887D01*
X100984664Y-79643886D01*
X100419292Y-80209259D01*
X100404563Y-80154288D01*
X100336104Y-80035713D01*
X100239287Y-79938896D01*
X100120712Y-79870437D01*
X100065740Y-79855707D01*
X100631112Y-79290334D01*
X100631112Y-79290333D01*
X100562445Y-79242253D01*
X100562443Y-79242252D01*
X100359459Y-79147600D01*
X100359450Y-79147596D01*
X100143656Y-79089775D01*
X100083995Y-79053410D01*
X100053466Y-78990563D01*
X100061761Y-78921188D01*
X100106246Y-78867310D01*
X100143656Y-78850225D01*
X100359450Y-78792403D01*
X100359459Y-78792399D01*
X100562445Y-78697746D01*
X100562451Y-78697742D01*
X100631112Y-78649665D01*
X100065739Y-78084292D01*
X100120712Y-78069563D01*
X100239287Y-78001104D01*
X100336104Y-77904287D01*
X100404563Y-77785712D01*
X100419292Y-77730739D01*
X100984665Y-78296112D01*
X101032742Y-78227451D01*
X101032746Y-78227445D01*
X101127399Y-78024459D01*
X101127403Y-78024450D01*
X101185367Y-77808124D01*
X101185369Y-77808113D01*
X101204889Y-77585002D01*
X101204889Y-77584997D01*
X101185369Y-77361886D01*
X101185367Y-77361875D01*
X101127403Y-77145549D01*
X101127399Y-77145540D01*
X101032747Y-76942557D01*
X101032746Y-76942555D01*
X100984664Y-76873887D01*
X100984664Y-76873886D01*
X100419292Y-77439259D01*
X100404563Y-77384288D01*
X100336104Y-77265713D01*
X100239287Y-77168896D01*
X100120712Y-77100437D01*
X100065740Y-77085707D01*
X100631112Y-76520334D01*
X100631112Y-76520333D01*
X100630631Y-76519996D01*
X110064435Y-76519996D01*
X110064435Y-76520003D01*
X110084630Y-76699249D01*
X110084631Y-76699254D01*
X110144211Y-76869523D01*
X110240184Y-77022262D01*
X110240185Y-77022263D01*
X110285241Y-77067320D01*
X110318725Y-77128643D01*
X110313740Y-77198335D01*
X110285241Y-77242680D01*
X110240184Y-77287737D01*
X110144211Y-77440476D01*
X110084631Y-77610745D01*
X110084630Y-77610750D01*
X110064435Y-77789996D01*
X110064435Y-77790003D01*
X110084630Y-77969249D01*
X110084631Y-77969254D01*
X110144211Y-78139523D01*
X110226664Y-78270745D01*
X110240184Y-78292262D01*
X110367738Y-78419816D01*
X110520478Y-78515789D01*
X110562160Y-78530374D01*
X110690745Y-78575368D01*
X110690750Y-78575369D01*
X110869996Y-78595565D01*
X110870000Y-78595565D01*
X110870004Y-78595565D01*
X111049249Y-78575369D01*
X111049252Y-78575368D01*
X111049255Y-78575368D01*
X111219522Y-78515789D01*
X111372262Y-78419816D01*
X111417319Y-78374759D01*
X111478642Y-78341274D01*
X111548334Y-78346258D01*
X111592681Y-78374759D01*
X111637738Y-78419816D01*
X111790478Y-78515789D01*
X111832160Y-78530374D01*
X111960745Y-78575368D01*
X111960750Y-78575369D01*
X112139996Y-78595565D01*
X112140000Y-78595565D01*
X112140004Y-78595565D01*
X112319249Y-78575369D01*
X112319252Y-78575368D01*
X112319255Y-78575368D01*
X112489522Y-78515789D01*
X112642262Y-78419816D01*
X112687319Y-78374759D01*
X112748642Y-78341274D01*
X112818334Y-78346258D01*
X112862681Y-78374759D01*
X112907738Y-78419816D01*
X113060478Y-78515789D01*
X113102160Y-78530374D01*
X113230745Y-78575368D01*
X113230750Y-78575369D01*
X113409996Y-78595565D01*
X113410000Y-78595565D01*
X113410004Y-78595565D01*
X113589249Y-78575369D01*
X113589252Y-78575368D01*
X113589255Y-78575368D01*
X113759522Y-78515789D01*
X113864231Y-78449996D01*
X185596335Y-78449996D01*
X185596335Y-78450003D01*
X185616530Y-78629249D01*
X185616531Y-78629254D01*
X185676111Y-78799523D01*
X185752559Y-78921188D01*
X185772084Y-78952262D01*
X185899638Y-79079816D01*
X185915488Y-79089775D01*
X186007515Y-79147600D01*
X186052378Y-79175789D01*
X186102159Y-79193208D01*
X186222645Y-79235368D01*
X186222650Y-79235369D01*
X186401896Y-79255565D01*
X186401900Y-79255565D01*
X186401904Y-79255565D01*
X186581149Y-79235369D01*
X186581152Y-79235368D01*
X186581155Y-79235368D01*
X186751422Y-79175789D01*
X186904162Y-79079816D01*
X187031716Y-78952262D01*
X187127689Y-78799522D01*
X187187268Y-78629255D01*
X187191064Y-78595565D01*
X187207465Y-78450003D01*
X187207465Y-78449996D01*
X187187269Y-78270750D01*
X187187268Y-78270745D01*
X187127688Y-78100476D01*
X187055339Y-77985334D01*
X187031716Y-77947738D01*
X186904162Y-77820184D01*
X186884951Y-77808113D01*
X186856118Y-77789996D01*
X192122535Y-77789996D01*
X192122535Y-77790003D01*
X192142730Y-77969249D01*
X192142731Y-77969254D01*
X192202311Y-78139523D01*
X192284764Y-78270745D01*
X192298284Y-78292262D01*
X192425838Y-78419816D01*
X192578578Y-78515789D01*
X192620260Y-78530374D01*
X192748845Y-78575368D01*
X192748850Y-78575369D01*
X192928096Y-78595565D01*
X192928100Y-78595565D01*
X192928104Y-78595565D01*
X193107349Y-78575369D01*
X193107352Y-78575368D01*
X193107355Y-78575368D01*
X193277622Y-78515789D01*
X193430362Y-78419816D01*
X193557916Y-78292262D01*
X193653889Y-78139522D01*
X193713468Y-77969255D01*
X193713469Y-77969249D01*
X193733665Y-77790003D01*
X193733665Y-77789996D01*
X193713469Y-77610750D01*
X193713468Y-77610745D01*
X193687379Y-77536188D01*
X193653889Y-77440478D01*
X193557916Y-77287738D01*
X193430362Y-77160184D01*
X193422112Y-77155000D01*
X193277623Y-77064211D01*
X193107354Y-77004631D01*
X193107349Y-77004630D01*
X192928104Y-76984435D01*
X192928096Y-76984435D01*
X192748850Y-77004630D01*
X192748845Y-77004631D01*
X192578576Y-77064211D01*
X192425837Y-77160184D01*
X192298284Y-77287737D01*
X192202311Y-77440476D01*
X192142731Y-77610745D01*
X192142730Y-77610750D01*
X192122535Y-77789996D01*
X186856118Y-77789996D01*
X186751423Y-77724211D01*
X186581154Y-77664631D01*
X186581149Y-77664630D01*
X186401904Y-77644435D01*
X186401896Y-77644435D01*
X186222650Y-77664630D01*
X186222645Y-77664631D01*
X186052376Y-77724211D01*
X185899637Y-77820184D01*
X185772084Y-77947737D01*
X185676111Y-78100476D01*
X185616531Y-78270745D01*
X185616530Y-78270750D01*
X185596335Y-78449996D01*
X113864231Y-78449996D01*
X113912262Y-78419816D01*
X114039816Y-78292262D01*
X114135789Y-78139522D01*
X114195368Y-77969255D01*
X114195369Y-77969249D01*
X114215565Y-77790003D01*
X114215565Y-77789996D01*
X114195369Y-77610750D01*
X114195368Y-77610745D01*
X114169279Y-77536188D01*
X114135789Y-77440478D01*
X114039816Y-77287738D01*
X113994758Y-77242680D01*
X113961274Y-77181358D01*
X113966258Y-77111666D01*
X113994759Y-77067319D01*
X113997867Y-77064211D01*
X114039816Y-77022262D01*
X114135789Y-76869522D01*
X114195368Y-76699255D01*
X114202087Y-76639625D01*
X114215565Y-76520003D01*
X114215565Y-76519996D01*
X114195369Y-76340750D01*
X114195368Y-76340745D01*
X114175396Y-76283668D01*
X114135789Y-76170478D01*
X114039816Y-76017738D01*
X113912262Y-75890184D01*
X113759523Y-75794211D01*
X113589254Y-75734631D01*
X113589249Y-75734630D01*
X113410004Y-75714435D01*
X113409996Y-75714435D01*
X113230750Y-75734630D01*
X113230745Y-75734631D01*
X113060476Y-75794211D01*
X112907737Y-75890184D01*
X112862680Y-75935241D01*
X112801357Y-75968725D01*
X112731665Y-75963740D01*
X112687320Y-75935241D01*
X112642263Y-75890185D01*
X112642262Y-75890184D01*
X112489523Y-75794211D01*
X112319254Y-75734631D01*
X112319249Y-75734630D01*
X112140004Y-75714435D01*
X112139996Y-75714435D01*
X111960750Y-75734630D01*
X111960745Y-75734631D01*
X111790476Y-75794211D01*
X111637737Y-75890184D01*
X111592680Y-75935241D01*
X111531357Y-75968725D01*
X111461665Y-75963740D01*
X111417320Y-75935241D01*
X111372263Y-75890185D01*
X111372262Y-75890184D01*
X111219523Y-75794211D01*
X111049254Y-75734631D01*
X111049249Y-75734630D01*
X110870004Y-75714435D01*
X110869996Y-75714435D01*
X110690750Y-75734630D01*
X110690745Y-75734631D01*
X110520476Y-75794211D01*
X110367737Y-75890184D01*
X110240184Y-76017737D01*
X110144211Y-76170476D01*
X110084631Y-76340745D01*
X110084630Y-76340750D01*
X110064435Y-76519996D01*
X100630631Y-76519996D01*
X100562445Y-76472253D01*
X100562443Y-76472252D01*
X100359459Y-76377600D01*
X100359453Y-76377597D01*
X100144620Y-76320033D01*
X100084960Y-76283668D01*
X100054431Y-76220821D01*
X100062726Y-76151445D01*
X100107211Y-76097567D01*
X100144616Y-76080485D01*
X100359630Y-76022872D01*
X100562696Y-75928181D01*
X100746233Y-75799667D01*
X100904667Y-75641233D01*
X101033181Y-75457696D01*
X101127872Y-75254630D01*
X101185863Y-75038206D01*
X101205391Y-74815000D01*
X101185863Y-74591794D01*
X101140365Y-74421996D01*
X193758435Y-74421996D01*
X193758435Y-74422003D01*
X193778630Y-74601249D01*
X193778631Y-74601254D01*
X193838211Y-74771523D01*
X193896201Y-74863813D01*
X193934184Y-74924262D01*
X194061738Y-75051816D01*
X194214478Y-75147789D01*
X194384745Y-75207368D01*
X194384750Y-75207369D01*
X194563996Y-75227565D01*
X194564000Y-75227565D01*
X194564004Y-75227565D01*
X194743249Y-75207369D01*
X194743252Y-75207368D01*
X194743255Y-75207368D01*
X194913522Y-75147789D01*
X195066262Y-75051816D01*
X195193816Y-74924262D01*
X195289789Y-74771522D01*
X195349368Y-74601255D01*
X195349369Y-74601249D01*
X195369565Y-74422003D01*
X195369565Y-74421996D01*
X195349369Y-74242750D01*
X195349368Y-74242745D01*
X195324720Y-74172304D01*
X195289789Y-74072478D01*
X195193816Y-73919738D01*
X195066262Y-73792184D01*
X194913523Y-73696211D01*
X194743254Y-73636631D01*
X194743249Y-73636630D01*
X194564004Y-73616435D01*
X194563996Y-73616435D01*
X194384750Y-73636630D01*
X194384745Y-73636631D01*
X194214476Y-73696211D01*
X194061737Y-73792184D01*
X193934184Y-73919737D01*
X193838211Y-74072476D01*
X193778631Y-74242745D01*
X193778630Y-74242750D01*
X193758435Y-74421996D01*
X101140365Y-74421996D01*
X101127872Y-74375370D01*
X101033181Y-74172305D01*
X100904667Y-73988767D01*
X100746233Y-73830333D01*
X100746229Y-73830330D01*
X100746228Y-73830329D01*
X100562700Y-73701821D01*
X100562696Y-73701819D01*
X100458449Y-73653208D01*
X100359630Y-73607128D01*
X100359627Y-73607127D01*
X100359625Y-73607126D01*
X100144620Y-73549516D01*
X100084960Y-73513151D01*
X100054431Y-73450304D01*
X100062726Y-73380928D01*
X100107211Y-73327050D01*
X100144621Y-73309966D01*
X100359450Y-73252403D01*
X100359459Y-73252399D01*
X100562445Y-73157746D01*
X100562451Y-73157742D01*
X100631112Y-73109665D01*
X100065739Y-72544292D01*
X100120712Y-72529563D01*
X100239287Y-72461104D01*
X100336104Y-72364287D01*
X100404563Y-72245712D01*
X100419292Y-72190739D01*
X100984665Y-72756112D01*
X101032742Y-72687451D01*
X101032746Y-72687445D01*
X101127399Y-72484459D01*
X101127403Y-72484450D01*
X101185367Y-72268124D01*
X101185369Y-72268113D01*
X101204889Y-72045002D01*
X101204889Y-72044997D01*
X101196577Y-71949996D01*
X180668735Y-71949996D01*
X180668735Y-71950003D01*
X180688930Y-72129249D01*
X180688931Y-72129254D01*
X180748511Y-72299523D01*
X180810736Y-72398553D01*
X180844484Y-72452262D01*
X180972038Y-72579816D01*
X181124778Y-72675789D01*
X181295045Y-72735368D01*
X181295050Y-72735369D01*
X181474296Y-72755565D01*
X181474300Y-72755565D01*
X181474304Y-72755565D01*
X181653549Y-72735369D01*
X181653552Y-72735368D01*
X181653555Y-72735368D01*
X181823822Y-72675789D01*
X181976562Y-72579816D01*
X182104116Y-72452262D01*
X182200089Y-72299522D01*
X182259668Y-72129255D01*
X182259669Y-72129249D01*
X182279865Y-71950003D01*
X182279865Y-71949996D01*
X182259669Y-71770750D01*
X182259668Y-71770745D01*
X182215551Y-71644667D01*
X182200089Y-71600478D01*
X182104116Y-71447738D01*
X181976562Y-71320184D01*
X181823823Y-71224211D01*
X181653554Y-71164631D01*
X181653549Y-71164630D01*
X181474304Y-71144435D01*
X181474296Y-71144435D01*
X181295050Y-71164630D01*
X181295045Y-71164631D01*
X181124776Y-71224211D01*
X180972037Y-71320184D01*
X180844484Y-71447737D01*
X180748511Y-71600476D01*
X180688931Y-71770745D01*
X180688930Y-71770750D01*
X180668735Y-71949996D01*
X101196577Y-71949996D01*
X101185369Y-71821886D01*
X101185367Y-71821875D01*
X101127403Y-71605549D01*
X101127399Y-71605540D01*
X101032747Y-71402557D01*
X101032746Y-71402555D01*
X100984664Y-71333887D01*
X100984664Y-71333886D01*
X100419292Y-71899259D01*
X100404563Y-71844288D01*
X100336104Y-71725713D01*
X100239287Y-71628896D01*
X100120712Y-71560437D01*
X100065740Y-71545707D01*
X100631112Y-70980334D01*
X100631112Y-70980333D01*
X100562445Y-70932253D01*
X100562443Y-70932252D01*
X100359459Y-70837600D01*
X100359450Y-70837596D01*
X100143656Y-70779775D01*
X100083995Y-70743410D01*
X100053466Y-70680563D01*
X100061761Y-70611188D01*
X100106246Y-70557310D01*
X100143656Y-70540225D01*
X100359450Y-70482403D01*
X100359459Y-70482399D01*
X100562445Y-70387746D01*
X100562451Y-70387742D01*
X100631112Y-70339665D01*
X100065739Y-69774292D01*
X100120712Y-69759563D01*
X100239287Y-69691104D01*
X100336104Y-69594287D01*
X100404563Y-69475712D01*
X100419292Y-69420739D01*
X100984665Y-69986112D01*
X101032742Y-69917451D01*
X101032746Y-69917445D01*
X101127399Y-69714459D01*
X101127403Y-69714450D01*
X101168789Y-69559996D01*
X183382535Y-69559996D01*
X183382535Y-69560003D01*
X183402730Y-69739249D01*
X183402731Y-69739254D01*
X183462311Y-69909523D01*
X183530036Y-70017306D01*
X183558284Y-70062262D01*
X183685838Y-70189816D01*
X183838578Y-70285789D01*
X183992544Y-70339664D01*
X184008845Y-70345368D01*
X184008850Y-70345369D01*
X184188096Y-70365565D01*
X184188100Y-70365565D01*
X184188104Y-70365565D01*
X184367349Y-70345369D01*
X184367352Y-70345368D01*
X184367355Y-70345368D01*
X184537622Y-70285789D01*
X184690362Y-70189816D01*
X184817916Y-70062262D01*
X184913889Y-69909522D01*
X184973468Y-69739255D01*
X184976263Y-69714450D01*
X184993665Y-69560003D01*
X184993665Y-69559996D01*
X184973469Y-69380750D01*
X184973468Y-69380745D01*
X184913888Y-69210476D01*
X184817915Y-69057737D01*
X184690362Y-68930184D01*
X184537623Y-68834211D01*
X184367354Y-68774631D01*
X184367349Y-68774630D01*
X184188104Y-68754435D01*
X184188096Y-68754435D01*
X184008850Y-68774630D01*
X184008845Y-68774631D01*
X183838576Y-68834211D01*
X183685837Y-68930184D01*
X183558284Y-69057737D01*
X183462311Y-69210476D01*
X183402731Y-69380745D01*
X183402730Y-69380750D01*
X183382535Y-69559996D01*
X101168789Y-69559996D01*
X101185367Y-69498124D01*
X101185369Y-69498113D01*
X101204889Y-69275002D01*
X101204889Y-69274997D01*
X101185369Y-69051886D01*
X101185367Y-69051875D01*
X101127403Y-68835549D01*
X101127399Y-68835540D01*
X101032747Y-68632557D01*
X101032746Y-68632555D01*
X100984664Y-68563887D01*
X100984664Y-68563886D01*
X100419292Y-69129259D01*
X100404563Y-69074288D01*
X100336104Y-68955713D01*
X100239287Y-68858896D01*
X100120712Y-68790437D01*
X100065740Y-68775707D01*
X100631112Y-68210334D01*
X100631112Y-68210333D01*
X100562445Y-68162253D01*
X100562443Y-68162252D01*
X100359459Y-68067600D01*
X100359450Y-68067596D01*
X100143124Y-68009632D01*
X100143113Y-68009630D01*
X99920002Y-67990111D01*
X99919998Y-67990111D01*
X99696886Y-68009630D01*
X99696875Y-68009632D01*
X99480549Y-68067596D01*
X99480540Y-68067600D01*
X99277556Y-68162253D01*
X99208887Y-68210334D01*
X99774260Y-68775707D01*
X99719288Y-68790437D01*
X99600713Y-68858896D01*
X99503896Y-68955713D01*
X99435437Y-69074288D01*
X99420707Y-69129260D01*
X98855334Y-68563887D01*
X98807253Y-68632556D01*
X98712600Y-68835540D01*
X98712596Y-68835549D01*
X98654632Y-69051875D01*
X98654630Y-69051886D01*
X98635111Y-69274997D01*
X98635111Y-69275002D01*
X98654630Y-69498113D01*
X98654632Y-69498124D01*
X98712596Y-69714450D01*
X98712600Y-69714459D01*
X98807252Y-69917443D01*
X98807253Y-69917445D01*
X98855334Y-69986112D01*
X99420707Y-69420739D01*
X99435437Y-69475712D01*
X99503896Y-69594287D01*
X99600713Y-69691104D01*
X99719288Y-69759563D01*
X99774259Y-69774292D01*
X99208886Y-70339664D01*
X99277555Y-70387746D01*
X99480540Y-70482399D01*
X99480546Y-70482402D01*
X99696344Y-70540225D01*
X99756004Y-70576590D01*
X99786533Y-70639437D01*
X99778238Y-70708813D01*
X99733753Y-70762690D01*
X99696344Y-70779775D01*
X99480546Y-70837597D01*
X99480540Y-70837600D01*
X99277556Y-70932253D01*
X99208887Y-70980334D01*
X99774260Y-71545707D01*
X99719288Y-71560437D01*
X99600713Y-71628896D01*
X99503896Y-71725713D01*
X99435437Y-71844288D01*
X99420707Y-71899260D01*
X98855334Y-71333887D01*
X98807253Y-71402556D01*
X98712600Y-71605540D01*
X98712596Y-71605549D01*
X98654632Y-71821875D01*
X98654630Y-71821886D01*
X98635111Y-72044997D01*
X98635111Y-72045002D01*
X98654630Y-72268113D01*
X98654632Y-72268124D01*
X98712596Y-72484450D01*
X98712600Y-72484459D01*
X98807252Y-72687443D01*
X98807253Y-72687445D01*
X98855334Y-72756112D01*
X99420707Y-72190739D01*
X99435437Y-72245712D01*
X99503896Y-72364287D01*
X99600713Y-72461104D01*
X99719288Y-72529563D01*
X99774259Y-72544292D01*
X99208886Y-73109664D01*
X99277555Y-73157746D01*
X99480540Y-73252399D01*
X99480549Y-73252403D01*
X99695378Y-73309966D01*
X99755039Y-73346331D01*
X99785568Y-73409178D01*
X99777273Y-73478553D01*
X99732788Y-73532431D01*
X99695379Y-73549516D01*
X99480375Y-73607126D01*
X99480368Y-73607129D01*
X99277306Y-73701818D01*
X99277304Y-73701819D01*
X99093764Y-73830334D01*
X98935334Y-73988764D01*
X98806819Y-74172304D01*
X98806818Y-74172306D01*
X98712129Y-74375368D01*
X98712126Y-74375374D01*
X98654137Y-74591791D01*
X98654136Y-74591799D01*
X98634609Y-74814998D01*
X97217855Y-74814998D01*
X97223691Y-74766188D01*
X97268176Y-74712310D01*
X97305584Y-74695225D01*
X97519630Y-74637872D01*
X97722696Y-74543181D01*
X97906233Y-74414667D01*
X98064667Y-74256233D01*
X98193181Y-74072696D01*
X98287872Y-73869630D01*
X98345863Y-73653206D01*
X98365391Y-73430000D01*
X98345863Y-73206794D01*
X98287872Y-72990370D01*
X98193181Y-72787305D01*
X98064667Y-72603767D01*
X97906233Y-72445333D01*
X97906229Y-72445330D01*
X97906228Y-72445329D01*
X97722700Y-72316821D01*
X97722696Y-72316819D01*
X97722694Y-72316818D01*
X97519630Y-72222128D01*
X97519626Y-72222127D01*
X97519622Y-72222125D01*
X97357884Y-72178788D01*
X97305585Y-72164774D01*
X97245925Y-72128410D01*
X97215396Y-72065563D01*
X97223691Y-71996188D01*
X97268176Y-71942310D01*
X97305584Y-71925225D01*
X97519630Y-71867872D01*
X97722696Y-71773181D01*
X97906233Y-71644667D01*
X98064667Y-71486233D01*
X98193181Y-71302696D01*
X98287872Y-71099630D01*
X98345863Y-70883206D01*
X98365391Y-70660000D01*
X98363110Y-70633933D01*
X98345863Y-70436799D01*
X98345863Y-70436794D01*
X98287872Y-70220370D01*
X98193181Y-70017305D01*
X98064667Y-69833767D01*
X97906233Y-69675333D01*
X97906229Y-69675330D01*
X97906228Y-69675329D01*
X97722700Y-69546821D01*
X97722696Y-69546819D01*
X97696162Y-69534446D01*
X97519630Y-69452128D01*
X97519627Y-69452127D01*
X97519625Y-69452126D01*
X97303208Y-69394137D01*
X97303200Y-69394136D01*
X97080002Y-69374609D01*
X97079998Y-69374609D01*
X96856799Y-69394136D01*
X96856791Y-69394137D01*
X96640374Y-69452126D01*
X96640368Y-69452129D01*
X96437306Y-69546818D01*
X96437304Y-69546819D01*
X96253764Y-69675334D01*
X96095334Y-69833764D01*
X95966819Y-70017304D01*
X95966818Y-70017306D01*
X95872129Y-70220368D01*
X95872126Y-70220374D01*
X95814137Y-70436791D01*
X95814136Y-70436799D01*
X95794609Y-70659998D01*
X89400500Y-70659998D01*
X89400500Y-67619996D01*
X185662535Y-67619996D01*
X185662535Y-67620003D01*
X185682730Y-67799249D01*
X185682731Y-67799254D01*
X185742311Y-67969523D01*
X185838284Y-68122262D01*
X185965838Y-68249816D01*
X186118578Y-68345789D01*
X186288845Y-68405368D01*
X186288850Y-68405369D01*
X186468096Y-68425565D01*
X186468100Y-68425565D01*
X186468104Y-68425565D01*
X186647349Y-68405369D01*
X186647352Y-68405368D01*
X186647355Y-68405368D01*
X186817622Y-68345789D01*
X186858665Y-68320000D01*
X203746732Y-68320000D01*
X203765785Y-68634989D01*
X203765785Y-68634994D01*
X203765786Y-68634995D01*
X203822669Y-68945396D01*
X203822670Y-68945400D01*
X203822671Y-68945404D01*
X203916545Y-69246659D01*
X203916549Y-69246670D01*
X203916550Y-69246673D01*
X203916552Y-69246678D01*
X203929299Y-69275000D01*
X204046066Y-69534446D01*
X204209326Y-69804510D01*
X204403943Y-70052920D01*
X204627079Y-70276056D01*
X204875489Y-70470673D01*
X204875492Y-70470675D01*
X204875495Y-70470677D01*
X205145554Y-70633934D01*
X205433322Y-70763448D01*
X205433332Y-70763451D01*
X205433340Y-70763454D01*
X205634176Y-70826036D01*
X205734604Y-70857331D01*
X206045005Y-70914214D01*
X206360000Y-70933268D01*
X206674995Y-70914214D01*
X206985396Y-70857331D01*
X207286678Y-70763448D01*
X207574446Y-70633934D01*
X207844505Y-70470677D01*
X208092917Y-70276059D01*
X208316059Y-70052917D01*
X208510677Y-69804505D01*
X208673934Y-69534446D01*
X208803448Y-69246678D01*
X208897331Y-68945396D01*
X208954214Y-68634995D01*
X208973268Y-68320000D01*
X208954214Y-68005005D01*
X208897331Y-67694604D01*
X208803448Y-67393322D01*
X208673934Y-67105554D01*
X208510677Y-66835495D01*
X208510675Y-66835492D01*
X208510673Y-66835489D01*
X208316056Y-66587079D01*
X208092920Y-66363943D01*
X207844510Y-66169326D01*
X207574446Y-66006066D01*
X207286678Y-65876552D01*
X207286673Y-65876550D01*
X207286670Y-65876549D01*
X207286659Y-65876545D01*
X206985404Y-65782671D01*
X206985400Y-65782670D01*
X206985396Y-65782669D01*
X206674995Y-65725786D01*
X206674994Y-65725785D01*
X206674989Y-65725785D01*
X206360000Y-65706732D01*
X206045010Y-65725785D01*
X206045005Y-65725786D01*
X205734604Y-65782669D01*
X205734601Y-65782669D01*
X205734595Y-65782671D01*
X205433340Y-65876545D01*
X205433329Y-65876549D01*
X205145553Y-66006066D01*
X204875489Y-66169326D01*
X204627079Y-66363943D01*
X204403943Y-66587079D01*
X204209326Y-66835489D01*
X204046066Y-67105553D01*
X203916549Y-67393329D01*
X203916545Y-67393340D01*
X203822671Y-67694595D01*
X203765785Y-68005010D01*
X203746732Y-68320000D01*
X186858665Y-68320000D01*
X186970362Y-68249816D01*
X187097916Y-68122262D01*
X187193889Y-67969522D01*
X187253468Y-67799255D01*
X187253469Y-67799249D01*
X187273665Y-67620003D01*
X187273665Y-67619996D01*
X187253469Y-67440750D01*
X187253468Y-67440745D01*
X187193888Y-67270476D01*
X187097915Y-67117737D01*
X186970362Y-66990184D01*
X186817623Y-66894211D01*
X186647354Y-66834631D01*
X186647349Y-66834630D01*
X186468104Y-66814435D01*
X186468096Y-66814435D01*
X186288850Y-66834630D01*
X186288845Y-66834631D01*
X186118576Y-66894211D01*
X185965837Y-66990184D01*
X185838284Y-67117737D01*
X185742311Y-67270476D01*
X185682731Y-67440745D01*
X185682730Y-67440750D01*
X185662535Y-67619996D01*
X89400500Y-67619996D01*
X89400500Y-65474994D01*
X169062457Y-65474994D01*
X169062457Y-65475005D01*
X169082990Y-65722812D01*
X169082992Y-65722824D01*
X169144036Y-65963881D01*
X169243926Y-66191606D01*
X169379933Y-66399782D01*
X169379936Y-66399785D01*
X169548356Y-66582738D01*
X169744591Y-66735474D01*
X169744593Y-66735475D01*
X169929413Y-66835495D01*
X169963290Y-66853828D01*
X170198486Y-66934571D01*
X170443765Y-66975500D01*
X170692435Y-66975500D01*
X170937714Y-66934571D01*
X171172910Y-66853828D01*
X171391609Y-66735474D01*
X171587844Y-66582738D01*
X171756264Y-66399785D01*
X171892273Y-66191607D01*
X171992163Y-65963881D01*
X172053208Y-65722821D01*
X172073743Y-65475000D01*
X172053208Y-65227179D01*
X171992163Y-64986119D01*
X171958429Y-64909214D01*
X171892273Y-64758393D01*
X171756266Y-64550217D01*
X171678441Y-64465677D01*
X171587844Y-64367262D01*
X171391609Y-64214526D01*
X171391607Y-64214525D01*
X171391606Y-64214524D01*
X171172911Y-64096172D01*
X171172902Y-64096169D01*
X170937716Y-64015429D01*
X170692435Y-63974500D01*
X170443765Y-63974500D01*
X170198483Y-64015429D01*
X169963297Y-64096169D01*
X169963288Y-64096172D01*
X169744593Y-64214524D01*
X169548357Y-64367261D01*
X169379933Y-64550217D01*
X169243926Y-64758393D01*
X169144036Y-64986118D01*
X169082992Y-65227175D01*
X169082990Y-65227187D01*
X169062457Y-65474994D01*
X89400500Y-65474994D01*
X89400500Y-62315000D01*
X95886732Y-62315000D01*
X95905785Y-62629989D01*
X95905785Y-62629994D01*
X95905786Y-62629995D01*
X95962669Y-62940396D01*
X95962670Y-62940400D01*
X95962671Y-62940404D01*
X96056545Y-63241659D01*
X96056549Y-63241670D01*
X96056550Y-63241673D01*
X96056552Y-63241678D01*
X96070317Y-63272262D01*
X96186066Y-63529446D01*
X96349326Y-63799510D01*
X96543943Y-64047920D01*
X96767079Y-64271056D01*
X97015489Y-64465673D01*
X97015492Y-64465675D01*
X97015495Y-64465677D01*
X97285554Y-64628934D01*
X97573322Y-64758448D01*
X97573332Y-64758451D01*
X97573340Y-64758454D01*
X97774176Y-64821036D01*
X97874604Y-64852331D01*
X98185005Y-64909214D01*
X98500000Y-64928268D01*
X98814995Y-64909214D01*
X99125396Y-64852331D01*
X99426678Y-64758448D01*
X99714446Y-64628934D01*
X99984505Y-64465677D01*
X100232917Y-64271059D01*
X100456059Y-64047917D01*
X100650677Y-63799505D01*
X100813934Y-63529446D01*
X100943448Y-63241678D01*
X101037331Y-62940396D01*
X101068558Y-62769996D01*
X188022535Y-62769996D01*
X188022535Y-62770003D01*
X188042730Y-62949249D01*
X188042731Y-62949254D01*
X188102311Y-63119523D01*
X188179055Y-63241659D01*
X188198284Y-63272262D01*
X188325838Y-63399816D01*
X188478578Y-63495789D01*
X188648845Y-63555368D01*
X188648850Y-63555369D01*
X188828096Y-63575565D01*
X188828100Y-63575565D01*
X188828104Y-63575565D01*
X189007349Y-63555369D01*
X189007352Y-63555368D01*
X189007355Y-63555368D01*
X189177622Y-63495789D01*
X189330362Y-63399816D01*
X189457916Y-63272262D01*
X189553889Y-63119522D01*
X189613468Y-62949255D01*
X189613469Y-62949249D01*
X189633665Y-62770003D01*
X189633665Y-62769996D01*
X189613469Y-62590750D01*
X189613468Y-62590745D01*
X189605464Y-62567870D01*
X189553889Y-62420478D01*
X189457916Y-62267738D01*
X189330362Y-62140184D01*
X189259708Y-62095789D01*
X189177623Y-62044211D01*
X189007354Y-61984631D01*
X189007349Y-61984630D01*
X188828104Y-61964435D01*
X188828096Y-61964435D01*
X188648850Y-61984630D01*
X188648845Y-61984631D01*
X188478576Y-62044211D01*
X188325837Y-62140184D01*
X188198284Y-62267737D01*
X188102311Y-62420476D01*
X188042731Y-62590745D01*
X188042730Y-62590750D01*
X188022535Y-62769996D01*
X101068558Y-62769996D01*
X101094214Y-62629995D01*
X101113268Y-62315000D01*
X101094214Y-62000005D01*
X101037331Y-61689604D01*
X100943448Y-61388322D01*
X100935200Y-61369996D01*
X184952535Y-61369996D01*
X184952535Y-61370003D01*
X184972730Y-61549249D01*
X184972731Y-61549254D01*
X185032311Y-61719523D01*
X185082643Y-61799625D01*
X185128284Y-61872262D01*
X185255838Y-61999816D01*
X185408578Y-62095789D01*
X185535452Y-62140184D01*
X185578845Y-62155368D01*
X185578850Y-62155369D01*
X185758096Y-62175565D01*
X185758100Y-62175565D01*
X185758104Y-62175565D01*
X185937349Y-62155369D01*
X185937352Y-62155368D01*
X185937355Y-62155368D01*
X186107622Y-62095789D01*
X186260362Y-61999816D01*
X186387916Y-61872262D01*
X186483889Y-61719522D01*
X186543468Y-61549255D01*
X186563665Y-61370000D01*
X186562538Y-61360001D01*
X186543469Y-61190750D01*
X186543468Y-61190745D01*
X186483888Y-61020476D01*
X186420987Y-60920370D01*
X186387916Y-60867738D01*
X186260362Y-60740184D01*
X186223952Y-60717306D01*
X186107623Y-60644211D01*
X185937354Y-60584631D01*
X185937349Y-60584630D01*
X185758104Y-60564435D01*
X185758096Y-60564435D01*
X185578850Y-60584630D01*
X185578845Y-60584631D01*
X185408576Y-60644211D01*
X185255837Y-60740184D01*
X185128284Y-60867737D01*
X185032311Y-61020476D01*
X184972731Y-61190745D01*
X184972730Y-61190750D01*
X184952535Y-61369996D01*
X100935200Y-61369996D01*
X100813934Y-61100554D01*
X100650677Y-60830495D01*
X100650675Y-60830492D01*
X100650673Y-60830489D01*
X100456056Y-60582079D01*
X100232920Y-60358943D01*
X99984510Y-60164326D01*
X99714446Y-60001066D01*
X99656525Y-59974998D01*
X99426678Y-59871552D01*
X99426673Y-59871550D01*
X99426670Y-59871549D01*
X99426659Y-59871545D01*
X99125404Y-59777671D01*
X99125400Y-59777670D01*
X99125396Y-59777669D01*
X98814995Y-59720786D01*
X98814994Y-59720785D01*
X98814989Y-59720785D01*
X98500000Y-59701732D01*
X98185010Y-59720785D01*
X98185005Y-59720786D01*
X97874604Y-59777669D01*
X97874601Y-59777669D01*
X97874595Y-59777671D01*
X97573340Y-59871545D01*
X97573329Y-59871549D01*
X97573323Y-59871551D01*
X97573322Y-59871552D01*
X97501231Y-59903997D01*
X97285553Y-60001066D01*
X97015489Y-60164326D01*
X96767079Y-60358943D01*
X96543943Y-60582079D01*
X96349326Y-60830489D01*
X96186066Y-61100553D01*
X96056549Y-61388329D01*
X96056545Y-61388340D01*
X95962671Y-61689595D01*
X95962669Y-61689601D01*
X95962669Y-61689604D01*
X95957186Y-61719523D01*
X95905785Y-62000010D01*
X95886732Y-62315000D01*
X89400500Y-62315000D01*
X89400500Y-56727135D01*
X148767600Y-56727135D01*
X148767600Y-58822870D01*
X148767601Y-58822876D01*
X148774008Y-58882483D01*
X148824302Y-59017328D01*
X148824306Y-59017335D01*
X148910552Y-59132544D01*
X148910555Y-59132547D01*
X149025764Y-59218793D01*
X149025771Y-59218797D01*
X149160617Y-59269091D01*
X149160616Y-59269091D01*
X149167544Y-59269835D01*
X149220227Y-59275500D01*
X151315972Y-59275499D01*
X151375583Y-59269091D01*
X151510431Y-59218796D01*
X151625646Y-59132546D01*
X151711896Y-59017331D01*
X151762191Y-58882483D01*
X151768600Y-58822873D01*
X151768599Y-56727128D01*
X151762191Y-56667517D01*
X151757085Y-56653828D01*
X151711897Y-56532671D01*
X151711893Y-56532664D01*
X151625647Y-56417455D01*
X151625644Y-56417452D01*
X151510435Y-56331206D01*
X151510428Y-56331202D01*
X151375582Y-56280908D01*
X151375583Y-56280908D01*
X151315983Y-56274501D01*
X151315981Y-56274500D01*
X151315973Y-56274500D01*
X151315964Y-56274500D01*
X149220229Y-56274500D01*
X149220223Y-56274501D01*
X149160616Y-56280908D01*
X149025771Y-56331202D01*
X149025764Y-56331206D01*
X148910555Y-56417452D01*
X148910552Y-56417455D01*
X148824306Y-56532664D01*
X148824302Y-56532671D01*
X148774008Y-56667517D01*
X148767601Y-56727116D01*
X148767601Y-56727123D01*
X148767600Y-56727135D01*
X89400500Y-56727135D01*
X89400500Y-55274994D01*
X169062457Y-55274994D01*
X169062457Y-55275005D01*
X169082990Y-55522812D01*
X169082992Y-55522824D01*
X169144036Y-55763881D01*
X169243926Y-55991606D01*
X169379933Y-56199782D01*
X169379936Y-56199785D01*
X169548356Y-56382738D01*
X169744591Y-56535474D01*
X169794170Y-56562305D01*
X169949257Y-56646234D01*
X169963290Y-56653828D01*
X170198486Y-56734571D01*
X170443765Y-56775500D01*
X170692435Y-56775500D01*
X170937714Y-56734571D01*
X171172910Y-56653828D01*
X171391609Y-56535474D01*
X171587844Y-56382738D01*
X171756264Y-56199785D01*
X171892273Y-55991607D01*
X171992163Y-55763881D01*
X172053208Y-55522821D01*
X172053209Y-55522812D01*
X172073743Y-55275005D01*
X172073743Y-55274994D01*
X172053209Y-55027187D01*
X172053207Y-55027175D01*
X171992163Y-54786118D01*
X171892273Y-54558393D01*
X171756266Y-54350217D01*
X171671254Y-54257870D01*
X171587844Y-54167262D01*
X171391609Y-54014526D01*
X171391607Y-54014525D01*
X171391606Y-54014524D01*
X171172911Y-53896172D01*
X171172902Y-53896169D01*
X170937716Y-53815429D01*
X170692435Y-53774500D01*
X170443765Y-53774500D01*
X170198483Y-53815429D01*
X169963297Y-53896169D01*
X169963288Y-53896172D01*
X169744593Y-54014524D01*
X169548357Y-54167261D01*
X169379933Y-54350217D01*
X169243926Y-54558393D01*
X169144036Y-54786118D01*
X169082992Y-55027175D01*
X169082990Y-55027187D01*
X169062457Y-55274994D01*
X89400500Y-55274994D01*
X89400500Y-52674994D01*
X148762457Y-52674994D01*
X148762457Y-52675005D01*
X148782990Y-52922812D01*
X148782992Y-52922824D01*
X148844036Y-53163881D01*
X148943926Y-53391606D01*
X149079933Y-53599782D01*
X149088205Y-53608768D01*
X149248356Y-53782738D01*
X149444591Y-53935474D01*
X149444593Y-53935475D01*
X149627883Y-54034667D01*
X149663290Y-54053828D01*
X149898486Y-54134571D01*
X150143765Y-54175500D01*
X150392435Y-54175500D01*
X150637714Y-54134571D01*
X150872910Y-54053828D01*
X151091609Y-53935474D01*
X151287844Y-53782738D01*
X151456264Y-53599785D01*
X151592273Y-53391607D01*
X151692163Y-53163881D01*
X151753208Y-52922821D01*
X151761165Y-52826794D01*
X151773743Y-52675005D01*
X151773743Y-52674994D01*
X151753209Y-52427187D01*
X151753207Y-52427175D01*
X151692163Y-52186118D01*
X151592273Y-51958393D01*
X151456266Y-51750217D01*
X151422754Y-51713813D01*
X151287844Y-51567262D01*
X151091609Y-51414526D01*
X151091607Y-51414525D01*
X151091606Y-51414524D01*
X150872911Y-51296172D01*
X150872902Y-51296169D01*
X150637716Y-51215429D01*
X150392435Y-51174500D01*
X150143765Y-51174500D01*
X149898483Y-51215429D01*
X149663297Y-51296169D01*
X149663288Y-51296172D01*
X149444593Y-51414524D01*
X149248357Y-51567261D01*
X149079933Y-51750217D01*
X148943926Y-51958393D01*
X148844036Y-52186118D01*
X148782992Y-52427175D01*
X148782990Y-52427187D01*
X148762457Y-52674994D01*
X89400500Y-52674994D01*
X89400500Y-50279998D01*
X203654609Y-50279998D01*
X203654609Y-50280001D01*
X203674136Y-50503200D01*
X203674137Y-50503208D01*
X203732126Y-50719625D01*
X203732127Y-50719627D01*
X203732128Y-50719630D01*
X203787683Y-50838768D01*
X203826819Y-50922696D01*
X203826821Y-50922700D01*
X203955329Y-51106228D01*
X203955334Y-51106234D01*
X204113765Y-51264665D01*
X204113771Y-51264670D01*
X204297299Y-51393178D01*
X204297301Y-51393179D01*
X204297304Y-51393181D01*
X204500370Y-51487872D01*
X204714414Y-51545225D01*
X204774074Y-51581590D01*
X204804603Y-51644437D01*
X204796308Y-51713813D01*
X204751823Y-51767691D01*
X204714415Y-51784774D01*
X204665230Y-51797953D01*
X204500374Y-51842126D01*
X204500368Y-51842129D01*
X204297306Y-51936818D01*
X204297304Y-51936819D01*
X204113764Y-52065334D01*
X203955334Y-52223764D01*
X203826819Y-52407304D01*
X203826818Y-52407306D01*
X203732129Y-52610368D01*
X203732126Y-52610374D01*
X203674137Y-52826791D01*
X203674136Y-52826799D01*
X203654609Y-53049998D01*
X203654609Y-53050001D01*
X203674136Y-53273200D01*
X203674137Y-53273208D01*
X203732126Y-53489625D01*
X203732127Y-53489627D01*
X203732128Y-53489630D01*
X203787683Y-53608768D01*
X203826819Y-53692696D01*
X203826821Y-53692700D01*
X203955329Y-53876228D01*
X203955334Y-53876234D01*
X204113765Y-54034665D01*
X204113771Y-54034670D01*
X204297299Y-54163178D01*
X204297301Y-54163179D01*
X204297304Y-54163181D01*
X204500370Y-54257872D01*
X204714414Y-54315225D01*
X204774074Y-54351590D01*
X204804603Y-54414437D01*
X204796308Y-54483813D01*
X204751823Y-54537691D01*
X204714415Y-54554774D01*
X204665230Y-54567953D01*
X204500374Y-54612126D01*
X204500368Y-54612129D01*
X204297306Y-54706818D01*
X204297304Y-54706819D01*
X204113764Y-54835334D01*
X203955334Y-54993764D01*
X203826819Y-55177304D01*
X203826818Y-55177306D01*
X203732129Y-55380368D01*
X203732126Y-55380374D01*
X203674137Y-55596791D01*
X203674136Y-55596799D01*
X203654609Y-55819998D01*
X203654609Y-55820001D01*
X203674136Y-56043200D01*
X203674137Y-56043208D01*
X203732126Y-56259625D01*
X203732127Y-56259627D01*
X203732128Y-56259630D01*
X203805722Y-56417454D01*
X203826819Y-56462696D01*
X203826821Y-56462700D01*
X203955329Y-56646228D01*
X203955334Y-56646234D01*
X204113765Y-56804665D01*
X204113771Y-56804670D01*
X204297299Y-56933178D01*
X204297301Y-56933179D01*
X204297304Y-56933181D01*
X204500370Y-57027872D01*
X204714414Y-57085225D01*
X204774074Y-57121590D01*
X204804603Y-57184437D01*
X204796308Y-57253813D01*
X204751823Y-57307691D01*
X204714415Y-57324774D01*
X204665230Y-57337953D01*
X204500374Y-57382126D01*
X204500368Y-57382129D01*
X204297306Y-57476818D01*
X204297304Y-57476819D01*
X204113764Y-57605334D01*
X203955334Y-57763764D01*
X203826819Y-57947304D01*
X203826818Y-57947306D01*
X203732129Y-58150368D01*
X203732126Y-58150374D01*
X203674137Y-58366791D01*
X203674136Y-58366799D01*
X203654609Y-58589998D01*
X203654609Y-58590001D01*
X203674136Y-58813200D01*
X203674137Y-58813208D01*
X203732126Y-59029625D01*
X203732127Y-59029627D01*
X203732128Y-59029630D01*
X203787683Y-59148768D01*
X203826819Y-59232696D01*
X203826821Y-59232700D01*
X203955329Y-59416228D01*
X203955334Y-59416234D01*
X204113765Y-59574665D01*
X204113771Y-59574670D01*
X204297299Y-59703178D01*
X204297301Y-59703179D01*
X204297304Y-59703181D01*
X204500370Y-59797872D01*
X204714414Y-59855225D01*
X204774074Y-59891590D01*
X204804603Y-59954437D01*
X204796308Y-60023813D01*
X204751823Y-60077691D01*
X204714415Y-60094774D01*
X204665230Y-60107953D01*
X204500374Y-60152126D01*
X204500368Y-60152129D01*
X204297306Y-60246818D01*
X204297304Y-60246819D01*
X204113764Y-60375334D01*
X203955334Y-60533764D01*
X203826819Y-60717304D01*
X203826818Y-60717306D01*
X203732129Y-60920368D01*
X203732126Y-60920374D01*
X203674137Y-61136791D01*
X203674136Y-61136799D01*
X203654609Y-61359998D01*
X203654609Y-61360001D01*
X203674136Y-61583200D01*
X203674137Y-61583208D01*
X203732126Y-61799625D01*
X203732127Y-61799627D01*
X203732128Y-61799630D01*
X203765997Y-61872262D01*
X203826819Y-62002696D01*
X203826821Y-62002700D01*
X203955329Y-62186228D01*
X203955334Y-62186234D01*
X204113765Y-62344665D01*
X204113771Y-62344670D01*
X204297299Y-62473178D01*
X204297301Y-62473179D01*
X204297304Y-62473181D01*
X204500370Y-62567872D01*
X204716794Y-62625863D01*
X204876226Y-62639811D01*
X204939998Y-62645391D01*
X204940000Y-62645391D01*
X204940002Y-62645391D01*
X204995801Y-62640509D01*
X205163206Y-62625863D01*
X205379630Y-62567872D01*
X205582696Y-62473181D01*
X205766233Y-62344667D01*
X205924667Y-62186233D01*
X206053181Y-62002696D01*
X206147872Y-61799630D01*
X206205863Y-61583206D01*
X206224516Y-61370000D01*
X206225391Y-61360001D01*
X206225391Y-61359998D01*
X206214968Y-61240862D01*
X206205863Y-61136794D01*
X206147872Y-60920370D01*
X206053181Y-60717305D01*
X205960282Y-60584631D01*
X205924668Y-60533768D01*
X205924664Y-60533764D01*
X205766233Y-60375333D01*
X205766229Y-60375330D01*
X205766228Y-60375329D01*
X205582700Y-60246821D01*
X205582696Y-60246819D01*
X205478449Y-60198208D01*
X205379630Y-60152128D01*
X205379626Y-60152127D01*
X205379622Y-60152125D01*
X205217884Y-60108788D01*
X205165585Y-60094774D01*
X205105925Y-60058410D01*
X205075396Y-59995563D01*
X205083691Y-59926188D01*
X205128176Y-59872310D01*
X205165584Y-59855225D01*
X205379630Y-59797872D01*
X205582696Y-59703181D01*
X205766233Y-59574667D01*
X205924667Y-59416233D01*
X206053181Y-59232696D01*
X206147872Y-59029630D01*
X206205863Y-58813206D01*
X206225391Y-58590000D01*
X206205863Y-58366794D01*
X206147872Y-58150370D01*
X206053181Y-57947305D01*
X205924667Y-57763767D01*
X205766233Y-57605333D01*
X205766229Y-57605330D01*
X205766228Y-57605329D01*
X205582700Y-57476821D01*
X205582696Y-57476819D01*
X205478449Y-57428208D01*
X205379630Y-57382128D01*
X205379626Y-57382127D01*
X205379622Y-57382125D01*
X205217884Y-57338788D01*
X205165585Y-57324774D01*
X205105925Y-57288410D01*
X205075396Y-57225563D01*
X205083691Y-57156188D01*
X205128176Y-57102310D01*
X205165584Y-57085225D01*
X205379630Y-57027872D01*
X205582696Y-56933181D01*
X205766233Y-56804667D01*
X205924667Y-56646233D01*
X206053181Y-56462696D01*
X206147872Y-56259630D01*
X206205863Y-56043206D01*
X206225391Y-55820000D01*
X206205863Y-55596794D01*
X206147872Y-55380370D01*
X206053181Y-55177305D01*
X205948062Y-55027179D01*
X205924668Y-54993768D01*
X205924664Y-54993764D01*
X205766233Y-54835333D01*
X205766229Y-54835330D01*
X205766228Y-54835329D01*
X205582700Y-54706821D01*
X205582696Y-54706819D01*
X205478449Y-54658208D01*
X205379630Y-54612128D01*
X205379626Y-54612127D01*
X205379622Y-54612125D01*
X205217884Y-54568788D01*
X205165585Y-54554774D01*
X205105925Y-54518410D01*
X205075396Y-54455563D01*
X205083691Y-54386188D01*
X205128176Y-54332310D01*
X205165584Y-54315225D01*
X205379630Y-54257872D01*
X205582696Y-54163181D01*
X205766233Y-54034667D01*
X205924667Y-53876233D01*
X206053181Y-53692696D01*
X206147872Y-53489630D01*
X206205863Y-53273206D01*
X206225391Y-53050000D01*
X206205863Y-52826794D01*
X206147872Y-52610370D01*
X206053181Y-52407305D01*
X205924667Y-52223767D01*
X205766233Y-52065333D01*
X205766229Y-52065330D01*
X205766228Y-52065329D01*
X205582700Y-51936821D01*
X205582696Y-51936819D01*
X205478449Y-51888208D01*
X205379630Y-51842128D01*
X205379626Y-51842127D01*
X205379622Y-51842125D01*
X205217884Y-51798788D01*
X205165585Y-51784774D01*
X205105925Y-51748410D01*
X205075396Y-51685563D01*
X205077855Y-51664998D01*
X206494609Y-51664998D01*
X206494609Y-51665001D01*
X206514136Y-51888200D01*
X206514137Y-51888208D01*
X206572126Y-52104625D01*
X206572127Y-52104627D01*
X206572128Y-52104630D01*
X206627683Y-52223768D01*
X206666819Y-52307696D01*
X206666821Y-52307700D01*
X206795329Y-52491228D01*
X206795334Y-52491234D01*
X206953765Y-52649665D01*
X206953771Y-52649670D01*
X207137299Y-52778178D01*
X207137301Y-52778179D01*
X207137304Y-52778181D01*
X207340370Y-52872872D01*
X207554414Y-52930225D01*
X207614074Y-52966590D01*
X207644603Y-53029437D01*
X207636308Y-53098813D01*
X207591823Y-53152691D01*
X207554415Y-53169774D01*
X207505230Y-53182953D01*
X207340374Y-53227126D01*
X207340368Y-53227129D01*
X207137306Y-53321818D01*
X207137304Y-53321819D01*
X206953764Y-53450334D01*
X206795334Y-53608764D01*
X206666819Y-53792304D01*
X206666818Y-53792306D01*
X206572129Y-53995368D01*
X206572126Y-53995374D01*
X206514137Y-54211791D01*
X206514136Y-54211799D01*
X206494609Y-54434998D01*
X206494609Y-54435001D01*
X206514136Y-54658200D01*
X206514137Y-54658208D01*
X206572126Y-54874625D01*
X206572127Y-54874627D01*
X206572128Y-54874630D01*
X206627683Y-54993768D01*
X206666819Y-55077696D01*
X206666821Y-55077700D01*
X206795329Y-55261228D01*
X206795334Y-55261234D01*
X206953765Y-55419665D01*
X206953771Y-55419670D01*
X207137299Y-55548178D01*
X207137301Y-55548179D01*
X207137304Y-55548181D01*
X207340370Y-55642872D01*
X207554414Y-55700225D01*
X207614074Y-55736590D01*
X207644603Y-55799437D01*
X207636308Y-55868813D01*
X207591823Y-55922691D01*
X207554415Y-55939774D01*
X207505230Y-55952953D01*
X207340374Y-55997126D01*
X207340368Y-55997129D01*
X207137306Y-56091818D01*
X207137304Y-56091819D01*
X206953764Y-56220334D01*
X206795334Y-56378764D01*
X206666819Y-56562304D01*
X206666818Y-56562306D01*
X206572129Y-56765368D01*
X206572126Y-56765374D01*
X206514137Y-56981791D01*
X206514136Y-56981799D01*
X206494609Y-57204998D01*
X206494609Y-57205001D01*
X206514136Y-57428200D01*
X206514137Y-57428208D01*
X206572126Y-57644625D01*
X206572127Y-57644627D01*
X206572128Y-57644630D01*
X206627683Y-57763768D01*
X206666819Y-57847696D01*
X206666821Y-57847700D01*
X206795329Y-58031228D01*
X206795334Y-58031234D01*
X206953765Y-58189665D01*
X206953771Y-58189670D01*
X207137299Y-58318178D01*
X207137301Y-58318179D01*
X207137304Y-58318181D01*
X207340370Y-58412872D01*
X207554414Y-58470225D01*
X207614074Y-58506590D01*
X207644603Y-58569437D01*
X207636308Y-58638813D01*
X207591823Y-58692691D01*
X207554415Y-58709774D01*
X207505230Y-58722953D01*
X207340374Y-58767126D01*
X207340368Y-58767129D01*
X207137306Y-58861818D01*
X207137304Y-58861819D01*
X206953764Y-58990334D01*
X206795334Y-59148764D01*
X206666819Y-59332304D01*
X206666818Y-59332306D01*
X206572129Y-59535368D01*
X206572126Y-59535374D01*
X206514137Y-59751791D01*
X206514136Y-59751799D01*
X206494609Y-59974998D01*
X206494609Y-59975001D01*
X206514136Y-60198200D01*
X206514137Y-60198208D01*
X206572126Y-60414625D01*
X206572127Y-60414627D01*
X206572128Y-60414630D01*
X206651400Y-60584630D01*
X206666819Y-60617696D01*
X206666821Y-60617700D01*
X206795329Y-60801228D01*
X206795334Y-60801234D01*
X206953765Y-60959665D01*
X206953771Y-60959670D01*
X207137299Y-61088178D01*
X207137301Y-61088179D01*
X207137304Y-61088181D01*
X207340370Y-61182872D01*
X207556794Y-61240863D01*
X207716226Y-61254811D01*
X207779998Y-61260391D01*
X207780000Y-61260391D01*
X207780002Y-61260391D01*
X207835801Y-61255509D01*
X208003206Y-61240863D01*
X208219630Y-61182872D01*
X208422696Y-61088181D01*
X208606233Y-60959667D01*
X208764667Y-60801233D01*
X208893181Y-60617696D01*
X208987872Y-60414630D01*
X209045863Y-60198206D01*
X209065391Y-59975000D01*
X209045863Y-59751794D01*
X208987872Y-59535370D01*
X208893181Y-59332305D01*
X208813702Y-59218796D01*
X208764668Y-59148768D01*
X208748444Y-59132544D01*
X208606233Y-58990333D01*
X208606229Y-58990330D01*
X208606228Y-58990329D01*
X208422700Y-58861821D01*
X208422696Y-58861819D01*
X208339182Y-58822876D01*
X208219630Y-58767128D01*
X208219626Y-58767127D01*
X208219622Y-58767125D01*
X208057884Y-58723788D01*
X208005585Y-58709774D01*
X207945925Y-58673410D01*
X207915396Y-58610563D01*
X207923691Y-58541188D01*
X207968176Y-58487310D01*
X208005584Y-58470225D01*
X208219630Y-58412872D01*
X208422696Y-58318181D01*
X208606233Y-58189667D01*
X208764667Y-58031233D01*
X208893181Y-57847696D01*
X208987872Y-57644630D01*
X209045863Y-57428206D01*
X209065391Y-57205000D01*
X209045863Y-56981794D01*
X208987872Y-56765370D01*
X208893181Y-56562305D01*
X208823434Y-56462696D01*
X208764668Y-56378768D01*
X208717102Y-56331202D01*
X208606233Y-56220333D01*
X208606229Y-56220330D01*
X208606228Y-56220329D01*
X208422700Y-56091821D01*
X208422696Y-56091819D01*
X208318449Y-56043208D01*
X208219630Y-55997128D01*
X208219626Y-55997127D01*
X208219622Y-55997125D01*
X208057884Y-55953788D01*
X208005585Y-55939774D01*
X207945925Y-55903410D01*
X207915396Y-55840563D01*
X207923691Y-55771188D01*
X207968176Y-55717310D01*
X208005584Y-55700225D01*
X208219630Y-55642872D01*
X208422696Y-55548181D01*
X208606233Y-55419667D01*
X208764667Y-55261233D01*
X208893181Y-55077696D01*
X208987872Y-54874630D01*
X209045863Y-54658206D01*
X209065391Y-54435000D01*
X209045863Y-54211794D01*
X208987872Y-53995370D01*
X208893181Y-53792305D01*
X208764667Y-53608767D01*
X208606233Y-53450333D01*
X208606229Y-53450330D01*
X208606228Y-53450329D01*
X208422700Y-53321821D01*
X208422696Y-53321819D01*
X208318449Y-53273208D01*
X208219630Y-53227128D01*
X208219626Y-53227127D01*
X208219622Y-53227125D01*
X208057884Y-53183788D01*
X208005585Y-53169774D01*
X207945925Y-53133410D01*
X207915396Y-53070563D01*
X207923691Y-53001188D01*
X207968176Y-52947310D01*
X208005584Y-52930225D01*
X208219630Y-52872872D01*
X208422696Y-52778181D01*
X208606233Y-52649667D01*
X208764667Y-52491233D01*
X208893181Y-52307696D01*
X208987872Y-52104630D01*
X209045863Y-51888206D01*
X209065391Y-51665000D01*
X209045863Y-51441794D01*
X208987872Y-51225370D01*
X208893181Y-51022305D01*
X208764667Y-50838767D01*
X208606233Y-50680333D01*
X208606229Y-50680330D01*
X208606228Y-50680329D01*
X208422700Y-50551821D01*
X208422696Y-50551819D01*
X208318449Y-50503208D01*
X208219630Y-50457128D01*
X208219627Y-50457127D01*
X208219625Y-50457126D01*
X208003208Y-50399137D01*
X208003200Y-50399136D01*
X207780002Y-50379609D01*
X207779998Y-50379609D01*
X207556799Y-50399136D01*
X207556791Y-50399137D01*
X207340374Y-50457126D01*
X207340368Y-50457129D01*
X207137306Y-50551818D01*
X207137304Y-50551819D01*
X206953764Y-50680334D01*
X206795334Y-50838764D01*
X206666819Y-51022304D01*
X206666818Y-51022306D01*
X206572129Y-51225368D01*
X206572126Y-51225374D01*
X206514137Y-51441791D01*
X206514136Y-51441799D01*
X206494609Y-51664998D01*
X205077855Y-51664998D01*
X205083691Y-51616188D01*
X205128176Y-51562310D01*
X205165584Y-51545225D01*
X205379630Y-51487872D01*
X205582696Y-51393181D01*
X205766233Y-51264667D01*
X205924667Y-51106233D01*
X206053181Y-50922696D01*
X206147872Y-50719630D01*
X206205863Y-50503206D01*
X206225391Y-50280000D01*
X206205863Y-50056794D01*
X206147872Y-49840370D01*
X206053181Y-49637305D01*
X205924667Y-49453767D01*
X205766233Y-49295333D01*
X205766229Y-49295330D01*
X205766228Y-49295329D01*
X205582700Y-49166821D01*
X205582696Y-49166819D01*
X205582694Y-49166818D01*
X205379630Y-49072128D01*
X205379627Y-49072127D01*
X205379625Y-49072126D01*
X205163208Y-49014137D01*
X205163200Y-49014136D01*
X204940002Y-48994609D01*
X204939998Y-48994609D01*
X204716799Y-49014136D01*
X204716791Y-49014137D01*
X204500374Y-49072126D01*
X204500368Y-49072129D01*
X204297306Y-49166818D01*
X204297304Y-49166819D01*
X204113764Y-49295334D01*
X203955334Y-49453764D01*
X203826819Y-49637304D01*
X203826818Y-49637306D01*
X203732129Y-49840368D01*
X203732126Y-49840374D01*
X203674137Y-50056791D01*
X203674136Y-50056799D01*
X203654609Y-50279998D01*
X89400500Y-50279998D01*
X89400500Y-45074994D01*
X148762457Y-45074994D01*
X148762457Y-45075005D01*
X148782990Y-45322812D01*
X148782992Y-45322824D01*
X148844036Y-45563881D01*
X148943926Y-45791606D01*
X149079933Y-45999782D01*
X149079936Y-45999785D01*
X149248356Y-46182738D01*
X149444591Y-46335474D01*
X149663290Y-46453828D01*
X149898486Y-46534571D01*
X150143765Y-46575500D01*
X150392435Y-46575500D01*
X150637714Y-46534571D01*
X150872910Y-46453828D01*
X151091609Y-46335474D01*
X151287844Y-46182738D01*
X151456264Y-45999785D01*
X151592273Y-45791607D01*
X151692163Y-45563881D01*
X151753208Y-45322821D01*
X151773743Y-45075000D01*
X151773743Y-45074994D01*
X169062457Y-45074994D01*
X169062457Y-45075005D01*
X169082990Y-45322812D01*
X169082992Y-45322824D01*
X169144036Y-45563881D01*
X169243926Y-45791606D01*
X169379933Y-45999782D01*
X169379936Y-45999785D01*
X169548356Y-46182738D01*
X169744591Y-46335474D01*
X169963290Y-46453828D01*
X170198486Y-46534571D01*
X170443765Y-46575500D01*
X170692435Y-46575500D01*
X170937714Y-46534571D01*
X171172910Y-46453828D01*
X171391609Y-46335474D01*
X171587844Y-46182738D01*
X171756264Y-45999785D01*
X171892273Y-45791607D01*
X171992163Y-45563881D01*
X172053208Y-45322821D01*
X172073743Y-45075000D01*
X172071913Y-45052920D01*
X172053209Y-44827187D01*
X172053207Y-44827175D01*
X171992163Y-44586118D01*
X171892273Y-44358393D01*
X171756266Y-44150217D01*
X171734657Y-44126744D01*
X171587844Y-43967262D01*
X171391609Y-43814526D01*
X171391607Y-43814525D01*
X171391606Y-43814524D01*
X171172911Y-43696172D01*
X171172902Y-43696169D01*
X170937716Y-43615429D01*
X170692435Y-43574500D01*
X170443765Y-43574500D01*
X170198483Y-43615429D01*
X169963297Y-43696169D01*
X169963288Y-43696172D01*
X169744593Y-43814524D01*
X169548357Y-43967261D01*
X169379933Y-44150217D01*
X169243926Y-44358393D01*
X169144036Y-44586118D01*
X169082992Y-44827175D01*
X169082990Y-44827187D01*
X169062457Y-45074994D01*
X151773743Y-45074994D01*
X151771913Y-45052920D01*
X151753209Y-44827187D01*
X151753207Y-44827175D01*
X151692163Y-44586118D01*
X151592273Y-44358393D01*
X151456266Y-44150217D01*
X151434657Y-44126744D01*
X151287844Y-43967262D01*
X151091609Y-43814526D01*
X151091607Y-43814525D01*
X151091606Y-43814524D01*
X150872911Y-43696172D01*
X150872902Y-43696169D01*
X150637716Y-43615429D01*
X150392435Y-43574500D01*
X150143765Y-43574500D01*
X149898483Y-43615429D01*
X149663297Y-43696169D01*
X149663288Y-43696172D01*
X149444593Y-43814524D01*
X149248357Y-43967261D01*
X149079933Y-44150217D01*
X148943926Y-44358393D01*
X148844036Y-44586118D01*
X148782992Y-44827175D01*
X148782990Y-44827187D01*
X148762457Y-45074994D01*
X89400500Y-45074994D01*
X89400500Y-43320000D01*
X203746732Y-43320000D01*
X203765785Y-43634989D01*
X203765785Y-43634994D01*
X203765786Y-43634995D01*
X203822669Y-43945396D01*
X203822670Y-43945400D01*
X203822671Y-43945404D01*
X203916545Y-44246659D01*
X203916549Y-44246670D01*
X203916550Y-44246673D01*
X203916552Y-44246678D01*
X203966831Y-44358393D01*
X204046066Y-44534446D01*
X204209326Y-44804510D01*
X204403943Y-45052920D01*
X204627079Y-45276056D01*
X204875489Y-45470673D01*
X204875492Y-45470675D01*
X204875495Y-45470677D01*
X205145554Y-45633934D01*
X205433322Y-45763448D01*
X205433332Y-45763451D01*
X205433340Y-45763454D01*
X205634176Y-45826036D01*
X205734604Y-45857331D01*
X206045005Y-45914214D01*
X206360000Y-45933268D01*
X206674995Y-45914214D01*
X206985396Y-45857331D01*
X207286678Y-45763448D01*
X207574446Y-45633934D01*
X207844505Y-45470677D01*
X208092917Y-45276059D01*
X208316059Y-45052917D01*
X208510677Y-44804505D01*
X208673934Y-44534446D01*
X208803448Y-44246678D01*
X208897331Y-43945396D01*
X208954214Y-43634995D01*
X208973268Y-43320000D01*
X208954214Y-43005005D01*
X208897331Y-42694604D01*
X208803448Y-42393322D01*
X208673934Y-42105554D01*
X208510677Y-41835495D01*
X208510675Y-41835492D01*
X208510673Y-41835489D01*
X208316056Y-41587079D01*
X208092920Y-41363943D01*
X207844510Y-41169326D01*
X207574446Y-41006066D01*
X207462735Y-40955789D01*
X207286678Y-40876552D01*
X207286673Y-40876550D01*
X207286670Y-40876549D01*
X207286659Y-40876545D01*
X206985404Y-40782671D01*
X206985400Y-40782670D01*
X206985396Y-40782669D01*
X206674995Y-40725786D01*
X206674994Y-40725785D01*
X206674989Y-40725785D01*
X206360000Y-40706732D01*
X206045010Y-40725785D01*
X205985188Y-40736747D01*
X205734604Y-40782669D01*
X205734601Y-40782669D01*
X205734595Y-40782671D01*
X205433340Y-40876545D01*
X205433329Y-40876549D01*
X205145553Y-41006066D01*
X204875489Y-41169326D01*
X204627079Y-41363943D01*
X204403943Y-41587079D01*
X204209326Y-41835489D01*
X204046066Y-42105553D01*
X203916549Y-42393329D01*
X203916545Y-42393340D01*
X203822671Y-42694595D01*
X203765785Y-43005010D01*
X203746732Y-43320000D01*
X89400500Y-43320000D01*
X89400500Y-40219996D01*
X165062535Y-40219996D01*
X165062535Y-40220003D01*
X165082730Y-40399249D01*
X165082731Y-40399254D01*
X165142311Y-40569523D01*
X165228526Y-40706732D01*
X165238284Y-40722262D01*
X165365838Y-40849816D01*
X165518578Y-40945789D01*
X165688845Y-41005368D01*
X165688850Y-41005369D01*
X165868096Y-41025565D01*
X165868100Y-41025565D01*
X165868104Y-41025565D01*
X166047349Y-41005369D01*
X166047352Y-41005368D01*
X166047355Y-41005368D01*
X166217622Y-40945789D01*
X166370362Y-40849816D01*
X166497916Y-40722262D01*
X166593889Y-40569522D01*
X166653468Y-40399255D01*
X166672538Y-40230003D01*
X166672539Y-40229996D01*
X169512535Y-40229996D01*
X169512535Y-40230003D01*
X169532730Y-40409249D01*
X169532731Y-40409254D01*
X169592311Y-40579523D01*
X169672242Y-40706732D01*
X169688284Y-40732262D01*
X169815838Y-40859816D01*
X169906180Y-40916582D01*
X169952661Y-40945788D01*
X169968578Y-40955789D01*
X170138845Y-41015368D01*
X170138850Y-41015369D01*
X170318096Y-41035565D01*
X170318100Y-41035565D01*
X170318104Y-41035565D01*
X170497349Y-41015369D01*
X170497352Y-41015368D01*
X170497355Y-41015368D01*
X170667622Y-40955789D01*
X170820362Y-40859816D01*
X170947916Y-40732262D01*
X171043889Y-40579522D01*
X171103468Y-40409255D01*
X171104595Y-40399254D01*
X171123665Y-40230003D01*
X171123665Y-40229996D01*
X171103469Y-40050750D01*
X171103468Y-40050745D01*
X171043888Y-39880476D01*
X170947915Y-39727737D01*
X170820362Y-39600184D01*
X170667623Y-39504211D01*
X170497354Y-39444631D01*
X170497349Y-39444630D01*
X170318104Y-39424435D01*
X170318096Y-39424435D01*
X170138850Y-39444630D01*
X170138845Y-39444631D01*
X169968576Y-39504211D01*
X169815837Y-39600184D01*
X169688284Y-39727737D01*
X169592311Y-39880476D01*
X169532731Y-40050745D01*
X169532730Y-40050750D01*
X169512535Y-40229996D01*
X166672539Y-40229996D01*
X166673665Y-40220003D01*
X166673665Y-40219996D01*
X166653469Y-40040750D01*
X166653468Y-40040745D01*
X166593888Y-39870476D01*
X166504199Y-39727738D01*
X166497916Y-39717738D01*
X166370362Y-39590184D01*
X166217623Y-39494211D01*
X166047354Y-39434631D01*
X166047349Y-39434630D01*
X165868104Y-39414435D01*
X165868096Y-39414435D01*
X165688850Y-39434630D01*
X165688845Y-39434631D01*
X165518576Y-39494211D01*
X165365837Y-39590184D01*
X165238284Y-39717737D01*
X165142311Y-39870476D01*
X165082731Y-40040745D01*
X165082730Y-40040750D01*
X165062535Y-40219996D01*
X89400500Y-40219996D01*
X89400500Y-32999999D01*
X91294422Y-32999999D01*
X91294422Y-33000000D01*
X91314722Y-33387339D01*
X91375397Y-33770427D01*
X91375397Y-33770429D01*
X91475788Y-34145094D01*
X91614787Y-34507197D01*
X91790877Y-34852793D01*
X92002122Y-35178082D01*
X92002124Y-35178084D01*
X92246219Y-35479516D01*
X92520484Y-35753781D01*
X92520488Y-35753784D01*
X92821917Y-35997877D01*
X93147206Y-36209122D01*
X93147211Y-36209125D01*
X93492806Y-36385214D01*
X93854913Y-36524214D01*
X94229567Y-36624602D01*
X94612662Y-36685278D01*
X94978576Y-36704455D01*
X94999999Y-36705578D01*
X95000000Y-36705578D01*
X95000001Y-36705578D01*
X95020301Y-36704514D01*
X95387338Y-36685278D01*
X95770433Y-36624602D01*
X96145087Y-36524214D01*
X96507194Y-36385214D01*
X96852789Y-36209125D01*
X97178084Y-35997876D01*
X97479516Y-35753781D01*
X97753781Y-35479516D01*
X97997876Y-35178084D01*
X98209125Y-34852789D01*
X98385214Y-34507194D01*
X98524214Y-34145087D01*
X98624602Y-33770433D01*
X98685278Y-33387338D01*
X98705578Y-33000000D01*
X98705578Y-32999999D01*
X204294422Y-32999999D01*
X204294422Y-33000000D01*
X204314722Y-33387339D01*
X204375397Y-33770427D01*
X204375397Y-33770429D01*
X204475788Y-34145094D01*
X204614787Y-34507197D01*
X204790877Y-34852793D01*
X205002122Y-35178082D01*
X205002124Y-35178084D01*
X205246219Y-35479516D01*
X205520484Y-35753781D01*
X205520488Y-35753784D01*
X205821917Y-35997877D01*
X206147206Y-36209122D01*
X206147211Y-36209125D01*
X206492806Y-36385214D01*
X206854913Y-36524214D01*
X207229567Y-36624602D01*
X207612662Y-36685278D01*
X207978576Y-36704455D01*
X207999999Y-36705578D01*
X208000000Y-36705578D01*
X208000001Y-36705578D01*
X208020301Y-36704514D01*
X208387338Y-36685278D01*
X208770433Y-36624602D01*
X209145087Y-36524214D01*
X209507194Y-36385214D01*
X209852789Y-36209125D01*
X210178084Y-35997876D01*
X210479516Y-35753781D01*
X210753781Y-35479516D01*
X210997876Y-35178084D01*
X211209125Y-34852789D01*
X211385214Y-34507194D01*
X211524214Y-34145087D01*
X211624602Y-33770433D01*
X211685278Y-33387338D01*
X211705578Y-33000000D01*
X211685278Y-32612662D01*
X211624602Y-32229567D01*
X211524214Y-31854913D01*
X211385214Y-31492806D01*
X211209125Y-31147211D01*
X210997876Y-30821916D01*
X210753781Y-30520484D01*
X210479516Y-30246219D01*
X210178084Y-30002124D01*
X210178082Y-30002122D01*
X209852793Y-29790877D01*
X209507197Y-29614787D01*
X209145094Y-29475788D01*
X209145087Y-29475786D01*
X208770433Y-29375398D01*
X208770429Y-29375397D01*
X208770428Y-29375397D01*
X208387339Y-29314722D01*
X208000001Y-29294422D01*
X207999999Y-29294422D01*
X207612660Y-29314722D01*
X207229572Y-29375397D01*
X207229570Y-29375397D01*
X206854905Y-29475788D01*
X206492802Y-29614787D01*
X206147206Y-29790877D01*
X205821917Y-30002122D01*
X205520488Y-30246215D01*
X205520480Y-30246222D01*
X205246222Y-30520480D01*
X205246215Y-30520488D01*
X205002122Y-30821917D01*
X204790877Y-31147206D01*
X204614787Y-31492802D01*
X204475788Y-31854905D01*
X204375397Y-32229570D01*
X204375397Y-32229572D01*
X204314722Y-32612660D01*
X204294422Y-32999999D01*
X98705578Y-32999999D01*
X98685278Y-32612662D01*
X98624602Y-32229567D01*
X98524214Y-31854913D01*
X98385214Y-31492806D01*
X98209125Y-31147211D01*
X97997876Y-30821916D01*
X97753781Y-30520484D01*
X97479516Y-30246219D01*
X97178084Y-30002124D01*
X97178082Y-30002122D01*
X96852793Y-29790877D01*
X96507197Y-29614787D01*
X96145094Y-29475788D01*
X96145087Y-29475786D01*
X95770433Y-29375398D01*
X95770429Y-29375397D01*
X95770428Y-29375397D01*
X95387339Y-29314722D01*
X95000001Y-29294422D01*
X94999999Y-29294422D01*
X94612660Y-29314722D01*
X94229572Y-29375397D01*
X94229570Y-29375397D01*
X93854905Y-29475788D01*
X93492802Y-29614787D01*
X93147206Y-29790877D01*
X92821917Y-30002122D01*
X92520488Y-30246215D01*
X92520480Y-30246222D01*
X92246222Y-30520480D01*
X92246215Y-30520488D01*
X92002122Y-30821917D01*
X91790877Y-31147206D01*
X91614787Y-31492802D01*
X91475788Y-31854905D01*
X91375397Y-32229570D01*
X91375397Y-32229572D01*
X91314722Y-32612660D01*
X91294422Y-32999999D01*
X89400500Y-32999999D01*
X89400500Y-31752424D01*
X89400596Y-31747556D01*
X89410605Y-31492802D01*
X89418341Y-31295901D01*
X89419102Y-31286235D01*
X89471945Y-30839765D01*
X89473467Y-30830159D01*
X89475107Y-30821917D01*
X89561173Y-30389230D01*
X89563444Y-30379772D01*
X89601110Y-30246222D01*
X89685472Y-29947094D01*
X89688478Y-29937842D01*
X89844084Y-29516053D01*
X89847807Y-29507067D01*
X89862228Y-29475786D01*
X90036027Y-29098786D01*
X90040437Y-29090133D01*
X90260104Y-28697891D01*
X90265191Y-28689589D01*
X90270500Y-28681643D01*
X90514958Y-28315784D01*
X90520659Y-28307938D01*
X90799005Y-27954858D01*
X90805296Y-27947492D01*
X91110490Y-27617336D01*
X91117336Y-27610490D01*
X91447492Y-27305296D01*
X91454858Y-27299005D01*
X91807938Y-27020659D01*
X91815784Y-27014958D01*
X92189591Y-26765189D01*
X92197891Y-26760104D01*
X92590133Y-26540437D01*
X92598786Y-26536027D01*
X93007075Y-26347803D01*
X93016053Y-26344084D01*
X93437850Y-26188475D01*
X93447094Y-26185472D01*
X93879782Y-26063441D01*
X93889230Y-26061173D01*
X94330168Y-25973465D01*
X94339765Y-25971945D01*
X94786235Y-25919102D01*
X94795901Y-25918341D01*
X95247557Y-25900596D01*
X95252425Y-25900500D01*
X95315892Y-25900500D01*
X203134108Y-25900500D01*
X209484108Y-25900500D01*
X209547575Y-25900500D01*
X209552443Y-25900596D01*
G37*
%TD.AperFunction*%
%TD*%
M02*
