M48
; DRILL file {KiCad 8.0.6} date 2025-02-28T11:45:48-0500
; FORMAT={-:-/ absolute / inch / decimal}
; #@! TF.CreationDate,2025-02-28T11:45:48-05:00
; #@! TF.GenerationSoftware,Kicad,Pcbnew,8.0.6
; #@! TF.FileFunction,Plated,1,6,PTH
FMAT,2
INCH
; #@! TA.AperFunction,Plated,PTH,ViaDrill
T1C0.0118
; #@! TA.AperFunction,Plated,PTH,ComponentDrill
T2C0.0409
; #@! TA.AperFunction,Plated,PTH,ComponentDrill
T3C0.0512
; #@! TA.AperFunction,Plated,PTH,ComponentDrill
T4C0.1260
%
G90
G05
T1
X4.0205Y-3.9228
X4.0205Y-3.9728
X4.0705Y-3.9228
X4.0705Y-3.9728
X4.1205Y-3.9228
X4.1205Y-3.9728
X4.365Y-3.0126
X4.365Y-3.0626
X4.39Y-1.84
X4.39Y-1.89
X4.39Y-3.49
X4.39Y-3.54
X4.415Y-3.0126
X4.415Y-3.0626
X4.44Y-1.84
X4.44Y-1.89
X4.44Y-3.49
X4.44Y-3.54
X4.465Y-3.0126
X4.465Y-3.0626
X4.49Y-1.84
X4.49Y-1.89
X4.49Y-3.49
X4.49Y-3.54
X6.5302Y-1.5835
X6.5368Y-4.389
X6.7054Y-1.5839
X6.7119Y-4.39
X6.9834Y-3.2295
X7.0566Y-3.2315
X7.1447Y-2.8327
X7.2212Y-3.1406
X7.2515Y-2.7386
X7.3133Y-2.4161
X7.3157Y-3.6154
X7.3177Y-3.2452
X7.3387Y-3.0886
X7.3413Y-2.6622
X7.4342Y-2.4713
X7.5003Y-3.6157
X7.5956Y-3.0626
X7.66Y-2.93
T2
X3.822Y-2.7819
X3.822Y-2.8909
X3.822Y-3.0
X3.822Y-3.1091
X3.9339Y-2.7274
X3.9339Y-2.8364
X3.9339Y-2.9455
X3.9339Y-3.0545
X3.9339Y-3.1636
X8.0685Y-1.9795
X8.0685Y-2.0886
X8.0685Y-2.1976
X8.0685Y-2.3067
X8.0685Y-2.4157
X8.0701Y-3.672
X8.0701Y-3.7811
X8.0701Y-3.8902
X8.0701Y-3.9992
X8.0701Y-4.1083
X8.1803Y-2.0341
X8.1803Y-2.1431
X8.1803Y-2.2522
X8.1803Y-2.3612
X8.1819Y-3.7266
X8.1819Y-3.8356
X8.1819Y-3.9447
X8.1819Y-4.0537
T3
X5.9148Y-3.3984
X5.9148Y-3.6976
X5.9148Y-3.8984
X5.9161Y-1.7746
X5.9161Y-2.0738
X5.9161Y-2.2746
X6.714Y-3.3984
X6.714Y-3.8
X6.714Y-4.2016
X6.7153Y-1.7746
X6.7153Y-2.1762
X6.7153Y-2.5778
T4
X3.7402Y-1.2992
X3.7402Y-4.7244
X3.878Y-2.4533
X3.878Y-3.4376
X8.1244Y-1.7055
X8.1244Y-2.6898
X8.126Y-3.398
X8.126Y-4.3823
X8.189Y-1.2992
X8.189Y-4.7244
M30
