%TF.GenerationSoftware,KiCad,Pcbnew,8.0.6*%
%TF.CreationDate,2025-02-28T11:45:46-05:00*%
%TF.ProjectId,PM5V_Telemetry_Cold_TPC,504d3556-5f54-4656-9c65-6d657472795f,rev?*%
%TF.SameCoordinates,Original*%
%TF.FileFunction,Copper,L4,Inr*%
%TF.FilePolarity,Positive*%
%FSLAX46Y46*%
G04 Gerber Fmt 4.6, Leading zero omitted, Abs format (unit mm)*
G04 Created by KiCad (PCBNEW 8.0.6) date 2025-02-28 11:45:46*
%MOMM*%
%LPD*%
G01*
G04 APERTURE LIST*
%TA.AperFunction,ComponentPad*%
%ADD10C,6.400000*%
%TD*%
%TA.AperFunction,ComponentPad*%
%ADD11C,1.560000*%
%TD*%
%TA.AperFunction,ComponentPad*%
%ADD12C,4.216000*%
%TD*%
%TA.AperFunction,ComponentPad*%
%ADD13R,2.000000X2.000000*%
%TD*%
%TA.AperFunction,ComponentPad*%
%ADD14C,2.000000*%
%TD*%
%TA.AperFunction,ViaPad*%
%ADD15C,0.600000*%
%TD*%
G04 APERTURE END LIST*
D10*
%TO.N,GNDPWR*%
%TO.C,H3*%
X208000000Y-33000000D03*
%TD*%
%TO.N,GNDPWR*%
%TO.C,H1*%
X95000000Y-33000000D03*
%TD*%
D11*
%TO.N,/V_SEC_RTN*%
%TO.C,J1*%
X99920000Y-69275000D03*
X99920000Y-72045000D03*
%TO.N,unconnected-(J1-Pad3)*%
X99920000Y-74815000D03*
%TO.N,/V_SEC_RTN*%
X99920000Y-77585000D03*
X99920000Y-80355000D03*
%TO.N,/V_SEC_IN*%
X97080000Y-70660000D03*
X97080000Y-73430000D03*
X97080000Y-76200000D03*
X97080000Y-78970000D03*
D12*
%TO.N,GNDPWR*%
X98500000Y-62315000D03*
X98500000Y-87315000D03*
%TD*%
D10*
%TO.N,GNDPWR*%
%TO.C,H2*%
X95000000Y-120000000D03*
%TD*%
D11*
%TO.N,/PM_5V_RTN*%
%TO.C,J2*%
X204940000Y-61360000D03*
X204940000Y-58590000D03*
%TO.N,unconnected-(J2-Pad3)*%
X204940000Y-55820000D03*
%TO.N,/PM_5V_RTN*%
X204940000Y-53050000D03*
X204940000Y-50280000D03*
%TO.N,/M5_OUT*%
X207780000Y-59975000D03*
X207780000Y-57205000D03*
%TO.N,/P5_OUT*%
X207780000Y-54435000D03*
X207780000Y-51665000D03*
D12*
%TO.N,GNDPWR*%
X206360000Y-68320000D03*
X206360000Y-43320000D03*
%TD*%
D10*
%TO.N,GNDPWR*%
%TO.C,H4*%
X208000000Y-120000000D03*
%TD*%
D13*
%TO.N,/Main_Converter1/V_POS*%
%TO.C,U2*%
X150235600Y-99020000D03*
D14*
%TO.N,/Main_Converter1/V_RTN*%
X150235600Y-93920000D03*
%TO.N,/PM_5V_RTN*%
X170535600Y-106720000D03*
%TO.N,/Main_Converter1/trim*%
X170535600Y-96520000D03*
%TO.N,/M5_OUT*%
X170535600Y-86320000D03*
%TO.N,unconnected-(U2-REMOTE-Pad6)*%
X150235600Y-86320000D03*
%TD*%
D13*
%TO.N,/Main_Converter/V_POS*%
%TO.C,U1*%
X150268100Y-57775000D03*
D14*
%TO.N,/Main_Converter/V_RTN*%
X150268100Y-52675000D03*
%TO.N,/P5_OUT*%
X170568100Y-65475000D03*
%TO.N,/Main_Converter/trim*%
X170568100Y-55275000D03*
%TO.N,/PM_5V_RTN*%
X170568100Y-45075000D03*
%TO.N,unconnected-(U1-REMOTE-Pad6)*%
X150268100Y-45075000D03*
%TD*%
D11*
%TO.N,/PM_5V_RTN*%
%TO.C,J3*%
X204980000Y-104350000D03*
X204980000Y-101580000D03*
%TO.N,unconnected-(J3-Pad3)*%
X204980000Y-98810000D03*
%TO.N,/PM_5V_RTN*%
X204980000Y-96040000D03*
X204980000Y-93270000D03*
%TO.N,/M5_OUT*%
X207820000Y-102965000D03*
X207820000Y-100195000D03*
%TO.N,/P5_OUT*%
X207820000Y-97425000D03*
X207820000Y-94655000D03*
D12*
%TO.N,GNDPWR*%
X206400000Y-111310000D03*
X206400000Y-86310000D03*
%TD*%
D15*
%TO.N,/V_SEC_RTN*%
X111506000Y-88646000D03*
X112776000Y-48006000D03*
X111506000Y-46736000D03*
X111506000Y-89916000D03*
X112776000Y-89916000D03*
X114046000Y-46736000D03*
X114046000Y-48006000D03*
X112776000Y-46736000D03*
X114046000Y-88646000D03*
X114046000Y-89916000D03*
X112776000Y-88646000D03*
X111506000Y-48006000D03*
%TO.N,/P5_OUT*%
X194564000Y-74422000D03*
X181474300Y-71950000D03*
%TO.N,/PM_5V_RTN*%
X179238100Y-82080000D03*
X185868900Y-82427600D03*
X186468100Y-67620000D03*
X192928100Y-77790000D03*
X184188100Y-69560000D03*
X170318100Y-40230000D03*
X170483000Y-111506000D03*
X183418100Y-79770000D03*
%TO.N,GNDPWR*%
X165868100Y-40220000D03*
X166035500Y-111481000D03*
%TO.N,/M5_OUT*%
X186401900Y-78450000D03*
X177378100Y-82030000D03*
%TO.N,Net-(D1-Pad2)*%
X185758100Y-61370000D03*
%TO.N,Net-(D1-Pad1)*%
X188828100Y-62770000D03*
%TO.N,Net-(D2-Pad1)*%
X185818100Y-91830000D03*
%TO.N,Net-(D2-Pad2)*%
X190508100Y-91840000D03*
%TO.N,/V_SEC_IN*%
X110870000Y-76520000D03*
X104660000Y-100910000D03*
X103390000Y-100910000D03*
X103390000Y-99640000D03*
X110870000Y-77790000D03*
X102120000Y-99640000D03*
X113410000Y-77790000D03*
X104660000Y-99640000D03*
X112140000Y-77790000D03*
X113410000Y-76520000D03*
X102120000Y-100910000D03*
X112140000Y-76520000D03*
%TD*%
%TA.AperFunction,Conductor*%
%TO.N,/M5_OUT*%
G36*
X210763039Y-48279685D02*
G01*
X210808794Y-48332489D01*
X210820000Y-48384000D01*
X210820000Y-106556000D01*
X210800315Y-106623039D01*
X210747511Y-106668794D01*
X210696000Y-106680000D01*
X200784000Y-106680000D01*
X200716961Y-106660315D01*
X200671206Y-106607511D01*
X200660000Y-106556000D01*
X200660000Y-93269998D01*
X203694609Y-93269998D01*
X203694609Y-93270001D01*
X203714136Y-93493200D01*
X203714137Y-93493208D01*
X203772126Y-93709625D01*
X203772127Y-93709627D01*
X203772128Y-93709630D01*
X203827683Y-93828768D01*
X203866819Y-93912696D01*
X203866821Y-93912700D01*
X203995329Y-94096228D01*
X203995334Y-94096234D01*
X204153765Y-94254665D01*
X204153771Y-94254670D01*
X204337299Y-94383178D01*
X204337301Y-94383179D01*
X204337304Y-94383181D01*
X204540370Y-94477872D01*
X204754414Y-94535225D01*
X204814074Y-94571590D01*
X204844603Y-94634437D01*
X204836308Y-94703813D01*
X204791823Y-94757691D01*
X204754415Y-94774774D01*
X204705230Y-94787953D01*
X204540374Y-94832126D01*
X204540368Y-94832129D01*
X204337306Y-94926818D01*
X204337304Y-94926819D01*
X204153764Y-95055334D01*
X203995334Y-95213764D01*
X203866819Y-95397304D01*
X203866818Y-95397306D01*
X203772129Y-95600368D01*
X203772126Y-95600374D01*
X203714137Y-95816791D01*
X203714136Y-95816799D01*
X203694609Y-96039998D01*
X203694609Y-96040001D01*
X203714136Y-96263200D01*
X203714137Y-96263208D01*
X203772126Y-96479625D01*
X203772127Y-96479627D01*
X203772128Y-96479630D01*
X203827683Y-96598768D01*
X203866819Y-96682696D01*
X203866821Y-96682700D01*
X203995329Y-96866228D01*
X203995334Y-96866234D01*
X204153765Y-97024665D01*
X204153771Y-97024670D01*
X204337299Y-97153178D01*
X204337301Y-97153179D01*
X204337304Y-97153181D01*
X204540370Y-97247872D01*
X204754414Y-97305225D01*
X204814074Y-97341590D01*
X204844603Y-97404437D01*
X204836308Y-97473813D01*
X204791823Y-97527691D01*
X204754415Y-97544774D01*
X204705230Y-97557953D01*
X204540374Y-97602126D01*
X204540368Y-97602129D01*
X204337306Y-97696818D01*
X204337304Y-97696819D01*
X204153764Y-97825334D01*
X203995334Y-97983764D01*
X203866819Y-98167304D01*
X203866818Y-98167306D01*
X203772129Y-98370368D01*
X203772126Y-98370374D01*
X203714137Y-98586791D01*
X203714136Y-98586799D01*
X203694609Y-98809998D01*
X203694609Y-98810001D01*
X203714136Y-99033200D01*
X203714137Y-99033208D01*
X203772126Y-99249625D01*
X203772127Y-99249627D01*
X203772128Y-99249630D01*
X203866819Y-99452696D01*
X203866821Y-99452700D01*
X203995329Y-99636228D01*
X203995334Y-99636234D01*
X204153765Y-99794665D01*
X204153771Y-99794670D01*
X204337299Y-99923178D01*
X204337301Y-99923179D01*
X204337304Y-99923181D01*
X204540370Y-100017872D01*
X204754414Y-100075225D01*
X204814074Y-100111590D01*
X204844603Y-100174437D01*
X204836308Y-100243813D01*
X204791823Y-100297691D01*
X204754415Y-100314774D01*
X204705230Y-100327953D01*
X204540374Y-100372126D01*
X204540368Y-100372129D01*
X204337306Y-100466818D01*
X204337304Y-100466819D01*
X204153764Y-100595334D01*
X203995334Y-100753764D01*
X203866819Y-100937304D01*
X203866818Y-100937306D01*
X203772129Y-101140368D01*
X203772126Y-101140374D01*
X203714137Y-101356791D01*
X203714136Y-101356799D01*
X203694609Y-101579998D01*
X203694609Y-101580001D01*
X203714136Y-101803200D01*
X203714137Y-101803208D01*
X203772126Y-102019625D01*
X203772127Y-102019627D01*
X203772128Y-102019630D01*
X203866819Y-102222696D01*
X203866821Y-102222700D01*
X203995329Y-102406228D01*
X203995334Y-102406234D01*
X204153765Y-102564665D01*
X204153771Y-102564670D01*
X204337299Y-102693178D01*
X204337301Y-102693179D01*
X204337304Y-102693181D01*
X204540370Y-102787872D01*
X204754414Y-102845225D01*
X204814074Y-102881590D01*
X204844603Y-102944437D01*
X204836308Y-103013813D01*
X204791823Y-103067691D01*
X204754415Y-103084774D01*
X204705230Y-103097953D01*
X204540374Y-103142126D01*
X204540368Y-103142129D01*
X204337306Y-103236818D01*
X204337304Y-103236819D01*
X204153764Y-103365334D01*
X203995334Y-103523764D01*
X203866819Y-103707304D01*
X203866818Y-103707306D01*
X203772129Y-103910368D01*
X203772126Y-103910374D01*
X203714137Y-104126791D01*
X203714136Y-104126799D01*
X203694609Y-104349998D01*
X203694609Y-104350001D01*
X203714136Y-104573200D01*
X203714137Y-104573208D01*
X203772126Y-104789625D01*
X203772127Y-104789627D01*
X203772128Y-104789630D01*
X203866819Y-104992696D01*
X203866821Y-104992700D01*
X203995329Y-105176228D01*
X203995334Y-105176234D01*
X204153765Y-105334665D01*
X204153771Y-105334670D01*
X204337299Y-105463178D01*
X204337301Y-105463179D01*
X204337304Y-105463181D01*
X204540370Y-105557872D01*
X204756794Y-105615863D01*
X204916226Y-105629811D01*
X204979998Y-105635391D01*
X204980000Y-105635391D01*
X204980002Y-105635391D01*
X205035801Y-105630509D01*
X205203206Y-105615863D01*
X205419630Y-105557872D01*
X205622696Y-105463181D01*
X205806233Y-105334667D01*
X205964667Y-105176233D01*
X206093181Y-104992696D01*
X206187872Y-104789630D01*
X206245863Y-104573206D01*
X206265391Y-104350000D01*
X206245863Y-104126794D01*
X206187872Y-103910370D01*
X206093181Y-103707305D01*
X205964667Y-103523767D01*
X205806233Y-103365333D01*
X205806229Y-103365330D01*
X205806228Y-103365329D01*
X205622700Y-103236821D01*
X205622696Y-103236819D01*
X205622694Y-103236818D01*
X205419630Y-103142128D01*
X205419626Y-103142127D01*
X205419622Y-103142125D01*
X205257884Y-103098788D01*
X205205585Y-103084774D01*
X205145925Y-103048410D01*
X205115396Y-102985563D01*
X205123691Y-102916188D01*
X205168176Y-102862310D01*
X205205584Y-102845225D01*
X205419630Y-102787872D01*
X205622696Y-102693181D01*
X205806233Y-102564667D01*
X205964667Y-102406233D01*
X206093181Y-102222696D01*
X206187872Y-102019630D01*
X206245863Y-101803206D01*
X206265391Y-101580000D01*
X206245863Y-101356794D01*
X206187872Y-101140370D01*
X206093181Y-100937305D01*
X205964667Y-100753767D01*
X205806233Y-100595333D01*
X205806229Y-100595330D01*
X205806228Y-100595329D01*
X205622700Y-100466821D01*
X205622696Y-100466819D01*
X205622694Y-100466818D01*
X205419630Y-100372128D01*
X205419626Y-100372127D01*
X205419622Y-100372125D01*
X205257884Y-100328788D01*
X205205585Y-100314774D01*
X205145925Y-100278410D01*
X205115396Y-100215563D01*
X205123691Y-100146188D01*
X205168176Y-100092310D01*
X205205584Y-100075225D01*
X205419630Y-100017872D01*
X205622696Y-99923181D01*
X205806233Y-99794667D01*
X205964667Y-99636233D01*
X206093181Y-99452696D01*
X206187872Y-99249630D01*
X206245863Y-99033206D01*
X206265391Y-98810000D01*
X206245863Y-98586794D01*
X206187872Y-98370370D01*
X206093181Y-98167305D01*
X205964667Y-97983767D01*
X205806233Y-97825333D01*
X205806229Y-97825330D01*
X205806228Y-97825329D01*
X205622700Y-97696821D01*
X205622696Y-97696819D01*
X205518449Y-97648208D01*
X205419630Y-97602128D01*
X205419626Y-97602127D01*
X205419622Y-97602125D01*
X205257884Y-97558788D01*
X205205585Y-97544774D01*
X205145925Y-97508410D01*
X205115396Y-97445563D01*
X205123691Y-97376188D01*
X205168176Y-97322310D01*
X205205584Y-97305225D01*
X205419630Y-97247872D01*
X205622696Y-97153181D01*
X205806233Y-97024667D01*
X205964667Y-96866233D01*
X206093181Y-96682696D01*
X206187872Y-96479630D01*
X206245863Y-96263206D01*
X206265391Y-96040000D01*
X206245863Y-95816794D01*
X206187872Y-95600370D01*
X206093181Y-95397305D01*
X205964667Y-95213767D01*
X205806233Y-95055333D01*
X205806229Y-95055330D01*
X205806228Y-95055329D01*
X205622700Y-94926821D01*
X205622696Y-94926819D01*
X205518449Y-94878208D01*
X205419630Y-94832128D01*
X205419626Y-94832127D01*
X205419622Y-94832125D01*
X205257884Y-94788788D01*
X205205585Y-94774774D01*
X205145925Y-94738410D01*
X205115396Y-94675563D01*
X205117855Y-94654998D01*
X206534609Y-94654998D01*
X206534609Y-94655001D01*
X206554136Y-94878200D01*
X206554137Y-94878208D01*
X206612126Y-95094625D01*
X206612127Y-95094627D01*
X206612128Y-95094630D01*
X206667683Y-95213768D01*
X206706819Y-95297696D01*
X206706821Y-95297700D01*
X206835329Y-95481228D01*
X206835334Y-95481234D01*
X206993765Y-95639665D01*
X206993771Y-95639670D01*
X207177299Y-95768178D01*
X207177301Y-95768179D01*
X207177304Y-95768181D01*
X207380370Y-95862872D01*
X207594414Y-95920225D01*
X207654074Y-95956590D01*
X207684603Y-96019437D01*
X207676308Y-96088813D01*
X207631823Y-96142691D01*
X207594415Y-96159774D01*
X207545230Y-96172953D01*
X207380374Y-96217126D01*
X207380368Y-96217129D01*
X207177306Y-96311818D01*
X207177304Y-96311819D01*
X206993764Y-96440334D01*
X206835334Y-96598764D01*
X206706819Y-96782304D01*
X206706818Y-96782306D01*
X206612129Y-96985368D01*
X206612126Y-96985374D01*
X206554137Y-97201791D01*
X206554136Y-97201799D01*
X206534609Y-97424998D01*
X206534609Y-97425001D01*
X206554136Y-97648200D01*
X206554137Y-97648208D01*
X206612126Y-97864625D01*
X206612127Y-97864627D01*
X206612128Y-97864630D01*
X206667683Y-97983768D01*
X206706819Y-98067696D01*
X206706821Y-98067700D01*
X206835329Y-98251228D01*
X206835334Y-98251234D01*
X206993765Y-98409665D01*
X206993771Y-98409670D01*
X207177299Y-98538178D01*
X207177301Y-98538179D01*
X207177304Y-98538181D01*
X207380370Y-98632872D01*
X207595379Y-98690484D01*
X207655039Y-98726848D01*
X207685568Y-98789695D01*
X207677273Y-98859070D01*
X207632788Y-98912948D01*
X207595379Y-98930033D01*
X207380547Y-98987597D01*
X207380540Y-98987600D01*
X207177556Y-99082253D01*
X207108887Y-99130334D01*
X207674260Y-99695707D01*
X207619288Y-99710437D01*
X207500713Y-99778896D01*
X207403896Y-99875713D01*
X207335437Y-99994288D01*
X207320707Y-100049260D01*
X206755334Y-99483887D01*
X206707253Y-99552556D01*
X206612600Y-99755540D01*
X206612596Y-99755549D01*
X206554632Y-99971875D01*
X206554630Y-99971886D01*
X206535111Y-100194997D01*
X206535111Y-100195002D01*
X206554630Y-100418113D01*
X206554632Y-100418124D01*
X206612596Y-100634450D01*
X206612600Y-100634459D01*
X206707252Y-100837443D01*
X206707253Y-100837445D01*
X206755334Y-100906112D01*
X207320707Y-100340739D01*
X207335437Y-100395712D01*
X207403896Y-100514287D01*
X207500713Y-100611104D01*
X207619288Y-100679563D01*
X207674259Y-100694292D01*
X207108886Y-101259664D01*
X207177555Y-101307746D01*
X207380540Y-101402399D01*
X207380546Y-101402402D01*
X207596344Y-101460225D01*
X207656004Y-101496590D01*
X207686533Y-101559437D01*
X207678238Y-101628813D01*
X207633753Y-101682690D01*
X207596344Y-101699775D01*
X207380546Y-101757597D01*
X207380540Y-101757600D01*
X207177556Y-101852253D01*
X207108887Y-101900334D01*
X207674260Y-102465707D01*
X207619288Y-102480437D01*
X207500713Y-102548896D01*
X207403896Y-102645713D01*
X207335437Y-102764288D01*
X207320707Y-102819260D01*
X206755334Y-102253887D01*
X206707253Y-102322556D01*
X206612600Y-102525540D01*
X206612596Y-102525549D01*
X206554632Y-102741875D01*
X206554630Y-102741886D01*
X206535111Y-102964997D01*
X206535111Y-102965002D01*
X206554630Y-103188113D01*
X206554632Y-103188124D01*
X206612596Y-103404450D01*
X206612600Y-103404459D01*
X206707252Y-103607443D01*
X206707253Y-103607445D01*
X206755334Y-103676112D01*
X207320707Y-103110739D01*
X207335437Y-103165712D01*
X207403896Y-103284287D01*
X207500713Y-103381104D01*
X207619288Y-103449563D01*
X207674259Y-103464292D01*
X207108886Y-104029664D01*
X207177555Y-104077746D01*
X207380540Y-104172399D01*
X207380549Y-104172403D01*
X207596875Y-104230367D01*
X207596886Y-104230369D01*
X207819998Y-104249889D01*
X207820002Y-104249889D01*
X208043113Y-104230369D01*
X208043124Y-104230367D01*
X208259450Y-104172403D01*
X208259459Y-104172399D01*
X208462445Y-104077746D01*
X208462451Y-104077742D01*
X208531112Y-104029665D01*
X207965739Y-103464292D01*
X208020712Y-103449563D01*
X208139287Y-103381104D01*
X208236104Y-103284287D01*
X208304563Y-103165712D01*
X208319292Y-103110739D01*
X208884665Y-103676112D01*
X208932742Y-103607451D01*
X208932746Y-103607445D01*
X209027399Y-103404459D01*
X209027403Y-103404450D01*
X209085367Y-103188124D01*
X209085369Y-103188113D01*
X209104889Y-102965002D01*
X209104889Y-102964997D01*
X209085369Y-102741886D01*
X209085367Y-102741875D01*
X209027403Y-102525549D01*
X209027399Y-102525540D01*
X208932747Y-102322557D01*
X208932746Y-102322555D01*
X208884664Y-102253887D01*
X208884664Y-102253886D01*
X208319292Y-102819259D01*
X208304563Y-102764288D01*
X208236104Y-102645713D01*
X208139287Y-102548896D01*
X208020712Y-102480437D01*
X207965740Y-102465707D01*
X208531112Y-101900334D01*
X208531112Y-101900333D01*
X208462445Y-101852253D01*
X208462443Y-101852252D01*
X208259459Y-101757600D01*
X208259450Y-101757596D01*
X208043656Y-101699775D01*
X207983995Y-101663410D01*
X207953466Y-101600563D01*
X207961761Y-101531188D01*
X208006246Y-101477310D01*
X208043656Y-101460225D01*
X208259450Y-101402403D01*
X208259459Y-101402399D01*
X208462445Y-101307746D01*
X208462451Y-101307742D01*
X208531112Y-101259665D01*
X207965739Y-100694292D01*
X208020712Y-100679563D01*
X208139287Y-100611104D01*
X208236104Y-100514287D01*
X208304563Y-100395712D01*
X208319292Y-100340739D01*
X208884665Y-100906112D01*
X208932742Y-100837451D01*
X208932746Y-100837445D01*
X209027399Y-100634459D01*
X209027403Y-100634450D01*
X209085367Y-100418124D01*
X209085369Y-100418113D01*
X209104889Y-100195002D01*
X209104889Y-100194997D01*
X209085369Y-99971886D01*
X209085367Y-99971875D01*
X209027403Y-99755549D01*
X209027399Y-99755540D01*
X208932747Y-99552557D01*
X208932746Y-99552555D01*
X208884664Y-99483887D01*
X208884664Y-99483886D01*
X208319292Y-100049259D01*
X208304563Y-99994288D01*
X208236104Y-99875713D01*
X208139287Y-99778896D01*
X208020712Y-99710437D01*
X207965740Y-99695707D01*
X208531112Y-99130334D01*
X208531112Y-99130333D01*
X208462445Y-99082253D01*
X208462443Y-99082252D01*
X208259459Y-98987600D01*
X208259453Y-98987597D01*
X208044620Y-98930033D01*
X207984960Y-98893668D01*
X207954431Y-98830821D01*
X207962726Y-98761445D01*
X208007211Y-98707567D01*
X208044616Y-98690485D01*
X208259630Y-98632872D01*
X208462696Y-98538181D01*
X208646233Y-98409667D01*
X208804667Y-98251233D01*
X208933181Y-98067696D01*
X209027872Y-97864630D01*
X209085863Y-97648206D01*
X209105391Y-97425000D01*
X209085863Y-97201794D01*
X209027872Y-96985370D01*
X208933181Y-96782305D01*
X208804667Y-96598767D01*
X208646233Y-96440333D01*
X208646229Y-96440330D01*
X208646228Y-96440329D01*
X208462700Y-96311821D01*
X208462696Y-96311819D01*
X208462694Y-96311818D01*
X208259630Y-96217128D01*
X208259626Y-96217127D01*
X208259622Y-96217125D01*
X208097884Y-96173788D01*
X208045585Y-96159774D01*
X207985925Y-96123410D01*
X207955396Y-96060563D01*
X207963691Y-95991188D01*
X208008176Y-95937310D01*
X208045584Y-95920225D01*
X208259630Y-95862872D01*
X208462696Y-95768181D01*
X208646233Y-95639667D01*
X208804667Y-95481233D01*
X208933181Y-95297696D01*
X209027872Y-95094630D01*
X209085863Y-94878206D01*
X209105391Y-94655000D01*
X209085863Y-94431794D01*
X209027872Y-94215370D01*
X208933181Y-94012305D01*
X208804667Y-93828767D01*
X208646233Y-93670333D01*
X208646229Y-93670330D01*
X208646228Y-93670329D01*
X208462700Y-93541821D01*
X208462696Y-93541819D01*
X208358449Y-93493208D01*
X208259630Y-93447128D01*
X208259627Y-93447127D01*
X208259625Y-93447126D01*
X208043208Y-93389137D01*
X208043200Y-93389136D01*
X207820002Y-93369609D01*
X207819998Y-93369609D01*
X207596799Y-93389136D01*
X207596791Y-93389137D01*
X207380374Y-93447126D01*
X207380368Y-93447129D01*
X207177306Y-93541818D01*
X207177304Y-93541819D01*
X206993764Y-93670334D01*
X206835334Y-93828764D01*
X206706819Y-94012304D01*
X206706818Y-94012306D01*
X206612129Y-94215368D01*
X206612126Y-94215374D01*
X206554137Y-94431791D01*
X206554136Y-94431799D01*
X206534609Y-94654998D01*
X205117855Y-94654998D01*
X205123691Y-94606188D01*
X205168176Y-94552310D01*
X205205584Y-94535225D01*
X205419630Y-94477872D01*
X205622696Y-94383181D01*
X205806233Y-94254667D01*
X205964667Y-94096233D01*
X206093181Y-93912696D01*
X206187872Y-93709630D01*
X206245863Y-93493206D01*
X206265391Y-93270000D01*
X206245863Y-93046794D01*
X206187872Y-92830370D01*
X206093181Y-92627305D01*
X205964667Y-92443767D01*
X205806233Y-92285333D01*
X205806229Y-92285330D01*
X205806228Y-92285329D01*
X205622700Y-92156821D01*
X205622696Y-92156819D01*
X205622694Y-92156818D01*
X205419630Y-92062128D01*
X205419627Y-92062127D01*
X205419625Y-92062126D01*
X205203208Y-92004137D01*
X205203200Y-92004136D01*
X204980002Y-91984609D01*
X204979998Y-91984609D01*
X204756799Y-92004136D01*
X204756791Y-92004137D01*
X204540374Y-92062126D01*
X204540368Y-92062129D01*
X204337306Y-92156818D01*
X204337304Y-92156819D01*
X204153764Y-92285334D01*
X203995334Y-92443764D01*
X203866819Y-92627304D01*
X203866818Y-92627306D01*
X203772129Y-92830368D01*
X203772126Y-92830374D01*
X203714137Y-93046791D01*
X203714136Y-93046799D01*
X203694609Y-93269998D01*
X200660000Y-93269998D01*
X200660000Y-91440000D01*
X191270704Y-91440000D01*
X191203665Y-91420315D01*
X191165710Y-91381971D01*
X191137919Y-91337742D01*
X191137917Y-91337739D01*
X191010362Y-91210184D01*
X190857623Y-91114211D01*
X190687354Y-91054631D01*
X190687349Y-91054630D01*
X190508104Y-91034435D01*
X190508096Y-91034435D01*
X190328850Y-91054630D01*
X190328845Y-91054631D01*
X190158576Y-91114211D01*
X190005837Y-91210184D01*
X189878282Y-91337739D01*
X189878280Y-91337742D01*
X189850490Y-91381971D01*
X189798156Y-91428263D01*
X189745496Y-91440000D01*
X186586987Y-91440000D01*
X186519948Y-91420315D01*
X186481994Y-91381973D01*
X186447916Y-91327738D01*
X186320362Y-91200184D01*
X186167623Y-91104211D01*
X185997354Y-91044631D01*
X185997349Y-91044630D01*
X185818104Y-91024435D01*
X185818096Y-91024435D01*
X185638850Y-91044630D01*
X185638845Y-91044631D01*
X185468576Y-91104211D01*
X185315837Y-91200184D01*
X185188284Y-91327737D01*
X185182000Y-91337739D01*
X185154205Y-91381973D01*
X185101873Y-91428263D01*
X185049213Y-91440000D01*
X167764000Y-91440000D01*
X167696961Y-91420315D01*
X167651206Y-91367511D01*
X167640000Y-91316000D01*
X167640000Y-86319994D01*
X169030459Y-86319994D01*
X169030459Y-86320005D01*
X169050985Y-86567729D01*
X169050987Y-86567738D01*
X169112012Y-86808717D01*
X169211866Y-87036364D01*
X169312164Y-87189882D01*
X169934558Y-86567488D01*
X169959578Y-86627890D01*
X170030712Y-86734351D01*
X170121249Y-86824888D01*
X170227710Y-86896022D01*
X170288111Y-86921041D01*
X169665542Y-87543609D01*
X169712368Y-87580055D01*
X169712370Y-87580056D01*
X169930985Y-87698364D01*
X169930996Y-87698369D01*
X170166106Y-87779083D01*
X170411307Y-87820000D01*
X170659893Y-87820000D01*
X170905093Y-87779083D01*
X171140203Y-87698369D01*
X171140214Y-87698364D01*
X171358828Y-87580057D01*
X171358831Y-87580055D01*
X171405656Y-87543609D01*
X170783088Y-86921041D01*
X170843490Y-86896022D01*
X170949951Y-86824888D01*
X171040488Y-86734351D01*
X171111622Y-86627890D01*
X171136641Y-86567489D01*
X171759034Y-87189882D01*
X171859331Y-87036369D01*
X171959187Y-86808717D01*
X172020212Y-86567738D01*
X172020214Y-86567729D01*
X172040741Y-86320005D01*
X172040741Y-86319994D01*
X172039913Y-86310000D01*
X203786732Y-86310000D01*
X203805785Y-86624989D01*
X203805785Y-86624994D01*
X203805786Y-86624995D01*
X203862669Y-86935396D01*
X203862670Y-86935400D01*
X203862671Y-86935404D01*
X203956545Y-87236659D01*
X203956549Y-87236670D01*
X203956550Y-87236673D01*
X203956552Y-87236678D01*
X204086066Y-87524446D01*
X204249326Y-87794510D01*
X204443943Y-88042920D01*
X204667079Y-88266056D01*
X204915489Y-88460673D01*
X204915492Y-88460675D01*
X204915495Y-88460677D01*
X205185554Y-88623934D01*
X205473322Y-88753448D01*
X205473332Y-88753451D01*
X205473340Y-88753454D01*
X205674176Y-88816036D01*
X205774604Y-88847331D01*
X206085005Y-88904214D01*
X206400000Y-88923268D01*
X206714995Y-88904214D01*
X207025396Y-88847331D01*
X207326678Y-88753448D01*
X207614446Y-88623934D01*
X207884505Y-88460677D01*
X208132917Y-88266059D01*
X208356059Y-88042917D01*
X208550677Y-87794505D01*
X208713934Y-87524446D01*
X208843448Y-87236678D01*
X208937331Y-86935396D01*
X208994214Y-86624995D01*
X209013268Y-86310000D01*
X208994214Y-85995005D01*
X208937331Y-85684604D01*
X208843448Y-85383322D01*
X208713934Y-85095554D01*
X208550677Y-84825495D01*
X208550675Y-84825492D01*
X208550673Y-84825489D01*
X208356056Y-84577079D01*
X208132920Y-84353943D01*
X207884510Y-84159326D01*
X207614446Y-83996066D01*
X207326678Y-83866552D01*
X207326673Y-83866550D01*
X207326670Y-83866549D01*
X207326659Y-83866545D01*
X207025404Y-83772671D01*
X207025400Y-83772670D01*
X207025396Y-83772669D01*
X206714995Y-83715786D01*
X206714994Y-83715785D01*
X206714989Y-83715785D01*
X206400000Y-83696732D01*
X206085010Y-83715785D01*
X206085005Y-83715786D01*
X205774604Y-83772669D01*
X205774601Y-83772669D01*
X205774595Y-83772671D01*
X205473340Y-83866545D01*
X205473329Y-83866549D01*
X205185553Y-83996066D01*
X204915489Y-84159326D01*
X204667079Y-84353943D01*
X204443943Y-84577079D01*
X204249326Y-84825489D01*
X204086066Y-85095553D01*
X203956549Y-85383329D01*
X203956545Y-85383340D01*
X203862671Y-85684595D01*
X203862669Y-85684601D01*
X203862669Y-85684604D01*
X203838753Y-85815112D01*
X203805785Y-85995010D01*
X203786732Y-86310000D01*
X172039913Y-86310000D01*
X172020214Y-86072270D01*
X172020212Y-86072261D01*
X171959187Y-85831282D01*
X171859331Y-85603630D01*
X171759034Y-85450116D01*
X171136641Y-86072510D01*
X171111622Y-86012110D01*
X171040488Y-85905649D01*
X170949951Y-85815112D01*
X170843490Y-85743978D01*
X170783089Y-85718958D01*
X171405657Y-85096390D01*
X171405656Y-85096389D01*
X171358829Y-85059943D01*
X171140214Y-84941635D01*
X171140203Y-84941630D01*
X170905093Y-84860916D01*
X170659893Y-84820000D01*
X170411307Y-84820000D01*
X170166106Y-84860916D01*
X169930996Y-84941630D01*
X169930990Y-84941632D01*
X169712361Y-85059949D01*
X169665542Y-85096388D01*
X169665542Y-85096390D01*
X170288111Y-85718958D01*
X170227710Y-85743978D01*
X170121249Y-85815112D01*
X170030712Y-85905649D01*
X169959578Y-86012110D01*
X169934558Y-86072510D01*
X169312164Y-85450116D01*
X169211867Y-85603632D01*
X169112012Y-85831282D01*
X169050987Y-86072261D01*
X169050985Y-86072270D01*
X169030459Y-86319994D01*
X167640000Y-86319994D01*
X167640000Y-82079996D01*
X178432535Y-82079996D01*
X178432535Y-82080003D01*
X178452730Y-82259249D01*
X178452731Y-82259254D01*
X178512311Y-82429523D01*
X178608284Y-82582262D01*
X178735838Y-82709816D01*
X178888578Y-82805789D01*
X179058845Y-82865368D01*
X179058850Y-82865369D01*
X179238096Y-82885565D01*
X179238100Y-82885565D01*
X179238104Y-82885565D01*
X179417349Y-82865369D01*
X179417352Y-82865368D01*
X179417355Y-82865368D01*
X179587622Y-82805789D01*
X179740362Y-82709816D01*
X179867916Y-82582262D01*
X179963889Y-82429522D01*
X179964563Y-82427596D01*
X185063335Y-82427596D01*
X185063335Y-82427603D01*
X185083530Y-82606849D01*
X185083531Y-82606854D01*
X185143111Y-82777123D01*
X185198560Y-82865369D01*
X185239084Y-82929862D01*
X185366638Y-83057416D01*
X185519378Y-83153389D01*
X185689645Y-83212968D01*
X185689650Y-83212969D01*
X185868896Y-83233165D01*
X185868900Y-83233165D01*
X185868904Y-83233165D01*
X186048149Y-83212969D01*
X186048152Y-83212968D01*
X186048155Y-83212968D01*
X186218422Y-83153389D01*
X186371162Y-83057416D01*
X186498716Y-82929862D01*
X186594689Y-82777122D01*
X186654268Y-82606855D01*
X186657039Y-82582262D01*
X186674465Y-82427603D01*
X186674465Y-82427596D01*
X186654269Y-82248350D01*
X186654268Y-82248345D01*
X186594689Y-82078078D01*
X186498716Y-81925338D01*
X186371162Y-81797784D01*
X186218423Y-81701811D01*
X186048154Y-81642231D01*
X186048149Y-81642230D01*
X185868904Y-81622035D01*
X185868896Y-81622035D01*
X185689650Y-81642230D01*
X185689645Y-81642231D01*
X185519376Y-81701811D01*
X185366637Y-81797784D01*
X185239084Y-81925337D01*
X185143111Y-82078076D01*
X185083531Y-82248345D01*
X185083530Y-82248350D01*
X185063335Y-82427596D01*
X179964563Y-82427596D01*
X180023468Y-82259255D01*
X180024697Y-82248350D01*
X180043665Y-82080003D01*
X180043665Y-82079996D01*
X180023469Y-81900750D01*
X180023468Y-81900745D01*
X179963888Y-81730476D01*
X179908439Y-81642230D01*
X179867916Y-81577738D01*
X179740362Y-81450184D01*
X179587623Y-81354211D01*
X179417354Y-81294631D01*
X179417349Y-81294630D01*
X179238104Y-81274435D01*
X179238096Y-81274435D01*
X179058850Y-81294630D01*
X179058845Y-81294631D01*
X178888576Y-81354211D01*
X178735837Y-81450184D01*
X178608284Y-81577737D01*
X178512311Y-81730476D01*
X178452731Y-81900745D01*
X178452730Y-81900750D01*
X178432535Y-82079996D01*
X167640000Y-82079996D01*
X167640000Y-79769996D01*
X182612535Y-79769996D01*
X182612535Y-79770003D01*
X182632730Y-79949249D01*
X182632731Y-79949254D01*
X182692311Y-80119523D01*
X182788284Y-80272262D01*
X182915838Y-80399816D01*
X183068578Y-80495789D01*
X183238845Y-80555368D01*
X183238850Y-80555369D01*
X183418096Y-80575565D01*
X183418100Y-80575565D01*
X183418104Y-80575565D01*
X183597349Y-80555369D01*
X183597352Y-80555368D01*
X183597355Y-80555368D01*
X183767622Y-80495789D01*
X183920362Y-80399816D01*
X184047916Y-80272262D01*
X184143889Y-80119522D01*
X184203468Y-79949255D01*
X184223665Y-79770000D01*
X184203468Y-79590745D01*
X184143889Y-79420478D01*
X184047916Y-79267738D01*
X183920362Y-79140184D01*
X183767623Y-79044211D01*
X183597354Y-78984631D01*
X183597349Y-78984630D01*
X183418104Y-78964435D01*
X183418096Y-78964435D01*
X183238850Y-78984630D01*
X183238845Y-78984631D01*
X183068576Y-79044211D01*
X182915837Y-79140184D01*
X182788284Y-79267737D01*
X182692311Y-79420476D01*
X182632731Y-79590745D01*
X182632730Y-79590750D01*
X182612535Y-79769996D01*
X167640000Y-79769996D01*
X167640000Y-77789996D01*
X192122535Y-77789996D01*
X192122535Y-77790003D01*
X192142730Y-77969249D01*
X192142731Y-77969254D01*
X192202311Y-78139523D01*
X192298284Y-78292262D01*
X192425838Y-78419816D01*
X192578578Y-78515789D01*
X192748845Y-78575368D01*
X192748850Y-78575369D01*
X192928096Y-78595565D01*
X192928100Y-78595565D01*
X192928104Y-78595565D01*
X193107349Y-78575369D01*
X193107352Y-78575368D01*
X193107355Y-78575368D01*
X193277622Y-78515789D01*
X193430362Y-78419816D01*
X193557916Y-78292262D01*
X193653889Y-78139522D01*
X193713468Y-77969255D01*
X193733665Y-77790000D01*
X193713468Y-77610745D01*
X193653889Y-77440478D01*
X193557916Y-77287738D01*
X193430362Y-77160184D01*
X193277623Y-77064211D01*
X193107354Y-77004631D01*
X193107349Y-77004630D01*
X192928104Y-76984435D01*
X192928096Y-76984435D01*
X192748850Y-77004630D01*
X192748845Y-77004631D01*
X192578576Y-77064211D01*
X192425837Y-77160184D01*
X192298284Y-77287737D01*
X192202311Y-77440476D01*
X192142731Y-77610745D01*
X192142730Y-77610750D01*
X192122535Y-77789996D01*
X167640000Y-77789996D01*
X167640000Y-74421996D01*
X193758435Y-74421996D01*
X193758435Y-74422003D01*
X193778630Y-74601249D01*
X193778631Y-74601254D01*
X193838211Y-74771523D01*
X193934184Y-74924262D01*
X194061738Y-75051816D01*
X194214478Y-75147789D01*
X194384745Y-75207368D01*
X194384750Y-75207369D01*
X194563996Y-75227565D01*
X194564000Y-75227565D01*
X194564004Y-75227565D01*
X194743249Y-75207369D01*
X194743252Y-75207368D01*
X194743255Y-75207368D01*
X194913522Y-75147789D01*
X195066262Y-75051816D01*
X195193816Y-74924262D01*
X195289789Y-74771522D01*
X195349368Y-74601255D01*
X195369565Y-74422000D01*
X195349368Y-74242745D01*
X195289789Y-74072478D01*
X195193816Y-73919738D01*
X195066262Y-73792184D01*
X194913523Y-73696211D01*
X194743254Y-73636631D01*
X194743249Y-73636630D01*
X194564004Y-73616435D01*
X194563996Y-73616435D01*
X194384750Y-73636630D01*
X194384745Y-73636631D01*
X194214476Y-73696211D01*
X194061737Y-73792184D01*
X193934184Y-73919737D01*
X193838211Y-74072476D01*
X193778631Y-74242745D01*
X193778630Y-74242750D01*
X193758435Y-74421996D01*
X167640000Y-74421996D01*
X167640000Y-71949996D01*
X180668735Y-71949996D01*
X180668735Y-71950003D01*
X180688930Y-72129249D01*
X180688931Y-72129254D01*
X180748511Y-72299523D01*
X180844484Y-72452262D01*
X180972038Y-72579816D01*
X181124778Y-72675789D01*
X181295045Y-72735368D01*
X181295050Y-72735369D01*
X181474296Y-72755565D01*
X181474300Y-72755565D01*
X181474304Y-72755565D01*
X181653549Y-72735369D01*
X181653552Y-72735368D01*
X181653555Y-72735368D01*
X181823822Y-72675789D01*
X181976562Y-72579816D01*
X182104116Y-72452262D01*
X182200089Y-72299522D01*
X182259668Y-72129255D01*
X182279865Y-71950000D01*
X182259668Y-71770745D01*
X182200089Y-71600478D01*
X182104116Y-71447738D01*
X181976562Y-71320184D01*
X181823823Y-71224211D01*
X181653554Y-71164631D01*
X181653549Y-71164630D01*
X181474304Y-71144435D01*
X181474296Y-71144435D01*
X181295050Y-71164630D01*
X181295045Y-71164631D01*
X181124776Y-71224211D01*
X180972037Y-71320184D01*
X180844484Y-71447737D01*
X180748511Y-71600476D01*
X180688931Y-71770745D01*
X180688930Y-71770750D01*
X180668735Y-71949996D01*
X167640000Y-71949996D01*
X167640000Y-69559996D01*
X183382535Y-69559996D01*
X183382535Y-69560003D01*
X183402730Y-69739249D01*
X183402731Y-69739254D01*
X183462311Y-69909523D01*
X183552412Y-70052917D01*
X183558284Y-70062262D01*
X183685838Y-70189816D01*
X183838578Y-70285789D01*
X184008845Y-70345368D01*
X184008850Y-70345369D01*
X184188096Y-70365565D01*
X184188100Y-70365565D01*
X184188104Y-70365565D01*
X184367349Y-70345369D01*
X184367352Y-70345368D01*
X184367355Y-70345368D01*
X184537622Y-70285789D01*
X184690362Y-70189816D01*
X184817916Y-70062262D01*
X184913889Y-69909522D01*
X184973468Y-69739255D01*
X184993665Y-69560000D01*
X184973468Y-69380745D01*
X184913889Y-69210478D01*
X184817916Y-69057738D01*
X184690362Y-68930184D01*
X184537623Y-68834211D01*
X184367354Y-68774631D01*
X184367349Y-68774630D01*
X184188104Y-68754435D01*
X184188096Y-68754435D01*
X184008850Y-68774630D01*
X184008845Y-68774631D01*
X183838576Y-68834211D01*
X183685837Y-68930184D01*
X183558284Y-69057737D01*
X183462311Y-69210476D01*
X183402731Y-69380745D01*
X183402730Y-69380750D01*
X183382535Y-69559996D01*
X167640000Y-69559996D01*
X167640000Y-67619996D01*
X185662535Y-67619996D01*
X185662535Y-67620003D01*
X185682730Y-67799249D01*
X185682731Y-67799254D01*
X185742311Y-67969523D01*
X185838284Y-68122262D01*
X185965838Y-68249816D01*
X186118578Y-68345789D01*
X186288845Y-68405368D01*
X186288850Y-68405369D01*
X186468096Y-68425565D01*
X186468100Y-68425565D01*
X186468104Y-68425565D01*
X186647349Y-68405369D01*
X186647352Y-68405368D01*
X186647355Y-68405368D01*
X186817622Y-68345789D01*
X186858665Y-68320000D01*
X203746732Y-68320000D01*
X203765785Y-68634989D01*
X203765785Y-68634994D01*
X203765786Y-68634995D01*
X203822669Y-68945396D01*
X203822670Y-68945400D01*
X203822671Y-68945404D01*
X203916545Y-69246659D01*
X203916549Y-69246670D01*
X203916550Y-69246673D01*
X203916552Y-69246678D01*
X203976891Y-69380745D01*
X204046066Y-69534446D01*
X204209326Y-69804510D01*
X204403943Y-70052920D01*
X204627079Y-70276056D01*
X204875489Y-70470673D01*
X204875492Y-70470675D01*
X204875495Y-70470677D01*
X205145554Y-70633934D01*
X205433322Y-70763448D01*
X205433332Y-70763451D01*
X205433340Y-70763454D01*
X205634176Y-70826036D01*
X205734604Y-70857331D01*
X206045005Y-70914214D01*
X206360000Y-70933268D01*
X206674995Y-70914214D01*
X206985396Y-70857331D01*
X207286678Y-70763448D01*
X207574446Y-70633934D01*
X207844505Y-70470677D01*
X208092917Y-70276059D01*
X208316059Y-70052917D01*
X208510677Y-69804505D01*
X208673934Y-69534446D01*
X208803448Y-69246678D01*
X208897331Y-68945396D01*
X208954214Y-68634995D01*
X208973268Y-68320000D01*
X208954214Y-68005005D01*
X208897331Y-67694604D01*
X208803448Y-67393322D01*
X208673934Y-67105554D01*
X208510677Y-66835495D01*
X208510675Y-66835492D01*
X208510673Y-66835489D01*
X208316056Y-66587079D01*
X208092920Y-66363943D01*
X207844510Y-66169326D01*
X207574446Y-66006066D01*
X207286678Y-65876552D01*
X207286673Y-65876550D01*
X207286670Y-65876549D01*
X207286659Y-65876545D01*
X206985404Y-65782671D01*
X206985400Y-65782670D01*
X206985396Y-65782669D01*
X206674995Y-65725786D01*
X206674994Y-65725785D01*
X206674989Y-65725785D01*
X206360000Y-65706732D01*
X206045010Y-65725785D01*
X206045005Y-65725786D01*
X205734604Y-65782669D01*
X205734601Y-65782669D01*
X205734595Y-65782671D01*
X205433340Y-65876545D01*
X205433329Y-65876549D01*
X205145553Y-66006066D01*
X204875489Y-66169326D01*
X204627079Y-66363943D01*
X204403943Y-66587079D01*
X204209326Y-66835489D01*
X204046066Y-67105553D01*
X203916549Y-67393329D01*
X203916545Y-67393340D01*
X203822671Y-67694595D01*
X203765785Y-68005010D01*
X203746732Y-68320000D01*
X186858665Y-68320000D01*
X186970362Y-68249816D01*
X187097916Y-68122262D01*
X187193889Y-67969522D01*
X187253468Y-67799255D01*
X187253469Y-67799249D01*
X187273665Y-67620003D01*
X187273665Y-67619996D01*
X187253469Y-67440750D01*
X187253468Y-67440745D01*
X187193888Y-67270476D01*
X187097915Y-67117737D01*
X186970362Y-66990184D01*
X186817623Y-66894211D01*
X186647354Y-66834631D01*
X186647349Y-66834630D01*
X186468104Y-66814435D01*
X186468096Y-66814435D01*
X186288850Y-66834630D01*
X186288845Y-66834631D01*
X186118576Y-66894211D01*
X185965837Y-66990184D01*
X185838284Y-67117737D01*
X185742311Y-67270476D01*
X185682731Y-67440745D01*
X185682730Y-67440750D01*
X185662535Y-67619996D01*
X167640000Y-67619996D01*
X167640000Y-65474994D01*
X169062457Y-65474994D01*
X169062457Y-65475005D01*
X169082990Y-65722812D01*
X169082992Y-65722824D01*
X169144036Y-65963881D01*
X169243926Y-66191606D01*
X169379933Y-66399782D01*
X169379936Y-66399785D01*
X169548356Y-66582738D01*
X169744591Y-66735474D01*
X169744593Y-66735475D01*
X169929413Y-66835495D01*
X169963290Y-66853828D01*
X170198486Y-66934571D01*
X170443765Y-66975500D01*
X170692435Y-66975500D01*
X170937714Y-66934571D01*
X171172910Y-66853828D01*
X171391609Y-66735474D01*
X171587844Y-66582738D01*
X171756264Y-66399785D01*
X171892273Y-66191607D01*
X171992163Y-65963881D01*
X172053208Y-65722821D01*
X172073743Y-65475000D01*
X172053208Y-65227179D01*
X171992163Y-64986119D01*
X171892273Y-64758393D01*
X171756266Y-64550217D01*
X171734657Y-64526744D01*
X171587844Y-64367262D01*
X171391609Y-64214526D01*
X171391607Y-64214525D01*
X171391606Y-64214524D01*
X171172911Y-64096172D01*
X171172902Y-64096169D01*
X170937716Y-64015429D01*
X170692435Y-63974500D01*
X170443765Y-63974500D01*
X170198483Y-64015429D01*
X169963297Y-64096169D01*
X169963288Y-64096172D01*
X169744593Y-64214524D01*
X169548357Y-64367261D01*
X169379933Y-64550217D01*
X169243926Y-64758393D01*
X169144036Y-64986118D01*
X169082992Y-65227175D01*
X169082990Y-65227187D01*
X169062457Y-65474994D01*
X167640000Y-65474994D01*
X167640000Y-62769996D01*
X188022535Y-62769996D01*
X188022535Y-62770003D01*
X188042730Y-62949249D01*
X188042731Y-62949254D01*
X188102311Y-63119523D01*
X188198284Y-63272262D01*
X188325838Y-63399816D01*
X188478578Y-63495789D01*
X188648845Y-63555368D01*
X188648850Y-63555369D01*
X188828096Y-63575565D01*
X188828100Y-63575565D01*
X188828104Y-63575565D01*
X189007349Y-63555369D01*
X189007352Y-63555368D01*
X189007355Y-63555368D01*
X189177622Y-63495789D01*
X189330362Y-63399816D01*
X189457916Y-63272262D01*
X189553889Y-63119522D01*
X189613468Y-62949255D01*
X189633665Y-62770000D01*
X189619625Y-62645391D01*
X189613469Y-62590750D01*
X189613468Y-62590745D01*
X189605464Y-62567870D01*
X189553889Y-62420478D01*
X189457916Y-62267738D01*
X189330362Y-62140184D01*
X189259708Y-62095789D01*
X189177623Y-62044211D01*
X189007354Y-61984631D01*
X189007349Y-61984630D01*
X188828104Y-61964435D01*
X188828096Y-61964435D01*
X188648850Y-61984630D01*
X188648845Y-61984631D01*
X188478576Y-62044211D01*
X188325837Y-62140184D01*
X188198284Y-62267737D01*
X188102311Y-62420476D01*
X188042731Y-62590745D01*
X188042730Y-62590750D01*
X188022535Y-62769996D01*
X167640000Y-62769996D01*
X167640000Y-61084000D01*
X167659685Y-61016961D01*
X167712489Y-60971206D01*
X167764000Y-60960000D01*
X184878711Y-60960000D01*
X184945750Y-60979685D01*
X184991505Y-61032489D01*
X185001449Y-61101647D01*
X184995752Y-61124955D01*
X184972733Y-61190737D01*
X184972730Y-61190750D01*
X184952535Y-61369996D01*
X184952535Y-61370003D01*
X184972730Y-61549249D01*
X184972731Y-61549254D01*
X185032311Y-61719523D01*
X185082643Y-61799625D01*
X185128284Y-61872262D01*
X185255838Y-61999816D01*
X185408578Y-62095789D01*
X185535452Y-62140184D01*
X185578845Y-62155368D01*
X185578850Y-62155369D01*
X185758096Y-62175565D01*
X185758100Y-62175565D01*
X185758104Y-62175565D01*
X185937349Y-62155369D01*
X185937352Y-62155368D01*
X185937355Y-62155368D01*
X186107622Y-62095789D01*
X186260362Y-61999816D01*
X186387916Y-61872262D01*
X186483889Y-61719522D01*
X186543468Y-61549255D01*
X186563665Y-61370000D01*
X186562538Y-61360001D01*
X186543469Y-61190750D01*
X186543466Y-61190737D01*
X186520448Y-61124955D01*
X186516886Y-61055176D01*
X186551614Y-60994549D01*
X186613608Y-60962321D01*
X186637489Y-60960000D01*
X200660000Y-60960000D01*
X200660000Y-50279998D01*
X203654609Y-50279998D01*
X203654609Y-50280001D01*
X203674136Y-50503200D01*
X203674137Y-50503208D01*
X203732126Y-50719625D01*
X203732127Y-50719627D01*
X203732128Y-50719630D01*
X203787683Y-50838768D01*
X203826819Y-50922696D01*
X203826821Y-50922700D01*
X203955329Y-51106228D01*
X203955334Y-51106234D01*
X204113765Y-51264665D01*
X204113771Y-51264670D01*
X204297299Y-51393178D01*
X204297301Y-51393179D01*
X204297304Y-51393181D01*
X204500370Y-51487872D01*
X204714414Y-51545225D01*
X204774074Y-51581590D01*
X204804603Y-51644437D01*
X204796308Y-51713813D01*
X204751823Y-51767691D01*
X204714415Y-51784774D01*
X204665230Y-51797953D01*
X204500374Y-51842126D01*
X204500368Y-51842129D01*
X204297306Y-51936818D01*
X204297304Y-51936819D01*
X204113764Y-52065334D01*
X203955334Y-52223764D01*
X203826819Y-52407304D01*
X203826818Y-52407306D01*
X203732129Y-52610368D01*
X203732126Y-52610374D01*
X203674137Y-52826791D01*
X203674136Y-52826799D01*
X203654609Y-53049998D01*
X203654609Y-53050001D01*
X203674136Y-53273200D01*
X203674137Y-53273208D01*
X203732126Y-53489625D01*
X203732127Y-53489627D01*
X203732128Y-53489630D01*
X203787683Y-53608768D01*
X203826819Y-53692696D01*
X203826821Y-53692700D01*
X203955329Y-53876228D01*
X203955334Y-53876234D01*
X204113765Y-54034665D01*
X204113771Y-54034670D01*
X204297299Y-54163178D01*
X204297301Y-54163179D01*
X204297304Y-54163181D01*
X204500370Y-54257872D01*
X204714414Y-54315225D01*
X204774074Y-54351590D01*
X204804603Y-54414437D01*
X204796308Y-54483813D01*
X204751823Y-54537691D01*
X204714415Y-54554774D01*
X204665230Y-54567953D01*
X204500374Y-54612126D01*
X204500368Y-54612129D01*
X204297306Y-54706818D01*
X204297304Y-54706819D01*
X204113764Y-54835334D01*
X203955334Y-54993764D01*
X203826819Y-55177304D01*
X203826818Y-55177306D01*
X203732129Y-55380368D01*
X203732126Y-55380374D01*
X203674137Y-55596791D01*
X203674136Y-55596799D01*
X203654609Y-55819998D01*
X203654609Y-55820001D01*
X203674136Y-56043200D01*
X203674137Y-56043208D01*
X203732126Y-56259625D01*
X203732127Y-56259627D01*
X203732128Y-56259630D01*
X203789534Y-56382738D01*
X203826819Y-56462696D01*
X203826821Y-56462700D01*
X203955329Y-56646228D01*
X203955334Y-56646234D01*
X204113765Y-56804665D01*
X204113771Y-56804670D01*
X204297299Y-56933178D01*
X204297301Y-56933179D01*
X204297304Y-56933181D01*
X204500370Y-57027872D01*
X204714414Y-57085225D01*
X204774074Y-57121590D01*
X204804603Y-57184437D01*
X204796308Y-57253813D01*
X204751823Y-57307691D01*
X204714415Y-57324774D01*
X204665230Y-57337953D01*
X204500374Y-57382126D01*
X204500368Y-57382129D01*
X204297306Y-57476818D01*
X204297304Y-57476819D01*
X204113764Y-57605334D01*
X203955334Y-57763764D01*
X203826819Y-57947304D01*
X203826818Y-57947306D01*
X203732129Y-58150368D01*
X203732126Y-58150374D01*
X203674137Y-58366791D01*
X203674136Y-58366799D01*
X203654609Y-58589998D01*
X203654609Y-58590001D01*
X203674136Y-58813200D01*
X203674137Y-58813208D01*
X203732126Y-59029625D01*
X203732127Y-59029627D01*
X203732128Y-59029630D01*
X203826819Y-59232696D01*
X203826821Y-59232700D01*
X203955329Y-59416228D01*
X203955334Y-59416234D01*
X204113765Y-59574665D01*
X204113771Y-59574670D01*
X204297299Y-59703178D01*
X204297301Y-59703179D01*
X204297304Y-59703181D01*
X204500370Y-59797872D01*
X204714414Y-59855225D01*
X204774074Y-59891590D01*
X204804603Y-59954437D01*
X204796308Y-60023813D01*
X204751823Y-60077691D01*
X204714415Y-60094774D01*
X204665230Y-60107953D01*
X204500374Y-60152126D01*
X204500368Y-60152129D01*
X204297306Y-60246818D01*
X204297304Y-60246819D01*
X204113764Y-60375334D01*
X203955334Y-60533764D01*
X203826819Y-60717304D01*
X203826818Y-60717306D01*
X203732129Y-60920368D01*
X203732126Y-60920374D01*
X203674137Y-61136791D01*
X203674136Y-61136799D01*
X203654609Y-61359998D01*
X203654609Y-61360001D01*
X203674136Y-61583200D01*
X203674137Y-61583208D01*
X203732126Y-61799625D01*
X203732127Y-61799627D01*
X203732128Y-61799630D01*
X203765997Y-61872262D01*
X203826819Y-62002696D01*
X203826821Y-62002700D01*
X203955329Y-62186228D01*
X203955334Y-62186234D01*
X204113765Y-62344665D01*
X204113771Y-62344670D01*
X204297299Y-62473178D01*
X204297301Y-62473179D01*
X204297304Y-62473181D01*
X204500370Y-62567872D01*
X204716794Y-62625863D01*
X204876226Y-62639811D01*
X204939998Y-62645391D01*
X204940000Y-62645391D01*
X204940002Y-62645391D01*
X204995801Y-62640509D01*
X205163206Y-62625863D01*
X205379630Y-62567872D01*
X205582696Y-62473181D01*
X205766233Y-62344667D01*
X205924667Y-62186233D01*
X206053181Y-62002696D01*
X206147872Y-61799630D01*
X206205863Y-61583206D01*
X206224516Y-61370000D01*
X206225391Y-61360001D01*
X206225391Y-61359998D01*
X206216632Y-61259889D01*
X206205863Y-61136794D01*
X206147872Y-60920370D01*
X206053181Y-60717305D01*
X205924667Y-60533767D01*
X205766233Y-60375333D01*
X205766229Y-60375330D01*
X205766228Y-60375329D01*
X205582700Y-60246821D01*
X205582696Y-60246819D01*
X205582694Y-60246818D01*
X205379630Y-60152128D01*
X205379626Y-60152127D01*
X205379622Y-60152125D01*
X205217884Y-60108788D01*
X205165585Y-60094774D01*
X205105925Y-60058410D01*
X205075396Y-59995563D01*
X205083691Y-59926188D01*
X205128176Y-59872310D01*
X205165584Y-59855225D01*
X205379630Y-59797872D01*
X205582696Y-59703181D01*
X205766233Y-59574667D01*
X205924667Y-59416233D01*
X206053181Y-59232696D01*
X206147872Y-59029630D01*
X206205863Y-58813206D01*
X206225391Y-58590000D01*
X206205863Y-58366794D01*
X206147872Y-58150370D01*
X206053181Y-57947305D01*
X205924667Y-57763767D01*
X205766233Y-57605333D01*
X205766229Y-57605330D01*
X205766228Y-57605329D01*
X205582700Y-57476821D01*
X205582696Y-57476819D01*
X205582694Y-57476818D01*
X205379630Y-57382128D01*
X205379626Y-57382127D01*
X205379622Y-57382125D01*
X205217884Y-57338788D01*
X205165585Y-57324774D01*
X205105925Y-57288410D01*
X205075396Y-57225563D01*
X205083691Y-57156188D01*
X205128176Y-57102310D01*
X205165584Y-57085225D01*
X205379630Y-57027872D01*
X205582696Y-56933181D01*
X205766233Y-56804667D01*
X205924667Y-56646233D01*
X206053181Y-56462696D01*
X206147872Y-56259630D01*
X206205863Y-56043206D01*
X206225391Y-55820000D01*
X206205863Y-55596794D01*
X206147872Y-55380370D01*
X206053181Y-55177305D01*
X205924667Y-54993767D01*
X205766233Y-54835333D01*
X205766229Y-54835330D01*
X205766228Y-54835329D01*
X205582700Y-54706821D01*
X205582696Y-54706819D01*
X205478449Y-54658208D01*
X205379630Y-54612128D01*
X205379626Y-54612127D01*
X205379622Y-54612125D01*
X205217884Y-54568788D01*
X205165585Y-54554774D01*
X205105925Y-54518410D01*
X205075396Y-54455563D01*
X205083691Y-54386188D01*
X205128176Y-54332310D01*
X205165584Y-54315225D01*
X205379630Y-54257872D01*
X205582696Y-54163181D01*
X205766233Y-54034667D01*
X205924667Y-53876233D01*
X206053181Y-53692696D01*
X206147872Y-53489630D01*
X206205863Y-53273206D01*
X206225391Y-53050000D01*
X206205863Y-52826794D01*
X206147872Y-52610370D01*
X206053181Y-52407305D01*
X205924667Y-52223767D01*
X205766233Y-52065333D01*
X205766229Y-52065330D01*
X205766228Y-52065329D01*
X205582700Y-51936821D01*
X205582696Y-51936819D01*
X205478449Y-51888208D01*
X205379630Y-51842128D01*
X205379626Y-51842127D01*
X205379622Y-51842125D01*
X205217884Y-51798788D01*
X205165585Y-51784774D01*
X205105925Y-51748410D01*
X205075396Y-51685563D01*
X205077855Y-51664998D01*
X206494609Y-51664998D01*
X206494609Y-51665001D01*
X206514136Y-51888200D01*
X206514137Y-51888208D01*
X206572126Y-52104625D01*
X206572127Y-52104627D01*
X206572128Y-52104630D01*
X206627683Y-52223768D01*
X206666819Y-52307696D01*
X206666821Y-52307700D01*
X206795329Y-52491228D01*
X206795334Y-52491234D01*
X206953765Y-52649665D01*
X206953771Y-52649670D01*
X207137299Y-52778178D01*
X207137301Y-52778179D01*
X207137304Y-52778181D01*
X207340370Y-52872872D01*
X207554414Y-52930225D01*
X207614074Y-52966590D01*
X207644603Y-53029437D01*
X207636308Y-53098813D01*
X207591823Y-53152691D01*
X207554415Y-53169774D01*
X207505230Y-53182953D01*
X207340374Y-53227126D01*
X207340368Y-53227129D01*
X207137306Y-53321818D01*
X207137304Y-53321819D01*
X206953764Y-53450334D01*
X206795334Y-53608764D01*
X206666819Y-53792304D01*
X206666818Y-53792306D01*
X206572129Y-53995368D01*
X206572126Y-53995374D01*
X206514137Y-54211791D01*
X206514136Y-54211799D01*
X206494609Y-54434998D01*
X206494609Y-54435001D01*
X206514136Y-54658200D01*
X206514137Y-54658208D01*
X206572126Y-54874625D01*
X206572127Y-54874627D01*
X206572128Y-54874630D01*
X206627683Y-54993768D01*
X206666819Y-55077696D01*
X206666821Y-55077700D01*
X206795329Y-55261228D01*
X206795334Y-55261234D01*
X206953765Y-55419665D01*
X206953771Y-55419670D01*
X207137299Y-55548178D01*
X207137301Y-55548179D01*
X207137304Y-55548181D01*
X207340370Y-55642872D01*
X207555379Y-55700484D01*
X207615039Y-55736848D01*
X207645568Y-55799695D01*
X207637273Y-55869070D01*
X207592788Y-55922948D01*
X207555379Y-55940033D01*
X207340547Y-55997597D01*
X207340540Y-55997600D01*
X207137556Y-56092253D01*
X207068887Y-56140334D01*
X207634260Y-56705707D01*
X207579288Y-56720437D01*
X207460713Y-56788896D01*
X207363896Y-56885713D01*
X207295437Y-57004288D01*
X207280707Y-57059260D01*
X206715334Y-56493887D01*
X206667253Y-56562556D01*
X206572600Y-56765540D01*
X206572596Y-56765549D01*
X206514632Y-56981875D01*
X206514630Y-56981886D01*
X206495111Y-57204997D01*
X206495111Y-57205002D01*
X206514630Y-57428113D01*
X206514632Y-57428124D01*
X206572596Y-57644450D01*
X206572600Y-57644459D01*
X206667252Y-57847443D01*
X206667253Y-57847445D01*
X206715334Y-57916112D01*
X207280707Y-57350739D01*
X207295437Y-57405712D01*
X207363896Y-57524287D01*
X207460713Y-57621104D01*
X207579288Y-57689563D01*
X207634259Y-57704292D01*
X207068886Y-58269664D01*
X207137555Y-58317746D01*
X207340540Y-58412399D01*
X207340546Y-58412402D01*
X207556344Y-58470225D01*
X207616004Y-58506590D01*
X207646533Y-58569437D01*
X207638238Y-58638813D01*
X207593753Y-58692690D01*
X207556344Y-58709775D01*
X207340546Y-58767597D01*
X207340540Y-58767600D01*
X207137556Y-58862253D01*
X207068887Y-58910334D01*
X207634260Y-59475707D01*
X207579288Y-59490437D01*
X207460713Y-59558896D01*
X207363896Y-59655713D01*
X207295437Y-59774288D01*
X207280707Y-59829260D01*
X206715334Y-59263887D01*
X206667253Y-59332556D01*
X206572600Y-59535540D01*
X206572596Y-59535549D01*
X206514632Y-59751875D01*
X206514630Y-59751886D01*
X206495111Y-59974997D01*
X206495111Y-59975002D01*
X206514630Y-60198113D01*
X206514632Y-60198124D01*
X206572596Y-60414450D01*
X206572600Y-60414459D01*
X206667252Y-60617443D01*
X206667253Y-60617445D01*
X206715334Y-60686112D01*
X207280707Y-60120739D01*
X207295437Y-60175712D01*
X207363896Y-60294287D01*
X207460713Y-60391104D01*
X207579288Y-60459563D01*
X207634259Y-60474292D01*
X207068886Y-61039664D01*
X207137555Y-61087746D01*
X207340540Y-61182399D01*
X207340549Y-61182403D01*
X207556875Y-61240367D01*
X207556886Y-61240369D01*
X207779998Y-61259889D01*
X207780002Y-61259889D01*
X208003113Y-61240369D01*
X208003124Y-61240367D01*
X208219450Y-61182403D01*
X208219459Y-61182399D01*
X208422445Y-61087746D01*
X208422451Y-61087742D01*
X208491112Y-61039665D01*
X207925739Y-60474292D01*
X207980712Y-60459563D01*
X208099287Y-60391104D01*
X208196104Y-60294287D01*
X208264563Y-60175712D01*
X208279292Y-60120739D01*
X208844665Y-60686112D01*
X208892742Y-60617451D01*
X208892746Y-60617445D01*
X208987399Y-60414459D01*
X208987403Y-60414450D01*
X209045367Y-60198124D01*
X209045369Y-60198113D01*
X209064889Y-59975002D01*
X209064889Y-59974997D01*
X209045369Y-59751886D01*
X209045367Y-59751875D01*
X208987403Y-59535549D01*
X208987399Y-59535540D01*
X208892747Y-59332557D01*
X208892746Y-59332555D01*
X208844664Y-59263887D01*
X208844664Y-59263886D01*
X208279292Y-59829259D01*
X208264563Y-59774288D01*
X208196104Y-59655713D01*
X208099287Y-59558896D01*
X207980712Y-59490437D01*
X207925740Y-59475707D01*
X208491112Y-58910334D01*
X208491112Y-58910333D01*
X208422445Y-58862253D01*
X208422443Y-58862252D01*
X208219459Y-58767600D01*
X208219450Y-58767596D01*
X208003656Y-58709775D01*
X207943995Y-58673410D01*
X207913466Y-58610563D01*
X207921761Y-58541188D01*
X207966246Y-58487310D01*
X208003656Y-58470225D01*
X208219450Y-58412403D01*
X208219459Y-58412399D01*
X208422445Y-58317746D01*
X208422451Y-58317742D01*
X208491112Y-58269665D01*
X207925739Y-57704292D01*
X207980712Y-57689563D01*
X208099287Y-57621104D01*
X208196104Y-57524287D01*
X208264563Y-57405712D01*
X208279292Y-57350739D01*
X208844665Y-57916112D01*
X208892742Y-57847451D01*
X208892746Y-57847445D01*
X208987399Y-57644459D01*
X208987403Y-57644450D01*
X209045367Y-57428124D01*
X209045369Y-57428113D01*
X209064889Y-57205002D01*
X209064889Y-57204997D01*
X209045369Y-56981886D01*
X209045367Y-56981875D01*
X208987403Y-56765549D01*
X208987399Y-56765540D01*
X208892747Y-56562557D01*
X208892746Y-56562555D01*
X208844664Y-56493887D01*
X208844664Y-56493886D01*
X208279292Y-57059259D01*
X208264563Y-57004288D01*
X208196104Y-56885713D01*
X208099287Y-56788896D01*
X207980712Y-56720437D01*
X207925740Y-56705707D01*
X208491112Y-56140334D01*
X208491112Y-56140333D01*
X208422445Y-56092253D01*
X208422443Y-56092252D01*
X208219459Y-55997600D01*
X208219453Y-55997597D01*
X208004620Y-55940033D01*
X207944960Y-55903668D01*
X207914431Y-55840821D01*
X207922726Y-55771445D01*
X207967211Y-55717567D01*
X208004616Y-55700485D01*
X208219630Y-55642872D01*
X208422696Y-55548181D01*
X208606233Y-55419667D01*
X208764667Y-55261233D01*
X208893181Y-55077696D01*
X208987872Y-54874630D01*
X209045863Y-54658206D01*
X209065391Y-54435000D01*
X209045863Y-54211794D01*
X208987872Y-53995370D01*
X208893181Y-53792305D01*
X208764667Y-53608767D01*
X208606233Y-53450333D01*
X208606229Y-53450330D01*
X208606228Y-53450329D01*
X208422700Y-53321821D01*
X208422696Y-53321819D01*
X208318449Y-53273208D01*
X208219630Y-53227128D01*
X208219626Y-53227127D01*
X208219622Y-53227125D01*
X208057884Y-53183788D01*
X208005585Y-53169774D01*
X207945925Y-53133410D01*
X207915396Y-53070563D01*
X207923691Y-53001188D01*
X207968176Y-52947310D01*
X208005584Y-52930225D01*
X208219630Y-52872872D01*
X208422696Y-52778181D01*
X208606233Y-52649667D01*
X208764667Y-52491233D01*
X208893181Y-52307696D01*
X208987872Y-52104630D01*
X209045863Y-51888206D01*
X209065391Y-51665000D01*
X209045863Y-51441794D01*
X208987872Y-51225370D01*
X208893181Y-51022305D01*
X208764667Y-50838767D01*
X208606233Y-50680333D01*
X208606229Y-50680330D01*
X208606228Y-50680329D01*
X208422700Y-50551821D01*
X208422696Y-50551819D01*
X208318449Y-50503208D01*
X208219630Y-50457128D01*
X208219627Y-50457127D01*
X208219625Y-50457126D01*
X208003208Y-50399137D01*
X208003200Y-50399136D01*
X207780002Y-50379609D01*
X207779998Y-50379609D01*
X207556799Y-50399136D01*
X207556791Y-50399137D01*
X207340374Y-50457126D01*
X207340368Y-50457129D01*
X207137306Y-50551818D01*
X207137304Y-50551819D01*
X206953764Y-50680334D01*
X206795334Y-50838764D01*
X206666819Y-51022304D01*
X206666818Y-51022306D01*
X206572129Y-51225368D01*
X206572126Y-51225374D01*
X206514137Y-51441791D01*
X206514136Y-51441799D01*
X206494609Y-51664998D01*
X205077855Y-51664998D01*
X205083691Y-51616188D01*
X205128176Y-51562310D01*
X205165584Y-51545225D01*
X205379630Y-51487872D01*
X205582696Y-51393181D01*
X205766233Y-51264667D01*
X205924667Y-51106233D01*
X206053181Y-50922696D01*
X206147872Y-50719630D01*
X206205863Y-50503206D01*
X206225391Y-50280000D01*
X206205863Y-50056794D01*
X206147872Y-49840370D01*
X206053181Y-49637305D01*
X205924667Y-49453767D01*
X205766233Y-49295333D01*
X205766229Y-49295330D01*
X205766228Y-49295329D01*
X205582700Y-49166821D01*
X205582696Y-49166819D01*
X205582694Y-49166818D01*
X205379630Y-49072128D01*
X205379627Y-49072127D01*
X205379625Y-49072126D01*
X205163208Y-49014137D01*
X205163200Y-49014136D01*
X204940002Y-48994609D01*
X204939998Y-48994609D01*
X204716799Y-49014136D01*
X204716791Y-49014137D01*
X204500374Y-49072126D01*
X204500368Y-49072129D01*
X204297306Y-49166818D01*
X204297304Y-49166819D01*
X204113764Y-49295334D01*
X203955334Y-49453764D01*
X203826819Y-49637304D01*
X203826818Y-49637306D01*
X203732129Y-49840368D01*
X203732126Y-49840374D01*
X203674137Y-50056791D01*
X203674136Y-50056799D01*
X203654609Y-50279998D01*
X200660000Y-50279998D01*
X200660000Y-48384000D01*
X200679685Y-48316961D01*
X200732489Y-48271206D01*
X200784000Y-48260000D01*
X210696000Y-48260000D01*
X210763039Y-48279685D01*
G37*
%TD.AperFunction*%
%TD*%
M02*
