M48
; DRILL file {KiCad 9.0.3} date 2025-09-16T14:49:39-0400
; FORMAT={-:-/ absolute / inch / decimal}
; #@! TF.CreationDate,2025-09-16T14:49:39-04:00
; #@! TF.GenerationSoftware,Kicad,Pcbnew,9.0.3
; #@! TF.FileFunction,Plated,1,8,PTH
FMAT,2
INCH
; #@! TA.AperFunction,Plated,PTH,ViaDrill
T1C0.0118
; #@! TA.AperFunction,Plated,PTH,ViaDrill
T2C0.0276
; #@! TA.AperFunction,Plated,PTH,ComponentDrill
T3C0.0409
; #@! TA.AperFunction,Plated,PTH,ComponentDrill
T4C0.0429
; #@! TA.AperFunction,Plated,PTH,ComponentDrill
T5C0.0512
; #@! TA.AperFunction,Plated,PTH,ComponentDrill
T6C0.0551
; #@! TA.AperFunction,Plated,PTH,ComponentDrill
T7C0.0590
; #@! TA.AperFunction,Plated,PTH,ComponentDrill
T8C0.0630
; #@! TA.AperFunction,Plated,PTH,ComponentDrill
T9C0.0650
; #@! TA.AperFunction,Plated,PTH,ComponentDrill
T10C0.0670
; #@! TA.AperFunction,Plated,PTH,ComponentDrill
T11C0.0945
; #@! TA.AperFunction,Plated,PTH,ComponentDrill
T12C0.1260
%
G90
G05
T1
X4.5Y-2.5
X4.5Y-2.75
X4.5Y-3.0
X4.5Y-6.25
X4.5Y-6.5
X4.5Y-8.0
X4.5Y-8.25
X4.5Y-8.5
X4.75Y-2.5
X4.75Y-2.75
X4.75Y-3.0
X4.75Y-6.25
X4.75Y-6.5
X4.75Y-8.0
X4.75Y-8.25
X4.75Y-8.5
X5.0Y-2.75
X5.0Y-3.0
X5.0Y-3.25
X5.0Y-3.5
X5.0Y-4.5
X5.0Y-4.75
X5.0Y-5.0
X5.0Y-6.25
X5.0Y-6.5
X5.0Y-6.75
X5.0Y-7.0
X5.0Y-7.5
X5.0Y-7.75
X5.0Y-8.0
X5.1905Y-5.2842
X5.25Y-2.5
X5.25Y-2.75
X5.25Y-3.0
X5.25Y-3.25
X5.25Y-3.5
X5.25Y-4.5
X5.25Y-4.75
X5.25Y-5.0
X5.25Y-6.25
X5.25Y-6.5
X5.25Y-6.75
X5.25Y-8.0
X5.25Y-8.25
X5.25Y-8.5
X5.3519Y-5.2842
X5.4881Y-5.7578
X5.5Y-2.5
X5.5Y-2.75
X5.5Y-3.0
X5.5Y-3.25
X5.5Y-3.5
X5.5Y-4.5
X5.5Y-4.75
X5.5Y-5.0
X5.5Y-5.25
X5.5Y-6.25
X5.5Y-6.5
X5.5Y-6.75
X5.5Y-8.0
X5.5Y-8.25
X5.5Y-8.5
X5.7078Y-5.5488
X5.7082Y-5.7204
X5.75Y-2.5
X5.75Y-2.75
X5.75Y-3.0
X5.75Y-3.25
X5.75Y-4.5
X5.75Y-4.75
X5.75Y-5.0
X5.75Y-5.25
X5.75Y-6.25
X5.75Y-6.5
X5.75Y-6.75
X5.75Y-8.0
X5.75Y-8.25
X5.75Y-8.5
X5.8035Y-5.722
X5.9086Y-5.9074
X6.0Y-2.5
X6.0Y-2.75
X6.0Y-3.0
X6.0Y-4.5
X6.0Y-4.75
X6.0Y-5.0
X6.0Y-5.25
X6.0Y-6.25
X6.0Y-6.5
X6.0Y-6.75
X6.0Y-8.0
X6.0Y-8.25
X6.0Y-8.5
X6.2145Y-3.5302
X6.2145Y-4.0502
X6.25Y-2.5
X6.25Y-2.75
X6.25Y-3.0
X6.25Y-3.25
X6.25Y-4.5
X6.25Y-4.75
X6.25Y-5.0
X6.25Y-5.25
X6.25Y-5.5
X6.25Y-6.25
X6.25Y-6.5
X6.25Y-6.75
X6.25Y-7.0
X6.25Y-7.75
X6.25Y-8.0
X6.25Y-8.25
X6.25Y-8.5
X6.3745Y-3.4302
X6.3745Y-4.1602
X6.5Y-2.5
X6.5Y-2.75
X6.5Y-3.0
X6.5Y-3.25
X6.5Y-4.5
X6.5Y-4.75
X6.5Y-5.0
X6.5Y-5.25
X6.5Y-5.5
X6.5Y-6.25
X6.5Y-6.5
X6.5Y-6.75
X6.5Y-8.0
X6.5Y-8.25
X6.5Y-8.5
X6.75Y-2.5
X6.75Y-2.75
X6.75Y-3.0
X6.75Y-3.25
X6.75Y-4.5
X6.75Y-4.75
X6.75Y-5.0
X6.75Y-5.25
X6.75Y-5.5
X6.75Y-6.25
X6.75Y-6.5
X6.75Y-6.75
X6.75Y-8.0
X6.75Y-8.25
X6.75Y-8.5
X7.0Y-2.5
X7.0Y-2.75
X7.0Y-3.0
X7.0Y-3.25
X7.0Y-4.5
X7.0Y-4.75
X7.0Y-5.0
X7.0Y-5.25
X7.0Y-5.5
X7.0Y-6.25
X7.0Y-6.5
X7.0Y-8.0
X7.0Y-8.25
X7.0Y-8.5
X7.0724Y-6.7094
X7.25Y-2.75
X7.25Y-3.0
X7.25Y-4.5
X7.25Y-4.75
X7.25Y-5.0
X7.25Y-5.25
X7.25Y-6.25
X7.25Y-6.5
X7.25Y-8.0
X7.2692Y-6.7094
X7.452Y-5.1559
X7.5Y-2.5
X7.5Y-2.75
X7.5Y-3.0
X7.5Y-5.25
X7.5Y-6.25
X7.5Y-6.5
X7.5Y-6.75
X7.5Y-8.0
X7.5Y-8.25
X7.5Y-8.5
X7.5079Y-4.5831
X7.5079Y-5.0244
X7.5622Y-5.1071
X7.75Y-2.5
X7.75Y-5.25
X7.75Y-5.5
X7.75Y-6.25
X7.75Y-6.5
X7.75Y-6.75
X7.75Y-7.0
X7.75Y-8.0
X7.75Y-8.25
X7.75Y-8.5
X7.9728Y-7.3307
X7.9936Y-5.107
X8.0Y-2.5
X8.0Y-5.5
X8.0Y-6.25
X8.0Y-6.5
X8.0Y-6.75
X8.0Y-7.0
X8.0Y-7.5
X8.0Y-7.75
X8.0Y-8.0
X8.0Y-8.25
X8.0Y-8.5
X8.0571Y-5.1559
X8.1865Y-5.796
X8.2062Y-5.5519
X8.2298Y-5.0244
X8.25Y-2.5
X8.25Y-6.25
X8.25Y-6.5
X8.25Y-6.75
X8.25Y-7.0
X8.25Y-7.25
X8.25Y-7.5
X8.25Y-7.75
X8.25Y-8.0
X8.25Y-8.25
X8.25Y-8.5
X8.3771Y-6.6761
X8.5Y-2.5
X8.5Y-6.25
X8.5Y-7.0
X8.5Y-7.25
X8.5Y-7.5
X8.5Y-7.75
X8.5Y-8.0
X8.5Y-8.25
X8.5Y-8.5
X8.7157Y-6.4625
X8.75Y-2.5
X8.75Y-5.25
X8.75Y-5.5
X8.75Y-6.0
X8.75Y-6.25
X8.75Y-7.0
X8.75Y-7.25
X8.75Y-7.5
X8.75Y-7.75
X8.75Y-8.0
X8.75Y-8.25
X8.75Y-8.5
X8.8574Y-6.7972
X8.93Y-5.18
X8.93Y-5.41
X8.9322Y-6.6673
X9.0Y-2.5
X9.0Y-5.5
X9.0Y-6.0
X9.0Y-6.25
X9.0Y-7.0
X9.0Y-7.25
X9.0Y-7.5
X9.0Y-7.75
X9.0Y-8.0
X9.0Y-8.25
X9.0Y-8.5
X9.01Y-5.18
X9.01Y-5.41
X9.1062Y-6.5228
X9.25Y-2.5
X9.25Y-5.25
X9.25Y-5.5
X9.25Y-6.0
X9.25Y-6.5
X9.25Y-6.75
X9.25Y-7.0
X9.25Y-7.25
X9.25Y-7.5
X9.25Y-7.75
X9.25Y-8.0
X9.25Y-8.25
X9.25Y-8.5
X9.282Y-5.8338
X9.4056Y-6.2031
X9.4446Y-5.8342
X9.4739Y-5.0952
X9.4765Y-6.1047
X9.5Y-2.5
X9.5Y-5.25
X9.5Y-6.0
X9.5Y-6.5
X9.5Y-6.75
X9.5Y-7.0
X9.5Y-7.25
X9.5Y-7.5
X9.5Y-7.75
X9.5Y-8.0
X9.5Y-8.25
X9.5Y-8.5
X9.5976Y-5.4004
X9.659Y-5.0952
X9.75Y-2.5
X9.75Y-5.25
X9.75Y-5.75
X9.75Y-6.0
X9.75Y-6.5
X9.75Y-6.75
X9.75Y-7.0
X9.75Y-7.25
X9.75Y-7.5
X9.75Y-7.75
X9.75Y-8.0
X9.75Y-8.25
X9.75Y-8.5
X9.9697Y-4.3736
X10.0Y-2.5
X10.0Y-2.75
X10.0Y-3.0
X10.0Y-3.25
X10.0Y-3.5
X10.0Y-4.0
X10.0Y-4.25
X10.0Y-6.25
X10.0Y-6.5
X10.0Y-6.75
X10.0Y-7.0
X10.0Y-7.25
X10.0Y-7.5
X10.0Y-7.75
X10.0Y-8.0
X10.0Y-8.25
X10.0Y-8.5
X10.1082Y-4.9535
X10.1106Y-5.3508
X10.2413Y-5.4232
X10.25Y-2.5
X10.25Y-2.75
X10.25Y-3.0
X10.25Y-3.25
X10.25Y-3.5
X10.25Y-4.0
X10.25Y-4.25
X10.25Y-4.5
X10.25Y-4.75
X10.25Y-5.0
X10.25Y-5.75
X10.25Y-6.0
X10.25Y-6.25
X10.25Y-6.5
X10.25Y-6.75
X10.25Y-7.0
X10.25Y-7.25
X10.25Y-7.5
X10.25Y-7.75
X10.25Y-8.0
X10.25Y-8.25
X10.25Y-8.5
X10.2731Y-5.1182
X10.3106Y-5.3446
X10.4389Y-3.8869
X10.4389Y-3.9677
X10.4779Y-5.3446
X10.5Y-2.5
X10.5Y-2.75
X10.5Y-3.0
X10.5Y-3.25
X10.5Y-3.5
X10.5Y-4.5
X10.5Y-4.75
X10.5Y-5.0
X10.5Y-5.75
X10.5Y-6.0
X10.5Y-6.25
X10.5Y-6.5
X10.5Y-6.75
X10.5Y-7.0
X10.5Y-7.25
X10.5Y-7.5
X10.5Y-7.75
X10.5Y-8.0
X10.5Y-8.25
X10.5Y-8.5
X10.5172Y-3.7921
X10.5357Y-4.2362
X10.5507Y-5.2877
X10.5839Y-6.1071
X10.7102Y-3.7921
X10.75Y-2.5
X10.75Y-2.75
X10.75Y-3.0
X10.75Y-3.25
X10.75Y-3.5
X10.75Y-4.25
X10.75Y-4.5
X10.75Y-4.75
X10.75Y-5.0
X10.75Y-6.5
X10.75Y-6.75
X10.75Y-7.0
X10.75Y-7.25
X10.75Y-7.5
X10.75Y-7.75
X10.75Y-8.0
X10.75Y-8.25
X10.75Y-8.5
X10.783Y-3.9295
X11.0Y-2.75
X11.0Y-3.0
X11.0Y-3.25
X11.0Y-4.0
X11.0Y-4.5
X11.0Y-4.75
X11.0Y-6.5
X11.0Y-6.75
X11.0Y-7.0
X11.0Y-7.25
X11.0Y-7.5
X11.0Y-7.75
X11.0Y-8.0
X11.25Y-2.5
X11.25Y-2.75
X11.25Y-3.0
X11.25Y-3.25
X11.25Y-4.0
X11.25Y-4.25
X11.25Y-4.5
X11.25Y-4.75
X11.25Y-5.0
X11.25Y-5.25
X11.25Y-5.5
X11.25Y-5.75
X11.25Y-6.0
X11.25Y-6.25
X11.25Y-6.5
X11.25Y-6.75
X11.25Y-7.0
X11.25Y-7.25
X11.25Y-7.5
X11.25Y-7.75
X11.25Y-8.0
X11.25Y-8.25
X11.25Y-8.5
T2
X8.15Y-2.8
X8.15Y-3.0
X8.15Y-3.2
X8.15Y-3.4
X8.15Y-3.6
X8.15Y-3.8
X8.15Y-4.0
X8.15Y-4.2
X8.15Y-4.4
X8.15Y-4.6
X8.15Y-4.8
X8.35Y-2.8
X8.35Y-3.0
X8.35Y-3.2
X8.35Y-3.4
X8.35Y-3.6
X8.35Y-3.8
X8.35Y-4.0
X8.35Y-4.2
X8.35Y-4.4
X8.35Y-4.6
X8.35Y-4.8
X8.55Y-2.8
X8.55Y-3.0
X8.55Y-3.2
X8.55Y-3.4
X8.55Y-3.6
X8.55Y-3.8
X8.55Y-4.0
X8.55Y-4.2
X8.55Y-4.4
X8.55Y-4.6
X8.55Y-4.8
X8.75Y-2.8
X8.75Y-3.0
X8.75Y-3.2
X8.75Y-3.4
X8.75Y-3.6
X8.75Y-3.8
X8.75Y-4.0
X8.75Y-4.2
X8.75Y-4.4
X8.75Y-4.6
X8.75Y-4.8
X8.95Y-2.8
X8.95Y-3.0
X8.95Y-3.2
X8.95Y-3.4
X8.95Y-3.6
X8.95Y-3.8
X8.95Y-4.0
X8.95Y-4.2
X8.95Y-4.4
X8.95Y-4.6
X8.95Y-4.8
X9.15Y-2.8
X9.15Y-3.0
X9.15Y-3.2
X9.15Y-3.4
X9.15Y-3.6
X9.15Y-3.8
X9.15Y-4.0
X9.15Y-4.2
X9.15Y-4.4
X9.15Y-4.6
X9.15Y-4.8
X9.35Y-2.8
X9.35Y-3.0
X9.35Y-3.2
X9.35Y-3.4
X9.35Y-3.6
X9.35Y-3.8
X9.35Y-4.0
X9.35Y-4.2
X9.35Y-4.4
X9.35Y-4.6
X9.35Y-4.8
X10.3519Y-3.6951
T3
X4.7197Y-3.719
X4.7197Y-3.8281
X4.7197Y-3.9371
X4.7197Y-4.0462
X4.7197Y-7.1779
X4.7197Y-7.2869
X4.7197Y-7.396
X4.7197Y-7.5051
X4.8315Y-3.6645
X4.8315Y-3.7736
X4.8315Y-3.8826
X4.8315Y-3.9917
X4.8315Y-4.1007
X4.8315Y-7.1234
X4.8315Y-7.2324
X4.8315Y-7.3415
X4.8315Y-7.4505
X4.8315Y-7.5596
T4
X4.7197Y-5.427
X4.7197Y-5.536
X4.7197Y-5.6451
X4.7197Y-5.7541
X4.8315Y-5.3724
X4.8315Y-5.4815
X4.8315Y-5.5906
X4.8315Y-5.6996
X4.8315Y-5.8087
T5
X6.4864Y-6.9517
X6.4864Y-7.2509
X6.4864Y-7.4517
X7.2856Y-6.9517
X7.2856Y-7.3533
X7.2856Y-7.7549
T6
X7.8178Y-3.0843
X7.8178Y-3.4843
X7.8178Y-4.0843
X7.8178Y-4.4843
X9.7174Y-3.4843
X9.7174Y-3.7843
X9.7174Y-4.0843
T7
X11.1905Y-3.6909
T8
X5.1551Y-4.2272
X5.2Y-7.67
X5.37Y-7.05
X5.624Y-6.3752
X6.0Y-3.25
X6.37Y-6.38
X7.1567Y-3.302
X8.37Y-6.39
X10.9846Y-4.1961
T9
X10.9594Y-6.1087
X10.9646Y-5.1161
T10
X11.0905Y-3.5909
X11.0905Y-3.7909
X11.2905Y-3.5909
X11.2905Y-3.7909
T11
X9.7174Y-3.0843
X9.7174Y-4.4843
T12
X4.7756Y-3.3905
X4.7756Y-4.3747
X4.7756Y-5.0984
X4.7756Y-6.0827
X4.7756Y-6.8494
X4.7756Y-7.8336
X5.0394Y-2.5197
X5.0394Y-8.4252
X7.3228Y-2.5197
X7.3228Y-5.5118
X7.3228Y-8.4252
X10.9449Y-2.5197
X10.9449Y-5.5118
X10.9449Y-8.4252
M30
