%TF.GenerationSoftware,KiCad,Pcbnew,9.0.3*%
%TF.CreationDate,2025-09-16T14:49:37-04:00*%
%TF.ProjectId,9_TOF_PDU,395f544f-465f-4504-9455-2e6b69636164,rev?*%
%TF.SameCoordinates,Original*%
%TF.FileFunction,Paste,Bot*%
%TF.FilePolarity,Positive*%
%FSLAX46Y46*%
G04 Gerber Fmt 4.6, Leading zero omitted, Abs format (unit mm)*
G04 Created by KiCad (PCBNEW 9.0.3) date 2025-09-16 14:49:37*
%MOMM*%
%LPD*%
G01*
G04 APERTURE LIST*
G04 Aperture macros list*
%AMRoundRect*
0 Rectangle with rounded corners*
0 $1 Rounding radius*
0 $2 $3 $4 $5 $6 $7 $8 $9 X,Y pos of 4 corners*
0 Add a 4 corners polygon primitive as box body*
4,1,4,$2,$3,$4,$5,$6,$7,$8,$9,$2,$3,0*
0 Add four circle primitives for the rounded corners*
1,1,$1+$1,$2,$3*
1,1,$1+$1,$4,$5*
1,1,$1+$1,$6,$7*
1,1,$1+$1,$8,$9*
0 Add four rect primitives between the rounded corners*
20,1,$1+$1,$2,$3,$4,$5,0*
20,1,$1+$1,$4,$5,$6,$7,0*
20,1,$1+$1,$6,$7,$8,$9,0*
20,1,$1+$1,$8,$9,$2,$3,0*%
G04 Aperture macros list end*
%ADD10RoundRect,0.225000X0.250000X-0.225000X0.250000X0.225000X-0.250000X0.225000X-0.250000X-0.225000X0*%
%ADD11RoundRect,0.225000X-0.250000X0.225000X-0.250000X-0.225000X0.250000X-0.225000X0.250000X0.225000X0*%
%ADD12RoundRect,0.200000X-0.275000X0.200000X-0.275000X-0.200000X0.275000X-0.200000X0.275000X0.200000X0*%
%ADD13RoundRect,0.225000X0.225000X0.250000X-0.225000X0.250000X-0.225000X-0.250000X0.225000X-0.250000X0*%
%ADD14RoundRect,0.140000X0.170000X-0.140000X0.170000X0.140000X-0.170000X0.140000X-0.170000X-0.140000X0*%
%ADD15RoundRect,0.250000X0.450000X-0.262500X0.450000X0.262500X-0.450000X0.262500X-0.450000X-0.262500X0*%
%ADD16RoundRect,0.250000X-0.925000X0.787500X-0.925000X-0.787500X0.925000X-0.787500X0.925000X0.787500X0*%
%ADD17RoundRect,0.075000X0.910000X0.225000X-0.910000X0.225000X-0.910000X-0.225000X0.910000X-0.225000X0*%
G04 APERTURE END LIST*
D10*
%TO.C,C15*%
X160208000Y-187248500D03*
X160208000Y-185698500D03*
%TD*%
D11*
%TO.C,C4*%
X190947500Y-95345000D03*
X190947500Y-96895000D03*
%TD*%
D12*
%TO.C,R25*%
X264678000Y-109433500D03*
X264678000Y-111083500D03*
%TD*%
%TO.C,R23*%
X264728000Y-104233500D03*
X264728000Y-105883500D03*
%TD*%
D13*
%TO.C,C29*%
X266253000Y-107608500D03*
X264703000Y-107608500D03*
%TD*%
D14*
%TO.C,C26*%
X262758000Y-100298500D03*
X262758000Y-99338500D03*
%TD*%
D10*
%TO.C,C19*%
X190538000Y-187493500D03*
X190538000Y-185943500D03*
%TD*%
D11*
%TO.C,C10*%
X255738000Y-95343500D03*
X255738000Y-96893500D03*
%TD*%
%TO.C,C6*%
X195011500Y-95345000D03*
X195011500Y-96895000D03*
%TD*%
D15*
%TO.C,R13*%
X194738000Y-187631000D03*
X194738000Y-185806000D03*
%TD*%
D14*
%TO.C,C27*%
X264098000Y-100298500D03*
X264098000Y-99338500D03*
%TD*%
D16*
%TO.C,C11*%
X259238000Y-93856000D03*
X259238000Y-98781000D03*
%TD*%
D17*
%TO.C,U7*%
X272063000Y-97913500D03*
X272063000Y-99183500D03*
X272063000Y-100453500D03*
X272063000Y-101723500D03*
X267123000Y-101723500D03*
X267123000Y-100453500D03*
X267123000Y-99183500D03*
X267123000Y-97913500D03*
%TD*%
D10*
%TO.C,C18*%
X188638000Y-187493500D03*
X188638000Y-185943500D03*
%TD*%
%TO.C,C16*%
X162208000Y-187248500D03*
X162208000Y-185698500D03*
%TD*%
D11*
%TO.C,C9*%
X253638000Y-95343500D03*
X253638000Y-96893500D03*
%TD*%
%TO.C,C5*%
X192979500Y-95345000D03*
X192979500Y-96895000D03*
%TD*%
D10*
%TO.C,C20*%
X192438000Y-187493500D03*
X192438000Y-185943500D03*
%TD*%
D11*
%TO.C,C7*%
X251638000Y-95343500D03*
X251638000Y-96893500D03*
%TD*%
D10*
%TO.C,C14*%
X158108000Y-187248500D03*
X158108000Y-185698500D03*
%TD*%
M02*
