%TF.GenerationSoftware,KiCad,Pcbnew,9.0.3*%
%TF.CreationDate,2025-09-16T14:49:37-04:00*%
%TF.ProjectId,9_TOF_PDU,395f544f-465f-4504-9455-2e6b69636164,rev?*%
%TF.SameCoordinates,Original*%
%TF.FileFunction,Copper,L1,Top*%
%TF.FilePolarity,Positive*%
%FSLAX46Y46*%
G04 Gerber Fmt 4.6, Leading zero omitted, Abs format (unit mm)*
G04 Created by KiCad (PCBNEW 9.0.3) date 2025-09-16 14:49:37*
%MOMM*%
%LPD*%
G01*
G04 APERTURE LIST*
G04 Aperture macros list*
%AMRoundRect*
0 Rectangle with rounded corners*
0 $1 Rounding radius*
0 $2 $3 $4 $5 $6 $7 $8 $9 X,Y pos of 4 corners*
0 Add a 4 corners polygon primitive as box body*
4,1,4,$2,$3,$4,$5,$6,$7,$8,$9,$2,$3,0*
0 Add four circle primitives for the rounded corners*
1,1,$1+$1,$2,$3*
1,1,$1+$1,$4,$5*
1,1,$1+$1,$6,$7*
1,1,$1+$1,$8,$9*
0 Add four rect primitives between the rounded corners*
20,1,$1+$1,$2,$3,$4,$5,0*
20,1,$1+$1,$4,$5,$6,$7,0*
20,1,$1+$1,$6,$7,$8,$9,0*
20,1,$1+$1,$8,$9,$2,$3,0*%
G04 Aperture macros list end*
%TA.AperFunction,SMDPad,CuDef*%
%ADD10RoundRect,0.225000X0.225000X0.250000X-0.225000X0.250000X-0.225000X-0.250000X0.225000X-0.250000X0*%
%TD*%
%TA.AperFunction,SMDPad,CuDef*%
%ADD11RoundRect,0.200000X-0.200000X-0.275000X0.200000X-0.275000X0.200000X0.275000X-0.200000X0.275000X0*%
%TD*%
%TA.AperFunction,ComponentPad*%
%ADD12C,6.400000*%
%TD*%
%TA.AperFunction,SMDPad,CuDef*%
%ADD13RoundRect,0.225000X0.250000X-0.225000X0.250000X0.225000X-0.250000X0.225000X-0.250000X-0.225000X0*%
%TD*%
%TA.AperFunction,ComponentPad*%
%ADD14C,2.800000*%
%TD*%
%TA.AperFunction,SMDPad,CuDef*%
%ADD15RoundRect,0.250000X-0.450000X0.262500X-0.450000X-0.262500X0.450000X-0.262500X0.450000X0.262500X0*%
%TD*%
%TA.AperFunction,SMDPad,CuDef*%
%ADD16RoundRect,0.200000X0.200000X0.275000X-0.200000X0.275000X-0.200000X-0.275000X0.200000X-0.275000X0*%
%TD*%
%TA.AperFunction,SMDPad,CuDef*%
%ADD17RoundRect,0.250000X0.650000X-0.325000X0.650000X0.325000X-0.650000X0.325000X-0.650000X-0.325000X0*%
%TD*%
%TA.AperFunction,SMDPad,CuDef*%
%ADD18RoundRect,0.200000X0.275000X-0.200000X0.275000X0.200000X-0.275000X0.200000X-0.275000X-0.200000X0*%
%TD*%
%TA.AperFunction,SMDPad,CuDef*%
%ADD19RoundRect,0.140000X-0.140000X-0.170000X0.140000X-0.170000X0.140000X0.170000X-0.140000X0.170000X0*%
%TD*%
%TA.AperFunction,SMDPad,CuDef*%
%ADD20R,1.161200X0.350800*%
%TD*%
%TA.AperFunction,SMDPad,CuDef*%
%ADD21R,1.981200X0.558800*%
%TD*%
%TA.AperFunction,SMDPad,CuDef*%
%ADD22RoundRect,0.250000X-0.450000X-0.425000X0.450000X-0.425000X0.450000X0.425000X-0.450000X0.425000X0*%
%TD*%
%TA.AperFunction,SMDPad,CuDef*%
%ADD23RoundRect,0.250000X0.275000X-0.312500X0.275000X0.312500X-0.275000X0.312500X-0.275000X-0.312500X0*%
%TD*%
%TA.AperFunction,SMDPad,CuDef*%
%ADD24R,0.558800X1.473200*%
%TD*%
%TA.AperFunction,SMDPad,CuDef*%
%ADD25RoundRect,0.250000X0.425000X-0.450000X0.425000X0.450000X-0.425000X0.450000X-0.425000X-0.450000X0*%
%TD*%
%TA.AperFunction,SMDPad,CuDef*%
%ADD26RoundRect,0.250000X0.450000X-0.262500X0.450000X0.262500X-0.450000X0.262500X-0.450000X-0.262500X0*%
%TD*%
%TA.AperFunction,SMDPad,CuDef*%
%ADD27RoundRect,0.135000X-0.135000X-0.185000X0.135000X-0.185000X0.135000X0.185000X-0.135000X0.185000X0*%
%TD*%
%TA.AperFunction,SMDPad,CuDef*%
%ADD28R,1.219200X0.457200*%
%TD*%
%TA.AperFunction,SMDPad,CuDef*%
%ADD29O,1.219200X0.457200*%
%TD*%
%TA.AperFunction,SMDPad,CuDef*%
%ADD30RoundRect,0.170000X2.330000X-1.530000X2.330000X1.530000X-2.330000X1.530000X-2.330000X-1.530000X0*%
%TD*%
%TA.AperFunction,SMDPad,CuDef*%
%ADD31RoundRect,0.073750X-0.221250X0.556250X-0.221250X-0.556250X0.221250X-0.556250X0.221250X0.556250X0*%
%TD*%
%TA.AperFunction,SMDPad,CuDef*%
%ADD32RoundRect,0.140000X0.140000X0.170000X-0.140000X0.170000X-0.140000X-0.170000X0.140000X-0.170000X0*%
%TD*%
%TA.AperFunction,ComponentPad*%
%ADD33C,2.159000*%
%TD*%
%TA.AperFunction,SMDPad,CuDef*%
%ADD34RoundRect,0.250000X-0.625000X0.312500X-0.625000X-0.312500X0.625000X-0.312500X0.625000X0.312500X0*%
%TD*%
%TA.AperFunction,ComponentPad*%
%ADD35C,1.560000*%
%TD*%
%TA.AperFunction,ComponentPad*%
%ADD36C,4.216000*%
%TD*%
%TA.AperFunction,SMDPad,CuDef*%
%ADD37RoundRect,0.250000X0.312500X0.625000X-0.312500X0.625000X-0.312500X-0.625000X0.312500X-0.625000X0*%
%TD*%
%TA.AperFunction,SMDPad,CuDef*%
%ADD38RoundRect,0.250000X-0.925000X0.787500X-0.925000X-0.787500X0.925000X-0.787500X0.925000X0.787500X0*%
%TD*%
%TA.AperFunction,SMDPad,CuDef*%
%ADD39RoundRect,0.250000X-0.650000X0.325000X-0.650000X-0.325000X0.650000X-0.325000X0.650000X0.325000X0*%
%TD*%
%TA.AperFunction,SMDPad,CuDef*%
%ADD40RoundRect,0.200000X-0.275000X0.200000X-0.275000X-0.200000X0.275000X-0.200000X0.275000X0.200000X0*%
%TD*%
%TA.AperFunction,ComponentPad*%
%ADD41C,1.635000*%
%TD*%
%TA.AperFunction,SMDPad,CuDef*%
%ADD42RoundRect,0.020000X-2.680000X0.980000X-2.680000X-0.980000X2.680000X-0.980000X2.680000X0.980000X0*%
%TD*%
%TA.AperFunction,SMDPad,CuDef*%
%ADD43R,5.400000X2.000000*%
%TD*%
%TA.AperFunction,SMDPad,CuDef*%
%ADD44RoundRect,0.020000X-1.480000X0.980000X-1.480000X-0.980000X1.480000X-0.980000X1.480000X0.980000X0*%
%TD*%
%TA.AperFunction,SMDPad,CuDef*%
%ADD45R,0.889000X1.016000*%
%TD*%
%TA.AperFunction,SMDPad,CuDef*%
%ADD46R,3.200000X1.000000*%
%TD*%
%TA.AperFunction,SMDPad,CuDef*%
%ADD47R,0.228600X1.117600*%
%TD*%
%TA.AperFunction,SMDPad,CuDef*%
%ADD48RoundRect,0.250000X1.025000X-0.787500X1.025000X0.787500X-1.025000X0.787500X-1.025000X-0.787500X0*%
%TD*%
%TA.AperFunction,ComponentPad*%
%ADD49C,2.006600*%
%TD*%
%TA.AperFunction,ComponentPad*%
%ADD50C,2.209800*%
%TD*%
%TA.AperFunction,SMDPad,CuDef*%
%ADD51R,0.558800X1.651000*%
%TD*%
%TA.AperFunction,SMDPad,CuDef*%
%ADD52RoundRect,0.225000X-0.250000X0.225000X-0.250000X-0.225000X0.250000X-0.225000X0.250000X0.225000X0*%
%TD*%
%TA.AperFunction,ComponentPad*%
%ADD53R,2.800000X2.800000*%
%TD*%
%TA.AperFunction,ComponentPad*%
%ADD54C,4.800000*%
%TD*%
%TA.AperFunction,SMDPad,CuDef*%
%ADD55R,1.800000X1.170000*%
%TD*%
%TA.AperFunction,SMDPad,CuDef*%
%ADD56R,0.350800X1.161200*%
%TD*%
%TA.AperFunction,SMDPad,CuDef*%
%ADD57R,0.444500X0.711200*%
%TD*%
%TA.AperFunction,SMDPad,CuDef*%
%ADD58R,0.457200X1.219200*%
%TD*%
%TA.AperFunction,SMDPad,CuDef*%
%ADD59O,0.457200X1.219200*%
%TD*%
%TA.AperFunction,SMDPad,CuDef*%
%ADD60RoundRect,0.250000X0.925000X-0.787500X0.925000X0.787500X-0.925000X0.787500X-0.925000X-0.787500X0*%
%TD*%
%TA.AperFunction,ComponentPad*%
%ADD61R,2.000000X2.000000*%
%TD*%
%TA.AperFunction,ComponentPad*%
%ADD62C,2.000000*%
%TD*%
%TA.AperFunction,ViaPad*%
%ADD63C,0.600000*%
%TD*%
%TA.AperFunction,ViaPad*%
%ADD64C,1.500000*%
%TD*%
%TA.AperFunction,Conductor*%
%ADD65C,0.800000*%
%TD*%
%TA.AperFunction,Conductor*%
%ADD66C,1.000000*%
%TD*%
%TA.AperFunction,Conductor*%
%ADD67C,0.200000*%
%TD*%
%TA.AperFunction,Conductor*%
%ADD68C,0.700000*%
%TD*%
%TA.AperFunction,Conductor*%
%ADD69C,0.500000*%
%TD*%
%TA.AperFunction,Conductor*%
%ADD70C,0.600000*%
%TD*%
%TA.AperFunction,Conductor*%
%ADD71C,0.300000*%
%TD*%
%TA.AperFunction,Conductor*%
%ADD72C,0.400000*%
%TD*%
G04 APERTURE END LIST*
D10*
%TO.P,C33,1*%
%TO.N,/V_P5V_RTN*%
X264913000Y-135753500D03*
%TO.P,C33,2*%
%TO.N,/V_P5V*%
X263363000Y-135753500D03*
%TD*%
D11*
%TO.P,R7,1*%
%TO.N,/Main_PDU_Block/V_POS*%
X207413000Y-132418500D03*
%TO.P,R7,2*%
%TO.N,Net-(M2-Pad1)*%
X209063000Y-132418500D03*
%TD*%
D12*
%TO.P,H1,1,1*%
%TO.N,GNDPWR*%
X128000000Y-64000000D03*
%TD*%
D13*
%TO.P,C34,1*%
%TO.N,/V_P5V_RTN*%
X226822000Y-135395000D03*
%TO.P,C34,2*%
%TO.N,/V_TOF_RTN*%
X226822000Y-133845000D03*
%TD*%
D14*
%TO.P,+3.3V1,1,1*%
%TO.N,/Telemetry_Circuitry/V3p3*%
X212598000Y-162306000D03*
%TD*%
D12*
%TO.P,H3,1,1*%
%TO.N,GNDPWR*%
X186000000Y-64000000D03*
%TD*%
%TO.P,H2,1,1*%
%TO.N,GNDPWR*%
X186000000Y-214000000D03*
%TD*%
D15*
%TO.P,R6,1*%
%TO.N,Net-(C3-Pad2)*%
X187638000Y-99793500D03*
%TO.P,R6,2*%
%TO.N,/Main_PDU_Block/V_RTN*%
X187638000Y-101618500D03*
%TD*%
D16*
%TO.P,R32,1*%
%TO.N,Net-(M4-Pad1)*%
X265473001Y-129453500D03*
%TO.P,R32,2*%
%TO.N,Net-(U9-OUT)*%
X263823001Y-129453500D03*
%TD*%
D17*
%TO.P,CY2,1*%
%TO.N,Net-(CY1-Pad1)*%
X157848000Y-94443500D03*
%TO.P,CY2,2*%
%TO.N,/Main_PDU_Block/SEC_RTN*%
X157848000Y-91493500D03*
%TD*%
D18*
%TO.P,R35,1*%
%TO.N,/V_P5V_RTN*%
X228854000Y-135445000D03*
%TO.P,R35,2*%
%TO.N,/V_TOF_RTN*%
X228854000Y-133795000D03*
%TD*%
D19*
%TO.P,C32,1*%
%TO.N,Net-(U8B-OUT2)*%
X237093100Y-145598500D03*
%TO.P,C32,2*%
%TO.N,Net-(U8B-IN2-)*%
X238053100Y-145598500D03*
%TD*%
D20*
%TO.P,M4,1,1*%
%TO.N,Net-(M4-Pad1)*%
X270113000Y-131588501D03*
%TO.P,M4,2,2*%
%TO.N,/V_P5V_RTN*%
X270113000Y-132588499D03*
%TO.P,M4,3,3*%
%TO.N,Net-(M4-Pad3)*%
X271463000Y-132088500D03*
%TD*%
D14*
%TO.P,+12V_{RTN}1,1,1*%
%TO.N,/V_SEC_RTN*%
X152400000Y-82550000D03*
%TD*%
D10*
%TO.P,C17,1*%
%TO.N,/V_P5V_RTN*%
X182913000Y-170418500D03*
%TO.P,C17,2*%
%TO.N,GNDPWR*%
X181363000Y-170418500D03*
%TD*%
D12*
%TO.P,H6,1,1*%
%TO.N,GNDPWR*%
X186000000Y-140000000D03*
%TD*%
D21*
%TO.P,U4,1,NC*%
%TO.N,unconnected-(U4-NC-Pad1)*%
X149354200Y-144063500D03*
%TO.P,U4,2,V+*%
%TO.N,/V_P5V*%
X149354200Y-145333500D03*
%TO.P,U4,3,V-*%
%TO.N,Net-(U3-+IN)*%
X149354200Y-146603500D03*
%TO.P,U4,4,NC*%
%TO.N,unconnected-(U4-NC-Pad4)*%
X149354200Y-147873500D03*
%TO.P,U4,5,NC*%
%TO.N,unconnected-(U4-NC-Pad5)*%
X154281800Y-147873500D03*
%TO.P,U4,6,NC*%
%TO.N,unconnected-(U4-NC-Pad6)*%
X154281800Y-146603500D03*
%TO.P,U4,7,NC*%
%TO.N,unconnected-(U4-NC-Pad7)*%
X154281800Y-145333500D03*
%TO.P,U4,8,NC*%
%TO.N,unconnected-(U4-NC-Pad8)*%
X154281800Y-144063500D03*
%TD*%
D22*
%TO.P,C25,1*%
%TO.N,/Telemetry_Circuitry/V3p3*%
X226729000Y-165658500D03*
%TO.P,C25,2*%
%TO.N,/V_P5V_RTN*%
X229429000Y-165658500D03*
%TD*%
D23*
%TO.P,C22,1*%
%TO.N,/V_P5V*%
X226878000Y-172636000D03*
%TO.P,C22,2*%
%TO.N,/V_P5V_RTN*%
X226878000Y-170861000D03*
%TD*%
D24*
%TO.P,U6,1,VCC*%
%TO.N,/Telemetry_Circuitry/V3p3*%
X134288001Y-136824700D03*
%TO.P,U6,2,GND*%
%TO.N,/V_P5V_RTN*%
X133338000Y-136824700D03*
%TO.P,U6,3,A*%
%TO.N,/Enable+*%
X132387999Y-136824700D03*
%TO.P,U6,4,B*%
%TO.N,/Enable-*%
X132387999Y-139212300D03*
%TO.P,U6,5,R*%
%TO.N,Net-(U6-R)*%
X134288001Y-139212300D03*
%TD*%
D12*
%TO.P,H4,1,1*%
%TO.N,GNDPWR*%
X278000000Y-214000000D03*
%TD*%
D25*
%TO.P,C13,1*%
%TO.N,/V_TOF_Telemetry_PDU/V_POS*%
X159708000Y-187723500D03*
%TO.P,C13,2*%
%TO.N,/V_TOF_Telemetry_PDU/V_RTN*%
X159708000Y-185023500D03*
%TD*%
D19*
%TO.P,C28,1*%
%TO.N,Net-(U8A-OUT1)*%
X236013100Y-156288500D03*
%TO.P,C28,2*%
%TO.N,Net-(U8A-IN1-)*%
X236973100Y-156288500D03*
%TD*%
D26*
%TO.P,R14,1*%
%TO.N,/V_P5V*%
X191338000Y-192331000D03*
%TO.P,R14,2*%
%TO.N,Net-(D1-K)*%
X191338000Y-190506000D03*
%TD*%
D27*
%TO.P,R26,1*%
%TO.N,Net-(U8B-OUT2)*%
X237083100Y-146838500D03*
%TO.P,R26,2*%
%TO.N,Net-(U8B-IN2-)*%
X238103100Y-146838500D03*
%TD*%
D28*
%TO.P,U3,1,OUT*%
%TO.N,Net-(U3-OUT)*%
X140968000Y-145298498D03*
D29*
%TO.P,U3,2,V-*%
%TO.N,/V_P5V_RTN*%
X140968000Y-146248499D03*
%TO.P,U3,3,+IN*%
%TO.N,Net-(U3-+IN)*%
X140968000Y-147198500D03*
%TO.P,U3,4,-IN*%
%TO.N,Net-(U3--IN)*%
X143588000Y-147198500D03*
%TO.P,U3,5,V+*%
%TO.N,/Telemetry_Circuitry/V3p3*%
X143588000Y-145298498D03*
%TD*%
D30*
%TO.P,L4,1,1*%
%TO.N,Net-(C12-Pad1)*%
X143408000Y-194124500D03*
%TO.P,L4,2,2*%
%TO.N,/V_TOF_Telemetry_PDU/V_POS*%
X153008000Y-194124500D03*
%TD*%
D11*
%TO.P,R20,1*%
%TO.N,Net-(U6-R)*%
X140413000Y-139218500D03*
%TO.P,R20,2*%
%TO.N,/Enable*%
X142063000Y-139218500D03*
%TD*%
D31*
%TO.P,D1,1,A*%
%TO.N,/V_P5V_RTN*%
X192288000Y-184438500D03*
%TO.P,D1,2*%
%TO.N,N/C*%
X190388000Y-184438500D03*
%TO.P,D1,3,K*%
%TO.N,Net-(D1-K)*%
X191338000Y-186398500D03*
%TD*%
D32*
%TO.P,C31,1*%
%TO.N,/Telemetry_Circuitry/V3p3*%
X239583100Y-155058500D03*
%TO.P,C31,2*%
%TO.N,/V_P5V_RTN*%
X238623100Y-155058500D03*
%TD*%
D14*
%TO.P,V_TELEM_{RTN}1,1,1*%
%TO.N,/V_SEC_Telem_RTN*%
X136398000Y-179070000D03*
%TD*%
D33*
%TO.P,P1,1,1*%
%TO.N,Net-(P1-Pad1)*%
X278370000Y-155160000D03*
%TD*%
D14*
%TO.P,V_{EN}1,1,1*%
%TO.N,/Main_PDU_Block/Enable*%
X181780000Y-83870000D03*
%TD*%
%TO.P,V_TELEM_IN1,1,1*%
%TO.N,/V_SEC_IN_Telem*%
X132080000Y-194818000D03*
%TD*%
D11*
%TO.P,R11,1*%
%TO.N,/V_P5V_RTN*%
X197360000Y-184430000D03*
%TO.P,R11,2*%
%TO.N,Net-(M3-Pad1)*%
X199010000Y-184430000D03*
%TD*%
D16*
%TO.P,R17,1*%
%TO.N,Net-(U3-OUT)*%
X138403000Y-143468499D03*
%TO.P,R17,2*%
%TO.N,/TEMP_TELEM*%
X136753000Y-143468499D03*
%TD*%
D34*
%TO.P,R2,1*%
%TO.N,Net-(F1-Pad2)*%
X136838000Y-97956000D03*
%TO.P,R2,2*%
%TO.N,Net-(C1-Pad1)*%
X136838000Y-100881000D03*
%TD*%
D18*
%TO.P,R30,1*%
%TO.N,/V_TOF_RTN*%
X256808000Y-133158500D03*
%TO.P,R30,2*%
%TO.N,Net-(U9-+IN)*%
X256808000Y-131508500D03*
%TD*%
D35*
%TO.P,J2,1*%
%TO.N,/V_SEC_Telem_RTN*%
X122720000Y-180933500D03*
%TO.P,J2,2*%
X122720000Y-183703500D03*
%TO.P,J2,3*%
%TO.N,unconnected-(J2-Pad3)*%
X122720000Y-186473500D03*
%TO.P,J2,4*%
%TO.N,/V_SEC_Telem_RTN*%
X122720000Y-189243500D03*
%TO.P,J2,5*%
X122720000Y-192013500D03*
%TO.P,J2,6*%
%TO.N,/V_SEC_IN_Telem*%
X119880000Y-182318500D03*
%TO.P,J2,7*%
X119880000Y-185088500D03*
%TO.P,J2,8*%
X119880000Y-187858500D03*
%TO.P,J2,9*%
X119880000Y-190628500D03*
D36*
%TO.P,J2,S1*%
%TO.N,GNDPWR*%
X121300000Y-173973500D03*
%TO.P,J2,S2*%
X121300000Y-198973500D03*
%TD*%
D37*
%TO.P,R19,1*%
%TO.N,/Telemetry_Circuitry/V_TOF_OUT*%
X271055500Y-93818500D03*
%TO.P,R19,2*%
%TO.N,/Main_PDU_Block/V_TOF_OUT*%
X268130500Y-93818500D03*
%TD*%
D38*
%TO.P,C3,1*%
%TO.N,/Main_PDU_Block/V_POS*%
X187645500Y-91688500D03*
%TO.P,C3,2*%
%TO.N,Net-(C3-Pad2)*%
X187645500Y-96613500D03*
%TD*%
D16*
%TO.P,R10,1*%
%TO.N,/V_P5V*%
X202510000Y-184430000D03*
%TO.P,R10,2*%
%TO.N,Net-(M3-Pad1)*%
X200860000Y-184430000D03*
%TD*%
D12*
%TO.P,H7,1,1*%
%TO.N,GNDPWR*%
X128000000Y-214000000D03*
%TD*%
D27*
%TO.P,R24,1*%
%TO.N,Net-(U8A-OUT1)*%
X235983100Y-155088500D03*
%TO.P,R24,2*%
%TO.N,Net-(U8A-IN1-)*%
X237003100Y-155088500D03*
%TD*%
D18*
%TO.P,F2,1*%
%TO.N,/V_SEC_IN_Telem*%
X132208000Y-191298500D03*
%TO.P,F2,2*%
%TO.N,Net-(C12-Pad1)*%
X132208000Y-189648500D03*
%TD*%
D39*
%TO.P,CY3,1*%
%TO.N,Net-(CY3-Pad1)*%
X161912000Y-100891500D03*
%TO.P,CY3,2*%
%TO.N,GNDPWR*%
X161912000Y-103841500D03*
%TD*%
D40*
%TO.P,R4,1*%
%TO.N,Net-(M1-Pad1)*%
X207938000Y-144193499D03*
%TO.P,R4,2*%
%TO.N,/V_P5V_RTN*%
X207938000Y-145843499D03*
%TD*%
D18*
%TO.P,R21,1*%
%TO.N,Net-(U8A-IN1+)*%
X258620000Y-139395000D03*
%TO.P,R21,2*%
%TO.N,/Telemetry_Circuitry/V_TOF_OUT*%
X258620000Y-137745000D03*
%TD*%
D41*
%TO.P,J3,1*%
%TO.N,/V_P5V_RTN*%
X122720000Y-147540000D03*
%TO.P,J3,2*%
%TO.N,/i_OUT_TELEM*%
X122720000Y-144770000D03*
%TO.P,J3,3*%
%TO.N,unconnected-(J3-Pad3)*%
X122720000Y-142000000D03*
%TO.P,J3,4*%
%TO.N,/Enable-*%
X122720000Y-139230000D03*
%TO.P,J3,5*%
%TO.N,/Enable+*%
X122720000Y-136460000D03*
%TO.P,J3,6*%
%TO.N,/V_P5V_RTN*%
X119880000Y-146155000D03*
%TO.P,J3,7*%
%TO.N,/TEMP_TELEM*%
X119880000Y-143385000D03*
%TO.P,J3,8*%
%TO.N,/V_P5V_RTN*%
X119880000Y-140615000D03*
%TO.P,J3,9*%
%TO.N,/V_OUT_TELEM*%
X119880000Y-137845000D03*
D36*
%TO.P,J3,S1*%
%TO.N,GNDPWR*%
X121300000Y-129500000D03*
%TO.P,J3,S2*%
X121300000Y-154500000D03*
%TD*%
D16*
%TO.P,R16,1*%
%TO.N,/V_P5V_RTN*%
X148803000Y-150048500D03*
%TO.P,R16,2*%
%TO.N,Net-(U3-+IN)*%
X147153000Y-150048500D03*
%TD*%
D42*
%TO.P,L1,1*%
%TO.N,Net-(CY3-Pad1)*%
X152828000Y-98020500D03*
%TO.P,L1,2*%
%TO.N,Net-(CY1-Pad1)*%
X152828000Y-94520500D03*
%TO.P,L1,3*%
%TO.N,/V_SEC_RTN*%
X145208000Y-94520500D03*
D43*
%TO.P,L1,4*%
%TO.N,Net-(F1-Pad2)*%
X145208000Y-98020500D03*
%TD*%
D11*
%TO.P,R5,1*%
%TO.N,/V_P5V*%
X210013000Y-141018500D03*
%TO.P,R5,2*%
%TO.N,Net-(Q1-Pad1)*%
X211663000Y-141018500D03*
%TD*%
D44*
%TO.P,L3,1,1*%
%TO.N,Net-(CY3-Pad1)*%
X166826000Y-100842500D03*
%TO.P,L3,2,2*%
%TO.N,/Main_PDU_Block/V_RTN*%
X172326000Y-100842500D03*
%TD*%
D14*
%TO.P,SEC_{RTN}1,1,1*%
%TO.N,/V_TOF_RTN*%
X279010000Y-106580000D03*
%TD*%
D38*
%TO.P,C2,1*%
%TO.N,/Main_PDU_Block/V_POS*%
X179946000Y-93657500D03*
%TO.P,C2,2*%
%TO.N,/Main_PDU_Block/V_RTN*%
X179946000Y-98582500D03*
%TD*%
D40*
%TO.P,R12,1*%
%TO.N,Net-(LED1-Pad2)*%
X194938000Y-190593500D03*
%TO.P,R12,2*%
%TO.N,/V_P5V*%
X194938000Y-192243500D03*
%TD*%
D10*
%TO.P,C24,1*%
%TO.N,/Telemetry_Circuitry/V3p3*%
X134613000Y-134218500D03*
%TO.P,C24,2*%
%TO.N,/V_P5V_RTN*%
X133063000Y-134218500D03*
%TD*%
D17*
%TO.P,CY1,1*%
%TO.N,Net-(CY1-Pad1)*%
X161912000Y-91649500D03*
%TO.P,CY1,2*%
%TO.N,GNDPWR*%
X161912000Y-88699500D03*
%TD*%
D45*
%TO.P,U5,1,SET*%
%TO.N,Net-(U5-SET)*%
X219066600Y-172641000D03*
%TO.P,U5,2,OUT*%
%TO.N,/Telemetry_Circuitry/V3p3*%
X221378000Y-172641000D03*
%TO.P,U5,3,IN*%
%TO.N,/V_P5V*%
X223689400Y-172641000D03*
D46*
%TO.P,U5,4,TAB*%
%TO.N,/Telemetry_Circuitry/V3p3*%
X221378000Y-165648500D03*
%TD*%
D10*
%TO.P,C8,1*%
%TO.N,/V_TOF_RTN*%
X243813000Y-129418500D03*
%TO.P,C8,2*%
%TO.N,GNDPWR*%
X242263000Y-129418500D03*
%TD*%
D14*
%TO.P,V_TELEM_{5V}1,1,1*%
%TO.N,/V_P5V*%
X142850000Y-161930000D03*
%TD*%
D18*
%TO.P,R18,1*%
%TO.N,Net-(U5-SET)*%
X216078000Y-171173500D03*
%TO.P,R18,2*%
%TO.N,/V_P5V_RTN*%
X216078000Y-169523500D03*
%TD*%
D16*
%TO.P,R34,1*%
%TO.N,Net-(P1-Pad1)*%
X271975000Y-155119799D03*
%TO.P,R34,2*%
%TO.N,/V_P5V*%
X270325000Y-155119799D03*
%TD*%
D40*
%TO.P,R33,1*%
%TO.N,Net-(M4-Pad1)*%
X267978000Y-131333500D03*
%TO.P,R33,2*%
%TO.N,/V_P5V_RTN*%
X267978000Y-132983500D03*
%TD*%
D47*
%TO.P,U8,1,OUT1*%
%TO.N,Net-(U8A-OUT1)*%
X236837999Y-153179400D03*
%TO.P,U8,2,IN1-*%
%TO.N,Net-(U8A-IN1-)*%
X237338001Y-153179400D03*
%TO.P,U8,3,IN1+*%
%TO.N,Net-(U8A-IN1+)*%
X237838000Y-153179400D03*
%TO.P,U8,4,VSS*%
%TO.N,/V_P5V_RTN*%
X238337999Y-153179400D03*
%TO.P,U8,5,SHDN1`*%
%TO.N,/Telemetry_Circuitry/V3p3*%
X238838001Y-153179400D03*
%TO.P,U8,6,SHDN2`*%
X238838001Y-148937600D03*
%TO.P,U8,7,IN2+*%
%TO.N,Net-(U8B-IN2+)*%
X238337999Y-148937600D03*
%TO.P,U8,8,IN2-*%
%TO.N,Net-(U8B-IN2-)*%
X237838000Y-148937600D03*
%TO.P,U8,9,OUT2*%
%TO.N,Net-(U8B-OUT2)*%
X237338001Y-148937600D03*
%TO.P,U8,10,VDD*%
%TO.N,/Telemetry_Circuitry/V3p3*%
X236837999Y-148937600D03*
%TD*%
D13*
%TO.P,C23,1*%
%TO.N,Net-(U5-SET)*%
X214178000Y-171123500D03*
%TO.P,C23,2*%
%TO.N,/V_P5V_RTN*%
X214178000Y-169573500D03*
%TD*%
D44*
%TO.P,L2,1,1*%
%TO.N,Net-(CY1-Pad1)*%
X166826000Y-91698500D03*
%TO.P,L2,2,2*%
%TO.N,/Main_PDU_Block/V_POS*%
X172326000Y-91698500D03*
%TD*%
D35*
%TO.P,J1,1*%
%TO.N,/V_SEC_RTN*%
X122720000Y-93078500D03*
%TO.P,J1,2*%
X122720000Y-95848500D03*
%TO.P,J1,3*%
%TO.N,unconnected-(J1-Pad3)*%
X122720000Y-98618500D03*
%TO.P,J1,4*%
%TO.N,/V_SEC_RTN*%
X122720000Y-101388500D03*
%TO.P,J1,5*%
X122720000Y-104158500D03*
%TO.P,J1,6*%
%TO.N,/V_SEC_IN*%
X119880000Y-94463500D03*
%TO.P,J1,7*%
X119880000Y-97233500D03*
%TO.P,J1,8*%
X119880000Y-100003500D03*
%TO.P,J1,9*%
X119880000Y-102773500D03*
D36*
%TO.P,J1,S1*%
%TO.N,GNDPWR*%
X121300000Y-86118500D03*
%TO.P,J1,S2*%
X121300000Y-111118500D03*
%TD*%
D40*
%TO.P,R22,1*%
%TO.N,/V_TOF_RTN*%
X256800000Y-137755000D03*
%TO.P,R22,2*%
%TO.N,Net-(U8A-IN1+)*%
X256800000Y-139405000D03*
%TD*%
D18*
%TO.P,R9,1*%
%TO.N,Net-(M2-Pad1)*%
X209038000Y-130643500D03*
%TO.P,R9,2*%
%TO.N,/Main_PDU_Block/V_RTN*%
X209038000Y-128993500D03*
%TD*%
D11*
%TO.P,R27,1*%
%TO.N,/V_OUT_TELEM*%
X232608100Y-155088500D03*
%TO.P,R27,2*%
%TO.N,Net-(U8A-OUT1)*%
X234258100Y-155088500D03*
%TD*%
D48*
%TO.P,C12,1*%
%TO.N,Net-(C12-Pad1)*%
X136508000Y-189586000D03*
%TO.P,C12,2*%
%TO.N,/V_SEC_Telem_RTN*%
X136508000Y-183361000D03*
%TD*%
D11*
%TO.P,R28,1*%
%TO.N,/i_OUT_TELEM*%
X232628100Y-146838500D03*
%TO.P,R28,2*%
%TO.N,Net-(U8B-OUT2)*%
X234278100Y-146838500D03*
%TD*%
D30*
%TO.P,L5,1,1*%
%TO.N,/V_SEC_Telem_RTN*%
X143408000Y-179024500D03*
%TO.P,L5,2,2*%
%TO.N,/V_TOF_Telemetry_PDU/V_RTN*%
X153008000Y-179024500D03*
%TD*%
D49*
%TO.P,P_OUT1,1,SIGNAL*%
%TO.N,/Telemetry_Circuitry/V_TOF_OUT*%
X284238000Y-93748500D03*
D50*
%TO.P,P_OUT1,2,GND*%
%TO.N,/V_TOF_RTN*%
X286778000Y-91208500D03*
%TO.P,P_OUT1,3,GND*%
X281698000Y-91208500D03*
%TO.P,P_OUT1,4,GND*%
X281698000Y-96288500D03*
%TO.P,P_OUT1,5,GND*%
X286778000Y-96288500D03*
%TD*%
D14*
%TO.P,+12V1,1,1*%
%TO.N,/V_SEC_IN*%
X130940000Y-107370000D03*
%TD*%
D33*
%TO.P,P2,1,1*%
%TO.N,Net-(M4-Pad3)*%
X278500000Y-129950201D03*
%TD*%
D51*
%TO.P,Q1,1,1*%
%TO.N,Net-(Q1-Pad1)*%
X213903000Y-138442700D03*
%TO.P,Q1,2,2*%
%TO.N,Net-(M1-Pad3)*%
X215173000Y-138442700D03*
%TO.P,Q1,3,3*%
%TO.N,/Main_PDU_Block/V_RTN*%
X215173000Y-132194300D03*
%TO.P,Q1,4,4*%
%TO.N,Net-(M2-Pad1)*%
X213903000Y-132194300D03*
%TD*%
D52*
%TO.P,C21,1*%
%TO.N,/V_P5V_RTN*%
X144978000Y-142233500D03*
%TO.P,C21,2*%
%TO.N,/Telemetry_Circuitry/V3p3*%
X144978000Y-143783500D03*
%TD*%
D20*
%TO.P,M1,1,1*%
%TO.N,Net-(M1-Pad1)*%
X210438000Y-144418500D03*
%TO.P,M1,2,2*%
%TO.N,/V_P5V_RTN*%
X210438000Y-145418498D03*
%TO.P,M1,3,3*%
%TO.N,Net-(M1-Pad3)*%
X211788000Y-144918499D03*
%TD*%
D12*
%TO.P,H8,1,1*%
%TO.N,GNDPWR*%
X278000000Y-140000000D03*
%TD*%
D16*
%TO.P,R8,1*%
%TO.N,/Main_PDU_Block/V_POS*%
X205463000Y-132418500D03*
%TO.P,R8,2*%
%TO.N,/Main_PDU_Block/Enable*%
X203813000Y-132418500D03*
%TD*%
D20*
%TO.P,M2,1,1*%
%TO.N,Net-(M2-Pad1)*%
X206713000Y-130218499D03*
%TO.P,M2,2,2*%
%TO.N,/Main_PDU_Block/V_RTN*%
X206713000Y-129218501D03*
%TO.P,M2,3,3*%
%TO.N,/Main_PDU_Block/Enable*%
X205363000Y-129718500D03*
%TD*%
D12*
%TO.P,H5,1,1*%
%TO.N,GNDPWR*%
X278000000Y-64000000D03*
%TD*%
D53*
%TO.P,U1,1,+VIN*%
%TO.N,/Main_PDU_Block/V_POS*%
X198572500Y-78340000D03*
D14*
%TO.P,U1,2,ON/OFF*%
%TO.N,/Main_PDU_Block/Enable*%
X198572500Y-88500000D03*
%TO.P,U1,3,CASE*%
%TO.N,GNDPWR*%
X198572500Y-103740000D03*
%TO.P,U1,4,-VIN*%
%TO.N,/Main_PDU_Block/V_RTN*%
X198572500Y-113900000D03*
D54*
%TO.P,U1,5,-VO*%
%TO.N,/V_TOF_RTN*%
X246822500Y-113900000D03*
D14*
%TO.P,U1,6,-S*%
X246822500Y-103740000D03*
%TO.P,U1,7,TRIM*%
%TO.N,unconnected-(U1-TRIM-Pad7)*%
X246822500Y-96120000D03*
%TO.P,U1,8,+S*%
%TO.N,/Main_PDU_Block/V_TOF_OUT*%
X246822500Y-88500000D03*
D54*
%TO.P,U1,9,+VO*%
X246822500Y-78340000D03*
%TD*%
D55*
%TO.P,F1,1*%
%TO.N,/V_SEC_IN*%
X140238000Y-100888500D03*
%TO.P,F1,2*%
%TO.N,Net-(F1-Pad2)*%
X140238000Y-97948500D03*
%TD*%
D56*
%TO.P,M3,1,1*%
%TO.N,Net-(M3-Pad1)*%
X198784999Y-186755000D03*
%TO.P,M3,2,2*%
%TO.N,/V_P5V_RTN*%
X197785001Y-186755000D03*
%TO.P,M3,3,3*%
%TO.N,Net-(LED1-Pad1)*%
X198285000Y-188105000D03*
%TD*%
D57*
%TO.P,LED1,1*%
%TO.N,Net-(LED1-Pad1)*%
X198266650Y-190618500D03*
%TO.P,LED1,2*%
%TO.N,Net-(LED1-Pad2)*%
X197009350Y-190618500D03*
%TD*%
D39*
%TO.P,CY4,1*%
%TO.N,Net-(CY3-Pad1)*%
X157848000Y-98097500D03*
%TO.P,CY4,2*%
%TO.N,/Main_PDU_Block/SEC_RTN*%
X157848000Y-101047500D03*
%TD*%
D18*
%TO.P,R1,1*%
%TO.N,/V_P5V_RTN*%
X243780000Y-135445000D03*
%TO.P,R1,2*%
%TO.N,/V_TOF_RTN*%
X243780000Y-133795000D03*
%TD*%
D32*
%TO.P,C30,1*%
%TO.N,/Telemetry_Circuitry/V3p3*%
X239583100Y-156358500D03*
%TO.P,C30,2*%
%TO.N,/V_P5V_RTN*%
X238623100Y-156358500D03*
%TD*%
D16*
%TO.P,R15,1*%
%TO.N,Net-(U3--IN)*%
X142223000Y-143468499D03*
%TO.P,R15,2*%
%TO.N,Net-(U3-OUT)*%
X140573000Y-143468499D03*
%TD*%
D18*
%TO.P,R29,1*%
%TO.N,Net-(U9-+IN)*%
X256788000Y-128658500D03*
%TO.P,R29,2*%
%TO.N,/Telemetry_Circuitry/V_TOF_OUT*%
X256788000Y-127008500D03*
%TD*%
D58*
%TO.P,U9,1,OUT*%
%TO.N,Net-(U9-OUT)*%
X261888001Y-131513500D03*
D59*
%TO.P,U9,2,V-*%
%TO.N,/V_P5V_RTN*%
X260938000Y-131513500D03*
%TO.P,U9,3,+IN*%
%TO.N,Net-(U9-+IN)*%
X259987999Y-131513500D03*
%TO.P,U9,4,-IN*%
%TO.N,Net-(U9--IN)*%
X259987999Y-134133500D03*
%TO.P,U9,5,V+*%
%TO.N,/V_P5V*%
X261888001Y-134133500D03*
%TD*%
D60*
%TO.P,C1,1*%
%TO.N,Net-(C1-Pad1)*%
X133028000Y-100881000D03*
%TO.P,C1,2*%
%TO.N,/V_SEC_RTN*%
X133028000Y-95956000D03*
%TD*%
D40*
%TO.P,R31,1*%
%TO.N,Net-(U9-OUT)*%
X263828000Y-131138500D03*
%TO.P,R31,2*%
%TO.N,Net-(U9--IN)*%
X263828000Y-132788500D03*
%TD*%
D18*
%TO.P,R3,1*%
%TO.N,/Enable*%
X205938000Y-145843499D03*
%TO.P,R3,2*%
%TO.N,Net-(M1-Pad1)*%
X205938000Y-144193499D03*
%TD*%
D14*
%TO.P,TELEM_{RTN}1,1,1*%
%TO.N,/V_P5V_RTN*%
X161798000Y-162052000D03*
%TD*%
D61*
%TO.P,U2,1,+VIN*%
%TO.N,/V_TOF_Telemetry_PDU/V_POS*%
X164755500Y-189273500D03*
D62*
%TO.P,U2,2,-VIN*%
%TO.N,/V_TOF_Telemetry_PDU/V_RTN*%
X164755500Y-184173500D03*
%TO.P,U2,3,+VOUT*%
%TO.N,/V_P5V*%
X185055500Y-196973500D03*
%TO.P,U2,4,TRIM*%
%TO.N,unconnected-(U2-TRIM-Pad4)*%
X185055500Y-186773500D03*
%TO.P,U2,5,-VOUT*%
%TO.N,/V_P5V_RTN*%
X185055500Y-176573500D03*
%TO.P,U2,6,REMOTE*%
%TO.N,unconnected-(U2-REMOTE-Pad6)*%
X164755500Y-176573500D03*
%TD*%
D63*
%TO.N,/V_SEC_RTN*%
X171450000Y-165100000D03*
X165100000Y-127000000D03*
X177800000Y-215900000D03*
X165100000Y-133350000D03*
X247650000Y-215900000D03*
X215900000Y-209550000D03*
X266700000Y-158750000D03*
X146050000Y-127000000D03*
X177800000Y-139700000D03*
X279400000Y-114300000D03*
X177800000Y-76200000D03*
X146050000Y-171450000D03*
X114300000Y-158750000D03*
X254000000Y-203200000D03*
X222250000Y-177800000D03*
X139700000Y-127000000D03*
X139700000Y-120650000D03*
X133350000Y-63500000D03*
X247650000Y-133350000D03*
X120650000Y-158750000D03*
X165100000Y-139700000D03*
X120650000Y-203200000D03*
X196850000Y-139700000D03*
X203200000Y-63500000D03*
X127000000Y-88900000D03*
X133350000Y-209550000D03*
X234950000Y-215900000D03*
X222250000Y-203200000D03*
X222250000Y-215900000D03*
X260350000Y-82550000D03*
X209550000Y-63500000D03*
X190500000Y-133350000D03*
X184150000Y-127000000D03*
X152400000Y-63500000D03*
X254000000Y-88900000D03*
X266700000Y-196850000D03*
X273050000Y-120650000D03*
X196850000Y-133350000D03*
X203200000Y-165100000D03*
X171450000Y-158750000D03*
X222250000Y-190500000D03*
X241300000Y-215900000D03*
X133350000Y-120650000D03*
X285750000Y-184150000D03*
X171450000Y-133350000D03*
X146050000Y-133350000D03*
X209550000Y-165100000D03*
X165100000Y-203200000D03*
X215900000Y-63500000D03*
X158750000Y-114300000D03*
X184150000Y-114300000D03*
X133350000Y-114300000D03*
X127000000Y-69850000D03*
X177800000Y-158750000D03*
X171450000Y-215900000D03*
X146050000Y-63500000D03*
X260350000Y-165100000D03*
X165100000Y-209550000D03*
X177800000Y-69850000D03*
X228600000Y-190500000D03*
X260350000Y-171450000D03*
X171450000Y-127000000D03*
X133350000Y-76200000D03*
X254000000Y-171450000D03*
X241300000Y-196850000D03*
X209550000Y-209550000D03*
X165100000Y-120650000D03*
X171450000Y-63500000D03*
X285750000Y-215900000D03*
X273050000Y-127000000D03*
X222250000Y-139700000D03*
X177800000Y-209550000D03*
X222250000Y-152400000D03*
X285750000Y-120650000D03*
X196850000Y-215900000D03*
X222250000Y-196850000D03*
X152400000Y-114300000D03*
X165100000Y-82550000D03*
X266700000Y-184150000D03*
X266700000Y-146050000D03*
X234950000Y-203200000D03*
X234950000Y-63500000D03*
X152400000Y-165100000D03*
X152400000Y-120650000D03*
X196850000Y-171450000D03*
X260350000Y-215900000D03*
X152400000Y-158750000D03*
X171450000Y-209550000D03*
X254000000Y-177800000D03*
X241300000Y-209550000D03*
X266700000Y-203200000D03*
X247650000Y-152400000D03*
X241300000Y-171450000D03*
X228600000Y-139700000D03*
X241300000Y-165100000D03*
X190500000Y-69850000D03*
X152400000Y-203200000D03*
X228600000Y-184150000D03*
X260350000Y-203200000D03*
X196850000Y-177800000D03*
X273050000Y-171450000D03*
X247650000Y-177800000D03*
X254000000Y-69850000D03*
X139700000Y-203200000D03*
X203200000Y-209550000D03*
X285750000Y-165100000D03*
X285750000Y-177800000D03*
X190500000Y-63500000D03*
X273050000Y-69850000D03*
X285750000Y-196850000D03*
X177800000Y-127000000D03*
X247650000Y-196850000D03*
X215900000Y-190500000D03*
X158750000Y-133350000D03*
X158750000Y-177800000D03*
X285750000Y-152400000D03*
X177800000Y-165100000D03*
X247650000Y-171450000D03*
X165100000Y-76200000D03*
X190500000Y-165100000D03*
X247650000Y-63500000D03*
X285750000Y-114300000D03*
X254000000Y-190500000D03*
X146050000Y-209550000D03*
X228600000Y-177800000D03*
X139700000Y-114300000D03*
X171450000Y-139700000D03*
X254000000Y-158750000D03*
X279400000Y-165100000D03*
X158750000Y-203200000D03*
X273050000Y-203200000D03*
X215900000Y-203200000D03*
X266700000Y-171450000D03*
X279400000Y-101600000D03*
X177800000Y-203200000D03*
X139700000Y-158750000D03*
X273050000Y-76200000D03*
X254000000Y-196850000D03*
X171450000Y-69850000D03*
X247650000Y-203200000D03*
X146050000Y-203200000D03*
X247650000Y-146050000D03*
X247650000Y-184150000D03*
X196850000Y-63500000D03*
X158750000Y-76200000D03*
X215900000Y-177800000D03*
X209550000Y-184150000D03*
X133350000Y-158750000D03*
X215900000Y-158750000D03*
X190500000Y-158750000D03*
X260350000Y-76200000D03*
X114300000Y-165100000D03*
X234950000Y-190500000D03*
X266700000Y-69850000D03*
X279400000Y-177800000D03*
X266700000Y-127000000D03*
X133350000Y-69850000D03*
X190500000Y-171450000D03*
X260350000Y-88900000D03*
X279400000Y-190500000D03*
X209550000Y-158750000D03*
X152400000Y-215900000D03*
X285750000Y-63500000D03*
X165100000Y-171450000D03*
X133350000Y-165100000D03*
X139700000Y-69850000D03*
X114300000Y-209550000D03*
X133350000Y-203200000D03*
X279400000Y-82550000D03*
X254000000Y-76200000D03*
X158750000Y-171450000D03*
X190500000Y-76200000D03*
X127000000Y-158750000D03*
X273050000Y-184150000D03*
X228600000Y-209550000D03*
X127000000Y-171450000D03*
X184150000Y-165100000D03*
X234950000Y-177800000D03*
X228600000Y-63500000D03*
X222250000Y-63500000D03*
X215900000Y-184150000D03*
X260350000Y-184150000D03*
X260350000Y-190500000D03*
X120650000Y-215900000D03*
X254000000Y-165100000D03*
X184150000Y-120650000D03*
X152400000Y-127000000D03*
X273050000Y-190500000D03*
X209550000Y-171450000D03*
X254000000Y-215900000D03*
X158750000Y-209550000D03*
X152400000Y-133350000D03*
X254000000Y-184150000D03*
X203200000Y-158750000D03*
X228600000Y-158750000D03*
X273050000Y-177800000D03*
X203200000Y-203200000D03*
X273050000Y-82550000D03*
X133350000Y-215900000D03*
X273050000Y-107950000D03*
X114300000Y-69850000D03*
X273050000Y-63500000D03*
X203200000Y-171450000D03*
X139700000Y-76200000D03*
X260350000Y-120650000D03*
X152400000Y-209550000D03*
X285750000Y-171450000D03*
X266700000Y-114300000D03*
X152400000Y-76200000D03*
X158750000Y-69850000D03*
X127000000Y-177800000D03*
X190500000Y-203200000D03*
X285750000Y-209550000D03*
X273050000Y-88900000D03*
X285750000Y-158750000D03*
X120650000Y-165100000D03*
X279400000Y-196850000D03*
X228600000Y-203200000D03*
X127000000Y-127000000D03*
X254000000Y-82550000D03*
X133350000Y-127000000D03*
X203200000Y-190500000D03*
X114300000Y-63500000D03*
X228600000Y-215900000D03*
X285750000Y-133350000D03*
X266700000Y-120650000D03*
X184150000Y-133350000D03*
X266700000Y-190500000D03*
X273050000Y-196850000D03*
X158750000Y-165100000D03*
X241300000Y-133350000D03*
X139700000Y-88900000D03*
X139700000Y-133350000D03*
X254000000Y-209550000D03*
X209550000Y-215900000D03*
X203200000Y-177800000D03*
X266700000Y-63500000D03*
X285750000Y-190500000D03*
X234950000Y-133350000D03*
X285750000Y-146050000D03*
X241300000Y-184150000D03*
X146050000Y-76200000D03*
X209550000Y-203200000D03*
X266700000Y-152400000D03*
X196850000Y-165100000D03*
X209550000Y-190500000D03*
X190500000Y-209550000D03*
X260350000Y-146050000D03*
X222250000Y-184150000D03*
X234950000Y-196850000D03*
X279400000Y-171450000D03*
X177800000Y-120650000D03*
X184150000Y-69850000D03*
X234950000Y-152400000D03*
X203200000Y-196850000D03*
X266700000Y-215900000D03*
X273050000Y-215900000D03*
X171450000Y-82550000D03*
X260350000Y-63500000D03*
X273050000Y-114300000D03*
X203200000Y-139700000D03*
X158750000Y-158750000D03*
X209550000Y-177800000D03*
X127000000Y-120650000D03*
X254000000Y-63500000D03*
X279400000Y-184150000D03*
X241300000Y-152400000D03*
X120650000Y-76200000D03*
X133350000Y-171450000D03*
X184150000Y-203200000D03*
X171450000Y-203200000D03*
X127000000Y-82550000D03*
X279400000Y-69850000D03*
X120650000Y-63500000D03*
X184150000Y-76200000D03*
X127000000Y-203200000D03*
X215900000Y-215900000D03*
X279400000Y-76200000D03*
X152400000Y-171450000D03*
X146050000Y-165100000D03*
X285750000Y-69850000D03*
X260350000Y-127000000D03*
X241300000Y-177800000D03*
X266700000Y-88900000D03*
X285750000Y-107950000D03*
X158750000Y-196850000D03*
X247650000Y-209550000D03*
X171450000Y-120650000D03*
X171450000Y-114300000D03*
X146050000Y-114300000D03*
X260350000Y-69850000D03*
X146050000Y-215900000D03*
X177800000Y-133350000D03*
X146050000Y-158750000D03*
X273050000Y-209550000D03*
X222250000Y-209550000D03*
X146050000Y-120650000D03*
X260350000Y-107950000D03*
X254000000Y-101600000D03*
X260350000Y-177800000D03*
X215900000Y-196850000D03*
X158750000Y-63500000D03*
X285750000Y-203200000D03*
X241300000Y-63500000D03*
X260350000Y-101600000D03*
X127000000Y-114300000D03*
X279400000Y-203200000D03*
X196850000Y-209550000D03*
X165100000Y-63500000D03*
X127000000Y-196850000D03*
X165100000Y-165100000D03*
X266700000Y-209550000D03*
X266700000Y-165100000D03*
X285750000Y-82550000D03*
X285750000Y-76200000D03*
X139700000Y-165100000D03*
X266700000Y-177800000D03*
X165100000Y-215900000D03*
X209550000Y-196850000D03*
X158750000Y-215900000D03*
X133350000Y-82550000D03*
X127000000Y-165100000D03*
X158750000Y-120650000D03*
X196850000Y-158750000D03*
X165100000Y-114300000D03*
X171450000Y-76200000D03*
X234950000Y-165100000D03*
X254000000Y-107950000D03*
X177800000Y-63500000D03*
X222250000Y-133350000D03*
X184150000Y-158750000D03*
X285750000Y-101600000D03*
X120650000Y-209550000D03*
X146050000Y-69850000D03*
X139700000Y-82550000D03*
X171450000Y-171450000D03*
X133350000Y-88900000D03*
X260350000Y-114300000D03*
X241300000Y-203200000D03*
X222250000Y-158750000D03*
X139700000Y-171450000D03*
X158750000Y-82550000D03*
X114300000Y-203200000D03*
X139700000Y-63500000D03*
X228600000Y-152400000D03*
X152400000Y-69850000D03*
X177800000Y-82550000D03*
X114300000Y-76200000D03*
X203200000Y-215900000D03*
X247650000Y-165100000D03*
X260350000Y-158750000D03*
X285750000Y-127000000D03*
X139700000Y-209550000D03*
X120650000Y-69850000D03*
X165100000Y-69850000D03*
X260350000Y-209550000D03*
X234950000Y-171450000D03*
X177800000Y-114300000D03*
X234950000Y-209550000D03*
X260350000Y-196850000D03*
X241300000Y-190500000D03*
X285750000Y-139700000D03*
X260350000Y-152400000D03*
X234950000Y-184150000D03*
X158750000Y-127000000D03*
X273050000Y-165100000D03*
X139700000Y-215900000D03*
X234950000Y-139700000D03*
X266700000Y-76200000D03*
X266700000Y-82550000D03*
X279400000Y-120650000D03*
X196850000Y-203200000D03*
X165100000Y-158750000D03*
X146050000Y-82550000D03*
X228600000Y-196850000D03*
X127000000Y-190500000D03*
X247650000Y-190500000D03*
X190500000Y-215900000D03*
X158750000Y-139700000D03*
X114300000Y-215900000D03*
X127000000Y-76200000D03*
%TO.N,/Main_PDU_Block/V_RTN*%
X190700000Y-116410000D03*
X190700000Y-127620000D03*
X209038000Y-127618500D03*
%TO.N,/Main_PDU_Block/V_POS*%
X204650000Y-130960000D03*
X189280000Y-130960000D03*
D64*
%TO.N,/Main_PDU_Block/V_TOF_OUT*%
X262938000Y-93856000D03*
D63*
X267138000Y-96318500D03*
%TO.N,/V_TOF_RTN*%
X226822000Y-131572000D03*
X245338000Y-129418500D03*
X256810000Y-135910000D03*
X228854000Y-131572000D03*
D64*
%TO.N,GNDPWR*%
X237490000Y-121920000D03*
X232410000Y-76200000D03*
X237490000Y-96520000D03*
X222250000Y-86360000D03*
D63*
X161912000Y-87126500D03*
D64*
X212090000Y-91440000D03*
X232410000Y-91440000D03*
X207010000Y-91440000D03*
X212090000Y-76200000D03*
X232410000Y-106680000D03*
X212090000Y-96520000D03*
X222250000Y-81280000D03*
X212090000Y-86360000D03*
X222250000Y-91440000D03*
X227330000Y-116840000D03*
X222250000Y-121920000D03*
X212090000Y-106680000D03*
X222250000Y-116840000D03*
X227330000Y-106680000D03*
X222250000Y-96520000D03*
X207010000Y-111760000D03*
X217170000Y-81280000D03*
X217170000Y-116840000D03*
X222250000Y-101600000D03*
X222250000Y-71120000D03*
X217170000Y-91440000D03*
X227330000Y-71120000D03*
X232410000Y-101600000D03*
X232410000Y-96520000D03*
X237490000Y-91440000D03*
X207010000Y-101600000D03*
X237490000Y-101600000D03*
X207010000Y-121920000D03*
X212090000Y-121920000D03*
X207010000Y-106680000D03*
X227330000Y-81280000D03*
X212090000Y-111760000D03*
D63*
X161912000Y-105668500D03*
D64*
X217170000Y-96520000D03*
X232410000Y-111760000D03*
X207010000Y-71120000D03*
X237490000Y-81280000D03*
X217170000Y-86360000D03*
X227330000Y-111760000D03*
X237490000Y-106680000D03*
X237490000Y-71120000D03*
X222250000Y-111760000D03*
X207010000Y-96520000D03*
X232410000Y-86360000D03*
X232410000Y-81280000D03*
X207010000Y-86360000D03*
X237490000Y-116840000D03*
X207010000Y-76200000D03*
X232410000Y-121920000D03*
X217170000Y-121920000D03*
X227330000Y-76200000D03*
X217170000Y-76200000D03*
X222250000Y-106680000D03*
X227330000Y-86360000D03*
X217170000Y-106680000D03*
X237490000Y-76200000D03*
X217170000Y-71120000D03*
X237490000Y-111760000D03*
X227330000Y-91440000D03*
D63*
X179638000Y-170418500D03*
D64*
X212090000Y-101600000D03*
X232410000Y-71120000D03*
X237490000Y-86360000D03*
X207010000Y-116840000D03*
X207010000Y-81280000D03*
X217170000Y-101600000D03*
X212090000Y-71120000D03*
D63*
X240638000Y-129418500D03*
D64*
X222250000Y-76200000D03*
X212090000Y-81280000D03*
X227330000Y-101600000D03*
X227330000Y-96520000D03*
X217170000Y-111760000D03*
X227330000Y-121920000D03*
X212090000Y-116840000D03*
X232410000Y-116840000D03*
D63*
%TO.N,/V_P5V_RTN*%
X260938000Y-130003500D03*
X212778000Y-169573500D03*
X226878000Y-169348500D03*
X266138000Y-135753500D03*
X265148000Y-98728500D03*
X184638000Y-170418500D03*
X267608000Y-107598500D03*
X131838000Y-134218500D03*
X144978000Y-140938500D03*
X207938000Y-147218499D03*
X243780000Y-137170000D03*
X226822000Y-137414000D03*
X231296500Y-165678500D03*
X238903100Y-157558500D03*
X139398000Y-146248499D03*
X150078000Y-150048500D03*
X267988000Y-134308500D03*
X273888000Y-99808500D03*
X228854000Y-137414000D03*
%TO.N,/V_P5V*%
X224978000Y-172648500D03*
X147408000Y-145338500D03*
X261888001Y-135753500D03*
X268830000Y-155119799D03*
X202510000Y-186200000D03*
X208438000Y-141018500D03*
%TO.N,/Telemetry_Circuitry/V3p3*%
X240703100Y-155058500D03*
X135938000Y-134218500D03*
X239893100Y-148188500D03*
X265148000Y-100778500D03*
X235763100Y-148178500D03*
X221378000Y-164148500D03*
X144988000Y-145298498D03*
%TO.N,/Main_PDU_Block/SEC_RTN*%
X157848000Y-102874500D03*
X157848000Y-89666500D03*
%TO.N,/Main_PDU_Block/Enable*%
X203038000Y-129718500D03*
X192080000Y-129720000D03*
%TO.N,/Telemetry_Circuitry/V_TOF_OUT*%
X260130000Y-137750000D03*
X256748000Y-125818500D03*
X272038000Y-96318500D03*
%TO.N,Net-(U8B-IN2+)*%
X253230000Y-111090000D03*
%TD*%
D65*
%TO.N,Net-(C1-Pad1)*%
X136838000Y-100881000D02*
X133028000Y-100881000D01*
D66*
%TO.N,/V_SEC_RTN*%
X133028000Y-95956000D02*
X122827500Y-95956000D01*
X134463500Y-94520500D02*
X145208000Y-94520500D01*
X122720000Y-95848500D02*
X122720000Y-93078500D01*
X133028000Y-95956000D02*
X134463500Y-94520500D01*
X122827500Y-95956000D02*
X122720000Y-95848500D01*
%TO.N,/Main_PDU_Block/V_RTN*%
X187638000Y-110820500D02*
X187645500Y-110828000D01*
X187638000Y-101618500D02*
X187638000Y-110820500D01*
X185138000Y-101618500D02*
X187638000Y-101618500D01*
D67*
X207963000Y-128993500D02*
X209038000Y-128993500D01*
X215173000Y-130153500D02*
X215173000Y-132194300D01*
D66*
X177888000Y-98582500D02*
X175628000Y-100842500D01*
D67*
X209038000Y-128993500D02*
X214013000Y-128993500D01*
X214013000Y-128993500D02*
X215173000Y-130153500D01*
D66*
X179946000Y-98582500D02*
X182102000Y-98582500D01*
X179946000Y-98582500D02*
X177888000Y-98582500D01*
X187645500Y-110828000D02*
X190717500Y-113900000D01*
D67*
X207737999Y-129218501D02*
X207963000Y-128993500D01*
X209038000Y-128993500D02*
X209038000Y-127618500D01*
D66*
X190717500Y-113900000D02*
X198572500Y-113900000D01*
D67*
X206713000Y-129218501D02*
X207737999Y-129218501D01*
D66*
X182102000Y-98582500D02*
X185138000Y-101618500D01*
X175628000Y-100842500D02*
X172326000Y-100842500D01*
%TO.N,/Main_PDU_Block/V_POS*%
X179946000Y-93657500D02*
X177333000Y-93657500D01*
D67*
X205463000Y-131773000D02*
X204650000Y-130960000D01*
D66*
X177333000Y-93657500D02*
X175374000Y-91698500D01*
X187645500Y-91688500D02*
X184528000Y-91688500D01*
X191272500Y-78340000D02*
X198572500Y-78340000D01*
X187645500Y-81967000D02*
X191272500Y-78340000D01*
X182559000Y-93657500D02*
X179946000Y-93657500D01*
X187645500Y-91688500D02*
X187645500Y-81967000D01*
X175374000Y-91698500D02*
X172326000Y-91698500D01*
X184528000Y-91688500D02*
X182559000Y-93657500D01*
D67*
X207413000Y-132418500D02*
X205463000Y-132418500D01*
X205463000Y-132418500D02*
X205463000Y-131773000D01*
D66*
%TO.N,Net-(C3-Pad2)*%
X187645500Y-99676000D02*
X187645500Y-96613500D01*
D68*
%TO.N,/Main_PDU_Block/V_TOF_OUT*%
X262938000Y-93856000D02*
X268093000Y-93856000D01*
D67*
X268130500Y-95326000D02*
X268130500Y-93818500D01*
D68*
X268093000Y-93856000D02*
X268130500Y-93818500D01*
D67*
X267138000Y-96318500D02*
X268130500Y-95326000D01*
%TO.N,/V_TOF_RTN*%
X256808000Y-133158500D02*
X256808000Y-137747000D01*
X243780000Y-133795000D02*
X243780000Y-129451500D01*
X226822000Y-133845000D02*
X226822000Y-131572000D01*
X228854000Y-133795000D02*
X228854000Y-131572000D01*
X256808000Y-137747000D02*
X256800000Y-137755000D01*
X243813000Y-129418500D02*
X245338000Y-129418500D01*
X243780000Y-129451500D02*
X243813000Y-129418500D01*
%TO.N,GNDPWR*%
X181363000Y-170418500D02*
X179638000Y-170418500D01*
D69*
X161912000Y-103841500D02*
X161912000Y-105668500D01*
X161912000Y-88699500D02*
X161912000Y-87126500D01*
D67*
X242263000Y-129418500D02*
X240638000Y-129418500D01*
D70*
%TO.N,Net-(C12-Pad1)*%
X136508000Y-189586000D02*
X132270500Y-189586000D01*
X136508000Y-189586000D02*
X136508000Y-191573500D01*
X132270500Y-189586000D02*
X132208000Y-189648500D01*
X139059000Y-194124500D02*
X143408000Y-194124500D01*
X139059000Y-194124500D02*
X136508000Y-191573500D01*
%TO.N,/V_SEC_Telem_RTN*%
X136508000Y-183361000D02*
X123062500Y-183361000D01*
X136508000Y-179180000D02*
X136398000Y-179070000D01*
X122720000Y-192013500D02*
X122720000Y-189243500D01*
X123062500Y-183361000D02*
X122720000Y-183703500D01*
X136508000Y-183361000D02*
X136508000Y-179180000D01*
X143408000Y-179024500D02*
X136443500Y-179024500D01*
X122720000Y-183703500D02*
X122720000Y-180933500D01*
D67*
X136165500Y-183703500D02*
X136508000Y-183361000D01*
D70*
X136443500Y-179024500D02*
X136398000Y-179070000D01*
%TO.N,/V_TOF_Telemetry_PDU/V_POS*%
X159708000Y-187723500D02*
X163205500Y-187723500D01*
X153008000Y-194124500D02*
X157057000Y-194124500D01*
X163205500Y-187723500D02*
X164755500Y-189273500D01*
X157057000Y-194124500D02*
X159708000Y-191473500D01*
X159708000Y-191473500D02*
X159708000Y-187723500D01*
%TO.N,/V_TOF_Telemetry_PDU/V_RTN*%
X159708000Y-181573500D02*
X159708000Y-185023500D01*
X153008000Y-179024500D02*
X157159000Y-179024500D01*
X157159000Y-179024500D02*
X159708000Y-181573500D01*
X159708000Y-185023500D02*
X163905500Y-185023500D01*
X163905500Y-185023500D02*
X164755500Y-184173500D01*
D67*
%TO.N,/V_P5V_RTN*%
X133063000Y-135243500D02*
X133063000Y-134218500D01*
X267978000Y-132983500D02*
X268713000Y-132983500D01*
D71*
X209338001Y-145418498D02*
X210438000Y-145418498D01*
X197785001Y-186755000D02*
X197785001Y-185630001D01*
D67*
X182913000Y-170418500D02*
X184638000Y-170418500D01*
X144978000Y-142233500D02*
X144978000Y-140938500D01*
X214178000Y-169573500D02*
X212778000Y-169573500D01*
D72*
X192288000Y-184438500D02*
X192288000Y-179968500D01*
X188893000Y-176573500D02*
X185055500Y-176573500D01*
D67*
X238337999Y-154093399D02*
X238623100Y-154378500D01*
D71*
X197360000Y-184430000D02*
X192296500Y-184430000D01*
D67*
X231276500Y-165658500D02*
X231296500Y-165678500D01*
X140968000Y-146248499D02*
X139398000Y-146248499D01*
X238903100Y-157558500D02*
X238623100Y-157278500D01*
X269108001Y-132588499D02*
X270113000Y-132588499D01*
X216028000Y-169573500D02*
X216078000Y-169523500D01*
D71*
X207938000Y-145843499D02*
X207938000Y-147218499D01*
D67*
X260938000Y-131513500D02*
X260938000Y-130003500D01*
D71*
X208913000Y-145843499D02*
X209338001Y-145418498D01*
D67*
X229429000Y-165658500D02*
X231276500Y-165658500D01*
X238623100Y-157278500D02*
X238623100Y-156358500D01*
D71*
X197785001Y-185630001D02*
X197360000Y-185205000D01*
D67*
X264913000Y-135753500D02*
X266138000Y-135753500D01*
X226822000Y-135395000D02*
X226822000Y-137414000D01*
X228854000Y-135445000D02*
X228854000Y-137414000D01*
X133063000Y-134218500D02*
X131838000Y-134218500D01*
D71*
X192296500Y-184430000D02*
X192288000Y-184438500D01*
D67*
X133338000Y-136824700D02*
X133338000Y-135518500D01*
X226878000Y-170861000D02*
X226878000Y-169348500D01*
X267978000Y-132983500D02*
X267978000Y-134298500D01*
X268713000Y-132983500D02*
X269108001Y-132588499D01*
X148803000Y-150048500D02*
X150078000Y-150048500D01*
X243780000Y-135445000D02*
X243780000Y-137170000D01*
X267978000Y-134298500D02*
X267988000Y-134308500D01*
X238337999Y-153179400D02*
X238337999Y-154093399D01*
D71*
X197360000Y-185205000D02*
X197360000Y-184430000D01*
D72*
X192288000Y-179968500D02*
X188893000Y-176573500D01*
D67*
X133338000Y-135518500D02*
X133063000Y-135243500D01*
X238623100Y-154378500D02*
X238623100Y-156358500D01*
D71*
X207938000Y-145843499D02*
X208913000Y-145843499D01*
D67*
X214178000Y-169573500D02*
X216028000Y-169573500D01*
%TO.N,/V_P5V*%
X270325000Y-155119799D02*
X268830000Y-155119799D01*
D71*
X210013000Y-141018500D02*
X208438000Y-141018500D01*
D67*
X149354200Y-145333500D02*
X147413000Y-145333500D01*
X261888001Y-135753500D02*
X263363000Y-135753500D01*
D72*
X185055500Y-196973500D02*
X188683000Y-196973500D01*
D71*
X191338000Y-192331000D02*
X194850500Y-192331000D01*
D67*
X261888001Y-134133500D02*
X261888001Y-135753500D01*
X202510000Y-184430000D02*
X202510000Y-186200000D01*
X226873000Y-172641000D02*
X226878000Y-172636000D01*
D72*
X191338000Y-194318500D02*
X191338000Y-192331000D01*
X188683000Y-196973500D02*
X191338000Y-194318500D01*
X194850500Y-192331000D02*
X194938000Y-192243500D01*
X223689400Y-172641000D02*
X226873000Y-172641000D01*
D67*
X147413000Y-145333500D02*
X147408000Y-145338500D01*
D72*
%TO.N,/Telemetry_Circuitry/V3p3*%
X221378000Y-165648500D02*
X221378000Y-164148500D01*
D67*
X236803100Y-148078500D02*
X235863100Y-148078500D01*
D72*
X226719000Y-165648500D02*
X226729000Y-165658500D01*
D67*
X143588000Y-145298498D02*
X144988000Y-145298498D01*
X134288001Y-136824700D02*
X134288001Y-135668499D01*
X144988000Y-143793500D02*
X144978000Y-143783500D01*
X239583100Y-155058500D02*
X239583100Y-156358500D01*
X134613000Y-135343500D02*
X134613000Y-134218500D01*
X236837999Y-148113399D02*
X236803100Y-148078500D01*
X144988000Y-145298498D02*
X144988000Y-143793500D01*
X238838001Y-148937600D02*
X238838001Y-148233599D01*
X238838001Y-148233599D02*
X238943100Y-148128500D01*
X238838001Y-153179400D02*
X238838001Y-153893401D01*
X134288001Y-135668499D02*
X134613000Y-135343500D01*
X238943100Y-148128500D02*
X239833100Y-148128500D01*
X239583100Y-154638500D02*
X239583100Y-155058500D01*
X239833100Y-148128500D02*
X239893100Y-148188500D01*
X235863100Y-148078500D02*
X235763100Y-148178500D01*
X240703100Y-155058500D02*
X239583100Y-155058500D01*
X236837999Y-148937600D02*
X236837999Y-148113399D01*
D72*
X221378000Y-172641000D02*
X221378000Y-165648500D01*
D67*
X238838001Y-153893401D02*
X239583100Y-154638500D01*
D72*
X221378000Y-165648500D02*
X226719000Y-165648500D01*
D67*
X134613000Y-134218500D02*
X135938000Y-134218500D01*
%TO.N,Net-(U5-SET)*%
X219066600Y-172641000D02*
X218170500Y-172641000D01*
X218170500Y-172641000D02*
X216703000Y-171173500D01*
X214228000Y-171173500D02*
X214178000Y-171123500D01*
X216703000Y-171173500D02*
X216078000Y-171173500D01*
X216078000Y-171173500D02*
X214228000Y-171173500D01*
%TO.N,Net-(U8A-IN1-)*%
X236973100Y-156288500D02*
X236973100Y-155118500D01*
X237003100Y-155088500D02*
X237003100Y-154658500D01*
X236973100Y-155118500D02*
X237003100Y-155088500D01*
X237003100Y-154658500D02*
X237338001Y-154323599D01*
X237338001Y-154323599D02*
X237338001Y-153179400D01*
%TO.N,Net-(U8A-OUT1)*%
X235983100Y-155088500D02*
X234258100Y-155088500D01*
X236837999Y-154233601D02*
X236837999Y-153179400D01*
X236013100Y-155118500D02*
X235983100Y-155088500D01*
X235983100Y-155088500D02*
X236837999Y-154233601D01*
X236013100Y-156288500D02*
X236013100Y-155118500D01*
%TO.N,Net-(U8B-IN2-)*%
X238103100Y-147688500D02*
X238103100Y-146838500D01*
X237838000Y-148937600D02*
X237838000Y-147953600D01*
X238103100Y-145648500D02*
X238053100Y-145598500D01*
X237838000Y-147953600D02*
X238103100Y-147688500D01*
X238103100Y-146838500D02*
X238103100Y-145648500D01*
%TO.N,Net-(U8B-OUT2)*%
X237083100Y-147658500D02*
X237083100Y-146838500D01*
X237083100Y-146838500D02*
X237083100Y-145608500D01*
X237338001Y-148937600D02*
X237338001Y-147913401D01*
X237338001Y-147913401D02*
X237083100Y-147658500D01*
X237083100Y-146838500D02*
X234278100Y-146838500D01*
X237083100Y-145608500D02*
X237093100Y-145598500D01*
D65*
%TO.N,Net-(CY1-Pad1)*%
X161912000Y-91698500D02*
X166826000Y-91698500D01*
X157848000Y-94443500D02*
X160437000Y-94443500D01*
X161912000Y-92968500D02*
X161912000Y-91698500D01*
X160437000Y-94443500D02*
X161912000Y-92968500D01*
D67*
X152905000Y-94443500D02*
X152828000Y-94520500D01*
D65*
X157848000Y-94443500D02*
X152905000Y-94443500D01*
D69*
%TO.N,/Main_PDU_Block/SEC_RTN*%
X157848000Y-101047500D02*
X157848000Y-102874500D01*
X157848000Y-91493500D02*
X157848000Y-89666500D01*
D65*
%TO.N,Net-(CY3-Pad1)*%
X160437000Y-98097500D02*
X161912000Y-99572500D01*
X166777000Y-100891500D02*
X166826000Y-100842500D01*
X157848000Y-98097500D02*
X152905000Y-98097500D01*
X161912000Y-99572500D02*
X161912000Y-100891500D01*
X157848000Y-98097500D02*
X160437000Y-98097500D01*
X161912000Y-100891500D02*
X166777000Y-100891500D01*
D67*
X152905000Y-98097500D02*
X152828000Y-98020500D01*
D72*
%TO.N,Net-(D1-K)*%
X191338000Y-186398500D02*
X191338000Y-190506000D01*
D70*
%TO.N,/V_SEC_IN_Telem*%
X122053000Y-194173500D02*
X119880000Y-192000500D01*
X122053000Y-194173500D02*
X131435500Y-194173500D01*
X131435500Y-194173500D02*
X132080000Y-194818000D01*
X119880000Y-190628500D02*
X119880000Y-182318500D01*
X132208000Y-194045500D02*
X132080000Y-194173500D01*
D67*
X132208000Y-194690000D02*
X132080000Y-194818000D01*
D70*
X132208000Y-191298500D02*
X132208000Y-194690000D01*
X119880000Y-192000500D02*
X119880000Y-190628500D01*
D66*
%TO.N,/V_SEC_IN*%
X121538000Y-107418500D02*
X119880000Y-105760500D01*
X119880000Y-105760500D02*
X119880000Y-94463500D01*
X140238000Y-106218500D02*
X140238000Y-100888500D01*
X121538000Y-107418500D02*
X139038000Y-107418500D01*
X139038000Y-107418500D02*
X140238000Y-106218500D01*
D67*
%TO.N,/i_OUT_TELEM*%
X216938000Y-146838500D02*
X216928000Y-146848500D01*
X216928000Y-146848500D02*
X216898000Y-146848500D01*
X216898000Y-146848500D02*
X210728000Y-153018500D01*
X232628100Y-146838500D02*
X216938000Y-146838500D01*
X210728000Y-153018500D02*
X138368000Y-153018500D01*
X122748500Y-144888500D02*
X122720000Y-144860000D01*
X130238000Y-144888500D02*
X122748500Y-144888500D01*
X138368000Y-153018500D02*
X130238000Y-144888500D01*
%TO.N,/V_OUT_TELEM*%
X133658000Y-155088500D02*
X128868000Y-150298500D01*
X117560000Y-147930500D02*
X117560000Y-140255000D01*
X119928000Y-150298500D02*
X117560000Y-147930500D01*
X128868000Y-150298500D02*
X119928000Y-150298500D01*
X232608100Y-155088500D02*
X133658000Y-155088500D01*
X117560000Y-140255000D02*
X119880000Y-137935000D01*
%TO.N,/TEMP_TELEM*%
X136753000Y-143468499D02*
X119886501Y-143468499D01*
X119886501Y-143468499D02*
X119880000Y-143475000D01*
%TO.N,/Enable+*%
X131283098Y-136824700D02*
X130314298Y-137793500D01*
X123963500Y-137793500D02*
X122720000Y-136550000D01*
X130314298Y-137793500D02*
X123963500Y-137793500D01*
X132387999Y-136824700D02*
X131283098Y-136824700D01*
%TO.N,/Enable-*%
X131283098Y-139212300D02*
X130314298Y-138243500D01*
X132387999Y-139212300D02*
X131283098Y-139212300D01*
X130314298Y-138243500D02*
X123796500Y-138243500D01*
X123796500Y-138243500D02*
X122720000Y-139320000D01*
D71*
%TO.N,Net-(LED1-Pad2)*%
X194938000Y-190593500D02*
X196984350Y-190593500D01*
D67*
X196984350Y-190593500D02*
X197009350Y-190618500D01*
%TO.N,Net-(LED1-Pad1)*%
X198285000Y-188105000D02*
X198266650Y-188123350D01*
X198266650Y-188123350D02*
X198266650Y-190618500D01*
D71*
%TO.N,Net-(M1-Pad3)*%
X211788000Y-144918499D02*
X213437999Y-144918499D01*
X213438000Y-144918500D02*
X215173000Y-143183500D01*
D67*
X213437999Y-144918499D02*
X213438000Y-144918500D01*
D71*
X215173000Y-143183500D02*
X215173000Y-138442700D01*
D67*
%TO.N,Net-(M1-Pad1)*%
X209138001Y-144418500D02*
X210438000Y-144418500D01*
X207938000Y-144193499D02*
X208913000Y-144193499D01*
X205938000Y-144193499D02*
X207938000Y-144193499D01*
X208913000Y-144193499D02*
X209138001Y-144418500D01*
%TO.N,/Main_PDU_Block/Enable*%
X203813000Y-131593500D02*
X203038000Y-130818500D01*
X203813000Y-132418500D02*
X203813000Y-131593500D01*
X205363000Y-129718500D02*
X203038000Y-129718500D01*
X203038000Y-130818500D02*
X203038000Y-129718500D01*
%TO.N,Net-(M2-Pad1)*%
X208063000Y-130643500D02*
X209038000Y-130643500D01*
X206713000Y-130218499D02*
X207637999Y-130218499D01*
X213903000Y-130983500D02*
X213903000Y-132194300D01*
X209038000Y-130643500D02*
X209038000Y-132393500D01*
X209038000Y-130643500D02*
X213563000Y-130643500D01*
X209038000Y-132393500D02*
X209063000Y-132418500D01*
X213563000Y-130643500D02*
X213903000Y-130983500D01*
X207637999Y-130218499D02*
X208063000Y-130643500D01*
D71*
%TO.N,Net-(M3-Pad1)*%
X198784999Y-186755000D02*
X198784999Y-185630001D01*
X199010000Y-184430000D02*
X200860000Y-184430000D01*
X198784999Y-185630001D02*
X199010000Y-185405000D01*
X199010000Y-185405000D02*
X199010000Y-184430000D01*
D67*
%TO.N,Net-(M4-Pad1)*%
X267978000Y-130218500D02*
X267213000Y-129453500D01*
X268633000Y-131333500D02*
X268888001Y-131588501D01*
X267978000Y-131333500D02*
X267978000Y-130218500D01*
X267978000Y-131333500D02*
X268633000Y-131333500D01*
X268888001Y-131588501D02*
X270113000Y-131588501D01*
X267213000Y-129453500D02*
X265473001Y-129453500D01*
%TO.N,Net-(M4-Pad3)*%
X271463000Y-132088500D02*
X276361701Y-132088500D01*
X276361701Y-132088500D02*
X278500000Y-129950201D01*
%TO.N,Net-(P1-Pad1)*%
X271975000Y-155119799D02*
X278329799Y-155119799D01*
X278329799Y-155119799D02*
X278370000Y-155160000D01*
%TO.N,/Telemetry_Circuitry/V_TOF_OUT*%
X258620000Y-137745000D02*
X260125000Y-137745000D01*
X284168000Y-93818500D02*
X284238000Y-93748500D01*
X284168000Y-93818500D02*
X284168000Y-108682000D01*
X271055500Y-95336000D02*
X271055500Y-93818500D01*
X256748000Y-114012000D02*
X256748000Y-125818500D01*
X259490000Y-111270000D02*
X256748000Y-114012000D01*
X281580000Y-111270000D02*
X259490000Y-111270000D01*
X272038000Y-96318500D02*
X271055500Y-95336000D01*
X256748000Y-125818500D02*
X256748000Y-126968500D01*
X284168000Y-108682000D02*
X281580000Y-111270000D01*
X260125000Y-137745000D02*
X260130000Y-137750000D01*
X256748000Y-126968500D02*
X256788000Y-127008500D01*
D68*
X271055500Y-93818500D02*
X284168000Y-93818500D01*
D71*
%TO.N,Net-(Q1-Pad1)*%
X212838000Y-141018500D02*
X213903000Y-139953500D01*
X213903000Y-139953500D02*
X213903000Y-138442700D01*
X211663000Y-141018500D02*
X212838000Y-141018500D01*
D67*
%TO.N,/Enable*%
X161193499Y-145843499D02*
X154568500Y-139218500D01*
X205938000Y-145843499D02*
X161193499Y-145843499D01*
X154568500Y-139218500D02*
X142063000Y-139218500D01*
%TO.N,Net-(U3-OUT)*%
X139538000Y-143468499D02*
X139538000Y-144778499D01*
X139538000Y-144778499D02*
X140057999Y-145298498D01*
X140573000Y-143468499D02*
X139538000Y-143468499D01*
X140057999Y-145298498D02*
X140968000Y-145298498D01*
X139538000Y-143468499D02*
X138403000Y-143468499D01*
%TO.N,Net-(U3--IN)*%
X142818001Y-147198500D02*
X142223000Y-146603499D01*
X142223000Y-146603499D02*
X142223000Y-143468499D01*
X143588000Y-147198500D02*
X142818001Y-147198500D01*
%TO.N,Net-(U3-+IN)*%
X147913000Y-146603500D02*
X149354200Y-146603500D01*
X147153000Y-150048500D02*
X147153000Y-147363500D01*
X139638000Y-149318500D02*
X140368000Y-150048500D01*
X147153000Y-147363500D02*
X147913000Y-146603500D01*
X140368000Y-150048500D02*
X147153000Y-150048500D01*
X139638000Y-147368500D02*
X139638000Y-149318500D01*
X140968000Y-147198500D02*
X139808000Y-147198500D01*
X139808000Y-147198500D02*
X139638000Y-147368500D01*
%TO.N,Net-(U6-R)*%
X140406800Y-139212300D02*
X140413000Y-139218500D01*
X134288001Y-139212300D02*
X140406800Y-139212300D01*
%TO.N,Net-(U8A-IN1+)*%
X258623500Y-139391500D02*
X258620000Y-139395000D01*
X256800000Y-139405000D02*
X258610000Y-139405000D01*
X237838000Y-153179400D02*
X237838000Y-159203400D01*
X256800000Y-150240000D02*
X256800000Y-139405000D01*
X247836600Y-159203400D02*
X256800000Y-150240000D01*
X237838000Y-159203400D02*
X247836600Y-159203400D01*
X258610000Y-139405000D02*
X258620000Y-139395000D01*
%TO.N,Net-(U8B-IN2+)*%
X253228000Y-133129286D02*
X253228000Y-126868500D01*
X238337999Y-148019287D02*
X253228000Y-133129286D01*
X253228000Y-126868500D02*
X253230000Y-111090000D01*
X238337999Y-148937600D02*
X238337999Y-148019287D01*
X253230000Y-111090000D02*
X253228000Y-111092000D01*
%TO.N,Net-(U9-+IN)*%
X256808000Y-131508500D02*
X256808000Y-130033500D01*
X259987999Y-130733499D02*
X259987999Y-131513500D01*
X256808000Y-130033500D02*
X259288000Y-130033500D01*
X256808000Y-130033500D02*
X256808000Y-128678500D01*
X259288000Y-130033500D02*
X259987999Y-130733499D01*
X256808000Y-128678500D02*
X256788000Y-128658500D01*
%TO.N,Net-(U9--IN)*%
X260443000Y-132788500D02*
X263828000Y-132788500D01*
X259987999Y-134133500D02*
X259987999Y-133243501D01*
X259987999Y-133243501D02*
X260443000Y-132788500D01*
%TO.N,Net-(U9-OUT)*%
X263828000Y-131138500D02*
X263828000Y-129458499D01*
X262368000Y-129453500D02*
X261888001Y-129933499D01*
X263823001Y-129453500D02*
X262368000Y-129453500D01*
X263828000Y-129458499D02*
X263823001Y-129453500D01*
X261888001Y-129933499D02*
X261888001Y-131513500D01*
D66*
%TO.N,Net-(F1-Pad2)*%
X145208000Y-98020500D02*
X136902500Y-98020500D01*
D67*
X136902500Y-98020500D02*
X136838000Y-97956000D01*
%TD*%
%TA.AperFunction,Conductor*%
%TO.N,GNDPWR*%
G36*
X250133039Y-66059685D02*
G01*
X250178794Y-66112489D01*
X250190000Y-66164000D01*
X250190000Y-73536000D01*
X250170315Y-73603039D01*
X250117511Y-73648794D01*
X250066000Y-73660000D01*
X242570000Y-73660000D01*
X242570000Y-118110000D01*
X251336000Y-118110000D01*
X251403039Y-118129685D01*
X251448794Y-118182489D01*
X251460000Y-118234000D01*
X251460000Y-125606000D01*
X251440315Y-125673039D01*
X251387511Y-125718794D01*
X251336000Y-125730000D01*
X194434000Y-125730000D01*
X194366961Y-125710315D01*
X194321206Y-125657511D01*
X194310000Y-125606000D01*
X194310000Y-121388872D01*
X196572000Y-121388872D01*
X196572000Y-121651127D01*
X196598623Y-121853339D01*
X196606230Y-121911116D01*
X196674102Y-122164418D01*
X196674105Y-122164428D01*
X196774453Y-122406690D01*
X196774458Y-122406700D01*
X196905575Y-122633803D01*
X197065218Y-122841851D01*
X197065226Y-122841860D01*
X197250640Y-123027274D01*
X197250648Y-123027281D01*
X197458696Y-123186924D01*
X197685799Y-123318041D01*
X197685809Y-123318046D01*
X197928071Y-123418394D01*
X197928081Y-123418398D01*
X198181384Y-123486270D01*
X198441380Y-123520500D01*
X198441387Y-123520500D01*
X198703613Y-123520500D01*
X198703620Y-123520500D01*
X198963616Y-123486270D01*
X199216919Y-123418398D01*
X199459197Y-123318043D01*
X199686303Y-123186924D01*
X199894351Y-123027282D01*
X199894355Y-123027277D01*
X199894360Y-123027274D01*
X200079774Y-122841860D01*
X200079777Y-122841855D01*
X200079782Y-122841851D01*
X200239424Y-122633803D01*
X200370543Y-122406697D01*
X200470898Y-122164419D01*
X200538770Y-121911116D01*
X200573000Y-121651120D01*
X200573000Y-121388880D01*
X200572999Y-121388872D01*
X244822000Y-121388872D01*
X244822000Y-121651127D01*
X244848623Y-121853339D01*
X244856230Y-121911116D01*
X244924102Y-122164418D01*
X244924105Y-122164428D01*
X245024453Y-122406690D01*
X245024458Y-122406700D01*
X245155575Y-122633803D01*
X245315218Y-122841851D01*
X245315226Y-122841860D01*
X245500640Y-123027274D01*
X245500648Y-123027281D01*
X245708696Y-123186924D01*
X245935799Y-123318041D01*
X245935809Y-123318046D01*
X246178071Y-123418394D01*
X246178081Y-123418398D01*
X246431384Y-123486270D01*
X246691380Y-123520500D01*
X246691387Y-123520500D01*
X246953613Y-123520500D01*
X246953620Y-123520500D01*
X247213616Y-123486270D01*
X247466919Y-123418398D01*
X247709197Y-123318043D01*
X247936303Y-123186924D01*
X248144351Y-123027282D01*
X248144355Y-123027277D01*
X248144360Y-123027274D01*
X248329774Y-122841860D01*
X248329777Y-122841855D01*
X248329782Y-122841851D01*
X248489424Y-122633803D01*
X248620543Y-122406697D01*
X248720898Y-122164419D01*
X248788770Y-121911116D01*
X248823000Y-121651120D01*
X248823000Y-121388880D01*
X248788770Y-121128884D01*
X248720898Y-120875581D01*
X248720894Y-120875571D01*
X248620546Y-120633309D01*
X248620541Y-120633299D01*
X248489424Y-120406196D01*
X248329781Y-120198148D01*
X248329774Y-120198140D01*
X248144360Y-120012726D01*
X248144351Y-120012718D01*
X247936303Y-119853075D01*
X247709200Y-119721958D01*
X247709190Y-119721953D01*
X247466928Y-119621605D01*
X247466921Y-119621603D01*
X247466919Y-119621602D01*
X247213616Y-119553730D01*
X247155839Y-119546123D01*
X246953627Y-119519500D01*
X246953620Y-119519500D01*
X246691380Y-119519500D01*
X246691372Y-119519500D01*
X246460272Y-119549926D01*
X246431384Y-119553730D01*
X246178081Y-119621602D01*
X246178071Y-119621605D01*
X245935809Y-119721953D01*
X245935799Y-119721958D01*
X245708696Y-119853075D01*
X245500648Y-120012718D01*
X245315218Y-120198148D01*
X245155575Y-120406196D01*
X245024458Y-120633299D01*
X245024453Y-120633309D01*
X244924105Y-120875571D01*
X244924102Y-120875581D01*
X244856230Y-121128885D01*
X244822000Y-121388872D01*
X200572999Y-121388872D01*
X200538770Y-121128884D01*
X200470898Y-120875581D01*
X200470894Y-120875571D01*
X200370546Y-120633309D01*
X200370541Y-120633299D01*
X200239424Y-120406196D01*
X200079781Y-120198148D01*
X200079774Y-120198140D01*
X199894360Y-120012726D01*
X199894351Y-120012718D01*
X199686303Y-119853075D01*
X199459200Y-119721958D01*
X199459190Y-119721953D01*
X199216928Y-119621605D01*
X199216921Y-119621603D01*
X199216919Y-119621602D01*
X198963616Y-119553730D01*
X198905839Y-119546123D01*
X198703627Y-119519500D01*
X198703620Y-119519500D01*
X198441380Y-119519500D01*
X198441372Y-119519500D01*
X198210272Y-119549926D01*
X198181384Y-119553730D01*
X197928081Y-119621602D01*
X197928071Y-119621605D01*
X197685809Y-119721953D01*
X197685799Y-119721958D01*
X197458696Y-119853075D01*
X197250648Y-120012718D01*
X197065218Y-120198148D01*
X196905575Y-120406196D01*
X196774458Y-120633299D01*
X196774453Y-120633309D01*
X196674105Y-120875571D01*
X196674102Y-120875581D01*
X196606230Y-121128885D01*
X196572000Y-121388872D01*
X194310000Y-121388872D01*
X194310000Y-118234000D01*
X194329685Y-118166961D01*
X194382489Y-118121206D01*
X194434000Y-118110000D01*
X201930000Y-118110000D01*
X201930000Y-107950000D01*
X194434000Y-107950000D01*
X194366961Y-107930315D01*
X194321206Y-107877511D01*
X194310000Y-107826000D01*
X194310000Y-99184000D01*
X194329685Y-99116961D01*
X194382489Y-99071206D01*
X194434000Y-99060000D01*
X201930000Y-99060000D01*
X201930000Y-73660000D01*
X194434000Y-73660000D01*
X194366961Y-73640315D01*
X194321206Y-73587511D01*
X194310000Y-73536000D01*
X194310000Y-70588872D01*
X196572000Y-70588872D01*
X196572000Y-70851127D01*
X196598623Y-71053339D01*
X196606230Y-71111116D01*
X196674102Y-71364418D01*
X196674105Y-71364428D01*
X196774453Y-71606690D01*
X196774458Y-71606700D01*
X196905575Y-71833803D01*
X197065218Y-72041851D01*
X197065226Y-72041860D01*
X197250640Y-72227274D01*
X197250648Y-72227281D01*
X197458696Y-72386924D01*
X197685799Y-72518041D01*
X197685809Y-72518046D01*
X197928071Y-72618394D01*
X197928081Y-72618398D01*
X198181384Y-72686270D01*
X198441380Y-72720500D01*
X198441387Y-72720500D01*
X198703613Y-72720500D01*
X198703620Y-72720500D01*
X198963616Y-72686270D01*
X199216919Y-72618398D01*
X199459197Y-72518043D01*
X199686303Y-72386924D01*
X199894351Y-72227282D01*
X199894355Y-72227277D01*
X199894360Y-72227274D01*
X200079774Y-72041860D01*
X200079777Y-72041855D01*
X200079782Y-72041851D01*
X200239424Y-71833803D01*
X200370543Y-71606697D01*
X200470898Y-71364419D01*
X200538770Y-71111116D01*
X200573000Y-70851120D01*
X200573000Y-70588880D01*
X200572999Y-70588872D01*
X244822000Y-70588872D01*
X244822000Y-70851127D01*
X244848623Y-71053339D01*
X244856230Y-71111116D01*
X244924102Y-71364418D01*
X244924105Y-71364428D01*
X245024453Y-71606690D01*
X245024458Y-71606700D01*
X245155575Y-71833803D01*
X245315218Y-72041851D01*
X245315226Y-72041860D01*
X245500640Y-72227274D01*
X245500648Y-72227281D01*
X245708696Y-72386924D01*
X245935799Y-72518041D01*
X245935809Y-72518046D01*
X246178071Y-72618394D01*
X246178081Y-72618398D01*
X246431384Y-72686270D01*
X246691380Y-72720500D01*
X246691387Y-72720500D01*
X246953613Y-72720500D01*
X246953620Y-72720500D01*
X247213616Y-72686270D01*
X247466919Y-72618398D01*
X247709197Y-72518043D01*
X247936303Y-72386924D01*
X248144351Y-72227282D01*
X248144355Y-72227277D01*
X248144360Y-72227274D01*
X248329774Y-72041860D01*
X248329777Y-72041855D01*
X248329782Y-72041851D01*
X248489424Y-71833803D01*
X248620543Y-71606697D01*
X248720898Y-71364419D01*
X248788770Y-71111116D01*
X248823000Y-70851120D01*
X248823000Y-70588880D01*
X248788770Y-70328884D01*
X248720898Y-70075581D01*
X248720894Y-70075571D01*
X248620546Y-69833309D01*
X248620541Y-69833299D01*
X248489424Y-69606196D01*
X248329781Y-69398148D01*
X248329774Y-69398140D01*
X248144360Y-69212726D01*
X248144351Y-69212718D01*
X247936303Y-69053075D01*
X247709200Y-68921958D01*
X247709190Y-68921953D01*
X247466928Y-68821605D01*
X247466921Y-68821603D01*
X247466919Y-68821602D01*
X247213616Y-68753730D01*
X247155839Y-68746123D01*
X246953627Y-68719500D01*
X246953620Y-68719500D01*
X246691380Y-68719500D01*
X246691372Y-68719500D01*
X246460272Y-68749926D01*
X246431384Y-68753730D01*
X246178081Y-68821602D01*
X246178071Y-68821605D01*
X245935809Y-68921953D01*
X245935799Y-68921958D01*
X245708696Y-69053075D01*
X245500648Y-69212718D01*
X245315218Y-69398148D01*
X245155575Y-69606196D01*
X245024458Y-69833299D01*
X245024453Y-69833309D01*
X244924105Y-70075571D01*
X244924102Y-70075581D01*
X244856230Y-70328885D01*
X244822000Y-70588872D01*
X200572999Y-70588872D01*
X200538770Y-70328884D01*
X200470898Y-70075581D01*
X200470894Y-70075571D01*
X200370546Y-69833309D01*
X200370541Y-69833299D01*
X200239424Y-69606196D01*
X200079781Y-69398148D01*
X200079774Y-69398140D01*
X199894360Y-69212726D01*
X199894351Y-69212718D01*
X199686303Y-69053075D01*
X199459200Y-68921958D01*
X199459190Y-68921953D01*
X199216928Y-68821605D01*
X199216921Y-68821603D01*
X199216919Y-68821602D01*
X198963616Y-68753730D01*
X198905839Y-68746123D01*
X198703627Y-68719500D01*
X198703620Y-68719500D01*
X198441380Y-68719500D01*
X198441372Y-68719500D01*
X198210272Y-68749926D01*
X198181384Y-68753730D01*
X197928081Y-68821602D01*
X197928071Y-68821605D01*
X197685809Y-68921953D01*
X197685799Y-68921958D01*
X197458696Y-69053075D01*
X197250648Y-69212718D01*
X197065218Y-69398148D01*
X196905575Y-69606196D01*
X196774458Y-69833299D01*
X196774453Y-69833309D01*
X196674105Y-70075571D01*
X196674102Y-70075581D01*
X196606230Y-70328885D01*
X196572000Y-70588872D01*
X194310000Y-70588872D01*
X194310000Y-66164000D01*
X194329685Y-66096961D01*
X194382489Y-66051206D01*
X194434000Y-66040000D01*
X250066000Y-66040000D01*
X250133039Y-66059685D01*
G37*
%TD.AperFunction*%
%TD*%
M02*
