%TF.GenerationSoftware,KiCad,Pcbnew,9.0.3*%
%TF.CreationDate,2025-09-17T10:51:30-04:00*%
%TF.ProjectId,4_COLD_TPC_SiPM_Pre_Amp,345f434f-4c44-45f5-9450-435f5369504d,rev?*%
%TF.SameCoordinates,Original*%
%TF.FileFunction,Copper,L7,Inr*%
%TF.FilePolarity,Positive*%
%FSLAX46Y46*%
G04 Gerber Fmt 4.6, Leading zero omitted, Abs format (unit mm)*
G04 Created by KiCad (PCBNEW 9.0.3) date 2025-09-17 10:51:30*
%MOMM*%
%LPD*%
G01*
G04 APERTURE LIST*
%TA.AperFunction,ComponentPad*%
%ADD10C,2.209800*%
%TD*%
%TA.AperFunction,ComponentPad*%
%ADD11C,2.006600*%
%TD*%
%TA.AperFunction,ComponentPad*%
%ADD12C,2.159000*%
%TD*%
%TA.AperFunction,ComponentPad*%
%ADD13C,2.000000*%
%TD*%
%TA.AperFunction,ComponentPad*%
%ADD14R,2.000000X2.000000*%
%TD*%
%TA.AperFunction,ComponentPad*%
%ADD15C,2.800000*%
%TD*%
%TA.AperFunction,ComponentPad*%
%ADD16C,6.400000*%
%TD*%
%TA.AperFunction,ComponentPad*%
%ADD17C,1.560000*%
%TD*%
%TA.AperFunction,ComponentPad*%
%ADD18C,4.216000*%
%TD*%
%TA.AperFunction,ComponentPad*%
%ADD19C,1.575000*%
%TD*%
%TA.AperFunction,ComponentPad*%
%ADD20C,1.635000*%
%TD*%
%TA.AperFunction,ViaPad*%
%ADD21C,0.600000*%
%TD*%
G04 APERTURE END LIST*
D10*
%TO.N,/SiPM/SiPM_LV_Supply/SiPM_LV_5V/V_P5V_OUT*%
%TO.C,J4*%
X252540000Y-158650000D03*
X247460000Y-158650000D03*
X247460000Y-153570000D03*
X252540000Y-153570000D03*
D11*
%TO.N,/SiPM/V_SiPM_LV_P2V5_OUT*%
X250000000Y-156110000D03*
%TD*%
D10*
%TO.N,/SiPM/SiPM_LV_Supply/SiPM_LV_5V/V_P5V_OUT*%
%TO.C,J5*%
X252540000Y-132320000D03*
X247460000Y-132320000D03*
X247460000Y-127240000D03*
X252540000Y-127240000D03*
D11*
%TO.N,/SiPM/V_SiPM_LV_M5V_OUT*%
X250000000Y-129780000D03*
%TD*%
D12*
%TO.N,Net-(P1-Pad1)*%
%TO.C,P1*%
X212960000Y-93500000D03*
%TD*%
%TO.N,Net-(M5-Pad3)*%
%TO.C,P2*%
X212960000Y-104170000D03*
%TD*%
%TO.N,Net-(P3-Pad1)*%
%TO.C,P3*%
X212970000Y-82510000D03*
%TD*%
%TO.N,Net-(M6-Pad3)*%
%TO.C,P4*%
X213060000Y-71180000D03*
%TD*%
D13*
%TO.N,/SiPM/SiPM_LV_Supply/SiPM_LV_5V/Enable*%
%TO.C,U3*%
X194387500Y-153190000D03*
%TO.N,/SiPM/SiPM_LV_Supply/SiPM_LV_5V/V_P5V_OUT*%
X214687500Y-153190000D03*
%TO.N,/SiPM/SiPM_LV_Supply/SiPM_LV_P3V3/TRIM*%
X214687500Y-163390000D03*
%TO.N,/SiPM/SiPM_LV_Supply/SiPM_LV_P3V3/V_P3V3_OUT*%
X214687500Y-173590000D03*
%TO.N,/SiPM/SiPM_LV_Supply/SiPM_LV_P3V3/V_RTN*%
X194387500Y-160790000D03*
D14*
%TO.N,/SiPM/SiPM_LV_Supply/SiPM_LV_P3V3/V_POS*%
X194387500Y-165890000D03*
%TD*%
D15*
%TO.N,/SiPM/SiPM_LV_Supply/SiPM_LV_5V/Enable*%
%TO.C,V_{EN}1*%
X170690000Y-114050000D03*
%TD*%
%TO.N,/SiPM/SiPM_LV_Supply/SiPM_LV_5V/V_P5V_OUT*%
%TO.C,V_{OUT_RTN}1*%
X223490000Y-147150000D03*
%TD*%
%TO.N,/SEC_PWR_RTN*%
%TO.C,+12V_RTN1*%
X155090000Y-149640000D03*
%TD*%
D16*
%TO.N,CHASSIS*%
%TO.C,H5*%
X135000000Y-56000000D03*
%TD*%
%TO.N,CHASSIS*%
%TO.C,H7*%
X249000000Y-118000000D03*
%TD*%
%TO.N,CHASSIS*%
%TO.C,H6*%
X249000000Y-178000000D03*
%TD*%
%TO.N,CHASSIS*%
%TO.C,H3*%
X185000000Y-146000000D03*
%TD*%
D15*
%TO.N,/P_SEC_TELEM_PWR*%
%TO.C,+5V1*%
X144520000Y-83000000D03*
%TD*%
D17*
%TO.N,/SEC_PWR_RTN*%
%TO.C,J1*%
X138030000Y-140575000D03*
X138030000Y-143345000D03*
%TO.N,unconnected-(J1-Pad3)*%
X138030000Y-146115000D03*
%TO.N,/SEC_PWR_RTN*%
X138030000Y-148885000D03*
X138030000Y-151655000D03*
%TO.N,/SEC_PWR_IN*%
X135190000Y-141960000D03*
X135190000Y-144730000D03*
X135190000Y-147500000D03*
X135190000Y-150270000D03*
D18*
%TO.N,CHASSIS*%
X136610000Y-133615000D03*
X136610000Y-158615000D03*
%TD*%
D19*
%TO.N,/SiPM_LV_Enable-*%
%TO.C,J3*%
X168434000Y-62350000D03*
%TO.N,/SiPM_LV_Enable+*%
X170724000Y-62350000D03*
%TO.N,/P2p5V_TELEM*%
X173014000Y-62350000D03*
%TO.N,/M5p0V_Telem*%
X175304000Y-62350000D03*
%TO.N,/P2p5_I_MON*%
X177594000Y-62350000D03*
%TO.N,/SEC_PWR_TELEM_RTN*%
X167289000Y-59810000D03*
X169579000Y-59810000D03*
X171869000Y-59810000D03*
X174159000Y-59810000D03*
X176449000Y-59810000D03*
%TO.N,/TEMP_TELEM*%
X168434000Y-57270000D03*
%TO.N,/SEC_PWR_TELEM_RTN*%
X170724000Y-57270000D03*
X173014000Y-57270000D03*
X175304000Y-57270000D03*
%TO.N,/M5V_I_MON*%
X177594000Y-57270000D03*
D18*
%TO.N,CHASSIS*%
X185255000Y-59810000D03*
X160265000Y-59810000D03*
%TD*%
D20*
%TO.N,/SEC_PWR_TELEM_RTN*%
%TO.C,J2*%
X137933250Y-96630000D03*
X137933250Y-93860000D03*
%TO.N,unconnected-(J2-Pad3)*%
X137933250Y-91090000D03*
%TO.N,/SEC_PWR_TELEM_RTN*%
X137933250Y-88320000D03*
X137933250Y-85550000D03*
%TO.N,/N_SEC_TELEM_PWR*%
X135093250Y-95245000D03*
X135093250Y-92475000D03*
%TO.N,/P_SEC_TELEM_PWR*%
X135093250Y-89705000D03*
X135093250Y-86935000D03*
D18*
%TO.N,CHASSIS*%
X136513250Y-78590000D03*
X136513250Y-103590000D03*
%TD*%
D16*
%TO.N,CHASSIS*%
%TO.C,H8*%
X135000000Y-118000000D03*
%TD*%
%TO.N,CHASSIS*%
%TO.C,H4*%
X185000000Y-178000000D03*
%TD*%
D15*
%TO.N,/SEC_PWR_IN*%
%TO.C,+12V1*%
X155090000Y-139890000D03*
%TD*%
%TO.N,/N_SEC_TELEM_PWR*%
%TO.C,-5V1*%
X144690000Y-100630000D03*
%TD*%
D16*
%TO.N,CHASSIS*%
%TO.C,H2*%
X135000000Y-178000000D03*
%TD*%
%TO.N,CHASSIS*%
%TO.C,H1*%
X249000000Y-56000000D03*
%TD*%
D15*
%TO.N,/SEC_PWR_TELEM_RTN*%
%TO.C,Telem_RTN1*%
X165350000Y-84050000D03*
%TD*%
D14*
%TO.N,/SiPM/SiPM_LV_Supply/SiPM_LV_5V/V_POS*%
%TO.C,U4*%
X194395000Y-131470000D03*
D13*
%TO.N,/SiPM/SiPM_LV_Supply/SiPM_LV_5V/V_RTN*%
X194395000Y-126370000D03*
%TO.N,/SiPM/SiPM_LV_Supply/SiPM_LV_5V/V_P5V_OUT*%
X214695000Y-139170000D03*
%TO.N,/SiPM/SiPM_LV_Supply/SiPM_LV_5V/TRIM*%
X214695000Y-128970000D03*
%TO.N,/SiPM/V_SiPM_LV_M5V*%
X214695000Y-118770000D03*
%TO.N,/SiPM/SiPM_LV_Supply/SiPM_LV_5V/Enable*%
X194395000Y-118770000D03*
%TD*%
D21*
%TO.N,/SiPM/V_SiPM_LV_M5V*%
X179230000Y-90580000D03*
X179234150Y-80580000D03*
X193394150Y-91130000D03*
X192540000Y-114820000D03*
%TO.N,/SiPM/V_TELEM_P3V3_OUT*%
X237680000Y-133980000D03*
X181240000Y-105120000D03*
X181240000Y-76390000D03*
X243400000Y-133990000D03*
X243480000Y-106490000D03*
X181240000Y-72460000D03*
X172310000Y-72450000D03*
X181234150Y-85760000D03*
X243400000Y-149970000D03*
X236550000Y-151610000D03*
X158970000Y-77145000D03*
%TO.N,/SiPM/V_SiPM_LV_P2V5*%
X187654150Y-84480000D03*
X228180000Y-113530000D03*
X184894150Y-87030000D03*
X182270000Y-113530000D03*
X237515000Y-156785000D03*
%TO.N,/SiPM/SiPM_LV_Supply/SiPM_LV_5V/Enable*%
X184990000Y-119200000D03*
X190600000Y-121430000D03*
X172390000Y-120700000D03*
%TO.N,/SiPM/V_TELEM_M3V3*%
X164690000Y-93100000D03*
X164690000Y-101940000D03*
X189480000Y-93100000D03*
X191304150Y-85750000D03*
%TO.N,/SiPM/SiPM_LV_Supply/SiPM_LV_5V/V_P5V_OUT*%
X227570000Y-156111400D03*
X234827500Y-170857500D03*
X227300000Y-167231400D03*
%TO.N,/SEC_PWR_RTN*%
X154017500Y-158820000D03*
X177800000Y-152400000D03*
X147320000Y-152400000D03*
X213360000Y-111760000D03*
X218440000Y-177800000D03*
X243840000Y-177800000D03*
X147320000Y-167640000D03*
X238760000Y-121920000D03*
X223520000Y-142240000D03*
X152400000Y-137160000D03*
X233680000Y-177800000D03*
X147320000Y-162560000D03*
X147320000Y-132080000D03*
X152635000Y-126775000D03*
X152747500Y-160090000D03*
X218440000Y-116840000D03*
X151365000Y-125505000D03*
X198120000Y-111760000D03*
X208280000Y-182880000D03*
X238760000Y-177800000D03*
X248920000Y-182880000D03*
X193040000Y-177800000D03*
X198120000Y-177800000D03*
X157480000Y-162560000D03*
X172720000Y-172720000D03*
X177800000Y-177800000D03*
X178250000Y-112050000D03*
X142240000Y-157480000D03*
X157480000Y-177800000D03*
X198120000Y-147320000D03*
X182880000Y-152400000D03*
X153905000Y-125505000D03*
X172720000Y-182880000D03*
X152400000Y-147320000D03*
X152400000Y-142240000D03*
X233680000Y-172720000D03*
X238760000Y-182880000D03*
X167640000Y-172720000D03*
X152400000Y-177800000D03*
X152400000Y-152400000D03*
X167640000Y-147320000D03*
X152747500Y-158820000D03*
X155175000Y-124235000D03*
X147320000Y-121920000D03*
X167640000Y-142240000D03*
X167640000Y-137160000D03*
X187960000Y-182880000D03*
X155287500Y-161360000D03*
X132080000Y-182880000D03*
X223520000Y-111760000D03*
X157480000Y-147320000D03*
X172720000Y-152400000D03*
X151365000Y-126775000D03*
X157480000Y-152400000D03*
X198120000Y-182880000D03*
X167640000Y-157480000D03*
X208280000Y-111760000D03*
X187960000Y-157480000D03*
X228600000Y-182880000D03*
X142240000Y-152400000D03*
X208280000Y-177800000D03*
X132080000Y-172720000D03*
X137160000Y-172720000D03*
X248920000Y-162560000D03*
X233680000Y-147320000D03*
X162560000Y-147320000D03*
X132080000Y-127000000D03*
X151477500Y-161360000D03*
X187960000Y-172720000D03*
X233680000Y-137160000D03*
X147320000Y-157480000D03*
X182880000Y-172720000D03*
X218440000Y-137160000D03*
X151477500Y-160090000D03*
X218440000Y-147320000D03*
X142240000Y-182880000D03*
X243840000Y-172720000D03*
X157480000Y-157480000D03*
X193040000Y-147320000D03*
X157480000Y-121920000D03*
X228600000Y-177800000D03*
X147320000Y-177800000D03*
X177800000Y-182880000D03*
X233680000Y-142240000D03*
X142240000Y-167640000D03*
X137160000Y-162560000D03*
X154017500Y-160090000D03*
X180140000Y-112050000D03*
X137160000Y-127000000D03*
X177800000Y-116840000D03*
X177800000Y-147320000D03*
X162560000Y-121920000D03*
X152747500Y-161360000D03*
X223520000Y-182880000D03*
X142240000Y-137160000D03*
X213360000Y-177800000D03*
X218440000Y-152400000D03*
X152400000Y-121920000D03*
X132080000Y-162560000D03*
X162560000Y-182880000D03*
X203200000Y-111760000D03*
X147320000Y-172720000D03*
X142240000Y-147320000D03*
X203200000Y-147320000D03*
X162560000Y-142240000D03*
X203200000Y-182880000D03*
X172720000Y-142240000D03*
X162560000Y-172720000D03*
X157480000Y-182880000D03*
X137160000Y-167640000D03*
X213360000Y-182880000D03*
X152400000Y-182880000D03*
X154017500Y-161360000D03*
X155175000Y-126775000D03*
X147320000Y-182880000D03*
X162560000Y-162560000D03*
X157480000Y-137160000D03*
X147320000Y-137160000D03*
X167640000Y-152400000D03*
X132080000Y-167640000D03*
X228600000Y-111760000D03*
X142240000Y-142240000D03*
X172720000Y-111760000D03*
X153905000Y-126775000D03*
X248920000Y-172720000D03*
X172720000Y-147320000D03*
X223520000Y-177800000D03*
X243840000Y-182880000D03*
X137160000Y-182880000D03*
X218440000Y-111760000D03*
X167640000Y-182880000D03*
X155287500Y-160090000D03*
X218440000Y-182880000D03*
X203200000Y-177800000D03*
X142240000Y-162560000D03*
X153905000Y-124235000D03*
X162560000Y-137160000D03*
X177800000Y-142240000D03*
X223520000Y-152400000D03*
X248920000Y-142240000D03*
X172720000Y-137160000D03*
X223520000Y-116840000D03*
X208280000Y-147320000D03*
X152635000Y-124235000D03*
X238760000Y-172720000D03*
X147320000Y-142240000D03*
X184980000Y-117850000D03*
X142240000Y-177800000D03*
X223520000Y-157480000D03*
X151477500Y-158820000D03*
X152635000Y-125505000D03*
X248920000Y-147320000D03*
X142240000Y-172720000D03*
X218440000Y-142240000D03*
X182880000Y-182880000D03*
X233680000Y-182880000D03*
X167640000Y-121920000D03*
X238760000Y-142240000D03*
X228600000Y-172720000D03*
X243840000Y-162560000D03*
X193040000Y-182880000D03*
X162560000Y-157480000D03*
X243840000Y-167640000D03*
X223520000Y-137160000D03*
X151365000Y-124235000D03*
X182880000Y-116840000D03*
X162560000Y-152400000D03*
X157480000Y-172720000D03*
X142240000Y-132080000D03*
X172720000Y-162560000D03*
X187960000Y-152400000D03*
X147320000Y-127000000D03*
X238760000Y-137160000D03*
X142240000Y-127000000D03*
X142240000Y-121920000D03*
X157480000Y-142240000D03*
X147320000Y-147320000D03*
X177800000Y-172720000D03*
X155175000Y-125505000D03*
X155287500Y-158820000D03*
X248920000Y-167640000D03*
%TO.N,CHASSIS*%
X214040000Y-148430000D03*
X214078000Y-144272000D03*
%TO.N,/SEC_PWR_TELEM_RTN*%
X198120000Y-50800000D03*
X132080000Y-60960000D03*
X152400000Y-55880000D03*
X203200000Y-96520000D03*
X147320000Y-76200000D03*
X203200000Y-86360000D03*
X228600000Y-101600000D03*
X223520000Y-60960000D03*
X243840000Y-91440000D03*
X223520000Y-50800000D03*
X248920000Y-66040000D03*
X198774150Y-80690000D03*
X208280000Y-50800000D03*
X228600000Y-60960000D03*
X238760000Y-60960000D03*
X243840000Y-50800000D03*
X243840000Y-60960000D03*
X213360000Y-55880000D03*
X157480000Y-66040000D03*
X248920000Y-101600000D03*
X157480000Y-71120000D03*
X157480000Y-116840000D03*
X152400000Y-116840000D03*
X203200000Y-106680000D03*
X218440000Y-101600000D03*
X238760000Y-111760000D03*
X233680000Y-91440000D03*
X147320000Y-50800000D03*
X248920000Y-91440000D03*
X218440000Y-86360000D03*
X177434150Y-80580000D03*
X228600000Y-86360000D03*
X223520000Y-101600000D03*
X198120000Y-106680000D03*
X172720000Y-81280000D03*
X142240000Y-71120000D03*
X142240000Y-76200000D03*
X162560000Y-86360000D03*
X162560000Y-76200000D03*
X153260000Y-94345000D03*
X218440000Y-60960000D03*
X198120000Y-101600000D03*
X193040000Y-60960000D03*
X162560000Y-111760000D03*
X233680000Y-50800000D03*
X147320000Y-60960000D03*
X243840000Y-86360000D03*
X147320000Y-106680000D03*
X172720000Y-96520000D03*
X218440000Y-91440000D03*
X233680000Y-101600000D03*
X147320000Y-66040000D03*
X152400000Y-111760000D03*
X218440000Y-81280000D03*
X228600000Y-55880000D03*
X203200000Y-101600000D03*
X236550000Y-153160000D03*
X213360000Y-50800000D03*
X223520000Y-76200000D03*
X228600000Y-71120000D03*
X223520000Y-86360000D03*
X218440000Y-50800000D03*
X162560000Y-81280000D03*
X147320000Y-116840000D03*
X248920000Y-81280000D03*
X243840000Y-55880000D03*
X203200000Y-91440000D03*
X152240000Y-77120000D03*
X223520000Y-81280000D03*
X243840000Y-101600000D03*
X194129150Y-97274800D03*
X198120000Y-76200000D03*
X137160000Y-71120000D03*
X152400000Y-66040000D03*
X233680000Y-86360000D03*
X178250000Y-107630000D03*
X233680000Y-55880000D03*
X208280000Y-60960000D03*
X236050000Y-121620000D03*
X132080000Y-71120000D03*
X142240000Y-106680000D03*
X243690000Y-152310000D03*
X203200000Y-60960000D03*
X137160000Y-60960000D03*
X172310000Y-70370000D03*
X176630000Y-85760000D03*
X142240000Y-50800000D03*
X168540000Y-106950000D03*
X159900000Y-106580000D03*
X243840000Y-96520000D03*
X150980000Y-101385000D03*
X157480000Y-111760000D03*
X193040000Y-55880000D03*
X150680000Y-81065000D03*
X203200000Y-55880000D03*
X213360000Y-60960000D03*
X132080000Y-66040000D03*
X162560000Y-106680000D03*
X193040000Y-50800000D03*
X233680000Y-60960000D03*
X193040000Y-71120000D03*
X198120000Y-71120000D03*
X243840000Y-71120000D03*
X155600000Y-89765000D03*
X223520000Y-91440000D03*
X177800000Y-96520000D03*
X228600000Y-91440000D03*
X142240000Y-91440000D03*
X162560000Y-66040000D03*
X248920000Y-76200000D03*
X142240000Y-96520000D03*
X233680000Y-71120000D03*
X237740000Y-132930000D03*
X142240000Y-66040000D03*
X238760000Y-55880000D03*
X172720000Y-91440000D03*
X142240000Y-60960000D03*
X223520000Y-96520000D03*
X248920000Y-106680000D03*
X182880000Y-96520000D03*
X193184150Y-80420000D03*
X152400000Y-106680000D03*
X152400000Y-50800000D03*
X198120000Y-60960000D03*
X228600000Y-96520000D03*
X248920000Y-86360000D03*
X152400000Y-71120000D03*
X243840000Y-66040000D03*
X142240000Y-111760000D03*
X233680000Y-76200000D03*
X172720000Y-106680000D03*
X180140000Y-107630000D03*
X248920000Y-50800000D03*
X198120000Y-55880000D03*
X177800000Y-71120000D03*
X233680000Y-96520000D03*
X230680000Y-133480000D03*
X162560000Y-91440000D03*
X147320000Y-91440000D03*
X203200000Y-71120000D03*
X161820000Y-94695000D03*
X198120000Y-86360000D03*
X142240000Y-55880000D03*
X203200000Y-76200000D03*
X183380000Y-99790000D03*
X137160000Y-66040000D03*
X147320000Y-55880000D03*
X233680000Y-81280000D03*
X238760000Y-50800000D03*
X218440000Y-71120000D03*
X243840000Y-81280000D03*
X218440000Y-55880000D03*
X228600000Y-50800000D03*
X198120000Y-91440000D03*
X248920000Y-96520000D03*
X208280000Y-55880000D03*
X218440000Y-96520000D03*
X195264150Y-91120000D03*
X248920000Y-60960000D03*
X177800000Y-76200000D03*
X162560000Y-116840000D03*
X223520000Y-55880000D03*
X196164150Y-85750000D03*
X147320000Y-111760000D03*
X152400000Y-60960000D03*
X193040000Y-76200000D03*
X187960000Y-76200000D03*
X142240000Y-116840000D03*
X147320000Y-71120000D03*
X162560000Y-71120000D03*
X228600000Y-76200000D03*
X172720000Y-86360000D03*
X147320000Y-96520000D03*
X203200000Y-50800000D03*
X223520000Y-71120000D03*
X228600000Y-81280000D03*
X243840000Y-76200000D03*
X236720000Y-144650000D03*
X218440000Y-76200000D03*
X248920000Y-71120000D03*
%TO.N,/SEC_PWR_IN*%
X152667500Y-166300000D03*
X155115000Y-133150000D03*
X155207500Y-167570000D03*
X153845000Y-130610000D03*
X151305000Y-130610000D03*
X155207500Y-165030000D03*
X153937500Y-165030000D03*
X152667500Y-167570000D03*
X151305000Y-131880000D03*
X153937500Y-167570000D03*
X153845000Y-131880000D03*
X152575000Y-131880000D03*
X151397500Y-167570000D03*
X151397500Y-166300000D03*
X152575000Y-130610000D03*
X152667500Y-165030000D03*
X151305000Y-133150000D03*
X155207500Y-166300000D03*
X153845000Y-133150000D03*
X155115000Y-131880000D03*
X152575000Y-133150000D03*
X151397500Y-165030000D03*
X153937500Y-166300000D03*
X160020000Y-130140000D03*
X160160000Y-120700000D03*
X155115000Y-130610000D03*
%TO.N,Net-(M2-Pad1)*%
X189080000Y-115560000D03*
X173770000Y-117510000D03*
%TO.N,/P2p5V_TELEM*%
X174310000Y-91820000D03*
%TO.N,/M5p0V_Telem*%
X175350000Y-79240000D03*
%TO.N,/TEMP_TELEM*%
X163910000Y-76580000D03*
X168570000Y-102120000D03*
X168570000Y-76570000D03*
%TO.N,Net-(C2-Pad2)*%
X241820000Y-69830000D03*
X187017482Y-69884549D03*
X241580000Y-146200000D03*
%TO.N,Net-(U9-OUT)*%
X238740000Y-135680000D03*
%TO.N,Net-(C31-Pad2)*%
X237950000Y-65950000D03*
X237770000Y-123210000D03*
X187000000Y-68050000D03*
%TO.N,/P_SEC_TELEM_PWR*%
X203440000Y-93510000D03*
X188670000Y-100170000D03*
X203400000Y-82510200D03*
X167220000Y-88200000D03*
X158971400Y-88205000D03*
X167220000Y-100870000D03*
%TO.N,/SiPM/SiPM_LV_Supply/SiPM_LV_Enable*%
X186280000Y-95110000D03*
X171750000Y-74110000D03*
X186260000Y-74110000D03*
%TO.N,/N_SEC_TELEM_PWR*%
X156660000Y-95925000D03*
%TD*%
%TA.AperFunction,Conductor*%
%TO.N,/SiPM/SiPM_LV_Supply/SiPM_LV_5V/V_P5V_OUT*%
G36*
X253943039Y-124479685D02*
G01*
X253988794Y-124532489D01*
X254000000Y-124584000D01*
X254000000Y-126174418D01*
X253980315Y-126241457D01*
X253927511Y-126287212D01*
X253866273Y-126298036D01*
X253837758Y-126295792D01*
X253294803Y-126838747D01*
X253294058Y-126836948D01*
X253200937Y-126697583D01*
X253082417Y-126579063D01*
X252943052Y-126485942D01*
X252941249Y-126485195D01*
X253484206Y-125942240D01*
X253381151Y-125867366D01*
X253156072Y-125752683D01*
X252915815Y-125674618D01*
X252666307Y-125635100D01*
X252413693Y-125635100D01*
X252164184Y-125674618D01*
X251923927Y-125752683D01*
X251698844Y-125867368D01*
X251595793Y-125942239D01*
X251595792Y-125942240D01*
X252138748Y-126485196D01*
X252136948Y-126485942D01*
X251997583Y-126579063D01*
X251879063Y-126697583D01*
X251785942Y-126836948D01*
X251785196Y-126838748D01*
X251242240Y-126295792D01*
X251242239Y-126295793D01*
X251167368Y-126398844D01*
X251052683Y-126623927D01*
X250974618Y-126864184D01*
X250935100Y-127113692D01*
X250935100Y-127366307D01*
X250974618Y-127615815D01*
X251052683Y-127856072D01*
X251167366Y-128081151D01*
X251242240Y-128184205D01*
X251242240Y-128184206D01*
X251785195Y-127641250D01*
X251785942Y-127643052D01*
X251879063Y-127782417D01*
X251997583Y-127900937D01*
X252136948Y-127994058D01*
X252138748Y-127994803D01*
X251595792Y-128537758D01*
X251698848Y-128612633D01*
X251923927Y-128727316D01*
X252164184Y-128805381D01*
X252413693Y-128844900D01*
X252666307Y-128844900D01*
X252915815Y-128805381D01*
X253156072Y-128727316D01*
X253381143Y-128612637D01*
X253381149Y-128612633D01*
X253484205Y-128537758D01*
X253484206Y-128537758D01*
X252941251Y-127994803D01*
X252943052Y-127994058D01*
X253082417Y-127900937D01*
X253200937Y-127782417D01*
X253294058Y-127643052D01*
X253294803Y-127641250D01*
X253837758Y-128184205D01*
X253866271Y-128181962D01*
X253934648Y-128196326D01*
X253984405Y-128245378D01*
X254000000Y-128305580D01*
X254000000Y-131254418D01*
X253980315Y-131321457D01*
X253927511Y-131367212D01*
X253866273Y-131378036D01*
X253837758Y-131375792D01*
X253294803Y-131918747D01*
X253294058Y-131916948D01*
X253200937Y-131777583D01*
X253082417Y-131659063D01*
X252943052Y-131565942D01*
X252941249Y-131565195D01*
X253484206Y-131022240D01*
X253381151Y-130947366D01*
X253156072Y-130832683D01*
X252915815Y-130754618D01*
X252666307Y-130715100D01*
X252413693Y-130715100D01*
X252164184Y-130754618D01*
X251923927Y-130832683D01*
X251698844Y-130947368D01*
X251595793Y-131022239D01*
X251595792Y-131022240D01*
X252138748Y-131565196D01*
X252136948Y-131565942D01*
X251997583Y-131659063D01*
X251879063Y-131777583D01*
X251785942Y-131916948D01*
X251785196Y-131918748D01*
X251242240Y-131375792D01*
X251242239Y-131375793D01*
X251167368Y-131478844D01*
X251052683Y-131703927D01*
X250974618Y-131944184D01*
X250935100Y-132193692D01*
X250935100Y-132446307D01*
X250974618Y-132695815D01*
X251052683Y-132936072D01*
X251167366Y-133161151D01*
X251242240Y-133264205D01*
X251242240Y-133264206D01*
X251785195Y-132721250D01*
X251785942Y-132723052D01*
X251879063Y-132862417D01*
X251997583Y-132980937D01*
X252136948Y-133074058D01*
X252138748Y-133074803D01*
X251595792Y-133617758D01*
X251698848Y-133692633D01*
X251923927Y-133807316D01*
X252164184Y-133885381D01*
X252413693Y-133924900D01*
X252666307Y-133924900D01*
X252915815Y-133885381D01*
X253156072Y-133807316D01*
X253381143Y-133692637D01*
X253381149Y-133692633D01*
X253484205Y-133617758D01*
X253484206Y-133617758D01*
X252941251Y-133074803D01*
X252943052Y-133074058D01*
X253082417Y-132980937D01*
X253200937Y-132862417D01*
X253294058Y-132723052D01*
X253294803Y-132721250D01*
X253837758Y-133264205D01*
X253866271Y-133261962D01*
X253934648Y-133276326D01*
X253984405Y-133325378D01*
X254000000Y-133385580D01*
X254000000Y-152504418D01*
X253980315Y-152571457D01*
X253927511Y-152617212D01*
X253866273Y-152628036D01*
X253837758Y-152625792D01*
X253294803Y-153168747D01*
X253294058Y-153166948D01*
X253200937Y-153027583D01*
X253082417Y-152909063D01*
X252943052Y-152815942D01*
X252941249Y-152815195D01*
X253484206Y-152272240D01*
X253381151Y-152197366D01*
X253156072Y-152082683D01*
X252915815Y-152004618D01*
X252666307Y-151965100D01*
X252413693Y-151965100D01*
X252164184Y-152004618D01*
X251923927Y-152082683D01*
X251698844Y-152197368D01*
X251595793Y-152272239D01*
X251595792Y-152272240D01*
X252138748Y-152815196D01*
X252136948Y-152815942D01*
X251997583Y-152909063D01*
X251879063Y-153027583D01*
X251785942Y-153166948D01*
X251785196Y-153168748D01*
X251242240Y-152625792D01*
X251242239Y-152625793D01*
X251167368Y-152728844D01*
X251052683Y-152953927D01*
X250974618Y-153194184D01*
X250935100Y-153443692D01*
X250935100Y-153696307D01*
X250974618Y-153945815D01*
X251052683Y-154186072D01*
X251167366Y-154411151D01*
X251242240Y-154514205D01*
X251242240Y-154514206D01*
X251785195Y-153971250D01*
X251785942Y-153973052D01*
X251879063Y-154112417D01*
X251997583Y-154230937D01*
X252136948Y-154324058D01*
X252138748Y-154324803D01*
X251595792Y-154867758D01*
X251698848Y-154942633D01*
X251923927Y-155057316D01*
X252164184Y-155135381D01*
X252413693Y-155174900D01*
X252666307Y-155174900D01*
X252915815Y-155135381D01*
X253156072Y-155057316D01*
X253381143Y-154942637D01*
X253381149Y-154942633D01*
X253484205Y-154867758D01*
X253484206Y-154867758D01*
X252941251Y-154324803D01*
X252943052Y-154324058D01*
X253082417Y-154230937D01*
X253200937Y-154112417D01*
X253294058Y-153973052D01*
X253294803Y-153971250D01*
X253837758Y-154514205D01*
X253866271Y-154511962D01*
X253934648Y-154526326D01*
X253984405Y-154575378D01*
X254000000Y-154635580D01*
X254000000Y-157584418D01*
X253980315Y-157651457D01*
X253927511Y-157697212D01*
X253866273Y-157708036D01*
X253837758Y-157705792D01*
X253294803Y-158248747D01*
X253294058Y-158246948D01*
X253200937Y-158107583D01*
X253082417Y-157989063D01*
X252943052Y-157895942D01*
X252941249Y-157895195D01*
X253484206Y-157352240D01*
X253381151Y-157277366D01*
X253156072Y-157162683D01*
X252915815Y-157084618D01*
X252666307Y-157045100D01*
X252413693Y-157045100D01*
X252164184Y-157084618D01*
X251923927Y-157162683D01*
X251698844Y-157277368D01*
X251595793Y-157352239D01*
X251595792Y-157352240D01*
X252138748Y-157895196D01*
X252136948Y-157895942D01*
X251997583Y-157989063D01*
X251879063Y-158107583D01*
X251785942Y-158246948D01*
X251785196Y-158248748D01*
X251242240Y-157705792D01*
X251242239Y-157705793D01*
X251167368Y-157808844D01*
X251052683Y-158033927D01*
X250974618Y-158274184D01*
X250935100Y-158523692D01*
X250935100Y-158776307D01*
X250974618Y-159025815D01*
X251052683Y-159266072D01*
X251167366Y-159491151D01*
X251242240Y-159594205D01*
X251242240Y-159594206D01*
X251785195Y-159051250D01*
X251785942Y-159053052D01*
X251879063Y-159192417D01*
X251997583Y-159310937D01*
X252136948Y-159404058D01*
X252138748Y-159404803D01*
X251595792Y-159947758D01*
X251698848Y-160022633D01*
X251923927Y-160137316D01*
X252164184Y-160215381D01*
X252413693Y-160254900D01*
X252666307Y-160254900D01*
X252915815Y-160215381D01*
X253156072Y-160137316D01*
X253381143Y-160022637D01*
X253381149Y-160022633D01*
X253484205Y-159947758D01*
X253484206Y-159947758D01*
X252941251Y-159404803D01*
X252943052Y-159404058D01*
X253082417Y-159310937D01*
X253200937Y-159192417D01*
X253294058Y-159053052D01*
X253294803Y-159051250D01*
X253837758Y-159594205D01*
X253866271Y-159591962D01*
X253934648Y-159606326D01*
X253984405Y-159655378D01*
X254000000Y-159715580D01*
X254000000Y-161166000D01*
X253980315Y-161233039D01*
X253927511Y-161278794D01*
X253876000Y-161290000D01*
X245110000Y-161290000D01*
X245110000Y-175771000D01*
X245090315Y-175838039D01*
X245037511Y-175883794D01*
X244986000Y-175895000D01*
X211579000Y-175895000D01*
X211511961Y-175875315D01*
X211466206Y-175822511D01*
X211455000Y-175771000D01*
X211455000Y-173471902D01*
X213187000Y-173471902D01*
X213187000Y-173708097D01*
X213223946Y-173941368D01*
X213296933Y-174165996D01*
X213383116Y-174335138D01*
X213404157Y-174376433D01*
X213542983Y-174567510D01*
X213709990Y-174734517D01*
X213901067Y-174873343D01*
X214000491Y-174924002D01*
X214111503Y-174980566D01*
X214111505Y-174980566D01*
X214111508Y-174980568D01*
X214231912Y-175019689D01*
X214336131Y-175053553D01*
X214569403Y-175090500D01*
X214569408Y-175090500D01*
X214805597Y-175090500D01*
X215038868Y-175053553D01*
X215263492Y-174980568D01*
X215473933Y-174873343D01*
X215665010Y-174734517D01*
X215832017Y-174567510D01*
X215970843Y-174376433D01*
X216078068Y-174165992D01*
X216151053Y-173941368D01*
X216188000Y-173708097D01*
X216188000Y-173471902D01*
X216151053Y-173238631D01*
X216105742Y-173099179D01*
X216078068Y-173014008D01*
X216078066Y-173014005D01*
X216078066Y-173014003D01*
X215970842Y-172803566D01*
X215967413Y-172798846D01*
X215852842Y-172641153D01*
X227799500Y-172641153D01*
X227799500Y-172798846D01*
X227830261Y-172953489D01*
X227830264Y-172953501D01*
X227890602Y-173099172D01*
X227890609Y-173099185D01*
X227978210Y-173230288D01*
X227978213Y-173230292D01*
X228089707Y-173341786D01*
X228089711Y-173341789D01*
X228220814Y-173429390D01*
X228220827Y-173429397D01*
X228366498Y-173489735D01*
X228366503Y-173489737D01*
X228521153Y-173520499D01*
X228521156Y-173520500D01*
X228521158Y-173520500D01*
X228678844Y-173520500D01*
X228678845Y-173520499D01*
X228833497Y-173489737D01*
X228979179Y-173429394D01*
X229110289Y-173341789D01*
X229221789Y-173230289D01*
X229309394Y-173099179D01*
X229369737Y-172953497D01*
X229400500Y-172798842D01*
X229400500Y-172641158D01*
X229400500Y-172641155D01*
X229400499Y-172641153D01*
X232879500Y-172641153D01*
X232879500Y-172798846D01*
X232910261Y-172953489D01*
X232910264Y-172953501D01*
X232970602Y-173099172D01*
X232970609Y-173099185D01*
X233058210Y-173230288D01*
X233058213Y-173230292D01*
X233169707Y-173341786D01*
X233169711Y-173341789D01*
X233300814Y-173429390D01*
X233300827Y-173429397D01*
X233446498Y-173489735D01*
X233446503Y-173489737D01*
X233601153Y-173520499D01*
X233601156Y-173520500D01*
X233601158Y-173520500D01*
X233758844Y-173520500D01*
X233758845Y-173520499D01*
X233913497Y-173489737D01*
X234059179Y-173429394D01*
X234190289Y-173341789D01*
X234301789Y-173230289D01*
X234389394Y-173099179D01*
X234449737Y-172953497D01*
X234480500Y-172798842D01*
X234480500Y-172641158D01*
X234480500Y-172641155D01*
X234480499Y-172641153D01*
X237959500Y-172641153D01*
X237959500Y-172798846D01*
X237990261Y-172953489D01*
X237990264Y-172953501D01*
X238050602Y-173099172D01*
X238050609Y-173099185D01*
X238138210Y-173230288D01*
X238138213Y-173230292D01*
X238249707Y-173341786D01*
X238249711Y-173341789D01*
X238380814Y-173429390D01*
X238380827Y-173429397D01*
X238526498Y-173489735D01*
X238526503Y-173489737D01*
X238681153Y-173520499D01*
X238681156Y-173520500D01*
X238681158Y-173520500D01*
X238838844Y-173520500D01*
X238838845Y-173520499D01*
X238993497Y-173489737D01*
X239139179Y-173429394D01*
X239270289Y-173341789D01*
X239381789Y-173230289D01*
X239469394Y-173099179D01*
X239529737Y-172953497D01*
X239560500Y-172798842D01*
X239560500Y-172641158D01*
X239560500Y-172641155D01*
X239560499Y-172641153D01*
X243039500Y-172641153D01*
X243039500Y-172798846D01*
X243070261Y-172953489D01*
X243070264Y-172953501D01*
X243130602Y-173099172D01*
X243130609Y-173099185D01*
X243218210Y-173230288D01*
X243218213Y-173230292D01*
X243329707Y-173341786D01*
X243329711Y-173341789D01*
X243460814Y-173429390D01*
X243460827Y-173429397D01*
X243606498Y-173489735D01*
X243606503Y-173489737D01*
X243761153Y-173520499D01*
X243761156Y-173520500D01*
X243761158Y-173520500D01*
X243918844Y-173520500D01*
X243918845Y-173520499D01*
X244073497Y-173489737D01*
X244219179Y-173429394D01*
X244350289Y-173341789D01*
X244461789Y-173230289D01*
X244549394Y-173099179D01*
X244609737Y-172953497D01*
X244640500Y-172798842D01*
X244640500Y-172641158D01*
X244640500Y-172641155D01*
X244640499Y-172641153D01*
X244609737Y-172486503D01*
X244592746Y-172445483D01*
X244549397Y-172340827D01*
X244549390Y-172340814D01*
X244461789Y-172209711D01*
X244461786Y-172209707D01*
X244350292Y-172098213D01*
X244350288Y-172098210D01*
X244219185Y-172010609D01*
X244219172Y-172010602D01*
X244073501Y-171950264D01*
X244073489Y-171950261D01*
X243918845Y-171919500D01*
X243918842Y-171919500D01*
X243761158Y-171919500D01*
X243761155Y-171919500D01*
X243606510Y-171950261D01*
X243606498Y-171950264D01*
X243460827Y-172010602D01*
X243460814Y-172010609D01*
X243329711Y-172098210D01*
X243329707Y-172098213D01*
X243218213Y-172209707D01*
X243218210Y-172209711D01*
X243130609Y-172340814D01*
X243130602Y-172340827D01*
X243070264Y-172486498D01*
X243070261Y-172486510D01*
X243039500Y-172641153D01*
X239560499Y-172641153D01*
X239529737Y-172486503D01*
X239512746Y-172445483D01*
X239469397Y-172340827D01*
X239469390Y-172340814D01*
X239381789Y-172209711D01*
X239381786Y-172209707D01*
X239270292Y-172098213D01*
X239270288Y-172098210D01*
X239139185Y-172010609D01*
X239139172Y-172010602D01*
X238993501Y-171950264D01*
X238993489Y-171950261D01*
X238838845Y-171919500D01*
X238838842Y-171919500D01*
X238681158Y-171919500D01*
X238681155Y-171919500D01*
X238526510Y-171950261D01*
X238526498Y-171950264D01*
X238380827Y-172010602D01*
X238380814Y-172010609D01*
X238249711Y-172098210D01*
X238249707Y-172098213D01*
X238138213Y-172209707D01*
X238138210Y-172209711D01*
X238050609Y-172340814D01*
X238050602Y-172340827D01*
X237990264Y-172486498D01*
X237990261Y-172486510D01*
X237959500Y-172641153D01*
X234480499Y-172641153D01*
X234449737Y-172486503D01*
X234432746Y-172445483D01*
X234389397Y-172340827D01*
X234389390Y-172340814D01*
X234301789Y-172209711D01*
X234301786Y-172209707D01*
X234190292Y-172098213D01*
X234190288Y-172098210D01*
X234059185Y-172010609D01*
X234059172Y-172010602D01*
X233913501Y-171950264D01*
X233913489Y-171950261D01*
X233758845Y-171919500D01*
X233758842Y-171919500D01*
X233601158Y-171919500D01*
X233601155Y-171919500D01*
X233446510Y-171950261D01*
X233446498Y-171950264D01*
X233300827Y-172010602D01*
X233300814Y-172010609D01*
X233169711Y-172098210D01*
X233169707Y-172098213D01*
X233058213Y-172209707D01*
X233058210Y-172209711D01*
X232970609Y-172340814D01*
X232970602Y-172340827D01*
X232910264Y-172486498D01*
X232910261Y-172486510D01*
X232879500Y-172641153D01*
X229400499Y-172641153D01*
X229369737Y-172486503D01*
X229352746Y-172445483D01*
X229309397Y-172340827D01*
X229309390Y-172340814D01*
X229221789Y-172209711D01*
X229221786Y-172209707D01*
X229110292Y-172098213D01*
X229110288Y-172098210D01*
X228979185Y-172010609D01*
X228979172Y-172010602D01*
X228833501Y-171950264D01*
X228833489Y-171950261D01*
X228678845Y-171919500D01*
X228678842Y-171919500D01*
X228521158Y-171919500D01*
X228521155Y-171919500D01*
X228366510Y-171950261D01*
X228366498Y-171950264D01*
X228220827Y-172010602D01*
X228220814Y-172010609D01*
X228089711Y-172098210D01*
X228089707Y-172098213D01*
X227978213Y-172209707D01*
X227978210Y-172209711D01*
X227890609Y-172340814D01*
X227890602Y-172340827D01*
X227830264Y-172486498D01*
X227830261Y-172486510D01*
X227799500Y-172641153D01*
X215852842Y-172641153D01*
X215832017Y-172612490D01*
X215665010Y-172445483D01*
X215473933Y-172306657D01*
X215263496Y-172199433D01*
X215038868Y-172126446D01*
X214805597Y-172089500D01*
X214805592Y-172089500D01*
X214569408Y-172089500D01*
X214569403Y-172089500D01*
X214336131Y-172126446D01*
X214111503Y-172199433D01*
X213901066Y-172306657D01*
X213854054Y-172340814D01*
X213709990Y-172445483D01*
X213709988Y-172445485D01*
X213709987Y-172445485D01*
X213542985Y-172612487D01*
X213542985Y-172612488D01*
X213542983Y-172612490D01*
X213483362Y-172694550D01*
X213404157Y-172803566D01*
X213296933Y-173014003D01*
X213223946Y-173238631D01*
X213187000Y-173471902D01*
X211455000Y-173471902D01*
X211455000Y-167561153D01*
X243039500Y-167561153D01*
X243039500Y-167718846D01*
X243070261Y-167873489D01*
X243070264Y-167873501D01*
X243130602Y-168019172D01*
X243130609Y-168019185D01*
X243218210Y-168150288D01*
X243218213Y-168150292D01*
X243329707Y-168261786D01*
X243329711Y-168261789D01*
X243460814Y-168349390D01*
X243460827Y-168349397D01*
X243606498Y-168409735D01*
X243606503Y-168409737D01*
X243761153Y-168440499D01*
X243761156Y-168440500D01*
X243761158Y-168440500D01*
X243918844Y-168440500D01*
X243918845Y-168440499D01*
X244073497Y-168409737D01*
X244219179Y-168349394D01*
X244350289Y-168261789D01*
X244461789Y-168150289D01*
X244549394Y-168019179D01*
X244609737Y-167873497D01*
X244640500Y-167718842D01*
X244640500Y-167561158D01*
X244640500Y-167561155D01*
X244640499Y-167561153D01*
X244609738Y-167406510D01*
X244609737Y-167406503D01*
X244609735Y-167406498D01*
X244549397Y-167260827D01*
X244549390Y-167260814D01*
X244461789Y-167129711D01*
X244461786Y-167129707D01*
X244350292Y-167018213D01*
X244350288Y-167018210D01*
X244219185Y-166930609D01*
X244219172Y-166930602D01*
X244073501Y-166870264D01*
X244073489Y-166870261D01*
X243918845Y-166839500D01*
X243918842Y-166839500D01*
X243761158Y-166839500D01*
X243761155Y-166839500D01*
X243606510Y-166870261D01*
X243606498Y-166870264D01*
X243460827Y-166930602D01*
X243460814Y-166930609D01*
X243329711Y-167018210D01*
X243329707Y-167018213D01*
X243218213Y-167129707D01*
X243218210Y-167129711D01*
X243130609Y-167260814D01*
X243130602Y-167260827D01*
X243070264Y-167406498D01*
X243070261Y-167406510D01*
X243039500Y-167561153D01*
X211455000Y-167561153D01*
X211455000Y-163271902D01*
X213187000Y-163271902D01*
X213187000Y-163508097D01*
X213223946Y-163741368D01*
X213296933Y-163965996D01*
X213404157Y-164176433D01*
X213542983Y-164367510D01*
X213709990Y-164534517D01*
X213901067Y-164673343D01*
X214000491Y-164724002D01*
X214111503Y-164780566D01*
X214111505Y-164780566D01*
X214111508Y-164780568D01*
X214231912Y-164819689D01*
X214336131Y-164853553D01*
X214569403Y-164890500D01*
X214569408Y-164890500D01*
X214805597Y-164890500D01*
X215038868Y-164853553D01*
X215263492Y-164780568D01*
X215473933Y-164673343D01*
X215665010Y-164534517D01*
X215832017Y-164367510D01*
X215970843Y-164176433D01*
X216078068Y-163965992D01*
X216151053Y-163741368D01*
X216188000Y-163508097D01*
X216188000Y-163271902D01*
X216151053Y-163038631D01*
X216078066Y-162814003D01*
X216021502Y-162702991D01*
X215970843Y-162603567D01*
X215881904Y-162481153D01*
X243039500Y-162481153D01*
X243039500Y-162638846D01*
X243070261Y-162793489D01*
X243070264Y-162793501D01*
X243130602Y-162939172D01*
X243130609Y-162939185D01*
X243218210Y-163070288D01*
X243218213Y-163070292D01*
X243329707Y-163181786D01*
X243329711Y-163181789D01*
X243460814Y-163269390D01*
X243460827Y-163269397D01*
X243606498Y-163329735D01*
X243606503Y-163329737D01*
X243761153Y-163360499D01*
X243761156Y-163360500D01*
X243761158Y-163360500D01*
X243918844Y-163360500D01*
X243918845Y-163360499D01*
X244073497Y-163329737D01*
X244219179Y-163269394D01*
X244350289Y-163181789D01*
X244461789Y-163070289D01*
X244549394Y-162939179D01*
X244609737Y-162793497D01*
X244640500Y-162638842D01*
X244640500Y-162481158D01*
X244640500Y-162481155D01*
X244640499Y-162481153D01*
X244626841Y-162412490D01*
X244609737Y-162326503D01*
X244576178Y-162245483D01*
X244549397Y-162180827D01*
X244549390Y-162180814D01*
X244461789Y-162049711D01*
X244461786Y-162049707D01*
X244350292Y-161938213D01*
X244350288Y-161938210D01*
X244219185Y-161850609D01*
X244219172Y-161850602D01*
X244073501Y-161790264D01*
X244073489Y-161790261D01*
X243918845Y-161759500D01*
X243918842Y-161759500D01*
X243761158Y-161759500D01*
X243761155Y-161759500D01*
X243606510Y-161790261D01*
X243606498Y-161790264D01*
X243460827Y-161850602D01*
X243460814Y-161850609D01*
X243329711Y-161938210D01*
X243329707Y-161938213D01*
X243218213Y-162049707D01*
X243218210Y-162049711D01*
X243130609Y-162180814D01*
X243130602Y-162180827D01*
X243070264Y-162326498D01*
X243070261Y-162326510D01*
X243039500Y-162481153D01*
X215881904Y-162481153D01*
X215832017Y-162412490D01*
X215665010Y-162245483D01*
X215473933Y-162106657D01*
X215263496Y-161999433D01*
X215038868Y-161926446D01*
X214805597Y-161889500D01*
X214805592Y-161889500D01*
X214569408Y-161889500D01*
X214569403Y-161889500D01*
X214336131Y-161926446D01*
X214111503Y-161999433D01*
X213901066Y-162106657D01*
X213798999Y-162180814D01*
X213709990Y-162245483D01*
X213709988Y-162245485D01*
X213709987Y-162245485D01*
X213542985Y-162412487D01*
X213542985Y-162412488D01*
X213542983Y-162412490D01*
X213493096Y-162481153D01*
X213404157Y-162603566D01*
X213296933Y-162814003D01*
X213223946Y-163038631D01*
X213187000Y-163271902D01*
X211455000Y-163271902D01*
X211455000Y-158523692D01*
X245855100Y-158523692D01*
X245855100Y-158776307D01*
X245894618Y-159025815D01*
X245972683Y-159266072D01*
X246087366Y-159491151D01*
X246162240Y-159594205D01*
X246162240Y-159594206D01*
X246705195Y-159051250D01*
X246705942Y-159053052D01*
X246799063Y-159192417D01*
X246917583Y-159310937D01*
X247056948Y-159404058D01*
X247058748Y-159404803D01*
X246515792Y-159947758D01*
X246618848Y-160022633D01*
X246843927Y-160137316D01*
X247084184Y-160215381D01*
X247333693Y-160254900D01*
X247586307Y-160254900D01*
X247835815Y-160215381D01*
X248076072Y-160137316D01*
X248301143Y-160022637D01*
X248301149Y-160022633D01*
X248404205Y-159947758D01*
X248404206Y-159947758D01*
X247861251Y-159404803D01*
X247863052Y-159404058D01*
X248002417Y-159310937D01*
X248120937Y-159192417D01*
X248214058Y-159053052D01*
X248214803Y-159051251D01*
X248757758Y-159594206D01*
X248757758Y-159594205D01*
X248832633Y-159491149D01*
X248832637Y-159491143D01*
X248947316Y-159266072D01*
X249025381Y-159025815D01*
X249064900Y-158776307D01*
X249064900Y-158523692D01*
X249025381Y-158274184D01*
X248947316Y-158033927D01*
X248832633Y-157808848D01*
X248757758Y-157705793D01*
X248757758Y-157705792D01*
X248214803Y-158248747D01*
X248214058Y-158246948D01*
X248120937Y-158107583D01*
X248002417Y-157989063D01*
X247863052Y-157895942D01*
X247861249Y-157895195D01*
X248404206Y-157352240D01*
X248301151Y-157277366D01*
X248076072Y-157162683D01*
X247835815Y-157084618D01*
X247586307Y-157045100D01*
X247333693Y-157045100D01*
X247084184Y-157084618D01*
X246843927Y-157162683D01*
X246618844Y-157277368D01*
X246515793Y-157352239D01*
X246515792Y-157352240D01*
X247058748Y-157895196D01*
X247056948Y-157895942D01*
X246917583Y-157989063D01*
X246799063Y-158107583D01*
X246705942Y-158246948D01*
X246705196Y-158248748D01*
X246162240Y-157705792D01*
X246162239Y-157705793D01*
X246087368Y-157808844D01*
X245972683Y-158033927D01*
X245894618Y-158274184D01*
X245855100Y-158523692D01*
X211455000Y-158523692D01*
X211455000Y-157401153D01*
X222719500Y-157401153D01*
X222719500Y-157558846D01*
X222750261Y-157713489D01*
X222750264Y-157713501D01*
X222810602Y-157859172D01*
X222810609Y-157859185D01*
X222898210Y-157990288D01*
X222898213Y-157990292D01*
X223009707Y-158101786D01*
X223009711Y-158101789D01*
X223140814Y-158189390D01*
X223140827Y-158189397D01*
X223286498Y-158249735D01*
X223286503Y-158249737D01*
X223409406Y-158274184D01*
X223441153Y-158280499D01*
X223441156Y-158280500D01*
X223441158Y-158280500D01*
X223598844Y-158280500D01*
X223598845Y-158280499D01*
X223753497Y-158249737D01*
X223899179Y-158189394D01*
X224030289Y-158101789D01*
X224141789Y-157990289D01*
X224229394Y-157859179D01*
X224289737Y-157713497D01*
X224320500Y-157558842D01*
X224320500Y-157401158D01*
X224320500Y-157401155D01*
X224320499Y-157401153D01*
X224319507Y-157396164D01*
X224289737Y-157246503D01*
X224255018Y-157162683D01*
X224229397Y-157100827D01*
X224229390Y-157100814D01*
X224141789Y-156969711D01*
X224141786Y-156969707D01*
X224030292Y-156858213D01*
X224030288Y-156858210D01*
X223947912Y-156803168D01*
X223899185Y-156770609D01*
X223899172Y-156770602D01*
X223753501Y-156710264D01*
X223753489Y-156710261D01*
X223732837Y-156706153D01*
X236714500Y-156706153D01*
X236714500Y-156863846D01*
X236745261Y-157018489D01*
X236745264Y-157018501D01*
X236805602Y-157164172D01*
X236805609Y-157164185D01*
X236893210Y-157295288D01*
X236893213Y-157295292D01*
X237004707Y-157406786D01*
X237004711Y-157406789D01*
X237135814Y-157494390D01*
X237135827Y-157494397D01*
X237281498Y-157554735D01*
X237281503Y-157554737D01*
X237436153Y-157585499D01*
X237436156Y-157585500D01*
X237436158Y-157585500D01*
X237593844Y-157585500D01*
X237593845Y-157585499D01*
X237748497Y-157554737D01*
X237894179Y-157494394D01*
X238025289Y-157406789D01*
X238035914Y-157396164D01*
X238120260Y-157311819D01*
X238136786Y-157295292D01*
X238136789Y-157295289D01*
X238224394Y-157164179D01*
X238284737Y-157018497D01*
X238315500Y-156863842D01*
X238315500Y-156706158D01*
X238315500Y-156706155D01*
X238315499Y-156706153D01*
X238284738Y-156551510D01*
X238284737Y-156551503D01*
X238247723Y-156462142D01*
X238224397Y-156405827D01*
X238224390Y-156405814D01*
X238136789Y-156274711D01*
X238136786Y-156274707D01*
X238025292Y-156163213D01*
X238025288Y-156163210D01*
X237915587Y-156089910D01*
X237915561Y-156089893D01*
X237894179Y-156075606D01*
X237894172Y-156075602D01*
X237748501Y-156015264D01*
X237748489Y-156015261D01*
X237629780Y-155991648D01*
X248496200Y-155991648D01*
X248496200Y-156228351D01*
X248533229Y-156462142D01*
X248533229Y-156462145D01*
X248606372Y-156687256D01*
X248696349Y-156863844D01*
X248713835Y-156898163D01*
X248852966Y-157089660D01*
X249020340Y-157257034D01*
X249211837Y-157396165D01*
X249404614Y-157494390D01*
X249422743Y-157503627D01*
X249647855Y-157576770D01*
X249647856Y-157576770D01*
X249647859Y-157576771D01*
X249881648Y-157613800D01*
X249881649Y-157613800D01*
X250118351Y-157613800D01*
X250118352Y-157613800D01*
X250352141Y-157576771D01*
X250352144Y-157576770D01*
X250352145Y-157576770D01*
X250577256Y-157503627D01*
X250577256Y-157503626D01*
X250577259Y-157503626D01*
X250788163Y-157396165D01*
X250979660Y-157257034D01*
X251147034Y-157089660D01*
X251286165Y-156898163D01*
X251393626Y-156687259D01*
X251396147Y-156679500D01*
X251466770Y-156462145D01*
X251466770Y-156462144D01*
X251466771Y-156462141D01*
X251503800Y-156228352D01*
X251503800Y-155991648D01*
X251466771Y-155757859D01*
X251466770Y-155757855D01*
X251466770Y-155757854D01*
X251393627Y-155532743D01*
X251286164Y-155321836D01*
X251147034Y-155130340D01*
X250979660Y-154962966D01*
X250788163Y-154823835D01*
X250577256Y-154716372D01*
X250352144Y-154643229D01*
X250176799Y-154615457D01*
X250118352Y-154606200D01*
X249881648Y-154606200D01*
X249803718Y-154618543D01*
X249647857Y-154643229D01*
X249647854Y-154643229D01*
X249422743Y-154716372D01*
X249211836Y-154823835D01*
X249151382Y-154867758D01*
X249020340Y-154962966D01*
X249020338Y-154962968D01*
X249020337Y-154962968D01*
X248852968Y-155130337D01*
X248852968Y-155130338D01*
X248852966Y-155130340D01*
X248820591Y-155174900D01*
X248713835Y-155321836D01*
X248606372Y-155532743D01*
X248533229Y-155757854D01*
X248533229Y-155757857D01*
X248496200Y-155991648D01*
X237629780Y-155991648D01*
X237593845Y-155984500D01*
X237593842Y-155984500D01*
X237436158Y-155984500D01*
X237436155Y-155984500D01*
X237281510Y-156015261D01*
X237281498Y-156015264D01*
X237135827Y-156075602D01*
X237135814Y-156075609D01*
X237004711Y-156163210D01*
X237004707Y-156163213D01*
X236893213Y-156274707D01*
X236893210Y-156274711D01*
X236805609Y-156405814D01*
X236805602Y-156405827D01*
X236745264Y-156551498D01*
X236745261Y-156551510D01*
X236714500Y-156706153D01*
X223732837Y-156706153D01*
X223598845Y-156679500D01*
X223598842Y-156679500D01*
X223441158Y-156679500D01*
X223441155Y-156679500D01*
X223286510Y-156710261D01*
X223286498Y-156710264D01*
X223140827Y-156770602D01*
X223140814Y-156770609D01*
X223009711Y-156858210D01*
X223009707Y-156858213D01*
X222898213Y-156969707D01*
X222898210Y-156969711D01*
X222810609Y-157100814D01*
X222810602Y-157100827D01*
X222750264Y-157246498D01*
X222750261Y-157246510D01*
X222719500Y-157401153D01*
X211455000Y-157401153D01*
X211455000Y-153071947D01*
X213187500Y-153071947D01*
X213187500Y-153308052D01*
X213224434Y-153541247D01*
X213297397Y-153765802D01*
X213404587Y-153976174D01*
X213464838Y-154059104D01*
X213464840Y-154059105D01*
X214086458Y-153437487D01*
X214111478Y-153497890D01*
X214182612Y-153604351D01*
X214273149Y-153694888D01*
X214379610Y-153766022D01*
X214440011Y-153791041D01*
X213818393Y-154412658D01*
X213901328Y-154472914D01*
X214111697Y-154580102D01*
X214336252Y-154653065D01*
X214336251Y-154653065D01*
X214569448Y-154690000D01*
X214805552Y-154690000D01*
X215038747Y-154653065D01*
X215263302Y-154580102D01*
X215473663Y-154472918D01*
X215473669Y-154472914D01*
X215556604Y-154412658D01*
X215556605Y-154412658D01*
X214934988Y-153791041D01*
X214995390Y-153766022D01*
X215101851Y-153694888D01*
X215192388Y-153604351D01*
X215263522Y-153497890D01*
X215288541Y-153437488D01*
X215910158Y-154059105D01*
X215910158Y-154059104D01*
X215970414Y-153976169D01*
X215970418Y-153976163D01*
X216077602Y-153765802D01*
X216150565Y-153541247D01*
X216187500Y-153308052D01*
X216187500Y-153071947D01*
X216150565Y-152838752D01*
X216077602Y-152614197D01*
X215970413Y-152403826D01*
X215958879Y-152387950D01*
X215910346Y-152321153D01*
X217639500Y-152321153D01*
X217639500Y-152478846D01*
X217670261Y-152633489D01*
X217670264Y-152633501D01*
X217730602Y-152779172D01*
X217730609Y-152779185D01*
X217818210Y-152910288D01*
X217818213Y-152910292D01*
X217929707Y-153021786D01*
X217929711Y-153021789D01*
X218060814Y-153109390D01*
X218060827Y-153109397D01*
X218206498Y-153169735D01*
X218206503Y-153169737D01*
X218329406Y-153194184D01*
X218361153Y-153200499D01*
X218361156Y-153200500D01*
X218361158Y-153200500D01*
X218518844Y-153200500D01*
X218518845Y-153200499D01*
X218673497Y-153169737D01*
X218819179Y-153109394D01*
X218950289Y-153021789D01*
X219061789Y-152910289D01*
X219149394Y-152779179D01*
X219209737Y-152633497D01*
X219240500Y-152478842D01*
X219240500Y-152321158D01*
X219240500Y-152321155D01*
X219240499Y-152321153D01*
X222719500Y-152321153D01*
X222719500Y-152478846D01*
X222750261Y-152633489D01*
X222750264Y-152633501D01*
X222810602Y-152779172D01*
X222810609Y-152779185D01*
X222898210Y-152910288D01*
X222898213Y-152910292D01*
X223009707Y-153021786D01*
X223009711Y-153021789D01*
X223140814Y-153109390D01*
X223140827Y-153109397D01*
X223286498Y-153169735D01*
X223286503Y-153169737D01*
X223409406Y-153194184D01*
X223441153Y-153200499D01*
X223441156Y-153200500D01*
X223441158Y-153200500D01*
X223598844Y-153200500D01*
X223598845Y-153200499D01*
X223753497Y-153169737D01*
X223899179Y-153109394D01*
X224030289Y-153021789D01*
X224141789Y-152910289D01*
X224229394Y-152779179D01*
X224289737Y-152633497D01*
X224320500Y-152478842D01*
X224320500Y-152321158D01*
X224320500Y-152321155D01*
X224320499Y-152321153D01*
X224319666Y-152316964D01*
X224289737Y-152166503D01*
X224252456Y-152076498D01*
X224229397Y-152020827D01*
X224229390Y-152020814D01*
X224141789Y-151889711D01*
X224141786Y-151889707D01*
X224030292Y-151778213D01*
X224030288Y-151778210D01*
X223899185Y-151690609D01*
X223899172Y-151690602D01*
X223776109Y-151639628D01*
X223776106Y-151639628D01*
X223753497Y-151630263D01*
X223753492Y-151630262D01*
X223753489Y-151630261D01*
X223598845Y-151599500D01*
X223598842Y-151599500D01*
X223441158Y-151599500D01*
X223441155Y-151599500D01*
X223286510Y-151630261D01*
X223286498Y-151630264D01*
X223140827Y-151690602D01*
X223140814Y-151690609D01*
X223009711Y-151778210D01*
X223009707Y-151778213D01*
X222898213Y-151889707D01*
X222898210Y-151889711D01*
X222810609Y-152020814D01*
X222810602Y-152020827D01*
X222750264Y-152166498D01*
X222750261Y-152166510D01*
X222719500Y-152321153D01*
X219240499Y-152321153D01*
X219239666Y-152316964D01*
X219209737Y-152166503D01*
X219172456Y-152076498D01*
X219149397Y-152020827D01*
X219149390Y-152020814D01*
X219061789Y-151889711D01*
X219061786Y-151889707D01*
X218950292Y-151778213D01*
X218950288Y-151778210D01*
X218819185Y-151690609D01*
X218819172Y-151690602D01*
X218673501Y-151630264D01*
X218673489Y-151630261D01*
X218518845Y-151599500D01*
X218518842Y-151599500D01*
X218361158Y-151599500D01*
X218361155Y-151599500D01*
X218206510Y-151630261D01*
X218206498Y-151630264D01*
X218060827Y-151690602D01*
X218060814Y-151690609D01*
X217929711Y-151778210D01*
X217929707Y-151778213D01*
X217818213Y-151889707D01*
X217818210Y-151889711D01*
X217730609Y-152020814D01*
X217730602Y-152020827D01*
X217670264Y-152166498D01*
X217670261Y-152166510D01*
X217639500Y-152321153D01*
X215910346Y-152321153D01*
X215910158Y-152320894D01*
X215910158Y-152320893D01*
X215288541Y-152942511D01*
X215263522Y-152882110D01*
X215192388Y-152775649D01*
X215101851Y-152685112D01*
X214995390Y-152613978D01*
X214934988Y-152588958D01*
X215556605Y-151967340D01*
X215556604Y-151967338D01*
X215473674Y-151907087D01*
X215263302Y-151799897D01*
X215038747Y-151726934D01*
X215038748Y-151726934D01*
X214805552Y-151690000D01*
X214569448Y-151690000D01*
X214336252Y-151726934D01*
X214111697Y-151799897D01*
X213901330Y-151907084D01*
X213818394Y-151967340D01*
X214440012Y-152588958D01*
X214379610Y-152613978D01*
X214273149Y-152685112D01*
X214182612Y-152775649D01*
X214111478Y-152882110D01*
X214086458Y-152942512D01*
X213464840Y-152320894D01*
X213404584Y-152403830D01*
X213297397Y-152614197D01*
X213224434Y-152838752D01*
X213187500Y-153071947D01*
X211455000Y-153071947D01*
X211455000Y-151531153D01*
X235749500Y-151531153D01*
X235749500Y-151688846D01*
X235780261Y-151843489D01*
X235780264Y-151843501D01*
X235840602Y-151989172D01*
X235840609Y-151989185D01*
X235928210Y-152120288D01*
X235928213Y-152120292D01*
X236039707Y-152231786D01*
X236039711Y-152231789D01*
X236114703Y-152281898D01*
X236159508Y-152335511D01*
X236168215Y-152404836D01*
X236138060Y-152467863D01*
X236114703Y-152488102D01*
X236039711Y-152538210D01*
X236039707Y-152538213D01*
X235928213Y-152649707D01*
X235928210Y-152649711D01*
X235840609Y-152780814D01*
X235840602Y-152780827D01*
X235780264Y-152926498D01*
X235780261Y-152926510D01*
X235749500Y-153081153D01*
X235749500Y-153238846D01*
X235780261Y-153393489D01*
X235780264Y-153393501D01*
X235840602Y-153539172D01*
X235840609Y-153539185D01*
X235928210Y-153670288D01*
X235928213Y-153670292D01*
X236039707Y-153781786D01*
X236039711Y-153781789D01*
X236170814Y-153869390D01*
X236170827Y-153869397D01*
X236301573Y-153923553D01*
X236316503Y-153929737D01*
X236471153Y-153960499D01*
X236471156Y-153960500D01*
X236471158Y-153960500D01*
X236628844Y-153960500D01*
X236628845Y-153960499D01*
X236783497Y-153929737D01*
X236929179Y-153869394D01*
X237060289Y-153781789D01*
X237171789Y-153670289D01*
X237259394Y-153539179D01*
X237298946Y-153443692D01*
X245855100Y-153443692D01*
X245855100Y-153696307D01*
X245894618Y-153945815D01*
X245972683Y-154186072D01*
X246087366Y-154411151D01*
X246162240Y-154514205D01*
X246162240Y-154514206D01*
X246705195Y-153971250D01*
X246705942Y-153973052D01*
X246799063Y-154112417D01*
X246917583Y-154230937D01*
X247056948Y-154324058D01*
X247058748Y-154324803D01*
X246515792Y-154867758D01*
X246618848Y-154942633D01*
X246843927Y-155057316D01*
X247084184Y-155135381D01*
X247333693Y-155174900D01*
X247586307Y-155174900D01*
X247835815Y-155135381D01*
X248076072Y-155057316D01*
X248301143Y-154942637D01*
X248301149Y-154942633D01*
X248404205Y-154867758D01*
X248404206Y-154867758D01*
X247861251Y-154324803D01*
X247863052Y-154324058D01*
X248002417Y-154230937D01*
X248120937Y-154112417D01*
X248214058Y-153973052D01*
X248214803Y-153971251D01*
X248757758Y-154514206D01*
X248757758Y-154514205D01*
X248832633Y-154411149D01*
X248832637Y-154411143D01*
X248947316Y-154186072D01*
X249025381Y-153945815D01*
X249064900Y-153696307D01*
X249064900Y-153443692D01*
X249025381Y-153194184D01*
X248947316Y-152953927D01*
X248832633Y-152728848D01*
X248757758Y-152625793D01*
X248757758Y-152625792D01*
X248214803Y-153168747D01*
X248214058Y-153166948D01*
X248120937Y-153027583D01*
X248002417Y-152909063D01*
X247863052Y-152815942D01*
X247861249Y-152815195D01*
X248404206Y-152272240D01*
X248301151Y-152197366D01*
X248076072Y-152082683D01*
X247835815Y-152004618D01*
X247586307Y-151965100D01*
X247333693Y-151965100D01*
X247084184Y-152004618D01*
X246843927Y-152082683D01*
X246618844Y-152197368D01*
X246515793Y-152272239D01*
X246515792Y-152272240D01*
X247058748Y-152815196D01*
X247056948Y-152815942D01*
X246917583Y-152909063D01*
X246799063Y-153027583D01*
X246705942Y-153166948D01*
X246705196Y-153168748D01*
X246162240Y-152625792D01*
X246162239Y-152625793D01*
X246087368Y-152728844D01*
X245972683Y-152953927D01*
X245894618Y-153194184D01*
X245855100Y-153443692D01*
X237298946Y-153443692D01*
X237319737Y-153393497D01*
X237350500Y-153238842D01*
X237350500Y-153081158D01*
X237350500Y-153081155D01*
X237350499Y-153081153D01*
X237338213Y-153019390D01*
X237319737Y-152926503D01*
X237283390Y-152838752D01*
X237259397Y-152780827D01*
X237259390Y-152780814D01*
X237171789Y-152649711D01*
X237171786Y-152649707D01*
X237060292Y-152538213D01*
X237060288Y-152538210D01*
X236985296Y-152488102D01*
X236968668Y-152468205D01*
X236949234Y-152451037D01*
X236946626Y-152441831D01*
X236940491Y-152434490D01*
X236937259Y-152408760D01*
X236930193Y-152383812D01*
X236932976Y-152374658D01*
X236931784Y-152365165D01*
X236942975Y-152341772D01*
X236950519Y-152316964D01*
X236958876Y-152308537D01*
X236961938Y-152302138D01*
X236973886Y-152290513D01*
X236979342Y-152285876D01*
X237060289Y-152231789D01*
X237060925Y-152231153D01*
X242889500Y-152231153D01*
X242889500Y-152388846D01*
X242920261Y-152543489D01*
X242920264Y-152543501D01*
X242980602Y-152689172D01*
X242980609Y-152689185D01*
X243068210Y-152820288D01*
X243068213Y-152820292D01*
X243179707Y-152931786D01*
X243179711Y-152931789D01*
X243310814Y-153019390D01*
X243310827Y-153019397D01*
X243437696Y-153071947D01*
X243456503Y-153079737D01*
X243605578Y-153109390D01*
X243611153Y-153110499D01*
X243611156Y-153110500D01*
X243611158Y-153110500D01*
X243768844Y-153110500D01*
X243768845Y-153110499D01*
X243923497Y-153079737D01*
X244069179Y-153019394D01*
X244200289Y-152931789D01*
X244311789Y-152820289D01*
X244399394Y-152689179D01*
X244459737Y-152543497D01*
X244490500Y-152388842D01*
X244490500Y-152231158D01*
X244490500Y-152231155D01*
X244490499Y-152231153D01*
X244483778Y-152197366D01*
X244459737Y-152076503D01*
X244459735Y-152076498D01*
X244399397Y-151930827D01*
X244399390Y-151930814D01*
X244311789Y-151799711D01*
X244311786Y-151799707D01*
X244200292Y-151688213D01*
X244200288Y-151688210D01*
X244069185Y-151600609D01*
X244069172Y-151600602D01*
X243923501Y-151540264D01*
X243923489Y-151540261D01*
X243768845Y-151509500D01*
X243768842Y-151509500D01*
X243611158Y-151509500D01*
X243611155Y-151509500D01*
X243456510Y-151540261D01*
X243456498Y-151540264D01*
X243310827Y-151600602D01*
X243310814Y-151600609D01*
X243179711Y-151688210D01*
X243179707Y-151688213D01*
X243068213Y-151799707D01*
X243068210Y-151799711D01*
X242980609Y-151930814D01*
X242980602Y-151930827D01*
X242920264Y-152076498D01*
X242920261Y-152076510D01*
X242889500Y-152231153D01*
X237060925Y-152231153D01*
X237171789Y-152120289D01*
X237259394Y-151989179D01*
X237319737Y-151843497D01*
X237350500Y-151688842D01*
X237350500Y-151531158D01*
X237350500Y-151531155D01*
X237350499Y-151531153D01*
X237319738Y-151376510D01*
X237319737Y-151376503D01*
X237319735Y-151376498D01*
X237259397Y-151230827D01*
X237259390Y-151230814D01*
X237171789Y-151099711D01*
X237171786Y-151099707D01*
X237060292Y-150988213D01*
X237060288Y-150988210D01*
X236929185Y-150900609D01*
X236929172Y-150900602D01*
X236783501Y-150840264D01*
X236783489Y-150840261D01*
X236628845Y-150809500D01*
X236628842Y-150809500D01*
X236471158Y-150809500D01*
X236471155Y-150809500D01*
X236316510Y-150840261D01*
X236316498Y-150840264D01*
X236170827Y-150900602D01*
X236170814Y-150900609D01*
X236039711Y-150988210D01*
X236039707Y-150988213D01*
X235928213Y-151099707D01*
X235928210Y-151099711D01*
X235840609Y-151230814D01*
X235840602Y-151230827D01*
X235780264Y-151376498D01*
X235780261Y-151376510D01*
X235749500Y-151531153D01*
X211455000Y-151531153D01*
X211455000Y-149891153D01*
X242599500Y-149891153D01*
X242599500Y-150048846D01*
X242630261Y-150203489D01*
X242630264Y-150203501D01*
X242690602Y-150349172D01*
X242690609Y-150349185D01*
X242778210Y-150480288D01*
X242778213Y-150480292D01*
X242889707Y-150591786D01*
X242889711Y-150591789D01*
X243020814Y-150679390D01*
X243020827Y-150679397D01*
X243166498Y-150739735D01*
X243166503Y-150739737D01*
X243321153Y-150770499D01*
X243321156Y-150770500D01*
X243321158Y-150770500D01*
X243478844Y-150770500D01*
X243478845Y-150770499D01*
X243633497Y-150739737D01*
X243779179Y-150679394D01*
X243910289Y-150591789D01*
X244021789Y-150480289D01*
X244109394Y-150349179D01*
X244169737Y-150203497D01*
X244200500Y-150048842D01*
X244200500Y-149891158D01*
X244200500Y-149891155D01*
X244200499Y-149891153D01*
X244169738Y-149736510D01*
X244169737Y-149736503D01*
X244169735Y-149736498D01*
X244109397Y-149590827D01*
X244109390Y-149590814D01*
X244021789Y-149459711D01*
X244021786Y-149459707D01*
X243910292Y-149348213D01*
X243910288Y-149348210D01*
X243779185Y-149260609D01*
X243779172Y-149260602D01*
X243633501Y-149200264D01*
X243633489Y-149200261D01*
X243478845Y-149169500D01*
X243478842Y-149169500D01*
X243321158Y-149169500D01*
X243321155Y-149169500D01*
X243166510Y-149200261D01*
X243166498Y-149200264D01*
X243020827Y-149260602D01*
X243020814Y-149260609D01*
X242889711Y-149348210D01*
X242889707Y-149348213D01*
X242778213Y-149459707D01*
X242778210Y-149459711D01*
X242690609Y-149590814D01*
X242690602Y-149590827D01*
X242630264Y-149736498D01*
X242630261Y-149736510D01*
X242599500Y-149891153D01*
X211455000Y-149891153D01*
X211455000Y-148351153D01*
X213239500Y-148351153D01*
X213239500Y-148508846D01*
X213270261Y-148663489D01*
X213270264Y-148663501D01*
X213330602Y-148809172D01*
X213330609Y-148809185D01*
X213418210Y-148940288D01*
X213418213Y-148940292D01*
X213529707Y-149051786D01*
X213529711Y-149051789D01*
X213660814Y-149139390D01*
X213660827Y-149139397D01*
X213806498Y-149199735D01*
X213806503Y-149199737D01*
X213961153Y-149230499D01*
X213961156Y-149230500D01*
X213961158Y-149230500D01*
X214118844Y-149230500D01*
X214118845Y-149230499D01*
X214273497Y-149199737D01*
X214419179Y-149139394D01*
X214550289Y-149051789D01*
X214661789Y-148940289D01*
X214749394Y-148809179D01*
X214809737Y-148663497D01*
X214825062Y-148586454D01*
X214840500Y-148508844D01*
X214840500Y-148351155D01*
X214840499Y-148351153D01*
X214809738Y-148196510D01*
X214809737Y-148196503D01*
X214778256Y-148120500D01*
X214749397Y-148050827D01*
X214749390Y-148050814D01*
X214661789Y-147919711D01*
X214661786Y-147919707D01*
X214550292Y-147808213D01*
X214550288Y-147808210D01*
X214419185Y-147720609D01*
X214419172Y-147720602D01*
X214273501Y-147660264D01*
X214273489Y-147660261D01*
X214118845Y-147629500D01*
X214118842Y-147629500D01*
X213961158Y-147629500D01*
X213961155Y-147629500D01*
X213806510Y-147660261D01*
X213806498Y-147660264D01*
X213660827Y-147720602D01*
X213660814Y-147720609D01*
X213529711Y-147808210D01*
X213529707Y-147808213D01*
X213418213Y-147919707D01*
X213418210Y-147919711D01*
X213330609Y-148050814D01*
X213330602Y-148050827D01*
X213270264Y-148196498D01*
X213270261Y-148196510D01*
X213239500Y-148351153D01*
X211455000Y-148351153D01*
X211455000Y-147241153D01*
X217639500Y-147241153D01*
X217639500Y-147398846D01*
X217670261Y-147553489D01*
X217670264Y-147553501D01*
X217730602Y-147699172D01*
X217730609Y-147699185D01*
X217818210Y-147830288D01*
X217818213Y-147830292D01*
X217929707Y-147941786D01*
X217929711Y-147941789D01*
X218060814Y-148029390D01*
X218060827Y-148029397D01*
X218206498Y-148089735D01*
X218206503Y-148089737D01*
X218361153Y-148120499D01*
X218361156Y-148120500D01*
X218361158Y-148120500D01*
X218518844Y-148120500D01*
X218518845Y-148120499D01*
X218673497Y-148089737D01*
X218819179Y-148029394D01*
X218950289Y-147941789D01*
X219061789Y-147830289D01*
X219149394Y-147699179D01*
X219209737Y-147553497D01*
X219240500Y-147398842D01*
X219240500Y-147241158D01*
X219240500Y-147241155D01*
X219240499Y-147241153D01*
X219238040Y-147228793D01*
X219209737Y-147086503D01*
X219184455Y-147025466D01*
X221590000Y-147025466D01*
X221590000Y-147274533D01*
X221622508Y-147521463D01*
X221686973Y-147762049D01*
X221782283Y-147992148D01*
X221782288Y-147992159D01*
X221906813Y-148207841D01*
X221906819Y-148207849D01*
X221981400Y-148305045D01*
X222774152Y-147512292D01*
X222781049Y-147528942D01*
X222868599Y-147659970D01*
X222980030Y-147771401D01*
X223111058Y-147858951D01*
X223127705Y-147865846D01*
X222334953Y-148658598D01*
X222432150Y-148733180D01*
X222432158Y-148733186D01*
X222647840Y-148857711D01*
X222647851Y-148857716D01*
X222877950Y-148953026D01*
X223118536Y-149017491D01*
X223365466Y-149050000D01*
X223614534Y-149050000D01*
X223861463Y-149017491D01*
X224102049Y-148953026D01*
X224332148Y-148857716D01*
X224332159Y-148857711D01*
X224547855Y-148733178D01*
X224645045Y-148658600D01*
X224645045Y-148658597D01*
X223852294Y-147865846D01*
X223868942Y-147858951D01*
X223999970Y-147771401D01*
X224111401Y-147659970D01*
X224198951Y-147528942D01*
X224205846Y-147512294D01*
X224998597Y-148305045D01*
X224998600Y-148305045D01*
X225073178Y-148207855D01*
X225197711Y-147992159D01*
X225197716Y-147992148D01*
X225293026Y-147762049D01*
X225357491Y-147521463D01*
X225390000Y-147274533D01*
X225390000Y-147241153D01*
X232879500Y-147241153D01*
X232879500Y-147398846D01*
X232910261Y-147553489D01*
X232910264Y-147553501D01*
X232970602Y-147699172D01*
X232970609Y-147699185D01*
X233058210Y-147830288D01*
X233058213Y-147830292D01*
X233169707Y-147941786D01*
X233169711Y-147941789D01*
X233300814Y-148029390D01*
X233300827Y-148029397D01*
X233446498Y-148089735D01*
X233446503Y-148089737D01*
X233601153Y-148120499D01*
X233601156Y-148120500D01*
X233601158Y-148120500D01*
X233758844Y-148120500D01*
X233758845Y-148120499D01*
X233913497Y-148089737D01*
X234059179Y-148029394D01*
X234190289Y-147941789D01*
X234301789Y-147830289D01*
X234389394Y-147699179D01*
X234449737Y-147553497D01*
X234480500Y-147398842D01*
X234480500Y-147241158D01*
X234480500Y-147241155D01*
X234480499Y-147241153D01*
X248119500Y-147241153D01*
X248119500Y-147398846D01*
X248150261Y-147553489D01*
X248150264Y-147553501D01*
X248210602Y-147699172D01*
X248210609Y-147699185D01*
X248298210Y-147830288D01*
X248298213Y-147830292D01*
X248409707Y-147941786D01*
X248409711Y-147941789D01*
X248540814Y-148029390D01*
X248540827Y-148029397D01*
X248686498Y-148089735D01*
X248686503Y-148089737D01*
X248841153Y-148120499D01*
X248841156Y-148120500D01*
X248841158Y-148120500D01*
X248998844Y-148120500D01*
X248998845Y-148120499D01*
X249153497Y-148089737D01*
X249299179Y-148029394D01*
X249430289Y-147941789D01*
X249541789Y-147830289D01*
X249629394Y-147699179D01*
X249689737Y-147553497D01*
X249720500Y-147398842D01*
X249720500Y-147241158D01*
X249720500Y-147241155D01*
X249720499Y-147241153D01*
X249718040Y-147228793D01*
X249689737Y-147086503D01*
X249654114Y-147000500D01*
X249629397Y-146940827D01*
X249629390Y-146940814D01*
X249541789Y-146809711D01*
X249541786Y-146809707D01*
X249430292Y-146698213D01*
X249430288Y-146698210D01*
X249299185Y-146610609D01*
X249299172Y-146610602D01*
X249153501Y-146550264D01*
X249153489Y-146550261D01*
X248998845Y-146519500D01*
X248998842Y-146519500D01*
X248841158Y-146519500D01*
X248841155Y-146519500D01*
X248686510Y-146550261D01*
X248686498Y-146550264D01*
X248540827Y-146610602D01*
X248540814Y-146610609D01*
X248409711Y-146698210D01*
X248409707Y-146698213D01*
X248298213Y-146809707D01*
X248298210Y-146809711D01*
X248210609Y-146940814D01*
X248210602Y-146940827D01*
X248150264Y-147086498D01*
X248150261Y-147086510D01*
X248119500Y-147241153D01*
X234480499Y-147241153D01*
X234478040Y-147228793D01*
X234449737Y-147086503D01*
X234414114Y-147000500D01*
X234389397Y-146940827D01*
X234389390Y-146940814D01*
X234301789Y-146809711D01*
X234301786Y-146809707D01*
X234190292Y-146698213D01*
X234190288Y-146698210D01*
X234059185Y-146610609D01*
X234059172Y-146610602D01*
X233913501Y-146550264D01*
X233913489Y-146550261D01*
X233758845Y-146519500D01*
X233758842Y-146519500D01*
X233601158Y-146519500D01*
X233601155Y-146519500D01*
X233446510Y-146550261D01*
X233446498Y-146550264D01*
X233300827Y-146610602D01*
X233300814Y-146610609D01*
X233169711Y-146698210D01*
X233169707Y-146698213D01*
X233058213Y-146809707D01*
X233058210Y-146809711D01*
X232970609Y-146940814D01*
X232970602Y-146940827D01*
X232910264Y-147086498D01*
X232910261Y-147086510D01*
X232879500Y-147241153D01*
X225390000Y-147241153D01*
X225390000Y-147025466D01*
X225357491Y-146778536D01*
X225293026Y-146537950D01*
X225197716Y-146307851D01*
X225197711Y-146307840D01*
X225122208Y-146177066D01*
X225089926Y-146121153D01*
X240779500Y-146121153D01*
X240779500Y-146278846D01*
X240810261Y-146433489D01*
X240810264Y-146433501D01*
X240870602Y-146579172D01*
X240870609Y-146579185D01*
X240958210Y-146710288D01*
X240958213Y-146710292D01*
X241069707Y-146821786D01*
X241069711Y-146821789D01*
X241200814Y-146909390D01*
X241200827Y-146909397D01*
X241346498Y-146969735D01*
X241346503Y-146969737D01*
X241501153Y-147000499D01*
X241501156Y-147000500D01*
X241501158Y-147000500D01*
X241658844Y-147000500D01*
X241658845Y-147000499D01*
X241813497Y-146969737D01*
X241959179Y-146909394D01*
X242090289Y-146821789D01*
X242201789Y-146710289D01*
X242289394Y-146579179D01*
X242349737Y-146433497D01*
X242380500Y-146278842D01*
X242380500Y-146121158D01*
X242380500Y-146121155D01*
X242380499Y-146121153D01*
X242349737Y-145966503D01*
X242349735Y-145966498D01*
X242289397Y-145820827D01*
X242289390Y-145820814D01*
X242201789Y-145689711D01*
X242201786Y-145689707D01*
X242090292Y-145578213D01*
X242090288Y-145578210D01*
X241959185Y-145490609D01*
X241959172Y-145490602D01*
X241813501Y-145430264D01*
X241813489Y-145430261D01*
X241658845Y-145399500D01*
X241658842Y-145399500D01*
X241501158Y-145399500D01*
X241501155Y-145399500D01*
X241346510Y-145430261D01*
X241346498Y-145430264D01*
X241200827Y-145490602D01*
X241200814Y-145490609D01*
X241069711Y-145578210D01*
X241069707Y-145578213D01*
X240958213Y-145689707D01*
X240958210Y-145689711D01*
X240870609Y-145820814D01*
X240870602Y-145820827D01*
X240810264Y-145966498D01*
X240810261Y-145966510D01*
X240779500Y-146121153D01*
X225089926Y-146121153D01*
X225073186Y-146092158D01*
X225073180Y-146092150D01*
X224998598Y-145994953D01*
X224205846Y-146787705D01*
X224198951Y-146771058D01*
X224111401Y-146640030D01*
X223999970Y-146528599D01*
X223868942Y-146441049D01*
X223852292Y-146434152D01*
X224645045Y-145641400D01*
X224547849Y-145566819D01*
X224547841Y-145566813D01*
X224332159Y-145442288D01*
X224332148Y-145442283D01*
X224102049Y-145346973D01*
X223861463Y-145282508D01*
X223614534Y-145250000D01*
X223365466Y-145250000D01*
X223118536Y-145282508D01*
X222877950Y-145346973D01*
X222647851Y-145442283D01*
X222647847Y-145442285D01*
X222432143Y-145566823D01*
X222334953Y-145641399D01*
X222334953Y-145641400D01*
X223127706Y-146434153D01*
X223111058Y-146441049D01*
X222980030Y-146528599D01*
X222868599Y-146640030D01*
X222781049Y-146771058D01*
X222774153Y-146787706D01*
X221981400Y-145994953D01*
X221981399Y-145994953D01*
X221906823Y-146092143D01*
X221782285Y-146307847D01*
X221782283Y-146307851D01*
X221686973Y-146537950D01*
X221622508Y-146778536D01*
X221590000Y-147025466D01*
X219184455Y-147025466D01*
X219161372Y-146969738D01*
X219149397Y-146940827D01*
X219149390Y-146940814D01*
X219061789Y-146809711D01*
X219061786Y-146809707D01*
X218950292Y-146698213D01*
X218950288Y-146698210D01*
X218819185Y-146610609D01*
X218819172Y-146610602D01*
X218673501Y-146550264D01*
X218673489Y-146550261D01*
X218518845Y-146519500D01*
X218518842Y-146519500D01*
X218361158Y-146519500D01*
X218361155Y-146519500D01*
X218206510Y-146550261D01*
X218206498Y-146550264D01*
X218060827Y-146610602D01*
X218060814Y-146610609D01*
X217929711Y-146698210D01*
X217929707Y-146698213D01*
X217818213Y-146809707D01*
X217818210Y-146809711D01*
X217730609Y-146940814D01*
X217730602Y-146940827D01*
X217670264Y-147086498D01*
X217670261Y-147086510D01*
X217639500Y-147241153D01*
X211455000Y-147241153D01*
X211455000Y-144193153D01*
X213277500Y-144193153D01*
X213277500Y-144350846D01*
X213308261Y-144505489D01*
X213308264Y-144505501D01*
X213368602Y-144651172D01*
X213368609Y-144651185D01*
X213456210Y-144782288D01*
X213456213Y-144782292D01*
X213567707Y-144893786D01*
X213567711Y-144893789D01*
X213698814Y-144981390D01*
X213698827Y-144981397D01*
X213844498Y-145041735D01*
X213844503Y-145041737D01*
X213999153Y-145072499D01*
X213999156Y-145072500D01*
X213999158Y-145072500D01*
X214156844Y-145072500D01*
X214156845Y-145072499D01*
X214311497Y-145041737D01*
X214457179Y-144981394D01*
X214588289Y-144893789D01*
X214699789Y-144782289D01*
X214787394Y-144651179D01*
X214820542Y-144571153D01*
X235919500Y-144571153D01*
X235919500Y-144728846D01*
X235950261Y-144883489D01*
X235950264Y-144883501D01*
X236010602Y-145029172D01*
X236010609Y-145029185D01*
X236098210Y-145160288D01*
X236098213Y-145160292D01*
X236209707Y-145271786D01*
X236209711Y-145271789D01*
X236340814Y-145359390D01*
X236340827Y-145359397D01*
X236437646Y-145399500D01*
X236486503Y-145419737D01*
X236599849Y-145442283D01*
X236641153Y-145450499D01*
X236641156Y-145450500D01*
X236641158Y-145450500D01*
X236798844Y-145450500D01*
X236798845Y-145450499D01*
X236953497Y-145419737D01*
X237099179Y-145359394D01*
X237230289Y-145271789D01*
X237341789Y-145160289D01*
X237429394Y-145029179D01*
X237489737Y-144883497D01*
X237520500Y-144728842D01*
X237520500Y-144571158D01*
X237520500Y-144571155D01*
X237520499Y-144571153D01*
X237507438Y-144505493D01*
X237489737Y-144416503D01*
X237462541Y-144350846D01*
X237429397Y-144270827D01*
X237429390Y-144270814D01*
X237341789Y-144139711D01*
X237341786Y-144139707D01*
X237230292Y-144028213D01*
X237230288Y-144028210D01*
X237099185Y-143940609D01*
X237099172Y-143940602D01*
X236953501Y-143880264D01*
X236953489Y-143880261D01*
X236798845Y-143849500D01*
X236798842Y-143849500D01*
X236641158Y-143849500D01*
X236641155Y-143849500D01*
X236486510Y-143880261D01*
X236486498Y-143880264D01*
X236340827Y-143940602D01*
X236340814Y-143940609D01*
X236209711Y-144028210D01*
X236209707Y-144028213D01*
X236098213Y-144139707D01*
X236098210Y-144139711D01*
X236010609Y-144270814D01*
X236010602Y-144270827D01*
X235950264Y-144416498D01*
X235950261Y-144416510D01*
X235919500Y-144571153D01*
X214820542Y-144571153D01*
X214847737Y-144505497D01*
X214878500Y-144350842D01*
X214878500Y-144193158D01*
X214878500Y-144193155D01*
X214878499Y-144193153D01*
X214847738Y-144038510D01*
X214847737Y-144038503D01*
X214843474Y-144028210D01*
X214787397Y-143892827D01*
X214787390Y-143892814D01*
X214699789Y-143761711D01*
X214699786Y-143761707D01*
X214588292Y-143650213D01*
X214588288Y-143650210D01*
X214457185Y-143562609D01*
X214457172Y-143562602D01*
X214311501Y-143502264D01*
X214311489Y-143502261D01*
X214156845Y-143471500D01*
X214156842Y-143471500D01*
X213999158Y-143471500D01*
X213999155Y-143471500D01*
X213844510Y-143502261D01*
X213844498Y-143502264D01*
X213698827Y-143562602D01*
X213698814Y-143562609D01*
X213567711Y-143650210D01*
X213567707Y-143650213D01*
X213456213Y-143761707D01*
X213456210Y-143761711D01*
X213368609Y-143892814D01*
X213368602Y-143892827D01*
X213308264Y-144038498D01*
X213308261Y-144038510D01*
X213277500Y-144193153D01*
X211455000Y-144193153D01*
X211455000Y-142161153D01*
X217639500Y-142161153D01*
X217639500Y-142318846D01*
X217670261Y-142473489D01*
X217670264Y-142473501D01*
X217730602Y-142619172D01*
X217730609Y-142619185D01*
X217818210Y-142750288D01*
X217818213Y-142750292D01*
X217929707Y-142861786D01*
X217929711Y-142861789D01*
X218060814Y-142949390D01*
X218060827Y-142949397D01*
X218206498Y-143009735D01*
X218206503Y-143009737D01*
X218361153Y-143040499D01*
X218361156Y-143040500D01*
X218361158Y-143040500D01*
X218518844Y-143040500D01*
X218518845Y-143040499D01*
X218673497Y-143009737D01*
X218819179Y-142949394D01*
X218950289Y-142861789D01*
X219061789Y-142750289D01*
X219149394Y-142619179D01*
X219209737Y-142473497D01*
X219240500Y-142318842D01*
X219240500Y-142161158D01*
X219240500Y-142161155D01*
X219240499Y-142161153D01*
X222719500Y-142161153D01*
X222719500Y-142318846D01*
X222750261Y-142473489D01*
X222750264Y-142473501D01*
X222810602Y-142619172D01*
X222810609Y-142619185D01*
X222898210Y-142750288D01*
X222898213Y-142750292D01*
X223009707Y-142861786D01*
X223009711Y-142861789D01*
X223140814Y-142949390D01*
X223140827Y-142949397D01*
X223286498Y-143009735D01*
X223286503Y-143009737D01*
X223441153Y-143040499D01*
X223441156Y-143040500D01*
X223441158Y-143040500D01*
X223598844Y-143040500D01*
X223598845Y-143040499D01*
X223753497Y-143009737D01*
X223899179Y-142949394D01*
X224030289Y-142861789D01*
X224141789Y-142750289D01*
X224229394Y-142619179D01*
X224289737Y-142473497D01*
X224320500Y-142318842D01*
X224320500Y-142161158D01*
X224320500Y-142161155D01*
X224320499Y-142161153D01*
X232879500Y-142161153D01*
X232879500Y-142318846D01*
X232910261Y-142473489D01*
X232910264Y-142473501D01*
X232970602Y-142619172D01*
X232970609Y-142619185D01*
X233058210Y-142750288D01*
X233058213Y-142750292D01*
X233169707Y-142861786D01*
X233169711Y-142861789D01*
X233300814Y-142949390D01*
X233300827Y-142949397D01*
X233446498Y-143009735D01*
X233446503Y-143009737D01*
X233601153Y-143040499D01*
X233601156Y-143040500D01*
X233601158Y-143040500D01*
X233758844Y-143040500D01*
X233758845Y-143040499D01*
X233913497Y-143009737D01*
X234059179Y-142949394D01*
X234190289Y-142861789D01*
X234301789Y-142750289D01*
X234389394Y-142619179D01*
X234449737Y-142473497D01*
X234480500Y-142318842D01*
X234480500Y-142161158D01*
X234480500Y-142161155D01*
X234480499Y-142161153D01*
X237959500Y-142161153D01*
X237959500Y-142318846D01*
X237990261Y-142473489D01*
X237990264Y-142473501D01*
X238050602Y-142619172D01*
X238050609Y-142619185D01*
X238138210Y-142750288D01*
X238138213Y-142750292D01*
X238249707Y-142861786D01*
X238249711Y-142861789D01*
X238380814Y-142949390D01*
X238380827Y-142949397D01*
X238526498Y-143009735D01*
X238526503Y-143009737D01*
X238681153Y-143040499D01*
X238681156Y-143040500D01*
X238681158Y-143040500D01*
X238838844Y-143040500D01*
X238838845Y-143040499D01*
X238993497Y-143009737D01*
X239139179Y-142949394D01*
X239270289Y-142861789D01*
X239381789Y-142750289D01*
X239469394Y-142619179D01*
X239529737Y-142473497D01*
X239560500Y-142318842D01*
X239560500Y-142161158D01*
X239560500Y-142161155D01*
X239560499Y-142161153D01*
X248119500Y-142161153D01*
X248119500Y-142318846D01*
X248150261Y-142473489D01*
X248150264Y-142473501D01*
X248210602Y-142619172D01*
X248210609Y-142619185D01*
X248298210Y-142750288D01*
X248298213Y-142750292D01*
X248409707Y-142861786D01*
X248409711Y-142861789D01*
X248540814Y-142949390D01*
X248540827Y-142949397D01*
X248686498Y-143009735D01*
X248686503Y-143009737D01*
X248841153Y-143040499D01*
X248841156Y-143040500D01*
X248841158Y-143040500D01*
X248998844Y-143040500D01*
X248998845Y-143040499D01*
X249153497Y-143009737D01*
X249299179Y-142949394D01*
X249430289Y-142861789D01*
X249541789Y-142750289D01*
X249629394Y-142619179D01*
X249689737Y-142473497D01*
X249720500Y-142318842D01*
X249720500Y-142161158D01*
X249720500Y-142161155D01*
X249720499Y-142161153D01*
X249689738Y-142006510D01*
X249689737Y-142006503D01*
X249689735Y-142006498D01*
X249629397Y-141860827D01*
X249629390Y-141860814D01*
X249541789Y-141729711D01*
X249541786Y-141729707D01*
X249430292Y-141618213D01*
X249430288Y-141618210D01*
X249299185Y-141530609D01*
X249299172Y-141530602D01*
X249153501Y-141470264D01*
X249153489Y-141470261D01*
X248998845Y-141439500D01*
X248998842Y-141439500D01*
X248841158Y-141439500D01*
X248841155Y-141439500D01*
X248686510Y-141470261D01*
X248686498Y-141470264D01*
X248540827Y-141530602D01*
X248540814Y-141530609D01*
X248409711Y-141618210D01*
X248409707Y-141618213D01*
X248298213Y-141729707D01*
X248298210Y-141729711D01*
X248210609Y-141860814D01*
X248210602Y-141860827D01*
X248150264Y-142006498D01*
X248150261Y-142006510D01*
X248119500Y-142161153D01*
X239560499Y-142161153D01*
X239529738Y-142006510D01*
X239529737Y-142006503D01*
X239529735Y-142006498D01*
X239469397Y-141860827D01*
X239469390Y-141860814D01*
X239381789Y-141729711D01*
X239381786Y-141729707D01*
X239270292Y-141618213D01*
X239270288Y-141618210D01*
X239139185Y-141530609D01*
X239139172Y-141530602D01*
X238993501Y-141470264D01*
X238993489Y-141470261D01*
X238838845Y-141439500D01*
X238838842Y-141439500D01*
X238681158Y-141439500D01*
X238681155Y-141439500D01*
X238526510Y-141470261D01*
X238526498Y-141470264D01*
X238380827Y-141530602D01*
X238380814Y-141530609D01*
X238249711Y-141618210D01*
X238249707Y-141618213D01*
X238138213Y-141729707D01*
X238138210Y-141729711D01*
X238050609Y-141860814D01*
X238050602Y-141860827D01*
X237990264Y-142006498D01*
X237990261Y-142006510D01*
X237959500Y-142161153D01*
X234480499Y-142161153D01*
X234449738Y-142006510D01*
X234449737Y-142006503D01*
X234449735Y-142006498D01*
X234389397Y-141860827D01*
X234389390Y-141860814D01*
X234301789Y-141729711D01*
X234301786Y-141729707D01*
X234190292Y-141618213D01*
X234190288Y-141618210D01*
X234059185Y-141530609D01*
X234059172Y-141530602D01*
X233913501Y-141470264D01*
X233913489Y-141470261D01*
X233758845Y-141439500D01*
X233758842Y-141439500D01*
X233601158Y-141439500D01*
X233601155Y-141439500D01*
X233446510Y-141470261D01*
X233446498Y-141470264D01*
X233300827Y-141530602D01*
X233300814Y-141530609D01*
X233169711Y-141618210D01*
X233169707Y-141618213D01*
X233058213Y-141729707D01*
X233058210Y-141729711D01*
X232970609Y-141860814D01*
X232970602Y-141860827D01*
X232910264Y-142006498D01*
X232910261Y-142006510D01*
X232879500Y-142161153D01*
X224320499Y-142161153D01*
X224289738Y-142006510D01*
X224289737Y-142006503D01*
X224289735Y-142006498D01*
X224229397Y-141860827D01*
X224229390Y-141860814D01*
X224141789Y-141729711D01*
X224141786Y-141729707D01*
X224030292Y-141618213D01*
X224030288Y-141618210D01*
X223899185Y-141530609D01*
X223899172Y-141530602D01*
X223753501Y-141470264D01*
X223753489Y-141470261D01*
X223598845Y-141439500D01*
X223598842Y-141439500D01*
X223441158Y-141439500D01*
X223441155Y-141439500D01*
X223286510Y-141470261D01*
X223286498Y-141470264D01*
X223140827Y-141530602D01*
X223140814Y-141530609D01*
X223009711Y-141618210D01*
X223009707Y-141618213D01*
X222898213Y-141729707D01*
X222898210Y-141729711D01*
X222810609Y-141860814D01*
X222810602Y-141860827D01*
X222750264Y-142006498D01*
X222750261Y-142006510D01*
X222719500Y-142161153D01*
X219240499Y-142161153D01*
X219209738Y-142006510D01*
X219209737Y-142006503D01*
X219209735Y-142006498D01*
X219149397Y-141860827D01*
X219149390Y-141860814D01*
X219061789Y-141729711D01*
X219061786Y-141729707D01*
X218950292Y-141618213D01*
X218950288Y-141618210D01*
X218819185Y-141530609D01*
X218819172Y-141530602D01*
X218673501Y-141470264D01*
X218673489Y-141470261D01*
X218518845Y-141439500D01*
X218518842Y-141439500D01*
X218361158Y-141439500D01*
X218361155Y-141439500D01*
X218206510Y-141470261D01*
X218206498Y-141470264D01*
X218060827Y-141530602D01*
X218060814Y-141530609D01*
X217929711Y-141618210D01*
X217929707Y-141618213D01*
X217818213Y-141729707D01*
X217818210Y-141729711D01*
X217730609Y-141860814D01*
X217730602Y-141860827D01*
X217670264Y-142006498D01*
X217670261Y-142006510D01*
X217639500Y-142161153D01*
X211455000Y-142161153D01*
X211455000Y-139051947D01*
X213195000Y-139051947D01*
X213195000Y-139288052D01*
X213231934Y-139521247D01*
X213304897Y-139745802D01*
X213412087Y-139956174D01*
X213472338Y-140039104D01*
X213472340Y-140039105D01*
X214093958Y-139417487D01*
X214118978Y-139477890D01*
X214190112Y-139584351D01*
X214280649Y-139674888D01*
X214387110Y-139746022D01*
X214447511Y-139771041D01*
X213825893Y-140392658D01*
X213908828Y-140452914D01*
X214119197Y-140560102D01*
X214343752Y-140633065D01*
X214343751Y-140633065D01*
X214576948Y-140670000D01*
X214813052Y-140670000D01*
X215046247Y-140633065D01*
X215270802Y-140560102D01*
X215481163Y-140452918D01*
X215481169Y-140452914D01*
X215564104Y-140392658D01*
X215564105Y-140392658D01*
X214942488Y-139771041D01*
X215002890Y-139746022D01*
X215109351Y-139674888D01*
X215199888Y-139584351D01*
X215271022Y-139477890D01*
X215296041Y-139417488D01*
X215917658Y-140039105D01*
X215917658Y-140039104D01*
X215977914Y-139956169D01*
X215977918Y-139956163D01*
X216085102Y-139745802D01*
X216158065Y-139521247D01*
X216195000Y-139288052D01*
X216195000Y-139051947D01*
X216158065Y-138818752D01*
X216085102Y-138594197D01*
X215977914Y-138383828D01*
X215917658Y-138300894D01*
X215917658Y-138300893D01*
X215296041Y-138922511D01*
X215271022Y-138862110D01*
X215199888Y-138755649D01*
X215109351Y-138665112D01*
X215002890Y-138593978D01*
X214942488Y-138568958D01*
X215564105Y-137947340D01*
X215564104Y-137947338D01*
X215481174Y-137887087D01*
X215270802Y-137779897D01*
X215046247Y-137706934D01*
X215046248Y-137706934D01*
X214813052Y-137670000D01*
X214576948Y-137670000D01*
X214343752Y-137706934D01*
X214119197Y-137779897D01*
X213908830Y-137887084D01*
X213825894Y-137947340D01*
X214447512Y-138568958D01*
X214387110Y-138593978D01*
X214280649Y-138665112D01*
X214190112Y-138755649D01*
X214118978Y-138862110D01*
X214093958Y-138922511D01*
X213472340Y-138300894D01*
X213412084Y-138383830D01*
X213304897Y-138594197D01*
X213231934Y-138818752D01*
X213195000Y-139051947D01*
X211455000Y-139051947D01*
X211455000Y-136649000D01*
X211474685Y-136581961D01*
X211527489Y-136536206D01*
X211579000Y-136525000D01*
X217669552Y-136525000D01*
X217736591Y-136544685D01*
X217782346Y-136597489D01*
X217792290Y-136666647D01*
X217772654Y-136717891D01*
X217730609Y-136780814D01*
X217730602Y-136780827D01*
X217670264Y-136926498D01*
X217670261Y-136926510D01*
X217639500Y-137081153D01*
X217639500Y-137238846D01*
X217670261Y-137393489D01*
X217670264Y-137393501D01*
X217730602Y-137539172D01*
X217730609Y-137539185D01*
X217818210Y-137670288D01*
X217818213Y-137670292D01*
X217929707Y-137781786D01*
X217929711Y-137781789D01*
X218060814Y-137869390D01*
X218060827Y-137869397D01*
X218206498Y-137929735D01*
X218206503Y-137929737D01*
X218361153Y-137960499D01*
X218361156Y-137960500D01*
X218361158Y-137960500D01*
X218518844Y-137960500D01*
X218518845Y-137960499D01*
X218673497Y-137929737D01*
X218819179Y-137869394D01*
X218950289Y-137781789D01*
X219061789Y-137670289D01*
X219149394Y-137539179D01*
X219209737Y-137393497D01*
X219240500Y-137238842D01*
X219240500Y-137081158D01*
X219240500Y-137081155D01*
X219240499Y-137081153D01*
X219209738Y-136926510D01*
X219209737Y-136926503D01*
X219209735Y-136926498D01*
X219149397Y-136780827D01*
X219149390Y-136780814D01*
X219107346Y-136717891D01*
X219086468Y-136651214D01*
X219104952Y-136583833D01*
X219156931Y-136537143D01*
X219210448Y-136525000D01*
X222749552Y-136525000D01*
X222816591Y-136544685D01*
X222862346Y-136597489D01*
X222872290Y-136666647D01*
X222852654Y-136717891D01*
X222810609Y-136780814D01*
X222810602Y-136780827D01*
X222750264Y-136926498D01*
X222750261Y-136926510D01*
X222719500Y-137081153D01*
X222719500Y-137238846D01*
X222750261Y-137393489D01*
X222750264Y-137393501D01*
X222810602Y-137539172D01*
X222810609Y-137539185D01*
X222898210Y-137670288D01*
X222898213Y-137670292D01*
X223009707Y-137781786D01*
X223009711Y-137781789D01*
X223140814Y-137869390D01*
X223140827Y-137869397D01*
X223286498Y-137929735D01*
X223286503Y-137929737D01*
X223441153Y-137960499D01*
X223441156Y-137960500D01*
X223441158Y-137960500D01*
X223598844Y-137960500D01*
X223598845Y-137960499D01*
X223753497Y-137929737D01*
X223899179Y-137869394D01*
X224030289Y-137781789D01*
X224141789Y-137670289D01*
X224229394Y-137539179D01*
X224289737Y-137393497D01*
X224320500Y-137238842D01*
X224320500Y-137081158D01*
X224320500Y-137081155D01*
X224320499Y-137081153D01*
X224289738Y-136926510D01*
X224289737Y-136926503D01*
X224289735Y-136926498D01*
X224229397Y-136780827D01*
X224229390Y-136780814D01*
X224187346Y-136717891D01*
X224166468Y-136651214D01*
X224184952Y-136583833D01*
X224236931Y-136537143D01*
X224290448Y-136525000D01*
X232909552Y-136525000D01*
X232976591Y-136544685D01*
X233022346Y-136597489D01*
X233032290Y-136666647D01*
X233012654Y-136717891D01*
X232970609Y-136780814D01*
X232970602Y-136780827D01*
X232910264Y-136926498D01*
X232910261Y-136926510D01*
X232879500Y-137081153D01*
X232879500Y-137238846D01*
X232910261Y-137393489D01*
X232910264Y-137393501D01*
X232970602Y-137539172D01*
X232970609Y-137539185D01*
X233058210Y-137670288D01*
X233058213Y-137670292D01*
X233169707Y-137781786D01*
X233169711Y-137781789D01*
X233300814Y-137869390D01*
X233300827Y-137869397D01*
X233446498Y-137929735D01*
X233446503Y-137929737D01*
X233601153Y-137960499D01*
X233601156Y-137960500D01*
X233601158Y-137960500D01*
X233758844Y-137960500D01*
X233758845Y-137960499D01*
X233913497Y-137929737D01*
X234059179Y-137869394D01*
X234190289Y-137781789D01*
X234301789Y-137670289D01*
X234389394Y-137539179D01*
X234449737Y-137393497D01*
X234480500Y-137238842D01*
X234480500Y-137081158D01*
X234480500Y-137081155D01*
X234480499Y-137081153D01*
X234449738Y-136926510D01*
X234449737Y-136926503D01*
X234449735Y-136926498D01*
X234389397Y-136780827D01*
X234389390Y-136780814D01*
X234347346Y-136717891D01*
X234326468Y-136651214D01*
X234344952Y-136583833D01*
X234396931Y-136537143D01*
X234450448Y-136525000D01*
X237989552Y-136525000D01*
X238056591Y-136544685D01*
X238102346Y-136597489D01*
X238112290Y-136666647D01*
X238092654Y-136717891D01*
X238050609Y-136780814D01*
X238050602Y-136780827D01*
X237990264Y-136926498D01*
X237990261Y-136926510D01*
X237959500Y-137081153D01*
X237959500Y-137238846D01*
X237990261Y-137393489D01*
X237990264Y-137393501D01*
X238050602Y-137539172D01*
X238050609Y-137539185D01*
X238138210Y-137670288D01*
X238138213Y-137670292D01*
X238249707Y-137781786D01*
X238249711Y-137781789D01*
X238380814Y-137869390D01*
X238380827Y-137869397D01*
X238526498Y-137929735D01*
X238526503Y-137929737D01*
X238681153Y-137960499D01*
X238681156Y-137960500D01*
X238681158Y-137960500D01*
X238838844Y-137960500D01*
X238838845Y-137960499D01*
X238993497Y-137929737D01*
X239139179Y-137869394D01*
X239270289Y-137781789D01*
X239381789Y-137670289D01*
X239469394Y-137539179D01*
X239529737Y-137393497D01*
X239560500Y-137238842D01*
X239560500Y-137081158D01*
X239560500Y-137081155D01*
X239560499Y-137081153D01*
X239529738Y-136926510D01*
X239529737Y-136926503D01*
X239529735Y-136926498D01*
X239469397Y-136780827D01*
X239469390Y-136780814D01*
X239427346Y-136717891D01*
X239406468Y-136651214D01*
X239424952Y-136583833D01*
X239476931Y-136537143D01*
X239530448Y-136525000D01*
X245110000Y-136525000D01*
X245110000Y-132193692D01*
X245855100Y-132193692D01*
X245855100Y-132446307D01*
X245894618Y-132695815D01*
X245972683Y-132936072D01*
X246087366Y-133161151D01*
X246162240Y-133264205D01*
X246162240Y-133264206D01*
X246705195Y-132721250D01*
X246705942Y-132723052D01*
X246799063Y-132862417D01*
X246917583Y-132980937D01*
X247056948Y-133074058D01*
X247058748Y-133074803D01*
X246515792Y-133617758D01*
X246618848Y-133692633D01*
X246843927Y-133807316D01*
X247084184Y-133885381D01*
X247333693Y-133924900D01*
X247586307Y-133924900D01*
X247835815Y-133885381D01*
X248076072Y-133807316D01*
X248301143Y-133692637D01*
X248301149Y-133692633D01*
X248404205Y-133617758D01*
X248404206Y-133617758D01*
X247861251Y-133074803D01*
X247863052Y-133074058D01*
X248002417Y-132980937D01*
X248120937Y-132862417D01*
X248214058Y-132723052D01*
X248214803Y-132721251D01*
X248757758Y-133264206D01*
X248757758Y-133264205D01*
X248832633Y-133161149D01*
X248832637Y-133161143D01*
X248947316Y-132936072D01*
X249025381Y-132695815D01*
X249064900Y-132446307D01*
X249064900Y-132193692D01*
X249025381Y-131944184D01*
X248947316Y-131703927D01*
X248832633Y-131478848D01*
X248757758Y-131375793D01*
X248757758Y-131375792D01*
X248214803Y-131918747D01*
X248214058Y-131916948D01*
X248120937Y-131777583D01*
X248002417Y-131659063D01*
X247863052Y-131565942D01*
X247861249Y-131565195D01*
X248404206Y-131022240D01*
X248301151Y-130947366D01*
X248076072Y-130832683D01*
X247835815Y-130754618D01*
X247586307Y-130715100D01*
X247333693Y-130715100D01*
X247084184Y-130754618D01*
X246843927Y-130832683D01*
X246618844Y-130947368D01*
X246515793Y-131022239D01*
X246515792Y-131022240D01*
X247058748Y-131565196D01*
X247056948Y-131565942D01*
X246917583Y-131659063D01*
X246799063Y-131777583D01*
X246705942Y-131916948D01*
X246705196Y-131918748D01*
X246162240Y-131375792D01*
X246162239Y-131375793D01*
X246087368Y-131478844D01*
X245972683Y-131703927D01*
X245894618Y-131944184D01*
X245855100Y-132193692D01*
X245110000Y-132193692D01*
X245110000Y-129661648D01*
X248496200Y-129661648D01*
X248496200Y-129898351D01*
X248533229Y-130132142D01*
X248533229Y-130132145D01*
X248606372Y-130357256D01*
X248664073Y-130470500D01*
X248713835Y-130568163D01*
X248852966Y-130759660D01*
X249020340Y-130927034D01*
X249211837Y-131066165D01*
X249422741Y-131173626D01*
X249422743Y-131173627D01*
X249647855Y-131246770D01*
X249647856Y-131246770D01*
X249647859Y-131246771D01*
X249881648Y-131283800D01*
X249881649Y-131283800D01*
X250118351Y-131283800D01*
X250118352Y-131283800D01*
X250352141Y-131246771D01*
X250352144Y-131246770D01*
X250352145Y-131246770D01*
X250577256Y-131173627D01*
X250577256Y-131173626D01*
X250577259Y-131173626D01*
X250788163Y-131066165D01*
X250979660Y-130927034D01*
X251147034Y-130759660D01*
X251286165Y-130568163D01*
X251393626Y-130357259D01*
X251466771Y-130132141D01*
X251503800Y-129898352D01*
X251503800Y-129661648D01*
X251466771Y-129427859D01*
X251466770Y-129427855D01*
X251466770Y-129427854D01*
X251393627Y-129202743D01*
X251286164Y-128991836D01*
X251147034Y-128800340D01*
X250979660Y-128632966D01*
X250788163Y-128493835D01*
X250592242Y-128394008D01*
X250577256Y-128386372D01*
X250352144Y-128313229D01*
X250176799Y-128285457D01*
X250118352Y-128276200D01*
X249881648Y-128276200D01*
X249803718Y-128288543D01*
X249647857Y-128313229D01*
X249647854Y-128313229D01*
X249422743Y-128386372D01*
X249211836Y-128493835D01*
X249151382Y-128537758D01*
X249020340Y-128632966D01*
X249020338Y-128632968D01*
X249020337Y-128632968D01*
X248852968Y-128800337D01*
X248852968Y-128800338D01*
X248852966Y-128800340D01*
X248820591Y-128844900D01*
X248713835Y-128991836D01*
X248606372Y-129202743D01*
X248533229Y-129427854D01*
X248533229Y-129427857D01*
X248496200Y-129661648D01*
X245110000Y-129661648D01*
X245110000Y-127113692D01*
X245855100Y-127113692D01*
X245855100Y-127366307D01*
X245894618Y-127615815D01*
X245972683Y-127856072D01*
X246087366Y-128081151D01*
X246162240Y-128184205D01*
X246162240Y-128184206D01*
X246705195Y-127641250D01*
X246705942Y-127643052D01*
X246799063Y-127782417D01*
X246917583Y-127900937D01*
X247056948Y-127994058D01*
X247058748Y-127994803D01*
X246515792Y-128537758D01*
X246618848Y-128612633D01*
X246843927Y-128727316D01*
X247084184Y-128805381D01*
X247333693Y-128844900D01*
X247586307Y-128844900D01*
X247835815Y-128805381D01*
X248076072Y-128727316D01*
X248301143Y-128612637D01*
X248301149Y-128612633D01*
X248404205Y-128537758D01*
X248404206Y-128537758D01*
X247861251Y-127994803D01*
X247863052Y-127994058D01*
X248002417Y-127900937D01*
X248120937Y-127782417D01*
X248214058Y-127643052D01*
X248214803Y-127641251D01*
X248757758Y-128184206D01*
X248757758Y-128184205D01*
X248832633Y-128081149D01*
X248832637Y-128081143D01*
X248947316Y-127856072D01*
X249025381Y-127615815D01*
X249064900Y-127366307D01*
X249064900Y-127113692D01*
X249025381Y-126864184D01*
X248947316Y-126623927D01*
X248832633Y-126398848D01*
X248757758Y-126295793D01*
X248757758Y-126295792D01*
X248214803Y-126838747D01*
X248214058Y-126836948D01*
X248120937Y-126697583D01*
X248002417Y-126579063D01*
X247863052Y-126485942D01*
X247861249Y-126485195D01*
X248404206Y-125942240D01*
X248301151Y-125867366D01*
X248076072Y-125752683D01*
X247835815Y-125674618D01*
X247586307Y-125635100D01*
X247333693Y-125635100D01*
X247084184Y-125674618D01*
X246843927Y-125752683D01*
X246618844Y-125867368D01*
X246515793Y-125942239D01*
X246515792Y-125942240D01*
X247058748Y-126485196D01*
X247056948Y-126485942D01*
X246917583Y-126579063D01*
X246799063Y-126697583D01*
X246705942Y-126836948D01*
X246705196Y-126838748D01*
X246162240Y-126295792D01*
X246162239Y-126295793D01*
X246087368Y-126398844D01*
X245972683Y-126623927D01*
X245894618Y-126864184D01*
X245855100Y-127113692D01*
X245110000Y-127113692D01*
X245110000Y-124584000D01*
X245129685Y-124516961D01*
X245182489Y-124471206D01*
X245234000Y-124460000D01*
X253876000Y-124460000D01*
X253943039Y-124479685D01*
G37*
%TD.AperFunction*%
%TD*%
M02*
