%TF.GenerationSoftware,KiCad,Pcbnew,9.0.3*%
%TF.CreationDate,2025-09-17T10:51:44-04:00*%
%TF.ProjectId,4_COLD_TPC_SiPM_Pre_Amp,345f434f-4c44-45f5-9450-435f5369504d,rev?*%
%TF.SameCoordinates,Original*%
%TF.FileFunction,Drillmap*%
%TF.FilePolarity,Positive*%
%FSLAX45Y45*%
G04 Gerber Fmt 4.5, Leading zero omitted, Abs format (unit mm)*
G04 Created by KiCad (PCBNEW 9.0.3) date 2025-09-17 10:51:44*
%MOMM*%
%LPD*%
G01*
G04 APERTURE LIST*
%ADD10C,0.050000*%
%ADD11C,0.200000*%
%ADD12C,0.129540*%
%ADD13C,0.100000*%
G04 APERTURE END LIST*
D10*
X13208000Y-18796000D02*
G75*
G02*
X12700000Y-18288000I0J508000D01*
G01*
X12700000Y-16764000D02*
X12700000Y-5334000D01*
X12700000Y-5334000D02*
G75*
G02*
X13208000Y-4826000I508000J0D01*
G01*
X25019000Y-18796000D02*
X13208000Y-18796000D01*
X12700000Y-18288000D02*
X12700000Y-16764000D01*
X25019000Y-4826000D02*
G75*
G02*
X25527000Y-5334000I0J-508000D01*
G01*
X25527000Y-5334000D02*
X25527000Y-18288000D01*
X13208000Y-4826000D02*
X25019000Y-4826000D01*
X25527000Y-18288000D02*
G75*
G02*
X25019000Y-18796000I-508000J0D01*
G01*
D11*
D12*
X21307230Y-8920230D02*
X21436770Y-9049770D01*
X21436770Y-8920230D02*
X21307230Y-9049770D01*
D13*
X21236770Y-9049770D02*
X21507230Y-9049770D01*
X21507230Y-8920230D02*
G75*
G02*
X21507230Y-9049770I0J-64770D01*
G01*
X21507230Y-8920230D02*
X21236770Y-8920230D01*
X21236770Y-8920230D02*
G75*
G03*
X21236770Y-9049770I0J-64770D01*
G01*
D12*
X21307230Y-9652230D02*
X21436770Y-9781770D01*
X21436770Y-9652230D02*
X21307230Y-9781770D01*
D13*
X21236770Y-9781770D02*
X21507230Y-9781770D01*
X21507230Y-9652230D02*
G75*
G02*
X21507230Y-9781770I0J-64770D01*
G01*
X21507230Y-9652230D02*
X21236770Y-9652230D01*
X21236770Y-9652230D02*
G75*
G03*
X21236770Y-9781770I0J-64770D01*
G01*
D12*
X21307230Y-9987230D02*
X21436770Y-10116770D01*
X21436770Y-9987230D02*
X21307230Y-10116770D01*
D13*
X21236770Y-10116770D02*
X21507230Y-10116770D01*
X21507230Y-9987230D02*
G75*
G02*
X21507230Y-10116770I0J-64770D01*
G01*
X21507230Y-9987230D02*
X21236770Y-9987230D01*
X21236770Y-9987230D02*
G75*
G03*
X21236770Y-10116770I0J-64770D01*
G01*
D12*
X21307230Y-10719230D02*
X21436770Y-10848770D01*
X21436770Y-10719230D02*
X21307230Y-10848770D01*
D13*
X21236770Y-10848770D02*
X21507230Y-10848770D01*
X21507230Y-10719230D02*
G75*
G02*
X21507230Y-10848770I0J-64770D01*
G01*
X21507230Y-10719230D02*
X21236770Y-10719230D01*
X21236770Y-10719230D02*
G75*
G03*
X21236770Y-10848770I0J-64770D01*
G01*
D12*
X21308230Y-7821230D02*
X21437770Y-7950770D01*
X21437770Y-7821230D02*
X21308230Y-7950770D01*
D13*
X21237770Y-7950770D02*
X21508230Y-7950770D01*
X21508230Y-7821230D02*
G75*
G02*
X21508230Y-7950770I0J-64770D01*
G01*
X21508230Y-7821230D02*
X21237770Y-7821230D01*
X21237770Y-7821230D02*
G75*
G03*
X21237770Y-7950770I0J-64770D01*
G01*
D12*
X21308230Y-8553230D02*
X21437770Y-8682770D01*
X21437770Y-8553230D02*
X21308230Y-8682770D01*
D13*
X21237770Y-8682770D02*
X21508230Y-8682770D01*
X21508230Y-8553230D02*
G75*
G02*
X21508230Y-8682770I0J-64770D01*
G01*
X21508230Y-8553230D02*
X21237770Y-8553230D01*
X21237770Y-8553230D02*
G75*
G03*
X21237770Y-8682770I0J-64770D01*
G01*
D12*
X21317230Y-6688230D02*
X21446770Y-6817770D01*
X21446770Y-6688230D02*
X21317230Y-6817770D01*
D13*
X21246770Y-6817770D02*
X21517230Y-6817770D01*
X21517230Y-6688230D02*
G75*
G02*
X21517230Y-6817770I0J-64770D01*
G01*
X21517230Y-6688230D02*
X21246770Y-6688230D01*
X21246770Y-6688230D02*
G75*
G03*
X21246770Y-6817770I0J-64770D01*
G01*
D12*
X21317230Y-7420230D02*
X21446770Y-7549770D01*
X21446770Y-7420230D02*
X21317230Y-7549770D01*
D13*
X21246770Y-7549770D02*
X21517230Y-7549770D01*
X21517230Y-7420230D02*
G75*
G02*
X21517230Y-7549770I0J-64770D01*
G01*
X21517230Y-7420230D02*
X21246770Y-7420230D01*
X21246770Y-7420230D02*
G75*
G03*
X21246770Y-7549770I0J-64770D01*
G01*
D11*
X12958277Y-19109984D02*
X12958277Y-18909984D01*
X12958277Y-18909984D02*
X13005896Y-18909984D01*
X13005896Y-18909984D02*
X13034467Y-18919508D01*
X13034467Y-18919508D02*
X13053515Y-18938555D01*
X13053515Y-18938555D02*
X13063039Y-18957603D01*
X13063039Y-18957603D02*
X13072562Y-18995698D01*
X13072562Y-18995698D02*
X13072562Y-19024270D01*
X13072562Y-19024270D02*
X13063039Y-19062365D01*
X13063039Y-19062365D02*
X13053515Y-19081412D01*
X13053515Y-19081412D02*
X13034467Y-19100460D01*
X13034467Y-19100460D02*
X13005896Y-19109984D01*
X13005896Y-19109984D02*
X12958277Y-19109984D01*
X13158277Y-19109984D02*
X13158277Y-18976650D01*
X13158277Y-19014746D02*
X13167801Y-18995698D01*
X13167801Y-18995698D02*
X13177324Y-18986174D01*
X13177324Y-18986174D02*
X13196372Y-18976650D01*
X13196372Y-18976650D02*
X13215420Y-18976650D01*
X13282086Y-19109984D02*
X13282086Y-18976650D01*
X13282086Y-18909984D02*
X13272562Y-18919508D01*
X13272562Y-18919508D02*
X13282086Y-18929031D01*
X13282086Y-18929031D02*
X13291610Y-18919508D01*
X13291610Y-18919508D02*
X13282086Y-18909984D01*
X13282086Y-18909984D02*
X13282086Y-18929031D01*
X13405896Y-19109984D02*
X13386848Y-19100460D01*
X13386848Y-19100460D02*
X13377324Y-19081412D01*
X13377324Y-19081412D02*
X13377324Y-18909984D01*
X13510658Y-19109984D02*
X13491610Y-19100460D01*
X13491610Y-19100460D02*
X13482086Y-19081412D01*
X13482086Y-19081412D02*
X13482086Y-18909984D01*
X13739229Y-19109984D02*
X13739229Y-18909984D01*
X13739229Y-18909984D02*
X13805896Y-19052841D01*
X13805896Y-19052841D02*
X13872562Y-18909984D01*
X13872562Y-18909984D02*
X13872562Y-19109984D01*
X14053515Y-19109984D02*
X14053515Y-19005222D01*
X14053515Y-19005222D02*
X14043991Y-18986174D01*
X14043991Y-18986174D02*
X14024943Y-18976650D01*
X14024943Y-18976650D02*
X13986848Y-18976650D01*
X13986848Y-18976650D02*
X13967801Y-18986174D01*
X14053515Y-19100460D02*
X14034467Y-19109984D01*
X14034467Y-19109984D02*
X13986848Y-19109984D01*
X13986848Y-19109984D02*
X13967801Y-19100460D01*
X13967801Y-19100460D02*
X13958277Y-19081412D01*
X13958277Y-19081412D02*
X13958277Y-19062365D01*
X13958277Y-19062365D02*
X13967801Y-19043317D01*
X13967801Y-19043317D02*
X13986848Y-19033793D01*
X13986848Y-19033793D02*
X14034467Y-19033793D01*
X14034467Y-19033793D02*
X14053515Y-19024270D01*
X14148753Y-18976650D02*
X14148753Y-19176650D01*
X14148753Y-18986174D02*
X14167801Y-18976650D01*
X14167801Y-18976650D02*
X14205896Y-18976650D01*
X14205896Y-18976650D02*
X14224943Y-18986174D01*
X14224943Y-18986174D02*
X14234467Y-18995698D01*
X14234467Y-18995698D02*
X14243991Y-19014746D01*
X14243991Y-19014746D02*
X14243991Y-19071889D01*
X14243991Y-19071889D02*
X14234467Y-19090936D01*
X14234467Y-19090936D02*
X14224943Y-19100460D01*
X14224943Y-19100460D02*
X14205896Y-19109984D01*
X14205896Y-19109984D02*
X14167801Y-19109984D01*
X14167801Y-19109984D02*
X14148753Y-19100460D01*
X14329705Y-19090936D02*
X14339229Y-19100460D01*
X14339229Y-19100460D02*
X14329705Y-19109984D01*
X14329705Y-19109984D02*
X14320182Y-19100460D01*
X14320182Y-19100460D02*
X14329705Y-19090936D01*
X14329705Y-19090936D02*
X14329705Y-19109984D01*
X14329705Y-18986174D02*
X14339229Y-18995698D01*
X14339229Y-18995698D02*
X14329705Y-19005222D01*
X14329705Y-19005222D02*
X14320182Y-18995698D01*
X14320182Y-18995698D02*
X14329705Y-18986174D01*
X14329705Y-18986174D02*
X14329705Y-19005222D01*
D12*
X12567960Y-19373730D02*
X12697500Y-19503270D01*
X12697500Y-19373730D02*
X12567960Y-19503270D01*
D11*
X13063039Y-19529984D02*
X12948753Y-19529984D01*
X13005896Y-19529984D02*
X13005896Y-19329984D01*
X13005896Y-19329984D02*
X12986848Y-19358555D01*
X12986848Y-19358555D02*
X12967801Y-19377603D01*
X12967801Y-19377603D02*
X12948753Y-19387127D01*
X13148753Y-19510936D02*
X13158277Y-19520460D01*
X13158277Y-19520460D02*
X13148753Y-19529984D01*
X13148753Y-19529984D02*
X13139229Y-19520460D01*
X13139229Y-19520460D02*
X13148753Y-19510936D01*
X13148753Y-19510936D02*
X13148753Y-19529984D01*
X13234467Y-19349031D02*
X13243991Y-19339508D01*
X13243991Y-19339508D02*
X13263039Y-19329984D01*
X13263039Y-19329984D02*
X13310658Y-19329984D01*
X13310658Y-19329984D02*
X13329705Y-19339508D01*
X13329705Y-19339508D02*
X13339229Y-19349031D01*
X13339229Y-19349031D02*
X13348753Y-19368079D01*
X13348753Y-19368079D02*
X13348753Y-19387127D01*
X13348753Y-19387127D02*
X13339229Y-19415698D01*
X13339229Y-19415698D02*
X13224943Y-19529984D01*
X13224943Y-19529984D02*
X13348753Y-19529984D01*
X13443991Y-19529984D02*
X13482086Y-19529984D01*
X13482086Y-19529984D02*
X13501134Y-19520460D01*
X13501134Y-19520460D02*
X13510658Y-19510936D01*
X13510658Y-19510936D02*
X13529705Y-19482365D01*
X13529705Y-19482365D02*
X13539229Y-19444270D01*
X13539229Y-19444270D02*
X13539229Y-19368079D01*
X13539229Y-19368079D02*
X13529705Y-19349031D01*
X13529705Y-19349031D02*
X13520182Y-19339508D01*
X13520182Y-19339508D02*
X13501134Y-19329984D01*
X13501134Y-19329984D02*
X13463039Y-19329984D01*
X13463039Y-19329984D02*
X13443991Y-19339508D01*
X13443991Y-19339508D02*
X13434467Y-19349031D01*
X13434467Y-19349031D02*
X13424943Y-19368079D01*
X13424943Y-19368079D02*
X13424943Y-19415698D01*
X13424943Y-19415698D02*
X13434467Y-19434746D01*
X13434467Y-19434746D02*
X13443991Y-19444270D01*
X13443991Y-19444270D02*
X13463039Y-19453793D01*
X13463039Y-19453793D02*
X13501134Y-19453793D01*
X13501134Y-19453793D02*
X13520182Y-19444270D01*
X13520182Y-19444270D02*
X13529705Y-19434746D01*
X13529705Y-19434746D02*
X13539229Y-19415698D01*
X13720182Y-19329984D02*
X13624943Y-19329984D01*
X13624943Y-19329984D02*
X13615420Y-19425222D01*
X13615420Y-19425222D02*
X13624943Y-19415698D01*
X13624943Y-19415698D02*
X13643991Y-19406174D01*
X13643991Y-19406174D02*
X13691610Y-19406174D01*
X13691610Y-19406174D02*
X13710658Y-19415698D01*
X13710658Y-19415698D02*
X13720182Y-19425222D01*
X13720182Y-19425222D02*
X13729705Y-19444270D01*
X13729705Y-19444270D02*
X13729705Y-19491889D01*
X13729705Y-19491889D02*
X13720182Y-19510936D01*
X13720182Y-19510936D02*
X13710658Y-19520460D01*
X13710658Y-19520460D02*
X13691610Y-19529984D01*
X13691610Y-19529984D02*
X13643991Y-19529984D01*
X13643991Y-19529984D02*
X13624943Y-19520460D01*
X13624943Y-19520460D02*
X13615420Y-19510936D01*
X13815420Y-19529984D02*
X13815420Y-19396650D01*
X13815420Y-19415698D02*
X13824943Y-19406174D01*
X13824943Y-19406174D02*
X13843991Y-19396650D01*
X13843991Y-19396650D02*
X13872563Y-19396650D01*
X13872563Y-19396650D02*
X13891610Y-19406174D01*
X13891610Y-19406174D02*
X13901134Y-19425222D01*
X13901134Y-19425222D02*
X13901134Y-19529984D01*
X13901134Y-19425222D02*
X13910658Y-19406174D01*
X13910658Y-19406174D02*
X13929705Y-19396650D01*
X13929705Y-19396650D02*
X13958277Y-19396650D01*
X13958277Y-19396650D02*
X13977324Y-19406174D01*
X13977324Y-19406174D02*
X13986848Y-19425222D01*
X13986848Y-19425222D02*
X13986848Y-19529984D01*
X14082086Y-19529984D02*
X14082086Y-19396650D01*
X14082086Y-19415698D02*
X14091610Y-19406174D01*
X14091610Y-19406174D02*
X14110658Y-19396650D01*
X14110658Y-19396650D02*
X14139229Y-19396650D01*
X14139229Y-19396650D02*
X14158277Y-19406174D01*
X14158277Y-19406174D02*
X14167801Y-19425222D01*
X14167801Y-19425222D02*
X14167801Y-19529984D01*
X14167801Y-19425222D02*
X14177324Y-19406174D01*
X14177324Y-19406174D02*
X14196372Y-19396650D01*
X14196372Y-19396650D02*
X14224943Y-19396650D01*
X14224943Y-19396650D02*
X14243991Y-19406174D01*
X14243991Y-19406174D02*
X14253515Y-19425222D01*
X14253515Y-19425222D02*
X14253515Y-19529984D01*
X14643991Y-19320460D02*
X14472563Y-19577603D01*
X14901134Y-19329984D02*
X14920182Y-19329984D01*
X14920182Y-19329984D02*
X14939229Y-19339508D01*
X14939229Y-19339508D02*
X14948753Y-19349031D01*
X14948753Y-19349031D02*
X14958277Y-19368079D01*
X14958277Y-19368079D02*
X14967801Y-19406174D01*
X14967801Y-19406174D02*
X14967801Y-19453793D01*
X14967801Y-19453793D02*
X14958277Y-19491889D01*
X14958277Y-19491889D02*
X14948753Y-19510936D01*
X14948753Y-19510936D02*
X14939229Y-19520460D01*
X14939229Y-19520460D02*
X14920182Y-19529984D01*
X14920182Y-19529984D02*
X14901134Y-19529984D01*
X14901134Y-19529984D02*
X14882086Y-19520460D01*
X14882086Y-19520460D02*
X14872563Y-19510936D01*
X14872563Y-19510936D02*
X14863039Y-19491889D01*
X14863039Y-19491889D02*
X14853515Y-19453793D01*
X14853515Y-19453793D02*
X14853515Y-19406174D01*
X14853515Y-19406174D02*
X14863039Y-19368079D01*
X14863039Y-19368079D02*
X14872563Y-19349031D01*
X14872563Y-19349031D02*
X14882086Y-19339508D01*
X14882086Y-19339508D02*
X14901134Y-19329984D01*
X15053515Y-19510936D02*
X15063039Y-19520460D01*
X15063039Y-19520460D02*
X15053515Y-19529984D01*
X15053515Y-19529984D02*
X15043991Y-19520460D01*
X15043991Y-19520460D02*
X15053515Y-19510936D01*
X15053515Y-19510936D02*
X15053515Y-19529984D01*
X15186848Y-19329984D02*
X15205896Y-19329984D01*
X15205896Y-19329984D02*
X15224944Y-19339508D01*
X15224944Y-19339508D02*
X15234467Y-19349031D01*
X15234467Y-19349031D02*
X15243991Y-19368079D01*
X15243991Y-19368079D02*
X15253515Y-19406174D01*
X15253515Y-19406174D02*
X15253515Y-19453793D01*
X15253515Y-19453793D02*
X15243991Y-19491889D01*
X15243991Y-19491889D02*
X15234467Y-19510936D01*
X15234467Y-19510936D02*
X15224944Y-19520460D01*
X15224944Y-19520460D02*
X15205896Y-19529984D01*
X15205896Y-19529984D02*
X15186848Y-19529984D01*
X15186848Y-19529984D02*
X15167801Y-19520460D01*
X15167801Y-19520460D02*
X15158277Y-19510936D01*
X15158277Y-19510936D02*
X15148753Y-19491889D01*
X15148753Y-19491889D02*
X15139229Y-19453793D01*
X15139229Y-19453793D02*
X15139229Y-19406174D01*
X15139229Y-19406174D02*
X15148753Y-19368079D01*
X15148753Y-19368079D02*
X15158277Y-19349031D01*
X15158277Y-19349031D02*
X15167801Y-19339508D01*
X15167801Y-19339508D02*
X15186848Y-19329984D01*
X15434467Y-19329984D02*
X15339229Y-19329984D01*
X15339229Y-19329984D02*
X15329706Y-19425222D01*
X15329706Y-19425222D02*
X15339229Y-19415698D01*
X15339229Y-19415698D02*
X15358277Y-19406174D01*
X15358277Y-19406174D02*
X15405896Y-19406174D01*
X15405896Y-19406174D02*
X15424944Y-19415698D01*
X15424944Y-19415698D02*
X15434467Y-19425222D01*
X15434467Y-19425222D02*
X15443991Y-19444270D01*
X15443991Y-19444270D02*
X15443991Y-19491889D01*
X15443991Y-19491889D02*
X15434467Y-19510936D01*
X15434467Y-19510936D02*
X15424944Y-19520460D01*
X15424944Y-19520460D02*
X15405896Y-19529984D01*
X15405896Y-19529984D02*
X15358277Y-19529984D01*
X15358277Y-19529984D02*
X15339229Y-19520460D01*
X15339229Y-19520460D02*
X15329706Y-19510936D01*
X15634467Y-19529984D02*
X15520182Y-19529984D01*
X15577325Y-19529984D02*
X15577325Y-19329984D01*
X15577325Y-19329984D02*
X15558277Y-19358555D01*
X15558277Y-19358555D02*
X15539229Y-19377603D01*
X15539229Y-19377603D02*
X15520182Y-19387127D01*
X15758277Y-19329984D02*
X15777325Y-19329984D01*
X15777325Y-19329984D02*
X15796372Y-19339508D01*
X15796372Y-19339508D02*
X15805896Y-19349031D01*
X15805896Y-19349031D02*
X15815420Y-19368079D01*
X15815420Y-19368079D02*
X15824944Y-19406174D01*
X15824944Y-19406174D02*
X15824944Y-19453793D01*
X15824944Y-19453793D02*
X15815420Y-19491889D01*
X15815420Y-19491889D02*
X15805896Y-19510936D01*
X15805896Y-19510936D02*
X15796372Y-19520460D01*
X15796372Y-19520460D02*
X15777325Y-19529984D01*
X15777325Y-19529984D02*
X15758277Y-19529984D01*
X15758277Y-19529984D02*
X15739229Y-19520460D01*
X15739229Y-19520460D02*
X15729706Y-19510936D01*
X15729706Y-19510936D02*
X15720182Y-19491889D01*
X15720182Y-19491889D02*
X15710658Y-19453793D01*
X15710658Y-19453793D02*
X15710658Y-19406174D01*
X15710658Y-19406174D02*
X15720182Y-19368079D01*
X15720182Y-19368079D02*
X15729706Y-19349031D01*
X15729706Y-19349031D02*
X15739229Y-19339508D01*
X15739229Y-19339508D02*
X15758277Y-19329984D01*
X15901134Y-19329984D02*
X15901134Y-19368079D01*
X15977325Y-19329984D02*
X15977325Y-19368079D01*
X16272563Y-19606174D02*
X16263039Y-19596650D01*
X16263039Y-19596650D02*
X16243991Y-19568079D01*
X16243991Y-19568079D02*
X16234468Y-19549031D01*
X16234468Y-19549031D02*
X16224944Y-19520460D01*
X16224944Y-19520460D02*
X16215420Y-19472841D01*
X16215420Y-19472841D02*
X16215420Y-19434746D01*
X16215420Y-19434746D02*
X16224944Y-19387127D01*
X16224944Y-19387127D02*
X16234468Y-19358555D01*
X16234468Y-19358555D02*
X16243991Y-19339508D01*
X16243991Y-19339508D02*
X16263039Y-19310936D01*
X16263039Y-19310936D02*
X16272563Y-19301412D01*
X16386848Y-19329984D02*
X16405896Y-19329984D01*
X16405896Y-19329984D02*
X16424944Y-19339508D01*
X16424944Y-19339508D02*
X16434468Y-19349031D01*
X16434468Y-19349031D02*
X16443991Y-19368079D01*
X16443991Y-19368079D02*
X16453515Y-19406174D01*
X16453515Y-19406174D02*
X16453515Y-19453793D01*
X16453515Y-19453793D02*
X16443991Y-19491889D01*
X16443991Y-19491889D02*
X16434468Y-19510936D01*
X16434468Y-19510936D02*
X16424944Y-19520460D01*
X16424944Y-19520460D02*
X16405896Y-19529984D01*
X16405896Y-19529984D02*
X16386848Y-19529984D01*
X16386848Y-19529984D02*
X16367801Y-19520460D01*
X16367801Y-19520460D02*
X16358277Y-19510936D01*
X16358277Y-19510936D02*
X16348753Y-19491889D01*
X16348753Y-19491889D02*
X16339229Y-19453793D01*
X16339229Y-19453793D02*
X16339229Y-19406174D01*
X16339229Y-19406174D02*
X16348753Y-19368079D01*
X16348753Y-19368079D02*
X16358277Y-19349031D01*
X16358277Y-19349031D02*
X16367801Y-19339508D01*
X16367801Y-19339508D02*
X16386848Y-19329984D01*
X16691610Y-19529984D02*
X16691610Y-19329984D01*
X16777325Y-19529984D02*
X16777325Y-19425222D01*
X16777325Y-19425222D02*
X16767801Y-19406174D01*
X16767801Y-19406174D02*
X16748753Y-19396650D01*
X16748753Y-19396650D02*
X16720182Y-19396650D01*
X16720182Y-19396650D02*
X16701134Y-19406174D01*
X16701134Y-19406174D02*
X16691610Y-19415698D01*
X16901134Y-19529984D02*
X16882087Y-19520460D01*
X16882087Y-19520460D02*
X16872563Y-19510936D01*
X16872563Y-19510936D02*
X16863039Y-19491889D01*
X16863039Y-19491889D02*
X16863039Y-19434746D01*
X16863039Y-19434746D02*
X16872563Y-19415698D01*
X16872563Y-19415698D02*
X16882087Y-19406174D01*
X16882087Y-19406174D02*
X16901134Y-19396650D01*
X16901134Y-19396650D02*
X16929706Y-19396650D01*
X16929706Y-19396650D02*
X16948753Y-19406174D01*
X16948753Y-19406174D02*
X16958277Y-19415698D01*
X16958277Y-19415698D02*
X16967801Y-19434746D01*
X16967801Y-19434746D02*
X16967801Y-19491889D01*
X16967801Y-19491889D02*
X16958277Y-19510936D01*
X16958277Y-19510936D02*
X16948753Y-19520460D01*
X16948753Y-19520460D02*
X16929706Y-19529984D01*
X16929706Y-19529984D02*
X16901134Y-19529984D01*
X17082087Y-19529984D02*
X17063039Y-19520460D01*
X17063039Y-19520460D02*
X17053515Y-19501412D01*
X17053515Y-19501412D02*
X17053515Y-19329984D01*
X17234468Y-19520460D02*
X17215420Y-19529984D01*
X17215420Y-19529984D02*
X17177325Y-19529984D01*
X17177325Y-19529984D02*
X17158277Y-19520460D01*
X17158277Y-19520460D02*
X17148753Y-19501412D01*
X17148753Y-19501412D02*
X17148753Y-19425222D01*
X17148753Y-19425222D02*
X17158277Y-19406174D01*
X17158277Y-19406174D02*
X17177325Y-19396650D01*
X17177325Y-19396650D02*
X17215420Y-19396650D01*
X17215420Y-19396650D02*
X17234468Y-19406174D01*
X17234468Y-19406174D02*
X17243992Y-19425222D01*
X17243992Y-19425222D02*
X17243992Y-19444270D01*
X17243992Y-19444270D02*
X17148753Y-19463317D01*
X17320182Y-19520460D02*
X17339230Y-19529984D01*
X17339230Y-19529984D02*
X17377325Y-19529984D01*
X17377325Y-19529984D02*
X17396373Y-19520460D01*
X17396373Y-19520460D02*
X17405896Y-19501412D01*
X17405896Y-19501412D02*
X17405896Y-19491889D01*
X17405896Y-19491889D02*
X17396373Y-19472841D01*
X17396373Y-19472841D02*
X17377325Y-19463317D01*
X17377325Y-19463317D02*
X17348753Y-19463317D01*
X17348753Y-19463317D02*
X17329706Y-19453793D01*
X17329706Y-19453793D02*
X17320182Y-19434746D01*
X17320182Y-19434746D02*
X17320182Y-19425222D01*
X17320182Y-19425222D02*
X17329706Y-19406174D01*
X17329706Y-19406174D02*
X17348753Y-19396650D01*
X17348753Y-19396650D02*
X17377325Y-19396650D01*
X17377325Y-19396650D02*
X17396373Y-19406174D01*
X17643992Y-19453793D02*
X17796373Y-19453793D01*
X17720182Y-19529984D02*
X17720182Y-19377603D01*
X18072563Y-19415698D02*
X18053515Y-19406174D01*
X18053515Y-19406174D02*
X18043992Y-19396650D01*
X18043992Y-19396650D02*
X18034468Y-19377603D01*
X18034468Y-19377603D02*
X18034468Y-19368079D01*
X18034468Y-19368079D02*
X18043992Y-19349031D01*
X18043992Y-19349031D02*
X18053515Y-19339508D01*
X18053515Y-19339508D02*
X18072563Y-19329984D01*
X18072563Y-19329984D02*
X18110658Y-19329984D01*
X18110658Y-19329984D02*
X18129706Y-19339508D01*
X18129706Y-19339508D02*
X18139230Y-19349031D01*
X18139230Y-19349031D02*
X18148754Y-19368079D01*
X18148754Y-19368079D02*
X18148754Y-19377603D01*
X18148754Y-19377603D02*
X18139230Y-19396650D01*
X18139230Y-19396650D02*
X18129706Y-19406174D01*
X18129706Y-19406174D02*
X18110658Y-19415698D01*
X18110658Y-19415698D02*
X18072563Y-19415698D01*
X18072563Y-19415698D02*
X18053515Y-19425222D01*
X18053515Y-19425222D02*
X18043992Y-19434746D01*
X18043992Y-19434746D02*
X18034468Y-19453793D01*
X18034468Y-19453793D02*
X18034468Y-19491889D01*
X18034468Y-19491889D02*
X18043992Y-19510936D01*
X18043992Y-19510936D02*
X18053515Y-19520460D01*
X18053515Y-19520460D02*
X18072563Y-19529984D01*
X18072563Y-19529984D02*
X18110658Y-19529984D01*
X18110658Y-19529984D02*
X18129706Y-19520460D01*
X18129706Y-19520460D02*
X18139230Y-19510936D01*
X18139230Y-19510936D02*
X18148754Y-19491889D01*
X18148754Y-19491889D02*
X18148754Y-19453793D01*
X18148754Y-19453793D02*
X18139230Y-19434746D01*
X18139230Y-19434746D02*
X18129706Y-19425222D01*
X18129706Y-19425222D02*
X18110658Y-19415698D01*
X18377325Y-19520460D02*
X18396373Y-19529984D01*
X18396373Y-19529984D02*
X18434468Y-19529984D01*
X18434468Y-19529984D02*
X18453516Y-19520460D01*
X18453516Y-19520460D02*
X18463039Y-19501412D01*
X18463039Y-19501412D02*
X18463039Y-19491889D01*
X18463039Y-19491889D02*
X18453516Y-19472841D01*
X18453516Y-19472841D02*
X18434468Y-19463317D01*
X18434468Y-19463317D02*
X18405896Y-19463317D01*
X18405896Y-19463317D02*
X18386849Y-19453793D01*
X18386849Y-19453793D02*
X18377325Y-19434746D01*
X18377325Y-19434746D02*
X18377325Y-19425222D01*
X18377325Y-19425222D02*
X18386849Y-19406174D01*
X18386849Y-19406174D02*
X18405896Y-19396650D01*
X18405896Y-19396650D02*
X18434468Y-19396650D01*
X18434468Y-19396650D02*
X18453516Y-19406174D01*
X18577325Y-19529984D02*
X18558277Y-19520460D01*
X18558277Y-19520460D02*
X18548754Y-19501412D01*
X18548754Y-19501412D02*
X18548754Y-19329984D01*
X18682087Y-19529984D02*
X18663039Y-19520460D01*
X18663039Y-19520460D02*
X18653516Y-19510936D01*
X18653516Y-19510936D02*
X18643992Y-19491889D01*
X18643992Y-19491889D02*
X18643992Y-19434746D01*
X18643992Y-19434746D02*
X18653516Y-19415698D01*
X18653516Y-19415698D02*
X18663039Y-19406174D01*
X18663039Y-19406174D02*
X18682087Y-19396650D01*
X18682087Y-19396650D02*
X18710658Y-19396650D01*
X18710658Y-19396650D02*
X18729706Y-19406174D01*
X18729706Y-19406174D02*
X18739230Y-19415698D01*
X18739230Y-19415698D02*
X18748754Y-19434746D01*
X18748754Y-19434746D02*
X18748754Y-19491889D01*
X18748754Y-19491889D02*
X18739230Y-19510936D01*
X18739230Y-19510936D02*
X18729706Y-19520460D01*
X18729706Y-19520460D02*
X18710658Y-19529984D01*
X18710658Y-19529984D02*
X18682087Y-19529984D01*
X18805897Y-19396650D02*
X18882087Y-19396650D01*
X18834468Y-19329984D02*
X18834468Y-19501412D01*
X18834468Y-19501412D02*
X18843992Y-19520460D01*
X18843992Y-19520460D02*
X18863039Y-19529984D01*
X18863039Y-19529984D02*
X18882087Y-19529984D01*
X18939230Y-19520460D02*
X18958277Y-19529984D01*
X18958277Y-19529984D02*
X18996373Y-19529984D01*
X18996373Y-19529984D02*
X19015420Y-19520460D01*
X19015420Y-19520460D02*
X19024944Y-19501412D01*
X19024944Y-19501412D02*
X19024944Y-19491889D01*
X19024944Y-19491889D02*
X19015420Y-19472841D01*
X19015420Y-19472841D02*
X18996373Y-19463317D01*
X18996373Y-19463317D02*
X18967801Y-19463317D01*
X18967801Y-19463317D02*
X18948754Y-19453793D01*
X18948754Y-19453793D02*
X18939230Y-19434746D01*
X18939230Y-19434746D02*
X18939230Y-19425222D01*
X18939230Y-19425222D02*
X18948754Y-19406174D01*
X18948754Y-19406174D02*
X18967801Y-19396650D01*
X18967801Y-19396650D02*
X18996373Y-19396650D01*
X18996373Y-19396650D02*
X19015420Y-19406174D01*
X19091611Y-19606174D02*
X19101135Y-19596650D01*
X19101135Y-19596650D02*
X19120182Y-19568079D01*
X19120182Y-19568079D02*
X19129706Y-19549031D01*
X19129706Y-19549031D02*
X19139230Y-19520460D01*
X19139230Y-19520460D02*
X19148754Y-19472841D01*
X19148754Y-19472841D02*
X19148754Y-19434746D01*
X19148754Y-19434746D02*
X19139230Y-19387127D01*
X19139230Y-19387127D02*
X19129706Y-19358555D01*
X19129706Y-19358555D02*
X19120182Y-19339508D01*
X19120182Y-19339508D02*
X19101135Y-19310936D01*
X19101135Y-19310936D02*
X19091611Y-19301412D01*
X19453516Y-19606174D02*
X19443992Y-19596650D01*
X19443992Y-19596650D02*
X19424944Y-19568079D01*
X19424944Y-19568079D02*
X19415420Y-19549031D01*
X19415420Y-19549031D02*
X19405897Y-19520460D01*
X19405897Y-19520460D02*
X19396373Y-19472841D01*
X19396373Y-19472841D02*
X19396373Y-19434746D01*
X19396373Y-19434746D02*
X19405897Y-19387127D01*
X19405897Y-19387127D02*
X19415420Y-19358555D01*
X19415420Y-19358555D02*
X19424944Y-19339508D01*
X19424944Y-19339508D02*
X19443992Y-19310936D01*
X19443992Y-19310936D02*
X19453516Y-19301412D01*
X19529706Y-19396650D02*
X19529706Y-19529984D01*
X19529706Y-19415698D02*
X19539230Y-19406174D01*
X19539230Y-19406174D02*
X19558277Y-19396650D01*
X19558277Y-19396650D02*
X19586849Y-19396650D01*
X19586849Y-19396650D02*
X19605897Y-19406174D01*
X19605897Y-19406174D02*
X19615420Y-19425222D01*
X19615420Y-19425222D02*
X19615420Y-19529984D01*
X19739230Y-19529984D02*
X19720182Y-19520460D01*
X19720182Y-19520460D02*
X19710658Y-19510936D01*
X19710658Y-19510936D02*
X19701135Y-19491889D01*
X19701135Y-19491889D02*
X19701135Y-19434746D01*
X19701135Y-19434746D02*
X19710658Y-19415698D01*
X19710658Y-19415698D02*
X19720182Y-19406174D01*
X19720182Y-19406174D02*
X19739230Y-19396650D01*
X19739230Y-19396650D02*
X19767801Y-19396650D01*
X19767801Y-19396650D02*
X19786849Y-19406174D01*
X19786849Y-19406174D02*
X19796373Y-19415698D01*
X19796373Y-19415698D02*
X19805897Y-19434746D01*
X19805897Y-19434746D02*
X19805897Y-19491889D01*
X19805897Y-19491889D02*
X19796373Y-19510936D01*
X19796373Y-19510936D02*
X19786849Y-19520460D01*
X19786849Y-19520460D02*
X19767801Y-19529984D01*
X19767801Y-19529984D02*
X19739230Y-19529984D01*
X19863039Y-19396650D02*
X19939230Y-19396650D01*
X19891611Y-19329984D02*
X19891611Y-19501412D01*
X19891611Y-19501412D02*
X19901135Y-19520460D01*
X19901135Y-19520460D02*
X19920182Y-19529984D01*
X19920182Y-19529984D02*
X19939230Y-19529984D01*
X20158278Y-19396650D02*
X20158278Y-19596650D01*
X20158278Y-19406174D02*
X20177325Y-19396650D01*
X20177325Y-19396650D02*
X20215420Y-19396650D01*
X20215420Y-19396650D02*
X20234468Y-19406174D01*
X20234468Y-19406174D02*
X20243992Y-19415698D01*
X20243992Y-19415698D02*
X20253516Y-19434746D01*
X20253516Y-19434746D02*
X20253516Y-19491889D01*
X20253516Y-19491889D02*
X20243992Y-19510936D01*
X20243992Y-19510936D02*
X20234468Y-19520460D01*
X20234468Y-19520460D02*
X20215420Y-19529984D01*
X20215420Y-19529984D02*
X20177325Y-19529984D01*
X20177325Y-19529984D02*
X20158278Y-19520460D01*
X20367801Y-19529984D02*
X20348754Y-19520460D01*
X20348754Y-19520460D02*
X20339230Y-19501412D01*
X20339230Y-19501412D02*
X20339230Y-19329984D01*
X20529706Y-19529984D02*
X20529706Y-19425222D01*
X20529706Y-19425222D02*
X20520182Y-19406174D01*
X20520182Y-19406174D02*
X20501135Y-19396650D01*
X20501135Y-19396650D02*
X20463039Y-19396650D01*
X20463039Y-19396650D02*
X20443992Y-19406174D01*
X20529706Y-19520460D02*
X20510659Y-19529984D01*
X20510659Y-19529984D02*
X20463039Y-19529984D01*
X20463039Y-19529984D02*
X20443992Y-19520460D01*
X20443992Y-19520460D02*
X20434468Y-19501412D01*
X20434468Y-19501412D02*
X20434468Y-19482365D01*
X20434468Y-19482365D02*
X20443992Y-19463317D01*
X20443992Y-19463317D02*
X20463039Y-19453793D01*
X20463039Y-19453793D02*
X20510659Y-19453793D01*
X20510659Y-19453793D02*
X20529706Y-19444270D01*
X20596373Y-19396650D02*
X20672563Y-19396650D01*
X20624944Y-19329984D02*
X20624944Y-19501412D01*
X20624944Y-19501412D02*
X20634468Y-19520460D01*
X20634468Y-19520460D02*
X20653516Y-19529984D01*
X20653516Y-19529984D02*
X20672563Y-19529984D01*
X20815420Y-19520460D02*
X20796373Y-19529984D01*
X20796373Y-19529984D02*
X20758278Y-19529984D01*
X20758278Y-19529984D02*
X20739230Y-19520460D01*
X20739230Y-19520460D02*
X20729706Y-19501412D01*
X20729706Y-19501412D02*
X20729706Y-19425222D01*
X20729706Y-19425222D02*
X20739230Y-19406174D01*
X20739230Y-19406174D02*
X20758278Y-19396650D01*
X20758278Y-19396650D02*
X20796373Y-19396650D01*
X20796373Y-19396650D02*
X20815420Y-19406174D01*
X20815420Y-19406174D02*
X20824944Y-19425222D01*
X20824944Y-19425222D02*
X20824944Y-19444270D01*
X20824944Y-19444270D02*
X20729706Y-19463317D01*
X20996373Y-19529984D02*
X20996373Y-19329984D01*
X20996373Y-19520460D02*
X20977325Y-19529984D01*
X20977325Y-19529984D02*
X20939230Y-19529984D01*
X20939230Y-19529984D02*
X20920182Y-19520460D01*
X20920182Y-19520460D02*
X20910659Y-19510936D01*
X20910659Y-19510936D02*
X20901135Y-19491889D01*
X20901135Y-19491889D02*
X20901135Y-19434746D01*
X20901135Y-19434746D02*
X20910659Y-19415698D01*
X20910659Y-19415698D02*
X20920182Y-19406174D01*
X20920182Y-19406174D02*
X20939230Y-19396650D01*
X20939230Y-19396650D02*
X20977325Y-19396650D01*
X20977325Y-19396650D02*
X20996373Y-19406174D01*
X21072563Y-19606174D02*
X21082087Y-19596650D01*
X21082087Y-19596650D02*
X21101135Y-19568079D01*
X21101135Y-19568079D02*
X21110659Y-19549031D01*
X21110659Y-19549031D02*
X21120182Y-19520460D01*
X21120182Y-19520460D02*
X21129706Y-19472841D01*
X21129706Y-19472841D02*
X21129706Y-19434746D01*
X21129706Y-19434746D02*
X21120182Y-19387127D01*
X21120182Y-19387127D02*
X21110659Y-19358555D01*
X21110659Y-19358555D02*
X21101135Y-19339508D01*
X21101135Y-19339508D02*
X21082087Y-19310936D01*
X21082087Y-19310936D02*
X21072563Y-19301412D01*
M02*
