%TF.GenerationSoftware,KiCad,Pcbnew,9.0.3*%
%TF.CreationDate,2025-09-17T10:51:30-04:00*%
%TF.ProjectId,4_COLD_TPC_SiPM_Pre_Amp,345f434f-4c44-45f5-9450-435f5369504d,rev?*%
%TF.SameCoordinates,Original*%
%TF.FileFunction,Legend,Bot*%
%TF.FilePolarity,Positive*%
%FSLAX46Y46*%
G04 Gerber Fmt 4.6, Leading zero omitted, Abs format (unit mm)*
G04 Created by KiCad (PCBNEW 9.0.3) date 2025-09-17 10:51:30*
%MOMM*%
%LPD*%
G01*
G04 APERTURE LIST*
%ADD10C,0.150000*%
%ADD11C,0.120000*%
%ADD12C,0.200000*%
%ADD13C,0.127000*%
%ADD14C,0.508000*%
G04 APERTURE END LIST*
D10*
X188247080Y-160003333D02*
X188294700Y-159955714D01*
X188294700Y-159955714D02*
X188342319Y-159812857D01*
X188342319Y-159812857D02*
X188342319Y-159717619D01*
X188342319Y-159717619D02*
X188294700Y-159574762D01*
X188294700Y-159574762D02*
X188199461Y-159479524D01*
X188199461Y-159479524D02*
X188104223Y-159431905D01*
X188104223Y-159431905D02*
X187913747Y-159384286D01*
X187913747Y-159384286D02*
X187770890Y-159384286D01*
X187770890Y-159384286D02*
X187580414Y-159431905D01*
X187580414Y-159431905D02*
X187485176Y-159479524D01*
X187485176Y-159479524D02*
X187389938Y-159574762D01*
X187389938Y-159574762D02*
X187342319Y-159717619D01*
X187342319Y-159717619D02*
X187342319Y-159812857D01*
X187342319Y-159812857D02*
X187389938Y-159955714D01*
X187389938Y-159955714D02*
X187437557Y-160003333D01*
X187770890Y-160574762D02*
X187723271Y-160479524D01*
X187723271Y-160479524D02*
X187675652Y-160431905D01*
X187675652Y-160431905D02*
X187580414Y-160384286D01*
X187580414Y-160384286D02*
X187532795Y-160384286D01*
X187532795Y-160384286D02*
X187437557Y-160431905D01*
X187437557Y-160431905D02*
X187389938Y-160479524D01*
X187389938Y-160479524D02*
X187342319Y-160574762D01*
X187342319Y-160574762D02*
X187342319Y-160765238D01*
X187342319Y-160765238D02*
X187389938Y-160860476D01*
X187389938Y-160860476D02*
X187437557Y-160908095D01*
X187437557Y-160908095D02*
X187532795Y-160955714D01*
X187532795Y-160955714D02*
X187580414Y-160955714D01*
X187580414Y-160955714D02*
X187675652Y-160908095D01*
X187675652Y-160908095D02*
X187723271Y-160860476D01*
X187723271Y-160860476D02*
X187770890Y-160765238D01*
X187770890Y-160765238D02*
X187770890Y-160574762D01*
X187770890Y-160574762D02*
X187818509Y-160479524D01*
X187818509Y-160479524D02*
X187866128Y-160431905D01*
X187866128Y-160431905D02*
X187961366Y-160384286D01*
X187961366Y-160384286D02*
X188151842Y-160384286D01*
X188151842Y-160384286D02*
X188247080Y-160431905D01*
X188247080Y-160431905D02*
X188294700Y-160479524D01*
X188294700Y-160479524D02*
X188342319Y-160574762D01*
X188342319Y-160574762D02*
X188342319Y-160765238D01*
X188342319Y-160765238D02*
X188294700Y-160860476D01*
X188294700Y-160860476D02*
X188247080Y-160908095D01*
X188247080Y-160908095D02*
X188151842Y-160955714D01*
X188151842Y-160955714D02*
X187961366Y-160955714D01*
X187961366Y-160955714D02*
X187866128Y-160908095D01*
X187866128Y-160908095D02*
X187818509Y-160860476D01*
X187818509Y-160860476D02*
X187770890Y-160765238D01*
X190177080Y-159923333D02*
X190224700Y-159875714D01*
X190224700Y-159875714D02*
X190272319Y-159732857D01*
X190272319Y-159732857D02*
X190272319Y-159637619D01*
X190272319Y-159637619D02*
X190224700Y-159494762D01*
X190224700Y-159494762D02*
X190129461Y-159399524D01*
X190129461Y-159399524D02*
X190034223Y-159351905D01*
X190034223Y-159351905D02*
X189843747Y-159304286D01*
X189843747Y-159304286D02*
X189700890Y-159304286D01*
X189700890Y-159304286D02*
X189510414Y-159351905D01*
X189510414Y-159351905D02*
X189415176Y-159399524D01*
X189415176Y-159399524D02*
X189319938Y-159494762D01*
X189319938Y-159494762D02*
X189272319Y-159637619D01*
X189272319Y-159637619D02*
X189272319Y-159732857D01*
X189272319Y-159732857D02*
X189319938Y-159875714D01*
X189319938Y-159875714D02*
X189367557Y-159923333D01*
X190272319Y-160399524D02*
X190272319Y-160590000D01*
X190272319Y-160590000D02*
X190224700Y-160685238D01*
X190224700Y-160685238D02*
X190177080Y-160732857D01*
X190177080Y-160732857D02*
X190034223Y-160828095D01*
X190034223Y-160828095D02*
X189843747Y-160875714D01*
X189843747Y-160875714D02*
X189462795Y-160875714D01*
X189462795Y-160875714D02*
X189367557Y-160828095D01*
X189367557Y-160828095D02*
X189319938Y-160780476D01*
X189319938Y-160780476D02*
X189272319Y-160685238D01*
X189272319Y-160685238D02*
X189272319Y-160494762D01*
X189272319Y-160494762D02*
X189319938Y-160399524D01*
X189319938Y-160399524D02*
X189367557Y-160351905D01*
X189367557Y-160351905D02*
X189462795Y-160304286D01*
X189462795Y-160304286D02*
X189700890Y-160304286D01*
X189700890Y-160304286D02*
X189796128Y-160351905D01*
X189796128Y-160351905D02*
X189843747Y-160399524D01*
X189843747Y-160399524D02*
X189891366Y-160494762D01*
X189891366Y-160494762D02*
X189891366Y-160685238D01*
X189891366Y-160685238D02*
X189843747Y-160780476D01*
X189843747Y-160780476D02*
X189796128Y-160828095D01*
X189796128Y-160828095D02*
X189700890Y-160875714D01*
X192007080Y-159307142D02*
X192054700Y-159259523D01*
X192054700Y-159259523D02*
X192102319Y-159116666D01*
X192102319Y-159116666D02*
X192102319Y-159021428D01*
X192102319Y-159021428D02*
X192054700Y-158878571D01*
X192054700Y-158878571D02*
X191959461Y-158783333D01*
X191959461Y-158783333D02*
X191864223Y-158735714D01*
X191864223Y-158735714D02*
X191673747Y-158688095D01*
X191673747Y-158688095D02*
X191530890Y-158688095D01*
X191530890Y-158688095D02*
X191340414Y-158735714D01*
X191340414Y-158735714D02*
X191245176Y-158783333D01*
X191245176Y-158783333D02*
X191149938Y-158878571D01*
X191149938Y-158878571D02*
X191102319Y-159021428D01*
X191102319Y-159021428D02*
X191102319Y-159116666D01*
X191102319Y-159116666D02*
X191149938Y-159259523D01*
X191149938Y-159259523D02*
X191197557Y-159307142D01*
X192102319Y-160259523D02*
X192102319Y-159688095D01*
X192102319Y-159973809D02*
X191102319Y-159973809D01*
X191102319Y-159973809D02*
X191245176Y-159878571D01*
X191245176Y-159878571D02*
X191340414Y-159783333D01*
X191340414Y-159783333D02*
X191388033Y-159688095D01*
X191102319Y-160878571D02*
X191102319Y-160973809D01*
X191102319Y-160973809D02*
X191149938Y-161069047D01*
X191149938Y-161069047D02*
X191197557Y-161116666D01*
X191197557Y-161116666D02*
X191292795Y-161164285D01*
X191292795Y-161164285D02*
X191483271Y-161211904D01*
X191483271Y-161211904D02*
X191721366Y-161211904D01*
X191721366Y-161211904D02*
X191911842Y-161164285D01*
X191911842Y-161164285D02*
X192007080Y-161116666D01*
X192007080Y-161116666D02*
X192054700Y-161069047D01*
X192054700Y-161069047D02*
X192102319Y-160973809D01*
X192102319Y-160973809D02*
X192102319Y-160878571D01*
X192102319Y-160878571D02*
X192054700Y-160783333D01*
X192054700Y-160783333D02*
X192007080Y-160735714D01*
X192007080Y-160735714D02*
X191911842Y-160688095D01*
X191911842Y-160688095D02*
X191721366Y-160640476D01*
X191721366Y-160640476D02*
X191483271Y-160640476D01*
X191483271Y-160640476D02*
X191292795Y-160688095D01*
X191292795Y-160688095D02*
X191197557Y-160735714D01*
X191197557Y-160735714D02*
X191149938Y-160783333D01*
X191149938Y-160783333D02*
X191102319Y-160878571D01*
X217146866Y-162929999D02*
X217180200Y-162896666D01*
X217180200Y-162896666D02*
X217213533Y-162796666D01*
X217213533Y-162796666D02*
X217213533Y-162729999D01*
X217213533Y-162729999D02*
X217180200Y-162629999D01*
X217180200Y-162629999D02*
X217113533Y-162563333D01*
X217113533Y-162563333D02*
X217046866Y-162529999D01*
X217046866Y-162529999D02*
X216913533Y-162496666D01*
X216913533Y-162496666D02*
X216813533Y-162496666D01*
X216813533Y-162496666D02*
X216680200Y-162529999D01*
X216680200Y-162529999D02*
X216613533Y-162563333D01*
X216613533Y-162563333D02*
X216546866Y-162629999D01*
X216546866Y-162629999D02*
X216513533Y-162729999D01*
X216513533Y-162729999D02*
X216513533Y-162796666D01*
X216513533Y-162796666D02*
X216546866Y-162896666D01*
X216546866Y-162896666D02*
X216580200Y-162929999D01*
X217213533Y-163596666D02*
X217213533Y-163196666D01*
X217213533Y-163396666D02*
X216513533Y-163396666D01*
X216513533Y-163396666D02*
X216613533Y-163329999D01*
X216613533Y-163329999D02*
X216680200Y-163263333D01*
X216680200Y-163263333D02*
X216713533Y-163196666D01*
X217213533Y-164263333D02*
X217213533Y-163863333D01*
X217213533Y-164063333D02*
X216513533Y-164063333D01*
X216513533Y-164063333D02*
X216613533Y-163996666D01*
X216613533Y-163996666D02*
X216680200Y-163930000D01*
X216680200Y-163930000D02*
X216713533Y-163863333D01*
X220757080Y-159537142D02*
X220804700Y-159489523D01*
X220804700Y-159489523D02*
X220852319Y-159346666D01*
X220852319Y-159346666D02*
X220852319Y-159251428D01*
X220852319Y-159251428D02*
X220804700Y-159108571D01*
X220804700Y-159108571D02*
X220709461Y-159013333D01*
X220709461Y-159013333D02*
X220614223Y-158965714D01*
X220614223Y-158965714D02*
X220423747Y-158918095D01*
X220423747Y-158918095D02*
X220280890Y-158918095D01*
X220280890Y-158918095D02*
X220090414Y-158965714D01*
X220090414Y-158965714D02*
X219995176Y-159013333D01*
X219995176Y-159013333D02*
X219899938Y-159108571D01*
X219899938Y-159108571D02*
X219852319Y-159251428D01*
X219852319Y-159251428D02*
X219852319Y-159346666D01*
X219852319Y-159346666D02*
X219899938Y-159489523D01*
X219899938Y-159489523D02*
X219947557Y-159537142D01*
X220852319Y-160489523D02*
X220852319Y-159918095D01*
X220852319Y-160203809D02*
X219852319Y-160203809D01*
X219852319Y-160203809D02*
X219995176Y-160108571D01*
X219995176Y-160108571D02*
X220090414Y-160013333D01*
X220090414Y-160013333D02*
X220138033Y-159918095D01*
X219852319Y-160822857D02*
X219852319Y-161441904D01*
X219852319Y-161441904D02*
X220233271Y-161108571D01*
X220233271Y-161108571D02*
X220233271Y-161251428D01*
X220233271Y-161251428D02*
X220280890Y-161346666D01*
X220280890Y-161346666D02*
X220328509Y-161394285D01*
X220328509Y-161394285D02*
X220423747Y-161441904D01*
X220423747Y-161441904D02*
X220661842Y-161441904D01*
X220661842Y-161441904D02*
X220757080Y-161394285D01*
X220757080Y-161394285D02*
X220804700Y-161346666D01*
X220804700Y-161346666D02*
X220852319Y-161251428D01*
X220852319Y-161251428D02*
X220852319Y-160965714D01*
X220852319Y-160965714D02*
X220804700Y-160870476D01*
X220804700Y-160870476D02*
X220757080Y-160822857D01*
X222647080Y-159617142D02*
X222694700Y-159569523D01*
X222694700Y-159569523D02*
X222742319Y-159426666D01*
X222742319Y-159426666D02*
X222742319Y-159331428D01*
X222742319Y-159331428D02*
X222694700Y-159188571D01*
X222694700Y-159188571D02*
X222599461Y-159093333D01*
X222599461Y-159093333D02*
X222504223Y-159045714D01*
X222504223Y-159045714D02*
X222313747Y-158998095D01*
X222313747Y-158998095D02*
X222170890Y-158998095D01*
X222170890Y-158998095D02*
X221980414Y-159045714D01*
X221980414Y-159045714D02*
X221885176Y-159093333D01*
X221885176Y-159093333D02*
X221789938Y-159188571D01*
X221789938Y-159188571D02*
X221742319Y-159331428D01*
X221742319Y-159331428D02*
X221742319Y-159426666D01*
X221742319Y-159426666D02*
X221789938Y-159569523D01*
X221789938Y-159569523D02*
X221837557Y-159617142D01*
X222742319Y-160569523D02*
X222742319Y-159998095D01*
X222742319Y-160283809D02*
X221742319Y-160283809D01*
X221742319Y-160283809D02*
X221885176Y-160188571D01*
X221885176Y-160188571D02*
X221980414Y-160093333D01*
X221980414Y-160093333D02*
X222028033Y-159998095D01*
X222075652Y-161426666D02*
X222742319Y-161426666D01*
X221694700Y-161188571D02*
X222408985Y-160950476D01*
X222408985Y-160950476D02*
X222408985Y-161569523D01*
X228375776Y-164207618D02*
X227735776Y-164207618D01*
X227735776Y-164207618D02*
X227735776Y-164359999D01*
X227735776Y-164359999D02*
X227766252Y-164451428D01*
X227766252Y-164451428D02*
X227827204Y-164512380D01*
X227827204Y-164512380D02*
X227888157Y-164542857D01*
X227888157Y-164542857D02*
X228010061Y-164573333D01*
X228010061Y-164573333D02*
X228101490Y-164573333D01*
X228101490Y-164573333D02*
X228223395Y-164542857D01*
X228223395Y-164542857D02*
X228284347Y-164512380D01*
X228284347Y-164512380D02*
X228345300Y-164451428D01*
X228345300Y-164451428D02*
X228375776Y-164359999D01*
X228375776Y-164359999D02*
X228375776Y-164207618D01*
X228375776Y-165182857D02*
X228375776Y-164817142D01*
X228375776Y-164999999D02*
X227735776Y-164999999D01*
X227735776Y-164999999D02*
X227827204Y-164939047D01*
X227827204Y-164939047D02*
X227888157Y-164878095D01*
X227888157Y-164878095D02*
X227918633Y-164817142D01*
X228743276Y-128657618D02*
X228103276Y-128657618D01*
X228103276Y-128657618D02*
X228103276Y-128809999D01*
X228103276Y-128809999D02*
X228133752Y-128901428D01*
X228133752Y-128901428D02*
X228194704Y-128962380D01*
X228194704Y-128962380D02*
X228255657Y-128992857D01*
X228255657Y-128992857D02*
X228377561Y-129023333D01*
X228377561Y-129023333D02*
X228468990Y-129023333D01*
X228468990Y-129023333D02*
X228590895Y-128992857D01*
X228590895Y-128992857D02*
X228651847Y-128962380D01*
X228651847Y-128962380D02*
X228712800Y-128901428D01*
X228712800Y-128901428D02*
X228743276Y-128809999D01*
X228743276Y-128809999D02*
X228743276Y-128657618D01*
X228164228Y-129267142D02*
X228133752Y-129297618D01*
X228133752Y-129297618D02*
X228103276Y-129358571D01*
X228103276Y-129358571D02*
X228103276Y-129510952D01*
X228103276Y-129510952D02*
X228133752Y-129571904D01*
X228133752Y-129571904D02*
X228164228Y-129602380D01*
X228164228Y-129602380D02*
X228225180Y-129632857D01*
X228225180Y-129632857D02*
X228286133Y-129632857D01*
X228286133Y-129632857D02*
X228377561Y-129602380D01*
X228377561Y-129602380D02*
X228743276Y-129236666D01*
X228743276Y-129236666D02*
X228743276Y-129632857D01*
X221444166Y-167786033D02*
X221677499Y-167452700D01*
X221844166Y-167786033D02*
X221844166Y-167086033D01*
X221844166Y-167086033D02*
X221577499Y-167086033D01*
X221577499Y-167086033D02*
X221510833Y-167119366D01*
X221510833Y-167119366D02*
X221477499Y-167152700D01*
X221477499Y-167152700D02*
X221444166Y-167219366D01*
X221444166Y-167219366D02*
X221444166Y-167319366D01*
X221444166Y-167319366D02*
X221477499Y-167386033D01*
X221477499Y-167386033D02*
X221510833Y-167419366D01*
X221510833Y-167419366D02*
X221577499Y-167452700D01*
X221577499Y-167452700D02*
X221844166Y-167452700D01*
X220777499Y-167786033D02*
X221177499Y-167786033D01*
X220977499Y-167786033D02*
X220977499Y-167086033D01*
X220977499Y-167086033D02*
X221044166Y-167186033D01*
X221044166Y-167186033D02*
X221110833Y-167252700D01*
X221110833Y-167252700D02*
X221177499Y-167286033D01*
X223871666Y-134236033D02*
X224104999Y-133902700D01*
X224271666Y-134236033D02*
X224271666Y-133536033D01*
X224271666Y-133536033D02*
X224004999Y-133536033D01*
X224004999Y-133536033D02*
X223938333Y-133569366D01*
X223938333Y-133569366D02*
X223904999Y-133602700D01*
X223904999Y-133602700D02*
X223871666Y-133669366D01*
X223871666Y-133669366D02*
X223871666Y-133769366D01*
X223871666Y-133769366D02*
X223904999Y-133836033D01*
X223904999Y-133836033D02*
X223938333Y-133869366D01*
X223938333Y-133869366D02*
X224004999Y-133902700D01*
X224004999Y-133902700D02*
X224271666Y-133902700D01*
X223604999Y-133602700D02*
X223571666Y-133569366D01*
X223571666Y-133569366D02*
X223504999Y-133536033D01*
X223504999Y-133536033D02*
X223338333Y-133536033D01*
X223338333Y-133536033D02*
X223271666Y-133569366D01*
X223271666Y-133569366D02*
X223238333Y-133602700D01*
X223238333Y-133602700D02*
X223204999Y-133669366D01*
X223204999Y-133669366D02*
X223204999Y-133736033D01*
X223204999Y-133736033D02*
X223238333Y-133836033D01*
X223238333Y-133836033D02*
X223638333Y-134236033D01*
X223638333Y-134236033D02*
X223204999Y-134236033D01*
X234869366Y-123649999D02*
X234902700Y-123616666D01*
X234902700Y-123616666D02*
X234936033Y-123516666D01*
X234936033Y-123516666D02*
X234936033Y-123449999D01*
X234936033Y-123449999D02*
X234902700Y-123349999D01*
X234902700Y-123349999D02*
X234836033Y-123283333D01*
X234836033Y-123283333D02*
X234769366Y-123249999D01*
X234769366Y-123249999D02*
X234636033Y-123216666D01*
X234636033Y-123216666D02*
X234536033Y-123216666D01*
X234536033Y-123216666D02*
X234402700Y-123249999D01*
X234402700Y-123249999D02*
X234336033Y-123283333D01*
X234336033Y-123283333D02*
X234269366Y-123349999D01*
X234269366Y-123349999D02*
X234236033Y-123449999D01*
X234236033Y-123449999D02*
X234236033Y-123516666D01*
X234236033Y-123516666D02*
X234269366Y-123616666D01*
X234269366Y-123616666D02*
X234302700Y-123649999D01*
X234236033Y-123883333D02*
X234236033Y-124316666D01*
X234236033Y-124316666D02*
X234502700Y-124083333D01*
X234502700Y-124083333D02*
X234502700Y-124183333D01*
X234502700Y-124183333D02*
X234536033Y-124249999D01*
X234536033Y-124249999D02*
X234569366Y-124283333D01*
X234569366Y-124283333D02*
X234636033Y-124316666D01*
X234636033Y-124316666D02*
X234802700Y-124316666D01*
X234802700Y-124316666D02*
X234869366Y-124283333D01*
X234869366Y-124283333D02*
X234902700Y-124249999D01*
X234902700Y-124249999D02*
X234936033Y-124183333D01*
X234936033Y-124183333D02*
X234936033Y-123983333D01*
X234936033Y-123983333D02*
X234902700Y-123916666D01*
X234902700Y-123916666D02*
X234869366Y-123883333D01*
X234936033Y-124983333D02*
X234936033Y-124583333D01*
X234936033Y-124783333D02*
X234236033Y-124783333D01*
X234236033Y-124783333D02*
X234336033Y-124716666D01*
X234336033Y-124716666D02*
X234402700Y-124650000D01*
X234402700Y-124650000D02*
X234436033Y-124583333D01*
X239506033Y-125249999D02*
X239172700Y-125016666D01*
X239506033Y-124849999D02*
X238806033Y-124849999D01*
X238806033Y-124849999D02*
X238806033Y-125116666D01*
X238806033Y-125116666D02*
X238839366Y-125183333D01*
X238839366Y-125183333D02*
X238872700Y-125216666D01*
X238872700Y-125216666D02*
X238939366Y-125249999D01*
X238939366Y-125249999D02*
X239039366Y-125249999D01*
X239039366Y-125249999D02*
X239106033Y-125216666D01*
X239106033Y-125216666D02*
X239139366Y-125183333D01*
X239139366Y-125183333D02*
X239172700Y-125116666D01*
X239172700Y-125116666D02*
X239172700Y-124849999D01*
X239039366Y-125849999D02*
X239506033Y-125849999D01*
X238772700Y-125683333D02*
X239272700Y-125516666D01*
X239272700Y-125516666D02*
X239272700Y-125949999D01*
X238806033Y-126150000D02*
X238806033Y-126583333D01*
X238806033Y-126583333D02*
X239072700Y-126350000D01*
X239072700Y-126350000D02*
X239072700Y-126450000D01*
X239072700Y-126450000D02*
X239106033Y-126516666D01*
X239106033Y-126516666D02*
X239139366Y-126550000D01*
X239139366Y-126550000D02*
X239206033Y-126583333D01*
X239206033Y-126583333D02*
X239372700Y-126583333D01*
X239372700Y-126583333D02*
X239439366Y-126550000D01*
X239439366Y-126550000D02*
X239472700Y-126516666D01*
X239472700Y-126516666D02*
X239506033Y-126450000D01*
X239506033Y-126450000D02*
X239506033Y-126250000D01*
X239506033Y-126250000D02*
X239472700Y-126183333D01*
X239472700Y-126183333D02*
X239439366Y-126150000D01*
X184330000Y-66936033D02*
X184563333Y-66602700D01*
X184730000Y-66936033D02*
X184730000Y-66236033D01*
X184730000Y-66236033D02*
X184463333Y-66236033D01*
X184463333Y-66236033D02*
X184396667Y-66269366D01*
X184396667Y-66269366D02*
X184363333Y-66302700D01*
X184363333Y-66302700D02*
X184330000Y-66369366D01*
X184330000Y-66369366D02*
X184330000Y-66469366D01*
X184330000Y-66469366D02*
X184363333Y-66536033D01*
X184363333Y-66536033D02*
X184396667Y-66569366D01*
X184396667Y-66569366D02*
X184463333Y-66602700D01*
X184463333Y-66602700D02*
X184730000Y-66602700D01*
X183730000Y-66469366D02*
X183730000Y-66936033D01*
X183896667Y-66202700D02*
X184063333Y-66702700D01*
X184063333Y-66702700D02*
X183630000Y-66702700D01*
X183063333Y-66469366D02*
X183063333Y-66936033D01*
X183230000Y-66202700D02*
X183396666Y-66702700D01*
X183396666Y-66702700D02*
X182963333Y-66702700D01*
X184390000Y-71706033D02*
X184623333Y-71372700D01*
X184790000Y-71706033D02*
X184790000Y-71006033D01*
X184790000Y-71006033D02*
X184523333Y-71006033D01*
X184523333Y-71006033D02*
X184456667Y-71039366D01*
X184456667Y-71039366D02*
X184423333Y-71072700D01*
X184423333Y-71072700D02*
X184390000Y-71139366D01*
X184390000Y-71139366D02*
X184390000Y-71239366D01*
X184390000Y-71239366D02*
X184423333Y-71306033D01*
X184423333Y-71306033D02*
X184456667Y-71339366D01*
X184456667Y-71339366D02*
X184523333Y-71372700D01*
X184523333Y-71372700D02*
X184790000Y-71372700D01*
X183790000Y-71239366D02*
X183790000Y-71706033D01*
X183956667Y-70972700D02*
X184123333Y-71472700D01*
X184123333Y-71472700D02*
X183690000Y-71472700D01*
X183456666Y-71072700D02*
X183423333Y-71039366D01*
X183423333Y-71039366D02*
X183356666Y-71006033D01*
X183356666Y-71006033D02*
X183190000Y-71006033D01*
X183190000Y-71006033D02*
X183123333Y-71039366D01*
X183123333Y-71039366D02*
X183090000Y-71072700D01*
X183090000Y-71072700D02*
X183056666Y-71139366D01*
X183056666Y-71139366D02*
X183056666Y-71206033D01*
X183056666Y-71206033D02*
X183090000Y-71306033D01*
X183090000Y-71306033D02*
X183490000Y-71706033D01*
X183490000Y-71706033D02*
X183056666Y-71706033D01*
X220654366Y-125309999D02*
X220687700Y-125276666D01*
X220687700Y-125276666D02*
X220721033Y-125176666D01*
X220721033Y-125176666D02*
X220721033Y-125109999D01*
X220721033Y-125109999D02*
X220687700Y-125009999D01*
X220687700Y-125009999D02*
X220621033Y-124943333D01*
X220621033Y-124943333D02*
X220554366Y-124909999D01*
X220554366Y-124909999D02*
X220421033Y-124876666D01*
X220421033Y-124876666D02*
X220321033Y-124876666D01*
X220321033Y-124876666D02*
X220187700Y-124909999D01*
X220187700Y-124909999D02*
X220121033Y-124943333D01*
X220121033Y-124943333D02*
X220054366Y-125009999D01*
X220054366Y-125009999D02*
X220021033Y-125109999D01*
X220021033Y-125109999D02*
X220021033Y-125176666D01*
X220021033Y-125176666D02*
X220054366Y-125276666D01*
X220054366Y-125276666D02*
X220087700Y-125309999D01*
X220087700Y-125576666D02*
X220054366Y-125609999D01*
X220054366Y-125609999D02*
X220021033Y-125676666D01*
X220021033Y-125676666D02*
X220021033Y-125843333D01*
X220021033Y-125843333D02*
X220054366Y-125909999D01*
X220054366Y-125909999D02*
X220087700Y-125943333D01*
X220087700Y-125943333D02*
X220154366Y-125976666D01*
X220154366Y-125976666D02*
X220221033Y-125976666D01*
X220221033Y-125976666D02*
X220321033Y-125943333D01*
X220321033Y-125943333D02*
X220721033Y-125543333D01*
X220721033Y-125543333D02*
X220721033Y-125976666D01*
X220087700Y-126243333D02*
X220054366Y-126276666D01*
X220054366Y-126276666D02*
X220021033Y-126343333D01*
X220021033Y-126343333D02*
X220021033Y-126510000D01*
X220021033Y-126510000D02*
X220054366Y-126576666D01*
X220054366Y-126576666D02*
X220087700Y-126610000D01*
X220087700Y-126610000D02*
X220154366Y-126643333D01*
X220154366Y-126643333D02*
X220221033Y-126643333D01*
X220221033Y-126643333D02*
X220321033Y-126610000D01*
X220321033Y-126610000D02*
X220721033Y-126210000D01*
X220721033Y-126210000D02*
X220721033Y-126643333D01*
X218904366Y-125329999D02*
X218937700Y-125296666D01*
X218937700Y-125296666D02*
X218971033Y-125196666D01*
X218971033Y-125196666D02*
X218971033Y-125129999D01*
X218971033Y-125129999D02*
X218937700Y-125029999D01*
X218937700Y-125029999D02*
X218871033Y-124963333D01*
X218871033Y-124963333D02*
X218804366Y-124929999D01*
X218804366Y-124929999D02*
X218671033Y-124896666D01*
X218671033Y-124896666D02*
X218571033Y-124896666D01*
X218571033Y-124896666D02*
X218437700Y-124929999D01*
X218437700Y-124929999D02*
X218371033Y-124963333D01*
X218371033Y-124963333D02*
X218304366Y-125029999D01*
X218304366Y-125029999D02*
X218271033Y-125129999D01*
X218271033Y-125129999D02*
X218271033Y-125196666D01*
X218271033Y-125196666D02*
X218304366Y-125296666D01*
X218304366Y-125296666D02*
X218337700Y-125329999D01*
X218337700Y-125596666D02*
X218304366Y-125629999D01*
X218304366Y-125629999D02*
X218271033Y-125696666D01*
X218271033Y-125696666D02*
X218271033Y-125863333D01*
X218271033Y-125863333D02*
X218304366Y-125929999D01*
X218304366Y-125929999D02*
X218337700Y-125963333D01*
X218337700Y-125963333D02*
X218404366Y-125996666D01*
X218404366Y-125996666D02*
X218471033Y-125996666D01*
X218471033Y-125996666D02*
X218571033Y-125963333D01*
X218571033Y-125963333D02*
X218971033Y-125563333D01*
X218971033Y-125563333D02*
X218971033Y-125996666D01*
X218271033Y-126430000D02*
X218271033Y-126496666D01*
X218271033Y-126496666D02*
X218304366Y-126563333D01*
X218304366Y-126563333D02*
X218337700Y-126596666D01*
X218337700Y-126596666D02*
X218404366Y-126630000D01*
X218404366Y-126630000D02*
X218537700Y-126663333D01*
X218537700Y-126663333D02*
X218704366Y-126663333D01*
X218704366Y-126663333D02*
X218837700Y-126630000D01*
X218837700Y-126630000D02*
X218904366Y-126596666D01*
X218904366Y-126596666D02*
X218937700Y-126563333D01*
X218937700Y-126563333D02*
X218971033Y-126496666D01*
X218971033Y-126496666D02*
X218971033Y-126430000D01*
X218971033Y-126430000D02*
X218937700Y-126363333D01*
X218937700Y-126363333D02*
X218904366Y-126330000D01*
X218904366Y-126330000D02*
X218837700Y-126296666D01*
X218837700Y-126296666D02*
X218704366Y-126263333D01*
X218704366Y-126263333D02*
X218537700Y-126263333D01*
X218537700Y-126263333D02*
X218404366Y-126296666D01*
X218404366Y-126296666D02*
X218337700Y-126330000D01*
X218337700Y-126330000D02*
X218304366Y-126363333D01*
X218304366Y-126363333D02*
X218271033Y-126430000D01*
X222544366Y-125389999D02*
X222577700Y-125356666D01*
X222577700Y-125356666D02*
X222611033Y-125256666D01*
X222611033Y-125256666D02*
X222611033Y-125189999D01*
X222611033Y-125189999D02*
X222577700Y-125089999D01*
X222577700Y-125089999D02*
X222511033Y-125023333D01*
X222511033Y-125023333D02*
X222444366Y-124989999D01*
X222444366Y-124989999D02*
X222311033Y-124956666D01*
X222311033Y-124956666D02*
X222211033Y-124956666D01*
X222211033Y-124956666D02*
X222077700Y-124989999D01*
X222077700Y-124989999D02*
X222011033Y-125023333D01*
X222011033Y-125023333D02*
X221944366Y-125089999D01*
X221944366Y-125089999D02*
X221911033Y-125189999D01*
X221911033Y-125189999D02*
X221911033Y-125256666D01*
X221911033Y-125256666D02*
X221944366Y-125356666D01*
X221944366Y-125356666D02*
X221977700Y-125389999D01*
X221977700Y-125656666D02*
X221944366Y-125689999D01*
X221944366Y-125689999D02*
X221911033Y-125756666D01*
X221911033Y-125756666D02*
X221911033Y-125923333D01*
X221911033Y-125923333D02*
X221944366Y-125989999D01*
X221944366Y-125989999D02*
X221977700Y-126023333D01*
X221977700Y-126023333D02*
X222044366Y-126056666D01*
X222044366Y-126056666D02*
X222111033Y-126056666D01*
X222111033Y-126056666D02*
X222211033Y-126023333D01*
X222211033Y-126023333D02*
X222611033Y-125623333D01*
X222611033Y-125623333D02*
X222611033Y-126056666D01*
X221911033Y-126290000D02*
X221911033Y-126723333D01*
X221911033Y-126723333D02*
X222177700Y-126490000D01*
X222177700Y-126490000D02*
X222177700Y-126590000D01*
X222177700Y-126590000D02*
X222211033Y-126656666D01*
X222211033Y-126656666D02*
X222244366Y-126690000D01*
X222244366Y-126690000D02*
X222311033Y-126723333D01*
X222311033Y-126723333D02*
X222477700Y-126723333D01*
X222477700Y-126723333D02*
X222544366Y-126690000D01*
X222544366Y-126690000D02*
X222577700Y-126656666D01*
X222577700Y-126656666D02*
X222611033Y-126590000D01*
X222611033Y-126590000D02*
X222611033Y-126390000D01*
X222611033Y-126390000D02*
X222577700Y-126323333D01*
X222577700Y-126323333D02*
X222544366Y-126290000D01*
X190184580Y-125027142D02*
X190232200Y-124979523D01*
X190232200Y-124979523D02*
X190279819Y-124836666D01*
X190279819Y-124836666D02*
X190279819Y-124741428D01*
X190279819Y-124741428D02*
X190232200Y-124598571D01*
X190232200Y-124598571D02*
X190136961Y-124503333D01*
X190136961Y-124503333D02*
X190041723Y-124455714D01*
X190041723Y-124455714D02*
X189851247Y-124408095D01*
X189851247Y-124408095D02*
X189708390Y-124408095D01*
X189708390Y-124408095D02*
X189517914Y-124455714D01*
X189517914Y-124455714D02*
X189422676Y-124503333D01*
X189422676Y-124503333D02*
X189327438Y-124598571D01*
X189327438Y-124598571D02*
X189279819Y-124741428D01*
X189279819Y-124741428D02*
X189279819Y-124836666D01*
X189279819Y-124836666D02*
X189327438Y-124979523D01*
X189327438Y-124979523D02*
X189375057Y-125027142D01*
X190279819Y-125979523D02*
X190279819Y-125408095D01*
X190279819Y-125693809D02*
X189279819Y-125693809D01*
X189279819Y-125693809D02*
X189422676Y-125598571D01*
X189422676Y-125598571D02*
X189517914Y-125503333D01*
X189517914Y-125503333D02*
X189565533Y-125408095D01*
X189708390Y-126550952D02*
X189660771Y-126455714D01*
X189660771Y-126455714D02*
X189613152Y-126408095D01*
X189613152Y-126408095D02*
X189517914Y-126360476D01*
X189517914Y-126360476D02*
X189470295Y-126360476D01*
X189470295Y-126360476D02*
X189375057Y-126408095D01*
X189375057Y-126408095D02*
X189327438Y-126455714D01*
X189327438Y-126455714D02*
X189279819Y-126550952D01*
X189279819Y-126550952D02*
X189279819Y-126741428D01*
X189279819Y-126741428D02*
X189327438Y-126836666D01*
X189327438Y-126836666D02*
X189375057Y-126884285D01*
X189375057Y-126884285D02*
X189470295Y-126931904D01*
X189470295Y-126931904D02*
X189517914Y-126931904D01*
X189517914Y-126931904D02*
X189613152Y-126884285D01*
X189613152Y-126884285D02*
X189660771Y-126836666D01*
X189660771Y-126836666D02*
X189708390Y-126741428D01*
X189708390Y-126741428D02*
X189708390Y-126550952D01*
X189708390Y-126550952D02*
X189756009Y-126455714D01*
X189756009Y-126455714D02*
X189803628Y-126408095D01*
X189803628Y-126408095D02*
X189898866Y-126360476D01*
X189898866Y-126360476D02*
X190089342Y-126360476D01*
X190089342Y-126360476D02*
X190184580Y-126408095D01*
X190184580Y-126408095D02*
X190232200Y-126455714D01*
X190232200Y-126455714D02*
X190279819Y-126550952D01*
X190279819Y-126550952D02*
X190279819Y-126741428D01*
X190279819Y-126741428D02*
X190232200Y-126836666D01*
X190232200Y-126836666D02*
X190184580Y-126884285D01*
X190184580Y-126884285D02*
X190089342Y-126931904D01*
X190089342Y-126931904D02*
X189898866Y-126931904D01*
X189898866Y-126931904D02*
X189803628Y-126884285D01*
X189803628Y-126884285D02*
X189756009Y-126836666D01*
X189756009Y-126836666D02*
X189708390Y-126741428D01*
X192014580Y-124887142D02*
X192062200Y-124839523D01*
X192062200Y-124839523D02*
X192109819Y-124696666D01*
X192109819Y-124696666D02*
X192109819Y-124601428D01*
X192109819Y-124601428D02*
X192062200Y-124458571D01*
X192062200Y-124458571D02*
X191966961Y-124363333D01*
X191966961Y-124363333D02*
X191871723Y-124315714D01*
X191871723Y-124315714D02*
X191681247Y-124268095D01*
X191681247Y-124268095D02*
X191538390Y-124268095D01*
X191538390Y-124268095D02*
X191347914Y-124315714D01*
X191347914Y-124315714D02*
X191252676Y-124363333D01*
X191252676Y-124363333D02*
X191157438Y-124458571D01*
X191157438Y-124458571D02*
X191109819Y-124601428D01*
X191109819Y-124601428D02*
X191109819Y-124696666D01*
X191109819Y-124696666D02*
X191157438Y-124839523D01*
X191157438Y-124839523D02*
X191205057Y-124887142D01*
X192109819Y-125839523D02*
X192109819Y-125268095D01*
X192109819Y-125553809D02*
X191109819Y-125553809D01*
X191109819Y-125553809D02*
X191252676Y-125458571D01*
X191252676Y-125458571D02*
X191347914Y-125363333D01*
X191347914Y-125363333D02*
X191395533Y-125268095D01*
X192109819Y-126315714D02*
X192109819Y-126506190D01*
X192109819Y-126506190D02*
X192062200Y-126601428D01*
X192062200Y-126601428D02*
X192014580Y-126649047D01*
X192014580Y-126649047D02*
X191871723Y-126744285D01*
X191871723Y-126744285D02*
X191681247Y-126791904D01*
X191681247Y-126791904D02*
X191300295Y-126791904D01*
X191300295Y-126791904D02*
X191205057Y-126744285D01*
X191205057Y-126744285D02*
X191157438Y-126696666D01*
X191157438Y-126696666D02*
X191109819Y-126601428D01*
X191109819Y-126601428D02*
X191109819Y-126410952D01*
X191109819Y-126410952D02*
X191157438Y-126315714D01*
X191157438Y-126315714D02*
X191205057Y-126268095D01*
X191205057Y-126268095D02*
X191300295Y-126220476D01*
X191300295Y-126220476D02*
X191538390Y-126220476D01*
X191538390Y-126220476D02*
X191633628Y-126268095D01*
X191633628Y-126268095D02*
X191681247Y-126315714D01*
X191681247Y-126315714D02*
X191728866Y-126410952D01*
X191728866Y-126410952D02*
X191728866Y-126601428D01*
X191728866Y-126601428D02*
X191681247Y-126696666D01*
X191681247Y-126696666D02*
X191633628Y-126744285D01*
X191633628Y-126744285D02*
X191538390Y-126791904D01*
X188254580Y-125107142D02*
X188302200Y-125059523D01*
X188302200Y-125059523D02*
X188349819Y-124916666D01*
X188349819Y-124916666D02*
X188349819Y-124821428D01*
X188349819Y-124821428D02*
X188302200Y-124678571D01*
X188302200Y-124678571D02*
X188206961Y-124583333D01*
X188206961Y-124583333D02*
X188111723Y-124535714D01*
X188111723Y-124535714D02*
X187921247Y-124488095D01*
X187921247Y-124488095D02*
X187778390Y-124488095D01*
X187778390Y-124488095D02*
X187587914Y-124535714D01*
X187587914Y-124535714D02*
X187492676Y-124583333D01*
X187492676Y-124583333D02*
X187397438Y-124678571D01*
X187397438Y-124678571D02*
X187349819Y-124821428D01*
X187349819Y-124821428D02*
X187349819Y-124916666D01*
X187349819Y-124916666D02*
X187397438Y-125059523D01*
X187397438Y-125059523D02*
X187445057Y-125107142D01*
X188349819Y-126059523D02*
X188349819Y-125488095D01*
X188349819Y-125773809D02*
X187349819Y-125773809D01*
X187349819Y-125773809D02*
X187492676Y-125678571D01*
X187492676Y-125678571D02*
X187587914Y-125583333D01*
X187587914Y-125583333D02*
X187635533Y-125488095D01*
X187349819Y-126392857D02*
X187349819Y-127059523D01*
X187349819Y-127059523D02*
X188349819Y-126630952D01*
D11*
%TO.C,C8*%
X188387500Y-162949420D02*
X188387500Y-163230580D01*
X187367500Y-162949420D02*
X187367500Y-163230580D01*
%TO.C,C9*%
X190277500Y-162954420D02*
X190277500Y-163235580D01*
X189257500Y-162954420D02*
X189257500Y-163235580D01*
%TO.C,C10*%
X192087500Y-162959420D02*
X192087500Y-163240580D01*
X191067500Y-162959420D02*
X191067500Y-163240580D01*
%TO.C,C11*%
X218997500Y-163520580D02*
X218997500Y-163239420D01*
X217977500Y-163520580D02*
X217977500Y-163239420D01*
%TO.C,C13*%
X220907500Y-163239420D02*
X220907500Y-163520580D01*
X219887500Y-163239420D02*
X219887500Y-163520580D01*
%TO.C,C14*%
X222817500Y-163239420D02*
X222817500Y-163520580D01*
X221797500Y-163239420D02*
X221797500Y-163520580D01*
D12*
%TO.C,D1*%
X224747500Y-161207500D02*
G75*
G02*
X224547500Y-161207500I-100000J0D01*
G01*
X224547500Y-161207500D02*
G75*
G02*
X224747500Y-161207500I100000J0D01*
G01*
D13*
X227047500Y-164237500D02*
X227047500Y-163557500D01*
X226212500Y-164237500D02*
X227047500Y-164237500D01*
X224147500Y-164237500D02*
X224982500Y-164237500D01*
X224147500Y-163557500D02*
X224147500Y-164237500D01*
D12*
%TO.C,D2*%
X225315000Y-126797500D02*
G75*
G02*
X225115000Y-126797500I-100000J0D01*
G01*
X225115000Y-126797500D02*
G75*
G02*
X225315000Y-126797500I100000J0D01*
G01*
D13*
X227615000Y-129827500D02*
X227615000Y-129147500D01*
X226780000Y-129827500D02*
X227615000Y-129827500D01*
X224715000Y-129827500D02*
X225550000Y-129827500D01*
X224715000Y-129147500D02*
X224715000Y-129827500D01*
D14*
%TO.C,P1*%
X213341000Y-98935600D02*
G75*
G02*
X212579000Y-98935600I-381000J0D01*
G01*
X212579000Y-98935600D02*
G75*
G02*
X213341000Y-98935600I381000J0D01*
G01*
%TO.C,P2*%
X213341000Y-109605600D02*
G75*
G02*
X212579000Y-109605600I-381000J0D01*
G01*
X212579000Y-109605600D02*
G75*
G02*
X213341000Y-109605600I381000J0D01*
G01*
%TO.C,P3*%
X213351000Y-87945600D02*
G75*
G02*
X212589000Y-87945600I-381000J0D01*
G01*
X212589000Y-87945600D02*
G75*
G02*
X213351000Y-87945600I381000J0D01*
G01*
%TO.C,P4*%
X213441000Y-76615600D02*
G75*
G02*
X212679000Y-76615600I-381000J0D01*
G01*
X212679000Y-76615600D02*
G75*
G02*
X213441000Y-76615600I381000J0D01*
G01*
D11*
%TO.C,R1*%
X221564758Y-166562500D02*
X221090242Y-166562500D01*
X221564758Y-165517500D02*
X221090242Y-165517500D01*
%TO.C,R2*%
X223992258Y-133012500D02*
X223517742Y-133012500D01*
X223992258Y-131967500D02*
X223517742Y-131967500D01*
%TO.C,C31*%
X235540000Y-124240580D02*
X235540000Y-123959420D01*
X236560000Y-124240580D02*
X236560000Y-123959420D01*
%TO.C,R43*%
X237237500Y-125462742D02*
X237237500Y-125937258D01*
X238282500Y-125462742D02*
X238282500Y-125937258D01*
%TO.C,R44*%
X183642742Y-67527500D02*
X184117258Y-67527500D01*
X183642742Y-68572500D02*
X184117258Y-68572500D01*
%TO.C,R42*%
X183642742Y-69387500D02*
X184117258Y-69387500D01*
X183642742Y-70432500D02*
X184117258Y-70432500D01*
%TO.C,C22*%
X219895000Y-128819420D02*
X219895000Y-129100580D01*
X220915000Y-128819420D02*
X220915000Y-129100580D01*
%TO.C,C20*%
X217985000Y-129100580D02*
X217985000Y-128819420D01*
X219005000Y-129100580D02*
X219005000Y-128819420D01*
%TO.C,C23*%
X221805000Y-128819420D02*
X221805000Y-129100580D01*
X222825000Y-128819420D02*
X222825000Y-129100580D01*
%TO.C,C18*%
X189265000Y-128534420D02*
X189265000Y-128815580D01*
X190285000Y-128534420D02*
X190285000Y-128815580D01*
%TO.C,C19*%
X191075000Y-128539420D02*
X191075000Y-128820580D01*
X192095000Y-128539420D02*
X192095000Y-128820580D01*
%TO.C,C17*%
X187375000Y-128529420D02*
X187375000Y-128810580D01*
X188395000Y-128529420D02*
X188395000Y-128810580D01*
%TD*%
M02*
