M48
; DRILL file {KiCad 9.0.3} date 2025-09-16T10:21:34-0400
; FORMAT={-:-/ absolute / inch / decimal}
; #@! TF.CreationDate,2025-09-16T10:21:34-04:00
; #@! TF.GenerationSoftware,Kicad,Pcbnew,9.0.3
; #@! TF.FileFunction,Plated,1,10,PTH
FMAT,2
INCH
; #@! TA.AperFunction,Plated,PTH,ViaDrill
T1C0.0118
; #@! TA.AperFunction,Plated,PTH,ComponentDrill
T2C0.0409
; #@! TA.AperFunction,Plated,PTH,ComponentDrill
T3C0.0413
; #@! TA.AperFunction,Plated,PTH,ComponentDrill
T4C0.0429
; #@! TA.AperFunction,Plated,PTH,ComponentDrill
T5C0.0512
; #@! TA.AperFunction,Plated,PTH,ComponentDrill
T6C0.0590
; #@! TA.AperFunction,Plated,PTH,ComponentDrill
T7C0.0630
; #@! TA.AperFunction,Plated,PTH,ComponentDrill
T8C0.0650
; #@! TA.AperFunction,Plated,PTH,ComponentDrill
T9C0.0670
; #@! TA.AperFunction,Plated,PTH,ComponentDrill
T10C0.1260
%
G90
G05
T1
X5.2Y-2.4
X5.2Y-2.6
X5.2Y-2.8
X5.2Y-5.0
X5.2Y-6.4
X5.2Y-6.6
X5.2Y-6.8
X5.2Y-7.2
X5.4Y-2.4
X5.4Y-2.6
X5.4Y-2.8
X5.4Y-5.0
X5.4Y-6.4
X5.4Y-6.6
X5.4Y-6.8
X5.4Y-7.2
X5.6Y-2.0
X5.6Y-2.2
X5.6Y-2.4
X5.6Y-2.6
X5.6Y-2.8
X5.6Y-3.0
X5.6Y-3.6
X5.6Y-3.8
X5.6Y-4.2
X5.6Y-4.4
X5.6Y-4.6
X5.6Y-4.8
X5.6Y-5.0
X5.6Y-5.2
X5.6Y-5.4
X5.6Y-5.6
X5.6Y-5.8
X5.6Y-6.0
X5.6Y-6.2
X5.6Y-6.4
X5.6Y-6.6
X5.6Y-6.8
X5.6Y-7.0
X5.6Y-7.2
X5.8Y-2.0
X5.8Y-2.2
X5.8Y-2.4
X5.8Y-2.6
X5.8Y-2.8
X5.8Y-3.0
X5.8Y-3.6
X5.8Y-3.8
X5.8Y-4.2
X5.8Y-4.4
X5.8Y-4.6
X5.8Y-4.8
X5.8Y-5.0
X5.8Y-5.2
X5.8Y-5.4
X5.8Y-5.6
X5.8Y-5.8
X5.8Y-6.0
X5.8Y-6.2
X5.8Y-6.4
X5.8Y-6.6
X5.8Y-6.8
X5.8Y-7.0
X5.8Y-7.2
X5.9323Y-3.1915
X5.9441Y-3.9915
X5.9569Y-5.1421
X5.9569Y-5.1921
X5.9569Y-5.2421
X5.9593Y-4.8911
X5.9593Y-4.9411
X5.9593Y-4.9911
X5.9605Y-6.4972
X5.9605Y-6.5472
X5.9605Y-6.5972
X5.9637Y-6.2528
X5.9637Y-6.3028
X5.9637Y-6.3528
X5.9937Y-3.0362
X6.0Y-2.0
X6.0Y-2.2
X6.0Y-2.4
X6.0Y-2.6
X6.0Y-2.8
X6.0Y-4.2
X6.0Y-4.4
X6.0Y-4.6
X6.0Y-4.8
X6.0Y-5.4
X6.0Y-5.6
X6.0Y-5.8
X6.0Y-6.0
X6.0Y-7.0
X6.0Y-7.2
X6.0069Y-5.1421
X6.0069Y-5.1921
X6.0069Y-5.2421
X6.0093Y-4.8911
X6.0093Y-4.9411
X6.0093Y-4.9911
X6.0105Y-6.4972
X6.0105Y-6.5472
X6.0105Y-6.5972
X6.0137Y-6.2528
X6.0137Y-6.3028
X6.0137Y-6.3528
X6.0339Y-3.7144
X6.0569Y-5.1421
X6.0569Y-5.1921
X6.0569Y-5.2421
X6.0593Y-4.8911
X6.0593Y-4.9411
X6.0593Y-4.9911
X6.0605Y-6.4972
X6.0605Y-6.5472
X6.0605Y-6.5972
X6.0637Y-6.2528
X6.0637Y-6.3028
X6.0637Y-6.3528
X6.1069Y-5.1421
X6.1069Y-5.1921
X6.1069Y-5.2421
X6.1093Y-4.8911
X6.1093Y-4.9411
X6.1093Y-4.9911
X6.1105Y-6.4972
X6.1105Y-6.5472
X6.1105Y-6.5972
X6.1137Y-6.2528
X6.1137Y-6.3028
X6.1137Y-6.3528
X6.126Y-3.5341
X6.1677Y-3.7766
X6.2Y-2.6
X6.2Y-2.8
X6.2Y-4.4
X6.2Y-4.6
X6.2Y-4.8
X6.2Y-5.4
X6.2Y-5.6
X6.2Y-5.8
X6.2Y-6.0
X6.2Y-6.2
X6.2Y-6.4
X6.2Y-6.8
X6.2Y-7.0
X6.2Y-7.2
X6.2587Y-3.0372
X6.2587Y-3.4726
X6.2953Y-4.1961
X6.3Y-5.1236
X6.3055Y-4.752
X6.3709Y-3.7281
X6.4Y-2.6
X6.4Y-2.8
X6.4Y-3.0
X6.4Y-3.2
X6.4Y-3.4
X6.4Y-3.6
X6.4Y-4.2
X6.4Y-4.4
X6.4Y-4.6
X6.4Y-4.8
X6.4Y-5.4
X6.4Y-5.6
X6.4Y-5.8
X6.4Y-6.0
X6.4Y-6.2
X6.4Y-6.4
X6.4Y-6.8
X6.4Y-7.2
X6.4531Y-3.015
X6.4839Y-3.6654
X6.4839Y-4.0134
X6.5835Y-3.4724
X6.5835Y-3.9713
X6.6Y-4.8
X6.6Y-5.4
X6.6Y-5.6
X6.6Y-5.8
X6.6Y-6.0
X6.6Y-6.2
X6.6Y-6.8
X6.6Y-7.2
X6.6354Y-4.2106
X6.6366Y-3.0146
X6.6366Y-4.0205
X6.7618Y-2.9177
X6.7839Y-2.7705
X6.7839Y-2.8524
X6.787Y-4.752
X6.8Y-3.2
X6.8Y-3.4
X6.8Y-3.6
X6.8Y-3.8
X6.8Y-4.2
X6.8Y-4.4
X6.8Y-5.4
X6.8Y-5.6
X6.8Y-5.8
X6.8Y-6.0
X6.8Y-6.4
X6.8Y-6.8
X6.8Y-7.2
X6.8413Y-4.6264
X6.8626Y-3.615
X6.9035Y-3.1197
X6.9539Y-3.3764
X6.9856Y-3.1724
X7.0Y-2.8
X7.0Y-3.0
X7.0Y-3.8
X7.0Y-4.6
X7.0Y-5.6
X7.0Y-5.8
X7.0Y-6.0
X7.0Y-6.8
X7.0Y-7.0
X7.0Y-7.2
X7.0177Y-4.2374
X7.0177Y-4.4114
X7.0563Y-3.5661
X7.0565Y-3.1724
X7.0921Y-4.2374
X7.0921Y-4.4114
X7.1352Y-3.3764
X7.1354Y-2.8528
X7.1354Y-3.0075
X7.1354Y-4.1386
X7.176Y-4.4697
X7.2Y-3.8
X7.2Y-4.6
X7.2Y-6.0
X7.2Y-6.8
X7.2Y-7.2
X7.2197Y-3.9287
X7.2793Y-3.4264
X7.2827Y-4.6398
X7.2831Y-4.6929
X7.3331Y-2.9177
X7.3339Y-3.7445
X7.3622Y-2.6791
X7.3629Y-2.7514
X7.388Y-3.326
X7.4Y-3.0
X7.4Y-6.0
X7.4Y-6.2
X7.4Y-6.8
X7.4Y-7.2
X7.428Y-3.9437
X7.4441Y-4.5496
X7.4598Y-3.6654
X7.5039Y-4.7807
X7.5317Y-3.376
X7.5803Y-4.5205
X7.6Y-2.0
X7.6Y-2.2
X7.6Y-2.4
X7.6Y-2.8
X7.6Y-3.0
X7.6Y-5.8
X7.6Y-7.0
X7.6Y-7.2
X7.6057Y-3.1661
X7.6139Y-3.5878
X7.6429Y-3.8297
X7.6876Y-3.5874
X7.723Y-3.376
X7.8Y-2.0
X7.8Y-2.2
X7.8Y-2.4
X7.8Y-2.8
X7.8Y-3.0
X7.8Y-3.4
X7.8Y-3.6
X7.8Y-4.0
X7.8Y-4.2
X7.8Y-4.4
X7.8Y-5.8
X7.8Y-7.0
X7.8Y-7.2
X7.8258Y-3.1768
X8.0Y-2.0
X8.0Y-2.2
X8.0Y-2.4
X8.0Y-2.8
X8.0Y-3.0
X8.0Y-3.4
X8.0Y-3.6
X8.0Y-3.8
X8.0Y-4.0
X8.0Y-4.2
X8.0Y-4.4
X8.0Y-5.8
X8.0Y-7.0
X8.0Y-7.2
X8.0079Y-3.2484
X8.0094Y-3.6815
X8.2Y-2.0
X8.2Y-2.2
X8.2Y-2.4
X8.2Y-4.4
X8.2Y-5.8
X8.2Y-7.0
X8.2Y-7.2
X8.4Y-2.0
X8.4Y-2.2
X8.4Y-2.4
X8.4Y-4.4
X8.4Y-7.0
X8.4Y-7.2
X8.4268Y-5.8437
X8.4283Y-5.68
X8.6Y-2.0
X8.6Y-2.2
X8.6Y-2.4
X8.6Y-2.8
X8.6Y-3.0
X8.6Y-3.2
X8.6Y-3.4
X8.6Y-3.6
X8.6Y-3.8
X8.6Y-4.0
X8.6Y-4.4
X8.6Y-4.6
X8.6Y-5.4
X8.6Y-5.6
X8.6Y-5.8
X8.6Y-6.0
X8.6Y-7.0
X8.6Y-7.2
X8.8Y-2.0
X8.8Y-2.2
X8.8Y-2.4
X8.8Y-2.8
X8.8Y-3.0
X8.8Y-3.2
X8.8Y-3.4
X8.8Y-3.6
X8.8Y-3.8
X8.8Y-4.0
X8.8Y-4.4
X8.8Y-4.6
X8.8Y-5.4
X8.8Y-5.6
X8.8Y-6.0
X8.8Y-6.2
X8.8Y-7.0
X8.8Y-7.2
X8.9488Y-6.5839
X8.9594Y-6.1461
X8.9835Y-4.4697
X9.0Y-2.0
X9.0Y-2.2
X9.0Y-2.4
X9.0Y-2.8
X9.0Y-3.0
X9.0Y-3.2
X9.0Y-3.4
X9.0Y-3.6
X9.0Y-3.8
X9.0Y-4.0
X9.0Y-4.4
X9.0Y-6.8
X9.0Y-7.0
X9.0Y-7.2
X9.0819Y-5.2551
X9.2Y-2.0
X9.2Y-2.2
X9.2Y-2.4
X9.2Y-2.8
X9.2Y-3.0
X9.2Y-3.2
X9.2Y-3.4
X9.2Y-3.6
X9.2Y-3.8
X9.2Y-4.0
X9.2Y-5.4
X9.2Y-5.6
X9.2Y-5.8
X9.2Y-6.8
X9.2Y-7.0
X9.2Y-7.2
X9.2452Y-6.7267
X9.2933Y-4.7882
X9.313Y-5.9689
X9.313Y-6.0299
X9.3197Y-5.6949
X9.351Y-6.1726
X9.3575Y-5.2748
X9.3598Y-5.2335
X9.361Y-4.8508
X9.3681Y-2.5965
X9.3992Y-5.3417
X9.4Y-2.0
X9.4Y-2.2
X9.4Y-2.4
X9.4Y-4.4
X9.4Y-4.8
X9.4Y-5.4
X9.4Y-5.6
X9.4Y-6.8
X9.4Y-7.0
X9.4Y-7.2
X9.511Y-5.7559
X9.5205Y-2.7492
X9.5827Y-5.2752
X9.5827Y-5.9043
X9.5858Y-4.1925
X9.5941Y-5.9965
X9.6Y-2.0
X9.6Y-2.2
X9.6Y-2.4
X9.6Y-2.6
X9.6Y-2.8
X9.6Y-3.0
X9.6Y-3.2
X9.6Y-3.4
X9.6Y-3.6
X9.6Y-3.8
X9.6Y-4.0
X9.6Y-6.4
X9.6Y-6.6
X9.6Y-6.8
X9.6Y-7.0
X9.6Y-7.2
X9.8Y-2.0
X9.8Y-2.4
X9.8Y-2.6
X9.8Y-2.8
X9.8Y-3.0
X9.8Y-3.2
X9.8Y-3.4
X9.8Y-3.6
X9.8Y-3.8
X9.8Y-4.0
X9.8Y-4.2
X9.8Y-5.6
X9.8Y-5.8
X9.8Y-6.4
X9.8Y-6.6
X9.8Y-6.8
X9.8Y-7.2
T2
X5.3224Y-5.589
X5.3224Y-5.698
X5.3224Y-5.8071
X5.3224Y-5.9161
X5.4343Y-5.5344
X5.4343Y-5.6435
X5.4343Y-5.7526
X5.4343Y-5.8616
X5.4343Y-5.9707
T3
X6.5862Y-2.3547
X6.6313Y-2.2547
X6.6313Y-2.4547
X6.6763Y-2.3547
X6.7214Y-2.2547
X6.7214Y-2.4547
X6.7665Y-2.3547
X6.8116Y-2.2547
X6.8116Y-2.4547
X6.8567Y-2.3547
X6.9017Y-2.2547
X6.9017Y-2.4547
X6.9468Y-2.3547
X6.9919Y-2.2547
X6.9919Y-2.4547
T4
X5.3186Y-3.4226
X5.3186Y-3.5317
X5.3186Y-3.6407
X5.3186Y-3.7498
X5.4304Y-3.3681
X5.4304Y-3.4772
X5.4304Y-3.5862
X5.4304Y-3.6953
X5.4304Y-3.8043
T5
X7.6531Y-6.0311
X7.6531Y-6.3303
X7.6531Y-6.5311
X7.6533Y-4.676
X7.6533Y-4.9752
X7.6533Y-5.176
X8.4523Y-6.0311
X8.4523Y-6.4327
X8.4523Y-6.8343
X8.4526Y-4.676
X8.4526Y-5.0776
X8.4526Y-5.4791
T6
X9.8425Y-5.1094
X9.8425Y-6.1461
T7
X5.6898Y-3.2677
X5.6965Y-3.9618
X6.1059Y-5.5075
X6.1059Y-5.8913
X6.5098Y-3.3091
X6.7201Y-4.4902
X8.7988Y-5.7933
T8
X8.3843Y-3.6811
X8.3843Y-4.1012
X8.3846Y-3.2484
X8.3882Y-2.8024
T9
X9.7425Y-5.0094
X9.7425Y-5.2094
X9.7425Y-6.0461
X9.7425Y-6.2461
X9.9425Y-5.0094
X9.9425Y-5.2094
X9.9425Y-6.0461
X9.9425Y-6.2461
T10
X5.315Y-2.2047
X5.315Y-4.6457
X5.315Y-7.0079
X5.3745Y-3.0941
X5.3745Y-4.0783
X5.3783Y-5.2604
X5.3783Y-6.2447
X6.3096Y-2.3547
X7.2835Y-5.748
X7.2835Y-7.0079
X7.2935Y-2.3547
X9.8031Y-2.2047
X9.8031Y-4.6457
X9.8031Y-7.0079
M30
