%TF.GenerationSoftware,KiCad,Pcbnew,9.0.3*%
%TF.CreationDate,2025-09-17T10:51:31-04:00*%
%TF.ProjectId,4_COLD_TPC_SiPM_Pre_Amp,345f434f-4c44-45f5-9450-435f5369504d,rev?*%
%TF.SameCoordinates,Original*%
%TF.FileFunction,Other,User*%
%FSLAX46Y46*%
G04 Gerber Fmt 4.6, Leading zero omitted, Abs format (unit mm)*
G04 Created by KiCad (PCBNEW 9.0.3) date 2025-09-17 10:51:31*
%MOMM*%
%LPD*%
G01*
G04 APERTURE LIST*
%ADD10C,0.050000*%
G04 APERTURE END LIST*
D10*
%TO.C,C8*%
X188607500Y-164570000D02*
X187147500Y-164570000D01*
X188607500Y-161610000D02*
X188607500Y-164570000D01*
X187147500Y-164570000D02*
X187147500Y-161610000D01*
X187147500Y-161610000D02*
X188607500Y-161610000D01*
%TO.C,C9*%
X190497500Y-164575000D02*
X189037500Y-164575000D01*
X190497500Y-161615000D02*
X190497500Y-164575000D01*
X189037500Y-164575000D02*
X189037500Y-161615000D01*
X189037500Y-161615000D02*
X190497500Y-161615000D01*
%TO.C,C10*%
X192307500Y-164580000D02*
X190847500Y-164580000D01*
X192307500Y-161620000D02*
X192307500Y-164580000D01*
X190847500Y-164580000D02*
X190847500Y-161620000D01*
X190847500Y-161620000D02*
X192307500Y-161620000D01*
%TO.C,C11*%
X219217500Y-164860000D02*
X217757500Y-164860000D01*
X219217500Y-161900000D02*
X219217500Y-164860000D01*
X217757500Y-164860000D02*
X217757500Y-161900000D01*
X217757500Y-161900000D02*
X219217500Y-161900000D01*
%TO.C,C13*%
X221127500Y-164860000D02*
X219667500Y-164860000D01*
X221127500Y-161900000D02*
X221127500Y-164860000D01*
X219667500Y-164860000D02*
X219667500Y-161900000D01*
X219667500Y-161900000D02*
X221127500Y-161900000D01*
%TO.C,C14*%
X223037500Y-164860000D02*
X221577500Y-164860000D01*
X223037500Y-161900000D02*
X223037500Y-164860000D01*
X221577500Y-164860000D02*
X221577500Y-161900000D01*
X221577500Y-161900000D02*
X223037500Y-161900000D01*
%TO.C,D1*%
X227297500Y-165447500D02*
X227297500Y-161727500D01*
X227297500Y-161727500D02*
X223897500Y-161727500D01*
X223897500Y-165447500D02*
X227297500Y-165447500D01*
X223897500Y-161727500D02*
X223897500Y-165447500D01*
%TO.C,D2*%
X227865000Y-131037500D02*
X227865000Y-127317500D01*
X227865000Y-127317500D02*
X224465000Y-127317500D01*
X224465000Y-131037500D02*
X227865000Y-131037500D01*
X224465000Y-127317500D02*
X224465000Y-131037500D01*
%TO.C,R1*%
X222807500Y-166770000D02*
X219847500Y-166770000D01*
X222807500Y-165310000D02*
X222807500Y-166770000D01*
X219847500Y-166770000D02*
X219847500Y-165310000D01*
X219847500Y-165310000D02*
X222807500Y-165310000D01*
%TO.C,R2*%
X225235000Y-133220000D02*
X222275000Y-133220000D01*
X225235000Y-131760000D02*
X225235000Y-133220000D01*
X222275000Y-133220000D02*
X222275000Y-131760000D01*
X222275000Y-131760000D02*
X225235000Y-131760000D01*
%TO.C,C31*%
X235320000Y-122620000D02*
X236780000Y-122620000D01*
X235320000Y-125580000D02*
X235320000Y-122620000D01*
X236780000Y-122620000D02*
X236780000Y-125580000D01*
X236780000Y-125580000D02*
X235320000Y-125580000D01*
%TO.C,R43*%
X237030000Y-124220000D02*
X238490000Y-124220000D01*
X237030000Y-127180000D02*
X237030000Y-124220000D01*
X238490000Y-124220000D02*
X238490000Y-127180000D01*
X238490000Y-127180000D02*
X237030000Y-127180000D01*
%TO.C,R44*%
X182400000Y-67320000D02*
X185360000Y-67320000D01*
X182400000Y-68780000D02*
X182400000Y-67320000D01*
X185360000Y-67320000D02*
X185360000Y-68780000D01*
X185360000Y-68780000D02*
X182400000Y-68780000D01*
%TO.C,R42*%
X182400000Y-69180000D02*
X185360000Y-69180000D01*
X182400000Y-70640000D02*
X182400000Y-69180000D01*
X185360000Y-69180000D02*
X185360000Y-70640000D01*
X185360000Y-70640000D02*
X182400000Y-70640000D01*
%TO.C,C22*%
X219675000Y-127480000D02*
X221135000Y-127480000D01*
X219675000Y-130440000D02*
X219675000Y-127480000D01*
X221135000Y-127480000D02*
X221135000Y-130440000D01*
X221135000Y-130440000D02*
X219675000Y-130440000D01*
%TO.C,C20*%
X217765000Y-127480000D02*
X219225000Y-127480000D01*
X217765000Y-130440000D02*
X217765000Y-127480000D01*
X219225000Y-127480000D02*
X219225000Y-130440000D01*
X219225000Y-130440000D02*
X217765000Y-130440000D01*
%TO.C,C23*%
X221585000Y-127480000D02*
X223045000Y-127480000D01*
X221585000Y-130440000D02*
X221585000Y-127480000D01*
X223045000Y-127480000D02*
X223045000Y-130440000D01*
X223045000Y-130440000D02*
X221585000Y-130440000D01*
%TO.C,C18*%
X189045000Y-127195000D02*
X190505000Y-127195000D01*
X189045000Y-130155000D02*
X189045000Y-127195000D01*
X190505000Y-127195000D02*
X190505000Y-130155000D01*
X190505000Y-130155000D02*
X189045000Y-130155000D01*
%TO.C,C19*%
X190855000Y-127200000D02*
X192315000Y-127200000D01*
X190855000Y-130160000D02*
X190855000Y-127200000D01*
X192315000Y-127200000D02*
X192315000Y-130160000D01*
X192315000Y-130160000D02*
X190855000Y-130160000D01*
%TO.C,C17*%
X187155000Y-127190000D02*
X188615000Y-127190000D01*
X187155000Y-130150000D02*
X187155000Y-127190000D01*
X188615000Y-127190000D02*
X188615000Y-130150000D01*
X188615000Y-130150000D02*
X187155000Y-130150000D01*
%TD*%
M02*
