%TF.GenerationSoftware,KiCad,Pcbnew,8.0.6*%
%TF.CreationDate,2025-06-02T15:06:51-04:00*%
%TF.ProjectId,CAEN_NEVIS_DAQ_PM5V,4341454e-5f4e-4455-9649-535f4441515f,rev?*%
%TF.SameCoordinates,Original*%
%TF.FileFunction,Paste,Bot*%
%TF.FilePolarity,Positive*%
%FSLAX46Y46*%
G04 Gerber Fmt 4.6, Leading zero omitted, Abs format (unit mm)*
G04 Created by KiCad (PCBNEW 8.0.6) date 2025-06-02 15:06:51*
%MOMM*%
%LPD*%
G01*
G04 APERTURE LIST*
G04 Aperture macros list*
%AMRoundRect*
0 Rectangle with rounded corners*
0 $1 Rounding radius*
0 $2 $3 $4 $5 $6 $7 $8 $9 X,Y pos of 4 corners*
0 Add a 4 corners polygon primitive as box body*
4,1,4,$2,$3,$4,$5,$6,$7,$8,$9,$2,$3,0*
0 Add four circle primitives for the rounded corners*
1,1,$1+$1,$2,$3*
1,1,$1+$1,$4,$5*
1,1,$1+$1,$6,$7*
1,1,$1+$1,$8,$9*
0 Add four rect primitives between the rounded corners*
20,1,$1+$1,$2,$3,$4,$5,0*
20,1,$1+$1,$4,$5,$6,$7,0*
20,1,$1+$1,$6,$7,$8,$9,0*
20,1,$1+$1,$8,$9,$2,$3,0*%
G04 Aperture macros list end*
%ADD10RoundRect,0.250000X-0.475000X0.250000X-0.475000X-0.250000X0.475000X-0.250000X0.475000X0.250000X0*%
%ADD11RoundRect,0.225000X0.250000X-0.225000X0.250000X0.225000X-0.250000X0.225000X-0.250000X-0.225000X0*%
%ADD12RoundRect,0.200000X0.275000X-0.200000X0.275000X0.200000X-0.275000X0.200000X-0.275000X-0.200000X0*%
%ADD13RoundRect,0.250000X0.450000X-0.262500X0.450000X0.262500X-0.450000X0.262500X-0.450000X-0.262500X0*%
%ADD14RoundRect,0.140000X0.170000X-0.140000X0.170000X0.140000X-0.170000X0.140000X-0.170000X-0.140000X0*%
%ADD15RoundRect,0.225000X-0.250000X0.225000X-0.250000X-0.225000X0.250000X-0.225000X0.250000X0.225000X0*%
%ADD16RoundRect,0.225000X-0.225000X-0.250000X0.225000X-0.250000X0.225000X0.250000X-0.225000X0.250000X0*%
%ADD17RoundRect,0.250000X-0.275000X0.312500X-0.275000X-0.312500X0.275000X-0.312500X0.275000X0.312500X0*%
%ADD18R,1.219200X0.457200*%
%ADD19O,1.219200X0.457200*%
%ADD20RoundRect,0.200000X0.200000X0.275000X-0.200000X0.275000X-0.200000X-0.275000X0.200000X-0.275000X0*%
%ADD21R,1.981200X0.558800*%
%ADD22RoundRect,0.075000X0.910000X0.225000X-0.910000X0.225000X-0.910000X-0.225000X0.910000X-0.225000X0*%
%ADD23RoundRect,0.250000X0.450000X0.425000X-0.450000X0.425000X-0.450000X-0.425000X0.450000X-0.425000X0*%
%ADD24R,0.889000X1.016000*%
%ADD25R,3.200000X1.000000*%
G04 APERTURE END LIST*
D10*
%TO.C,C20*%
X185905000Y-133360000D03*
X185905000Y-135260000D03*
%TD*%
D11*
%TO.C,C32*%
X185755000Y-208195000D03*
X185755000Y-206645000D03*
%TD*%
%TO.C,C33*%
X187655000Y-208195000D03*
X187655000Y-206645000D03*
%TD*%
D12*
%TO.C,R5*%
X156110000Y-192055000D03*
X156110000Y-190405000D03*
%TD*%
D11*
%TO.C,C35*%
X215845000Y-208410000D03*
X215845000Y-206860000D03*
%TD*%
D13*
%TO.C,R13*%
X219496250Y-247292499D03*
X219496250Y-245467499D03*
%TD*%
D10*
%TO.C,C22*%
X191135000Y-133340000D03*
X191135000Y-135240000D03*
%TD*%
D14*
%TO.C,C49*%
X255880000Y-65740000D03*
X255880000Y-64780000D03*
%TD*%
D11*
%TO.C,C34*%
X213915000Y-208405000D03*
X213915000Y-206855000D03*
%TD*%
D15*
%TO.C,C53*%
X258540000Y-69495000D03*
X258540000Y-71045000D03*
%TD*%
D10*
%TO.C,C25*%
X254615000Y-133350000D03*
X254615000Y-135250000D03*
%TD*%
%TO.C,C21*%
X188555000Y-133360000D03*
X188555000Y-135260000D03*
%TD*%
%TO.C,C15*%
X255175000Y-59827500D03*
X255175000Y-61727500D03*
%TD*%
D11*
%TO.C,C41*%
X185356250Y-246925001D03*
X185356250Y-245375001D03*
%TD*%
%TO.C,C40*%
X183436250Y-246925001D03*
X183436250Y-245375001D03*
%TD*%
D16*
%TO.C,C64*%
X219715000Y-198980000D03*
X221265000Y-198980000D03*
%TD*%
D10*
%TO.C,C24*%
X251995000Y-133350000D03*
X251995000Y-135250000D03*
%TD*%
D17*
%TO.C,C1*%
X148660000Y-197962500D03*
X148660000Y-199737500D03*
%TD*%
D13*
%TO.C,R12*%
X219895000Y-208562500D03*
X219895000Y-206737500D03*
%TD*%
D18*
%TO.C,U11*%
X235670000Y-196260001D03*
D19*
X235670000Y-195310000D03*
X235670000Y-194359999D03*
X238290000Y-194359999D03*
X238290000Y-196260001D03*
%TD*%
D10*
%TO.C,C11*%
X189115000Y-59837500D03*
X189115000Y-61737500D03*
%TD*%
D14*
%TO.C,C50*%
X254680000Y-65740000D03*
X254680000Y-64780000D03*
%TD*%
%TO.C,C58*%
X240860000Y-196270000D03*
X240860000Y-195310000D03*
%TD*%
D15*
%TO.C,R21*%
X256690000Y-69485000D03*
X256690000Y-71035000D03*
%TD*%
D20*
%TO.C,R6*%
X146535000Y-185780000D03*
X144885000Y-185780000D03*
%TD*%
D11*
%TO.C,C2*%
X157950000Y-192005000D03*
X157950000Y-190455000D03*
%TD*%
%TO.C,C43*%
X213516250Y-247135000D03*
X213516250Y-245585000D03*
%TD*%
%TO.C,C45*%
X217376250Y-247144999D03*
X217376250Y-245594999D03*
%TD*%
%TO.C,R25*%
X233330000Y-191185000D03*
X233330000Y-189635000D03*
%TD*%
%TO.C,C36*%
X217775000Y-208415000D03*
X217775000Y-206865000D03*
%TD*%
D21*
%TO.C,U10*%
X230823800Y-191815000D03*
X230823800Y-193085000D03*
X230823800Y-194355000D03*
X230823800Y-195625000D03*
X225896200Y-195625000D03*
X225896200Y-194355000D03*
X225896200Y-193085000D03*
X225896200Y-191815000D03*
%TD*%
D22*
%TO.C,U8*%
X263980000Y-63365000D03*
X263980000Y-64635000D03*
X263980000Y-65905000D03*
X263980000Y-67175000D03*
X259040000Y-67175000D03*
X259040000Y-65905000D03*
X259040000Y-64635000D03*
X259040000Y-63365000D03*
%TD*%
D14*
%TO.C,C57*%
X242120000Y-196290000D03*
X242120000Y-195330000D03*
%TD*%
D10*
%TO.C,C14*%
X252555000Y-59827500D03*
X252555000Y-61727500D03*
%TD*%
D23*
%TO.C,C3*%
X146917500Y-187840000D03*
X144217500Y-187840000D03*
%TD*%
D10*
%TO.C,C12*%
X191695000Y-59817500D03*
X191695000Y-61717500D03*
%TD*%
D16*
%TO.C,R37*%
X221285000Y-197160000D03*
X222835000Y-197160000D03*
%TD*%
D11*
%TO.C,C44*%
X215446250Y-247139999D03*
X215446250Y-245589999D03*
%TD*%
D10*
%TO.C,C23*%
X249565000Y-133380000D03*
X249565000Y-135280000D03*
%TD*%
%TO.C,C10*%
X186465000Y-59837500D03*
X186465000Y-61737500D03*
%TD*%
%TO.C,C13*%
X250125000Y-59857500D03*
X250125000Y-61757500D03*
%TD*%
D24*
%TO.C,U1*%
X153259900Y-194832500D03*
X150948500Y-194832500D03*
X148637100Y-194832500D03*
D25*
X150948500Y-187840000D03*
%TD*%
D11*
%TO.C,C31*%
X183835000Y-208195000D03*
X183835000Y-206645000D03*
%TD*%
%TO.C,C42*%
X187256250Y-246925001D03*
X187256250Y-245375001D03*
%TD*%
M02*
