%TF.GenerationSoftware,KiCad,Pcbnew,8.0.6*%
%TF.CreationDate,2025-06-02T15:06:45-04:00*%
%TF.ProjectId,CAEN_NEVIS_DAQ_PM5V,4341454e-5f4e-4455-9649-535f4441515f,rev?*%
%TF.SameCoordinates,Original*%
%TF.FileFunction,Drillmap*%
%TF.FilePolarity,Positive*%
%FSLAX45Y45*%
G04 Gerber Fmt 4.5, Leading zero omitted, Abs format (unit mm)*
G04 Created by KiCad (PCBNEW 8.0.6) date 2025-06-02 15:06:45*
%MOMM*%
%LPD*%
G01*
G04 APERTURE LIST*
%ADD10C,0.050000*%
%ADD11C,0.200000*%
%ADD12C,0.129540*%
%ADD13C,0.100000*%
%ADD14C,0.350000*%
G04 APERTURE END LIST*
D10*
X11876500Y-2617500D02*
G75*
G02*
X12257500Y-2236500I381000J0D01*
G01*
X11876500Y-26430000D02*
X11876500Y-2617500D01*
X12257500Y-2236500D02*
X28005500Y-2236500D01*
X28386500Y-2617500D02*
X28386500Y-24334500D01*
X28386500Y-25096500D02*
X28386500Y-26430000D01*
X28005500Y-2236500D02*
G75*
G02*
X28386500Y-2617500I0J-381000D01*
G01*
X28386500Y-24334500D02*
X28386500Y-25096500D01*
X28386500Y-26430000D02*
G75*
G02*
X28005500Y-26811000I-381000J0D01*
G01*
X12257500Y-26811000D02*
G75*
G02*
X11876500Y-26430000I0J381000D01*
G01*
X28005500Y-26811000D02*
X12257500Y-26811000D01*
D11*
D12*
X25979230Y-22765230D02*
X26108770Y-22894770D01*
X26108770Y-22765230D02*
X25979230Y-22894770D01*
D13*
X25908770Y-22894770D02*
X26179230Y-22894770D01*
X26179230Y-22765230D02*
G75*
G02*
X26179230Y-22894770I0J-64770D01*
G01*
X26179230Y-22765230D02*
X25908770Y-22765230D01*
X25908770Y-22765230D02*
G75*
G03*
X25908770Y-22894770I0J-64770D01*
G01*
D12*
X25979230Y-23497230D02*
X26108770Y-23626770D01*
X26108770Y-23497230D02*
X25979230Y-23626770D01*
D13*
X25908770Y-23626770D02*
X26179230Y-23626770D01*
X26179230Y-23497230D02*
G75*
G02*
X26179230Y-23626770I0J-64770D01*
G01*
X26179230Y-23497230D02*
X25908770Y-23497230D01*
X25908770Y-23497230D02*
G75*
G03*
X25908770Y-23626770I0J-64770D01*
G01*
D12*
X25987230Y-24277230D02*
X26116770Y-24406770D01*
X26116770Y-24277230D02*
X25987230Y-24406770D01*
D13*
X25916770Y-24406770D02*
X26187230Y-24406770D01*
X26187230Y-24277230D02*
G75*
G02*
X26187230Y-24406770I0J-64770D01*
G01*
X26187230Y-24277230D02*
X25916770Y-24277230D01*
X25916770Y-24277230D02*
G75*
G03*
X25916770Y-24406770I0J-64770D01*
G01*
D12*
X25987230Y-25009230D02*
X26116770Y-25138770D01*
X26116770Y-25009230D02*
X25987230Y-25138770D01*
D13*
X25916770Y-25138770D02*
X26187230Y-25138770D01*
X26187230Y-25009230D02*
G75*
G02*
X26187230Y-25138770I0J-64770D01*
G01*
X26187230Y-25009230D02*
X25916770Y-25009230D01*
X25916770Y-25009230D02*
G75*
G03*
X25916770Y-25138770I0J-64770D01*
G01*
D12*
X26015230Y-19632230D02*
X26144770Y-19761770D01*
X26144770Y-19632230D02*
X26015230Y-19761770D01*
D13*
X25944770Y-19761770D02*
X26215230Y-19761770D01*
X26215230Y-19632230D02*
G75*
G02*
X26215230Y-19761770I0J-64770D01*
G01*
X26215230Y-19632230D02*
X25944770Y-19632230D01*
X25944770Y-19632230D02*
G75*
G03*
X25944770Y-19761770I0J-64770D01*
G01*
D12*
X26015230Y-20364230D02*
X26144770Y-20493770D01*
X26144770Y-20364230D02*
X26015230Y-20493770D01*
D13*
X25944770Y-20493770D02*
X26215230Y-20493770D01*
X26215230Y-20364230D02*
G75*
G02*
X26215230Y-20493770I0J-64770D01*
G01*
X26215230Y-20364230D02*
X25944770Y-20364230D01*
X25944770Y-20364230D02*
G75*
G03*
X25944770Y-20493770I0J-64770D01*
G01*
D12*
X26021230Y-21147230D02*
X26150770Y-21276770D01*
X26150770Y-21147230D02*
X26021230Y-21276770D01*
D13*
X25950770Y-21276770D02*
X26221230Y-21276770D01*
X26221230Y-21147230D02*
G75*
G02*
X26221230Y-21276770I0J-64770D01*
G01*
X26221230Y-21147230D02*
X25950770Y-21147230D01*
X25950770Y-21147230D02*
G75*
G03*
X25950770Y-21276770I0J-64770D01*
G01*
D12*
X26021230Y-21879230D02*
X26150770Y-22008770D01*
X26150770Y-21879230D02*
X26021230Y-22008770D01*
D13*
X25950770Y-22008770D02*
X26221230Y-22008770D01*
X26221230Y-21879230D02*
G75*
G02*
X26221230Y-22008770I0J-64770D01*
G01*
X26221230Y-21879230D02*
X25950770Y-21879230D01*
X25950770Y-21879230D02*
G75*
G03*
X25950770Y-22008770I0J-64770D01*
G01*
D14*
X19798500Y-10892000D02*
G75*
G02*
X19448500Y-10892000I-175000J0D01*
G01*
X19448500Y-10892000D02*
G75*
G02*
X19798500Y-10892000I175000J0D01*
G01*
X19798500Y-15972000D02*
G75*
G02*
X19448500Y-15972000I-175000J0D01*
G01*
X19448500Y-15972000D02*
G75*
G02*
X19798500Y-15972000I175000J0D01*
G01*
X19854500Y-3539750D02*
G75*
G02*
X19504500Y-3539750I-175000J0D01*
G01*
X19504500Y-3539750D02*
G75*
G02*
X19854500Y-3539750I175000J0D01*
G01*
X19854500Y-8619750D02*
G75*
G02*
X19504500Y-8619750I-175000J0D01*
G01*
X19504500Y-8619750D02*
G75*
G02*
X19854500Y-8619750I175000J0D01*
G01*
X24623500Y-10892000D02*
G75*
G02*
X24273500Y-10892000I-175000J0D01*
G01*
X24273500Y-10892000D02*
G75*
G02*
X24623500Y-10892000I175000J0D01*
G01*
X24623500Y-15972000D02*
G75*
G02*
X24273500Y-15972000I-175000J0D01*
G01*
X24273500Y-15972000D02*
G75*
G02*
X24623500Y-15972000I175000J0D01*
G01*
X24679500Y-3539750D02*
G75*
G02*
X24329500Y-3539750I-175000J0D01*
G01*
X24329500Y-3539750D02*
G75*
G02*
X24679500Y-3539750I175000J0D01*
G01*
X24679500Y-8619750D02*
G75*
G02*
X24329500Y-8619750I-175000J0D01*
G01*
X24329500Y-8619750D02*
G75*
G02*
X24679500Y-8619750I175000J0D01*
G01*
D11*
X12134777Y-27124984D02*
X12134777Y-26924984D01*
X12134777Y-26924984D02*
X12182396Y-26924984D01*
X12182396Y-26924984D02*
X12210967Y-26934508D01*
X12210967Y-26934508D02*
X12230015Y-26953555D01*
X12230015Y-26953555D02*
X12239539Y-26972603D01*
X12239539Y-26972603D02*
X12249062Y-27010698D01*
X12249062Y-27010698D02*
X12249062Y-27039269D01*
X12249062Y-27039269D02*
X12239539Y-27077365D01*
X12239539Y-27077365D02*
X12230015Y-27096412D01*
X12230015Y-27096412D02*
X12210967Y-27115460D01*
X12210967Y-27115460D02*
X12182396Y-27124984D01*
X12182396Y-27124984D02*
X12134777Y-27124984D01*
X12334777Y-27124984D02*
X12334777Y-26991650D01*
X12334777Y-27029746D02*
X12344301Y-27010698D01*
X12344301Y-27010698D02*
X12353824Y-27001174D01*
X12353824Y-27001174D02*
X12372872Y-26991650D01*
X12372872Y-26991650D02*
X12391920Y-26991650D01*
X12458586Y-27124984D02*
X12458586Y-26991650D01*
X12458586Y-26924984D02*
X12449062Y-26934508D01*
X12449062Y-26934508D02*
X12458586Y-26944031D01*
X12458586Y-26944031D02*
X12468110Y-26934508D01*
X12468110Y-26934508D02*
X12458586Y-26924984D01*
X12458586Y-26924984D02*
X12458586Y-26944031D01*
X12582396Y-27124984D02*
X12563348Y-27115460D01*
X12563348Y-27115460D02*
X12553824Y-27096412D01*
X12553824Y-27096412D02*
X12553824Y-26924984D01*
X12687158Y-27124984D02*
X12668110Y-27115460D01*
X12668110Y-27115460D02*
X12658586Y-27096412D01*
X12658586Y-27096412D02*
X12658586Y-26924984D01*
X12915729Y-27124984D02*
X12915729Y-26924984D01*
X12915729Y-26924984D02*
X12982396Y-27067841D01*
X12982396Y-27067841D02*
X13049062Y-26924984D01*
X13049062Y-26924984D02*
X13049062Y-27124984D01*
X13230015Y-27124984D02*
X13230015Y-27020222D01*
X13230015Y-27020222D02*
X13220491Y-27001174D01*
X13220491Y-27001174D02*
X13201443Y-26991650D01*
X13201443Y-26991650D02*
X13163348Y-26991650D01*
X13163348Y-26991650D02*
X13144301Y-27001174D01*
X13230015Y-27115460D02*
X13210967Y-27124984D01*
X13210967Y-27124984D02*
X13163348Y-27124984D01*
X13163348Y-27124984D02*
X13144301Y-27115460D01*
X13144301Y-27115460D02*
X13134777Y-27096412D01*
X13134777Y-27096412D02*
X13134777Y-27077365D01*
X13134777Y-27077365D02*
X13144301Y-27058317D01*
X13144301Y-27058317D02*
X13163348Y-27048793D01*
X13163348Y-27048793D02*
X13210967Y-27048793D01*
X13210967Y-27048793D02*
X13230015Y-27039269D01*
X13325253Y-26991650D02*
X13325253Y-27191650D01*
X13325253Y-27001174D02*
X13344301Y-26991650D01*
X13344301Y-26991650D02*
X13382396Y-26991650D01*
X13382396Y-26991650D02*
X13401443Y-27001174D01*
X13401443Y-27001174D02*
X13410967Y-27010698D01*
X13410967Y-27010698D02*
X13420491Y-27029746D01*
X13420491Y-27029746D02*
X13420491Y-27086888D01*
X13420491Y-27086888D02*
X13410967Y-27105936D01*
X13410967Y-27105936D02*
X13401443Y-27115460D01*
X13401443Y-27115460D02*
X13382396Y-27124984D01*
X13382396Y-27124984D02*
X13344301Y-27124984D01*
X13344301Y-27124984D02*
X13325253Y-27115460D01*
X13506205Y-27105936D02*
X13515729Y-27115460D01*
X13515729Y-27115460D02*
X13506205Y-27124984D01*
X13506205Y-27124984D02*
X13496682Y-27115460D01*
X13496682Y-27115460D02*
X13506205Y-27105936D01*
X13506205Y-27105936D02*
X13506205Y-27124984D01*
X13506205Y-27001174D02*
X13515729Y-27010698D01*
X13515729Y-27010698D02*
X13506205Y-27020222D01*
X13506205Y-27020222D02*
X13496682Y-27010698D01*
X13496682Y-27010698D02*
X13506205Y-27001174D01*
X13506205Y-27001174D02*
X13506205Y-27020222D01*
D12*
X11744460Y-27388730D02*
X11874000Y-27518270D01*
X11874000Y-27388730D02*
X11744460Y-27518270D01*
D11*
X12239539Y-27544984D02*
X12125253Y-27544984D01*
X12182396Y-27544984D02*
X12182396Y-27344984D01*
X12182396Y-27344984D02*
X12163348Y-27373555D01*
X12163348Y-27373555D02*
X12144301Y-27392603D01*
X12144301Y-27392603D02*
X12125253Y-27402127D01*
X12325253Y-27525936D02*
X12334777Y-27535460D01*
X12334777Y-27535460D02*
X12325253Y-27544984D01*
X12325253Y-27544984D02*
X12315729Y-27535460D01*
X12315729Y-27535460D02*
X12325253Y-27525936D01*
X12325253Y-27525936D02*
X12325253Y-27544984D01*
X12410967Y-27364031D02*
X12420491Y-27354508D01*
X12420491Y-27354508D02*
X12439539Y-27344984D01*
X12439539Y-27344984D02*
X12487158Y-27344984D01*
X12487158Y-27344984D02*
X12506205Y-27354508D01*
X12506205Y-27354508D02*
X12515729Y-27364031D01*
X12515729Y-27364031D02*
X12525253Y-27383079D01*
X12525253Y-27383079D02*
X12525253Y-27402127D01*
X12525253Y-27402127D02*
X12515729Y-27430698D01*
X12515729Y-27430698D02*
X12401443Y-27544984D01*
X12401443Y-27544984D02*
X12525253Y-27544984D01*
X12620491Y-27544984D02*
X12658586Y-27544984D01*
X12658586Y-27544984D02*
X12677634Y-27535460D01*
X12677634Y-27535460D02*
X12687158Y-27525936D01*
X12687158Y-27525936D02*
X12706205Y-27497365D01*
X12706205Y-27497365D02*
X12715729Y-27459269D01*
X12715729Y-27459269D02*
X12715729Y-27383079D01*
X12715729Y-27383079D02*
X12706205Y-27364031D01*
X12706205Y-27364031D02*
X12696682Y-27354508D01*
X12696682Y-27354508D02*
X12677634Y-27344984D01*
X12677634Y-27344984D02*
X12639539Y-27344984D01*
X12639539Y-27344984D02*
X12620491Y-27354508D01*
X12620491Y-27354508D02*
X12610967Y-27364031D01*
X12610967Y-27364031D02*
X12601443Y-27383079D01*
X12601443Y-27383079D02*
X12601443Y-27430698D01*
X12601443Y-27430698D02*
X12610967Y-27449746D01*
X12610967Y-27449746D02*
X12620491Y-27459269D01*
X12620491Y-27459269D02*
X12639539Y-27468793D01*
X12639539Y-27468793D02*
X12677634Y-27468793D01*
X12677634Y-27468793D02*
X12696682Y-27459269D01*
X12696682Y-27459269D02*
X12706205Y-27449746D01*
X12706205Y-27449746D02*
X12715729Y-27430698D01*
X12896682Y-27344984D02*
X12801443Y-27344984D01*
X12801443Y-27344984D02*
X12791920Y-27440222D01*
X12791920Y-27440222D02*
X12801443Y-27430698D01*
X12801443Y-27430698D02*
X12820491Y-27421174D01*
X12820491Y-27421174D02*
X12868110Y-27421174D01*
X12868110Y-27421174D02*
X12887158Y-27430698D01*
X12887158Y-27430698D02*
X12896682Y-27440222D01*
X12896682Y-27440222D02*
X12906205Y-27459269D01*
X12906205Y-27459269D02*
X12906205Y-27506888D01*
X12906205Y-27506888D02*
X12896682Y-27525936D01*
X12896682Y-27525936D02*
X12887158Y-27535460D01*
X12887158Y-27535460D02*
X12868110Y-27544984D01*
X12868110Y-27544984D02*
X12820491Y-27544984D01*
X12820491Y-27544984D02*
X12801443Y-27535460D01*
X12801443Y-27535460D02*
X12791920Y-27525936D01*
X12991920Y-27544984D02*
X12991920Y-27411650D01*
X12991920Y-27430698D02*
X13001443Y-27421174D01*
X13001443Y-27421174D02*
X13020491Y-27411650D01*
X13020491Y-27411650D02*
X13049063Y-27411650D01*
X13049063Y-27411650D02*
X13068110Y-27421174D01*
X13068110Y-27421174D02*
X13077634Y-27440222D01*
X13077634Y-27440222D02*
X13077634Y-27544984D01*
X13077634Y-27440222D02*
X13087158Y-27421174D01*
X13087158Y-27421174D02*
X13106205Y-27411650D01*
X13106205Y-27411650D02*
X13134777Y-27411650D01*
X13134777Y-27411650D02*
X13153824Y-27421174D01*
X13153824Y-27421174D02*
X13163348Y-27440222D01*
X13163348Y-27440222D02*
X13163348Y-27544984D01*
X13258586Y-27544984D02*
X13258586Y-27411650D01*
X13258586Y-27430698D02*
X13268110Y-27421174D01*
X13268110Y-27421174D02*
X13287158Y-27411650D01*
X13287158Y-27411650D02*
X13315729Y-27411650D01*
X13315729Y-27411650D02*
X13334777Y-27421174D01*
X13334777Y-27421174D02*
X13344301Y-27440222D01*
X13344301Y-27440222D02*
X13344301Y-27544984D01*
X13344301Y-27440222D02*
X13353824Y-27421174D01*
X13353824Y-27421174D02*
X13372872Y-27411650D01*
X13372872Y-27411650D02*
X13401443Y-27411650D01*
X13401443Y-27411650D02*
X13420491Y-27421174D01*
X13420491Y-27421174D02*
X13430015Y-27440222D01*
X13430015Y-27440222D02*
X13430015Y-27544984D01*
X13820491Y-27335460D02*
X13649063Y-27592603D01*
X14077634Y-27344984D02*
X14096682Y-27344984D01*
X14096682Y-27344984D02*
X14115729Y-27354508D01*
X14115729Y-27354508D02*
X14125253Y-27364031D01*
X14125253Y-27364031D02*
X14134777Y-27383079D01*
X14134777Y-27383079D02*
X14144301Y-27421174D01*
X14144301Y-27421174D02*
X14144301Y-27468793D01*
X14144301Y-27468793D02*
X14134777Y-27506888D01*
X14134777Y-27506888D02*
X14125253Y-27525936D01*
X14125253Y-27525936D02*
X14115729Y-27535460D01*
X14115729Y-27535460D02*
X14096682Y-27544984D01*
X14096682Y-27544984D02*
X14077634Y-27544984D01*
X14077634Y-27544984D02*
X14058586Y-27535460D01*
X14058586Y-27535460D02*
X14049063Y-27525936D01*
X14049063Y-27525936D02*
X14039539Y-27506888D01*
X14039539Y-27506888D02*
X14030015Y-27468793D01*
X14030015Y-27468793D02*
X14030015Y-27421174D01*
X14030015Y-27421174D02*
X14039539Y-27383079D01*
X14039539Y-27383079D02*
X14049063Y-27364031D01*
X14049063Y-27364031D02*
X14058586Y-27354508D01*
X14058586Y-27354508D02*
X14077634Y-27344984D01*
X14230015Y-27525936D02*
X14239539Y-27535460D01*
X14239539Y-27535460D02*
X14230015Y-27544984D01*
X14230015Y-27544984D02*
X14220491Y-27535460D01*
X14220491Y-27535460D02*
X14230015Y-27525936D01*
X14230015Y-27525936D02*
X14230015Y-27544984D01*
X14363348Y-27344984D02*
X14382396Y-27344984D01*
X14382396Y-27344984D02*
X14401444Y-27354508D01*
X14401444Y-27354508D02*
X14410967Y-27364031D01*
X14410967Y-27364031D02*
X14420491Y-27383079D01*
X14420491Y-27383079D02*
X14430015Y-27421174D01*
X14430015Y-27421174D02*
X14430015Y-27468793D01*
X14430015Y-27468793D02*
X14420491Y-27506888D01*
X14420491Y-27506888D02*
X14410967Y-27525936D01*
X14410967Y-27525936D02*
X14401444Y-27535460D01*
X14401444Y-27535460D02*
X14382396Y-27544984D01*
X14382396Y-27544984D02*
X14363348Y-27544984D01*
X14363348Y-27544984D02*
X14344301Y-27535460D01*
X14344301Y-27535460D02*
X14334777Y-27525936D01*
X14334777Y-27525936D02*
X14325253Y-27506888D01*
X14325253Y-27506888D02*
X14315729Y-27468793D01*
X14315729Y-27468793D02*
X14315729Y-27421174D01*
X14315729Y-27421174D02*
X14325253Y-27383079D01*
X14325253Y-27383079D02*
X14334777Y-27364031D01*
X14334777Y-27364031D02*
X14344301Y-27354508D01*
X14344301Y-27354508D02*
X14363348Y-27344984D01*
X14610967Y-27344984D02*
X14515729Y-27344984D01*
X14515729Y-27344984D02*
X14506206Y-27440222D01*
X14506206Y-27440222D02*
X14515729Y-27430698D01*
X14515729Y-27430698D02*
X14534777Y-27421174D01*
X14534777Y-27421174D02*
X14582396Y-27421174D01*
X14582396Y-27421174D02*
X14601444Y-27430698D01*
X14601444Y-27430698D02*
X14610967Y-27440222D01*
X14610967Y-27440222D02*
X14620491Y-27459269D01*
X14620491Y-27459269D02*
X14620491Y-27506888D01*
X14620491Y-27506888D02*
X14610967Y-27525936D01*
X14610967Y-27525936D02*
X14601444Y-27535460D01*
X14601444Y-27535460D02*
X14582396Y-27544984D01*
X14582396Y-27544984D02*
X14534777Y-27544984D01*
X14534777Y-27544984D02*
X14515729Y-27535460D01*
X14515729Y-27535460D02*
X14506206Y-27525936D01*
X14810967Y-27544984D02*
X14696682Y-27544984D01*
X14753825Y-27544984D02*
X14753825Y-27344984D01*
X14753825Y-27344984D02*
X14734777Y-27373555D01*
X14734777Y-27373555D02*
X14715729Y-27392603D01*
X14715729Y-27392603D02*
X14696682Y-27402127D01*
X14934777Y-27344984D02*
X14953825Y-27344984D01*
X14953825Y-27344984D02*
X14972872Y-27354508D01*
X14972872Y-27354508D02*
X14982396Y-27364031D01*
X14982396Y-27364031D02*
X14991920Y-27383079D01*
X14991920Y-27383079D02*
X15001444Y-27421174D01*
X15001444Y-27421174D02*
X15001444Y-27468793D01*
X15001444Y-27468793D02*
X14991920Y-27506888D01*
X14991920Y-27506888D02*
X14982396Y-27525936D01*
X14982396Y-27525936D02*
X14972872Y-27535460D01*
X14972872Y-27535460D02*
X14953825Y-27544984D01*
X14953825Y-27544984D02*
X14934777Y-27544984D01*
X14934777Y-27544984D02*
X14915729Y-27535460D01*
X14915729Y-27535460D02*
X14906206Y-27525936D01*
X14906206Y-27525936D02*
X14896682Y-27506888D01*
X14896682Y-27506888D02*
X14887158Y-27468793D01*
X14887158Y-27468793D02*
X14887158Y-27421174D01*
X14887158Y-27421174D02*
X14896682Y-27383079D01*
X14896682Y-27383079D02*
X14906206Y-27364031D01*
X14906206Y-27364031D02*
X14915729Y-27354508D01*
X14915729Y-27354508D02*
X14934777Y-27344984D01*
X15077634Y-27344984D02*
X15077634Y-27383079D01*
X15153825Y-27344984D02*
X15153825Y-27383079D01*
X15449063Y-27621174D02*
X15439539Y-27611650D01*
X15439539Y-27611650D02*
X15420491Y-27583079D01*
X15420491Y-27583079D02*
X15410968Y-27564031D01*
X15410968Y-27564031D02*
X15401444Y-27535460D01*
X15401444Y-27535460D02*
X15391920Y-27487841D01*
X15391920Y-27487841D02*
X15391920Y-27449746D01*
X15391920Y-27449746D02*
X15401444Y-27402127D01*
X15401444Y-27402127D02*
X15410968Y-27373555D01*
X15410968Y-27373555D02*
X15420491Y-27354508D01*
X15420491Y-27354508D02*
X15439539Y-27325936D01*
X15439539Y-27325936D02*
X15449063Y-27316412D01*
X15563348Y-27344984D02*
X15582396Y-27344984D01*
X15582396Y-27344984D02*
X15601444Y-27354508D01*
X15601444Y-27354508D02*
X15610968Y-27364031D01*
X15610968Y-27364031D02*
X15620491Y-27383079D01*
X15620491Y-27383079D02*
X15630015Y-27421174D01*
X15630015Y-27421174D02*
X15630015Y-27468793D01*
X15630015Y-27468793D02*
X15620491Y-27506888D01*
X15620491Y-27506888D02*
X15610968Y-27525936D01*
X15610968Y-27525936D02*
X15601444Y-27535460D01*
X15601444Y-27535460D02*
X15582396Y-27544984D01*
X15582396Y-27544984D02*
X15563348Y-27544984D01*
X15563348Y-27544984D02*
X15544301Y-27535460D01*
X15544301Y-27535460D02*
X15534777Y-27525936D01*
X15534777Y-27525936D02*
X15525253Y-27506888D01*
X15525253Y-27506888D02*
X15515729Y-27468793D01*
X15515729Y-27468793D02*
X15515729Y-27421174D01*
X15515729Y-27421174D02*
X15525253Y-27383079D01*
X15525253Y-27383079D02*
X15534777Y-27364031D01*
X15534777Y-27364031D02*
X15544301Y-27354508D01*
X15544301Y-27354508D02*
X15563348Y-27344984D01*
X15868110Y-27544984D02*
X15868110Y-27344984D01*
X15953825Y-27544984D02*
X15953825Y-27440222D01*
X15953825Y-27440222D02*
X15944301Y-27421174D01*
X15944301Y-27421174D02*
X15925253Y-27411650D01*
X15925253Y-27411650D02*
X15896682Y-27411650D01*
X15896682Y-27411650D02*
X15877634Y-27421174D01*
X15877634Y-27421174D02*
X15868110Y-27430698D01*
X16077634Y-27544984D02*
X16058587Y-27535460D01*
X16058587Y-27535460D02*
X16049063Y-27525936D01*
X16049063Y-27525936D02*
X16039539Y-27506888D01*
X16039539Y-27506888D02*
X16039539Y-27449746D01*
X16039539Y-27449746D02*
X16049063Y-27430698D01*
X16049063Y-27430698D02*
X16058587Y-27421174D01*
X16058587Y-27421174D02*
X16077634Y-27411650D01*
X16077634Y-27411650D02*
X16106206Y-27411650D01*
X16106206Y-27411650D02*
X16125253Y-27421174D01*
X16125253Y-27421174D02*
X16134777Y-27430698D01*
X16134777Y-27430698D02*
X16144301Y-27449746D01*
X16144301Y-27449746D02*
X16144301Y-27506888D01*
X16144301Y-27506888D02*
X16134777Y-27525936D01*
X16134777Y-27525936D02*
X16125253Y-27535460D01*
X16125253Y-27535460D02*
X16106206Y-27544984D01*
X16106206Y-27544984D02*
X16077634Y-27544984D01*
X16258587Y-27544984D02*
X16239539Y-27535460D01*
X16239539Y-27535460D02*
X16230015Y-27516412D01*
X16230015Y-27516412D02*
X16230015Y-27344984D01*
X16410968Y-27535460D02*
X16391920Y-27544984D01*
X16391920Y-27544984D02*
X16353825Y-27544984D01*
X16353825Y-27544984D02*
X16334777Y-27535460D01*
X16334777Y-27535460D02*
X16325253Y-27516412D01*
X16325253Y-27516412D02*
X16325253Y-27440222D01*
X16325253Y-27440222D02*
X16334777Y-27421174D01*
X16334777Y-27421174D02*
X16353825Y-27411650D01*
X16353825Y-27411650D02*
X16391920Y-27411650D01*
X16391920Y-27411650D02*
X16410968Y-27421174D01*
X16410968Y-27421174D02*
X16420491Y-27440222D01*
X16420491Y-27440222D02*
X16420491Y-27459269D01*
X16420491Y-27459269D02*
X16325253Y-27478317D01*
X16496682Y-27535460D02*
X16515730Y-27544984D01*
X16515730Y-27544984D02*
X16553825Y-27544984D01*
X16553825Y-27544984D02*
X16572872Y-27535460D01*
X16572872Y-27535460D02*
X16582396Y-27516412D01*
X16582396Y-27516412D02*
X16582396Y-27506888D01*
X16582396Y-27506888D02*
X16572872Y-27487841D01*
X16572872Y-27487841D02*
X16553825Y-27478317D01*
X16553825Y-27478317D02*
X16525253Y-27478317D01*
X16525253Y-27478317D02*
X16506206Y-27468793D01*
X16506206Y-27468793D02*
X16496682Y-27449746D01*
X16496682Y-27449746D02*
X16496682Y-27440222D01*
X16496682Y-27440222D02*
X16506206Y-27421174D01*
X16506206Y-27421174D02*
X16525253Y-27411650D01*
X16525253Y-27411650D02*
X16553825Y-27411650D01*
X16553825Y-27411650D02*
X16572872Y-27421174D01*
X16820492Y-27468793D02*
X16972873Y-27468793D01*
X16896682Y-27544984D02*
X16896682Y-27392603D01*
X17249063Y-27430698D02*
X17230015Y-27421174D01*
X17230015Y-27421174D02*
X17220492Y-27411650D01*
X17220492Y-27411650D02*
X17210968Y-27392603D01*
X17210968Y-27392603D02*
X17210968Y-27383079D01*
X17210968Y-27383079D02*
X17220492Y-27364031D01*
X17220492Y-27364031D02*
X17230015Y-27354508D01*
X17230015Y-27354508D02*
X17249063Y-27344984D01*
X17249063Y-27344984D02*
X17287158Y-27344984D01*
X17287158Y-27344984D02*
X17306206Y-27354508D01*
X17306206Y-27354508D02*
X17315730Y-27364031D01*
X17315730Y-27364031D02*
X17325254Y-27383079D01*
X17325254Y-27383079D02*
X17325254Y-27392603D01*
X17325254Y-27392603D02*
X17315730Y-27411650D01*
X17315730Y-27411650D02*
X17306206Y-27421174D01*
X17306206Y-27421174D02*
X17287158Y-27430698D01*
X17287158Y-27430698D02*
X17249063Y-27430698D01*
X17249063Y-27430698D02*
X17230015Y-27440222D01*
X17230015Y-27440222D02*
X17220492Y-27449746D01*
X17220492Y-27449746D02*
X17210968Y-27468793D01*
X17210968Y-27468793D02*
X17210968Y-27506888D01*
X17210968Y-27506888D02*
X17220492Y-27525936D01*
X17220492Y-27525936D02*
X17230015Y-27535460D01*
X17230015Y-27535460D02*
X17249063Y-27544984D01*
X17249063Y-27544984D02*
X17287158Y-27544984D01*
X17287158Y-27544984D02*
X17306206Y-27535460D01*
X17306206Y-27535460D02*
X17315730Y-27525936D01*
X17315730Y-27525936D02*
X17325254Y-27506888D01*
X17325254Y-27506888D02*
X17325254Y-27468793D01*
X17325254Y-27468793D02*
X17315730Y-27449746D01*
X17315730Y-27449746D02*
X17306206Y-27440222D01*
X17306206Y-27440222D02*
X17287158Y-27430698D01*
X17553825Y-27535460D02*
X17572873Y-27544984D01*
X17572873Y-27544984D02*
X17610968Y-27544984D01*
X17610968Y-27544984D02*
X17630016Y-27535460D01*
X17630016Y-27535460D02*
X17639539Y-27516412D01*
X17639539Y-27516412D02*
X17639539Y-27506888D01*
X17639539Y-27506888D02*
X17630016Y-27487841D01*
X17630016Y-27487841D02*
X17610968Y-27478317D01*
X17610968Y-27478317D02*
X17582396Y-27478317D01*
X17582396Y-27478317D02*
X17563349Y-27468793D01*
X17563349Y-27468793D02*
X17553825Y-27449746D01*
X17553825Y-27449746D02*
X17553825Y-27440222D01*
X17553825Y-27440222D02*
X17563349Y-27421174D01*
X17563349Y-27421174D02*
X17582396Y-27411650D01*
X17582396Y-27411650D02*
X17610968Y-27411650D01*
X17610968Y-27411650D02*
X17630016Y-27421174D01*
X17753825Y-27544984D02*
X17734777Y-27535460D01*
X17734777Y-27535460D02*
X17725254Y-27516412D01*
X17725254Y-27516412D02*
X17725254Y-27344984D01*
X17858587Y-27544984D02*
X17839539Y-27535460D01*
X17839539Y-27535460D02*
X17830016Y-27525936D01*
X17830016Y-27525936D02*
X17820492Y-27506888D01*
X17820492Y-27506888D02*
X17820492Y-27449746D01*
X17820492Y-27449746D02*
X17830016Y-27430698D01*
X17830016Y-27430698D02*
X17839539Y-27421174D01*
X17839539Y-27421174D02*
X17858587Y-27411650D01*
X17858587Y-27411650D02*
X17887158Y-27411650D01*
X17887158Y-27411650D02*
X17906206Y-27421174D01*
X17906206Y-27421174D02*
X17915730Y-27430698D01*
X17915730Y-27430698D02*
X17925254Y-27449746D01*
X17925254Y-27449746D02*
X17925254Y-27506888D01*
X17925254Y-27506888D02*
X17915730Y-27525936D01*
X17915730Y-27525936D02*
X17906206Y-27535460D01*
X17906206Y-27535460D02*
X17887158Y-27544984D01*
X17887158Y-27544984D02*
X17858587Y-27544984D01*
X17982397Y-27411650D02*
X18058587Y-27411650D01*
X18010968Y-27344984D02*
X18010968Y-27516412D01*
X18010968Y-27516412D02*
X18020492Y-27535460D01*
X18020492Y-27535460D02*
X18039539Y-27544984D01*
X18039539Y-27544984D02*
X18058587Y-27544984D01*
X18115730Y-27535460D02*
X18134777Y-27544984D01*
X18134777Y-27544984D02*
X18172873Y-27544984D01*
X18172873Y-27544984D02*
X18191920Y-27535460D01*
X18191920Y-27535460D02*
X18201444Y-27516412D01*
X18201444Y-27516412D02*
X18201444Y-27506888D01*
X18201444Y-27506888D02*
X18191920Y-27487841D01*
X18191920Y-27487841D02*
X18172873Y-27478317D01*
X18172873Y-27478317D02*
X18144301Y-27478317D01*
X18144301Y-27478317D02*
X18125254Y-27468793D01*
X18125254Y-27468793D02*
X18115730Y-27449746D01*
X18115730Y-27449746D02*
X18115730Y-27440222D01*
X18115730Y-27440222D02*
X18125254Y-27421174D01*
X18125254Y-27421174D02*
X18144301Y-27411650D01*
X18144301Y-27411650D02*
X18172873Y-27411650D01*
X18172873Y-27411650D02*
X18191920Y-27421174D01*
X18268111Y-27621174D02*
X18277635Y-27611650D01*
X18277635Y-27611650D02*
X18296682Y-27583079D01*
X18296682Y-27583079D02*
X18306206Y-27564031D01*
X18306206Y-27564031D02*
X18315730Y-27535460D01*
X18315730Y-27535460D02*
X18325254Y-27487841D01*
X18325254Y-27487841D02*
X18325254Y-27449746D01*
X18325254Y-27449746D02*
X18315730Y-27402127D01*
X18315730Y-27402127D02*
X18306206Y-27373555D01*
X18306206Y-27373555D02*
X18296682Y-27354508D01*
X18296682Y-27354508D02*
X18277635Y-27325936D01*
X18277635Y-27325936D02*
X18268111Y-27316412D01*
X18630016Y-27621174D02*
X18620492Y-27611650D01*
X18620492Y-27611650D02*
X18601444Y-27583079D01*
X18601444Y-27583079D02*
X18591920Y-27564031D01*
X18591920Y-27564031D02*
X18582397Y-27535460D01*
X18582397Y-27535460D02*
X18572873Y-27487841D01*
X18572873Y-27487841D02*
X18572873Y-27449746D01*
X18572873Y-27449746D02*
X18582397Y-27402127D01*
X18582397Y-27402127D02*
X18591920Y-27373555D01*
X18591920Y-27373555D02*
X18601444Y-27354508D01*
X18601444Y-27354508D02*
X18620492Y-27325936D01*
X18620492Y-27325936D02*
X18630016Y-27316412D01*
X18706206Y-27411650D02*
X18706206Y-27544984D01*
X18706206Y-27430698D02*
X18715730Y-27421174D01*
X18715730Y-27421174D02*
X18734777Y-27411650D01*
X18734777Y-27411650D02*
X18763349Y-27411650D01*
X18763349Y-27411650D02*
X18782397Y-27421174D01*
X18782397Y-27421174D02*
X18791920Y-27440222D01*
X18791920Y-27440222D02*
X18791920Y-27544984D01*
X18915730Y-27544984D02*
X18896682Y-27535460D01*
X18896682Y-27535460D02*
X18887158Y-27525936D01*
X18887158Y-27525936D02*
X18877635Y-27506888D01*
X18877635Y-27506888D02*
X18877635Y-27449746D01*
X18877635Y-27449746D02*
X18887158Y-27430698D01*
X18887158Y-27430698D02*
X18896682Y-27421174D01*
X18896682Y-27421174D02*
X18915730Y-27411650D01*
X18915730Y-27411650D02*
X18944301Y-27411650D01*
X18944301Y-27411650D02*
X18963349Y-27421174D01*
X18963349Y-27421174D02*
X18972873Y-27430698D01*
X18972873Y-27430698D02*
X18982397Y-27449746D01*
X18982397Y-27449746D02*
X18982397Y-27506888D01*
X18982397Y-27506888D02*
X18972873Y-27525936D01*
X18972873Y-27525936D02*
X18963349Y-27535460D01*
X18963349Y-27535460D02*
X18944301Y-27544984D01*
X18944301Y-27544984D02*
X18915730Y-27544984D01*
X19039539Y-27411650D02*
X19115730Y-27411650D01*
X19068111Y-27344984D02*
X19068111Y-27516412D01*
X19068111Y-27516412D02*
X19077635Y-27535460D01*
X19077635Y-27535460D02*
X19096682Y-27544984D01*
X19096682Y-27544984D02*
X19115730Y-27544984D01*
X19334778Y-27411650D02*
X19334778Y-27611650D01*
X19334778Y-27421174D02*
X19353825Y-27411650D01*
X19353825Y-27411650D02*
X19391920Y-27411650D01*
X19391920Y-27411650D02*
X19410968Y-27421174D01*
X19410968Y-27421174D02*
X19420492Y-27430698D01*
X19420492Y-27430698D02*
X19430016Y-27449746D01*
X19430016Y-27449746D02*
X19430016Y-27506888D01*
X19430016Y-27506888D02*
X19420492Y-27525936D01*
X19420492Y-27525936D02*
X19410968Y-27535460D01*
X19410968Y-27535460D02*
X19391920Y-27544984D01*
X19391920Y-27544984D02*
X19353825Y-27544984D01*
X19353825Y-27544984D02*
X19334778Y-27535460D01*
X19544301Y-27544984D02*
X19525254Y-27535460D01*
X19525254Y-27535460D02*
X19515730Y-27516412D01*
X19515730Y-27516412D02*
X19515730Y-27344984D01*
X19706206Y-27544984D02*
X19706206Y-27440222D01*
X19706206Y-27440222D02*
X19696682Y-27421174D01*
X19696682Y-27421174D02*
X19677635Y-27411650D01*
X19677635Y-27411650D02*
X19639539Y-27411650D01*
X19639539Y-27411650D02*
X19620492Y-27421174D01*
X19706206Y-27535460D02*
X19687159Y-27544984D01*
X19687159Y-27544984D02*
X19639539Y-27544984D01*
X19639539Y-27544984D02*
X19620492Y-27535460D01*
X19620492Y-27535460D02*
X19610968Y-27516412D01*
X19610968Y-27516412D02*
X19610968Y-27497365D01*
X19610968Y-27497365D02*
X19620492Y-27478317D01*
X19620492Y-27478317D02*
X19639539Y-27468793D01*
X19639539Y-27468793D02*
X19687159Y-27468793D01*
X19687159Y-27468793D02*
X19706206Y-27459269D01*
X19772873Y-27411650D02*
X19849063Y-27411650D01*
X19801444Y-27344984D02*
X19801444Y-27516412D01*
X19801444Y-27516412D02*
X19810968Y-27535460D01*
X19810968Y-27535460D02*
X19830016Y-27544984D01*
X19830016Y-27544984D02*
X19849063Y-27544984D01*
X19991920Y-27535460D02*
X19972873Y-27544984D01*
X19972873Y-27544984D02*
X19934778Y-27544984D01*
X19934778Y-27544984D02*
X19915730Y-27535460D01*
X19915730Y-27535460D02*
X19906206Y-27516412D01*
X19906206Y-27516412D02*
X19906206Y-27440222D01*
X19906206Y-27440222D02*
X19915730Y-27421174D01*
X19915730Y-27421174D02*
X19934778Y-27411650D01*
X19934778Y-27411650D02*
X19972873Y-27411650D01*
X19972873Y-27411650D02*
X19991920Y-27421174D01*
X19991920Y-27421174D02*
X20001444Y-27440222D01*
X20001444Y-27440222D02*
X20001444Y-27459269D01*
X20001444Y-27459269D02*
X19906206Y-27478317D01*
X20172873Y-27544984D02*
X20172873Y-27344984D01*
X20172873Y-27535460D02*
X20153825Y-27544984D01*
X20153825Y-27544984D02*
X20115730Y-27544984D01*
X20115730Y-27544984D02*
X20096682Y-27535460D01*
X20096682Y-27535460D02*
X20087159Y-27525936D01*
X20087159Y-27525936D02*
X20077635Y-27506888D01*
X20077635Y-27506888D02*
X20077635Y-27449746D01*
X20077635Y-27449746D02*
X20087159Y-27430698D01*
X20087159Y-27430698D02*
X20096682Y-27421174D01*
X20096682Y-27421174D02*
X20115730Y-27411650D01*
X20115730Y-27411650D02*
X20153825Y-27411650D01*
X20153825Y-27411650D02*
X20172873Y-27421174D01*
X20249063Y-27621174D02*
X20258587Y-27611650D01*
X20258587Y-27611650D02*
X20277635Y-27583079D01*
X20277635Y-27583079D02*
X20287159Y-27564031D01*
X20287159Y-27564031D02*
X20296682Y-27535460D01*
X20296682Y-27535460D02*
X20306206Y-27487841D01*
X20306206Y-27487841D02*
X20306206Y-27449746D01*
X20306206Y-27449746D02*
X20296682Y-27402127D01*
X20296682Y-27402127D02*
X20287159Y-27373555D01*
X20287159Y-27373555D02*
X20277635Y-27354508D01*
X20277635Y-27354508D02*
X20258587Y-27325936D01*
X20258587Y-27325936D02*
X20249063Y-27316412D01*
X11874000Y-27717500D02*
G75*
G02*
X11674000Y-27717500I-100000J0D01*
G01*
X11674000Y-27717500D02*
G75*
G02*
X11874000Y-27717500I100000J0D01*
G01*
X12115729Y-27608984D02*
X12239539Y-27608984D01*
X12239539Y-27608984D02*
X12172872Y-27685174D01*
X12172872Y-27685174D02*
X12201443Y-27685174D01*
X12201443Y-27685174D02*
X12220491Y-27694698D01*
X12220491Y-27694698D02*
X12230015Y-27704222D01*
X12230015Y-27704222D02*
X12239539Y-27723269D01*
X12239539Y-27723269D02*
X12239539Y-27770888D01*
X12239539Y-27770888D02*
X12230015Y-27789936D01*
X12230015Y-27789936D02*
X12220491Y-27799460D01*
X12220491Y-27799460D02*
X12201443Y-27808984D01*
X12201443Y-27808984D02*
X12144301Y-27808984D01*
X12144301Y-27808984D02*
X12125253Y-27799460D01*
X12125253Y-27799460D02*
X12115729Y-27789936D01*
X12325253Y-27789936D02*
X12334777Y-27799460D01*
X12334777Y-27799460D02*
X12325253Y-27808984D01*
X12325253Y-27808984D02*
X12315729Y-27799460D01*
X12315729Y-27799460D02*
X12325253Y-27789936D01*
X12325253Y-27789936D02*
X12325253Y-27808984D01*
X12515729Y-27608984D02*
X12420491Y-27608984D01*
X12420491Y-27608984D02*
X12410967Y-27704222D01*
X12410967Y-27704222D02*
X12420491Y-27694698D01*
X12420491Y-27694698D02*
X12439539Y-27685174D01*
X12439539Y-27685174D02*
X12487158Y-27685174D01*
X12487158Y-27685174D02*
X12506205Y-27694698D01*
X12506205Y-27694698D02*
X12515729Y-27704222D01*
X12515729Y-27704222D02*
X12525253Y-27723269D01*
X12525253Y-27723269D02*
X12525253Y-27770888D01*
X12525253Y-27770888D02*
X12515729Y-27789936D01*
X12515729Y-27789936D02*
X12506205Y-27799460D01*
X12506205Y-27799460D02*
X12487158Y-27808984D01*
X12487158Y-27808984D02*
X12439539Y-27808984D01*
X12439539Y-27808984D02*
X12420491Y-27799460D01*
X12420491Y-27799460D02*
X12410967Y-27789936D01*
X12649062Y-27608984D02*
X12668110Y-27608984D01*
X12668110Y-27608984D02*
X12687158Y-27618508D01*
X12687158Y-27618508D02*
X12696682Y-27628031D01*
X12696682Y-27628031D02*
X12706205Y-27647079D01*
X12706205Y-27647079D02*
X12715729Y-27685174D01*
X12715729Y-27685174D02*
X12715729Y-27732793D01*
X12715729Y-27732793D02*
X12706205Y-27770888D01*
X12706205Y-27770888D02*
X12696682Y-27789936D01*
X12696682Y-27789936D02*
X12687158Y-27799460D01*
X12687158Y-27799460D02*
X12668110Y-27808984D01*
X12668110Y-27808984D02*
X12649062Y-27808984D01*
X12649062Y-27808984D02*
X12630015Y-27799460D01*
X12630015Y-27799460D02*
X12620491Y-27789936D01*
X12620491Y-27789936D02*
X12610967Y-27770888D01*
X12610967Y-27770888D02*
X12601443Y-27732793D01*
X12601443Y-27732793D02*
X12601443Y-27685174D01*
X12601443Y-27685174D02*
X12610967Y-27647079D01*
X12610967Y-27647079D02*
X12620491Y-27628031D01*
X12620491Y-27628031D02*
X12630015Y-27618508D01*
X12630015Y-27618508D02*
X12649062Y-27608984D01*
X12839539Y-27608984D02*
X12858586Y-27608984D01*
X12858586Y-27608984D02*
X12877634Y-27618508D01*
X12877634Y-27618508D02*
X12887158Y-27628031D01*
X12887158Y-27628031D02*
X12896682Y-27647079D01*
X12896682Y-27647079D02*
X12906205Y-27685174D01*
X12906205Y-27685174D02*
X12906205Y-27732793D01*
X12906205Y-27732793D02*
X12896682Y-27770888D01*
X12896682Y-27770888D02*
X12887158Y-27789936D01*
X12887158Y-27789936D02*
X12877634Y-27799460D01*
X12877634Y-27799460D02*
X12858586Y-27808984D01*
X12858586Y-27808984D02*
X12839539Y-27808984D01*
X12839539Y-27808984D02*
X12820491Y-27799460D01*
X12820491Y-27799460D02*
X12810967Y-27789936D01*
X12810967Y-27789936D02*
X12801443Y-27770888D01*
X12801443Y-27770888D02*
X12791920Y-27732793D01*
X12791920Y-27732793D02*
X12791920Y-27685174D01*
X12791920Y-27685174D02*
X12801443Y-27647079D01*
X12801443Y-27647079D02*
X12810967Y-27628031D01*
X12810967Y-27628031D02*
X12820491Y-27618508D01*
X12820491Y-27618508D02*
X12839539Y-27608984D01*
X12991920Y-27808984D02*
X12991920Y-27675650D01*
X12991920Y-27694698D02*
X13001443Y-27685174D01*
X13001443Y-27685174D02*
X13020491Y-27675650D01*
X13020491Y-27675650D02*
X13049063Y-27675650D01*
X13049063Y-27675650D02*
X13068110Y-27685174D01*
X13068110Y-27685174D02*
X13077634Y-27704222D01*
X13077634Y-27704222D02*
X13077634Y-27808984D01*
X13077634Y-27704222D02*
X13087158Y-27685174D01*
X13087158Y-27685174D02*
X13106205Y-27675650D01*
X13106205Y-27675650D02*
X13134777Y-27675650D01*
X13134777Y-27675650D02*
X13153824Y-27685174D01*
X13153824Y-27685174D02*
X13163348Y-27704222D01*
X13163348Y-27704222D02*
X13163348Y-27808984D01*
X13258586Y-27808984D02*
X13258586Y-27675650D01*
X13258586Y-27694698D02*
X13268110Y-27685174D01*
X13268110Y-27685174D02*
X13287158Y-27675650D01*
X13287158Y-27675650D02*
X13315729Y-27675650D01*
X13315729Y-27675650D02*
X13334777Y-27685174D01*
X13334777Y-27685174D02*
X13344301Y-27704222D01*
X13344301Y-27704222D02*
X13344301Y-27808984D01*
X13344301Y-27704222D02*
X13353824Y-27685174D01*
X13353824Y-27685174D02*
X13372872Y-27675650D01*
X13372872Y-27675650D02*
X13401443Y-27675650D01*
X13401443Y-27675650D02*
X13420491Y-27685174D01*
X13420491Y-27685174D02*
X13430015Y-27704222D01*
X13430015Y-27704222D02*
X13430015Y-27808984D01*
X13820491Y-27599460D02*
X13649063Y-27856603D01*
X14077634Y-27608984D02*
X14096682Y-27608984D01*
X14096682Y-27608984D02*
X14115729Y-27618508D01*
X14115729Y-27618508D02*
X14125253Y-27628031D01*
X14125253Y-27628031D02*
X14134777Y-27647079D01*
X14134777Y-27647079D02*
X14144301Y-27685174D01*
X14144301Y-27685174D02*
X14144301Y-27732793D01*
X14144301Y-27732793D02*
X14134777Y-27770888D01*
X14134777Y-27770888D02*
X14125253Y-27789936D01*
X14125253Y-27789936D02*
X14115729Y-27799460D01*
X14115729Y-27799460D02*
X14096682Y-27808984D01*
X14096682Y-27808984D02*
X14077634Y-27808984D01*
X14077634Y-27808984D02*
X14058586Y-27799460D01*
X14058586Y-27799460D02*
X14049063Y-27789936D01*
X14049063Y-27789936D02*
X14039539Y-27770888D01*
X14039539Y-27770888D02*
X14030015Y-27732793D01*
X14030015Y-27732793D02*
X14030015Y-27685174D01*
X14030015Y-27685174D02*
X14039539Y-27647079D01*
X14039539Y-27647079D02*
X14049063Y-27628031D01*
X14049063Y-27628031D02*
X14058586Y-27618508D01*
X14058586Y-27618508D02*
X14077634Y-27608984D01*
X14230015Y-27789936D02*
X14239539Y-27799460D01*
X14239539Y-27799460D02*
X14230015Y-27808984D01*
X14230015Y-27808984D02*
X14220491Y-27799460D01*
X14220491Y-27799460D02*
X14230015Y-27789936D01*
X14230015Y-27789936D02*
X14230015Y-27808984D01*
X14430015Y-27808984D02*
X14315729Y-27808984D01*
X14372872Y-27808984D02*
X14372872Y-27608984D01*
X14372872Y-27608984D02*
X14353825Y-27637555D01*
X14353825Y-27637555D02*
X14334777Y-27656603D01*
X14334777Y-27656603D02*
X14315729Y-27666127D01*
X14496682Y-27608984D02*
X14620491Y-27608984D01*
X14620491Y-27608984D02*
X14553825Y-27685174D01*
X14553825Y-27685174D02*
X14582396Y-27685174D01*
X14582396Y-27685174D02*
X14601444Y-27694698D01*
X14601444Y-27694698D02*
X14610967Y-27704222D01*
X14610967Y-27704222D02*
X14620491Y-27723269D01*
X14620491Y-27723269D02*
X14620491Y-27770888D01*
X14620491Y-27770888D02*
X14610967Y-27789936D01*
X14610967Y-27789936D02*
X14601444Y-27799460D01*
X14601444Y-27799460D02*
X14582396Y-27808984D01*
X14582396Y-27808984D02*
X14525253Y-27808984D01*
X14525253Y-27808984D02*
X14506206Y-27799460D01*
X14506206Y-27799460D02*
X14496682Y-27789936D01*
X14687158Y-27608984D02*
X14820491Y-27608984D01*
X14820491Y-27608984D02*
X14734777Y-27808984D01*
X14925253Y-27694698D02*
X14906206Y-27685174D01*
X14906206Y-27685174D02*
X14896682Y-27675650D01*
X14896682Y-27675650D02*
X14887158Y-27656603D01*
X14887158Y-27656603D02*
X14887158Y-27647079D01*
X14887158Y-27647079D02*
X14896682Y-27628031D01*
X14896682Y-27628031D02*
X14906206Y-27618508D01*
X14906206Y-27618508D02*
X14925253Y-27608984D01*
X14925253Y-27608984D02*
X14963348Y-27608984D01*
X14963348Y-27608984D02*
X14982396Y-27618508D01*
X14982396Y-27618508D02*
X14991920Y-27628031D01*
X14991920Y-27628031D02*
X15001444Y-27647079D01*
X15001444Y-27647079D02*
X15001444Y-27656603D01*
X15001444Y-27656603D02*
X14991920Y-27675650D01*
X14991920Y-27675650D02*
X14982396Y-27685174D01*
X14982396Y-27685174D02*
X14963348Y-27694698D01*
X14963348Y-27694698D02*
X14925253Y-27694698D01*
X14925253Y-27694698D02*
X14906206Y-27704222D01*
X14906206Y-27704222D02*
X14896682Y-27713746D01*
X14896682Y-27713746D02*
X14887158Y-27732793D01*
X14887158Y-27732793D02*
X14887158Y-27770888D01*
X14887158Y-27770888D02*
X14896682Y-27789936D01*
X14896682Y-27789936D02*
X14906206Y-27799460D01*
X14906206Y-27799460D02*
X14925253Y-27808984D01*
X14925253Y-27808984D02*
X14963348Y-27808984D01*
X14963348Y-27808984D02*
X14982396Y-27799460D01*
X14982396Y-27799460D02*
X14991920Y-27789936D01*
X14991920Y-27789936D02*
X15001444Y-27770888D01*
X15001444Y-27770888D02*
X15001444Y-27732793D01*
X15001444Y-27732793D02*
X14991920Y-27713746D01*
X14991920Y-27713746D02*
X14982396Y-27704222D01*
X14982396Y-27704222D02*
X14963348Y-27694698D01*
X15077634Y-27608984D02*
X15077634Y-27647079D01*
X15153825Y-27608984D02*
X15153825Y-27647079D01*
X15449063Y-27885174D02*
X15439539Y-27875650D01*
X15439539Y-27875650D02*
X15420491Y-27847079D01*
X15420491Y-27847079D02*
X15410968Y-27828031D01*
X15410968Y-27828031D02*
X15401444Y-27799460D01*
X15401444Y-27799460D02*
X15391920Y-27751841D01*
X15391920Y-27751841D02*
X15391920Y-27713746D01*
X15391920Y-27713746D02*
X15401444Y-27666127D01*
X15401444Y-27666127D02*
X15410968Y-27637555D01*
X15410968Y-27637555D02*
X15420491Y-27618508D01*
X15420491Y-27618508D02*
X15439539Y-27589936D01*
X15439539Y-27589936D02*
X15449063Y-27580412D01*
X15553825Y-27694698D02*
X15534777Y-27685174D01*
X15534777Y-27685174D02*
X15525253Y-27675650D01*
X15525253Y-27675650D02*
X15515729Y-27656603D01*
X15515729Y-27656603D02*
X15515729Y-27647079D01*
X15515729Y-27647079D02*
X15525253Y-27628031D01*
X15525253Y-27628031D02*
X15534777Y-27618508D01*
X15534777Y-27618508D02*
X15553825Y-27608984D01*
X15553825Y-27608984D02*
X15591920Y-27608984D01*
X15591920Y-27608984D02*
X15610968Y-27618508D01*
X15610968Y-27618508D02*
X15620491Y-27628031D01*
X15620491Y-27628031D02*
X15630015Y-27647079D01*
X15630015Y-27647079D02*
X15630015Y-27656603D01*
X15630015Y-27656603D02*
X15620491Y-27675650D01*
X15620491Y-27675650D02*
X15610968Y-27685174D01*
X15610968Y-27685174D02*
X15591920Y-27694698D01*
X15591920Y-27694698D02*
X15553825Y-27694698D01*
X15553825Y-27694698D02*
X15534777Y-27704222D01*
X15534777Y-27704222D02*
X15525253Y-27713746D01*
X15525253Y-27713746D02*
X15515729Y-27732793D01*
X15515729Y-27732793D02*
X15515729Y-27770888D01*
X15515729Y-27770888D02*
X15525253Y-27789936D01*
X15525253Y-27789936D02*
X15534777Y-27799460D01*
X15534777Y-27799460D02*
X15553825Y-27808984D01*
X15553825Y-27808984D02*
X15591920Y-27808984D01*
X15591920Y-27808984D02*
X15610968Y-27799460D01*
X15610968Y-27799460D02*
X15620491Y-27789936D01*
X15620491Y-27789936D02*
X15630015Y-27770888D01*
X15630015Y-27770888D02*
X15630015Y-27732793D01*
X15630015Y-27732793D02*
X15620491Y-27713746D01*
X15620491Y-27713746D02*
X15610968Y-27704222D01*
X15610968Y-27704222D02*
X15591920Y-27694698D01*
X15868110Y-27808984D02*
X15868110Y-27608984D01*
X15953825Y-27808984D02*
X15953825Y-27704222D01*
X15953825Y-27704222D02*
X15944301Y-27685174D01*
X15944301Y-27685174D02*
X15925253Y-27675650D01*
X15925253Y-27675650D02*
X15896682Y-27675650D01*
X15896682Y-27675650D02*
X15877634Y-27685174D01*
X15877634Y-27685174D02*
X15868110Y-27694698D01*
X16077634Y-27808984D02*
X16058587Y-27799460D01*
X16058587Y-27799460D02*
X16049063Y-27789936D01*
X16049063Y-27789936D02*
X16039539Y-27770888D01*
X16039539Y-27770888D02*
X16039539Y-27713746D01*
X16039539Y-27713746D02*
X16049063Y-27694698D01*
X16049063Y-27694698D02*
X16058587Y-27685174D01*
X16058587Y-27685174D02*
X16077634Y-27675650D01*
X16077634Y-27675650D02*
X16106206Y-27675650D01*
X16106206Y-27675650D02*
X16125253Y-27685174D01*
X16125253Y-27685174D02*
X16134777Y-27694698D01*
X16134777Y-27694698D02*
X16144301Y-27713746D01*
X16144301Y-27713746D02*
X16144301Y-27770888D01*
X16144301Y-27770888D02*
X16134777Y-27789936D01*
X16134777Y-27789936D02*
X16125253Y-27799460D01*
X16125253Y-27799460D02*
X16106206Y-27808984D01*
X16106206Y-27808984D02*
X16077634Y-27808984D01*
X16258587Y-27808984D02*
X16239539Y-27799460D01*
X16239539Y-27799460D02*
X16230015Y-27780412D01*
X16230015Y-27780412D02*
X16230015Y-27608984D01*
X16410968Y-27799460D02*
X16391920Y-27808984D01*
X16391920Y-27808984D02*
X16353825Y-27808984D01*
X16353825Y-27808984D02*
X16334777Y-27799460D01*
X16334777Y-27799460D02*
X16325253Y-27780412D01*
X16325253Y-27780412D02*
X16325253Y-27704222D01*
X16325253Y-27704222D02*
X16334777Y-27685174D01*
X16334777Y-27685174D02*
X16353825Y-27675650D01*
X16353825Y-27675650D02*
X16391920Y-27675650D01*
X16391920Y-27675650D02*
X16410968Y-27685174D01*
X16410968Y-27685174D02*
X16420491Y-27704222D01*
X16420491Y-27704222D02*
X16420491Y-27723269D01*
X16420491Y-27723269D02*
X16325253Y-27742317D01*
X16496682Y-27799460D02*
X16515730Y-27808984D01*
X16515730Y-27808984D02*
X16553825Y-27808984D01*
X16553825Y-27808984D02*
X16572872Y-27799460D01*
X16572872Y-27799460D02*
X16582396Y-27780412D01*
X16582396Y-27780412D02*
X16582396Y-27770888D01*
X16582396Y-27770888D02*
X16572872Y-27751841D01*
X16572872Y-27751841D02*
X16553825Y-27742317D01*
X16553825Y-27742317D02*
X16525253Y-27742317D01*
X16525253Y-27742317D02*
X16506206Y-27732793D01*
X16506206Y-27732793D02*
X16496682Y-27713746D01*
X16496682Y-27713746D02*
X16496682Y-27704222D01*
X16496682Y-27704222D02*
X16506206Y-27685174D01*
X16506206Y-27685174D02*
X16525253Y-27675650D01*
X16525253Y-27675650D02*
X16553825Y-27675650D01*
X16553825Y-27675650D02*
X16572872Y-27685174D01*
X16649063Y-27885174D02*
X16658587Y-27875650D01*
X16658587Y-27875650D02*
X16677634Y-27847079D01*
X16677634Y-27847079D02*
X16687158Y-27828031D01*
X16687158Y-27828031D02*
X16696682Y-27799460D01*
X16696682Y-27799460D02*
X16706206Y-27751841D01*
X16706206Y-27751841D02*
X16706206Y-27713746D01*
X16706206Y-27713746D02*
X16696682Y-27666127D01*
X16696682Y-27666127D02*
X16687158Y-27637555D01*
X16687158Y-27637555D02*
X16677634Y-27618508D01*
X16677634Y-27618508D02*
X16658587Y-27589936D01*
X16658587Y-27589936D02*
X16649063Y-27580412D01*
X17010968Y-27885174D02*
X17001444Y-27875650D01*
X17001444Y-27875650D02*
X16982396Y-27847079D01*
X16982396Y-27847079D02*
X16972873Y-27828031D01*
X16972873Y-27828031D02*
X16963349Y-27799460D01*
X16963349Y-27799460D02*
X16953825Y-27751841D01*
X16953825Y-27751841D02*
X16953825Y-27713746D01*
X16953825Y-27713746D02*
X16963349Y-27666127D01*
X16963349Y-27666127D02*
X16972873Y-27637555D01*
X16972873Y-27637555D02*
X16982396Y-27618508D01*
X16982396Y-27618508D02*
X17001444Y-27589936D01*
X17001444Y-27589936D02*
X17010968Y-27580412D01*
X17087158Y-27675650D02*
X17087158Y-27808984D01*
X17087158Y-27694698D02*
X17096682Y-27685174D01*
X17096682Y-27685174D02*
X17115730Y-27675650D01*
X17115730Y-27675650D02*
X17144301Y-27675650D01*
X17144301Y-27675650D02*
X17163349Y-27685174D01*
X17163349Y-27685174D02*
X17172873Y-27704222D01*
X17172873Y-27704222D02*
X17172873Y-27808984D01*
X17296682Y-27808984D02*
X17277634Y-27799460D01*
X17277634Y-27799460D02*
X17268111Y-27789936D01*
X17268111Y-27789936D02*
X17258587Y-27770888D01*
X17258587Y-27770888D02*
X17258587Y-27713746D01*
X17258587Y-27713746D02*
X17268111Y-27694698D01*
X17268111Y-27694698D02*
X17277634Y-27685174D01*
X17277634Y-27685174D02*
X17296682Y-27675650D01*
X17296682Y-27675650D02*
X17325254Y-27675650D01*
X17325254Y-27675650D02*
X17344301Y-27685174D01*
X17344301Y-27685174D02*
X17353825Y-27694698D01*
X17353825Y-27694698D02*
X17363349Y-27713746D01*
X17363349Y-27713746D02*
X17363349Y-27770888D01*
X17363349Y-27770888D02*
X17353825Y-27789936D01*
X17353825Y-27789936D02*
X17344301Y-27799460D01*
X17344301Y-27799460D02*
X17325254Y-27808984D01*
X17325254Y-27808984D02*
X17296682Y-27808984D01*
X17420492Y-27675650D02*
X17496682Y-27675650D01*
X17449063Y-27608984D02*
X17449063Y-27780412D01*
X17449063Y-27780412D02*
X17458587Y-27799460D01*
X17458587Y-27799460D02*
X17477634Y-27808984D01*
X17477634Y-27808984D02*
X17496682Y-27808984D01*
X17715730Y-27675650D02*
X17715730Y-27875650D01*
X17715730Y-27685174D02*
X17734777Y-27675650D01*
X17734777Y-27675650D02*
X17772873Y-27675650D01*
X17772873Y-27675650D02*
X17791920Y-27685174D01*
X17791920Y-27685174D02*
X17801444Y-27694698D01*
X17801444Y-27694698D02*
X17810968Y-27713746D01*
X17810968Y-27713746D02*
X17810968Y-27770888D01*
X17810968Y-27770888D02*
X17801444Y-27789936D01*
X17801444Y-27789936D02*
X17791920Y-27799460D01*
X17791920Y-27799460D02*
X17772873Y-27808984D01*
X17772873Y-27808984D02*
X17734777Y-27808984D01*
X17734777Y-27808984D02*
X17715730Y-27799460D01*
X17925254Y-27808984D02*
X17906206Y-27799460D01*
X17906206Y-27799460D02*
X17896682Y-27780412D01*
X17896682Y-27780412D02*
X17896682Y-27608984D01*
X18087158Y-27808984D02*
X18087158Y-27704222D01*
X18087158Y-27704222D02*
X18077635Y-27685174D01*
X18077635Y-27685174D02*
X18058587Y-27675650D01*
X18058587Y-27675650D02*
X18020492Y-27675650D01*
X18020492Y-27675650D02*
X18001444Y-27685174D01*
X18087158Y-27799460D02*
X18068111Y-27808984D01*
X18068111Y-27808984D02*
X18020492Y-27808984D01*
X18020492Y-27808984D02*
X18001444Y-27799460D01*
X18001444Y-27799460D02*
X17991920Y-27780412D01*
X17991920Y-27780412D02*
X17991920Y-27761365D01*
X17991920Y-27761365D02*
X18001444Y-27742317D01*
X18001444Y-27742317D02*
X18020492Y-27732793D01*
X18020492Y-27732793D02*
X18068111Y-27732793D01*
X18068111Y-27732793D02*
X18087158Y-27723269D01*
X18153825Y-27675650D02*
X18230015Y-27675650D01*
X18182396Y-27608984D02*
X18182396Y-27780412D01*
X18182396Y-27780412D02*
X18191920Y-27799460D01*
X18191920Y-27799460D02*
X18210968Y-27808984D01*
X18210968Y-27808984D02*
X18230015Y-27808984D01*
X18372873Y-27799460D02*
X18353825Y-27808984D01*
X18353825Y-27808984D02*
X18315730Y-27808984D01*
X18315730Y-27808984D02*
X18296682Y-27799460D01*
X18296682Y-27799460D02*
X18287158Y-27780412D01*
X18287158Y-27780412D02*
X18287158Y-27704222D01*
X18287158Y-27704222D02*
X18296682Y-27685174D01*
X18296682Y-27685174D02*
X18315730Y-27675650D01*
X18315730Y-27675650D02*
X18353825Y-27675650D01*
X18353825Y-27675650D02*
X18372873Y-27685174D01*
X18372873Y-27685174D02*
X18382396Y-27704222D01*
X18382396Y-27704222D02*
X18382396Y-27723269D01*
X18382396Y-27723269D02*
X18287158Y-27742317D01*
X18553825Y-27808984D02*
X18553825Y-27608984D01*
X18553825Y-27799460D02*
X18534777Y-27808984D01*
X18534777Y-27808984D02*
X18496682Y-27808984D01*
X18496682Y-27808984D02*
X18477635Y-27799460D01*
X18477635Y-27799460D02*
X18468111Y-27789936D01*
X18468111Y-27789936D02*
X18458587Y-27770888D01*
X18458587Y-27770888D02*
X18458587Y-27713746D01*
X18458587Y-27713746D02*
X18468111Y-27694698D01*
X18468111Y-27694698D02*
X18477635Y-27685174D01*
X18477635Y-27685174D02*
X18496682Y-27675650D01*
X18496682Y-27675650D02*
X18534777Y-27675650D01*
X18534777Y-27675650D02*
X18553825Y-27685174D01*
X18630016Y-27885174D02*
X18639539Y-27875650D01*
X18639539Y-27875650D02*
X18658587Y-27847079D01*
X18658587Y-27847079D02*
X18668111Y-27828031D01*
X18668111Y-27828031D02*
X18677635Y-27799460D01*
X18677635Y-27799460D02*
X18687158Y-27751841D01*
X18687158Y-27751841D02*
X18687158Y-27713746D01*
X18687158Y-27713746D02*
X18677635Y-27666127D01*
X18677635Y-27666127D02*
X18668111Y-27637555D01*
X18668111Y-27637555D02*
X18658587Y-27618508D01*
X18658587Y-27618508D02*
X18639539Y-27589936D01*
X18639539Y-27589936D02*
X18630016Y-27580412D01*
M02*
