%TF.GenerationSoftware,KiCad,Pcbnew,8.0.6*%
%TF.CreationDate,2025-06-02T15:06:51-04:00*%
%TF.ProjectId,CAEN_NEVIS_DAQ_PM5V,4341454e-5f4e-4455-9649-535f4441515f,rev?*%
%TF.SameCoordinates,Original*%
%TF.FileFunction,Copper,L1,Top*%
%TF.FilePolarity,Positive*%
%FSLAX46Y46*%
G04 Gerber Fmt 4.6, Leading zero omitted, Abs format (unit mm)*
G04 Created by KiCad (PCBNEW 8.0.6) date 2025-06-02 15:06:51*
%MOMM*%
%LPD*%
G01*
G04 APERTURE LIST*
G04 Aperture macros list*
%AMRoundRect*
0 Rectangle with rounded corners*
0 $1 Rounding radius*
0 $2 $3 $4 $5 $6 $7 $8 $9 X,Y pos of 4 corners*
0 Add a 4 corners polygon primitive as box body*
4,1,4,$2,$3,$4,$5,$6,$7,$8,$9,$2,$3,0*
0 Add four circle primitives for the rounded corners*
1,1,$1+$1,$2,$3*
1,1,$1+$1,$4,$5*
1,1,$1+$1,$6,$7*
1,1,$1+$1,$8,$9*
0 Add four rect primitives between the rounded corners*
20,1,$1+$1,$2,$3,$4,$5,0*
20,1,$1+$1,$4,$5,$6,$7,0*
20,1,$1+$1,$6,$7,$8,$9,0*
20,1,$1+$1,$8,$9,$2,$3,0*%
G04 Aperture macros list end*
%TA.AperFunction,SMDPad,CuDef*%
%ADD10RoundRect,0.225000X0.250000X-0.225000X0.250000X0.225000X-0.250000X0.225000X-0.250000X-0.225000X0*%
%TD*%
%TA.AperFunction,SMDPad,CuDef*%
%ADD11RoundRect,0.250000X0.425000X-0.450000X0.425000X0.450000X-0.425000X0.450000X-0.425000X-0.450000X0*%
%TD*%
%TA.AperFunction,SMDPad,CuDef*%
%ADD12RoundRect,0.140000X0.170000X-0.140000X0.170000X0.140000X-0.170000X0.140000X-0.170000X-0.140000X0*%
%TD*%
%TA.AperFunction,ComponentPad*%
%ADD13C,6.400000*%
%TD*%
%TA.AperFunction,SMDPad,CuDef*%
%ADD14RoundRect,0.250000X1.025000X-0.787500X1.025000X0.787500X-1.025000X0.787500X-1.025000X-0.787500X0*%
%TD*%
%TA.AperFunction,SMDPad,CuDef*%
%ADD15RoundRect,0.200000X0.200000X0.275000X-0.200000X0.275000X-0.200000X-0.275000X0.200000X-0.275000X0*%
%TD*%
%TA.AperFunction,SMDPad,CuDef*%
%ADD16RoundRect,0.225000X-0.250000X0.225000X-0.250000X-0.225000X0.250000X-0.225000X0.250000X0.225000X0*%
%TD*%
%TA.AperFunction,SMDPad,CuDef*%
%ADD17RoundRect,0.170000X2.330000X-1.530000X2.330000X1.530000X-2.330000X1.530000X-2.330000X-1.530000X0*%
%TD*%
%TA.AperFunction,SMDPad,CuDef*%
%ADD18RoundRect,0.200000X-0.200000X-0.275000X0.200000X-0.275000X0.200000X0.275000X-0.200000X0.275000X0*%
%TD*%
%TA.AperFunction,ComponentPad*%
%ADD19C,2.159000*%
%TD*%
%TA.AperFunction,SMDPad,CuDef*%
%ADD20RoundRect,0.250000X-0.275000X0.312500X-0.275000X-0.312500X0.275000X-0.312500X0.275000X0.312500X0*%
%TD*%
%TA.AperFunction,SMDPad,CuDef*%
%ADD21RoundRect,0.225000X-0.225000X-0.250000X0.225000X-0.250000X0.225000X0.250000X-0.225000X0.250000X0*%
%TD*%
%TA.AperFunction,SMDPad,CuDef*%
%ADD22R,0.558800X1.473200*%
%TD*%
%TA.AperFunction,SMDPad,CuDef*%
%ADD23RoundRect,0.250000X-0.625000X0.312500X-0.625000X-0.312500X0.625000X-0.312500X0.625000X0.312500X0*%
%TD*%
%TA.AperFunction,SMDPad,CuDef*%
%ADD24RoundRect,0.250000X0.275000X-0.312500X0.275000X0.312500X-0.275000X0.312500X-0.275000X-0.312500X0*%
%TD*%
%TA.AperFunction,SMDPad,CuDef*%
%ADD25RoundRect,0.250000X-0.312500X-0.625000X0.312500X-0.625000X0.312500X0.625000X-0.312500X0.625000X0*%
%TD*%
%TA.AperFunction,SMDPad,CuDef*%
%ADD26R,0.350800X1.161200*%
%TD*%
%TA.AperFunction,ComponentPad*%
%ADD27R,2.800000X2.800000*%
%TD*%
%TA.AperFunction,ComponentPad*%
%ADD28C,2.800000*%
%TD*%
%TA.AperFunction,ComponentPad*%
%ADD29C,4.800000*%
%TD*%
%TA.AperFunction,SMDPad,CuDef*%
%ADD30R,0.889000X1.016000*%
%TD*%
%TA.AperFunction,SMDPad,CuDef*%
%ADD31R,3.200000X1.000000*%
%TD*%
%TA.AperFunction,SMDPad,CuDef*%
%ADD32RoundRect,0.200000X-0.275000X0.200000X-0.275000X-0.200000X0.275000X-0.200000X0.275000X0.200000X0*%
%TD*%
%TA.AperFunction,SMDPad,CuDef*%
%ADD33R,0.558800X1.981200*%
%TD*%
%TA.AperFunction,SMDPad,CuDef*%
%ADD34RoundRect,0.075000X-0.910000X-0.225000X0.910000X-0.225000X0.910000X0.225000X-0.910000X0.225000X0*%
%TD*%
%TA.AperFunction,ComponentPad*%
%ADD35C,1.575000*%
%TD*%
%TA.AperFunction,ComponentPad*%
%ADD36C,4.216000*%
%TD*%
%TA.AperFunction,SMDPad,CuDef*%
%ADD37RoundRect,0.073750X-0.556250X-0.221250X0.556250X-0.221250X0.556250X0.221250X-0.556250X0.221250X0*%
%TD*%
%TA.AperFunction,SMDPad,CuDef*%
%ADD38RoundRect,0.140000X-0.170000X0.140000X-0.170000X-0.140000X0.170000X-0.140000X0.170000X0.140000X0*%
%TD*%
%TA.AperFunction,SMDPad,CuDef*%
%ADD39RoundRect,0.250000X-0.425000X0.450000X-0.425000X-0.450000X0.425000X-0.450000X0.425000X0.450000X0*%
%TD*%
%TA.AperFunction,SMDPad,CuDef*%
%ADD40RoundRect,0.250000X-1.025000X0.787500X-1.025000X-0.787500X1.025000X-0.787500X1.025000X0.787500X0*%
%TD*%
%TA.AperFunction,SMDPad,CuDef*%
%ADD41RoundRect,0.475000X1.125000X-0.475000X1.125000X0.475000X-1.125000X0.475000X-1.125000X-0.475000X0*%
%TD*%
%TA.AperFunction,SMDPad,CuDef*%
%ADD42RoundRect,0.250000X0.625000X-0.312500X0.625000X0.312500X-0.625000X0.312500X-0.625000X-0.312500X0*%
%TD*%
%TA.AperFunction,SMDPad,CuDef*%
%ADD43R,0.584200X2.159000*%
%TD*%
%TA.AperFunction,SMDPad,CuDef*%
%ADD44R,1.161200X0.350800*%
%TD*%
%TA.AperFunction,SMDPad,CuDef*%
%ADD45RoundRect,0.200000X0.275000X-0.200000X0.275000X0.200000X-0.275000X0.200000X-0.275000X-0.200000X0*%
%TD*%
%TA.AperFunction,SMDPad,CuDef*%
%ADD46RoundRect,0.250000X-0.450000X-0.425000X0.450000X-0.425000X0.450000X0.425000X-0.450000X0.425000X0*%
%TD*%
%TA.AperFunction,ComponentPad*%
%ADD47C,2.006600*%
%TD*%
%TA.AperFunction,ComponentPad*%
%ADD48C,2.209800*%
%TD*%
%TA.AperFunction,SMDPad,CuDef*%
%ADD49RoundRect,0.225000X0.225000X0.250000X-0.225000X0.250000X-0.225000X-0.250000X0.225000X-0.250000X0*%
%TD*%
%TA.AperFunction,SMDPad,CuDef*%
%ADD50RoundRect,0.135000X0.135000X0.185000X-0.135000X0.185000X-0.135000X-0.185000X0.135000X-0.185000X0*%
%TD*%
%TA.AperFunction,ComponentPad*%
%ADD51R,2.000000X2.000000*%
%TD*%
%TA.AperFunction,ComponentPad*%
%ADD52C,2.000000*%
%TD*%
%TA.AperFunction,SMDPad,CuDef*%
%ADD53RoundRect,0.140000X-0.140000X-0.170000X0.140000X-0.170000X0.140000X0.170000X-0.140000X0.170000X0*%
%TD*%
%TA.AperFunction,SMDPad,CuDef*%
%ADD54RoundRect,0.135000X-0.135000X-0.185000X0.135000X-0.185000X0.135000X0.185000X-0.135000X0.185000X0*%
%TD*%
%TA.AperFunction,SMDPad,CuDef*%
%ADD55RoundRect,0.250000X0.250000X0.475000X-0.250000X0.475000X-0.250000X-0.475000X0.250000X-0.475000X0*%
%TD*%
%TA.AperFunction,SMDPad,CuDef*%
%ADD56RoundRect,0.245000X-0.245000X-1.455000X0.245000X-1.455000X0.245000X1.455000X-0.245000X1.455000X0*%
%TD*%
%TA.AperFunction,SMDPad,CuDef*%
%ADD57RoundRect,0.250000X0.312500X0.275000X-0.312500X0.275000X-0.312500X-0.275000X0.312500X-0.275000X0*%
%TD*%
%TA.AperFunction,SMDPad,CuDef*%
%ADD58RoundRect,0.250000X-0.250000X-0.475000X0.250000X-0.475000X0.250000X0.475000X-0.250000X0.475000X0*%
%TD*%
%TA.AperFunction,ComponentPad*%
%ADD59C,1.560000*%
%TD*%
%TA.AperFunction,SMDPad,CuDef*%
%ADD60RoundRect,0.250000X0.262500X0.450000X-0.262500X0.450000X-0.262500X-0.450000X0.262500X-0.450000X0*%
%TD*%
%TA.AperFunction,SMDPad,CuDef*%
%ADD61R,1.600200X0.838200*%
%TD*%
%TA.AperFunction,SMDPad,CuDef*%
%ADD62R,1.600200X3.048000*%
%TD*%
%TA.AperFunction,SMDPad,CuDef*%
%ADD63RoundRect,0.073750X0.556250X0.221250X-0.556250X0.221250X-0.556250X-0.221250X0.556250X-0.221250X0*%
%TD*%
%TA.AperFunction,SMDPad,CuDef*%
%ADD64R,0.558800X1.651000*%
%TD*%
%TA.AperFunction,ViaPad*%
%ADD65C,0.600000*%
%TD*%
%TA.AperFunction,ViaPad*%
%ADD66C,1.200000*%
%TD*%
%TA.AperFunction,Conductor*%
%ADD67C,0.200000*%
%TD*%
%TA.AperFunction,Conductor*%
%ADD68C,0.500000*%
%TD*%
%TA.AperFunction,Conductor*%
%ADD69C,1.000000*%
%TD*%
%TA.AperFunction,Conductor*%
%ADD70C,0.600000*%
%TD*%
%TA.AperFunction,Conductor*%
%ADD71C,0.300000*%
%TD*%
G04 APERTURE END LIST*
D10*
%TO.P,R28,1*%
%TO.N,Net-(U12B--INB)*%
X278970000Y-144065000D03*
%TO.P,R28,2*%
%TO.N,/M5V_OUT*%
X278970000Y-142515000D03*
%TD*%
D11*
%TO.P,C39,1*%
%TO.N,/Telemetry_PWR/Telem_5V1/V_POS*%
X185356250Y-247500001D03*
%TO.P,C39,2*%
%TO.N,/Telemetry_PWR/Telem_5V1/V_RTN*%
X185356250Y-244800001D03*
%TD*%
D12*
%TO.P,C63,1*%
%TO.N,/Telemetry_CKT/V3p3*%
X243895000Y-182200000D03*
%TO.P,C63,2*%
%TO.N,/PM5V_TELEM_RTN*%
X243895000Y-181240000D03*
%TD*%
D13*
%TO.P,H13,1,1*%
%TO.N,GNDPWR*%
X184000000Y-262000000D03*
%TD*%
D14*
%TO.P,C29,1*%
%TO.N,Net-(C29-Pad1)*%
X159025000Y-210472500D03*
%TO.P,C29,2*%
%TO.N,/V_TELEM_RTN*%
X159025000Y-204247500D03*
%TD*%
D13*
%TO.P,H6,1,1*%
%TO.N,GNDPWR*%
X125000000Y-203000000D03*
%TD*%
D15*
%TO.P,R43,1*%
%TO.N,Net-(P3-Pad1)*%
X252845000Y-215770000D03*
%TO.P,R43,2*%
%TO.N,/P5V_TELEM*%
X251195000Y-215770000D03*
%TD*%
D13*
%TO.P,H14,1,1*%
%TO.N,GNDPWR*%
X279000000Y-119000000D03*
%TD*%
D16*
%TO.P,C54,1*%
%TO.N,Net-(U9-SET)*%
X234480000Y-210975000D03*
%TO.P,C54,2*%
%TO.N,/PM5V_TELEM_RTN*%
X234480000Y-212525000D03*
%TD*%
D11*
%TO.P,C46,1*%
%TO.N,/PM5V_TELEM_RTN*%
X215446250Y-247714999D03*
%TO.P,C46,2*%
%TO.N,/M5V_TELEM*%
X215446250Y-245014999D03*
%TD*%
D13*
%TO.P,H4,1,1*%
%TO.N,GNDPWR*%
X125000000Y-119000000D03*
%TD*%
D17*
%TO.P,L5,1,1*%
%TO.N,Net-(C29-Pad1)*%
X168315000Y-215681000D03*
%TO.P,L5,2,2*%
%TO.N,/Telemetry_PWR/Telem_5V/V_POS*%
X177915000Y-215681000D03*
%TD*%
D18*
%TO.P,R16,1*%
%TO.N,/V_TELEM_IN*%
X167135000Y-189320000D03*
%TO.P,R16,2*%
%TO.N,Net-(Q1-Pad1)*%
X168785000Y-189320000D03*
%TD*%
D11*
%TO.P,C37,1*%
%TO.N,/P5V_TELEM*%
X215845000Y-208985000D03*
%TO.P,C37,2*%
%TO.N,/PM5V_TELEM_RTN*%
X215845000Y-206285000D03*
%TD*%
D19*
%TO.P,P4,1,1*%
%TO.N,Net-(M3-Pad3)*%
X260040000Y-200620000D03*
%TD*%
D20*
%TO.P,C59,1*%
%TO.N,/PM5V_TELEM_RTN*%
X220150000Y-241895000D03*
%TO.P,C59,2*%
%TO.N,/M5V_TELEM*%
X220150000Y-243670000D03*
%TD*%
D18*
%TO.P,F3,1*%
%TO.N,/V_TELEM_IN*%
X151710000Y-210480000D03*
%TO.P,F3,2*%
%TO.N,Net-(C29-Pad1)*%
X153360000Y-210480000D03*
%TD*%
D21*
%TO.P,R38,1*%
%TO.N,/TEMP_MON*%
X199905000Y-186230000D03*
%TO.P,R38,2*%
%TO.N,Net-(C64-Pad2)*%
X201455000Y-186230000D03*
%TD*%
D22*
%TO.P,U2,1,VCC*%
%TO.N,/Main_DC-DC_Converters/V3p3*%
X147660000Y-180632400D03*
%TO.P,U2,2,GND*%
%TO.N,/V_TELEM_RTN*%
X146709999Y-180632400D03*
%TO.P,U2,3,A*%
%TO.N,/Enable+*%
X145759998Y-180632400D03*
%TO.P,U2,4,B*%
%TO.N,/Enable-*%
X145759998Y-183020000D03*
%TO.P,U2,5,R*%
%TO.N,Net-(U2-R)*%
X147660000Y-183020000D03*
%TD*%
D18*
%TO.P,R7,1*%
%TO.N,Net-(U2-R)*%
X154445000Y-185370000D03*
%TO.P,R7,2*%
%TO.N,/Main_DC-DC_Converters/Enable_SIG*%
X156095000Y-185370000D03*
%TD*%
D23*
%TO.P,R11,1*%
%TO.N,Net-(C19-Pad2)*%
X184775000Y-137147500D03*
%TO.P,R11,2*%
%TO.N,/Main_DC-DC_Converters/Enable_CKT/RTN*%
X184775000Y-140072500D03*
%TD*%
D24*
%TO.P,C65,1*%
%TO.N,/PM5V_TELEM_RTN*%
X229510000Y-251807500D03*
%TO.P,C65,2*%
%TO.N,/Telemetry_CKT/nV3p3*%
X229510000Y-250032500D03*
%TD*%
D25*
%TO.P,F1,1*%
%TO.N,/V_SEC_IN*%
X138127500Y-65752500D03*
%TO.P,F1,2*%
%TO.N,Net-(F1-Pad2)*%
X141052500Y-65752500D03*
%TD*%
D26*
%TO.P,M2,1,1*%
%TO.N,Net-(M2-Pad1)*%
X185140000Y-162520000D03*
%TO.P,M2,2,2*%
%TO.N,/Main_DC-DC_Converters/Enable_CKT/RTN*%
X186139998Y-162520000D03*
%TO.P,M2,3,3*%
%TO.N,/Main_DC-DC_Converters/Enable_CKT/Enable*%
X185639999Y-161170000D03*
%TD*%
D27*
%TO.P,U4,1,+VIN*%
%TO.N,Net-(U4-+VIN)*%
X196235000Y-116540000D03*
D28*
%TO.P,U4,2,ON/OFF*%
%TO.N,/Main_DC-DC_Converters/Enable_CKT/Enable*%
X196235000Y-126700000D03*
%TO.P,U4,3,CASE*%
%TO.N,GNDPWR*%
X196235000Y-141940000D03*
%TO.P,U4,4,-VIN*%
%TO.N,/Main_DC-DC_Converters/Enable_CKT/RTN*%
X196235000Y-152100000D03*
D29*
%TO.P,U4,5,-VO*%
%TO.N,/M5V*%
X244485000Y-152100000D03*
D28*
%TO.P,U4,6,-S*%
X244485000Y-141940000D03*
%TO.P,U4,7,TRIM*%
%TO.N,unconnected-(U4-TRIM-Pad7)*%
X244485000Y-134320000D03*
%TO.P,U4,8,+S*%
%TO.N,/PM5_RTN*%
X244485000Y-126700000D03*
D29*
%TO.P,U4,9,+VO*%
X244485000Y-116540000D03*
%TD*%
D30*
%TO.P,U9,1,SET*%
%TO.N,Net-(U9-SET)*%
X229239900Y-209267500D03*
%TO.P,U9,2,OUT*%
%TO.N,/Telemetry_CKT/V3p3*%
X226928500Y-209267500D03*
%TO.P,U9,3,IN*%
%TO.N,/P5V_TELEM*%
X224617100Y-209267500D03*
D31*
%TO.P,U9,4,TAB*%
%TO.N,/Telemetry_CKT/V3p3*%
X226928500Y-216260000D03*
%TD*%
D32*
%TO.P,R35,1*%
%TO.N,Net-(U12A-A_OUT)*%
X246730000Y-193235000D03*
%TO.P,R35,2*%
%TO.N,/P5V_V_MON*%
X246730000Y-194885000D03*
%TD*%
D19*
%TO.P,P2,1,1*%
%TO.N,Net-(P2-Pad1)*%
X259760000Y-247070000D03*
%TD*%
D33*
%TO.P,U12,1,A_OUT*%
%TO.N,Net-(U12A-A_OUT)*%
X246555000Y-188193800D03*
%TO.P,U12,2,-INA*%
%TO.N,Net-(U12A--INA)*%
X247825000Y-188193800D03*
%TO.P,U12,3,+INA*%
%TO.N,Net-(U12A-+INA)*%
X249095000Y-188193800D03*
%TO.P,U12,4,VSS*%
%TO.N,/Telemetry_CKT/nV3p3*%
X250365000Y-188193800D03*
%TO.P,U12,5,+INB*%
%TO.N,Net-(U12B-+INB)*%
X250365000Y-183266200D03*
%TO.P,U12,6,-INB*%
%TO.N,Net-(U12B--INB)*%
X249095000Y-183266200D03*
%TO.P,U12,7,B_OUT*%
%TO.N,Net-(U12B-B_OUT)*%
X247825000Y-183266200D03*
%TO.P,U12,8,VCC*%
%TO.N,/Telemetry_CKT/V3p3*%
X246555000Y-183266200D03*
%TD*%
D15*
%TO.P,R42,1*%
%TO.N,Net-(P2-Pad1)*%
X252765000Y-247060000D03*
%TO.P,R42,2*%
%TO.N,/P5V_TELEM*%
X251115000Y-247060000D03*
%TD*%
D12*
%TO.P,C48,1*%
%TO.N,/Telemetry_CKT/V3p3*%
X271620000Y-141470000D03*
%TO.P,C48,2*%
%TO.N,/PM5V_TELEM_RTN*%
X271620000Y-140510000D03*
%TD*%
D34*
%TO.P,U7,1,-IN*%
%TO.N,/M5V*%
X262265000Y-139085000D03*
%TO.P,U7,2,GND*%
%TO.N,/PM5V_TELEM_RTN*%
X262265000Y-140355000D03*
%TO.P,U7,3,REF2*%
X262265000Y-141625000D03*
%TO.P,U7,4*%
%TO.N,N/C*%
X262265000Y-142895000D03*
%TO.P,U7,5,OUT*%
%TO.N,Net-(U7-OUT)*%
X267205000Y-142895000D03*
%TO.P,U7,6,V+*%
%TO.N,/Telemetry_CKT/V3p3*%
X267205000Y-141625000D03*
%TO.P,U7,7,REF1*%
%TO.N,/PM5V_TELEM_RTN*%
X267205000Y-140355000D03*
%TO.P,U7,8,+IN*%
%TO.N,/M5V_OUT*%
X267205000Y-139085000D03*
%TD*%
D35*
%TO.P,J1,1*%
%TO.N,/Enable+*%
X132710000Y-181730000D03*
%TO.P,J1,2*%
%TO.N,/P5V_V_MON*%
X132710000Y-179440000D03*
%TO.P,J1,3*%
%TO.N,unconnected-(J1-Pad3)*%
X132710000Y-177150000D03*
%TO.P,J1,4*%
%TO.N,/M5V_I_MON*%
X132710000Y-174860000D03*
%TO.P,J1,5*%
%TO.N,/P5V_I_MON*%
X132710000Y-172570000D03*
%TO.P,J1,6*%
%TO.N,/Enable-*%
X130170000Y-182875000D03*
%TO.P,J1,7*%
%TO.N,/PM5V_TELEM_RTN*%
X130170000Y-180585000D03*
%TO.P,J1,8*%
%TO.N,/M5V_V_MON*%
X130170000Y-178295000D03*
%TO.P,J1,9*%
%TO.N,/PM5V_TELEM_RTN*%
X130170000Y-176005000D03*
%TO.P,J1,10*%
X130170000Y-173715000D03*
%TO.P,J1,11*%
X127630000Y-181730000D03*
%TO.P,J1,12*%
X127630000Y-179440000D03*
%TO.P,J1,13*%
%TO.N,unconnected-(J1-Pad13)*%
X127630000Y-177150000D03*
%TO.P,J1,14*%
%TO.N,/PM5V_TELEM_RTN*%
X127630000Y-174860000D03*
%TO.P,J1,15*%
%TO.N,/TEMP_MON*%
X127630000Y-172570000D03*
D36*
%TO.P,J1,S1*%
%TO.N,GNDPWR*%
X130170000Y-164909000D03*
%TO.P,J1,S2*%
X130170000Y-189899000D03*
%TD*%
D21*
%TO.P,C28,1*%
%TO.N,GNDPWR*%
X206925000Y-261150000D03*
%TO.P,C28,2*%
%TO.N,/PM5V_TELEM_RTN*%
X208475000Y-261150000D03*
%TD*%
D37*
%TO.P,D2,1,1*%
%TO.N,/PM5_RTN*%
X255140000Y-54520000D03*
%TO.P,D2,2,2*%
%TO.N,unconnected-(D2-Pad2)*%
X255140000Y-56420000D03*
%TO.P,D2,3,3*%
%TO.N,Net-(D2-Pad3)*%
X257100000Y-55470000D03*
%TD*%
D38*
%TO.P,C61,1*%
%TO.N,/Telemetry_CKT/nV3p3*%
X253050000Y-189290000D03*
%TO.P,C61,2*%
%TO.N,/PM5V_TELEM_RTN*%
X253050000Y-190250000D03*
%TD*%
D39*
%TO.P,C16,1*%
%TO.N,/P5V*%
X252565000Y-59450000D03*
%TO.P,C16,2*%
%TO.N,/PM5_RTN*%
X252565000Y-62150000D03*
%TD*%
D40*
%TO.P,C9,1*%
%TO.N,Net-(U3-+VIN)*%
X185345000Y-49845000D03*
%TO.P,C9,2*%
%TO.N,Net-(C9-Pad2)*%
X185345000Y-56070000D03*
%TD*%
D12*
%TO.P,C62,1*%
%TO.N,/Telemetry_CKT/V3p3*%
X245125000Y-182220000D03*
%TO.P,C62,2*%
%TO.N,/PM5V_TELEM_RTN*%
X245125000Y-181260000D03*
%TD*%
D41*
%TO.P,L9,1*%
%TO.N,Net-(L2-Pad1)*%
X163980000Y-57780000D03*
%TO.P,L9,2*%
%TO.N,Net-(L1-Pad1)*%
X163980000Y-61480000D03*
%TO.P,L9,3*%
%TO.N,Net-(F1-Pad2)*%
X151380000Y-61480000D03*
%TO.P,L9,4*%
%TO.N,/V_SEC_RTN*%
X151380000Y-57780000D03*
%TD*%
D42*
%TO.P,R8,1*%
%TO.N,Net-(F1-Pad2)*%
X143510000Y-65745000D03*
%TO.P,R8,2*%
%TO.N,Net-(C7-Pad1)*%
X143510000Y-62820000D03*
%TD*%
D14*
%TO.P,C17,1*%
%TO.N,Net-(C17-Pad1)*%
X143240000Y-131592500D03*
%TO.P,C17,2*%
%TO.N,/V_SEC_RTN*%
X143240000Y-125367500D03*
%TD*%
D43*
%TO.P,R1,1*%
%TO.N,/P5V*%
X260966600Y-59460000D03*
%TO.P,R1,2*%
%TO.N,/P5V_OUT*%
X262033400Y-59460000D03*
%TD*%
D28*
%TO.P,V_{EN}1,1,1*%
%TO.N,/Main_DC-DC_Converters/Enable_CKT/Enable*%
X177270000Y-147230000D03*
%TD*%
D18*
%TO.P,R14,1*%
%TO.N,/Main_DC-DC_Converters/Enable_SIG*%
X179935000Y-176640000D03*
%TO.P,R14,2*%
%TO.N,Net-(M1-Pad1)*%
X181585000Y-176640000D03*
%TD*%
D44*
%TO.P,M4,1,1*%
%TO.N,/M5V_V_MON*%
X250600000Y-231450000D03*
%TO.P,M4,2,2*%
%TO.N,/PM5V_TELEM_RTN*%
X250600000Y-232449998D03*
%TO.P,M4,3,3*%
%TO.N,Net-(M4-Pad3)*%
X251950000Y-231949999D03*
%TD*%
D45*
%TO.P,R39,1*%
%TO.N,/PM5V_TELEM_RTN*%
X231580000Y-251755000D03*
%TO.P,R39,2*%
%TO.N,/Telemetry_CKT/nV3p3*%
X231580000Y-250105000D03*
%TD*%
D13*
%TO.P,H17,1,1*%
%TO.N,GNDPWR*%
X218000000Y-172000000D03*
%TD*%
D40*
%TO.P,C18,1*%
%TO.N,Net-(U4-+VIN)*%
X176455000Y-130167500D03*
%TO.P,C18,2*%
%TO.N,/Main_DC-DC_Converters/Enable_CKT/RTN*%
X176455000Y-136392500D03*
%TD*%
D46*
%TO.P,C55,1*%
%TO.N,/Telemetry_CKT/V3p3*%
X230820000Y-216690000D03*
%TO.P,C55,2*%
%TO.N,/PM5V_TELEM_RTN*%
X233520000Y-216690000D03*
%TD*%
D12*
%TO.P,C47,1*%
%TO.N,/Telemetry_CKT/V3p3*%
X270310000Y-141490000D03*
%TO.P,C47,2*%
%TO.N,/PM5V_TELEM_RTN*%
X270310000Y-140530000D03*
%TD*%
D47*
%TO.P,J4,1,SIGNAL*%
%TO.N,/M5V_OUT*%
X278970000Y-134410000D03*
D48*
%TO.P,J4,2,GND*%
%TO.N,/PM5_RTN*%
X281510000Y-131870000D03*
%TO.P,J4,3,GND*%
X276430000Y-131870000D03*
%TO.P,J4,4,GND*%
X276430000Y-136950000D03*
%TO.P,J4,5,GND*%
X281510000Y-136950000D03*
%TD*%
D40*
%TO.P,C19,1*%
%TO.N,Net-(U4-+VIN)*%
X184785000Y-123367500D03*
%TO.P,C19,2*%
%TO.N,Net-(C19-Pad2)*%
X184785000Y-129592500D03*
%TD*%
D17*
%TO.P,L6,1,1*%
%TO.N,/V_TELEM_RTN*%
X168195000Y-199811000D03*
%TO.P,L6,2,2*%
%TO.N,/Telemetry_PWR/Telem_5V/V_RTN*%
X177795000Y-199811000D03*
%TD*%
D45*
%TO.P,R40,1*%
%TO.N,/PM5V_TELEM_RTN*%
X248110000Y-201435000D03*
%TO.P,R40,2*%
%TO.N,/P5V_V_MON*%
X248110000Y-199785000D03*
%TD*%
%TO.P,R41,1*%
%TO.N,/PM5V_TELEM_RTN*%
X248420000Y-232775000D03*
%TO.P,R41,2*%
%TO.N,/M5V_V_MON*%
X248420000Y-231125000D03*
%TD*%
D27*
%TO.P,U3,1,+VIN*%
%TO.N,Net-(U3-+VIN)*%
X196795000Y-43017500D03*
D28*
%TO.P,U3,2,ON/OFF*%
%TO.N,/Main_DC-DC_Converters/Enable_CKT/Enable*%
X196795000Y-53177500D03*
%TO.P,U3,3,CASE*%
%TO.N,GNDPWR*%
X196795000Y-68417500D03*
%TO.P,U3,4,-VIN*%
%TO.N,/Main_DC-DC_Converters/Main_Converter/V_RTN*%
X196795000Y-78577500D03*
D29*
%TO.P,U3,5,-VO*%
%TO.N,/PM5_RTN*%
X245045000Y-78577500D03*
D28*
%TO.P,U3,6,-S*%
X245045000Y-68417500D03*
%TO.P,U3,7,TRIM*%
%TO.N,unconnected-(U3-TRIM-Pad7)*%
X245045000Y-60797500D03*
%TO.P,U3,8,+S*%
%TO.N,/P5V*%
X245045000Y-53177500D03*
D29*
%TO.P,U3,9,+VO*%
X245045000Y-43017500D03*
%TD*%
D40*
%TO.P,C8,1*%
%TO.N,Net-(U3-+VIN)*%
X177015000Y-56645000D03*
%TO.P,C8,2*%
%TO.N,/Main_DC-DC_Converters/Main_Converter/V_RTN*%
X177015000Y-62870000D03*
%TD*%
D44*
%TO.P,M3,1,1*%
%TO.N,/P5V_V_MON*%
X250410000Y-200120002D03*
%TO.P,M3,2,2*%
%TO.N,/PM5V_TELEM_RTN*%
X250410000Y-201120000D03*
%TO.P,M3,3,3*%
%TO.N,Net-(M3-Pad3)*%
X251760000Y-200620001D03*
%TD*%
D49*
%TO.P,R22,1*%
%TO.N,Net-(C52-Pad2)*%
X246815000Y-174920000D03*
%TO.P,R22,2*%
%TO.N,/M5V_I_MON*%
X245265000Y-174920000D03*
%TD*%
D42*
%TO.P,R10,1*%
%TO.N,Net-(F2-Pad2)*%
X143276250Y-138752500D03*
%TO.P,R10,2*%
%TO.N,Net-(C17-Pad1)*%
X143276250Y-135827500D03*
%TD*%
D26*
%TO.P,M1,1,1*%
%TO.N,Net-(M1-Pad1)*%
X188450001Y-179325000D03*
%TO.P,M1,2,2*%
%TO.N,/V_TELEM_RTN*%
X189449999Y-179325000D03*
%TO.P,M1,3,3*%
%TO.N,Net-(M1-Pad3)*%
X188950000Y-177975000D03*
%TD*%
D13*
%TO.P,H11,1,1*%
%TO.N,GNDPWR*%
X279000000Y-203000000D03*
%TD*%
D43*
%TO.P,R2,1*%
%TO.N,/M5V*%
X264116600Y-134520000D03*
%TO.P,R2,2*%
%TO.N,/M5V_OUT*%
X265183400Y-134520000D03*
%TD*%
D18*
%TO.P,R34,1*%
%TO.N,/M5V_V_MON*%
X238395000Y-179080000D03*
%TO.P,R34,2*%
%TO.N,Net-(U12B-B_OUT)*%
X240045000Y-179080000D03*
%TD*%
D50*
%TO.P,R30,1*%
%TO.N,Net-(U12A--INA)*%
X247720000Y-190380000D03*
%TO.P,R30,2*%
%TO.N,Net-(U12A-A_OUT)*%
X246700000Y-190380000D03*
%TD*%
D51*
%TO.P,U6,1,+VIN*%
%TO.N,/Telemetry_PWR/Telem_5V1/V_POS*%
X190093750Y-248860000D03*
D52*
%TO.P,U6,2,-VIN*%
%TO.N,/Telemetry_PWR/Telem_5V1/V_RTN*%
X190093750Y-243760000D03*
%TO.P,U6,3,+VOUT*%
%TO.N,/PM5V_TELEM_RTN*%
X210393750Y-256560000D03*
%TO.P,U6,4,TRIM*%
%TO.N,unconnected-(U6-TRIM-Pad4)*%
X210393750Y-246360000D03*
%TO.P,U6,5,-VOUT*%
%TO.N,/M5V_TELEM*%
X210393750Y-236160000D03*
%TO.P,U6,6,REMOTE*%
%TO.N,unconnected-(U6-REMOTE-Pad6)*%
X190093750Y-236160000D03*
%TD*%
D53*
%TO.P,C56,1*%
%TO.N,Net-(U12A-A_OUT)*%
X246730000Y-191620000D03*
%TO.P,C56,2*%
%TO.N,Net-(U12A--INA)*%
X247690000Y-191620000D03*
%TD*%
D41*
%TO.P,L10,1*%
%TO.N,Net-(L10-Pad1)*%
X162710000Y-131680000D03*
%TO.P,L10,2*%
%TO.N,Net-(L10-Pad2)*%
X162710000Y-135380000D03*
%TO.P,L10,3*%
%TO.N,Net-(F2-Pad2)*%
X150110000Y-135380000D03*
%TO.P,L10,4*%
%TO.N,/V_SEC_RTN*%
X150110000Y-131680000D03*
%TD*%
D54*
%TO.P,R32,1*%
%TO.N,Net-(U12B-B_OUT)*%
X247930000Y-180880000D03*
%TO.P,R32,2*%
%TO.N,Net-(U12B--INB)*%
X248950000Y-180880000D03*
%TD*%
D45*
%TO.P,R44,1*%
%TO.N,/V_TELEM_RTN*%
X199180000Y-171525000D03*
%TO.P,R44,2*%
%TO.N,/V_SEC_RTN*%
X199180000Y-169875000D03*
%TD*%
D55*
%TO.P,C5,1*%
%TO.N,/PM5_RTN*%
X236240000Y-94120000D03*
%TO.P,C5,2*%
%TO.N,GNDPWR*%
X234340000Y-94120000D03*
%TD*%
D56*
%TO.P,L3,1,1*%
%TO.N,Net-(L10-Pad2)*%
X168160000Y-137605000D03*
%TO.P,L3,2,2*%
%TO.N,/Main_DC-DC_Converters/Enable_CKT/RTN*%
X170530000Y-137605000D03*
%TD*%
D38*
%TO.P,C60,1*%
%TO.N,/Telemetry_CKT/nV3p3*%
X251800000Y-189290000D03*
%TO.P,C60,2*%
%TO.N,/PM5V_TELEM_RTN*%
X251800000Y-190250000D03*
%TD*%
D15*
%TO.P,R31,1*%
%TO.N,/PM5V_TELEM_RTN*%
X254175000Y-181150000D03*
%TO.P,R31,2*%
%TO.N,Net-(U12B-+INB)*%
X252525000Y-181150000D03*
%TD*%
D13*
%TO.P,H3,1,1*%
%TO.N,GNDPWR*%
X125000000Y-77000000D03*
%TD*%
D16*
%TO.P,R27,1*%
%TO.N,/PM5_RTN*%
X277130000Y-68465000D03*
%TO.P,R27,2*%
%TO.N,Net-(U12A-+INA)*%
X277130000Y-70015000D03*
%TD*%
D13*
%TO.P,H5,1,1*%
%TO.N,GNDPWR*%
X125000000Y-155000000D03*
%TD*%
D17*
%TO.P,L7,1,1*%
%TO.N,Net-(C38-Pad1)*%
X167916250Y-254411000D03*
%TO.P,L7,2,2*%
%TO.N,/Telemetry_PWR/Telem_5V1/V_POS*%
X177516250Y-254411000D03*
%TD*%
D18*
%TO.P,R36,1*%
%TO.N,Net-(U13-ADJ)*%
X225195000Y-240170000D03*
%TO.P,R36,2*%
%TO.N,/Telemetry_CKT/nV3p3*%
X226845000Y-240170000D03*
%TD*%
D13*
%TO.P,H1,1,1*%
%TO.N,GNDPWR*%
X125000000Y-29000000D03*
%TD*%
%TO.P,H16,1,1*%
%TO.N,GNDPWR*%
X218000000Y-97000000D03*
%TD*%
D18*
%TO.P,R19,1*%
%TO.N,Net-(M2-Pad1)*%
X184855000Y-164750000D03*
%TO.P,R19,2*%
%TO.N,/Main_DC-DC_Converters/Enable_CKT/RTN*%
X186505000Y-164750000D03*
%TD*%
D13*
%TO.P,H8,1,1*%
%TO.N,GNDPWR*%
X279000000Y-262000000D03*
%TD*%
D57*
%TO.P,C51,1*%
%TO.N,/P5V_TELEM*%
X223097500Y-206990000D03*
%TO.P,C51,2*%
%TO.N,/PM5V_TELEM_RTN*%
X221322500Y-206990000D03*
%TD*%
D49*
%TO.P,C4,1*%
%TO.N,/Main_DC-DC_Converters/V3p3*%
X147954999Y-177556200D03*
%TO.P,C4,2*%
%TO.N,/V_TELEM_RTN*%
X146404999Y-177556200D03*
%TD*%
D58*
%TO.P,C6,1*%
%TO.N,GNDPWR*%
X234280000Y-101500000D03*
%TO.P,C6,2*%
%TO.N,/PM5_RTN*%
X236180000Y-101500000D03*
%TD*%
D14*
%TO.P,C38,1*%
%TO.N,Net-(C38-Pad1)*%
X158626250Y-249202501D03*
%TO.P,C38,2*%
%TO.N,/V_TELEM_RTN*%
X158626250Y-242977501D03*
%TD*%
D51*
%TO.P,U5,1,+VIN*%
%TO.N,/Telemetry_PWR/Telem_5V/V_POS*%
X190492500Y-210130000D03*
D52*
%TO.P,U5,2,-VIN*%
%TO.N,/Telemetry_PWR/Telem_5V/V_RTN*%
X190492500Y-205030000D03*
%TO.P,U5,3,+VOUT*%
%TO.N,/P5V_TELEM*%
X210792500Y-217830000D03*
%TO.P,U5,4,TRIM*%
%TO.N,unconnected-(U5-TRIM-Pad4)*%
X210792500Y-207630000D03*
%TO.P,U5,5,-VOUT*%
%TO.N,/PM5V_TELEM_RTN*%
X210792500Y-197430000D03*
%TO.P,U5,6,REMOTE*%
%TO.N,unconnected-(U5-REMOTE-Pad6)*%
X190492500Y-197430000D03*
%TD*%
D14*
%TO.P,C7,1*%
%TO.N,Net-(C7-Pad1)*%
X143530000Y-59600000D03*
%TO.P,C7,2*%
%TO.N,/V_SEC_RTN*%
X143530000Y-53375000D03*
%TD*%
D16*
%TO.P,R20,1*%
%TO.N,Net-(U7-OUT)*%
X270190000Y-145585000D03*
%TO.P,R20,2*%
%TO.N,Net-(C52-Pad2)*%
X270190000Y-147135000D03*
%TD*%
D13*
%TO.P,H15,1,1*%
%TO.N,GNDPWR*%
X184000000Y-29000000D03*
%TD*%
D53*
%TO.P,C66,1*%
%TO.N,Net-(U12B-B_OUT)*%
X247980000Y-179650000D03*
%TO.P,C66,2*%
%TO.N,Net-(U12B--INB)*%
X248940000Y-179650000D03*
%TD*%
D11*
%TO.P,C30,1*%
%TO.N,/Telemetry_PWR/Telem_5V/V_POS*%
X185755000Y-208770000D03*
%TO.P,C30,2*%
%TO.N,/Telemetry_PWR/Telem_5V/V_RTN*%
X185755000Y-206070000D03*
%TD*%
D17*
%TO.P,L8,1,1*%
%TO.N,/V_TELEM_RTN*%
X167796250Y-238541001D03*
%TO.P,L8,2,2*%
%TO.N,/Telemetry_PWR/Telem_5V1/V_RTN*%
X177396250Y-238541001D03*
%TD*%
D56*
%TO.P,L1,1,1*%
%TO.N,Net-(L1-Pad1)*%
X168720000Y-64082500D03*
%TO.P,L1,2,2*%
%TO.N,/Main_DC-DC_Converters/Main_Converter/V_RTN*%
X171090000Y-64082500D03*
%TD*%
D13*
%TO.P,H7,1,1*%
%TO.N,GNDPWR*%
X125000000Y-262000000D03*
%TD*%
D54*
%TO.P,R29,1*%
%TO.N,Net-(U11-OUT)*%
X235700000Y-192840000D03*
%TO.P,R29,2*%
%TO.N,Net-(U11--IN)*%
X236720000Y-192840000D03*
%TD*%
D49*
%TO.P,R23,1*%
%TO.N,Net-(C53-Pad2)*%
X246820000Y-173010000D03*
%TO.P,R23,2*%
%TO.N,/P5V_I_MON*%
X245270000Y-173010000D03*
%TD*%
D10*
%TO.P,R26,1*%
%TO.N,Net-(U12A-+INA)*%
X278990000Y-70015000D03*
%TO.P,R26,2*%
%TO.N,/P5V_OUT*%
X278990000Y-68465000D03*
%TD*%
D32*
%TO.P,R24,1*%
%TO.N,Net-(U9-SET)*%
X232520000Y-210935000D03*
%TO.P,R24,2*%
%TO.N,/PM5V_TELEM_RTN*%
X232520000Y-212585000D03*
%TD*%
D13*
%TO.P,H10,1,1*%
%TO.N,GNDPWR*%
X184000000Y-97000000D03*
%TD*%
%TO.P,H12,1,1*%
%TO.N,GNDPWR*%
X279000000Y-77000000D03*
%TD*%
D23*
%TO.P,R9,1*%
%TO.N,Net-(C9-Pad2)*%
X185335000Y-63625000D03*
%TO.P,R9,2*%
%TO.N,/Main_DC-DC_Converters/Main_Converter/V_RTN*%
X185335000Y-66550000D03*
%TD*%
D18*
%TO.P,R15,1*%
%TO.N,Net-(M1-Pad1)*%
X188115000Y-181630000D03*
%TO.P,R15,2*%
%TO.N,/V_TELEM_RTN*%
X189765000Y-181630000D03*
%TD*%
D59*
%TO.P,J6,1*%
%TO.N,/M5V_TELEM*%
X246915000Y-257210000D03*
%TO.P,J6,2*%
X249685000Y-257210000D03*
%TO.P,J6,3*%
%TO.N,unconnected-(J6-Pad3)*%
X252455000Y-257210000D03*
%TO.P,J6,4*%
%TO.N,/P5V_TELEM*%
X255225000Y-257210000D03*
%TO.P,J6,5*%
X257995000Y-257210000D03*
%TO.P,J6,6*%
%TO.N,/PM5V_TELEM_RTN*%
X248300000Y-260050000D03*
%TO.P,J6,7*%
X251070000Y-260050000D03*
%TO.P,J6,8*%
X253840000Y-260050000D03*
%TO.P,J6,9*%
X256610000Y-260050000D03*
D36*
%TO.P,J6,S1*%
%TO.N,GNDPWR*%
X239955000Y-258630000D03*
%TO.P,J6,S2*%
X264955000Y-258630000D03*
%TD*%
D19*
%TO.P,P1,1,1*%
%TO.N,Net-(M4-Pad3)*%
X259680000Y-231950000D03*
%TD*%
D47*
%TO.P,J5,1,SIGNAL*%
%TO.N,/P5V_OUT*%
X278970000Y-60900000D03*
D48*
%TO.P,J5,2,GND*%
%TO.N,/PM5_RTN*%
X281510000Y-58360000D03*
%TO.P,J5,3,GND*%
X276430000Y-58360000D03*
%TO.P,J5,4,GND*%
X276430000Y-63440000D03*
%TO.P,J5,5,GND*%
X281510000Y-63440000D03*
%TD*%
D25*
%TO.P,F2,1*%
%TO.N,/V_SEC_IN*%
X137927500Y-138720000D03*
%TO.P,F2,2*%
%TO.N,Net-(F2-Pad2)*%
X140852500Y-138720000D03*
%TD*%
D59*
%TO.P,J2,1*%
%TO.N,/V_SEC_RTN*%
X129660000Y-92440000D03*
%TO.P,J2,2*%
X129660000Y-95210000D03*
%TO.P,J2,3*%
%TO.N,unconnected-(J2-Pad3)*%
X129660000Y-97980000D03*
%TO.P,J2,4*%
%TO.N,/V_SEC_RTN*%
X129660000Y-100750000D03*
%TO.P,J2,5*%
X129660000Y-103520000D03*
%TO.P,J2,6*%
%TO.N,/V_SEC_IN*%
X126820000Y-93825000D03*
%TO.P,J2,7*%
X126820000Y-96595000D03*
%TO.P,J2,8*%
X126820000Y-99365000D03*
%TO.P,J2,9*%
X126820000Y-102135000D03*
D36*
%TO.P,J2,S1*%
%TO.N,GNDPWR*%
X128240000Y-85480000D03*
%TO.P,J2,S2*%
X128240000Y-110480000D03*
%TD*%
D60*
%TO.P,R3,1*%
%TO.N,/M5V*%
X262712500Y-130820000D03*
%TO.P,R3,2*%
%TO.N,Net-(D1-Pad1)*%
X260887500Y-130820000D03*
%TD*%
D13*
%TO.P,H9,1,1*%
%TO.N,GNDPWR*%
X279000000Y-155000000D03*
%TD*%
D18*
%TO.P,R33,1*%
%TO.N,/PM5V_TELEM_RTN*%
X221445000Y-240150000D03*
%TO.P,R33,2*%
%TO.N,Net-(U13-ADJ)*%
X223095000Y-240150000D03*
%TD*%
D39*
%TO.P,C26,1*%
%TO.N,/PM5_RTN*%
X252005000Y-132972500D03*
%TO.P,C26,2*%
%TO.N,/M5V*%
X252005000Y-135672500D03*
%TD*%
D16*
%TO.P,C52,1*%
%TO.N,/PM5V_TELEM_RTN*%
X268250000Y-145585000D03*
%TO.P,C52,2*%
%TO.N,Net-(C52-Pad2)*%
X268250000Y-147135000D03*
%TD*%
D10*
%TO.P,C67,1*%
%TO.N,/V_TELEM_RTN*%
X197180000Y-171475000D03*
%TO.P,C67,2*%
%TO.N,/V_SEC_RTN*%
X197180000Y-169925000D03*
%TD*%
D60*
%TO.P,R4,1*%
%TO.N,/P5V*%
X260912500Y-55460000D03*
%TO.P,R4,2*%
%TO.N,Net-(D2-Pad3)*%
X259087500Y-55460000D03*
%TD*%
D21*
%TO.P,C27,1*%
%TO.N,GNDPWR*%
X207245000Y-193120000D03*
%TO.P,C27,2*%
%TO.N,/PM5V_TELEM_RTN*%
X208795000Y-193120000D03*
%TD*%
D59*
%TO.P,J3,1*%
%TO.N,/V_TELEM_RTN*%
X129660000Y-220810000D03*
%TO.P,J3,2*%
X129660000Y-223580000D03*
%TO.P,J3,3*%
%TO.N,unconnected-(J3-Pad3)*%
X129660000Y-226350000D03*
%TO.P,J3,4*%
%TO.N,/V_TELEM_RTN*%
X129660000Y-229120000D03*
%TO.P,J3,5*%
X129660000Y-231890000D03*
%TO.P,J3,6*%
%TO.N,/V_TELEM_IN*%
X126820000Y-222195000D03*
%TO.P,J3,7*%
X126820000Y-224965000D03*
%TO.P,J3,8*%
X126820000Y-227735000D03*
%TO.P,J3,9*%
X126820000Y-230505000D03*
D36*
%TO.P,J3,S1*%
%TO.N,GNDPWR*%
X128240000Y-213850000D03*
%TO.P,J3,S2*%
X128240000Y-238850000D03*
%TD*%
D61*
%TO.P,U13,1,ADJ*%
%TO.N,Net-(U13-ADJ)*%
X223099600Y-242720000D03*
%TO.P,U13,2,IN*%
%TO.N,/M5V_TELEM*%
X223099600Y-245020000D03*
%TO.P,U13,3,OUT*%
%TO.N,/Telemetry_CKT/nV3p3*%
X223099600Y-247320000D03*
D62*
%TO.P,U13,4,TAB*%
X229500400Y-245020000D03*
%TD*%
D63*
%TO.P,D1,1,1*%
%TO.N,Net-(D1-Pad1)*%
X257340000Y-130830000D03*
%TO.P,D1,2,2*%
%TO.N,unconnected-(D1-Pad2)*%
X257340000Y-128930000D03*
%TO.P,D1,3,3*%
%TO.N,/PM5_RTN*%
X255380000Y-129880000D03*
%TD*%
D18*
%TO.P,F4,1*%
%TO.N,/V_TELEM_IN*%
X151311250Y-249210000D03*
%TO.P,F4,2*%
%TO.N,Net-(C38-Pad1)*%
X152961250Y-249210000D03*
%TD*%
%TO.P,R18,1*%
%TO.N,/V_SEC_IN*%
X179415000Y-152080000D03*
%TO.P,R18,2*%
%TO.N,/Main_DC-DC_Converters/Enable_CKT/Enable*%
X181065000Y-152080000D03*
%TD*%
D64*
%TO.P,Q1,1,1*%
%TO.N,Net-(Q1-Pad1)*%
X185005000Y-173504200D03*
%TO.P,Q1,2,2*%
%TO.N,Net-(M1-Pad3)*%
X186275000Y-173504200D03*
%TO.P,Q1,3,3*%
%TO.N,/Main_DC-DC_Converters/Enable_CKT/RTN*%
X186275000Y-167255800D03*
%TO.P,Q1,4,4*%
%TO.N,Net-(M2-Pad1)*%
X185005000Y-167255800D03*
%TD*%
D18*
%TO.P,R17,1*%
%TO.N,/V_SEC_IN*%
X179410000Y-153950000D03*
%TO.P,R17,2*%
%TO.N,Net-(M2-Pad1)*%
X181060000Y-153950000D03*
%TD*%
D56*
%TO.P,L2,1,1*%
%TO.N,Net-(L2-Pad1)*%
X168640000Y-55932500D03*
%TO.P,L2,2,2*%
%TO.N,Net-(U3-+VIN)*%
X171010000Y-55932500D03*
%TD*%
D19*
%TO.P,P3,1,1*%
%TO.N,Net-(P3-Pad1)*%
X260100000Y-215770000D03*
%TD*%
D56*
%TO.P,L4,1,1*%
%TO.N,Net-(L10-Pad1)*%
X168080000Y-129455000D03*
%TO.P,L4,2,2*%
%TO.N,Net-(U4-+VIN)*%
X170450000Y-129455000D03*
%TD*%
D13*
%TO.P,H2,1,1*%
%TO.N,GNDPWR*%
X279000000Y-29000000D03*
%TD*%
D65*
%TO.N,/V_TELEM_IN*%
X162580000Y-191275000D03*
X147975000Y-250330000D03*
X146705000Y-250330000D03*
X145435000Y-249060000D03*
X147975000Y-209690000D03*
X145435000Y-210960000D03*
X146705000Y-209690000D03*
X146705000Y-249060000D03*
X148640000Y-196410000D03*
X146705000Y-210960000D03*
X147975000Y-210960000D03*
X145435000Y-209690000D03*
X145435000Y-250330000D03*
X147975000Y-249060000D03*
%TO.N,/V_TELEM_RTN*%
X266700000Y-234950000D03*
X171450000Y-228600000D03*
X279400000Y-184150000D03*
X139700000Y-222250000D03*
X133350000Y-241300000D03*
X139700000Y-228600000D03*
X234950000Y-234950000D03*
X241300000Y-209550000D03*
X196850000Y-228600000D03*
X228600000Y-190500000D03*
X254000000Y-184150000D03*
X222250000Y-184150000D03*
X139700000Y-190500000D03*
X133350000Y-209550000D03*
X133350000Y-215900000D03*
X127000000Y-247650000D03*
X127000000Y-196850000D03*
X139700000Y-196850000D03*
X260350000Y-241300000D03*
X149880000Y-241440000D03*
X171450000Y-266700000D03*
X241300000Y-241300000D03*
X151150000Y-241440000D03*
X152400000Y-254000000D03*
X157040000Y-188760000D03*
X120650000Y-209550000D03*
X120650000Y-254000000D03*
X152400000Y-266700000D03*
X133350000Y-254000000D03*
X184150000Y-222250000D03*
X234950000Y-177800000D03*
X139700000Y-260350000D03*
X247650000Y-234950000D03*
X152420000Y-242710000D03*
X215900000Y-260350000D03*
X241300000Y-222250000D03*
X209550000Y-190500000D03*
X209550000Y-266700000D03*
X165100000Y-266700000D03*
X139700000Y-241300000D03*
X177800000Y-228600000D03*
X203200000Y-222250000D03*
X241300000Y-228600000D03*
X146050000Y-241300000D03*
X149880000Y-242710000D03*
X247650000Y-247650000D03*
X190500000Y-190500000D03*
X266700000Y-190500000D03*
X152400000Y-234950000D03*
X266700000Y-215900000D03*
X241300000Y-234950000D03*
X152420000Y-205880000D03*
X273050000Y-266700000D03*
X266700000Y-228600000D03*
X273050000Y-215900000D03*
X171450000Y-184150000D03*
X247650000Y-241300000D03*
X139700000Y-203200000D03*
X273050000Y-234950000D03*
X279400000Y-228600000D03*
X209550000Y-228600000D03*
X273050000Y-209550000D03*
X127000000Y-254000000D03*
X165100000Y-228600000D03*
X215900000Y-266700000D03*
X190500000Y-184150000D03*
X146050000Y-222250000D03*
X120650000Y-196850000D03*
X139700000Y-234950000D03*
X215900000Y-190500000D03*
X273050000Y-247650000D03*
X203200000Y-260350000D03*
X228600000Y-234950000D03*
X152400000Y-222250000D03*
X127000000Y-209550000D03*
X241300000Y-215900000D03*
X144220000Y-190100000D03*
X266700000Y-254000000D03*
X215900000Y-184150000D03*
X152400000Y-228600000D03*
X279400000Y-209550000D03*
X273050000Y-177800000D03*
X247650000Y-228600000D03*
X149880000Y-205880000D03*
X152400000Y-171450000D03*
X209550000Y-177800000D03*
X158750000Y-215900000D03*
X273050000Y-203200000D03*
X234950000Y-203200000D03*
X266700000Y-222250000D03*
X215900000Y-228600000D03*
X279400000Y-254000000D03*
X234950000Y-184150000D03*
X279400000Y-190500000D03*
X189770000Y-182940000D03*
X203200000Y-184150000D03*
X177800000Y-184150000D03*
X158750000Y-260350000D03*
X234950000Y-190500000D03*
X152400000Y-260350000D03*
X273050000Y-228600000D03*
X228600000Y-228600000D03*
X266700000Y-177800000D03*
X228600000Y-177800000D03*
X260350000Y-209550000D03*
X146050000Y-260350000D03*
X234950000Y-222250000D03*
X139700000Y-215900000D03*
X184150000Y-196850000D03*
X273050000Y-222250000D03*
X279400000Y-247650000D03*
X273050000Y-184150000D03*
X266700000Y-203200000D03*
X228600000Y-222250000D03*
X247650000Y-222250000D03*
X148670000Y-201420000D03*
X139700000Y-247650000D03*
X146050000Y-196850000D03*
X215900000Y-222250000D03*
X196850000Y-190500000D03*
X152400000Y-165100000D03*
X146050000Y-215900000D03*
X146050000Y-203200000D03*
X279400000Y-196850000D03*
X266700000Y-209550000D03*
X247650000Y-215900000D03*
X133350000Y-228600000D03*
X203200000Y-228600000D03*
X279400000Y-222250000D03*
X151150000Y-205880000D03*
X149880000Y-204610000D03*
X234950000Y-266700000D03*
X254000000Y-203200000D03*
X234950000Y-228600000D03*
X241300000Y-203200000D03*
X273050000Y-254000000D03*
X133350000Y-266700000D03*
X133350000Y-260350000D03*
X146409999Y-178886200D03*
X152400000Y-215900000D03*
X158750000Y-184150000D03*
X266700000Y-196850000D03*
X139700000Y-254000000D03*
X158750000Y-222250000D03*
X139700000Y-171450000D03*
X254000000Y-241300000D03*
X152420000Y-204610000D03*
X241300000Y-247650000D03*
X273050000Y-196850000D03*
X199180000Y-173590000D03*
X266700000Y-184150000D03*
X146050000Y-254000000D03*
X133350000Y-234950000D03*
X279400000Y-234950000D03*
X222250000Y-222250000D03*
X266700000Y-241300000D03*
X234950000Y-241300000D03*
X228600000Y-266700000D03*
X279400000Y-215900000D03*
X158750000Y-234950000D03*
X273050000Y-260350000D03*
X222250000Y-228600000D03*
X133350000Y-222250000D03*
X254000000Y-228600000D03*
X133350000Y-196850000D03*
X190500000Y-266700000D03*
X196850000Y-184150000D03*
X222250000Y-215900000D03*
X146050000Y-171450000D03*
X222250000Y-234950000D03*
X158750000Y-266700000D03*
X247650000Y-209550000D03*
X190500000Y-260350000D03*
X184150000Y-266700000D03*
X203200000Y-177800000D03*
X203200000Y-190500000D03*
X228600000Y-184150000D03*
X234950000Y-260350000D03*
X165100000Y-184150000D03*
X152420000Y-241440000D03*
X254000000Y-177800000D03*
X151150000Y-204610000D03*
X222250000Y-266700000D03*
X146050000Y-234950000D03*
X139700000Y-209550000D03*
X197180000Y-173590000D03*
X152400000Y-184150000D03*
X184150000Y-190500000D03*
X120650000Y-247650000D03*
X254000000Y-222250000D03*
X177800000Y-266700000D03*
X228600000Y-260350000D03*
X273050000Y-190500000D03*
X190500000Y-228600000D03*
X209550000Y-222250000D03*
X146050000Y-228600000D03*
X184150000Y-228600000D03*
X203200000Y-266700000D03*
X146050000Y-266700000D03*
X146050000Y-165100000D03*
X279400000Y-241300000D03*
X196850000Y-266700000D03*
X158750000Y-228600000D03*
X133350000Y-247650000D03*
X266700000Y-247650000D03*
X196850000Y-177800000D03*
X190500000Y-222250000D03*
X139700000Y-266700000D03*
X273050000Y-241300000D03*
X139700000Y-165100000D03*
X209550000Y-184150000D03*
X196850000Y-222250000D03*
X184150000Y-234950000D03*
X196850000Y-260350000D03*
X139700000Y-184150000D03*
X222250000Y-260350000D03*
X254000000Y-196850000D03*
X254000000Y-234950000D03*
X151150000Y-242710000D03*
X254000000Y-209550000D03*
X234950000Y-247650000D03*
X260350000Y-222250000D03*
X184150000Y-184150000D03*
X133350000Y-203200000D03*
%TO.N,/Main_DC-DC_Converters/V3p3*%
X148059999Y-178866200D03*
D66*
%TO.N,GNDPWR*%
X203220000Y-86500000D03*
X215920000Y-56020000D03*
X218460000Y-68720000D03*
X238780000Y-162700000D03*
X208300000Y-122060000D03*
X205760000Y-150000000D03*
X231160000Y-124600000D03*
X236240000Y-66180000D03*
X213380000Y-137300000D03*
X233700000Y-86500000D03*
X203220000Y-58560000D03*
X205760000Y-124600000D03*
X223540000Y-127140000D03*
X241320000Y-109360000D03*
X210840000Y-137300000D03*
X203220000Y-68720000D03*
X223540000Y-86500000D03*
X218460000Y-35700000D03*
X236240000Y-78880000D03*
X231160000Y-106820000D03*
X226080000Y-83960000D03*
X223540000Y-160160000D03*
X218460000Y-109360000D03*
X236240000Y-61100000D03*
X215920000Y-53480000D03*
X203220000Y-122060000D03*
X215920000Y-40780000D03*
X218460000Y-147460000D03*
X210840000Y-33160000D03*
X221000000Y-116980000D03*
X226080000Y-142380000D03*
X223540000Y-35700000D03*
X236240000Y-157620000D03*
X205760000Y-56020000D03*
X221000000Y-114440000D03*
X218460000Y-157620000D03*
X231160000Y-111900000D03*
X233700000Y-63640000D03*
X210840000Y-63640000D03*
X210840000Y-56020000D03*
X226080000Y-43320000D03*
X226080000Y-48400000D03*
X208300000Y-127140000D03*
X221000000Y-56020000D03*
X221000000Y-127140000D03*
X205760000Y-50940000D03*
X226080000Y-114440000D03*
X221000000Y-61100000D03*
X210840000Y-150000000D03*
X203220000Y-89040000D03*
X213380000Y-48400000D03*
X210840000Y-152540000D03*
X215920000Y-122060000D03*
X208300000Y-162700000D03*
X233700000Y-152540000D03*
X208300000Y-58560000D03*
X221000000Y-124600000D03*
X233700000Y-142380000D03*
X226080000Y-73800000D03*
X203220000Y-56020000D03*
X228620000Y-43320000D03*
X231160000Y-58560000D03*
X233700000Y-38240000D03*
X205760000Y-122060000D03*
X226080000Y-50940000D03*
X210840000Y-142380000D03*
D65*
X232480000Y-101510000D03*
D66*
X210840000Y-144920000D03*
X231160000Y-81420000D03*
X205760000Y-73800000D03*
X213380000Y-68720000D03*
X205760000Y-152540000D03*
X236240000Y-127140000D03*
X226080000Y-53480000D03*
X236240000Y-86500000D03*
X231160000Y-48400000D03*
X205760000Y-33160000D03*
X208300000Y-73800000D03*
X241320000Y-162700000D03*
X208300000Y-147460000D03*
X203220000Y-124600000D03*
X213380000Y-71260000D03*
X238780000Y-106820000D03*
X233700000Y-109360000D03*
X233700000Y-111900000D03*
X205760000Y-61100000D03*
X215920000Y-33160000D03*
X215920000Y-63640000D03*
X223540000Y-162700000D03*
X210840000Y-134760000D03*
X221000000Y-111900000D03*
X226080000Y-61100000D03*
X208300000Y-160160000D03*
X218460000Y-66180000D03*
X221000000Y-68720000D03*
X215920000Y-155080000D03*
X208300000Y-33160000D03*
X208300000Y-66180000D03*
X205760000Y-137300000D03*
X205760000Y-58560000D03*
X208300000Y-114440000D03*
X221000000Y-86500000D03*
X228620000Y-124600000D03*
X218460000Y-122060000D03*
X218460000Y-160160000D03*
X215920000Y-50940000D03*
X233700000Y-73800000D03*
X223540000Y-68720000D03*
X215920000Y-83960000D03*
X203220000Y-45860000D03*
X238780000Y-35700000D03*
X226080000Y-147460000D03*
X215920000Y-38240000D03*
X223540000Y-58560000D03*
X233700000Y-78880000D03*
X236240000Y-111900000D03*
X226080000Y-162700000D03*
X236240000Y-38240000D03*
X231160000Y-139840000D03*
X213380000Y-152540000D03*
X236240000Y-129680000D03*
X226080000Y-35700000D03*
X228620000Y-68720000D03*
X226080000Y-139840000D03*
X221000000Y-119520000D03*
X231160000Y-157620000D03*
X231160000Y-132220000D03*
X223540000Y-152540000D03*
D65*
X232480000Y-94120000D03*
D66*
X228620000Y-155080000D03*
X215920000Y-58560000D03*
X231160000Y-61100000D03*
X228620000Y-48400000D03*
X208300000Y-45860000D03*
X210840000Y-157620000D03*
X210840000Y-129680000D03*
X231160000Y-162700000D03*
X205760000Y-83960000D03*
X226080000Y-71260000D03*
X238780000Y-86500000D03*
X228620000Y-129680000D03*
X203220000Y-35700000D03*
X236240000Y-139840000D03*
X223540000Y-137300000D03*
X228620000Y-119520000D03*
X203220000Y-157620000D03*
X221000000Y-132220000D03*
X231160000Y-155080000D03*
X221000000Y-160160000D03*
X223540000Y-124600000D03*
X200680000Y-86500000D03*
X223540000Y-132220000D03*
X203220000Y-33160000D03*
X233700000Y-33160000D03*
X223540000Y-81420000D03*
X226080000Y-66180000D03*
X213380000Y-86500000D03*
X233700000Y-162700000D03*
X210840000Y-124600000D03*
X210840000Y-61100000D03*
X231160000Y-33160000D03*
X226080000Y-155080000D03*
X228620000Y-86500000D03*
X223540000Y-157620000D03*
X231160000Y-86500000D03*
X228620000Y-81420000D03*
X231160000Y-116980000D03*
X218460000Y-127140000D03*
X205760000Y-35700000D03*
X210840000Y-147460000D03*
X215920000Y-142380000D03*
X228620000Y-66180000D03*
X215920000Y-86500000D03*
X231160000Y-76340000D03*
X210840000Y-48400000D03*
X203220000Y-147460000D03*
X200680000Y-89040000D03*
X226080000Y-137300000D03*
X226080000Y-127140000D03*
X213380000Y-127140000D03*
X231160000Y-114440000D03*
X203220000Y-155080000D03*
X203220000Y-144920000D03*
X218460000Y-116980000D03*
X233700000Y-106820000D03*
X215920000Y-137300000D03*
X215920000Y-43320000D03*
X241320000Y-33160000D03*
X233700000Y-144920000D03*
X208300000Y-142380000D03*
X213380000Y-63640000D03*
X210840000Y-162700000D03*
X205760000Y-76340000D03*
X221000000Y-48400000D03*
X223540000Y-144920000D03*
X213380000Y-45860000D03*
X213380000Y-89040000D03*
X210840000Y-155080000D03*
X241320000Y-106820000D03*
X226080000Y-122060000D03*
X213380000Y-61100000D03*
X208300000Y-152540000D03*
X205760000Y-144920000D03*
X233700000Y-127140000D03*
X218460000Y-58560000D03*
X233700000Y-61100000D03*
X218460000Y-119520000D03*
X221000000Y-155080000D03*
X221000000Y-50940000D03*
X223540000Y-45860000D03*
X208300000Y-50940000D03*
X213380000Y-111900000D03*
X203220000Y-127140000D03*
X210840000Y-114440000D03*
X233700000Y-137300000D03*
X233700000Y-43320000D03*
X213380000Y-33160000D03*
X236240000Y-160160000D03*
X205760000Y-106820000D03*
X231160000Y-78880000D03*
X236240000Y-76340000D03*
X215920000Y-48400000D03*
X238780000Y-89040000D03*
X226080000Y-160160000D03*
X205760000Y-45860000D03*
X233700000Y-155080000D03*
X205760000Y-68720000D03*
X210840000Y-89040000D03*
X210840000Y-78880000D03*
X215920000Y-89040000D03*
X233700000Y-45860000D03*
X205760000Y-160160000D03*
X203220000Y-83960000D03*
X203220000Y-139840000D03*
X221000000Y-43320000D03*
X208300000Y-68720000D03*
X215920000Y-124600000D03*
X205760000Y-155080000D03*
X205760000Y-134760000D03*
X208300000Y-124600000D03*
X218460000Y-152540000D03*
X236240000Y-33160000D03*
X218460000Y-71260000D03*
X203220000Y-137300000D03*
X205760000Y-111900000D03*
X213380000Y-66180000D03*
X226080000Y-89040000D03*
X205760000Y-63640000D03*
X233700000Y-122060000D03*
X218460000Y-150000000D03*
X210840000Y-38240000D03*
X205760000Y-53480000D03*
X203220000Y-114440000D03*
X203220000Y-66180000D03*
X231160000Y-38240000D03*
X218460000Y-111900000D03*
X236240000Y-63640000D03*
X226080000Y-116980000D03*
X210840000Y-40780000D03*
X205760000Y-127140000D03*
X213380000Y-144920000D03*
X221000000Y-106820000D03*
X203220000Y-134760000D03*
X218460000Y-53480000D03*
X203220000Y-53480000D03*
X200680000Y-162700000D03*
X208300000Y-157620000D03*
D65*
X205190000Y-261150000D03*
D66*
X218460000Y-144920000D03*
X226080000Y-45860000D03*
X213380000Y-150000000D03*
X228620000Y-63640000D03*
X233700000Y-116980000D03*
X215920000Y-81420000D03*
X228620000Y-61100000D03*
X218460000Y-61100000D03*
X226080000Y-86500000D03*
X236240000Y-116980000D03*
X223540000Y-38240000D03*
X208300000Y-129680000D03*
X226080000Y-150000000D03*
X200680000Y-109360000D03*
X221000000Y-66180000D03*
X213380000Y-132220000D03*
X210840000Y-139840000D03*
X223540000Y-71260000D03*
X215920000Y-129680000D03*
X228620000Y-33160000D03*
X208300000Y-116980000D03*
X236240000Y-132220000D03*
X238780000Y-160160000D03*
X236240000Y-155080000D03*
X203220000Y-142380000D03*
X223540000Y-155080000D03*
X228620000Y-50940000D03*
X218460000Y-162700000D03*
X221000000Y-144920000D03*
X233700000Y-81420000D03*
X208300000Y-78880000D03*
X205760000Y-129680000D03*
X218460000Y-33160000D03*
X231160000Y-45860000D03*
X205760000Y-48400000D03*
X223540000Y-53480000D03*
X223540000Y-106820000D03*
X218460000Y-56020000D03*
X213380000Y-157620000D03*
X228620000Y-160160000D03*
X236240000Y-35700000D03*
X236240000Y-106820000D03*
X236240000Y-144920000D03*
X208300000Y-111900000D03*
X215920000Y-109360000D03*
X233700000Y-124600000D03*
X215920000Y-119520000D03*
X210840000Y-127140000D03*
X233700000Y-53480000D03*
X233700000Y-157620000D03*
X208300000Y-139840000D03*
X203220000Y-162700000D03*
X236240000Y-119520000D03*
X228620000Y-78880000D03*
X213380000Y-155080000D03*
X203220000Y-63640000D03*
X213380000Y-76340000D03*
X236240000Y-48400000D03*
X241320000Y-86500000D03*
X228620000Y-122060000D03*
X236240000Y-83960000D03*
X233700000Y-76340000D03*
X228620000Y-56020000D03*
X233700000Y-48400000D03*
X215920000Y-144920000D03*
X205760000Y-86500000D03*
X223540000Y-33160000D03*
X228620000Y-83960000D03*
X236240000Y-68720000D03*
X213380000Y-116980000D03*
X210840000Y-106820000D03*
X210840000Y-53480000D03*
X213380000Y-73800000D03*
X215920000Y-132220000D03*
X221000000Y-137300000D03*
X233700000Y-66180000D03*
X213380000Y-162700000D03*
X231160000Y-53480000D03*
X203220000Y-132220000D03*
X228620000Y-150000000D03*
X221000000Y-53480000D03*
X228620000Y-157620000D03*
X203220000Y-78880000D03*
X218460000Y-63640000D03*
X236240000Y-162700000D03*
X215920000Y-71260000D03*
X236240000Y-89040000D03*
X210840000Y-116980000D03*
X215920000Y-127140000D03*
X221000000Y-78880000D03*
X236240000Y-134760000D03*
X221000000Y-45860000D03*
X205760000Y-109360000D03*
X228620000Y-89040000D03*
X221000000Y-89040000D03*
X215920000Y-116980000D03*
X213380000Y-129680000D03*
X236240000Y-58560000D03*
X203220000Y-61100000D03*
X208300000Y-150000000D03*
X223540000Y-142380000D03*
X226080000Y-78880000D03*
X218460000Y-43320000D03*
X208300000Y-109360000D03*
X233700000Y-83960000D03*
X208300000Y-155080000D03*
X205760000Y-71260000D03*
X223540000Y-89040000D03*
X223540000Y-63640000D03*
X223540000Y-56020000D03*
X205760000Y-142380000D03*
X208300000Y-83960000D03*
X228620000Y-40780000D03*
X226080000Y-129680000D03*
X241320000Y-35700000D03*
X208300000Y-89040000D03*
X213380000Y-83960000D03*
X205760000Y-43320000D03*
X231160000Y-89040000D03*
X210840000Y-132220000D03*
X218460000Y-50940000D03*
X205760000Y-40780000D03*
X213380000Y-106820000D03*
X223540000Y-66180000D03*
X223540000Y-114440000D03*
X233700000Y-119520000D03*
X228620000Y-53480000D03*
X236240000Y-124600000D03*
X203220000Y-43320000D03*
X213380000Y-134760000D03*
X221000000Y-38240000D03*
X226080000Y-106820000D03*
X226080000Y-58560000D03*
X203220000Y-111900000D03*
X231160000Y-56020000D03*
X226080000Y-38240000D03*
X218460000Y-134760000D03*
X233700000Y-35700000D03*
X233700000Y-160160000D03*
X203220000Y-71260000D03*
X208300000Y-61100000D03*
X208300000Y-56020000D03*
X233700000Y-147460000D03*
X218460000Y-45860000D03*
X236240000Y-147460000D03*
X210840000Y-66180000D03*
X241320000Y-160160000D03*
X203220000Y-48400000D03*
X228620000Y-76340000D03*
X203220000Y-81420000D03*
X210840000Y-109360000D03*
X226080000Y-157620000D03*
X226080000Y-63640000D03*
X221000000Y-81420000D03*
X215920000Y-147460000D03*
X231160000Y-134760000D03*
X231160000Y-122060000D03*
X215920000Y-61100000D03*
X223540000Y-76340000D03*
X236240000Y-40780000D03*
X226080000Y-76340000D03*
X218460000Y-83960000D03*
X200680000Y-106820000D03*
X203220000Y-160160000D03*
X208300000Y-144920000D03*
X218460000Y-129680000D03*
X228620000Y-127140000D03*
X213380000Y-119520000D03*
X221000000Y-142380000D03*
X231160000Y-43320000D03*
X228620000Y-58560000D03*
D65*
X205620000Y-193120000D03*
D66*
X205760000Y-116980000D03*
X210840000Y-71260000D03*
X213380000Y-50940000D03*
X218460000Y-40780000D03*
X223540000Y-139840000D03*
X208300000Y-76340000D03*
X231160000Y-129680000D03*
X226080000Y-144920000D03*
X215920000Y-114440000D03*
X213380000Y-81420000D03*
X223540000Y-40780000D03*
X213380000Y-43320000D03*
X236240000Y-81420000D03*
X223540000Y-134760000D03*
X228620000Y-109360000D03*
X218460000Y-132220000D03*
X213380000Y-109360000D03*
X200680000Y-160160000D03*
X221000000Y-73800000D03*
X208300000Y-132220000D03*
X228620000Y-114440000D03*
X213380000Y-160160000D03*
X236240000Y-109360000D03*
X203220000Y-106820000D03*
X213380000Y-124600000D03*
X210840000Y-119520000D03*
X218460000Y-142380000D03*
X210840000Y-50940000D03*
X236240000Y-56020000D03*
X226080000Y-134760000D03*
X223540000Y-48400000D03*
X218460000Y-73800000D03*
X226080000Y-33160000D03*
X203220000Y-76340000D03*
X218460000Y-155080000D03*
X228620000Y-73800000D03*
X210840000Y-160160000D03*
X233700000Y-71260000D03*
X226080000Y-68720000D03*
X223540000Y-43320000D03*
X221000000Y-63640000D03*
X208300000Y-119520000D03*
X231160000Y-109360000D03*
X203220000Y-109360000D03*
X223540000Y-61100000D03*
X215920000Y-162700000D03*
X218460000Y-114440000D03*
X208300000Y-86500000D03*
X210840000Y-35700000D03*
X233700000Y-68720000D03*
X223540000Y-122060000D03*
X231160000Y-68720000D03*
X233700000Y-89040000D03*
X223540000Y-83960000D03*
X223540000Y-147460000D03*
X218460000Y-81420000D03*
X233700000Y-139840000D03*
X208300000Y-106820000D03*
X208300000Y-40780000D03*
X223540000Y-150000000D03*
X226080000Y-152540000D03*
X205760000Y-147460000D03*
X223540000Y-109360000D03*
X208300000Y-81420000D03*
X203220000Y-38240000D03*
X203220000Y-152540000D03*
X223540000Y-111900000D03*
X233700000Y-56020000D03*
X221000000Y-58560000D03*
X233700000Y-150000000D03*
X228620000Y-132220000D03*
X228620000Y-106820000D03*
X215920000Y-78880000D03*
X228620000Y-45860000D03*
X205760000Y-81420000D03*
X226080000Y-132220000D03*
X236240000Y-73800000D03*
X215920000Y-150000000D03*
X231160000Y-40780000D03*
X231160000Y-66180000D03*
X241320000Y-89040000D03*
X236240000Y-142380000D03*
X231160000Y-152540000D03*
X221000000Y-71260000D03*
X223540000Y-78880000D03*
X236240000Y-152540000D03*
X218460000Y-76340000D03*
X231160000Y-127140000D03*
X213380000Y-122060000D03*
X221000000Y-157620000D03*
X205760000Y-162700000D03*
X208300000Y-48400000D03*
X238780000Y-109360000D03*
X233700000Y-50940000D03*
X215920000Y-152540000D03*
X226080000Y-124600000D03*
X213380000Y-78880000D03*
X218460000Y-106820000D03*
X210840000Y-81420000D03*
X233700000Y-58560000D03*
X228620000Y-137300000D03*
X210840000Y-43320000D03*
X228620000Y-144920000D03*
X231160000Y-160160000D03*
X228620000Y-152540000D03*
X221000000Y-139840000D03*
X228620000Y-35700000D03*
X231160000Y-137300000D03*
X228620000Y-142380000D03*
X210840000Y-68720000D03*
X213380000Y-58560000D03*
X226080000Y-40780000D03*
X210840000Y-73800000D03*
X221000000Y-152540000D03*
X215920000Y-73800000D03*
X208300000Y-63640000D03*
X205760000Y-132220000D03*
X228620000Y-134760000D03*
X223540000Y-73800000D03*
X236240000Y-114440000D03*
X221000000Y-162700000D03*
X213380000Y-40780000D03*
X218460000Y-38240000D03*
X221000000Y-40780000D03*
X200680000Y-33160000D03*
X208300000Y-35700000D03*
X208300000Y-43320000D03*
X218460000Y-89040000D03*
X208300000Y-134760000D03*
X221000000Y-147460000D03*
X223540000Y-119520000D03*
X210840000Y-122060000D03*
X228620000Y-162700000D03*
X236240000Y-71260000D03*
X231160000Y-71260000D03*
X215920000Y-68720000D03*
X231160000Y-73800000D03*
X210840000Y-83960000D03*
X210840000Y-45860000D03*
X215920000Y-35700000D03*
X218460000Y-124600000D03*
X210840000Y-86500000D03*
X205760000Y-66180000D03*
X205760000Y-119520000D03*
X221000000Y-83960000D03*
X213380000Y-147460000D03*
X205760000Y-38240000D03*
X215920000Y-160160000D03*
X226080000Y-119520000D03*
X231160000Y-144920000D03*
X226080000Y-111900000D03*
X233700000Y-132220000D03*
X221000000Y-33160000D03*
X218460000Y-86500000D03*
X221000000Y-129680000D03*
X226080000Y-81420000D03*
X231160000Y-63640000D03*
X236240000Y-45860000D03*
X213380000Y-53480000D03*
X205760000Y-78880000D03*
X203220000Y-73800000D03*
X203220000Y-40780000D03*
X205760000Y-157620000D03*
X236240000Y-122060000D03*
X215920000Y-139840000D03*
X213380000Y-114440000D03*
X223540000Y-129680000D03*
X221000000Y-134760000D03*
X228620000Y-71260000D03*
X233700000Y-129680000D03*
X228620000Y-38240000D03*
X218460000Y-137300000D03*
X215920000Y-45860000D03*
X210840000Y-111900000D03*
X236240000Y-50940000D03*
X228620000Y-111900000D03*
X221000000Y-35700000D03*
X233700000Y-134760000D03*
X228620000Y-116980000D03*
X215920000Y-111900000D03*
X236240000Y-43320000D03*
X215920000Y-157620000D03*
X213380000Y-139840000D03*
X215920000Y-106820000D03*
X236240000Y-53480000D03*
X226080000Y-109360000D03*
X215920000Y-134760000D03*
X205760000Y-89040000D03*
X231160000Y-147460000D03*
X208300000Y-53480000D03*
X236240000Y-137300000D03*
X208300000Y-38240000D03*
X223540000Y-50940000D03*
X205760000Y-114440000D03*
X221000000Y-76340000D03*
X213380000Y-35700000D03*
X210840000Y-58560000D03*
X223540000Y-116980000D03*
X205760000Y-139840000D03*
X238780000Y-33160000D03*
X236240000Y-150000000D03*
X213380000Y-56020000D03*
X208300000Y-137300000D03*
X233700000Y-114440000D03*
X200680000Y-35700000D03*
X213380000Y-142380000D03*
X203220000Y-116980000D03*
X221000000Y-150000000D03*
X231160000Y-142380000D03*
X218460000Y-139840000D03*
X231160000Y-83960000D03*
X228620000Y-139840000D03*
X203220000Y-119520000D03*
X233700000Y-40780000D03*
X231160000Y-150000000D03*
X218460000Y-48400000D03*
X203220000Y-50940000D03*
X226080000Y-56020000D03*
X210840000Y-76340000D03*
X208300000Y-71260000D03*
X203220000Y-150000000D03*
X215920000Y-66180000D03*
X215920000Y-76340000D03*
X231160000Y-119520000D03*
X218460000Y-78880000D03*
X221000000Y-122060000D03*
X231160000Y-50940000D03*
X203220000Y-129680000D03*
X213380000Y-38240000D03*
X221000000Y-109360000D03*
X228620000Y-147460000D03*
X231160000Y-35700000D03*
D65*
%TO.N,/PM5_RTN*%
X255160000Y-52920000D03*
X238050000Y-101540000D03*
X238020000Y-94120000D03*
%TO.N,/V_SEC_RTN*%
X171450000Y-114300000D03*
X273050000Y-133350000D03*
X133350000Y-107950000D03*
X171450000Y-25400000D03*
X146050000Y-158750000D03*
X171450000Y-101600000D03*
X146050000Y-152400000D03*
X139700000Y-114300000D03*
X152400000Y-82550000D03*
X127000000Y-63500000D03*
X158750000Y-120650000D03*
X158750000Y-25400000D03*
X133350000Y-146050000D03*
X254000000Y-82550000D03*
X133350000Y-107950000D03*
X254000000Y-88900000D03*
X177800000Y-38100000D03*
X177800000Y-158750000D03*
X120650000Y-69850000D03*
X273050000Y-44450000D03*
X266700000Y-38100000D03*
X120650000Y-44450000D03*
X152400000Y-95250000D03*
X158750000Y-114300000D03*
X197170000Y-168040000D03*
X222250000Y-95250000D03*
X171450000Y-76200000D03*
X241300000Y-101600000D03*
X139700000Y-44450000D03*
X279400000Y-107950000D03*
X146050000Y-69850000D03*
X254000000Y-76200000D03*
X165100000Y-107950000D03*
X139700000Y-38100000D03*
X165100000Y-165100000D03*
X184150000Y-44450000D03*
X135920000Y-56240000D03*
X273050000Y-31750000D03*
X190500000Y-101600000D03*
X146050000Y-38100000D03*
X133350000Y-101600000D03*
X184150000Y-101600000D03*
X190500000Y-107950000D03*
X228600000Y-101600000D03*
X254000000Y-38100000D03*
X273050000Y-88900000D03*
X209550000Y-95250000D03*
X152400000Y-101600000D03*
X127000000Y-133350000D03*
X158750000Y-44450000D03*
X120650000Y-146050000D03*
X152400000Y-44450000D03*
X133350000Y-69850000D03*
X152400000Y-50800000D03*
X139700000Y-76200000D03*
X120650000Y-146050000D03*
X165100000Y-50800000D03*
X254000000Y-95250000D03*
X209550000Y-101600000D03*
X146050000Y-152400000D03*
X127000000Y-127000000D03*
X139700000Y-120650000D03*
X260350000Y-31750000D03*
X152400000Y-31750000D03*
X254000000Y-101600000D03*
X165100000Y-120650000D03*
X133350000Y-31750000D03*
X190500000Y-25400000D03*
X190500000Y-38100000D03*
X254000000Y-69850000D03*
X133350000Y-95250000D03*
X133350000Y-82550000D03*
X203200000Y-95250000D03*
X127000000Y-69850000D03*
X273050000Y-50800000D03*
X165100000Y-38100000D03*
X135180000Y-125900000D03*
X171450000Y-69850000D03*
X152400000Y-107950000D03*
X279400000Y-50800000D03*
X152400000Y-146050000D03*
X133350000Y-76200000D03*
X254000000Y-139700000D03*
X146050000Y-101600000D03*
X139700000Y-69850000D03*
X165100000Y-95250000D03*
X139700000Y-25400000D03*
X158750000Y-158750000D03*
X171450000Y-44450000D03*
X190500000Y-82550000D03*
X120650000Y-63500000D03*
X133380000Y-57510000D03*
X203200000Y-101600000D03*
X279400000Y-38100000D03*
X177800000Y-88900000D03*
X171450000Y-158750000D03*
X133350000Y-152400000D03*
X171450000Y-82550000D03*
X254000000Y-158750000D03*
X158750000Y-31750000D03*
X158750000Y-88900000D03*
X273050000Y-25400000D03*
X266700000Y-107950000D03*
X133350000Y-158750000D03*
X133350000Y-44450000D03*
X139700000Y-107950000D03*
X266700000Y-120650000D03*
X146050000Y-146050000D03*
X171450000Y-107950000D03*
X273050000Y-95250000D03*
X273050000Y-146050000D03*
X152400000Y-76200000D03*
X266700000Y-88900000D03*
X171450000Y-38100000D03*
X146050000Y-158750000D03*
X133910000Y-124630000D03*
X158750000Y-152400000D03*
X120650000Y-139700000D03*
X228600000Y-95250000D03*
X254000000Y-44450000D03*
X165100000Y-158750000D03*
X260350000Y-25400000D03*
X152400000Y-44450000D03*
X279400000Y-101600000D03*
X196850000Y-95250000D03*
X279400000Y-82550000D03*
X177800000Y-31750000D03*
X273050000Y-76200000D03*
X234950000Y-25400000D03*
X171450000Y-50800000D03*
X171450000Y-165100000D03*
X146050000Y-114300000D03*
X184150000Y-114300000D03*
X133350000Y-25400000D03*
X135180000Y-124630000D03*
X152400000Y-25400000D03*
X146050000Y-146050000D03*
X133350000Y-158750000D03*
X171450000Y-31750000D03*
X146050000Y-44450000D03*
X133350000Y-88900000D03*
X146050000Y-76200000D03*
X158750000Y-95250000D03*
X133350000Y-120650000D03*
X273050000Y-82550000D03*
X165100000Y-146050000D03*
X266700000Y-44450000D03*
X165100000Y-101600000D03*
X273050000Y-63500000D03*
X165100000Y-82550000D03*
X171450000Y-146050000D03*
X260350000Y-50800000D03*
X184150000Y-76200000D03*
X133350000Y-101600000D03*
X133350000Y-114300000D03*
X139700000Y-50800000D03*
X133350000Y-133350000D03*
X190500000Y-95250000D03*
X266700000Y-165100000D03*
X165100000Y-25400000D03*
X139700000Y-95250000D03*
X177800000Y-101600000D03*
X273050000Y-165100000D03*
X120650000Y-139700000D03*
X127000000Y-44450000D03*
X184150000Y-69850000D03*
X279400000Y-95250000D03*
X222250000Y-101600000D03*
X139700000Y-152400000D03*
X177800000Y-69850000D03*
X177800000Y-107950000D03*
X133350000Y-38100000D03*
X158750000Y-101600000D03*
X152400000Y-69850000D03*
X133350000Y-76200000D03*
X177800000Y-76200000D03*
X177800000Y-82550000D03*
X254000000Y-120650000D03*
X165100000Y-76200000D03*
X273050000Y-127000000D03*
X279400000Y-88900000D03*
X177800000Y-95250000D03*
X152400000Y-88900000D03*
X279400000Y-114300000D03*
X139700000Y-101600000D03*
X184150000Y-88900000D03*
X165100000Y-69850000D03*
X273050000Y-139700000D03*
X146050000Y-31750000D03*
X199180000Y-168040000D03*
X273050000Y-101600000D03*
X146050000Y-120650000D03*
X158750000Y-38100000D03*
X266700000Y-31750000D03*
X152400000Y-114300000D03*
X133350000Y-50800000D03*
X222250000Y-25400000D03*
X266700000Y-76200000D03*
X165100000Y-88900000D03*
X120650000Y-38100000D03*
X139700000Y-133350000D03*
X146050000Y-88900000D03*
X136450000Y-124630000D03*
X120650000Y-50800000D03*
X146050000Y-82550000D03*
X171450000Y-88900000D03*
X165100000Y-152400000D03*
X120650000Y-57150000D03*
X254000000Y-107950000D03*
X177800000Y-25400000D03*
X133350000Y-152400000D03*
X152400000Y-38100000D03*
X127000000Y-146050000D03*
X152400000Y-38100000D03*
X273050000Y-57150000D03*
X171450000Y-133350000D03*
X184150000Y-38100000D03*
X136450000Y-125900000D03*
X260350000Y-38100000D03*
X171450000Y-120650000D03*
X133350000Y-82550000D03*
X273050000Y-38100000D03*
X254000000Y-165100000D03*
X139700000Y-146050000D03*
X146050000Y-95250000D03*
X196850000Y-101600000D03*
X266700000Y-50800000D03*
X273050000Y-114300000D03*
X133350000Y-114300000D03*
X171450000Y-95250000D03*
X158750000Y-50800000D03*
X184150000Y-82550000D03*
X133350000Y-120650000D03*
X184150000Y-107950000D03*
X127000000Y-139700000D03*
X127000000Y-57150000D03*
X152400000Y-158750000D03*
X133380000Y-56240000D03*
X177800000Y-44450000D03*
X120650000Y-133350000D03*
X190500000Y-88900000D03*
X139700000Y-31750000D03*
X152400000Y-152400000D03*
X127000000Y-38100000D03*
X120650000Y-127000000D03*
X254000000Y-25400000D03*
X266700000Y-57150000D03*
X209550000Y-25400000D03*
X135920000Y-57510000D03*
X177800000Y-120650000D03*
X127000000Y-50800000D03*
X266700000Y-82550000D03*
X247650000Y-25400000D03*
X241300000Y-25400000D03*
X165100000Y-31750000D03*
X165100000Y-44450000D03*
X146050000Y-25400000D03*
X266700000Y-63500000D03*
X228600000Y-25400000D03*
X273050000Y-120650000D03*
X152400000Y-120650000D03*
X254000000Y-146050000D03*
X134650000Y-56240000D03*
X133350000Y-95250000D03*
X266700000Y-95250000D03*
X247650000Y-101600000D03*
X266700000Y-158750000D03*
X254000000Y-50800000D03*
X260350000Y-44450000D03*
X266700000Y-114300000D03*
X196850000Y-25400000D03*
X152400000Y-31750000D03*
X133350000Y-88900000D03*
X279400000Y-44450000D03*
X273050000Y-107950000D03*
X146050000Y-107950000D03*
X158750000Y-82550000D03*
X254000000Y-152400000D03*
X133350000Y-146050000D03*
X158750000Y-158750000D03*
X146050000Y-50800000D03*
X177800000Y-165100000D03*
X152400000Y-25400000D03*
X158750000Y-107950000D03*
X139700000Y-88900000D03*
X266700000Y-152400000D03*
X177800000Y-114300000D03*
X254000000Y-127000000D03*
X139700000Y-158750000D03*
X158750000Y-69850000D03*
X266700000Y-25400000D03*
X215900000Y-25400000D03*
X215900000Y-101600000D03*
X254000000Y-31750000D03*
X134650000Y-57510000D03*
X203200000Y-25400000D03*
X133910000Y-125900000D03*
X165100000Y-114300000D03*
X120650000Y-127000000D03*
X254000000Y-114300000D03*
X266700000Y-101600000D03*
X152400000Y-50800000D03*
X139700000Y-82550000D03*
X266700000Y-127000000D03*
X158750000Y-76200000D03*
X190500000Y-114300000D03*
X120650000Y-133350000D03*
X158750000Y-152400000D03*
%TO.N,/P5V*%
X260960000Y-61860000D03*
%TO.N,/Main_DC-DC_Converters/Enable_CKT/RTN*%
X187930000Y-164750000D03*
%TO.N,/PM5V_TELEM_RTN*%
X233520000Y-214420000D03*
X221330000Y-205660000D03*
X220160000Y-240150000D03*
X231870000Y-189635000D03*
X246770000Y-201450000D03*
X210430000Y-193120000D03*
X265960000Y-65270000D03*
X260220000Y-141000000D03*
X257080000Y-64330000D03*
X227540000Y-251790000D03*
X210240000Y-261150000D03*
X255460000Y-181150000D03*
X269090000Y-140040000D03*
X266930000Y-145570000D03*
X252430000Y-191250000D03*
X239780000Y-195310000D03*
X248430000Y-233980000D03*
X218460000Y-198980000D03*
X259760000Y-69490000D03*
X244515000Y-180020000D03*
%TO.N,/P5V_TELEM*%
X249790000Y-215770000D03*
X249370000Y-247070000D03*
X229020000Y-204950000D03*
X224620000Y-204960000D03*
X218110000Y-219850000D03*
X229010000Y-193080000D03*
X218750000Y-254440000D03*
%TO.N,/M5V_TELEM*%
X218760000Y-261670000D03*
%TO.N,/Telemetry_CKT/V3p3*%
X226940000Y-207660000D03*
X245115000Y-183220000D03*
X229360000Y-216690000D03*
X239780000Y-196770000D03*
X269070000Y-141530000D03*
X257050000Y-65900000D03*
%TO.N,Net-(C52-Pad2)*%
X269690000Y-174920000D03*
X254050000Y-174920000D03*
X270190000Y-149310000D03*
%TO.N,Net-(C53-Pad2)*%
X256690000Y-72860000D03*
X254040000Y-173000000D03*
%TO.N,/Telemetry_CKT/nV3p3*%
X223120000Y-248940000D03*
X229510000Y-248270000D03*
X251790000Y-188200000D03*
%TO.N,Net-(C64-Pad2)*%
X221280000Y-195850000D03*
X221280000Y-186780000D03*
X203410000Y-186230000D03*
%TO.N,/V_SEC_IN*%
X130815000Y-64985000D03*
X132085000Y-66255000D03*
X133355000Y-64985000D03*
X130815000Y-66255000D03*
X158135000Y-144285000D03*
X133715000Y-139360000D03*
X133715000Y-138090000D03*
X131175000Y-138090000D03*
X133355000Y-66255000D03*
X132085000Y-64985000D03*
X131175000Y-139360000D03*
X132445000Y-138090000D03*
X132445000Y-139360000D03*
%TO.N,/P5V_I_MON*%
X242390000Y-173000000D03*
%TO.N,/TEMP_MON*%
X157780000Y-169550000D03*
X157780000Y-186230000D03*
X198270000Y-186230000D03*
%TO.N,/P5V_V_MON*%
X245480000Y-194890000D03*
X241400000Y-180410000D03*
%TO.N,/M5V_V_MON*%
X236630000Y-231090000D03*
X236630000Y-179080000D03*
%TO.N,/M5V_I_MON*%
X242420000Y-174910000D03*
%TO.N,/P5V_OUT*%
X262040000Y-61890000D03*
%TO.N,Net-(M1-Pad1)*%
X183400000Y-176640000D03*
X186130000Y-176640000D03*
%TO.N,/Main_DC-DC_Converters/Enable_CKT/Enable*%
X192830000Y-142760000D03*
X181500000Y-142760000D03*
%TO.N,Net-(U12A-+INA)*%
X259030000Y-192680000D03*
X260820000Y-73630000D03*
%TO.N,Net-(U12B--INB)*%
X278950000Y-177960000D03*
X250480000Y-179640000D03*
X278950000Y-146030000D03*
%TO.N,Net-(U11--IN)*%
X238080000Y-192840000D03*
%TO.N,Net-(U11-OUT)*%
X233990000Y-195470000D03*
%TD*%
D67*
%TO.N,/V_TELEM_IN*%
X164535000Y-189320000D02*
X162580000Y-191275000D01*
X145585000Y-249210000D02*
X145435000Y-249060000D01*
D68*
X145915000Y-210480000D02*
X145435000Y-210960000D01*
X151311250Y-249210000D02*
X145585000Y-249210000D01*
X151710000Y-210480000D02*
X145915000Y-210480000D01*
D67*
X167135000Y-189320000D02*
X164535000Y-189320000D01*
D68*
%TO.N,/V_TELEM_RTN*%
X159025000Y-201260000D02*
X159025000Y-204247500D01*
D67*
X199180000Y-171525000D02*
X199180000Y-173590000D01*
X197180000Y-171475000D02*
X197180000Y-173590000D01*
D68*
X151512500Y-204247500D02*
X151150000Y-204610000D01*
D67*
X146709999Y-179186200D02*
X146409999Y-178886200D01*
X189765000Y-181630000D02*
X189765000Y-180845000D01*
X146709999Y-180632400D02*
X146709999Y-179186200D01*
D68*
X159025000Y-204247500D02*
X151512500Y-204247500D01*
D67*
X151417501Y-242977501D02*
X151150000Y-242710000D01*
D68*
X160474000Y-199811000D02*
X159025000Y-201260000D01*
X158626250Y-242977501D02*
X151417501Y-242977501D01*
D67*
X146409999Y-178886200D02*
X146409999Y-177561200D01*
X146409999Y-177561200D02*
X146404999Y-177556200D01*
D68*
X167796250Y-238541000D02*
X160075250Y-238541000D01*
D67*
X189765000Y-181630000D02*
X189765000Y-182935000D01*
X189449999Y-180529999D02*
X189449999Y-179325000D01*
X189765000Y-182935000D02*
X189770000Y-182940000D01*
D68*
X160075250Y-238541000D02*
X158626250Y-239990000D01*
X158626250Y-239990000D02*
X158626250Y-242977500D01*
D67*
X189765000Y-180845000D02*
X189449999Y-180529999D01*
D68*
X168195000Y-199811000D02*
X160474000Y-199811000D01*
D67*
%TO.N,/Main_DC-DC_Converters/V3p3*%
X147954999Y-178291200D02*
X147954999Y-177556200D01*
X147660000Y-180632400D02*
X147660000Y-179266199D01*
X148059999Y-178396200D02*
X147954999Y-178291200D01*
X148059999Y-178866200D02*
X148059999Y-178396200D01*
X147660000Y-179266199D02*
X148059999Y-178866200D01*
%TO.N,GNDPWR*%
X234340000Y-94120000D02*
X232480000Y-94120000D01*
X206925000Y-261150000D02*
X205190000Y-261150000D01*
X234280000Y-101500000D02*
X232490000Y-101500000D01*
X207245000Y-193120000D02*
X205620000Y-193120000D01*
X232490000Y-101500000D02*
X232480000Y-101510000D01*
D69*
%TO.N,/PM5_RTN*%
X252005000Y-132972500D02*
X252005000Y-129950000D01*
X252005000Y-129950000D02*
X252005000Y-128000000D01*
D67*
X252075000Y-129880000D02*
X252005000Y-129950000D01*
X236240000Y-94120000D02*
X238020000Y-94120000D01*
X238010000Y-101500000D02*
X238050000Y-101540000D01*
D69*
X252565000Y-67467500D02*
X251615000Y-68417500D01*
D70*
X255380000Y-129880000D02*
X252075000Y-129880000D01*
D69*
X251615000Y-68417500D02*
X245045000Y-68417500D01*
X252565000Y-62150000D02*
X252565000Y-67467500D01*
X252005000Y-128000000D02*
X250705000Y-126700000D01*
D70*
X255140000Y-54520000D02*
X255140000Y-52940000D01*
D67*
X255140000Y-52940000D02*
X255160000Y-52920000D01*
X236180000Y-101500000D02*
X238010000Y-101500000D01*
X277130000Y-67780000D02*
X276430000Y-67080000D01*
D69*
X250705000Y-126700000D02*
X244485000Y-126700000D01*
D67*
X277130000Y-68465000D02*
X277130000Y-67780000D01*
X276430000Y-67080000D02*
X276430000Y-63440000D01*
%TO.N,Net-(C7-Pad1)*%
X143510000Y-59620000D02*
X143530000Y-59600000D01*
D69*
X143510000Y-62820000D02*
X143510000Y-59620000D01*
%TO.N,/V_SEC_RTN*%
X150110000Y-131680000D02*
X147830000Y-131680000D01*
D67*
X199180000Y-169875000D02*
X199180000Y-168040000D01*
D69*
X143240000Y-125367500D02*
X134647500Y-125367500D01*
X151380000Y-57780000D02*
X148810000Y-57780000D01*
D67*
X197170000Y-169950000D02*
X197170000Y-168040000D01*
D69*
X147200000Y-131050000D02*
X147200000Y-126470000D01*
X146975000Y-53375000D02*
X143530000Y-53375000D01*
X147920000Y-54320000D02*
X146975000Y-53375000D01*
X148810000Y-57780000D02*
X147920000Y-56890000D01*
X147200000Y-126470000D02*
X146097500Y-125367500D01*
X143530000Y-53375000D02*
X137515000Y-53375000D01*
X146097500Y-125367500D02*
X143240000Y-125367500D01*
X147920000Y-56890000D02*
X147920000Y-54320000D01*
X147830000Y-131680000D02*
X147200000Y-131050000D01*
X134647500Y-125367500D02*
X133910000Y-124630000D01*
X137515000Y-53375000D02*
X133380000Y-57510000D01*
%TO.N,Net-(U3-+VIN)*%
X177015000Y-56645000D02*
X173742500Y-56645000D01*
X185345000Y-49845000D02*
X178847500Y-49845000D01*
X187815000Y-43017500D02*
X185345000Y-45487500D01*
X173742500Y-56645000D02*
X173030000Y-55932500D01*
X173030000Y-55932500D02*
X171010000Y-55932500D01*
X177015000Y-51677500D02*
X177015000Y-56645000D01*
X196795000Y-43017500D02*
X187815000Y-43017500D01*
X185345000Y-45487500D02*
X185345000Y-49845000D01*
X178847500Y-49845000D02*
X177015000Y-51677500D01*
%TO.N,/Main_DC-DC_Converters/Main_Converter/V_RTN*%
X172840000Y-64082500D02*
X171090000Y-64082500D01*
X185335000Y-76497500D02*
X187415000Y-78577500D01*
X185335000Y-66550000D02*
X185335000Y-76497500D01*
X178957500Y-66550000D02*
X177015000Y-64607500D01*
X174052500Y-62870000D02*
X172840000Y-64082500D01*
X177015000Y-62870000D02*
X174052500Y-62870000D01*
X187415000Y-78577500D02*
X196795000Y-78577500D01*
X177015000Y-64607500D02*
X177015000Y-62870000D01*
X185335000Y-66550000D02*
X178957500Y-66550000D01*
D67*
%TO.N,Net-(C9-Pad2)*%
X185345000Y-63615000D02*
X185335000Y-63625000D01*
D69*
X185345000Y-56070000D02*
X185345000Y-63615000D01*
%TO.N,/P5V*%
X252565000Y-59450000D02*
X260700000Y-59450000D01*
X251265000Y-53177500D02*
X245045000Y-53177500D01*
D70*
X260966600Y-59460000D02*
X260966600Y-55514100D01*
D67*
X260966600Y-61853400D02*
X260960000Y-61860000D01*
D69*
X252565000Y-59450000D02*
X252565000Y-54477500D01*
X245045000Y-53177500D02*
X245045000Y-43017500D01*
D67*
X260966600Y-59460000D02*
X260966600Y-61853400D01*
D69*
X252565000Y-54477500D02*
X251265000Y-53177500D01*
D67*
X260966600Y-55514100D02*
X260912500Y-55460000D01*
D69*
X260700000Y-59450000D02*
X260710000Y-59440000D01*
%TO.N,Net-(C17-Pad1)*%
X143276250Y-135827500D02*
X143276250Y-131628750D01*
D67*
X143276250Y-131628750D02*
X143240000Y-131592500D01*
%TO.N,/Main_DC-DC_Converters/Enable_CKT/RTN*%
X186139998Y-163529998D02*
X186139998Y-162520000D01*
X186505000Y-165935000D02*
X186505000Y-164750000D01*
D69*
X184775000Y-140072500D02*
X178397500Y-140072500D01*
X184775000Y-150020000D02*
X186855000Y-152100000D01*
D67*
X186275000Y-167255800D02*
X186275000Y-166165000D01*
D69*
X178397500Y-140072500D02*
X176455000Y-138130000D01*
D71*
X186505000Y-164750000D02*
X187930000Y-164750000D01*
D69*
X186855000Y-152100000D02*
X196235000Y-152100000D01*
X172280000Y-137605000D02*
X170530000Y-137605000D01*
X176455000Y-136392500D02*
X173492500Y-136392500D01*
D67*
X186505000Y-164750000D02*
X186505000Y-163895000D01*
D69*
X184775000Y-140072500D02*
X184775000Y-150020000D01*
D67*
X186275000Y-166165000D02*
X186505000Y-165935000D01*
D69*
X176455000Y-138130000D02*
X176455000Y-136392500D01*
D67*
X195800000Y-152100000D02*
X196235000Y-152100000D01*
X186505000Y-163895000D02*
X186139998Y-163529998D01*
D69*
X173492500Y-136392500D02*
X172280000Y-137605000D01*
%TO.N,Net-(U4-+VIN)*%
X172470000Y-129455000D02*
X170450000Y-129455000D01*
X176455000Y-125200000D02*
X176455000Y-130167500D01*
X178287500Y-123367500D02*
X176455000Y-125200000D01*
X176455000Y-130167500D02*
X173182500Y-130167500D01*
X196235000Y-116540000D02*
X187255000Y-116540000D01*
X187255000Y-116540000D02*
X184785000Y-119010000D01*
X184785000Y-119010000D02*
X184785000Y-123367500D01*
X184785000Y-123367500D02*
X178287500Y-123367500D01*
X173182500Y-130167500D02*
X172470000Y-129455000D01*
%TO.N,Net-(C19-Pad2)*%
X184785000Y-129592500D02*
X184785000Y-137137500D01*
D67*
X184785000Y-137137500D02*
X184775000Y-137147500D01*
D69*
%TO.N,/M5V*%
X244485000Y-141940000D02*
X244485000Y-152100000D01*
D67*
X264116600Y-134520000D02*
X264116600Y-138643400D01*
D69*
X252005000Y-135672500D02*
X259297500Y-135672500D01*
X259297500Y-135672500D02*
X260450000Y-134520000D01*
D67*
X263675000Y-139085000D02*
X262265000Y-139085000D01*
D70*
X263650000Y-130820000D02*
X262712500Y-130820000D01*
X264116600Y-131286600D02*
X263650000Y-130820000D01*
D67*
X264116600Y-138643400D02*
X263675000Y-139085000D01*
D69*
X252005000Y-140990000D02*
X251055000Y-141940000D01*
X260450000Y-134520000D02*
X263770000Y-134520000D01*
D70*
X264116600Y-134520000D02*
X264116600Y-131286600D01*
D69*
X251055000Y-141940000D02*
X244485000Y-141940000D01*
X263770000Y-134520000D02*
X263780000Y-134530000D01*
X252005000Y-135672500D02*
X252005000Y-140990000D01*
D71*
%TO.N,/PM5V_TELEM_RTN*%
X220150000Y-241895000D02*
X220150000Y-240160000D01*
D67*
X220150000Y-240160000D02*
X220160000Y-240150000D01*
X248430000Y-232785000D02*
X248420000Y-232775000D01*
X262265000Y-140355000D02*
X260865000Y-140355000D01*
X221322500Y-206990000D02*
X221322500Y-205667500D01*
X243895000Y-181240000D02*
X243895000Y-180640000D01*
X234480000Y-212525000D02*
X234480000Y-213460000D01*
X249410000Y-201120000D02*
X249095000Y-201435000D01*
X266945000Y-145585000D02*
X266930000Y-145570000D01*
D68*
X215446250Y-255310000D02*
X215446250Y-247715000D01*
D67*
X227557500Y-251807500D02*
X227540000Y-251790000D01*
X248110000Y-201435000D02*
X246785000Y-201435000D01*
X234480000Y-213460000D02*
X233520000Y-214420000D01*
X268250000Y-145585000D02*
X266945000Y-145585000D01*
X229510000Y-251807500D02*
X230492500Y-251807500D01*
X271600000Y-140530000D02*
X271620000Y-140510000D01*
D68*
X210792500Y-197430000D02*
X214935000Y-197430000D01*
D67*
X221322500Y-205667500D02*
X221330000Y-205660000D01*
X248100000Y-201460000D02*
X248110000Y-201435000D01*
X221445000Y-240150000D02*
X220160000Y-240150000D01*
X253050000Y-190630000D02*
X252430000Y-191250000D01*
X249095000Y-201435000D02*
X248100000Y-201460000D01*
X243895000Y-180640000D02*
X244515000Y-180020000D01*
X245125000Y-181260000D02*
X245125000Y-180630000D01*
X232520000Y-212585000D02*
X232520000Y-213420000D01*
X245125000Y-180630000D02*
X244515000Y-180020000D01*
X250410000Y-201120000D02*
X249410000Y-201120000D01*
D68*
X215845000Y-198340000D02*
X215845000Y-206285000D01*
D67*
X260845000Y-141625000D02*
X260220000Y-141000000D01*
X229510000Y-251807500D02*
X227557500Y-251807500D01*
X267205000Y-140355000D02*
X268775000Y-140355000D01*
X208475000Y-261150000D02*
X210240000Y-261150000D01*
D68*
X210393750Y-256560000D02*
X214196250Y-256560000D01*
D67*
X232520000Y-213420000D02*
X233520000Y-214420000D01*
X254175000Y-181150000D02*
X255460000Y-181150000D01*
X268775000Y-140355000D02*
X269090000Y-140040000D01*
X249580002Y-232449998D02*
X250600000Y-232449998D01*
X251800000Y-190620000D02*
X252430000Y-191250000D01*
D68*
X214196250Y-256560000D02*
X215446250Y-255310000D01*
D67*
X253050000Y-190250000D02*
X253050000Y-190630000D01*
X230545000Y-251755000D02*
X231580000Y-251755000D01*
X230492500Y-251807500D02*
X230545000Y-251755000D01*
X269580000Y-140530000D02*
X270310000Y-140530000D01*
X249255000Y-232775000D02*
X249580002Y-232449998D01*
D68*
X214935000Y-197430000D02*
X215845000Y-198340000D01*
D67*
X270310000Y-140530000D02*
X271600000Y-140530000D01*
X251800000Y-190250000D02*
X251800000Y-190620000D01*
X262265000Y-141625000D02*
X260845000Y-141625000D01*
X246785000Y-201435000D02*
X246770000Y-201450000D01*
X260865000Y-140355000D02*
X260220000Y-141000000D01*
X248430000Y-233980000D02*
X248430000Y-232785000D01*
X248420000Y-232775000D02*
X249255000Y-232775000D01*
X233520000Y-216690000D02*
X233520000Y-214420000D01*
X269090000Y-140040000D02*
X269580000Y-140530000D01*
X208795000Y-193120000D02*
X210430000Y-193120000D01*
D68*
%TO.N,Net-(C29-Pad1)*%
X168315000Y-215681000D02*
X160536000Y-215681000D01*
X160536000Y-215681000D02*
X159025000Y-214170000D01*
X153360000Y-210480000D02*
X159017500Y-210480000D01*
D67*
X159017500Y-210480000D02*
X159025000Y-210472500D01*
D68*
X159025000Y-214170000D02*
X159025000Y-210472500D01*
%TO.N,/Telemetry_PWR/Telem_5V/V_RTN*%
X183916000Y-199811000D02*
X177795000Y-199811000D01*
X189452500Y-206070000D02*
X190492500Y-205030000D01*
X185755000Y-201650000D02*
X183916000Y-199811000D01*
X185755000Y-206070000D02*
X189452500Y-206070000D01*
X185755000Y-206070000D02*
X185755000Y-201650000D01*
%TO.N,/Telemetry_PWR/Telem_5V/V_POS*%
X183984000Y-215681000D02*
X177915000Y-215681000D01*
X185755000Y-208770000D02*
X185755000Y-213910000D01*
X185755000Y-213910000D02*
X183984000Y-215681000D01*
X189132500Y-208770000D02*
X190492500Y-210130000D01*
X185755000Y-208770000D02*
X189132500Y-208770000D01*
%TO.N,/P5V_TELEM*%
X221927500Y-209267500D02*
X224617100Y-209267500D01*
D71*
X223097500Y-206990000D02*
X224597100Y-206990000D01*
D68*
X215845000Y-208985000D02*
X221645000Y-208985000D01*
X210792500Y-217830000D02*
X214595000Y-217830000D01*
D71*
X224617100Y-209267500D02*
X224617100Y-207010000D01*
D68*
X221645000Y-208985000D02*
X221927500Y-209267500D01*
D67*
X251195000Y-215770000D02*
X249790000Y-215770000D01*
X249380000Y-247060000D02*
X249370000Y-247070000D01*
D68*
X215845000Y-216580000D02*
X215845000Y-208985000D01*
D71*
X224617100Y-207010000D02*
X224617100Y-204962900D01*
D67*
X224597100Y-206990000D02*
X224617100Y-207010000D01*
D68*
X214595000Y-217830000D02*
X215845000Y-216580000D01*
D67*
X251115000Y-247060000D02*
X249380000Y-247060000D01*
D68*
X224617100Y-204962900D02*
X224620000Y-204960000D01*
X255225000Y-257210000D02*
X257995000Y-257210000D01*
%TO.N,Net-(C38-Pad1)*%
X158626250Y-252900000D02*
X158626250Y-249202500D01*
X152961250Y-249210000D02*
X158618750Y-249210000D01*
X160137250Y-254411000D02*
X158626250Y-252900000D01*
X167916250Y-254411000D02*
X160137250Y-254411000D01*
D67*
X158618750Y-249210000D02*
X158626250Y-249202500D01*
D68*
%TO.N,/Telemetry_PWR/Telem_5V1/V_POS*%
X183585250Y-254411000D02*
X177516250Y-254411000D01*
X185356250Y-247500000D02*
X185356250Y-252640000D01*
X188733750Y-247500000D02*
X190093750Y-248860000D01*
X185356250Y-247500000D02*
X188733750Y-247500000D01*
X185356250Y-252640000D02*
X183585250Y-254411000D01*
%TO.N,/Telemetry_PWR/Telem_5V1/V_RTN*%
X189053750Y-244800000D02*
X190093750Y-243760000D01*
X185356250Y-240380000D02*
X183517250Y-238541000D01*
X185356250Y-244800000D02*
X189053750Y-244800000D01*
X185356250Y-244800000D02*
X185356250Y-240380000D01*
X183517250Y-238541000D02*
X177396250Y-238541000D01*
%TO.N,/M5V_TELEM*%
X215446250Y-245014999D02*
X220090000Y-245014999D01*
X246915000Y-257210000D02*
X249685000Y-257210000D01*
X214536250Y-236160000D02*
X215446250Y-237070000D01*
X220090000Y-245014999D02*
X223094599Y-245014999D01*
X215446250Y-237070000D02*
X215446250Y-245015000D01*
D67*
X220150000Y-244954999D02*
X220090000Y-245014999D01*
D68*
X210393750Y-236160000D02*
X214536250Y-236160000D01*
D71*
X220150000Y-243670000D02*
X220150000Y-244954999D01*
D67*
X223094599Y-245014999D02*
X223099600Y-245020000D01*
%TO.N,/Telemetry_CKT/V3p3*%
X269070000Y-141530000D02*
X271560000Y-141530000D01*
X271560000Y-141530000D02*
X271620000Y-141470000D01*
D68*
X226928500Y-209267500D02*
X226928500Y-207671500D01*
D67*
X267205000Y-141625000D02*
X268975000Y-141625000D01*
D68*
X226928500Y-207671500D02*
X226940000Y-207660000D01*
X226928500Y-209267500D02*
X226928500Y-209330000D01*
X229360000Y-216690000D02*
X230820000Y-216690000D01*
D67*
X246555000Y-183266200D02*
X245161200Y-183266200D01*
D68*
X229290000Y-216690000D02*
X229360000Y-216690000D01*
D67*
X245161200Y-183266200D02*
X245115000Y-183220000D01*
D68*
X226928500Y-216260000D02*
X228860000Y-216260000D01*
X228860000Y-216260000D02*
X229290000Y-216690000D01*
D67*
X268975000Y-141625000D02*
X269070000Y-141530000D01*
X245115000Y-183220000D02*
X245115000Y-182230000D01*
D68*
X226928500Y-209330000D02*
X226928500Y-216260000D01*
D67*
X245115000Y-182230000D02*
X245125000Y-182220000D01*
X243915000Y-182220000D02*
X243895000Y-182200000D01*
X245125000Y-182220000D02*
X243915000Y-182220000D01*
%TO.N,Net-(C52-Pad2)*%
X254050000Y-174920000D02*
X246815000Y-174920000D01*
X270190000Y-147135000D02*
X270190000Y-149310000D01*
X270190000Y-147135000D02*
X268250000Y-147135000D01*
%TO.N,Net-(C53-Pad2)*%
X254040000Y-173000000D02*
X246830000Y-173000000D01*
X246830000Y-173000000D02*
X246820000Y-173010000D01*
%TO.N,Net-(U9-SET)*%
X231925000Y-210935000D02*
X232520000Y-210935000D01*
X232520000Y-210935000D02*
X234440000Y-210935000D01*
X229239900Y-209267500D02*
X230257500Y-209267500D01*
X234440000Y-210935000D02*
X234480000Y-210975000D01*
X230257500Y-209267500D02*
X231925000Y-210935000D01*
%TO.N,Net-(U12A-A_OUT)*%
X246730000Y-191620000D02*
X246730000Y-193235000D01*
X246555000Y-188193800D02*
X246555000Y-189485000D01*
X246555000Y-189485000D02*
X246730000Y-189660000D01*
X246730000Y-189660000D02*
X246730000Y-191620000D01*
%TO.N,Net-(U12A--INA)*%
X247690000Y-189620000D02*
X247690000Y-191620000D01*
X247825000Y-189485000D02*
X247690000Y-189620000D01*
X247825000Y-188193800D02*
X247825000Y-189485000D01*
%TO.N,/Telemetry_CKT/nV3p3*%
X226845000Y-240170000D02*
X228560000Y-240170000D01*
X229510000Y-250032500D02*
X229510000Y-248270000D01*
D68*
X223099600Y-247320000D02*
X225620000Y-247320000D01*
D67*
X223120000Y-247340400D02*
X223099600Y-247320000D01*
X229510000Y-250032500D02*
X230552500Y-250032500D01*
X250365000Y-188193800D02*
X251783800Y-188193800D01*
X230625000Y-250105000D02*
X231580000Y-250105000D01*
X229580000Y-248200000D02*
X229580000Y-245099600D01*
D68*
X225620000Y-247320000D02*
X227920000Y-245020000D01*
X227920000Y-245020000D02*
X229500400Y-245020000D01*
X223120000Y-248940000D02*
X223120000Y-247340400D01*
D67*
X229510000Y-248270000D02*
X229580000Y-248200000D01*
X251783800Y-188193800D02*
X251790000Y-188200000D01*
X251800000Y-188210000D02*
X251790000Y-188200000D01*
X229580000Y-245099600D02*
X229500400Y-245020000D01*
X229500400Y-241110400D02*
X229500400Y-245020000D01*
X228560000Y-240170000D02*
X229500400Y-241110400D01*
X251800000Y-189290000D02*
X251800000Y-188210000D01*
X251800000Y-189290000D02*
X253050000Y-189290000D01*
X230552500Y-250032500D02*
X230625000Y-250105000D01*
%TO.N,Net-(C64-Pad2)*%
X201455000Y-186230000D02*
X203410000Y-186230000D01*
%TO.N,Net-(D1-Pad1)*%
X257350000Y-130820000D02*
X257340000Y-130830000D01*
D70*
X260887500Y-130820000D02*
X257350000Y-130820000D01*
D67*
%TO.N,Net-(D2-Pad3)*%
X259077500Y-55470000D02*
X259087500Y-55460000D01*
D70*
X257100000Y-55470000D02*
X259077500Y-55470000D01*
D69*
%TO.N,Net-(F1-Pad2)*%
X147940000Y-62280000D02*
X148740000Y-61480000D01*
X141065000Y-65740000D02*
X141052500Y-65752500D01*
X147940000Y-64770000D02*
X147940000Y-62280000D01*
X143630000Y-65740000D02*
X141065000Y-65740000D01*
X143510000Y-65745000D02*
X146965000Y-65745000D01*
D67*
X151365000Y-61495000D02*
X151380000Y-61480000D01*
D69*
X146965000Y-65745000D02*
X147940000Y-64770000D01*
X148740000Y-61480000D02*
X151380000Y-61480000D01*
%TO.N,/V_SEC_IN*%
X138127500Y-65752500D02*
X131317500Y-65752500D01*
D67*
X179410000Y-152085000D02*
X179415000Y-152080000D01*
D69*
X131805000Y-138720000D02*
X131175000Y-138090000D01*
X131317500Y-65752500D02*
X130815000Y-66255000D01*
D67*
X179410000Y-152085000D02*
X165935000Y-152085000D01*
D69*
X137927500Y-138720000D02*
X131805000Y-138720000D01*
D67*
X179410000Y-153950000D02*
X179410000Y-152085000D01*
X165935000Y-152085000D02*
X158135000Y-144285000D01*
D69*
%TO.N,Net-(F2-Pad2)*%
X140865000Y-138707500D02*
X140852500Y-138720000D01*
X146720000Y-136160000D02*
X147500000Y-135380000D01*
X143430000Y-138707500D02*
X140865000Y-138707500D01*
X147500000Y-135380000D02*
X150110000Y-135380000D01*
X145717500Y-138752500D02*
X146720000Y-137750000D01*
X143276250Y-138752500D02*
X145717500Y-138752500D01*
X146720000Y-137750000D02*
X146720000Y-136160000D01*
D67*
%TO.N,/P5V_I_MON*%
X242400000Y-173010000D02*
X242390000Y-173000000D01*
X245270000Y-173010000D02*
X242400000Y-173010000D01*
%TO.N,/TEMP_MON*%
X199905000Y-186230000D02*
X198270000Y-186230000D01*
%TO.N,/P5V_V_MON*%
X246725000Y-194880000D02*
X246730000Y-194885000D01*
X247645000Y-194885000D02*
X246730000Y-194885000D01*
X248110000Y-195350000D02*
X247645000Y-194885000D01*
X246730000Y-194885000D02*
X245485000Y-194885000D01*
X249370002Y-200120002D02*
X249035000Y-199785000D01*
X249035000Y-199785000D02*
X248110000Y-199785000D01*
X245485000Y-194885000D02*
X245480000Y-194890000D01*
X250410000Y-200120002D02*
X249370002Y-200120002D01*
X248110000Y-199785000D02*
X248110000Y-195350000D01*
%TO.N,/M5V_V_MON*%
X238395000Y-179080000D02*
X236630000Y-179080000D01*
X249245000Y-231125000D02*
X249570000Y-231450000D01*
X236665000Y-231125000D02*
X236630000Y-231090000D01*
X248420000Y-231125000D02*
X236665000Y-231125000D01*
X248420000Y-231125000D02*
X249245000Y-231125000D01*
X249570000Y-231450000D02*
X250600000Y-231450000D01*
%TO.N,/M5V_I_MON*%
X245265000Y-174920000D02*
X242430000Y-174920000D01*
X242430000Y-174920000D02*
X242420000Y-174910000D01*
D69*
%TO.N,/M5V_OUT*%
X266760000Y-134520000D02*
X265530000Y-134520000D01*
D67*
X267205000Y-139085000D02*
X265525000Y-139085000D01*
X265183400Y-138743400D02*
X265525000Y-139085000D01*
D69*
X278970000Y-134410000D02*
X266870000Y-134410000D01*
D67*
X265183400Y-134520000D02*
X265183400Y-138743400D01*
X278970000Y-142515000D02*
X278970000Y-134410000D01*
D69*
X266870000Y-134410000D02*
X266760000Y-134520000D01*
D67*
%TO.N,/P5V_OUT*%
X262040000Y-59466600D02*
X262033400Y-59460000D01*
X278990000Y-68465000D02*
X278970000Y-68445000D01*
X278970000Y-68445000D02*
X278970000Y-60900000D01*
D69*
X271470000Y-60900000D02*
X270020000Y-59450000D01*
X270020000Y-59450000D02*
X262350000Y-59450000D01*
X278970000Y-60900000D02*
X271470000Y-60900000D01*
D67*
X262040000Y-61890000D02*
X262040000Y-59466600D01*
%TO.N,Net-(M1-Pad3)*%
X186275000Y-175105000D02*
X186275000Y-173504200D01*
X187040000Y-175870000D02*
X186275000Y-175105000D01*
X187980000Y-175870000D02*
X187040000Y-175870000D01*
X188950000Y-177975000D02*
X188950000Y-176840000D01*
X188950000Y-176840000D02*
X187980000Y-175870000D01*
%TO.N,Net-(M1-Pad1)*%
X188115000Y-180775000D02*
X188450001Y-180439999D01*
X188450001Y-178210001D02*
X188450001Y-179325000D01*
X188115000Y-181630000D02*
X188115000Y-180775000D01*
X181585000Y-176640000D02*
X183400000Y-176640000D01*
X186880000Y-176640000D02*
X188450001Y-178210001D01*
X188450001Y-180439999D02*
X188450001Y-179325000D01*
X186130000Y-176640000D02*
X186880000Y-176640000D01*
%TO.N,/Main_DC-DC_Converters/Enable_CKT/Enable*%
X181065000Y-147250000D02*
X181065000Y-143195000D01*
X184310000Y-152080000D02*
X181065000Y-152080000D01*
X177290000Y-147250000D02*
X177270000Y-147230000D01*
X181065000Y-152080000D02*
X181065000Y-147250000D01*
X185639999Y-161170000D02*
X185639999Y-153409999D01*
X181065000Y-143195000D02*
X181500000Y-142760000D01*
X185639999Y-153409999D02*
X184310000Y-152080000D01*
X181065000Y-147250000D02*
X177290000Y-147250000D01*
%TO.N,Net-(M2-Pad1)*%
X185005000Y-166045000D02*
X184855000Y-165895000D01*
X185140000Y-163680000D02*
X185140000Y-162520000D01*
X185005000Y-167255800D02*
X185005000Y-166045000D01*
X181060000Y-157630000D02*
X181060000Y-153950000D01*
X184855000Y-165895000D02*
X184855000Y-164750000D01*
X185140000Y-161710000D02*
X181060000Y-157630000D01*
X184855000Y-163965000D02*
X185140000Y-163680000D01*
X184855000Y-164750000D02*
X184855000Y-163965000D01*
X185140000Y-162520000D02*
X185140000Y-161710000D01*
%TO.N,Net-(M3-Pad3)*%
X251760000Y-200620001D02*
X260039999Y-200620001D01*
X260039999Y-200620001D02*
X260040000Y-200620000D01*
%TO.N,Net-(M4-Pad3)*%
X259679999Y-231949999D02*
X259680000Y-231950000D01*
X251950000Y-231949999D02*
X259679999Y-231949999D01*
%TO.N,Net-(P2-Pad1)*%
X252765000Y-247060000D02*
X259750000Y-247060000D01*
X259750000Y-247060000D02*
X259760000Y-247070000D01*
%TO.N,Net-(P3-Pad1)*%
X252845000Y-215770000D02*
X260100000Y-215770000D01*
%TO.N,Net-(Q1-Pad1)*%
X181830000Y-189320000D02*
X168785000Y-189320000D01*
X185005000Y-186145000D02*
X181830000Y-189320000D01*
X185005000Y-173504200D02*
X185005000Y-186145000D01*
%TO.N,/Main_DC-DC_Converters/Enable_SIG*%
X162450000Y-185370000D02*
X171180000Y-176640000D01*
X171180000Y-176640000D02*
X179935000Y-176640000D01*
X156095000Y-185370000D02*
X162450000Y-185370000D01*
%TO.N,Net-(U2-R)*%
X147660000Y-184280002D02*
X148749998Y-185370000D01*
X148749998Y-185370000D02*
X154445000Y-185370000D01*
X147660000Y-183020000D02*
X147660000Y-184280002D01*
%TO.N,Net-(U7-OUT)*%
X267205000Y-142895000D02*
X269245000Y-142895000D01*
X270190000Y-143840000D02*
X270190000Y-145585000D01*
X269245000Y-142895000D02*
X270190000Y-143840000D01*
%TO.N,Net-(U12A-+INA)*%
X264435000Y-70015000D02*
X260820000Y-73630000D01*
X277130000Y-70015000D02*
X264435000Y-70015000D01*
X249960000Y-192680000D02*
X249095000Y-191815000D01*
X259030000Y-192680000D02*
X249960000Y-192680000D01*
X249095000Y-191815000D02*
X249095000Y-188193800D01*
X278990000Y-70015000D02*
X277130000Y-70015000D01*
%TO.N,Net-(U12B--INB)*%
X249095000Y-181715000D02*
X248950000Y-181570000D01*
X248940000Y-179650000D02*
X250470000Y-179650000D01*
X248950000Y-180880000D02*
X248950000Y-179660000D01*
X248950000Y-181570000D02*
X248950000Y-180880000D01*
X250470000Y-179650000D02*
X250480000Y-179640000D01*
X249095000Y-183266200D02*
X249095000Y-181715000D01*
X278950000Y-146030000D02*
X278950000Y-144085000D01*
X278950000Y-144085000D02*
X278970000Y-144065000D01*
X248950000Y-179660000D02*
X248940000Y-179650000D01*
%TO.N,Net-(U11--IN)*%
X236720000Y-192840000D02*
X238080000Y-192840000D01*
%TO.N,Net-(U11-OUT)*%
X233990000Y-193270000D02*
X233990000Y-194720000D01*
X235700000Y-192840000D02*
X234420000Y-192840000D01*
X234420000Y-192840000D02*
X234150000Y-193110000D01*
X233990000Y-194720000D02*
X233990000Y-195470000D01*
X234150000Y-193110000D02*
X233990000Y-193270000D01*
%TO.N,Net-(U12B-+INB)*%
X250365000Y-183266200D02*
X250365000Y-181675000D01*
X250365000Y-181675000D02*
X250890000Y-181150000D01*
X250890000Y-181150000D02*
X252525000Y-181150000D01*
%TO.N,Net-(U12B-B_OUT)*%
X247930000Y-180880000D02*
X247930000Y-179700000D01*
X247980000Y-179650000D02*
X246550000Y-179650000D01*
X246550000Y-179650000D02*
X245980000Y-179080000D01*
X247930000Y-179700000D02*
X247980000Y-179650000D01*
X247930000Y-181710000D02*
X247930000Y-180880000D01*
X247825000Y-183266200D02*
X247825000Y-181815000D01*
X247825000Y-181815000D02*
X247930000Y-181710000D01*
X245980000Y-179080000D02*
X240045000Y-179080000D01*
%TO.N,Net-(U13-ADJ)*%
X223095000Y-240150000D02*
X225175000Y-240150000D01*
X223099600Y-242720000D02*
X223099600Y-240154600D01*
X225175000Y-240150000D02*
X225195000Y-240170000D01*
X223099600Y-240154600D02*
X223095000Y-240150000D01*
%TO.N,/Enable-*%
X133419000Y-182841000D02*
X129940000Y-182841000D01*
X143686297Y-182051200D02*
X134208800Y-182051200D01*
X144655097Y-183020000D02*
X143686297Y-182051200D01*
X145759998Y-183020000D02*
X144655097Y-183020000D01*
X134208800Y-182051200D02*
X133419000Y-182841000D01*
%TO.N,/Enable+*%
X132574800Y-181601200D02*
X132480000Y-181696000D01*
X145759998Y-180632400D02*
X144655097Y-180632400D01*
X144655097Y-180632400D02*
X143686297Y-181601200D01*
X143686297Y-181601200D02*
X132574800Y-181601200D01*
D69*
%TO.N,Net-(L1-Pad1)*%
X166582500Y-64082500D02*
X163980000Y-61480000D01*
X168720000Y-64082500D02*
X166582500Y-64082500D01*
%TO.N,Net-(L2-Pad1)*%
X165827500Y-55932500D02*
X163980000Y-57780000D01*
X168640000Y-55932500D02*
X165827500Y-55932500D01*
%TO.N,Net-(L10-Pad2)*%
X164900000Y-135380000D02*
X162710000Y-135380000D01*
X168160000Y-137605000D02*
X167125000Y-137605000D01*
X167125000Y-137605000D02*
X164900000Y-135380000D01*
%TO.N,Net-(L10-Pad1)*%
X168080000Y-129455000D02*
X167055000Y-129455000D01*
X167055000Y-129455000D02*
X164830000Y-131680000D01*
X164830000Y-131680000D02*
X162710000Y-131680000D01*
%TD*%
%TA.AperFunction,Conductor*%
%TO.N,/V_SEC_RTN*%
G36*
X137663039Y-123379685D02*
G01*
X137708794Y-123432489D01*
X137720000Y-123484000D01*
X137720000Y-127046000D01*
X137700315Y-127113039D01*
X137647511Y-127158794D01*
X137596000Y-127170000D01*
X132764000Y-127170000D01*
X132696961Y-127150315D01*
X132651206Y-127097511D01*
X132640000Y-127046000D01*
X132640000Y-123484000D01*
X132659685Y-123416961D01*
X132712489Y-123371206D01*
X132764000Y-123360000D01*
X137596000Y-123360000D01*
X137663039Y-123379685D01*
G37*
%TD.AperFunction*%
%TD*%
%TA.AperFunction,Conductor*%
%TO.N,/V_TELEM_RTN*%
G36*
X153633039Y-203359685D02*
G01*
X153678794Y-203412489D01*
X153690000Y-203464000D01*
X153690000Y-207026000D01*
X153670315Y-207093039D01*
X153617511Y-207138794D01*
X153566000Y-207150000D01*
X148734000Y-207150000D01*
X148666961Y-207130315D01*
X148621206Y-207077511D01*
X148610000Y-207026000D01*
X148610000Y-203464000D01*
X148629685Y-203396961D01*
X148682489Y-203351206D01*
X148734000Y-203340000D01*
X153566000Y-203340000D01*
X153633039Y-203359685D01*
G37*
%TD.AperFunction*%
%TD*%
%TA.AperFunction,Conductor*%
%TO.N,/V_TELEM_IN*%
G36*
X148553039Y-248444685D02*
G01*
X148598794Y-248497489D01*
X148610000Y-248549000D01*
X148610000Y-250841000D01*
X148590315Y-250908039D01*
X148537511Y-250953794D01*
X148486000Y-250965000D01*
X144924000Y-250965000D01*
X144856961Y-250945315D01*
X144811206Y-250892511D01*
X144800000Y-250841000D01*
X144800000Y-248549000D01*
X144819685Y-248481961D01*
X144872489Y-248436206D01*
X144924000Y-248425000D01*
X148486000Y-248425000D01*
X148553039Y-248444685D01*
G37*
%TD.AperFunction*%
%TD*%
%TA.AperFunction,Conductor*%
%TO.N,/V_SEC_IN*%
G36*
X134568039Y-63734685D02*
G01*
X134613794Y-63787489D01*
X134625000Y-63839000D01*
X134625000Y-67401000D01*
X134605315Y-67468039D01*
X134552511Y-67513794D01*
X134501000Y-67525000D01*
X129669000Y-67525000D01*
X129601961Y-67505315D01*
X129556206Y-67452511D01*
X129545000Y-67401000D01*
X129545000Y-63839000D01*
X129564685Y-63771961D01*
X129617489Y-63726206D01*
X129669000Y-63715000D01*
X134501000Y-63715000D01*
X134568039Y-63734685D01*
G37*
%TD.AperFunction*%
%TD*%
%TA.AperFunction,Conductor*%
%TO.N,/V_SEC_IN*%
G36*
X134928039Y-136839685D02*
G01*
X134973794Y-136892489D01*
X134985000Y-136944000D01*
X134985000Y-140506000D01*
X134965315Y-140573039D01*
X134912511Y-140618794D01*
X134861000Y-140630000D01*
X130029000Y-140630000D01*
X129961961Y-140610315D01*
X129916206Y-140557511D01*
X129905000Y-140506000D01*
X129905000Y-136944000D01*
X129924685Y-136876961D01*
X129977489Y-136831206D01*
X130029000Y-136820000D01*
X134861000Y-136820000D01*
X134928039Y-136839685D01*
G37*
%TD.AperFunction*%
%TD*%
%TA.AperFunction,Conductor*%
%TO.N,/V_TELEM_IN*%
G36*
X148553039Y-209074685D02*
G01*
X148598794Y-209127489D01*
X148610000Y-209179000D01*
X148610000Y-211471000D01*
X148590315Y-211538039D01*
X148537511Y-211583794D01*
X148486000Y-211595000D01*
X144924000Y-211595000D01*
X144856961Y-211575315D01*
X144811206Y-211522511D01*
X144800000Y-211471000D01*
X144800000Y-209179000D01*
X144819685Y-209111961D01*
X144872489Y-209066206D01*
X144924000Y-209055000D01*
X148486000Y-209055000D01*
X148553039Y-209074685D01*
G37*
%TD.AperFunction*%
%TD*%
%TA.AperFunction,Conductor*%
%TO.N,/V_SEC_RTN*%
G36*
X137133039Y-54989685D02*
G01*
X137178794Y-55042489D01*
X137190000Y-55094000D01*
X137190000Y-58656000D01*
X137170315Y-58723039D01*
X137117511Y-58768794D01*
X137066000Y-58780000D01*
X132234000Y-58780000D01*
X132166961Y-58760315D01*
X132121206Y-58707511D01*
X132110000Y-58656000D01*
X132110000Y-55094000D01*
X132129685Y-55026961D01*
X132182489Y-54981206D01*
X132234000Y-54970000D01*
X137066000Y-54970000D01*
X137133039Y-54989685D01*
G37*
%TD.AperFunction*%
%TD*%
%TA.AperFunction,Conductor*%
%TO.N,/V_TELEM_RTN*%
G36*
X153633039Y-240189685D02*
G01*
X153678794Y-240242489D01*
X153690000Y-240294000D01*
X153690000Y-243856000D01*
X153670315Y-243923039D01*
X153617511Y-243968794D01*
X153566000Y-243980000D01*
X148734000Y-243980000D01*
X148666961Y-243960315D01*
X148621206Y-243907511D01*
X148610000Y-243856000D01*
X148610000Y-240294000D01*
X148629685Y-240226961D01*
X148682489Y-240181206D01*
X148734000Y-240170000D01*
X153566000Y-240170000D01*
X153633039Y-240189685D01*
G37*
%TD.AperFunction*%
%TD*%
%TA.AperFunction,Conductor*%
%TO.N,GNDPWR*%
G36*
X248248039Y-104934685D02*
G01*
X248293794Y-104987489D01*
X248305000Y-105039000D01*
X248305000Y-112411000D01*
X248285315Y-112478039D01*
X248232511Y-112523794D01*
X248181000Y-112535000D01*
X239415000Y-112535000D01*
X239415000Y-156985000D01*
X248181000Y-156985000D01*
X248248039Y-157004685D01*
X248293794Y-157057489D01*
X248305000Y-157109000D01*
X248305000Y-163846000D01*
X248285315Y-163913039D01*
X248232511Y-163958794D01*
X248181000Y-163970000D01*
X193184000Y-163970000D01*
X193116961Y-163950315D01*
X193071206Y-163897511D01*
X193060000Y-163846000D01*
X193060000Y-159588872D01*
X194234500Y-159588872D01*
X194234500Y-159851127D01*
X194261123Y-160053339D01*
X194268730Y-160111116D01*
X194336602Y-160364418D01*
X194336605Y-160364428D01*
X194436953Y-160606690D01*
X194436958Y-160606700D01*
X194568075Y-160833803D01*
X194727718Y-161041851D01*
X194727726Y-161041860D01*
X194913140Y-161227274D01*
X194913148Y-161227281D01*
X195121196Y-161386924D01*
X195348299Y-161518041D01*
X195348309Y-161518046D01*
X195590571Y-161618394D01*
X195590581Y-161618398D01*
X195843884Y-161686270D01*
X196103880Y-161720500D01*
X196103887Y-161720500D01*
X196366113Y-161720500D01*
X196366120Y-161720500D01*
X196626116Y-161686270D01*
X196879419Y-161618398D01*
X197121697Y-161518043D01*
X197348803Y-161386924D01*
X197556851Y-161227282D01*
X197556855Y-161227277D01*
X197556860Y-161227274D01*
X197742274Y-161041860D01*
X197742277Y-161041855D01*
X197742282Y-161041851D01*
X197901924Y-160833803D01*
X198033043Y-160606697D01*
X198133398Y-160364419D01*
X198201270Y-160111116D01*
X198235500Y-159851120D01*
X198235500Y-159588880D01*
X198235499Y-159588872D01*
X242484500Y-159588872D01*
X242484500Y-159851127D01*
X242511123Y-160053339D01*
X242518730Y-160111116D01*
X242586602Y-160364418D01*
X242586605Y-160364428D01*
X242686953Y-160606690D01*
X242686958Y-160606700D01*
X242818075Y-160833803D01*
X242977718Y-161041851D01*
X242977726Y-161041860D01*
X243163140Y-161227274D01*
X243163148Y-161227281D01*
X243371196Y-161386924D01*
X243598299Y-161518041D01*
X243598309Y-161518046D01*
X243840571Y-161618394D01*
X243840581Y-161618398D01*
X244093884Y-161686270D01*
X244353880Y-161720500D01*
X244353887Y-161720500D01*
X244616113Y-161720500D01*
X244616120Y-161720500D01*
X244876116Y-161686270D01*
X245129419Y-161618398D01*
X245371697Y-161518043D01*
X245598803Y-161386924D01*
X245806851Y-161227282D01*
X245806855Y-161227277D01*
X245806860Y-161227274D01*
X245992274Y-161041860D01*
X245992277Y-161041855D01*
X245992282Y-161041851D01*
X246151924Y-160833803D01*
X246283043Y-160606697D01*
X246383398Y-160364419D01*
X246451270Y-160111116D01*
X246485500Y-159851120D01*
X246485500Y-159588880D01*
X246451270Y-159328884D01*
X246383398Y-159075581D01*
X246383394Y-159075571D01*
X246283046Y-158833309D01*
X246283041Y-158833299D01*
X246151924Y-158606196D01*
X245992281Y-158398148D01*
X245992274Y-158398140D01*
X245806860Y-158212726D01*
X245806851Y-158212718D01*
X245598803Y-158053075D01*
X245371700Y-157921958D01*
X245371690Y-157921953D01*
X245129428Y-157821605D01*
X245129421Y-157821603D01*
X245129419Y-157821602D01*
X244876116Y-157753730D01*
X244818339Y-157746123D01*
X244616127Y-157719500D01*
X244616120Y-157719500D01*
X244353880Y-157719500D01*
X244353872Y-157719500D01*
X244122772Y-157749926D01*
X244093884Y-157753730D01*
X243840581Y-157821602D01*
X243840571Y-157821605D01*
X243598309Y-157921953D01*
X243598299Y-157921958D01*
X243371196Y-158053075D01*
X243163148Y-158212718D01*
X242977718Y-158398148D01*
X242818075Y-158606196D01*
X242686958Y-158833299D01*
X242686953Y-158833309D01*
X242586605Y-159075571D01*
X242586602Y-159075581D01*
X242518730Y-159328885D01*
X242484500Y-159588872D01*
X198235499Y-159588872D01*
X198201270Y-159328884D01*
X198133398Y-159075581D01*
X198133394Y-159075571D01*
X198033046Y-158833309D01*
X198033041Y-158833299D01*
X197901924Y-158606196D01*
X197742281Y-158398148D01*
X197742274Y-158398140D01*
X197556860Y-158212726D01*
X197556851Y-158212718D01*
X197348803Y-158053075D01*
X197121700Y-157921958D01*
X197121690Y-157921953D01*
X196879428Y-157821605D01*
X196879421Y-157821603D01*
X196879419Y-157821602D01*
X196626116Y-157753730D01*
X196568339Y-157746123D01*
X196366127Y-157719500D01*
X196366120Y-157719500D01*
X196103880Y-157719500D01*
X196103872Y-157719500D01*
X195872772Y-157749926D01*
X195843884Y-157753730D01*
X195590581Y-157821602D01*
X195590571Y-157821605D01*
X195348309Y-157921953D01*
X195348299Y-157921958D01*
X195121196Y-158053075D01*
X194913148Y-158212718D01*
X194727718Y-158398148D01*
X194568075Y-158606196D01*
X194436958Y-158833299D01*
X194436953Y-158833309D01*
X194336605Y-159075571D01*
X194336602Y-159075581D01*
X194268730Y-159328885D01*
X194234500Y-159588872D01*
X193060000Y-159588872D01*
X193060000Y-157109000D01*
X193079685Y-157041961D01*
X193132489Y-156996206D01*
X193184000Y-156985000D01*
X201315000Y-156985000D01*
X201315000Y-112535000D01*
X193184000Y-112535000D01*
X193116961Y-112515315D01*
X193071206Y-112462511D01*
X193060000Y-112411000D01*
X193060000Y-108788872D01*
X194234500Y-108788872D01*
X194234500Y-109051127D01*
X194261123Y-109253339D01*
X194268730Y-109311116D01*
X194336602Y-109564418D01*
X194336605Y-109564428D01*
X194436953Y-109806690D01*
X194436958Y-109806700D01*
X194568075Y-110033803D01*
X194727718Y-110241851D01*
X194727726Y-110241860D01*
X194913140Y-110427274D01*
X194913148Y-110427281D01*
X195121196Y-110586924D01*
X195348299Y-110718041D01*
X195348309Y-110718046D01*
X195590571Y-110818394D01*
X195590581Y-110818398D01*
X195843884Y-110886270D01*
X196103880Y-110920500D01*
X196103887Y-110920500D01*
X196366113Y-110920500D01*
X196366120Y-110920500D01*
X196626116Y-110886270D01*
X196879419Y-110818398D01*
X197121697Y-110718043D01*
X197348803Y-110586924D01*
X197556851Y-110427282D01*
X197556855Y-110427277D01*
X197556860Y-110427274D01*
X197742274Y-110241860D01*
X197742277Y-110241855D01*
X197742282Y-110241851D01*
X197901924Y-110033803D01*
X198033043Y-109806697D01*
X198133398Y-109564419D01*
X198201270Y-109311116D01*
X198235500Y-109051120D01*
X198235500Y-108788880D01*
X198235499Y-108788872D01*
X242484500Y-108788872D01*
X242484500Y-109051127D01*
X242511123Y-109253339D01*
X242518730Y-109311116D01*
X242586602Y-109564418D01*
X242586605Y-109564428D01*
X242686953Y-109806690D01*
X242686958Y-109806700D01*
X242818075Y-110033803D01*
X242977718Y-110241851D01*
X242977726Y-110241860D01*
X243163140Y-110427274D01*
X243163148Y-110427281D01*
X243371196Y-110586924D01*
X243598299Y-110718041D01*
X243598309Y-110718046D01*
X243840571Y-110818394D01*
X243840581Y-110818398D01*
X244093884Y-110886270D01*
X244353880Y-110920500D01*
X244353887Y-110920500D01*
X244616113Y-110920500D01*
X244616120Y-110920500D01*
X244876116Y-110886270D01*
X245129419Y-110818398D01*
X245371697Y-110718043D01*
X245598803Y-110586924D01*
X245806851Y-110427282D01*
X245806855Y-110427277D01*
X245806860Y-110427274D01*
X245992274Y-110241860D01*
X245992277Y-110241855D01*
X245992282Y-110241851D01*
X246151924Y-110033803D01*
X246283043Y-109806697D01*
X246383398Y-109564419D01*
X246451270Y-109311116D01*
X246485500Y-109051120D01*
X246485500Y-108788880D01*
X246451270Y-108528884D01*
X246383398Y-108275581D01*
X246383394Y-108275571D01*
X246283046Y-108033309D01*
X246283041Y-108033299D01*
X246151924Y-107806196D01*
X245992281Y-107598148D01*
X245992274Y-107598140D01*
X245806860Y-107412726D01*
X245806851Y-107412718D01*
X245598803Y-107253075D01*
X245371700Y-107121958D01*
X245371690Y-107121953D01*
X245129428Y-107021605D01*
X245129421Y-107021603D01*
X245129419Y-107021602D01*
X244876116Y-106953730D01*
X244818339Y-106946123D01*
X244616127Y-106919500D01*
X244616120Y-106919500D01*
X244353880Y-106919500D01*
X244353872Y-106919500D01*
X244122772Y-106949926D01*
X244093884Y-106953730D01*
X243840581Y-107021602D01*
X243840571Y-107021605D01*
X243598309Y-107121953D01*
X243598299Y-107121958D01*
X243371196Y-107253075D01*
X243163148Y-107412718D01*
X242977718Y-107598148D01*
X242818075Y-107806196D01*
X242686958Y-108033299D01*
X242686953Y-108033309D01*
X242586605Y-108275571D01*
X242586602Y-108275581D01*
X242518730Y-108528885D01*
X242484500Y-108788872D01*
X198235499Y-108788872D01*
X198201270Y-108528884D01*
X198133398Y-108275581D01*
X198133394Y-108275571D01*
X198033046Y-108033309D01*
X198033041Y-108033299D01*
X197901924Y-107806196D01*
X197742281Y-107598148D01*
X197742274Y-107598140D01*
X197556860Y-107412726D01*
X197556851Y-107412718D01*
X197348803Y-107253075D01*
X197121700Y-107121958D01*
X197121690Y-107121953D01*
X196879428Y-107021605D01*
X196879421Y-107021603D01*
X196879419Y-107021602D01*
X196626116Y-106953730D01*
X196568339Y-106946123D01*
X196366127Y-106919500D01*
X196366120Y-106919500D01*
X196103880Y-106919500D01*
X196103872Y-106919500D01*
X195872772Y-106949926D01*
X195843884Y-106953730D01*
X195590581Y-107021602D01*
X195590571Y-107021605D01*
X195348309Y-107121953D01*
X195348299Y-107121958D01*
X195121196Y-107253075D01*
X194913148Y-107412718D01*
X194727718Y-107598148D01*
X194568075Y-107806196D01*
X194436958Y-108033299D01*
X194436953Y-108033309D01*
X194336605Y-108275571D01*
X194336602Y-108275581D01*
X194268730Y-108528885D01*
X194234500Y-108788872D01*
X193060000Y-108788872D01*
X193060000Y-105039000D01*
X193079685Y-104971961D01*
X193132489Y-104926206D01*
X193184000Y-104915000D01*
X248181000Y-104915000D01*
X248248039Y-104934685D01*
G37*
%TD.AperFunction*%
%TD*%
%TA.AperFunction,Conductor*%
%TO.N,GNDPWR*%
G36*
X248248039Y-31274685D02*
G01*
X248293794Y-31327489D01*
X248305000Y-31379000D01*
X248305000Y-38751000D01*
X248285315Y-38818039D01*
X248232511Y-38863794D01*
X248181000Y-38875000D01*
X239415000Y-38875000D01*
X239415000Y-83325000D01*
X248181000Y-83325000D01*
X248248039Y-83344685D01*
X248293794Y-83397489D01*
X248305000Y-83449000D01*
X248305000Y-90186000D01*
X248285315Y-90253039D01*
X248232511Y-90298794D01*
X248181000Y-90310000D01*
X193184000Y-90310000D01*
X193116961Y-90290315D01*
X193071206Y-90237511D01*
X193060000Y-90186000D01*
X193060000Y-86066372D01*
X194794500Y-86066372D01*
X194794500Y-86328627D01*
X194821123Y-86530839D01*
X194828730Y-86588616D01*
X194896602Y-86841918D01*
X194896605Y-86841928D01*
X194996953Y-87084190D01*
X194996958Y-87084200D01*
X195128075Y-87311303D01*
X195287718Y-87519351D01*
X195287726Y-87519360D01*
X195473140Y-87704774D01*
X195473148Y-87704781D01*
X195681196Y-87864424D01*
X195908299Y-87995541D01*
X195908309Y-87995546D01*
X196150571Y-88095894D01*
X196150581Y-88095898D01*
X196403884Y-88163770D01*
X196663880Y-88198000D01*
X196663887Y-88198000D01*
X196926113Y-88198000D01*
X196926120Y-88198000D01*
X197186116Y-88163770D01*
X197439419Y-88095898D01*
X197681697Y-87995543D01*
X197908803Y-87864424D01*
X198116851Y-87704782D01*
X198116855Y-87704777D01*
X198116860Y-87704774D01*
X198302274Y-87519360D01*
X198302277Y-87519355D01*
X198302282Y-87519351D01*
X198461924Y-87311303D01*
X198593043Y-87084197D01*
X198693398Y-86841919D01*
X198761270Y-86588616D01*
X198795500Y-86328620D01*
X198795500Y-86066380D01*
X198795499Y-86066372D01*
X243044500Y-86066372D01*
X243044500Y-86328627D01*
X243071123Y-86530839D01*
X243078730Y-86588616D01*
X243146602Y-86841918D01*
X243146605Y-86841928D01*
X243246953Y-87084190D01*
X243246958Y-87084200D01*
X243378075Y-87311303D01*
X243537718Y-87519351D01*
X243537726Y-87519360D01*
X243723140Y-87704774D01*
X243723148Y-87704781D01*
X243931196Y-87864424D01*
X244158299Y-87995541D01*
X244158309Y-87995546D01*
X244400571Y-88095894D01*
X244400581Y-88095898D01*
X244653884Y-88163770D01*
X244913880Y-88198000D01*
X244913887Y-88198000D01*
X245176113Y-88198000D01*
X245176120Y-88198000D01*
X245436116Y-88163770D01*
X245689419Y-88095898D01*
X245931697Y-87995543D01*
X246158803Y-87864424D01*
X246366851Y-87704782D01*
X246366855Y-87704777D01*
X246366860Y-87704774D01*
X246552274Y-87519360D01*
X246552277Y-87519355D01*
X246552282Y-87519351D01*
X246711924Y-87311303D01*
X246843043Y-87084197D01*
X246943398Y-86841919D01*
X247011270Y-86588616D01*
X247045500Y-86328620D01*
X247045500Y-86066380D01*
X247011270Y-85806384D01*
X246943398Y-85553081D01*
X246943394Y-85553071D01*
X246843046Y-85310809D01*
X246843041Y-85310799D01*
X246711924Y-85083696D01*
X246552281Y-84875648D01*
X246552274Y-84875640D01*
X246366860Y-84690226D01*
X246366851Y-84690218D01*
X246158803Y-84530575D01*
X245931700Y-84399458D01*
X245931690Y-84399453D01*
X245689428Y-84299105D01*
X245689421Y-84299103D01*
X245689419Y-84299102D01*
X245436116Y-84231230D01*
X245378339Y-84223623D01*
X245176127Y-84197000D01*
X245176120Y-84197000D01*
X244913880Y-84197000D01*
X244913872Y-84197000D01*
X244682772Y-84227426D01*
X244653884Y-84231230D01*
X244400581Y-84299102D01*
X244400571Y-84299105D01*
X244158309Y-84399453D01*
X244158299Y-84399458D01*
X243931196Y-84530575D01*
X243723148Y-84690218D01*
X243537718Y-84875648D01*
X243378075Y-85083696D01*
X243246958Y-85310799D01*
X243246953Y-85310809D01*
X243146605Y-85553071D01*
X243146602Y-85553081D01*
X243078730Y-85806385D01*
X243044500Y-86066372D01*
X198795499Y-86066372D01*
X198761270Y-85806384D01*
X198693398Y-85553081D01*
X198693394Y-85553071D01*
X198593046Y-85310809D01*
X198593041Y-85310799D01*
X198461924Y-85083696D01*
X198302281Y-84875648D01*
X198302274Y-84875640D01*
X198116860Y-84690226D01*
X198116851Y-84690218D01*
X197908803Y-84530575D01*
X197681700Y-84399458D01*
X197681690Y-84399453D01*
X197439428Y-84299105D01*
X197439421Y-84299103D01*
X197439419Y-84299102D01*
X197186116Y-84231230D01*
X197128339Y-84223623D01*
X196926127Y-84197000D01*
X196926120Y-84197000D01*
X196663880Y-84197000D01*
X196663872Y-84197000D01*
X196432772Y-84227426D01*
X196403884Y-84231230D01*
X196150581Y-84299102D01*
X196150571Y-84299105D01*
X195908309Y-84399453D01*
X195908299Y-84399458D01*
X195681196Y-84530575D01*
X195473148Y-84690218D01*
X195287718Y-84875648D01*
X195128075Y-85083696D01*
X194996958Y-85310799D01*
X194996953Y-85310809D01*
X194896605Y-85553071D01*
X194896602Y-85553081D01*
X194828730Y-85806385D01*
X194794500Y-86066372D01*
X193060000Y-86066372D01*
X193060000Y-83449000D01*
X193079685Y-83381961D01*
X193132489Y-83336206D01*
X193184000Y-83325000D01*
X201315000Y-83325000D01*
X201315000Y-38875000D01*
X193184000Y-38875000D01*
X193116961Y-38855315D01*
X193071206Y-38802511D01*
X193060000Y-38751000D01*
X193060000Y-35266372D01*
X194794500Y-35266372D01*
X194794500Y-35528627D01*
X194821123Y-35730839D01*
X194828730Y-35788616D01*
X194896602Y-36041918D01*
X194896605Y-36041928D01*
X194996953Y-36284190D01*
X194996958Y-36284200D01*
X195128075Y-36511303D01*
X195287718Y-36719351D01*
X195287726Y-36719360D01*
X195473140Y-36904774D01*
X195473148Y-36904781D01*
X195681196Y-37064424D01*
X195908299Y-37195541D01*
X195908309Y-37195546D01*
X196150571Y-37295894D01*
X196150581Y-37295898D01*
X196403884Y-37363770D01*
X196663880Y-37398000D01*
X196663887Y-37398000D01*
X196926113Y-37398000D01*
X196926120Y-37398000D01*
X197186116Y-37363770D01*
X197439419Y-37295898D01*
X197681697Y-37195543D01*
X197908803Y-37064424D01*
X198116851Y-36904782D01*
X198116855Y-36904777D01*
X198116860Y-36904774D01*
X198302274Y-36719360D01*
X198302277Y-36719355D01*
X198302282Y-36719351D01*
X198461924Y-36511303D01*
X198593043Y-36284197D01*
X198693398Y-36041919D01*
X198761270Y-35788616D01*
X198795500Y-35528620D01*
X198795500Y-35266380D01*
X198795499Y-35266372D01*
X243044500Y-35266372D01*
X243044500Y-35528627D01*
X243071123Y-35730839D01*
X243078730Y-35788616D01*
X243146602Y-36041918D01*
X243146605Y-36041928D01*
X243246953Y-36284190D01*
X243246958Y-36284200D01*
X243378075Y-36511303D01*
X243537718Y-36719351D01*
X243537726Y-36719360D01*
X243723140Y-36904774D01*
X243723148Y-36904781D01*
X243931196Y-37064424D01*
X244158299Y-37195541D01*
X244158309Y-37195546D01*
X244400571Y-37295894D01*
X244400581Y-37295898D01*
X244653884Y-37363770D01*
X244913880Y-37398000D01*
X244913887Y-37398000D01*
X245176113Y-37398000D01*
X245176120Y-37398000D01*
X245436116Y-37363770D01*
X245689419Y-37295898D01*
X245931697Y-37195543D01*
X246158803Y-37064424D01*
X246366851Y-36904782D01*
X246366855Y-36904777D01*
X246366860Y-36904774D01*
X246552274Y-36719360D01*
X246552277Y-36719355D01*
X246552282Y-36719351D01*
X246711924Y-36511303D01*
X246843043Y-36284197D01*
X246943398Y-36041919D01*
X247011270Y-35788616D01*
X247045500Y-35528620D01*
X247045500Y-35266380D01*
X247011270Y-35006384D01*
X246943398Y-34753081D01*
X246943394Y-34753071D01*
X246843046Y-34510809D01*
X246843041Y-34510799D01*
X246711924Y-34283696D01*
X246552281Y-34075648D01*
X246552274Y-34075640D01*
X246366860Y-33890226D01*
X246366851Y-33890218D01*
X246158803Y-33730575D01*
X245931700Y-33599458D01*
X245931690Y-33599453D01*
X245689428Y-33499105D01*
X245689421Y-33499103D01*
X245689419Y-33499102D01*
X245436116Y-33431230D01*
X245378339Y-33423623D01*
X245176127Y-33397000D01*
X245176120Y-33397000D01*
X244913880Y-33397000D01*
X244913872Y-33397000D01*
X244682772Y-33427426D01*
X244653884Y-33431230D01*
X244400581Y-33499102D01*
X244400571Y-33499105D01*
X244158309Y-33599453D01*
X244158299Y-33599458D01*
X243931196Y-33730575D01*
X243723148Y-33890218D01*
X243537718Y-34075648D01*
X243378075Y-34283696D01*
X243246958Y-34510799D01*
X243246953Y-34510809D01*
X243146605Y-34753071D01*
X243146602Y-34753081D01*
X243078730Y-35006385D01*
X243044500Y-35266372D01*
X198795499Y-35266372D01*
X198761270Y-35006384D01*
X198693398Y-34753081D01*
X198693394Y-34753071D01*
X198593046Y-34510809D01*
X198593041Y-34510799D01*
X198461924Y-34283696D01*
X198302281Y-34075648D01*
X198302274Y-34075640D01*
X198116860Y-33890226D01*
X198116851Y-33890218D01*
X197908803Y-33730575D01*
X197681700Y-33599458D01*
X197681690Y-33599453D01*
X197439428Y-33499105D01*
X197439421Y-33499103D01*
X197439419Y-33499102D01*
X197186116Y-33431230D01*
X197128339Y-33423623D01*
X196926127Y-33397000D01*
X196926120Y-33397000D01*
X196663880Y-33397000D01*
X196663872Y-33397000D01*
X196432772Y-33427426D01*
X196403884Y-33431230D01*
X196150581Y-33499102D01*
X196150571Y-33499105D01*
X195908309Y-33599453D01*
X195908299Y-33599458D01*
X195681196Y-33730575D01*
X195473148Y-33890218D01*
X195287718Y-34075648D01*
X195128075Y-34283696D01*
X194996958Y-34510799D01*
X194996953Y-34510809D01*
X194896605Y-34753071D01*
X194896602Y-34753081D01*
X194828730Y-35006385D01*
X194794500Y-35266372D01*
X193060000Y-35266372D01*
X193060000Y-31379000D01*
X193079685Y-31311961D01*
X193132489Y-31266206D01*
X193184000Y-31255000D01*
X248181000Y-31255000D01*
X248248039Y-31274685D01*
G37*
%TD.AperFunction*%
%TD*%
M02*
