%TF.GenerationSoftware,KiCad,Pcbnew,8.0.6*%
%TF.CreationDate,2024-12-10T16:09:11-05:00*%
%TF.ProjectId,Telem_PWR_Board,54656c65-6d5f-4505-9752-5f426f617264,rev?*%
%TF.SameCoordinates,Original*%
%TF.FileFunction,Soldermask,Top*%
%TF.FilePolarity,Negative*%
%FSLAX46Y46*%
G04 Gerber Fmt 4.6, Leading zero omitted, Abs format (unit mm)*
G04 Created by KiCad (PCBNEW 8.0.6) date 2024-12-10 16:09:11*
%MOMM*%
%LPD*%
G01*
G04 APERTURE LIST*
G04 Aperture macros list*
%AMRoundRect*
0 Rectangle with rounded corners*
0 $1 Rounding radius*
0 $2 $3 $4 $5 $6 $7 $8 $9 X,Y pos of 4 corners*
0 Add a 4 corners polygon primitive as box body*
4,1,4,$2,$3,$4,$5,$6,$7,$8,$9,$2,$3,0*
0 Add four circle primitives for the rounded corners*
1,1,$1+$1,$2,$3*
1,1,$1+$1,$4,$5*
1,1,$1+$1,$6,$7*
1,1,$1+$1,$8,$9*
0 Add four rect primitives between the rounded corners*
20,1,$1+$1,$2,$3,$4,$5,0*
20,1,$1+$1,$4,$5,$6,$7,0*
20,1,$1+$1,$6,$7,$8,$9,0*
20,1,$1+$1,$8,$9,$2,$3,0*%
G04 Aperture macros list end*
%ADD10RoundRect,0.250000X1.025000X-0.787500X1.025000X0.787500X-1.025000X0.787500X-1.025000X-0.787500X0*%
%ADD11C,6.400000*%
%ADD12RoundRect,0.250000X0.425000X-0.450000X0.425000X0.450000X-0.425000X0.450000X-0.425000X-0.450000X0*%
%ADD13RoundRect,0.102000X0.900000X-0.900000X0.900000X0.900000X-0.900000X0.900000X-0.900000X-0.900000X0*%
%ADD14C,2.004000*%
%ADD15RoundRect,0.200000X-0.275000X0.200000X-0.275000X-0.200000X0.275000X-0.200000X0.275000X0.200000X0*%
%ADD16RoundRect,0.102000X-0.900000X0.900000X-0.900000X-0.900000X0.900000X-0.900000X0.900000X0.900000X0*%
%ADD17RoundRect,0.225000X0.225000X0.250000X-0.225000X0.250000X-0.225000X-0.250000X0.225000X-0.250000X0*%
%ADD18RoundRect,0.170000X2.330000X-1.530000X2.330000X1.530000X-2.330000X1.530000X-2.330000X-1.530000X0*%
%ADD19RoundRect,0.200000X-0.200000X-0.275000X0.200000X-0.275000X0.200000X0.275000X-0.200000X0.275000X0*%
%ADD20R,0.711200X0.444500*%
%ADD21RoundRect,0.102000X1.000000X-1.000000X1.000000X1.000000X-1.000000X1.000000X-1.000000X-1.000000X0*%
%ADD22C,2.204000*%
%ADD23R,1.161200X0.350800*%
%ADD24C,1.839000*%
%ADD25C,4.420000*%
G04 APERTURE END LIST*
D10*
%TO.C,C1*%
X255170000Y-196802500D03*
X255170000Y-190577500D03*
%TD*%
D11*
%TO.C,H6*%
X235000000Y-140000000D03*
%TD*%
D12*
%TO.C,C2*%
X276860221Y-194340657D03*
X276860221Y-191640657D03*
%TD*%
D13*
%TO.C,J7*%
X303000000Y-242400000D03*
D14*
X303000000Y-238590000D03*
X303000000Y-234780000D03*
X303000000Y-230970000D03*
X303000000Y-227160000D03*
X303000000Y-223350000D03*
X303000000Y-219540000D03*
%TD*%
D11*
%TO.C,H4*%
X340000000Y-195000000D03*
%TD*%
%TO.C,H5*%
X368000000Y-195000000D03*
%TD*%
D15*
%TO.C,R4*%
X315076825Y-202083175D03*
X315076825Y-203733175D03*
%TD*%
D13*
%TO.C,J8*%
X323000000Y-242400000D03*
D14*
X323000000Y-238590000D03*
X323000000Y-234780000D03*
X323000000Y-230970000D03*
X323000000Y-227160000D03*
X323000000Y-223350000D03*
X323000000Y-219540000D03*
%TD*%
D16*
%TO.C,J2*%
X293000000Y-142600000D03*
D14*
X293000000Y-146410000D03*
X293000000Y-150220000D03*
X293000000Y-154030000D03*
X293000000Y-157840000D03*
X293000000Y-161650000D03*
X293000000Y-165460000D03*
%TD*%
D17*
%TO.C,C7*%
X300325221Y-177203157D03*
X298775221Y-177203157D03*
%TD*%
D13*
%TO.C,J6*%
X283000000Y-242400000D03*
D14*
X283000000Y-238590000D03*
X283000000Y-234780000D03*
X283000000Y-230970000D03*
X283000000Y-227160000D03*
X283000000Y-223350000D03*
X283000000Y-219540000D03*
%TD*%
D11*
%TO.C,H2*%
X368000000Y-245000000D03*
%TD*%
D13*
%TO.C,J9*%
X343000000Y-242400000D03*
D14*
X343000000Y-238590000D03*
X343000000Y-234780000D03*
X343000000Y-230970000D03*
X343000000Y-227160000D03*
X343000000Y-223350000D03*
X343000000Y-219540000D03*
%TD*%
D11*
%TO.C,H1*%
X235000000Y-245000000D03*
%TD*%
D18*
%TO.C,L2*%
X261570000Y-185191000D03*
X271170000Y-185191000D03*
%TD*%
D16*
%TO.C,J4*%
X333000000Y-142600000D03*
D14*
X333000000Y-146410000D03*
X333000000Y-150220000D03*
X333000000Y-154030000D03*
X333000000Y-157840000D03*
X333000000Y-161650000D03*
X333000000Y-165460000D03*
%TD*%
D19*
%TO.C,R2*%
X318471825Y-203738175D03*
X320121825Y-203738175D03*
%TD*%
D20*
%TO.C,LED*%
X315066825Y-198769525D03*
X315066825Y-200026825D03*
%TD*%
D16*
%TO.C,J1*%
X273000000Y-142600000D03*
D14*
X273000000Y-146410000D03*
X273000000Y-150220000D03*
X273000000Y-154030000D03*
X273000000Y-157840000D03*
X273000000Y-161650000D03*
X273000000Y-165460000D03*
%TD*%
D21*
%TO.C,U1*%
X281837721Y-196043157D03*
D22*
X281837721Y-190943157D03*
X302137721Y-203743157D03*
X302137721Y-193543157D03*
X302137721Y-183343157D03*
X281837721Y-183343157D03*
%TD*%
D23*
%TO.C,M1*%
X319451825Y-199258174D03*
X319451825Y-198258176D03*
X318101825Y-198758175D03*
%TD*%
D19*
%TO.C,F1*%
X249335221Y-196793157D03*
X250985221Y-196793157D03*
%TD*%
D16*
%TO.C,J5*%
X353000000Y-142600000D03*
D14*
X353000000Y-146410000D03*
X353000000Y-150220000D03*
X353000000Y-154030000D03*
X353000000Y-157840000D03*
X353000000Y-161650000D03*
X353000000Y-165460000D03*
%TD*%
D16*
%TO.C,J3*%
X313000000Y-142600000D03*
D14*
X313000000Y-146410000D03*
X313000000Y-150220000D03*
X313000000Y-154030000D03*
X313000000Y-157840000D03*
X313000000Y-161650000D03*
X313000000Y-165460000D03*
%TD*%
D24*
%TO.C,P1*%
X237010000Y-200940000D03*
X237010000Y-198170000D03*
X237010000Y-195400000D03*
X237010000Y-192630000D03*
X237010000Y-189860000D03*
X234170000Y-199555000D03*
X234170000Y-196785000D03*
X234170000Y-194015000D03*
X234170000Y-191245000D03*
D25*
X235590000Y-182900000D03*
X235590000Y-207900000D03*
%TD*%
D18*
%TO.C,L1*%
X261630000Y-202461000D03*
X271230000Y-202461000D03*
%TD*%
D11*
%TO.C,H3*%
X368000000Y-140000000D03*
%TD*%
D15*
%TO.C,R3*%
X321796825Y-197773175D03*
X321796825Y-199423175D03*
%TD*%
G36*
X300425039Y-181883685D02*
G01*
X300470794Y-181936489D01*
X300482000Y-181988000D01*
X300482000Y-184912000D01*
X304168000Y-184912000D01*
X304235039Y-184931685D01*
X304280794Y-184984489D01*
X304292000Y-185036000D01*
X304292000Y-191138000D01*
X304272315Y-191205039D01*
X304219511Y-191250794D01*
X304168000Y-191262000D01*
X300482000Y-191262000D01*
X300482000Y-195580000D01*
X304168000Y-195580000D01*
X304235039Y-195599685D01*
X304280794Y-195652489D01*
X304292000Y-195704000D01*
X304292000Y-202060000D01*
X304272315Y-202127039D01*
X304219511Y-202172794D01*
X304168000Y-202184000D01*
X300482000Y-202184000D01*
X300482000Y-205870000D01*
X300462315Y-205937039D01*
X300409511Y-205982794D01*
X300358000Y-205994000D01*
X280032000Y-205994000D01*
X279964961Y-205974315D01*
X279919206Y-205921511D01*
X279908000Y-205870000D01*
X279908000Y-197990000D01*
X279927685Y-197922961D01*
X279980489Y-197877206D01*
X280032000Y-197866000D01*
X283972000Y-197866000D01*
X283972000Y-188976000D01*
X280032000Y-188976000D01*
X279964961Y-188956315D01*
X279919206Y-188903511D01*
X279908000Y-188852000D01*
X279908000Y-185036000D01*
X279927685Y-184968961D01*
X279980489Y-184923206D01*
X280032000Y-184912000D01*
X283972000Y-184912000D01*
X283972000Y-181988000D01*
X283991685Y-181920961D01*
X284044489Y-181875206D01*
X284096000Y-181864000D01*
X300358000Y-181864000D01*
X300425039Y-181883685D01*
G37*
M02*
