M48
; DRILL file {KiCad 8.0.6} date 2024-12-10T16:09:19-0500
; FORMAT={-:-/ absolute / inch / decimal}
; #@! TF.CreationDate,2024-12-10T16:09:19-05:00
; #@! TF.GenerationSoftware,Kicad,Pcbnew,8.0.6
; #@! TF.FileFunction,Plated,1,6,PTH
FMAT,2
INCH
; #@! TA.AperFunction,Plated,PTH,ViaDrill
T1C0.0118
; #@! TA.AperFunction,Plated,PTH,ViaDrill
T2C0.0315
; #@! TA.AperFunction,Plated,PTH,ComponentDrill
T3C0.0429
; #@! TA.AperFunction,Plated,PTH,ComponentDrill
T4C0.0472
; #@! TA.AperFunction,Plated,PTH,ComponentDrill
T5C0.0512
; #@! TA.AperFunction,Plated,PTH,ComponentDrill
T6C0.1260
%
G90
G05
T1
X9.0Y-5.75
X9.0Y-6.0
X9.0Y-6.25
X9.0Y-6.5
X9.0Y-6.75
X9.0Y-7.0
X9.0Y-8.5
X9.0Y-8.75
X9.0Y-9.0
X9.0Y-9.25
X9.25Y-5.75
X9.25Y-6.0
X9.25Y-6.25
X9.25Y-6.5
X9.25Y-6.75
X9.25Y-7.0
X9.25Y-8.5
X9.25Y-8.75
X9.25Y-9.0
X9.25Y-9.25
X9.5Y-5.5
X9.5Y-5.75
X9.5Y-6.0
X9.5Y-6.25
X9.5Y-6.5
X9.5Y-6.75
X9.5Y-7.0
X9.5Y-7.25
X9.5Y-8.25
X9.5Y-8.5
X9.5Y-8.75
X9.5Y-9.0
X9.5Y-9.25
X9.5Y-9.5
X9.5Y-9.75
X9.5Y-10.0
X9.672Y-7.4461
X9.672Y-7.4961
X9.672Y-7.5461
X9.722Y-7.4461
X9.722Y-7.4961
X9.722Y-7.5461
X9.75Y-5.5
X9.75Y-5.75
X9.75Y-6.0
X9.75Y-6.25
X9.75Y-6.5
X9.75Y-6.75
X9.75Y-7.0
X9.75Y-7.25
X9.75Y-8.25
X9.75Y-8.5
X9.75Y-8.75
X9.75Y-9.0
X9.75Y-9.25
X9.75Y-9.5
X9.75Y-9.75
X9.75Y-10.0
X9.772Y-7.4461
X9.772Y-7.4961
X9.772Y-7.5461
X10.0Y-5.5
X10.0Y-5.75
X10.0Y-6.0
X10.0Y-6.25
X10.0Y-6.5
X10.0Y-6.75
X10.0Y-7.0
X10.0Y-7.25
X10.0Y-8.25
X10.0Y-8.5
X10.0Y-8.75
X10.0Y-9.0
X10.0Y-9.25
X10.0Y-9.5
X10.0Y-9.75
X10.0Y-10.0
X10.25Y-5.5
X10.25Y-5.75
X10.25Y-6.0
X10.25Y-6.25
X10.25Y-6.5
X10.25Y-6.75
X10.25Y-8.5
X10.25Y-8.75
X10.25Y-9.0
X10.25Y-9.25
X10.25Y-9.5
X10.25Y-9.75
X10.25Y-10.0
X10.5Y-6.75
X10.5Y-7.0
X10.5Y-8.5
X10.5Y-8.75
X10.5Y-9.0
X10.5Y-9.25
X10.5Y-9.5
X10.5Y-9.75
X10.5Y-10.0
X10.75Y-7.0
X10.75Y-8.5
X10.75Y-8.75
X10.75Y-9.0
X10.75Y-9.25
X10.75Y-9.5
X10.75Y-9.75
X10.75Y-10.0
X11.0Y-5.5
X11.0Y-6.0
X11.0Y-6.25
X11.0Y-6.5
X11.0Y-6.75
X11.0Y-7.0
X11.0Y-8.25
X11.0Y-8.5
X11.0Y-10.0
X11.25Y-5.5
X11.25Y-6.0
X11.25Y-6.25
X11.25Y-6.5
X11.25Y-6.75
X11.25Y-7.0
X11.25Y-8.25
X11.25Y-8.5
X11.25Y-10.0
X11.5Y-7.0
X11.5Y-8.25
X11.5Y-8.5
X11.5Y-8.75
X11.5Y-9.0
X11.5Y-9.25
X11.5Y-9.5
X11.5Y-9.75
X11.5Y-10.0
X11.6929Y-6.9761
X11.75Y-5.5
X11.75Y-6.0
X11.75Y-6.25
X11.75Y-6.5
X11.75Y-8.25
X11.75Y-8.5
X11.75Y-10.0
X11.8957Y-6.9765
X12.0Y-5.5
X12.0Y-6.0
X12.0Y-6.25
X12.0Y-6.5
X12.0Y-6.75
X12.0Y-7.0
X12.0Y-8.25
X12.0Y-8.5
X12.0Y-10.0
X12.25Y-6.75
X12.25Y-7.0
X12.25Y-7.25
X12.25Y-8.25
X12.25Y-8.5
X12.25Y-8.75
X12.25Y-9.0
X12.25Y-9.25
X12.25Y-9.5
X12.25Y-9.75
X12.25Y-10.0
X12.3815Y-7.2891
X12.5Y-6.75
X12.5Y-7.0
X12.5Y-7.25
X12.5Y-8.25
X12.5Y-8.5
X12.5Y-9.75
X12.5Y-10.0
X12.6693Y-7.7378
X12.75Y-5.5
X12.75Y-6.0
X12.75Y-6.25
X12.75Y-6.5
X12.75Y-6.75
X12.75Y-7.0
X12.75Y-7.25
X12.75Y-7.5
X12.75Y-7.75
X12.75Y-8.0
X12.75Y-8.25
X12.75Y-8.5
X12.75Y-10.0
X13.0Y-6.75
X13.0Y-7.0
X13.0Y-7.25
X13.0Y-7.5
X13.0Y-7.75
X13.0Y-8.0
X13.0Y-8.25
X13.0Y-8.5
X13.0Y-8.75
X13.0Y-9.0
X13.0Y-9.25
X13.0Y-9.5
X13.0Y-9.75
X13.0Y-10.0
X13.25Y-6.75
X13.25Y-7.0
X13.25Y-7.25
X13.25Y-7.5
X13.25Y-8.0
X13.25Y-8.25
X13.25Y-8.5
X13.25Y-9.75
X13.25Y-10.0
X13.5Y-5.5
X13.5Y-6.0
X13.5Y-6.25
X13.5Y-6.5
X13.5Y-6.75
X13.5Y-7.0
X13.5Y-7.25
X13.5Y-7.5
X13.5Y-8.0
X13.5Y-8.25
X13.5Y-10.0
X13.75Y-6.75
X13.75Y-7.0
X13.75Y-7.25
X13.75Y-7.5
X13.75Y-7.75
X13.75Y-8.0
X13.75Y-8.25
X13.75Y-8.5
X13.75Y-8.75
X13.75Y-9.0
X13.75Y-9.25
X13.75Y-9.5
X13.75Y-9.75
X13.75Y-10.0
X14.0Y-7.0
X14.0Y-7.25
X14.0Y-7.5
X14.0Y-7.75
X14.0Y-8.0
X14.0Y-8.25
X14.0Y-8.5
X14.0Y-8.75
X14.0Y-9.0
X14.0Y-9.25
X14.0Y-9.5
X14.0Y-9.75
X14.0Y-10.0
X14.25Y-5.5
X14.25Y-5.75
X14.25Y-6.0
X14.25Y-6.25
X14.25Y-6.5
X14.25Y-6.75
X14.25Y-7.0
X14.25Y-7.25
X14.25Y-7.5
X14.25Y-7.75
X14.25Y-8.0
X14.25Y-8.25
X14.25Y-8.5
X14.25Y-8.75
X14.25Y-9.0
X14.25Y-9.25
X14.25Y-9.5
X14.25Y-9.75
X14.25Y-10.0
X14.5Y-5.75
X14.5Y-6.0
X14.5Y-6.25
X14.5Y-6.5
X14.5Y-6.75
X14.5Y-7.0
X14.5Y-7.25
X14.5Y-7.5
X14.5Y-8.0
X14.5Y-8.25
X14.5Y-8.5
X14.5Y-8.75
X14.5Y-9.0
X14.5Y-9.25
T2
X11.125Y-7.325
X11.125Y-7.825
X11.125Y-7.95
X11.125Y-8.075
X11.25Y-7.2
X11.25Y-7.325
X11.25Y-7.45
X11.25Y-7.575
X11.25Y-7.7
X11.25Y-7.825
X11.25Y-7.95
X11.25Y-8.075
X11.375Y-7.2
X11.375Y-7.325
X11.375Y-7.45
X11.375Y-7.575
X11.375Y-7.7
X11.375Y-7.825
X11.375Y-7.95
X11.375Y-8.075
X11.5Y-7.2
X11.5Y-7.325
X11.5Y-7.45
X11.5Y-7.575
X11.5Y-7.7
X11.5Y-7.825
X11.5Y-7.95
X11.5Y-8.075
X11.625Y-7.2
X11.625Y-7.325
X11.625Y-7.45
X11.625Y-7.575
X11.625Y-7.7
X11.625Y-7.825
X11.625Y-7.95
X11.625Y-8.075
X11.75Y-7.2
X11.75Y-7.325
X11.75Y-7.45
X11.75Y-7.575
X11.75Y-7.7
X11.75Y-7.825
X11.75Y-7.95
X11.75Y-8.075
X11.875Y-7.325
X11.875Y-7.45
X11.875Y-7.825
T3
X9.2193Y-7.5293
X9.2193Y-7.6384
X9.2193Y-7.7474
X9.2193Y-7.8565
X9.3311Y-7.4748
X9.3311Y-7.5839
X9.3311Y-7.6929
X9.3311Y-7.802
X9.3311Y-7.911
T4
X10.748Y-5.6142
X10.748Y-5.7642
X10.748Y-5.9142
X10.748Y-6.0642
X10.748Y-6.2142
X10.748Y-6.3642
X10.748Y-6.5142
X11.1417Y-8.6433
X11.1417Y-8.7933
X11.1417Y-8.9433
X11.1417Y-9.0933
X11.1417Y-9.2433
X11.1417Y-9.3933
X11.1417Y-9.5433
X11.5354Y-5.6142
X11.5354Y-5.7642
X11.5354Y-5.9142
X11.5354Y-6.0642
X11.5354Y-6.2142
X11.5354Y-6.3642
X11.5354Y-6.5142
X11.9291Y-8.6433
X11.9291Y-8.7933
X11.9291Y-8.9433
X11.9291Y-9.0933
X11.9291Y-9.2433
X11.9291Y-9.3933
X11.9291Y-9.5433
X12.3228Y-5.6142
X12.3228Y-5.7642
X12.3228Y-5.9142
X12.3228Y-6.0642
X12.3228Y-6.2142
X12.3228Y-6.3642
X12.3228Y-6.5142
X12.7165Y-8.6433
X12.7165Y-8.7933
X12.7165Y-8.9433
X12.7165Y-9.0933
X12.7165Y-9.2433
X12.7165Y-9.3933
X12.7165Y-9.5433
X13.1102Y-5.6142
X13.1102Y-5.7642
X13.1102Y-5.9142
X13.1102Y-6.0642
X13.1102Y-6.2142
X13.1102Y-6.3642
X13.1102Y-6.5142
X13.5039Y-8.6433
X13.5039Y-8.7933
X13.5039Y-8.9433
X13.5039Y-9.0933
X13.5039Y-9.2433
X13.5039Y-9.3933
X13.5039Y-9.5433
X13.8976Y-5.6142
X13.8976Y-5.7642
X13.8976Y-5.9142
X13.8976Y-6.0642
X13.8976Y-6.2142
X13.8976Y-6.3642
X13.8976Y-6.5142
T5
X11.096Y-7.2182
X11.096Y-7.5174
X11.096Y-7.7182
X11.8952Y-7.2182
X11.8952Y-7.6198
X11.8952Y-8.0214
T6
X9.252Y-5.5118
X9.252Y-9.6457
X9.2752Y-7.2008
X9.2752Y-8.185
X13.3858Y-7.6772
X14.4882Y-5.5118
X14.4882Y-7.6772
X14.4882Y-9.6457
M30
