%TF.GenerationSoftware,KiCad,Pcbnew,8.0.6*%
%TF.CreationDate,2025-05-16T10:58:21-04:00*%
%TF.ProjectId,3 - Charge_Pre-Amplifier,33202d20-4368-4617-9267-655f5072652d,rev?*%
%TF.SameCoordinates,Original*%
%TF.FileFunction,Copper,L1,Top*%
%TF.FilePolarity,Positive*%
%FSLAX46Y46*%
G04 Gerber Fmt 4.6, Leading zero omitted, Abs format (unit mm)*
G04 Created by KiCad (PCBNEW 8.0.6) date 2025-05-16 10:58:21*
%MOMM*%
%LPD*%
G01*
G04 APERTURE LIST*
G04 Aperture macros list*
%AMRoundRect*
0 Rectangle with rounded corners*
0 $1 Rounding radius*
0 $2 $3 $4 $5 $6 $7 $8 $9 X,Y pos of 4 corners*
0 Add a 4 corners polygon primitive as box body*
4,1,4,$2,$3,$4,$5,$6,$7,$8,$9,$2,$3,0*
0 Add four circle primitives for the rounded corners*
1,1,$1+$1,$2,$3*
1,1,$1+$1,$4,$5*
1,1,$1+$1,$6,$7*
1,1,$1+$1,$8,$9*
0 Add four rect primitives between the rounded corners*
20,1,$1+$1,$2,$3,$4,$5,0*
20,1,$1+$1,$4,$5,$6,$7,0*
20,1,$1+$1,$6,$7,$8,$9,0*
20,1,$1+$1,$8,$9,$2,$3,0*%
G04 Aperture macros list end*
%TA.AperFunction,SMDPad,CuDef*%
%ADD10R,1.219200X0.457200*%
%TD*%
%TA.AperFunction,SMDPad,CuDef*%
%ADD11O,1.219200X0.457200*%
%TD*%
%TA.AperFunction,SMDPad,CuDef*%
%ADD12R,1.981200X0.558800*%
%TD*%
%TA.AperFunction,SMDPad,CuDef*%
%ADD13R,0.889000X1.016000*%
%TD*%
%TA.AperFunction,SMDPad,CuDef*%
%ADD14R,3.200000X1.000000*%
%TD*%
%TA.AperFunction,ComponentPad*%
%ADD15C,2.159000*%
%TD*%
%TA.AperFunction,SMDPad,CuDef*%
%ADD16R,0.350800X1.161200*%
%TD*%
%TA.AperFunction,SMDPad,CuDef*%
%ADD17RoundRect,0.073750X-0.556250X-0.221250X0.556250X-0.221250X0.556250X0.221250X-0.556250X0.221250X0*%
%TD*%
%TA.AperFunction,SMDPad,CuDef*%
%ADD18RoundRect,0.200000X0.200000X0.275000X-0.200000X0.275000X-0.200000X-0.275000X0.200000X-0.275000X0*%
%TD*%
%TA.AperFunction,SMDPad,CuDef*%
%ADD19RoundRect,0.250000X0.425000X-0.450000X0.425000X0.450000X-0.425000X0.450000X-0.425000X-0.450000X0*%
%TD*%
%TA.AperFunction,SMDPad,CuDef*%
%ADD20RoundRect,0.225000X-0.250000X0.225000X-0.250000X-0.225000X0.250000X-0.225000X0.250000X0.225000X0*%
%TD*%
%TA.AperFunction,SMDPad,CuDef*%
%ADD21RoundRect,0.200000X-0.275000X0.200000X-0.275000X-0.200000X0.275000X-0.200000X0.275000X0.200000X0*%
%TD*%
%TA.AperFunction,SMDPad,CuDef*%
%ADD22RoundRect,0.250000X0.312500X0.275000X-0.312500X0.275000X-0.312500X-0.275000X0.312500X-0.275000X0*%
%TD*%
%TA.AperFunction,SMDPad,CuDef*%
%ADD23RoundRect,0.200000X-0.200000X-0.275000X0.200000X-0.275000X0.200000X0.275000X-0.200000X0.275000X0*%
%TD*%
%TA.AperFunction,SMDPad,CuDef*%
%ADD24RoundRect,0.250000X1.025000X-0.787500X1.025000X0.787500X-1.025000X0.787500X-1.025000X-0.787500X0*%
%TD*%
%TA.AperFunction,SMDPad,CuDef*%
%ADD25RoundRect,0.250000X-0.312500X-0.275000X0.312500X-0.275000X0.312500X0.275000X-0.312500X0.275000X0*%
%TD*%
%TA.AperFunction,SMDPad,CuDef*%
%ADD26RoundRect,0.250000X0.450000X0.425000X-0.450000X0.425000X-0.450000X-0.425000X0.450000X-0.425000X0*%
%TD*%
%TA.AperFunction,ComponentPad*%
%ADD27R,2.000000X2.000000*%
%TD*%
%TA.AperFunction,ComponentPad*%
%ADD28C,2.000000*%
%TD*%
%TA.AperFunction,ComponentPad*%
%ADD29C,2.800000*%
%TD*%
%TA.AperFunction,ComponentPad*%
%ADD30C,1.560000*%
%TD*%
%TA.AperFunction,ComponentPad*%
%ADD31C,4.216000*%
%TD*%
%TA.AperFunction,SMDPad,CuDef*%
%ADD32R,1.473200X0.558800*%
%TD*%
%TA.AperFunction,SMDPad,CuDef*%
%ADD33RoundRect,0.075000X-0.910000X-0.225000X0.910000X-0.225000X0.910000X0.225000X-0.910000X0.225000X0*%
%TD*%
%TA.AperFunction,ComponentPad*%
%ADD34C,2.006600*%
%TD*%
%TA.AperFunction,ComponentPad*%
%ADD35C,2.209800*%
%TD*%
%TA.AperFunction,SMDPad,CuDef*%
%ADD36RoundRect,0.250000X-0.312500X-0.625000X0.312500X-0.625000X0.312500X0.625000X-0.312500X0.625000X0*%
%TD*%
%TA.AperFunction,ComponentPad*%
%ADD37C,6.400000*%
%TD*%
%TA.AperFunction,SMDPad,CuDef*%
%ADD38RoundRect,0.140000X0.170000X-0.140000X0.170000X0.140000X-0.170000X0.140000X-0.170000X-0.140000X0*%
%TD*%
%TA.AperFunction,SMDPad,CuDef*%
%ADD39RoundRect,0.225000X0.250000X-0.225000X0.250000X0.225000X-0.250000X0.225000X-0.250000X-0.225000X0*%
%TD*%
%TA.AperFunction,SMDPad,CuDef*%
%ADD40RoundRect,0.225000X-0.225000X-0.250000X0.225000X-0.250000X0.225000X0.250000X-0.225000X0.250000X0*%
%TD*%
%TA.AperFunction,ComponentPad*%
%ADD41C,1.575000*%
%TD*%
%TA.AperFunction,SMDPad,CuDef*%
%ADD42R,0.558800X1.651000*%
%TD*%
%TA.AperFunction,SMDPad,CuDef*%
%ADD43RoundRect,0.135000X0.135000X0.185000X-0.135000X0.185000X-0.135000X-0.185000X0.135000X-0.185000X0*%
%TD*%
%TA.AperFunction,SMDPad,CuDef*%
%ADD44RoundRect,0.170000X2.330000X-1.530000X2.330000X1.530000X-2.330000X1.530000X-2.330000X-1.530000X0*%
%TD*%
%TA.AperFunction,SMDPad,CuDef*%
%ADD45RoundRect,0.140000X-0.170000X0.140000X-0.170000X-0.140000X0.170000X-0.140000X0.170000X0.140000X0*%
%TD*%
%TA.AperFunction,SMDPad,CuDef*%
%ADD46R,0.838200X1.600200*%
%TD*%
%TA.AperFunction,SMDPad,CuDef*%
%ADD47R,3.048000X1.600200*%
%TD*%
%TA.AperFunction,SMDPad,CuDef*%
%ADD48RoundRect,0.250000X-0.450000X-0.425000X0.450000X-0.425000X0.450000X0.425000X-0.450000X0.425000X0*%
%TD*%
%TA.AperFunction,SMDPad,CuDef*%
%ADD49RoundRect,0.200000X0.275000X-0.200000X0.275000X0.200000X-0.275000X0.200000X-0.275000X-0.200000X0*%
%TD*%
%TA.AperFunction,ComponentPad*%
%ADD50C,1.635000*%
%TD*%
%TA.AperFunction,SMDPad,CuDef*%
%ADD51RoundRect,0.135000X0.185000X-0.135000X0.185000X0.135000X-0.185000X0.135000X-0.185000X-0.135000X0*%
%TD*%
%TA.AperFunction,SMDPad,CuDef*%
%ADD52RoundRect,0.250000X0.450000X-0.262500X0.450000X0.262500X-0.450000X0.262500X-0.450000X-0.262500X0*%
%TD*%
%TA.AperFunction,SMDPad,CuDef*%
%ADD53R,0.584200X2.159000*%
%TD*%
%TA.AperFunction,SMDPad,CuDef*%
%ADD54RoundRect,0.250000X-0.275000X0.312500X-0.275000X-0.312500X0.275000X-0.312500X0.275000X0.312500X0*%
%TD*%
%TA.AperFunction,ViaPad*%
%ADD55C,0.600000*%
%TD*%
%TA.AperFunction,ViaPad*%
%ADD56C,1.500000*%
%TD*%
%TA.AperFunction,Conductor*%
%ADD57C,1.000000*%
%TD*%
%TA.AperFunction,Conductor*%
%ADD58C,0.200000*%
%TD*%
%TA.AperFunction,Conductor*%
%ADD59C,0.600000*%
%TD*%
%TA.AperFunction,Conductor*%
%ADD60C,0.500000*%
%TD*%
%TA.AperFunction,Conductor*%
%ADD61C,0.300000*%
%TD*%
%TA.AperFunction,Conductor*%
%ADD62C,0.400000*%
%TD*%
G04 APERTURE END LIST*
D10*
%TO.P,U10,1,OUT*%
%TO.N,Net-(U10-OUT)*%
X276300000Y-155300001D03*
D11*
%TO.P,U10,2,V-*%
%TO.N,/PM_5V_TELEM_RTN*%
X276300000Y-154350000D03*
%TO.P,U10,3,+IN*%
%TO.N,/Telemetry_CKT/V_TEMP*%
X276300000Y-153399999D03*
%TO.P,U10,4,-IN*%
%TO.N,Net-(U10--IN)*%
X273680000Y-153399999D03*
%TO.P,U10,5,V+*%
%TO.N,/Telemetry_CKT/V3p3*%
X273680000Y-155300001D03*
%TD*%
D12*
%TO.P,U8,1,NC*%
%TO.N,unconnected-(U8-NC-Pad1)*%
X308332400Y-86990000D03*
%TO.P,U8,2,V+*%
%TO.N,/P5_TELEM*%
X308332400Y-88260000D03*
%TO.P,U8,3,V-*%
%TO.N,/Telemetry_CKT/V_TEMP*%
X308332400Y-89530000D03*
%TO.P,U8,4,NC*%
%TO.N,unconnected-(U8-NC-Pad4)*%
X308332400Y-90800000D03*
%TO.P,U8,5,NC*%
%TO.N,unconnected-(U8-NC-Pad5)*%
X313260000Y-90800000D03*
%TO.P,U8,6,NC*%
%TO.N,unconnected-(U8-NC-Pad6)*%
X313260000Y-89530000D03*
%TO.P,U8,7,NC*%
%TO.N,unconnected-(U8-NC-Pad7)*%
X313260000Y-88260000D03*
%TO.P,U8,8,NC*%
%TO.N,unconnected-(U8-NC-Pad8)*%
X313260000Y-86990000D03*
%TD*%
D13*
%TO.P,U7,1,SET*%
%TO.N,Net-(U7-SET)*%
X299724700Y-172950000D03*
%TO.P,U7,2,OUT*%
%TO.N,/Telemetry_CKT/V3p3*%
X302036100Y-172950000D03*
%TO.P,U7,3,IN*%
%TO.N,/P5_TELEM*%
X304347500Y-172950000D03*
D14*
%TO.P,U7,4,TAB*%
%TO.N,/Telemetry_CKT/V3p3*%
X302036100Y-165957500D03*
%TD*%
D13*
%TO.P,U2,1,SET*%
%TO.N,Net-(U2-SET)*%
X230609900Y-151017500D03*
%TO.P,U2,2,OUT*%
%TO.N,/Enable_CKT/V3p3*%
X228298500Y-151017500D03*
%TO.P,U2,3,IN*%
%TO.N,/P5_TELEM*%
X225987100Y-151017500D03*
D14*
%TO.P,U2,4,TAB*%
%TO.N,/Enable_CKT/V3p3*%
X228298500Y-158010000D03*
%TD*%
D15*
%TO.P,P4,1,1*%
%TO.N,Net-(M3-Pad3)*%
X323780000Y-170190201D03*
%TD*%
%TO.P,P3,1,1*%
%TO.N,Net-(P3-Pad1)*%
X326120000Y-154650000D03*
%TD*%
%TO.P,P2,1,1*%
%TO.N,Net-(P2-Pad1)*%
X326220000Y-138470201D03*
%TD*%
%TO.P,P1,1,1*%
%TO.N,Net-(M4-Pad3)*%
X326300000Y-122390000D03*
%TD*%
D16*
%TO.P,M4,1,1*%
%TO.N,/M5V_V_MON*%
X316960000Y-127450000D03*
%TO.P,M4,2,2*%
%TO.N,/PM_5V_TELEM_RTN*%
X317959998Y-127450000D03*
%TO.P,M4,3,3*%
%TO.N,Net-(M4-Pad3)*%
X317459999Y-126100000D03*
%TD*%
%TO.P,M3,1,1*%
%TO.N,/P5V_V_MON*%
X318260000Y-164040000D03*
%TO.P,M3,2,2*%
%TO.N,/PM_5V_TELEM_RTN*%
X317260002Y-164040000D03*
%TO.P,M3,3,3*%
%TO.N,Net-(M3-Pad3)*%
X317760001Y-165390000D03*
%TD*%
%TO.P,M2,1,1*%
%TO.N,Net-(M2-Pad1)*%
X265760002Y-124690000D03*
%TO.P,M2,2,2*%
%TO.N,/V_SEC_RTN*%
X266760000Y-124690000D03*
%TO.P,M2,3,3*%
%TO.N,/Enable_CKT/Enable*%
X266260001Y-123340000D03*
%TD*%
%TO.P,M1,1,1*%
%TO.N,Net-(M1-Pad1)*%
X240404999Y-145745000D03*
%TO.P,M1,2,2*%
%TO.N,/PM_5V_TELEM_RTN*%
X241404997Y-145745000D03*
%TO.P,M1,3,3*%
%TO.N,Net-(M1-Pad3)*%
X240904998Y-144395000D03*
%TD*%
D17*
%TO.P,D2,1,1*%
%TO.N,/PM_5V_RTN*%
X299850000Y-65300000D03*
%TO.P,D2,2,2*%
%TO.N,unconnected-(D2-Pad2)*%
X299850000Y-67200000D03*
%TO.P,D2,3,3*%
%TO.N,Net-(D2-Pad3)*%
X301810000Y-66250000D03*
%TD*%
D18*
%TO.P,R17,1*%
%TO.N,Net-(C43-Pad2)*%
X272940000Y-162520000D03*
%TO.P,R17,2*%
%TO.N,/TEMP_MON*%
X271290000Y-162520000D03*
%TD*%
%TO.P,R39,1*%
%TO.N,Net-(P3-Pad1)*%
X318515000Y-154700000D03*
%TO.P,R39,2*%
%TO.N,/P5_TELEM*%
X316865000Y-154700000D03*
%TD*%
D19*
%TO.P,C17,1*%
%TO.N,/Main_Converter/V_POS*%
X266805000Y-110300000D03*
%TO.P,C17,2*%
%TO.N,/Main_Converter/V_RTN*%
X266805000Y-107600000D03*
%TD*%
D20*
%TO.P,C15,1*%
%TO.N,/Enable_CKT/V3p3*%
X232890000Y-159565000D03*
%TO.P,C15,2*%
%TO.N,/PM_5V_TELEM_RTN*%
X232890000Y-161115000D03*
%TD*%
D21*
%TO.P,R34,1*%
%TO.N,Net-(U10-OUT)*%
X279670000Y-157790000D03*
%TO.P,R34,2*%
%TO.N,Net-(C43-Pad2)*%
X279670000Y-159440000D03*
%TD*%
%TO.P,R42,1*%
%TO.N,/V_SEC_RTN*%
X275300000Y-131585000D03*
%TO.P,R42,2*%
%TO.N,/PM_5V_TELEM_RTN*%
X275300000Y-133235000D03*
%TD*%
D20*
%TO.P,C31,1*%
%TO.N,/PM_5V_TELEM_RTN*%
X312665000Y-118190000D03*
%TO.P,C31,2*%
%TO.N,Net-(C31-Pad2)*%
X312665000Y-119740000D03*
%TD*%
D22*
%TO.P,C42,1*%
%TO.N,/PM_5V_TELEM_RTN*%
X290625000Y-164469800D03*
%TO.P,C42,2*%
%TO.N,/Telemetry_CKT/nV3p3*%
X288850000Y-164469800D03*
%TD*%
D23*
%TO.P,R13,1*%
%TO.N,Net-(M2-Pad1)*%
X265450000Y-126940000D03*
%TO.P,R13,2*%
%TO.N,/V_SEC_RTN*%
X267100000Y-126940000D03*
%TD*%
D24*
%TO.P,C3,1*%
%TO.N,Net-(C3-Pad1)*%
X241965000Y-71837500D03*
%TO.P,C3,2*%
%TO.N,/V_SEC_RTN*%
X241965000Y-65612500D03*
%TD*%
D21*
%TO.P,R16,1*%
%TO.N,/PM_5V_TELEM_RTN*%
X296160000Y-169180000D03*
%TO.P,R16,2*%
%TO.N,Net-(U7-SET)*%
X296160000Y-170830000D03*
%TD*%
D19*
%TO.P,C4,1*%
%TO.N,/Main_Converter1/V_POS*%
X267275000Y-71415000D03*
%TO.P,C4,2*%
%TO.N,/Main_Converter1/V_RTN*%
X267275000Y-68715000D03*
%TD*%
D25*
%TO.P,C25,1*%
%TO.N,/P5_TELEM*%
X307690000Y-172920000D03*
%TO.P,C25,2*%
%TO.N,/PM_5V_TELEM_RTN*%
X309465000Y-172920000D03*
%TD*%
D26*
%TO.P,C14,1*%
%TO.N,/Enable_CKT/V3p3*%
X228307500Y-148110000D03*
%TO.P,C14,2*%
%TO.N,/PM_5V_TELEM_RTN*%
X225607500Y-148110000D03*
%TD*%
D27*
%TO.P,U4,1,+VIN*%
%TO.N,/Main_Converter/V_POS*%
X271000000Y-111750000D03*
D28*
%TO.P,U4,2,-VIN*%
%TO.N,/Main_Converter/V_RTN*%
X271000000Y-106650000D03*
%TO.P,U4,3,+VOUT*%
%TO.N,/PM_5V_RTN*%
X291300000Y-119450000D03*
%TO.P,U4,4,TRIM*%
%TO.N,unconnected-(U4-TRIM-Pad4)*%
X291300000Y-109250000D03*
%TO.P,U4,5,-VOUT*%
%TO.N,/M5V*%
X291300000Y-99050000D03*
%TO.P,U4,6,REMOTE*%
%TO.N,/Enable_CKT/Enable*%
X271000000Y-99050000D03*
%TD*%
D29*
%TO.P,Telem_RTN1,1,1*%
%TO.N,/PM_5V_TELEM_RTN*%
X271750000Y-144770000D03*
%TD*%
D30*
%TO.P,J1,1*%
%TO.N,/V_SEC_RTN*%
X217755000Y-79935000D03*
%TO.P,J1,2*%
X217755000Y-82705000D03*
%TO.P,J1,3*%
%TO.N,unconnected-(J1-Pad3)*%
X217755000Y-85475000D03*
%TO.P,J1,4*%
%TO.N,/V_SEC_RTN*%
X217755000Y-88245000D03*
%TO.P,J1,5*%
X217755000Y-91015000D03*
%TO.P,J1,6*%
%TO.N,/V_SEC_IN*%
X214915000Y-81320000D03*
%TO.P,J1,7*%
X214915000Y-84090000D03*
%TO.P,J1,8*%
X214915000Y-86860000D03*
%TO.P,J1,9*%
X214915000Y-89630000D03*
D31*
%TO.P,J1,S1*%
%TO.N,GNDPWR*%
X216335000Y-72975000D03*
%TO.P,J1,S2*%
X216335000Y-97975000D03*
%TD*%
D18*
%TO.P,R32,1*%
%TO.N,/PM_5V_TELEM_RTN*%
X290585000Y-162360000D03*
%TO.P,R32,2*%
%TO.N,/Telemetry_CKT/nV3p3*%
X288935000Y-162360000D03*
%TD*%
D29*
%TO.P,-5V1,1,1*%
%TO.N,/M5_TELEM*%
X228660000Y-132080000D03*
%TD*%
D32*
%TO.P,U3,1,VCC*%
%TO.N,/Enable_CKT/V3p3*%
X235836200Y-159939999D03*
%TO.P,U3,2,GND*%
%TO.N,/PM_5V_TELEM_RTN*%
X235836200Y-160890000D03*
%TO.P,U3,3,A*%
%TO.N,/Enable-*%
X235836200Y-161840001D03*
%TO.P,U3,4,B*%
%TO.N,/Enable+*%
X238223800Y-161840001D03*
%TO.P,U3,5,R*%
%TO.N,Net-(U3-R)*%
X238223800Y-159939999D03*
%TD*%
D33*
%TO.P,U5,1,-IN*%
%TO.N,/M5V*%
X306115000Y-111680000D03*
%TO.P,U5,2,GND*%
%TO.N,/PM_5V_TELEM_RTN*%
X306115000Y-112950000D03*
%TO.P,U5,3,REF2*%
X306115000Y-114220000D03*
%TO.P,U5,4*%
%TO.N,N/C*%
X306115000Y-115490000D03*
%TO.P,U5,5,OUT*%
%TO.N,Net-(U5-OUT)*%
X311055000Y-115490000D03*
%TO.P,U5,6,V+*%
%TO.N,/Telemetry_CKT/V3p3*%
X311055000Y-114220000D03*
%TO.P,U5,7,REF1*%
%TO.N,/PM_5V_TELEM_RTN*%
X311055000Y-112950000D03*
%TO.P,U5,8,+IN*%
%TO.N,/M5V_OUT*%
X311055000Y-111680000D03*
%TD*%
D21*
%TO.P,R14,1*%
%TO.N,/Enable_CKT/Enable_SIG*%
X238250000Y-151435000D03*
%TO.P,R14,2*%
%TO.N,Net-(U3-R)*%
X238250000Y-153085000D03*
%TD*%
D34*
%TO.P,J4,1,SIGNAL*%
%TO.N,/M5V_OUT*%
X333883000Y-107895000D03*
D35*
%TO.P,J4,2,GND*%
%TO.N,/PM_5V_RTN*%
X336423000Y-105355000D03*
%TO.P,J4,3,GND*%
X331343000Y-105355000D03*
%TO.P,J4,4,GND*%
X331343000Y-110435000D03*
%TO.P,J4,5,GND*%
X336423000Y-110435000D03*
%TD*%
D20*
%TO.P,C43,1*%
%TO.N,/PM_5V_TELEM_RTN*%
X281510000Y-157835000D03*
%TO.P,C43,2*%
%TO.N,Net-(C43-Pad2)*%
X281510000Y-159385000D03*
%TD*%
D36*
%TO.P,F1,1*%
%TO.N,/V_SEC_IN*%
X233072500Y-78505000D03*
%TO.P,F1,2*%
%TO.N,Net-(F1-Pad2)*%
X235997500Y-78505000D03*
%TD*%
D37*
%TO.P,H3,1,1*%
%TO.N,GNDPWR*%
X333000000Y-90000000D03*
%TD*%
D38*
%TO.P,C26,1*%
%TO.N,/Telemetry_CKT/V3p3*%
X313905000Y-114015000D03*
%TO.P,C26,2*%
%TO.N,/PM_5V_TELEM_RTN*%
X313905000Y-113055000D03*
%TD*%
D20*
%TO.P,R23,1*%
%TO.N,/PM_5V_RTN*%
X319440000Y-82250000D03*
%TO.P,R23,2*%
%TO.N,Net-(U11A-+INA)*%
X319440000Y-83800000D03*
%TD*%
D29*
%TO.P,+5V1,1,1*%
%TO.N,/P5_TELEM*%
X228540000Y-167640000D03*
%TD*%
D22*
%TO.P,C34,1*%
%TO.N,/PM_5V_TELEM_RTN*%
X287585000Y-174319800D03*
%TO.P,C34,2*%
%TO.N,/M5_TELEM*%
X285810000Y-174319800D03*
%TD*%
D39*
%TO.P,C44,1*%
%TO.N,/PM_5V_TELEM_RTN*%
X273310000Y-133145000D03*
%TO.P,C44,2*%
%TO.N,/V_SEC_RTN*%
X273310000Y-131595000D03*
%TD*%
D18*
%TO.P,R37,1*%
%TO.N,/PM_5V_TELEM_RTN*%
X318210000Y-129580000D03*
%TO.P,R37,2*%
%TO.N,/M5V_V_MON*%
X316560000Y-129580000D03*
%TD*%
D37*
%TO.P,H1,1,1*%
%TO.N,GNDPWR*%
X214000000Y-56000000D03*
%TD*%
%TO.P,H2,1,1*%
%TO.N,GNDPWR*%
X333000000Y-56000000D03*
%TD*%
D21*
%TO.P,R20,1*%
%TO.N,Net-(U5-OUT)*%
X314580000Y-118100000D03*
%TO.P,R20,2*%
%TO.N,Net-(C31-Pad2)*%
X314580000Y-119750000D03*
%TD*%
D40*
%TO.P,R24,1*%
%TO.N,Net-(U11B--INB)*%
X332315000Y-115010000D03*
%TO.P,R24,2*%
%TO.N,/M5V_OUT*%
X333865000Y-115010000D03*
%TD*%
D23*
%TO.P,R33,1*%
%TO.N,/P5V_V_MON*%
X250995000Y-145380000D03*
%TO.P,R33,2*%
%TO.N,Net-(U11A-A_OUT)*%
X252645000Y-145380000D03*
%TD*%
D41*
%TO.P,J3,1*%
%TO.N,/TEMP_MON*%
X255606000Y-167510000D03*
%TO.P,J3,2*%
%TO.N,/M5V_V_MON*%
X253316000Y-167510000D03*
%TO.P,J3,3*%
%TO.N,/P5V_V_MON*%
X251026000Y-167510000D03*
%TO.P,J3,4*%
%TO.N,/M5V_I_MON*%
X248736000Y-167510000D03*
%TO.P,J3,5*%
%TO.N,/P5V_I_MON*%
X246446000Y-167510000D03*
%TO.P,J3,6*%
%TO.N,/PM_5V_TELEM_RTN*%
X256751000Y-170050000D03*
%TO.P,J3,7*%
X254461000Y-170050000D03*
%TO.P,J3,8*%
X252171000Y-170050000D03*
%TO.P,J3,9*%
X249881000Y-170050000D03*
%TO.P,J3,10*%
X247591000Y-170050000D03*
%TO.P,J3,11*%
%TO.N,unconnected-(J3-Pad11)*%
X255606000Y-172590000D03*
%TO.P,J3,12*%
%TO.N,unconnected-(J3-Pad12)*%
X253316000Y-172590000D03*
%TO.P,J3,13*%
%TO.N,unconnected-(J3-Pad13)*%
X251026000Y-172590000D03*
%TO.P,J3,14*%
%TO.N,/Enable+*%
X248736000Y-172590000D03*
%TO.P,J3,15*%
%TO.N,/Enable-*%
X246446000Y-172590000D03*
D31*
%TO.P,J3,S1*%
%TO.N,GNDPWR*%
X238785000Y-170050000D03*
%TO.P,J3,S2*%
X263775000Y-170050000D03*
%TD*%
D34*
%TO.P,J5,1,SIGNAL*%
%TO.N,/P5V_OUT*%
X334010000Y-71705000D03*
D35*
%TO.P,J5,2,GND*%
%TO.N,/PM_5V_RTN*%
X336550000Y-69165000D03*
%TO.P,J5,3,GND*%
X331470000Y-69165000D03*
%TO.P,J5,4,GND*%
X331470000Y-74245000D03*
%TO.P,J5,5,GND*%
X336550000Y-74245000D03*
%TD*%
D38*
%TO.P,C41,1*%
%TO.N,/Telemetry_CKT/V3p3*%
X266400000Y-143720000D03*
%TO.P,C41,2*%
%TO.N,/PM_5V_TELEM_RTN*%
X266400000Y-142760000D03*
%TD*%
D29*
%TO.P,V_{EN}1,1,1*%
%TO.N,/Enable_CKT/Enable*%
X261320000Y-89620000D03*
%TD*%
D40*
%TO.P,C1,1*%
%TO.N,GNDPWR*%
X286375000Y-55630000D03*
%TO.P,C1,2*%
%TO.N,/PM_5V_RTN*%
X287925000Y-55630000D03*
%TD*%
D12*
%TO.P,U11,1,A_OUT*%
%TO.N,Net-(U11A-A_OUT)*%
X258026200Y-145245000D03*
%TO.P,U11,2,-INA*%
%TO.N,Net-(U11A--INA)*%
X258026200Y-146515000D03*
%TO.P,U11,3,+INA*%
%TO.N,Net-(U11A-+INA)*%
X258026200Y-147785000D03*
%TO.P,U11,4,VSS*%
%TO.N,/Telemetry_CKT/nV3p3*%
X258026200Y-149055000D03*
%TO.P,U11,5,+INB*%
%TO.N,Net-(U11B-+INB)*%
X262953800Y-149055000D03*
%TO.P,U11,6,-INB*%
%TO.N,Net-(U11B--INB)*%
X262953800Y-147785000D03*
%TO.P,U11,7,B_OUT*%
%TO.N,Net-(U11B-B_OUT)*%
X262953800Y-146515000D03*
%TO.P,U11,8,VCC*%
%TO.N,/Telemetry_CKT/V3p3*%
X262953800Y-145245000D03*
%TD*%
D42*
%TO.P,Q1,1,1*%
%TO.N,Net-(Q1-Pad1)*%
X265605000Y-135814200D03*
%TO.P,Q1,2,2*%
%TO.N,Net-(M1-Pad3)*%
X266875000Y-135814200D03*
%TO.P,Q1,3,3*%
%TO.N,/V_SEC_RTN*%
X266875000Y-129565800D03*
%TO.P,Q1,4,4*%
%TO.N,Net-(M2-Pad1)*%
X265605000Y-129565800D03*
%TD*%
D43*
%TO.P,R25,1*%
%TO.N,Net-(U10-OUT)*%
X275030000Y-151720000D03*
%TO.P,R25,2*%
%TO.N,Net-(U10--IN)*%
X274010000Y-151720000D03*
%TD*%
D40*
%TO.P,R21,1*%
%TO.N,/Telemetry_CKT/V_TEMP*%
X311031200Y-93215000D03*
%TO.P,R21,2*%
%TO.N,/PM_5V_TELEM_RTN*%
X312581200Y-93215000D03*
%TD*%
D37*
%TO.P,H8,1,1*%
%TO.N,GNDPWR*%
X280000000Y-90000000D03*
%TD*%
D18*
%TO.P,R11,1*%
%TO.N,/Enable_CKT/V3p3*%
X224985000Y-158020000D03*
%TO.P,R11,2*%
%TO.N,/PM_5V_TELEM_RTN*%
X223335000Y-158020000D03*
%TD*%
D44*
%TO.P,L1,1,1*%
%TO.N,Net-(F1-Pad2)*%
X250935000Y-78506000D03*
%TO.P,L1,2,2*%
%TO.N,/Main_Converter1/V_POS*%
X260535000Y-78506000D03*
%TD*%
D23*
%TO.P,R7,1*%
%TO.N,Net-(M1-Pad1)*%
X240039998Y-147930000D03*
%TO.P,R7,2*%
%TO.N,/PM_5V_TELEM_RTN*%
X241689998Y-147930000D03*
%TD*%
D36*
%TO.P,F2,1*%
%TO.N,/V_SEC_IN*%
X232602500Y-117390000D03*
%TO.P,F2,2*%
%TO.N,Net-(F2-Pad2)*%
X235527500Y-117390000D03*
%TD*%
D45*
%TO.P,C38,1*%
%TO.N,/Telemetry_CKT/nV3p3*%
X255520000Y-150370000D03*
%TO.P,C38,2*%
%TO.N,/PM_5V_TELEM_RTN*%
X255520000Y-151330000D03*
%TD*%
D46*
%TO.P,U9,1,ADJ*%
%TO.N,Net-(U9-ADJ)*%
X281920000Y-170880200D03*
%TO.P,U9,2,IN*%
%TO.N,/M5_TELEM*%
X284220000Y-170880200D03*
%TO.P,U9,3,OUT*%
%TO.N,/Telemetry_CKT/nV3p3*%
X286520000Y-170880200D03*
D47*
%TO.P,U9,4,TAB*%
X284220000Y-164479400D03*
%TD*%
D48*
%TO.P,C33,1*%
%TO.N,/Telemetry_CKT/V3p3*%
X307347500Y-165960000D03*
%TO.P,C33,2*%
%TO.N,/PM_5V_TELEM_RTN*%
X310047500Y-165960000D03*
%TD*%
D19*
%TO.P,C11,1*%
%TO.N,/P5V*%
X296885000Y-71702500D03*
%TO.P,C11,2*%
%TO.N,/PM_5V_RTN*%
X296885000Y-69002500D03*
%TD*%
D24*
%TO.P,C16,1*%
%TO.N,Net-(C16-Pad1)*%
X241495000Y-110722500D03*
%TO.P,C16,2*%
%TO.N,/V_SEC_RTN*%
X241495000Y-104497500D03*
%TD*%
D49*
%TO.P,R6,1*%
%TO.N,/Enable_CKT/Enable_SIG*%
X238254998Y-149585000D03*
%TO.P,R6,2*%
%TO.N,Net-(M1-Pad1)*%
X238254998Y-147935000D03*
%TD*%
D44*
%TO.P,L2,1,1*%
%TO.N,/V_SEC_RTN*%
X250935000Y-61896000D03*
%TO.P,L2,2,2*%
%TO.N,/Main_Converter1/V_RTN*%
X260535000Y-61896000D03*
%TD*%
%TO.P,L3,1,1*%
%TO.N,Net-(F2-Pad2)*%
X250465000Y-117391000D03*
%TO.P,L3,2,2*%
%TO.N,/Main_Converter/V_POS*%
X260065000Y-117391000D03*
%TD*%
D50*
%TO.P,J2,1*%
%TO.N,/PM_5V_TELEM_RTN*%
X217720000Y-150540000D03*
%TO.P,J2,2*%
X217720000Y-147770000D03*
%TO.P,J2,3*%
%TO.N,unconnected-(J2-Pad3)*%
X217720000Y-145000000D03*
%TO.P,J2,4*%
%TO.N,/PM_5V_TELEM_RTN*%
X217720000Y-142230000D03*
%TO.P,J2,5*%
X217720000Y-139460000D03*
%TO.P,J2,6*%
%TO.N,/P5_TELEM*%
X214880000Y-149155000D03*
%TO.P,J2,7*%
X214880000Y-146385000D03*
%TO.P,J2,8*%
%TO.N,/M5_TELEM*%
X214880000Y-143615000D03*
%TO.P,J2,9*%
X214880000Y-140845000D03*
D31*
%TO.P,J2,S1*%
%TO.N,GNDPWR*%
X216300000Y-132500000D03*
%TO.P,J2,S2*%
X216300000Y-157500000D03*
%TD*%
D23*
%TO.P,R36,1*%
%TO.N,/PM_5V_TELEM_RTN*%
X316915000Y-161940000D03*
%TO.P,R36,2*%
%TO.N,/P5V_V_MON*%
X318565000Y-161940000D03*
%TD*%
D51*
%TO.P,R29,1*%
%TO.N,Net-(U11B--INB)*%
X265240000Y-147690000D03*
%TO.P,R29,2*%
%TO.N,Net-(U11B-B_OUT)*%
X265240000Y-146670000D03*
%TD*%
D49*
%TO.P,R9,1*%
%TO.N,/PM_5V_TELEM_RTN*%
X233200000Y-154285000D03*
%TO.P,R9,2*%
%TO.N,Net-(U2-SET)*%
X233200000Y-152635000D03*
%TD*%
D29*
%TO.P,+12V1,1,1*%
%TO.N,/V_SEC_IN*%
X228570000Y-68590000D03*
%TD*%
D52*
%TO.P,R41,1*%
%TO.N,Net-(F2-Pad2)*%
X241475000Y-115752500D03*
%TO.P,R41,2*%
%TO.N,Net-(C16-Pad1)*%
X241475000Y-113927500D03*
%TD*%
D37*
%TO.P,H5,1,1*%
%TO.N,GNDPWR*%
X280000000Y-144000000D03*
%TD*%
D53*
%TO.P,R2,1*%
%TO.N,/M5V*%
X308061600Y-107885000D03*
%TO.P,R2,2*%
%TO.N,/M5V_OUT*%
X309128400Y-107885000D03*
%TD*%
D49*
%TO.P,R31,1*%
%TO.N,/M5V_V_MON*%
X260520000Y-154485000D03*
%TO.P,R31,2*%
%TO.N,Net-(U11B-B_OUT)*%
X260520000Y-152835000D03*
%TD*%
%TO.P,R28,1*%
%TO.N,/PM_5V_TELEM_RTN*%
X279120000Y-174204800D03*
%TO.P,R28,2*%
%TO.N,Net-(U9-ADJ)*%
X279120000Y-172554800D03*
%TD*%
%TO.P,R30,1*%
%TO.N,Net-(U9-ADJ)*%
X279110000Y-169084800D03*
%TO.P,R30,2*%
%TO.N,/Telemetry_CKT/nV3p3*%
X279110000Y-167434800D03*
%TD*%
D44*
%TO.P,L4,1,1*%
%TO.N,/V_SEC_RTN*%
X250465000Y-100781000D03*
%TO.P,L4,2,2*%
%TO.N,/Main_Converter/V_RTN*%
X260065000Y-100781000D03*
%TD*%
D51*
%TO.P,R26,1*%
%TO.N,Net-(U11A--INA)*%
X255860000Y-146400000D03*
%TO.P,R26,2*%
%TO.N,Net-(U11A-A_OUT)*%
X255860000Y-145380000D03*
%TD*%
D45*
%TO.P,C35,1*%
%TO.N,Net-(U11A-A_OUT)*%
X254570000Y-145390000D03*
%TO.P,C35,2*%
%TO.N,Net-(U11A--INA)*%
X254570000Y-146350000D03*
%TD*%
D27*
%TO.P,U1,1,+VIN*%
%TO.N,/Main_Converter1/V_POS*%
X271470000Y-72865000D03*
D28*
%TO.P,U1,2,-VIN*%
%TO.N,/Main_Converter1/V_RTN*%
X271470000Y-67765000D03*
%TO.P,U1,3,+VOUT*%
%TO.N,/P5V*%
X291770000Y-80565000D03*
%TO.P,U1,4,TRIM*%
%TO.N,unconnected-(U1-TRIM-Pad4)*%
X291770000Y-70365000D03*
%TO.P,U1,5,-VOUT*%
%TO.N,/PM_5V_RTN*%
X291770000Y-60165000D03*
%TO.P,U1,6,REMOTE*%
%TO.N,/Enable_CKT/Enable*%
X271470000Y-60165000D03*
%TD*%
D20*
%TO.P,C13,1*%
%TO.N,Net-(U2-SET)*%
X234950000Y-152685000D03*
%TO.P,C13,2*%
%TO.N,/PM_5V_TELEM_RTN*%
X234950000Y-154235000D03*
%TD*%
D39*
%TO.P,R22,1*%
%TO.N,Net-(U11A-+INA)*%
X317490000Y-83820000D03*
%TO.P,R22,2*%
%TO.N,/P5V_OUT*%
X317490000Y-82270000D03*
%TD*%
D52*
%TO.P,R4,1*%
%TO.N,/P5V*%
X304920000Y-69662500D03*
%TO.P,R4,2*%
%TO.N,Net-(D2-Pad3)*%
X304920000Y-67837500D03*
%TD*%
D19*
%TO.P,C24,1*%
%TO.N,/PM_5V_RTN*%
X296415000Y-110587500D03*
%TO.P,C24,2*%
%TO.N,/M5V*%
X296415000Y-107887500D03*
%TD*%
D54*
%TO.P,C12,1*%
%TO.N,/P5_TELEM*%
X222530000Y-151475000D03*
%TO.P,C12,2*%
%TO.N,/PM_5V_TELEM_RTN*%
X222530000Y-153250000D03*
%TD*%
D45*
%TO.P,C39,1*%
%TO.N,/Telemetry_CKT/nV3p3*%
X256720000Y-150380000D03*
%TO.P,C39,2*%
%TO.N,/PM_5V_TELEM_RTN*%
X256720000Y-151340000D03*
%TD*%
D21*
%TO.P,R27,1*%
%TO.N,Net-(U11B-+INB)*%
X265940000Y-150685000D03*
%TO.P,R27,2*%
%TO.N,/PM_5V_TELEM_RTN*%
X265940000Y-152335000D03*
%TD*%
D39*
%TO.P,C30,1*%
%TO.N,Net-(U7-SET)*%
X294287500Y-170825000D03*
%TO.P,C30,2*%
%TO.N,/PM_5V_TELEM_RTN*%
X294287500Y-169275000D03*
%TD*%
D52*
%TO.P,R40,1*%
%TO.N,Net-(F1-Pad2)*%
X241945000Y-76867500D03*
%TO.P,R40,2*%
%TO.N,Net-(C3-Pad1)*%
X241945000Y-75042500D03*
%TD*%
D18*
%TO.P,R38,1*%
%TO.N,Net-(P2-Pad1)*%
X318455000Y-138470000D03*
%TO.P,R38,2*%
%TO.N,/P5_TELEM*%
X316805000Y-138470000D03*
%TD*%
D53*
%TO.P,R1,1*%
%TO.N,/P5V*%
X308171600Y-71715000D03*
%TO.P,R1,2*%
%TO.N,/P5V_OUT*%
X309238400Y-71715000D03*
%TD*%
D38*
%TO.P,C27,1*%
%TO.N,/Telemetry_CKT/V3p3*%
X315215000Y-114015000D03*
%TO.P,C27,2*%
%TO.N,/PM_5V_TELEM_RTN*%
X315215000Y-113055000D03*
%TD*%
D23*
%TO.P,R8,1*%
%TO.N,/P5_TELEM*%
X260785000Y-139520000D03*
%TO.P,R8,2*%
%TO.N,Net-(Q1-Pad1)*%
X262435000Y-139520000D03*
%TD*%
D40*
%TO.P,C2,1*%
%TO.N,GNDPWR*%
X285885000Y-124820000D03*
%TO.P,C2,2*%
%TO.N,/PM_5V_RTN*%
X287435000Y-124820000D03*
%TD*%
D29*
%TO.P,+12V_RTN1,1,1*%
%TO.N,/V_SEC_RTN*%
X229810000Y-89060000D03*
%TD*%
D38*
%TO.P,C40,1*%
%TO.N,/Telemetry_CKT/V3p3*%
X265020000Y-143720000D03*
%TO.P,C40,2*%
%TO.N,/PM_5V_TELEM_RTN*%
X265020000Y-142760000D03*
%TD*%
D29*
%TO.P,+/-5V_{RTN}1,1,1*%
%TO.N,/PM_5V_RTN*%
X296700000Y-90100000D03*
%TD*%
D37*
%TO.P,H7,1,1*%
%TO.N,GNDPWR*%
X333000000Y-174000000D03*
%TD*%
%TO.P,H4,1,1*%
%TO.N,GNDPWR*%
X214000000Y-114000000D03*
%TD*%
%TO.P,H9,1,1*%
%TO.N,GNDPWR*%
X214000000Y-174000000D03*
%TD*%
D55*
%TO.N,/PM_5V_RTN*%
X289520000Y-55620000D03*
X289080000Y-124820000D03*
X319440000Y-81020000D03*
D56*
%TO.N,GNDPWR*%
X284480000Y-74930000D03*
X279400000Y-111760000D03*
X287020000Y-111760000D03*
X276860000Y-116840000D03*
X284480000Y-111760000D03*
X279400000Y-104140000D03*
X279400000Y-72390000D03*
X281940000Y-111760000D03*
X284480000Y-119380000D03*
X279400000Y-62230000D03*
X274320000Y-114300000D03*
X281940000Y-101600000D03*
X279400000Y-77470000D03*
X274320000Y-106680000D03*
X274320000Y-80010000D03*
X284480000Y-106680000D03*
X276860000Y-106680000D03*
X276860000Y-64770000D03*
X276860000Y-77470000D03*
X281940000Y-59690000D03*
X287020000Y-114300000D03*
X284480000Y-116840000D03*
X284480000Y-109220000D03*
X279400000Y-69850000D03*
X281940000Y-104140000D03*
X284480000Y-77470000D03*
X276860000Y-104140000D03*
X276860000Y-114300000D03*
X276860000Y-59690000D03*
X287020000Y-74930000D03*
X284480000Y-69850000D03*
X276860000Y-101600000D03*
X279400000Y-114300000D03*
X281940000Y-80010000D03*
X284480000Y-80010000D03*
X276860000Y-69850000D03*
X274320000Y-77470000D03*
X287020000Y-104140000D03*
X276860000Y-62230000D03*
X274320000Y-116840000D03*
X274320000Y-109220000D03*
X281940000Y-64770000D03*
X287020000Y-106680000D03*
X287020000Y-80010000D03*
X284480000Y-99060000D03*
X279400000Y-101600000D03*
X279400000Y-106680000D03*
X287020000Y-69850000D03*
X287020000Y-119380000D03*
X284480000Y-101600000D03*
X281940000Y-114300000D03*
X281940000Y-116840000D03*
X279400000Y-59690000D03*
X279400000Y-80010000D03*
X284480000Y-62230000D03*
X276860000Y-72390000D03*
X287020000Y-116840000D03*
X276860000Y-80010000D03*
X274320000Y-104140000D03*
X287020000Y-99060000D03*
X274320000Y-99060000D03*
X281940000Y-109220000D03*
X287020000Y-64770000D03*
X281940000Y-62230000D03*
X274320000Y-101600000D03*
X279400000Y-99060000D03*
X279400000Y-116840000D03*
D55*
X284010000Y-124810000D03*
D56*
X290195000Y-113665000D03*
X287020000Y-62230000D03*
X279400000Y-67310000D03*
X271780000Y-119380000D03*
X281940000Y-67310000D03*
X287020000Y-67310000D03*
X287020000Y-109220000D03*
X284480000Y-59690000D03*
X281940000Y-119380000D03*
X281940000Y-74930000D03*
X276860000Y-74930000D03*
D55*
X284810000Y-55620000D03*
D56*
X279400000Y-109220000D03*
X281940000Y-77470000D03*
X279400000Y-64770000D03*
X281940000Y-69850000D03*
X284480000Y-64770000D03*
X281940000Y-99060000D03*
X281940000Y-72390000D03*
X271780000Y-116840000D03*
X287020000Y-72390000D03*
X284480000Y-72390000D03*
X276860000Y-67310000D03*
X276860000Y-99060000D03*
X276860000Y-119380000D03*
X271780000Y-80010000D03*
X284480000Y-114300000D03*
X281940000Y-106680000D03*
X274320000Y-119380000D03*
X279400000Y-74930000D03*
X279400000Y-119380000D03*
X284480000Y-67310000D03*
X287020000Y-101600000D03*
X287020000Y-77470000D03*
X284480000Y-104140000D03*
X276860000Y-109220000D03*
X276860000Y-111760000D03*
X271780000Y-77470000D03*
X274320000Y-111760000D03*
X287020000Y-59690000D03*
D55*
%TO.N,/V_SEC_RTN*%
X276860000Y-93980000D03*
X320040000Y-63500000D03*
X299720000Y-81280000D03*
X269240000Y-127000000D03*
X297180000Y-53340000D03*
X233680000Y-60960000D03*
X236220000Y-60960000D03*
X220980000Y-93980000D03*
X246380000Y-86360000D03*
X236220000Y-119380000D03*
X223520000Y-60960000D03*
X226060000Y-119380000D03*
X302260000Y-53340000D03*
X284480000Y-83820000D03*
X238760000Y-127000000D03*
X327660000Y-55880000D03*
X238760000Y-91440000D03*
X233045000Y-103505000D03*
X233680000Y-53340000D03*
X236220000Y-101600000D03*
X314960000Y-53340000D03*
X213360000Y-121920000D03*
X325120000Y-111760000D03*
X235585000Y-67310000D03*
X231140000Y-93980000D03*
X325120000Y-101600000D03*
X213360000Y-104140000D03*
X261620000Y-127000000D03*
X317500000Y-63500000D03*
X241300000Y-53340000D03*
X287020000Y-53340000D03*
X281940000Y-129540000D03*
X218440000Y-104140000D03*
X307340000Y-121920000D03*
X215900000Y-63500000D03*
X325120000Y-88900000D03*
X215900000Y-109220000D03*
X248920000Y-53340000D03*
X226060000Y-55880000D03*
X226060000Y-60960000D03*
X309880000Y-101600000D03*
X236220000Y-86360000D03*
X264160000Y-91440000D03*
X332740000Y-60960000D03*
X314960000Y-109220000D03*
X223520000Y-83820000D03*
X241300000Y-99060000D03*
X299720000Y-93980000D03*
X220980000Y-68580000D03*
X325120000Y-93980000D03*
X320040000Y-106680000D03*
X220980000Y-111760000D03*
X327660000Y-99060000D03*
X233680000Y-83820000D03*
X228600000Y-60960000D03*
X297180000Y-60960000D03*
X243840000Y-53340000D03*
X297180000Y-101600000D03*
X241300000Y-127000000D03*
X210820000Y-60960000D03*
X271780000Y-55880000D03*
X289560000Y-127000000D03*
X309880000Y-121920000D03*
X210820000Y-66040000D03*
X294640000Y-83820000D03*
X284480000Y-129540000D03*
X223520000Y-104140000D03*
X327660000Y-111760000D03*
X236220000Y-109220000D03*
X256540000Y-53340000D03*
X325120000Y-99060000D03*
X312420000Y-68580000D03*
X238760000Y-60960000D03*
X226060000Y-83820000D03*
X299720000Y-86360000D03*
X220980000Y-71120000D03*
X294640000Y-55880000D03*
X231140000Y-71120000D03*
X309880000Y-127000000D03*
X325120000Y-109220000D03*
X220980000Y-66040000D03*
X299720000Y-76200000D03*
X320040000Y-101600000D03*
X213360000Y-119380000D03*
X231140000Y-86360000D03*
X236220000Y-63500000D03*
X294640000Y-127000000D03*
X325120000Y-63500000D03*
X231140000Y-104140000D03*
X266700000Y-60960000D03*
X231140000Y-119380000D03*
X231140000Y-101600000D03*
X223520000Y-73660000D03*
X223520000Y-93980000D03*
X320040000Y-99060000D03*
X236220000Y-88900000D03*
X289560000Y-83820000D03*
X226060000Y-109220000D03*
X309880000Y-53340000D03*
X274320000Y-83820000D03*
X234315000Y-103505000D03*
X327660000Y-104140000D03*
X279400000Y-127000000D03*
X241300000Y-55880000D03*
X292100000Y-88900000D03*
X281940000Y-124460000D03*
X223520000Y-109220000D03*
X228600000Y-86360000D03*
X264160000Y-96520000D03*
X241300000Y-88900000D03*
X236220000Y-73660000D03*
X312420000Y-63500000D03*
X256540000Y-129540000D03*
X231140000Y-53340000D03*
X325120000Y-86360000D03*
X292100000Y-55880000D03*
X223520000Y-63500000D03*
X231140000Y-58420000D03*
X271780000Y-83820000D03*
X325120000Y-55880000D03*
X235585000Y-66040000D03*
X281940000Y-127000000D03*
X322580000Y-111760000D03*
X226060000Y-86360000D03*
X264160000Y-111760000D03*
X327660000Y-109220000D03*
X215900000Y-121920000D03*
X274320000Y-127000000D03*
X220980000Y-101600000D03*
X231140000Y-83820000D03*
X259080000Y-109220000D03*
X251460000Y-129540000D03*
X320040000Y-93980000D03*
X215900000Y-106680000D03*
X238760000Y-86360000D03*
X220980000Y-109220000D03*
X271780000Y-129540000D03*
X251460000Y-127000000D03*
X226060000Y-73660000D03*
X228600000Y-55880000D03*
X320040000Y-68580000D03*
X299720000Y-124460000D03*
X228600000Y-96520000D03*
X309880000Y-96520000D03*
X297180000Y-116840000D03*
X218440000Y-109220000D03*
X220980000Y-116840000D03*
X213360000Y-66040000D03*
X220980000Y-119380000D03*
X307340000Y-104140000D03*
X248920000Y-88900000D03*
X220980000Y-73660000D03*
X292100000Y-93980000D03*
X236220000Y-58420000D03*
X309880000Y-104140000D03*
X276860000Y-86360000D03*
X228600000Y-99060000D03*
X299720000Y-53340000D03*
X304800000Y-53340000D03*
X228600000Y-106680000D03*
X284480000Y-91440000D03*
X238760000Y-129540000D03*
X233680000Y-109220000D03*
X223520000Y-53340000D03*
X294640000Y-124460000D03*
X297180000Y-96520000D03*
X322580000Y-63500000D03*
X243840000Y-96520000D03*
X312420000Y-127000000D03*
X297180000Y-127000000D03*
X223520000Y-88900000D03*
X314960000Y-104140000D03*
X264160000Y-58420000D03*
X233680000Y-96520000D03*
X243840000Y-83820000D03*
X292100000Y-124460000D03*
X223520000Y-81280000D03*
X320040000Y-76200000D03*
X226060000Y-91440000D03*
X238760000Y-58420000D03*
X210820000Y-106680000D03*
X287020000Y-91440000D03*
X236220000Y-71120000D03*
X279400000Y-129540000D03*
X241300000Y-121920000D03*
X274320000Y-93980000D03*
X327660000Y-93980000D03*
X226060000Y-99060000D03*
X238760000Y-99060000D03*
X299720000Y-127000000D03*
X246380000Y-96520000D03*
X307340000Y-101600000D03*
X289560000Y-129540000D03*
X269240000Y-53340000D03*
X233680000Y-101600000D03*
X312420000Y-101600000D03*
X322580000Y-104140000D03*
X292100000Y-127000000D03*
X236220000Y-99060000D03*
X246380000Y-58420000D03*
X215900000Y-60960000D03*
X246380000Y-111760000D03*
X292100000Y-83820000D03*
X248920000Y-109220000D03*
X231140000Y-99060000D03*
X243840000Y-58420000D03*
X223520000Y-58420000D03*
X228600000Y-119380000D03*
X332740000Y-63500000D03*
X213360000Y-109220000D03*
X243840000Y-127000000D03*
X264160000Y-55880000D03*
X246380000Y-127000000D03*
X231140000Y-114300000D03*
X228600000Y-53340000D03*
X325120000Y-68580000D03*
X231140000Y-73660000D03*
X325120000Y-53340000D03*
X218440000Y-53340000D03*
X307340000Y-124460000D03*
X327660000Y-66040000D03*
X294640000Y-93980000D03*
X299720000Y-121920000D03*
X210820000Y-119380000D03*
X281940000Y-83820000D03*
X236220000Y-96520000D03*
X322580000Y-99060000D03*
X241300000Y-129540000D03*
X236220000Y-53340000D03*
X302260000Y-55880000D03*
X304800000Y-63500000D03*
X243840000Y-55880000D03*
X279400000Y-55880000D03*
X274320000Y-53340000D03*
X256540000Y-86360000D03*
X246380000Y-71120000D03*
X238760000Y-53340000D03*
X238760000Y-83820000D03*
X261620000Y-53340000D03*
X264160000Y-53340000D03*
X218440000Y-111760000D03*
X287020000Y-88900000D03*
X294640000Y-96520000D03*
X220980000Y-60960000D03*
X266700000Y-88900000D03*
X281940000Y-55880000D03*
X259080000Y-129540000D03*
X276860000Y-127000000D03*
X264160000Y-114300000D03*
X251460000Y-109220000D03*
X330200000Y-63500000D03*
X264160000Y-66040000D03*
X220980000Y-114300000D03*
X284480000Y-93980000D03*
X246380000Y-109220000D03*
X335280000Y-60960000D03*
X317500000Y-78740000D03*
X220980000Y-121920000D03*
X325120000Y-73660000D03*
X307340000Y-63500000D03*
X276860000Y-124460000D03*
X297180000Y-124460000D03*
X233680000Y-71120000D03*
X256540000Y-109220000D03*
X226060000Y-96520000D03*
X248920000Y-127000000D03*
X243840000Y-86360000D03*
X261620000Y-109220000D03*
X320040000Y-111760000D03*
X327660000Y-88900000D03*
X254000000Y-71120000D03*
X254000000Y-53340000D03*
X218440000Y-121920000D03*
X309880000Y-63500000D03*
X309880000Y-68580000D03*
X274320000Y-129540000D03*
X254000000Y-91440000D03*
X332740000Y-66040000D03*
X218440000Y-58420000D03*
X226060000Y-101600000D03*
X235585000Y-103505000D03*
X325120000Y-83820000D03*
X266700000Y-99060000D03*
X312420000Y-106680000D03*
X314960000Y-78740000D03*
X266700000Y-86360000D03*
X307340000Y-96520000D03*
X246380000Y-99060000D03*
X271780000Y-127000000D03*
X320040000Y-104140000D03*
X215900000Y-68580000D03*
X314960000Y-68580000D03*
X307340000Y-119380000D03*
X223520000Y-66040000D03*
X210820000Y-63500000D03*
X312420000Y-99060000D03*
X231140000Y-66040000D03*
X243840000Y-91440000D03*
X264160000Y-93980000D03*
X243840000Y-124460000D03*
X246380000Y-104140000D03*
X236855000Y-66040000D03*
X223520000Y-71120000D03*
X297180000Y-83820000D03*
X223520000Y-111760000D03*
X322580000Y-68580000D03*
X220980000Y-106680000D03*
X236220000Y-106680000D03*
X292100000Y-91440000D03*
X287020000Y-129540000D03*
X322580000Y-88900000D03*
X325120000Y-96520000D03*
X215900000Y-66040000D03*
X243840000Y-129540000D03*
X234315000Y-104775000D03*
X317500000Y-73660000D03*
X332740000Y-83820000D03*
X228600000Y-93980000D03*
X233680000Y-111760000D03*
X266700000Y-91440000D03*
X226060000Y-58420000D03*
X231140000Y-96520000D03*
X254000000Y-129540000D03*
X271780000Y-86360000D03*
X246380000Y-129540000D03*
X251460000Y-71120000D03*
X259080000Y-71120000D03*
X294640000Y-129540000D03*
X299720000Y-96520000D03*
X246380000Y-53340000D03*
X223520000Y-55880000D03*
X307340000Y-127000000D03*
X254000000Y-109220000D03*
X256540000Y-71120000D03*
X241300000Y-119380000D03*
X231140000Y-109220000D03*
X264160000Y-76200000D03*
X327660000Y-86360000D03*
X241300000Y-83820000D03*
X228600000Y-104140000D03*
X233680000Y-88900000D03*
X246380000Y-83820000D03*
X314960000Y-63500000D03*
X226060000Y-121920000D03*
X220980000Y-55880000D03*
X322580000Y-73660000D03*
X218440000Y-106680000D03*
X243840000Y-99060000D03*
X266700000Y-58420000D03*
X241300000Y-96520000D03*
X231140000Y-106680000D03*
X274320000Y-91440000D03*
X320040000Y-66040000D03*
X327660000Y-83820000D03*
X246380000Y-93980000D03*
X228600000Y-111760000D03*
X220980000Y-99060000D03*
X264160000Y-88900000D03*
X299720000Y-101600000D03*
X233680000Y-106680000D03*
X256540000Y-127000000D03*
X312420000Y-104140000D03*
X299720000Y-91440000D03*
X228600000Y-58420000D03*
X327660000Y-96520000D03*
X238760000Y-124460000D03*
X304800000Y-58420000D03*
X314960000Y-106680000D03*
X233680000Y-121920000D03*
X322580000Y-66040000D03*
X264160000Y-81280000D03*
X233680000Y-58420000D03*
X271780000Y-91440000D03*
X213360000Y-60960000D03*
X314960000Y-99060000D03*
X238760000Y-93980000D03*
X312420000Y-109220000D03*
X231140000Y-63500000D03*
X236220000Y-121920000D03*
X254000000Y-127000000D03*
X236220000Y-93980000D03*
X220980000Y-96520000D03*
X220980000Y-104140000D03*
X276860000Y-53340000D03*
X327660000Y-106680000D03*
X236220000Y-114300000D03*
X299720000Y-55880000D03*
X279400000Y-53340000D03*
X317500000Y-68580000D03*
X322580000Y-96520000D03*
X243840000Y-114300000D03*
X246380000Y-114300000D03*
X320040000Y-86360000D03*
X314960000Y-96520000D03*
X330200000Y-60960000D03*
X259080000Y-127000000D03*
X297180000Y-63500000D03*
X299720000Y-83820000D03*
X297180000Y-93980000D03*
X223520000Y-119380000D03*
X220980000Y-63500000D03*
X228600000Y-121920000D03*
X226060000Y-66040000D03*
X264160000Y-73660000D03*
X294640000Y-86360000D03*
X327660000Y-76200000D03*
X210820000Y-104140000D03*
X327660000Y-58420000D03*
X307340000Y-99060000D03*
X327660000Y-73660000D03*
X335280000Y-63500000D03*
X223520000Y-101600000D03*
X251460000Y-86360000D03*
X228600000Y-81280000D03*
X238760000Y-88900000D03*
X223520000Y-68580000D03*
X276860000Y-83820000D03*
X251460000Y-53340000D03*
X314960000Y-76200000D03*
X327660000Y-114300000D03*
X233680000Y-91440000D03*
X279400000Y-124460000D03*
X322580000Y-106680000D03*
X294640000Y-121920000D03*
X233680000Y-63500000D03*
X243840000Y-88900000D03*
X241300000Y-124460000D03*
X233680000Y-73660000D03*
X309880000Y-99060000D03*
X226060000Y-81280000D03*
X287020000Y-86360000D03*
X266700000Y-83820000D03*
X287020000Y-83820000D03*
X325120000Y-91440000D03*
X299720000Y-63500000D03*
X236220000Y-91440000D03*
X223520000Y-76200000D03*
X299720000Y-129540000D03*
X292100000Y-129540000D03*
X327660000Y-63500000D03*
X322580000Y-86360000D03*
X231140000Y-55880000D03*
X231140000Y-60960000D03*
X223520000Y-86360000D03*
X327660000Y-53340000D03*
X276860000Y-129540000D03*
X307340000Y-68580000D03*
X284480000Y-127000000D03*
X243840000Y-121920000D03*
X322580000Y-91440000D03*
X327660000Y-60960000D03*
X299720000Y-104140000D03*
X307340000Y-66040000D03*
X274320000Y-86360000D03*
X213360000Y-106680000D03*
X251460000Y-91440000D03*
X254000000Y-86360000D03*
X238760000Y-114300000D03*
X223520000Y-121920000D03*
X302260000Y-58420000D03*
X233045000Y-104775000D03*
X233680000Y-86360000D03*
X325120000Y-66040000D03*
X322580000Y-53340000D03*
X233680000Y-93980000D03*
X218440000Y-116840000D03*
X320040000Y-96520000D03*
X327660000Y-91440000D03*
X309880000Y-124460000D03*
X299720000Y-58420000D03*
X218440000Y-60960000D03*
X218440000Y-114300000D03*
X302260000Y-63500000D03*
X289560000Y-53340000D03*
X330200000Y-66040000D03*
X228600000Y-63500000D03*
X226060000Y-111760000D03*
X223520000Y-78740000D03*
X246380000Y-91440000D03*
X215900000Y-104140000D03*
X325120000Y-60960000D03*
X246380000Y-55880000D03*
X226060000Y-53340000D03*
X299720000Y-60960000D03*
X233680000Y-114300000D03*
X226060000Y-104140000D03*
X304800000Y-60960000D03*
X231140000Y-121920000D03*
X236220000Y-55880000D03*
X238760000Y-55880000D03*
X325120000Y-106680000D03*
X299720000Y-73660000D03*
X223520000Y-91440000D03*
X320040000Y-109220000D03*
X238760000Y-96520000D03*
X248920000Y-91440000D03*
X241300000Y-93980000D03*
X297180000Y-55880000D03*
X312420000Y-53340000D03*
X236220000Y-111760000D03*
X210820000Y-109220000D03*
X228600000Y-73660000D03*
X312420000Y-124460000D03*
X314960000Y-73660000D03*
X330200000Y-83820000D03*
X210820000Y-121920000D03*
X302260000Y-60960000D03*
X289560000Y-93980000D03*
X238760000Y-119380000D03*
X243840000Y-93980000D03*
X259080000Y-91440000D03*
X220980000Y-53340000D03*
X325120000Y-114300000D03*
X220980000Y-58420000D03*
X228600000Y-83820000D03*
X223520000Y-114300000D03*
X312420000Y-73660000D03*
X322580000Y-109220000D03*
X297180000Y-78740000D03*
X218440000Y-68580000D03*
X266700000Y-81280000D03*
X327660000Y-68580000D03*
X284480000Y-53340000D03*
X304800000Y-55880000D03*
X228600000Y-101600000D03*
X256540000Y-91440000D03*
X317500000Y-53340000D03*
X220980000Y-76200000D03*
X236220000Y-83820000D03*
X241300000Y-91440000D03*
X234315000Y-67310000D03*
X238760000Y-63500000D03*
X226060000Y-93980000D03*
X287020000Y-93980000D03*
X256540000Y-88900000D03*
X254000000Y-88900000D03*
X325120000Y-76200000D03*
X246380000Y-88900000D03*
X226060000Y-88900000D03*
X299720000Y-88900000D03*
X226060000Y-106680000D03*
X320040000Y-53340000D03*
X226060000Y-71120000D03*
X322580000Y-101600000D03*
X223520000Y-106680000D03*
X281940000Y-53340000D03*
X322580000Y-76200000D03*
X248920000Y-86360000D03*
X320040000Y-88900000D03*
X266700000Y-96520000D03*
X307340000Y-53340000D03*
X231140000Y-111760000D03*
X322580000Y-83820000D03*
X269240000Y-55880000D03*
X320040000Y-91440000D03*
X228600000Y-109220000D03*
X299720000Y-78740000D03*
X218440000Y-66040000D03*
X325120000Y-58420000D03*
X261620000Y-71120000D03*
X294640000Y-53340000D03*
X223520000Y-116840000D03*
X238760000Y-101600000D03*
X246380000Y-106680000D03*
X309880000Y-66040000D03*
X292100000Y-53340000D03*
X294640000Y-99060000D03*
X335280000Y-66040000D03*
X297180000Y-81280000D03*
X226060000Y-63500000D03*
X261620000Y-129540000D03*
X264160000Y-63500000D03*
X320040000Y-73660000D03*
X271780000Y-124460000D03*
X236855000Y-67310000D03*
X274320000Y-55880000D03*
X289560000Y-88900000D03*
X218440000Y-63500000D03*
X264160000Y-83820000D03*
X271780000Y-93980000D03*
X223520000Y-99060000D03*
X276860000Y-55880000D03*
X251460000Y-88900000D03*
X259080000Y-53340000D03*
X234315000Y-66040000D03*
X266700000Y-93980000D03*
X287020000Y-127000000D03*
X274320000Y-88900000D03*
X248920000Y-129540000D03*
X233680000Y-99060000D03*
X330200000Y-86360000D03*
X210820000Y-68580000D03*
X218440000Y-119380000D03*
X279400000Y-83820000D03*
X266700000Y-53340000D03*
X297180000Y-86360000D03*
X289560000Y-91440000D03*
X289560000Y-86360000D03*
X213360000Y-63500000D03*
X241300000Y-58420000D03*
X238760000Y-121920000D03*
X299720000Y-99060000D03*
X314960000Y-101600000D03*
X325120000Y-104140000D03*
X274320000Y-124460000D03*
X297180000Y-121920000D03*
X218440000Y-55880000D03*
X213360000Y-68580000D03*
X317500000Y-76200000D03*
X284480000Y-88900000D03*
X233680000Y-119380000D03*
X297180000Y-58420000D03*
X266700000Y-55880000D03*
X312420000Y-96520000D03*
X327660000Y-101600000D03*
X322580000Y-93980000D03*
X284480000Y-86360000D03*
X241300000Y-86360000D03*
X235585000Y-104775000D03*
X215900000Y-119380000D03*
X292100000Y-86360000D03*
X223520000Y-96520000D03*
X271780000Y-88900000D03*
X322580000Y-114300000D03*
X271780000Y-53340000D03*
X297180000Y-129540000D03*
X281940000Y-93980000D03*
X233680000Y-55880000D03*
X297180000Y-99060000D03*
X248920000Y-71120000D03*
%TO.N,/P5V*%
X308175000Y-74295000D03*
%TO.N,/P5_TELEM*%
X259150000Y-139510000D03*
X305997500Y-172920000D03*
X315430000Y-154700000D03*
X223970000Y-151017500D03*
X305936200Y-88275000D03*
X224270000Y-139530000D03*
X315720000Y-139630000D03*
X303720000Y-139470000D03*
%TO.N,/M5V*%
X300560000Y-112540000D03*
%TO.N,/PM_5V_TELEM_RTN*%
X269240000Y-168910000D03*
X264160000Y-163830000D03*
X220980000Y-129540000D03*
X247650000Y-157480000D03*
X299720000Y-142240000D03*
X261620000Y-163830000D03*
X233680000Y-175260000D03*
X231140000Y-170180000D03*
X297180000Y-157480000D03*
X330200000Y-147320000D03*
X312420000Y-162560000D03*
X297180000Y-162560000D03*
X314960000Y-175260000D03*
X265940000Y-153650000D03*
X247650000Y-152400000D03*
X274320000Y-161290000D03*
X332740000Y-149860000D03*
X233680000Y-134620000D03*
X231140000Y-134620000D03*
X297180000Y-144780000D03*
X276860000Y-137160000D03*
X231140000Y-147320000D03*
X274320000Y-147320000D03*
X223520000Y-177800000D03*
X228600000Y-172720000D03*
X299720000Y-147320000D03*
X247650000Y-142240000D03*
X252730000Y-152400000D03*
X335280000Y-129540000D03*
X307340000Y-175260000D03*
X335280000Y-162560000D03*
X297180000Y-147320000D03*
X335280000Y-119380000D03*
X213360000Y-127000000D03*
X233680000Y-142240000D03*
X304800000Y-162560000D03*
X238760000Y-134620000D03*
X215900000Y-162560000D03*
X322580000Y-132080000D03*
X250190000Y-162560000D03*
X271780000Y-137160000D03*
X250190000Y-142240000D03*
X302260000Y-144780000D03*
X274320000Y-166370000D03*
X231140000Y-175260000D03*
X335280000Y-157480000D03*
X320040000Y-127000000D03*
X309880000Y-152400000D03*
X327660000Y-144780000D03*
X304800000Y-175260000D03*
X247650000Y-147320000D03*
X302260000Y-147320000D03*
X279110000Y-175649800D03*
X269240000Y-176530000D03*
X335280000Y-165100000D03*
X252730000Y-154940000D03*
X309880000Y-157480000D03*
X271780000Y-171450000D03*
X220980000Y-134620000D03*
X284480000Y-147320000D03*
X312420000Y-134620000D03*
X236220000Y-149860000D03*
X332740000Y-121920000D03*
X236220000Y-134620000D03*
X325120000Y-144780000D03*
X299720000Y-137160000D03*
X302260000Y-157480000D03*
X312420000Y-137160000D03*
X218440000Y-172720000D03*
X231140000Y-142240000D03*
X261620000Y-157480000D03*
X271780000Y-166370000D03*
X269240000Y-147320000D03*
X236220000Y-144780000D03*
X332740000Y-119380000D03*
X238760000Y-144780000D03*
X294640000Y-157480000D03*
X231140000Y-137160000D03*
X269240000Y-157480000D03*
X277890000Y-154410000D03*
X228600000Y-127000000D03*
X226060000Y-175260000D03*
X236220000Y-147320000D03*
X332740000Y-139700000D03*
X264160000Y-157480000D03*
X221970000Y-158010000D03*
X266700000Y-161290000D03*
X269240000Y-161290000D03*
X315380000Y-161940000D03*
X335280000Y-142240000D03*
X335280000Y-127000000D03*
X241300000Y-162560000D03*
X247650000Y-144780000D03*
X299720000Y-134620000D03*
X228600000Y-160020000D03*
X269240000Y-137160000D03*
X226060000Y-144780000D03*
X257960000Y-151610000D03*
X261620000Y-134620000D03*
X335280000Y-149860000D03*
X335280000Y-124460000D03*
X218440000Y-127000000D03*
X312420000Y-157480000D03*
X281510000Y-156450000D03*
X256540000Y-134620000D03*
X243840000Y-142240000D03*
X226060000Y-165100000D03*
X247650000Y-162560000D03*
X276860000Y-166370000D03*
X312420000Y-147320000D03*
X274320000Y-173990000D03*
X287020000Y-147320000D03*
X332740000Y-167640000D03*
X294640000Y-142240000D03*
X332740000Y-137160000D03*
X241300000Y-137160000D03*
X243840000Y-152400000D03*
X327660000Y-132080000D03*
X297180000Y-137160000D03*
X274320000Y-142240000D03*
X256540000Y-137160000D03*
X266700000Y-144780000D03*
X233680000Y-172720000D03*
X251460000Y-134620000D03*
X231140000Y-160020000D03*
X304800000Y-142240000D03*
X327660000Y-147320000D03*
X218440000Y-162560000D03*
X309880000Y-175260000D03*
X271780000Y-134620000D03*
X305445000Y-81840000D03*
X320390000Y-129570000D03*
X325120000Y-132080000D03*
X215900000Y-127000000D03*
X327660000Y-129540000D03*
X332740000Y-134620000D03*
X250190000Y-154940000D03*
X233680000Y-132080000D03*
X289560000Y-144780000D03*
X274320000Y-137160000D03*
X234070000Y-155860000D03*
X302260000Y-175260000D03*
X250190000Y-152400000D03*
X289560000Y-137160000D03*
X271780000Y-147320000D03*
X274320000Y-176530000D03*
X294640000Y-144780000D03*
X289560000Y-147320000D03*
X322580000Y-162560000D03*
X234220000Y-161135000D03*
X322580000Y-144780000D03*
X220980000Y-132080000D03*
X231140000Y-127000000D03*
X250190000Y-147320000D03*
X297180000Y-142240000D03*
X271780000Y-176530000D03*
X243840000Y-134620000D03*
X220980000Y-167640000D03*
X292257500Y-164469800D03*
X311127500Y-172920000D03*
X223520000Y-129540000D03*
X243840000Y-137160000D03*
X332740000Y-127000000D03*
X312420000Y-144780000D03*
X276860000Y-163830000D03*
X335280000Y-134620000D03*
X335280000Y-167640000D03*
X311817500Y-165960000D03*
X233680000Y-144780000D03*
X292100000Y-157480000D03*
X254000000Y-134620000D03*
X269240000Y-173990000D03*
X335280000Y-147320000D03*
X335280000Y-152400000D03*
X266700000Y-157480000D03*
X312745000Y-112955000D03*
X220980000Y-177800000D03*
X287020000Y-142240000D03*
X241300000Y-154940000D03*
X320040000Y-119380000D03*
X226060000Y-129540000D03*
X327660000Y-162560000D03*
X261620000Y-161290000D03*
X289560000Y-157480000D03*
X269240000Y-166370000D03*
X250190000Y-157480000D03*
X220980000Y-175260000D03*
X241300000Y-149860000D03*
X236220000Y-137160000D03*
X233680000Y-167640000D03*
X241300000Y-134620000D03*
X332740000Y-154940000D03*
X287020000Y-137160000D03*
X223520000Y-170180000D03*
X289377500Y-174329800D03*
X223520000Y-162560000D03*
X294640000Y-162560000D03*
X312420000Y-142240000D03*
X276860000Y-134620000D03*
X243840000Y-160020000D03*
X226060000Y-172720000D03*
X332740000Y-144780000D03*
X261620000Y-137160000D03*
X228600000Y-175260000D03*
X247650000Y-149860000D03*
X210820000Y-167640000D03*
X287020000Y-144780000D03*
X325120000Y-129540000D03*
X218440000Y-167640000D03*
X236220000Y-142240000D03*
X233680000Y-127000000D03*
X322580000Y-147320000D03*
X233680000Y-170180000D03*
X254000000Y-137160000D03*
X332740000Y-157480000D03*
X294640000Y-134620000D03*
X238760000Y-137160000D03*
X241300000Y-157480000D03*
X250190000Y-149860000D03*
X247650000Y-154940000D03*
X243840000Y-162560000D03*
X274320000Y-163830000D03*
X226060000Y-170180000D03*
X220980000Y-137160000D03*
X276860000Y-173990000D03*
X292100000Y-142240000D03*
X215900000Y-165100000D03*
X220980000Y-170180000D03*
X297180000Y-134620000D03*
X223520000Y-127000000D03*
X287020000Y-134620000D03*
X284480000Y-134620000D03*
X265010000Y-141820000D03*
X276860000Y-168910000D03*
X292100000Y-134620000D03*
X225610000Y-146590000D03*
X332740000Y-152400000D03*
X289560000Y-142240000D03*
X297180000Y-175260000D03*
X243840000Y-149860000D03*
X210820000Y-127000000D03*
X312420000Y-152400000D03*
X335280000Y-139700000D03*
X289560000Y-134620000D03*
X332740000Y-124460000D03*
X325120000Y-162560000D03*
X309880000Y-147320000D03*
X313365000Y-77415000D03*
X269240000Y-171450000D03*
X252730000Y-147320000D03*
X223520000Y-160020000D03*
X259080000Y-161290000D03*
X292100000Y-147320000D03*
X210820000Y-170180000D03*
X231140000Y-144780000D03*
X292100000Y-144780000D03*
X213360000Y-167640000D03*
X332740000Y-147320000D03*
X243840000Y-154940000D03*
X233680000Y-137160000D03*
X242990000Y-147930000D03*
X243840000Y-144780000D03*
X241300000Y-152400000D03*
X312420000Y-154940000D03*
X218440000Y-165100000D03*
X330200000Y-144780000D03*
X309880000Y-162560000D03*
X284480000Y-144780000D03*
X271780000Y-173990000D03*
X271780000Y-168910000D03*
X335280000Y-121920000D03*
X233680000Y-147320000D03*
X210820000Y-165100000D03*
X259080000Y-134620000D03*
X222530000Y-154690000D03*
X264160000Y-161290000D03*
X320040000Y-124460000D03*
X294640000Y-137160000D03*
X292100000Y-137160000D03*
X325120000Y-147320000D03*
X302260000Y-162560000D03*
X335280000Y-137160000D03*
X304350000Y-113580000D03*
X269240000Y-163830000D03*
X274320000Y-134620000D03*
X231140000Y-129540000D03*
X228600000Y-162560000D03*
X251460000Y-137160000D03*
X243840000Y-157480000D03*
X220980000Y-127000000D03*
X335280000Y-160020000D03*
X307340000Y-162560000D03*
X228600000Y-142240000D03*
X226060000Y-160020000D03*
X304800000Y-147320000D03*
X294640000Y-147320000D03*
X223520000Y-137160000D03*
X259080000Y-137160000D03*
X276860000Y-161290000D03*
X322580000Y-129540000D03*
X228600000Y-137160000D03*
X223520000Y-132080000D03*
X231140000Y-172720000D03*
X259080000Y-163830000D03*
X248920000Y-134620000D03*
X309880000Y-154940000D03*
X226060000Y-137160000D03*
X302260000Y-142240000D03*
X218440000Y-177800000D03*
X332740000Y-142240000D03*
X284480000Y-137160000D03*
X335280000Y-144780000D03*
X226060000Y-127000000D03*
X274320000Y-168910000D03*
X271780000Y-142240000D03*
X269240000Y-142240000D03*
X304535000Y-76775000D03*
X299720000Y-175260000D03*
X304800000Y-157480000D03*
X284480000Y-142240000D03*
X294640000Y-175260000D03*
X238760000Y-142240000D03*
X335280000Y-154940000D03*
X312420000Y-175260000D03*
X276860000Y-176530000D03*
X218440000Y-175260000D03*
X259080000Y-157480000D03*
X233680000Y-165100000D03*
X226060000Y-142240000D03*
X233680000Y-129540000D03*
X276860000Y-171450000D03*
X299720000Y-157480000D03*
X210820000Y-162560000D03*
X309880000Y-142240000D03*
X266700000Y-163830000D03*
X312576200Y-94715000D03*
X226060000Y-134620000D03*
X311145000Y-118195000D03*
X335280000Y-132080000D03*
X252730000Y-149860000D03*
X271780000Y-157480000D03*
X309880000Y-137160000D03*
X299720000Y-144780000D03*
X309880000Y-144780000D03*
X233680000Y-149860000D03*
X241300000Y-160020000D03*
X223520000Y-134620000D03*
X307340000Y-157480000D03*
X231140000Y-165100000D03*
X226060000Y-162560000D03*
X295177500Y-167840000D03*
X223520000Y-172720000D03*
X274320000Y-171450000D03*
X231140000Y-162560000D03*
X317500000Y-175260000D03*
X269240000Y-134620000D03*
X309880000Y-134620000D03*
X228600000Y-144780000D03*
X247650000Y-160020000D03*
X304800000Y-144780000D03*
X233680000Y-162560000D03*
%TO.N,/M5_TELEM*%
X284210000Y-172779800D03*
%TO.N,/Telemetry_CKT/V3p3*%
X265020000Y-144920000D03*
X305067500Y-165957500D03*
X304535000Y-78045000D03*
X312735000Y-114215000D03*
X273680000Y-156780000D03*
%TO.N,Net-(C31-Pad2)*%
X314645000Y-121675000D03*
X282310000Y-138080000D03*
X314610000Y-138080000D03*
%TO.N,Net-(C32-Pad2)*%
X282310000Y-135460000D03*
X302220000Y-135460000D03*
X302255000Y-85075000D03*
%TO.N,/Telemetry_CKT/nV3p3*%
X286860000Y-158570000D03*
X255870000Y-149050000D03*
X255860000Y-158570000D03*
X286860000Y-164479800D03*
%TO.N,/V_SEC_IN*%
X226060000Y-115570000D03*
X227965000Y-77470000D03*
X227330000Y-115570000D03*
X227965000Y-78740000D03*
X228600000Y-116840000D03*
X229235000Y-77470000D03*
X227330000Y-116840000D03*
X226060000Y-116840000D03*
X244820000Y-119630000D03*
X226695000Y-77470000D03*
X226695000Y-78740000D03*
X229235000Y-78740000D03*
X228600000Y-115570000D03*
%TO.N,/M5V_V_MON*%
X307050000Y-129580000D03*
X262970000Y-155300000D03*
X307040000Y-155300000D03*
%TO.N,/M5V_I_MON*%
X277760000Y-138080000D03*
X248750000Y-138080000D03*
%TO.N,/P5V_I_MON*%
X246350000Y-135460000D03*
X277760000Y-135460000D03*
%TO.N,/P5V_V_MON*%
X251000000Y-160420000D03*
X318560000Y-160420000D03*
%TO.N,/P5V_OUT*%
X309235000Y-74305000D03*
X317490000Y-81010000D03*
%TO.N,Net-(M2-Pad1)*%
X264860000Y-122740000D03*
%TO.N,/Enable_CKT/Enable*%
X266760000Y-121840000D03*
X269210000Y-118230000D03*
%TO.N,/Telemetry_CKT/V_TEMP*%
X305570000Y-153400000D03*
X277840000Y-153400000D03*
X305605000Y-93455000D03*
%TO.N,Net-(U11A-+INA)*%
X317480000Y-150690000D03*
X254290000Y-150690000D03*
X317480000Y-86140000D03*
%TO.N,Net-(U11B--INB)*%
X319270000Y-115010000D03*
X319270000Y-148610000D03*
X266990000Y-148630000D03*
%TO.N,Net-(U11B-B_OUT)*%
X260850000Y-146510000D03*
X260530000Y-151290000D03*
%TD*%
D57*
%TO.N,/PM_5V_RTN*%
X296885000Y-65280000D02*
X291770000Y-60165000D01*
D58*
X319440000Y-82250000D02*
X319440000Y-81020000D01*
D57*
X296415000Y-110587500D02*
X296415000Y-114335000D01*
D58*
X287925000Y-55630000D02*
X289510000Y-55630000D01*
D57*
X296415000Y-114335000D02*
X291300000Y-119450000D01*
D59*
X299857500Y-65290000D02*
X296895000Y-65290000D01*
D58*
X296895000Y-65290000D02*
X296885000Y-65280000D01*
X287435000Y-124820000D02*
X289080000Y-124820000D01*
D57*
X296885000Y-69002500D02*
X296885000Y-65280000D01*
D58*
X289510000Y-55630000D02*
X289520000Y-55620000D01*
%TO.N,GNDPWR*%
X285885000Y-124820000D02*
X284020000Y-124820000D01*
X284820000Y-55630000D02*
X284810000Y-55620000D01*
X286375000Y-55630000D02*
X284820000Y-55630000D01*
X284020000Y-124820000D02*
X284010000Y-124810000D01*
%TO.N,/V_SEC_RTN*%
X269180000Y-126940000D02*
X269240000Y-127000000D01*
D57*
X235307500Y-104497500D02*
X234315000Y-103505000D01*
X241495000Y-104497500D02*
X235307500Y-104497500D01*
D58*
X267100000Y-126940000D02*
X269180000Y-126940000D01*
X267100000Y-126940000D02*
X267100000Y-126040000D01*
D57*
X241965000Y-65612500D02*
X241965000Y-62375000D01*
D58*
X273310000Y-131595000D02*
X273310000Y-130550000D01*
X266875000Y-129565800D02*
X266875000Y-128335000D01*
X275300000Y-131585000D02*
X275300000Y-130520000D01*
D57*
X241495000Y-104497500D02*
X241495000Y-101260000D01*
D58*
X267100000Y-127000000D02*
X267100000Y-126940000D01*
D57*
X242444000Y-61896000D02*
X250935000Y-61896000D01*
X237282500Y-65612500D02*
X235585000Y-67310000D01*
D58*
X275290000Y-131595000D02*
X275300000Y-131585000D01*
X275300000Y-130520000D02*
X274320000Y-129540000D01*
X267100000Y-126040000D02*
X266760000Y-125700000D01*
D57*
X241965000Y-65612500D02*
X237282500Y-65612500D01*
X241965000Y-62375000D02*
X242444000Y-61896000D01*
X241974000Y-100781000D02*
X250465000Y-100781000D01*
X241495000Y-101260000D02*
X241974000Y-100781000D01*
D58*
X266760000Y-125700000D02*
X266760000Y-124690000D01*
X267100000Y-128110000D02*
X267100000Y-127000000D01*
X266875000Y-128335000D02*
X267100000Y-128110000D01*
X273310000Y-130550000D02*
X274320000Y-129540000D01*
D57*
%TO.N,Net-(C3-Pad1)*%
X241945000Y-75042500D02*
X241945000Y-71857500D01*
D58*
X241945000Y-71857500D02*
X241965000Y-71837500D01*
D57*
%TO.N,/Main_Converter1/V_POS*%
X267275000Y-76525000D02*
X265294000Y-78506000D01*
X271470000Y-72865000D02*
X270020000Y-71415000D01*
X270020000Y-71415000D02*
X267275000Y-71415000D01*
X265294000Y-78506000D02*
X260535000Y-78506000D01*
X267275000Y-71415000D02*
X267275000Y-76525000D01*
%TO.N,/Main_Converter1/V_RTN*%
X271470000Y-67765000D02*
X270520000Y-68715000D01*
X270520000Y-68715000D02*
X267275000Y-68715000D01*
X265466000Y-61896000D02*
X260535000Y-61896000D01*
X267275000Y-63705000D02*
X265466000Y-61896000D01*
X267275000Y-68715000D02*
X267275000Y-63705000D01*
%TO.N,/P5V*%
X304900000Y-71705000D02*
X307845000Y-71705000D01*
D58*
X304920000Y-71685000D02*
X304900000Y-71705000D01*
X308171600Y-71715000D02*
X308171600Y-74291600D01*
X296885000Y-71702500D02*
X296887500Y-71705000D01*
X308171600Y-74291600D02*
X308175000Y-74295000D01*
D57*
X296887500Y-71705000D02*
X304900000Y-71705000D01*
D58*
X296897500Y-71715000D02*
X296885000Y-71702500D01*
D57*
X296885000Y-75450000D02*
X291770000Y-80565000D01*
D59*
X304920000Y-69662500D02*
X304920000Y-71685000D01*
D57*
X296885000Y-71702500D02*
X296885000Y-75450000D01*
D58*
%TO.N,/P5_TELEM*%
X223512500Y-151475000D02*
X223970000Y-151017500D01*
X305997500Y-172920000D02*
X304377500Y-172920000D01*
X308332400Y-88260000D02*
X305951200Y-88260000D01*
X225987100Y-151017500D02*
X223970000Y-151017500D01*
X222530000Y-151475000D02*
X223512500Y-151475000D01*
X316865000Y-154700000D02*
X315430000Y-154700000D01*
X304377500Y-172920000D02*
X304347500Y-172950000D01*
X316805000Y-138470000D02*
X316805000Y-138545000D01*
X305951200Y-88260000D02*
X305936200Y-88275000D01*
X316805000Y-138545000D02*
X315720000Y-139630000D01*
X259160000Y-139520000D02*
X259150000Y-139510000D01*
X307690000Y-172920000D02*
X305997500Y-172920000D01*
D60*
X260785000Y-139520000D02*
X259160000Y-139520000D01*
D58*
%TO.N,Net-(U2-SET)*%
X232537500Y-151017500D02*
X230609900Y-151017500D01*
X233200000Y-152635000D02*
X233200000Y-151680000D01*
X233250000Y-152685000D02*
X233200000Y-152635000D01*
X233200000Y-151680000D02*
X232537500Y-151017500D01*
X234950000Y-152685000D02*
X233250000Y-152685000D01*
D61*
%TO.N,/Enable_CKT/V3p3*%
X228298500Y-158010000D02*
X228298500Y-151017500D01*
X228298500Y-148119000D02*
X228307500Y-148110000D01*
D58*
X224985000Y-158020000D02*
X228288500Y-158020000D01*
D61*
X228298500Y-158010000D02*
X232430000Y-158010000D01*
D58*
X228288500Y-158020000D02*
X228298500Y-158010000D01*
X234065000Y-159585000D02*
X232920000Y-159585000D01*
D61*
X232890000Y-158470000D02*
X232890000Y-159565000D01*
X232430000Y-158010000D02*
X232890000Y-158470000D01*
D58*
X234419999Y-159939999D02*
X234065000Y-159585000D01*
X235836200Y-159939999D02*
X234419999Y-159939999D01*
D61*
X228298500Y-151017500D02*
X228298500Y-148119000D01*
D57*
%TO.N,Net-(C16-Pad1)*%
X241475000Y-113927500D02*
X241475000Y-110742500D01*
D58*
X241475000Y-110742500D02*
X241495000Y-110722500D01*
D57*
%TO.N,/Main_Converter/V_POS*%
X271000000Y-111750000D02*
X269550000Y-110300000D01*
X266805000Y-110300000D02*
X266805000Y-115410000D01*
X269550000Y-110300000D02*
X266805000Y-110300000D01*
X266805000Y-115410000D02*
X264824000Y-117391000D01*
X264824000Y-117391000D02*
X260065000Y-117391000D01*
%TO.N,/Main_Converter/V_RTN*%
X266805000Y-107600000D02*
X266805000Y-102590000D01*
X264996000Y-100781000D02*
X260065000Y-100781000D01*
X270050000Y-107600000D02*
X266805000Y-107600000D01*
X271000000Y-106650000D02*
X270050000Y-107600000D01*
X266805000Y-102590000D02*
X264996000Y-100781000D01*
D58*
%TO.N,/M5V*%
X307170000Y-111680000D02*
X308061600Y-110788400D01*
X300560000Y-107907500D02*
X300580000Y-107887500D01*
D59*
X300560000Y-112540000D02*
X300560000Y-107907500D01*
D57*
X300580000Y-107887500D02*
X307802500Y-107887500D01*
X296415000Y-107887500D02*
X296415000Y-104165000D01*
D58*
X308061600Y-110788400D02*
X308061600Y-107885000D01*
X306115000Y-111680000D02*
X307170000Y-111680000D01*
D57*
X296415000Y-104165000D02*
X291300000Y-99050000D01*
X296415000Y-107887500D02*
X300580000Y-107887500D01*
D58*
%TO.N,/PM_5V_TELEM_RTN*%
X265940000Y-152335000D02*
X265940000Y-153650000D01*
X273310000Y-133610000D02*
X274320000Y-134620000D01*
X221980000Y-158020000D02*
X221970000Y-158010000D01*
D62*
X290625000Y-164469800D02*
X290625000Y-163315000D01*
D58*
X296117500Y-168780000D02*
X295177500Y-167840000D01*
X273400000Y-133235000D02*
X273310000Y-133145000D01*
X306115000Y-114220000D02*
X304990000Y-114220000D01*
X234950000Y-154980000D02*
X234070000Y-155860000D01*
X235836200Y-160890000D02*
X234465000Y-160890000D01*
X275300000Y-133640000D02*
X274320000Y-134620000D01*
X316915000Y-161940000D02*
X315380000Y-161940000D01*
X294287500Y-169275000D02*
X294287500Y-168730000D01*
X318210000Y-129580000D02*
X318210000Y-128900000D01*
X225607500Y-146592500D02*
X225610000Y-146590000D01*
X265080000Y-142760000D02*
X265020000Y-142760000D01*
X315115000Y-112955000D02*
X315215000Y-113055000D01*
X304990000Y-114220000D02*
X304350000Y-113580000D01*
X294287500Y-168730000D02*
X295177500Y-167840000D01*
X317260002Y-162960002D02*
X317260002Y-164040000D01*
X256710000Y-151330000D02*
X256720000Y-151340000D01*
X257690000Y-151340000D02*
X257960000Y-151610000D01*
X273310000Y-133145000D02*
X273310000Y-133610000D01*
X277830000Y-154350000D02*
X277890000Y-154410000D01*
X312581200Y-93215000D02*
X312581200Y-94710000D01*
X290625000Y-164469800D02*
X292257500Y-164469800D01*
X241689998Y-147930000D02*
X242990000Y-147930000D01*
X318210000Y-128900000D02*
X317959998Y-128649998D01*
X233200000Y-154990000D02*
X234070000Y-155860000D01*
X310047500Y-165960000D02*
X311817500Y-165960000D01*
X223335000Y-158020000D02*
X221980000Y-158020000D01*
X275300000Y-133235000D02*
X275300000Y-133640000D01*
X318210000Y-129580000D02*
X320380000Y-129580000D01*
X306115000Y-112950000D02*
X304980000Y-112950000D01*
X279120000Y-174204800D02*
X279120000Y-175639800D01*
D62*
X290625000Y-163315000D02*
X290585000Y-163275000D01*
D58*
X312665000Y-118190000D02*
X311150000Y-118190000D01*
X281510000Y-157835000D02*
X281510000Y-156450000D01*
X312745000Y-112955000D02*
X315115000Y-112955000D01*
X241689998Y-147245000D02*
X241404997Y-146959999D01*
X279120000Y-175639800D02*
X279110000Y-175649800D01*
X311055000Y-112950000D02*
X312740000Y-112950000D01*
X241689998Y-147930000D02*
X241689998Y-147245000D01*
X317959998Y-128649998D02*
X317959998Y-127450000D01*
X309465000Y-172920000D02*
X311127500Y-172920000D01*
X233200000Y-154285000D02*
X233200000Y-154990000D01*
X234465000Y-160890000D02*
X234220000Y-161135000D01*
X312581200Y-94710000D02*
X312576200Y-94715000D01*
X276300000Y-154350000D02*
X277830000Y-154350000D01*
X241404997Y-146959999D02*
X241404997Y-145745000D01*
X222530000Y-153250000D02*
X222530000Y-154690000D01*
X316915000Y-162615000D02*
X317260002Y-162960002D01*
X255520000Y-151330000D02*
X256710000Y-151330000D01*
X266400000Y-142760000D02*
X265080000Y-142760000D01*
D62*
X290585000Y-163275000D02*
X290585000Y-162360000D01*
D58*
X320380000Y-129580000D02*
X320390000Y-129570000D01*
X316915000Y-161940000D02*
X316915000Y-162615000D01*
X311150000Y-118190000D02*
X311145000Y-118195000D01*
X225607500Y-148110000D02*
X225607500Y-146592500D01*
X256720000Y-151340000D02*
X257690000Y-151340000D01*
X265020000Y-141830000D02*
X265010000Y-141820000D01*
X234950000Y-154235000D02*
X234950000Y-154980000D01*
X312740000Y-112950000D02*
X312745000Y-112955000D01*
X296117500Y-169235000D02*
X296117500Y-168780000D01*
X287585000Y-174319800D02*
X289367500Y-174319800D01*
X304980000Y-112950000D02*
X304350000Y-113580000D01*
X232920000Y-161135000D02*
X234220000Y-161135000D01*
X289367500Y-174319800D02*
X289377500Y-174329800D01*
X265020000Y-142760000D02*
X265020000Y-141830000D01*
%TO.N,/M5_TELEM*%
X285800000Y-174309800D02*
X285810000Y-174319800D01*
X284210000Y-173839800D02*
X284210000Y-172779800D01*
X284210000Y-170890200D02*
X284220000Y-170880200D01*
X284210000Y-172779800D02*
X284210000Y-170890200D01*
X284690000Y-174319800D02*
X284210000Y-173839800D01*
X285810000Y-174319800D02*
X284690000Y-174319800D01*
%TO.N,/Telemetry_CKT/V3p3*%
X315015000Y-114215000D02*
X315215000Y-114015000D01*
D60*
X302036100Y-172950000D02*
X302036100Y-165957500D01*
D58*
X266400000Y-143720000D02*
X265020000Y-143720000D01*
X273680000Y-155300001D02*
X273680000Y-156780000D01*
X264695000Y-145245000D02*
X265020000Y-144920000D01*
X312730000Y-114220000D02*
X312735000Y-114215000D01*
X311055000Y-114220000D02*
X312730000Y-114220000D01*
X262953800Y-145245000D02*
X264695000Y-145245000D01*
X265020000Y-143720000D02*
X265020000Y-144920000D01*
D60*
X307345000Y-165957500D02*
X307347500Y-165960000D01*
X305067500Y-165957500D02*
X307345000Y-165957500D01*
X302036100Y-165957500D02*
X305067500Y-165957500D01*
D58*
X312735000Y-114215000D02*
X315015000Y-114215000D01*
%TO.N,Net-(U7-SET)*%
X296117500Y-170885000D02*
X296117500Y-172400000D01*
X296667500Y-172950000D02*
X299724700Y-172950000D01*
X294287500Y-170825000D02*
X296057500Y-170825000D01*
X296057500Y-170825000D02*
X296117500Y-170885000D01*
X296117500Y-172400000D02*
X296667500Y-172950000D01*
%TO.N,Net-(C31-Pad2)*%
X314595000Y-119750000D02*
X312675000Y-119750000D01*
X312675000Y-119750000D02*
X312665000Y-119740000D01*
X314595000Y-119750000D02*
X314595000Y-121625000D01*
X314595000Y-121625000D02*
X314645000Y-121675000D01*
%TO.N,Net-(U11A-A_OUT)*%
X254570000Y-145390000D02*
X252655000Y-145390000D01*
X252655000Y-145390000D02*
X252645000Y-145380000D01*
X256660000Y-145390000D02*
X254570000Y-145390000D01*
X258026200Y-145245000D02*
X256805000Y-145245000D01*
X256805000Y-145245000D02*
X256660000Y-145390000D01*
%TO.N,Net-(U11A--INA)*%
X256805000Y-146515000D02*
X256640000Y-146350000D01*
X256640000Y-146350000D02*
X254570000Y-146350000D01*
X258026200Y-146515000D02*
X256805000Y-146515000D01*
%TO.N,/Telemetry_CKT/nV3p3*%
X258026200Y-149055000D02*
X255875000Y-149055000D01*
D62*
X284220000Y-166219800D02*
X284220000Y-164479400D01*
X288935000Y-163345000D02*
X288935000Y-162360000D01*
X284220000Y-164479400D02*
X286860000Y-164479800D01*
X286860000Y-164479800D02*
X288840000Y-164479800D01*
X280080400Y-164479400D02*
X279110000Y-165449800D01*
X286520000Y-168519800D02*
X284220000Y-166219800D01*
X286520000Y-170880200D02*
X286520000Y-168519800D01*
D58*
X255520000Y-150370000D02*
X256710000Y-150370000D01*
X255870000Y-149050000D02*
X255520000Y-149400000D01*
X255520000Y-149400000D02*
X255520000Y-150370000D01*
D62*
X288850000Y-163430000D02*
X288935000Y-163345000D01*
X288840000Y-164479800D02*
X288850000Y-164469800D01*
D58*
X256710000Y-150370000D02*
X256720000Y-150380000D01*
D62*
X279110000Y-165449800D02*
X279110000Y-167434800D01*
X284220000Y-164479400D02*
X280080400Y-164479400D01*
D58*
X255875000Y-149055000D02*
X255870000Y-149050000D01*
D62*
X286860000Y-164479800D02*
X286859600Y-164479400D01*
X288850000Y-164469800D02*
X288850000Y-163430000D01*
D58*
%TO.N,Net-(C43-Pad2)*%
X279670000Y-161470000D02*
X279670000Y-159390000D01*
X272875000Y-162540000D02*
X278600000Y-162540000D01*
X279675000Y-159385000D02*
X279670000Y-159390000D01*
X278600000Y-162540000D02*
X279670000Y-161470000D01*
X281510000Y-159385000D02*
X279675000Y-159385000D01*
D59*
%TO.N,Net-(D2-Pad3)*%
X301817500Y-66240000D02*
X304340000Y-66240000D01*
X304920000Y-66820000D02*
X304920000Y-67837500D01*
X304340000Y-66240000D02*
X304920000Y-66820000D01*
D57*
%TO.N,/V_SEC_IN*%
X233072500Y-78505000D02*
X226930000Y-78505000D01*
X232602500Y-117390000D02*
X231055000Y-117390000D01*
X230505000Y-116840000D02*
X227330000Y-116840000D01*
X231055000Y-117390000D02*
X230505000Y-116840000D01*
D58*
X226930000Y-78505000D02*
X226695000Y-78740000D01*
%TO.N,/Enable-*%
X246446000Y-172446000D02*
X246446000Y-172590000D01*
X235836200Y-161840001D02*
X244655000Y-170658801D01*
X244658801Y-170658801D02*
X246446000Y-172446000D01*
X244655000Y-170658801D02*
X244658801Y-170658801D01*
%TO.N,/M5V_V_MON*%
X260520000Y-154485000D02*
X254285000Y-154485000D01*
X253316000Y-155466000D02*
X253316000Y-167510000D01*
X307050000Y-129580000D02*
X316560000Y-129580000D01*
X316560000Y-128860000D02*
X316960000Y-128460000D01*
X253310000Y-167504000D02*
X253316000Y-167510000D01*
X262155000Y-154485000D02*
X262970000Y-155300000D01*
X260520000Y-154485000D02*
X262155000Y-154485000D01*
X316960000Y-128460000D02*
X316960000Y-127450000D01*
X254285000Y-154485000D02*
X253310000Y-155460000D01*
X253310000Y-155460000D02*
X253316000Y-155466000D01*
X316560000Y-129580000D02*
X316560000Y-128860000D01*
%TO.N,/P5V_V_MON*%
X250995000Y-160425000D02*
X250995000Y-167479000D01*
X250995000Y-145380000D02*
X250995000Y-160415000D01*
X251000000Y-160420000D02*
X250995000Y-160425000D01*
X318565000Y-162855000D02*
X318565000Y-161940000D01*
X318560000Y-161935000D02*
X318565000Y-161940000D01*
X318560000Y-160420000D02*
X318560000Y-161935000D01*
X250995000Y-167479000D02*
X251026000Y-167510000D01*
X318260000Y-163160000D02*
X318565000Y-162855000D01*
X250995000Y-160415000D02*
X251000000Y-160420000D01*
X318260000Y-164040000D02*
X318260000Y-163160000D01*
%TO.N,/Enable+*%
X247283500Y-171137500D02*
X248736000Y-172590000D01*
X238223800Y-161840001D02*
X238223800Y-163591204D01*
X245770096Y-171137500D02*
X247283500Y-171137500D01*
X238223800Y-163591204D02*
X245770096Y-171137500D01*
%TO.N,/TEMP_MON*%
X255606000Y-163284000D02*
X255606000Y-167510000D01*
X271325000Y-162540000D02*
X256350000Y-162540000D01*
X256350000Y-162540000D02*
X255606000Y-163284000D01*
%TO.N,/M5V_OUT*%
X333865000Y-115010000D02*
X333865000Y-107913000D01*
X327235000Y-107925000D02*
X327265000Y-107895000D01*
D57*
X327265000Y-107895000D02*
X309435000Y-107895000D01*
D58*
X333865000Y-107913000D02*
X333883000Y-107895000D01*
D57*
X327265000Y-107895000D02*
X333883000Y-107895000D01*
D58*
X309128400Y-110668400D02*
X309128400Y-107885000D01*
X310140000Y-111680000D02*
X309128400Y-110668400D01*
X311055000Y-111680000D02*
X310140000Y-111680000D01*
D57*
%TO.N,/P5V_OUT*%
X327265000Y-71705000D02*
X334010000Y-71705000D01*
X327265000Y-71705000D02*
X309585000Y-71705000D01*
D58*
X326855000Y-72115000D02*
X327265000Y-71705000D01*
X317490000Y-82270000D02*
X317490000Y-81010000D01*
X309238400Y-74301600D02*
X309235000Y-74305000D01*
X309238400Y-71715000D02*
X309238400Y-74301600D01*
%TO.N,Net-(M1-Pad3)*%
X266875000Y-140255000D02*
X266875000Y-135814200D01*
X242690000Y-140830000D02*
X266300000Y-140830000D01*
X266300000Y-140830000D02*
X266875000Y-140255000D01*
X240904998Y-142615002D02*
X242690000Y-140830000D01*
X240904998Y-144395000D02*
X240904998Y-142615002D01*
%TO.N,Net-(M1-Pad1)*%
X240039998Y-147275000D02*
X240404999Y-146909999D01*
X240039998Y-147930000D02*
X240039998Y-147275000D01*
X240404999Y-146909999D02*
X240404999Y-145745000D01*
X240039998Y-147930000D02*
X238259998Y-147930000D01*
X238259998Y-147930000D02*
X238254998Y-147935000D01*
%TO.N,Net-(M2-Pad1)*%
X265760002Y-123990002D02*
X265550000Y-123780000D01*
X265605000Y-129565800D02*
X265605000Y-128365000D01*
X264860000Y-123090000D02*
X264860000Y-122740000D01*
X265550000Y-123780000D02*
X264860000Y-123090000D01*
X265450000Y-126940000D02*
X265450000Y-126060000D01*
X265450000Y-128210000D02*
X265450000Y-126940000D01*
X265760002Y-124690000D02*
X265760002Y-123990002D01*
X265450000Y-126060000D02*
X265760002Y-125749998D01*
X265605000Y-128365000D02*
X265450000Y-128210000D01*
X265760002Y-125749998D02*
X265760002Y-124690000D01*
%TO.N,/Enable_CKT/Enable*%
X266260001Y-122339999D02*
X266760000Y-121840000D01*
X266260001Y-123340000D02*
X266260001Y-122339999D01*
%TO.N,Net-(M3-Pad3)*%
X318190000Y-170200000D02*
X323770201Y-170200000D01*
X323770201Y-170200000D02*
X323780000Y-170190201D01*
X317760001Y-169770001D02*
X318190000Y-170200000D01*
X317760001Y-165390000D02*
X317760001Y-169770001D01*
%TO.N,Net-(M4-Pad3)*%
X317459999Y-123200001D02*
X318270000Y-122390000D01*
X317459999Y-126100000D02*
X317459999Y-123200001D01*
X318270000Y-122390000D02*
X326300000Y-122390000D01*
%TO.N,Net-(P2-Pad1)*%
X318455000Y-138470000D02*
X326219799Y-138470000D01*
X326219799Y-138470000D02*
X326220000Y-138470201D01*
%TO.N,Net-(P3-Pad1)*%
X326070000Y-154700000D02*
X326120000Y-154650000D01*
X318515000Y-154700000D02*
X326070000Y-154700000D01*
%TO.N,Net-(Q1-Pad1)*%
X264390000Y-139520000D02*
X265605000Y-138305000D01*
X262435000Y-139520000D02*
X264390000Y-139520000D01*
X265605000Y-138305000D02*
X265605000Y-135814200D01*
%TO.N,/Enable_CKT/Enable_SIG*%
X238250000Y-151365000D02*
X238250000Y-149589998D01*
X238250000Y-149589998D02*
X238254998Y-149585000D01*
%TO.N,Net-(U3-R)*%
X238223800Y-159939999D02*
X238223800Y-153041200D01*
X238223800Y-153041200D02*
X238250000Y-153015000D01*
%TO.N,Net-(U5-OUT)*%
X311055000Y-115490000D02*
X313310000Y-115490000D01*
X314595000Y-116775000D02*
X314595000Y-118200000D01*
X313310000Y-115490000D02*
X314595000Y-116775000D01*
%TO.N,/Telemetry_CKT/V_TEMP*%
X311031200Y-90520000D02*
X310041200Y-89530000D01*
X276300001Y-153400000D02*
X276300000Y-153399999D01*
X305845000Y-93215000D02*
X305605000Y-93455000D01*
X311031200Y-93215000D02*
X305845000Y-93215000D01*
X277840000Y-153400000D02*
X276300001Y-153400000D01*
X311031200Y-93215000D02*
X311031200Y-90520000D01*
X310041200Y-89530000D02*
X308332400Y-89530000D01*
%TO.N,Net-(U11A-+INA)*%
X254290000Y-148430000D02*
X254935000Y-147785000D01*
X254935000Y-147785000D02*
X258026200Y-147785000D01*
X254290000Y-150690000D02*
X254290000Y-148430000D01*
X317490000Y-83820000D02*
X319420000Y-83820000D01*
X317490000Y-86130000D02*
X317480000Y-86140000D01*
X319420000Y-83820000D02*
X319440000Y-83800000D01*
X317490000Y-83820000D02*
X317490000Y-86130000D01*
%TO.N,Net-(U11B--INB)*%
X332315000Y-115010000D02*
X319270000Y-115010000D01*
X264440000Y-147690000D02*
X265240000Y-147690000D01*
X264345000Y-147785000D02*
X264440000Y-147690000D01*
X266180000Y-148630000D02*
X266990000Y-148630000D01*
X265240000Y-147690000D02*
X266180000Y-148630000D01*
X262953800Y-147785000D02*
X264345000Y-147785000D01*
%TO.N,Net-(U10--IN)*%
X273680000Y-153399999D02*
X273680000Y-152050000D01*
X273680000Y-152050000D02*
X274010000Y-151720000D01*
%TO.N,Net-(U10-OUT)*%
X275210001Y-155300001D02*
X276300000Y-155300001D01*
X275030000Y-151720000D02*
X275030000Y-155120000D01*
X279670000Y-156010000D02*
X278960001Y-155300001D01*
X275030000Y-155120000D02*
X275210001Y-155300001D01*
X278960001Y-155300001D02*
X276300000Y-155300001D01*
X279670000Y-157840000D02*
X279670000Y-156010000D01*
%TO.N,Net-(U11B-+INB)*%
X265940000Y-149760000D02*
X265940000Y-150685000D01*
X262953800Y-149055000D02*
X265235000Y-149055000D01*
X265235000Y-149055000D02*
X265940000Y-149760000D01*
%TO.N,Net-(U9-ADJ)*%
X279110000Y-172544800D02*
X279120000Y-172554800D01*
X279110000Y-169084800D02*
X279110000Y-170829800D01*
X279160400Y-170880200D02*
X279110000Y-170829800D01*
X279110000Y-170829800D02*
X279110000Y-172544800D01*
X281920000Y-170880200D02*
X279160400Y-170880200D01*
%TO.N,Net-(U11B-B_OUT)*%
X260855000Y-146515000D02*
X260850000Y-146510000D01*
X260520000Y-152835000D02*
X260520000Y-151300000D01*
X262953800Y-146515000D02*
X260855000Y-146515000D01*
X260520000Y-151300000D02*
X260530000Y-151290000D01*
X262953800Y-146515000D02*
X264295000Y-146515000D01*
X264450000Y-146670000D02*
X265240000Y-146670000D01*
X264295000Y-146515000D02*
X264450000Y-146670000D01*
D57*
%TO.N,Net-(F1-Pad2)*%
X241945000Y-78505000D02*
X241945000Y-76867500D01*
D58*
X241946000Y-78506000D02*
X241945000Y-78505000D01*
D57*
X250935000Y-78506000D02*
X241946000Y-78506000D01*
X241945000Y-78505000D02*
X235997500Y-78505000D01*
%TO.N,Net-(F2-Pad2)*%
X241475000Y-117390000D02*
X241475000Y-115752500D01*
X250465000Y-117391000D02*
X241476000Y-117391000D01*
D58*
X241476000Y-117391000D02*
X241475000Y-117390000D01*
D57*
X241475000Y-117390000D02*
X235527500Y-117390000D01*
%TD*%
%TA.AperFunction,Conductor*%
%TO.N,/V_SEC_RTN*%
G36*
X237433039Y-65424685D02*
G01*
X237478794Y-65477489D01*
X237490000Y-65529000D01*
X237490000Y-67821000D01*
X237470315Y-67888039D01*
X237417511Y-67933794D01*
X237366000Y-67945000D01*
X233804000Y-67945000D01*
X233736961Y-67925315D01*
X233691206Y-67872511D01*
X233680000Y-67821000D01*
X233680000Y-65529000D01*
X233699685Y-65461961D01*
X233752489Y-65416206D01*
X233804000Y-65405000D01*
X237366000Y-65405000D01*
X237433039Y-65424685D01*
G37*
%TD.AperFunction*%
%TD*%
%TA.AperFunction,Conductor*%
%TO.N,/V_SEC_IN*%
G36*
X229178039Y-114954685D02*
G01*
X229223794Y-115007489D01*
X229235000Y-115059000D01*
X229235000Y-117351000D01*
X229215315Y-117418039D01*
X229162511Y-117463794D01*
X229111000Y-117475000D01*
X225549000Y-117475000D01*
X225481961Y-117455315D01*
X225436206Y-117402511D01*
X225425000Y-117351000D01*
X225425000Y-115059000D01*
X225444685Y-114991961D01*
X225497489Y-114946206D01*
X225549000Y-114935000D01*
X229111000Y-114935000D01*
X229178039Y-114954685D01*
G37*
%TD.AperFunction*%
%TD*%
%TA.AperFunction,Conductor*%
%TO.N,/V_SEC_IN*%
G36*
X229813039Y-76854685D02*
G01*
X229858794Y-76907489D01*
X229870000Y-76959000D01*
X229870000Y-79251000D01*
X229850315Y-79318039D01*
X229797511Y-79363794D01*
X229746000Y-79375000D01*
X226184000Y-79375000D01*
X226116961Y-79355315D01*
X226071206Y-79302511D01*
X226060000Y-79251000D01*
X226060000Y-76959000D01*
X226079685Y-76891961D01*
X226132489Y-76846206D01*
X226184000Y-76835000D01*
X229746000Y-76835000D01*
X229813039Y-76854685D01*
G37*
%TD.AperFunction*%
%TD*%
%TA.AperFunction,Conductor*%
%TO.N,/V_SEC_RTN*%
G36*
X236163039Y-102889685D02*
G01*
X236208794Y-102942489D01*
X236220000Y-102994000D01*
X236220000Y-105286000D01*
X236200315Y-105353039D01*
X236147511Y-105398794D01*
X236096000Y-105410000D01*
X232534000Y-105410000D01*
X232466961Y-105390315D01*
X232421206Y-105337511D01*
X232410000Y-105286000D01*
X232410000Y-102994000D01*
X232429685Y-102926961D01*
X232482489Y-102881206D01*
X232534000Y-102870000D01*
X236096000Y-102870000D01*
X236163039Y-102889685D01*
G37*
%TD.AperFunction*%
%TD*%
%TA.AperFunction,Conductor*%
%TO.N,GNDPWR*%
G36*
X289503039Y-97174685D02*
G01*
X289548794Y-97227489D01*
X289560000Y-97279000D01*
X289560000Y-111760000D01*
X291976000Y-111760000D01*
X292043039Y-111779685D01*
X292088794Y-111832489D01*
X292100000Y-111884000D01*
X292100000Y-115446000D01*
X292080315Y-115513039D01*
X292027511Y-115558794D01*
X291976000Y-115570000D01*
X288925000Y-115570000D01*
X288925000Y-121161000D01*
X288905315Y-121228039D01*
X288852511Y-121273794D01*
X288801000Y-121285000D01*
X270634000Y-121285000D01*
X270566961Y-121265315D01*
X270521206Y-121212511D01*
X270510000Y-121161000D01*
X270510000Y-114424000D01*
X270529685Y-114356961D01*
X270582489Y-114311206D01*
X270634000Y-114300000D01*
X273050000Y-114300000D01*
X273050000Y-97279000D01*
X273069685Y-97211961D01*
X273122489Y-97166206D01*
X273174000Y-97155000D01*
X289436000Y-97155000D01*
X289503039Y-97174685D01*
G37*
%TD.AperFunction*%
%TD*%
%TA.AperFunction,Conductor*%
%TO.N,GNDPWR*%
G36*
X289503039Y-58439685D02*
G01*
X289548794Y-58492489D01*
X289560000Y-58544000D01*
X289560000Y-82426000D01*
X289540315Y-82493039D01*
X289487511Y-82538794D01*
X289436000Y-82550000D01*
X270634000Y-82550000D01*
X270566961Y-82530315D01*
X270521206Y-82477511D01*
X270510000Y-82426000D01*
X270510000Y-75054000D01*
X270529685Y-74986961D01*
X270582489Y-74941206D01*
X270634000Y-74930000D01*
X274320000Y-74930000D01*
X274320000Y-58544000D01*
X274339685Y-58476961D01*
X274392489Y-58431206D01*
X274444000Y-58420000D01*
X289436000Y-58420000D01*
X289503039Y-58439685D01*
G37*
%TD.AperFunction*%
%TD*%
M02*
