%TF.GenerationSoftware,KiCad,Pcbnew,8.0.6*%
%TF.CreationDate,2025-05-16T10:58:21-04:00*%
%TF.ProjectId,3 - Charge_Pre-Amplifier,33202d20-4368-4617-9267-655f5072652d,rev?*%
%TF.SameCoordinates,Original*%
%TF.FileFunction,Copper,L5,Inr*%
%TF.FilePolarity,Positive*%
%FSLAX46Y46*%
G04 Gerber Fmt 4.6, Leading zero omitted, Abs format (unit mm)*
G04 Created by KiCad (PCBNEW 8.0.6) date 2025-05-16 10:58:21*
%MOMM*%
%LPD*%
G01*
G04 APERTURE LIST*
%TA.AperFunction,ComponentPad*%
%ADD10C,2.159000*%
%TD*%
%TA.AperFunction,ComponentPad*%
%ADD11R,2.000000X2.000000*%
%TD*%
%TA.AperFunction,ComponentPad*%
%ADD12C,2.000000*%
%TD*%
%TA.AperFunction,ComponentPad*%
%ADD13C,2.800000*%
%TD*%
%TA.AperFunction,ComponentPad*%
%ADD14C,1.560000*%
%TD*%
%TA.AperFunction,ComponentPad*%
%ADD15C,4.216000*%
%TD*%
%TA.AperFunction,ComponentPad*%
%ADD16C,2.006600*%
%TD*%
%TA.AperFunction,ComponentPad*%
%ADD17C,2.209800*%
%TD*%
%TA.AperFunction,ComponentPad*%
%ADD18C,6.400000*%
%TD*%
%TA.AperFunction,ComponentPad*%
%ADD19C,1.575000*%
%TD*%
%TA.AperFunction,ComponentPad*%
%ADD20C,1.635000*%
%TD*%
%TA.AperFunction,ViaPad*%
%ADD21C,0.600000*%
%TD*%
%TA.AperFunction,ViaPad*%
%ADD22C,1.500000*%
%TD*%
%TA.AperFunction,Conductor*%
%ADD23C,0.500000*%
%TD*%
%TA.AperFunction,Conductor*%
%ADD24C,0.200000*%
%TD*%
%TA.AperFunction,Conductor*%
%ADD25C,0.400000*%
%TD*%
G04 APERTURE END LIST*
D10*
%TO.N,Net-(M3-Pad3)*%
%TO.C,P4*%
X323780000Y-170190201D03*
%TD*%
%TO.N,Net-(P3-Pad1)*%
%TO.C,P3*%
X326120000Y-154650000D03*
%TD*%
%TO.N,Net-(P2-Pad1)*%
%TO.C,P2*%
X326220000Y-138470201D03*
%TD*%
%TO.N,Net-(M4-Pad3)*%
%TO.C,P1*%
X326300000Y-122390000D03*
%TD*%
D11*
%TO.N,/Main_Converter/V_POS*%
%TO.C,U4*%
X271000000Y-111750000D03*
D12*
%TO.N,/Main_Converter/V_RTN*%
X271000000Y-106650000D03*
%TO.N,/PM_5V_RTN*%
X291300000Y-119450000D03*
%TO.N,unconnected-(U4-TRIM-Pad4)*%
X291300000Y-109250000D03*
%TO.N,/M5V*%
X291300000Y-99050000D03*
%TO.N,/Enable_CKT/Enable*%
X271000000Y-99050000D03*
%TD*%
D13*
%TO.N,/PM_5V_TELEM_RTN*%
%TO.C,Telem_RTN1*%
X271750000Y-144770000D03*
%TD*%
D14*
%TO.N,/V_SEC_RTN*%
%TO.C,J1*%
X217755000Y-79935000D03*
X217755000Y-82705000D03*
%TO.N,unconnected-(J1-Pad3)*%
X217755000Y-85475000D03*
%TO.N,/V_SEC_RTN*%
X217755000Y-88245000D03*
X217755000Y-91015000D03*
%TO.N,/V_SEC_IN*%
X214915000Y-81320000D03*
X214915000Y-84090000D03*
X214915000Y-86860000D03*
X214915000Y-89630000D03*
D15*
%TO.N,GNDPWR*%
X216335000Y-72975000D03*
X216335000Y-97975000D03*
%TD*%
D13*
%TO.N,/M5_TELEM*%
%TO.C,-5V1*%
X228660000Y-132080000D03*
%TD*%
D16*
%TO.N,/M5V_OUT*%
%TO.C,J4*%
X333883000Y-107895000D03*
D17*
%TO.N,/PM_5V_RTN*%
X336423000Y-105355000D03*
X331343000Y-105355000D03*
X331343000Y-110435000D03*
X336423000Y-110435000D03*
%TD*%
D18*
%TO.N,GNDPWR*%
%TO.C,H3*%
X333000000Y-90000000D03*
%TD*%
D13*
%TO.N,/P5_TELEM*%
%TO.C,+5V1*%
X228540000Y-167640000D03*
%TD*%
D18*
%TO.N,GNDPWR*%
%TO.C,H1*%
X214000000Y-56000000D03*
%TD*%
%TO.N,GNDPWR*%
%TO.C,H2*%
X333000000Y-56000000D03*
%TD*%
D19*
%TO.N,/TEMP_MON*%
%TO.C,J3*%
X255606000Y-167510000D03*
%TO.N,/M5V_V_MON*%
X253316000Y-167510000D03*
%TO.N,/P5V_V_MON*%
X251026000Y-167510000D03*
%TO.N,/M5V_I_MON*%
X248736000Y-167510000D03*
%TO.N,/P5V_I_MON*%
X246446000Y-167510000D03*
%TO.N,/PM_5V_TELEM_RTN*%
X256751000Y-170050000D03*
X254461000Y-170050000D03*
X252171000Y-170050000D03*
X249881000Y-170050000D03*
X247591000Y-170050000D03*
%TO.N,unconnected-(J3-Pad11)*%
X255606000Y-172590000D03*
%TO.N,unconnected-(J3-Pad12)*%
X253316000Y-172590000D03*
%TO.N,unconnected-(J3-Pad13)*%
X251026000Y-172590000D03*
%TO.N,/Enable+*%
X248736000Y-172590000D03*
%TO.N,/Enable-*%
X246446000Y-172590000D03*
D15*
%TO.N,GNDPWR*%
X238785000Y-170050000D03*
X263775000Y-170050000D03*
%TD*%
D16*
%TO.N,/P5V_OUT*%
%TO.C,J5*%
X334010000Y-71705000D03*
D17*
%TO.N,/PM_5V_RTN*%
X336550000Y-69165000D03*
X331470000Y-69165000D03*
X331470000Y-74245000D03*
X336550000Y-74245000D03*
%TD*%
D13*
%TO.N,/Enable_CKT/Enable*%
%TO.C,V_{EN}1*%
X261320000Y-89620000D03*
%TD*%
D18*
%TO.N,GNDPWR*%
%TO.C,H8*%
X280000000Y-90000000D03*
%TD*%
D20*
%TO.N,/PM_5V_TELEM_RTN*%
%TO.C,J2*%
X217720000Y-150540000D03*
X217720000Y-147770000D03*
%TO.N,unconnected-(J2-Pad3)*%
X217720000Y-145000000D03*
%TO.N,/PM_5V_TELEM_RTN*%
X217720000Y-142230000D03*
X217720000Y-139460000D03*
%TO.N,/P5_TELEM*%
X214880000Y-149155000D03*
X214880000Y-146385000D03*
%TO.N,/M5_TELEM*%
X214880000Y-143615000D03*
X214880000Y-140845000D03*
D15*
%TO.N,GNDPWR*%
X216300000Y-132500000D03*
X216300000Y-157500000D03*
%TD*%
D13*
%TO.N,/V_SEC_IN*%
%TO.C,+12V1*%
X228570000Y-68590000D03*
%TD*%
D18*
%TO.N,GNDPWR*%
%TO.C,H5*%
X280000000Y-144000000D03*
%TD*%
D11*
%TO.N,/Main_Converter1/V_POS*%
%TO.C,U1*%
X271470000Y-72865000D03*
D12*
%TO.N,/Main_Converter1/V_RTN*%
X271470000Y-67765000D03*
%TO.N,/P5V*%
X291770000Y-80565000D03*
%TO.N,unconnected-(U1-TRIM-Pad4)*%
X291770000Y-70365000D03*
%TO.N,/PM_5V_RTN*%
X291770000Y-60165000D03*
%TO.N,/Enable_CKT/Enable*%
X271470000Y-60165000D03*
%TD*%
D13*
%TO.N,/V_SEC_RTN*%
%TO.C,+12V_RTN1*%
X229810000Y-89060000D03*
%TD*%
%TO.N,/PM_5V_RTN*%
%TO.C,+/-5V_{RTN}1*%
X296700000Y-90100000D03*
%TD*%
D18*
%TO.N,GNDPWR*%
%TO.C,H7*%
X333000000Y-174000000D03*
%TD*%
%TO.N,GNDPWR*%
%TO.C,H4*%
X214000000Y-114000000D03*
%TD*%
%TO.N,GNDPWR*%
%TO.C,H9*%
X214000000Y-174000000D03*
%TD*%
D21*
%TO.N,/PM_5V_RTN*%
X289520000Y-55620000D03*
X289080000Y-124820000D03*
X319440000Y-81020000D03*
D22*
%TO.N,GNDPWR*%
X284480000Y-74930000D03*
X279400000Y-111760000D03*
X287020000Y-111760000D03*
X276860000Y-116840000D03*
X284480000Y-111760000D03*
X279400000Y-104140000D03*
X279400000Y-72390000D03*
X281940000Y-111760000D03*
X284480000Y-119380000D03*
X279400000Y-62230000D03*
X274320000Y-114300000D03*
X281940000Y-101600000D03*
X279400000Y-77470000D03*
X274320000Y-106680000D03*
X274320000Y-80010000D03*
X284480000Y-106680000D03*
X276860000Y-106680000D03*
X276860000Y-64770000D03*
X276860000Y-77470000D03*
X281940000Y-59690000D03*
X287020000Y-114300000D03*
X284480000Y-116840000D03*
X284480000Y-109220000D03*
X279400000Y-69850000D03*
X281940000Y-104140000D03*
X284480000Y-77470000D03*
X276860000Y-104140000D03*
X276860000Y-114300000D03*
X276860000Y-59690000D03*
X287020000Y-74930000D03*
X284480000Y-69850000D03*
X276860000Y-101600000D03*
X279400000Y-114300000D03*
X281940000Y-80010000D03*
X284480000Y-80010000D03*
X276860000Y-69850000D03*
X274320000Y-77470000D03*
X287020000Y-104140000D03*
X276860000Y-62230000D03*
X274320000Y-116840000D03*
X274320000Y-109220000D03*
X281940000Y-64770000D03*
X287020000Y-106680000D03*
X287020000Y-80010000D03*
X284480000Y-99060000D03*
X279400000Y-101600000D03*
X279400000Y-106680000D03*
X287020000Y-69850000D03*
X287020000Y-119380000D03*
X284480000Y-101600000D03*
X281940000Y-114300000D03*
X281940000Y-116840000D03*
X279400000Y-59690000D03*
X279400000Y-80010000D03*
X284480000Y-62230000D03*
X276860000Y-72390000D03*
X287020000Y-116840000D03*
X276860000Y-80010000D03*
X274320000Y-104140000D03*
X287020000Y-99060000D03*
X274320000Y-99060000D03*
X281940000Y-109220000D03*
X287020000Y-64770000D03*
X281940000Y-62230000D03*
X274320000Y-101600000D03*
X279400000Y-99060000D03*
X279400000Y-116840000D03*
D21*
X284010000Y-124810000D03*
D22*
X290195000Y-113665000D03*
X287020000Y-62230000D03*
X279400000Y-67310000D03*
X271780000Y-119380000D03*
X281940000Y-67310000D03*
X287020000Y-67310000D03*
X287020000Y-109220000D03*
X284480000Y-59690000D03*
X281940000Y-119380000D03*
X281940000Y-74930000D03*
X276860000Y-74930000D03*
D21*
X284810000Y-55620000D03*
D22*
X279400000Y-109220000D03*
X281940000Y-77470000D03*
X279400000Y-64770000D03*
X281940000Y-69850000D03*
X284480000Y-64770000D03*
X281940000Y-99060000D03*
X281940000Y-72390000D03*
X271780000Y-116840000D03*
X287020000Y-72390000D03*
X284480000Y-72390000D03*
X276860000Y-67310000D03*
X276860000Y-99060000D03*
X276860000Y-119380000D03*
X271780000Y-80010000D03*
X284480000Y-114300000D03*
X281940000Y-106680000D03*
X274320000Y-119380000D03*
X279400000Y-74930000D03*
X279400000Y-119380000D03*
X284480000Y-67310000D03*
X287020000Y-101600000D03*
X287020000Y-77470000D03*
X284480000Y-104140000D03*
X276860000Y-109220000D03*
X276860000Y-111760000D03*
X271780000Y-77470000D03*
X274320000Y-111760000D03*
X287020000Y-59690000D03*
D21*
%TO.N,/V_SEC_RTN*%
X276860000Y-93980000D03*
X320040000Y-63500000D03*
X299720000Y-81280000D03*
X269240000Y-127000000D03*
X297180000Y-53340000D03*
X233680000Y-60960000D03*
X236220000Y-60960000D03*
X220980000Y-93980000D03*
X246380000Y-86360000D03*
X236220000Y-119380000D03*
X223520000Y-60960000D03*
X226060000Y-119380000D03*
X302260000Y-53340000D03*
X284480000Y-83820000D03*
X238760000Y-127000000D03*
X327660000Y-55880000D03*
X238760000Y-91440000D03*
X233045000Y-103505000D03*
X233680000Y-53340000D03*
X236220000Y-101600000D03*
X314960000Y-53340000D03*
X213360000Y-121920000D03*
X325120000Y-111760000D03*
X235585000Y-67310000D03*
X231140000Y-93980000D03*
X325120000Y-101600000D03*
X213360000Y-104140000D03*
X261620000Y-127000000D03*
X317500000Y-63500000D03*
X241300000Y-53340000D03*
X287020000Y-53340000D03*
X281940000Y-129540000D03*
X218440000Y-104140000D03*
X307340000Y-121920000D03*
X215900000Y-63500000D03*
X325120000Y-88900000D03*
X215900000Y-109220000D03*
X248920000Y-53340000D03*
X226060000Y-55880000D03*
X226060000Y-60960000D03*
X309880000Y-101600000D03*
X236220000Y-86360000D03*
X264160000Y-91440000D03*
X332740000Y-60960000D03*
X314960000Y-109220000D03*
X223520000Y-83820000D03*
X241300000Y-99060000D03*
X299720000Y-93980000D03*
X220980000Y-68580000D03*
X325120000Y-93980000D03*
X320040000Y-106680000D03*
X220980000Y-111760000D03*
X327660000Y-99060000D03*
X233680000Y-83820000D03*
X228600000Y-60960000D03*
X297180000Y-60960000D03*
X243840000Y-53340000D03*
X297180000Y-101600000D03*
X241300000Y-127000000D03*
X210820000Y-60960000D03*
X271780000Y-55880000D03*
X289560000Y-127000000D03*
X309880000Y-121920000D03*
X210820000Y-66040000D03*
X294640000Y-83820000D03*
X284480000Y-129540000D03*
X223520000Y-104140000D03*
X327660000Y-111760000D03*
X236220000Y-109220000D03*
X256540000Y-53340000D03*
X325120000Y-99060000D03*
X312420000Y-68580000D03*
X238760000Y-60960000D03*
X226060000Y-83820000D03*
X299720000Y-86360000D03*
X220980000Y-71120000D03*
X294640000Y-55880000D03*
X231140000Y-71120000D03*
X309880000Y-127000000D03*
X325120000Y-109220000D03*
X220980000Y-66040000D03*
X299720000Y-76200000D03*
X320040000Y-101600000D03*
X213360000Y-119380000D03*
X231140000Y-86360000D03*
X236220000Y-63500000D03*
X294640000Y-127000000D03*
X325120000Y-63500000D03*
X231140000Y-104140000D03*
X266700000Y-60960000D03*
X231140000Y-119380000D03*
X231140000Y-101600000D03*
X223520000Y-73660000D03*
X223520000Y-93980000D03*
X320040000Y-99060000D03*
X236220000Y-88900000D03*
X289560000Y-83820000D03*
X226060000Y-109220000D03*
X309880000Y-53340000D03*
X274320000Y-83820000D03*
X234315000Y-103505000D03*
X327660000Y-104140000D03*
X279400000Y-127000000D03*
X241300000Y-55880000D03*
X292100000Y-88900000D03*
X281940000Y-124460000D03*
X223520000Y-109220000D03*
X228600000Y-86360000D03*
X264160000Y-96520000D03*
X241300000Y-88900000D03*
X236220000Y-73660000D03*
X312420000Y-63500000D03*
X256540000Y-129540000D03*
X231140000Y-53340000D03*
X325120000Y-86360000D03*
X292100000Y-55880000D03*
X223520000Y-63500000D03*
X231140000Y-58420000D03*
X271780000Y-83820000D03*
X325120000Y-55880000D03*
X235585000Y-66040000D03*
X281940000Y-127000000D03*
X322580000Y-111760000D03*
X226060000Y-86360000D03*
X264160000Y-111760000D03*
X327660000Y-109220000D03*
X215900000Y-121920000D03*
X274320000Y-127000000D03*
X220980000Y-101600000D03*
X231140000Y-83820000D03*
X259080000Y-109220000D03*
X251460000Y-129540000D03*
X320040000Y-93980000D03*
X215900000Y-106680000D03*
X238760000Y-86360000D03*
X220980000Y-109220000D03*
X271780000Y-129540000D03*
X251460000Y-127000000D03*
X226060000Y-73660000D03*
X228600000Y-55880000D03*
X320040000Y-68580000D03*
X299720000Y-124460000D03*
X228600000Y-96520000D03*
X309880000Y-96520000D03*
X297180000Y-116840000D03*
X218440000Y-109220000D03*
X220980000Y-116840000D03*
X213360000Y-66040000D03*
X220980000Y-119380000D03*
X307340000Y-104140000D03*
X248920000Y-88900000D03*
X220980000Y-73660000D03*
X292100000Y-93980000D03*
X236220000Y-58420000D03*
X309880000Y-104140000D03*
X276860000Y-86360000D03*
X228600000Y-99060000D03*
X299720000Y-53340000D03*
X304800000Y-53340000D03*
X228600000Y-106680000D03*
X284480000Y-91440000D03*
X238760000Y-129540000D03*
X233680000Y-109220000D03*
X223520000Y-53340000D03*
X294640000Y-124460000D03*
X297180000Y-96520000D03*
X322580000Y-63500000D03*
X243840000Y-96520000D03*
X312420000Y-127000000D03*
X297180000Y-127000000D03*
X223520000Y-88900000D03*
X314960000Y-104140000D03*
X264160000Y-58420000D03*
X233680000Y-96520000D03*
X243840000Y-83820000D03*
X292100000Y-124460000D03*
X223520000Y-81280000D03*
X320040000Y-76200000D03*
X226060000Y-91440000D03*
X238760000Y-58420000D03*
X210820000Y-106680000D03*
X287020000Y-91440000D03*
X236220000Y-71120000D03*
X279400000Y-129540000D03*
X241300000Y-121920000D03*
X274320000Y-93980000D03*
X327660000Y-93980000D03*
X226060000Y-99060000D03*
X238760000Y-99060000D03*
X299720000Y-127000000D03*
X246380000Y-96520000D03*
X307340000Y-101600000D03*
X289560000Y-129540000D03*
X269240000Y-53340000D03*
X233680000Y-101600000D03*
X312420000Y-101600000D03*
X322580000Y-104140000D03*
X292100000Y-127000000D03*
X236220000Y-99060000D03*
X246380000Y-58420000D03*
X215900000Y-60960000D03*
X246380000Y-111760000D03*
X292100000Y-83820000D03*
X248920000Y-109220000D03*
X231140000Y-99060000D03*
X243840000Y-58420000D03*
X223520000Y-58420000D03*
X228600000Y-119380000D03*
X332740000Y-63500000D03*
X213360000Y-109220000D03*
X243840000Y-127000000D03*
X264160000Y-55880000D03*
X246380000Y-127000000D03*
X231140000Y-114300000D03*
X228600000Y-53340000D03*
X325120000Y-68580000D03*
X231140000Y-73660000D03*
X325120000Y-53340000D03*
X218440000Y-53340000D03*
X307340000Y-124460000D03*
X327660000Y-66040000D03*
X294640000Y-93980000D03*
X299720000Y-121920000D03*
X210820000Y-119380000D03*
X281940000Y-83820000D03*
X236220000Y-96520000D03*
X322580000Y-99060000D03*
X241300000Y-129540000D03*
X236220000Y-53340000D03*
X302260000Y-55880000D03*
X304800000Y-63500000D03*
X243840000Y-55880000D03*
X279400000Y-55880000D03*
X274320000Y-53340000D03*
X256540000Y-86360000D03*
X246380000Y-71120000D03*
X238760000Y-53340000D03*
X238760000Y-83820000D03*
X261620000Y-53340000D03*
X264160000Y-53340000D03*
X218440000Y-111760000D03*
X287020000Y-88900000D03*
X294640000Y-96520000D03*
X220980000Y-60960000D03*
X266700000Y-88900000D03*
X281940000Y-55880000D03*
X259080000Y-129540000D03*
X276860000Y-127000000D03*
X264160000Y-114300000D03*
X251460000Y-109220000D03*
X330200000Y-63500000D03*
X264160000Y-66040000D03*
X220980000Y-114300000D03*
X284480000Y-93980000D03*
X246380000Y-109220000D03*
X335280000Y-60960000D03*
X317500000Y-78740000D03*
X220980000Y-121920000D03*
X325120000Y-73660000D03*
X307340000Y-63500000D03*
X276860000Y-124460000D03*
X297180000Y-124460000D03*
X233680000Y-71120000D03*
X256540000Y-109220000D03*
X226060000Y-96520000D03*
X248920000Y-127000000D03*
X243840000Y-86360000D03*
X261620000Y-109220000D03*
X320040000Y-111760000D03*
X327660000Y-88900000D03*
X254000000Y-71120000D03*
X254000000Y-53340000D03*
X218440000Y-121920000D03*
X309880000Y-63500000D03*
X309880000Y-68580000D03*
X274320000Y-129540000D03*
X254000000Y-91440000D03*
X332740000Y-66040000D03*
X218440000Y-58420000D03*
X226060000Y-101600000D03*
X235585000Y-103505000D03*
X325120000Y-83820000D03*
X266700000Y-99060000D03*
X312420000Y-106680000D03*
X314960000Y-78740000D03*
X266700000Y-86360000D03*
X307340000Y-96520000D03*
X246380000Y-99060000D03*
X271780000Y-127000000D03*
X320040000Y-104140000D03*
X215900000Y-68580000D03*
X314960000Y-68580000D03*
X307340000Y-119380000D03*
X223520000Y-66040000D03*
X210820000Y-63500000D03*
X312420000Y-99060000D03*
X231140000Y-66040000D03*
X243840000Y-91440000D03*
X264160000Y-93980000D03*
X243840000Y-124460000D03*
X246380000Y-104140000D03*
X236855000Y-66040000D03*
X223520000Y-71120000D03*
X297180000Y-83820000D03*
X223520000Y-111760000D03*
X322580000Y-68580000D03*
X220980000Y-106680000D03*
X236220000Y-106680000D03*
X292100000Y-91440000D03*
X287020000Y-129540000D03*
X322580000Y-88900000D03*
X325120000Y-96520000D03*
X215900000Y-66040000D03*
X243840000Y-129540000D03*
X234315000Y-104775000D03*
X317500000Y-73660000D03*
X332740000Y-83820000D03*
X228600000Y-93980000D03*
X233680000Y-111760000D03*
X266700000Y-91440000D03*
X226060000Y-58420000D03*
X231140000Y-96520000D03*
X254000000Y-129540000D03*
X271780000Y-86360000D03*
X246380000Y-129540000D03*
X251460000Y-71120000D03*
X259080000Y-71120000D03*
X294640000Y-129540000D03*
X299720000Y-96520000D03*
X246380000Y-53340000D03*
X223520000Y-55880000D03*
X307340000Y-127000000D03*
X254000000Y-109220000D03*
X256540000Y-71120000D03*
X241300000Y-119380000D03*
X231140000Y-109220000D03*
X264160000Y-76200000D03*
X327660000Y-86360000D03*
X241300000Y-83820000D03*
X228600000Y-104140000D03*
X233680000Y-88900000D03*
X246380000Y-83820000D03*
X314960000Y-63500000D03*
X226060000Y-121920000D03*
X220980000Y-55880000D03*
X322580000Y-73660000D03*
X218440000Y-106680000D03*
X243840000Y-99060000D03*
X266700000Y-58420000D03*
X241300000Y-96520000D03*
X231140000Y-106680000D03*
X274320000Y-91440000D03*
X320040000Y-66040000D03*
X327660000Y-83820000D03*
X246380000Y-93980000D03*
X228600000Y-111760000D03*
X220980000Y-99060000D03*
X264160000Y-88900000D03*
X299720000Y-101600000D03*
X233680000Y-106680000D03*
X256540000Y-127000000D03*
X312420000Y-104140000D03*
X299720000Y-91440000D03*
X228600000Y-58420000D03*
X327660000Y-96520000D03*
X238760000Y-124460000D03*
X304800000Y-58420000D03*
X314960000Y-106680000D03*
X233680000Y-121920000D03*
X322580000Y-66040000D03*
X264160000Y-81280000D03*
X233680000Y-58420000D03*
X271780000Y-91440000D03*
X213360000Y-60960000D03*
X314960000Y-99060000D03*
X238760000Y-93980000D03*
X312420000Y-109220000D03*
X231140000Y-63500000D03*
X236220000Y-121920000D03*
X254000000Y-127000000D03*
X236220000Y-93980000D03*
X220980000Y-96520000D03*
X220980000Y-104140000D03*
X276860000Y-53340000D03*
X327660000Y-106680000D03*
X236220000Y-114300000D03*
X299720000Y-55880000D03*
X279400000Y-53340000D03*
X317500000Y-68580000D03*
X322580000Y-96520000D03*
X243840000Y-114300000D03*
X246380000Y-114300000D03*
X320040000Y-86360000D03*
X314960000Y-96520000D03*
X330200000Y-60960000D03*
X259080000Y-127000000D03*
X297180000Y-63500000D03*
X299720000Y-83820000D03*
X297180000Y-93980000D03*
X223520000Y-119380000D03*
X220980000Y-63500000D03*
X228600000Y-121920000D03*
X226060000Y-66040000D03*
X264160000Y-73660000D03*
X294640000Y-86360000D03*
X327660000Y-76200000D03*
X210820000Y-104140000D03*
X327660000Y-58420000D03*
X307340000Y-99060000D03*
X327660000Y-73660000D03*
X335280000Y-63500000D03*
X223520000Y-101600000D03*
X251460000Y-86360000D03*
X228600000Y-81280000D03*
X238760000Y-88900000D03*
X223520000Y-68580000D03*
X276860000Y-83820000D03*
X251460000Y-53340000D03*
X314960000Y-76200000D03*
X327660000Y-114300000D03*
X233680000Y-91440000D03*
X279400000Y-124460000D03*
X322580000Y-106680000D03*
X294640000Y-121920000D03*
X233680000Y-63500000D03*
X243840000Y-88900000D03*
X241300000Y-124460000D03*
X233680000Y-73660000D03*
X309880000Y-99060000D03*
X226060000Y-81280000D03*
X287020000Y-86360000D03*
X266700000Y-83820000D03*
X287020000Y-83820000D03*
X325120000Y-91440000D03*
X299720000Y-63500000D03*
X236220000Y-91440000D03*
X223520000Y-76200000D03*
X299720000Y-129540000D03*
X292100000Y-129540000D03*
X327660000Y-63500000D03*
X322580000Y-86360000D03*
X231140000Y-55880000D03*
X231140000Y-60960000D03*
X223520000Y-86360000D03*
X327660000Y-53340000D03*
X276860000Y-129540000D03*
X307340000Y-68580000D03*
X284480000Y-127000000D03*
X243840000Y-121920000D03*
X322580000Y-91440000D03*
X327660000Y-60960000D03*
X299720000Y-104140000D03*
X307340000Y-66040000D03*
X274320000Y-86360000D03*
X213360000Y-106680000D03*
X251460000Y-91440000D03*
X254000000Y-86360000D03*
X238760000Y-114300000D03*
X223520000Y-121920000D03*
X302260000Y-58420000D03*
X233045000Y-104775000D03*
X233680000Y-86360000D03*
X325120000Y-66040000D03*
X322580000Y-53340000D03*
X233680000Y-93980000D03*
X218440000Y-116840000D03*
X320040000Y-96520000D03*
X327660000Y-91440000D03*
X309880000Y-124460000D03*
X299720000Y-58420000D03*
X218440000Y-60960000D03*
X218440000Y-114300000D03*
X302260000Y-63500000D03*
X289560000Y-53340000D03*
X330200000Y-66040000D03*
X228600000Y-63500000D03*
X226060000Y-111760000D03*
X223520000Y-78740000D03*
X246380000Y-91440000D03*
X215900000Y-104140000D03*
X325120000Y-60960000D03*
X246380000Y-55880000D03*
X226060000Y-53340000D03*
X299720000Y-60960000D03*
X233680000Y-114300000D03*
X226060000Y-104140000D03*
X304800000Y-60960000D03*
X231140000Y-121920000D03*
X236220000Y-55880000D03*
X238760000Y-55880000D03*
X325120000Y-106680000D03*
X299720000Y-73660000D03*
X223520000Y-91440000D03*
X320040000Y-109220000D03*
X238760000Y-96520000D03*
X248920000Y-91440000D03*
X241300000Y-93980000D03*
X297180000Y-55880000D03*
X312420000Y-53340000D03*
X236220000Y-111760000D03*
X210820000Y-109220000D03*
X228600000Y-73660000D03*
X312420000Y-124460000D03*
X314960000Y-73660000D03*
X330200000Y-83820000D03*
X210820000Y-121920000D03*
X302260000Y-60960000D03*
X289560000Y-93980000D03*
X238760000Y-119380000D03*
X243840000Y-93980000D03*
X259080000Y-91440000D03*
X220980000Y-53340000D03*
X325120000Y-114300000D03*
X220980000Y-58420000D03*
X228600000Y-83820000D03*
X223520000Y-114300000D03*
X312420000Y-73660000D03*
X322580000Y-109220000D03*
X297180000Y-78740000D03*
X218440000Y-68580000D03*
X266700000Y-81280000D03*
X327660000Y-68580000D03*
X284480000Y-53340000D03*
X304800000Y-55880000D03*
X228600000Y-101600000D03*
X256540000Y-91440000D03*
X317500000Y-53340000D03*
X220980000Y-76200000D03*
X236220000Y-83820000D03*
X241300000Y-91440000D03*
X234315000Y-67310000D03*
X238760000Y-63500000D03*
X226060000Y-93980000D03*
X287020000Y-93980000D03*
X256540000Y-88900000D03*
X254000000Y-88900000D03*
X325120000Y-76200000D03*
X246380000Y-88900000D03*
X226060000Y-88900000D03*
X299720000Y-88900000D03*
X226060000Y-106680000D03*
X320040000Y-53340000D03*
X226060000Y-71120000D03*
X322580000Y-101600000D03*
X223520000Y-106680000D03*
X281940000Y-53340000D03*
X322580000Y-76200000D03*
X248920000Y-86360000D03*
X320040000Y-88900000D03*
X266700000Y-96520000D03*
X307340000Y-53340000D03*
X231140000Y-111760000D03*
X322580000Y-83820000D03*
X269240000Y-55880000D03*
X320040000Y-91440000D03*
X228600000Y-109220000D03*
X299720000Y-78740000D03*
X218440000Y-66040000D03*
X325120000Y-58420000D03*
X261620000Y-71120000D03*
X294640000Y-53340000D03*
X223520000Y-116840000D03*
X238760000Y-101600000D03*
X246380000Y-106680000D03*
X309880000Y-66040000D03*
X292100000Y-53340000D03*
X294640000Y-99060000D03*
X335280000Y-66040000D03*
X297180000Y-81280000D03*
X226060000Y-63500000D03*
X261620000Y-129540000D03*
X264160000Y-63500000D03*
X320040000Y-73660000D03*
X271780000Y-124460000D03*
X236855000Y-67310000D03*
X274320000Y-55880000D03*
X289560000Y-88900000D03*
X218440000Y-63500000D03*
X264160000Y-83820000D03*
X271780000Y-93980000D03*
X223520000Y-99060000D03*
X276860000Y-55880000D03*
X251460000Y-88900000D03*
X259080000Y-53340000D03*
X234315000Y-66040000D03*
X266700000Y-93980000D03*
X287020000Y-127000000D03*
X274320000Y-88900000D03*
X248920000Y-129540000D03*
X233680000Y-99060000D03*
X330200000Y-86360000D03*
X210820000Y-68580000D03*
X218440000Y-119380000D03*
X279400000Y-83820000D03*
X266700000Y-53340000D03*
X297180000Y-86360000D03*
X289560000Y-91440000D03*
X289560000Y-86360000D03*
X213360000Y-63500000D03*
X241300000Y-58420000D03*
X238760000Y-121920000D03*
X299720000Y-99060000D03*
X314960000Y-101600000D03*
X325120000Y-104140000D03*
X274320000Y-124460000D03*
X297180000Y-121920000D03*
X218440000Y-55880000D03*
X213360000Y-68580000D03*
X317500000Y-76200000D03*
X284480000Y-88900000D03*
X233680000Y-119380000D03*
X297180000Y-58420000D03*
X266700000Y-55880000D03*
X312420000Y-96520000D03*
X327660000Y-101600000D03*
X322580000Y-93980000D03*
X284480000Y-86360000D03*
X241300000Y-86360000D03*
X235585000Y-104775000D03*
X215900000Y-119380000D03*
X292100000Y-86360000D03*
X223520000Y-96520000D03*
X271780000Y-88900000D03*
X322580000Y-114300000D03*
X271780000Y-53340000D03*
X297180000Y-129540000D03*
X281940000Y-93980000D03*
X233680000Y-55880000D03*
X297180000Y-99060000D03*
X248920000Y-71120000D03*
%TO.N,/P5V*%
X308175000Y-74295000D03*
%TO.N,/P5_TELEM*%
X259150000Y-139510000D03*
X305997500Y-172920000D03*
X315430000Y-154700000D03*
X223970000Y-151017500D03*
X305936200Y-88275000D03*
X224270000Y-139530000D03*
X315720000Y-139630000D03*
X303720000Y-139470000D03*
%TO.N,/M5V*%
X300560000Y-112540000D03*
%TO.N,/PM_5V_TELEM_RTN*%
X269240000Y-168910000D03*
X264160000Y-163830000D03*
X220980000Y-129540000D03*
X247650000Y-157480000D03*
X299720000Y-142240000D03*
X261620000Y-163830000D03*
X233680000Y-175260000D03*
X231140000Y-170180000D03*
X297180000Y-157480000D03*
X330200000Y-147320000D03*
X312420000Y-162560000D03*
X297180000Y-162560000D03*
X314960000Y-175260000D03*
X265940000Y-153650000D03*
X247650000Y-152400000D03*
X274320000Y-161290000D03*
X332740000Y-149860000D03*
X233680000Y-134620000D03*
X231140000Y-134620000D03*
X297180000Y-144780000D03*
X276860000Y-137160000D03*
X231140000Y-147320000D03*
X274320000Y-147320000D03*
X223520000Y-177800000D03*
X228600000Y-172720000D03*
X299720000Y-147320000D03*
X247650000Y-142240000D03*
X252730000Y-152400000D03*
X335280000Y-129540000D03*
X307340000Y-175260000D03*
X335280000Y-162560000D03*
X297180000Y-147320000D03*
X335280000Y-119380000D03*
X213360000Y-127000000D03*
X233680000Y-142240000D03*
X304800000Y-162560000D03*
X238760000Y-134620000D03*
X215900000Y-162560000D03*
X322580000Y-132080000D03*
X250190000Y-162560000D03*
X271780000Y-137160000D03*
X250190000Y-142240000D03*
X302260000Y-144780000D03*
X274320000Y-166370000D03*
X231140000Y-175260000D03*
X335280000Y-157480000D03*
X320040000Y-127000000D03*
X309880000Y-152400000D03*
X327660000Y-144780000D03*
X304800000Y-175260000D03*
X247650000Y-147320000D03*
X302260000Y-147320000D03*
X279110000Y-175649800D03*
X269240000Y-176530000D03*
X335280000Y-165100000D03*
X252730000Y-154940000D03*
X309880000Y-157480000D03*
X271780000Y-171450000D03*
X220980000Y-134620000D03*
X284480000Y-147320000D03*
X312420000Y-134620000D03*
X236220000Y-149860000D03*
X332740000Y-121920000D03*
X236220000Y-134620000D03*
X325120000Y-144780000D03*
X299720000Y-137160000D03*
X302260000Y-157480000D03*
X312420000Y-137160000D03*
X218440000Y-172720000D03*
X231140000Y-142240000D03*
X261620000Y-157480000D03*
X271780000Y-166370000D03*
X269240000Y-147320000D03*
X236220000Y-144780000D03*
X332740000Y-119380000D03*
X238760000Y-144780000D03*
X294640000Y-157480000D03*
X231140000Y-137160000D03*
X269240000Y-157480000D03*
X277890000Y-154410000D03*
X228600000Y-127000000D03*
X226060000Y-175260000D03*
X236220000Y-147320000D03*
X332740000Y-139700000D03*
X264160000Y-157480000D03*
X221970000Y-158010000D03*
X266700000Y-161290000D03*
X269240000Y-161290000D03*
X315380000Y-161940000D03*
X335280000Y-142240000D03*
X335280000Y-127000000D03*
X241300000Y-162560000D03*
X247650000Y-144780000D03*
X299720000Y-134620000D03*
X228600000Y-160020000D03*
X269240000Y-137160000D03*
X226060000Y-144780000D03*
X257960000Y-151610000D03*
X261620000Y-134620000D03*
X335280000Y-149860000D03*
X335280000Y-124460000D03*
X218440000Y-127000000D03*
X312420000Y-157480000D03*
X281510000Y-156450000D03*
X256540000Y-134620000D03*
X243840000Y-142240000D03*
X226060000Y-165100000D03*
X247650000Y-162560000D03*
X276860000Y-166370000D03*
X312420000Y-147320000D03*
X274320000Y-173990000D03*
X287020000Y-147320000D03*
X332740000Y-167640000D03*
X294640000Y-142240000D03*
X332740000Y-137160000D03*
X241300000Y-137160000D03*
X243840000Y-152400000D03*
X327660000Y-132080000D03*
X297180000Y-137160000D03*
X274320000Y-142240000D03*
X256540000Y-137160000D03*
X266700000Y-144780000D03*
X233680000Y-172720000D03*
X251460000Y-134620000D03*
X231140000Y-160020000D03*
X304800000Y-142240000D03*
X327660000Y-147320000D03*
X218440000Y-162560000D03*
X309880000Y-175260000D03*
X271780000Y-134620000D03*
X305445000Y-81840000D03*
X320390000Y-129570000D03*
X325120000Y-132080000D03*
X215900000Y-127000000D03*
X327660000Y-129540000D03*
X332740000Y-134620000D03*
X250190000Y-154940000D03*
X233680000Y-132080000D03*
X289560000Y-144780000D03*
X274320000Y-137160000D03*
X234070000Y-155860000D03*
X302260000Y-175260000D03*
X250190000Y-152400000D03*
X289560000Y-137160000D03*
X271780000Y-147320000D03*
X274320000Y-176530000D03*
X294640000Y-144780000D03*
X289560000Y-147320000D03*
X322580000Y-162560000D03*
X234220000Y-161135000D03*
X322580000Y-144780000D03*
X220980000Y-132080000D03*
X231140000Y-127000000D03*
X250190000Y-147320000D03*
X297180000Y-142240000D03*
X271780000Y-176530000D03*
X243840000Y-134620000D03*
X220980000Y-167640000D03*
X292257500Y-164469800D03*
X311127500Y-172920000D03*
X223520000Y-129540000D03*
X243840000Y-137160000D03*
X332740000Y-127000000D03*
X312420000Y-144780000D03*
X276860000Y-163830000D03*
X335280000Y-134620000D03*
X335280000Y-167640000D03*
X311817500Y-165960000D03*
X233680000Y-144780000D03*
X292100000Y-157480000D03*
X254000000Y-134620000D03*
X269240000Y-173990000D03*
X335280000Y-147320000D03*
X335280000Y-152400000D03*
X266700000Y-157480000D03*
X312745000Y-112955000D03*
X220980000Y-177800000D03*
X287020000Y-142240000D03*
X241300000Y-154940000D03*
X320040000Y-119380000D03*
X226060000Y-129540000D03*
X327660000Y-162560000D03*
X261620000Y-161290000D03*
X289560000Y-157480000D03*
X269240000Y-166370000D03*
X250190000Y-157480000D03*
X220980000Y-175260000D03*
X241300000Y-149860000D03*
X236220000Y-137160000D03*
X233680000Y-167640000D03*
X241300000Y-134620000D03*
X332740000Y-154940000D03*
X287020000Y-137160000D03*
X223520000Y-170180000D03*
X289377500Y-174329800D03*
X223520000Y-162560000D03*
X294640000Y-162560000D03*
X312420000Y-142240000D03*
X276860000Y-134620000D03*
X243840000Y-160020000D03*
X226060000Y-172720000D03*
X332740000Y-144780000D03*
X261620000Y-137160000D03*
X228600000Y-175260000D03*
X247650000Y-149860000D03*
X210820000Y-167640000D03*
X287020000Y-144780000D03*
X325120000Y-129540000D03*
X218440000Y-167640000D03*
X236220000Y-142240000D03*
X233680000Y-127000000D03*
X322580000Y-147320000D03*
X233680000Y-170180000D03*
X254000000Y-137160000D03*
X332740000Y-157480000D03*
X294640000Y-134620000D03*
X238760000Y-137160000D03*
X241300000Y-157480000D03*
X250190000Y-149860000D03*
X247650000Y-154940000D03*
X243840000Y-162560000D03*
X274320000Y-163830000D03*
X226060000Y-170180000D03*
X220980000Y-137160000D03*
X276860000Y-173990000D03*
X292100000Y-142240000D03*
X215900000Y-165100000D03*
X220980000Y-170180000D03*
X297180000Y-134620000D03*
X223520000Y-127000000D03*
X287020000Y-134620000D03*
X284480000Y-134620000D03*
X265010000Y-141820000D03*
X276860000Y-168910000D03*
X292100000Y-134620000D03*
X225610000Y-146590000D03*
X332740000Y-152400000D03*
X289560000Y-142240000D03*
X297180000Y-175260000D03*
X243840000Y-149860000D03*
X210820000Y-127000000D03*
X312420000Y-152400000D03*
X335280000Y-139700000D03*
X289560000Y-134620000D03*
X332740000Y-124460000D03*
X325120000Y-162560000D03*
X309880000Y-147320000D03*
X313365000Y-77415000D03*
X269240000Y-171450000D03*
X252730000Y-147320000D03*
X223520000Y-160020000D03*
X259080000Y-161290000D03*
X292100000Y-147320000D03*
X210820000Y-170180000D03*
X231140000Y-144780000D03*
X292100000Y-144780000D03*
X213360000Y-167640000D03*
X332740000Y-147320000D03*
X243840000Y-154940000D03*
X233680000Y-137160000D03*
X242990000Y-147930000D03*
X243840000Y-144780000D03*
X241300000Y-152400000D03*
X312420000Y-154940000D03*
X218440000Y-165100000D03*
X330200000Y-144780000D03*
X309880000Y-162560000D03*
X284480000Y-144780000D03*
X271780000Y-173990000D03*
X271780000Y-168910000D03*
X335280000Y-121920000D03*
X233680000Y-147320000D03*
X210820000Y-165100000D03*
X259080000Y-134620000D03*
X222530000Y-154690000D03*
X264160000Y-161290000D03*
X320040000Y-124460000D03*
X294640000Y-137160000D03*
X292100000Y-137160000D03*
X325120000Y-147320000D03*
X302260000Y-162560000D03*
X335280000Y-137160000D03*
X304350000Y-113580000D03*
X269240000Y-163830000D03*
X274320000Y-134620000D03*
X231140000Y-129540000D03*
X228600000Y-162560000D03*
X251460000Y-137160000D03*
X243840000Y-157480000D03*
X220980000Y-127000000D03*
X335280000Y-160020000D03*
X307340000Y-162560000D03*
X228600000Y-142240000D03*
X226060000Y-160020000D03*
X304800000Y-147320000D03*
X294640000Y-147320000D03*
X223520000Y-137160000D03*
X259080000Y-137160000D03*
X276860000Y-161290000D03*
X322580000Y-129540000D03*
X228600000Y-137160000D03*
X223520000Y-132080000D03*
X231140000Y-172720000D03*
X259080000Y-163830000D03*
X248920000Y-134620000D03*
X309880000Y-154940000D03*
X226060000Y-137160000D03*
X302260000Y-142240000D03*
X218440000Y-177800000D03*
X332740000Y-142240000D03*
X284480000Y-137160000D03*
X335280000Y-144780000D03*
X226060000Y-127000000D03*
X274320000Y-168910000D03*
X271780000Y-142240000D03*
X269240000Y-142240000D03*
X304535000Y-76775000D03*
X299720000Y-175260000D03*
X304800000Y-157480000D03*
X284480000Y-142240000D03*
X294640000Y-175260000D03*
X238760000Y-142240000D03*
X335280000Y-154940000D03*
X312420000Y-175260000D03*
X276860000Y-176530000D03*
X218440000Y-175260000D03*
X259080000Y-157480000D03*
X233680000Y-165100000D03*
X226060000Y-142240000D03*
X233680000Y-129540000D03*
X276860000Y-171450000D03*
X299720000Y-157480000D03*
X210820000Y-162560000D03*
X309880000Y-142240000D03*
X266700000Y-163830000D03*
X312576200Y-94715000D03*
X226060000Y-134620000D03*
X311145000Y-118195000D03*
X335280000Y-132080000D03*
X252730000Y-149860000D03*
X271780000Y-157480000D03*
X309880000Y-137160000D03*
X299720000Y-144780000D03*
X309880000Y-144780000D03*
X233680000Y-149860000D03*
X241300000Y-160020000D03*
X223520000Y-134620000D03*
X307340000Y-157480000D03*
X231140000Y-165100000D03*
X226060000Y-162560000D03*
X295177500Y-167840000D03*
X223520000Y-172720000D03*
X274320000Y-171450000D03*
X231140000Y-162560000D03*
X317500000Y-175260000D03*
X269240000Y-134620000D03*
X309880000Y-134620000D03*
X228600000Y-144780000D03*
X247650000Y-160020000D03*
X304800000Y-144780000D03*
X233680000Y-162560000D03*
%TO.N,/M5_TELEM*%
X284210000Y-172779800D03*
%TO.N,/Telemetry_CKT/V3p3*%
X265020000Y-144920000D03*
X305067500Y-165957500D03*
X304535000Y-78045000D03*
X312735000Y-114215000D03*
X273680000Y-156780000D03*
%TO.N,Net-(C31-Pad2)*%
X314645000Y-121675000D03*
X282310000Y-138080000D03*
X314610000Y-138080000D03*
%TO.N,Net-(C32-Pad2)*%
X282310000Y-135460000D03*
X302220000Y-135460000D03*
X302255000Y-85075000D03*
%TO.N,/Telemetry_CKT/nV3p3*%
X286860000Y-158570000D03*
X255870000Y-149050000D03*
X255860000Y-158570000D03*
X286860000Y-164479800D03*
%TO.N,/V_SEC_IN*%
X226060000Y-115570000D03*
X227965000Y-77470000D03*
X227330000Y-115570000D03*
X227965000Y-78740000D03*
X228600000Y-116840000D03*
X229235000Y-77470000D03*
X227330000Y-116840000D03*
X226060000Y-116840000D03*
X244820000Y-119630000D03*
X226695000Y-77470000D03*
X226695000Y-78740000D03*
X229235000Y-78740000D03*
X228600000Y-115570000D03*
%TO.N,/M5V_V_MON*%
X307050000Y-129580000D03*
X262970000Y-155300000D03*
X307040000Y-155300000D03*
%TO.N,/M5V_I_MON*%
X277760000Y-138080000D03*
X248750000Y-138080000D03*
%TO.N,/P5V_I_MON*%
X246350000Y-135460000D03*
X277760000Y-135460000D03*
%TO.N,/P5V_V_MON*%
X251000000Y-160420000D03*
X318560000Y-160420000D03*
%TO.N,/P5V_OUT*%
X309235000Y-74305000D03*
X317490000Y-81010000D03*
%TO.N,Net-(M2-Pad1)*%
X264860000Y-122740000D03*
%TO.N,/Enable_CKT/Enable*%
X266760000Y-121840000D03*
X269210000Y-118230000D03*
%TO.N,/Telemetry_CKT/V_TEMP*%
X305570000Y-153400000D03*
X277840000Y-153400000D03*
X305605000Y-93455000D03*
%TO.N,Net-(U11A-+INA)*%
X317480000Y-150690000D03*
X254290000Y-150690000D03*
X317480000Y-86140000D03*
%TO.N,Net-(U11B--INB)*%
X319270000Y-115010000D03*
X319270000Y-148610000D03*
X266990000Y-148630000D03*
%TO.N,Net-(U11B-B_OUT)*%
X260850000Y-146510000D03*
X260530000Y-151290000D03*
%TD*%
D23*
%TO.N,/P5_TELEM*%
X223550000Y-153360000D02*
X223970000Y-152940000D01*
X312990000Y-170970000D02*
X306500000Y-170970000D01*
X223970000Y-152940000D02*
X223970000Y-151017500D01*
D24*
X303720000Y-88810000D02*
X303720000Y-139470000D01*
D23*
X315430000Y-149290000D02*
X315430000Y-154700000D01*
X220420000Y-153360000D02*
X220230000Y-153550000D01*
X214880000Y-146385000D02*
X214880000Y-152910000D01*
X224870000Y-167640000D02*
X228540000Y-167640000D01*
D24*
X305936200Y-88275000D02*
X304255000Y-88275000D01*
D23*
X315720000Y-149000000D02*
X315430000Y-149290000D01*
X223970000Y-151017500D02*
X223970000Y-139830000D01*
X220230000Y-153550000D02*
X220230000Y-163000000D01*
X220230000Y-163000000D02*
X224870000Y-167640000D01*
D24*
X304255000Y-88275000D02*
X303720000Y-88810000D01*
D23*
X305997500Y-171472500D02*
X305997500Y-172920000D01*
X306500000Y-170970000D02*
X305997500Y-171472500D01*
X215330000Y-153360000D02*
X220420000Y-153360000D01*
X315430000Y-154700000D02*
X313740000Y-156390000D01*
X313740000Y-170220000D02*
X312990000Y-170970000D01*
X223970000Y-139830000D02*
X224270000Y-139530000D01*
X315720000Y-139630000D02*
X315720000Y-149000000D01*
X313740000Y-156390000D02*
X313740000Y-170220000D01*
D24*
X303720000Y-139470000D02*
X303720000Y-139480000D01*
D23*
X214880000Y-152910000D02*
X215330000Y-153360000D01*
X220420000Y-153360000D02*
X223550000Y-153360000D01*
%TO.N,/M5_TELEM*%
X214875000Y-143615000D02*
X212870000Y-145620000D01*
X225680000Y-177600000D02*
X281320000Y-177600000D01*
X214880000Y-140845000D02*
X214880000Y-143615000D01*
X281320000Y-173400000D02*
X281940200Y-172779800D01*
X212870000Y-145620000D02*
X212870000Y-164790000D01*
X281320000Y-177600000D02*
X281320000Y-173400000D01*
X214880000Y-143615000D02*
X214875000Y-143615000D01*
X281940200Y-172779800D02*
X284210000Y-172779800D01*
X212870000Y-164790000D02*
X225680000Y-177600000D01*
D24*
%TO.N,Net-(C31-Pad2)*%
X314610000Y-121710000D02*
X314645000Y-121675000D01*
X314610000Y-138080000D02*
X314610000Y-121710000D01*
%TO.N,Net-(C32-Pad2)*%
X302220000Y-85110000D02*
X302255000Y-85075000D01*
X302220000Y-135460000D02*
X302220000Y-85110000D01*
D25*
%TO.N,/Telemetry_CKT/nV3p3*%
X255860000Y-158570000D02*
X255870000Y-158560000D01*
X286860000Y-164479800D02*
X286860000Y-158570000D01*
X255870000Y-158560000D02*
X255870000Y-149050000D01*
D24*
%TO.N,/M5V_V_MON*%
X307040000Y-155300000D02*
X307040000Y-129590000D01*
X307040000Y-129590000D02*
X307050000Y-129580000D01*
%TO.N,/M5V_I_MON*%
X248736000Y-167510000D02*
X248750000Y-167496000D01*
X248750000Y-167496000D02*
X248750000Y-138080000D01*
%TO.N,/P5V_I_MON*%
X246350000Y-135460000D02*
X246350000Y-167414000D01*
X246350000Y-167414000D02*
X246446000Y-167510000D01*
%TO.N,/Enable_CKT/Enable*%
X261320000Y-89620000D02*
X269190000Y-89620000D01*
X269210000Y-62425000D02*
X271470000Y-60165000D01*
X269210000Y-89600000D02*
X269210000Y-62425000D01*
X269190000Y-89620000D02*
X269210000Y-89600000D01*
X269210000Y-99050000D02*
X269210000Y-89600000D01*
X271000000Y-99050000D02*
X269210000Y-99050000D01*
X269210000Y-118230000D02*
X269210000Y-99050000D01*
%TO.N,/Telemetry_CKT/V_TEMP*%
X305570000Y-93490000D02*
X305605000Y-93455000D01*
X305570000Y-153400000D02*
X305570000Y-93490000D01*
%TO.N,Net-(U11A-+INA)*%
X317480000Y-86140000D02*
X317480000Y-150690000D01*
%TO.N,Net-(U11B--INB)*%
X319270000Y-115010000D02*
X319270000Y-148610000D01*
%TO.N,Net-(U11B-B_OUT)*%
X260530000Y-151290000D02*
X260530000Y-146830000D01*
X260530000Y-146830000D02*
X260850000Y-146510000D01*
%TD*%
%TA.AperFunction,Conductor*%
%TO.N,GNDPWR*%
G36*
X289503039Y-97174685D02*
G01*
X289548794Y-97227489D01*
X289560000Y-97279000D01*
X289560000Y-111760000D01*
X291976000Y-111760000D01*
X292043039Y-111779685D01*
X292088794Y-111832489D01*
X292100000Y-111884000D01*
X292100000Y-115446000D01*
X292080315Y-115513039D01*
X292027511Y-115558794D01*
X291976000Y-115570000D01*
X288925000Y-115570000D01*
X288925000Y-121161000D01*
X288905315Y-121228039D01*
X288852511Y-121273794D01*
X288801000Y-121285000D01*
X270634000Y-121285000D01*
X270566961Y-121265315D01*
X270521206Y-121212511D01*
X270510000Y-121161000D01*
X270510000Y-114424000D01*
X270529685Y-114356961D01*
X270582489Y-114311206D01*
X270634000Y-114300000D01*
X273050000Y-114300000D01*
X273050000Y-97279000D01*
X273069685Y-97211961D01*
X273122489Y-97166206D01*
X273174000Y-97155000D01*
X289436000Y-97155000D01*
X289503039Y-97174685D01*
G37*
%TD.AperFunction*%
%TD*%
%TA.AperFunction,Conductor*%
%TO.N,GNDPWR*%
G36*
X289503039Y-58439685D02*
G01*
X289548794Y-58492489D01*
X289560000Y-58544000D01*
X289560000Y-82426000D01*
X289540315Y-82493039D01*
X289487511Y-82538794D01*
X289436000Y-82550000D01*
X270634000Y-82550000D01*
X270566961Y-82530315D01*
X270521206Y-82477511D01*
X270510000Y-82426000D01*
X270510000Y-75054000D01*
X270529685Y-74986961D01*
X270582489Y-74941206D01*
X270634000Y-74930000D01*
X274320000Y-74930000D01*
X274320000Y-58544000D01*
X274339685Y-58476961D01*
X274392489Y-58431206D01*
X274444000Y-58420000D01*
X289436000Y-58420000D01*
X289503039Y-58439685D01*
G37*
%TD.AperFunction*%
%TD*%
M02*
