%TF.GenerationSoftware,KiCad,Pcbnew,8.0.6*%
%TF.CreationDate,2024-12-10T16:09:11-05:00*%
%TF.ProjectId,Telem_PWR_Board,54656c65-6d5f-4505-9752-5f426f617264,rev?*%
%TF.SameCoordinates,Original*%
%TF.FileFunction,Copper,L3,Inr*%
%TF.FilePolarity,Positive*%
%FSLAX46Y46*%
G04 Gerber Fmt 4.6, Leading zero omitted, Abs format (unit mm)*
G04 Created by KiCad (PCBNEW 8.0.6) date 2024-12-10 16:09:11*
%MOMM*%
%LPD*%
G01*
G04 APERTURE LIST*
%TA.AperFunction,ComponentPad*%
%ADD10C,6.400000*%
%TD*%
%TA.AperFunction,ComponentPad*%
%ADD11R,1.800000X1.800000*%
%TD*%
%TA.AperFunction,ComponentPad*%
%ADD12C,1.800000*%
%TD*%
%TA.AperFunction,ComponentPad*%
%ADD13R,2.000000X2.000000*%
%TD*%
%TA.AperFunction,ComponentPad*%
%ADD14C,2.000000*%
%TD*%
%TA.AperFunction,ComponentPad*%
%ADD15C,1.635000*%
%TD*%
%TA.AperFunction,ComponentPad*%
%ADD16C,4.216000*%
%TD*%
%TA.AperFunction,ViaPad*%
%ADD17C,1.200000*%
%TD*%
%TA.AperFunction,ViaPad*%
%ADD18C,0.600000*%
%TD*%
G04 APERTURE END LIST*
D10*
%TO.N,CHASSIS*%
%TO.C,H6*%
X235000000Y-140000000D03*
%TD*%
D11*
%TO.N,/V_P5V_RTN*%
%TO.C,J7*%
X303000000Y-242400000D03*
D12*
%TO.N,/V_P5V*%
X303000000Y-238590000D03*
%TO.N,/V_P5V_RTN*%
X303000000Y-234780000D03*
%TO.N,/V_SEC_RTN*%
X303000000Y-230970000D03*
%TO.N,/V_SEC_IN*%
X303000000Y-227160000D03*
%TO.N,/V_SEC_RTN*%
X303000000Y-223350000D03*
%TO.N,/V_SEC_IN*%
X303000000Y-219540000D03*
%TD*%
D10*
%TO.N,CHASSIS*%
%TO.C,H4*%
X340000000Y-195000000D03*
%TD*%
%TO.N,CHASSIS*%
%TO.C,H5*%
X368000000Y-195000000D03*
%TD*%
D11*
%TO.N,/V_P5V_RTN*%
%TO.C,J8*%
X323000000Y-242400000D03*
D12*
%TO.N,/V_P5V*%
X323000000Y-238590000D03*
%TO.N,/V_P5V_RTN*%
X323000000Y-234780000D03*
%TO.N,/V_SEC_RTN*%
X323000000Y-230970000D03*
%TO.N,/V_SEC_IN*%
X323000000Y-227160000D03*
%TO.N,/V_SEC_RTN*%
X323000000Y-223350000D03*
%TO.N,/V_SEC_IN*%
X323000000Y-219540000D03*
%TD*%
D11*
%TO.N,/V_P5V_RTN*%
%TO.C,J2*%
X293000000Y-142600000D03*
D12*
%TO.N,/V_P5V*%
X293000000Y-146410000D03*
%TO.N,/V_P5V_RTN*%
X293000000Y-150220000D03*
%TO.N,/V_SEC_RTN*%
X293000000Y-154030000D03*
%TO.N,/V_SEC_IN*%
X293000000Y-157840000D03*
%TO.N,/V_SEC_RTN*%
X293000000Y-161650000D03*
%TO.N,/V_SEC_IN*%
X293000000Y-165460000D03*
%TD*%
D11*
%TO.N,/V_P5V_RTN*%
%TO.C,J6*%
X283000000Y-242400000D03*
D12*
%TO.N,/V_P5V*%
X283000000Y-238590000D03*
%TO.N,/V_P5V_RTN*%
X283000000Y-234780000D03*
%TO.N,/V_SEC_RTN*%
X283000000Y-230970000D03*
%TO.N,/V_SEC_IN*%
X283000000Y-227160000D03*
%TO.N,/V_SEC_RTN*%
X283000000Y-223350000D03*
%TO.N,/V_SEC_IN*%
X283000000Y-219540000D03*
%TD*%
D10*
%TO.N,CHASSIS*%
%TO.C,H2*%
X368000000Y-245000000D03*
%TD*%
D11*
%TO.N,/V_P5V_RTN*%
%TO.C,J9*%
X343000000Y-242400000D03*
D12*
%TO.N,/V_P5V*%
X343000000Y-238590000D03*
%TO.N,/V_P5V_RTN*%
X343000000Y-234780000D03*
%TO.N,/V_SEC_RTN*%
X343000000Y-230970000D03*
%TO.N,/V_SEC_IN*%
X343000000Y-227160000D03*
%TO.N,/V_SEC_RTN*%
X343000000Y-223350000D03*
%TO.N,/V_SEC_IN*%
X343000000Y-219540000D03*
%TD*%
D10*
%TO.N,CHASSIS*%
%TO.C,H1*%
X235000000Y-245000000D03*
%TD*%
D11*
%TO.N,/V_P5V_RTN*%
%TO.C,J4*%
X333000000Y-142600000D03*
D12*
%TO.N,/V_P5V*%
X333000000Y-146410000D03*
%TO.N,/V_P5V_RTN*%
X333000000Y-150220000D03*
%TO.N,/V_SEC_RTN*%
X333000000Y-154030000D03*
%TO.N,/V_SEC_IN*%
X333000000Y-157840000D03*
%TO.N,/V_SEC_RTN*%
X333000000Y-161650000D03*
%TO.N,/V_SEC_IN*%
X333000000Y-165460000D03*
%TD*%
D11*
%TO.N,/V_P5V_RTN*%
%TO.C,J1*%
X273000000Y-142600000D03*
D12*
%TO.N,/V_P5V*%
X273000000Y-146410000D03*
%TO.N,/V_P5V_RTN*%
X273000000Y-150220000D03*
%TO.N,/V_SEC_RTN*%
X273000000Y-154030000D03*
%TO.N,/V_SEC_IN*%
X273000000Y-157840000D03*
%TO.N,/V_SEC_RTN*%
X273000000Y-161650000D03*
%TO.N,/V_SEC_IN*%
X273000000Y-165460000D03*
%TD*%
D13*
%TO.N,/Telem_PWR_Single_Rail/V_POS*%
%TO.C,U1*%
X281837721Y-196043157D03*
D14*
%TO.N,/Telem_PWR_Single_Rail/V_RTN*%
X281837721Y-190943157D03*
%TO.N,/V_P5V*%
X302137721Y-203743157D03*
%TO.N,unconnected-(U1-TRIM-Pad4)*%
X302137721Y-193543157D03*
%TO.N,/V_P5V_RTN*%
X302137721Y-183343157D03*
%TO.N,unconnected-(U1-REMOTE-Pad6)*%
X281837721Y-183343157D03*
%TD*%
D11*
%TO.N,/V_P5V_RTN*%
%TO.C,J5*%
X353000000Y-142600000D03*
D12*
%TO.N,/V_P5V*%
X353000000Y-146410000D03*
%TO.N,/V_P5V_RTN*%
X353000000Y-150220000D03*
%TO.N,/V_SEC_RTN*%
X353000000Y-154030000D03*
%TO.N,/V_SEC_IN*%
X353000000Y-157840000D03*
%TO.N,/V_SEC_RTN*%
X353000000Y-161650000D03*
%TO.N,/V_SEC_IN*%
X353000000Y-165460000D03*
%TD*%
D11*
%TO.N,/V_P5V_RTN*%
%TO.C,J3*%
X313000000Y-142600000D03*
D12*
%TO.N,/V_P5V*%
X313000000Y-146410000D03*
%TO.N,/V_P5V_RTN*%
X313000000Y-150220000D03*
%TO.N,/V_SEC_RTN*%
X313000000Y-154030000D03*
%TO.N,/V_SEC_IN*%
X313000000Y-157840000D03*
%TO.N,/V_SEC_RTN*%
X313000000Y-161650000D03*
%TO.N,/V_SEC_IN*%
X313000000Y-165460000D03*
%TD*%
D15*
%TO.N,/V_SEC_RTN*%
%TO.C,P1*%
X237010000Y-200940000D03*
X237010000Y-198170000D03*
%TO.N,unconnected-(P1-Pad3)*%
X237010000Y-195400000D03*
%TO.N,/V_SEC_RTN*%
X237010000Y-192630000D03*
X237010000Y-189860000D03*
%TO.N,/V_SEC_IN*%
X234170000Y-199555000D03*
X234170000Y-196785000D03*
X234170000Y-194015000D03*
X234170000Y-191245000D03*
D16*
%TO.N,CHASSIS*%
X235590000Y-182900000D03*
X235590000Y-207900000D03*
%TD*%
D10*
%TO.N,CHASSIS*%
%TO.C,H3*%
X368000000Y-140000000D03*
%TD*%
D17*
%TO.N,CHASSIS*%
X282575000Y-198755000D03*
X282575000Y-186055000D03*
X301625000Y-189230000D03*
X301625000Y-186055000D03*
X301625000Y-198755000D03*
X282575000Y-201930000D03*
X282575000Y-205105000D03*
X288925000Y-205105000D03*
X298450000Y-205105000D03*
X298450000Y-201930000D03*
X292100000Y-201930000D03*
X292100000Y-205105000D03*
X288925000Y-201930000D03*
X295275000Y-205105000D03*
X285750000Y-201930000D03*
X292100000Y-195580000D03*
X295275000Y-201930000D03*
X285750000Y-205105000D03*
X288925000Y-198755000D03*
X295275000Y-198755000D03*
X298450000Y-198755000D03*
X285750000Y-198755000D03*
X285750000Y-195580000D03*
X292100000Y-198755000D03*
X288925000Y-195580000D03*
X298450000Y-195580000D03*
X295275000Y-195580000D03*
X292100000Y-189230000D03*
X288925000Y-192405000D03*
X295275000Y-192405000D03*
X298450000Y-192405000D03*
X285750000Y-192405000D03*
X285750000Y-189230000D03*
X292100000Y-192405000D03*
X288925000Y-189230000D03*
X298450000Y-189230000D03*
X295275000Y-189230000D03*
X292100000Y-186055000D03*
X285750000Y-186055000D03*
X288925000Y-186055000D03*
X298450000Y-186055000D03*
X295275000Y-186055000D03*
X295275000Y-182880000D03*
X298450000Y-182880000D03*
X292100000Y-182880000D03*
X288925000Y-182880000D03*
D18*
%TO.N,/V_SEC_RTN*%
X336550000Y-247650000D03*
X245670000Y-190400000D03*
X323850000Y-165100000D03*
X304800000Y-209550000D03*
X323850000Y-215900000D03*
X336550000Y-171450000D03*
X317500000Y-209550000D03*
X323850000Y-209550000D03*
X247650000Y-158750000D03*
X323850000Y-177800000D03*
X228600000Y-222250000D03*
X355600000Y-190500000D03*
X368300000Y-171450000D03*
X241300000Y-171450000D03*
X285750000Y-215900000D03*
X285750000Y-171450000D03*
X254000000Y-228600000D03*
X311150000Y-171450000D03*
X279400000Y-165100000D03*
X368300000Y-215900000D03*
X323850000Y-190500000D03*
X273050000Y-228600000D03*
X266700000Y-171450000D03*
X247650000Y-254000000D03*
X361950000Y-190500000D03*
X260350000Y-165100000D03*
X349250000Y-203200000D03*
X368300000Y-152400000D03*
X349250000Y-247650000D03*
X273050000Y-241300000D03*
X248210000Y-190400000D03*
X323850000Y-184150000D03*
X311150000Y-184150000D03*
X330200000Y-184150000D03*
X330200000Y-234950000D03*
X241300000Y-228600000D03*
X355600000Y-209550000D03*
X355600000Y-196850000D03*
X273050000Y-222250000D03*
X355600000Y-241300000D03*
X361950000Y-146050000D03*
X241300000Y-177800000D03*
X330200000Y-247650000D03*
X317500000Y-254000000D03*
X342900000Y-139700000D03*
X273050000Y-234950000D03*
X349250000Y-196850000D03*
X342900000Y-152400000D03*
X292100000Y-254000000D03*
X349250000Y-171450000D03*
X304800000Y-171450000D03*
X349250000Y-254000000D03*
X336550000Y-254000000D03*
X260350000Y-139700000D03*
X368300000Y-209550000D03*
X317500000Y-247650000D03*
X266700000Y-247650000D03*
X342900000Y-171450000D03*
X304800000Y-158750000D03*
X246940000Y-191670000D03*
X361950000Y-234950000D03*
X336550000Y-209550000D03*
X279400000Y-209550000D03*
X304800000Y-177800000D03*
X254000000Y-146050000D03*
X247650000Y-184150000D03*
X285750000Y-254000000D03*
X228600000Y-152400000D03*
X311150000Y-254000000D03*
X247650000Y-209550000D03*
X311150000Y-234950000D03*
X241300000Y-139700000D03*
X292100000Y-241300000D03*
X292100000Y-215900000D03*
X266700000Y-177800000D03*
X247650000Y-215900000D03*
X330200000Y-190500000D03*
X241300000Y-234950000D03*
X241300000Y-165100000D03*
X368300000Y-228600000D03*
X254000000Y-177800000D03*
X298450000Y-254000000D03*
X361950000Y-171450000D03*
X241300000Y-152400000D03*
X247650000Y-177800000D03*
X247650000Y-234950000D03*
X247650000Y-165100000D03*
X260350000Y-171450000D03*
X273050000Y-215900000D03*
X260350000Y-234950000D03*
X330200000Y-228600000D03*
X368300000Y-203200000D03*
X241300000Y-254000000D03*
X330200000Y-177800000D03*
X361950000Y-228600000D03*
X260350000Y-222250000D03*
X254000000Y-165100000D03*
X298450000Y-209550000D03*
X254000000Y-222250000D03*
X254000000Y-184150000D03*
X330200000Y-209550000D03*
X245670000Y-189130000D03*
X361950000Y-247650000D03*
X254000000Y-209550000D03*
X336550000Y-215900000D03*
X342900000Y-203200000D03*
X361950000Y-209550000D03*
X241300000Y-222250000D03*
X368300000Y-184150000D03*
X349250000Y-241300000D03*
X349250000Y-177800000D03*
X273050000Y-247650000D03*
X368300000Y-222250000D03*
X342900000Y-209550000D03*
X254000000Y-215900000D03*
X304800000Y-254000000D03*
X279400000Y-254000000D03*
X311150000Y-215900000D03*
X260350000Y-254000000D03*
X254000000Y-247650000D03*
X234950000Y-177800000D03*
X336550000Y-190500000D03*
X241300000Y-184150000D03*
X228600000Y-171450000D03*
X311150000Y-209550000D03*
X323850000Y-196850000D03*
X234950000Y-165100000D03*
X292100000Y-234950000D03*
X241300000Y-247650000D03*
X279400000Y-171450000D03*
X260350000Y-228600000D03*
X349250000Y-215900000D03*
X266700000Y-241300000D03*
X254000000Y-158750000D03*
X247650000Y-171450000D03*
X323850000Y-203200000D03*
X368300000Y-146050000D03*
X285750000Y-158750000D03*
X247650000Y-228600000D03*
X285750000Y-139700000D03*
X234950000Y-171450000D03*
X254000000Y-254000000D03*
X368300000Y-190500000D03*
X247650000Y-222250000D03*
X355600000Y-215900000D03*
X355600000Y-184150000D03*
X304800000Y-139700000D03*
X260350000Y-247650000D03*
X336550000Y-184150000D03*
X361950000Y-152400000D03*
X260350000Y-158750000D03*
X285750000Y-209550000D03*
X285750000Y-152400000D03*
X342900000Y-158750000D03*
X349250000Y-190500000D03*
X355600000Y-234950000D03*
X342900000Y-165100000D03*
X361950000Y-177800000D03*
X234950000Y-215900000D03*
X342900000Y-190500000D03*
X349250000Y-234950000D03*
X342900000Y-177800000D03*
X317500000Y-184150000D03*
X311150000Y-222250000D03*
X361950000Y-254000000D03*
X273050000Y-177800000D03*
X228600000Y-146050000D03*
X234950000Y-158750000D03*
X279400000Y-152400000D03*
X266700000Y-254000000D03*
X361950000Y-165100000D03*
X368300000Y-234950000D03*
X361950000Y-139700000D03*
X254000000Y-234950000D03*
X245670000Y-191670000D03*
X361950000Y-158750000D03*
X234950000Y-234950000D03*
X292100000Y-228600000D03*
X330200000Y-203200000D03*
X355600000Y-247650000D03*
X228600000Y-215900000D03*
X241300000Y-241300000D03*
X317500000Y-177800000D03*
X241300000Y-158750000D03*
X247650000Y-139700000D03*
X241300000Y-209550000D03*
X260350000Y-146050000D03*
X304800000Y-152400000D03*
X323850000Y-171450000D03*
X361950000Y-222250000D03*
X279400000Y-139700000D03*
X323850000Y-254000000D03*
X234950000Y-222250000D03*
X323850000Y-152400000D03*
X330200000Y-196850000D03*
X330200000Y-215900000D03*
X361950000Y-184150000D03*
X368300000Y-177800000D03*
X247650000Y-241300000D03*
X260350000Y-215900000D03*
X279400000Y-177800000D03*
X260350000Y-152400000D03*
X330200000Y-241300000D03*
X311150000Y-177800000D03*
X368300000Y-165100000D03*
X234950000Y-228600000D03*
X260350000Y-241300000D03*
X247650000Y-152400000D03*
X241300000Y-215900000D03*
X246940000Y-189130000D03*
X311150000Y-241300000D03*
X355600000Y-222250000D03*
X248210000Y-191670000D03*
X311150000Y-228600000D03*
X246940000Y-190400000D03*
X254000000Y-139700000D03*
X342900000Y-254000000D03*
X330200000Y-171450000D03*
X349250000Y-209550000D03*
X323850000Y-139700000D03*
X304800000Y-165100000D03*
X266700000Y-228600000D03*
X228600000Y-158750000D03*
X254000000Y-241300000D03*
X234950000Y-146050000D03*
X247650000Y-247650000D03*
X349250000Y-222250000D03*
X323850000Y-158750000D03*
X361950000Y-196850000D03*
X273050000Y-254000000D03*
X361950000Y-241300000D03*
X336550000Y-177800000D03*
X311150000Y-247650000D03*
X298450000Y-139700000D03*
X254000000Y-171450000D03*
X285750000Y-165100000D03*
X266700000Y-215900000D03*
X228600000Y-228600000D03*
X247650000Y-146050000D03*
X298450000Y-165100000D03*
X298450000Y-152400000D03*
X285750000Y-177800000D03*
X266700000Y-222250000D03*
X355600000Y-203200000D03*
X342900000Y-184150000D03*
X336550000Y-203200000D03*
X298450000Y-215900000D03*
X234950000Y-152400000D03*
X292100000Y-177800000D03*
X298450000Y-158750000D03*
X349250000Y-184150000D03*
X292100000Y-209550000D03*
X330200000Y-222250000D03*
X228600000Y-177800000D03*
X317500000Y-215900000D03*
X368300000Y-158750000D03*
X228600000Y-165100000D03*
X361950000Y-215900000D03*
X292100000Y-222250000D03*
X241300000Y-146050000D03*
X349250000Y-228600000D03*
X304800000Y-215900000D03*
X228600000Y-234950000D03*
X266700000Y-234950000D03*
X279400000Y-158750000D03*
X355600000Y-228600000D03*
X248210000Y-189130000D03*
X317500000Y-171450000D03*
X355600000Y-177800000D03*
X279400000Y-215900000D03*
X361950000Y-203200000D03*
X292100000Y-247650000D03*
X330200000Y-254000000D03*
X355600000Y-254000000D03*
X254000000Y-152400000D03*
%TO.N,CHASSIS*%
X297000221Y-177193157D03*
D17*
X285750000Y-182880000D03*
D18*
%TO.N,/V_P5V_RTN*%
X302150221Y-177203157D03*
X314490000Y-185142500D03*
X321800000Y-196540000D03*
%TD*%
%TA.AperFunction,Conductor*%
%TO.N,/V_SEC_IN*%
G36*
X234403945Y-152419685D02*
G01*
X234449700Y-152472489D01*
X234459644Y-152506353D01*
X234464834Y-152542456D01*
X234524622Y-152673371D01*
X234524623Y-152673373D01*
X234618872Y-152782143D01*
X234739947Y-152859953D01*
X234739950Y-152859954D01*
X234739949Y-152859954D01*
X234878036Y-152900499D01*
X234878038Y-152900500D01*
X234878039Y-152900500D01*
X235021962Y-152900500D01*
X235021962Y-152900499D01*
X235160053Y-152859953D01*
X235281128Y-152782143D01*
X235375377Y-152673373D01*
X235435165Y-152542457D01*
X235440356Y-152506353D01*
X235469381Y-152442797D01*
X235528159Y-152405023D01*
X235563094Y-152400000D01*
X240686906Y-152400000D01*
X240753945Y-152419685D01*
X240799700Y-152472489D01*
X240809644Y-152506353D01*
X240814834Y-152542456D01*
X240874622Y-152673371D01*
X240874623Y-152673373D01*
X240968872Y-152782143D01*
X241089947Y-152859953D01*
X241089950Y-152859954D01*
X241089949Y-152859954D01*
X241228036Y-152900499D01*
X241228038Y-152900500D01*
X241228039Y-152900500D01*
X241371962Y-152900500D01*
X241371962Y-152900499D01*
X241510053Y-152859953D01*
X241631128Y-152782143D01*
X241725377Y-152673373D01*
X241785165Y-152542457D01*
X241790356Y-152506353D01*
X241819381Y-152442797D01*
X241878159Y-152405023D01*
X241913094Y-152400000D01*
X247036906Y-152400000D01*
X247103945Y-152419685D01*
X247149700Y-152472489D01*
X247159644Y-152506353D01*
X247164834Y-152542456D01*
X247224622Y-152673371D01*
X247224623Y-152673373D01*
X247318872Y-152782143D01*
X247439947Y-152859953D01*
X247439950Y-152859954D01*
X247439949Y-152859954D01*
X247578036Y-152900499D01*
X247578038Y-152900500D01*
X247578039Y-152900500D01*
X247721962Y-152900500D01*
X247721962Y-152900499D01*
X247860053Y-152859953D01*
X247981128Y-152782143D01*
X248075377Y-152673373D01*
X248135165Y-152542457D01*
X248140356Y-152506353D01*
X248169381Y-152442797D01*
X248228159Y-152405023D01*
X248263094Y-152400000D01*
X253386906Y-152400000D01*
X253453945Y-152419685D01*
X253499700Y-152472489D01*
X253509644Y-152506353D01*
X253514834Y-152542456D01*
X253574622Y-152673371D01*
X253574623Y-152673373D01*
X253668872Y-152782143D01*
X253789947Y-152859953D01*
X253789950Y-152859954D01*
X253789949Y-152859954D01*
X253928036Y-152900499D01*
X253928038Y-152900500D01*
X253928039Y-152900500D01*
X254071962Y-152900500D01*
X254071962Y-152900499D01*
X254210053Y-152859953D01*
X254331128Y-152782143D01*
X254425377Y-152673373D01*
X254485165Y-152542457D01*
X254490356Y-152506353D01*
X254519381Y-152442797D01*
X254578159Y-152405023D01*
X254613094Y-152400000D01*
X259736906Y-152400000D01*
X259803945Y-152419685D01*
X259849700Y-152472489D01*
X259859644Y-152506353D01*
X259864834Y-152542456D01*
X259924622Y-152673371D01*
X259924623Y-152673373D01*
X260018872Y-152782143D01*
X260139947Y-152859953D01*
X260139950Y-152859954D01*
X260139949Y-152859954D01*
X260278036Y-152900499D01*
X260278038Y-152900500D01*
X260278039Y-152900500D01*
X260421962Y-152900500D01*
X260421962Y-152900499D01*
X260560053Y-152859953D01*
X260681128Y-152782143D01*
X260775377Y-152673373D01*
X260835165Y-152542457D01*
X260840356Y-152506353D01*
X260869381Y-152442797D01*
X260928159Y-152405023D01*
X260963094Y-152400000D01*
X278786906Y-152400000D01*
X278853945Y-152419685D01*
X278899700Y-152472489D01*
X278909644Y-152506353D01*
X278914834Y-152542456D01*
X278974622Y-152673371D01*
X278974623Y-152673373D01*
X279068872Y-152782143D01*
X279189947Y-152859953D01*
X279189950Y-152859954D01*
X279189949Y-152859954D01*
X279328036Y-152900499D01*
X279328038Y-152900500D01*
X279328039Y-152900500D01*
X279471962Y-152900500D01*
X279471962Y-152900499D01*
X279610053Y-152859953D01*
X279731128Y-152782143D01*
X279825377Y-152673373D01*
X279885165Y-152542457D01*
X279890356Y-152506353D01*
X279919381Y-152442797D01*
X279978159Y-152405023D01*
X280013094Y-152400000D01*
X285136906Y-152400000D01*
X285203945Y-152419685D01*
X285249700Y-152472489D01*
X285259644Y-152506353D01*
X285264834Y-152542456D01*
X285324622Y-152673371D01*
X285324623Y-152673373D01*
X285418872Y-152782143D01*
X285539947Y-152859953D01*
X285539950Y-152859954D01*
X285539949Y-152859954D01*
X285678036Y-152900499D01*
X285678038Y-152900500D01*
X285678039Y-152900500D01*
X285821962Y-152900500D01*
X285821962Y-152900499D01*
X285960053Y-152859953D01*
X286081128Y-152782143D01*
X286175377Y-152673373D01*
X286235165Y-152542457D01*
X286240356Y-152506353D01*
X286269381Y-152442797D01*
X286328159Y-152405023D01*
X286363094Y-152400000D01*
X297836906Y-152400000D01*
X297903945Y-152419685D01*
X297949700Y-152472489D01*
X297959644Y-152506353D01*
X297964834Y-152542456D01*
X298024622Y-152673371D01*
X298024623Y-152673373D01*
X298118872Y-152782143D01*
X298239947Y-152859953D01*
X298239950Y-152859954D01*
X298239949Y-152859954D01*
X298378036Y-152900499D01*
X298378038Y-152900500D01*
X298378039Y-152900500D01*
X298521962Y-152900500D01*
X298521962Y-152900499D01*
X298660053Y-152859953D01*
X298781128Y-152782143D01*
X298875377Y-152673373D01*
X298935165Y-152542457D01*
X298940356Y-152506353D01*
X298969381Y-152442797D01*
X299028159Y-152405023D01*
X299063094Y-152400000D01*
X304186906Y-152400000D01*
X304253945Y-152419685D01*
X304299700Y-152472489D01*
X304309644Y-152506353D01*
X304314834Y-152542456D01*
X304374622Y-152673371D01*
X304374623Y-152673373D01*
X304468872Y-152782143D01*
X304589947Y-152859953D01*
X304589950Y-152859954D01*
X304589949Y-152859954D01*
X304728036Y-152900499D01*
X304728038Y-152900500D01*
X304728039Y-152900500D01*
X304871962Y-152900500D01*
X304871962Y-152900499D01*
X305010053Y-152859953D01*
X305131128Y-152782143D01*
X305225377Y-152673373D01*
X305285165Y-152542457D01*
X305290356Y-152506353D01*
X305319381Y-152442797D01*
X305378159Y-152405023D01*
X305413094Y-152400000D01*
X323236906Y-152400000D01*
X323303945Y-152419685D01*
X323349700Y-152472489D01*
X323359644Y-152506353D01*
X323364834Y-152542456D01*
X323424622Y-152673371D01*
X323424623Y-152673373D01*
X323518872Y-152782143D01*
X323639947Y-152859953D01*
X323639950Y-152859954D01*
X323639949Y-152859954D01*
X323778036Y-152900499D01*
X323778038Y-152900500D01*
X323778039Y-152900500D01*
X323921962Y-152900500D01*
X323921962Y-152900499D01*
X324060053Y-152859953D01*
X324181128Y-152782143D01*
X324275377Y-152673373D01*
X324335165Y-152542457D01*
X324340356Y-152506353D01*
X324369381Y-152442797D01*
X324428159Y-152405023D01*
X324463094Y-152400000D01*
X342286906Y-152400000D01*
X342353945Y-152419685D01*
X342399700Y-152472489D01*
X342409644Y-152506353D01*
X342414834Y-152542456D01*
X342474622Y-152673371D01*
X342474623Y-152673373D01*
X342568872Y-152782143D01*
X342689947Y-152859953D01*
X342689950Y-152859954D01*
X342689949Y-152859954D01*
X342828036Y-152900499D01*
X342828038Y-152900500D01*
X342828039Y-152900500D01*
X342971962Y-152900500D01*
X342971962Y-152900499D01*
X343110053Y-152859953D01*
X343231128Y-152782143D01*
X343325377Y-152673373D01*
X343385165Y-152542457D01*
X343390356Y-152506353D01*
X343419381Y-152442797D01*
X343478159Y-152405023D01*
X343513094Y-152400000D01*
X357088638Y-152400000D01*
X357155677Y-152419685D01*
X357176319Y-152436319D01*
X358103681Y-153363681D01*
X358137166Y-153425004D01*
X358140000Y-153451362D01*
X358140000Y-169128638D01*
X358120315Y-169195677D01*
X358103681Y-169216319D01*
X357176319Y-170143681D01*
X357114996Y-170177166D01*
X357088638Y-170180000D01*
X264160000Y-170180000D01*
X241300000Y-170180000D01*
X241300000Y-170949500D01*
X241228036Y-170949500D01*
X241089949Y-170990045D01*
X240968873Y-171067856D01*
X240874623Y-171176626D01*
X240874622Y-171176628D01*
X240814834Y-171307543D01*
X240794353Y-171450000D01*
X240814834Y-171592456D01*
X240874622Y-171723371D01*
X240874623Y-171723373D01*
X240968872Y-171832143D01*
X241089947Y-171909953D01*
X241089950Y-171909954D01*
X241089949Y-171909954D01*
X241210934Y-171945478D01*
X241269713Y-171983252D01*
X241298738Y-172046807D01*
X241300000Y-172064455D01*
X241300000Y-177185544D01*
X241280315Y-177252583D01*
X241227511Y-177298338D01*
X241210935Y-177304521D01*
X241089949Y-177340045D01*
X240968873Y-177417856D01*
X240874623Y-177526626D01*
X240874622Y-177526628D01*
X240814834Y-177657543D01*
X240794353Y-177800000D01*
X240814834Y-177942456D01*
X240874622Y-178073371D01*
X240874623Y-178073373D01*
X240968872Y-178182143D01*
X241089947Y-178259953D01*
X241089950Y-178259954D01*
X241089949Y-178259954D01*
X241210934Y-178295478D01*
X241269713Y-178333252D01*
X241298738Y-178396807D01*
X241300000Y-178414455D01*
X241300000Y-183535544D01*
X241280315Y-183602583D01*
X241227511Y-183648338D01*
X241210935Y-183654521D01*
X241089949Y-183690045D01*
X240968873Y-183767856D01*
X240874623Y-183876626D01*
X240874622Y-183876628D01*
X240814834Y-184007543D01*
X240794353Y-184150000D01*
X240814834Y-184292456D01*
X240822088Y-184308339D01*
X240874623Y-184423373D01*
X240968872Y-184532143D01*
X241089947Y-184609953D01*
X241089950Y-184609954D01*
X241089949Y-184609954D01*
X241210934Y-184645478D01*
X241269713Y-184683252D01*
X241298738Y-184746807D01*
X241300000Y-184764455D01*
X241300000Y-208935544D01*
X241280315Y-209002583D01*
X241227511Y-209048338D01*
X241210935Y-209054521D01*
X241089949Y-209090045D01*
X240968873Y-209167856D01*
X240874623Y-209276626D01*
X240874622Y-209276628D01*
X240814834Y-209407543D01*
X240794353Y-209550000D01*
X240814834Y-209692456D01*
X240874622Y-209823371D01*
X240874623Y-209823373D01*
X240968872Y-209932143D01*
X241089947Y-210009953D01*
X241089950Y-210009954D01*
X241089949Y-210009954D01*
X241210934Y-210045478D01*
X241269713Y-210083252D01*
X241298738Y-210146807D01*
X241300000Y-210164455D01*
X241300000Y-215399500D01*
X241228036Y-215399500D01*
X241089949Y-215440045D01*
X240968873Y-215517856D01*
X240874623Y-215626626D01*
X240874622Y-215626628D01*
X240814834Y-215757543D01*
X240794353Y-215900000D01*
X240814834Y-216042456D01*
X240874622Y-216173371D01*
X240874623Y-216173373D01*
X240968872Y-216282143D01*
X241089947Y-216359953D01*
X241089950Y-216359954D01*
X241089949Y-216359954D01*
X241228036Y-216400499D01*
X241228038Y-216400500D01*
X241228039Y-216400500D01*
X241371962Y-216400500D01*
X241371962Y-216400499D01*
X241510053Y-216359953D01*
X241631128Y-216282143D01*
X241725377Y-216173373D01*
X241785165Y-216042457D01*
X241805647Y-215900000D01*
X247036906Y-215900000D01*
X247103945Y-215919685D01*
X247149700Y-215972489D01*
X247159644Y-216006353D01*
X247164834Y-216042456D01*
X247224622Y-216173371D01*
X247224623Y-216173373D01*
X247318872Y-216282143D01*
X247439947Y-216359953D01*
X247439950Y-216359954D01*
X247439949Y-216359954D01*
X247578036Y-216400499D01*
X247578038Y-216400500D01*
X247578039Y-216400500D01*
X247721962Y-216400500D01*
X247721962Y-216400499D01*
X247860053Y-216359953D01*
X247981128Y-216282143D01*
X248075377Y-216173373D01*
X248135165Y-216042457D01*
X248140356Y-216006353D01*
X248169381Y-215942797D01*
X248228159Y-215905023D01*
X248263094Y-215900000D01*
X253386906Y-215900000D01*
X253453945Y-215919685D01*
X253499700Y-215972489D01*
X253509644Y-216006353D01*
X253514834Y-216042456D01*
X253574622Y-216173371D01*
X253574623Y-216173373D01*
X253668872Y-216282143D01*
X253789947Y-216359953D01*
X253789950Y-216359954D01*
X253789949Y-216359954D01*
X253928036Y-216400499D01*
X253928038Y-216400500D01*
X253928039Y-216400500D01*
X254071962Y-216400500D01*
X254071962Y-216400499D01*
X254210053Y-216359953D01*
X254331128Y-216282143D01*
X254425377Y-216173373D01*
X254485165Y-216042457D01*
X254490356Y-216006353D01*
X254519381Y-215942797D01*
X254578159Y-215905023D01*
X254613094Y-215900000D01*
X259736906Y-215900000D01*
X259803945Y-215919685D01*
X259849700Y-215972489D01*
X259859644Y-216006353D01*
X259864834Y-216042456D01*
X259924622Y-216173371D01*
X259924623Y-216173373D01*
X260018872Y-216282143D01*
X260139947Y-216359953D01*
X260139950Y-216359954D01*
X260139949Y-216359954D01*
X260278036Y-216400499D01*
X260278038Y-216400500D01*
X260278039Y-216400500D01*
X260421962Y-216400500D01*
X260421962Y-216400499D01*
X260560053Y-216359953D01*
X260681128Y-216282143D01*
X260775377Y-216173373D01*
X260835165Y-216042457D01*
X260840356Y-216006353D01*
X260869381Y-215942797D01*
X260928159Y-215905023D01*
X260963094Y-215900000D01*
X266086906Y-215900000D01*
X266153945Y-215919685D01*
X266199700Y-215972489D01*
X266209644Y-216006353D01*
X266214834Y-216042456D01*
X266274622Y-216173371D01*
X266274623Y-216173373D01*
X266368872Y-216282143D01*
X266489947Y-216359953D01*
X266489950Y-216359954D01*
X266489949Y-216359954D01*
X266628036Y-216400499D01*
X266628038Y-216400500D01*
X266628039Y-216400500D01*
X266771962Y-216400500D01*
X266771962Y-216400499D01*
X266910053Y-216359953D01*
X267031128Y-216282143D01*
X267125377Y-216173373D01*
X267185165Y-216042457D01*
X267190356Y-216006353D01*
X267219381Y-215942797D01*
X267278159Y-215905023D01*
X267313094Y-215900000D01*
X272436906Y-215900000D01*
X272503945Y-215919685D01*
X272549700Y-215972489D01*
X272559644Y-216006353D01*
X272564834Y-216042456D01*
X272624622Y-216173371D01*
X272624623Y-216173373D01*
X272718872Y-216282143D01*
X272839947Y-216359953D01*
X272839950Y-216359954D01*
X272839949Y-216359954D01*
X272978036Y-216400499D01*
X272978038Y-216400500D01*
X272978039Y-216400500D01*
X273121962Y-216400500D01*
X273121962Y-216400499D01*
X273260053Y-216359953D01*
X273381128Y-216282143D01*
X273475377Y-216173373D01*
X273535165Y-216042457D01*
X273540356Y-216006353D01*
X273569381Y-215942797D01*
X273628159Y-215905023D01*
X273663094Y-215900000D01*
X278786906Y-215900000D01*
X278853945Y-215919685D01*
X278899700Y-215972489D01*
X278909644Y-216006353D01*
X278914834Y-216042456D01*
X278974622Y-216173371D01*
X278974623Y-216173373D01*
X279068872Y-216282143D01*
X279189947Y-216359953D01*
X279189950Y-216359954D01*
X279189949Y-216359954D01*
X279328036Y-216400499D01*
X279328038Y-216400500D01*
X279328039Y-216400500D01*
X279471962Y-216400500D01*
X279471962Y-216400499D01*
X279610053Y-216359953D01*
X279731128Y-216282143D01*
X279825377Y-216173373D01*
X279885165Y-216042457D01*
X279890356Y-216006353D01*
X279919381Y-215942797D01*
X279978159Y-215905023D01*
X280013094Y-215900000D01*
X285136906Y-215900000D01*
X285203945Y-215919685D01*
X285249700Y-215972489D01*
X285259644Y-216006353D01*
X285264834Y-216042456D01*
X285324622Y-216173371D01*
X285324623Y-216173373D01*
X285418872Y-216282143D01*
X285539947Y-216359953D01*
X285539950Y-216359954D01*
X285539949Y-216359954D01*
X285678036Y-216400499D01*
X285678038Y-216400500D01*
X285678039Y-216400500D01*
X285821962Y-216400500D01*
X285821962Y-216400499D01*
X285960053Y-216359953D01*
X286081128Y-216282143D01*
X286175377Y-216173373D01*
X286235165Y-216042457D01*
X286240356Y-216006353D01*
X286269381Y-215942797D01*
X286328159Y-215905023D01*
X286363094Y-215900000D01*
X291486906Y-215900000D01*
X291553945Y-215919685D01*
X291599700Y-215972489D01*
X291609644Y-216006353D01*
X291614834Y-216042456D01*
X291674622Y-216173371D01*
X291674623Y-216173373D01*
X291768872Y-216282143D01*
X291889947Y-216359953D01*
X291889950Y-216359954D01*
X291889949Y-216359954D01*
X292028036Y-216400499D01*
X292028038Y-216400500D01*
X292028039Y-216400500D01*
X292171962Y-216400500D01*
X292171962Y-216400499D01*
X292310053Y-216359953D01*
X292431128Y-216282143D01*
X292525377Y-216173373D01*
X292585165Y-216042457D01*
X292590356Y-216006353D01*
X292619381Y-215942797D01*
X292678159Y-215905023D01*
X292713094Y-215900000D01*
X297836906Y-215900000D01*
X297903945Y-215919685D01*
X297949700Y-215972489D01*
X297959644Y-216006353D01*
X297964834Y-216042456D01*
X298024622Y-216173371D01*
X298024623Y-216173373D01*
X298118872Y-216282143D01*
X298239947Y-216359953D01*
X298239950Y-216359954D01*
X298239949Y-216359954D01*
X298378036Y-216400499D01*
X298378038Y-216400500D01*
X298378039Y-216400500D01*
X298521962Y-216400500D01*
X298521962Y-216400499D01*
X298660053Y-216359953D01*
X298781128Y-216282143D01*
X298875377Y-216173373D01*
X298935165Y-216042457D01*
X298940356Y-216006353D01*
X298969381Y-215942797D01*
X299028159Y-215905023D01*
X299063094Y-215900000D01*
X304186906Y-215900000D01*
X304253945Y-215919685D01*
X304299700Y-215972489D01*
X304309644Y-216006353D01*
X304314834Y-216042456D01*
X304374622Y-216173371D01*
X304374623Y-216173373D01*
X304468872Y-216282143D01*
X304589947Y-216359953D01*
X304589950Y-216359954D01*
X304589949Y-216359954D01*
X304728036Y-216400499D01*
X304728038Y-216400500D01*
X304728039Y-216400500D01*
X304871962Y-216400500D01*
X304871962Y-216400499D01*
X305010053Y-216359953D01*
X305131128Y-216282143D01*
X305225377Y-216173373D01*
X305285165Y-216042457D01*
X305290356Y-216006353D01*
X305319381Y-215942797D01*
X305378159Y-215905023D01*
X305413094Y-215900000D01*
X310536906Y-215900000D01*
X310603945Y-215919685D01*
X310649700Y-215972489D01*
X310659644Y-216006353D01*
X310664834Y-216042456D01*
X310724622Y-216173371D01*
X310724623Y-216173373D01*
X310818872Y-216282143D01*
X310939947Y-216359953D01*
X310939950Y-216359954D01*
X310939949Y-216359954D01*
X311078036Y-216400499D01*
X311078038Y-216400500D01*
X311078039Y-216400500D01*
X311221962Y-216400500D01*
X311221962Y-216400499D01*
X311360053Y-216359953D01*
X311481128Y-216282143D01*
X311575377Y-216173373D01*
X311635165Y-216042457D01*
X311640356Y-216006353D01*
X311669381Y-215942797D01*
X311728159Y-215905023D01*
X311763094Y-215900000D01*
X316886906Y-215900000D01*
X316953945Y-215919685D01*
X316999700Y-215972489D01*
X317009644Y-216006353D01*
X317014834Y-216042456D01*
X317074622Y-216173371D01*
X317074623Y-216173373D01*
X317168872Y-216282143D01*
X317289947Y-216359953D01*
X317289950Y-216359954D01*
X317289949Y-216359954D01*
X317428036Y-216400499D01*
X317428038Y-216400500D01*
X317428039Y-216400500D01*
X317571962Y-216400500D01*
X317571962Y-216400499D01*
X317710053Y-216359953D01*
X317831128Y-216282143D01*
X317925377Y-216173373D01*
X317985165Y-216042457D01*
X317990356Y-216006353D01*
X318019381Y-215942797D01*
X318078159Y-215905023D01*
X318113094Y-215900000D01*
X323236906Y-215900000D01*
X323303945Y-215919685D01*
X323349700Y-215972489D01*
X323359644Y-216006353D01*
X323364834Y-216042456D01*
X323424622Y-216173371D01*
X323424623Y-216173373D01*
X323518872Y-216282143D01*
X323639947Y-216359953D01*
X323639950Y-216359954D01*
X323639949Y-216359954D01*
X323778036Y-216400499D01*
X323778038Y-216400500D01*
X323778039Y-216400500D01*
X323921962Y-216400500D01*
X323921962Y-216400499D01*
X324060053Y-216359953D01*
X324181128Y-216282143D01*
X324275377Y-216173373D01*
X324335165Y-216042457D01*
X324340356Y-216006353D01*
X324369381Y-215942797D01*
X324428159Y-215905023D01*
X324463094Y-215900000D01*
X329586906Y-215900000D01*
X329653945Y-215919685D01*
X329699700Y-215972489D01*
X329709644Y-216006353D01*
X329714834Y-216042456D01*
X329774622Y-216173371D01*
X329774623Y-216173373D01*
X329868872Y-216282143D01*
X329989947Y-216359953D01*
X329989950Y-216359954D01*
X329989949Y-216359954D01*
X330128036Y-216400499D01*
X330128038Y-216400500D01*
X330128039Y-216400500D01*
X330271962Y-216400500D01*
X330271962Y-216400499D01*
X330410053Y-216359953D01*
X330531128Y-216282143D01*
X330625377Y-216173373D01*
X330685165Y-216042457D01*
X330690356Y-216006353D01*
X330719381Y-215942797D01*
X330778159Y-215905023D01*
X330813094Y-215900000D01*
X335936906Y-215900000D01*
X336003945Y-215919685D01*
X336049700Y-215972489D01*
X336059644Y-216006353D01*
X336064834Y-216042456D01*
X336124622Y-216173371D01*
X336124623Y-216173373D01*
X336218872Y-216282143D01*
X336339947Y-216359953D01*
X336339950Y-216359954D01*
X336339949Y-216359954D01*
X336478036Y-216400499D01*
X336478038Y-216400500D01*
X336478039Y-216400500D01*
X336621962Y-216400500D01*
X336621962Y-216400499D01*
X336760053Y-216359953D01*
X336881128Y-216282143D01*
X336975377Y-216173373D01*
X337035165Y-216042457D01*
X337040356Y-216006353D01*
X337069381Y-215942797D01*
X337128159Y-215905023D01*
X337163094Y-215900000D01*
X346928638Y-215900000D01*
X346995677Y-215919685D01*
X347016319Y-215936319D01*
X347943681Y-216863681D01*
X347977166Y-216925004D01*
X347980000Y-216951362D01*
X347980000Y-231993638D01*
X347960315Y-232060677D01*
X347943681Y-232081319D01*
X347016319Y-233008681D01*
X346954996Y-233042166D01*
X346928638Y-233045000D01*
X241300000Y-233045000D01*
X232191362Y-233045000D01*
X232124323Y-233025315D01*
X232103681Y-233008681D01*
X231176319Y-232081319D01*
X231142834Y-232019996D01*
X231140000Y-231993638D01*
X231140000Y-230969999D01*
X281894785Y-230969999D01*
X281894785Y-230970000D01*
X281913602Y-231173082D01*
X281969417Y-231369247D01*
X281969422Y-231369260D01*
X282060327Y-231551821D01*
X282183237Y-231714581D01*
X282333958Y-231851980D01*
X282333960Y-231851982D01*
X282433141Y-231913392D01*
X282507363Y-231959348D01*
X282697544Y-232033024D01*
X282898024Y-232070500D01*
X282898026Y-232070500D01*
X283101974Y-232070500D01*
X283101976Y-232070500D01*
X283302456Y-232033024D01*
X283492637Y-231959348D01*
X283666041Y-231851981D01*
X283816764Y-231714579D01*
X283939673Y-231551821D01*
X284030582Y-231369250D01*
X284086397Y-231173083D01*
X284105215Y-230970000D01*
X284105215Y-230969999D01*
X301894785Y-230969999D01*
X301894785Y-230970000D01*
X301913602Y-231173082D01*
X301969417Y-231369247D01*
X301969422Y-231369260D01*
X302060327Y-231551821D01*
X302183237Y-231714581D01*
X302333958Y-231851980D01*
X302333960Y-231851982D01*
X302433141Y-231913392D01*
X302507363Y-231959348D01*
X302697544Y-232033024D01*
X302898024Y-232070500D01*
X302898026Y-232070500D01*
X303101974Y-232070500D01*
X303101976Y-232070500D01*
X303302456Y-232033024D01*
X303492637Y-231959348D01*
X303666041Y-231851981D01*
X303816764Y-231714579D01*
X303939673Y-231551821D01*
X304030582Y-231369250D01*
X304086397Y-231173083D01*
X304105215Y-230970000D01*
X304105215Y-230969999D01*
X321894785Y-230969999D01*
X321894785Y-230970000D01*
X321913602Y-231173082D01*
X321969417Y-231369247D01*
X321969422Y-231369260D01*
X322060327Y-231551821D01*
X322183237Y-231714581D01*
X322333958Y-231851980D01*
X322333960Y-231851982D01*
X322433141Y-231913392D01*
X322507363Y-231959348D01*
X322697544Y-232033024D01*
X322898024Y-232070500D01*
X322898026Y-232070500D01*
X323101974Y-232070500D01*
X323101976Y-232070500D01*
X323302456Y-232033024D01*
X323492637Y-231959348D01*
X323666041Y-231851981D01*
X323816764Y-231714579D01*
X323939673Y-231551821D01*
X324030582Y-231369250D01*
X324086397Y-231173083D01*
X324105215Y-230970000D01*
X324105215Y-230969999D01*
X341894785Y-230969999D01*
X341894785Y-230970000D01*
X341913602Y-231173082D01*
X341969417Y-231369247D01*
X341969422Y-231369260D01*
X342060327Y-231551821D01*
X342183237Y-231714581D01*
X342333958Y-231851980D01*
X342333960Y-231851982D01*
X342433141Y-231913392D01*
X342507363Y-231959348D01*
X342697544Y-232033024D01*
X342898024Y-232070500D01*
X342898026Y-232070500D01*
X343101974Y-232070500D01*
X343101976Y-232070500D01*
X343302456Y-232033024D01*
X343492637Y-231959348D01*
X343666041Y-231851981D01*
X343816764Y-231714579D01*
X343939673Y-231551821D01*
X344030582Y-231369250D01*
X344086397Y-231173083D01*
X344105215Y-230970000D01*
X344086397Y-230766917D01*
X344030582Y-230570750D01*
X343939673Y-230388179D01*
X343816764Y-230225421D01*
X343816762Y-230225418D01*
X343666041Y-230088019D01*
X343666039Y-230088017D01*
X343492642Y-229980655D01*
X343492635Y-229980651D01*
X343397546Y-229943814D01*
X343302456Y-229906976D01*
X343101976Y-229869500D01*
X342898024Y-229869500D01*
X342697544Y-229906976D01*
X342697541Y-229906976D01*
X342697541Y-229906977D01*
X342507364Y-229980651D01*
X342507357Y-229980655D01*
X342333960Y-230088017D01*
X342333958Y-230088019D01*
X342183237Y-230225418D01*
X342060327Y-230388178D01*
X341969422Y-230570739D01*
X341969417Y-230570752D01*
X341913602Y-230766917D01*
X341894785Y-230969999D01*
X324105215Y-230969999D01*
X324086397Y-230766917D01*
X324030582Y-230570750D01*
X323939673Y-230388179D01*
X323816764Y-230225421D01*
X323816762Y-230225418D01*
X323666041Y-230088019D01*
X323666039Y-230088017D01*
X323492642Y-229980655D01*
X323492635Y-229980651D01*
X323397546Y-229943814D01*
X323302456Y-229906976D01*
X323101976Y-229869500D01*
X322898024Y-229869500D01*
X322697544Y-229906976D01*
X322697541Y-229906976D01*
X322697541Y-229906977D01*
X322507364Y-229980651D01*
X322507357Y-229980655D01*
X322333960Y-230088017D01*
X322333958Y-230088019D01*
X322183237Y-230225418D01*
X322060327Y-230388178D01*
X321969422Y-230570739D01*
X321969417Y-230570752D01*
X321913602Y-230766917D01*
X321894785Y-230969999D01*
X304105215Y-230969999D01*
X304086397Y-230766917D01*
X304030582Y-230570750D01*
X303939673Y-230388179D01*
X303816764Y-230225421D01*
X303816762Y-230225418D01*
X303666041Y-230088019D01*
X303666039Y-230088017D01*
X303492642Y-229980655D01*
X303492635Y-229980651D01*
X303397546Y-229943814D01*
X303302456Y-229906976D01*
X303101976Y-229869500D01*
X302898024Y-229869500D01*
X302697544Y-229906976D01*
X302697541Y-229906976D01*
X302697541Y-229906977D01*
X302507364Y-229980651D01*
X302507357Y-229980655D01*
X302333960Y-230088017D01*
X302333958Y-230088019D01*
X302183237Y-230225418D01*
X302060327Y-230388178D01*
X301969422Y-230570739D01*
X301969417Y-230570752D01*
X301913602Y-230766917D01*
X301894785Y-230969999D01*
X284105215Y-230969999D01*
X284086397Y-230766917D01*
X284030582Y-230570750D01*
X283939673Y-230388179D01*
X283816764Y-230225421D01*
X283816762Y-230225418D01*
X283666041Y-230088019D01*
X283666039Y-230088017D01*
X283492642Y-229980655D01*
X283492635Y-229980651D01*
X283397546Y-229943814D01*
X283302456Y-229906976D01*
X283101976Y-229869500D01*
X282898024Y-229869500D01*
X282697544Y-229906976D01*
X282697541Y-229906976D01*
X282697541Y-229906977D01*
X282507364Y-229980651D01*
X282507357Y-229980655D01*
X282333960Y-230088017D01*
X282333958Y-230088019D01*
X282183237Y-230225418D01*
X282060327Y-230388178D01*
X281969422Y-230570739D01*
X281969417Y-230570752D01*
X281913602Y-230766917D01*
X281894785Y-230969999D01*
X231140000Y-230969999D01*
X231140000Y-228600000D01*
X234444353Y-228600000D01*
X234464834Y-228742456D01*
X234524622Y-228873371D01*
X234524623Y-228873373D01*
X234618872Y-228982143D01*
X234739947Y-229059953D01*
X234739950Y-229059954D01*
X234739949Y-229059954D01*
X234878036Y-229100499D01*
X234878038Y-229100500D01*
X234878039Y-229100500D01*
X235021962Y-229100500D01*
X235021962Y-229100499D01*
X235160053Y-229059953D01*
X235281128Y-228982143D01*
X235375377Y-228873373D01*
X235435165Y-228742457D01*
X235455647Y-228600000D01*
X240794353Y-228600000D01*
X240814834Y-228742456D01*
X240874622Y-228873371D01*
X240874623Y-228873373D01*
X240968872Y-228982143D01*
X241089947Y-229059953D01*
X241089950Y-229059954D01*
X241089949Y-229059954D01*
X241228036Y-229100499D01*
X241228038Y-229100500D01*
X241228039Y-229100500D01*
X241371962Y-229100500D01*
X241371962Y-229100499D01*
X241510053Y-229059953D01*
X241631128Y-228982143D01*
X241725377Y-228873373D01*
X241785165Y-228742457D01*
X241805647Y-228600000D01*
X247144353Y-228600000D01*
X247164834Y-228742456D01*
X247224622Y-228873371D01*
X247224623Y-228873373D01*
X247318872Y-228982143D01*
X247439947Y-229059953D01*
X247439950Y-229059954D01*
X247439949Y-229059954D01*
X247578036Y-229100499D01*
X247578038Y-229100500D01*
X247578039Y-229100500D01*
X247721962Y-229100500D01*
X247721962Y-229100499D01*
X247860053Y-229059953D01*
X247981128Y-228982143D01*
X248075377Y-228873373D01*
X248135165Y-228742457D01*
X248155647Y-228600000D01*
X253494353Y-228600000D01*
X253514834Y-228742456D01*
X253574622Y-228873371D01*
X253574623Y-228873373D01*
X253668872Y-228982143D01*
X253789947Y-229059953D01*
X253789950Y-229059954D01*
X253789949Y-229059954D01*
X253928036Y-229100499D01*
X253928038Y-229100500D01*
X253928039Y-229100500D01*
X254071962Y-229100500D01*
X254071962Y-229100499D01*
X254210053Y-229059953D01*
X254331128Y-228982143D01*
X254425377Y-228873373D01*
X254485165Y-228742457D01*
X254505647Y-228600000D01*
X259844353Y-228600000D01*
X259864834Y-228742456D01*
X259924622Y-228873371D01*
X259924623Y-228873373D01*
X260018872Y-228982143D01*
X260139947Y-229059953D01*
X260139950Y-229059954D01*
X260139949Y-229059954D01*
X260278036Y-229100499D01*
X260278038Y-229100500D01*
X260278039Y-229100500D01*
X260421962Y-229100500D01*
X260421962Y-229100499D01*
X260560053Y-229059953D01*
X260681128Y-228982143D01*
X260775377Y-228873373D01*
X260835165Y-228742457D01*
X260855647Y-228600000D01*
X266194353Y-228600000D01*
X266214834Y-228742456D01*
X266274622Y-228873371D01*
X266274623Y-228873373D01*
X266368872Y-228982143D01*
X266489947Y-229059953D01*
X266489950Y-229059954D01*
X266489949Y-229059954D01*
X266628036Y-229100499D01*
X266628038Y-229100500D01*
X266628039Y-229100500D01*
X266771962Y-229100500D01*
X266771962Y-229100499D01*
X266910053Y-229059953D01*
X267031128Y-228982143D01*
X267125377Y-228873373D01*
X267185165Y-228742457D01*
X267205647Y-228600000D01*
X272544353Y-228600000D01*
X272564834Y-228742456D01*
X272624622Y-228873371D01*
X272624623Y-228873373D01*
X272718872Y-228982143D01*
X272839947Y-229059953D01*
X272839950Y-229059954D01*
X272839949Y-229059954D01*
X272978036Y-229100499D01*
X272978038Y-229100500D01*
X272978039Y-229100500D01*
X273121962Y-229100500D01*
X273121962Y-229100499D01*
X273260053Y-229059953D01*
X273381128Y-228982143D01*
X273475377Y-228873373D01*
X273535165Y-228742457D01*
X273555647Y-228600000D01*
X291594353Y-228600000D01*
X291614834Y-228742456D01*
X291674622Y-228873371D01*
X291674623Y-228873373D01*
X291768872Y-228982143D01*
X291889947Y-229059953D01*
X291889950Y-229059954D01*
X291889949Y-229059954D01*
X292028036Y-229100499D01*
X292028038Y-229100500D01*
X292028039Y-229100500D01*
X292171962Y-229100500D01*
X292171962Y-229100499D01*
X292310053Y-229059953D01*
X292431128Y-228982143D01*
X292525377Y-228873373D01*
X292585165Y-228742457D01*
X292605647Y-228600000D01*
X310644353Y-228600000D01*
X310664834Y-228742456D01*
X310724622Y-228873371D01*
X310724623Y-228873373D01*
X310818872Y-228982143D01*
X310939947Y-229059953D01*
X310939950Y-229059954D01*
X310939949Y-229059954D01*
X311078036Y-229100499D01*
X311078038Y-229100500D01*
X311078039Y-229100500D01*
X311221962Y-229100500D01*
X311221962Y-229100499D01*
X311360053Y-229059953D01*
X311481128Y-228982143D01*
X311575377Y-228873373D01*
X311635165Y-228742457D01*
X311655647Y-228600000D01*
X329694353Y-228600000D01*
X329714834Y-228742456D01*
X329774622Y-228873371D01*
X329774623Y-228873373D01*
X329868872Y-228982143D01*
X329989947Y-229059953D01*
X329989950Y-229059954D01*
X329989949Y-229059954D01*
X330128036Y-229100499D01*
X330128038Y-229100500D01*
X330128039Y-229100500D01*
X330271962Y-229100500D01*
X330271962Y-229100499D01*
X330410053Y-229059953D01*
X330531128Y-228982143D01*
X330625377Y-228873373D01*
X330685165Y-228742457D01*
X330705647Y-228600000D01*
X330685165Y-228457543D01*
X330625377Y-228326627D01*
X330531128Y-228217857D01*
X330410053Y-228140047D01*
X330410051Y-228140046D01*
X330410049Y-228140045D01*
X330410050Y-228140045D01*
X330271963Y-228099500D01*
X330271961Y-228099500D01*
X330128039Y-228099500D01*
X330128036Y-228099500D01*
X329989949Y-228140045D01*
X329868873Y-228217856D01*
X329774623Y-228326626D01*
X329774622Y-228326628D01*
X329714834Y-228457543D01*
X329694353Y-228600000D01*
X311655647Y-228600000D01*
X311635165Y-228457543D01*
X311575377Y-228326627D01*
X311481128Y-228217857D01*
X311360053Y-228140047D01*
X311360051Y-228140046D01*
X311360049Y-228140045D01*
X311360050Y-228140045D01*
X311221963Y-228099500D01*
X311221961Y-228099500D01*
X311078039Y-228099500D01*
X311078036Y-228099500D01*
X310939949Y-228140045D01*
X310818873Y-228217856D01*
X310724623Y-228326626D01*
X310724622Y-228326628D01*
X310664834Y-228457543D01*
X310644353Y-228600000D01*
X292605647Y-228600000D01*
X292585165Y-228457543D01*
X292525377Y-228326627D01*
X292431128Y-228217857D01*
X292310053Y-228140047D01*
X292310051Y-228140046D01*
X292310049Y-228140045D01*
X292310050Y-228140045D01*
X292171963Y-228099500D01*
X292171961Y-228099500D01*
X292028039Y-228099500D01*
X292028036Y-228099500D01*
X291889949Y-228140045D01*
X291768873Y-228217856D01*
X291674623Y-228326626D01*
X291674622Y-228326628D01*
X291614834Y-228457543D01*
X291594353Y-228600000D01*
X273555647Y-228600000D01*
X273535165Y-228457543D01*
X273475377Y-228326627D01*
X273381128Y-228217857D01*
X273260053Y-228140047D01*
X273260051Y-228140046D01*
X273260049Y-228140045D01*
X273260050Y-228140045D01*
X273121963Y-228099500D01*
X273121961Y-228099500D01*
X272978039Y-228099500D01*
X272978036Y-228099500D01*
X272839949Y-228140045D01*
X272718873Y-228217856D01*
X272624623Y-228326626D01*
X272624622Y-228326628D01*
X272564834Y-228457543D01*
X272544353Y-228600000D01*
X267205647Y-228600000D01*
X267185165Y-228457543D01*
X267125377Y-228326627D01*
X267031128Y-228217857D01*
X266910053Y-228140047D01*
X266910051Y-228140046D01*
X266910049Y-228140045D01*
X266910050Y-228140045D01*
X266771963Y-228099500D01*
X266771961Y-228099500D01*
X266628039Y-228099500D01*
X266628036Y-228099500D01*
X266489949Y-228140045D01*
X266368873Y-228217856D01*
X266274623Y-228326626D01*
X266274622Y-228326628D01*
X266214834Y-228457543D01*
X266194353Y-228600000D01*
X260855647Y-228600000D01*
X260835165Y-228457543D01*
X260775377Y-228326627D01*
X260681128Y-228217857D01*
X260560053Y-228140047D01*
X260560051Y-228140046D01*
X260560049Y-228140045D01*
X260560050Y-228140045D01*
X260421963Y-228099500D01*
X260421961Y-228099500D01*
X260278039Y-228099500D01*
X260278036Y-228099500D01*
X260139949Y-228140045D01*
X260018873Y-228217856D01*
X259924623Y-228326626D01*
X259924622Y-228326628D01*
X259864834Y-228457543D01*
X259844353Y-228600000D01*
X254505647Y-228600000D01*
X254485165Y-228457543D01*
X254425377Y-228326627D01*
X254331128Y-228217857D01*
X254210053Y-228140047D01*
X254210051Y-228140046D01*
X254210049Y-228140045D01*
X254210050Y-228140045D01*
X254071963Y-228099500D01*
X254071961Y-228099500D01*
X253928039Y-228099500D01*
X253928036Y-228099500D01*
X253789949Y-228140045D01*
X253668873Y-228217856D01*
X253574623Y-228326626D01*
X253574622Y-228326628D01*
X253514834Y-228457543D01*
X253494353Y-228600000D01*
X248155647Y-228600000D01*
X248135165Y-228457543D01*
X248075377Y-228326627D01*
X247981128Y-228217857D01*
X247860053Y-228140047D01*
X247860051Y-228140046D01*
X247860049Y-228140045D01*
X247860050Y-228140045D01*
X247721963Y-228099500D01*
X247721961Y-228099500D01*
X247578039Y-228099500D01*
X247578036Y-228099500D01*
X247439949Y-228140045D01*
X247318873Y-228217856D01*
X247224623Y-228326626D01*
X247224622Y-228326628D01*
X247164834Y-228457543D01*
X247144353Y-228600000D01*
X241805647Y-228600000D01*
X241785165Y-228457543D01*
X241725377Y-228326627D01*
X241631128Y-228217857D01*
X241510053Y-228140047D01*
X241510051Y-228140046D01*
X241510049Y-228140045D01*
X241510050Y-228140045D01*
X241371963Y-228099500D01*
X241371961Y-228099500D01*
X241228039Y-228099500D01*
X241228036Y-228099500D01*
X241089949Y-228140045D01*
X240968873Y-228217856D01*
X240874623Y-228326626D01*
X240874622Y-228326628D01*
X240814834Y-228457543D01*
X240794353Y-228600000D01*
X235455647Y-228600000D01*
X235435165Y-228457543D01*
X235375377Y-228326627D01*
X235281128Y-228217857D01*
X235160053Y-228140047D01*
X235160051Y-228140046D01*
X235160049Y-228140045D01*
X235160050Y-228140045D01*
X235021963Y-228099500D01*
X235021961Y-228099500D01*
X234878039Y-228099500D01*
X234878036Y-228099500D01*
X234739949Y-228140045D01*
X234618873Y-228217856D01*
X234524623Y-228326626D01*
X234524622Y-228326628D01*
X234464834Y-228457543D01*
X234444353Y-228600000D01*
X231140000Y-228600000D01*
X231140000Y-227159994D01*
X281595202Y-227159994D01*
X281595202Y-227160005D01*
X281614361Y-227391218D01*
X281671317Y-227616135D01*
X281764515Y-227828606D01*
X281848812Y-227957633D01*
X282435387Y-227371058D01*
X282440889Y-227391591D01*
X282519881Y-227528408D01*
X282631592Y-227640119D01*
X282768409Y-227719111D01*
X282788940Y-227724612D01*
X282201201Y-228312351D01*
X282231649Y-228336050D01*
X282435697Y-228446476D01*
X282435706Y-228446479D01*
X282655139Y-228521811D01*
X282883993Y-228560000D01*
X283116007Y-228560000D01*
X283344860Y-228521811D01*
X283564293Y-228446479D01*
X283564301Y-228446476D01*
X283768355Y-228336047D01*
X283798797Y-228312351D01*
X283798798Y-228312350D01*
X283211060Y-227724612D01*
X283231591Y-227719111D01*
X283368408Y-227640119D01*
X283480119Y-227528408D01*
X283559111Y-227391591D01*
X283564612Y-227371059D01*
X284151186Y-227957633D01*
X284235482Y-227828611D01*
X284328682Y-227616135D01*
X284385638Y-227391218D01*
X284404798Y-227160005D01*
X284404798Y-227159994D01*
X301595202Y-227159994D01*
X301595202Y-227160005D01*
X301614361Y-227391218D01*
X301671317Y-227616135D01*
X301764515Y-227828606D01*
X301848812Y-227957633D01*
X302435387Y-227371058D01*
X302440889Y-227391591D01*
X302519881Y-227528408D01*
X302631592Y-227640119D01*
X302768409Y-227719111D01*
X302788940Y-227724612D01*
X302201201Y-228312351D01*
X302231649Y-228336050D01*
X302435697Y-228446476D01*
X302435706Y-228446479D01*
X302655139Y-228521811D01*
X302883993Y-228560000D01*
X303116007Y-228560000D01*
X303344860Y-228521811D01*
X303564293Y-228446479D01*
X303564301Y-228446476D01*
X303768355Y-228336047D01*
X303798797Y-228312351D01*
X303798798Y-228312350D01*
X303211060Y-227724612D01*
X303231591Y-227719111D01*
X303368408Y-227640119D01*
X303480119Y-227528408D01*
X303559111Y-227391591D01*
X303564612Y-227371059D01*
X304151186Y-227957633D01*
X304235482Y-227828611D01*
X304328682Y-227616135D01*
X304385638Y-227391218D01*
X304404798Y-227160005D01*
X304404798Y-227159994D01*
X321595202Y-227159994D01*
X321595202Y-227160005D01*
X321614361Y-227391218D01*
X321671317Y-227616135D01*
X321764515Y-227828606D01*
X321848812Y-227957633D01*
X322435387Y-227371058D01*
X322440889Y-227391591D01*
X322519881Y-227528408D01*
X322631592Y-227640119D01*
X322768409Y-227719111D01*
X322788940Y-227724612D01*
X322201201Y-228312351D01*
X322231649Y-228336050D01*
X322435697Y-228446476D01*
X322435706Y-228446479D01*
X322655139Y-228521811D01*
X322883993Y-228560000D01*
X323116007Y-228560000D01*
X323344860Y-228521811D01*
X323564293Y-228446479D01*
X323564301Y-228446476D01*
X323768355Y-228336047D01*
X323798797Y-228312351D01*
X323798798Y-228312350D01*
X323211060Y-227724612D01*
X323231591Y-227719111D01*
X323368408Y-227640119D01*
X323480119Y-227528408D01*
X323559111Y-227391591D01*
X323564612Y-227371059D01*
X324151186Y-227957633D01*
X324235482Y-227828611D01*
X324328682Y-227616135D01*
X324385638Y-227391218D01*
X324404798Y-227160005D01*
X324404798Y-227159994D01*
X341595202Y-227159994D01*
X341595202Y-227160005D01*
X341614361Y-227391218D01*
X341671317Y-227616135D01*
X341764515Y-227828606D01*
X341848812Y-227957633D01*
X342435387Y-227371058D01*
X342440889Y-227391591D01*
X342519881Y-227528408D01*
X342631592Y-227640119D01*
X342768409Y-227719111D01*
X342788940Y-227724612D01*
X342201201Y-228312351D01*
X342231649Y-228336050D01*
X342435697Y-228446476D01*
X342435706Y-228446479D01*
X342655139Y-228521811D01*
X342883993Y-228560000D01*
X343116007Y-228560000D01*
X343344860Y-228521811D01*
X343564293Y-228446479D01*
X343564301Y-228446476D01*
X343768355Y-228336047D01*
X343798797Y-228312351D01*
X343798798Y-228312350D01*
X343211060Y-227724612D01*
X343231591Y-227719111D01*
X343368408Y-227640119D01*
X343480119Y-227528408D01*
X343559111Y-227391591D01*
X343564612Y-227371059D01*
X344151186Y-227957633D01*
X344235482Y-227828611D01*
X344328682Y-227616135D01*
X344385638Y-227391218D01*
X344404798Y-227160005D01*
X344404798Y-227159994D01*
X344385638Y-226928781D01*
X344328682Y-226703864D01*
X344235484Y-226491393D01*
X344151186Y-226362365D01*
X343564612Y-226948939D01*
X343559111Y-226928409D01*
X343480119Y-226791592D01*
X343368408Y-226679881D01*
X343231591Y-226600889D01*
X343211058Y-226595387D01*
X343798797Y-226007647D01*
X343798797Y-226007645D01*
X343768360Y-225983955D01*
X343768354Y-225983951D01*
X343564302Y-225873523D01*
X343564293Y-225873520D01*
X343344860Y-225798188D01*
X343116007Y-225760000D01*
X342883993Y-225760000D01*
X342655139Y-225798188D01*
X342435706Y-225873520D01*
X342435697Y-225873523D01*
X342231650Y-225983949D01*
X342201200Y-226007647D01*
X342788941Y-226595387D01*
X342768409Y-226600889D01*
X342631592Y-226679881D01*
X342519881Y-226791592D01*
X342440889Y-226928409D01*
X342435387Y-226948941D01*
X341848811Y-226362365D01*
X341764516Y-226491390D01*
X341671317Y-226703864D01*
X341614361Y-226928781D01*
X341595202Y-227159994D01*
X324404798Y-227159994D01*
X324385638Y-226928781D01*
X324328682Y-226703864D01*
X324235484Y-226491393D01*
X324151186Y-226362365D01*
X323564612Y-226948939D01*
X323559111Y-226928409D01*
X323480119Y-226791592D01*
X323368408Y-226679881D01*
X323231591Y-226600889D01*
X323211058Y-226595387D01*
X323798797Y-226007647D01*
X323798797Y-226007645D01*
X323768360Y-225983955D01*
X323768354Y-225983951D01*
X323564302Y-225873523D01*
X323564293Y-225873520D01*
X323344860Y-225798188D01*
X323116007Y-225760000D01*
X322883993Y-225760000D01*
X322655139Y-225798188D01*
X322435706Y-225873520D01*
X322435697Y-225873523D01*
X322231650Y-225983949D01*
X322201200Y-226007647D01*
X322788941Y-226595387D01*
X322768409Y-226600889D01*
X322631592Y-226679881D01*
X322519881Y-226791592D01*
X322440889Y-226928409D01*
X322435387Y-226948941D01*
X321848811Y-226362365D01*
X321764516Y-226491390D01*
X321671317Y-226703864D01*
X321614361Y-226928781D01*
X321595202Y-227159994D01*
X304404798Y-227159994D01*
X304385638Y-226928781D01*
X304328682Y-226703864D01*
X304235484Y-226491393D01*
X304151186Y-226362365D01*
X303564612Y-226948939D01*
X303559111Y-226928409D01*
X303480119Y-226791592D01*
X303368408Y-226679881D01*
X303231591Y-226600889D01*
X303211058Y-226595387D01*
X303798797Y-226007647D01*
X303798797Y-226007645D01*
X303768360Y-225983955D01*
X303768354Y-225983951D01*
X303564302Y-225873523D01*
X303564293Y-225873520D01*
X303344860Y-225798188D01*
X303116007Y-225760000D01*
X302883993Y-225760000D01*
X302655139Y-225798188D01*
X302435706Y-225873520D01*
X302435697Y-225873523D01*
X302231650Y-225983949D01*
X302201200Y-226007647D01*
X302788941Y-226595387D01*
X302768409Y-226600889D01*
X302631592Y-226679881D01*
X302519881Y-226791592D01*
X302440889Y-226928409D01*
X302435387Y-226948940D01*
X301848811Y-226362365D01*
X301764516Y-226491390D01*
X301671317Y-226703864D01*
X301614361Y-226928781D01*
X301595202Y-227159994D01*
X284404798Y-227159994D01*
X284385638Y-226928781D01*
X284328682Y-226703864D01*
X284235484Y-226491393D01*
X284151186Y-226362365D01*
X283564612Y-226948939D01*
X283559111Y-226928409D01*
X283480119Y-226791592D01*
X283368408Y-226679881D01*
X283231591Y-226600889D01*
X283211058Y-226595387D01*
X283798797Y-226007647D01*
X283798797Y-226007645D01*
X283768360Y-225983955D01*
X283768354Y-225983951D01*
X283564302Y-225873523D01*
X283564293Y-225873520D01*
X283344860Y-225798188D01*
X283116007Y-225760000D01*
X282883993Y-225760000D01*
X282655139Y-225798188D01*
X282435706Y-225873520D01*
X282435697Y-225873523D01*
X282231650Y-225983949D01*
X282201200Y-226007647D01*
X282788941Y-226595387D01*
X282768409Y-226600889D01*
X282631592Y-226679881D01*
X282519881Y-226791592D01*
X282440889Y-226928409D01*
X282435387Y-226948941D01*
X281848811Y-226362365D01*
X281764516Y-226491390D01*
X281671317Y-226703864D01*
X281614361Y-226928781D01*
X281595202Y-227159994D01*
X231140000Y-227159994D01*
X231140000Y-223349999D01*
X281894785Y-223349999D01*
X281894785Y-223350000D01*
X281913602Y-223553082D01*
X281969417Y-223749247D01*
X281969422Y-223749260D01*
X282060327Y-223931821D01*
X282183237Y-224094581D01*
X282333958Y-224231980D01*
X282333960Y-224231982D01*
X282433141Y-224293392D01*
X282507363Y-224339348D01*
X282697544Y-224413024D01*
X282898024Y-224450500D01*
X282898026Y-224450500D01*
X283101974Y-224450500D01*
X283101976Y-224450500D01*
X283302456Y-224413024D01*
X283492637Y-224339348D01*
X283666041Y-224231981D01*
X283816764Y-224094579D01*
X283939673Y-223931821D01*
X284030582Y-223749250D01*
X284086397Y-223553083D01*
X284105215Y-223350000D01*
X284105215Y-223349999D01*
X301894785Y-223349999D01*
X301894785Y-223350000D01*
X301913602Y-223553082D01*
X301969417Y-223749247D01*
X301969422Y-223749260D01*
X302060327Y-223931821D01*
X302183237Y-224094581D01*
X302333958Y-224231980D01*
X302333960Y-224231982D01*
X302433141Y-224293392D01*
X302507363Y-224339348D01*
X302697544Y-224413024D01*
X302898024Y-224450500D01*
X302898026Y-224450500D01*
X303101974Y-224450500D01*
X303101976Y-224450500D01*
X303302456Y-224413024D01*
X303492637Y-224339348D01*
X303666041Y-224231981D01*
X303816764Y-224094579D01*
X303939673Y-223931821D01*
X304030582Y-223749250D01*
X304086397Y-223553083D01*
X304105215Y-223350000D01*
X304105215Y-223349999D01*
X321894785Y-223349999D01*
X321894785Y-223350000D01*
X321913602Y-223553082D01*
X321969417Y-223749247D01*
X321969422Y-223749260D01*
X322060327Y-223931821D01*
X322183237Y-224094581D01*
X322333958Y-224231980D01*
X322333960Y-224231982D01*
X322433141Y-224293392D01*
X322507363Y-224339348D01*
X322697544Y-224413024D01*
X322898024Y-224450500D01*
X322898026Y-224450500D01*
X323101974Y-224450500D01*
X323101976Y-224450500D01*
X323302456Y-224413024D01*
X323492637Y-224339348D01*
X323666041Y-224231981D01*
X323816764Y-224094579D01*
X323939673Y-223931821D01*
X324030582Y-223749250D01*
X324086397Y-223553083D01*
X324105215Y-223350000D01*
X324105215Y-223349999D01*
X341894785Y-223349999D01*
X341894785Y-223350000D01*
X341913602Y-223553082D01*
X341969417Y-223749247D01*
X341969422Y-223749260D01*
X342060327Y-223931821D01*
X342183237Y-224094581D01*
X342333958Y-224231980D01*
X342333960Y-224231982D01*
X342433141Y-224293392D01*
X342507363Y-224339348D01*
X342697544Y-224413024D01*
X342898024Y-224450500D01*
X342898026Y-224450500D01*
X343101974Y-224450500D01*
X343101976Y-224450500D01*
X343302456Y-224413024D01*
X343492637Y-224339348D01*
X343666041Y-224231981D01*
X343816764Y-224094579D01*
X343939673Y-223931821D01*
X344030582Y-223749250D01*
X344086397Y-223553083D01*
X344105215Y-223350000D01*
X344086397Y-223146917D01*
X344030582Y-222950750D01*
X343939673Y-222768179D01*
X343880704Y-222690091D01*
X343816762Y-222605418D01*
X343666041Y-222468019D01*
X343666039Y-222468017D01*
X343492642Y-222360655D01*
X343492635Y-222360651D01*
X343397546Y-222323814D01*
X343302456Y-222286976D01*
X343101976Y-222249500D01*
X342898024Y-222249500D01*
X342697544Y-222286976D01*
X342697541Y-222286976D01*
X342697541Y-222286977D01*
X342507364Y-222360651D01*
X342507357Y-222360655D01*
X342333960Y-222468017D01*
X342333958Y-222468019D01*
X342183237Y-222605418D01*
X342060327Y-222768178D01*
X341969422Y-222950739D01*
X341969417Y-222950752D01*
X341913602Y-223146917D01*
X341894785Y-223349999D01*
X324105215Y-223349999D01*
X324086397Y-223146917D01*
X324030582Y-222950750D01*
X323939673Y-222768179D01*
X323880704Y-222690091D01*
X323816762Y-222605418D01*
X323666041Y-222468019D01*
X323666039Y-222468017D01*
X323492642Y-222360655D01*
X323492635Y-222360651D01*
X323397546Y-222323814D01*
X323302456Y-222286976D01*
X323104651Y-222250000D01*
X329694353Y-222250000D01*
X329714834Y-222392456D01*
X329749342Y-222468017D01*
X329774623Y-222523373D01*
X329868872Y-222632143D01*
X329989947Y-222709953D01*
X329989950Y-222709954D01*
X329989949Y-222709954D01*
X330128036Y-222750499D01*
X330128038Y-222750500D01*
X330128039Y-222750500D01*
X330271962Y-222750500D01*
X330271962Y-222750499D01*
X330410053Y-222709953D01*
X330531128Y-222632143D01*
X330625377Y-222523373D01*
X330685165Y-222392457D01*
X330705647Y-222250000D01*
X330685165Y-222107543D01*
X330625377Y-221976627D01*
X330531128Y-221867857D01*
X330410053Y-221790047D01*
X330410051Y-221790046D01*
X330410049Y-221790045D01*
X330410050Y-221790045D01*
X330271963Y-221749500D01*
X330271961Y-221749500D01*
X330128039Y-221749500D01*
X330128036Y-221749500D01*
X329989949Y-221790045D01*
X329868873Y-221867856D01*
X329774623Y-221976626D01*
X329774622Y-221976628D01*
X329714834Y-222107543D01*
X329694353Y-222250000D01*
X323104651Y-222250000D01*
X323101976Y-222249500D01*
X322898024Y-222249500D01*
X322697544Y-222286976D01*
X322697541Y-222286976D01*
X322697541Y-222286977D01*
X322507364Y-222360651D01*
X322507357Y-222360655D01*
X322333960Y-222468017D01*
X322333958Y-222468019D01*
X322183237Y-222605418D01*
X322060327Y-222768178D01*
X321969422Y-222950739D01*
X321969417Y-222950752D01*
X321913602Y-223146917D01*
X321894785Y-223349999D01*
X304105215Y-223349999D01*
X304086397Y-223146917D01*
X304030582Y-222950750D01*
X303939673Y-222768179D01*
X303880704Y-222690091D01*
X303816762Y-222605418D01*
X303666041Y-222468019D01*
X303666039Y-222468017D01*
X303492642Y-222360655D01*
X303492635Y-222360651D01*
X303397546Y-222323814D01*
X303302456Y-222286976D01*
X303104651Y-222250000D01*
X310644353Y-222250000D01*
X310664834Y-222392456D01*
X310699342Y-222468017D01*
X310724623Y-222523373D01*
X310818872Y-222632143D01*
X310939947Y-222709953D01*
X310939950Y-222709954D01*
X310939949Y-222709954D01*
X311078036Y-222750499D01*
X311078038Y-222750500D01*
X311078039Y-222750500D01*
X311221962Y-222750500D01*
X311221962Y-222750499D01*
X311360053Y-222709953D01*
X311481128Y-222632143D01*
X311575377Y-222523373D01*
X311635165Y-222392457D01*
X311655647Y-222250000D01*
X311635165Y-222107543D01*
X311575377Y-221976627D01*
X311481128Y-221867857D01*
X311360053Y-221790047D01*
X311360051Y-221790046D01*
X311360049Y-221790045D01*
X311360050Y-221790045D01*
X311221963Y-221749500D01*
X311221961Y-221749500D01*
X311078039Y-221749500D01*
X311078036Y-221749500D01*
X310939949Y-221790045D01*
X310818873Y-221867856D01*
X310724623Y-221976626D01*
X310724622Y-221976628D01*
X310664834Y-222107543D01*
X310644353Y-222250000D01*
X303104651Y-222250000D01*
X303101976Y-222249500D01*
X302898024Y-222249500D01*
X302697544Y-222286976D01*
X302697541Y-222286976D01*
X302697541Y-222286977D01*
X302507364Y-222360651D01*
X302507357Y-222360655D01*
X302333960Y-222468017D01*
X302333958Y-222468019D01*
X302183237Y-222605418D01*
X302060327Y-222768178D01*
X301969422Y-222950739D01*
X301969417Y-222950752D01*
X301913602Y-223146917D01*
X301894785Y-223349999D01*
X284105215Y-223349999D01*
X284086397Y-223146917D01*
X284030582Y-222950750D01*
X283939673Y-222768179D01*
X283880704Y-222690091D01*
X283816762Y-222605418D01*
X283666041Y-222468019D01*
X283666039Y-222468017D01*
X283492642Y-222360655D01*
X283492635Y-222360651D01*
X283397546Y-222323814D01*
X283302456Y-222286976D01*
X283104651Y-222250000D01*
X291594353Y-222250000D01*
X291614834Y-222392456D01*
X291649342Y-222468017D01*
X291674623Y-222523373D01*
X291768872Y-222632143D01*
X291889947Y-222709953D01*
X291889950Y-222709954D01*
X291889949Y-222709954D01*
X292028036Y-222750499D01*
X292028038Y-222750500D01*
X292028039Y-222750500D01*
X292171962Y-222750500D01*
X292171962Y-222750499D01*
X292310053Y-222709953D01*
X292431128Y-222632143D01*
X292525377Y-222523373D01*
X292585165Y-222392457D01*
X292605647Y-222250000D01*
X292585165Y-222107543D01*
X292525377Y-221976627D01*
X292431128Y-221867857D01*
X292310053Y-221790047D01*
X292310051Y-221790046D01*
X292310049Y-221790045D01*
X292310050Y-221790045D01*
X292171963Y-221749500D01*
X292171961Y-221749500D01*
X292028039Y-221749500D01*
X292028036Y-221749500D01*
X291889949Y-221790045D01*
X291768873Y-221867856D01*
X291674623Y-221976626D01*
X291674622Y-221976628D01*
X291614834Y-222107543D01*
X291594353Y-222250000D01*
X283104651Y-222250000D01*
X283101976Y-222249500D01*
X282898024Y-222249500D01*
X282697544Y-222286976D01*
X282697541Y-222286976D01*
X282697541Y-222286977D01*
X282507364Y-222360651D01*
X282507357Y-222360655D01*
X282333960Y-222468017D01*
X282333958Y-222468019D01*
X282183237Y-222605418D01*
X282060327Y-222768178D01*
X281969422Y-222950739D01*
X281969417Y-222950752D01*
X281913602Y-223146917D01*
X281894785Y-223349999D01*
X231140000Y-223349999D01*
X231140000Y-222250000D01*
X234444353Y-222250000D01*
X234464834Y-222392456D01*
X234499342Y-222468017D01*
X234524623Y-222523373D01*
X234618872Y-222632143D01*
X234739947Y-222709953D01*
X234739950Y-222709954D01*
X234739949Y-222709954D01*
X234878036Y-222750499D01*
X234878038Y-222750500D01*
X234878039Y-222750500D01*
X235021962Y-222750500D01*
X235021962Y-222750499D01*
X235160053Y-222709953D01*
X235281128Y-222632143D01*
X235375377Y-222523373D01*
X235435165Y-222392457D01*
X235455647Y-222250000D01*
X240794353Y-222250000D01*
X240814834Y-222392456D01*
X240849342Y-222468017D01*
X240874623Y-222523373D01*
X240968872Y-222632143D01*
X241089947Y-222709953D01*
X241089950Y-222709954D01*
X241089949Y-222709954D01*
X241228036Y-222750499D01*
X241228038Y-222750500D01*
X241228039Y-222750500D01*
X241371962Y-222750500D01*
X241371962Y-222750499D01*
X241510053Y-222709953D01*
X241631128Y-222632143D01*
X241725377Y-222523373D01*
X241785165Y-222392457D01*
X241805647Y-222250000D01*
X247144353Y-222250000D01*
X247164834Y-222392456D01*
X247199342Y-222468017D01*
X247224623Y-222523373D01*
X247318872Y-222632143D01*
X247439947Y-222709953D01*
X247439950Y-222709954D01*
X247439949Y-222709954D01*
X247578036Y-222750499D01*
X247578038Y-222750500D01*
X247578039Y-222750500D01*
X247721962Y-222750500D01*
X247721962Y-222750499D01*
X247860053Y-222709953D01*
X247981128Y-222632143D01*
X248075377Y-222523373D01*
X248135165Y-222392457D01*
X248155647Y-222250000D01*
X253494353Y-222250000D01*
X253514834Y-222392456D01*
X253549342Y-222468017D01*
X253574623Y-222523373D01*
X253668872Y-222632143D01*
X253789947Y-222709953D01*
X253789950Y-222709954D01*
X253789949Y-222709954D01*
X253928036Y-222750499D01*
X253928038Y-222750500D01*
X253928039Y-222750500D01*
X254071962Y-222750500D01*
X254071962Y-222750499D01*
X254210053Y-222709953D01*
X254331128Y-222632143D01*
X254425377Y-222523373D01*
X254485165Y-222392457D01*
X254505647Y-222250000D01*
X259844353Y-222250000D01*
X259864834Y-222392456D01*
X259899342Y-222468017D01*
X259924623Y-222523373D01*
X260018872Y-222632143D01*
X260139947Y-222709953D01*
X260139950Y-222709954D01*
X260139949Y-222709954D01*
X260278036Y-222750499D01*
X260278038Y-222750500D01*
X260278039Y-222750500D01*
X260421962Y-222750500D01*
X260421962Y-222750499D01*
X260560053Y-222709953D01*
X260681128Y-222632143D01*
X260775377Y-222523373D01*
X260835165Y-222392457D01*
X260855647Y-222250000D01*
X266194353Y-222250000D01*
X266214834Y-222392456D01*
X266249342Y-222468017D01*
X266274623Y-222523373D01*
X266368872Y-222632143D01*
X266489947Y-222709953D01*
X266489950Y-222709954D01*
X266489949Y-222709954D01*
X266628036Y-222750499D01*
X266628038Y-222750500D01*
X266628039Y-222750500D01*
X266771962Y-222750500D01*
X266771962Y-222750499D01*
X266910053Y-222709953D01*
X267031128Y-222632143D01*
X267125377Y-222523373D01*
X267185165Y-222392457D01*
X267205647Y-222250000D01*
X272544353Y-222250000D01*
X272564834Y-222392456D01*
X272599342Y-222468017D01*
X272624623Y-222523373D01*
X272718872Y-222632143D01*
X272839947Y-222709953D01*
X272839950Y-222709954D01*
X272839949Y-222709954D01*
X272978036Y-222750499D01*
X272978038Y-222750500D01*
X272978039Y-222750500D01*
X273121962Y-222750500D01*
X273121962Y-222750499D01*
X273260053Y-222709953D01*
X273381128Y-222632143D01*
X273475377Y-222523373D01*
X273535165Y-222392457D01*
X273555647Y-222250000D01*
X273535165Y-222107543D01*
X273475377Y-221976627D01*
X273381128Y-221867857D01*
X273260053Y-221790047D01*
X273260051Y-221790046D01*
X273260049Y-221790045D01*
X273260050Y-221790045D01*
X273121963Y-221749500D01*
X273121961Y-221749500D01*
X272978039Y-221749500D01*
X272978036Y-221749500D01*
X272839949Y-221790045D01*
X272718873Y-221867856D01*
X272624623Y-221976626D01*
X272624622Y-221976628D01*
X272564834Y-222107543D01*
X272544353Y-222250000D01*
X267205647Y-222250000D01*
X267185165Y-222107543D01*
X267125377Y-221976627D01*
X267031128Y-221867857D01*
X266910053Y-221790047D01*
X266910051Y-221790046D01*
X266910049Y-221790045D01*
X266910050Y-221790045D01*
X266771963Y-221749500D01*
X266771961Y-221749500D01*
X266628039Y-221749500D01*
X266628036Y-221749500D01*
X266489949Y-221790045D01*
X266368873Y-221867856D01*
X266274623Y-221976626D01*
X266274622Y-221976628D01*
X266214834Y-222107543D01*
X266194353Y-222250000D01*
X260855647Y-222250000D01*
X260835165Y-222107543D01*
X260775377Y-221976627D01*
X260681128Y-221867857D01*
X260560053Y-221790047D01*
X260560051Y-221790046D01*
X260560049Y-221790045D01*
X260560050Y-221790045D01*
X260421963Y-221749500D01*
X260421961Y-221749500D01*
X260278039Y-221749500D01*
X260278036Y-221749500D01*
X260139949Y-221790045D01*
X260018873Y-221867856D01*
X259924623Y-221976626D01*
X259924622Y-221976628D01*
X259864834Y-222107543D01*
X259844353Y-222250000D01*
X254505647Y-222250000D01*
X254485165Y-222107543D01*
X254425377Y-221976627D01*
X254331128Y-221867857D01*
X254210053Y-221790047D01*
X254210051Y-221790046D01*
X254210049Y-221790045D01*
X254210050Y-221790045D01*
X254071963Y-221749500D01*
X254071961Y-221749500D01*
X253928039Y-221749500D01*
X253928036Y-221749500D01*
X253789949Y-221790045D01*
X253668873Y-221867856D01*
X253574623Y-221976626D01*
X253574622Y-221976628D01*
X253514834Y-222107543D01*
X253494353Y-222250000D01*
X248155647Y-222250000D01*
X248135165Y-222107543D01*
X248075377Y-221976627D01*
X247981128Y-221867857D01*
X247860053Y-221790047D01*
X247860051Y-221790046D01*
X247860049Y-221790045D01*
X247860050Y-221790045D01*
X247721963Y-221749500D01*
X247721961Y-221749500D01*
X247578039Y-221749500D01*
X247578036Y-221749500D01*
X247439949Y-221790045D01*
X247318873Y-221867856D01*
X247224623Y-221976626D01*
X247224622Y-221976628D01*
X247164834Y-222107543D01*
X247144353Y-222250000D01*
X241805647Y-222250000D01*
X241785165Y-222107543D01*
X241725377Y-221976627D01*
X241631128Y-221867857D01*
X241510053Y-221790047D01*
X241510051Y-221790046D01*
X241510049Y-221790045D01*
X241510050Y-221790045D01*
X241371963Y-221749500D01*
X241371961Y-221749500D01*
X241228039Y-221749500D01*
X241228036Y-221749500D01*
X241089949Y-221790045D01*
X240968873Y-221867856D01*
X240874623Y-221976626D01*
X240874622Y-221976628D01*
X240814834Y-222107543D01*
X240794353Y-222250000D01*
X235455647Y-222250000D01*
X235435165Y-222107543D01*
X235375377Y-221976627D01*
X235281128Y-221867857D01*
X235160053Y-221790047D01*
X235160051Y-221790046D01*
X235160049Y-221790045D01*
X235160050Y-221790045D01*
X235021963Y-221749500D01*
X235021961Y-221749500D01*
X234878039Y-221749500D01*
X234878036Y-221749500D01*
X234739949Y-221790045D01*
X234618873Y-221867856D01*
X234524623Y-221976626D01*
X234524622Y-221976628D01*
X234464834Y-222107543D01*
X234444353Y-222250000D01*
X231140000Y-222250000D01*
X231140000Y-219539994D01*
X281595202Y-219539994D01*
X281595202Y-219540005D01*
X281614361Y-219771218D01*
X281671317Y-219996135D01*
X281764515Y-220208606D01*
X281848812Y-220337633D01*
X282435387Y-219751058D01*
X282440889Y-219771591D01*
X282519881Y-219908408D01*
X282631592Y-220020119D01*
X282768409Y-220099111D01*
X282788940Y-220104612D01*
X282201201Y-220692351D01*
X282231649Y-220716050D01*
X282435697Y-220826476D01*
X282435706Y-220826479D01*
X282655139Y-220901811D01*
X282883993Y-220940000D01*
X283116007Y-220940000D01*
X283344860Y-220901811D01*
X283564293Y-220826479D01*
X283564301Y-220826476D01*
X283768355Y-220716047D01*
X283798797Y-220692351D01*
X283798798Y-220692350D01*
X283211060Y-220104612D01*
X283231591Y-220099111D01*
X283368408Y-220020119D01*
X283480119Y-219908408D01*
X283559111Y-219771591D01*
X283564612Y-219751059D01*
X284151186Y-220337633D01*
X284235482Y-220208611D01*
X284328682Y-219996135D01*
X284385638Y-219771218D01*
X284404798Y-219540005D01*
X284404798Y-219539994D01*
X301595202Y-219539994D01*
X301595202Y-219540005D01*
X301614361Y-219771218D01*
X301671317Y-219996135D01*
X301764515Y-220208606D01*
X301848812Y-220337633D01*
X302435387Y-219751058D01*
X302440889Y-219771591D01*
X302519881Y-219908408D01*
X302631592Y-220020119D01*
X302768409Y-220099111D01*
X302788940Y-220104612D01*
X302201201Y-220692351D01*
X302231649Y-220716050D01*
X302435697Y-220826476D01*
X302435706Y-220826479D01*
X302655139Y-220901811D01*
X302883993Y-220940000D01*
X303116007Y-220940000D01*
X303344860Y-220901811D01*
X303564293Y-220826479D01*
X303564301Y-220826476D01*
X303768355Y-220716047D01*
X303798797Y-220692351D01*
X303798798Y-220692350D01*
X303211060Y-220104612D01*
X303231591Y-220099111D01*
X303368408Y-220020119D01*
X303480119Y-219908408D01*
X303559111Y-219771591D01*
X303564612Y-219751059D01*
X304151186Y-220337633D01*
X304235482Y-220208611D01*
X304328682Y-219996135D01*
X304385638Y-219771218D01*
X304404798Y-219540005D01*
X304404798Y-219539994D01*
X321595202Y-219539994D01*
X321595202Y-219540005D01*
X321614361Y-219771218D01*
X321671317Y-219996135D01*
X321764515Y-220208606D01*
X321848812Y-220337633D01*
X322435387Y-219751058D01*
X322440889Y-219771591D01*
X322519881Y-219908408D01*
X322631592Y-220020119D01*
X322768409Y-220099111D01*
X322788940Y-220104612D01*
X322201201Y-220692351D01*
X322231649Y-220716050D01*
X322435697Y-220826476D01*
X322435706Y-220826479D01*
X322655139Y-220901811D01*
X322883993Y-220940000D01*
X323116007Y-220940000D01*
X323344860Y-220901811D01*
X323564293Y-220826479D01*
X323564301Y-220826476D01*
X323768355Y-220716047D01*
X323798797Y-220692351D01*
X323798798Y-220692350D01*
X323211060Y-220104612D01*
X323231591Y-220099111D01*
X323368408Y-220020119D01*
X323480119Y-219908408D01*
X323559111Y-219771591D01*
X323564612Y-219751059D01*
X324151186Y-220337633D01*
X324235482Y-220208611D01*
X324328682Y-219996135D01*
X324385638Y-219771218D01*
X324404798Y-219540005D01*
X324404798Y-219539994D01*
X341595202Y-219539994D01*
X341595202Y-219540005D01*
X341614361Y-219771218D01*
X341671317Y-219996135D01*
X341764515Y-220208606D01*
X341848812Y-220337633D01*
X342435387Y-219751058D01*
X342440889Y-219771591D01*
X342519881Y-219908408D01*
X342631592Y-220020119D01*
X342768409Y-220099111D01*
X342788940Y-220104612D01*
X342201201Y-220692351D01*
X342231649Y-220716050D01*
X342435697Y-220826476D01*
X342435706Y-220826479D01*
X342655139Y-220901811D01*
X342883993Y-220940000D01*
X343116007Y-220940000D01*
X343344860Y-220901811D01*
X343564293Y-220826479D01*
X343564301Y-220826476D01*
X343768355Y-220716047D01*
X343798797Y-220692351D01*
X343798798Y-220692350D01*
X343211060Y-220104612D01*
X343231591Y-220099111D01*
X343368408Y-220020119D01*
X343480119Y-219908408D01*
X343559111Y-219771591D01*
X343564612Y-219751059D01*
X344151186Y-220337633D01*
X344235482Y-220208611D01*
X344328682Y-219996135D01*
X344385638Y-219771218D01*
X344404798Y-219540005D01*
X344404798Y-219539994D01*
X344385638Y-219308781D01*
X344328682Y-219083864D01*
X344235484Y-218871393D01*
X344151186Y-218742365D01*
X343564612Y-219328939D01*
X343559111Y-219308409D01*
X343480119Y-219171592D01*
X343368408Y-219059881D01*
X343231591Y-218980889D01*
X343211058Y-218975387D01*
X343798797Y-218387647D01*
X343798797Y-218387645D01*
X343768360Y-218363955D01*
X343768354Y-218363951D01*
X343564302Y-218253523D01*
X343564293Y-218253520D01*
X343344860Y-218178188D01*
X343116007Y-218140000D01*
X342883993Y-218140000D01*
X342655139Y-218178188D01*
X342435706Y-218253520D01*
X342435697Y-218253523D01*
X342231650Y-218363949D01*
X342201200Y-218387647D01*
X342788941Y-218975387D01*
X342768409Y-218980889D01*
X342631592Y-219059881D01*
X342519881Y-219171592D01*
X342440889Y-219308409D01*
X342435387Y-219328941D01*
X341848811Y-218742365D01*
X341764516Y-218871390D01*
X341671317Y-219083864D01*
X341614361Y-219308781D01*
X341595202Y-219539994D01*
X324404798Y-219539994D01*
X324385638Y-219308781D01*
X324328682Y-219083864D01*
X324235484Y-218871393D01*
X324151186Y-218742365D01*
X323564612Y-219328939D01*
X323559111Y-219308409D01*
X323480119Y-219171592D01*
X323368408Y-219059881D01*
X323231591Y-218980889D01*
X323211058Y-218975387D01*
X323798797Y-218387647D01*
X323798797Y-218387645D01*
X323768360Y-218363955D01*
X323768354Y-218363951D01*
X323564302Y-218253523D01*
X323564293Y-218253520D01*
X323344860Y-218178188D01*
X323116007Y-218140000D01*
X322883993Y-218140000D01*
X322655139Y-218178188D01*
X322435706Y-218253520D01*
X322435697Y-218253523D01*
X322231650Y-218363949D01*
X322201200Y-218387647D01*
X322788941Y-218975387D01*
X322768409Y-218980889D01*
X322631592Y-219059881D01*
X322519881Y-219171592D01*
X322440889Y-219308409D01*
X322435387Y-219328941D01*
X321848811Y-218742365D01*
X321764516Y-218871390D01*
X321671317Y-219083864D01*
X321614361Y-219308781D01*
X321595202Y-219539994D01*
X304404798Y-219539994D01*
X304385638Y-219308781D01*
X304328682Y-219083864D01*
X304235484Y-218871393D01*
X304151186Y-218742365D01*
X303564612Y-219328939D01*
X303559111Y-219308409D01*
X303480119Y-219171592D01*
X303368408Y-219059881D01*
X303231591Y-218980889D01*
X303211058Y-218975387D01*
X303798797Y-218387647D01*
X303798797Y-218387645D01*
X303768360Y-218363955D01*
X303768354Y-218363951D01*
X303564302Y-218253523D01*
X303564293Y-218253520D01*
X303344860Y-218178188D01*
X303116007Y-218140000D01*
X302883993Y-218140000D01*
X302655139Y-218178188D01*
X302435706Y-218253520D01*
X302435697Y-218253523D01*
X302231650Y-218363949D01*
X302201200Y-218387647D01*
X302788941Y-218975387D01*
X302768409Y-218980889D01*
X302631592Y-219059881D01*
X302519881Y-219171592D01*
X302440889Y-219308409D01*
X302435387Y-219328940D01*
X301848811Y-218742365D01*
X301764516Y-218871390D01*
X301671317Y-219083864D01*
X301614361Y-219308781D01*
X301595202Y-219539994D01*
X284404798Y-219539994D01*
X284385638Y-219308781D01*
X284328682Y-219083864D01*
X284235484Y-218871393D01*
X284151186Y-218742365D01*
X283564612Y-219328939D01*
X283559111Y-219308409D01*
X283480119Y-219171592D01*
X283368408Y-219059881D01*
X283231591Y-218980889D01*
X283211058Y-218975387D01*
X283798797Y-218387647D01*
X283798797Y-218387645D01*
X283768360Y-218363955D01*
X283768354Y-218363951D01*
X283564302Y-218253523D01*
X283564293Y-218253520D01*
X283344860Y-218178188D01*
X283116007Y-218140000D01*
X282883993Y-218140000D01*
X282655139Y-218178188D01*
X282435706Y-218253520D01*
X282435697Y-218253523D01*
X282231650Y-218363949D01*
X282201200Y-218387647D01*
X282788941Y-218975387D01*
X282768409Y-218980889D01*
X282631592Y-219059881D01*
X282519881Y-219171592D01*
X282440889Y-219308409D01*
X282435387Y-219328941D01*
X281848811Y-218742365D01*
X281764516Y-218871390D01*
X281671317Y-219083864D01*
X281614361Y-219308781D01*
X281595202Y-219539994D01*
X231140000Y-219539994D01*
X231140000Y-215900000D01*
X234444353Y-215900000D01*
X234464834Y-216042456D01*
X234524622Y-216173371D01*
X234524623Y-216173373D01*
X234618872Y-216282143D01*
X234739947Y-216359953D01*
X234739950Y-216359954D01*
X234739949Y-216359954D01*
X234878036Y-216400499D01*
X234878038Y-216400500D01*
X234878039Y-216400500D01*
X235021962Y-216400500D01*
X235021962Y-216400499D01*
X235160053Y-216359953D01*
X235281128Y-216282143D01*
X235375377Y-216173373D01*
X235435165Y-216042457D01*
X235455647Y-215900000D01*
X235435165Y-215757543D01*
X235375377Y-215626627D01*
X235281128Y-215517857D01*
X235160053Y-215440047D01*
X235160051Y-215440046D01*
X235160049Y-215440045D01*
X235160050Y-215440045D01*
X235021963Y-215399500D01*
X235021961Y-215399500D01*
X234878039Y-215399500D01*
X234878036Y-215399500D01*
X234739949Y-215440045D01*
X234618873Y-215517856D01*
X234524623Y-215626626D01*
X234524622Y-215626628D01*
X234464834Y-215757543D01*
X234444353Y-215900000D01*
X231140000Y-215900000D01*
X231140000Y-207900000D01*
X233276547Y-207900000D01*
X233296339Y-208201966D01*
X233355376Y-208498766D01*
X233355378Y-208498773D01*
X233355380Y-208498779D01*
X233452644Y-208785312D01*
X233452648Y-208785322D01*
X233586488Y-209056722D01*
X233586492Y-209056729D01*
X233754612Y-209308339D01*
X233954141Y-209535858D01*
X234181660Y-209735387D01*
X234433270Y-209903507D01*
X234433277Y-209903511D01*
X234704677Y-210037351D01*
X234704687Y-210037355D01*
X234909796Y-210106979D01*
X234991234Y-210134624D01*
X235288034Y-210193661D01*
X235590000Y-210213453D01*
X235891966Y-210193661D01*
X236188766Y-210134624D01*
X236381813Y-210069093D01*
X236475312Y-210037355D01*
X236475322Y-210037351D01*
X236746727Y-209903509D01*
X236998341Y-209735386D01*
X237225858Y-209535858D01*
X237425386Y-209308341D01*
X237593509Y-209056727D01*
X237727352Y-208785320D01*
X237824624Y-208498766D01*
X237883661Y-208201966D01*
X237903453Y-207900000D01*
X237883661Y-207598034D01*
X237824624Y-207301234D01*
X237727352Y-207014680D01*
X237727344Y-207014663D01*
X237593514Y-206743283D01*
X237593505Y-206743268D01*
X237591242Y-206739881D01*
X237425386Y-206491659D01*
X237381670Y-206441811D01*
X237225858Y-206264141D01*
X236998339Y-206064612D01*
X236746729Y-205896492D01*
X236746722Y-205896488D01*
X236475322Y-205762648D01*
X236475312Y-205762644D01*
X236188779Y-205665380D01*
X236188773Y-205665378D01*
X236188766Y-205665376D01*
X235891966Y-205606339D01*
X235590000Y-205586547D01*
X235288034Y-205606339D01*
X235288028Y-205606340D01*
X235288023Y-205606341D01*
X234991239Y-205665375D01*
X234991225Y-205665378D01*
X234704684Y-205762646D01*
X234704663Y-205762655D01*
X234433283Y-205896485D01*
X234433268Y-205896494D01*
X234181657Y-206064615D01*
X233954141Y-206264141D01*
X233754615Y-206491657D01*
X233586494Y-206743268D01*
X233586485Y-206743283D01*
X233452655Y-207014663D01*
X233452646Y-207014684D01*
X233355378Y-207301225D01*
X233355376Y-207301233D01*
X233355376Y-207301234D01*
X233296339Y-207598034D01*
X233276547Y-207900000D01*
X231140000Y-207900000D01*
X231140000Y-200940000D01*
X235987074Y-200940000D01*
X236006729Y-201139565D01*
X236064940Y-201331458D01*
X236159466Y-201508305D01*
X236159468Y-201508308D01*
X236286681Y-201663318D01*
X236441691Y-201790531D01*
X236441694Y-201790533D01*
X236618541Y-201885059D01*
X236618543Y-201885060D01*
X236810437Y-201943271D01*
X237010000Y-201962926D01*
X237209563Y-201943271D01*
X237401457Y-201885060D01*
X237578307Y-201790532D01*
X237733318Y-201663318D01*
X237860532Y-201508307D01*
X237955060Y-201331457D01*
X238013271Y-201139563D01*
X238032926Y-200940000D01*
X238013271Y-200740437D01*
X237955060Y-200548543D01*
X237860532Y-200371693D01*
X237860531Y-200371691D01*
X237733318Y-200216681D01*
X237578308Y-200089468D01*
X237578305Y-200089466D01*
X237401458Y-199994940D01*
X237209565Y-199936729D01*
X237010000Y-199917074D01*
X236810434Y-199936729D01*
X236618541Y-199994940D01*
X236441694Y-200089466D01*
X236441691Y-200089468D01*
X236286681Y-200216681D01*
X236159468Y-200371691D01*
X236159466Y-200371694D01*
X236064940Y-200548541D01*
X236006729Y-200740434D01*
X235987074Y-200940000D01*
X231140000Y-200940000D01*
X231140000Y-191244998D01*
X232847467Y-191244998D01*
X232847467Y-191245001D01*
X232867558Y-191474649D01*
X232867560Y-191474660D01*
X232927222Y-191697325D01*
X232927226Y-191697334D01*
X233024652Y-191906265D01*
X233024653Y-191906267D01*
X233078408Y-191983037D01*
X233078409Y-191983038D01*
X233650294Y-191411152D01*
X233662141Y-191455362D01*
X233733891Y-191579638D01*
X233835362Y-191681109D01*
X233959638Y-191752859D01*
X234003847Y-191764704D01*
X233431960Y-192336590D01*
X233508737Y-192390348D01*
X233717665Y-192487773D01*
X233717674Y-192487777D01*
X233801451Y-192510225D01*
X233861112Y-192546590D01*
X233891641Y-192609437D01*
X233883346Y-192678812D01*
X233838861Y-192732690D01*
X233801451Y-192749775D01*
X233717674Y-192772222D01*
X233717665Y-192772226D01*
X233508740Y-192869649D01*
X233431961Y-192923409D01*
X234003847Y-193495294D01*
X233959638Y-193507141D01*
X233835362Y-193578891D01*
X233733891Y-193680362D01*
X233662141Y-193804638D01*
X233650295Y-193848847D01*
X233078409Y-193276961D01*
X233024649Y-193353740D01*
X232927226Y-193562665D01*
X232927222Y-193562674D01*
X232867560Y-193785339D01*
X232867558Y-193785350D01*
X232847467Y-194014998D01*
X232847467Y-194015001D01*
X232867558Y-194244649D01*
X232867560Y-194244660D01*
X232927222Y-194467325D01*
X232927226Y-194467334D01*
X233024652Y-194676265D01*
X233024653Y-194676267D01*
X233078408Y-194753037D01*
X233078409Y-194753038D01*
X233650294Y-194181152D01*
X233662141Y-194225362D01*
X233733891Y-194349638D01*
X233835362Y-194451109D01*
X233959638Y-194522859D01*
X234003847Y-194534704D01*
X233431960Y-195106590D01*
X233508737Y-195160348D01*
X233717665Y-195257773D01*
X233717674Y-195257777D01*
X233801451Y-195280225D01*
X233861112Y-195316590D01*
X233891641Y-195379437D01*
X233883346Y-195448812D01*
X233838861Y-195502690D01*
X233801451Y-195519775D01*
X233717674Y-195542222D01*
X233717665Y-195542226D01*
X233508740Y-195639649D01*
X233431961Y-195693409D01*
X234003847Y-196265294D01*
X233959638Y-196277141D01*
X233835362Y-196348891D01*
X233733891Y-196450362D01*
X233662141Y-196574638D01*
X233650295Y-196618847D01*
X233078409Y-196046961D01*
X233024649Y-196123740D01*
X232927226Y-196332665D01*
X232927222Y-196332674D01*
X232867560Y-196555339D01*
X232867558Y-196555350D01*
X232847467Y-196784998D01*
X232847467Y-196785001D01*
X232867558Y-197014649D01*
X232867560Y-197014660D01*
X232927222Y-197237325D01*
X232927226Y-197237334D01*
X233024652Y-197446265D01*
X233024653Y-197446267D01*
X233078408Y-197523037D01*
X233078409Y-197523038D01*
X233650294Y-196951152D01*
X233662141Y-196995362D01*
X233733891Y-197119638D01*
X233835362Y-197221109D01*
X233959638Y-197292859D01*
X234003847Y-197304704D01*
X233431960Y-197876590D01*
X233508737Y-197930348D01*
X233717665Y-198027773D01*
X233717674Y-198027777D01*
X233801451Y-198050225D01*
X233861112Y-198086590D01*
X233891641Y-198149437D01*
X233883346Y-198218812D01*
X233838861Y-198272690D01*
X233801451Y-198289775D01*
X233717674Y-198312222D01*
X233717665Y-198312226D01*
X233508740Y-198409649D01*
X233431961Y-198463409D01*
X234003847Y-199035294D01*
X233959638Y-199047141D01*
X233835362Y-199118891D01*
X233733891Y-199220362D01*
X233662141Y-199344638D01*
X233650295Y-199388847D01*
X233078409Y-198816961D01*
X233024649Y-198893740D01*
X232927226Y-199102665D01*
X232927222Y-199102674D01*
X232867560Y-199325339D01*
X232867558Y-199325350D01*
X232847467Y-199554998D01*
X232847467Y-199555001D01*
X232867558Y-199784649D01*
X232867560Y-199784660D01*
X232927222Y-200007325D01*
X232927226Y-200007334D01*
X233024652Y-200216265D01*
X233024653Y-200216267D01*
X233078408Y-200293037D01*
X233078409Y-200293038D01*
X233650294Y-199721152D01*
X233662141Y-199765362D01*
X233733891Y-199889638D01*
X233835362Y-199991109D01*
X233959638Y-200062859D01*
X234003847Y-200074704D01*
X233431960Y-200646590D01*
X233508737Y-200700348D01*
X233717665Y-200797773D01*
X233717674Y-200797777D01*
X233940339Y-200857439D01*
X233940350Y-200857441D01*
X234169998Y-200877533D01*
X234170002Y-200877533D01*
X234399649Y-200857441D01*
X234399660Y-200857439D01*
X234622325Y-200797777D01*
X234622334Y-200797773D01*
X234831264Y-200700348D01*
X234908038Y-200646590D01*
X234336152Y-200074705D01*
X234380362Y-200062859D01*
X234504638Y-199991109D01*
X234606109Y-199889638D01*
X234677859Y-199765362D01*
X234689704Y-199721152D01*
X235261590Y-200293038D01*
X235315348Y-200216264D01*
X235412773Y-200007334D01*
X235412777Y-200007325D01*
X235472439Y-199784660D01*
X235472441Y-199784649D01*
X235492533Y-199555001D01*
X235492533Y-199554998D01*
X235472441Y-199325350D01*
X235472439Y-199325339D01*
X235412777Y-199102674D01*
X235412773Y-199102665D01*
X235315348Y-198893736D01*
X235261589Y-198816961D01*
X234689704Y-199388846D01*
X234677859Y-199344638D01*
X234606109Y-199220362D01*
X234504638Y-199118891D01*
X234380362Y-199047141D01*
X234336152Y-199035295D01*
X234908038Y-198463409D01*
X234908037Y-198463408D01*
X234831267Y-198409653D01*
X234831265Y-198409652D01*
X234622334Y-198312226D01*
X234622325Y-198312222D01*
X234538548Y-198289775D01*
X234478887Y-198253410D01*
X234448358Y-198190564D01*
X234450816Y-198170000D01*
X235987074Y-198170000D01*
X236006729Y-198369565D01*
X236064940Y-198561458D01*
X236159466Y-198738305D01*
X236159468Y-198738308D01*
X236286681Y-198893318D01*
X236441691Y-199020531D01*
X236441694Y-199020533D01*
X236595370Y-199102674D01*
X236618543Y-199115060D01*
X236810437Y-199173271D01*
X237010000Y-199192926D01*
X237209563Y-199173271D01*
X237401457Y-199115060D01*
X237578307Y-199020532D01*
X237733318Y-198893318D01*
X237860532Y-198738307D01*
X237955060Y-198561457D01*
X238013271Y-198369563D01*
X238032926Y-198170000D01*
X238013271Y-197970437D01*
X237955060Y-197778543D01*
X237860532Y-197601693D01*
X237860531Y-197601691D01*
X237733318Y-197446681D01*
X237578308Y-197319468D01*
X237578305Y-197319466D01*
X237401458Y-197224940D01*
X237209565Y-197166729D01*
X237010000Y-197147074D01*
X236810434Y-197166729D01*
X236618541Y-197224940D01*
X236441694Y-197319466D01*
X236441691Y-197319468D01*
X236286681Y-197446681D01*
X236159468Y-197601691D01*
X236159466Y-197601694D01*
X236064940Y-197778541D01*
X236006729Y-197970434D01*
X235987074Y-198170000D01*
X234450816Y-198170000D01*
X234456652Y-198121188D01*
X234501138Y-198067310D01*
X234538548Y-198050225D01*
X234622325Y-198027777D01*
X234622334Y-198027773D01*
X234831264Y-197930348D01*
X234908038Y-197876590D01*
X234336152Y-197304705D01*
X234380362Y-197292859D01*
X234504638Y-197221109D01*
X234606109Y-197119638D01*
X234677859Y-196995362D01*
X234689704Y-196951152D01*
X235261590Y-197523038D01*
X235315348Y-197446264D01*
X235412773Y-197237334D01*
X235412777Y-197237325D01*
X235472439Y-197014660D01*
X235472441Y-197014649D01*
X235492533Y-196785001D01*
X235492533Y-196784998D01*
X235472441Y-196555350D01*
X235472439Y-196555339D01*
X235412777Y-196332674D01*
X235412773Y-196332665D01*
X235315348Y-196123736D01*
X235261589Y-196046961D01*
X234689704Y-196618846D01*
X234677859Y-196574638D01*
X234606109Y-196450362D01*
X234504638Y-196348891D01*
X234380362Y-196277141D01*
X234336152Y-196265295D01*
X234908038Y-195693409D01*
X234908037Y-195693408D01*
X234831267Y-195639653D01*
X234831265Y-195639652D01*
X234622334Y-195542226D01*
X234622325Y-195542222D01*
X234538548Y-195519775D01*
X234478887Y-195483410D01*
X234448358Y-195420564D01*
X234450816Y-195400000D01*
X235987074Y-195400000D01*
X236006729Y-195599565D01*
X236064940Y-195791458D01*
X236159466Y-195968305D01*
X236159468Y-195968308D01*
X236286681Y-196123318D01*
X236441691Y-196250531D01*
X236441694Y-196250533D01*
X236595370Y-196332674D01*
X236618543Y-196345060D01*
X236810437Y-196403271D01*
X237010000Y-196422926D01*
X237209563Y-196403271D01*
X237401457Y-196345060D01*
X237578307Y-196250532D01*
X237733318Y-196123318D01*
X237860532Y-195968307D01*
X237955060Y-195791457D01*
X238013271Y-195599563D01*
X238032926Y-195400000D01*
X238013271Y-195200437D01*
X237955060Y-195008543D01*
X237896297Y-194898605D01*
X237860533Y-194831694D01*
X237860531Y-194831691D01*
X237733318Y-194676681D01*
X237578308Y-194549468D01*
X237578305Y-194549466D01*
X237401458Y-194454940D01*
X237209565Y-194396729D01*
X237010000Y-194377074D01*
X236810434Y-194396729D01*
X236618541Y-194454940D01*
X236441694Y-194549466D01*
X236441691Y-194549468D01*
X236286681Y-194676681D01*
X236159468Y-194831691D01*
X236159466Y-194831694D01*
X236064940Y-195008541D01*
X236006729Y-195200434D01*
X235987074Y-195400000D01*
X234450816Y-195400000D01*
X234456652Y-195351188D01*
X234501138Y-195297310D01*
X234538548Y-195280225D01*
X234622325Y-195257777D01*
X234622334Y-195257773D01*
X234831264Y-195160348D01*
X234908038Y-195106590D01*
X234336152Y-194534705D01*
X234380362Y-194522859D01*
X234504638Y-194451109D01*
X234606109Y-194349638D01*
X234677859Y-194225362D01*
X234689704Y-194181152D01*
X235261590Y-194753038D01*
X235315348Y-194676264D01*
X235412773Y-194467334D01*
X235412777Y-194467325D01*
X235472439Y-194244660D01*
X235472441Y-194244649D01*
X235492533Y-194015001D01*
X235492533Y-194014998D01*
X235472441Y-193785350D01*
X235472439Y-193785339D01*
X235412777Y-193562674D01*
X235412773Y-193562665D01*
X235315348Y-193353736D01*
X235261589Y-193276961D01*
X234689704Y-193848846D01*
X234677859Y-193804638D01*
X234606109Y-193680362D01*
X234504638Y-193578891D01*
X234380362Y-193507141D01*
X234336152Y-193495295D01*
X234908038Y-192923409D01*
X234908037Y-192923408D01*
X234831267Y-192869653D01*
X234831265Y-192869652D01*
X234622334Y-192772226D01*
X234622325Y-192772222D01*
X234538548Y-192749775D01*
X234478887Y-192713410D01*
X234448358Y-192650564D01*
X234450816Y-192630000D01*
X235987074Y-192630000D01*
X236006729Y-192829565D01*
X236064940Y-193021458D01*
X236159466Y-193198305D01*
X236159468Y-193198308D01*
X236286681Y-193353318D01*
X236441691Y-193480531D01*
X236441694Y-193480533D01*
X236595370Y-193562674D01*
X236618543Y-193575060D01*
X236810437Y-193633271D01*
X237010000Y-193652926D01*
X237209563Y-193633271D01*
X237401457Y-193575060D01*
X237578307Y-193480532D01*
X237733318Y-193353318D01*
X237860532Y-193198307D01*
X237955060Y-193021457D01*
X238013271Y-192829563D01*
X238032926Y-192630000D01*
X238013271Y-192430437D01*
X237955060Y-192238543D01*
X237948219Y-192225745D01*
X237860533Y-192061694D01*
X237860531Y-192061691D01*
X237733318Y-191906681D01*
X237578308Y-191779468D01*
X237578305Y-191779466D01*
X237401458Y-191684940D01*
X237209565Y-191626729D01*
X237010000Y-191607074D01*
X236810434Y-191626729D01*
X236618541Y-191684940D01*
X236441694Y-191779466D01*
X236441691Y-191779468D01*
X236286681Y-191906681D01*
X236159468Y-192061691D01*
X236159466Y-192061694D01*
X236064940Y-192238541D01*
X236006729Y-192430434D01*
X235987074Y-192630000D01*
X234450816Y-192630000D01*
X234456652Y-192581188D01*
X234501138Y-192527310D01*
X234538548Y-192510225D01*
X234622325Y-192487777D01*
X234622334Y-192487773D01*
X234831264Y-192390348D01*
X234908038Y-192336590D01*
X234336152Y-191764705D01*
X234380362Y-191752859D01*
X234504638Y-191681109D01*
X234606109Y-191579638D01*
X234677859Y-191455362D01*
X234689704Y-191411152D01*
X235261590Y-191983038D01*
X235315348Y-191906264D01*
X235412773Y-191697334D01*
X235412777Y-191697325D01*
X235472439Y-191474660D01*
X235472441Y-191474649D01*
X235492533Y-191245001D01*
X235492533Y-191244998D01*
X235472441Y-191015350D01*
X235472439Y-191015339D01*
X235412777Y-190792674D01*
X235412773Y-190792665D01*
X235315348Y-190583736D01*
X235261589Y-190506961D01*
X234689704Y-191078846D01*
X234677859Y-191034638D01*
X234606109Y-190910362D01*
X234504638Y-190808891D01*
X234380362Y-190737141D01*
X234336152Y-190725295D01*
X234908038Y-190153409D01*
X234908037Y-190153408D01*
X234831267Y-190099653D01*
X234831265Y-190099652D01*
X234622334Y-190002226D01*
X234622325Y-190002222D01*
X234399660Y-189942560D01*
X234399649Y-189942558D01*
X234170002Y-189922467D01*
X234169998Y-189922467D01*
X233940350Y-189942558D01*
X233940339Y-189942560D01*
X233717674Y-190002222D01*
X233717665Y-190002226D01*
X233508740Y-190099649D01*
X233431961Y-190153409D01*
X234003847Y-190725294D01*
X233959638Y-190737141D01*
X233835362Y-190808891D01*
X233733891Y-190910362D01*
X233662141Y-191034638D01*
X233650295Y-191078847D01*
X233078409Y-190506961D01*
X233024649Y-190583740D01*
X232927226Y-190792665D01*
X232927222Y-190792674D01*
X232867560Y-191015339D01*
X232867558Y-191015350D01*
X232847467Y-191244998D01*
X231140000Y-191244998D01*
X231140000Y-189860000D01*
X235987074Y-189860000D01*
X236006729Y-190059565D01*
X236064940Y-190251458D01*
X236159466Y-190428305D01*
X236159468Y-190428308D01*
X236286681Y-190583318D01*
X236441691Y-190710531D01*
X236441694Y-190710533D01*
X236595370Y-190792674D01*
X236618543Y-190805060D01*
X236810437Y-190863271D01*
X237010000Y-190882926D01*
X237209563Y-190863271D01*
X237401457Y-190805060D01*
X237578307Y-190710532D01*
X237733318Y-190583318D01*
X237860532Y-190428307D01*
X237955060Y-190251457D01*
X238013271Y-190059563D01*
X238032926Y-189860000D01*
X238013271Y-189660437D01*
X237955060Y-189468543D01*
X237860532Y-189291693D01*
X237860531Y-189291691D01*
X237733318Y-189136681D01*
X237578308Y-189009468D01*
X237578305Y-189009466D01*
X237401458Y-188914940D01*
X237209565Y-188856729D01*
X237010000Y-188837074D01*
X236810434Y-188856729D01*
X236618541Y-188914940D01*
X236441694Y-189009466D01*
X236441691Y-189009468D01*
X236286681Y-189136681D01*
X236159468Y-189291691D01*
X236159466Y-189291694D01*
X236064940Y-189468541D01*
X236006729Y-189660434D01*
X235987074Y-189860000D01*
X231140000Y-189860000D01*
X231140000Y-182900000D01*
X233276547Y-182900000D01*
X233296339Y-183201966D01*
X233355376Y-183498766D01*
X233355378Y-183498773D01*
X233355380Y-183498779D01*
X233452644Y-183785312D01*
X233452648Y-183785322D01*
X233586488Y-184056722D01*
X233586492Y-184056729D01*
X233754612Y-184308339D01*
X233954141Y-184535858D01*
X234181660Y-184735387D01*
X234433270Y-184903507D01*
X234433277Y-184903511D01*
X234704677Y-185037351D01*
X234704687Y-185037355D01*
X234909796Y-185106979D01*
X234991234Y-185134624D01*
X235288034Y-185193661D01*
X235590000Y-185213453D01*
X235891966Y-185193661D01*
X236188766Y-185134624D01*
X236381813Y-185069093D01*
X236475312Y-185037355D01*
X236475322Y-185037351D01*
X236550975Y-185000043D01*
X236746727Y-184903509D01*
X236998341Y-184735386D01*
X237225858Y-184535858D01*
X237425386Y-184308341D01*
X237593509Y-184056727D01*
X237727352Y-183785320D01*
X237729605Y-183778685D01*
X237773851Y-183648338D01*
X237824624Y-183498766D01*
X237883661Y-183201966D01*
X237903453Y-182900000D01*
X237883661Y-182598034D01*
X237824624Y-182301234D01*
X237727352Y-182014680D01*
X237727344Y-182014663D01*
X237593514Y-181743283D01*
X237593505Y-181743268D01*
X237591242Y-181739881D01*
X237425386Y-181491659D01*
X237381670Y-181441811D01*
X237225858Y-181264141D01*
X236998339Y-181064612D01*
X236746729Y-180896492D01*
X236746722Y-180896488D01*
X236475322Y-180762648D01*
X236475312Y-180762644D01*
X236188779Y-180665380D01*
X236188773Y-180665378D01*
X236188766Y-180665376D01*
X235891966Y-180606339D01*
X235590000Y-180586547D01*
X235288034Y-180606339D01*
X235288028Y-180606340D01*
X235288023Y-180606341D01*
X234991239Y-180665375D01*
X234991225Y-180665378D01*
X234704684Y-180762646D01*
X234704663Y-180762655D01*
X234433283Y-180896485D01*
X234433268Y-180896494D01*
X234181657Y-181064615D01*
X233954141Y-181264141D01*
X233754615Y-181491657D01*
X233586494Y-181743268D01*
X233586485Y-181743283D01*
X233452655Y-182014663D01*
X233452646Y-182014684D01*
X233355378Y-182301225D01*
X233355375Y-182301239D01*
X233309689Y-182530921D01*
X233296339Y-182598034D01*
X233276547Y-182900000D01*
X231140000Y-182900000D01*
X231140000Y-177800000D01*
X234444353Y-177800000D01*
X234464834Y-177942456D01*
X234524622Y-178073371D01*
X234524623Y-178073373D01*
X234618872Y-178182143D01*
X234739947Y-178259953D01*
X234739950Y-178259954D01*
X234739949Y-178259954D01*
X234847107Y-178291417D01*
X234860935Y-178295478D01*
X234878036Y-178300499D01*
X234878038Y-178300500D01*
X234878039Y-178300500D01*
X235021962Y-178300500D01*
X235021962Y-178300499D01*
X235160053Y-178259953D01*
X235281128Y-178182143D01*
X235375377Y-178073373D01*
X235435165Y-177942457D01*
X235455647Y-177800000D01*
X235435165Y-177657543D01*
X235375377Y-177526627D01*
X235281128Y-177417857D01*
X235160053Y-177340047D01*
X235160051Y-177340046D01*
X235160049Y-177340045D01*
X235160050Y-177340045D01*
X235021963Y-177299500D01*
X235021961Y-177299500D01*
X234878039Y-177299500D01*
X234878036Y-177299500D01*
X234739949Y-177340045D01*
X234618873Y-177417856D01*
X234524623Y-177526626D01*
X234524622Y-177526628D01*
X234464834Y-177657543D01*
X234444353Y-177800000D01*
X231140000Y-177800000D01*
X231140000Y-171450000D01*
X234444353Y-171450000D01*
X234464834Y-171592456D01*
X234524622Y-171723371D01*
X234524623Y-171723373D01*
X234618872Y-171832143D01*
X234739947Y-171909953D01*
X234739950Y-171909954D01*
X234739949Y-171909954D01*
X234847107Y-171941417D01*
X234860935Y-171945478D01*
X234878036Y-171950499D01*
X234878038Y-171950500D01*
X234878039Y-171950500D01*
X235021962Y-171950500D01*
X235021962Y-171950499D01*
X235160053Y-171909953D01*
X235281128Y-171832143D01*
X235375377Y-171723373D01*
X235435165Y-171592457D01*
X235455647Y-171450000D01*
X235435165Y-171307543D01*
X235375377Y-171176627D01*
X235281128Y-171067857D01*
X235160053Y-170990047D01*
X235160051Y-170990046D01*
X235160049Y-170990045D01*
X235160050Y-170990045D01*
X235021963Y-170949500D01*
X235021961Y-170949500D01*
X234878039Y-170949500D01*
X234878036Y-170949500D01*
X234739949Y-170990045D01*
X234618873Y-171067856D01*
X234524623Y-171176626D01*
X234524622Y-171176628D01*
X234464834Y-171307543D01*
X234444353Y-171450000D01*
X231140000Y-171450000D01*
X231140000Y-165100000D01*
X234444353Y-165100000D01*
X234464834Y-165242456D01*
X234524622Y-165373371D01*
X234524623Y-165373373D01*
X234618872Y-165482143D01*
X234739947Y-165559953D01*
X234739950Y-165559954D01*
X234739949Y-165559954D01*
X234878036Y-165600499D01*
X234878038Y-165600500D01*
X234878039Y-165600500D01*
X235021962Y-165600500D01*
X235021962Y-165600499D01*
X235160053Y-165559953D01*
X235281128Y-165482143D01*
X235375377Y-165373373D01*
X235435165Y-165242457D01*
X235455647Y-165100000D01*
X240794353Y-165100000D01*
X240814834Y-165242456D01*
X240874622Y-165373371D01*
X240874623Y-165373373D01*
X240968872Y-165482143D01*
X241089947Y-165559953D01*
X241089950Y-165559954D01*
X241089949Y-165559954D01*
X241228036Y-165600499D01*
X241228038Y-165600500D01*
X241228039Y-165600500D01*
X241371962Y-165600500D01*
X241371962Y-165600499D01*
X241510053Y-165559953D01*
X241631128Y-165482143D01*
X241725377Y-165373373D01*
X241785165Y-165242457D01*
X241805647Y-165100000D01*
X247144353Y-165100000D01*
X247164834Y-165242456D01*
X247224622Y-165373371D01*
X247224623Y-165373373D01*
X247318872Y-165482143D01*
X247439947Y-165559953D01*
X247439950Y-165559954D01*
X247439949Y-165559954D01*
X247578036Y-165600499D01*
X247578038Y-165600500D01*
X247578039Y-165600500D01*
X247721962Y-165600500D01*
X247721962Y-165600499D01*
X247860053Y-165559953D01*
X247981128Y-165482143D01*
X248075377Y-165373373D01*
X248135165Y-165242457D01*
X248155647Y-165100000D01*
X253494353Y-165100000D01*
X253514834Y-165242456D01*
X253574622Y-165373371D01*
X253574623Y-165373373D01*
X253668872Y-165482143D01*
X253789947Y-165559953D01*
X253789950Y-165559954D01*
X253789949Y-165559954D01*
X253928036Y-165600499D01*
X253928038Y-165600500D01*
X253928039Y-165600500D01*
X254071962Y-165600500D01*
X254071962Y-165600499D01*
X254210053Y-165559953D01*
X254331128Y-165482143D01*
X254425377Y-165373373D01*
X254485165Y-165242457D01*
X254505647Y-165100000D01*
X259844353Y-165100000D01*
X259864834Y-165242456D01*
X259924622Y-165373371D01*
X259924623Y-165373373D01*
X260018872Y-165482143D01*
X260139947Y-165559953D01*
X260139950Y-165559954D01*
X260139949Y-165559954D01*
X260278036Y-165600499D01*
X260278038Y-165600500D01*
X260278039Y-165600500D01*
X260421962Y-165600500D01*
X260421962Y-165600499D01*
X260560053Y-165559953D01*
X260681128Y-165482143D01*
X260700320Y-165459994D01*
X271595202Y-165459994D01*
X271595202Y-165460005D01*
X271614361Y-165691218D01*
X271671317Y-165916135D01*
X271764515Y-166128606D01*
X271848812Y-166257633D01*
X272435387Y-165671058D01*
X272440889Y-165691591D01*
X272519881Y-165828408D01*
X272631592Y-165940119D01*
X272768409Y-166019111D01*
X272788940Y-166024612D01*
X272201201Y-166612351D01*
X272231649Y-166636050D01*
X272435697Y-166746476D01*
X272435706Y-166746479D01*
X272655139Y-166821811D01*
X272883993Y-166860000D01*
X273116007Y-166860000D01*
X273344860Y-166821811D01*
X273564293Y-166746479D01*
X273564301Y-166746476D01*
X273768355Y-166636047D01*
X273798797Y-166612351D01*
X273798798Y-166612350D01*
X273211060Y-166024612D01*
X273231591Y-166019111D01*
X273368408Y-165940119D01*
X273480119Y-165828408D01*
X273559111Y-165691591D01*
X273564612Y-165671059D01*
X274151186Y-166257633D01*
X274235482Y-166128611D01*
X274328682Y-165916135D01*
X274385638Y-165691218D01*
X274404798Y-165460005D01*
X274404798Y-165459994D01*
X274385638Y-165228781D01*
X274353027Y-165100000D01*
X278894353Y-165100000D01*
X278914834Y-165242456D01*
X278974622Y-165373371D01*
X278974623Y-165373373D01*
X279068872Y-165482143D01*
X279189947Y-165559953D01*
X279189950Y-165559954D01*
X279189949Y-165559954D01*
X279328036Y-165600499D01*
X279328038Y-165600500D01*
X279328039Y-165600500D01*
X279471962Y-165600500D01*
X279471962Y-165600499D01*
X279610053Y-165559953D01*
X279731128Y-165482143D01*
X279825377Y-165373373D01*
X279885165Y-165242457D01*
X279905647Y-165100000D01*
X285244353Y-165100000D01*
X285264834Y-165242456D01*
X285324622Y-165373371D01*
X285324623Y-165373373D01*
X285418872Y-165482143D01*
X285539947Y-165559953D01*
X285539950Y-165559954D01*
X285539949Y-165559954D01*
X285678036Y-165600499D01*
X285678038Y-165600500D01*
X285678039Y-165600500D01*
X285821962Y-165600500D01*
X285821962Y-165600499D01*
X285960053Y-165559953D01*
X286081128Y-165482143D01*
X286100320Y-165459994D01*
X291595202Y-165459994D01*
X291595202Y-165460005D01*
X291614361Y-165691218D01*
X291671317Y-165916135D01*
X291764515Y-166128606D01*
X291848812Y-166257633D01*
X292435387Y-165671058D01*
X292440889Y-165691591D01*
X292519881Y-165828408D01*
X292631592Y-165940119D01*
X292768409Y-166019111D01*
X292788940Y-166024612D01*
X292201201Y-166612351D01*
X292231649Y-166636050D01*
X292435697Y-166746476D01*
X292435706Y-166746479D01*
X292655139Y-166821811D01*
X292883993Y-166860000D01*
X293116007Y-166860000D01*
X293344860Y-166821811D01*
X293564293Y-166746479D01*
X293564301Y-166746476D01*
X293768355Y-166636047D01*
X293798797Y-166612351D01*
X293798798Y-166612350D01*
X293211060Y-166024612D01*
X293231591Y-166019111D01*
X293368408Y-165940119D01*
X293480119Y-165828408D01*
X293559111Y-165691591D01*
X293564612Y-165671059D01*
X294151186Y-166257633D01*
X294235482Y-166128611D01*
X294328682Y-165916135D01*
X294385638Y-165691218D01*
X294404798Y-165460005D01*
X294404798Y-165459994D01*
X294385638Y-165228781D01*
X294353027Y-165100000D01*
X297944353Y-165100000D01*
X297964834Y-165242456D01*
X298024622Y-165373371D01*
X298024623Y-165373373D01*
X298118872Y-165482143D01*
X298239947Y-165559953D01*
X298239950Y-165559954D01*
X298239949Y-165559954D01*
X298378036Y-165600499D01*
X298378038Y-165600500D01*
X298378039Y-165600500D01*
X298521962Y-165600500D01*
X298521962Y-165600499D01*
X298660053Y-165559953D01*
X298781128Y-165482143D01*
X298875377Y-165373373D01*
X298935165Y-165242457D01*
X298955647Y-165100000D01*
X304294353Y-165100000D01*
X304314834Y-165242456D01*
X304374622Y-165373371D01*
X304374623Y-165373373D01*
X304468872Y-165482143D01*
X304589947Y-165559953D01*
X304589950Y-165559954D01*
X304589949Y-165559954D01*
X304728036Y-165600499D01*
X304728038Y-165600500D01*
X304728039Y-165600500D01*
X304871962Y-165600500D01*
X304871962Y-165600499D01*
X305010053Y-165559953D01*
X305131128Y-165482143D01*
X305150320Y-165459994D01*
X311595202Y-165459994D01*
X311595202Y-165460005D01*
X311614361Y-165691218D01*
X311671317Y-165916135D01*
X311764515Y-166128606D01*
X311848812Y-166257633D01*
X312435387Y-165671058D01*
X312440889Y-165691591D01*
X312519881Y-165828408D01*
X312631592Y-165940119D01*
X312768409Y-166019111D01*
X312788940Y-166024612D01*
X312201201Y-166612351D01*
X312231649Y-166636050D01*
X312435697Y-166746476D01*
X312435706Y-166746479D01*
X312655139Y-166821811D01*
X312883993Y-166860000D01*
X313116007Y-166860000D01*
X313344860Y-166821811D01*
X313564293Y-166746479D01*
X313564301Y-166746476D01*
X313768355Y-166636047D01*
X313798797Y-166612351D01*
X313798798Y-166612350D01*
X313211060Y-166024612D01*
X313231591Y-166019111D01*
X313368408Y-165940119D01*
X313480119Y-165828408D01*
X313559111Y-165691591D01*
X313564612Y-165671059D01*
X314151186Y-166257633D01*
X314235482Y-166128611D01*
X314328682Y-165916135D01*
X314385638Y-165691218D01*
X314404798Y-165460005D01*
X314404798Y-165459994D01*
X314385638Y-165228781D01*
X314353027Y-165100000D01*
X323344353Y-165100000D01*
X323364834Y-165242456D01*
X323424622Y-165373371D01*
X323424623Y-165373373D01*
X323518872Y-165482143D01*
X323639947Y-165559953D01*
X323639950Y-165559954D01*
X323639949Y-165559954D01*
X323778036Y-165600499D01*
X323778038Y-165600500D01*
X323778039Y-165600500D01*
X323921962Y-165600500D01*
X323921962Y-165600499D01*
X324060053Y-165559953D01*
X324181128Y-165482143D01*
X324200320Y-165459994D01*
X331595202Y-165459994D01*
X331595202Y-165460005D01*
X331614361Y-165691218D01*
X331671317Y-165916135D01*
X331764515Y-166128606D01*
X331848812Y-166257633D01*
X332435387Y-165671058D01*
X332440889Y-165691591D01*
X332519881Y-165828408D01*
X332631592Y-165940119D01*
X332768409Y-166019111D01*
X332788940Y-166024612D01*
X332201201Y-166612351D01*
X332231649Y-166636050D01*
X332435697Y-166746476D01*
X332435706Y-166746479D01*
X332655139Y-166821811D01*
X332883993Y-166860000D01*
X333116007Y-166860000D01*
X333344860Y-166821811D01*
X333564293Y-166746479D01*
X333564301Y-166746476D01*
X333768355Y-166636047D01*
X333798797Y-166612351D01*
X333798798Y-166612350D01*
X333211060Y-166024612D01*
X333231591Y-166019111D01*
X333368408Y-165940119D01*
X333480119Y-165828408D01*
X333559111Y-165691591D01*
X333564612Y-165671059D01*
X334151186Y-166257633D01*
X334235482Y-166128611D01*
X334328682Y-165916135D01*
X334385638Y-165691218D01*
X334404798Y-165460005D01*
X334404798Y-165459994D01*
X334385638Y-165228781D01*
X334353027Y-165100000D01*
X342394353Y-165100000D01*
X342414834Y-165242456D01*
X342474622Y-165373371D01*
X342474623Y-165373373D01*
X342568872Y-165482143D01*
X342689947Y-165559953D01*
X342689950Y-165559954D01*
X342689949Y-165559954D01*
X342828036Y-165600499D01*
X342828038Y-165600500D01*
X342828039Y-165600500D01*
X342971962Y-165600500D01*
X342971962Y-165600499D01*
X343110053Y-165559953D01*
X343231128Y-165482143D01*
X343250320Y-165459994D01*
X351595202Y-165459994D01*
X351595202Y-165460005D01*
X351614361Y-165691218D01*
X351671317Y-165916135D01*
X351764515Y-166128606D01*
X351848812Y-166257633D01*
X352435387Y-165671058D01*
X352440889Y-165691591D01*
X352519881Y-165828408D01*
X352631592Y-165940119D01*
X352768409Y-166019111D01*
X352788940Y-166024612D01*
X352201201Y-166612351D01*
X352231649Y-166636050D01*
X352435697Y-166746476D01*
X352435706Y-166746479D01*
X352655139Y-166821811D01*
X352883993Y-166860000D01*
X353116007Y-166860000D01*
X353344860Y-166821811D01*
X353564293Y-166746479D01*
X353564301Y-166746476D01*
X353768355Y-166636047D01*
X353798797Y-166612351D01*
X353798798Y-166612350D01*
X353211060Y-166024612D01*
X353231591Y-166019111D01*
X353368408Y-165940119D01*
X353480119Y-165828408D01*
X353559111Y-165691591D01*
X353564612Y-165671059D01*
X354151186Y-166257633D01*
X354235482Y-166128611D01*
X354328682Y-165916135D01*
X354385638Y-165691218D01*
X354404798Y-165460005D01*
X354404798Y-165459994D01*
X354385638Y-165228781D01*
X354328682Y-165003864D01*
X354235484Y-164791393D01*
X354151186Y-164662365D01*
X353564612Y-165248939D01*
X353559111Y-165228409D01*
X353480119Y-165091592D01*
X353368408Y-164979881D01*
X353231591Y-164900889D01*
X353211058Y-164895387D01*
X353798797Y-164307647D01*
X353798797Y-164307645D01*
X353768360Y-164283955D01*
X353768354Y-164283951D01*
X353564302Y-164173523D01*
X353564293Y-164173520D01*
X353344860Y-164098188D01*
X353116007Y-164060000D01*
X352883993Y-164060000D01*
X352655139Y-164098188D01*
X352435706Y-164173520D01*
X352435697Y-164173523D01*
X352231650Y-164283949D01*
X352201200Y-164307647D01*
X352788941Y-164895387D01*
X352768409Y-164900889D01*
X352631592Y-164979881D01*
X352519881Y-165091592D01*
X352440889Y-165228409D01*
X352435387Y-165248941D01*
X351848811Y-164662365D01*
X351764516Y-164791390D01*
X351671317Y-165003864D01*
X351614361Y-165228781D01*
X351595202Y-165459994D01*
X343250320Y-165459994D01*
X343325377Y-165373373D01*
X343385165Y-165242457D01*
X343405647Y-165100000D01*
X343385165Y-164957543D01*
X343325377Y-164826627D01*
X343231128Y-164717857D01*
X343110053Y-164640047D01*
X343110051Y-164640046D01*
X343110049Y-164640045D01*
X343110050Y-164640045D01*
X342971963Y-164599500D01*
X342971961Y-164599500D01*
X342828039Y-164599500D01*
X342828036Y-164599500D01*
X342689949Y-164640045D01*
X342568873Y-164717856D01*
X342474623Y-164826626D01*
X342474622Y-164826628D01*
X342414834Y-164957543D01*
X342394353Y-165100000D01*
X334353027Y-165100000D01*
X334328682Y-165003864D01*
X334235484Y-164791393D01*
X334151186Y-164662365D01*
X333564612Y-165248939D01*
X333559111Y-165228409D01*
X333480119Y-165091592D01*
X333368408Y-164979881D01*
X333231591Y-164900889D01*
X333211058Y-164895387D01*
X333798797Y-164307647D01*
X333798797Y-164307645D01*
X333768360Y-164283955D01*
X333768354Y-164283951D01*
X333564302Y-164173523D01*
X333564293Y-164173520D01*
X333344860Y-164098188D01*
X333116007Y-164060000D01*
X332883993Y-164060000D01*
X332655139Y-164098188D01*
X332435706Y-164173520D01*
X332435697Y-164173523D01*
X332231650Y-164283949D01*
X332201200Y-164307647D01*
X332788941Y-164895387D01*
X332768409Y-164900889D01*
X332631592Y-164979881D01*
X332519881Y-165091592D01*
X332440889Y-165228409D01*
X332435387Y-165248940D01*
X331848811Y-164662365D01*
X331764516Y-164791390D01*
X331671317Y-165003864D01*
X331614361Y-165228781D01*
X331595202Y-165459994D01*
X324200320Y-165459994D01*
X324275377Y-165373373D01*
X324335165Y-165242457D01*
X324355647Y-165100000D01*
X324335165Y-164957543D01*
X324275377Y-164826627D01*
X324181128Y-164717857D01*
X324060053Y-164640047D01*
X324060051Y-164640046D01*
X324060049Y-164640045D01*
X324060050Y-164640045D01*
X323921963Y-164599500D01*
X323921961Y-164599500D01*
X323778039Y-164599500D01*
X323778036Y-164599500D01*
X323639949Y-164640045D01*
X323518873Y-164717856D01*
X323424623Y-164826626D01*
X323424622Y-164826628D01*
X323364834Y-164957543D01*
X323344353Y-165100000D01*
X314353027Y-165100000D01*
X314328682Y-165003864D01*
X314235484Y-164791393D01*
X314151186Y-164662365D01*
X313564612Y-165248939D01*
X313559111Y-165228409D01*
X313480119Y-165091592D01*
X313368408Y-164979881D01*
X313231591Y-164900889D01*
X313211058Y-164895387D01*
X313798797Y-164307647D01*
X313798797Y-164307645D01*
X313768360Y-164283955D01*
X313768354Y-164283951D01*
X313564302Y-164173523D01*
X313564293Y-164173520D01*
X313344860Y-164098188D01*
X313116007Y-164060000D01*
X312883993Y-164060000D01*
X312655139Y-164098188D01*
X312435706Y-164173520D01*
X312435697Y-164173523D01*
X312231650Y-164283949D01*
X312201200Y-164307647D01*
X312788941Y-164895387D01*
X312768409Y-164900889D01*
X312631592Y-164979881D01*
X312519881Y-165091592D01*
X312440889Y-165228409D01*
X312435387Y-165248941D01*
X311848811Y-164662365D01*
X311764516Y-164791390D01*
X311671317Y-165003864D01*
X311614361Y-165228781D01*
X311595202Y-165459994D01*
X305150320Y-165459994D01*
X305225377Y-165373373D01*
X305285165Y-165242457D01*
X305305647Y-165100000D01*
X305285165Y-164957543D01*
X305225377Y-164826627D01*
X305131128Y-164717857D01*
X305010053Y-164640047D01*
X305010051Y-164640046D01*
X305010049Y-164640045D01*
X305010050Y-164640045D01*
X304871963Y-164599500D01*
X304871961Y-164599500D01*
X304728039Y-164599500D01*
X304728036Y-164599500D01*
X304589949Y-164640045D01*
X304468873Y-164717856D01*
X304374623Y-164826626D01*
X304374622Y-164826628D01*
X304314834Y-164957543D01*
X304294353Y-165100000D01*
X298955647Y-165100000D01*
X298935165Y-164957543D01*
X298875377Y-164826627D01*
X298781128Y-164717857D01*
X298660053Y-164640047D01*
X298660051Y-164640046D01*
X298660049Y-164640045D01*
X298660050Y-164640045D01*
X298521963Y-164599500D01*
X298521961Y-164599500D01*
X298378039Y-164599500D01*
X298378036Y-164599500D01*
X298239949Y-164640045D01*
X298118873Y-164717856D01*
X298024623Y-164826626D01*
X298024622Y-164826628D01*
X297964834Y-164957543D01*
X297944353Y-165100000D01*
X294353027Y-165100000D01*
X294328682Y-165003864D01*
X294235484Y-164791393D01*
X294151186Y-164662365D01*
X293564612Y-165248939D01*
X293559111Y-165228409D01*
X293480119Y-165091592D01*
X293368408Y-164979881D01*
X293231591Y-164900889D01*
X293211058Y-164895387D01*
X293798797Y-164307647D01*
X293798797Y-164307645D01*
X293768360Y-164283955D01*
X293768354Y-164283951D01*
X293564302Y-164173523D01*
X293564293Y-164173520D01*
X293344860Y-164098188D01*
X293116007Y-164060000D01*
X292883993Y-164060000D01*
X292655139Y-164098188D01*
X292435706Y-164173520D01*
X292435697Y-164173523D01*
X292231650Y-164283949D01*
X292201200Y-164307647D01*
X292788941Y-164895387D01*
X292768409Y-164900889D01*
X292631592Y-164979881D01*
X292519881Y-165091592D01*
X292440889Y-165228409D01*
X292435387Y-165248941D01*
X291848811Y-164662365D01*
X291764516Y-164791390D01*
X291671317Y-165003864D01*
X291614361Y-165228781D01*
X291595202Y-165459994D01*
X286100320Y-165459994D01*
X286175377Y-165373373D01*
X286235165Y-165242457D01*
X286255647Y-165100000D01*
X286235165Y-164957543D01*
X286175377Y-164826627D01*
X286081128Y-164717857D01*
X285960053Y-164640047D01*
X285960051Y-164640046D01*
X285960049Y-164640045D01*
X285960050Y-164640045D01*
X285821963Y-164599500D01*
X285821961Y-164599500D01*
X285678039Y-164599500D01*
X285678036Y-164599500D01*
X285539949Y-164640045D01*
X285418873Y-164717856D01*
X285324623Y-164826626D01*
X285324622Y-164826628D01*
X285264834Y-164957543D01*
X285244353Y-165100000D01*
X279905647Y-165100000D01*
X279885165Y-164957543D01*
X279825377Y-164826627D01*
X279731128Y-164717857D01*
X279610053Y-164640047D01*
X279610051Y-164640046D01*
X279610049Y-164640045D01*
X279610050Y-164640045D01*
X279471963Y-164599500D01*
X279471961Y-164599500D01*
X279328039Y-164599500D01*
X279328036Y-164599500D01*
X279189949Y-164640045D01*
X279068873Y-164717856D01*
X278974623Y-164826626D01*
X278974622Y-164826628D01*
X278914834Y-164957543D01*
X278894353Y-165100000D01*
X274353027Y-165100000D01*
X274328682Y-165003864D01*
X274235484Y-164791393D01*
X274151186Y-164662365D01*
X273564612Y-165248939D01*
X273559111Y-165228409D01*
X273480119Y-165091592D01*
X273368408Y-164979881D01*
X273231591Y-164900889D01*
X273211058Y-164895387D01*
X273798797Y-164307647D01*
X273798797Y-164307645D01*
X273768360Y-164283955D01*
X273768354Y-164283951D01*
X273564302Y-164173523D01*
X273564293Y-164173520D01*
X273344860Y-164098188D01*
X273116007Y-164060000D01*
X272883993Y-164060000D01*
X272655139Y-164098188D01*
X272435706Y-164173520D01*
X272435697Y-164173523D01*
X272231650Y-164283949D01*
X272201200Y-164307647D01*
X272788941Y-164895387D01*
X272768409Y-164900889D01*
X272631592Y-164979881D01*
X272519881Y-165091592D01*
X272440889Y-165228409D01*
X272435387Y-165248941D01*
X271848811Y-164662365D01*
X271764516Y-164791390D01*
X271671317Y-165003864D01*
X271614361Y-165228781D01*
X271595202Y-165459994D01*
X260700320Y-165459994D01*
X260775377Y-165373373D01*
X260835165Y-165242457D01*
X260855647Y-165100000D01*
X260835165Y-164957543D01*
X260775377Y-164826627D01*
X260681128Y-164717857D01*
X260560053Y-164640047D01*
X260560051Y-164640046D01*
X260560049Y-164640045D01*
X260560050Y-164640045D01*
X260421963Y-164599500D01*
X260421961Y-164599500D01*
X260278039Y-164599500D01*
X260278036Y-164599500D01*
X260139949Y-164640045D01*
X260018873Y-164717856D01*
X259924623Y-164826626D01*
X259924622Y-164826628D01*
X259864834Y-164957543D01*
X259844353Y-165100000D01*
X254505647Y-165100000D01*
X254485165Y-164957543D01*
X254425377Y-164826627D01*
X254331128Y-164717857D01*
X254210053Y-164640047D01*
X254210051Y-164640046D01*
X254210049Y-164640045D01*
X254210050Y-164640045D01*
X254071963Y-164599500D01*
X254071961Y-164599500D01*
X253928039Y-164599500D01*
X253928036Y-164599500D01*
X253789949Y-164640045D01*
X253668873Y-164717856D01*
X253574623Y-164826626D01*
X253574622Y-164826628D01*
X253514834Y-164957543D01*
X253494353Y-165100000D01*
X248155647Y-165100000D01*
X248135165Y-164957543D01*
X248075377Y-164826627D01*
X247981128Y-164717857D01*
X247860053Y-164640047D01*
X247860051Y-164640046D01*
X247860049Y-164640045D01*
X247860050Y-164640045D01*
X247721963Y-164599500D01*
X247721961Y-164599500D01*
X247578039Y-164599500D01*
X247578036Y-164599500D01*
X247439949Y-164640045D01*
X247318873Y-164717856D01*
X247224623Y-164826626D01*
X247224622Y-164826628D01*
X247164834Y-164957543D01*
X247144353Y-165100000D01*
X241805647Y-165100000D01*
X241785165Y-164957543D01*
X241725377Y-164826627D01*
X241631128Y-164717857D01*
X241510053Y-164640047D01*
X241510051Y-164640046D01*
X241510049Y-164640045D01*
X241510050Y-164640045D01*
X241371963Y-164599500D01*
X241371961Y-164599500D01*
X241228039Y-164599500D01*
X241228036Y-164599500D01*
X241089949Y-164640045D01*
X240968873Y-164717856D01*
X240874623Y-164826626D01*
X240874622Y-164826628D01*
X240814834Y-164957543D01*
X240794353Y-165100000D01*
X235455647Y-165100000D01*
X235435165Y-164957543D01*
X235375377Y-164826627D01*
X235281128Y-164717857D01*
X235160053Y-164640047D01*
X235160051Y-164640046D01*
X235160049Y-164640045D01*
X235160050Y-164640045D01*
X235021963Y-164599500D01*
X235021961Y-164599500D01*
X234878039Y-164599500D01*
X234878036Y-164599500D01*
X234739949Y-164640045D01*
X234618873Y-164717856D01*
X234524623Y-164826626D01*
X234524622Y-164826628D01*
X234464834Y-164957543D01*
X234444353Y-165100000D01*
X231140000Y-165100000D01*
X231140000Y-161649999D01*
X271894785Y-161649999D01*
X271894785Y-161650000D01*
X271913602Y-161853082D01*
X271969417Y-162049247D01*
X271969422Y-162049260D01*
X272060327Y-162231821D01*
X272183237Y-162394581D01*
X272333958Y-162531980D01*
X272333960Y-162531982D01*
X272433141Y-162593392D01*
X272507363Y-162639348D01*
X272697544Y-162713024D01*
X272898024Y-162750500D01*
X272898026Y-162750500D01*
X273101974Y-162750500D01*
X273101976Y-162750500D01*
X273302456Y-162713024D01*
X273492637Y-162639348D01*
X273666041Y-162531981D01*
X273816764Y-162394579D01*
X273939673Y-162231821D01*
X274030582Y-162049250D01*
X274086397Y-161853083D01*
X274105215Y-161650000D01*
X274105215Y-161649999D01*
X291894785Y-161649999D01*
X291894785Y-161650000D01*
X291913602Y-161853082D01*
X291969417Y-162049247D01*
X291969422Y-162049260D01*
X292060327Y-162231821D01*
X292183237Y-162394581D01*
X292333958Y-162531980D01*
X292333960Y-162531982D01*
X292433141Y-162593392D01*
X292507363Y-162639348D01*
X292697544Y-162713024D01*
X292898024Y-162750500D01*
X292898026Y-162750500D01*
X293101974Y-162750500D01*
X293101976Y-162750500D01*
X293302456Y-162713024D01*
X293492637Y-162639348D01*
X293666041Y-162531981D01*
X293816764Y-162394579D01*
X293939673Y-162231821D01*
X294030582Y-162049250D01*
X294086397Y-161853083D01*
X294105215Y-161650000D01*
X294105215Y-161649999D01*
X311894785Y-161649999D01*
X311894785Y-161650000D01*
X311913602Y-161853082D01*
X311969417Y-162049247D01*
X311969422Y-162049260D01*
X312060327Y-162231821D01*
X312183237Y-162394581D01*
X312333958Y-162531980D01*
X312333960Y-162531982D01*
X312433141Y-162593392D01*
X312507363Y-162639348D01*
X312697544Y-162713024D01*
X312898024Y-162750500D01*
X312898026Y-162750500D01*
X313101974Y-162750500D01*
X313101976Y-162750500D01*
X313302456Y-162713024D01*
X313492637Y-162639348D01*
X313666041Y-162531981D01*
X313816764Y-162394579D01*
X313939673Y-162231821D01*
X314030582Y-162049250D01*
X314086397Y-161853083D01*
X314105215Y-161650000D01*
X314105215Y-161649999D01*
X331894785Y-161649999D01*
X331894785Y-161650000D01*
X331913602Y-161853082D01*
X331969417Y-162049247D01*
X331969422Y-162049260D01*
X332060327Y-162231821D01*
X332183237Y-162394581D01*
X332333958Y-162531980D01*
X332333960Y-162531982D01*
X332433141Y-162593392D01*
X332507363Y-162639348D01*
X332697544Y-162713024D01*
X332898024Y-162750500D01*
X332898026Y-162750500D01*
X333101974Y-162750500D01*
X333101976Y-162750500D01*
X333302456Y-162713024D01*
X333492637Y-162639348D01*
X333666041Y-162531981D01*
X333816764Y-162394579D01*
X333939673Y-162231821D01*
X334030582Y-162049250D01*
X334086397Y-161853083D01*
X334105215Y-161650000D01*
X334105215Y-161649999D01*
X351894785Y-161649999D01*
X351894785Y-161650000D01*
X351913602Y-161853082D01*
X351969417Y-162049247D01*
X351969422Y-162049260D01*
X352060327Y-162231821D01*
X352183237Y-162394581D01*
X352333958Y-162531980D01*
X352333960Y-162531982D01*
X352433141Y-162593392D01*
X352507363Y-162639348D01*
X352697544Y-162713024D01*
X352898024Y-162750500D01*
X352898026Y-162750500D01*
X353101974Y-162750500D01*
X353101976Y-162750500D01*
X353302456Y-162713024D01*
X353492637Y-162639348D01*
X353666041Y-162531981D01*
X353816764Y-162394579D01*
X353939673Y-162231821D01*
X354030582Y-162049250D01*
X354086397Y-161853083D01*
X354105215Y-161650000D01*
X354086397Y-161446917D01*
X354030582Y-161250750D01*
X353939673Y-161068179D01*
X353816764Y-160905421D01*
X353816762Y-160905418D01*
X353666041Y-160768019D01*
X353666039Y-160768017D01*
X353492642Y-160660655D01*
X353492635Y-160660651D01*
X353397546Y-160623814D01*
X353302456Y-160586976D01*
X353101976Y-160549500D01*
X352898024Y-160549500D01*
X352697544Y-160586976D01*
X352697541Y-160586976D01*
X352697541Y-160586977D01*
X352507364Y-160660651D01*
X352507357Y-160660655D01*
X352333960Y-160768017D01*
X352333958Y-160768019D01*
X352183237Y-160905418D01*
X352060327Y-161068178D01*
X351969422Y-161250739D01*
X351969417Y-161250752D01*
X351913602Y-161446917D01*
X351894785Y-161649999D01*
X334105215Y-161649999D01*
X334086397Y-161446917D01*
X334030582Y-161250750D01*
X333939673Y-161068179D01*
X333816764Y-160905421D01*
X333816762Y-160905418D01*
X333666041Y-160768019D01*
X333666039Y-160768017D01*
X333492642Y-160660655D01*
X333492635Y-160660651D01*
X333397546Y-160623814D01*
X333302456Y-160586976D01*
X333101976Y-160549500D01*
X332898024Y-160549500D01*
X332697544Y-160586976D01*
X332697541Y-160586976D01*
X332697541Y-160586977D01*
X332507364Y-160660651D01*
X332507357Y-160660655D01*
X332333960Y-160768017D01*
X332333958Y-160768019D01*
X332183237Y-160905418D01*
X332060327Y-161068178D01*
X331969422Y-161250739D01*
X331969417Y-161250752D01*
X331913602Y-161446917D01*
X331894785Y-161649999D01*
X314105215Y-161649999D01*
X314086397Y-161446917D01*
X314030582Y-161250750D01*
X313939673Y-161068179D01*
X313816764Y-160905421D01*
X313816762Y-160905418D01*
X313666041Y-160768019D01*
X313666039Y-160768017D01*
X313492642Y-160660655D01*
X313492635Y-160660651D01*
X313397546Y-160623814D01*
X313302456Y-160586976D01*
X313101976Y-160549500D01*
X312898024Y-160549500D01*
X312697544Y-160586976D01*
X312697541Y-160586976D01*
X312697541Y-160586977D01*
X312507364Y-160660651D01*
X312507357Y-160660655D01*
X312333960Y-160768017D01*
X312333958Y-160768019D01*
X312183237Y-160905418D01*
X312060327Y-161068178D01*
X311969422Y-161250739D01*
X311969417Y-161250752D01*
X311913602Y-161446917D01*
X311894785Y-161649999D01*
X294105215Y-161649999D01*
X294086397Y-161446917D01*
X294030582Y-161250750D01*
X293939673Y-161068179D01*
X293816764Y-160905421D01*
X293816762Y-160905418D01*
X293666041Y-160768019D01*
X293666039Y-160768017D01*
X293492642Y-160660655D01*
X293492635Y-160660651D01*
X293397546Y-160623814D01*
X293302456Y-160586976D01*
X293101976Y-160549500D01*
X292898024Y-160549500D01*
X292697544Y-160586976D01*
X292697541Y-160586976D01*
X292697541Y-160586977D01*
X292507364Y-160660651D01*
X292507357Y-160660655D01*
X292333960Y-160768017D01*
X292333958Y-160768019D01*
X292183237Y-160905418D01*
X292060327Y-161068178D01*
X291969422Y-161250739D01*
X291969417Y-161250752D01*
X291913602Y-161446917D01*
X291894785Y-161649999D01*
X274105215Y-161649999D01*
X274086397Y-161446917D01*
X274030582Y-161250750D01*
X273939673Y-161068179D01*
X273816764Y-160905421D01*
X273816762Y-160905418D01*
X273666041Y-160768019D01*
X273666039Y-160768017D01*
X273492642Y-160660655D01*
X273492635Y-160660651D01*
X273397546Y-160623814D01*
X273302456Y-160586976D01*
X273101976Y-160549500D01*
X272898024Y-160549500D01*
X272697544Y-160586976D01*
X272697541Y-160586976D01*
X272697541Y-160586977D01*
X272507364Y-160660651D01*
X272507357Y-160660655D01*
X272333960Y-160768017D01*
X272333958Y-160768019D01*
X272183237Y-160905418D01*
X272060327Y-161068178D01*
X271969422Y-161250739D01*
X271969417Y-161250752D01*
X271913602Y-161446917D01*
X271894785Y-161649999D01*
X231140000Y-161649999D01*
X231140000Y-158750000D01*
X234444353Y-158750000D01*
X234464834Y-158892456D01*
X234521277Y-159016047D01*
X234524623Y-159023373D01*
X234618872Y-159132143D01*
X234739947Y-159209953D01*
X234739950Y-159209954D01*
X234739949Y-159209954D01*
X234878036Y-159250499D01*
X234878038Y-159250500D01*
X234878039Y-159250500D01*
X235021962Y-159250500D01*
X235021962Y-159250499D01*
X235160053Y-159209953D01*
X235281128Y-159132143D01*
X235375377Y-159023373D01*
X235435165Y-158892457D01*
X235455647Y-158750000D01*
X240794353Y-158750000D01*
X240814834Y-158892456D01*
X240871277Y-159016047D01*
X240874623Y-159023373D01*
X240968872Y-159132143D01*
X241089947Y-159209953D01*
X241089950Y-159209954D01*
X241089949Y-159209954D01*
X241228036Y-159250499D01*
X241228038Y-159250500D01*
X241228039Y-159250500D01*
X241371962Y-159250500D01*
X241371962Y-159250499D01*
X241510053Y-159209953D01*
X241631128Y-159132143D01*
X241725377Y-159023373D01*
X241785165Y-158892457D01*
X241805647Y-158750000D01*
X247144353Y-158750000D01*
X247164834Y-158892456D01*
X247221277Y-159016047D01*
X247224623Y-159023373D01*
X247318872Y-159132143D01*
X247439947Y-159209953D01*
X247439950Y-159209954D01*
X247439949Y-159209954D01*
X247578036Y-159250499D01*
X247578038Y-159250500D01*
X247578039Y-159250500D01*
X247721962Y-159250500D01*
X247721962Y-159250499D01*
X247860053Y-159209953D01*
X247981128Y-159132143D01*
X248075377Y-159023373D01*
X248135165Y-158892457D01*
X248155647Y-158750000D01*
X253494353Y-158750000D01*
X253514834Y-158892456D01*
X253571277Y-159016047D01*
X253574623Y-159023373D01*
X253668872Y-159132143D01*
X253789947Y-159209953D01*
X253789950Y-159209954D01*
X253789949Y-159209954D01*
X253928036Y-159250499D01*
X253928038Y-159250500D01*
X253928039Y-159250500D01*
X254071962Y-159250500D01*
X254071962Y-159250499D01*
X254210053Y-159209953D01*
X254331128Y-159132143D01*
X254425377Y-159023373D01*
X254485165Y-158892457D01*
X254505647Y-158750000D01*
X259844353Y-158750000D01*
X259864834Y-158892456D01*
X259921277Y-159016047D01*
X259924623Y-159023373D01*
X260018872Y-159132143D01*
X260139947Y-159209953D01*
X260139950Y-159209954D01*
X260139949Y-159209954D01*
X260278036Y-159250499D01*
X260278038Y-159250500D01*
X260278039Y-159250500D01*
X260421962Y-159250500D01*
X260421962Y-159250499D01*
X260560053Y-159209953D01*
X260681128Y-159132143D01*
X260775377Y-159023373D01*
X260835165Y-158892457D01*
X260855647Y-158750000D01*
X260835165Y-158607543D01*
X260775377Y-158476627D01*
X260681128Y-158367857D01*
X260560053Y-158290047D01*
X260560051Y-158290046D01*
X260560049Y-158290045D01*
X260560050Y-158290045D01*
X260421963Y-158249500D01*
X260421961Y-158249500D01*
X260278039Y-158249500D01*
X260278036Y-158249500D01*
X260139949Y-158290045D01*
X260018873Y-158367856D01*
X259924623Y-158476626D01*
X259924622Y-158476628D01*
X259864834Y-158607543D01*
X259844353Y-158750000D01*
X254505647Y-158750000D01*
X254485165Y-158607543D01*
X254425377Y-158476627D01*
X254331128Y-158367857D01*
X254210053Y-158290047D01*
X254210051Y-158290046D01*
X254210049Y-158290045D01*
X254210050Y-158290045D01*
X254071963Y-158249500D01*
X254071961Y-158249500D01*
X253928039Y-158249500D01*
X253928036Y-158249500D01*
X253789949Y-158290045D01*
X253668873Y-158367856D01*
X253574623Y-158476626D01*
X253574622Y-158476628D01*
X253514834Y-158607543D01*
X253494353Y-158750000D01*
X248155647Y-158750000D01*
X248135165Y-158607543D01*
X248075377Y-158476627D01*
X247981128Y-158367857D01*
X247860053Y-158290047D01*
X247860051Y-158290046D01*
X247860049Y-158290045D01*
X247860050Y-158290045D01*
X247721963Y-158249500D01*
X247721961Y-158249500D01*
X247578039Y-158249500D01*
X247578036Y-158249500D01*
X247439949Y-158290045D01*
X247318873Y-158367856D01*
X247224623Y-158476626D01*
X247224622Y-158476628D01*
X247164834Y-158607543D01*
X247144353Y-158750000D01*
X241805647Y-158750000D01*
X241785165Y-158607543D01*
X241725377Y-158476627D01*
X241631128Y-158367857D01*
X241510053Y-158290047D01*
X241510051Y-158290046D01*
X241510049Y-158290045D01*
X241510050Y-158290045D01*
X241371963Y-158249500D01*
X241371961Y-158249500D01*
X241228039Y-158249500D01*
X241228036Y-158249500D01*
X241089949Y-158290045D01*
X240968873Y-158367856D01*
X240874623Y-158476626D01*
X240874622Y-158476628D01*
X240814834Y-158607543D01*
X240794353Y-158750000D01*
X235455647Y-158750000D01*
X235435165Y-158607543D01*
X235375377Y-158476627D01*
X235281128Y-158367857D01*
X235160053Y-158290047D01*
X235160051Y-158290046D01*
X235160049Y-158290045D01*
X235160050Y-158290045D01*
X235021963Y-158249500D01*
X235021961Y-158249500D01*
X234878039Y-158249500D01*
X234878036Y-158249500D01*
X234739949Y-158290045D01*
X234618873Y-158367856D01*
X234524623Y-158476626D01*
X234524622Y-158476628D01*
X234464834Y-158607543D01*
X234444353Y-158750000D01*
X231140000Y-158750000D01*
X231140000Y-157839994D01*
X271595202Y-157839994D01*
X271595202Y-157840005D01*
X271614361Y-158071218D01*
X271671317Y-158296135D01*
X271764515Y-158508606D01*
X271848812Y-158637633D01*
X272435387Y-158051058D01*
X272440889Y-158071591D01*
X272519881Y-158208408D01*
X272631592Y-158320119D01*
X272768409Y-158399111D01*
X272788940Y-158404612D01*
X272201201Y-158992351D01*
X272231649Y-159016050D01*
X272435697Y-159126476D01*
X272435706Y-159126479D01*
X272655139Y-159201811D01*
X272883993Y-159240000D01*
X273116007Y-159240000D01*
X273344860Y-159201811D01*
X273564293Y-159126479D01*
X273564301Y-159126476D01*
X273768355Y-159016047D01*
X273798797Y-158992351D01*
X273798798Y-158992350D01*
X273556448Y-158750000D01*
X278894353Y-158750000D01*
X278914834Y-158892456D01*
X278971277Y-159016047D01*
X278974623Y-159023373D01*
X279068872Y-159132143D01*
X279189947Y-159209953D01*
X279189950Y-159209954D01*
X279189949Y-159209954D01*
X279328036Y-159250499D01*
X279328038Y-159250500D01*
X279328039Y-159250500D01*
X279471962Y-159250500D01*
X279471962Y-159250499D01*
X279610053Y-159209953D01*
X279731128Y-159132143D01*
X279825377Y-159023373D01*
X279885165Y-158892457D01*
X279905647Y-158750000D01*
X285244353Y-158750000D01*
X285264834Y-158892456D01*
X285321277Y-159016047D01*
X285324623Y-159023373D01*
X285418872Y-159132143D01*
X285539947Y-159209953D01*
X285539950Y-159209954D01*
X285539949Y-159209954D01*
X285678036Y-159250499D01*
X285678038Y-159250500D01*
X285678039Y-159250500D01*
X285821962Y-159250500D01*
X285821962Y-159250499D01*
X285960053Y-159209953D01*
X286081128Y-159132143D01*
X286175377Y-159023373D01*
X286235165Y-158892457D01*
X286255647Y-158750000D01*
X286235165Y-158607543D01*
X286175377Y-158476627D01*
X286081128Y-158367857D01*
X285960053Y-158290047D01*
X285960051Y-158290046D01*
X285960049Y-158290045D01*
X285960050Y-158290045D01*
X285821963Y-158249500D01*
X285821961Y-158249500D01*
X285678039Y-158249500D01*
X285678036Y-158249500D01*
X285539949Y-158290045D01*
X285418873Y-158367856D01*
X285324623Y-158476626D01*
X285324622Y-158476628D01*
X285264834Y-158607543D01*
X285244353Y-158750000D01*
X279905647Y-158750000D01*
X279885165Y-158607543D01*
X279825377Y-158476627D01*
X279731128Y-158367857D01*
X279610053Y-158290047D01*
X279610051Y-158290046D01*
X279610049Y-158290045D01*
X279610050Y-158290045D01*
X279471963Y-158249500D01*
X279471961Y-158249500D01*
X279328039Y-158249500D01*
X279328036Y-158249500D01*
X279189949Y-158290045D01*
X279068873Y-158367856D01*
X278974623Y-158476626D01*
X278974622Y-158476628D01*
X278914834Y-158607543D01*
X278894353Y-158750000D01*
X273556448Y-158750000D01*
X273211060Y-158404612D01*
X273231591Y-158399111D01*
X273368408Y-158320119D01*
X273480119Y-158208408D01*
X273559111Y-158071591D01*
X273564612Y-158051059D01*
X274151186Y-158637633D01*
X274235482Y-158508611D01*
X274328682Y-158296135D01*
X274385638Y-158071218D01*
X274404798Y-157840005D01*
X274404798Y-157839994D01*
X291595202Y-157839994D01*
X291595202Y-157840005D01*
X291614361Y-158071218D01*
X291671317Y-158296135D01*
X291764515Y-158508606D01*
X291848812Y-158637633D01*
X292435387Y-158051058D01*
X292440889Y-158071591D01*
X292519881Y-158208408D01*
X292631592Y-158320119D01*
X292768409Y-158399111D01*
X292788940Y-158404612D01*
X292201201Y-158992351D01*
X292231649Y-159016050D01*
X292435697Y-159126476D01*
X292435706Y-159126479D01*
X292655139Y-159201811D01*
X292883993Y-159240000D01*
X293116007Y-159240000D01*
X293344860Y-159201811D01*
X293564293Y-159126479D01*
X293564301Y-159126476D01*
X293768355Y-159016047D01*
X293798797Y-158992351D01*
X293798798Y-158992350D01*
X293556448Y-158750000D01*
X297944353Y-158750000D01*
X297964834Y-158892456D01*
X298021277Y-159016047D01*
X298024623Y-159023373D01*
X298118872Y-159132143D01*
X298239947Y-159209953D01*
X298239950Y-159209954D01*
X298239949Y-159209954D01*
X298378036Y-159250499D01*
X298378038Y-159250500D01*
X298378039Y-159250500D01*
X298521962Y-159250500D01*
X298521962Y-159250499D01*
X298660053Y-159209953D01*
X298781128Y-159132143D01*
X298875377Y-159023373D01*
X298935165Y-158892457D01*
X298955647Y-158750000D01*
X304294353Y-158750000D01*
X304314834Y-158892456D01*
X304371277Y-159016047D01*
X304374623Y-159023373D01*
X304468872Y-159132143D01*
X304589947Y-159209953D01*
X304589950Y-159209954D01*
X304589949Y-159209954D01*
X304728036Y-159250499D01*
X304728038Y-159250500D01*
X304728039Y-159250500D01*
X304871962Y-159250500D01*
X304871962Y-159250499D01*
X305010053Y-159209953D01*
X305131128Y-159132143D01*
X305225377Y-159023373D01*
X305285165Y-158892457D01*
X305305647Y-158750000D01*
X305285165Y-158607543D01*
X305225377Y-158476627D01*
X305131128Y-158367857D01*
X305010053Y-158290047D01*
X305010051Y-158290046D01*
X305010049Y-158290045D01*
X305010050Y-158290045D01*
X304871963Y-158249500D01*
X304871961Y-158249500D01*
X304728039Y-158249500D01*
X304728036Y-158249500D01*
X304589949Y-158290045D01*
X304468873Y-158367856D01*
X304374623Y-158476626D01*
X304374622Y-158476628D01*
X304314834Y-158607543D01*
X304294353Y-158750000D01*
X298955647Y-158750000D01*
X298935165Y-158607543D01*
X298875377Y-158476627D01*
X298781128Y-158367857D01*
X298660053Y-158290047D01*
X298660051Y-158290046D01*
X298660049Y-158290045D01*
X298660050Y-158290045D01*
X298521963Y-158249500D01*
X298521961Y-158249500D01*
X298378039Y-158249500D01*
X298378036Y-158249500D01*
X298239949Y-158290045D01*
X298118873Y-158367856D01*
X298024623Y-158476626D01*
X298024622Y-158476628D01*
X297964834Y-158607543D01*
X297944353Y-158750000D01*
X293556448Y-158750000D01*
X293211060Y-158404612D01*
X293231591Y-158399111D01*
X293368408Y-158320119D01*
X293480119Y-158208408D01*
X293559111Y-158071591D01*
X293564612Y-158051059D01*
X294151186Y-158637633D01*
X294235482Y-158508611D01*
X294328682Y-158296135D01*
X294385638Y-158071218D01*
X294404798Y-157840005D01*
X294404798Y-157839994D01*
X311595202Y-157839994D01*
X311595202Y-157840005D01*
X311614361Y-158071218D01*
X311671317Y-158296135D01*
X311764515Y-158508606D01*
X311848812Y-158637633D01*
X312435387Y-158051058D01*
X312440889Y-158071591D01*
X312519881Y-158208408D01*
X312631592Y-158320119D01*
X312768409Y-158399111D01*
X312788940Y-158404612D01*
X312201201Y-158992351D01*
X312231649Y-159016050D01*
X312435697Y-159126476D01*
X312435706Y-159126479D01*
X312655139Y-159201811D01*
X312883993Y-159240000D01*
X313116007Y-159240000D01*
X313344860Y-159201811D01*
X313564293Y-159126479D01*
X313564301Y-159126476D01*
X313768355Y-159016047D01*
X313798797Y-158992351D01*
X313798798Y-158992350D01*
X313556448Y-158750000D01*
X323344353Y-158750000D01*
X323364834Y-158892456D01*
X323421277Y-159016047D01*
X323424623Y-159023373D01*
X323518872Y-159132143D01*
X323639947Y-159209953D01*
X323639950Y-159209954D01*
X323639949Y-159209954D01*
X323778036Y-159250499D01*
X323778038Y-159250500D01*
X323778039Y-159250500D01*
X323921962Y-159250500D01*
X323921962Y-159250499D01*
X324060053Y-159209953D01*
X324181128Y-159132143D01*
X324275377Y-159023373D01*
X324335165Y-158892457D01*
X324355647Y-158750000D01*
X324335165Y-158607543D01*
X324275377Y-158476627D01*
X324181128Y-158367857D01*
X324060053Y-158290047D01*
X324060051Y-158290046D01*
X324060049Y-158290045D01*
X324060050Y-158290045D01*
X323921963Y-158249500D01*
X323921961Y-158249500D01*
X323778039Y-158249500D01*
X323778036Y-158249500D01*
X323639949Y-158290045D01*
X323518873Y-158367856D01*
X323424623Y-158476626D01*
X323424622Y-158476628D01*
X323364834Y-158607543D01*
X323344353Y-158750000D01*
X313556448Y-158750000D01*
X313211060Y-158404612D01*
X313231591Y-158399111D01*
X313368408Y-158320119D01*
X313480119Y-158208408D01*
X313559111Y-158071591D01*
X313564612Y-158051059D01*
X314151186Y-158637633D01*
X314235482Y-158508611D01*
X314328682Y-158296135D01*
X314385638Y-158071218D01*
X314404798Y-157840005D01*
X314404798Y-157839994D01*
X331595202Y-157839994D01*
X331595202Y-157840005D01*
X331614361Y-158071218D01*
X331671317Y-158296135D01*
X331764515Y-158508606D01*
X331848812Y-158637633D01*
X332435387Y-158051058D01*
X332440889Y-158071591D01*
X332519881Y-158208408D01*
X332631592Y-158320119D01*
X332768409Y-158399111D01*
X332788940Y-158404612D01*
X332201201Y-158992351D01*
X332231649Y-159016050D01*
X332435697Y-159126476D01*
X332435706Y-159126479D01*
X332655139Y-159201811D01*
X332883993Y-159240000D01*
X333116007Y-159240000D01*
X333344860Y-159201811D01*
X333564293Y-159126479D01*
X333564301Y-159126476D01*
X333768355Y-159016047D01*
X333798797Y-158992351D01*
X333798798Y-158992350D01*
X333556448Y-158750000D01*
X342394353Y-158750000D01*
X342414834Y-158892456D01*
X342471277Y-159016047D01*
X342474623Y-159023373D01*
X342568872Y-159132143D01*
X342689947Y-159209953D01*
X342689950Y-159209954D01*
X342689949Y-159209954D01*
X342828036Y-159250499D01*
X342828038Y-159250500D01*
X342828039Y-159250500D01*
X342971962Y-159250500D01*
X342971962Y-159250499D01*
X343110053Y-159209953D01*
X343231128Y-159132143D01*
X343325377Y-159023373D01*
X343385165Y-158892457D01*
X343405647Y-158750000D01*
X343385165Y-158607543D01*
X343325377Y-158476627D01*
X343231128Y-158367857D01*
X343110053Y-158290047D01*
X343110051Y-158290046D01*
X343110049Y-158290045D01*
X343110050Y-158290045D01*
X342971963Y-158249500D01*
X342971961Y-158249500D01*
X342828039Y-158249500D01*
X342828036Y-158249500D01*
X342689949Y-158290045D01*
X342568873Y-158367856D01*
X342474623Y-158476626D01*
X342474622Y-158476628D01*
X342414834Y-158607543D01*
X342394353Y-158750000D01*
X333556448Y-158750000D01*
X333211060Y-158404612D01*
X333231591Y-158399111D01*
X333368408Y-158320119D01*
X333480119Y-158208408D01*
X333559111Y-158071591D01*
X333564612Y-158051059D01*
X334151186Y-158637633D01*
X334235482Y-158508611D01*
X334328682Y-158296135D01*
X334385638Y-158071218D01*
X334404798Y-157840005D01*
X334404798Y-157839994D01*
X351595202Y-157839994D01*
X351595202Y-157840005D01*
X351614361Y-158071218D01*
X351671317Y-158296135D01*
X351764515Y-158508606D01*
X351848812Y-158637633D01*
X352435387Y-158051058D01*
X352440889Y-158071591D01*
X352519881Y-158208408D01*
X352631592Y-158320119D01*
X352768409Y-158399111D01*
X352788940Y-158404612D01*
X352201201Y-158992351D01*
X352231649Y-159016050D01*
X352435697Y-159126476D01*
X352435706Y-159126479D01*
X352655139Y-159201811D01*
X352883993Y-159240000D01*
X353116007Y-159240000D01*
X353344860Y-159201811D01*
X353564293Y-159126479D01*
X353564301Y-159126476D01*
X353768355Y-159016047D01*
X353798797Y-158992351D01*
X353798798Y-158992350D01*
X353211060Y-158404612D01*
X353231591Y-158399111D01*
X353368408Y-158320119D01*
X353480119Y-158208408D01*
X353559111Y-158071591D01*
X353564612Y-158051059D01*
X354151186Y-158637633D01*
X354235482Y-158508611D01*
X354328682Y-158296135D01*
X354385638Y-158071218D01*
X354404798Y-157840005D01*
X354404798Y-157839994D01*
X354385638Y-157608781D01*
X354328682Y-157383864D01*
X354235484Y-157171393D01*
X354151186Y-157042365D01*
X353564612Y-157628939D01*
X353559111Y-157608409D01*
X353480119Y-157471592D01*
X353368408Y-157359881D01*
X353231591Y-157280889D01*
X353211058Y-157275387D01*
X353798797Y-156687647D01*
X353798797Y-156687645D01*
X353768360Y-156663955D01*
X353768354Y-156663951D01*
X353564302Y-156553523D01*
X353564293Y-156553520D01*
X353344860Y-156478188D01*
X353116007Y-156440000D01*
X352883993Y-156440000D01*
X352655139Y-156478188D01*
X352435706Y-156553520D01*
X352435697Y-156553523D01*
X352231650Y-156663949D01*
X352201200Y-156687647D01*
X352788941Y-157275387D01*
X352768409Y-157280889D01*
X352631592Y-157359881D01*
X352519881Y-157471592D01*
X352440889Y-157608409D01*
X352435387Y-157628941D01*
X351848811Y-157042365D01*
X351764516Y-157171390D01*
X351671317Y-157383864D01*
X351614361Y-157608781D01*
X351595202Y-157839994D01*
X334404798Y-157839994D01*
X334385638Y-157608781D01*
X334328682Y-157383864D01*
X334235484Y-157171393D01*
X334151186Y-157042365D01*
X333564612Y-157628939D01*
X333559111Y-157608409D01*
X333480119Y-157471592D01*
X333368408Y-157359881D01*
X333231591Y-157280889D01*
X333211058Y-157275387D01*
X333798797Y-156687647D01*
X333798797Y-156687645D01*
X333768360Y-156663955D01*
X333768354Y-156663951D01*
X333564302Y-156553523D01*
X333564293Y-156553520D01*
X333344860Y-156478188D01*
X333116007Y-156440000D01*
X332883993Y-156440000D01*
X332655139Y-156478188D01*
X332435706Y-156553520D01*
X332435697Y-156553523D01*
X332231650Y-156663949D01*
X332201200Y-156687647D01*
X332788941Y-157275387D01*
X332768409Y-157280889D01*
X332631592Y-157359881D01*
X332519881Y-157471592D01*
X332440889Y-157608409D01*
X332435387Y-157628940D01*
X331848811Y-157042365D01*
X331764516Y-157171390D01*
X331671317Y-157383864D01*
X331614361Y-157608781D01*
X331595202Y-157839994D01*
X314404798Y-157839994D01*
X314385638Y-157608781D01*
X314328682Y-157383864D01*
X314235484Y-157171393D01*
X314151186Y-157042365D01*
X313564612Y-157628939D01*
X313559111Y-157608409D01*
X313480119Y-157471592D01*
X313368408Y-157359881D01*
X313231591Y-157280889D01*
X313211058Y-157275387D01*
X313798797Y-156687647D01*
X313798797Y-156687645D01*
X313768360Y-156663955D01*
X313768354Y-156663951D01*
X313564302Y-156553523D01*
X313564293Y-156553520D01*
X313344860Y-156478188D01*
X313116007Y-156440000D01*
X312883993Y-156440000D01*
X312655139Y-156478188D01*
X312435706Y-156553520D01*
X312435697Y-156553523D01*
X312231650Y-156663949D01*
X312201200Y-156687647D01*
X312788941Y-157275387D01*
X312768409Y-157280889D01*
X312631592Y-157359881D01*
X312519881Y-157471592D01*
X312440889Y-157608409D01*
X312435387Y-157628941D01*
X311848811Y-157042365D01*
X311764516Y-157171390D01*
X311671317Y-157383864D01*
X311614361Y-157608781D01*
X311595202Y-157839994D01*
X294404798Y-157839994D01*
X294385638Y-157608781D01*
X294328682Y-157383864D01*
X294235484Y-157171393D01*
X294151186Y-157042365D01*
X293564612Y-157628939D01*
X293559111Y-157608409D01*
X293480119Y-157471592D01*
X293368408Y-157359881D01*
X293231591Y-157280889D01*
X293211058Y-157275387D01*
X293798797Y-156687647D01*
X293798797Y-156687645D01*
X293768360Y-156663955D01*
X293768354Y-156663951D01*
X293564302Y-156553523D01*
X293564293Y-156553520D01*
X293344860Y-156478188D01*
X293116007Y-156440000D01*
X292883993Y-156440000D01*
X292655139Y-156478188D01*
X292435706Y-156553520D01*
X292435697Y-156553523D01*
X292231650Y-156663949D01*
X292201200Y-156687647D01*
X292788941Y-157275387D01*
X292768409Y-157280889D01*
X292631592Y-157359881D01*
X292519881Y-157471592D01*
X292440889Y-157608409D01*
X292435387Y-157628941D01*
X291848811Y-157042365D01*
X291764516Y-157171390D01*
X291671317Y-157383864D01*
X291614361Y-157608781D01*
X291595202Y-157839994D01*
X274404798Y-157839994D01*
X274385638Y-157608781D01*
X274328682Y-157383864D01*
X274235484Y-157171393D01*
X274151186Y-157042365D01*
X273564612Y-157628939D01*
X273559111Y-157608409D01*
X273480119Y-157471592D01*
X273368408Y-157359881D01*
X273231591Y-157280889D01*
X273211058Y-157275387D01*
X273798797Y-156687647D01*
X273798797Y-156687645D01*
X273768360Y-156663955D01*
X273768354Y-156663951D01*
X273564302Y-156553523D01*
X273564293Y-156553520D01*
X273344860Y-156478188D01*
X273116007Y-156440000D01*
X272883993Y-156440000D01*
X272655139Y-156478188D01*
X272435706Y-156553520D01*
X272435697Y-156553523D01*
X272231650Y-156663949D01*
X272201200Y-156687647D01*
X272788941Y-157275387D01*
X272768409Y-157280889D01*
X272631592Y-157359881D01*
X272519881Y-157471592D01*
X272440889Y-157608409D01*
X272435387Y-157628941D01*
X271848811Y-157042365D01*
X271764516Y-157171390D01*
X271671317Y-157383864D01*
X271614361Y-157608781D01*
X271595202Y-157839994D01*
X231140000Y-157839994D01*
X231140000Y-154029999D01*
X271894785Y-154029999D01*
X271894785Y-154030000D01*
X271913602Y-154233082D01*
X271969417Y-154429247D01*
X271969422Y-154429260D01*
X272060327Y-154611821D01*
X272183237Y-154774581D01*
X272333958Y-154911980D01*
X272333960Y-154911982D01*
X272433141Y-154973392D01*
X272507363Y-155019348D01*
X272697544Y-155093024D01*
X272898024Y-155130500D01*
X272898026Y-155130500D01*
X273101974Y-155130500D01*
X273101976Y-155130500D01*
X273302456Y-155093024D01*
X273492637Y-155019348D01*
X273666041Y-154911981D01*
X273816764Y-154774579D01*
X273939673Y-154611821D01*
X274030582Y-154429250D01*
X274086397Y-154233083D01*
X274105215Y-154030000D01*
X274105215Y-154029999D01*
X291894785Y-154029999D01*
X291894785Y-154030000D01*
X291913602Y-154233082D01*
X291969417Y-154429247D01*
X291969422Y-154429260D01*
X292060327Y-154611821D01*
X292183237Y-154774581D01*
X292333958Y-154911980D01*
X292333960Y-154911982D01*
X292433141Y-154973392D01*
X292507363Y-155019348D01*
X292697544Y-155093024D01*
X292898024Y-155130500D01*
X292898026Y-155130500D01*
X293101974Y-155130500D01*
X293101976Y-155130500D01*
X293302456Y-155093024D01*
X293492637Y-155019348D01*
X293666041Y-154911981D01*
X293816764Y-154774579D01*
X293939673Y-154611821D01*
X294030582Y-154429250D01*
X294086397Y-154233083D01*
X294105215Y-154030000D01*
X294105215Y-154029999D01*
X311894785Y-154029999D01*
X311894785Y-154030000D01*
X311913602Y-154233082D01*
X311969417Y-154429247D01*
X311969422Y-154429260D01*
X312060327Y-154611821D01*
X312183237Y-154774581D01*
X312333958Y-154911980D01*
X312333960Y-154911982D01*
X312433141Y-154973392D01*
X312507363Y-155019348D01*
X312697544Y-155093024D01*
X312898024Y-155130500D01*
X312898026Y-155130500D01*
X313101974Y-155130500D01*
X313101976Y-155130500D01*
X313302456Y-155093024D01*
X313492637Y-155019348D01*
X313666041Y-154911981D01*
X313816764Y-154774579D01*
X313939673Y-154611821D01*
X314030582Y-154429250D01*
X314086397Y-154233083D01*
X314105215Y-154030000D01*
X314105215Y-154029999D01*
X331894785Y-154029999D01*
X331894785Y-154030000D01*
X331913602Y-154233082D01*
X331969417Y-154429247D01*
X331969422Y-154429260D01*
X332060327Y-154611821D01*
X332183237Y-154774581D01*
X332333958Y-154911980D01*
X332333960Y-154911982D01*
X332433141Y-154973392D01*
X332507363Y-155019348D01*
X332697544Y-155093024D01*
X332898024Y-155130500D01*
X332898026Y-155130500D01*
X333101974Y-155130500D01*
X333101976Y-155130500D01*
X333302456Y-155093024D01*
X333492637Y-155019348D01*
X333666041Y-154911981D01*
X333816764Y-154774579D01*
X333939673Y-154611821D01*
X334030582Y-154429250D01*
X334086397Y-154233083D01*
X334105215Y-154030000D01*
X334105215Y-154029999D01*
X351894785Y-154029999D01*
X351894785Y-154030000D01*
X351913602Y-154233082D01*
X351969417Y-154429247D01*
X351969422Y-154429260D01*
X352060327Y-154611821D01*
X352183237Y-154774581D01*
X352333958Y-154911980D01*
X352333960Y-154911982D01*
X352433141Y-154973392D01*
X352507363Y-155019348D01*
X352697544Y-155093024D01*
X352898024Y-155130500D01*
X352898026Y-155130500D01*
X353101974Y-155130500D01*
X353101976Y-155130500D01*
X353302456Y-155093024D01*
X353492637Y-155019348D01*
X353666041Y-154911981D01*
X353816764Y-154774579D01*
X353939673Y-154611821D01*
X354030582Y-154429250D01*
X354086397Y-154233083D01*
X354105215Y-154030000D01*
X354086397Y-153826917D01*
X354030582Y-153630750D01*
X353939673Y-153448179D01*
X353816764Y-153285421D01*
X353816762Y-153285418D01*
X353666041Y-153148019D01*
X353666039Y-153148017D01*
X353492642Y-153040655D01*
X353492635Y-153040651D01*
X353397546Y-153003814D01*
X353302456Y-152966976D01*
X353101976Y-152929500D01*
X352898024Y-152929500D01*
X352697544Y-152966976D01*
X352697541Y-152966976D01*
X352697541Y-152966977D01*
X352507364Y-153040651D01*
X352507357Y-153040655D01*
X352333960Y-153148017D01*
X352333958Y-153148019D01*
X352183237Y-153285418D01*
X352060327Y-153448178D01*
X351969422Y-153630739D01*
X351969417Y-153630752D01*
X351913602Y-153826917D01*
X351894785Y-154029999D01*
X334105215Y-154029999D01*
X334086397Y-153826917D01*
X334030582Y-153630750D01*
X333939673Y-153448179D01*
X333816764Y-153285421D01*
X333816762Y-153285418D01*
X333666041Y-153148019D01*
X333666039Y-153148017D01*
X333492642Y-153040655D01*
X333492635Y-153040651D01*
X333397546Y-153003814D01*
X333302456Y-152966976D01*
X333101976Y-152929500D01*
X332898024Y-152929500D01*
X332697544Y-152966976D01*
X332697541Y-152966976D01*
X332697541Y-152966977D01*
X332507364Y-153040651D01*
X332507357Y-153040655D01*
X332333960Y-153148017D01*
X332333958Y-153148019D01*
X332183237Y-153285418D01*
X332060327Y-153448178D01*
X331969422Y-153630739D01*
X331969417Y-153630752D01*
X331913602Y-153826917D01*
X331894785Y-154029999D01*
X314105215Y-154029999D01*
X314086397Y-153826917D01*
X314030582Y-153630750D01*
X313939673Y-153448179D01*
X313816764Y-153285421D01*
X313816762Y-153285418D01*
X313666041Y-153148019D01*
X313666039Y-153148017D01*
X313492642Y-153040655D01*
X313492635Y-153040651D01*
X313397546Y-153003814D01*
X313302456Y-152966976D01*
X313101976Y-152929500D01*
X312898024Y-152929500D01*
X312697544Y-152966976D01*
X312697541Y-152966976D01*
X312697541Y-152966977D01*
X312507364Y-153040651D01*
X312507357Y-153040655D01*
X312333960Y-153148017D01*
X312333958Y-153148019D01*
X312183237Y-153285418D01*
X312060327Y-153448178D01*
X311969422Y-153630739D01*
X311969417Y-153630752D01*
X311913602Y-153826917D01*
X311894785Y-154029999D01*
X294105215Y-154029999D01*
X294086397Y-153826917D01*
X294030582Y-153630750D01*
X293939673Y-153448179D01*
X293816764Y-153285421D01*
X293816762Y-153285418D01*
X293666041Y-153148019D01*
X293666039Y-153148017D01*
X293492642Y-153040655D01*
X293492635Y-153040651D01*
X293397546Y-153003814D01*
X293302456Y-152966976D01*
X293101976Y-152929500D01*
X292898024Y-152929500D01*
X292697544Y-152966976D01*
X292697541Y-152966976D01*
X292697541Y-152966977D01*
X292507364Y-153040651D01*
X292507357Y-153040655D01*
X292333960Y-153148017D01*
X292333958Y-153148019D01*
X292183237Y-153285418D01*
X292060327Y-153448178D01*
X291969422Y-153630739D01*
X291969417Y-153630752D01*
X291913602Y-153826917D01*
X291894785Y-154029999D01*
X274105215Y-154029999D01*
X274086397Y-153826917D01*
X274030582Y-153630750D01*
X273939673Y-153448179D01*
X273816764Y-153285421D01*
X273816762Y-153285418D01*
X273666041Y-153148019D01*
X273666039Y-153148017D01*
X273492642Y-153040655D01*
X273492635Y-153040651D01*
X273397546Y-153003814D01*
X273302456Y-152966976D01*
X273101976Y-152929500D01*
X272898024Y-152929500D01*
X272697544Y-152966976D01*
X272697541Y-152966976D01*
X272697541Y-152966977D01*
X272507364Y-153040651D01*
X272507357Y-153040655D01*
X272333960Y-153148017D01*
X272333958Y-153148019D01*
X272183237Y-153285418D01*
X272060327Y-153448178D01*
X271969422Y-153630739D01*
X271969417Y-153630752D01*
X271913602Y-153826917D01*
X271894785Y-154029999D01*
X231140000Y-154029999D01*
X231140000Y-153451362D01*
X231159685Y-153384323D01*
X231176319Y-153363681D01*
X232103681Y-152436319D01*
X232165004Y-152402834D01*
X232191362Y-152400000D01*
X234336906Y-152400000D01*
X234403945Y-152419685D01*
G37*
%TD.AperFunction*%
%TD*%
M02*
