%TF.GenerationSoftware,KiCad,Pcbnew,9.0.3*%
%TF.CreationDate,2025-09-16T12:32:26-04:00*%
%TF.ProjectId,CAEN_NEVIS_DAQ_PM5V,4341454e-5f4e-4455-9649-535f4441515f,rev?*%
%TF.SameCoordinates,Original*%
%TF.FileFunction,Other,User*%
%FSLAX46Y46*%
G04 Gerber Fmt 4.6, Leading zero omitted, Abs format (unit mm)*
G04 Created by KiCad (PCBNEW 9.0.3) date 2025-09-16 12:32:26*
%MOMM*%
%LPD*%
G01*
G04 APERTURE LIST*
%ADD10C,0.050000*%
%ADD11C,0.152400*%
G04 APERTURE END LIST*
D10*
%TO.C,C20*%
X184925000Y-132610000D02*
X186885000Y-132610000D01*
X184925000Y-136010000D02*
X184925000Y-132610000D01*
X186885000Y-132610000D02*
X186885000Y-136010000D01*
X186885000Y-136010000D02*
X184925000Y-136010000D01*
%TO.C,C32*%
X185025000Y-205940000D02*
X186485000Y-205940000D01*
X185025000Y-208900000D02*
X185025000Y-205940000D01*
X186485000Y-205940000D02*
X186485000Y-208900000D01*
X186485000Y-208900000D02*
X185025000Y-208900000D01*
%TO.C,C33*%
X186925000Y-205940000D02*
X188385000Y-205940000D01*
X186925000Y-208900000D02*
X186925000Y-205940000D01*
X188385000Y-205940000D02*
X188385000Y-208900000D01*
X188385000Y-208900000D02*
X186925000Y-208900000D01*
%TO.C,R5*%
X155380000Y-189750000D02*
X156840000Y-189750000D01*
X155380000Y-192710000D02*
X155380000Y-189750000D01*
X156840000Y-189750000D02*
X156840000Y-192710000D01*
X156840000Y-192710000D02*
X155380000Y-192710000D01*
%TO.C,C35*%
X215115000Y-206155000D02*
X216575000Y-206155000D01*
X215115000Y-209115000D02*
X215115000Y-206155000D01*
X216575000Y-206155000D02*
X216575000Y-209115000D01*
X216575000Y-209115000D02*
X215115000Y-209115000D01*
%TO.C,R13*%
X218546250Y-244699999D02*
X220446250Y-244699999D01*
X218546250Y-248059999D02*
X218546250Y-244699999D01*
X220446250Y-244699999D02*
X220446250Y-248059999D01*
X220446250Y-248059999D02*
X218546250Y-248059999D01*
%TO.C,C22*%
X190155000Y-132590000D02*
X192115000Y-132590000D01*
X190155000Y-135990000D02*
X190155000Y-132590000D01*
X192115000Y-132590000D02*
X192115000Y-135990000D01*
X192115000Y-135990000D02*
X190155000Y-135990000D01*
%TO.C,C49*%
X255420000Y-64350000D02*
X256340000Y-64350000D01*
X255420000Y-66170000D02*
X255420000Y-64350000D01*
X256340000Y-64350000D02*
X256340000Y-66170000D01*
X256340000Y-66170000D02*
X255420000Y-66170000D01*
%TO.C,C34*%
X213185000Y-206150000D02*
X214645000Y-206150000D01*
X213185000Y-209110000D02*
X213185000Y-206150000D01*
X214645000Y-206150000D02*
X214645000Y-209110000D01*
X214645000Y-209110000D02*
X213185000Y-209110000D01*
%TO.C,C53*%
X257810000Y-68790000D02*
X259270000Y-68790000D01*
X257810000Y-71750000D02*
X257810000Y-68790000D01*
X259270000Y-68790000D02*
X259270000Y-71750000D01*
X259270000Y-71750000D02*
X257810000Y-71750000D01*
%TO.C,C25*%
X253635000Y-132600000D02*
X255595000Y-132600000D01*
X253635000Y-136000000D02*
X253635000Y-132600000D01*
X255595000Y-132600000D02*
X255595000Y-136000000D01*
X255595000Y-136000000D02*
X253635000Y-136000000D01*
%TO.C,C21*%
X187575000Y-132610000D02*
X189535000Y-132610000D01*
X187575000Y-136010000D02*
X187575000Y-132610000D01*
X189535000Y-132610000D02*
X189535000Y-136010000D01*
X189535000Y-136010000D02*
X187575000Y-136010000D01*
%TO.C,C15*%
X254195000Y-59077500D02*
X256155000Y-59077500D01*
X254195000Y-62477500D02*
X254195000Y-59077500D01*
X256155000Y-59077500D02*
X256155000Y-62477500D01*
X256155000Y-62477500D02*
X254195000Y-62477500D01*
%TO.C,C41*%
X184626250Y-244670001D02*
X186086250Y-244670001D01*
X184626250Y-247630001D02*
X184626250Y-244670001D01*
X186086250Y-244670001D02*
X186086250Y-247630001D01*
X186086250Y-247630001D02*
X184626250Y-247630001D01*
%TO.C,C40*%
X182706250Y-244670001D02*
X184166250Y-244670001D01*
X182706250Y-247630001D02*
X182706250Y-244670001D01*
X184166250Y-244670001D02*
X184166250Y-247630001D01*
X184166250Y-247630001D02*
X182706250Y-247630001D01*
%TO.C,C64*%
X219010000Y-198250000D02*
X221970000Y-198250000D01*
X219010000Y-199710000D02*
X219010000Y-198250000D01*
X221970000Y-198250000D02*
X221970000Y-199710000D01*
X221970000Y-199710000D02*
X219010000Y-199710000D01*
%TO.C,C24*%
X251015000Y-132600000D02*
X252975000Y-132600000D01*
X251015000Y-136000000D02*
X251015000Y-132600000D01*
X252975000Y-132600000D02*
X252975000Y-136000000D01*
X252975000Y-136000000D02*
X251015000Y-136000000D01*
%TO.C,C1*%
X147780000Y-197150000D02*
X149540000Y-197150000D01*
X147780000Y-200550000D02*
X147780000Y-197150000D01*
X149540000Y-197150000D02*
X149540000Y-200550000D01*
X149540000Y-200550000D02*
X147780000Y-200550000D01*
%TO.C,R12*%
X218945000Y-205970000D02*
X220845000Y-205970000D01*
X218945000Y-209330000D02*
X218945000Y-205970000D01*
X220845000Y-205970000D02*
X220845000Y-209330000D01*
X220845000Y-209330000D02*
X218945000Y-209330000D01*
D11*
%TO.C,U11*%
X234806400Y-193877400D02*
X234806400Y-196742600D01*
X234806400Y-193877400D02*
X235913200Y-193877400D01*
X234806400Y-196742600D02*
X235913200Y-196742600D01*
X235913200Y-193608200D02*
X235913200Y-193877400D01*
X235913200Y-196742600D02*
X235913200Y-197011800D01*
X235913200Y-197011800D02*
X238046800Y-197011800D01*
X238046800Y-193608200D02*
X235913200Y-193608200D01*
X238046800Y-193877400D02*
X238046800Y-193608200D01*
X238046800Y-197011800D02*
X238046800Y-196742600D01*
X239153600Y-193877400D02*
X238046800Y-193877400D01*
X239153600Y-196742600D02*
X238046800Y-196742600D01*
X239153600Y-196742600D02*
X239153600Y-193877400D01*
D10*
%TO.C,C11*%
X188135000Y-59087500D02*
X190095000Y-59087500D01*
X188135000Y-62487500D02*
X188135000Y-59087500D01*
X190095000Y-59087500D02*
X190095000Y-62487500D01*
X190095000Y-62487500D02*
X188135000Y-62487500D01*
%TO.C,C50*%
X254220000Y-64350000D02*
X255140000Y-64350000D01*
X254220000Y-66170000D02*
X254220000Y-64350000D01*
X255140000Y-64350000D02*
X255140000Y-66170000D01*
X255140000Y-66170000D02*
X254220000Y-66170000D01*
%TO.C,C58*%
X240400000Y-194880000D02*
X241320000Y-194880000D01*
X240400000Y-196700000D02*
X240400000Y-194880000D01*
X241320000Y-194880000D02*
X241320000Y-196700000D01*
X241320000Y-196700000D02*
X240400000Y-196700000D01*
%TO.C,R21*%
X255960000Y-68780000D02*
X257420000Y-68780000D01*
X255960000Y-71740000D02*
X255960000Y-68780000D01*
X257420000Y-68780000D02*
X257420000Y-71740000D01*
X257420000Y-71740000D02*
X255960000Y-71740000D01*
%TO.C,R6*%
X144230000Y-185050000D02*
X147190000Y-185050000D01*
X144230000Y-186510000D02*
X144230000Y-185050000D01*
X147190000Y-185050000D02*
X147190000Y-186510000D01*
X147190000Y-186510000D02*
X144230000Y-186510000D01*
%TO.C,C2*%
X157220000Y-189750000D02*
X158680000Y-189750000D01*
X157220000Y-192710000D02*
X157220000Y-189750000D01*
X158680000Y-189750000D02*
X158680000Y-192710000D01*
X158680000Y-192710000D02*
X157220000Y-192710000D01*
%TO.C,C43*%
X212786250Y-244880000D02*
X214246250Y-244880000D01*
X212786250Y-247840000D02*
X212786250Y-244880000D01*
X214246250Y-244880000D02*
X214246250Y-247840000D01*
X214246250Y-247840000D02*
X212786250Y-247840000D01*
%TO.C,C45*%
X216646250Y-244889999D02*
X218106250Y-244889999D01*
X216646250Y-247849999D02*
X216646250Y-244889999D01*
X218106250Y-244889999D02*
X218106250Y-247849999D01*
X218106250Y-247849999D02*
X216646250Y-247849999D01*
%TO.C,R25*%
X232600000Y-188930000D02*
X234060000Y-188930000D01*
X232600000Y-191890000D02*
X232600000Y-188930000D01*
X234060000Y-188930000D02*
X234060000Y-191890000D01*
X234060000Y-191890000D02*
X232600000Y-191890000D01*
%TO.C,C36*%
X217045000Y-206160000D02*
X218505000Y-206160000D01*
X217045000Y-209120000D02*
X217045000Y-206160000D01*
X218505000Y-206160000D02*
X218505000Y-209120000D01*
X218505000Y-209120000D02*
X217045000Y-209120000D01*
D11*
%TO.C,U10*%
X224651600Y-191281600D02*
X224651600Y-196158400D01*
X224651600Y-191281600D02*
X226112100Y-191281600D01*
X224651600Y-196158400D02*
X226112100Y-196158400D01*
X226112100Y-190964100D02*
X226112100Y-191281600D01*
X226112100Y-196158400D02*
X226112100Y-196475900D01*
X226112100Y-196475900D02*
X230607900Y-196475900D01*
X230607900Y-190964100D02*
X226112100Y-190964100D01*
X230607900Y-191281600D02*
X230607900Y-190964100D01*
X230607900Y-196475900D02*
X230607900Y-196158400D01*
X232068400Y-191281600D02*
X230607900Y-191281600D01*
X232068400Y-196158400D02*
X230607900Y-196158400D01*
X232068400Y-196158400D02*
X232068400Y-191281600D01*
D10*
%TO.C,U8*%
X257805000Y-62567500D02*
X257805000Y-67972500D01*
X265215000Y-62567500D02*
X257805000Y-62567500D01*
X265215000Y-62567500D02*
X265215000Y-67972500D01*
X265215000Y-67972500D02*
X257805000Y-67972500D01*
%TO.C,C57*%
X241660000Y-194900000D02*
X242580000Y-194900000D01*
X241660000Y-196720000D02*
X241660000Y-194900000D01*
X242580000Y-194900000D02*
X242580000Y-196720000D01*
X242580000Y-196720000D02*
X241660000Y-196720000D01*
%TO.C,C14*%
X251575000Y-59077500D02*
X253535000Y-59077500D01*
X251575000Y-62477500D02*
X251575000Y-59077500D01*
X253535000Y-59077500D02*
X253535000Y-62477500D01*
X253535000Y-62477500D02*
X251575000Y-62477500D01*
%TO.C,C3*%
X143267500Y-186790000D02*
X147867500Y-186790000D01*
X143267500Y-188890000D02*
X143267500Y-186790000D01*
X147867500Y-186790000D02*
X147867500Y-188890000D01*
X147867500Y-188890000D02*
X143267500Y-188890000D01*
%TO.C,C12*%
X190715000Y-59067500D02*
X192675000Y-59067500D01*
X190715000Y-62467500D02*
X190715000Y-59067500D01*
X192675000Y-59067500D02*
X192675000Y-62467500D01*
X192675000Y-62467500D02*
X190715000Y-62467500D01*
%TO.C,R37*%
X220580000Y-196430000D02*
X223540000Y-196430000D01*
X220580000Y-197890000D02*
X220580000Y-196430000D01*
X223540000Y-196430000D02*
X223540000Y-197890000D01*
X223540000Y-197890000D02*
X220580000Y-197890000D01*
%TO.C,C44*%
X214716250Y-244884999D02*
X216176250Y-244884999D01*
X214716250Y-247844999D02*
X214716250Y-244884999D01*
X216176250Y-244884999D02*
X216176250Y-247844999D01*
X216176250Y-247844999D02*
X214716250Y-247844999D01*
%TO.C,C23*%
X248585000Y-132630000D02*
X250545000Y-132630000D01*
X248585000Y-136030000D02*
X248585000Y-132630000D01*
X250545000Y-132630000D02*
X250545000Y-136030000D01*
X250545000Y-136030000D02*
X248585000Y-136030000D01*
%TO.C,C10*%
X185485000Y-59087500D02*
X187445000Y-59087500D01*
X185485000Y-62487500D02*
X185485000Y-59087500D01*
X187445000Y-59087500D02*
X187445000Y-62487500D01*
X187445000Y-62487500D02*
X185485000Y-62487500D01*
%TO.C,C13*%
X249145000Y-59107500D02*
X251105000Y-59107500D01*
X249145000Y-62507500D02*
X249145000Y-59107500D01*
X251105000Y-59107500D02*
X251105000Y-62507500D01*
X251105000Y-62507500D02*
X249145000Y-62507500D01*
D11*
%TO.C,U1*%
X147341700Y-189231800D02*
X147341700Y-193448200D01*
X147341700Y-193448200D02*
X147964000Y-193448200D01*
X147964000Y-193448200D02*
X147964000Y-195594500D01*
X147964000Y-195594500D02*
X153933000Y-195594500D01*
X149119700Y-187085500D02*
X149119700Y-189231800D01*
X149119700Y-189231800D02*
X147341700Y-189231800D01*
X152777300Y-187085500D02*
X149119700Y-187085500D01*
X152777300Y-189231800D02*
X152777300Y-187085500D01*
X153933000Y-193448200D02*
X154555300Y-193448200D01*
X153933000Y-195594500D02*
X153933000Y-193448200D01*
X154555300Y-189231800D02*
X152777300Y-189231800D01*
X154555300Y-193448200D02*
X154555300Y-189231800D01*
D10*
%TO.C,C31*%
X183105000Y-205940000D02*
X184565000Y-205940000D01*
X183105000Y-208900000D02*
X183105000Y-205940000D01*
X184565000Y-205940000D02*
X184565000Y-208900000D01*
X184565000Y-208900000D02*
X183105000Y-208900000D01*
%TO.C,C42*%
X186526250Y-244670001D02*
X187986250Y-244670001D01*
X186526250Y-247630001D02*
X186526250Y-244670001D01*
X187986250Y-244670001D02*
X187986250Y-247630001D01*
X187986250Y-247630001D02*
X186526250Y-247630001D01*
%TD*%
M02*
