%TF.GenerationSoftware,KiCad,Pcbnew,9.0.3*%
%TF.CreationDate,2025-09-16T12:32:26-04:00*%
%TF.ProjectId,CAEN_NEVIS_DAQ_PM5V,4341454e-5f4e-4455-9649-535f4441515f,rev?*%
%TF.SameCoordinates,Original*%
%TF.FileFunction,Paste,Top*%
%TF.FilePolarity,Positive*%
%FSLAX46Y46*%
G04 Gerber Fmt 4.6, Leading zero omitted, Abs format (unit mm)*
G04 Created by KiCad (PCBNEW 9.0.3) date 2025-09-16 12:32:26*
%MOMM*%
%LPD*%
G01*
G04 APERTURE LIST*
G04 Aperture macros list*
%AMRoundRect*
0 Rectangle with rounded corners*
0 $1 Rounding radius*
0 $2 $3 $4 $5 $6 $7 $8 $9 X,Y pos of 4 corners*
0 Add a 4 corners polygon primitive as box body*
4,1,4,$2,$3,$4,$5,$6,$7,$8,$9,$2,$3,0*
0 Add four circle primitives for the rounded corners*
1,1,$1+$1,$2,$3*
1,1,$1+$1,$4,$5*
1,1,$1+$1,$6,$7*
1,1,$1+$1,$8,$9*
0 Add four rect primitives between the rounded corners*
20,1,$1+$1,$2,$3,$4,$5,0*
20,1,$1+$1,$4,$5,$6,$7,0*
20,1,$1+$1,$6,$7,$8,$9,0*
20,1,$1+$1,$8,$9,$2,$3,0*%
G04 Aperture macros list end*
%ADD10RoundRect,0.225000X0.250000X-0.225000X0.250000X0.225000X-0.250000X0.225000X-0.250000X-0.225000X0*%
%ADD11RoundRect,0.250000X0.425000X-0.450000X0.425000X0.450000X-0.425000X0.450000X-0.425000X-0.450000X0*%
%ADD12RoundRect,0.140000X0.170000X-0.140000X0.170000X0.140000X-0.170000X0.140000X-0.170000X-0.140000X0*%
%ADD13RoundRect,0.250000X1.025000X-0.787500X1.025000X0.787500X-1.025000X0.787500X-1.025000X-0.787500X0*%
%ADD14RoundRect,0.200000X0.200000X0.275000X-0.200000X0.275000X-0.200000X-0.275000X0.200000X-0.275000X0*%
%ADD15RoundRect,0.225000X-0.250000X0.225000X-0.250000X-0.225000X0.250000X-0.225000X0.250000X0.225000X0*%
%ADD16RoundRect,0.170000X2.330000X-1.530000X2.330000X1.530000X-2.330000X1.530000X-2.330000X-1.530000X0*%
%ADD17RoundRect,0.200000X-0.200000X-0.275000X0.200000X-0.275000X0.200000X0.275000X-0.200000X0.275000X0*%
%ADD18RoundRect,0.250000X-0.275000X0.312500X-0.275000X-0.312500X0.275000X-0.312500X0.275000X0.312500X0*%
%ADD19RoundRect,0.225000X-0.225000X-0.250000X0.225000X-0.250000X0.225000X0.250000X-0.225000X0.250000X0*%
%ADD20R,0.558800X1.473200*%
%ADD21RoundRect,0.250000X-0.625000X0.312500X-0.625000X-0.312500X0.625000X-0.312500X0.625000X0.312500X0*%
%ADD22RoundRect,0.250000X0.275000X-0.312500X0.275000X0.312500X-0.275000X0.312500X-0.275000X-0.312500X0*%
%ADD23RoundRect,0.250000X-0.312500X-0.625000X0.312500X-0.625000X0.312500X0.625000X-0.312500X0.625000X0*%
%ADD24R,0.350800X1.161200*%
%ADD25R,0.889000X1.016000*%
%ADD26R,3.200000X1.000000*%
%ADD27RoundRect,0.200000X-0.275000X0.200000X-0.275000X-0.200000X0.275000X-0.200000X0.275000X0.200000X0*%
%ADD28R,0.558800X1.981200*%
%ADD29RoundRect,0.075000X-0.910000X-0.225000X0.910000X-0.225000X0.910000X0.225000X-0.910000X0.225000X0*%
%ADD30RoundRect,0.073750X-0.556250X-0.221250X0.556250X-0.221250X0.556250X0.221250X-0.556250X0.221250X0*%
%ADD31RoundRect,0.140000X-0.170000X0.140000X-0.170000X-0.140000X0.170000X-0.140000X0.170000X0.140000X0*%
%ADD32RoundRect,0.250000X-0.425000X0.450000X-0.425000X-0.450000X0.425000X-0.450000X0.425000X0.450000X0*%
%ADD33RoundRect,0.250000X-1.025000X0.787500X-1.025000X-0.787500X1.025000X-0.787500X1.025000X0.787500X0*%
%ADD34RoundRect,0.475000X1.125000X-0.475000X1.125000X0.475000X-1.125000X0.475000X-1.125000X-0.475000X0*%
%ADD35RoundRect,0.250000X0.625000X-0.312500X0.625000X0.312500X-0.625000X0.312500X-0.625000X-0.312500X0*%
%ADD36R,0.584200X2.159000*%
%ADD37R,1.161200X0.350800*%
%ADD38RoundRect,0.200000X0.275000X-0.200000X0.275000X0.200000X-0.275000X0.200000X-0.275000X-0.200000X0*%
%ADD39RoundRect,0.250000X-0.450000X-0.425000X0.450000X-0.425000X0.450000X0.425000X-0.450000X0.425000X0*%
%ADD40RoundRect,0.225000X0.225000X0.250000X-0.225000X0.250000X-0.225000X-0.250000X0.225000X-0.250000X0*%
%ADD41RoundRect,0.135000X0.135000X0.185000X-0.135000X0.185000X-0.135000X-0.185000X0.135000X-0.185000X0*%
%ADD42RoundRect,0.140000X-0.140000X-0.170000X0.140000X-0.170000X0.140000X0.170000X-0.140000X0.170000X0*%
%ADD43RoundRect,0.135000X-0.135000X-0.185000X0.135000X-0.185000X0.135000X0.185000X-0.135000X0.185000X0*%
%ADD44RoundRect,0.250000X0.250000X0.475000X-0.250000X0.475000X-0.250000X-0.475000X0.250000X-0.475000X0*%
%ADD45RoundRect,0.245000X-0.245000X-1.455000X0.245000X-1.455000X0.245000X1.455000X-0.245000X1.455000X0*%
%ADD46RoundRect,0.250000X0.312500X0.275000X-0.312500X0.275000X-0.312500X-0.275000X0.312500X-0.275000X0*%
%ADD47RoundRect,0.250000X-0.250000X-0.475000X0.250000X-0.475000X0.250000X0.475000X-0.250000X0.475000X0*%
%ADD48RoundRect,0.250000X0.262500X0.450000X-0.262500X0.450000X-0.262500X-0.450000X0.262500X-0.450000X0*%
%ADD49R,1.600200X0.838200*%
%ADD50R,1.600200X3.048000*%
%ADD51RoundRect,0.073750X0.556250X0.221250X-0.556250X0.221250X-0.556250X-0.221250X0.556250X-0.221250X0*%
%ADD52R,0.558800X1.651000*%
G04 APERTURE END LIST*
D10*
%TO.C,R28*%
X278970000Y-144065000D03*
X278970000Y-142515000D03*
%TD*%
D11*
%TO.C,C39*%
X185356250Y-247500001D03*
X185356250Y-244800001D03*
%TD*%
D12*
%TO.C,C63*%
X243895000Y-182200000D03*
X243895000Y-181240000D03*
%TD*%
D13*
%TO.C,C29*%
X159025000Y-210472500D03*
X159025000Y-204247500D03*
%TD*%
D14*
%TO.C,R43*%
X252845000Y-215770000D03*
X251195000Y-215770000D03*
%TD*%
D15*
%TO.C,C54*%
X234480000Y-210975000D03*
X234480000Y-212525000D03*
%TD*%
D11*
%TO.C,C46*%
X215446250Y-247714999D03*
X215446250Y-245014999D03*
%TD*%
D16*
%TO.C,L5*%
X168315000Y-215681000D03*
X177915000Y-215681000D03*
%TD*%
D17*
%TO.C,R16*%
X167135000Y-189320000D03*
X168785000Y-189320000D03*
%TD*%
D11*
%TO.C,C37*%
X215845000Y-208985000D03*
X215845000Y-206285000D03*
%TD*%
D18*
%TO.C,C59*%
X220150000Y-241895000D03*
X220150000Y-243670000D03*
%TD*%
D17*
%TO.C,F3*%
X151710000Y-210480000D03*
X153360000Y-210480000D03*
%TD*%
D19*
%TO.C,R38*%
X199905000Y-186230000D03*
X201455000Y-186230000D03*
%TD*%
D20*
%TO.C,U2*%
X147660000Y-180632400D03*
X146709999Y-180632400D03*
X145759998Y-180632400D03*
X145759998Y-183020000D03*
X147660000Y-183020000D03*
%TD*%
D17*
%TO.C,R7*%
X154445000Y-185370000D03*
X156095000Y-185370000D03*
%TD*%
D21*
%TO.C,R11*%
X184775000Y-137147500D03*
X184775000Y-140072500D03*
%TD*%
D22*
%TO.C,C65*%
X229510000Y-251807500D03*
X229510000Y-250032500D03*
%TD*%
D23*
%TO.C,F1*%
X138127500Y-65752500D03*
X141052500Y-65752500D03*
%TD*%
D24*
%TO.C,M2*%
X185140000Y-162520000D03*
X186139998Y-162520000D03*
X185639999Y-161170000D03*
%TD*%
D25*
%TO.C,U9*%
X229239900Y-209267500D03*
X226928500Y-209267500D03*
X224617100Y-209267500D03*
D26*
X226928500Y-216260000D03*
%TD*%
D27*
%TO.C,R35*%
X246730000Y-193235000D03*
X246730000Y-194885000D03*
%TD*%
D28*
%TO.C,U12*%
X246555000Y-188193800D03*
X247825000Y-188193800D03*
X249095000Y-188193800D03*
X250365000Y-188193800D03*
X250365000Y-183266200D03*
X249095000Y-183266200D03*
X247825000Y-183266200D03*
X246555000Y-183266200D03*
%TD*%
D14*
%TO.C,R42*%
X252765000Y-247060000D03*
X251115000Y-247060000D03*
%TD*%
D12*
%TO.C,C48*%
X271620000Y-141470000D03*
X271620000Y-140510000D03*
%TD*%
D29*
%TO.C,U7*%
X262265000Y-139085000D03*
X262265000Y-140355000D03*
X262265000Y-141625000D03*
X262265000Y-142895000D03*
X267205000Y-142895000D03*
X267205000Y-141625000D03*
X267205000Y-140355000D03*
X267205000Y-139085000D03*
%TD*%
D19*
%TO.C,C28*%
X206925000Y-261150000D03*
X208475000Y-261150000D03*
%TD*%
D30*
%TO.C,D2*%
X255140000Y-54520000D03*
X255140000Y-56420000D03*
X257100000Y-55470000D03*
%TD*%
D31*
%TO.C,C61*%
X253050000Y-189290000D03*
X253050000Y-190250000D03*
%TD*%
D32*
%TO.C,C16*%
X252565000Y-59450000D03*
X252565000Y-62150000D03*
%TD*%
D33*
%TO.C,C9*%
X185345000Y-49845000D03*
X185345000Y-56070000D03*
%TD*%
D12*
%TO.C,C62*%
X245125000Y-182220000D03*
X245125000Y-181260000D03*
%TD*%
D34*
%TO.C,L9*%
X163980000Y-57780000D03*
X163980000Y-61480000D03*
X151380000Y-61480000D03*
X151380000Y-57780000D03*
%TD*%
D35*
%TO.C,R8*%
X143510000Y-65745000D03*
X143510000Y-62820000D03*
%TD*%
D13*
%TO.C,C17*%
X143240000Y-131592500D03*
X143240000Y-125367500D03*
%TD*%
D36*
%TO.C,R1*%
X260966600Y-59460000D03*
X262033400Y-59460000D03*
%TD*%
D17*
%TO.C,R14*%
X179935000Y-176640000D03*
X181585000Y-176640000D03*
%TD*%
D37*
%TO.C,M4*%
X250600000Y-231450000D03*
X250600000Y-232449998D03*
X251950000Y-231949999D03*
%TD*%
D38*
%TO.C,R39*%
X231580000Y-251755000D03*
X231580000Y-250105000D03*
%TD*%
D33*
%TO.C,C18*%
X176455000Y-130167500D03*
X176455000Y-136392500D03*
%TD*%
D39*
%TO.C,C55*%
X230820000Y-216690000D03*
X233520000Y-216690000D03*
%TD*%
D12*
%TO.C,C47*%
X270310000Y-141490000D03*
X270310000Y-140530000D03*
%TD*%
D33*
%TO.C,C19*%
X184785000Y-123367500D03*
X184785000Y-129592500D03*
%TD*%
D16*
%TO.C,L6*%
X168195000Y-199811000D03*
X177795000Y-199811000D03*
%TD*%
D38*
%TO.C,R40*%
X248110000Y-201435000D03*
X248110000Y-199785000D03*
%TD*%
%TO.C,R41*%
X248420000Y-232775000D03*
X248420000Y-231125000D03*
%TD*%
D33*
%TO.C,C8*%
X177015000Y-56645000D03*
X177015000Y-62870000D03*
%TD*%
D37*
%TO.C,M3*%
X250410000Y-200120002D03*
X250410000Y-201120000D03*
X251760000Y-200620001D03*
%TD*%
D40*
%TO.C,R22*%
X246815000Y-174920000D03*
X245265000Y-174920000D03*
%TD*%
D35*
%TO.C,R10*%
X143276250Y-138752500D03*
X143276250Y-135827500D03*
%TD*%
D24*
%TO.C,M1*%
X188450001Y-179325000D03*
X189449999Y-179325000D03*
X188950000Y-177975000D03*
%TD*%
D36*
%TO.C,R2*%
X264116600Y-134520000D03*
X265183400Y-134520000D03*
%TD*%
D17*
%TO.C,R34*%
X238395000Y-179080000D03*
X240045000Y-179080000D03*
%TD*%
D41*
%TO.C,R30*%
X247720000Y-190380000D03*
X246700000Y-190380000D03*
%TD*%
D42*
%TO.C,C56*%
X246730000Y-191620000D03*
X247690000Y-191620000D03*
%TD*%
D34*
%TO.C,L10*%
X162710000Y-131680000D03*
X162710000Y-135380000D03*
X150110000Y-135380000D03*
X150110000Y-131680000D03*
%TD*%
D43*
%TO.C,R32*%
X247930000Y-180880000D03*
X248950000Y-180880000D03*
%TD*%
D38*
%TO.C,R44*%
X199180000Y-171525000D03*
X199180000Y-169875000D03*
%TD*%
D44*
%TO.C,C5*%
X236240000Y-94120000D03*
X234340000Y-94120000D03*
%TD*%
D45*
%TO.C,L3*%
X168160000Y-137605000D03*
X170530000Y-137605000D03*
%TD*%
D31*
%TO.C,C60*%
X251800000Y-189290000D03*
X251800000Y-190250000D03*
%TD*%
D14*
%TO.C,R31*%
X254175000Y-181150000D03*
X252525000Y-181150000D03*
%TD*%
D15*
%TO.C,R27*%
X277130000Y-68465000D03*
X277130000Y-70015000D03*
%TD*%
D16*
%TO.C,L7*%
X167916250Y-254411000D03*
X177516250Y-254411000D03*
%TD*%
D17*
%TO.C,R36*%
X225195000Y-240170000D03*
X226845000Y-240170000D03*
%TD*%
%TO.C,R19*%
X184855000Y-164750000D03*
X186505000Y-164750000D03*
%TD*%
D46*
%TO.C,C51*%
X223097500Y-206990000D03*
X221322500Y-206990000D03*
%TD*%
D40*
%TO.C,C4*%
X147954999Y-177556200D03*
X146404999Y-177556200D03*
%TD*%
D47*
%TO.C,C6*%
X234280000Y-101500000D03*
X236180000Y-101500000D03*
%TD*%
D13*
%TO.C,C38*%
X158626250Y-249202501D03*
X158626250Y-242977501D03*
%TD*%
%TO.C,C7*%
X143530000Y-59600000D03*
X143530000Y-53375000D03*
%TD*%
D15*
%TO.C,R20*%
X270190000Y-145585000D03*
X270190000Y-147135000D03*
%TD*%
D42*
%TO.C,C66*%
X247980000Y-179650000D03*
X248940000Y-179650000D03*
%TD*%
D11*
%TO.C,C30*%
X185755000Y-208770000D03*
X185755000Y-206070000D03*
%TD*%
D16*
%TO.C,L8*%
X167796250Y-238541001D03*
X177396250Y-238541001D03*
%TD*%
D45*
%TO.C,L1*%
X168720000Y-64082500D03*
X171090000Y-64082500D03*
%TD*%
D43*
%TO.C,R29*%
X235700000Y-192840000D03*
X236720000Y-192840000D03*
%TD*%
D40*
%TO.C,R23*%
X246820000Y-173010000D03*
X245270000Y-173010000D03*
%TD*%
D10*
%TO.C,R26*%
X278990000Y-70015000D03*
X278990000Y-68465000D03*
%TD*%
D27*
%TO.C,R24*%
X232520000Y-210935000D03*
X232520000Y-212585000D03*
%TD*%
D21*
%TO.C,R9*%
X185335000Y-63625000D03*
X185335000Y-66550000D03*
%TD*%
D17*
%TO.C,R15*%
X188115000Y-181630000D03*
X189765000Y-181630000D03*
%TD*%
D23*
%TO.C,F2*%
X137927500Y-138720000D03*
X140852500Y-138720000D03*
%TD*%
D48*
%TO.C,R3*%
X262712500Y-130820000D03*
X260887500Y-130820000D03*
%TD*%
D17*
%TO.C,R33*%
X221445000Y-240150000D03*
X223095000Y-240150000D03*
%TD*%
D32*
%TO.C,C26*%
X252005000Y-132972500D03*
X252005000Y-135672500D03*
%TD*%
D15*
%TO.C,C52*%
X268250000Y-145585000D03*
X268250000Y-147135000D03*
%TD*%
D10*
%TO.C,C67*%
X197180000Y-171475000D03*
X197180000Y-169925000D03*
%TD*%
D48*
%TO.C,R4*%
X260912500Y-55460000D03*
X259087500Y-55460000D03*
%TD*%
D19*
%TO.C,C27*%
X207245000Y-193120000D03*
X208795000Y-193120000D03*
%TD*%
D49*
%TO.C,U13*%
X223099600Y-242720000D03*
X223099600Y-245020000D03*
X223099600Y-247320000D03*
D50*
X229500400Y-245020000D03*
%TD*%
D51*
%TO.C,D1*%
X257340000Y-130830000D03*
X257340000Y-128930000D03*
X255380000Y-129880000D03*
%TD*%
D17*
%TO.C,F4*%
X151311250Y-249210000D03*
X152961250Y-249210000D03*
%TD*%
%TO.C,R18*%
X179415000Y-152080000D03*
X181065000Y-152080000D03*
%TD*%
D52*
%TO.C,Q1*%
X185005000Y-173504200D03*
X186275000Y-173504200D03*
X186275000Y-167255800D03*
X185005000Y-167255800D03*
%TD*%
D17*
%TO.C,R17*%
X179410000Y-153950000D03*
X181060000Y-153950000D03*
%TD*%
D45*
%TO.C,L2*%
X168640000Y-55932500D03*
X171010000Y-55932500D03*
%TD*%
%TO.C,L4*%
X168080000Y-129455000D03*
X170450000Y-129455000D03*
%TD*%
M02*
